<?xml version="1.0" encoding="UTF-8" standalone="no"?>
<!DOCTYPE svg PUBLIC "-//W3C//DTD SVG 1.1//EN"
 "http://www.w3.org/Graphics/SVG/1.1/DTD/svg11.dtd">
<!-- Generated by graphviz version 2.47.1 (20210417.1919)
 -->
<!-- Title: Assertion.h Pages: 1 -->
<!--zoomable 257 -->
<svg id="main" version="1.1" xmlns="http://www.w3.org/2000/svg" xmlns:xlink="http://www.w3.org/1999/xlink" xml:space="preserve" onload="init(evt)">
<style type="text/css"><![CDATA[
.edge:hover path { stroke: red; }
.edge:hover polygon { stroke: red; fill: red; }
]]></style>
<script type="text/javascript"><![CDATA[
var edges = document.getElementsByTagName('g');
if (edges && edges.length) {
  for (var i=0;i<edges.length;i++) {
    if (edges[i].id.substr(0,4)=='edge') {
      edges[i].setAttribute('class','edge');
    }
  }
}
]]></script>
        <defs>
                <circle id="rim" cx="0" cy="0" r="7"/>
                <circle id="rim2" cx="0" cy="0" r="3.5"/>
                <g id="zoomPlus">
                        <use xlink:href="#rim" fill="#404040">
                                <set attributeName="fill" to="#808080" begin="zoomplus.mouseover" end="zoomplus.mouseout"/>
                        </use>
                        <path d="M-4,0h8M0,-4v8" fill="none" stroke="white" stroke-width="1.5" pointer-events="none"/>
                </g>
                <g id="zoomMin">
                        <use xlink:href="#rim" fill="#404040">
                                <set attributeName="fill" to="#808080" begin="zoomminus.mouseover" end="zoomminus.mouseout"/>
                        </use>
                        <path d="M-4,0h8" fill="none" stroke="white" stroke-width="1.5" pointer-events="none"/>
                </g>
                <g id="dirArrow">
                        <path fill="none" stroke="white" stroke-width="1.5" d="M0,-3.0v7 M-2.5,-0.5L0,-3.0L2.5,-0.5"/>
                </g>
               <g id="resetDef">
                       <use xlink:href="#rim2" fill="#404040">
                               <set attributeName="fill" to="#808080" begin="reset.mouseover" end="reset.mouseout"/>
                       </use>
               </g>
        </defs>

<script type="text/javascript">
var viewWidth = 1326;
var viewHeight = 257;
var sectionId = 'dynsection-1';
</script>
<script xlink:href="svgpan.js"/>
<svg id="graph" class="graph">
<g id="viewport">
<title>Assertion.h</title>
<polygon fill="white" stroke="transparent" points="-4,4 -4,-253 1321.5,-253 1321.5,4 -4,4"/>
<!-- Node1 -->
<g id="node1" class="node">
<title>Node1</title>
<g id="a_node1"><a xlink:title="The Assertion specification defines macros for pre&#45; and postconditions in functions or methods.">
<polygon fill="#bfbfbf" stroke="black" points="653,-228.5 653,-248.5 724,-248.5 724,-228.5 653,-228.5"/>
<text text-anchor="middle" x="688.5" y="-235.7" font-family="Helvetica,sans-Serif" font-size="11.00">Assertion.h</text>
</a>
</g>
</g>
<!-- Node2 -->
<g id="node2" class="node">
<title>Node2</title>
<g id="a_node2"><a xlink:href="_audio_sample_fifo_queue_8cpp-inc.html" target="_top" xlink:title="The AudioSampleFifoQueue body implements a fifo queue for audio samples with popping off access to th...">
<polygon fill="white" stroke="black" points="29,-171.5 29,-191.5 200,-191.5 200,-171.5 29,-171.5"/>
<text text-anchor="middle" x="114.5" y="-178.7" font-family="Helvetica,sans-Serif" font-size="11.00">AudioSampleFifoQueue.cpp&#45;inc</text>
</a>
</g>
</g>
<!-- Node1&#45;&gt;Node2 -->
<g id="edge1" class="edge">
<title>Node1&#45;&gt;Node2</title>
<path fill="none" stroke="midnightblue" d="M642.62,-233.1C546.68,-223.91 323.52,-202.53 200.21,-190.71"/>
<polygon fill="midnightblue" stroke="midnightblue" points="642.31,-236.59 652.59,-234.06 642.97,-229.62 642.31,-236.59"/>
</g>
<!-- Node8 -->
<g id="node8" class="node">
<title>Node8</title>
<g id="a_node8"><a xlink:href="_audio_sample_fifo_queue_vector_8cpp-inc.html" target="_top" xlink:title="The AudioSampleFifoQueueVector body implements a list of fifo queues for audio samples (this is the e...">
<polygon fill="white" stroke="black" points="165,-114.5 165,-134.5 368,-134.5 368,-114.5 165,-114.5"/>
<text text-anchor="middle" x="266.5" y="-121.7" font-family="Helvetica,sans-Serif" font-size="11.00">AudioSampleFifoQueueVector.cpp&#45;inc</text>
</a>
</g>
</g>
<!-- Node1&#45;&gt;Node8 -->
<g id="edge7" class="edge">
<title>Node1&#45;&gt;Node8</title>
<path fill="none" stroke="midnightblue" d="M642.76,-235.95C538.7,-231.96 291.31,-219.63 266.5,-192 252.31,-176.19 258.52,-148.76 263.13,-134.57"/>
<polygon fill="midnightblue" stroke="midnightblue" points="642.83,-239.46 652.96,-236.33 643.09,-232.46 642.83,-239.46"/>
</g>
<!-- Node9 -->
<g id="node9" class="node">
<title>Node9</title>
<g id="a_node9"><a xlink:href="_wave_file_8cpp.html" target="_top" xlink:title="The WaveFile specification defines an object for accessing a RIFF wave file with several channels.">
<polygon fill="white" stroke="black" points="276,-171.5 276,-191.5 359,-191.5 359,-171.5 276,-171.5"/>
<text text-anchor="middle" x="317.5" y="-178.7" font-family="Helvetica,sans-Serif" font-size="11.00">WaveFile.cpp</text>
</a>
</g>
</g>
<!-- Node1&#45;&gt;Node9 -->
<g id="edge9" class="edge">
<title>Node1&#45;&gt;Node9</title>
<path fill="none" stroke="midnightblue" d="M642.65,-231.61C580.44,-223.47 465.86,-207.98 368.5,-192 365.48,-191.5 362.36,-190.97 359.22,-190.42"/>
<polygon fill="midnightblue" stroke="midnightblue" points="642.54,-235.13 652.91,-232.95 643.45,-228.18 642.54,-235.13"/>
</g>
<!-- Node10 -->
<g id="node10" class="node">
<title>Node10</title>
<g id="a_node10"><a xlink:href="_command_line_arguments_8cpp.html" target="_top" xlink:title="The CommandLineArguments body implements a handler for command&#45;line arguments converting them to a li...">
<polygon fill="white" stroke="black" points="377,-171.5 377,-191.5 540,-191.5 540,-171.5 377,-171.5"/>
<text text-anchor="middle" x="458.5" y="-178.7" font-family="Helvetica,sans-Serif" font-size="11.00">CommandLineArguments.cpp</text>
</a>
</g>
</g>
<!-- Node1&#45;&gt;Node10 -->
<g id="edge10" class="edge">
<title>Node1&#45;&gt;Node10</title>
<path fill="none" stroke="midnightblue" d="M642.9,-226.6C599.94,-216.32 536.34,-201.11 496.18,-191.51"/>
<polygon fill="midnightblue" stroke="midnightblue" points="642.28,-230.04 652.81,-228.97 643.9,-223.24 642.28,-230.04"/>
</g>
<!-- Node11 -->
<g id="node11" class="node">
<title>Node11</title>
<g id="a_node11"><a xlink:href="_file_8cpp.html" target="_top" xlink:title="The File body implements a class for simple file handling based on C stdio.">
<polygon fill="white" stroke="black" points="558,-171.5 558,-191.5 613,-191.5 613,-171.5 558,-171.5"/>
<text text-anchor="middle" x="585.5" y="-178.7" font-family="Helvetica,sans-Serif" font-size="11.00">File.cpp</text>
</a>
</g>
</g>
<!-- Node1&#45;&gt;Node11 -->
<g id="edge11" class="edge">
<title>Node1&#45;&gt;Node11</title>
<path fill="none" stroke="midnightblue" d="M662.55,-223.65C643.75,-213.61 618.87,-200.32 602.53,-191.6"/>
<polygon fill="midnightblue" stroke="midnightblue" points="661.02,-226.79 671.49,-228.42 664.32,-220.62 661.02,-226.79"/>
</g>
<!-- Node12 -->
<g id="node12" class="node">
<title>Node12</title>
<g id="a_node12"><a xlink:href="_logging_support_8cpp.html" target="_top" xlink:title="The LoggingSupport body implements a class for simple entry/exit logging to a file; this logging reli...">
<polygon fill="white" stroke="black" points="631.5,-171.5 631.5,-191.5 745.5,-191.5 745.5,-171.5 631.5,-171.5"/>
<text text-anchor="middle" x="688.5" y="-178.7" font-family="Helvetica,sans-Serif" font-size="11.00">LoggingSupport.cpp</text>
</a>
</g>
</g>
<!-- Node1&#45;&gt;Node12 -->
<g id="edge12" class="edge">
<title>Node1&#45;&gt;Node12</title>
<path fill="none" stroke="midnightblue" d="M688.5,-218.38C688.5,-209.37 688.5,-199.04 688.5,-191.78"/>
<polygon fill="midnightblue" stroke="midnightblue" points="685,-218.42 688.5,-228.42 692,-218.42 685,-218.42"/>
</g>
<!-- Node13 -->
<g id="node13" class="node">
<title>Node13</title>
<g id="a_node13"><a xlink:href="_dictionary_8cpp.html" target="_top" xlink:title="The Dictionary body implements maps from string keys to string values.">
<polygon fill="white" stroke="black" points="763.5,-171.5 763.5,-191.5 849.5,-191.5 849.5,-171.5 763.5,-171.5"/>
<text text-anchor="middle" x="806.5" y="-178.7" font-family="Helvetica,sans-Serif" font-size="11.00">Dictionary.cpp</text>
</a>
</g>
</g>
<!-- Node1&#45;&gt;Node13 -->
<g id="edge13" class="edge">
<title>Node1&#45;&gt;Node13</title>
<path fill="none" stroke="midnightblue" d="M717.05,-224.19C738.72,-214.09 767.93,-200.48 786.99,-191.6"/>
<polygon fill="midnightblue" stroke="midnightblue" points="715.57,-221.02 707.99,-228.42 718.53,-227.37 715.57,-221.02"/>
</g>
<!-- Node14 -->
<g id="node14" class="node">
<title>Node14</title>
<g id="a_node14"><a xlink:href="_string_list_8cpp.html" target="_top" xlink:title="The StringList body implements sequences of string values with zero&#45;based arbitrary indexed access to...">
<polygon fill="white" stroke="black" points="868,-171.5 868,-191.5 951,-191.5 951,-171.5 868,-171.5"/>
<text text-anchor="middle" x="909.5" y="-178.7" font-family="Helvetica,sans-Serif" font-size="11.00">StringList.cpp</text>
</a>
</g>
</g>
<!-- Node1&#45;&gt;Node14 -->
<g id="edge14" class="edge">
<title>Node1&#45;&gt;Node14</title>
<path fill="none" stroke="midnightblue" d="M733.78,-226.23C774.91,-216 834.82,-201.08 872.98,-191.59"/>
<polygon fill="midnightblue" stroke="midnightblue" points="732.87,-222.85 724.01,-228.66 734.56,-229.64 732.87,-222.85"/>
</g>
<!-- Node15 -->
<g id="node15" class="node">
<title>Node15</title>
<g id="a_node15"><a xlink:href="_fluid_synth_file_converter_8cpp.html" target="_top" xlink:title="The FluidSynthFileConverter module implements a conversion from a MIDI file into a wave file using th...">
<polygon fill="white" stroke="black" points="969.5,-171.5 969.5,-191.5 1123.5,-191.5 1123.5,-171.5 969.5,-171.5"/>
<text text-anchor="middle" x="1046.5" y="-178.7" font-family="Helvetica,sans-Serif" font-size="11.00">FluidSynthFileConverter.cpp</text>
</a>
</g>
</g>
<!-- Node1&#45;&gt;Node15 -->
<g id="edge15" class="edge">
<title>Node1&#45;&gt;Node15</title>
<path fill="none" stroke="midnightblue" d="M734.41,-230.45C799.03,-220.52 916.8,-202.43 987.73,-191.53"/>
<polygon fill="midnightblue" stroke="midnightblue" points="733.49,-227.05 724.14,-232.03 734.55,-233.97 733.49,-227.05"/>
</g>
<!-- Node16 -->
<g id="node16" class="node">
<title>Node16</title>
<g id="a_node16"><a xlink:href="_midi_event_8cpp.html" target="_top" xlink:title="The MidiEvent implementation defines the services of a single MIDI event.">
<polygon fill="white" stroke="black" points="1141.5,-171.5 1141.5,-191.5 1225.5,-191.5 1225.5,-171.5 1141.5,-171.5"/>
<text text-anchor="middle" x="1183.5" y="-178.7" font-family="Helvetica,sans-Serif" font-size="11.00">MidiEvent.cpp</text>
</a>
</g>
</g>
<!-- Node1&#45;&gt;Node16 -->
<g id="edge16" class="edge">
<title>Node1&#45;&gt;Node16</title>
<path fill="none" stroke="midnightblue" d="M734.32,-234.05C815.03,-227.7 987.72,-212.87 1132.5,-192 1135.35,-191.59 1138.29,-191.13 1141.24,-190.65"/>
<polygon fill="midnightblue" stroke="midnightblue" points="733.71,-230.59 724.02,-234.86 734.26,-237.57 733.71,-230.59"/>
</g>
<!-- Node17 -->
<g id="node17" class="node">
<title>Node17</title>
<g id="a_node17"><a xlink:href="_midi_file_8cpp.html" target="_top" xlink:title="The MidiFile implementation implements the services of a MIDI file; currently only file reading is su...">
<polygon fill="white" stroke="black" points="1243.5,-171.5 1243.5,-191.5 1317.5,-191.5 1317.5,-171.5 1243.5,-171.5"/>
<text text-anchor="middle" x="1280.5" y="-178.7" font-family="Helvetica,sans-Serif" font-size="11.00">MidiFile.cpp</text>
</a>
</g>
</g>
<!-- Node1&#45;&gt;Node17 -->
<g id="edge17" class="edge">
<title>Node1&#45;&gt;Node17</title>
<path fill="none" stroke="midnightblue" d="M734.15,-235.56C828.16,-231.15 1050.07,-218.63 1234.5,-192 1237.41,-191.58 1240.4,-191.09 1243.41,-190.56"/>
<polygon fill="midnightblue" stroke="midnightblue" points="733.95,-232.06 724.12,-236.02 734.27,-239.06 733.95,-232.06"/>
</g>
<!-- Node3 -->
<g id="node3" class="node">
<title>Node3</title>
<g id="a_node3"><a xlink:href="_audio_sample_fifo_queue_8h.html" target="_top" xlink:title="The AudioSampleFifoQueue specification defines a fifo queue for audio samples with popping off access...">
<polygon fill="white" stroke="black" points="6,-114.5 6,-134.5 147,-134.5 147,-114.5 6,-114.5"/>
<text text-anchor="middle" x="76.5" y="-121.7" font-family="Helvetica,sans-Serif" font-size="11.00">AudioSampleFifoQueue.h</text>
</a>
</g>
</g>
<!-- Node2&#45;&gt;Node3 -->
<g id="edge2" class="edge">
<title>Node2&#45;&gt;Node3</title>
<path fill="none" stroke="midnightblue" d="M102.51,-163.15C96.02,-153.75 88.26,-142.52 82.91,-134.78"/>
<polygon fill="midnightblue" stroke="midnightblue" points="99.66,-165.18 108.23,-171.42 105.42,-161.2 99.66,-165.18"/>
</g>
<!-- Node4 -->
<g id="node4" class="node">
<title>Node4</title>
<g id="a_node4"><a xlink:href="_audio_sample_fifo_queue_8cpp.html" target="_top" xlink:title="The AudioSampleFifoQueue body implements a fifo queue for audio samples with popping off access to th...">
<polygon fill="white" stroke="black" points="0,-57.5 0,-77.5 153,-77.5 153,-57.5 0,-57.5"/>
<text text-anchor="middle" x="76.5" y="-64.7" font-family="Helvetica,sans-Serif" font-size="11.00">AudioSampleFifoQueue.cpp</text>
</a>
</g>
</g>
<!-- Node3&#45;&gt;Node4 -->
<g id="edge3" class="edge">
<title>Node3&#45;&gt;Node4</title>
<path fill="none" stroke="midnightblue" d="M76.5,-104.38C76.5,-95.37 76.5,-85.04 76.5,-77.78"/>
<polygon fill="midnightblue" stroke="midnightblue" points="73,-104.42 76.5,-114.42 80,-104.42 73,-104.42"/>
</g>
<!-- Node5 -->
<g id="node5" class="node">
<title>Node5</title>
<g id="a_node5"><a xlink:href="_audio_sample_fifo_queue_vector_8h.html" target="_top" xlink:title="The AudioSampleFifoQueueVector specification defines a list of fifo queues for audio samples.">
<polygon fill="white" stroke="black" points="175,-57.5 175,-77.5 348,-77.5 348,-57.5 175,-57.5"/>
<text text-anchor="middle" x="261.5" y="-64.7" font-family="Helvetica,sans-Serif" font-size="11.00">AudioSampleFifoQueueVector.h</text>
</a>
</g>
</g>
<!-- Node3&#45;&gt;Node5 -->
<g id="edge4" class="edge">
<title>Node3&#45;&gt;Node5</title>
<path fill="none" stroke="midnightblue" d="M116.8,-111.52C151.23,-101.28 200.02,-86.78 231.21,-77.5"/>
<polygon fill="midnightblue" stroke="midnightblue" points="115.64,-108.21 107.05,-114.42 117.63,-114.92 115.64,-108.21"/>
</g>
<!-- Node6 -->
<g id="node6" class="node">
<title>Node6</title>
<g id="a_node6"><a xlink:href="_audio_sample_fifo_queue_vector_8cpp.html" target="_top" xlink:title="The AudioSampleFifoQueueVector body implements a list of fifo queues for audio samples (this is the f...">
<polygon fill="white" stroke="black" points="63,-0.5 63,-20.5 248,-20.5 248,-0.5 63,-0.5"/>
<text text-anchor="middle" x="155.5" y="-7.7" font-family="Helvetica,sans-Serif" font-size="11.00">AudioSampleFifoQueueVector.cpp</text>
</a>
</g>
</g>
<!-- Node5&#45;&gt;Node6 -->
<g id="edge5" class="edge">
<title>Node5&#45;&gt;Node6</title>
<path fill="none" stroke="midnightblue" d="M235.06,-52.78C215.69,-42.73 189.92,-29.36 173.03,-20.6"/>
<polygon fill="midnightblue" stroke="midnightblue" points="233.51,-55.92 244,-57.42 236.73,-49.71 233.51,-55.92"/>
</g>
<!-- Node7 -->
<g id="node7" class="node">
<title>Node7</title>
<g id="a_node7"><a xlink:href="_fluid_synth_plugin___event_processor_8cpp.html" target="_top" xlink:title="The FluidSynthPlugin_Processor module implements the handling of MIDI events from the DAW via JUCE ha...">
<polygon fill="white" stroke="black" points="266,-0.5 266,-20.5 469,-20.5 469,-0.5 266,-0.5"/>
<text text-anchor="middle" x="367.5" y="-7.7" font-family="Helvetica,sans-Serif" font-size="11.00">FluidSynthPlugin_EventProcessor.cpp</text>
</a>
</g>
</g>
<!-- Node5&#45;&gt;Node7 -->
<g id="edge6" class="edge">
<title>Node5&#45;&gt;Node7</title>
<path fill="none" stroke="midnightblue" d="M287.94,-52.78C307.31,-42.73 333.08,-29.36 349.97,-20.6"/>
<polygon fill="midnightblue" stroke="midnightblue" points="286.27,-49.71 279,-57.42 289.49,-55.92 286.27,-49.71"/>
</g>
<!-- Node8&#45;&gt;Node5 -->
<g id="edge8" class="edge">
<title>Node8&#45;&gt;Node5</title>
<path fill="none" stroke="midnightblue" d="M264.76,-104.38C263.94,-95.37 263,-85.04 262.34,-77.78"/>
<polygon fill="midnightblue" stroke="midnightblue" points="261.28,-104.78 265.67,-114.42 268.25,-104.14 261.28,-104.78"/>
</g>
</g>
</svg>
        <g id="navigator" transform="translate(0 0)" fill="#404254">
                <rect fill="#f2f5e9" fill-opacity="0.5" stroke="#606060" stroke-width=".5" x="0" y="0" width="60" height="60"/>
                <use id="zoomplus" xlink:href="#zoomPlus" x="17" y="9" onmousedown="handleZoom(evt,'in')"/>
                <use id="zoomminus" xlink:href="#zoomMin" x="42" y="9" onmousedown="handleZoom(evt,'out')"/>
                <use id="reset" xlink:href="#resetDef" x="30" y="36" onmousedown="handleReset()"/>
                <g id="arrowUp" xlink:href="#dirArrow" transform="translate(30 24)" onmousedown="handlePan(0,-1)">
                  <use xlink:href="#rim" fill="#404040">
                        <set attributeName="fill" to="#808080" begin="arrowUp.mouseover" end="arrowUp.mouseout"/>
                  </use>
                  <path fill="none" stroke="white" stroke-width="1.5" d="M0,-3.0v7 M-2.5,-0.5L0,-3.0L2.5,-0.5"/>
                </g>
                <g id="arrowRight" xlink:href="#dirArrow" transform="rotate(90) translate(36 -43)" onmousedown="handlePan(1,0)">
                  <use xlink:href="#rim" fill="#404040">
                        <set attributeName="fill" to="#808080" begin="arrowRight.mouseover" end="arrowRight.mouseout"/>
                  </use>
                  <path fill="none" stroke="white" stroke-width="1.5" d="M0,-3.0v7 M-2.5,-0.5L0,-3.0L2.5,-0.5"/>
                </g>
                <g id="arrowDown" xlink:href="#dirArrow" transform="rotate(180) translate(-30 -48)" onmousedown="handlePan(0,1)">
                  <use xlink:href="#rim" fill="#404040">
                        <set attributeName="fill" to="#808080" begin="arrowDown.mouseover" end="arrowDown.mouseout"/>
                  </use>
                  <path fill="none" stroke="white" stroke-width="1.5" d="M0,-3.0v7 M-2.5,-0.5L0,-3.0L2.5,-0.5"/>
                </g>
                <g id="arrowLeft" xlink:href="#dirArrow" transform="rotate(270) translate(-36 17)" onmousedown="handlePan(-1,0)">
                  <use xlink:href="#rim" fill="#404040">
                        <set attributeName="fill" to="#808080" begin="arrowLeft.mouseover" end="arrowLeft.mouseout"/>
                  </use>
                  <path fill="none" stroke="white" stroke-width="1.5" d="M0,-3.0v7 M-2.5,-0.5L0,-3.0L2.5,-0.5"/>
                </g>
        </g>
        <svg viewBox="0 0 15 15" width="100%" height="30px" preserveAspectRatio="xMaxYMin meet">
         <g id="arrow_out" transform="scale(0.3 0.3)">
          <a xlink:href="_assertion_8h__dep__incl_org.svg" target="_base">
           <rect id="button" ry="5" rx="5" y="6" x="6" height="38" width="38"
                fill="#f2f5e9" fill-opacity="0.5" stroke="#606060" stroke-width="1.0"/>
           <path id="arrow"
             d="M 11.500037,31.436501 C 11.940474,20.09759 22.043105,11.32322 32.158766,21.979434 L 37.068811,17.246167 C 37.068811,17.246167 37.088388,32 37.088388,32 L 22.160133,31.978069 C 22.160133,31.978069 26.997745,27.140456 26.997745,27.140456 C 18.528582,18.264221 13.291696,25.230495 11.500037,31.436501 z"
             style="fill:#404040;"/>
          </a>
         </g>
        </svg>
</svg>
