<?xml version="1.0" encoding="UTF-8" standalone="no"?>
<!DOCTYPE svg PUBLIC "-//W3C//DTD SVG 1.1//EN"
 "http://www.w3.org/Graphics/SVG/1.1/DTD/svg11.dtd">
<!-- Generated by graphviz version 2.47.1 (20210417.1919)
 -->
<!-- Title: AudioSampleFifoQueueVector.h Pages: 1 -->
<!--zoomable 588 -->
<svg id="main" version="1.1" xmlns="http://www.w3.org/2000/svg" xmlns:xlink="http://www.w3.org/1999/xlink" xml:space="preserve" onload="init(evt)">
<style type="text/css"><![CDATA[
.edge:hover path { stroke: red; }
.edge:hover polygon { stroke: red; fill: red; }
]]></style>
<script type="text/javascript"><![CDATA[
var edges = document.getElementsByTagName('g');
if (edges && edges.length) {
  for (var i=0;i<edges.length;i++) {
    if (edges[i].id.substr(0,4)=='edge') {
      edges[i].setAttribute('class','edge');
    }
  }
}
]]></script>
        <defs>
                <circle id="rim" cx="0" cy="0" r="7"/>
                <circle id="rim2" cx="0" cy="0" r="3.5"/>
                <g id="zoomPlus">
                        <use xlink:href="#rim" fill="#404040">
                                <set attributeName="fill" to="#808080" begin="zoomplus.mouseover" end="zoomplus.mouseout"/>
                        </use>
                        <path d="M-4,0h8M0,-4v8" fill="none" stroke="white" stroke-width="1.5" pointer-events="none"/>
                </g>
                <g id="zoomMin">
                        <use xlink:href="#rim" fill="#404040">
                                <set attributeName="fill" to="#808080" begin="zoomminus.mouseover" end="zoomminus.mouseout"/>
                        </use>
                        <path d="M-4,0h8" fill="none" stroke="white" stroke-width="1.5" pointer-events="none"/>
                </g>
                <g id="dirArrow">
                        <path fill="none" stroke="white" stroke-width="1.5" d="M0,-3.0v7 M-2.5,-0.5L0,-3.0L2.5,-0.5"/>
                </g>
               <g id="resetDef">
                       <use xlink:href="#rim2" fill="#404040">
                               <set attributeName="fill" to="#808080" begin="reset.mouseover" end="reset.mouseout"/>
                       </use>
               </g>
        </defs>

<script type="text/javascript">
var viewWidth = 819;
var viewHeight = 588;
var sectionId = 'dynsection-0';
</script>
<script xlink:href="svgpan.js"/>
<svg id="graph" class="graph">
<g id="viewport">
<title>AudioSampleFifoQueueVector.h</title>
<polygon fill="white" stroke="transparent" points="-4,4 -4,-584 814.5,-584 814.5,4 -4,4"/>
<!-- Node1 -->
<g id="node1" class="node">
<title>Node1</title>
<g id="a_node1"><a xlink:title="The AudioSampleFifoQueueVector specification defines a list of fifo queues for audio samples.">
<polygon fill="#bfbfbf" stroke="black" points="303.5,-560.5 303.5,-579.5 458.5,-579.5 458.5,-560.5 303.5,-560.5"/>
<text text-anchor="middle" x="381" y="-567.5" font-family="Helvetica,sans-Serif" font-size="10.00">AudioSampleFifoQueueVector.h</text>
</a>
</g>
</g>
<!-- Node2 -->
<g id="node2" class="node">
<title>Node2</title>
<g id="a_node2"><a xlink:href="_audio_sample_fifo_queue_8h.html" target="_top" xlink:title="The AudioSampleFifoQueue specification defines a fifo queue for audio samples with popping off access...">
<polygon fill="white" stroke="black" points="317.5,-504.5 317.5,-523.5 444.5,-523.5 444.5,-504.5 317.5,-504.5"/>
<text text-anchor="middle" x="381" y="-511.5" font-family="Helvetica,sans-Serif" font-size="10.00">AudioSampleFifoQueue.h</text>
</a>
</g>
</g>
<!-- Node1&#45;&gt;Node2 -->
<g id="edge1" class="edge">
<title>Node1&#45;&gt;Node2</title>
<path fill="none" stroke="midnightblue" d="M381,-560.08C381,-553.01 381,-542.86 381,-533.99"/>
<polygon fill="midnightblue" stroke="midnightblue" points="384.5,-533.75 381,-523.75 377.5,-533.75 384.5,-533.75"/>
</g>
<!-- Node30 -->
<g id="node30" class="node">
<title>Node30</title>
<g id="a_node30"><a xlink:href="_audio_sample_list_vector_8h.html" target="_top" xlink:title="The AudioSampleListVector specification defines the communication buffer structure for the block proc...">
<polygon fill="white" stroke="black" points="462.5,-504.5 462.5,-523.5 589.5,-523.5 589.5,-504.5 462.5,-504.5"/>
<text text-anchor="middle" x="526" y="-511.5" font-family="Helvetica,sans-Serif" font-size="10.00">AudioSampleListVector.h</text>
</a>
</g>
</g>
<!-- Node1&#45;&gt;Node30 -->
<g id="edge45" class="edge">
<title>Node1&#45;&gt;Node30</title>
<path fill="none" stroke="midnightblue" d="M403.98,-560.44C428.16,-551.44 466.42,-537.19 493.65,-527.05"/>
<polygon fill="midnightblue" stroke="midnightblue" points="494.98,-530.29 503.13,-523.52 492.54,-523.73 494.98,-530.29"/>
</g>
<!-- Node32 -->
<g id="node32" class="node">
<title>Node32</title>
<g id="a_node32"><a xlink:href="_audio_sample_fifo_queue_vector_8cpp-inc.html" target="_top" xlink:title="The AudioSampleFifoQueueVector body implements a list of fifo queues for audio samples (this is the e...">
<polygon fill="white" stroke="black" points="0,-448.5 0,-467.5 182,-467.5 182,-448.5 0,-448.5"/>
<text text-anchor="middle" x="91" y="-455.5" font-family="Helvetica,sans-Serif" font-size="10.00">AudioSampleFifoQueueVector.cpp&#45;inc</text>
</a>
</g>
</g>
<!-- Node1&#45;&gt;Node32 -->
<g id="edge48" class="edge">
<title>Node1&#45;&gt;Node32</title>
<path fill="none" stroke="midnightblue" d="M358.24,-560.37C307,-540.93 182.41,-493.67 123.24,-471.23"/>
<polygon fill="midnightblue" stroke="midnightblue" points="124.24,-467.87 113.65,-467.59 121.76,-474.41 124.24,-467.87"/>
</g>
<!-- Node3 -->
<g id="node3" class="node">
<title>Node3</title>
<g id="a_node3"><a xlink:href="_natural_8h.html" target="_top" xlink:title="The Natural specification and body provides a value object type for naturals (positive integers with ...">
<polygon fill="white" stroke="black" points="355,-112.5 355,-131.5 411,-131.5 411,-112.5 355,-112.5"/>
<text text-anchor="middle" x="383" y="-119.5" font-family="Helvetica,sans-Serif" font-size="10.00">Natural.h</text>
</a>
</g>
</g>
<!-- Node2&#45;&gt;Node3 -->
<g id="edge2" class="edge">
<title>Node2&#45;&gt;Node3</title>
<path fill="none" stroke="midnightblue" d="M380.55,-504.47C378.64,-467.07 371.12,-313.89 370,-188 369.92,-179.11 368.75,-176.8 370,-168 371.27,-159.04 373.89,-149.37 376.45,-141.3"/>
<polygon fill="midnightblue" stroke="midnightblue" points="379.77,-142.4 379.66,-131.8 373.14,-140.16 379.77,-142.4"/>
</g>
<!-- Node11 -->
<g id="node11" class="node">
<title>Node11</title>
<g id="a_node11"><a xlink:href="_audio_sample_list_8h.html" target="_top" xlink:title="The AudioSampleList specification defines lists of audio samples with zero&#45;based arbitrary indexed ac...">
<polygon fill="white" stroke="black" points="477,-448.5 477,-467.5 575,-467.5 575,-448.5 477,-448.5"/>
<text text-anchor="middle" x="526" y="-455.5" font-family="Helvetica,sans-Serif" font-size="10.00">AudioSampleList.h</text>
</a>
</g>
</g>
<!-- Node2&#45;&gt;Node11 -->
<g id="edge11" class="edge">
<title>Node2&#45;&gt;Node11</title>
<path fill="none" stroke="midnightblue" d="M403.98,-504.44C428.16,-495.44 466.42,-481.19 493.65,-471.05"/>
<polygon fill="midnightblue" stroke="midnightblue" points="494.98,-474.29 503.13,-467.52 492.54,-467.73 494.98,-474.29"/>
</g>
<!-- Node19 -->
<g id="node19" class="node">
<title>Node19</title>
<g id="a_node19"><a xlink:href="_audio_sample_fifo_queue_8cpp-inc.html" target="_top" xlink:title="The AudioSampleFifoQueue body implements a fifo queue for audio samples with popping off access to th...">
<polygon fill="white" stroke="black" points="200.5,-448.5 200.5,-467.5 353.5,-467.5 353.5,-448.5 200.5,-448.5"/>
<text text-anchor="middle" x="277" y="-455.5" font-family="Helvetica,sans-Serif" font-size="10.00">AudioSampleFifoQueue.cpp&#45;inc</text>
</a>
</g>
</g>
<!-- Node2&#45;&gt;Node19 -->
<g id="edge24" class="edge">
<title>Node2&#45;&gt;Node19</title>
<path fill="none" stroke="midnightblue" d="M364.29,-504.32C347.69,-495.7 322,-482.36 302.78,-472.39"/>
<polygon fill="midnightblue" stroke="midnightblue" points="304.16,-469.16 293.67,-467.65 300.93,-475.37 304.16,-469.16"/>
</g>
<!-- Node4 -->
<g id="node4" class="node">
<title>Node4</title>
<g id="a_node4"><a xlink:title=" ">
<polygon fill="white" stroke="#bfbfbf" points="494,-56.5 494,-75.5 538,-75.5 538,-56.5 494,-56.5"/>
<text text-anchor="middle" x="516" y="-63.5" font-family="Helvetica,sans-Serif" font-size="10.00">cmath</text>
</a>
</g>
</g>
<!-- Node3&#45;&gt;Node4 -->
<g id="edge3" class="edge">
<title>Node3&#45;&gt;Node4</title>
<path fill="none" stroke="midnightblue" d="M404.07,-112.44C426.06,-103.52 460.73,-89.44 485.66,-79.32"/>
<polygon fill="midnightblue" stroke="midnightblue" points="487.08,-82.52 495.02,-75.52 484.44,-76.04 487.08,-82.52"/>
</g>
<!-- Node5 -->
<g id="node5" class="node">
<title>Node5</title>
<g id="a_node5"><a xlink:href="_assertion_8h.html" target="_top" xlink:title="The Assertion specification defines macros for pre&#45; and postconditions in functions or methods.">
<polygon fill="white" stroke="black" points="281,-56.5 281,-75.5 347,-75.5 347,-56.5 281,-56.5"/>
<text text-anchor="middle" x="314" y="-63.5" font-family="Helvetica,sans-Serif" font-size="10.00">Assertion.h</text>
</a>
</g>
</g>
<!-- Node3&#45;&gt;Node5 -->
<g id="edge4" class="edge">
<title>Node3&#45;&gt;Node5</title>
<path fill="none" stroke="midnightblue" d="M371.91,-112.32C361.51,-104.18 345.74,-91.84 333.28,-82.09"/>
<polygon fill="midnightblue" stroke="midnightblue" points="335.32,-79.24 325.29,-75.83 331.01,-84.75 335.32,-79.24"/>
</g>
<!-- Node8 -->
<g id="node8" class="node">
<title>Node8</title>
<g id="a_node8"><a xlink:title=" ">
<polygon fill="white" stroke="#bfbfbf" points="365,-56.5 365,-75.5 457,-75.5 457,-56.5 365,-56.5"/>
<text text-anchor="middle" x="411" y="-63.5" font-family="Helvetica,sans-Serif" font-size="10.00">GenericNumber.h</text>
</a>
</g>
</g>
<!-- Node3&#45;&gt;Node8 -->
<g id="edge7" class="edge">
<title>Node3&#45;&gt;Node8</title>
<path fill="none" stroke="midnightblue" d="M387.62,-112.08C391.46,-104.69 397.02,-93.95 401.76,-84.81"/>
<polygon fill="midnightblue" stroke="midnightblue" points="404.97,-86.24 406.46,-75.75 398.75,-83.02 404.97,-86.24"/>
</g>
<!-- Node9 -->
<g id="node9" class="node">
<title>Node9</title>
<g id="a_node9"><a xlink:href="_my_string_8h.html" target="_top" xlink:title="The String specification defines a standard string type.">
<polygon fill="white" stroke="black" points="199,-56.5 199,-75.5 263,-75.5 263,-56.5 199,-56.5"/>
<text text-anchor="middle" x="231" y="-63.5" font-family="Helvetica,sans-Serif" font-size="10.00">MyString.h</text>
</a>
</g>
</g>
<!-- Node3&#45;&gt;Node9 -->
<g id="edge8" class="edge">
<title>Node3&#45;&gt;Node9</title>
<path fill="none" stroke="midnightblue" d="M358.92,-112.44C333.46,-103.4 293.11,-89.06 264.54,-78.92"/>
<polygon fill="midnightblue" stroke="midnightblue" points="265.57,-75.57 254.97,-75.52 263.22,-82.16 265.57,-75.57"/>
</g>
<!-- Node6 -->
<g id="node6" class="node">
<title>Node6</title>
<g id="a_node6"><a xlink:title=" ">
<polygon fill="white" stroke="#bfbfbf" points="447.5,-0.5 447.5,-19.5 506.5,-19.5 506.5,-0.5 447.5,-0.5"/>
<text text-anchor="middle" x="477" y="-7.5" font-family="Helvetica,sans-Serif" font-size="10.00">stdexcept</text>
</a>
</g>
</g>
<!-- Node5&#45;&gt;Node6 -->
<g id="edge5" class="edge">
<title>Node5&#45;&gt;Node6</title>
<path fill="none" stroke="midnightblue" d="M339.83,-56.44C367.25,-47.36 410.78,-32.94 441.43,-22.78"/>
<polygon fill="midnightblue" stroke="midnightblue" points="442.9,-25.98 451.29,-19.52 440.7,-19.34 442.9,-25.98"/>
</g>
<!-- Node7 -->
<g id="node7" class="node">
<title>Node7</title>
<g id="a_node7"><a xlink:title=" ">
<polygon fill="white" stroke="#bfbfbf" points="292.5,-0.5 292.5,-19.5 333.5,-19.5 333.5,-0.5 292.5,-0.5"/>
<text text-anchor="middle" x="313" y="-7.5" font-family="Helvetica,sans-Serif" font-size="10.00">string</text>
</a>
</g>
</g>
<!-- Node5&#45;&gt;Node7 -->
<g id="edge6" class="edge">
<title>Node5&#45;&gt;Node7</title>
<path fill="none" stroke="midnightblue" d="M313.83,-56.08C313.7,-49.01 313.52,-38.86 313.35,-29.99"/>
<polygon fill="midnightblue" stroke="midnightblue" points="316.85,-29.68 313.16,-19.75 309.85,-29.81 316.85,-29.68"/>
</g>
<!-- Node9&#45;&gt;Node7 -->
<g id="edge9" class="edge">
<title>Node9&#45;&gt;Node7</title>
<path fill="none" stroke="midnightblue" d="M244.17,-56.32C256.85,-47.98 276.23,-35.21 291.21,-25.35"/>
<polygon fill="midnightblue" stroke="midnightblue" points="293.43,-28.08 299.86,-19.65 289.58,-22.23 293.43,-28.08"/>
</g>
<!-- Node10 -->
<g id="node10" class="node">
<title>Node10</title>
<g id="a_node10"><a xlink:href="_global_macros_8h.html" target="_top" xlink:title="The GlobalMacros specification defines simple macros (e.g. for parameter modes).">
<polygon fill="white" stroke="black" points="188.5,-0.5 188.5,-19.5 273.5,-19.5 273.5,-0.5 188.5,-0.5"/>
<text text-anchor="middle" x="231" y="-7.5" font-family="Helvetica,sans-Serif" font-size="10.00">GlobalMacros.h</text>
</a>
</g>
</g>
<!-- Node9&#45;&gt;Node10 -->
<g id="edge10" class="edge">
<title>Node9&#45;&gt;Node10</title>
<path fill="none" stroke="midnightblue" d="M231,-56.08C231,-49.01 231,-38.86 231,-29.99"/>
<polygon fill="midnightblue" stroke="midnightblue" points="234.5,-29.75 231,-19.75 227.5,-29.75 234.5,-29.75"/>
</g>
<!-- Node12 -->
<g id="node12" class="node">
<title>Node12</title>
<g id="a_node12"><a xlink:title=" ">
<polygon fill="white" stroke="#bfbfbf" points="588,-224.5 588,-243.5 662,-243.5 662,-224.5 588,-224.5"/>
<text text-anchor="middle" x="625" y="-231.5" font-family="Helvetica,sans-Serif" font-size="10.00">GenericList.h</text>
</a>
</g>
</g>
<!-- Node11&#45;&gt;Node12 -->
<g id="edge12" class="edge">
<title>Node11&#45;&gt;Node12</title>
<path fill="none" stroke="midnightblue" d="M543.56,-448.46C558.99,-440.43 581.48,-427.35 598,-412 643.19,-370.01 660.83,-358.64 680,-300 682.76,-291.55 683.81,-288.03 680,-280 673.87,-267.07 662.01,-256.62 650.86,-249.05"/>
<polygon fill="midnightblue" stroke="midnightblue" points="652.53,-245.97 642.2,-243.61 648.81,-251.9 652.53,-245.97"/>
</g>
<!-- Node13 -->
<g id="node13" class="node">
<title>Node13</title>
<g id="a_node13"><a xlink:href="_audio_sample_8h.html" target="_top" xlink:title="The AudioSample specification and body provides the definition of the audio sample (a real value).">
<polygon fill="white" stroke="black" points="727.5,-392.5 727.5,-411.5 810.5,-411.5 810.5,-392.5 727.5,-392.5"/>
<text text-anchor="middle" x="769" y="-399.5" font-family="Helvetica,sans-Serif" font-size="10.00">AudioSample.h</text>
</a>
</g>
</g>
<!-- Node11&#45;&gt;Node13 -->
<g id="edge13" class="edge">
<title>Node11&#45;&gt;Node13</title>
<path fill="none" stroke="midnightblue" d="M564.5,-448.44C606.81,-439.04 674.82,-423.93 720.67,-413.74"/>
<polygon fill="midnightblue" stroke="midnightblue" points="721.67,-417.1 730.68,-411.52 720.15,-410.27 721.67,-417.1"/>
</g>
<!-- Node16 -->
<g id="node16" class="node">
<title>Node16</title>
<g id="a_node16"><a xlink:href="_audio_sample_list_8cpp-inc.html" target="_top" xlink:title="The AudioSampleList body implements a simple list of audio samples (this is the effective code includ...">
<polygon fill="white" stroke="black" points="463.5,-392.5 463.5,-411.5 588.5,-411.5 588.5,-392.5 463.5,-392.5"/>
<text text-anchor="middle" x="526" y="-399.5" font-family="Helvetica,sans-Serif" font-size="10.00">AudioSampleList.cpp&#45;inc</text>
</a>
</g>
</g>
<!-- Node11&#45;&gt;Node16 -->
<g id="edge20" class="edge">
<title>Node11&#45;&gt;Node16</title>
<path fill="none" stroke="midnightblue" d="M526,-448.08C526,-441.01 526,-430.86 526,-421.99"/>
<polygon fill="midnightblue" stroke="midnightblue" points="529.5,-421.75 526,-411.75 522.5,-421.75 529.5,-421.75"/>
</g>
<!-- Node14 -->
<g id="node14" class="node">
<title>Node14</title>
<g id="a_node14"><a xlink:href="_real_8h.html" target="_top" xlink:title="The Real specification defines a value object type for real values.">
<polygon fill="white" stroke="black" points="680,-224.5 680,-243.5 724,-243.5 724,-224.5 680,-224.5"/>
<text text-anchor="middle" x="702" y="-231.5" font-family="Helvetica,sans-Serif" font-size="10.00">Real.h</text>
</a>
</g>
</g>
<!-- Node13&#45;&gt;Node14 -->
<g id="edge14" class="edge">
<title>Node13&#45;&gt;Node14</title>
<path fill="none" stroke="midnightblue" d="M765.4,-392.08C754.81,-365.83 723.61,-288.55 709.31,-253.12"/>
<polygon fill="midnightblue" stroke="midnightblue" points="712.45,-251.53 705.46,-243.57 705.96,-254.15 712.45,-251.53"/>
</g>
<!-- Node14&#45;&gt;Node4 -->
<g id="edge15" class="edge">
<title>Node14&#45;&gt;Node4</title>
<path fill="none" stroke="midnightblue" d="M692.26,-224.31C662.38,-197.64 571.71,-116.72 533.39,-82.52"/>
<polygon fill="midnightblue" stroke="midnightblue" points="535.43,-79.65 525.64,-75.61 530.77,-84.88 535.43,-79.65"/>
</g>
<!-- Node15 -->
<g id="node15" class="node">
<title>Node15</title>
<g id="a_node15"><a xlink:href="_integer_8h.html" target="_top" xlink:title="The Integer specification and body provides a value object type for ints.">
<polygon fill="white" stroke="black" points="550,-168.5 550,-187.5 604,-187.5 604,-168.5 550,-168.5"/>
<text text-anchor="middle" x="577" y="-175.5" font-family="Helvetica,sans-Serif" font-size="10.00">Integer.h</text>
</a>
</g>
</g>
<!-- Node14&#45;&gt;Node15 -->
<g id="edge16" class="edge">
<title>Node14&#45;&gt;Node15</title>
<path fill="none" stroke="midnightblue" d="M682.19,-224.44C661.71,-215.6 629.52,-201.69 606.14,-191.59"/>
<polygon fill="midnightblue" stroke="midnightblue" points="607.28,-188.27 596.71,-187.52 604.51,-194.7 607.28,-188.27"/>
</g>
<!-- Node15&#45;&gt;Node3 -->
<g id="edge19" class="edge">
<title>Node15&#45;&gt;Node3</title>
<path fill="none" stroke="midnightblue" d="M549.62,-169.38C515.96,-160.01 458.68,-144.07 420.84,-133.53"/>
<polygon fill="midnightblue" stroke="midnightblue" points="421.76,-130.16 411.19,-130.85 419.88,-136.9 421.76,-130.16"/>
</g>
<!-- Node15&#45;&gt;Node4 -->
<g id="edge17" class="edge">
<title>Node15&#45;&gt;Node4</title>
<path fill="none" stroke="midnightblue" d="M572.21,-168.37C562.24,-150.38 539.04,-108.55 525.77,-84.63"/>
<polygon fill="midnightblue" stroke="midnightblue" points="528.67,-82.64 520.76,-75.59 522.55,-86.03 528.67,-82.64"/>
</g>
<!-- Node15&#45;&gt;Node6 -->
<g id="edge18" class="edge">
<title>Node15&#45;&gt;Node6</title>
<path fill="none" stroke="midnightblue" d="M576.97,-168.49C576.49,-147.42 572.7,-91.9 547,-56 537.16,-42.25 521.69,-31.67 507.8,-24.24"/>
<polygon fill="midnightblue" stroke="midnightblue" points="509.03,-20.94 498.52,-19.59 505.89,-27.2 509.03,-20.94"/>
</g>
<!-- Node17 -->
<g id="node17" class="node">
<title>Node17</title>
<g id="a_node17"><a xlink:href="_my_array_8h.html" target="_top" xlink:title="The MyArray specification and body defines a generic array type for stack allocated arrays represente...">
<polygon fill="white" stroke="black" points="495,-336.5 495,-355.5 557,-355.5 557,-336.5 495,-336.5"/>
<text text-anchor="middle" x="526" y="-343.5" font-family="Helvetica,sans-Serif" font-size="10.00">MyArray.h</text>
</a>
</g>
</g>
<!-- Node16&#45;&gt;Node17 -->
<g id="edge21" class="edge">
<title>Node16&#45;&gt;Node17</title>
<path fill="none" stroke="midnightblue" d="M526,-392.08C526,-385.01 526,-374.86 526,-365.99"/>
<polygon fill="midnightblue" stroke="midnightblue" points="529.5,-365.75 526,-355.75 522.5,-365.75 529.5,-365.75"/>
</g>
<!-- Node17&#45;&gt;Node3 -->
<g id="edge23" class="edge">
<title>Node17&#45;&gt;Node3</title>
<path fill="none" stroke="midnightblue" d="M494.85,-337.7C462.09,-329.35 413.69,-314.92 402,-300 365.34,-253.23 373.03,-176.88 379.13,-141.75"/>
<polygon fill="midnightblue" stroke="midnightblue" points="382.65,-142 381.07,-131.53 375.77,-140.7 382.65,-142"/>
</g>
<!-- Node18 -->
<g id="node18" class="node">
<title>Node18</title>
<g id="a_node18"><a xlink:title=" ">
<polygon fill="white" stroke="#bfbfbf" points="625,-280.5 625,-299.5 671,-299.5 671,-280.5 625,-280.5"/>
<text text-anchor="middle" x="648" y="-287.5" font-family="Helvetica,sans-Serif" font-size="10.00">cstring</text>
</a>
</g>
</g>
<!-- Node17&#45;&gt;Node18 -->
<g id="edge22" class="edge">
<title>Node17&#45;&gt;Node18</title>
<path fill="none" stroke="midnightblue" d="M545.33,-336.44C565.32,-327.6 596.74,-313.69 619.56,-303.59"/>
<polygon fill="midnightblue" stroke="midnightblue" points="621.03,-306.76 628.76,-299.52 618.2,-300.36 621.03,-306.76"/>
</g>
<!-- Node19&#45;&gt;Node5 -->
<g id="edge25" class="edge">
<title>Node19&#45;&gt;Node5</title>
<path fill="none" stroke="midnightblue" d="M279.02,-448.42C281.08,-439.41 284.21,-424.78 286,-412 303.36,-288.07 311.01,-137.47 313.25,-85.6"/>
<polygon fill="midnightblue" stroke="midnightblue" points="316.75,-85.71 313.67,-75.58 309.76,-85.42 316.75,-85.71"/>
</g>
<!-- Node19&#45;&gt;Node17 -->
<g id="edge44" class="edge">
<title>Node19&#45;&gt;Node17</title>
<path fill="none" stroke="midnightblue" d="M296.54,-448.37C340.27,-429.05 446.19,-382.26 497.37,-359.65"/>
<polygon fill="midnightblue" stroke="midnightblue" points="498.82,-362.83 506.55,-355.59 495.99,-356.43 498.82,-362.83"/>
</g>
<!-- Node20 -->
<g id="node20" class="node">
<title>Node20</title>
<g id="a_node20"><a xlink:href="_logging_8h.html" target="_top" xlink:title="The Logging specification defines macros for entry&#45;, exit&#45; and intermediate logging of functions into...">
<polygon fill="white" stroke="black" points="218.5,-392.5 218.5,-411.5 277.5,-411.5 277.5,-392.5 218.5,-392.5"/>
<text text-anchor="middle" x="248" y="-399.5" font-family="Helvetica,sans-Serif" font-size="10.00">Logging.h</text>
</a>
</g>
</g>
<!-- Node19&#45;&gt;Node20 -->
<g id="edge26" class="edge">
<title>Node19&#45;&gt;Node20</title>
<path fill="none" stroke="midnightblue" d="M272.21,-448.08C268.24,-440.69 262.47,-429.95 257.57,-420.81"/>
<polygon fill="midnightblue" stroke="midnightblue" points="260.51,-418.91 252.7,-411.75 254.35,-422.22 260.51,-418.91"/>
</g>
<!-- Node21 -->
<g id="node21" class="node">
<title>Node21</title>
<g id="a_node21"><a xlink:title=" ">
<polygon fill="white" stroke="#bfbfbf" points="228.5,-336.5 228.5,-355.5 277.5,-355.5 277.5,-336.5 228.5,-336.5"/>
<text text-anchor="middle" x="253" y="-343.5" font-family="Helvetica,sans-Serif" font-size="10.00">cstdarg</text>
</a>
</g>
</g>
<!-- Node20&#45;&gt;Node21 -->
<g id="edge27" class="edge">
<title>Node20&#45;&gt;Node21</title>
<path fill="none" stroke="midnightblue" d="M248.83,-392.08C249.48,-385.01 250.42,-374.86 251.24,-365.99"/>
<polygon fill="midnightblue" stroke="midnightblue" points="254.75,-366.03 252.19,-355.75 247.78,-365.39 254.75,-366.03"/>
</g>
<!-- Node22 -->
<g id="node22" class="node">
<title>Node22</title>
<g id="a_node22"><a xlink:href="_logging_support_8h.html" target="_top" xlink:title="The LoggingSupport specification defines a class for simple entry/exit logging to a file or via an ar...">
<polygon fill="white" stroke="black" points="118,-336.5 118,-355.5 210,-355.5 210,-336.5 118,-336.5"/>
<text text-anchor="middle" x="164" y="-343.5" font-family="Helvetica,sans-Serif" font-size="10.00">LoggingSupport.h</text>
</a>
</g>
</g>
<!-- Node20&#45;&gt;Node22 -->
<g id="edge28" class="edge">
<title>Node20&#45;&gt;Node22</title>
<path fill="none" stroke="midnightblue" d="M234.5,-392.32C221.4,-383.9 201.29,-370.97 185.89,-361.07"/>
<polygon fill="midnightblue" stroke="midnightblue" points="187.77,-358.12 177.46,-355.65 183.98,-364.01 187.77,-358.12"/>
</g>
<!-- Node24 -->
<g id="node24" class="node">
<title>Node24</title>
<g id="a_node24"><a xlink:href="_string_util_8h.html" target="_top" xlink:title="The StringUtil specification defines several string routines not included in the standard C++ library...">
<polygon fill="white" stroke="black" points="411.5,-336.5 411.5,-355.5 476.5,-355.5 476.5,-336.5 411.5,-336.5"/>
<text text-anchor="middle" x="444" y="-343.5" font-family="Helvetica,sans-Serif" font-size="10.00">StringUtil.h</text>
</a>
</g>
</g>
<!-- Node20&#45;&gt;Node24 -->
<g id="edge32" class="edge">
<title>Node20&#45;&gt;Node24</title>
<path fill="none" stroke="midnightblue" d="M277.77,-392.8C311.15,-383.6 365.49,-368.63 402.91,-358.32"/>
<polygon fill="midnightblue" stroke="midnightblue" points="404.27,-361.58 412.98,-355.55 402.41,-354.83 404.27,-361.58"/>
</g>
<!-- Node22&#45;&gt;Node3 -->
<g id="edge31" class="edge">
<title>Node22&#45;&gt;Node3</title>
<path fill="none" stroke="midnightblue" d="M169.25,-336.14C177.12,-323.19 192.77,-298.63 209,-280 259.3,-222.28 329.67,-164.58 363.43,-138.06"/>
<polygon fill="midnightblue" stroke="midnightblue" points="365.82,-140.63 371.56,-131.72 361.52,-135.11 365.82,-140.63"/>
</g>
<!-- Node23 -->
<g id="node23" class="node">
<title>Node23</title>
<g id="a_node23"><a xlink:href="_boolean_8h.html" target="_top" xlink:title="The Boolean specification and body provides a value object type for boolean values.">
<polygon fill="white" stroke="black" points="218,-280.5 218,-299.5 278,-299.5 278,-280.5 218,-280.5"/>
<text text-anchor="middle" x="248" y="-287.5" font-family="Helvetica,sans-Serif" font-size="10.00">Boolean.h</text>
</a>
</g>
</g>
<!-- Node22&#45;&gt;Node23 -->
<g id="edge29" class="edge">
<title>Node22&#45;&gt;Node23</title>
<path fill="none" stroke="midnightblue" d="M177.5,-336.32C190.6,-327.9 210.71,-314.97 226.11,-305.07"/>
<polygon fill="midnightblue" stroke="midnightblue" points="228.02,-308.01 234.54,-299.65 224.23,-302.12 228.02,-308.01"/>
</g>
<!-- Node23&#45;&gt;Node9 -->
<g id="edge30" class="edge">
<title>Node23&#45;&gt;Node9</title>
<path fill="none" stroke="midnightblue" d="M247.33,-280.3C244.83,-247.63 235.97,-131.87 232.45,-85.96"/>
<polygon fill="midnightblue" stroke="midnightblue" points="235.93,-85.59 231.68,-75.88 228.95,-86.12 235.93,-85.59"/>
</g>
<!-- Node24&#45;&gt;Node23 -->
<g id="edge33" class="edge">
<title>Node24&#45;&gt;Node23</title>
<path fill="none" stroke="midnightblue" d="M412.94,-336.44C379.2,-327.15 325.17,-312.26 288.21,-302.08"/>
<polygon fill="midnightblue" stroke="midnightblue" points="288.84,-298.62 278.27,-299.34 286.98,-305.37 288.84,-298.62"/>
</g>
<!-- Node25 -->
<g id="node25" class="node">
<title>Node25</title>
<g id="a_node25"><a xlink:href="_character_8h.html" target="_top" xlink:title="The Character specification and body provides a value object type for character values.">
<polygon fill="white" stroke="black" points="502.5,-224.5 502.5,-243.5 569.5,-243.5 569.5,-224.5 502.5,-224.5"/>
<text text-anchor="middle" x="536" y="-231.5" font-family="Helvetica,sans-Serif" font-size="10.00">Character.h</text>
</a>
</g>
</g>
<!-- Node24&#45;&gt;Node25 -->
<g id="edge34" class="edge">
<title>Node24&#45;&gt;Node25</title>
<path fill="none" stroke="midnightblue" d="M452.62,-336.26C461.3,-327.36 474.94,-313.04 486,-300 499.47,-284.12 513.87,-265.17 523.74,-251.84"/>
<polygon fill="midnightblue" stroke="midnightblue" points="526.68,-253.75 529.78,-243.62 521.04,-249.6 526.68,-253.75"/>
</g>
<!-- Node27 -->
<g id="node27" class="node">
<title>Node27</title>
<g id="a_node27"><a xlink:href="_percentage_8h.html" target="_top" xlink:title="The Percentage specification and body provides a simple percentage type.">
<polygon fill="white" stroke="black" points="533,-280.5 533,-299.5 607,-299.5 607,-280.5 533,-280.5"/>
<text text-anchor="middle" x="570" y="-287.5" font-family="Helvetica,sans-Serif" font-size="10.00">Percentage.h</text>
</a>
</g>
</g>
<!-- Node24&#45;&gt;Node27 -->
<g id="edge39" class="edge">
<title>Node24&#45;&gt;Node27</title>
<path fill="none" stroke="midnightblue" d="M463.97,-336.44C484.61,-327.6 517.06,-313.69 540.63,-303.59"/>
<polygon fill="midnightblue" stroke="midnightblue" points="542.32,-306.67 550.13,-299.52 539.56,-300.24 542.32,-306.67"/>
</g>
<!-- Node28 -->
<g id="node28" class="node">
<title>Node28</title>
<g id="a_node28"><a xlink:href="_string_list_8h.html" target="_top" xlink:title="The StringList specification defines lists of string values with zero&#45;based arbitrary indexed access ...">
<polygon fill="white" stroke="black" points="411,-280.5 411,-299.5 477,-299.5 477,-280.5 411,-280.5"/>
<text text-anchor="middle" x="444" y="-287.5" font-family="Helvetica,sans-Serif" font-size="10.00">StringList.h</text>
</a>
</g>
</g>
<!-- Node24&#45;&gt;Node28 -->
<g id="edge41" class="edge">
<title>Node24&#45;&gt;Node28</title>
<path fill="none" stroke="midnightblue" d="M444,-336.08C444,-329.01 444,-318.86 444,-309.99"/>
<polygon fill="midnightblue" stroke="midnightblue" points="447.5,-309.75 444,-299.75 440.5,-309.75 447.5,-309.75"/>
</g>
<!-- Node25&#45;&gt;Node4 -->
<g id="edge35" class="edge">
<title>Node25&#45;&gt;Node4</title>
<path fill="none" stroke="midnightblue" d="M534.92,-224.08C531.78,-197.95 522.53,-121.21 518.24,-85.58"/>
<polygon fill="midnightblue" stroke="midnightblue" points="521.7,-85.08 517.03,-75.57 514.75,-85.92 521.7,-85.08"/>
</g>
<!-- Node26 -->
<g id="node26" class="node">
<title>Node26</title>
<g id="a_node26"><a xlink:href="_byte_8h.html" target="_top" xlink:title="The Byte specification and body provides a value object type for byte values.">
<polygon fill="white" stroke="black" points="442.5,-168.5 442.5,-187.5 487.5,-187.5 487.5,-168.5 442.5,-168.5"/>
<text text-anchor="middle" x="465" y="-175.5" font-family="Helvetica,sans-Serif" font-size="10.00">Byte.h</text>
</a>
</g>
</g>
<!-- Node25&#45;&gt;Node26 -->
<g id="edge36" class="edge">
<title>Node25&#45;&gt;Node26</title>
<path fill="none" stroke="midnightblue" d="M524.59,-224.32C513.89,-216.18 497.66,-203.84 484.84,-194.09"/>
<polygon fill="midnightblue" stroke="midnightblue" points="486.69,-191.1 476.61,-187.83 482.46,-196.67 486.69,-191.1"/>
</g>
<!-- Node26&#45;&gt;Node3 -->
<g id="edge38" class="edge">
<title>Node26&#45;&gt;Node3</title>
<path fill="none" stroke="midnightblue" d="M451.83,-168.32C439.15,-159.98 419.77,-147.21 404.79,-137.35"/>
<polygon fill="midnightblue" stroke="midnightblue" points="406.42,-134.23 396.14,-131.65 402.57,-140.08 406.42,-134.23"/>
</g>
<!-- Node26&#45;&gt;Node4 -->
<g id="edge37" class="edge">
<title>Node26&#45;&gt;Node4</title>
<path fill="none" stroke="midnightblue" d="M469,-168.37C477.31,-150.46 496.56,-108.92 507.68,-84.95"/>
<polygon fill="midnightblue" stroke="midnightblue" points="510.99,-86.14 512.02,-75.59 504.64,-83.19 510.99,-86.14"/>
</g>
<!-- Node27&#45;&gt;Node14 -->
<g id="edge40" class="edge">
<title>Node27&#45;&gt;Node14</title>
<path fill="none" stroke="midnightblue" d="M590.92,-280.44C612.74,-271.52 647.15,-257.44 671.89,-247.32"/>
<polygon fill="midnightblue" stroke="midnightblue" points="673.25,-250.54 681.18,-243.52 670.6,-244.06 673.25,-250.54"/>
</g>
<!-- Node28&#45;&gt;Node12 -->
<g id="edge43" class="edge">
<title>Node28&#45;&gt;Node12</title>
<path fill="none" stroke="midnightblue" d="M472.68,-280.44C503.53,-271.24 552.73,-256.56 586.83,-246.39"/>
<polygon fill="midnightblue" stroke="midnightblue" points="587.87,-249.73 596.45,-243.52 585.87,-243.02 587.87,-249.73"/>
</g>
<!-- Node29 -->
<g id="node29" class="node">
<title>Node29</title>
<g id="a_node29"><a xlink:title=" ">
<polygon fill="white" stroke="#bfbfbf" points="411.5,-224.5 411.5,-243.5 484.5,-243.5 484.5,-224.5 411.5,-224.5"/>
<text text-anchor="middle" x="448" y="-231.5" font-family="Helvetica,sans-Serif" font-size="10.00">initializer_list</text>
</a>
</g>
</g>
<!-- Node28&#45;&gt;Node29 -->
<g id="edge42" class="edge">
<title>Node28&#45;&gt;Node29</title>
<path fill="none" stroke="midnightblue" d="M444.66,-280.08C445.18,-273.01 445.94,-262.86 446.59,-253.99"/>
<polygon fill="midnightblue" stroke="midnightblue" points="450.1,-253.98 447.35,-243.75 443.12,-253.47 450.1,-253.98"/>
</g>
<!-- Node30&#45;&gt;Node11 -->
<g id="edge46" class="edge">
<title>Node30&#45;&gt;Node11</title>
<path fill="none" stroke="midnightblue" d="M526,-504.08C526,-497.01 526,-486.86 526,-477.99"/>
<polygon fill="midnightblue" stroke="midnightblue" points="529.5,-477.75 526,-467.75 522.5,-477.75 529.5,-477.75"/>
</g>
<!-- Node31 -->
<g id="node31" class="node">
<title>Node31</title>
<g id="a_node31"><a xlink:href="_audio_sample_list_vector_8cpp-inc.html" target="_top" xlink:title="The AudioSampleListVector body implements the communication buffer structure for the block processing...">
<polygon fill="white" stroke="black" points="593.5,-448.5 593.5,-467.5 746.5,-467.5 746.5,-448.5 593.5,-448.5"/>
<text text-anchor="middle" x="670" y="-455.5" font-family="Helvetica,sans-Serif" font-size="10.00">AudioSampleListVector.cpp&#45;inc</text>
</a>
</g>
</g>
<!-- Node30&#45;&gt;Node31 -->
<g id="edge47" class="edge">
<title>Node30&#45;&gt;Node31</title>
<path fill="none" stroke="midnightblue" d="M548.82,-504.44C572.83,-495.44 610.83,-481.19 637.87,-471.05"/>
<polygon fill="midnightblue" stroke="midnightblue" points="639.16,-474.3 647.29,-467.52 636.7,-467.75 639.16,-474.3"/>
</g>
<!-- Node32&#45;&gt;Node5 -->
<g id="edge49" class="edge">
<title>Node32&#45;&gt;Node5</title>
<path fill="none" stroke="midnightblue" d="M90.87,-448.44C90.6,-429.94 90,-384.81 90,-347 90,-347 90,-347 90,-177 90,-136.9 207.1,-97.28 271.97,-78.41"/>
<polygon fill="midnightblue" stroke="midnightblue" points="273.26,-81.68 281.91,-75.57 271.33,-74.96 273.26,-81.68"/>
</g>
<!-- Node32&#45;&gt;Node20 -->
<g id="edge50" class="edge">
<title>Node32&#45;&gt;Node20</title>
<path fill="none" stroke="midnightblue" d="M115.88,-448.44C142.29,-439.36 184.22,-424.94 213.74,-414.78"/>
<polygon fill="midnightblue" stroke="midnightblue" points="214.92,-418.08 223.24,-411.52 212.64,-411.46 214.92,-418.08"/>
</g>
</g>
</svg>
        <g id="navigator" transform="translate(0 0)" fill="#404254">
                <rect fill="#f2f5e9" fill-opacity="0.5" stroke="#606060" stroke-width=".5" x="0" y="0" width="60" height="60"/>
                <use id="zoomplus" xlink:href="#zoomPlus" x="17" y="9" onmousedown="handleZoom(evt,'in')"/>
                <use id="zoomminus" xlink:href="#zoomMin" x="42" y="9" onmousedown="handleZoom(evt,'out')"/>
                <use id="reset" xlink:href="#resetDef" x="30" y="36" onmousedown="handleReset()"/>
                <g id="arrowUp" xlink:href="#dirArrow" transform="translate(30 24)" onmousedown="handlePan(0,-1)">
                  <use xlink:href="#rim" fill="#404040">
                        <set attributeName="fill" to="#808080" begin="arrowUp.mouseover" end="arrowUp.mouseout"/>
                  </use>
                  <path fill="none" stroke="white" stroke-width="1.5" d="M0,-3.0v7 M-2.5,-0.5L0,-3.0L2.5,-0.5"/>
                </g>
                <g id="arrowRight" xlink:href="#dirArrow" transform="rotate(90) translate(36 -43)" onmousedown="handlePan(1,0)">
                  <use xlink:href="#rim" fill="#404040">
                        <set attributeName="fill" to="#808080" begin="arrowRight.mouseover" end="arrowRight.mouseout"/>
                  </use>
                  <path fill="none" stroke="white" stroke-width="1.5" d="M0,-3.0v7 M-2.5,-0.5L0,-3.0L2.5,-0.5"/>
                </g>
                <g id="arrowDown" xlink:href="#dirArrow" transform="rotate(180) translate(-30 -48)" onmousedown="handlePan(0,1)">
                  <use xlink:href="#rim" fill="#404040">
                        <set attributeName="fill" to="#808080" begin="arrowDown.mouseover" end="arrowDown.mouseout"/>
                  </use>
                  <path fill="none" stroke="white" stroke-width="1.5" d="M0,-3.0v7 M-2.5,-0.5L0,-3.0L2.5,-0.5"/>
                </g>
                <g id="arrowLeft" xlink:href="#dirArrow" transform="rotate(270) translate(-36 17)" onmousedown="handlePan(-1,0)">
                  <use xlink:href="#rim" fill="#404040">
                        <set attributeName="fill" to="#808080" begin="arrowLeft.mouseover" end="arrowLeft.mouseout"/>
                  </use>
                  <path fill="none" stroke="white" stroke-width="1.5" d="M0,-3.0v7 M-2.5,-0.5L0,-3.0L2.5,-0.5"/>
                </g>
        </g>
        <svg viewBox="0 0 15 15" width="100%" height="30px" preserveAspectRatio="xMaxYMin meet">
         <g id="arrow_out" transform="scale(0.3 0.3)">
          <a xlink:href="_audio_sample_fifo_queue_vector_8h__incl_org.svg" target="_base">
           <rect id="button" ry="5" rx="5" y="6" x="6" height="38" width="38"
                fill="#f2f5e9" fill-opacity="0.5" stroke="#606060" stroke-width="1.0"/>
           <path id="arrow"
             d="M 11.500037,31.436501 C 11.940474,20.09759 22.043105,11.32322 32.158766,21.979434 L 37.068811,17.246167 C 37.068811,17.246167 37.088388,32 37.088388,32 L 22.160133,31.978069 C 22.160133,31.978069 26.997745,27.140456 26.997745,27.140456 C 18.528582,18.264221 13.291696,25.230495 11.500037,31.436501 z"
             style="fill:#404040;"/>
          </a>
         </g>
        </svg>
</svg>
