<?xml version="1.0" encoding="UTF-8" standalone="no"?>
<!DOCTYPE svg PUBLIC "-//W3C//DTD SVG 1.1//EN"
 "http://www.w3.org/Graphics/SVG/1.1/DTD/svg11.dtd">
<!-- Generated by graphviz version 2.47.1 (20210417.1919)
 -->
<!-- Title: AudioSampleFifoQueueVector.cpp&#45;inc Pages: 1 -->
<!--zoomable 485 -->
<svg id="main" version="1.1" xmlns="http://www.w3.org/2000/svg" xmlns:xlink="http://www.w3.org/1999/xlink" xml:space="preserve" onload="init(evt)">
<style type="text/css"><![CDATA[
.edge:hover path { stroke: red; }
.edge:hover polygon { stroke: red; fill: red; }
]]></style>
<script type="text/javascript"><![CDATA[
var edges = document.getElementsByTagName('g');
if (edges && edges.length) {
  for (var i=0;i<edges.length;i++) {
    if (edges[i].id.substr(0,4)=='edge') {
      edges[i].setAttribute('class','edge');
    }
  }
}
]]></script>
        <defs>
                <circle id="rim" cx="0" cy="0" r="7"/>
                <circle id="rim2" cx="0" cy="0" r="3.5"/>
                <g id="zoomPlus">
                        <use xlink:href="#rim" fill="#404040">
                                <set attributeName="fill" to="#808080" begin="zoomplus.mouseover" end="zoomplus.mouseout"/>
                        </use>
                        <path d="M-4,0h8M0,-4v8" fill="none" stroke="white" stroke-width="1.5" pointer-events="none"/>
                </g>
                <g id="zoomMin">
                        <use xlink:href="#rim" fill="#404040">
                                <set attributeName="fill" to="#808080" begin="zoomminus.mouseover" end="zoomminus.mouseout"/>
                        </use>
                        <path d="M-4,0h8" fill="none" stroke="white" stroke-width="1.5" pointer-events="none"/>
                </g>
                <g id="dirArrow">
                        <path fill="none" stroke="white" stroke-width="1.5" d="M0,-3.0v7 M-2.5,-0.5L0,-3.0L2.5,-0.5"/>
                </g>
               <g id="resetDef">
                       <use xlink:href="#rim2" fill="#404040">
                               <set attributeName="fill" to="#808080" begin="reset.mouseover" end="reset.mouseout"/>
                       </use>
               </g>
        </defs>

<script type="text/javascript">
var viewWidth = 580;
var viewHeight = 485;
var sectionId = 'dynsection-0';
</script>
<script xlink:href="svgpan.js"/>
<svg id="graph" class="graph">
<g id="viewport">
<title>AudioSampleFifoQueueVector.cpp&#45;inc</title>
<polygon fill="white" stroke="transparent" points="-4,4 -4,-481 575.5,-481 575.5,4 -4,4"/>
<!-- Node1 -->
<g id="node1" class="node">
<title>Node1</title>
<g id="a_node1"><a xlink:title="The AudioSampleFifoQueueVector body implements a list of fifo queues for audio samples (this is the e...">
<polygon fill="#bfbfbf" stroke="black" points="0,-456.5 0,-476.5 203,-476.5 203,-456.5 0,-456.5"/>
<text text-anchor="middle" x="101.5" y="-463.7" font-family="Helvetica,sans-Serif" font-size="11.00">AudioSampleFifoQueueVector.cpp&#45;inc</text>
</a>
</g>
</g>
<!-- Node2 -->
<g id="node2" class="node">
<title>Node2</title>
<g id="a_node2"><a xlink:href="_assertion_8h.html" target="_top" xlink:title="The Assertion specification defines macros for pre&#45; and postconditions in functions or methods.">
<polygon fill="white" stroke="black" points="24,-57.5 24,-77.5 95,-77.5 95,-57.5 24,-57.5"/>
<text text-anchor="middle" x="59.5" y="-64.7" font-family="Helvetica,sans-Serif" font-size="11.00">Assertion.h</text>
</a>
</g>
</g>
<!-- Node1&#45;&gt;Node2 -->
<g id="edge1" class="edge">
<title>Node1&#45;&gt;Node2</title>
<path fill="none" stroke="midnightblue" d="M95.91,-456.29C85.13,-437.62 62.5,-393.65 62.5,-353.5 62.5,-353.5 62.5,-353.5 62.5,-180.5 62.5,-148.03 61.22,-110.29 60.34,-87.96"/>
<polygon fill="midnightblue" stroke="midnightblue" points="63.83,-87.64 59.92,-77.79 56.83,-87.93 63.83,-87.64"/>
</g>
<!-- Node4 -->
<g id="node4" class="node">
<title>Node4</title>
<g id="a_node4"><a xlink:href="_logging_8h.html" target="_top" xlink:title="The Logging specification defines macros for entry&#45;, exit&#45; and intermediate logging of functions into...">
<polygon fill="white" stroke="black" points="163.5,-399.5 163.5,-419.5 227.5,-419.5 227.5,-399.5 163.5,-399.5"/>
<text text-anchor="middle" x="195.5" y="-406.7" font-family="Helvetica,sans-Serif" font-size="11.00">Logging.h</text>
</a>
</g>
</g>
<!-- Node1&#45;&gt;Node4 -->
<g id="edge3" class="edge">
<title>Node1&#45;&gt;Node4</title>
<path fill="none" stroke="midnightblue" d="M117.02,-456.42C131.72,-447.82 154.01,-434.78 171.09,-424.78"/>
<polygon fill="midnightblue" stroke="midnightblue" points="173.09,-427.67 179.95,-419.6 169.56,-421.62 173.09,-427.67"/>
</g>
<!-- Node3 -->
<g id="node3" class="node">
<title>Node3</title>
<g id="a_node3"><a xlink:title=" ">
<polygon fill="white" stroke="#bfbfbf" points="30,-0.5 30,-20.5 83,-20.5 83,-0.5 30,-0.5"/>
<text text-anchor="middle" x="56.5" y="-7.7" font-family="Helvetica,sans-Serif" font-size="11.00">cassert</text>
</a>
</g>
</g>
<!-- Node2&#45;&gt;Node3 -->
<g id="edge2" class="edge">
<title>Node2&#45;&gt;Node3</title>
<path fill="none" stroke="midnightblue" d="M59,-57.42C58.61,-50.22 58.05,-39.9 57.56,-30.86"/>
<polygon fill="midnightblue" stroke="midnightblue" points="61.05,-30.57 57.01,-20.78 54.06,-30.96 61.05,-30.57"/>
</g>
<!-- Node5 -->
<g id="node5" class="node">
<title>Node5</title>
<g id="a_node5"><a xlink:title=" ">
<polygon fill="white" stroke="#bfbfbf" points="300,-342.5 300,-362.5 353,-362.5 353,-342.5 300,-342.5"/>
<text text-anchor="middle" x="326.5" y="-349.7" font-family="Helvetica,sans-Serif" font-size="11.00">cstdarg</text>
</a>
</g>
</g>
<!-- Node4&#45;&gt;Node5 -->
<g id="edge4" class="edge">
<title>Node4&#45;&gt;Node5</title>
<path fill="none" stroke="midnightblue" d="M217.13,-399.42C238.46,-390.46 271.29,-376.68 295.41,-366.55"/>
<polygon fill="midnightblue" stroke="midnightblue" points="296.97,-369.69 304.84,-362.6 294.26,-363.24 296.97,-369.69"/>
</g>
<!-- Node6 -->
<g id="node6" class="node">
<title>Node6</title>
<g id="a_node6"><a xlink:href="_logging_support_8h.html" target="_top" xlink:title="The LoggingSupport specification defines a class for simple entry/exit logging to a file; this loggin...">
<polygon fill="white" stroke="black" points="92.5,-342.5 92.5,-362.5 194.5,-362.5 194.5,-342.5 92.5,-342.5"/>
<text text-anchor="middle" x="143.5" y="-349.7" font-family="Helvetica,sans-Serif" font-size="11.00">LoggingSupport.h</text>
</a>
</g>
</g>
<!-- Node4&#45;&gt;Node6 -->
<g id="edge5" class="edge">
<title>Node4&#45;&gt;Node6</title>
<path fill="none" stroke="midnightblue" d="M186.91,-399.42C179.43,-391.5 168.39,-379.82 159.31,-370.23"/>
<polygon fill="midnightblue" stroke="midnightblue" points="161.69,-367.64 152.27,-362.78 156.6,-372.45 161.69,-367.64"/>
</g>
<!-- Node14 -->
<g id="node14" class="node">
<title>Node14</title>
<g id="a_node14"><a xlink:href="_string_util_8h.html" target="_top" xlink:title="The StringUtil specification defines several string routines not included in the standard C++ library...">
<polygon fill="white" stroke="black" points="213,-342.5 213,-362.5 282,-362.5 282,-342.5 213,-342.5"/>
<text text-anchor="middle" x="247.5" y="-349.7" font-family="Helvetica,sans-Serif" font-size="11.00">StringUtil.h</text>
</a>
</g>
</g>
<!-- Node4&#45;&gt;Node14 -->
<g id="edge15" class="edge">
<title>Node4&#45;&gt;Node14</title>
<path fill="none" stroke="midnightblue" d="M204.09,-399.42C211.57,-391.5 222.61,-379.82 231.69,-370.23"/>
<polygon fill="midnightblue" stroke="midnightblue" points="234.4,-372.45 238.73,-362.78 229.31,-367.64 234.4,-372.45"/>
</g>
<!-- Node7 -->
<g id="node7" class="node">
<title>Node7</title>
<g id="a_node7"><a xlink:href="_boolean_8h.html" target="_top" xlink:title="The Boolean specification and body provides a value object type for boolean values.">
<polygon fill="white" stroke="black" points="133,-285.5 133,-305.5 198,-305.5 198,-285.5 133,-285.5"/>
<text text-anchor="middle" x="165.5" y="-292.7" font-family="Helvetica,sans-Serif" font-size="11.00">Boolean.h</text>
</a>
</g>
</g>
<!-- Node6&#45;&gt;Node7 -->
<g id="edge6" class="edge">
<title>Node6&#45;&gt;Node7</title>
<path fill="none" stroke="midnightblue" d="M147.13,-342.42C150.08,-335.06 154.32,-324.44 157.99,-315.27"/>
<polygon fill="midnightblue" stroke="midnightblue" points="161.32,-316.36 161.79,-305.78 154.82,-313.76 161.32,-316.36"/>
</g>
<!-- Node11 -->
<g id="node11" class="node">
<title>Node11</title>
<g id="a_node11"><a xlink:href="_natural_8h.html" target="_top" xlink:title="The Natural specification and body provides a value object type for naturals (positive integers with ...">
<polygon fill="white" stroke="black" points="170.5,-114.5 170.5,-134.5 230.5,-134.5 230.5,-114.5 170.5,-114.5"/>
<text text-anchor="middle" x="200.5" y="-121.7" font-family="Helvetica,sans-Serif" font-size="11.00">Natural.h</text>
</a>
</g>
</g>
<!-- Node6&#45;&gt;Node11 -->
<g id="edge10" class="edge">
<title>Node6&#45;&gt;Node11</title>
<path fill="none" stroke="midnightblue" d="M137.48,-342.14C130,-329.36 118.77,-305.68 123.5,-285 136.13,-229.79 170.44,-171.46 188.7,-143.08"/>
<polygon fill="midnightblue" stroke="midnightblue" points="191.67,-144.94 194.22,-134.65 185.82,-141.1 191.67,-144.94"/>
</g>
<!-- Node8 -->
<g id="node8" class="node">
<title>Node8</title>
<g id="a_node8"><a xlink:href="_my_string_8h.html" target="_top" xlink:title="The String specification defines a standard string type.">
<polygon fill="white" stroke="black" points="113.5,-57.5 113.5,-77.5 181.5,-77.5 181.5,-57.5 113.5,-57.5"/>
<text text-anchor="middle" x="147.5" y="-64.7" font-family="Helvetica,sans-Serif" font-size="11.00">MyString.h</text>
</a>
</g>
</g>
<!-- Node7&#45;&gt;Node8 -->
<g id="edge7" class="edge">
<title>Node7&#45;&gt;Node8</title>
<path fill="none" stroke="midnightblue" d="M164.77,-285.36C162.09,-251.71 152.74,-134.27 149.03,-87.72"/>
<polygon fill="midnightblue" stroke="midnightblue" points="152.5,-87.2 148.22,-77.51 145.52,-87.75 152.5,-87.2"/>
</g>
<!-- Node9 -->
<g id="node9" class="node">
<title>Node9</title>
<g id="a_node9"><a xlink:title=" ">
<polygon fill="white" stroke="#bfbfbf" points="211.5,-0.5 211.5,-20.5 255.5,-20.5 255.5,-0.5 211.5,-0.5"/>
<text text-anchor="middle" x="233.5" y="-7.7" font-family="Helvetica,sans-Serif" font-size="11.00">string</text>
</a>
</g>
</g>
<!-- Node8&#45;&gt;Node9 -->
<g id="edge8" class="edge">
<title>Node8&#45;&gt;Node9</title>
<path fill="none" stroke="midnightblue" d="M161.7,-57.42C175.02,-48.9 195.17,-36.02 210.73,-26.06"/>
<polygon fill="midnightblue" stroke="midnightblue" points="212.74,-28.93 219.28,-20.6 208.97,-23.03 212.74,-28.93"/>
</g>
<!-- Node10 -->
<g id="node10" class="node">
<title>Node10</title>
<g id="a_node10"><a xlink:href="_global_macros_8h.html" target="_top" xlink:title="The GlobalMacros specification defines simple macros (e.g. for parameter modes).">
<polygon fill="white" stroke="black" points="101.5,-0.5 101.5,-20.5 193.5,-20.5 193.5,-0.5 101.5,-0.5"/>
<text text-anchor="middle" x="147.5" y="-7.7" font-family="Helvetica,sans-Serif" font-size="11.00">GlobalMacros.h</text>
</a>
</g>
</g>
<!-- Node8&#45;&gt;Node10 -->
<g id="edge9" class="edge">
<title>Node8&#45;&gt;Node10</title>
<path fill="none" stroke="midnightblue" d="M147.5,-57.42C147.5,-50.22 147.5,-39.9 147.5,-30.86"/>
<polygon fill="midnightblue" stroke="midnightblue" points="151,-30.78 147.5,-20.78 144,-30.78 151,-30.78"/>
</g>
<!-- Node11&#45;&gt;Node2 -->
<g id="edge12" class="edge">
<title>Node11&#45;&gt;Node2</title>
<path fill="none" stroke="midnightblue" d="M177.22,-114.42C154.05,-105.38 118.3,-91.44 92.27,-81.28"/>
<polygon fill="midnightblue" stroke="midnightblue" points="93.41,-77.97 82.82,-77.6 90.86,-84.49 93.41,-77.97"/>
</g>
<!-- Node11&#45;&gt;Node8 -->
<g id="edge14" class="edge">
<title>Node11&#45;&gt;Node8</title>
<path fill="none" stroke="midnightblue" d="M191.75,-114.42C184.12,-106.5 172.87,-94.82 163.62,-85.23"/>
<polygon fill="midnightblue" stroke="midnightblue" points="165.9,-82.55 156.44,-77.78 160.86,-87.41 165.9,-82.55"/>
</g>
<!-- Node12 -->
<g id="node12" class="node">
<title>Node12</title>
<g id="a_node12"><a xlink:title=" ">
<polygon fill="white" stroke="#bfbfbf" points="321,-57.5 321,-77.5 368,-77.5 368,-57.5 321,-57.5"/>
<text text-anchor="middle" x="344.5" y="-64.7" font-family="Helvetica,sans-Serif" font-size="11.00">cmath</text>
</a>
</g>
</g>
<!-- Node11&#45;&gt;Node12 -->
<g id="edge11" class="edge">
<title>Node11&#45;&gt;Node12</title>
<path fill="none" stroke="midnightblue" d="M224.28,-114.42C247.94,-105.38 284.45,-91.44 311.03,-81.28"/>
<polygon fill="midnightblue" stroke="midnightblue" points="312.59,-84.43 320.69,-77.6 310.1,-77.89 312.59,-84.43"/>
</g>
<!-- Node13 -->
<g id="node13" class="node">
<title>Node13</title>
<g id="a_node13"><a xlink:title=" ">
<polygon fill="white" stroke="#bfbfbf" points="200,-57.5 200,-77.5 303,-77.5 303,-57.5 200,-57.5"/>
<text text-anchor="middle" x="251.5" y="-64.7" font-family="Helvetica,sans-Serif" font-size="11.00">GenericNumber.h</text>
</a>
</g>
</g>
<!-- Node11&#45;&gt;Node13 -->
<g id="edge13" class="edge">
<title>Node11&#45;&gt;Node13</title>
<path fill="none" stroke="midnightblue" d="M208.92,-114.42C216.26,-106.5 227.09,-94.82 235.99,-85.23"/>
<polygon fill="midnightblue" stroke="midnightblue" points="238.66,-87.49 242.9,-77.78 233.53,-82.73 238.66,-87.49"/>
</g>
<!-- Node14&#45;&gt;Node7 -->
<g id="edge16" class="edge">
<title>Node14&#45;&gt;Node7</title>
<path fill="none" stroke="midnightblue" d="M233.96,-342.42C221.38,-333.98 202.41,-321.26 187.63,-311.34"/>
<polygon fill="midnightblue" stroke="midnightblue" points="189.32,-308.26 179.06,-305.6 185.42,-314.07 189.32,-308.26"/>
</g>
<!-- Node15 -->
<g id="node15" class="node">
<title>Node15</title>
<g id="a_node15"><a xlink:href="_character_8h.html" target="_top" xlink:title="The Character specification and body provides a value object type for character values.">
<polygon fill="white" stroke="black" points="210.5,-228.5 210.5,-248.5 284.5,-248.5 284.5,-228.5 210.5,-228.5"/>
<text text-anchor="middle" x="247.5" y="-235.7" font-family="Helvetica,sans-Serif" font-size="11.00">Character.h</text>
</a>
</g>
</g>
<!-- Node14&#45;&gt;Node15 -->
<g id="edge17" class="edge">
<title>Node14&#45;&gt;Node15</title>
<path fill="none" stroke="midnightblue" d="M247.5,-342.33C247.5,-324.2 247.5,-283.41 247.5,-259"/>
<polygon fill="midnightblue" stroke="midnightblue" points="251,-258.79 247.5,-248.79 244,-258.79 251,-258.79"/>
</g>
<!-- Node17 -->
<g id="node17" class="node">
<title>Node17</title>
<g id="a_node17"><a xlink:href="_percentage_8h.html" target="_top" xlink:title="The Percentage specification and body provides a simple percentage type.">
<polygon fill="white" stroke="black" points="290.5,-285.5 290.5,-305.5 372.5,-305.5 372.5,-285.5 290.5,-285.5"/>
<text text-anchor="middle" x="331.5" y="-292.7" font-family="Helvetica,sans-Serif" font-size="11.00">Percentage.h</text>
</a>
</g>
</g>
<!-- Node14&#45;&gt;Node17 -->
<g id="edge22" class="edge">
<title>Node14&#45;&gt;Node17</title>
<path fill="none" stroke="midnightblue" d="M261.37,-342.42C274.26,-333.98 293.69,-321.26 308.83,-311.34"/>
<polygon fill="midnightblue" stroke="midnightblue" points="311.16,-314 317.61,-305.6 307.33,-308.15 311.16,-314"/>
</g>
<!-- Node21 -->
<g id="node21" class="node">
<title>Node21</title>
<g id="a_node21"><a xlink:href="_string_list_8h.html" target="_top" xlink:title="The StringList specification defines lists of string values with zero&#45;based arbitrary indexed access ...">
<polygon fill="white" stroke="black" points="399,-285.5 399,-305.5 470,-305.5 470,-285.5 399,-285.5"/>
<text text-anchor="middle" x="434.5" y="-292.7" font-family="Helvetica,sans-Serif" font-size="11.00">StringList.h</text>
</a>
</g>
</g>
<!-- Node14&#45;&gt;Node21 -->
<g id="edge29" class="edge">
<title>Node14&#45;&gt;Node21</title>
<path fill="none" stroke="midnightblue" d="M278.38,-342.42C310.01,-333.12 359.33,-318.61 394.06,-308.39"/>
<polygon fill="midnightblue" stroke="midnightblue" points="395.28,-311.68 403.89,-305.5 393.3,-304.97 395.28,-311.68"/>
</g>
<!-- Node15&#45;&gt;Node12 -->
<g id="edge18" class="edge">
<title>Node15&#45;&gt;Node12</title>
<path fill="none" stroke="midnightblue" d="M253.79,-228.26C259.87,-219.19 269.2,-204.88 276.5,-192 295.61,-158.28 296.39,-147.72 315.5,-114 320.8,-104.64 327.18,-94.53 332.6,-86.22"/>
<polygon fill="midnightblue" stroke="midnightblue" points="335.62,-88.01 338.21,-77.74 329.78,-84.15 335.62,-88.01"/>
</g>
<!-- Node16 -->
<g id="node16" class="node">
<title>Node16</title>
<g id="a_node16"><a xlink:href="_byte_8h.html" target="_top" xlink:title="The Byte specification and body provides a value object type for byte values.">
<polygon fill="white" stroke="black" points="221,-171.5 221,-191.5 268,-191.5 268,-171.5 221,-171.5"/>
<text text-anchor="middle" x="244.5" y="-178.7" font-family="Helvetica,sans-Serif" font-size="11.00">Byte.h</text>
</a>
</g>
</g>
<!-- Node15&#45;&gt;Node16 -->
<g id="edge19" class="edge">
<title>Node15&#45;&gt;Node16</title>
<path fill="none" stroke="midnightblue" d="M247,-228.42C246.61,-221.22 246.05,-210.9 245.56,-201.86"/>
<polygon fill="midnightblue" stroke="midnightblue" points="249.05,-201.57 245.01,-191.78 242.06,-201.96 249.05,-201.57"/>
</g>
<!-- Node16&#45;&gt;Node11 -->
<g id="edge21" class="edge">
<title>Node16&#45;&gt;Node11</title>
<path fill="none" stroke="midnightblue" d="M237.23,-171.42C231.03,-163.66 221.93,-152.29 214.34,-142.8"/>
<polygon fill="midnightblue" stroke="midnightblue" points="216.9,-140.4 207.92,-134.78 211.44,-144.77 216.9,-140.4"/>
</g>
<!-- Node16&#45;&gt;Node12 -->
<g id="edge20" class="edge">
<title>Node16&#45;&gt;Node12</title>
<path fill="none" stroke="midnightblue" d="M248.35,-171.12C254.25,-157.48 266.57,-131.86 282.5,-114 293.3,-101.89 307.81,-91.03 320.09,-82.96"/>
<polygon fill="midnightblue" stroke="midnightblue" points="321.97,-85.9 328.54,-77.59 318.22,-79.99 321.97,-85.9"/>
</g>
<!-- Node18 -->
<g id="node18" class="node">
<title>Node18</title>
<g id="a_node18"><a xlink:href="_real_8h.html" target="_top" xlink:title="The Real specification defines a value object type for real values.">
<polygon fill="white" stroke="black" points="327.5,-228.5 327.5,-248.5 375.5,-248.5 375.5,-228.5 327.5,-228.5"/>
<text text-anchor="middle" x="351.5" y="-235.7" font-family="Helvetica,sans-Serif" font-size="11.00">Real.h</text>
</a>
</g>
</g>
<!-- Node17&#45;&gt;Node18 -->
<g id="edge23" class="edge">
<title>Node17&#45;&gt;Node18</title>
<path fill="none" stroke="midnightblue" d="M334.8,-285.42C337.48,-278.06 341.34,-267.44 344.67,-258.27"/>
<polygon fill="midnightblue" stroke="midnightblue" points="348,-259.37 348.13,-248.78 341.42,-256.98 348,-259.37"/>
</g>
<!-- Node18&#45;&gt;Node12 -->
<g id="edge24" class="edge">
<title>Node18&#45;&gt;Node12</title>
<path fill="none" stroke="midnightblue" d="M362.37,-228.42C385.61,-207.86 436.25,-156.25 413.5,-114 405.76,-99.63 391.28,-89.05 377.57,-81.72"/>
<polygon fill="midnightblue" stroke="midnightblue" points="378.82,-78.43 368.3,-77.16 375.73,-84.72 378.82,-78.43"/>
</g>
<!-- Node19 -->
<g id="node19" class="node">
<title>Node19</title>
<g id="a_node19"><a xlink:href="_integer_8h.html" target="_top" xlink:title="The Integer specification and body provides a value object type for ints.">
<polygon fill="white" stroke="black" points="326,-171.5 326,-191.5 385,-191.5 385,-171.5 326,-171.5"/>
<text text-anchor="middle" x="355.5" y="-178.7" font-family="Helvetica,sans-Serif" font-size="11.00">Integer.h</text>
</a>
</g>
</g>
<!-- Node18&#45;&gt;Node19 -->
<g id="edge25" class="edge">
<title>Node18&#45;&gt;Node19</title>
<path fill="none" stroke="midnightblue" d="M352.16,-228.42C352.68,-221.22 353.43,-210.9 354.09,-201.86"/>
<polygon fill="midnightblue" stroke="midnightblue" points="357.59,-202.01 354.83,-191.78 350.61,-201.5 357.59,-202.01"/>
</g>
<!-- Node19&#45;&gt;Node11 -->
<g id="edge28" class="edge">
<title>Node19&#45;&gt;Node11</title>
<path fill="none" stroke="midnightblue" d="M329.9,-171.42C304.14,-162.27 264.2,-148.1 235.51,-137.92"/>
<polygon fill="midnightblue" stroke="midnightblue" points="236.47,-134.55 225.88,-134.5 234.13,-141.15 236.47,-134.55"/>
</g>
<!-- Node19&#45;&gt;Node12 -->
<g id="edge26" class="edge">
<title>Node19&#45;&gt;Node12</title>
<path fill="none" stroke="midnightblue" d="M368.18,-171.47C383.92,-159.08 407.53,-135.84 397.5,-114 391.67,-101.31 380.35,-90.82 369.67,-83.13"/>
<polygon fill="midnightblue" stroke="midnightblue" points="371.61,-80.22 361.35,-77.57 367.72,-86.04 371.61,-80.22"/>
</g>
<!-- Node20 -->
<g id="node20" class="node">
<title>Node20</title>
<g id="a_node20"><a xlink:title=" ">
<polygon fill="white" stroke="#bfbfbf" points="324.5,-114.5 324.5,-134.5 388.5,-134.5 388.5,-114.5 324.5,-114.5"/>
<text text-anchor="middle" x="356.5" y="-121.7" font-family="Helvetica,sans-Serif" font-size="11.00">stdexcept</text>
</a>
</g>
</g>
<!-- Node19&#45;&gt;Node20 -->
<g id="edge27" class="edge">
<title>Node19&#45;&gt;Node20</title>
<path fill="none" stroke="midnightblue" d="M355.67,-171.42C355.8,-164.22 355.98,-153.9 356.15,-144.86"/>
<polygon fill="midnightblue" stroke="midnightblue" points="359.65,-144.84 356.33,-134.78 352.65,-144.71 359.65,-144.84"/>
</g>
<!-- Node22 -->
<g id="node22" class="node">
<title>Node22</title>
<g id="a_node22"><a xlink:title=" ">
<polygon fill="white" stroke="#bfbfbf" points="493.5,-228.5 493.5,-248.5 571.5,-248.5 571.5,-228.5 493.5,-228.5"/>
<text text-anchor="middle" x="532.5" y="-235.7" font-family="Helvetica,sans-Serif" font-size="11.00">initializer_list</text>
</a>
</g>
</g>
<!-- Node21&#45;&gt;Node22 -->
<g id="edge30" class="edge">
<title>Node21&#45;&gt;Node22</title>
<path fill="none" stroke="midnightblue" d="M450.68,-285.42C466.15,-276.74 489.68,-263.53 507.54,-253.51"/>
<polygon fill="midnightblue" stroke="midnightblue" points="509.29,-256.54 516.29,-248.6 505.86,-250.44 509.29,-256.54"/>
</g>
<!-- Node23 -->
<g id="node23" class="node">
<title>Node23</title>
<g id="a_node23"><a xlink:title=" ">
<polygon fill="white" stroke="#bfbfbf" points="394,-228.5 394,-248.5 475,-248.5 475,-228.5 394,-228.5"/>
<text text-anchor="middle" x="434.5" y="-235.7" font-family="Helvetica,sans-Serif" font-size="11.00">GenericList.h</text>
</a>
</g>
</g>
<!-- Node21&#45;&gt;Node23 -->
<g id="edge31" class="edge">
<title>Node21&#45;&gt;Node23</title>
<path fill="none" stroke="midnightblue" d="M434.5,-285.42C434.5,-278.22 434.5,-267.9 434.5,-258.86"/>
<polygon fill="midnightblue" stroke="midnightblue" points="438,-258.78 434.5,-248.78 431,-258.78 438,-258.78"/>
</g>
</g>
</svg>
        <g id="navigator" transform="translate(0 0)" fill="#404254">
                <rect fill="#f2f5e9" fill-opacity="0.5" stroke="#606060" stroke-width=".5" x="0" y="0" width="60" height="60"/>
                <use id="zoomplus" xlink:href="#zoomPlus" x="17" y="9" onmousedown="handleZoom(evt,'in')"/>
                <use id="zoomminus" xlink:href="#zoomMin" x="42" y="9" onmousedown="handleZoom(evt,'out')"/>
                <use id="reset" xlink:href="#resetDef" x="30" y="36" onmousedown="handleReset()"/>
                <g id="arrowUp" xlink:href="#dirArrow" transform="translate(30 24)" onmousedown="handlePan(0,-1)">
                  <use xlink:href="#rim" fill="#404040">
                        <set attributeName="fill" to="#808080" begin="arrowUp.mouseover" end="arrowUp.mouseout"/>
                  </use>
                  <path fill="none" stroke="white" stroke-width="1.5" d="M0,-3.0v7 M-2.5,-0.5L0,-3.0L2.5,-0.5"/>
                </g>
                <g id="arrowRight" xlink:href="#dirArrow" transform="rotate(90) translate(36 -43)" onmousedown="handlePan(1,0)">
                  <use xlink:href="#rim" fill="#404040">
                        <set attributeName="fill" to="#808080" begin="arrowRight.mouseover" end="arrowRight.mouseout"/>
                  </use>
                  <path fill="none" stroke="white" stroke-width="1.5" d="M0,-3.0v7 M-2.5,-0.5L0,-3.0L2.5,-0.5"/>
                </g>
                <g id="arrowDown" xlink:href="#dirArrow" transform="rotate(180) translate(-30 -48)" onmousedown="handlePan(0,1)">
                  <use xlink:href="#rim" fill="#404040">
                        <set attributeName="fill" to="#808080" begin="arrowDown.mouseover" end="arrowDown.mouseout"/>
                  </use>
                  <path fill="none" stroke="white" stroke-width="1.5" d="M0,-3.0v7 M-2.5,-0.5L0,-3.0L2.5,-0.5"/>
                </g>
                <g id="arrowLeft" xlink:href="#dirArrow" transform="rotate(270) translate(-36 17)" onmousedown="handlePan(-1,0)">
                  <use xlink:href="#rim" fill="#404040">
                        <set attributeName="fill" to="#808080" begin="arrowLeft.mouseover" end="arrowLeft.mouseout"/>
                  </use>
                  <path fill="none" stroke="white" stroke-width="1.5" d="M0,-3.0v7 M-2.5,-0.5L0,-3.0L2.5,-0.5"/>
                </g>
        </g>
        <svg viewBox="0 0 15 15" width="100%" height="30px" preserveAspectRatio="xMaxYMin meet">
         <g id="arrow_out" transform="scale(0.3 0.3)">
          <a xlink:href="_audio_sample_fifo_queue_vector_8cpp-inc__incl_org.svg" target="_base">
           <rect id="button" ry="5" rx="5" y="6" x="6" height="38" width="38"
                fill="#f2f5e9" fill-opacity="0.5" stroke="#606060" stroke-width="1.0"/>
           <path id="arrow"
             d="M 11.500037,31.436501 C 11.940474,20.09759 22.043105,11.32322 32.158766,21.979434 L 37.068811,17.246167 C 37.068811,17.246167 37.088388,32 37.088388,32 L 22.160133,31.978069 C 22.160133,31.978069 26.997745,27.140456 26.997745,27.140456 C 18.528582,18.264221 13.291696,25.230495 11.500037,31.436501 z"
             style="fill:#404040;"/>
          </a>
         </g>
        </svg>
</svg>
