<?xml version="1.0" encoding="UTF-8" standalone="no"?>
<!DOCTYPE svg PUBLIC "-//W3C//DTD SVG 1.1//EN"
 "http://www.w3.org/Graphics/SVG/1.1/DTD/svg11.dtd">
<!-- Generated by graphviz version 2.47.1 (20210417.1919)
 -->
<!-- Title: AudioSampleFifoQueueVector.cpp Pages: 1 -->
<svg width="737pt" height="632pt"
 viewBox="0.00 0.00 737.08 632.00" xmlns="http://www.w3.org/2000/svg" xmlns:xlink="http://www.w3.org/1999/xlink">
<g id="graph0" class="graph" transform="scale(1 1) rotate(0) translate(4 628)">
<title>AudioSampleFifoQueueVector.cpp</title>
<!-- Node1 -->
<g id="Node000001" class="node">
<title>Node1</title>
<g id="a_Node000001"><a xlink:title="The AudioSampleFifoQueueVector body implements a list of fifo queues for audio samples (this is the f...">
<polygon fill="#999999" stroke="#666666" points="501.17,-624 335.17,-624 335.17,-605 501.17,-605 501.17,-624"/>
<text text-anchor="middle" x="418.17" y="-612" font-family="Helvetica,sans-Serif" font-size="10.00">AudioSampleFifoQueueVector.cpp</text>
</a>
</g>
</g>
<!-- Node2 -->
<g id="Node000002" class="node">
<title>Node2</title>
<g id="a_Node000002"><a xlink:href="_audio_sample_fifo_queue_vector_8h.html" target="_top" xlink:title="The AudioSampleFifoQueueVector specification defines a list of fifo queues for audio samples.">
<polygon fill="white" stroke="#666666" points="495.67,-569 340.67,-569 340.67,-550 495.67,-550 495.67,-569"/>
<text text-anchor="middle" x="418.17" y="-557" font-family="Helvetica,sans-Serif" font-size="10.00">AudioSampleFifoQueueVector.h</text>
</a>
</g>
</g>
<!-- Node1&#45;&gt;Node2 -->
<g id="edge1_Node000001_Node000002" class="edge">
<title>Node1&#45;&gt;Node2</title>
<g id="a_edge1_Node000001_Node000002"><a xlink:title=" ">
<path fill="none" stroke="#63b8ff" d="M418.17,-604.75C418.17,-597.8 418.17,-587.85 418.17,-579.13"/>
<polygon fill="#63b8ff" stroke="#63b8ff" points="421.67,-579.09 418.17,-569.09 414.67,-579.09 421.67,-579.09"/>
</a>
</g>
</g>
<!-- Node3 -->
<g id="Node000003" class="node">
<title>Node3</title>
<g id="a_Node000003"><a xlink:href="_audio_sample_fifo_queue_8h.html" target="_top" xlink:title="The AudioSampleFifoQueue specification defines a fifo queue for audio samples with popping off access...">
<polygon fill="white" stroke="#666666" points="481.67,-514 354.67,-514 354.67,-495 481.67,-495 481.67,-514"/>
<text text-anchor="middle" x="418.17" y="-502" font-family="Helvetica,sans-Serif" font-size="10.00">AudioSampleFifoQueue.h</text>
</a>
</g>
</g>
<!-- Node2&#45;&gt;Node3 -->
<g id="edge2_Node000002_Node000003" class="edge">
<title>Node2&#45;&gt;Node3</title>
<g id="a_edge2_Node000002_Node000003"><a xlink:title=" ">
<path fill="none" stroke="#63b8ff" d="M418.17,-549.75C418.17,-542.8 418.17,-532.85 418.17,-524.13"/>
<polygon fill="#63b8ff" stroke="#63b8ff" points="421.67,-524.09 418.17,-514.09 414.67,-524.09 421.67,-524.09"/>
</a>
</g>
</g>
<!-- Node33 -->
<g id="Node000033" class="node">
<title>Node33</title>
<g id="a_Node000033"><a xlink:href="_audio_sample_list_vector_8h.html" target="_top" xlink:title="The AudioSampleListVector specification defines the communication buffer structure for the block proc...">
<polygon fill="white" stroke="#666666" points="336.67,-514 209.67,-514 209.67,-495 336.67,-495 336.67,-514"/>
<text text-anchor="middle" x="273.17" y="-502" font-family="Helvetica,sans-Serif" font-size="10.00">AudioSampleListVector.h</text>
</a>
</g>
</g>
<!-- Node2&#45;&gt;Node33 -->
<g id="edge47_Node000002_Node000033" class="edge">
<title>Node2&#45;&gt;Node33</title>
<g id="a_edge47_Node000002_Node000033"><a xlink:title=" ">
<path fill="none" stroke="#63b8ff" d="M394.88,-549.98C370.92,-541.23 333.39,-527.51 306.34,-517.62"/>
<polygon fill="#63b8ff" stroke="#63b8ff" points="307.49,-514.32 296.9,-514.17 305.09,-520.89 307.49,-514.32"/>
</a>
</g>
</g>
<!-- Node35 -->
<g id="Node000035" class="node">
<title>Node35</title>
<g id="a_Node000035"><a xlink:href="_audio_sample_fifo_queue_vector_8cpp-inc.html" target="_top" xlink:title="The AudioSampleFifoQueueVector body implements a list of fifo queues for audio samples (this is the e...">
<polygon fill="white" stroke="#666666" points="695.17,-459 513.17,-459 513.17,-440 695.17,-440 695.17,-459"/>
<text text-anchor="middle" x="604.17" y="-447" font-family="Helvetica,sans-Serif" font-size="10.00">AudioSampleFifoQueueVector.cpp&#45;inc</text>
</a>
</g>
</g>
<!-- Node2&#45;&gt;Node35 -->
<g id="edge50_Node000002_Node000035" class="edge">
<title>Node2&#45;&gt;Node35</title>
<g id="a_edge50_Node000002_Node000035"><a xlink:title=" ">
<path fill="none" stroke="#63b8ff" d="M433.08,-549.84C465.27,-531.16 541.49,-486.9 580.41,-464.3"/>
<polygon fill="#63b8ff" stroke="#63b8ff" points="582.56,-467.1 589.46,-459.05 579.05,-461.04 582.56,-467.1"/>
</a>
</g>
</g>
<!-- Node4 -->
<g id="Node000004" class="node">
<title>Node4</title>
<g id="a_Node000004"><a xlink:href="_natural_8h.html" target="_top" xlink:title="The Natural specification and body provides a value object type for naturals (positive integers with ...">
<polygon fill="white" stroke="#666666" points="446.17,-129 390.17,-129 390.17,-110 446.17,-110 446.17,-129"/>
<text text-anchor="middle" x="418.17" y="-117" font-family="Helvetica,sans-Serif" font-size="10.00">Natural.h</text>
</a>
</g>
</g>
<!-- Node3&#45;&gt;Node4 -->
<g id="edge3_Node000003_Node000004" class="edge">
<title>Node3&#45;&gt;Node4</title>
<g id="a_edge3_Node000003_Node000004"><a xlink:title=" ">
<path fill="none" stroke="#63b8ff" d="M481.92,-502.85C557.32,-500.58 676.15,-491.73 704.17,-459 812.21,-332.85 534.65,-178.74 445,-133.54"/>
<polygon fill="#63b8ff" stroke="#63b8ff" points="446.49,-130.37 435.98,-129.04 443.37,-136.63 446.49,-130.37"/>
</a>
</g>
</g>
<!-- Node12 -->
<g id="Node000012" class="node">
<title>Node12</title>
<g id="a_Node000012"><a xlink:href="_audio_sample_list_8h.html" target="_top" xlink:title="The AudioSampleList specification defines lists of audio samples with zero&#45;based arbitrary indexed ac...">
<polygon fill="white" stroke="#666666" points="323.17,-459 225.17,-459 225.17,-440 323.17,-440 323.17,-459"/>
<text text-anchor="middle" x="274.17" y="-447" font-family="Helvetica,sans-Serif" font-size="10.00">AudioSampleList.h</text>
</a>
</g>
</g>
<!-- Node3&#45;&gt;Node12 -->
<g id="edge12_Node000003_Node000012" class="edge">
<title>Node3&#45;&gt;Node12</title>
<g id="a_edge12_Node000003_Node000012"><a xlink:title=" ">
<path fill="none" stroke="#63b8ff" d="M395.04,-494.98C371.35,-486.27 334.31,-472.63 307.47,-462.75"/>
<polygon fill="#63b8ff" stroke="#63b8ff" points="308.33,-459.34 297.73,-459.17 305.91,-465.91 308.33,-459.34"/>
</a>
</g>
</g>
<!-- Node20 -->
<g id="Node000020" class="node">
<title>Node20</title>
<g id="a_Node000020"><a xlink:href="_audio_sample_fifo_queue_8cpp-inc.html" target="_top" xlink:title="The AudioSampleFifoQueue body implements a fifo queue for audio samples with popping off access to th...">
<polygon fill="white" stroke="#666666" points="494.67,-459 341.67,-459 341.67,-440 494.67,-440 494.67,-459"/>
<text text-anchor="middle" x="418.17" y="-447" font-family="Helvetica,sans-Serif" font-size="10.00">AudioSampleFifoQueue.cpp&#45;inc</text>
</a>
</g>
</g>
<!-- Node3&#45;&gt;Node20 -->
<g id="edge24_Node000003_Node000020" class="edge">
<title>Node3&#45;&gt;Node20</title>
<g id="a_edge24_Node000003_Node000020"><a xlink:title=" ">
<path fill="none" stroke="#63b8ff" d="M418.17,-494.75C418.17,-487.8 418.17,-477.85 418.17,-469.13"/>
<polygon fill="#63b8ff" stroke="#63b8ff" points="421.67,-469.09 418.17,-459.09 414.67,-469.09 421.67,-469.09"/>
</a>
</g>
</g>
<!-- Node5 -->
<g id="Node000005" class="node">
<title>Node5</title>
<g id="a_Node000005"><a xlink:title=" ">
<polygon fill="#e0e0e0" stroke="#999999" points="301.17,-74 257.17,-74 257.17,-55 301.17,-55 301.17,-74"/>
<text text-anchor="middle" x="279.17" y="-62" font-family="Helvetica,sans-Serif" font-size="10.00">cmath</text>
</a>
</g>
</g>
<!-- Node4&#45;&gt;Node5 -->
<g id="edge4_Node000004_Node000005" class="edge">
<title>Node4&#45;&gt;Node5</title>
<g id="a_edge4_Node000004_Node000005"><a xlink:title=" ">
<path fill="none" stroke="#63b8ff" d="M395.84,-109.98C372.84,-101.21 336.79,-87.47 310.85,-77.58"/>
<polygon fill="#63b8ff" stroke="#63b8ff" points="312.04,-74.29 301.45,-73.99 309.55,-80.83 312.04,-74.29"/>
</a>
</g>
</g>
<!-- Node6 -->
<g id="Node000006" class="node">
<title>Node6</title>
<g id="a_Node000006"><a xlink:href="_assertion_8h.html" target="_top" xlink:title="The Assertion specification defines macros for pre&#45; and postconditions in functions or methods.">
<polygon fill="white" stroke="#666666" points="627.17,-74 561.17,-74 561.17,-55 627.17,-55 627.17,-74"/>
<text text-anchor="middle" x="594.17" y="-62" font-family="Helvetica,sans-Serif" font-size="10.00">Assertion.h</text>
</a>
</g>
</g>
<!-- Node4&#45;&gt;Node6 -->
<g id="edge5_Node000004_Node000006" class="edge">
<title>Node4&#45;&gt;Node6</title>
<g id="a_edge5_Node000004_Node000006"><a xlink:title=" ">
<path fill="none" stroke="#63b8ff" d="M446.45,-109.98C476.13,-101.05 522.96,-86.94 555.93,-77.02"/>
<polygon fill="#63b8ff" stroke="#63b8ff" points="557.11,-80.32 565.68,-74.08 555.09,-73.61 557.11,-80.32"/>
</a>
</g>
</g>
<!-- Node9 -->
<g id="Node000009" class="node">
<title>Node9</title>
<g id="a_Node000009"><a xlink:title=" ">
<polygon fill="#e0e0e0" stroke="#999999" points="461.17,-74 369.17,-74 369.17,-55 461.17,-55 461.17,-74"/>
<text text-anchor="middle" x="415.17" y="-62" font-family="Helvetica,sans-Serif" font-size="10.00">GenericNumber.h</text>
</a>
</g>
</g>
<!-- Node4&#45;&gt;Node9 -->
<g id="edge8_Node000004_Node000009" class="edge">
<title>Node4&#45;&gt;Node9</title>
<g id="a_edge8_Node000004_Node000009"><a xlink:title=" ">
<path fill="none" stroke="#63b8ff" d="M417.68,-109.75C417.29,-102.8 416.72,-92.85 416.23,-84.13"/>
<polygon fill="#63b8ff" stroke="#63b8ff" points="419.72,-83.88 415.66,-74.09 412.73,-84.27 419.72,-83.88"/>
</a>
</g>
</g>
<!-- Node10 -->
<g id="Node000010" class="node">
<title>Node10</title>
<g id="a_Node000010"><a xlink:href="_my_string_8h.html" target="_top" xlink:title="The String specification defines a standard string type.">
<polygon fill="white" stroke="#666666" points="543.17,-74 479.17,-74 479.17,-55 543.17,-55 543.17,-74"/>
<text text-anchor="middle" x="511.17" y="-62" font-family="Helvetica,sans-Serif" font-size="10.00">MyString.h</text>
</a>
</g>
</g>
<!-- Node4&#45;&gt;Node10 -->
<g id="edge9_Node000004_Node000010" class="edge">
<title>Node4&#45;&gt;Node10</title>
<g id="a_edge9_Node000004_Node000010"><a xlink:title=" ">
<path fill="none" stroke="#63b8ff" d="M433.12,-109.98C447.67,-101.69 470.04,-88.94 487.11,-79.22"/>
<polygon fill="#63b8ff" stroke="#63b8ff" points="489.01,-82.16 495.96,-74.17 485.54,-76.08 489.01,-82.16"/>
</a>
</g>
</g>
<!-- Node7 -->
<g id="Node000007" class="node">
<title>Node7</title>
<g id="a_Node000007"><a xlink:title=" ">
<polygon fill="#e0e0e0" stroke="#999999" points="335.67,-19 276.67,-19 276.67,0 335.67,0 335.67,-19"/>
<text text-anchor="middle" x="306.17" y="-7" font-family="Helvetica,sans-Serif" font-size="10.00">stdexcept</text>
</a>
</g>
</g>
<!-- Node6&#45;&gt;Node7 -->
<g id="edge6_Node000006_Node000007" class="edge">
<title>Node6&#45;&gt;Node7</title>
<g id="a_edge6_Node000006_Node000007"><a xlink:title=" ">
<path fill="none" stroke="#63b8ff" d="M561.17,-56.75C558.13,-56.15 555.1,-55.56 552.17,-55 479.5,-41.07 394.52,-25.96 345.85,-17.42"/>
<polygon fill="#63b8ff" stroke="#63b8ff" points="346.2,-13.92 335.75,-15.65 344.99,-20.82 346.2,-13.92"/>
</a>
</g>
</g>
<!-- Node8 -->
<g id="Node000008" class="node">
<title>Node8</title>
<g id="a_Node000008"><a xlink:title=" ">
<polygon fill="#e0e0e0" stroke="#999999" points="613.67,-19 572.67,-19 572.67,0 613.67,0 613.67,-19"/>
<text text-anchor="middle" x="593.17" y="-7" font-family="Helvetica,sans-Serif" font-size="10.00">string</text>
</a>
</g>
</g>
<!-- Node6&#45;&gt;Node8 -->
<g id="edge7_Node000006_Node000008" class="edge">
<title>Node6&#45;&gt;Node8</title>
<g id="a_edge7_Node000006_Node000008"><a xlink:title=" ">
<path fill="none" stroke="#63b8ff" d="M594.01,-54.75C593.88,-47.8 593.69,-37.85 593.53,-29.13"/>
<polygon fill="#63b8ff" stroke="#63b8ff" points="597.03,-29.02 593.34,-19.09 590.03,-29.15 597.03,-29.02"/>
</a>
</g>
</g>
<!-- Node10&#45;&gt;Node8 -->
<g id="edge10_Node000010_Node000008" class="edge">
<title>Node10&#45;&gt;Node8</title>
<g id="a_edge10_Node000010_Node000008"><a xlink:title=" ">
<path fill="none" stroke="#63b8ff" d="M524.35,-54.98C536.95,-46.84 556.18,-34.41 571.11,-24.76"/>
<polygon fill="#63b8ff" stroke="#63b8ff" points="573.26,-27.54 579.76,-19.17 569.46,-21.66 573.26,-27.54"/>
</a>
</g>
</g>
<!-- Node11 -->
<g id="Node000011" class="node">
<title>Node11</title>
<g id="a_Node000011"><a xlink:href="_global_macros_8h.html" target="_top" xlink:title="The GlobalMacros specification defines simple macros (e.g. for parameter modes).">
<polygon fill="white" stroke="#666666" points="553.67,-19 468.67,-19 468.67,0 553.67,0 553.67,-19"/>
<text text-anchor="middle" x="511.17" y="-7" font-family="Helvetica,sans-Serif" font-size="10.00">GlobalMacros.h</text>
</a>
</g>
</g>
<!-- Node10&#45;&gt;Node11 -->
<g id="edge11_Node000010_Node000011" class="edge">
<title>Node10&#45;&gt;Node11</title>
<g id="a_edge11_Node000010_Node000011"><a xlink:title=" ">
<path fill="none" stroke="#63b8ff" d="M511.17,-54.75C511.17,-47.8 511.17,-37.85 511.17,-29.13"/>
<polygon fill="#63b8ff" stroke="#63b8ff" points="514.67,-29.09 511.17,-19.09 507.67,-29.09 514.67,-29.09"/>
</a>
</g>
</g>
<!-- Node13 -->
<g id="Node000013" class="node">
<title>Node13</title>
<g id="a_Node000013"><a xlink:title=" ">
<polygon fill="#e0e0e0" stroke="#999999" points="341.17,-239 267.17,-239 267.17,-220 341.17,-220 341.17,-239"/>
<text text-anchor="middle" x="304.17" y="-227" font-family="Helvetica,sans-Serif" font-size="10.00">GenericList.h</text>
</a>
</g>
</g>
<!-- Node12&#45;&gt;Node13 -->
<g id="edge13_Node000012_Node000013" class="edge">
<title>Node12&#45;&gt;Node13</title>
<g id="a_edge13_Node000012_Node000013"><a xlink:title=" ">
<path fill="none" stroke="#63b8ff" d="M275.35,-439.95C279.76,-407.95 295.34,-294.68 301.57,-249.4"/>
<polygon fill="#63b8ff" stroke="#63b8ff" points="305.08,-249.61 302.97,-239.22 298.14,-248.65 305.08,-249.61"/>
</a>
</g>
</g>
<!-- Node14 -->
<g id="Node000014" class="node">
<title>Node14</title>
<g id="a_Node000014"><a xlink:href="_audio_sample_8h.html" target="_top" xlink:title="The AudioSample specification and body provides the definition of the audio sample (a real value).">
<polygon fill="white" stroke="#666666" points="135.67,-404 52.67,-404 52.67,-385 135.67,-385 135.67,-404"/>
<text text-anchor="middle" x="94.17" y="-392" font-family="Helvetica,sans-Serif" font-size="10.00">AudioSample.h</text>
</a>
</g>
</g>
<!-- Node12&#45;&gt;Node14 -->
<g id="edge14_Node000012_Node000014" class="edge">
<title>Node12&#45;&gt;Node14</title>
<g id="a_edge14_Node000012_Node000014"><a xlink:title=" ">
<path fill="none" stroke="#63b8ff" d="M245.25,-439.98C214.9,-431.05 167.01,-416.94 133.29,-407.02"/>
<polygon fill="#63b8ff" stroke="#63b8ff" points="133.9,-403.55 123.32,-404.08 131.93,-410.26 133.9,-403.55"/>
</a>
</g>
</g>
<!-- Node17 -->
<g id="Node000017" class="node">
<title>Node17</title>
<g id="a_Node000017"><a xlink:href="_audio_sample_list_8cpp-inc.html" target="_top" xlink:title="The AudioSampleList body implements a simple list of audio samples (this is the effective code includ...">
<polygon fill="white" stroke="#666666" points="428.67,-404 303.67,-404 303.67,-385 428.67,-385 428.67,-404"/>
<text text-anchor="middle" x="366.17" y="-392" font-family="Helvetica,sans-Serif" font-size="10.00">AudioSampleList.cpp&#45;inc</text>
</a>
</g>
</g>
<!-- Node12&#45;&gt;Node17 -->
<g id="edge20_Node000012_Node000017" class="edge">
<title>Node12&#45;&gt;Node17</title>
<g id="a_edge20_Node000012_Node000017"><a xlink:title=" ">
<path fill="none" stroke="#63b8ff" d="M288.96,-439.98C303.36,-431.69 325.48,-418.94 342.37,-409.22"/>
<polygon fill="#63b8ff" stroke="#63b8ff" points="344.21,-412.19 351.12,-404.17 340.71,-406.13 344.21,-412.19"/>
</a>
</g>
</g>
<!-- Node15 -->
<g id="Node000015" class="node">
<title>Node15</title>
<g id="a_Node000015"><a xlink:href="_real_8h.html" target="_top" xlink:title="The Real specification defines a value object type for real values.">
<polygon fill="white" stroke="#666666" points="70.17,-239 26.17,-239 26.17,-220 70.17,-220 70.17,-239"/>
<text text-anchor="middle" x="48.17" y="-227" font-family="Helvetica,sans-Serif" font-size="10.00">Real.h</text>
</a>
</g>
</g>
<!-- Node14&#45;&gt;Node15 -->
<g id="edge15_Node000014_Node000015" class="edge">
<title>Node14&#45;&gt;Node15</title>
<g id="a_edge15_Node000014_Node000015"><a xlink:title=" ">
<path fill="none" stroke="#63b8ff" d="M81.56,-384.89C60.36,-369.54 18.3,-335.19 2.17,-294 -5.11,-275.39 11.09,-257.24 26.23,-245.14"/>
<polygon fill="#63b8ff" stroke="#63b8ff" points="28.45,-247.86 34.38,-239.08 24.27,-242.24 28.45,-247.86"/>
</a>
</g>
</g>
<!-- Node16 -->
<g id="Node000016" class="node">
<title>Node16</title>
<g id="a_Node000016"><a xlink:href="_integer_8h.html" target="_top" xlink:title="The Integer specification and body provides a value object type for ints.">
<polygon fill="white" stroke="#666666" points="221.17,-184 167.17,-184 167.17,-165 221.17,-165 221.17,-184"/>
<text text-anchor="middle" x="194.17" y="-172" font-family="Helvetica,sans-Serif" font-size="10.00">Integer.h</text>
</a>
</g>
</g>
<!-- Node15&#45;&gt;Node16 -->
<g id="edge16_Node000015_Node000016" class="edge">
<title>Node15&#45;&gt;Node16</title>
<g id="a_edge16_Node000015_Node000016"><a xlink:title=" ">
<path fill="none" stroke="#63b8ff" d="M70.35,-220.45C94.36,-211.73 132.94,-197.73 160.66,-187.67"/>
<polygon fill="#63b8ff" stroke="#63b8ff" points="162.13,-190.86 170.33,-184.15 159.74,-184.28 162.13,-190.86"/>
</a>
</g>
</g>
<!-- Node16&#45;&gt;Node4 -->
<g id="edge19_Node000016_Node000004" class="edge">
<title>Node16&#45;&gt;Node4</title>
<g id="a_edge19_Node000016_Node000004"><a xlink:title=" ">
<path fill="none" stroke="#63b8ff" d="M221.19,-167.11C260.81,-157.73 334.85,-140.22 380.01,-129.53"/>
<polygon fill="#63b8ff" stroke="#63b8ff" points="381.08,-132.87 390,-127.17 379.47,-126.06 381.08,-132.87"/>
</a>
</g>
</g>
<!-- Node16&#45;&gt;Node5 -->
<g id="edge17_Node000016_Node000005" class="edge">
<title>Node16&#45;&gt;Node5</title>
<g id="a_edge17_Node000016_Node000005"><a xlink:title=" ">
<path fill="none" stroke="#63b8ff" d="M201.13,-164.66C215.33,-146.61 247.87,-105.28 266.13,-82.08"/>
<polygon fill="#63b8ff" stroke="#63b8ff" points="268.93,-84.18 272.36,-74.16 263.43,-79.85 268.93,-84.18"/>
</a>
</g>
</g>
<!-- Node16&#45;&gt;Node7 -->
<g id="edge18_Node000016_Node000007" class="edge">
<title>Node16&#45;&gt;Node7</title>
<g id="a_edge18_Node000016_Node000007"><a xlink:title=" ">
<path fill="none" stroke="#63b8ff" d="M196.49,-164.98C202.39,-144.38 219.6,-90.92 248.17,-55 257.65,-43.09 270.98,-32.57 282.47,-24.75"/>
<polygon fill="#63b8ff" stroke="#63b8ff" points="284.7,-27.48 291.18,-19.09 280.89,-21.61 284.7,-27.48"/>
</a>
</g>
</g>
<!-- Node18 -->
<g id="Node000018" class="node">
<title>Node18</title>
<g id="a_Node000018"><a xlink:href="_my_array_8h.html" target="_top" xlink:title="The MyArray specification and body defines a generic array type for stack allocated arrays represente...">
<polygon fill="white" stroke="#666666" points="400.17,-349 338.17,-349 338.17,-330 400.17,-330 400.17,-349"/>
<text text-anchor="middle" x="369.17" y="-337" font-family="Helvetica,sans-Serif" font-size="10.00">MyArray.h</text>
</a>
</g>
</g>
<!-- Node17&#45;&gt;Node18 -->
<g id="edge21_Node000017_Node000018" class="edge">
<title>Node17&#45;&gt;Node18</title>
<g id="a_edge21_Node000017_Node000018"><a xlink:title=" ">
<path fill="none" stroke="#63b8ff" d="M366.67,-384.75C367.06,-377.8 367.63,-367.85 368.12,-359.13"/>
<polygon fill="#63b8ff" stroke="#63b8ff" points="371.62,-359.27 368.69,-349.09 364.63,-358.88 371.62,-359.27"/>
</a>
</g>
</g>
<!-- Node18&#45;&gt;Node4 -->
<g id="edge23_Node000018_Node000004" class="edge">
<title>Node18&#45;&gt;Node4</title>
<g id="a_edge23_Node000018_Node000004"><a xlink:title=" ">
<path fill="none" stroke="#63b8ff" d="M371.1,-329.95C378.31,-297.88 403.86,-184.2 413.99,-139.12"/>
<polygon fill="#63b8ff" stroke="#63b8ff" points="417.44,-139.75 416.21,-129.22 410.61,-138.21 417.44,-139.75"/>
</a>
</g>
</g>
<!-- Node19 -->
<g id="Node000019" class="node">
<title>Node19</title>
<g id="a_Node000019"><a xlink:title=" ">
<polygon fill="#e0e0e0" stroke="#999999" points="521.17,-294 475.17,-294 475.17,-275 521.17,-275 521.17,-294"/>
<text text-anchor="middle" x="498.17" y="-282" font-family="Helvetica,sans-Serif" font-size="10.00">cstring</text>
</a>
</g>
</g>
<!-- Node18&#45;&gt;Node19 -->
<g id="edge22_Node000018_Node000019" class="edge">
<title>Node18&#45;&gt;Node19</title>
<g id="a_edge22_Node000018_Node000019"><a xlink:title=" ">
<path fill="none" stroke="#63b8ff" d="M389.9,-329.98C410.93,-321.34 443.72,-307.87 467.71,-298.02"/>
<polygon fill="#63b8ff" stroke="#63b8ff" points="469.15,-301.21 477.07,-294.17 466.49,-294.73 469.15,-301.21"/>
</a>
</g>
</g>
<!-- Node20&#45;&gt;Node6 -->
<g id="edge25_Node000020_Node000006" class="edge">
<title>Node20&#45;&gt;Node6</title>
<g id="a_edge25_Node000020_Node000006"><a xlink:title=" ">
<path fill="none" stroke="#63b8ff" d="M476.63,-439.96C531.82,-428.19 606.17,-401.1 606.17,-340.5 606.17,-340.5 606.17,-340.5 606.17,-173.5 606.17,-142 601.07,-105.64 597.52,-84.16"/>
<polygon fill="#63b8ff" stroke="#63b8ff" points="600.94,-83.4 595.79,-74.14 594.04,-84.59 600.94,-83.4"/>
</a>
</g>
</g>
<!-- Node20&#45;&gt;Node18 -->
<g id="edge46_Node000020_Node000018" class="edge">
<title>Node20&#45;&gt;Node18</title>
<g id="a_edge46_Node000020_Node000018"><a xlink:title=" ">
<path fill="none" stroke="#63b8ff" d="M424.81,-439.85C433.63,-427.21 447.03,-403.22 437.17,-385 429.6,-370.98 415.47,-360.67 402.05,-353.53"/>
<polygon fill="#63b8ff" stroke="#63b8ff" points="403.48,-350.33 392.96,-349.08 400.4,-356.62 403.48,-350.33"/>
</a>
</g>
</g>
<!-- Node21 -->
<g id="Node000021" class="node">
<title>Node21</title>
<g id="a_Node000021"><a xlink:href="_logging_8h.html" target="_top" xlink:title="The Logging specification defines macros for entry&#45;, exit&#45; and intermediate logging of functions into...">
<polygon fill="white" stroke="#666666" points="544.67,-404 485.67,-404 485.67,-385 544.67,-385 544.67,-404"/>
<text text-anchor="middle" x="515.17" y="-392" font-family="Helvetica,sans-Serif" font-size="10.00">Logging.h</text>
</a>
</g>
</g>
<!-- Node20&#45;&gt;Node21 -->
<g id="edge26_Node000020_Node000021" class="edge">
<title>Node20&#45;&gt;Node21</title>
<g id="a_edge26_Node000020_Node000021"><a xlink:title=" ">
<path fill="none" stroke="#63b8ff" d="M433.76,-439.98C448.94,-431.69 472.27,-418.94 490.07,-409.22"/>
<polygon fill="#63b8ff" stroke="#63b8ff" points="492.21,-412.04 499.31,-404.17 488.85,-405.89 492.21,-412.04"/>
</a>
</g>
</g>
<!-- Node22 -->
<g id="Node000022" class="node">
<title>Node22</title>
<g id="a_Node000022"><a xlink:title=" ">
<polygon fill="#e0e0e0" stroke="#999999" points="467.67,-349 418.67,-349 418.67,-330 467.67,-330 467.67,-349"/>
<text text-anchor="middle" x="443.17" y="-337" font-family="Helvetica,sans-Serif" font-size="10.00">cstdarg</text>
</a>
</g>
</g>
<!-- Node21&#45;&gt;Node22 -->
<g id="edge27_Node000021_Node000022" class="edge">
<title>Node21&#45;&gt;Node22</title>
<g id="a_edge27_Node000021_Node000022"><a xlink:title=" ">
<path fill="none" stroke="#63b8ff" d="M503.61,-384.98C492.75,-377 476.29,-364.88 463.29,-355.31"/>
<polygon fill="#63b8ff" stroke="#63b8ff" points="465.08,-352.28 454.95,-349.17 460.93,-357.92 465.08,-352.28"/>
</a>
</g>
</g>
<!-- Node23 -->
<g id="Node000023" class="node">
<title>Node23</title>
<g id="a_Node000023"><a xlink:href="_logging_support_8h.html" target="_top" xlink:title="The LoggingSupport specification defines a class for simple entry/exit logging to a file or via an ar...">
<polygon fill="white" stroke="#666666" points="578.17,-349 486.17,-349 486.17,-330 578.17,-330 578.17,-349"/>
<text text-anchor="middle" x="532.17" y="-337" font-family="Helvetica,sans-Serif" font-size="10.00">LoggingSupport.h</text>
</a>
</g>
</g>
<!-- Node21&#45;&gt;Node23 -->
<g id="edge28_Node000021_Node000023" class="edge">
<title>Node21&#45;&gt;Node23</title>
<g id="a_edge28_Node000021_Node000023"><a xlink:title=" ">
<path fill="none" stroke="#63b8ff" d="M517.98,-384.75C520.23,-377.72 523.47,-367.62 526.29,-358.84"/>
<polygon fill="#63b8ff" stroke="#63b8ff" points="529.7,-359.68 529.42,-349.09 523.03,-357.54 529.7,-359.68"/>
</a>
</g>
</g>
<!-- Node25 -->
<g id="Node000025" class="node">
<title>Node25</title>
<g id="a_Node000025"><a xlink:href="_string_util_8h.html" target="_top" xlink:title="The StringUtil specification defines several string routines not included in the standard C++ library...">
<polygon fill="white" stroke="#666666" points="231.67,-349 166.67,-349 166.67,-330 231.67,-330 231.67,-349"/>
<text text-anchor="middle" x="199.17" y="-337" font-family="Helvetica,sans-Serif" font-size="10.00">StringUtil.h</text>
</a>
</g>
</g>
<!-- Node21&#45;&gt;Node25 -->
<g id="edge32_Node000021_Node000025" class="edge">
<title>Node21&#45;&gt;Node25</title>
<g id="a_edge32_Node000021_Node000025"><a xlink:title=" ">
<path fill="none" stroke="#63b8ff" d="M485.45,-388.51C429.15,-379.07 306.83,-358.56 241.8,-347.65"/>
<polygon fill="#63b8ff" stroke="#63b8ff" points="242.32,-344.19 231.88,-345.99 241.16,-351.09 242.32,-344.19"/>
</a>
</g>
</g>
<!-- Node23&#45;&gt;Node4 -->
<g id="edge31_Node000023_Node000004" class="edge">
<title>Node23&#45;&gt;Node4</title>
<g id="a_edge31_Node000023_Node000004"><a xlink:title=" ">
<path fill="none" stroke="#63b8ff" d="M533.5,-329.58C535.01,-317.02 536.53,-293.58 530.17,-275 510.36,-217.04 460.76,-162.22 434.72,-136.23"/>
<polygon fill="#63b8ff" stroke="#63b8ff" points="437.05,-133.61 427.46,-129.12 432.15,-138.62 437.05,-133.61"/>
</a>
</g>
</g>
<!-- Node24 -->
<g id="Node000024" class="node">
<title>Node24</title>
<g id="a_Node000024"><a xlink:href="_boolean_8h.html" target="_top" xlink:title="The Boolean specification and body provides a value object type for boolean values.">
<polygon fill="white" stroke="#666666" points="457.17,-294 397.17,-294 397.17,-275 457.17,-275 457.17,-294"/>
<text text-anchor="middle" x="427.17" y="-282" font-family="Helvetica,sans-Serif" font-size="10.00">Boolean.h</text>
</a>
</g>
</g>
<!-- Node23&#45;&gt;Node24 -->
<g id="edge29_Node000023_Node000024" class="edge">
<title>Node23&#45;&gt;Node24</title>
<g id="a_edge29_Node000023_Node000024"><a xlink:title=" ">
<path fill="none" stroke="#63b8ff" d="M515.3,-329.98C498.57,-321.54 472.68,-308.47 453.28,-298.68"/>
<polygon fill="#63b8ff" stroke="#63b8ff" points="454.86,-295.55 444.35,-294.17 451.7,-301.8 454.86,-295.55"/>
</a>
</g>
</g>
<!-- Node24&#45;&gt;Node10 -->
<g id="edge30_Node000024_Node000010" class="edge">
<title>Node24&#45;&gt;Node10</title>
<g id="a_edge30_Node000024_Node000010"><a xlink:title=" ">
<path fill="none" stroke="#63b8ff" d="M430.47,-274.95C442.85,-242.81 486.82,-128.72 504.11,-83.83"/>
<polygon fill="#63b8ff" stroke="#63b8ff" points="507.48,-84.81 507.81,-74.22 500.95,-82.3 507.48,-84.81"/>
</a>
</g>
</g>
<!-- Node25&#45;&gt;Node24 -->
<g id="edge33_Node000025_Node000024" class="edge">
<title>Node25&#45;&gt;Node24</title>
<g id="a_edge33_Node000025_Node000024"><a xlink:title=" ">
<path fill="none" stroke="#63b8ff" d="M231.84,-330.91C272.85,-321.37 343.16,-305.03 387.3,-294.77"/>
<polygon fill="#63b8ff" stroke="#63b8ff" points="388.17,-298.16 397.11,-292.49 386.58,-291.34 388.17,-298.16"/>
</a>
</g>
</g>
<!-- Node26 -->
<g id="Node000026" class="node">
<title>Node26</title>
<g id="a_Node000026"><a xlink:href="_character_8h.html" target="_top" xlink:title="The Character specification and body provides a value object type for character values.">
<polygon fill="white" stroke="#666666" points="157.67,-239 90.67,-239 90.67,-220 157.67,-220 157.67,-239"/>
<text text-anchor="middle" x="124.17" y="-227" font-family="Helvetica,sans-Serif" font-size="10.00">Character.h</text>
</a>
</g>
</g>
<!-- Node25&#45;&gt;Node26 -->
<g id="edge34_Node000025_Node000026" class="edge">
<title>Node25&#45;&gt;Node26</title>
<g id="a_edge34_Node000025_Node000026"><a xlink:title=" ">
<path fill="none" stroke="#63b8ff" d="M177.36,-329.91C162.09,-322.7 142.62,-310.85 132.17,-294 123.85,-280.57 122.31,-262.47 122.58,-249.03"/>
<polygon fill="#63b8ff" stroke="#63b8ff" points="126.07,-249.22 123.12,-239.04 119.08,-248.84 126.07,-249.22"/>
</a>
</g>
</g>
<!-- Node29 -->
<g id="Node000029" class="node">
<title>Node29</title>
<g id="a_Node000029"><a xlink:href="_object_8h.html" target="_top" xlink:title="The Object specification and body provides the root object type.">
<polygon fill="white" stroke="#666666" points="194.67,-294 141.67,-294 141.67,-275 194.67,-275 194.67,-294"/>
<text text-anchor="middle" x="168.17" y="-282" font-family="Helvetica,sans-Serif" font-size="10.00">Object.h</text>
</a>
</g>
</g>
<!-- Node25&#45;&gt;Node29 -->
<g id="edge40_Node000025_Node000029" class="edge">
<title>Node25&#45;&gt;Node29</title>
<g id="a_edge40_Node000025_Node000029"><a xlink:title=" ">
<path fill="none" stroke="#63b8ff" d="M194.06,-329.75C189.81,-322.49 183.65,-311.95 178.4,-302.98"/>
<polygon fill="#63b8ff" stroke="#63b8ff" points="181.27,-300.95 173.2,-294.09 175.23,-304.49 181.27,-300.95"/>
</a>
</g>
</g>
<!-- Node30 -->
<g id="Node000030" class="node">
<title>Node30</title>
<g id="a_Node000030"><a xlink:href="_percentage_8h.html" target="_top" xlink:title="The Percentage specification and body provides a simple percentage type.">
<polygon fill="white" stroke="#666666" points="85.17,-294 11.17,-294 11.17,-275 85.17,-275 85.17,-294"/>
<text text-anchor="middle" x="48.17" y="-282" font-family="Helvetica,sans-Serif" font-size="10.00">Percentage.h</text>
</a>
</g>
</g>
<!-- Node25&#45;&gt;Node30 -->
<g id="edge41_Node000025_Node000030" class="edge">
<title>Node25&#45;&gt;Node30</title>
<g id="a_edge41_Node000025_Node000030"><a xlink:title=" ">
<path fill="none" stroke="#63b8ff" d="M174.91,-329.98C149.86,-321.19 110.54,-307.39 82.35,-297.49"/>
<polygon fill="#63b8ff" stroke="#63b8ff" points="83.47,-294.18 72.88,-294.17 81.15,-300.78 83.47,-294.18"/>
</a>
</g>
</g>
<!-- Node31 -->
<g id="Node000031" class="node">
<title>Node31</title>
<g id="a_Node000031"><a xlink:href="_string_list_8h.html" target="_top" xlink:title="The StringList specification defines lists of string values with zero&#45;based arbitrary indexed access ...">
<polygon fill="white" stroke="#666666" points="279.17,-294 213.17,-294 213.17,-275 279.17,-275 279.17,-294"/>
<text text-anchor="middle" x="246.17" y="-282" font-family="Helvetica,sans-Serif" font-size="10.00">StringList.h</text>
</a>
</g>
</g>
<!-- Node25&#45;&gt;Node31 -->
<g id="edge43_Node000025_Node000031" class="edge">
<title>Node25&#45;&gt;Node31</title>
<g id="a_edge43_Node000025_Node000031"><a xlink:title=" ">
<path fill="none" stroke="#63b8ff" d="M206.94,-329.75C213.64,-322.18 223.52,-311.05 231.68,-301.84"/>
<polygon fill="#63b8ff" stroke="#63b8ff" points="234.54,-303.89 238.56,-294.09 229.3,-299.25 234.54,-303.89"/>
</a>
</g>
</g>
<!-- Node26&#45;&gt;Node5 -->
<g id="edge35_Node000026_Node000005" class="edge">
<title>Node26&#45;&gt;Node5</title>
<g id="a_edge35_Node000026_Node000005"><a xlink:title=" ">
<path fill="none" stroke="#63b8ff" d="M158.1,-221.44C181.04,-215.1 210.61,-203.67 230.17,-184 258.07,-155.95 270.85,-109.74 276.06,-84.1"/>
<polygon fill="#63b8ff" stroke="#63b8ff" points="279.51,-84.67 277.9,-74.2 272.63,-83.39 279.51,-84.67"/>
</a>
</g>
</g>
<!-- Node27 -->
<g id="Node000027" class="node">
<title>Node27</title>
<g id="a_Node000027"><a xlink:href="_byte_8h.html" target="_top" xlink:title="The Byte specification and body provides a value object type for byte values.">
<polygon fill="white" stroke="#666666" points="335.67,-184 290.67,-184 290.67,-165 335.67,-165 335.67,-184"/>
<text text-anchor="middle" x="313.17" y="-172" font-family="Helvetica,sans-Serif" font-size="10.00">Byte.h</text>
</a>
</g>
</g>
<!-- Node26&#45;&gt;Node27 -->
<g id="edge36_Node000026_Node000027" class="edge">
<title>Node26&#45;&gt;Node27</title>
<g id="a_edge36_Node000026_Node000027"><a xlink:title=" ">
<path fill="none" stroke="#63b8ff" d="M154.54,-219.98C189.11,-210.29 245.36,-194.52 280.76,-184.59"/>
<polygon fill="#63b8ff" stroke="#63b8ff" points="281.91,-187.9 290.59,-181.83 280.02,-181.16 281.91,-187.9"/>
</a>
</g>
</g>
<!-- Node27&#45;&gt;Node4 -->
<g id="edge39_Node000027_Node000004" class="edge">
<title>Node27&#45;&gt;Node4</title>
<g id="a_edge39_Node000027_Node000004"><a xlink:title=" ">
<path fill="none" stroke="#63b8ff" d="M330.04,-164.98C346.78,-156.54 372.67,-143.47 392.07,-133.68"/>
<polygon fill="#63b8ff" stroke="#63b8ff" points="393.65,-136.8 401,-129.17 390.49,-130.55 393.65,-136.8"/>
</a>
</g>
</g>
<!-- Node27&#45;&gt;Node5 -->
<g id="edge37_Node000027_Node000005" class="edge">
<title>Node27&#45;&gt;Node5</title>
<g id="a_edge37_Node000027_Node000005"><a xlink:title=" ">
<path fill="none" stroke="#63b8ff" d="M310.39,-164.66C304.86,-147.09 292.38,-107.45 284.98,-83.95"/>
<polygon fill="#63b8ff" stroke="#63b8ff" points="288.24,-82.65 281.9,-74.16 281.57,-84.75 288.24,-82.65"/>
</a>
</g>
</g>
<!-- Node28 -->
<g id="Node000028" class="node">
<title>Node28</title>
<g id="a_Node000028"><a xlink:title=" ">
<polygon fill="#e0e0e0" stroke="#999999" points="372.17,-129 326.17,-129 326.17,-110 372.17,-110 372.17,-129"/>
<text text-anchor="middle" x="349.17" y="-117" font-family="Helvetica,sans-Serif" font-size="10.00">cstdint</text>
</a>
</g>
</g>
<!-- Node27&#45;&gt;Node28 -->
<g id="edge38_Node000027_Node000028" class="edge">
<title>Node27&#45;&gt;Node28</title>
<g id="a_edge38_Node000027_Node000028"><a xlink:title=" ">
<path fill="none" stroke="#63b8ff" d="M319.12,-164.75C324.15,-157.34 331.51,-146.5 337.69,-137.41"/>
<polygon fill="#63b8ff" stroke="#63b8ff" points="340.62,-139.33 343.34,-129.09 334.83,-135.39 340.62,-139.33"/>
</a>
</g>
</g>
<!-- Node30&#45;&gt;Node15 -->
<g id="edge42_Node000030_Node000015" class="edge">
<title>Node30&#45;&gt;Node15</title>
<g id="a_edge42_Node000030_Node000015"><a xlink:title=" ">
<path fill="none" stroke="#63b8ff" d="M48.17,-274.75C48.17,-267.8 48.17,-257.85 48.17,-249.13"/>
<polygon fill="#63b8ff" stroke="#63b8ff" points="51.67,-249.09 48.17,-239.09 44.67,-249.09 51.67,-249.09"/>
</a>
</g>
</g>
<!-- Node31&#45;&gt;Node13 -->
<g id="edge45_Node000031_Node000013" class="edge">
<title>Node31&#45;&gt;Node13</title>
<g id="a_edge45_Node000031_Node000013"><a xlink:title=" ">
<path fill="none" stroke="#63b8ff" d="M255.49,-274.98C263.98,-267.23 276.73,-255.58 287.06,-246.14"/>
<polygon fill="#63b8ff" stroke="#63b8ff" points="289.67,-248.5 294.69,-239.17 284.94,-243.33 289.67,-248.5"/>
</a>
</g>
</g>
<!-- Node32 -->
<g id="Node000032" class="node">
<title>Node32</title>
<g id="a_Node000032"><a xlink:title=" ">
<polygon fill="#e0e0e0" stroke="#999999" points="248.67,-239 175.67,-239 175.67,-220 248.67,-220 248.67,-239"/>
<text text-anchor="middle" x="212.17" y="-227" font-family="Helvetica,sans-Serif" font-size="10.00">initializer_list</text>
</a>
</g>
</g>
<!-- Node31&#45;&gt;Node32 -->
<g id="edge44_Node000031_Node000032" class="edge">
<title>Node31&#45;&gt;Node32</title>
<g id="a_edge44_Node000031_Node000032"><a xlink:title=" ">
<path fill="none" stroke="#63b8ff" d="M240.56,-274.75C235.86,-267.42 229,-256.73 223.21,-247.7"/>
<polygon fill="#63b8ff" stroke="#63b8ff" points="226.03,-245.62 217.68,-239.09 220.14,-249.4 226.03,-245.62"/>
</a>
</g>
</g>
<!-- Node33&#45;&gt;Node12 -->
<g id="edge48_Node000033_Node000012" class="edge">
<title>Node33&#45;&gt;Node12</title>
<g id="a_edge48_Node000033_Node000012"><a xlink:title=" ">
<path fill="none" stroke="#63b8ff" d="M273.34,-494.75C273.47,-487.8 273.66,-477.85 273.82,-469.13"/>
<polygon fill="#63b8ff" stroke="#63b8ff" points="277.32,-469.15 274.01,-459.09 270.32,-469.02 277.32,-469.15"/>
</a>
</g>
</g>
<!-- Node34 -->
<g id="Node000034" class="node">
<title>Node34</title>
<g id="a_Node000034"><a xlink:href="_audio_sample_list_vector_8cpp-inc.html" target="_top" xlink:title="The AudioSampleListVector body implements the communication buffer structure for the block processing...">
<polygon fill="white" stroke="#666666" points="206.67,-459 53.67,-459 53.67,-440 206.67,-440 206.67,-459"/>
<text text-anchor="middle" x="130.17" y="-447" font-family="Helvetica,sans-Serif" font-size="10.00">AudioSampleListVector.cpp&#45;inc</text>
</a>
</g>
</g>
<!-- Node33&#45;&gt;Node34 -->
<g id="edge49_Node000033_Node000034" class="edge">
<title>Node33&#45;&gt;Node34</title>
<g id="a_edge49_Node000033_Node000034"><a xlink:title=" ">
<path fill="none" stroke="#63b8ff" d="M250.2,-494.98C226.68,-486.27 189.89,-472.63 163.24,-462.75"/>
<polygon fill="#63b8ff" stroke="#63b8ff" points="164.16,-459.36 153.57,-459.17 161.73,-465.93 164.16,-459.36"/>
</a>
</g>
</g>
<!-- Node35&#45;&gt;Node6 -->
<g id="edge51_Node000035_Node000006" class="edge">
<title>Node35&#45;&gt;Node6</title>
<g id="a_edge51_Node000035_Node000006"><a xlink:title=" ">
<path fill="none" stroke="#63b8ff" d="M616.36,-439.95C638.3,-423.45 682.17,-384.91 682.17,-340.5 682.17,-340.5 682.17,-340.5 682.17,-173.5 682.17,-132.39 643.39,-98.26 617.31,-79.97"/>
<polygon fill="#63b8ff" stroke="#63b8ff" points="618.96,-76.85 608.71,-74.17 615.05,-82.66 618.96,-76.85"/>
</a>
</g>
</g>
<!-- Node35&#45;&gt;Node21 -->
<g id="edge52_Node000035_Node000021" class="edge">
<title>Node35&#45;&gt;Node21</title>
<g id="a_edge52_Node000035_Node000021"><a xlink:title=" ">
<path fill="none" stroke="#63b8ff" d="M589.88,-439.98C576.07,-431.77 554.93,-419.18 538.66,-409.49"/>
<polygon fill="#63b8ff" stroke="#63b8ff" points="540.12,-406.28 529.73,-404.17 536.54,-412.29 540.12,-406.28"/>
</a>
</g>
</g>
</g>
</svg>
