<?xml version="1.0" encoding="UTF-8" standalone="no"?>
<!DOCTYPE svg PUBLIC "-//W3C//DTD SVG 1.1//EN"
 "http://www.w3.org/Graphics/SVG/1.1/DTD/svg11.dtd">
<!-- Generated by graphviz version 2.47.1 (20210417.1919)
 -->
<!-- Title: AudioSampleFifoQueue.cpp&#45;inc Pages: 1 -->
<svg width="615pt" height="599pt"
 viewBox="0.00 0.00 614.50 599.00" xmlns="http://www.w3.org/2000/svg" xmlns:xlink="http://www.w3.org/1999/xlink">
<g id="graph0" class="graph" transform="scale(1 1) rotate(0) translate(4 595)">
<title>AudioSampleFifoQueue.cpp&#45;inc</title>
<polygon fill="white" stroke="transparent" points="-4,4 -4,-595 610.5,-595 610.5,4 -4,4"/>
<!-- Node1 -->
<g id="node1" class="node">
<title>Node1</title>
<g id="a_node1"><a xlink:title="The AudioSampleFifoQueue body implements a fifo queue for audio samples with popping off access to th...">
<polygon fill="#bfbfbf" stroke="black" points="57,-570.5 57,-590.5 228,-590.5 228,-570.5 57,-570.5"/>
<text text-anchor="middle" x="142.5" y="-577.7" font-family="Helvetica,sans-Serif" font-size="11.00">AudioSampleFifoQueue.cpp&#45;inc</text>
</a>
</g>
</g>
<!-- Node2 -->
<g id="node2" class="node">
<title>Node2</title>
<g id="a_node2"><a xlink:href="_assertion_8h.html" target="_top" xlink:title="The Assertion specification defines macros for pre&#45; and postconditions in functions or methods.">
<polygon fill="white" stroke="black" points="11,-513.5 11,-533.5 82,-533.5 82,-513.5 11,-513.5"/>
<text text-anchor="middle" x="46.5" y="-520.7" font-family="Helvetica,sans-Serif" font-size="11.00">Assertion.h</text>
</a>
</g>
</g>
<!-- Node1&#45;&gt;Node2 -->
<g id="edge1" class="edge">
<title>Node1&#45;&gt;Node2</title>
<path fill="none" stroke="midnightblue" d="M126.65,-570.42C111.64,-561.82 88.87,-548.78 71.43,-538.78"/>
<polygon fill="midnightblue" stroke="midnightblue" points="72.79,-535.53 62.38,-533.6 69.31,-541.6 72.79,-535.53"/>
</g>
<!-- Node4 -->
<g id="node4" class="node">
<title>Node4</title>
<g id="a_node4"><a xlink:href="_logging_8h.html" target="_top" xlink:title="The Logging specification defines macros for entry&#45;, exit&#45; and intermediate logging of functions into...">
<polygon fill="white" stroke="black" points="110.5,-513.5 110.5,-533.5 174.5,-533.5 174.5,-513.5 110.5,-513.5"/>
<text text-anchor="middle" x="142.5" y="-520.7" font-family="Helvetica,sans-Serif" font-size="11.00">Logging.h</text>
</a>
</g>
</g>
<!-- Node1&#45;&gt;Node4 -->
<g id="edge3" class="edge">
<title>Node1&#45;&gt;Node4</title>
<path fill="none" stroke="midnightblue" d="M142.5,-570.42C142.5,-563.22 142.5,-552.9 142.5,-543.86"/>
<polygon fill="midnightblue" stroke="midnightblue" points="146,-543.78 142.5,-533.78 139,-543.78 146,-543.78"/>
</g>
<!-- Node25 -->
<g id="node25" class="node">
<title>Node25</title>
<g id="a_node25"><a xlink:href="_my_array_8h.html" target="_top" xlink:title="The MyArray specification and body defines a generic array type for stack allocated arrays represente...">
<polygon fill="white" stroke="black" points="193,-513.5 193,-533.5 258,-533.5 258,-513.5 193,-513.5"/>
<text text-anchor="middle" x="225.5" y="-520.7" font-family="Helvetica,sans-Serif" font-size="11.00">MyArray.h</text>
</a>
</g>
</g>
<!-- Node1&#45;&gt;Node25 -->
<g id="edge36" class="edge">
<title>Node1&#45;&gt;Node25</title>
<path fill="none" stroke="midnightblue" d="M156.21,-570.42C168.94,-561.98 188.14,-549.26 203.1,-539.34"/>
<polygon fill="midnightblue" stroke="midnightblue" points="205.37,-542.04 211.77,-533.6 201.5,-536.2 205.37,-542.04"/>
</g>
<!-- Node3 -->
<g id="node3" class="node">
<title>Node3</title>
<g id="a_node3"><a xlink:title=" ">
<polygon fill="white" stroke="#bfbfbf" points="0,-456.5 0,-476.5 53,-476.5 53,-456.5 0,-456.5"/>
<text text-anchor="middle" x="26.5" y="-463.7" font-family="Helvetica,sans-Serif" font-size="11.00">cassert</text>
</a>
</g>
</g>
<!-- Node2&#45;&gt;Node3 -->
<g id="edge2" class="edge">
<title>Node2&#45;&gt;Node3</title>
<path fill="none" stroke="midnightblue" d="M43.2,-513.42C40.52,-506.06 36.66,-495.44 33.33,-486.27"/>
<polygon fill="midnightblue" stroke="midnightblue" points="36.58,-484.98 29.87,-476.78 30,-487.37 36.58,-484.98"/>
</g>
<!-- Node5 -->
<g id="node5" class="node">
<title>Node5</title>
<g id="a_node5"><a xlink:title=" ">
<polygon fill="white" stroke="#bfbfbf" points="71,-456.5 71,-476.5 124,-476.5 124,-456.5 71,-456.5"/>
<text text-anchor="middle" x="97.5" y="-463.7" font-family="Helvetica,sans-Serif" font-size="11.00">cstdarg</text>
</a>
</g>
</g>
<!-- Node4&#45;&gt;Node5 -->
<g id="edge4" class="edge">
<title>Node4&#45;&gt;Node5</title>
<path fill="none" stroke="midnightblue" d="M135.07,-513.42C128.72,-505.66 119.42,-494.29 111.66,-484.8"/>
<polygon fill="midnightblue" stroke="midnightblue" points="114.13,-482.3 105.09,-476.78 108.72,-486.74 114.13,-482.3"/>
</g>
<!-- Node6 -->
<g id="node6" class="node">
<title>Node6</title>
<g id="a_node6"><a xlink:href="_logging_support_8h.html" target="_top" xlink:title="The LoggingSupport specification defines a class for simple entry/exit logging to a file; this loggin...">
<polygon fill="white" stroke="black" points="62.5,-285.5 62.5,-305.5 164.5,-305.5 164.5,-285.5 62.5,-285.5"/>
<text text-anchor="middle" x="113.5" y="-292.7" font-family="Helvetica,sans-Serif" font-size="11.00">LoggingSupport.h</text>
</a>
</g>
</g>
<!-- Node4&#45;&gt;Node6 -->
<g id="edge5" class="edge">
<title>Node4&#45;&gt;Node6</title>
<path fill="none" stroke="midnightblue" d="M141.33,-513.36C137,-479.64 121.88,-361.77 115.93,-315.42"/>
<polygon fill="midnightblue" stroke="midnightblue" points="119.4,-314.98 114.66,-305.51 112.46,-315.87 119.4,-314.98"/>
</g>
<!-- Node15 -->
<g id="node15" class="node">
<title>Node15</title>
<g id="a_node15"><a xlink:href="_string_util_8h.html" target="_top" xlink:title="The StringUtil specification defines several string routines not included in the standard C++ library...">
<polygon fill="white" stroke="black" points="290,-456.5 290,-476.5 359,-476.5 359,-456.5 290,-456.5"/>
<text text-anchor="middle" x="324.5" y="-463.7" font-family="Helvetica,sans-Serif" font-size="11.00">StringUtil.h</text>
</a>
</g>
</g>
<!-- Node4&#45;&gt;Node15 -->
<g id="edge16" class="edge">
<title>Node4&#45;&gt;Node15</title>
<path fill="none" stroke="midnightblue" d="M172.55,-513.42C203.21,-504.15 250.93,-489.73 284.7,-479.53"/>
<polygon fill="midnightblue" stroke="midnightblue" points="286.14,-482.75 294.7,-476.5 284.12,-476.05 286.14,-482.75"/>
</g>
<!-- Node7 -->
<g id="node7" class="node">
<title>Node7</title>
<g id="a_node7"><a xlink:href="_boolean_8h.html" target="_top" xlink:title="The Boolean specification and body provides a value object type for boolean values.">
<polygon fill="white" stroke="black" points="187,-114.5 187,-134.5 252,-134.5 252,-114.5 187,-114.5"/>
<text text-anchor="middle" x="219.5" y="-121.7" font-family="Helvetica,sans-Serif" font-size="11.00">Boolean.h</text>
</a>
</g>
</g>
<!-- Node6&#45;&gt;Node7 -->
<g id="edge6" class="edge">
<title>Node6&#45;&gt;Node7</title>
<path fill="none" stroke="midnightblue" d="M123.52,-285.32C141.31,-268.49 178.53,-230.84 199.5,-192 207.56,-177.08 212.8,-158.49 215.88,-144.76"/>
<polygon fill="midnightblue" stroke="midnightblue" points="219.4,-145.05 217.98,-134.55 212.54,-143.64 219.4,-145.05"/>
</g>
<!-- Node11 -->
<g id="node11" class="node">
<title>Node11</title>
<g id="a_node11"><a xlink:href="_natural_8h.html" target="_top" xlink:title="The Natural specification and body provides a value object type for naturals (positive integers with ...">
<polygon fill="white" stroke="black" points="196.5,-228.5 196.5,-248.5 256.5,-248.5 256.5,-228.5 196.5,-228.5"/>
<text text-anchor="middle" x="226.5" y="-235.7" font-family="Helvetica,sans-Serif" font-size="11.00">Natural.h</text>
</a>
</g>
</g>
<!-- Node6&#45;&gt;Node11 -->
<g id="edge10" class="edge">
<title>Node6&#45;&gt;Node11</title>
<path fill="none" stroke="midnightblue" d="M132.16,-285.42C150.23,-276.62 177.87,-263.17 198.57,-253.1"/>
<polygon fill="midnightblue" stroke="midnightblue" points="200.35,-256.12 207.81,-248.6 197.29,-249.83 200.35,-256.12"/>
</g>
<!-- Node8 -->
<g id="node8" class="node">
<title>Node8</title>
<g id="a_node8"><a xlink:href="_my_string_8h.html" target="_top" xlink:title="The String specification defines a standard string type.">
<polygon fill="white" stroke="black" points="105.5,-57.5 105.5,-77.5 173.5,-77.5 173.5,-57.5 105.5,-57.5"/>
<text text-anchor="middle" x="139.5" y="-64.7" font-family="Helvetica,sans-Serif" font-size="11.00">MyString.h</text>
</a>
</g>
</g>
<!-- Node7&#45;&gt;Node8 -->
<g id="edge7" class="edge">
<title>Node7&#45;&gt;Node8</title>
<path fill="none" stroke="midnightblue" d="M206.29,-114.42C194.01,-105.98 175.51,-93.26 161.09,-83.34"/>
<polygon fill="midnightblue" stroke="midnightblue" points="162.95,-80.38 152.73,-77.6 158.99,-86.15 162.95,-80.38"/>
</g>
<!-- Node9 -->
<g id="node9" class="node">
<title>Node9</title>
<g id="a_node9"><a xlink:title=" ">
<polygon fill="white" stroke="#bfbfbf" points="74.5,-0.5 74.5,-20.5 118.5,-20.5 118.5,-0.5 74.5,-0.5"/>
<text text-anchor="middle" x="96.5" y="-7.7" font-family="Helvetica,sans-Serif" font-size="11.00">string</text>
</a>
</g>
</g>
<!-- Node8&#45;&gt;Node9 -->
<g id="edge8" class="edge">
<title>Node8&#45;&gt;Node9</title>
<path fill="none" stroke="midnightblue" d="M132.4,-57.42C126.34,-49.66 117.44,-38.29 110.03,-28.8"/>
<polygon fill="midnightblue" stroke="midnightblue" points="112.67,-26.5 103.75,-20.78 107.16,-30.81 112.67,-26.5"/>
</g>
<!-- Node10 -->
<g id="node10" class="node">
<title>Node10</title>
<g id="a_node10"><a xlink:href="_global_macros_8h.html" target="_top" xlink:title="The GlobalMacros specification defines simple macros (e.g. for parameter modes).">
<polygon fill="white" stroke="black" points="136.5,-0.5 136.5,-20.5 228.5,-20.5 228.5,-0.5 136.5,-0.5"/>
<text text-anchor="middle" x="182.5" y="-7.7" font-family="Helvetica,sans-Serif" font-size="11.00">GlobalMacros.h</text>
</a>
</g>
</g>
<!-- Node8&#45;&gt;Node10 -->
<g id="edge9" class="edge">
<title>Node8&#45;&gt;Node10</title>
<path fill="none" stroke="midnightblue" d="M146.6,-57.42C152.66,-49.66 161.56,-38.29 168.97,-28.8"/>
<polygon fill="midnightblue" stroke="midnightblue" points="171.84,-30.81 175.25,-20.78 166.33,-26.5 171.84,-30.81"/>
</g>
<!-- Node11&#45;&gt;Node8 -->
<g id="edge15" class="edge">
<title>Node11&#45;&gt;Node8</title>
<path fill="none" stroke="midnightblue" d="M196.19,-237.97C161.35,-236.66 105.49,-228.54 78.5,-192 52.62,-156.96 94.45,-109.26 120.74,-84.65"/>
<polygon fill="midnightblue" stroke="midnightblue" points="123.25,-87.11 128.31,-77.8 118.55,-81.92 123.25,-87.11"/>
</g>
<!-- Node12 -->
<g id="node12" class="node">
<title>Node12</title>
<g id="a_node12"><a xlink:title=" ">
<polygon fill="white" stroke="#bfbfbf" points="299,-171.5 299,-191.5 346,-191.5 346,-171.5 299,-171.5"/>
<text text-anchor="middle" x="322.5" y="-178.7" font-family="Helvetica,sans-Serif" font-size="11.00">cmath</text>
</a>
</g>
</g>
<!-- Node11&#45;&gt;Node12 -->
<g id="edge11" class="edge">
<title>Node11&#45;&gt;Node12</title>
<path fill="none" stroke="midnightblue" d="M242.35,-228.42C257.36,-219.82 280.13,-206.78 297.57,-196.78"/>
<polygon fill="midnightblue" stroke="midnightblue" points="299.69,-199.6 306.62,-191.6 296.21,-193.53 299.69,-199.6"/>
</g>
<!-- Node13 -->
<g id="node13" class="node">
<title>Node13</title>
<g id="a_node13"><a xlink:href="_generic_number_8h.html" target="_top" xlink:title="The GenericNumber specification and body defines a template for wrapper objects for elementary numeri...">
<polygon fill="white" stroke="black" points="88,-171.5 88,-191.5 191,-191.5 191,-171.5 88,-171.5"/>
<text text-anchor="middle" x="139.5" y="-178.7" font-family="Helvetica,sans-Serif" font-size="11.00">GenericNumber.h</text>
</a>
</g>
</g>
<!-- Node11&#45;&gt;Node13 -->
<g id="edge12" class="edge">
<title>Node11&#45;&gt;Node13</title>
<path fill="none" stroke="midnightblue" d="M212.13,-228.42C198.66,-219.9 178.28,-207.02 162.54,-197.06"/>
<polygon fill="midnightblue" stroke="midnightblue" points="164.21,-193.98 153.89,-191.6 160.47,-199.9 164.21,-193.98"/>
</g>
<!-- Node13&#45;&gt;Node7 -->
<g id="edge14" class="edge">
<title>Node13&#45;&gt;Node7</title>
<path fill="none" stroke="midnightblue" d="M152.71,-171.42C164.99,-162.98 183.49,-150.26 197.91,-140.34"/>
<polygon fill="midnightblue" stroke="midnightblue" points="200.01,-143.15 206.27,-134.6 196.05,-137.38 200.01,-143.15"/>
</g>
<!-- Node14 -->
<g id="node14" class="node">
<title>Node14</title>
<g id="a_node14"><a xlink:title=" ">
<polygon fill="white" stroke="#bfbfbf" points="118.5,-114.5 118.5,-134.5 160.5,-134.5 160.5,-114.5 118.5,-114.5"/>
<text text-anchor="middle" x="139.5" y="-121.7" font-family="Helvetica,sans-Serif" font-size="11.00">limits</text>
</a>
</g>
</g>
<!-- Node13&#45;&gt;Node14 -->
<g id="edge13" class="edge">
<title>Node13&#45;&gt;Node14</title>
<path fill="none" stroke="midnightblue" d="M139.5,-171.42C139.5,-164.22 139.5,-153.9 139.5,-144.86"/>
<polygon fill="midnightblue" stroke="midnightblue" points="143,-144.78 139.5,-134.78 136,-144.78 143,-144.78"/>
</g>
<!-- Node15&#45;&gt;Node7 -->
<g id="edge17" class="edge">
<title>Node15&#45;&gt;Node7</title>
<path fill="none" stroke="midnightblue" d="M359.16,-457.95C413.93,-445.96 515.11,-423.55 522.5,-420 565.42,-399.38 606.5,-401.12 606.5,-353.5 606.5,-353.5 606.5,-353.5 606.5,-237.5 606.5,-166.48 363,-137.66 262.3,-128.78"/>
<polygon fill="midnightblue" stroke="midnightblue" points="262.42,-125.27 252.16,-127.91 261.83,-132.25 262.42,-125.27"/>
</g>
<!-- Node16 -->
<g id="node16" class="node">
<title>Node16</title>
<g id="a_node16"><a xlink:href="_byte_8h.html" target="_top" xlink:title="The Byte specification and body provides a value object type for byte values.">
<polygon fill="white" stroke="black" points="351,-285.5 351,-305.5 398,-305.5 398,-285.5 351,-285.5"/>
<text text-anchor="middle" x="374.5" y="-292.7" font-family="Helvetica,sans-Serif" font-size="11.00">Byte.h</text>
</a>
</g>
</g>
<!-- Node15&#45;&gt;Node16 -->
<g id="edge18" class="edge">
<title>Node15&#45;&gt;Node16</title>
<path fill="none" stroke="midnightblue" d="M340.42,-456.2C352.28,-448.27 367.57,-435.67 374.5,-420 389.61,-385.82 384.14,-340.93 379.12,-315.76"/>
<polygon fill="midnightblue" stroke="midnightblue" points="382.47,-314.71 376.91,-305.69 375.63,-316.21 382.47,-314.71"/>
</g>
<!-- Node17 -->
<g id="node17" class="node">
<title>Node17</title>
<g id="a_node17"><a xlink:href="_character_8h.html" target="_top" xlink:title="The Character specification and body provides a value object type for character values.">
<polygon fill="white" stroke="black" points="220.5,-285.5 220.5,-305.5 294.5,-305.5 294.5,-285.5 220.5,-285.5"/>
<text text-anchor="middle" x="257.5" y="-292.7" font-family="Helvetica,sans-Serif" font-size="11.00">Character.h</text>
</a>
</g>
</g>
<!-- Node15&#45;&gt;Node17 -->
<g id="edge21" class="edge">
<title>Node15&#45;&gt;Node17</title>
<path fill="none" stroke="midnightblue" d="M309.63,-456.25C298.04,-448.18 282.59,-435.37 274.5,-420 256.84,-386.45 255.39,-340.99 256.23,-315.63"/>
<polygon fill="midnightblue" stroke="midnightblue" points="259.73,-315.66 256.73,-305.5 252.74,-315.32 259.73,-315.66"/>
</g>
<!-- Node18 -->
<g id="node18" class="node">
<title>Node18</title>
<g id="a_node18"><a xlink:href="_percentage_8h.html" target="_top" xlink:title="The Percentage specification and body provides a simple percentage type.">
<polygon fill="white" stroke="black" points="283.5,-399.5 283.5,-419.5 365.5,-419.5 365.5,-399.5 283.5,-399.5"/>
<text text-anchor="middle" x="324.5" y="-406.7" font-family="Helvetica,sans-Serif" font-size="11.00">Percentage.h</text>
</a>
</g>
</g>
<!-- Node15&#45;&gt;Node18 -->
<g id="edge24" class="edge">
<title>Node15&#45;&gt;Node18</title>
<path fill="none" stroke="midnightblue" d="M324.5,-456.42C324.5,-449.22 324.5,-438.9 324.5,-429.86"/>
<polygon fill="midnightblue" stroke="midnightblue" points="328,-429.78 324.5,-419.78 321,-429.78 328,-429.78"/>
</g>
<!-- Node22 -->
<g id="node22" class="node">
<title>Node22</title>
<g id="a_node22"><a xlink:href="_string_list_8h.html" target="_top" xlink:title="The StringList specification defines sequences of string values with zero&#45;based arbitrary indexed acc...">
<polygon fill="white" stroke="black" points="442,-399.5 442,-419.5 513,-419.5 513,-399.5 442,-399.5"/>
<text text-anchor="middle" x="477.5" y="-406.7" font-family="Helvetica,sans-Serif" font-size="11.00">StringList.h</text>
</a>
</g>
</g>
<!-- Node15&#45;&gt;Node22 -->
<g id="edge31" class="edge">
<title>Node15&#45;&gt;Node22</title>
<path fill="none" stroke="midnightblue" d="M349.76,-456.42C375.2,-447.27 414.62,-433.1 442.94,-422.92"/>
<polygon fill="midnightblue" stroke="midnightblue" points="444.23,-426.18 452.45,-419.5 441.86,-419.59 444.23,-426.18"/>
</g>
<!-- Node16&#45;&gt;Node11 -->
<g id="edge20" class="edge">
<title>Node16&#45;&gt;Node11</title>
<path fill="none" stroke="midnightblue" d="M350.72,-285.66C326.41,-276.63 288.42,-262.51 260.85,-252.26"/>
<polygon fill="midnightblue" stroke="midnightblue" points="261.8,-248.88 251.21,-248.68 259.36,-255.45 261.8,-248.88"/>
</g>
<!-- Node16&#45;&gt;Node12 -->
<g id="edge19" class="edge">
<title>Node16&#45;&gt;Node12</title>
<path fill="none" stroke="midnightblue" d="M370.24,-285.33C361.71,-266.96 342.37,-225.29 331.1,-201.01"/>
<polygon fill="midnightblue" stroke="midnightblue" points="334.2,-199.39 326.81,-191.79 327.85,-202.34 334.2,-199.39"/>
</g>
<!-- Node17&#45;&gt;Node11 -->
<g id="edge23" class="edge">
<title>Node17&#45;&gt;Node11</title>
<path fill="none" stroke="midnightblue" d="M252.38,-285.42C248.14,-277.9 241.99,-266.98 236.75,-257.68"/>
<polygon fill="midnightblue" stroke="midnightblue" points="239.69,-255.77 231.73,-248.78 233.59,-259.21 239.69,-255.77"/>
</g>
<!-- Node17&#45;&gt;Node12 -->
<g id="edge22" class="edge">
<title>Node17&#45;&gt;Node12</title>
<path fill="none" stroke="midnightblue" d="M262.82,-285.33C273.53,-266.88 297.88,-224.92 311.94,-200.69"/>
<polygon fill="midnightblue" stroke="midnightblue" points="315.11,-202.2 317.11,-191.79 309.06,-198.68 315.11,-202.2"/>
</g>
<!-- Node19 -->
<g id="node19" class="node">
<title>Node19</title>
<g id="a_node19"><a xlink:href="_real_8h.html" target="_top" xlink:title="The Real specification defines a value object type for real values.">
<polygon fill="white" stroke="black" points="300.5,-342.5 300.5,-362.5 348.5,-362.5 348.5,-342.5 300.5,-342.5"/>
<text text-anchor="middle" x="324.5" y="-349.7" font-family="Helvetica,sans-Serif" font-size="11.00">Real.h</text>
</a>
</g>
</g>
<!-- Node18&#45;&gt;Node19 -->
<g id="edge25" class="edge">
<title>Node18&#45;&gt;Node19</title>
<path fill="none" stroke="midnightblue" d="M324.5,-399.42C324.5,-392.22 324.5,-381.9 324.5,-372.86"/>
<polygon fill="midnightblue" stroke="midnightblue" points="328,-372.78 324.5,-362.78 321,-372.78 328,-372.78"/>
</g>
<!-- Node19&#45;&gt;Node12 -->
<g id="edge26" class="edge">
<title>Node19&#45;&gt;Node12</title>
<path fill="none" stroke="midnightblue" d="M324.39,-342.41C324.08,-315.94 323.16,-238.42 322.73,-201.92"/>
<polygon fill="midnightblue" stroke="midnightblue" points="326.23,-201.59 322.61,-191.63 319.23,-201.67 326.23,-201.59"/>
</g>
<!-- Node20 -->
<g id="node20" class="node">
<title>Node20</title>
<g id="a_node20"><a xlink:href="_integer_8h.html" target="_top" xlink:title="The Integer specification and body provides a value object type for ints.">
<polygon fill="white" stroke="black" points="416,-285.5 416,-305.5 475,-305.5 475,-285.5 416,-285.5"/>
<text text-anchor="middle" x="445.5" y="-292.7" font-family="Helvetica,sans-Serif" font-size="11.00">Integer.h</text>
</a>
</g>
</g>
<!-- Node19&#45;&gt;Node20 -->
<g id="edge27" class="edge">
<title>Node19&#45;&gt;Node20</title>
<path fill="none" stroke="midnightblue" d="M344.48,-342.42C364.01,-333.54 393.96,-319.93 416.19,-309.82"/>
<polygon fill="midnightblue" stroke="midnightblue" points="417.83,-312.92 425.49,-305.6 414.94,-306.55 417.83,-312.92"/>
</g>
<!-- Node20&#45;&gt;Node11 -->
<g id="edge30" class="edge">
<title>Node20&#45;&gt;Node11</title>
<path fill="none" stroke="midnightblue" d="M415.96,-287.08C377.38,-277.39 309.66,-260.38 266.5,-249.55"/>
<polygon fill="midnightblue" stroke="midnightblue" points="267.17,-246.11 256.62,-247.06 265.47,-252.89 267.17,-246.11"/>
</g>
<!-- Node20&#45;&gt;Node12 -->
<g id="edge28" class="edge">
<title>Node20&#45;&gt;Node12</title>
<path fill="none" stroke="midnightblue" d="M451.92,-285.43C460.75,-271.73 474.18,-245.5 461.5,-228 437.63,-195.07 389.22,-185.54 356.32,-183.01"/>
<polygon fill="midnightblue" stroke="midnightblue" points="356.42,-179.51 346.23,-182.42 356.01,-186.5 356.42,-179.51"/>
</g>
<!-- Node21 -->
<g id="node21" class="node">
<title>Node21</title>
<g id="a_node21"><a xlink:title=" ">
<polygon fill="white" stroke="#bfbfbf" points="388.5,-228.5 388.5,-248.5 452.5,-248.5 452.5,-228.5 388.5,-228.5"/>
<text text-anchor="middle" x="420.5" y="-235.7" font-family="Helvetica,sans-Serif" font-size="11.00">stdexcept</text>
</a>
</g>
</g>
<!-- Node20&#45;&gt;Node21 -->
<g id="edge29" class="edge">
<title>Node20&#45;&gt;Node21</title>
<path fill="none" stroke="midnightblue" d="M441.37,-285.42C437.99,-277.98 433.1,-267.21 428.9,-257.97"/>
<polygon fill="midnightblue" stroke="midnightblue" points="432.04,-256.43 424.72,-248.78 425.67,-259.33 432.04,-256.43"/>
</g>
<!-- Node23 -->
<g id="node23" class="node">
<title>Node23</title>
<g id="a_node23"><a xlink:href="_generic_sequence_8h.html" target="_top" xlink:title="The GenericSequence specification and body defines a generic sequence type of values with zero&#45;based ...">
<polygon fill="white" stroke="black" points="440,-342.5 440,-362.5 553,-362.5 553,-342.5 440,-342.5"/>
<text text-anchor="middle" x="496.5" y="-349.7" font-family="Helvetica,sans-Serif" font-size="11.00">GenericSequence.h</text>
</a>
</g>
</g>
<!-- Node22&#45;&gt;Node23 -->
<g id="edge32" class="edge">
<title>Node22&#45;&gt;Node23</title>
<path fill="none" stroke="midnightblue" d="M480.64,-399.42C483.18,-392.06 486.85,-381.44 490.02,-372.27"/>
<polygon fill="midnightblue" stroke="midnightblue" points="493.34,-373.37 493.29,-362.78 486.72,-371.09 493.34,-373.37"/>
</g>
<!-- Node23&#45;&gt;Node7 -->
<g id="edge34" class="edge">
<title>Node23&#45;&gt;Node7</title>
<path fill="none" stroke="midnightblue" d="M513.11,-342.31C532.51,-330.28 560.62,-307.99 549.5,-285 496.57,-175.58 338.9,-140.65 262.26,-129.96"/>
<polygon fill="midnightblue" stroke="midnightblue" points="262.38,-126.45 252.01,-128.61 261.47,-133.39 262.38,-126.45"/>
</g>
<!-- Node23&#45;&gt;Node20 -->
<g id="edge35" class="edge">
<title>Node23&#45;&gt;Node20</title>
<path fill="none" stroke="midnightblue" d="M488.08,-342.42C480.74,-334.5 469.91,-322.82 461.01,-313.23"/>
<polygon fill="midnightblue" stroke="midnightblue" points="463.47,-310.73 454.1,-305.78 458.34,-315.49 463.47,-310.73"/>
</g>
<!-- Node24 -->
<g id="node24" class="node">
<title>Node24</title>
<g id="a_node24"><a xlink:title=" ">
<polygon fill="white" stroke="#bfbfbf" points="493,-285.5 493,-305.5 540,-305.5 540,-285.5 493,-285.5"/>
<text text-anchor="middle" x="516.5" y="-292.7" font-family="Helvetica,sans-Serif" font-size="11.00">vector</text>
</a>
</g>
</g>
<!-- Node23&#45;&gt;Node24 -->
<g id="edge33" class="edge">
<title>Node23&#45;&gt;Node24</title>
<path fill="none" stroke="midnightblue" d="M499.8,-342.42C502.48,-335.06 506.34,-324.44 509.67,-315.27"/>
<polygon fill="midnightblue" stroke="midnightblue" points="513,-316.37 513.13,-305.78 506.42,-313.98 513,-316.37"/>
</g>
<!-- Node25&#45;&gt;Node11 -->
<g id="edge38" class="edge">
<title>Node25&#45;&gt;Node11</title>
<path fill="none" stroke="midnightblue" d="M220.91,-513.47C211.84,-494.78 192.5,-450.23 192.5,-410.5 192.5,-410.5 192.5,-410.5 192.5,-351.5 192.5,-317.12 207.35,-279.26 217.42,-257.54"/>
<polygon fill="midnightblue" stroke="midnightblue" points="220.59,-259.04 221.77,-248.51 214.28,-256 220.59,-259.04"/>
</g>
<!-- Node26 -->
<g id="node26" class="node">
<title>Node26</title>
<g id="a_node26"><a xlink:title=" ">
<polygon fill="white" stroke="#bfbfbf" points="377.5,-456.5 377.5,-476.5 427.5,-476.5 427.5,-456.5 377.5,-456.5"/>
<text text-anchor="middle" x="402.5" y="-463.7" font-family="Helvetica,sans-Serif" font-size="11.00">cstring</text>
</a>
</g>
</g>
<!-- Node25&#45;&gt;Node26 -->
<g id="edge37" class="edge">
<title>Node25&#45;&gt;Node26</title>
<path fill="none" stroke="midnightblue" d="M254.73,-513.42C285.69,-503.8 334.58,-488.61 367.56,-478.36"/>
<polygon fill="midnightblue" stroke="midnightblue" points="368.74,-481.66 377.25,-475.35 366.66,-474.97 368.74,-481.66"/>
</g>
</g>
</svg>
