<?xml version="1.0" encoding="UTF-8" standalone="no"?>
<!DOCTYPE svg PUBLIC "-//W3C//DTD SVG 1.1//EN"
 "http://www.w3.org/Graphics/SVG/1.1/DTD/svg11.dtd">
<!-- Generated by graphviz version 2.47.1 (20210417.1919)
 -->
<!-- Title: AudioSampleFifoQueueVector.cpp Pages: 1 -->
<!--zoomable 656 -->
<svg id="main" version="1.1" xmlns="http://www.w3.org/2000/svg" xmlns:xlink="http://www.w3.org/1999/xlink" xml:space="preserve" onload="init(evt)">
<style type="text/css"><![CDATA[
.edge:hover path { stroke: red; }
.edge:hover polygon { stroke: red; fill: red; }
]]></style>
<script type="text/javascript"><![CDATA[
var edges = document.getElementsByTagName('g');
if (edges && edges.length) {
  for (var i=0;i<edges.length;i++) {
    if (edges[i].id.substr(0,4)=='edge') {
      edges[i].setAttribute('class','edge');
    }
  }
}
]]></script>
        <defs>
                <circle id="rim" cx="0" cy="0" r="7"/>
                <circle id="rim2" cx="0" cy="0" r="3.5"/>
                <g id="zoomPlus">
                        <use xlink:href="#rim" fill="#404040">
                                <set attributeName="fill" to="#808080" begin="zoomplus.mouseover" end="zoomplus.mouseout"/>
                        </use>
                        <path d="M-4,0h8M0,-4v8" fill="none" stroke="white" stroke-width="1.5" pointer-events="none"/>
                </g>
                <g id="zoomMin">
                        <use xlink:href="#rim" fill="#404040">
                                <set attributeName="fill" to="#808080" begin="zoomminus.mouseover" end="zoomminus.mouseout"/>
                        </use>
                        <path d="M-4,0h8" fill="none" stroke="white" stroke-width="1.5" pointer-events="none"/>
                </g>
                <g id="dirArrow">
                        <path fill="none" stroke="white" stroke-width="1.5" d="M0,-3.0v7 M-2.5,-0.5L0,-3.0L2.5,-0.5"/>
                </g>
               <g id="resetDef">
                       <use xlink:href="#rim2" fill="#404040">
                               <set attributeName="fill" to="#808080" begin="reset.mouseover" end="reset.mouseout"/>
                       </use>
               </g>
        </defs>

<script type="text/javascript">
var viewWidth = 779;
var viewHeight = 656;
var sectionId = 'dynsection-0';
</script>
<script xlink:href="svgpan.js"/>
<svg id="graph" class="graph">
<g id="viewport">
<title>AudioSampleFifoQueueVector.cpp</title>
<polygon fill="white" stroke="transparent" points="-4,4 -4,-652 774.5,-652 774.5,4 -4,4"/>
<!-- Node1 -->
<g id="node1" class="node">
<title>Node1</title>
<g id="a_node1"><a xlink:title="The AudioSampleFifoQueueVector body implements a list of fifo queues for audio samples (this is the f...">
<polygon fill="#bfbfbf" stroke="black" points="304.5,-627.5 304.5,-647.5 489.5,-647.5 489.5,-627.5 304.5,-627.5"/>
<text text-anchor="middle" x="397" y="-634.7" font-family="Helvetica,sans-Serif" font-size="11.00">AudioSampleFifoQueueVector.cpp</text>
</a>
</g>
</g>
<!-- Node2 -->
<g id="node2" class="node">
<title>Node2</title>
<g id="a_node2"><a xlink:href="_audio_sample_fifo_queue_vector_8h.html" target="_top" xlink:title="The AudioSampleFifoQueueVector specification defines a list of fifo queues for audio samples.">
<polygon fill="white" stroke="black" points="310.5,-570.5 310.5,-590.5 483.5,-590.5 483.5,-570.5 310.5,-570.5"/>
<text text-anchor="middle" x="397" y="-577.7" font-family="Helvetica,sans-Serif" font-size="11.00">AudioSampleFifoQueueVector.h</text>
</a>
</g>
</g>
<!-- Node1&#45;&gt;Node2 -->
<g id="edge1" class="edge">
<title>Node1&#45;&gt;Node2</title>
<path fill="none" stroke="midnightblue" d="M397,-627.42C397,-620.22 397,-609.9 397,-600.86"/>
<polygon fill="midnightblue" stroke="midnightblue" points="400.5,-600.78 397,-590.78 393.5,-600.78 400.5,-600.78"/>
</g>
<!-- Node3 -->
<g id="node3" class="node">
<title>Node3</title>
<g id="a_node3"><a xlink:href="_audio_sample_fifo_queue_8h.html" target="_top" xlink:title="The AudioSampleFifoQueue specification defines a fifo queue for audio samples with popping off access...">
<polygon fill="white" stroke="black" points="326.5,-513.5 326.5,-533.5 467.5,-533.5 467.5,-513.5 326.5,-513.5"/>
<text text-anchor="middle" x="397" y="-520.7" font-family="Helvetica,sans-Serif" font-size="11.00">AudioSampleFifoQueue.h</text>
</a>
</g>
</g>
<!-- Node2&#45;&gt;Node3 -->
<g id="edge2" class="edge">
<title>Node2&#45;&gt;Node3</title>
<path fill="none" stroke="midnightblue" d="M397,-570.42C397,-563.22 397,-552.9 397,-543.86"/>
<polygon fill="midnightblue" stroke="midnightblue" points="400.5,-543.78 397,-533.78 393.5,-543.78 400.5,-543.78"/>
</g>
<!-- Node32 -->
<g id="node32" class="node">
<title>Node32</title>
<g id="a_node32"><a xlink:href="_audio_sample_list_vector_8h.html" target="_top" xlink:title="The AudioSampleListVector specification defines the communication buffer structure for the block proc...">
<polygon fill="white" stroke="black" points="485.5,-513.5 485.5,-533.5 624.5,-533.5 624.5,-513.5 485.5,-513.5"/>
<text text-anchor="middle" x="555" y="-520.7" font-family="Helvetica,sans-Serif" font-size="11.00">AudioSampleListVector.h</text>
</a>
</g>
</g>
<!-- Node2&#45;&gt;Node32 -->
<g id="edge45" class="edge">
<title>Node2&#45;&gt;Node32</title>
<path fill="none" stroke="midnightblue" d="M423.09,-570.42C449.36,-561.27 490.06,-547.1 519.31,-536.92"/>
<polygon fill="midnightblue" stroke="midnightblue" points="520.84,-540.1 529.13,-533.5 518.54,-533.49 520.84,-540.1"/>
</g>
<!-- Node34 -->
<g id="node34" class="node">
<title>Node34</title>
<g id="a_node34"><a xlink:href="_audio_sample_fifo_queue_vector_8cpp-inc.html" target="_top" xlink:title="The AudioSampleFifoQueueVector body implements a list of fifo queues for audio samples (this is the e...">
<polygon fill="white" stroke="black" points="1.5,-456.5 1.5,-476.5 204.5,-476.5 204.5,-456.5 1.5,-456.5"/>
<text text-anchor="middle" x="103" y="-463.7" font-family="Helvetica,sans-Serif" font-size="11.00">AudioSampleFifoQueueVector.cpp&#45;inc</text>
</a>
</g>
</g>
<!-- Node2&#45;&gt;Node34 -->
<g id="edge48" class="edge">
<title>Node2&#45;&gt;Node34</title>
<path fill="none" stroke="midnightblue" d="M372.94,-570.33C320.59,-550.39 196.24,-503.02 136.36,-480.21"/>
<polygon fill="midnightblue" stroke="midnightblue" points="137.57,-476.92 126.98,-476.63 135.08,-483.47 137.57,-476.92"/>
</g>
<!-- Node4 -->
<g id="node4" class="node">
<title>Node4</title>
<g id="a_node4"><a xlink:href="_natural_8h.html" target="_top" xlink:title="The Natural specification and body provides a value object type for naturals (positive integers with ...">
<polygon fill="white" stroke="black" points="386,-114.5 386,-134.5 446,-134.5 446,-114.5 386,-114.5"/>
<text text-anchor="middle" x="416" y="-121.7" font-family="Helvetica,sans-Serif" font-size="11.00">Natural.h</text>
</a>
</g>
</g>
<!-- Node3&#45;&gt;Node4 -->
<g id="edge3" class="edge">
<title>Node3&#45;&gt;Node4</title>
<path fill="none" stroke="midnightblue" d="M398.15,-513.45C399.28,-504.28 400.97,-489.67 402,-477 412.27,-350.57 413.67,-318.8 417,-192 417.42,-176.11 417.1,-158.08 416.71,-144.8"/>
<polygon fill="midnightblue" stroke="midnightblue" points="420.2,-144.42 416.37,-134.54 413.2,-144.65 420.2,-144.42"/>
</g>
<!-- Node12 -->
<g id="node12" class="node">
<title>Node12</title>
<g id="a_node12"><a xlink:href="_audio_sample_list_8h.html" target="_top" xlink:title="The AudioSampleList specification defines lists of audio samples with zero&#45;based arbitrary indexed ac...">
<polygon fill="white" stroke="black" points="476.5,-456.5 476.5,-476.5 583.5,-476.5 583.5,-456.5 476.5,-456.5"/>
<text text-anchor="middle" x="530" y="-463.7" font-family="Helvetica,sans-Serif" font-size="11.00">AudioSampleList.h</text>
</a>
</g>
</g>
<!-- Node3&#45;&gt;Node12 -->
<g id="edge11" class="edge">
<title>Node3&#45;&gt;Node12</title>
<path fill="none" stroke="midnightblue" d="M418.96,-513.42C440.72,-504.42 474.24,-490.56 498.76,-480.42"/>
<polygon fill="midnightblue" stroke="midnightblue" points="500.1,-483.65 508.01,-476.6 497.43,-477.18 500.1,-483.65"/>
</g>
<!-- Node21 -->
<g id="node21" class="node">
<title>Node21</title>
<g id="a_node21"><a xlink:href="_audio_sample_fifo_queue_8cpp-inc.html" target="_top" xlink:title="The AudioSampleFifoQueue body implements a fifo queue for audio samples with popping off access to th...">
<polygon fill="white" stroke="black" points="222.5,-456.5 222.5,-476.5 393.5,-476.5 393.5,-456.5 222.5,-456.5"/>
<text text-anchor="middle" x="308" y="-463.7" font-family="Helvetica,sans-Serif" font-size="11.00">AudioSampleFifoQueue.cpp&#45;inc</text>
</a>
</g>
</g>
<!-- Node3&#45;&gt;Node21 -->
<g id="edge24" class="edge">
<title>Node3&#45;&gt;Node21</title>
<path fill="none" stroke="midnightblue" d="M382.3,-513.42C368.52,-504.9 347.67,-492.02 331.57,-482.06"/>
<polygon fill="midnightblue" stroke="midnightblue" points="333.07,-478.88 322.72,-476.6 329.39,-484.83 333.07,-478.88"/>
</g>
<!-- Node5 -->
<g id="node5" class="node">
<title>Node5</title>
<g id="a_node5"><a xlink:title=" ">
<polygon fill="white" stroke="#bfbfbf" points="511.5,-57.5 511.5,-77.5 558.5,-77.5 558.5,-57.5 511.5,-57.5"/>
<text text-anchor="middle" x="535" y="-64.7" font-family="Helvetica,sans-Serif" font-size="11.00">cmath</text>
</a>
</g>
</g>
<!-- Node4&#45;&gt;Node5 -->
<g id="edge4" class="edge">
<title>Node4&#45;&gt;Node5</title>
<path fill="none" stroke="midnightblue" d="M435.65,-114.42C454.86,-105.54 484.32,-91.93 506.17,-81.82"/>
<polygon fill="midnightblue" stroke="midnightblue" points="507.71,-84.97 515.32,-77.6 504.77,-78.61 507.71,-84.97"/>
</g>
<!-- Node6 -->
<g id="node6" class="node">
<title>Node6</title>
<g id="a_node6"><a xlink:href="_assertion_8h.html" target="_top" xlink:title="The Assertion specification defines macros for pre&#45; and postconditions in functions or methods.">
<polygon fill="white" stroke="black" points="2.5,-57.5 2.5,-77.5 73.5,-77.5 73.5,-57.5 2.5,-57.5"/>
<text text-anchor="middle" x="38" y="-64.7" font-family="Helvetica,sans-Serif" font-size="11.00">Assertion.h</text>
</a>
</g>
</g>
<!-- Node4&#45;&gt;Node6 -->
<g id="edge5" class="edge">
<title>Node4&#45;&gt;Node6</title>
<path fill="none" stroke="midnightblue" d="M385.71,-119.09C319.56,-109.47 161.9,-86.53 83.66,-75.14"/>
<polygon fill="midnightblue" stroke="midnightblue" points="84.01,-71.66 73.61,-73.68 83,-78.59 84.01,-71.66"/>
</g>
<!-- Node8 -->
<g id="node8" class="node">
<title>Node8</title>
<g id="a_node8"><a xlink:title=" ">
<polygon fill="white" stroke="#bfbfbf" points="364.5,-57.5 364.5,-77.5 467.5,-77.5 467.5,-57.5 364.5,-57.5"/>
<text text-anchor="middle" x="416" y="-64.7" font-family="Helvetica,sans-Serif" font-size="11.00">GenericNumber.h</text>
</a>
</g>
</g>
<!-- Node4&#45;&gt;Node8 -->
<g id="edge7" class="edge">
<title>Node4&#45;&gt;Node8</title>
<path fill="none" stroke="midnightblue" d="M416,-114.42C416,-107.22 416,-96.9 416,-87.86"/>
<polygon fill="midnightblue" stroke="midnightblue" points="419.5,-87.78 416,-77.78 412.5,-87.78 419.5,-87.78"/>
</g>
<!-- Node9 -->
<g id="node9" class="node">
<title>Node9</title>
<g id="a_node9"><a xlink:href="_my_string_8h.html" target="_top" xlink:title="The String specification defines a standard string type.">
<polygon fill="white" stroke="black" points="182,-57.5 182,-77.5 250,-77.5 250,-57.5 182,-57.5"/>
<text text-anchor="middle" x="216" y="-64.7" font-family="Helvetica,sans-Serif" font-size="11.00">MyString.h</text>
</a>
</g>
</g>
<!-- Node4&#45;&gt;Node9 -->
<g id="edge8" class="edge">
<title>Node4&#45;&gt;Node9</title>
<path fill="none" stroke="midnightblue" d="M385.62,-115.15C351.82,-105.85 296.94,-90.76 258.79,-80.27"/>
<polygon fill="midnightblue" stroke="midnightblue" points="259.57,-76.85 249,-77.57 257.71,-83.6 259.57,-76.85"/>
</g>
<!-- Node7 -->
<g id="node7" class="node">
<title>Node7</title>
<g id="a_node7"><a xlink:title=" ">
<polygon fill="white" stroke="#bfbfbf" points="11.5,-0.5 11.5,-20.5 64.5,-20.5 64.5,-0.5 11.5,-0.5"/>
<text text-anchor="middle" x="38" y="-7.7" font-family="Helvetica,sans-Serif" font-size="11.00">cassert</text>
</a>
</g>
</g>
<!-- Node6&#45;&gt;Node7 -->
<g id="edge6" class="edge">
<title>Node6&#45;&gt;Node7</title>
<path fill="none" stroke="midnightblue" d="M38,-57.42C38,-50.22 38,-39.9 38,-30.86"/>
<polygon fill="midnightblue" stroke="midnightblue" points="41.5,-30.78 38,-20.78 34.5,-30.78 41.5,-30.78"/>
</g>
<!-- Node10 -->
<g id="node10" class="node">
<title>Node10</title>
<g id="a_node10"><a xlink:title=" ">
<polygon fill="white" stroke="#bfbfbf" points="240,-0.5 240,-20.5 284,-20.5 284,-0.5 240,-0.5"/>
<text text-anchor="middle" x="262" y="-7.7" font-family="Helvetica,sans-Serif" font-size="11.00">string</text>
</a>
</g>
</g>
<!-- Node9&#45;&gt;Node10 -->
<g id="edge9" class="edge">
<title>Node9&#45;&gt;Node10</title>
<path fill="none" stroke="midnightblue" d="M223.6,-57.42C230.15,-49.58 239.79,-38.06 247.77,-28.51"/>
<polygon fill="midnightblue" stroke="midnightblue" points="250.51,-30.7 254.24,-20.78 245.14,-26.2 250.51,-30.7"/>
</g>
<!-- Node11 -->
<g id="node11" class="node">
<title>Node11</title>
<g id="a_node11"><a xlink:href="_global_macros_8h.html" target="_top" xlink:title="The GlobalMacros specification defines simple macros (e.g. for parameter modes).">
<polygon fill="white" stroke="black" points="130,-0.5 130,-20.5 222,-20.5 222,-0.5 130,-0.5"/>
<text text-anchor="middle" x="176" y="-7.7" font-family="Helvetica,sans-Serif" font-size="11.00">GlobalMacros.h</text>
</a>
</g>
</g>
<!-- Node9&#45;&gt;Node11 -->
<g id="edge10" class="edge">
<title>Node9&#45;&gt;Node11</title>
<path fill="none" stroke="midnightblue" d="M209.39,-57.42C203.81,-49.74 195.65,-38.52 188.8,-29.09"/>
<polygon fill="midnightblue" stroke="midnightblue" points="191.46,-26.81 182.75,-20.78 185.8,-30.93 191.46,-26.81"/>
</g>
<!-- Node13 -->
<g id="node13" class="node">
<title>Node13</title>
<g id="a_node13"><a xlink:title=" ">
<polygon fill="white" stroke="#bfbfbf" points="283.5,-228.5 283.5,-248.5 364.5,-248.5 364.5,-228.5 283.5,-228.5"/>
<text text-anchor="middle" x="324" y="-235.7" font-family="Helvetica,sans-Serif" font-size="11.00">GenericList.h</text>
</a>
</g>
</g>
<!-- Node12&#45;&gt;Node13 -->
<g id="edge12" class="edge">
<title>Node12&#45;&gt;Node13</title>
<path fill="none" stroke="midnightblue" d="M519.07,-456.48C508.48,-447.58 492.13,-433.38 479,-420 423.2,-363.14 363.5,-289.5 337.45,-256.64"/>
<polygon fill="midnightblue" stroke="midnightblue" points="339.97,-254.19 331.03,-248.5 334.47,-258.52 339.97,-254.19"/>
</g>
<!-- Node14 -->
<g id="node14" class="node">
<title>Node14</title>
<g id="a_node14"><a xlink:href="_audio_sample_8h.html" target="_top" xlink:title="The AudioSample specification and body provides the definition of the audio sample (a real value).">
<polygon fill="white" stroke="black" points="644,-399.5 644,-419.5 734,-419.5 734,-399.5 644,-399.5"/>
<text text-anchor="middle" x="689" y="-406.7" font-family="Helvetica,sans-Serif" font-size="11.00">AudioSample.h</text>
</a>
</g>
</g>
<!-- Node12&#45;&gt;Node14 -->
<g id="edge13" class="edge">
<title>Node12&#45;&gt;Node14</title>
<path fill="none" stroke="midnightblue" d="M556.26,-456.42C582.8,-447.23 624.01,-432.98 653.47,-422.79"/>
<polygon fill="midnightblue" stroke="midnightblue" points="654.66,-426.08 662.97,-419.5 652.37,-419.47 654.66,-426.08"/>
</g>
<!-- Node18 -->
<g id="node18" class="node">
<title>Node18</title>
<g id="a_node18"><a xlink:href="_audio_sample_list_8cpp-inc.html" target="_top" xlink:title="The AudioSampleList body implements a simple list of audio samples (this is the effective code includ...">
<polygon fill="white" stroke="black" points="488.5,-399.5 488.5,-419.5 625.5,-419.5 625.5,-399.5 488.5,-399.5"/>
<text text-anchor="middle" x="557" y="-406.7" font-family="Helvetica,sans-Serif" font-size="11.00">AudioSampleList.cpp&#45;inc</text>
</a>
</g>
</g>
<!-- Node12&#45;&gt;Node18 -->
<g id="edge20" class="edge">
<title>Node12&#45;&gt;Node18</title>
<path fill="none" stroke="midnightblue" d="M534.46,-456.42C538.11,-448.98 543.4,-438.21 547.93,-428.97"/>
<polygon fill="midnightblue" stroke="midnightblue" points="551.18,-430.3 552.44,-419.78 544.9,-427.21 551.18,-430.3"/>
</g>
<!-- Node15 -->
<g id="node15" class="node">
<title>Node15</title>
<g id="a_node15"><a xlink:href="_real_8h.html" target="_top" xlink:title="The Real specification defines a value object type for real values.">
<polygon fill="white" stroke="black" points="560,-228.5 560,-248.5 608,-248.5 608,-228.5 560,-228.5"/>
<text text-anchor="middle" x="584" y="-235.7" font-family="Helvetica,sans-Serif" font-size="11.00">Real.h</text>
</a>
</g>
</g>
<!-- Node14&#45;&gt;Node15 -->
<g id="edge14" class="edge">
<title>Node14&#45;&gt;Node15</title>
<path fill="none" stroke="midnightblue" d="M688.77,-399.48C687.8,-377.68 682.69,-321.29 656,-285 645.87,-271.22 630.19,-260.61 616.05,-253.11"/>
<polygon fill="midnightblue" stroke="midnightblue" points="617.57,-249.95 607.06,-248.63 614.45,-256.22 617.57,-249.95"/>
</g>
<!-- Node15&#45;&gt;Node5 -->
<g id="edge15" class="edge">
<title>Node15&#45;&gt;Node5</title>
<path fill="none" stroke="midnightblue" d="M576.56,-228.35C569.83,-219.56 560.2,-205.66 555,-192 541.58,-156.78 537.17,-112.57 535.71,-87.73"/>
<polygon fill="midnightblue" stroke="midnightblue" points="539.2,-87.32 535.22,-77.5 532.2,-87.66 539.2,-87.32"/>
</g>
<!-- Node16 -->
<g id="node16" class="node">
<title>Node16</title>
<g id="a_node16"><a xlink:href="_integer_8h.html" target="_top" xlink:title="The Integer specification and body provides a value object type for ints.">
<polygon fill="white" stroke="black" points="563.5,-171.5 563.5,-191.5 622.5,-191.5 622.5,-171.5 563.5,-171.5"/>
<text text-anchor="middle" x="593" y="-178.7" font-family="Helvetica,sans-Serif" font-size="11.00">Integer.h</text>
</a>
</g>
</g>
<!-- Node15&#45;&gt;Node16 -->
<g id="edge16" class="edge">
<title>Node15&#45;&gt;Node16</title>
<path fill="none" stroke="midnightblue" d="M585.49,-228.42C586.66,-221.22 588.35,-210.9 589.83,-201.86"/>
<polygon fill="midnightblue" stroke="midnightblue" points="593.32,-202.21 591.48,-191.78 586.41,-201.08 593.32,-202.21"/>
</g>
<!-- Node16&#45;&gt;Node4 -->
<g id="edge19" class="edge">
<title>Node16&#45;&gt;Node4</title>
<path fill="none" stroke="midnightblue" d="M563.77,-171.42C533.96,-162.15 487.55,-147.73 454.7,-137.53"/>
<polygon fill="midnightblue" stroke="midnightblue" points="455.57,-134.13 444.98,-134.5 453.49,-140.81 455.57,-134.13"/>
</g>
<!-- Node16&#45;&gt;Node5 -->
<g id="edge17" class="edge">
<title>Node16&#45;&gt;Node5</title>
<path fill="none" stroke="midnightblue" d="M588.25,-171.33C578.69,-152.88 556.97,-110.92 544.42,-86.69"/>
<polygon fill="midnightblue" stroke="midnightblue" points="547.52,-85.06 539.81,-77.79 541.3,-88.28 547.52,-85.06"/>
</g>
<!-- Node17 -->
<g id="node17" class="node">
<title>Node17</title>
<g id="a_node17"><a xlink:title=" ">
<polygon fill="white" stroke="#bfbfbf" points="601,-114.5 601,-134.5 665,-134.5 665,-114.5 601,-114.5"/>
<text text-anchor="middle" x="633" y="-121.7" font-family="Helvetica,sans-Serif" font-size="11.00">stdexcept</text>
</a>
</g>
</g>
<!-- Node16&#45;&gt;Node17 -->
<g id="edge18" class="edge">
<title>Node16&#45;&gt;Node17</title>
<path fill="none" stroke="midnightblue" d="M599.61,-171.42C605.19,-163.74 613.35,-152.52 620.2,-143.09"/>
<polygon fill="midnightblue" stroke="midnightblue" points="623.2,-144.93 626.25,-134.78 617.54,-140.81 623.2,-144.93"/>
</g>
<!-- Node19 -->
<g id="node19" class="node">
<title>Node19</title>
<g id="a_node19"><a xlink:href="_my_array_8h.html" target="_top" xlink:title="The MyArray specification and body defines a generic array type for stack allocated arrays represente...">
<polygon fill="white" stroke="black" points="489.5,-342.5 489.5,-362.5 554.5,-362.5 554.5,-342.5 489.5,-342.5"/>
<text text-anchor="middle" x="522" y="-349.7" font-family="Helvetica,sans-Serif" font-size="11.00">MyArray.h</text>
</a>
</g>
</g>
<!-- Node18&#45;&gt;Node19 -->
<g id="edge21" class="edge">
<title>Node18&#45;&gt;Node19</title>
<path fill="none" stroke="midnightblue" d="M551.22,-399.42C546.39,-391.82 539.34,-380.75 533.38,-371.39"/>
<polygon fill="midnightblue" stroke="midnightblue" points="536.23,-369.34 527.91,-362.78 530.32,-373.1 536.23,-369.34"/>
</g>
<!-- Node19&#45;&gt;Node4 -->
<g id="edge23" class="edge">
<title>Node19&#45;&gt;Node4</title>
<path fill="none" stroke="midnightblue" d="M513,-342.5C491,-319.76 435.03,-257.18 417,-192 412.72,-176.52 412.79,-158.24 413.76,-144.76"/>
<polygon fill="midnightblue" stroke="midnightblue" points="417.25,-145.03 414.7,-134.74 410.28,-144.37 417.25,-145.03"/>
</g>
<!-- Node20 -->
<g id="node20" class="node">
<title>Node20</title>
<g id="a_node20"><a xlink:title=" ">
<polygon fill="white" stroke="#bfbfbf" points="597,-285.5 597,-305.5 647,-305.5 647,-285.5 597,-285.5"/>
<text text-anchor="middle" x="622" y="-292.7" font-family="Helvetica,sans-Serif" font-size="11.00">cstring</text>
</a>
</g>
</g>
<!-- Node19&#45;&gt;Node20 -->
<g id="edge22" class="edge">
<title>Node19&#45;&gt;Node20</title>
<path fill="none" stroke="midnightblue" d="M538.51,-342.42C554.29,-333.74 578.3,-320.53 596.53,-310.51"/>
<polygon fill="midnightblue" stroke="midnightblue" points="598.39,-313.48 605.46,-305.6 595.01,-307.35 598.39,-313.48"/>
</g>
<!-- Node21&#45;&gt;Node6 -->
<g id="edge25" class="edge">
<title>Node21&#45;&gt;Node6</title>
<path fill="none" stroke="midnightblue" d="M262.81,-456.49C185.95,-439.85 38,-401.58 38,-353.5 38,-353.5 38,-353.5 38,-180.5 38,-147.88 38,-109.92 38,-87.62"/>
<polygon fill="midnightblue" stroke="midnightblue" points="41.5,-87.5 38,-77.5 34.5,-87.5 41.5,-87.5"/>
</g>
<!-- Node21&#45;&gt;Node19 -->
<g id="edge44" class="edge">
<title>Node21&#45;&gt;Node19</title>
<path fill="none" stroke="midnightblue" d="M325.51,-456.33C362.99,-436.72 451.16,-390.57 495.52,-367.36"/>
<polygon fill="midnightblue" stroke="midnightblue" points="497.31,-370.37 504.55,-362.63 494.06,-364.17 497.31,-370.37"/>
</g>
<!-- Node22 -->
<g id="node22" class="node">
<title>Node22</title>
<g id="a_node22"><a xlink:href="_logging_8h.html" target="_top" xlink:title="The Logging specification defines macros for entry&#45;, exit&#45; and intermediate logging of functions into...">
<polygon fill="white" stroke="black" points="181,-399.5 181,-419.5 245,-419.5 245,-399.5 181,-399.5"/>
<text text-anchor="middle" x="213" y="-406.7" font-family="Helvetica,sans-Serif" font-size="11.00">Logging.h</text>
</a>
</g>
</g>
<!-- Node21&#45;&gt;Node22 -->
<g id="edge26" class="edge">
<title>Node21&#45;&gt;Node22</title>
<path fill="none" stroke="midnightblue" d="M292.31,-456.42C277.46,-447.82 254.93,-434.78 237.67,-424.78"/>
<polygon fill="midnightblue" stroke="midnightblue" points="239.12,-421.58 228.71,-419.6 235.61,-427.64 239.12,-421.58"/>
</g>
<!-- Node23 -->
<g id="node23" class="node">
<title>Node23</title>
<g id="a_node23"><a xlink:title=" ">
<polygon fill="white" stroke="#bfbfbf" points="186.5,-342.5 186.5,-362.5 239.5,-362.5 239.5,-342.5 186.5,-342.5"/>
<text text-anchor="middle" x="213" y="-349.7" font-family="Helvetica,sans-Serif" font-size="11.00">cstdarg</text>
</a>
</g>
</g>
<!-- Node22&#45;&gt;Node23 -->
<g id="edge27" class="edge">
<title>Node22&#45;&gt;Node23</title>
<path fill="none" stroke="midnightblue" d="M213,-399.42C213,-392.22 213,-381.9 213,-372.86"/>
<polygon fill="midnightblue" stroke="midnightblue" points="216.5,-372.78 213,-362.78 209.5,-372.78 216.5,-372.78"/>
</g>
<!-- Node24 -->
<g id="node24" class="node">
<title>Node24</title>
<g id="a_node24"><a xlink:href="_logging_support_8h.html" target="_top" xlink:title="The LoggingSupport specification defines a class for simple entry/exit logging to a file; this loggin...">
<polygon fill="white" stroke="black" points="66,-342.5 66,-362.5 168,-362.5 168,-342.5 66,-342.5"/>
<text text-anchor="middle" x="117" y="-349.7" font-family="Helvetica,sans-Serif" font-size="11.00">LoggingSupport.h</text>
</a>
</g>
</g>
<!-- Node22&#45;&gt;Node24 -->
<g id="edge28" class="edge">
<title>Node22&#45;&gt;Node24</title>
<path fill="none" stroke="midnightblue" d="M197.15,-399.42C182.14,-390.82 159.37,-377.78 141.93,-367.78"/>
<polygon fill="midnightblue" stroke="midnightblue" points="143.29,-364.53 132.88,-362.6 139.81,-370.6 143.29,-364.53"/>
</g>
<!-- Node26 -->
<g id="node26" class="node">
<title>Node26</title>
<g id="a_node26"><a xlink:href="_string_util_8h.html" target="_top" xlink:title="The StringUtil specification defines several string routines not included in the standard C++ library...">
<polygon fill="white" stroke="black" points="257.5,-342.5 257.5,-362.5 326.5,-362.5 326.5,-342.5 257.5,-342.5"/>
<text text-anchor="middle" x="292" y="-349.7" font-family="Helvetica,sans-Serif" font-size="11.00">StringUtil.h</text>
</a>
</g>
</g>
<!-- Node22&#45;&gt;Node26 -->
<g id="edge32" class="edge">
<title>Node22&#45;&gt;Node26</title>
<path fill="none" stroke="midnightblue" d="M226.05,-399.42C238.17,-390.98 256.44,-378.26 270.68,-368.34"/>
<polygon fill="midnightblue" stroke="midnightblue" points="272.73,-371.18 278.94,-362.6 268.73,-365.44 272.73,-371.18"/>
</g>
<!-- Node24&#45;&gt;Node4 -->
<g id="edge31" class="edge">
<title>Node24&#45;&gt;Node4</title>
<path fill="none" stroke="midnightblue" d="M121.62,-342.46C126.29,-333.29 133.7,-318.69 140,-306 157.14,-271.46 150.1,-254.62 178,-228 234.75,-173.84 324.61,-145.9 376.15,-133.6"/>
<polygon fill="midnightblue" stroke="midnightblue" points="376.97,-137 385.93,-131.34 375.39,-130.18 376.97,-137"/>
</g>
<!-- Node25 -->
<g id="node25" class="node">
<title>Node25</title>
<g id="a_node25"><a xlink:href="_boolean_8h.html" target="_top" xlink:title="The Boolean specification and body provides a value object type for boolean values.">
<polygon fill="white" stroke="black" points="66.5,-285.5 66.5,-305.5 131.5,-305.5 131.5,-285.5 66.5,-285.5"/>
<text text-anchor="middle" x="99" y="-292.7" font-family="Helvetica,sans-Serif" font-size="11.00">Boolean.h</text>
</a>
</g>
</g>
<!-- Node24&#45;&gt;Node25 -->
<g id="edge29" class="edge">
<title>Node24&#45;&gt;Node25</title>
<path fill="none" stroke="midnightblue" d="M114.03,-342.42C111.64,-335.14 108.22,-324.67 105.24,-315.57"/>
<polygon fill="midnightblue" stroke="midnightblue" points="108.47,-314.19 102.04,-305.78 101.82,-316.37 108.47,-314.19"/>
</g>
<!-- Node25&#45;&gt;Node9 -->
<g id="edge30" class="edge">
<title>Node25&#45;&gt;Node9</title>
<path fill="none" stroke="midnightblue" d="M101.51,-285.49C107.5,-264.65 123.72,-211.77 145,-171 161.68,-139.05 186.7,-105.3 202.15,-85.61"/>
<polygon fill="midnightblue" stroke="midnightblue" points="205.03,-87.61 208.51,-77.61 199.55,-83.26 205.03,-87.61"/>
</g>
<!-- Node26&#45;&gt;Node25 -->
<g id="edge33" class="edge">
<title>Node26&#45;&gt;Node25</title>
<path fill="none" stroke="midnightblue" d="M260.13,-342.42C227.35,-333.08 176.14,-318.48 140.28,-308.26"/>
<polygon fill="midnightblue" stroke="midnightblue" points="141.17,-304.88 130.6,-305.5 139.25,-311.61 141.17,-304.88"/>
</g>
<!-- Node27 -->
<g id="node27" class="node">
<title>Node27</title>
<g id="a_node27"><a xlink:href="_character_8h.html" target="_top" xlink:title="The Character specification and body provides a value object type for character values.">
<polygon fill="white" stroke="black" points="459,-228.5 459,-248.5 533,-248.5 533,-228.5 459,-228.5"/>
<text text-anchor="middle" x="496" y="-235.7" font-family="Helvetica,sans-Serif" font-size="11.00">Character.h</text>
</a>
</g>
</g>
<!-- Node26&#45;&gt;Node27 -->
<g id="edge34" class="edge">
<title>Node26&#45;&gt;Node27</title>
<path fill="none" stroke="midnightblue" d="M308.69,-342.33C344.35,-322.76 428.12,-276.77 470.5,-253.5"/>
<polygon fill="midnightblue" stroke="midnightblue" points="472.28,-256.52 479.36,-248.63 468.91,-250.38 472.28,-256.52"/>
</g>
<!-- Node29 -->
<g id="node29" class="node">
<title>Node29</title>
<g id="a_node29"><a xlink:href="_percentage_8h.html" target="_top" xlink:title="The Percentage specification and body provides a simple percentage type.">
<polygon fill="white" stroke="black" points="497,-285.5 497,-305.5 579,-305.5 579,-285.5 497,-285.5"/>
<text text-anchor="middle" x="538" y="-292.7" font-family="Helvetica,sans-Serif" font-size="11.00">Percentage.h</text>
</a>
</g>
</g>
<!-- Node26&#45;&gt;Node29 -->
<g id="edge39" class="edge">
<title>Node26&#45;&gt;Node29</title>
<path fill="none" stroke="midnightblue" d="M326.72,-343.74C368.76,-334.34 439.88,-318.44 487.87,-307.71"/>
<polygon fill="midnightblue" stroke="midnightblue" points="488.74,-311.1 497.74,-305.5 487.21,-304.27 488.74,-311.1"/>
</g>
<!-- Node30 -->
<g id="node30" class="node">
<title>Node30</title>
<g id="a_node30"><a xlink:href="_string_list_8h.html" target="_top" xlink:title="The StringList specification defines lists of string values with zero&#45;based arbitrary indexed access ...">
<polygon fill="white" stroke="black" points="255.5,-285.5 255.5,-305.5 326.5,-305.5 326.5,-285.5 255.5,-285.5"/>
<text text-anchor="middle" x="291" y="-292.7" font-family="Helvetica,sans-Serif" font-size="11.00">StringList.h</text>
</a>
</g>
</g>
<!-- Node26&#45;&gt;Node30 -->
<g id="edge41" class="edge">
<title>Node26&#45;&gt;Node30</title>
<path fill="none" stroke="midnightblue" d="M291.83,-342.42C291.7,-335.22 291.52,-324.9 291.35,-315.86"/>
<polygon fill="midnightblue" stroke="midnightblue" points="294.85,-315.71 291.17,-305.78 287.85,-315.84 294.85,-315.71"/>
</g>
<!-- Node27&#45;&gt;Node5 -->
<g id="edge35" class="edge">
<title>Node27&#45;&gt;Node5</title>
<path fill="none" stroke="midnightblue" d="M533.18,-231.43C562.24,-225.27 602.51,-213.47 632,-192 657.44,-173.48 664.18,-164.89 674,-135 688.99,-89.38 614.61,-75.04 568.82,-70.54"/>
<polygon fill="midnightblue" stroke="midnightblue" points="568.97,-67.04 558.7,-69.66 568.36,-74.02 568.97,-67.04"/>
</g>
<!-- Node28 -->
<g id="node28" class="node">
<title>Node28</title>
<g id="a_node28"><a xlink:href="_byte_8h.html" target="_top" xlink:title="The Byte specification and body provides a value object type for byte values.">
<polygon fill="white" stroke="black" points="459.5,-171.5 459.5,-191.5 506.5,-191.5 506.5,-171.5 459.5,-171.5"/>
<text text-anchor="middle" x="483" y="-178.7" font-family="Helvetica,sans-Serif" font-size="11.00">Byte.h</text>
</a>
</g>
</g>
<!-- Node27&#45;&gt;Node28 -->
<g id="edge36" class="edge">
<title>Node27&#45;&gt;Node28</title>
<path fill="none" stroke="midnightblue" d="M493.85,-228.42C492.13,-221.14 489.66,-210.67 487.51,-201.57"/>
<polygon fill="midnightblue" stroke="midnightblue" points="490.9,-200.71 485.19,-191.78 484.09,-202.32 490.9,-200.71"/>
</g>
<!-- Node28&#45;&gt;Node4 -->
<g id="edge38" class="edge">
<title>Node28&#45;&gt;Node4</title>
<path fill="none" stroke="midnightblue" d="M471.94,-171.42C462.01,-163.27 447.21,-151.12 435.33,-141.37"/>
<polygon fill="midnightblue" stroke="midnightblue" points="437.25,-138.42 427.3,-134.78 432.81,-143.83 437.25,-138.42"/>
</g>
<!-- Node28&#45;&gt;Node5 -->
<g id="edge37" class="edge">
<title>Node28&#45;&gt;Node5</title>
<path fill="none" stroke="midnightblue" d="M487.26,-171.33C495.79,-152.96 515.13,-111.29 526.4,-87.01"/>
<polygon fill="midnightblue" stroke="midnightblue" points="529.65,-88.34 530.69,-77.79 523.3,-85.39 529.65,-88.34"/>
</g>
<!-- Node29&#45;&gt;Node15 -->
<g id="edge40" class="edge">
<title>Node29&#45;&gt;Node15</title>
<path fill="none" stroke="midnightblue" d="M545.6,-285.42C552.15,-277.58 561.79,-266.06 569.77,-256.51"/>
<polygon fill="midnightblue" stroke="midnightblue" points="572.51,-258.7 576.24,-248.78 567.14,-254.2 572.51,-258.7"/>
</g>
<!-- Node30&#45;&gt;Node13 -->
<g id="edge43" class="edge">
<title>Node30&#45;&gt;Node13</title>
<path fill="none" stroke="midnightblue" d="M296.45,-285.42C301.01,-277.82 307.65,-266.75 313.27,-257.39"/>
<polygon fill="midnightblue" stroke="midnightblue" points="316.29,-259.16 318.43,-248.78 310.29,-255.55 316.29,-259.16"/>
</g>
<!-- Node31 -->
<g id="node31" class="node">
<title>Node31</title>
<g id="a_node31"><a xlink:title=" ">
<polygon fill="white" stroke="#bfbfbf" points="187,-228.5 187,-248.5 265,-248.5 265,-228.5 187,-228.5"/>
<text text-anchor="middle" x="226" y="-235.7" font-family="Helvetica,sans-Serif" font-size="11.00">initializer_list</text>
</a>
</g>
</g>
<!-- Node30&#45;&gt;Node31 -->
<g id="edge42" class="edge">
<title>Node30&#45;&gt;Node31</title>
<path fill="none" stroke="midnightblue" d="M280.27,-285.42C270.63,-277.27 256.28,-265.12 244.75,-255.37"/>
<polygon fill="midnightblue" stroke="midnightblue" points="246.86,-252.57 236.97,-248.78 242.34,-257.91 246.86,-252.57"/>
</g>
<!-- Node32&#45;&gt;Node12 -->
<g id="edge46" class="edge">
<title>Node32&#45;&gt;Node12</title>
<path fill="none" stroke="midnightblue" d="M550.87,-513.42C547.49,-505.98 542.6,-495.21 538.4,-485.97"/>
<polygon fill="midnightblue" stroke="midnightblue" points="541.54,-484.43 534.22,-476.78 535.17,-487.33 541.54,-484.43"/>
</g>
<!-- Node33 -->
<g id="node33" class="node">
<title>Node33</title>
<g id="a_node33"><a xlink:href="_audio_sample_list_vector_8cpp-inc.html" target="_top" xlink:title="The AudioSampleListVector body implements the communication buffer structure for the block processing...">
<polygon fill="white" stroke="black" points="601.5,-456.5 601.5,-476.5 770.5,-476.5 770.5,-456.5 601.5,-456.5"/>
<text text-anchor="middle" x="686" y="-463.7" font-family="Helvetica,sans-Serif" font-size="11.00">AudioSampleListVector.cpp&#45;inc</text>
</a>
</g>
</g>
<!-- Node32&#45;&gt;Node33 -->
<g id="edge47" class="edge">
<title>Node32&#45;&gt;Node33</title>
<path fill="none" stroke="midnightblue" d="M576.63,-513.42C597.96,-504.46 630.79,-490.68 654.91,-480.55"/>
<polygon fill="midnightblue" stroke="midnightblue" points="656.47,-483.69 664.34,-476.6 653.76,-477.24 656.47,-483.69"/>
</g>
<!-- Node34&#45;&gt;Node6 -->
<g id="edge49" class="edge">
<title>Node34&#45;&gt;Node6</title>
<path fill="none" stroke="midnightblue" d="M77.8,-456.4C60.52,-449 38.23,-436.99 24,-420 3.82,-395.91 0,-384.92 0,-353.5 0,-353.5 0,-353.5 0,-180.5 0,-145.93 16.43,-108.4 27.68,-86.74"/>
<polygon fill="midnightblue" stroke="midnightblue" points="30.88,-88.19 32.56,-77.73 24.72,-84.86 30.88,-88.19"/>
</g>
<!-- Node34&#45;&gt;Node22 -->
<g id="edge50" class="edge">
<title>Node34&#45;&gt;Node22</title>
<path fill="none" stroke="midnightblue" d="M121.16,-456.42C138.76,-447.62 165.66,-434.17 185.81,-424.1"/>
<polygon fill="midnightblue" stroke="midnightblue" points="187.43,-427.2 194.81,-419.6 184.3,-420.94 187.43,-427.2"/>
</g>
</g>
</svg>
        <g id="navigator" transform="translate(0 0)" fill="#404254">
                <rect fill="#f2f5e9" fill-opacity="0.5" stroke="#606060" stroke-width=".5" x="0" y="0" width="60" height="60"/>
                <use id="zoomplus" xlink:href="#zoomPlus" x="17" y="9" onmousedown="handleZoom(evt,'in')"/>
                <use id="zoomminus" xlink:href="#zoomMin" x="42" y="9" onmousedown="handleZoom(evt,'out')"/>
                <use id="reset" xlink:href="#resetDef" x="30" y="36" onmousedown="handleReset()"/>
                <g id="arrowUp" xlink:href="#dirArrow" transform="translate(30 24)" onmousedown="handlePan(0,-1)">
                  <use xlink:href="#rim" fill="#404040">
                        <set attributeName="fill" to="#808080" begin="arrowUp.mouseover" end="arrowUp.mouseout"/>
                  </use>
                  <path fill="none" stroke="white" stroke-width="1.5" d="M0,-3.0v7 M-2.5,-0.5L0,-3.0L2.5,-0.5"/>
                </g>
                <g id="arrowRight" xlink:href="#dirArrow" transform="rotate(90) translate(36 -43)" onmousedown="handlePan(1,0)">
                  <use xlink:href="#rim" fill="#404040">
                        <set attributeName="fill" to="#808080" begin="arrowRight.mouseover" end="arrowRight.mouseout"/>
                  </use>
                  <path fill="none" stroke="white" stroke-width="1.5" d="M0,-3.0v7 M-2.5,-0.5L0,-3.0L2.5,-0.5"/>
                </g>
                <g id="arrowDown" xlink:href="#dirArrow" transform="rotate(180) translate(-30 -48)" onmousedown="handlePan(0,1)">
                  <use xlink:href="#rim" fill="#404040">
                        <set attributeName="fill" to="#808080" begin="arrowDown.mouseover" end="arrowDown.mouseout"/>
                  </use>
                  <path fill="none" stroke="white" stroke-width="1.5" d="M0,-3.0v7 M-2.5,-0.5L0,-3.0L2.5,-0.5"/>
                </g>
                <g id="arrowLeft" xlink:href="#dirArrow" transform="rotate(270) translate(-36 17)" onmousedown="handlePan(-1,0)">
                  <use xlink:href="#rim" fill="#404040">
                        <set attributeName="fill" to="#808080" begin="arrowLeft.mouseover" end="arrowLeft.mouseout"/>
                  </use>
                  <path fill="none" stroke="white" stroke-width="1.5" d="M0,-3.0v7 M-2.5,-0.5L0,-3.0L2.5,-0.5"/>
                </g>
        </g>
        <svg viewBox="0 0 15 15" width="100%" height="30px" preserveAspectRatio="xMaxYMin meet">
         <g id="arrow_out" transform="scale(0.3 0.3)">
          <a xlink:href="_audio_sample_fifo_queue_vector_8cpp__incl_org.svg" target="_base">
           <rect id="button" ry="5" rx="5" y="6" x="6" height="38" width="38"
                fill="#f2f5e9" fill-opacity="0.5" stroke="#606060" stroke-width="1.0"/>
           <path id="arrow"
             d="M 11.500037,31.436501 C 11.940474,20.09759 22.043105,11.32322 32.158766,21.979434 L 37.068811,17.246167 C 37.068811,17.246167 37.088388,32 37.088388,32 L 22.160133,31.978069 C 22.160133,31.978069 26.997745,27.140456 26.997745,27.140456 C 18.528582,18.264221 13.291696,25.230495 11.500037,31.436501 z"
             style="fill:#404040;"/>
          </a>
         </g>
        </svg>
</svg>
