<?xml version="1.0" encoding="UTF-8" standalone="no"?>
<!DOCTYPE svg PUBLIC "-//W3C//DTD SVG 1.1//EN"
 "http://www.w3.org/Graphics/SVG/1.1/DTD/svg11.dtd">
<!-- Generated by graphviz version 2.47.1 (20210417.1919)
 -->
<!-- Title: AudioSampleFifoQueue.cpp&#45;inc Pages: 1 -->
<svg width="473pt" height="200pt"
 viewBox="0.00 0.00 473.00 200.00" xmlns="http://www.w3.org/2000/svg" xmlns:xlink="http://www.w3.org/1999/xlink">
<g id="graph0" class="graph" transform="scale(1 1) rotate(0) translate(4 196)">
<title>AudioSampleFifoQueue.cpp&#45;inc</title>
<polygon fill="white" stroke="transparent" points="-4,4 -4,-196 469,-196 469,4 -4,4"/>
<!-- Node1 -->
<g id="node1" class="node">
<title>Node1</title>
<g id="a_node1"><a xlink:title="The AudioSampleFifoQueue body implements a fifo queue for audio samples with popping off access to th...">
<polygon fill="#bfbfbf" stroke="black" points="81,-171.5 81,-191.5 252,-191.5 252,-171.5 81,-171.5"/>
<text text-anchor="middle" x="166.5" y="-178.7" font-family="Helvetica,sans-Serif" font-size="11.00">AudioSampleFifoQueue.cpp&#45;inc</text>
</a>
</g>
</g>
<!-- Node2 -->
<g id="node2" class="node">
<title>Node2</title>
<g id="a_node2"><a xlink:href="_audio_sample_fifo_queue_8h.html" target="_top" xlink:title="The AudioSampleFifoQueue specification defines a fifo queue for audio samples with popping off access...">
<polygon fill="white" stroke="black" points="96,-114.5 96,-134.5 237,-134.5 237,-114.5 96,-114.5"/>
<text text-anchor="middle" x="166.5" y="-121.7" font-family="Helvetica,sans-Serif" font-size="11.00">AudioSampleFifoQueue.h</text>
</a>
</g>
</g>
<!-- Node1&#45;&gt;Node2 -->
<g id="edge1" class="edge">
<title>Node1&#45;&gt;Node2</title>
<path fill="none" stroke="midnightblue" d="M166.5,-161.38C166.5,-152.37 166.5,-142.04 166.5,-134.78"/>
<polygon fill="midnightblue" stroke="midnightblue" points="163,-161.42 166.5,-171.42 170,-161.42 163,-161.42"/>
</g>
<!-- Node3 -->
<g id="node3" class="node">
<title>Node3</title>
<g id="a_node3"><a xlink:href="_audio_sample_fifo_queue_8cpp.html" target="_top" xlink:title="The AudioSampleFifoQueue body implements a fifo queue for audio samples with popping off access to th...">
<polygon fill="white" stroke="black" points="0,-57.5 0,-77.5 153,-77.5 153,-57.5 0,-57.5"/>
<text text-anchor="middle" x="76.5" y="-64.7" font-family="Helvetica,sans-Serif" font-size="11.00">AudioSampleFifoQueue.cpp</text>
</a>
</g>
</g>
<!-- Node2&#45;&gt;Node3 -->
<g id="edge2" class="edge">
<title>Node2&#45;&gt;Node3</title>
<path fill="none" stroke="midnightblue" d="M142.7,-108.95C126.41,-99 105.33,-86.12 91.38,-77.6"/>
<polygon fill="midnightblue" stroke="midnightblue" points="141.28,-112.19 151.64,-114.42 144.93,-106.22 141.28,-112.19"/>
</g>
<!-- Node4 -->
<g id="node4" class="node">
<title>Node4</title>
<g id="a_node4"><a xlink:href="_audio_sample_fifo_queue_vector_8h.html" target="_top" xlink:title="The AudioSampleFifoQueueVector specification defines a list of fifo queues for audio samples.">
<polygon fill="white" stroke="black" points="171,-57.5 171,-77.5 344,-77.5 344,-57.5 171,-57.5"/>
<text text-anchor="middle" x="257.5" y="-64.7" font-family="Helvetica,sans-Serif" font-size="11.00">AudioSampleFifoQueueVector.h</text>
</a>
</g>
</g>
<!-- Node2&#45;&gt;Node4 -->
<g id="edge3" class="edge">
<title>Node2&#45;&gt;Node4</title>
<path fill="none" stroke="midnightblue" d="M190.11,-109.23C206.63,-99.24 228.22,-86.2 242.45,-77.6"/>
<polygon fill="midnightblue" stroke="midnightblue" points="188.27,-106.25 181.53,-114.42 191.9,-112.24 188.27,-106.25"/>
</g>
<!-- Node5 -->
<g id="node5" class="node">
<title>Node5</title>
<g id="a_node5"><a xlink:href="_audio_sample_fifo_queue_vector_8cpp.html" target="_top" xlink:title="The AudioSampleFifoQueueVector body implements a list of fifo queues for audio samples (this is the f...">
<polygon fill="white" stroke="black" points="59,-0.5 59,-20.5 244,-20.5 244,-0.5 59,-0.5"/>
<text text-anchor="middle" x="151.5" y="-7.7" font-family="Helvetica,sans-Serif" font-size="11.00">AudioSampleFifoQueueVector.cpp</text>
</a>
</g>
</g>
<!-- Node4&#45;&gt;Node5 -->
<g id="edge4" class="edge">
<title>Node4&#45;&gt;Node5</title>
<path fill="none" stroke="midnightblue" d="M231.06,-52.78C211.69,-42.73 185.92,-29.36 169.03,-20.6"/>
<polygon fill="midnightblue" stroke="midnightblue" points="229.51,-55.92 240,-57.42 232.73,-49.71 229.51,-55.92"/>
</g>
<!-- Node6 -->
<g id="node6" class="node">
<title>Node6</title>
<g id="a_node6"><a xlink:href="_fluid_synth_plugin___event_processor_8cpp.html" target="_top" xlink:title="The FluidSynthPlugin_Processor module implements the handling of MIDI events from the DAW via JUCE ha...">
<polygon fill="white" stroke="black" points="262,-0.5 262,-20.5 465,-20.5 465,-0.5 262,-0.5"/>
<text text-anchor="middle" x="363.5" y="-7.7" font-family="Helvetica,sans-Serif" font-size="11.00">FluidSynthPlugin_EventProcessor.cpp</text>
</a>
</g>
</g>
<!-- Node4&#45;&gt;Node6 -->
<g id="edge5" class="edge">
<title>Node4&#45;&gt;Node6</title>
<path fill="none" stroke="midnightblue" d="M283.94,-52.78C303.31,-42.73 329.08,-29.36 345.97,-20.6"/>
<polygon fill="midnightblue" stroke="midnightblue" points="282.27,-49.71 275,-57.42 285.49,-55.92 282.27,-49.71"/>
</g>
</g>
</svg>
