<?xml version="1.0" encoding="UTF-8" standalone="no"?>
<!DOCTYPE svg PUBLIC "-//W3C//DTD SVG 1.1//EN"
 "http://www.w3.org/Graphics/SVG/1.1/DTD/svg11.dtd">
<!-- Generated by graphviz version 2.47.1 (20210417.1919)
 -->
<!-- Title: AudioSampleFifoQueueVector.cpp&#45;inc Pages: 1 -->
<svg width="414pt" height="143pt"
 viewBox="0.00 0.00 414.00 143.00" xmlns="http://www.w3.org/2000/svg" xmlns:xlink="http://www.w3.org/1999/xlink">
<g id="graph0" class="graph" transform="scale(1 1) rotate(0) translate(4 139)">
<title>AudioSampleFifoQueueVector.cpp&#45;inc</title>
<polygon fill="white" stroke="transparent" points="-4,4 -4,-139 410,-139 410,4 -4,4"/>
<!-- Node1 -->
<g id="node1" class="node">
<title>Node1</title>
<g id="a_node1"><a xlink:title="The AudioSampleFifoQueueVector body implements a list of fifo queues for audio samples (this is the e...">
<polygon fill="#bfbfbf" stroke="black" points="97,-114.5 97,-134.5 300,-134.5 300,-114.5 97,-114.5"/>
<text text-anchor="middle" x="198.5" y="-121.7" font-family="Helvetica,sans-Serif" font-size="11.00">AudioSampleFifoQueueVector.cpp&#45;inc</text>
</a>
</g>
</g>
<!-- Node2 -->
<g id="node2" class="node">
<title>Node2</title>
<g id="a_node2"><a xlink:href="_audio_sample_fifo_queue_vector_8h.html" target="_top" xlink:title="The AudioSampleFifoQueueVector specification defines a list of fifo queues for audio samples.">
<polygon fill="white" stroke="black" points="112,-57.5 112,-77.5 285,-77.5 285,-57.5 112,-57.5"/>
<text text-anchor="middle" x="198.5" y="-64.7" font-family="Helvetica,sans-Serif" font-size="11.00">AudioSampleFifoQueueVector.h</text>
</a>
</g>
</g>
<!-- Node1&#45;&gt;Node2 -->
<g id="edge1" class="edge">
<title>Node1&#45;&gt;Node2</title>
<path fill="none" stroke="midnightblue" d="M198.5,-104.38C198.5,-95.37 198.5,-85.04 198.5,-77.78"/>
<polygon fill="midnightblue" stroke="midnightblue" points="195,-104.42 198.5,-114.42 202,-104.42 195,-104.42"/>
</g>
<!-- Node3 -->
<g id="node3" class="node">
<title>Node3</title>
<g id="a_node3"><a xlink:href="_audio_sample_fifo_queue_vector_8cpp.html" target="_top" xlink:title="The AudioSampleFifoQueueVector body implements a list of fifo queues for audio samples (this is the f...">
<polygon fill="white" stroke="black" points="0,-0.5 0,-20.5 185,-20.5 185,-0.5 0,-0.5"/>
<text text-anchor="middle" x="92.5" y="-7.7" font-family="Helvetica,sans-Serif" font-size="11.00">AudioSampleFifoQueueVector.cpp</text>
</a>
</g>
</g>
<!-- Node2&#45;&gt;Node3 -->
<g id="edge2" class="edge">
<title>Node2&#45;&gt;Node3</title>
<path fill="none" stroke="midnightblue" d="M172.06,-52.78C152.69,-42.73 126.92,-29.36 110.03,-20.6"/>
<polygon fill="midnightblue" stroke="midnightblue" points="170.51,-55.92 181,-57.42 173.73,-49.71 170.51,-55.92"/>
</g>
<!-- Node4 -->
<g id="node4" class="node">
<title>Node4</title>
<g id="a_node4"><a xlink:href="_fluid_synth_plugin___event_processor_8cpp.html" target="_top" xlink:title="The FluidSynthPlugin_Processor module implements the handling of MIDI events from the DAW via JUCE ha...">
<polygon fill="white" stroke="black" points="203,-0.5 203,-20.5 406,-20.5 406,-0.5 203,-0.5"/>
<text text-anchor="middle" x="304.5" y="-7.7" font-family="Helvetica,sans-Serif" font-size="11.00">FluidSynthPlugin_EventProcessor.cpp</text>
</a>
</g>
</g>
<!-- Node2&#45;&gt;Node4 -->
<g id="edge3" class="edge">
<title>Node2&#45;&gt;Node4</title>
<path fill="none" stroke="midnightblue" d="M224.94,-52.78C244.31,-42.73 270.08,-29.36 286.97,-20.6"/>
<polygon fill="midnightblue" stroke="midnightblue" points="223.27,-49.71 216,-57.42 226.49,-55.92 223.27,-49.71"/>
</g>
</g>
</svg>
