<?xml version="1.0" encoding="UTF-8" standalone="no"?>
<!DOCTYPE svg PUBLIC "-//W3C//DTD SVG 1.1//EN"
 "http://www.w3.org/Graphics/SVG/1.1/DTD/svg11.dtd">
<!-- Generated by graphviz version 2.47.1 (20210417.1919)
 -->
<!-- Title: AudioSampleFifoQueue.cpp&#45;inc Pages: 1 -->
<svg width="497pt" height="467pt"
 viewBox="0.00 0.00 497.00 467.00" xmlns="http://www.w3.org/2000/svg" xmlns:xlink="http://www.w3.org/1999/xlink">
<g id="graph0" class="graph" transform="scale(1 1) rotate(0) translate(4 463)">
<title>AudioSampleFifoQueue.cpp&#45;inc</title>
<!-- Node1 -->
<g id="Node000001" class="node">
<title>Node1</title>
<g id="a_Node000001"><a xlink:title="The AudioSampleFifoQueue body implements a fifo queue for audio samples with popping off access to th...">
<polygon fill="#999999" stroke="#666666" points="218.5,-459 65.5,-459 65.5,-440 218.5,-440 218.5,-459"/>
<text text-anchor="middle" x="142" y="-447" font-family="Helvetica,sans-Serif" font-size="10.00">AudioSampleFifoQueue.cpp&#45;inc</text>
</a>
</g>
</g>
<!-- Node2 -->
<g id="Node000002" class="node">
<title>Node2</title>
<g id="a_Node000002"><a xlink:href="_assertion_8h.html" target="_top" xlink:title="The Assertion specification defines macros for pre&#45; and postconditions in functions or methods.">
<polygon fill="white" stroke="#666666" points="235,-74 169,-74 169,-55 235,-55 235,-74"/>
<text text-anchor="middle" x="202" y="-62" font-family="Helvetica,sans-Serif" font-size="10.00">Assertion.h</text>
</a>
</g>
</g>
<!-- Node1&#45;&gt;Node2 -->
<g id="edge1_Node000001_Node000002" class="edge">
<title>Node1&#45;&gt;Node2</title>
<g id="a_edge1_Node000001_Node000002"><a xlink:title=" ">
<path fill="none" stroke="#63b8ff" d="M110.84,-440C69.04,-426.48 0,-395.79 0,-340.5 0,-340.5 0,-340.5 0,-173.5 0,-102.22 99.02,-77.81 158.41,-69.58"/>
<polygon fill="#63b8ff" stroke="#63b8ff" points="159.17,-73.01 168.64,-68.27 158.28,-66.07 159.17,-73.01"/>
</a>
</g>
</g>
<!-- Node5 -->
<g id="Node000005" class="node">
<title>Node5</title>
<g id="a_Node000005"><a xlink:href="_logging_8h.html" target="_top" xlink:title="The Logging specification defines macros for entry&#45;, exit&#45; and intermediate logging of functions into...">
<polygon fill="white" stroke="#666666" points="171.5,-404 112.5,-404 112.5,-385 171.5,-385 171.5,-404"/>
<text text-anchor="middle" x="142" y="-392" font-family="Helvetica,sans-Serif" font-size="10.00">Logging.h</text>
</a>
</g>
</g>
<!-- Node1&#45;&gt;Node5 -->
<g id="edge4_Node000001_Node000005" class="edge">
<title>Node1&#45;&gt;Node5</title>
<g id="a_edge4_Node000001_Node000005"><a xlink:title=" ">
<path fill="none" stroke="#63b8ff" d="M142,-439.75C142,-432.8 142,-422.85 142,-414.13"/>
<polygon fill="#63b8ff" stroke="#63b8ff" points="145.5,-414.09 142,-404.09 138.5,-414.09 145.5,-414.09"/>
</a>
</g>
</g>
<!-- Node24 -->
<g id="Node000024" class="node">
<title>Node24</title>
<g id="a_Node000024"><a xlink:href="_my_array_8h.html" target="_top" xlink:title="The MyArray specification and body defines a generic array type for stack allocated arrays represente...">
<polygon fill="white" stroke="#666666" points="422,-404 360,-404 360,-385 422,-385 422,-404"/>
<text text-anchor="middle" x="391" y="-392" font-family="Helvetica,sans-Serif" font-size="10.00">MyArray.h</text>
</a>
</g>
</g>
<!-- Node1&#45;&gt;Node24 -->
<g id="edge33_Node000001_Node000024" class="edge">
<title>Node1&#45;&gt;Node24</title>
<g id="a_edge33_Node000001_Node000024"><a xlink:title=" ">
<path fill="none" stroke="#63b8ff" d="M182.01,-439.98C228.02,-430.19 303.18,-414.19 349.72,-404.29"/>
<polygon fill="#63b8ff" stroke="#63b8ff" points="350.71,-407.65 359.76,-402.15 349.25,-400.81 350.71,-407.65"/>
</a>
</g>
</g>
<!-- Node3 -->
<g id="Node000003" class="node">
<title>Node3</title>
<g id="a_Node000003"><a xlink:title=" ">
<polygon fill="#e0e0e0" stroke="#999999" points="170.5,-19 111.5,-19 111.5,0 170.5,0 170.5,-19"/>
<text text-anchor="middle" x="141" y="-7" font-family="Helvetica,sans-Serif" font-size="10.00">stdexcept</text>
</a>
</g>
</g>
<!-- Node2&#45;&gt;Node3 -->
<g id="edge2_Node000002_Node000003" class="edge">
<title>Node2&#45;&gt;Node3</title>
<g id="a_edge2_Node000002_Node000003"><a xlink:title=" ">
<path fill="none" stroke="#63b8ff" d="M192.2,-54.98C183.18,-47.15 169.59,-35.34 158.68,-25.86"/>
<polygon fill="#63b8ff" stroke="#63b8ff" points="160.82,-23.09 150.98,-19.17 156.23,-28.37 160.82,-23.09"/>
</a>
</g>
</g>
<!-- Node4 -->
<g id="Node000004" class="node">
<title>Node4</title>
<g id="a_Node000004"><a xlink:title=" ">
<polygon fill="#e0e0e0" stroke="#999999" points="229.5,-19 188.5,-19 188.5,0 229.5,0 229.5,-19"/>
<text text-anchor="middle" x="209" y="-7" font-family="Helvetica,sans-Serif" font-size="10.00">string</text>
</a>
</g>
</g>
<!-- Node2&#45;&gt;Node4 -->
<g id="edge3_Node000002_Node000004" class="edge">
<title>Node2&#45;&gt;Node4</title>
<g id="a_edge3_Node000002_Node000004"><a xlink:title=" ">
<path fill="none" stroke="#63b8ff" d="M203.16,-54.75C204.07,-47.8 205.39,-37.85 206.54,-29.13"/>
<polygon fill="#63b8ff" stroke="#63b8ff" points="210.03,-29.46 207.87,-19.09 203.09,-28.54 210.03,-29.46"/>
</a>
</g>
</g>
<!-- Node6 -->
<g id="Node000006" class="node">
<title>Node6</title>
<g id="a_Node000006"><a xlink:title=" ">
<polygon fill="#e0e0e0" stroke="#999999" points="77.5,-349 28.5,-349 28.5,-330 77.5,-330 77.5,-349"/>
<text text-anchor="middle" x="53" y="-337" font-family="Helvetica,sans-Serif" font-size="10.00">cstdarg</text>
</a>
</g>
</g>
<!-- Node5&#45;&gt;Node6 -->
<g id="edge5_Node000005_Node000006" class="edge">
<title>Node5&#45;&gt;Node6</title>
<g id="a_edge5_Node000005_Node000006"><a xlink:title=" ">
<path fill="none" stroke="#63b8ff" d="M127.7,-384.98C113.9,-376.77 92.76,-364.18 76.49,-354.49"/>
<polygon fill="#63b8ff" stroke="#63b8ff" points="77.94,-351.28 67.56,-349.17 74.36,-357.29 77.94,-351.28"/>
</a>
</g>
</g>
<!-- Node7 -->
<g id="Node000007" class="node">
<title>Node7</title>
<g id="a_Node000007"><a xlink:href="_logging_support_8h.html" target="_top" xlink:title="The LoggingSupport specification defines a class for simple entry/exit logging to a file or via an ar...">
<polygon fill="white" stroke="#666666" points="188,-349 96,-349 96,-330 188,-330 188,-349"/>
<text text-anchor="middle" x="142" y="-337" font-family="Helvetica,sans-Serif" font-size="10.00">LoggingSupport.h</text>
</a>
</g>
</g>
<!-- Node5&#45;&gt;Node7 -->
<g id="edge6_Node000005_Node000007" class="edge">
<title>Node5&#45;&gt;Node7</title>
<g id="a_edge6_Node000005_Node000007"><a xlink:title=" ">
<path fill="none" stroke="#63b8ff" d="M142,-384.75C142,-377.8 142,-367.85 142,-359.13"/>
<polygon fill="#63b8ff" stroke="#63b8ff" points="145.5,-359.09 142,-349.09 138.5,-359.09 145.5,-359.09"/>
</a>
</g>
</g>
<!-- Node14 -->
<g id="Node000014" class="node">
<title>Node14</title>
<g id="a_Node000014"><a xlink:href="_string_util_8h.html" target="_top" xlink:title="The StringUtil specification defines several string routines not included in the standard C++ library...">
<polygon fill="white" stroke="#666666" points="271.5,-349 206.5,-349 206.5,-330 271.5,-330 271.5,-349"/>
<text text-anchor="middle" x="239" y="-337" font-family="Helvetica,sans-Serif" font-size="10.00">StringUtil.h</text>
</a>
</g>
</g>
<!-- Node5&#45;&gt;Node14 -->
<g id="edge16_Node000005_Node000014" class="edge">
<title>Node5&#45;&gt;Node14</title>
<g id="a_edge16_Node000005_Node000014"><a xlink:title=" ">
<path fill="none" stroke="#63b8ff" d="M157.58,-384.98C172.77,-376.69 196.1,-363.94 213.9,-354.22"/>
<polygon fill="#63b8ff" stroke="#63b8ff" points="216.03,-357.04 223.13,-349.17 212.68,-350.89 216.03,-357.04"/>
</a>
</g>
</g>
<!-- Node8 -->
<g id="Node000008" class="node">
<title>Node8</title>
<g id="a_Node000008"><a xlink:href="_boolean_8h.html" target="_top" xlink:title="The Boolean specification and body provides a value object type for boolean values.">
<polygon fill="white" stroke="#666666" points="149,-294 89,-294 89,-275 149,-275 149,-294"/>
<text text-anchor="middle" x="119" y="-282" font-family="Helvetica,sans-Serif" font-size="10.00">Boolean.h</text>
</a>
</g>
</g>
<!-- Node7&#45;&gt;Node8 -->
<g id="edge7_Node000007_Node000008" class="edge">
<title>Node7&#45;&gt;Node8</title>
<g id="a_edge7_Node000007_Node000008"><a xlink:title=" ">
<path fill="none" stroke="#63b8ff" d="M138.2,-329.75C135.09,-322.57 130.58,-312.18 126.71,-303.27"/>
<polygon fill="#63b8ff" stroke="#63b8ff" points="129.92,-301.87 122.73,-294.09 123.5,-304.66 129.92,-301.87"/>
</a>
</g>
</g>
<!-- Node11 -->
<g id="Node000011" class="node">
<title>Node11</title>
<g id="a_Node000011"><a xlink:href="_natural_8h.html" target="_top" xlink:title="The Natural specification and body provides a value object type for naturals (positive integers with ...">
<polygon fill="white" stroke="#666666" points="316,-129 260,-129 260,-110 316,-110 316,-129"/>
<text text-anchor="middle" x="288" y="-117" font-family="Helvetica,sans-Serif" font-size="10.00">Natural.h</text>
</a>
</g>
</g>
<!-- Node7&#45;&gt;Node11 -->
<g id="edge11_Node000007_Node000011" class="edge">
<title>Node7&#45;&gt;Node11</title>
<g id="a_edge11_Node000007_Node000011"><a xlink:title=" ">
<path fill="none" stroke="#63b8ff" d="M121.48,-330C106.98,-322.77 88.65,-310.86 80,-294 76.14,-286.49 77.12,-282.94 80,-275 107.91,-198.14 201.06,-152.53 252.73,-132.55"/>
<polygon fill="#63b8ff" stroke="#63b8ff" points="254.04,-135.79 262.17,-129 251.58,-129.24 254.04,-135.79"/>
</a>
</g>
</g>
<!-- Node9 -->
<g id="Node000009" class="node">
<title>Node9</title>
<g id="a_Node000009"><a xlink:href="_my_string_8h.html" target="_top" xlink:title="The String specification defines a standard string type.">
<polygon fill="white" stroke="#666666" points="317,-74 253,-74 253,-55 317,-55 317,-74"/>
<text text-anchor="middle" x="285" y="-62" font-family="Helvetica,sans-Serif" font-size="10.00">MyString.h</text>
</a>
</g>
</g>
<!-- Node8&#45;&gt;Node9 -->
<g id="edge8_Node000008_Node000009" class="edge">
<title>Node8&#45;&gt;Node9</title>
<g id="a_edge8_Node000008_Node000009"><a xlink:title=" ">
<path fill="none" stroke="#63b8ff" d="M118.17,-274.78C117.33,-262.04 117.23,-237.93 126,-220 157.2,-156.2 226.02,-104.11 262.03,-79.99"/>
<polygon fill="#63b8ff" stroke="#63b8ff" points="264.4,-82.62 270.84,-74.21 260.56,-76.76 264.4,-82.62"/>
</a>
</g>
</g>
<!-- Node9&#45;&gt;Node4 -->
<g id="edge9_Node000009_Node000004" class="edge">
<title>Node9&#45;&gt;Node4</title>
<g id="a_edge9_Node000009_Node000004"><a xlink:title=" ">
<path fill="none" stroke="#63b8ff" d="M272.79,-54.98C261.22,-46.92 243.62,-34.65 229.84,-25.03"/>
<polygon fill="#63b8ff" stroke="#63b8ff" points="231.64,-22.02 221.43,-19.17 227.63,-27.76 231.64,-22.02"/>
</a>
</g>
</g>
<!-- Node10 -->
<g id="Node000010" class="node">
<title>Node10</title>
<g id="a_Node000010"><a xlink:href="_global_macros_8h.html" target="_top" xlink:title="The GlobalMacros specification defines simple macros (e.g. for parameter modes).">
<polygon fill="white" stroke="#666666" points="332.5,-19 247.5,-19 247.5,0 332.5,0 332.5,-19"/>
<text text-anchor="middle" x="290" y="-7" font-family="Helvetica,sans-Serif" font-size="10.00">GlobalMacros.h</text>
</a>
</g>
</g>
<!-- Node9&#45;&gt;Node10 -->
<g id="edge10_Node000009_Node000010" class="edge">
<title>Node9&#45;&gt;Node10</title>
<g id="a_edge10_Node000009_Node000010"><a xlink:title=" ">
<path fill="none" stroke="#63b8ff" d="M285.83,-54.75C286.48,-47.8 287.42,-37.85 288.24,-29.13"/>
<polygon fill="#63b8ff" stroke="#63b8ff" points="291.73,-29.37 289.19,-19.09 284.77,-28.72 291.73,-29.37"/>
</a>
</g>
</g>
<!-- Node11&#45;&gt;Node2 -->
<g id="edge13_Node000011_Node000002" class="edge">
<title>Node11&#45;&gt;Node2</title>
<g id="a_edge13_Node000011_Node000002"><a xlink:title=" ">
<path fill="none" stroke="#63b8ff" d="M274.18,-109.98C260.85,-101.77 240.42,-89.18 224.69,-79.49"/>
<polygon fill="#63b8ff" stroke="#63b8ff" points="226.42,-76.44 216.07,-74.17 222.75,-82.4 226.42,-76.44"/>
</a>
</g>
</g>
<!-- Node11&#45;&gt;Node9 -->
<g id="edge15_Node000011_Node000009" class="edge">
<title>Node11&#45;&gt;Node9</title>
<g id="a_edge15_Node000011_Node000009"><a xlink:title=" ">
<path fill="none" stroke="#63b8ff" d="M287.5,-109.75C287.11,-102.8 286.55,-92.85 286.05,-84.13"/>
<polygon fill="#63b8ff" stroke="#63b8ff" points="289.55,-83.88 285.49,-74.09 282.56,-84.27 289.55,-83.88"/>
</a>
</g>
</g>
<!-- Node12 -->
<g id="Node000012" class="node">
<title>Node12</title>
<g id="a_Node000012"><a xlink:title=" ">
<polygon fill="#e0e0e0" stroke="#999999" points="489,-74 445,-74 445,-55 489,-55 489,-74"/>
<text text-anchor="middle" x="467" y="-62" font-family="Helvetica,sans-Serif" font-size="10.00">cmath</text>
</a>
</g>
</g>
<!-- Node11&#45;&gt;Node12 -->
<g id="edge12_Node000011_Node000012" class="edge">
<title>Node11&#45;&gt;Node12</title>
<g id="a_edge12_Node000011_Node000012"><a xlink:title=" ">
<path fill="none" stroke="#63b8ff" d="M316.36,-110.1C348.7,-100.53 401.44,-84.91 435.17,-74.93"/>
<polygon fill="#63b8ff" stroke="#63b8ff" points="436.38,-78.22 444.98,-72.02 434.39,-71.5 436.38,-78.22"/>
</a>
</g>
</g>
<!-- Node13 -->
<g id="Node000013" class="node">
<title>Node13</title>
<g id="a_Node000013"><a xlink:title=" ">
<polygon fill="#e0e0e0" stroke="#999999" points="427,-74 335,-74 335,-55 427,-55 427,-74"/>
<text text-anchor="middle" x="381" y="-62" font-family="Helvetica,sans-Serif" font-size="10.00">GenericNumber.h</text>
</a>
</g>
</g>
<!-- Node11&#45;&gt;Node13 -->
<g id="edge14_Node000011_Node000013" class="edge">
<title>Node11&#45;&gt;Node13</title>
<g id="a_edge14_Node000011_Node000013"><a xlink:title=" ">
<path fill="none" stroke="#63b8ff" d="M302.94,-109.98C317.5,-101.69 339.87,-88.94 356.93,-79.22"/>
<polygon fill="#63b8ff" stroke="#63b8ff" points="358.83,-82.16 365.79,-74.17 355.36,-76.08 358.83,-82.16"/>
</a>
</g>
</g>
<!-- Node14&#45;&gt;Node8 -->
<g id="edge17_Node000014_Node000008" class="edge">
<title>Node14&#45;&gt;Node8</title>
<g id="a_edge17_Node000014_Node000008"><a xlink:title=" ">
<path fill="none" stroke="#63b8ff" d="M219.72,-329.98C200.33,-321.42 170.19,-308.11 147.93,-298.28"/>
<polygon fill="#63b8ff" stroke="#63b8ff" points="149.19,-295.01 138.63,-294.17 146.36,-301.41 149.19,-295.01"/>
</a>
</g>
</g>
<!-- Node15 -->
<g id="Node000015" class="node">
<title>Node15</title>
<g id="a_Node000015"><a xlink:href="_character_8h.html" target="_top" xlink:title="The Character specification and body provides a value object type for character values.">
<polygon fill="white" stroke="#666666" points="486.5,-239 419.5,-239 419.5,-220 486.5,-220 486.5,-239"/>
<text text-anchor="middle" x="453" y="-227" font-family="Helvetica,sans-Serif" font-size="10.00">Character.h</text>
</a>
</g>
</g>
<!-- Node14&#45;&gt;Node15 -->
<g id="edge18_Node000014_Node000015" class="edge">
<title>Node14&#45;&gt;Node15</title>
<g id="a_edge18_Node000014_Node000015"><a xlink:title=" ">
<path fill="none" stroke="#63b8ff" d="M258.07,-329.92C277.35,-321.17 307.94,-307.04 334,-294 366.94,-277.51 404.34,-257.3 428.27,-244.18"/>
<polygon fill="#63b8ff" stroke="#63b8ff" points="430.28,-247.07 437.35,-239.19 426.9,-240.94 430.28,-247.07"/>
</a>
</g>
</g>
<!-- Node18 -->
<g id="Node000018" class="node">
<title>Node18</title>
<g id="a_Node000018"><a xlink:href="_percentage_8h.html" target="_top" xlink:title="The Percentage specification and body provides a simple percentage type.">
<polygon fill="white" stroke="#666666" points="241,-294 167,-294 167,-275 241,-275 241,-294"/>
<text text-anchor="middle" x="204" y="-282" font-family="Helvetica,sans-Serif" font-size="10.00">Percentage.h</text>
</a>
</g>
</g>
<!-- Node14&#45;&gt;Node18 -->
<g id="edge24_Node000014_Node000018" class="edge">
<title>Node14&#45;&gt;Node18</title>
<g id="a_edge24_Node000014_Node000018"><a xlink:title=" ">
<path fill="none" stroke="#63b8ff" d="M233.22,-329.75C228.38,-322.42 221.32,-311.73 215.36,-302.7"/>
<polygon fill="#63b8ff" stroke="#63b8ff" points="218.1,-300.5 209.67,-294.09 212.26,-304.36 218.1,-300.5"/>
</a>
</g>
</g>
<!-- Node21 -->
<g id="Node000021" class="node">
<title>Node21</title>
<g id="a_Node000021"><a xlink:href="_string_list_8h.html" target="_top" xlink:title="The StringList specification defines lists of string values with zero&#45;based arbitrary indexed access ...">
<polygon fill="white" stroke="#666666" points="325,-294 259,-294 259,-275 325,-275 325,-294"/>
<text text-anchor="middle" x="292" y="-282" font-family="Helvetica,sans-Serif" font-size="10.00">StringList.h</text>
</a>
</g>
</g>
<!-- Node14&#45;&gt;Node21 -->
<g id="edge30_Node000014_Node000021" class="edge">
<title>Node14&#45;&gt;Node21</title>
<g id="a_edge30_Node000014_Node000021"><a xlink:title=" ">
<path fill="none" stroke="#63b8ff" d="M247.75,-329.75C255.47,-322.03 266.9,-310.6 276.22,-301.28"/>
<polygon fill="#63b8ff" stroke="#63b8ff" points="278.81,-303.64 283.41,-294.09 273.86,-298.69 278.81,-303.64"/>
</a>
</g>
</g>
<!-- Node15&#45;&gt;Node12 -->
<g id="edge19_Node000015_Node000012" class="edge">
<title>Node15&#45;&gt;Node12</title>
<g id="a_edge19_Node000015_Node000012"><a xlink:title=" ">
<path fill="none" stroke="#63b8ff" d="M458.58,-219.72C463.74,-211.03 471.05,-197.17 474,-184 481.75,-149.44 475.94,-107.87 471.28,-84.28"/>
<polygon fill="#63b8ff" stroke="#63b8ff" points="474.65,-83.31 469.15,-74.26 467.81,-84.77 474.65,-83.31"/>
</a>
</g>
</g>
<!-- Node16 -->
<g id="Node000016" class="node">
<title>Node16</title>
<g id="a_Node000016"><a xlink:href="_byte_8h.html" target="_top" xlink:title="The Byte specification and body provides a value object type for byte values.">
<polygon fill="white" stroke="#666666" points="464.5,-184 419.5,-184 419.5,-165 464.5,-165 464.5,-184"/>
<text text-anchor="middle" x="442" y="-172" font-family="Helvetica,sans-Serif" font-size="10.00">Byte.h</text>
</a>
</g>
</g>
<!-- Node15&#45;&gt;Node16 -->
<g id="edge20_Node000015_Node000016" class="edge">
<title>Node15&#45;&gt;Node16</title>
<g id="a_edge20_Node000015_Node000016"><a xlink:title=" ">
<path fill="none" stroke="#63b8ff" d="M451.18,-219.75C449.74,-212.8 447.68,-202.85 445.87,-194.13"/>
<polygon fill="#63b8ff" stroke="#63b8ff" points="449.24,-193.17 443.78,-184.09 442.39,-194.59 449.24,-193.17"/>
</a>
</g>
</g>
<!-- Node16&#45;&gt;Node11 -->
<g id="edge23_Node000016_Node000011" class="edge">
<title>Node16&#45;&gt;Node11</title>
<g id="a_edge23_Node000016_Node000011"><a xlink:title=" ">
<path fill="none" stroke="#63b8ff" d="M419.28,-165.68C393.72,-156.88 351.93,-142.5 322.37,-132.33"/>
<polygon fill="#63b8ff" stroke="#63b8ff" points="323.46,-129 312.86,-129.06 321.18,-135.62 323.46,-129"/>
</a>
</g>
</g>
<!-- Node16&#45;&gt;Node12 -->
<g id="edge21_Node000016_Node000012" class="edge">
<title>Node16&#45;&gt;Node12</title>
<g id="a_edge21_Node000016_Node000012"><a xlink:title=" ">
<path fill="none" stroke="#63b8ff" d="M432.21,-164.91C419.6,-152.73 400.36,-129.75 410,-110 416.3,-97.09 428.35,-86.83 439.76,-79.43"/>
<polygon fill="#63b8ff" stroke="#63b8ff" points="441.86,-82.25 448.65,-74.12 438.27,-76.25 441.86,-82.25"/>
</a>
</g>
</g>
<!-- Node17 -->
<g id="Node000017" class="node">
<title>Node17</title>
<g id="a_Node000017"><a xlink:title=" ">
<polygon fill="#e0e0e0" stroke="#999999" points="465,-129 419,-129 419,-110 465,-110 465,-129"/>
<text text-anchor="middle" x="442" y="-117" font-family="Helvetica,sans-Serif" font-size="10.00">cstdint</text>
</a>
</g>
</g>
<!-- Node16&#45;&gt;Node17 -->
<g id="edge22_Node000016_Node000017" class="edge">
<title>Node16&#45;&gt;Node17</title>
<g id="a_edge22_Node000016_Node000017"><a xlink:title=" ">
<path fill="none" stroke="#63b8ff" d="M442,-164.75C442,-157.8 442,-147.85 442,-139.13"/>
<polygon fill="#63b8ff" stroke="#63b8ff" points="445.5,-139.09 442,-129.09 438.5,-139.09 445.5,-139.09"/>
</a>
</g>
</g>
<!-- Node19 -->
<g id="Node000019" class="node">
<title>Node19</title>
<g id="a_Node000019"><a xlink:href="_real_8h.html" target="_top" xlink:title="The Real specification defines a value object type for real values.">
<polygon fill="white" stroke="#666666" points="179,-239 135,-239 135,-220 179,-220 179,-239"/>
<text text-anchor="middle" x="157" y="-227" font-family="Helvetica,sans-Serif" font-size="10.00">Real.h</text>
</a>
</g>
</g>
<!-- Node18&#45;&gt;Node19 -->
<g id="edge25_Node000018_Node000019" class="edge">
<title>Node18&#45;&gt;Node19</title>
<g id="a_edge25_Node000018_Node000019"><a xlink:title=" ">
<path fill="none" stroke="#63b8ff" d="M196.24,-274.75C189.53,-267.18 179.66,-256.05 171.49,-246.84"/>
<polygon fill="#63b8ff" stroke="#63b8ff" points="173.87,-244.25 164.62,-239.09 168.63,-248.89 173.87,-244.25"/>
</a>
</g>
</g>
<!-- Node20 -->
<g id="Node000020" class="node">
<title>Node20</title>
<g id="a_Node000020"><a xlink:href="_integer_8h.html" target="_top" xlink:title="The Integer specification and body provides a value object type for ints.">
<polygon fill="white" stroke="#666666" points="252,-184 198,-184 198,-165 252,-165 252,-184"/>
<text text-anchor="middle" x="225" y="-172" font-family="Helvetica,sans-Serif" font-size="10.00">Integer.h</text>
</a>
</g>
</g>
<!-- Node19&#45;&gt;Node20 -->
<g id="edge26_Node000019_Node000020" class="edge">
<title>Node19&#45;&gt;Node20</title>
<g id="a_edge26_Node000019_Node000020"><a xlink:title=" ">
<path fill="none" stroke="#63b8ff" d="M167.93,-219.98C178.08,-212.07 193.42,-200.11 205.65,-190.58"/>
<polygon fill="#63b8ff" stroke="#63b8ff" points="208.14,-193.08 213.88,-184.17 203.84,-187.56 208.14,-193.08"/>
</a>
</g>
</g>
<!-- Node20&#45;&gt;Node3 -->
<g id="edge28_Node000020_Node000003" class="edge">
<title>Node20&#45;&gt;Node3</title>
<g id="a_edge28_Node000020_Node000003"><a xlink:title=" ">
<path fill="none" stroke="#63b8ff" d="M218.17,-164.95C205.2,-148.33 176.77,-110.12 160,-74 153.33,-59.63 148.34,-42.35 145.15,-29.45"/>
<polygon fill="#63b8ff" stroke="#63b8ff" points="148.49,-28.36 142.81,-19.42 141.67,-29.95 148.49,-28.36"/>
</a>
</g>
</g>
<!-- Node20&#45;&gt;Node11 -->
<g id="edge29_Node000020_Node000011" class="edge">
<title>Node20&#45;&gt;Node11</title>
<g id="a_edge29_Node000020_Node000011"><a xlink:title=" ">
<path fill="none" stroke="#63b8ff" d="M235.12,-164.98C244.44,-157.15 258.47,-145.34 269.74,-135.86"/>
<polygon fill="#63b8ff" stroke="#63b8ff" points="272.29,-138.29 277.69,-129.17 267.79,-132.93 272.29,-138.29"/>
</a>
</g>
</g>
<!-- Node20&#45;&gt;Node12 -->
<g id="edge27_Node000020_Node000012" class="edge">
<title>Node20&#45;&gt;Node12</title>
<g id="a_edge27_Node000020_Node000012"><a xlink:title=" ">
<path fill="none" stroke="#63b8ff" d="M244.18,-164.98C264.31,-156.03 296.89,-141.54 325,-129 364.27,-111.48 409.62,-91.19 438.3,-78.35"/>
<polygon fill="#63b8ff" stroke="#63b8ff" points="440.02,-81.42 447.71,-74.14 437.15,-75.03 440.02,-81.42"/>
</a>
</g>
</g>
<!-- Node22 -->
<g id="Node000022" class="node">
<title>Node22</title>
<g id="a_Node000022"><a xlink:title=" ">
<polygon fill="#e0e0e0" stroke="#999999" points="362.5,-239 289.5,-239 289.5,-220 362.5,-220 362.5,-239"/>
<text text-anchor="middle" x="326" y="-227" font-family="Helvetica,sans-Serif" font-size="10.00">initializer_list</text>
</a>
</g>
</g>
<!-- Node21&#45;&gt;Node22 -->
<g id="edge31_Node000021_Node000022" class="edge">
<title>Node21&#45;&gt;Node22</title>
<g id="a_edge31_Node000021_Node000022"><a xlink:title=" ">
<path fill="none" stroke="#63b8ff" d="M297.61,-274.75C302.32,-267.42 309.17,-256.73 314.97,-247.7"/>
<polygon fill="#63b8ff" stroke="#63b8ff" points="318.04,-249.4 320.49,-239.09 312.14,-245.62 318.04,-249.4"/>
</a>
</g>
</g>
<!-- Node23 -->
<g id="Node000023" class="node">
<title>Node23</title>
<g id="a_Node000023"><a xlink:title=" ">
<polygon fill="#e0e0e0" stroke="#999999" points="271,-239 197,-239 197,-220 271,-220 271,-239"/>
<text text-anchor="middle" x="234" y="-227" font-family="Helvetica,sans-Serif" font-size="10.00">GenericList.h</text>
</a>
</g>
</g>
<!-- Node21&#45;&gt;Node23 -->
<g id="edge32_Node000021_Node000023" class="edge">
<title>Node21&#45;&gt;Node23</title>
<g id="a_edge32_Node000021_Node000023"><a xlink:title=" ">
<path fill="none" stroke="#63b8ff" d="M282.68,-274.98C274.19,-267.23 261.44,-255.58 251.12,-246.14"/>
<polygon fill="#63b8ff" stroke="#63b8ff" points="253.23,-243.33 243.49,-239.17 248.51,-248.5 253.23,-243.33"/>
</a>
</g>
</g>
<!-- Node24&#45;&gt;Node11 -->
<g id="edge35_Node000024_Node000011" class="edge">
<title>Node24&#45;&gt;Node11</title>
<g id="a_edge35_Node000024_Node000011"><a xlink:title=" ">
<path fill="none" stroke="#63b8ff" d="M391,-384.82C391,-366.48 391,-322.44 391,-285.5 391,-285.5 391,-285.5 391,-228.5 391,-184.36 345.38,-151.13 314.86,-133.85"/>
<polygon fill="#63b8ff" stroke="#63b8ff" points="316.4,-130.7 305.94,-129 313.06,-136.85 316.4,-130.7"/>
</a>
</g>
</g>
<!-- Node25 -->
<g id="Node000025" class="node">
<title>Node25</title>
<g id="a_Node000025"><a xlink:title=" ">
<polygon fill="#e0e0e0" stroke="#999999" points="465,-349 419,-349 419,-330 465,-330 465,-349"/>
<text text-anchor="middle" x="442" y="-337" font-family="Helvetica,sans-Serif" font-size="10.00">cstring</text>
</a>
</g>
</g>
<!-- Node24&#45;&gt;Node25 -->
<g id="edge34_Node000024_Node000025" class="edge">
<title>Node24&#45;&gt;Node25</title>
<g id="a_edge34_Node000024_Node000025"><a xlink:title=" ">
<path fill="none" stroke="#63b8ff" d="M399.42,-384.75C406.77,-377.11 417.63,-365.82 426.54,-356.56"/>
<polygon fill="#63b8ff" stroke="#63b8ff" points="429.32,-358.72 433.74,-349.09 424.28,-353.87 429.32,-358.72"/>
</a>
</g>
</g>
</g>
</svg>
