<?xml version="1.0" encoding="UTF-8" standalone="no"?>
<!DOCTYPE svg PUBLIC "-//W3C//DTD SVG 1.1//EN"
 "http://www.w3.org/Graphics/SVG/1.1/DTD/svg11.dtd">
<!-- Generated by graphviz version 2.47.1 (20210417.1919)
 -->
<!-- Title: AudioSampleQueueMatrix.h Pages: 1 -->
<svg width="594pt" height="86pt"
 viewBox="0.00 0.00 593.50 86.00" xmlns="http://www.w3.org/2000/svg" xmlns:xlink="http://www.w3.org/1999/xlink">
<g id="graph0" class="graph" transform="scale(1 1) rotate(0) translate(4 82)">
<title>AudioSampleQueueMatrix.h</title>
<polygon fill="white" stroke="transparent" points="-4,4 -4,-82 589.5,-82 589.5,4 -4,4"/>
<!-- Node1 -->
<g id="node1" class="node">
<title>Node1</title>
<g id="a_node1"><a xlink:title="The AudioSampleQueueMatrix specification defines a two&#45;dimensional list of ring buffers for audio sam...">
<polygon fill="#bfbfbf" stroke="black" points="197,-57.5 197,-77.5 349,-77.5 349,-57.5 197,-57.5"/>
<text text-anchor="middle" x="273" y="-64.7" font-family="Helvetica,sans-Serif" font-size="11.00">AudioSampleQueueMatrix.h</text>
</a>
</g>
</g>
<!-- Node2 -->
<g id="node2" class="node">
<title>Node2</title>
<g id="a_node2"><a xlink:href="_audio_sample_queue_matrix_8cpp.html" target="_top" xlink:title="The AudioSampleQueueMatrix body implements a two&#45;dimensional list of ring buffers for audio samples (...">
<polygon fill="white" stroke="black" points="0,-0.5 0,-20.5 164,-20.5 164,-0.5 0,-0.5"/>
<text text-anchor="middle" x="82" y="-7.7" font-family="Helvetica,sans-Serif" font-size="11.00">AudioSampleQueueMatrix.cpp</text>
</a>
</g>
</g>
<!-- Node1&#45;&gt;Node2 -->
<g id="edge1" class="edge">
<title>Node1&#45;&gt;Node2</title>
<path fill="none" stroke="midnightblue" d="M231.4,-54.52C195.84,-44.28 145.47,-29.78 113.27,-20.5"/>
<polygon fill="midnightblue" stroke="midnightblue" points="230.88,-58.01 241.46,-57.42 232.82,-51.29 230.88,-58.01"/>
</g>
<!-- Node3 -->
<g id="node3" class="node">
<title>Node3</title>
<g id="a_node3"><a xlink:href="_audio_sample_queue_matrix_8cpp-inc.html" target="_top" xlink:title="The AudioSampleQueueMatrix body implements a two&#45;dimensional list of ring buffers for audio samples (...">
<polygon fill="white" stroke="black" points="182,-0.5 182,-20.5 364,-20.5 364,-0.5 182,-0.5"/>
<text text-anchor="middle" x="273" y="-7.7" font-family="Helvetica,sans-Serif" font-size="11.00">AudioSampleQueueMatrix.cpp&#45;inc</text>
</a>
</g>
</g>
<!-- Node1&#45;&gt;Node3 -->
<g id="edge2" class="edge">
<title>Node1&#45;&gt;Node3</title>
<path fill="none" stroke="midnightblue" d="M266.54,-47.38C265.9,-38.37 266.32,-28.04 267.79,-20.78"/>
<polygon fill="midnightblue" stroke="midnightblue" points="263.08,-47.95 267.83,-57.42 270.02,-47.05 263.08,-47.95"/>
</g>
<!-- Node4 -->
<g id="node4" class="node">
<title>Node4</title>
<g id="a_node4"><a xlink:href="_fluid_synth_plugin___event_processor_8cpp.html" target="_top" xlink:title="The FluidSynthPlugin_Processor module implements the handling of MIDI events from the DAW via JUCE ha...">
<polygon fill="white" stroke="black" points="382.5,-0.5 382.5,-20.5 585.5,-20.5 585.5,-0.5 382.5,-0.5"/>
<text text-anchor="middle" x="484" y="-7.7" font-family="Helvetica,sans-Serif" font-size="11.00">FluidSynthPlugin_EventProcessor.cpp</text>
</a>
</g>
</g>
<!-- Node1&#45;&gt;Node4 -->
<g id="edge4" class="edge">
<title>Node1&#45;&gt;Node4</title>
<path fill="none" stroke="midnightblue" d="M317.7,-54.85C357.04,-44.59 413.5,-29.88 449.46,-20.5"/>
<polygon fill="midnightblue" stroke="midnightblue" points="316.64,-51.51 307.84,-57.42 318.4,-58.28 316.64,-51.51"/>
</g>
<!-- Node3&#45;&gt;Node1 -->
<g id="edge3" class="edge">
<title>Node3&#45;&gt;Node1</title>
<path fill="none" stroke="midnightblue" d="M279.48,-30.86C280.1,-39.9 279.66,-50.22 278.17,-57.42"/>
<polygon fill="midnightblue" stroke="midnightblue" points="282.93,-30.26 278.21,-20.78 275.99,-31.14 282.93,-30.26"/>
</g>
</g>
</svg>
