<?xml version="1.0" encoding="UTF-8" standalone="no"?>
<!DOCTYPE svg PUBLIC "-//W3C//DTD SVG 1.1//EN"
 "http://www.w3.org/Graphics/SVG/1.1/DTD/svg11.dtd">
<!-- Generated by graphviz version 2.47.1 (20210417.1919)
 -->
<!-- Title: AudioSample.h Pages: 1 -->
<svg width="316pt" height="428pt"
 viewBox="0.00 0.00 316.00 428.00" xmlns="http://www.w3.org/2000/svg" xmlns:xlink="http://www.w3.org/1999/xlink">
<g id="graph0" class="graph" transform="scale(1 1) rotate(0) translate(4 424)">
<title>AudioSample.h</title>
<polygon fill="white" stroke="transparent" points="-4,4 -4,-424 312,-424 312,4 -4,4"/>
<!-- Node1 -->
<g id="node1" class="node">
<title>Node1</title>
<g id="a_node1"><a xlink:title="The AudioSample specification and body provides the definition of the audio sample (a real value).">
<polygon fill="#bfbfbf" stroke="black" points="0,-399.5 0,-419.5 90,-419.5 90,-399.5 0,-399.5"/>
<text text-anchor="middle" x="45" y="-406.7" font-family="Helvetica,sans-Serif" font-size="11.00">AudioSample.h</text>
</a>
</g>
</g>
<!-- Node2 -->
<g id="node2" class="node">
<title>Node2</title>
<g id="a_node2"><a xlink:href="_real_8h.html" target="_top" xlink:title="The Real specification defines a value object type for real values.">
<polygon fill="white" stroke="black" points="21,-342.5 21,-362.5 69,-362.5 69,-342.5 21,-342.5"/>
<text text-anchor="middle" x="45" y="-349.7" font-family="Helvetica,sans-Serif" font-size="11.00">Real.h</text>
</a>
</g>
</g>
<!-- Node1&#45;&gt;Node2 -->
<g id="edge1" class="edge">
<title>Node1&#45;&gt;Node2</title>
<path fill="none" stroke="midnightblue" d="M45,-399.42C45,-392.22 45,-381.9 45,-372.86"/>
<polygon fill="midnightblue" stroke="midnightblue" points="48.5,-372.78 45,-362.78 41.5,-372.78 48.5,-372.78"/>
</g>
<!-- Node3 -->
<g id="node3" class="node">
<title>Node3</title>
<g id="a_node3"><a xlink:title=" ">
<polygon fill="white" stroke="#bfbfbf" points="30.5,-171.5 30.5,-191.5 77.5,-191.5 77.5,-171.5 30.5,-171.5"/>
<text text-anchor="middle" x="54" y="-178.7" font-family="Helvetica,sans-Serif" font-size="11.00">cmath</text>
</a>
</g>
</g>
<!-- Node2&#45;&gt;Node3 -->
<g id="edge2" class="edge">
<title>Node2&#45;&gt;Node3</title>
<path fill="none" stroke="midnightblue" d="M45.48,-342.41C46.89,-315.94 51.02,-238.42 52.97,-201.92"/>
<polygon fill="midnightblue" stroke="midnightblue" points="56.48,-201.8 53.51,-191.63 49.49,-201.43 56.48,-201.8"/>
</g>
<!-- Node4 -->
<g id="node4" class="node">
<title>Node4</title>
<g id="a_node4"><a xlink:href="_integer_8h.html" target="_top" xlink:title="The Integer specification and body provides a value object type for ints.">
<polygon fill="white" stroke="black" points="64.5,-285.5 64.5,-305.5 123.5,-305.5 123.5,-285.5 64.5,-285.5"/>
<text text-anchor="middle" x="94" y="-292.7" font-family="Helvetica,sans-Serif" font-size="11.00">Integer.h</text>
</a>
</g>
</g>
<!-- Node2&#45;&gt;Node4 -->
<g id="edge3" class="edge">
<title>Node2&#45;&gt;Node4</title>
<path fill="none" stroke="midnightblue" d="M53.09,-342.42C60.07,-334.58 70.34,-323.06 78.84,-313.51"/>
<polygon fill="midnightblue" stroke="midnightblue" points="81.69,-315.57 85.73,-305.78 76.47,-310.92 81.69,-315.57"/>
</g>
<!-- Node4&#45;&gt;Node3 -->
<g id="edge4" class="edge">
<title>Node4&#45;&gt;Node3</title>
<path fill="none" stroke="midnightblue" d="M89.23,-285.27C84.66,-276.2 77.78,-261.89 73,-249 67.19,-233.35 62.09,-215.08 58.64,-201.65"/>
<polygon fill="midnightblue" stroke="midnightblue" points="61.96,-200.53 56.15,-191.68 55.17,-202.23 61.96,-200.53"/>
</g>
<!-- Node5 -->
<g id="node5" class="node">
<title>Node5</title>
<g id="a_node5"><a xlink:title=" ">
<polygon fill="white" stroke="#bfbfbf" points="82,-228.5 82,-248.5 146,-248.5 146,-228.5 82,-228.5"/>
<text text-anchor="middle" x="114" y="-235.7" font-family="Helvetica,sans-Serif" font-size="11.00">stdexcept</text>
</a>
</g>
</g>
<!-- Node4&#45;&gt;Node5 -->
<g id="edge5" class="edge">
<title>Node4&#45;&gt;Node5</title>
<path fill="none" stroke="midnightblue" d="M97.3,-285.42C99.98,-278.06 103.84,-267.44 107.17,-258.27"/>
<polygon fill="midnightblue" stroke="midnightblue" points="110.5,-259.37 110.63,-248.78 103.92,-256.98 110.5,-259.37"/>
</g>
<!-- Node6 -->
<g id="node6" class="node">
<title>Node6</title>
<g id="a_node6"><a xlink:href="_natural_8h.html" target="_top" xlink:title="The Natural specification and body provides a value object type for naturals (positive integers with ...">
<polygon fill="white" stroke="black" points="164,-228.5 164,-248.5 224,-248.5 224,-228.5 164,-228.5"/>
<text text-anchor="middle" x="194" y="-235.7" font-family="Helvetica,sans-Serif" font-size="11.00">Natural.h</text>
</a>
</g>
</g>
<!-- Node4&#45;&gt;Node6 -->
<g id="edge6" class="edge">
<title>Node4&#45;&gt;Node6</title>
<path fill="none" stroke="midnightblue" d="M110.51,-285.42C126.29,-276.74 150.3,-263.53 168.53,-253.51"/>
<polygon fill="midnightblue" stroke="midnightblue" points="170.39,-256.48 177.46,-248.6 167.01,-250.35 170.39,-256.48"/>
</g>
<!-- Node6&#45;&gt;Node3 -->
<g id="edge7" class="edge">
<title>Node6&#45;&gt;Node3</title>
<path fill="none" stroke="midnightblue" d="M170.88,-228.42C147.88,-219.38 112.38,-205.44 86.54,-195.28"/>
<polygon fill="midnightblue" stroke="midnightblue" points="87.74,-191.99 77.15,-191.6 85.18,-198.51 87.74,-191.99"/>
</g>
<!-- Node7 -->
<g id="node7" class="node">
<title>Node7</title>
<g id="a_node7"><a xlink:href="_generic_number_8h.html" target="_top" xlink:title="The GenericNumber specification and body defines a template for wrapper objects for elementary numeri...">
<polygon fill="white" stroke="black" points="118.5,-171.5 118.5,-191.5 221.5,-191.5 221.5,-171.5 118.5,-171.5"/>
<text text-anchor="middle" x="170" y="-178.7" font-family="Helvetica,sans-Serif" font-size="11.00">GenericNumber.h</text>
</a>
</g>
</g>
<!-- Node6&#45;&gt;Node7 -->
<g id="edge8" class="edge">
<title>Node6&#45;&gt;Node7</title>
<path fill="none" stroke="midnightblue" d="M190.04,-228.42C186.79,-220.98 182.09,-210.21 178.06,-200.97"/>
<polygon fill="midnightblue" stroke="midnightblue" points="181.26,-199.55 174.05,-191.78 174.84,-202.34 181.26,-199.55"/>
</g>
<!-- Node10 -->
<g id="node10" class="node">
<title>Node10</title>
<g id="a_node10"><a xlink:href="_my_string_8h.html" target="_top" xlink:title="The String specification defines a standard string type.">
<polygon fill="white" stroke="black" points="185,-57.5 185,-77.5 253,-77.5 253,-57.5 185,-57.5"/>
<text text-anchor="middle" x="219" y="-64.7" font-family="Helvetica,sans-Serif" font-size="11.00">MyString.h</text>
</a>
</g>
</g>
<!-- Node6&#45;&gt;Node10 -->
<g id="edge14" class="edge">
<title>Node6&#45;&gt;Node10</title>
<path fill="none" stroke="midnightblue" d="M204.51,-228.23C213.22,-219.79 224.97,-206.46 230,-192 242.32,-156.58 232.78,-112.17 225.42,-87.41"/>
<polygon fill="midnightblue" stroke="midnightblue" points="228.74,-86.28 222.38,-77.81 222.06,-88.4 228.74,-86.28"/>
</g>
<!-- Node8 -->
<g id="node8" class="node">
<title>Node8</title>
<g id="a_node8"><a xlink:title=" ">
<polygon fill="white" stroke="#bfbfbf" points="96,-114.5 96,-134.5 138,-134.5 138,-114.5 96,-114.5"/>
<text text-anchor="middle" x="117" y="-121.7" font-family="Helvetica,sans-Serif" font-size="11.00">limits</text>
</a>
</g>
</g>
<!-- Node7&#45;&gt;Node8 -->
<g id="edge9" class="edge">
<title>Node7&#45;&gt;Node8</title>
<path fill="none" stroke="midnightblue" d="M161.25,-171.42C153.62,-163.5 142.37,-151.82 133.12,-142.23"/>
<polygon fill="midnightblue" stroke="midnightblue" points="135.4,-139.55 125.94,-134.78 130.36,-144.41 135.4,-139.55"/>
</g>
<!-- Node9 -->
<g id="node9" class="node">
<title>Node9</title>
<g id="a_node9"><a xlink:href="_boolean_8h.html" target="_top" xlink:title="The Boolean specification and body provides a value object type for boolean values.">
<polygon fill="white" stroke="black" points="156.5,-114.5 156.5,-134.5 221.5,-134.5 221.5,-114.5 156.5,-114.5"/>
<text text-anchor="middle" x="189" y="-121.7" font-family="Helvetica,sans-Serif" font-size="11.00">Boolean.h</text>
</a>
</g>
</g>
<!-- Node7&#45;&gt;Node9 -->
<g id="edge10" class="edge">
<title>Node7&#45;&gt;Node9</title>
<path fill="none" stroke="midnightblue" d="M173.14,-171.42C175.68,-164.06 179.35,-153.44 182.52,-144.27"/>
<polygon fill="midnightblue" stroke="midnightblue" points="185.84,-145.37 185.79,-134.78 179.22,-143.09 185.84,-145.37"/>
</g>
<!-- Node9&#45;&gt;Node10 -->
<g id="edge11" class="edge">
<title>Node9&#45;&gt;Node10</title>
<path fill="none" stroke="midnightblue" d="M193.95,-114.42C198.05,-106.9 204.01,-95.98 209.08,-86.68"/>
<polygon fill="midnightblue" stroke="midnightblue" points="212.22,-88.23 213.94,-77.78 206.08,-84.88 212.22,-88.23"/>
</g>
<!-- Node11 -->
<g id="node11" class="node">
<title>Node11</title>
<g id="a_node11"><a xlink:title=" ">
<polygon fill="white" stroke="#bfbfbf" points="154,-0.5 154,-20.5 198,-20.5 198,-0.5 154,-0.5"/>
<text text-anchor="middle" x="176" y="-7.7" font-family="Helvetica,sans-Serif" font-size="11.00">string</text>
</a>
</g>
</g>
<!-- Node10&#45;&gt;Node11 -->
<g id="edge12" class="edge">
<title>Node10&#45;&gt;Node11</title>
<path fill="none" stroke="midnightblue" d="M211.9,-57.42C205.84,-49.66 196.94,-38.29 189.53,-28.8"/>
<polygon fill="midnightblue" stroke="midnightblue" points="192.17,-26.5 183.25,-20.78 186.66,-30.81 192.17,-26.5"/>
</g>
<!-- Node12 -->
<g id="node12" class="node">
<title>Node12</title>
<g id="a_node12"><a xlink:href="_global_macros_8h.html" target="_top" xlink:title="The GlobalMacros specification defines simple macros (e.g. for parameter modes).">
<polygon fill="white" stroke="black" points="216,-0.5 216,-20.5 308,-20.5 308,-0.5 216,-0.5"/>
<text text-anchor="middle" x="262" y="-7.7" font-family="Helvetica,sans-Serif" font-size="11.00">GlobalMacros.h</text>
</a>
</g>
</g>
<!-- Node10&#45;&gt;Node12 -->
<g id="edge13" class="edge">
<title>Node10&#45;&gt;Node12</title>
<path fill="none" stroke="midnightblue" d="M226.1,-57.42C232.16,-49.66 241.06,-38.29 248.47,-28.8"/>
<polygon fill="midnightblue" stroke="midnightblue" points="251.34,-30.81 254.75,-20.78 245.83,-26.5 251.34,-30.81"/>
</g>
</g>
</svg>
