<?xml version="1.0" encoding="UTF-8" standalone="no"?>
<!DOCTYPE svg PUBLIC "-//W3C//DTD SVG 1.1//EN"
 "http://www.w3.org/Graphics/SVG/1.1/DTD/svg11.dtd">
<!-- Generated by graphviz version 2.47.1 (20210417.1919)
 -->
<!-- Title: AudioSampleQueue.cpp&#45;inc Pages: 1 -->
<!--zoomable 542 -->
<svg id="main" version="1.1" xmlns="http://www.w3.org/2000/svg" xmlns:xlink="http://www.w3.org/1999/xlink" xml:space="preserve" onload="init(evt)">
<style type="text/css"><![CDATA[
.edge:hover path { stroke: red; }
.edge:hover polygon { stroke: red; fill: red; }
]]></style>
<script type="text/javascript"><![CDATA[
var edges = document.getElementsByTagName('g');
if (edges && edges.length) {
  for (var i=0;i<edges.length;i++) {
    if (edges[i].id.substr(0,4)=='edge') {
      edges[i].setAttribute('class','edge');
    }
  }
}
]]></script>
        <defs>
                <circle id="rim" cx="0" cy="0" r="7"/>
                <circle id="rim2" cx="0" cy="0" r="3.5"/>
                <g id="zoomPlus">
                        <use xlink:href="#rim" fill="#404040">
                                <set attributeName="fill" to="#808080" begin="zoomplus.mouseover" end="zoomplus.mouseout"/>
                        </use>
                        <path d="M-4,0h8M0,-4v8" fill="none" stroke="white" stroke-width="1.5" pointer-events="none"/>
                </g>
                <g id="zoomMin">
                        <use xlink:href="#rim" fill="#404040">
                                <set attributeName="fill" to="#808080" begin="zoomminus.mouseover" end="zoomminus.mouseout"/>
                        </use>
                        <path d="M-4,0h8" fill="none" stroke="white" stroke-width="1.5" pointer-events="none"/>
                </g>
                <g id="dirArrow">
                        <path fill="none" stroke="white" stroke-width="1.5" d="M0,-3.0v7 M-2.5,-0.5L0,-3.0L2.5,-0.5"/>
                </g>
               <g id="resetDef">
                       <use xlink:href="#rim2" fill="#404040">
                               <set attributeName="fill" to="#808080" begin="reset.mouseover" end="reset.mouseout"/>
                       </use>
               </g>
        </defs>

<script type="text/javascript">
var viewWidth = 1004;
var viewHeight = 542;
var sectionId = 'dynsection-0';
</script>
<script xlink:href="svgpan.js"/>
<svg id="graph" class="graph">
<g id="viewport">
<title>AudioSampleQueue.cpp&#45;inc</title>
<polygon fill="white" stroke="transparent" points="-4,4 -4,-538 1000,-538 1000,4 -4,4"/>
<!-- Node1 -->
<g id="node1" class="node">
<title>Node1</title>
<g id="a_node1"><a xlink:title="The AudioSampleQueue body implements a ring buffer for audio samples with left and right shifts and a...">
<polygon fill="#bfbfbf" stroke="black" points="261.5,-513.5 261.5,-533.5 414.5,-533.5 414.5,-513.5 261.5,-513.5"/>
<text text-anchor="middle" x="338" y="-520.7" font-family="Helvetica,sans-Serif" font-size="11.00">AudioSampleQueue.cpp&#45;inc</text>
</a>
</g>
</g>
<!-- Node2 -->
<g id="node2" class="node">
<title>Node2</title>
<g id="a_node2"><a xlink:href="_assertion_8h.html" target="_top" xlink:title="The Assertion specification defines macros for pre&#45; and postconditions in functions or methods.">
<polygon fill="white" stroke="black" points="232.5,-456.5 232.5,-476.5 303.5,-476.5 303.5,-456.5 232.5,-456.5"/>
<text text-anchor="middle" x="268" y="-463.7" font-family="Helvetica,sans-Serif" font-size="11.00">Assertion.h</text>
</a>
</g>
</g>
<!-- Node1&#45;&gt;Node2 -->
<g id="edge1" class="edge">
<title>Node1&#45;&gt;Node2</title>
<path fill="none" stroke="midnightblue" d="M326.44,-513.42C315.97,-505.19 300.31,-492.88 287.83,-483.08"/>
<polygon fill="midnightblue" stroke="midnightblue" points="289.84,-480.21 279.81,-476.78 285.51,-485.71 289.84,-480.21"/>
</g>
<!-- Node4 -->
<g id="node4" class="node">
<title>Node4</title>
<g id="a_node4"><a xlink:href="_my_array_8h.html" target="_top" xlink:title="The MyArray specification and body defines a generic array type for stack allocated arrays represente...">
<polygon fill="white" stroke="black" points="305.5,-399.5 305.5,-419.5 370.5,-419.5 370.5,-399.5 305.5,-399.5"/>
<text text-anchor="middle" x="338" y="-406.7" font-family="Helvetica,sans-Serif" font-size="11.00">MyArray.h</text>
</a>
</g>
</g>
<!-- Node1&#45;&gt;Node4 -->
<g id="edge3" class="edge">
<title>Node1&#45;&gt;Node4</title>
<path fill="none" stroke="midnightblue" d="M338,-513.33C338,-495.2 338,-454.41 338,-430"/>
<polygon fill="midnightblue" stroke="midnightblue" points="341.5,-429.79 338,-419.79 334.5,-429.79 341.5,-429.79"/>
</g>
<!-- Node13 -->
<g id="node13" class="node">
<title>Node13</title>
<g id="a_node13"><a xlink:href="_string_util_8h.html" target="_top" xlink:title="The StringUtil specification defines several string routines not included in the standard C++ library...">
<polygon fill="white" stroke="black" points="595.5,-456.5 595.5,-476.5 664.5,-476.5 664.5,-456.5 595.5,-456.5"/>
<text text-anchor="middle" x="630" y="-463.7" font-family="Helvetica,sans-Serif" font-size="11.00">StringUtil.h</text>
</a>
</g>
</g>
<!-- Node1&#45;&gt;Node13 -->
<g id="edge16" class="edge">
<title>Node1&#45;&gt;Node13</title>
<path fill="none" stroke="midnightblue" d="M385.89,-513.48C441.22,-503.06 531.53,-486.05 585.42,-475.9"/>
<polygon fill="midnightblue" stroke="midnightblue" points="586.18,-479.31 595.36,-474.02 584.89,-472.44 586.18,-479.31"/>
</g>
<!-- Node3 -->
<g id="node3" class="node">
<title>Node3</title>
<g id="a_node3"><a xlink:title=" ">
<polygon fill="white" stroke="#bfbfbf" points="234.5,-399.5 234.5,-419.5 287.5,-419.5 287.5,-399.5 234.5,-399.5"/>
<text text-anchor="middle" x="261" y="-406.7" font-family="Helvetica,sans-Serif" font-size="11.00">cassert</text>
</a>
</g>
</g>
<!-- Node2&#45;&gt;Node3 -->
<g id="edge2" class="edge">
<title>Node2&#45;&gt;Node3</title>
<path fill="none" stroke="midnightblue" d="M266.84,-456.42C265.93,-449.22 264.61,-438.9 263.46,-429.86"/>
<polygon fill="midnightblue" stroke="midnightblue" points="266.92,-429.26 262.18,-419.78 259.97,-430.14 266.92,-429.26"/>
</g>
<!-- Node5 -->
<g id="node5" class="node">
<title>Node5</title>
<g id="a_node5"><a xlink:href="_natural_8h.html" target="_top" xlink:title="The Natural specification and body provides a value object type for naturals (positive integers with ...">
<polygon fill="white" stroke="black" points="376,-228.5 376,-248.5 436,-248.5 436,-228.5 376,-228.5"/>
<text text-anchor="middle" x="406" y="-235.7" font-family="Helvetica,sans-Serif" font-size="11.00">Natural.h</text>
</a>
</g>
</g>
<!-- Node4&#45;&gt;Node5 -->
<g id="edge4" class="edge">
<title>Node4&#45;&gt;Node5</title>
<path fill="none" stroke="midnightblue" d="M341.66,-399.41C352.4,-372.71 384.04,-294.07 398.56,-257.98"/>
<polygon fill="midnightblue" stroke="midnightblue" points="401.84,-259.21 402.33,-248.63 395.35,-256.6 401.84,-259.21"/>
</g>
<!-- Node6 -->
<g id="node6" class="node">
<title>Node6</title>
<g id="a_node6"><a xlink:title=" ">
<polygon fill="white" stroke="#bfbfbf" points="343.5,-171.5 343.5,-191.5 390.5,-191.5 390.5,-171.5 343.5,-171.5"/>
<text text-anchor="middle" x="367" y="-178.7" font-family="Helvetica,sans-Serif" font-size="11.00">cmath</text>
</a>
</g>
</g>
<!-- Node5&#45;&gt;Node6 -->
<g id="edge5" class="edge">
<title>Node5&#45;&gt;Node6</title>
<path fill="none" stroke="midnightblue" d="M399.56,-228.42C394.12,-220.74 386.16,-209.52 379.48,-200.09"/>
<polygon fill="midnightblue" stroke="midnightblue" points="382.22,-197.91 373.58,-191.78 376.51,-201.96 382.22,-197.91"/>
</g>
<!-- Node7 -->
<g id="node7" class="node">
<title>Node7</title>
<g id="a_node7"><a xlink:href="_global_macros_8h.html" target="_top" xlink:title="The GlobalMacros specification defines simple macros (e.g. for parameter modes).">
<polygon fill="white" stroke="black" points="551,-0.5 551,-20.5 643,-20.5 643,-0.5 551,-0.5"/>
<text text-anchor="middle" x="597" y="-7.7" font-family="Helvetica,sans-Serif" font-size="11.00">GlobalMacros.h</text>
</a>
</g>
</g>
<!-- Node5&#45;&gt;Node7 -->
<g id="edge6" class="edge">
<title>Node5&#45;&gt;Node7</title>
<path fill="none" stroke="midnightblue" d="M378.52,-228.48C351.14,-217.78 314.79,-197.94 327,-171 366.38,-84.09 478.38,-41.43 545.11,-23.16"/>
<polygon fill="midnightblue" stroke="midnightblue" points="546.25,-26.48 555.02,-20.53 544.45,-19.71 546.25,-26.48"/>
</g>
<!-- Node8 -->
<g id="node8" class="node">
<title>Node8</title>
<g id="a_node8"><a xlink:href="_generic_number_8h.html" target="_top" xlink:title="The GenericNumber specification and body defines a template for wrapper objects for elementary numeri...">
<polygon fill="white" stroke="black" points="408.5,-171.5 408.5,-191.5 511.5,-191.5 511.5,-171.5 408.5,-171.5"/>
<text text-anchor="middle" x="460" y="-178.7" font-family="Helvetica,sans-Serif" font-size="11.00">GenericNumber.h</text>
</a>
</g>
</g>
<!-- Node5&#45;&gt;Node8 -->
<g id="edge7" class="edge">
<title>Node5&#45;&gt;Node8</title>
<path fill="none" stroke="midnightblue" d="M414.92,-228.42C422.76,-220.42 434.38,-208.59 443.86,-198.94"/>
<polygon fill="midnightblue" stroke="midnightblue" points="446.38,-201.37 450.89,-191.78 441.39,-196.46 446.38,-201.37"/>
</g>
<!-- Node11 -->
<g id="node11" class="node">
<title>Node11</title>
<g id="a_node11"><a xlink:href="_my_string_8h.html" target="_top" xlink:title="The String specification defines a standard string type.">
<polygon fill="white" stroke="black" points="689,-57.5 689,-77.5 757,-77.5 757,-57.5 689,-57.5"/>
<text text-anchor="middle" x="723" y="-64.7" font-family="Helvetica,sans-Serif" font-size="11.00">MyString.h</text>
</a>
</g>
</g>
<!-- Node5&#45;&gt;Node11 -->
<g id="edge15" class="edge">
<title>Node5&#45;&gt;Node11</title>
<path fill="none" stroke="midnightblue" d="M381.78,-228.34C355.71,-216.97 319.77,-195.99 334,-171 358.55,-127.88 383.3,-130.78 430,-114 514.55,-83.62 619.99,-73.52 678.55,-70.16"/>
<polygon fill="midnightblue" stroke="midnightblue" points="678.77,-73.65 688.57,-69.63 678.4,-66.66 678.77,-73.65"/>
</g>
<!-- Node8&#45;&gt;Node7 -->
<g id="edge9" class="edge">
<title>Node8&#45;&gt;Node7</title>
<path fill="none" stroke="midnightblue" d="M450.28,-171.22C437.8,-158.14 418.99,-133.67 430,-114 456.63,-66.42 515.38,-38.24 555.59,-23.82"/>
<polygon fill="midnightblue" stroke="midnightblue" points="556.81,-27.1 565.13,-20.53 554.53,-20.48 556.81,-27.1"/>
</g>
<!-- Node9 -->
<g id="node9" class="node">
<title>Node9</title>
<g id="a_node9"><a xlink:title=" ">
<polygon fill="white" stroke="#bfbfbf" points="439,-114.5 439,-134.5 481,-134.5 481,-114.5 439,-114.5"/>
<text text-anchor="middle" x="460" y="-121.7" font-family="Helvetica,sans-Serif" font-size="11.00">limits</text>
</a>
</g>
</g>
<!-- Node8&#45;&gt;Node9 -->
<g id="edge8" class="edge">
<title>Node8&#45;&gt;Node9</title>
<path fill="none" stroke="midnightblue" d="M460,-171.42C460,-164.22 460,-153.9 460,-144.86"/>
<polygon fill="midnightblue" stroke="midnightblue" points="463.5,-144.78 460,-134.78 456.5,-144.78 463.5,-144.78"/>
</g>
<!-- Node10 -->
<g id="node10" class="node">
<title>Node10</title>
<g id="a_node10"><a xlink:href="_boolean_8h.html" target="_top" xlink:title="The Boolean specification and body provides a value object type for boolean values.">
<polygon fill="white" stroke="black" points="864.5,-114.5 864.5,-134.5 929.5,-134.5 929.5,-114.5 864.5,-114.5"/>
<text text-anchor="middle" x="897" y="-121.7" font-family="Helvetica,sans-Serif" font-size="11.00">Boolean.h</text>
</a>
</g>
</g>
<!-- Node8&#45;&gt;Node10 -->
<g id="edge10" class="edge">
<title>Node8&#45;&gt;Node10</title>
<path fill="none" stroke="midnightblue" d="M511.85,-173.97C599.04,-163 773.42,-141.05 854.16,-130.89"/>
<polygon fill="midnightblue" stroke="midnightblue" points="854.97,-134.32 864.45,-129.6 854.09,-127.37 854.97,-134.32"/>
</g>
<!-- Node10&#45;&gt;Node7 -->
<g id="edge11" class="edge">
<title>Node10&#45;&gt;Node7</title>
<path fill="none" stroke="midnightblue" d="M881.75,-114.44C857.79,-100.52 809.58,-73.72 766,-57 728.21,-42.5 683.98,-30.77 650.26,-22.85"/>
<polygon fill="midnightblue" stroke="midnightblue" points="650.67,-19.36 640.14,-20.52 649.1,-26.18 650.67,-19.36"/>
</g>
<!-- Node10&#45;&gt;Node11 -->
<g id="edge12" class="edge">
<title>Node10&#45;&gt;Node11</title>
<path fill="none" stroke="midnightblue" d="M868.27,-114.42C838.96,-105.15 793.34,-90.73 761.05,-80.53"/>
<polygon fill="midnightblue" stroke="midnightblue" points="762.08,-77.18 751.49,-77.5 759.97,-83.86 762.08,-77.18"/>
</g>
<!-- Node11&#45;&gt;Node7 -->
<g id="edge14" class="edge">
<title>Node11&#45;&gt;Node7</title>
<path fill="none" stroke="midnightblue" d="M702.19,-57.42C681.77,-48.5 650.39,-34.8 627.21,-24.69"/>
<polygon fill="midnightblue" stroke="midnightblue" points="628.4,-21.39 617.84,-20.6 625.6,-27.8 628.4,-21.39"/>
</g>
<!-- Node12 -->
<g id="node12" class="node">
<title>Node12</title>
<g id="a_node12"><a xlink:title=" ">
<polygon fill="white" stroke="#bfbfbf" points="701,-0.5 701,-20.5 745,-20.5 745,-0.5 701,-0.5"/>
<text text-anchor="middle" x="723" y="-7.7" font-family="Helvetica,sans-Serif" font-size="11.00">string</text>
</a>
</g>
</g>
<!-- Node11&#45;&gt;Node12 -->
<g id="edge13" class="edge">
<title>Node11&#45;&gt;Node12</title>
<path fill="none" stroke="midnightblue" d="M723,-57.42C723,-50.22 723,-39.9 723,-30.86"/>
<polygon fill="midnightblue" stroke="midnightblue" points="726.5,-30.78 723,-20.78 719.5,-30.78 726.5,-30.78"/>
</g>
<!-- Node13&#45;&gt;Node5 -->
<g id="edge38" class="edge">
<title>Node13&#45;&gt;Node5</title>
<path fill="none" stroke="midnightblue" d="M620.94,-456.36C586.88,-422 466.22,-300.26 422.21,-255.86"/>
<polygon fill="midnightblue" stroke="midnightblue" points="424.45,-253.14 414.93,-248.51 419.48,-258.07 424.45,-253.14"/>
</g>
<!-- Node13&#45;&gt;Node7 -->
<g id="edge17" class="edge">
<title>Node13&#45;&gt;Node7</title>
<path fill="none" stroke="midnightblue" d="M664.71,-465.28C719.18,-463.77 827.11,-455.99 910,-420 954.32,-400.76 996,-401.82 996,-353.5 996,-353.5 996,-353.5 996,-123.5 996,-88.31 762.97,-41.49 653.08,-21.37"/>
<polygon fill="midnightblue" stroke="midnightblue" points="653.63,-17.92 643.16,-19.57 652.37,-24.8 653.63,-17.92"/>
</g>
<!-- Node13&#45;&gt;Node10 -->
<g id="edge18" class="edge">
<title>Node13&#45;&gt;Node10</title>
<path fill="none" stroke="midnightblue" d="M664.69,-459.67C741.67,-445.76 920,-407.67 920,-353.5 920,-353.5 920,-353.5 920,-237.5 920,-204.22 910.13,-166.49 903.32,-144.41"/>
<polygon fill="midnightblue" stroke="midnightblue" points="906.58,-143.12 900.2,-134.66 899.92,-145.25 906.58,-143.12"/>
</g>
<!-- Node13&#45;&gt;Node11 -->
<g id="edge46" class="edge">
<title>Node13&#45;&gt;Node11</title>
<path fill="none" stroke="midnightblue" d="M664.59,-463.52C711.83,-459.78 798.4,-449.23 866,-420 912.31,-399.97 958,-403.95 958,-353.5 958,-353.5 958,-353.5 958,-180.5 958,-149.76 961.49,-134.95 939,-114 914.52,-91.19 822.93,-78.33 767.17,-72.45"/>
<polygon fill="midnightblue" stroke="midnightblue" points="767.51,-68.97 757.2,-71.44 766.8,-75.93 767.51,-68.97"/>
</g>
<!-- Node14 -->
<g id="node14" class="node">
<title>Node14</title>
<g id="a_node14"><a xlink:href="_byte_8h.html" target="_top" xlink:title="The Byte specification and body provides a value object type for byte values.">
<polygon fill="white" stroke="black" points="626.5,-285.5 626.5,-305.5 673.5,-305.5 673.5,-285.5 626.5,-285.5"/>
<text text-anchor="middle" x="650" y="-292.7" font-family="Helvetica,sans-Serif" font-size="11.00">Byte.h</text>
</a>
</g>
</g>
<!-- Node13&#45;&gt;Node14 -->
<g id="edge19" class="edge">
<title>Node13&#45;&gt;Node14</title>
<path fill="none" stroke="midnightblue" d="M631.08,-456.41C634.21,-429.94 643.38,-352.42 647.7,-315.92"/>
<polygon fill="midnightblue" stroke="midnightblue" points="651.22,-315.97 648.92,-305.63 644.27,-315.15 651.22,-315.97"/>
</g>
<!-- Node15 -->
<g id="node15" class="node">
<title>Node15</title>
<g id="a_node15"><a xlink:href="_character_8h.html" target="_top" xlink:title="The Character specification and body provides a value object type for character values.">
<polygon fill="white" stroke="black" points="534,-285.5 534,-305.5 608,-305.5 608,-285.5 534,-285.5"/>
<text text-anchor="middle" x="571" y="-292.7" font-family="Helvetica,sans-Serif" font-size="11.00">Character.h</text>
</a>
</g>
</g>
<!-- Node13&#45;&gt;Node15 -->
<g id="edge25" class="edge">
<title>Node13&#45;&gt;Node15</title>
<path fill="none" stroke="midnightblue" d="M626.83,-456.41C617.54,-429.82 590.29,-351.74 577.62,-315.45"/>
<polygon fill="midnightblue" stroke="midnightblue" points="580.79,-313.92 574.19,-305.63 574.18,-316.23 580.79,-313.92"/>
</g>
<!-- Node16 -->
<g id="node16" class="node">
<title>Node16</title>
<g id="a_node16"><a xlink:href="_integer_8h.html" target="_top" xlink:title="The Integer specification and body provides a value object type for ints.">
<polygon fill="white" stroke="black" points="273.5,-285.5 273.5,-305.5 332.5,-305.5 332.5,-285.5 273.5,-285.5"/>
<text text-anchor="middle" x="303" y="-292.7" font-family="Helvetica,sans-Serif" font-size="11.00">Integer.h</text>
</a>
</g>
</g>
<!-- Node13&#45;&gt;Node16 -->
<g id="edge31" class="edge">
<title>Node13&#45;&gt;Node16</title>
<path fill="none" stroke="midnightblue" d="M595.21,-460.33C559.98,-454.14 504.63,-441.79 461,-420 403.42,-391.24 346.6,-339.61 319.48,-313.14"/>
<polygon fill="midnightblue" stroke="midnightblue" points="321.61,-310.33 312.04,-305.79 316.69,-315.31 321.61,-310.33"/>
</g>
<!-- Node18 -->
<g id="node18" class="node">
<title>Node18</title>
<g id="a_node18"><a xlink:href="_real_8h.html" target="_top" xlink:title="The Real specification defines a value object type for real values.">
<polygon fill="white" stroke="black" points="128,-342.5 128,-362.5 176,-362.5 176,-342.5 128,-342.5"/>
<text text-anchor="middle" x="152" y="-349.7" font-family="Helvetica,sans-Serif" font-size="11.00">Real.h</text>
</a>
</g>
</g>
<!-- Node13&#45;&gt;Node18 -->
<g id="edge39" class="edge">
<title>Node13&#45;&gt;Node18</title>
<path fill="none" stroke="midnightblue" d="M595.27,-460.37C553.61,-453.64 481.99,-440.26 423,-420 402.51,-412.96 399.56,-405.85 379,-399 312.45,-376.83 231.15,-363.74 186.13,-357.66"/>
<polygon fill="midnightblue" stroke="midnightblue" points="186.4,-354.16 176.03,-356.33 185.49,-361.1 186.4,-354.16"/>
</g>
<!-- Node19 -->
<g id="node19" class="node">
<title>Node19</title>
<g id="a_node19"><a xlink:href="_string_list_8h.html" target="_top" xlink:title="The StringList specification defines sequences of string values with zero&#45;based arbitrary indexed acc...">
<polygon fill="white" stroke="black" points="709.5,-399.5 709.5,-419.5 780.5,-419.5 780.5,-399.5 709.5,-399.5"/>
<text text-anchor="middle" x="745" y="-406.7" font-family="Helvetica,sans-Serif" font-size="11.00">StringList.h</text>
</a>
</g>
</g>
<!-- Node13&#45;&gt;Node19 -->
<g id="edge47" class="edge">
<title>Node13&#45;&gt;Node19</title>
<path fill="none" stroke="midnightblue" d="M648.99,-456.42C667.47,-447.58 695.76,-434.05 716.86,-423.96"/>
<polygon fill="midnightblue" stroke="midnightblue" points="718.47,-427.07 725.98,-419.6 715.45,-420.75 718.47,-427.07"/>
</g>
<!-- Node14&#45;&gt;Node5 -->
<g id="edge23" class="edge">
<title>Node14&#45;&gt;Node5</title>
<path fill="none" stroke="midnightblue" d="M626.26,-287.46C623.15,-286.6 620.01,-285.76 617,-285 557.91,-270.14 488.76,-255.8 446.17,-247.32"/>
<polygon fill="midnightblue" stroke="midnightblue" points="446.69,-243.85 436.2,-245.34 445.33,-250.72 446.69,-243.85"/>
</g>
<!-- Node14&#45;&gt;Node6 -->
<g id="edge20" class="edge">
<title>Node14&#45;&gt;Node6</title>
<path fill="none" stroke="midnightblue" d="M626.38,-285.43C602.9,-276.36 565.87,-261.94 534,-249 511.67,-239.93 506.35,-237.04 484,-228 455.89,-216.63 423.78,-204.18 400.32,-195.18"/>
<polygon fill="midnightblue" stroke="midnightblue" points="401.42,-191.86 390.83,-191.55 398.91,-198.4 401.42,-191.86"/>
</g>
<!-- Node14&#45;&gt;Node7 -->
<g id="edge21" class="edge">
<title>Node14&#45;&gt;Node7</title>
<path fill="none" stroke="midnightblue" d="M648.3,-285.4C640.84,-245.57 610.96,-86.06 600.58,-30.61"/>
<polygon fill="midnightblue" stroke="midnightblue" points="604,-29.89 598.72,-20.7 597.12,-31.18 604,-29.89"/>
</g>
<!-- Node14&#45;&gt;Node8 -->
<g id="edge22" class="edge">
<title>Node14&#45;&gt;Node8</title>
<path fill="none" stroke="midnightblue" d="M634.45,-285.33C601.39,-265.84 523.88,-220.15 484.25,-196.8"/>
<polygon fill="midnightblue" stroke="midnightblue" points="485.89,-193.7 475.5,-191.63 482.33,-199.73 485.89,-193.7"/>
</g>
<!-- Node14&#45;&gt;Node11 -->
<g id="edge24" class="edge">
<title>Node14&#45;&gt;Node11</title>
<path fill="none" stroke="midnightblue" d="M667.35,-285.45C680.37,-277.66 697.37,-265.13 706,-249 734.14,-196.39 729.93,-122.72 725.85,-88.03"/>
<polygon fill="midnightblue" stroke="midnightblue" points="729.28,-87.3 724.51,-77.84 722.34,-88.21 729.28,-87.3"/>
</g>
<!-- Node15&#45;&gt;Node5 -->
<g id="edge29" class="edge">
<title>Node15&#45;&gt;Node5</title>
<path fill="none" stroke="midnightblue" d="M543.75,-285.42C516.2,-276.23 473.44,-261.98 442.87,-251.79"/>
<polygon fill="midnightblue" stroke="midnightblue" points="443.61,-248.35 433.01,-248.5 441.39,-254.99 443.61,-248.35"/>
</g>
<!-- Node15&#45;&gt;Node6 -->
<g id="edge26" class="edge">
<title>Node15&#45;&gt;Node6</title>
<path fill="none" stroke="midnightblue" d="M554.46,-285.44C537.71,-276.26 511.05,-261.65 488,-249 454.98,-230.88 416.91,-209.95 392.42,-196.48"/>
<polygon fill="midnightblue" stroke="midnightblue" points="393.89,-193.29 383.44,-191.54 390.51,-199.43 393.89,-193.29"/>
</g>
<!-- Node15&#45;&gt;Node7 -->
<g id="edge27" class="edge">
<title>Node15&#45;&gt;Node7</title>
<path fill="none" stroke="midnightblue" d="M571.97,-285.22C573.9,-266.05 578,-220.69 578,-182.5 578,-182.5 578,-182.5 578,-123.5 578,-90.43 586.15,-52.63 591.78,-30.49"/>
<polygon fill="midnightblue" stroke="midnightblue" points="595.19,-31.26 594.36,-20.7 588.42,-29.48 595.19,-31.26"/>
</g>
<!-- Node15&#45;&gt;Node8 -->
<g id="edge28" class="edge">
<title>Node15&#45;&gt;Node8</title>
<path fill="none" stroke="midnightblue" d="M561.92,-285.33C543.22,-266.47 500.18,-223.05 476.45,-199.1"/>
<polygon fill="midnightblue" stroke="midnightblue" points="478.73,-196.43 469.21,-191.79 473.76,-201.36 478.73,-196.43"/>
</g>
<!-- Node15&#45;&gt;Node11 -->
<g id="edge30" class="edge">
<title>Node15&#45;&gt;Node11</title>
<path fill="none" stroke="midnightblue" d="M577.15,-285.36C600.07,-251.28 680.78,-131.27 711.24,-85.98"/>
<polygon fill="midnightblue" stroke="midnightblue" points="714.27,-87.76 716.94,-77.51 708.46,-83.85 714.27,-87.76"/>
</g>
<!-- Node16&#45;&gt;Node5 -->
<g id="edge36" class="edge">
<title>Node16&#45;&gt;Node5</title>
<path fill="none" stroke="midnightblue" d="M320.01,-285.42C336.33,-276.7 361.22,-263.41 380.03,-253.37"/>
<polygon fill="midnightblue" stroke="midnightblue" points="381.79,-256.39 388.97,-248.6 378.5,-250.22 381.79,-256.39"/>
</g>
<!-- Node16&#45;&gt;Node6 -->
<g id="edge32" class="edge">
<title>Node16&#45;&gt;Node6</title>
<path fill="none" stroke="midnightblue" d="M273.21,-286.78C238.44,-276.29 188.2,-255.63 209,-228 223.92,-208.18 291.38,-194.3 333.19,-187.43"/>
<polygon fill="midnightblue" stroke="midnightblue" points="333.89,-190.87 343.21,-185.84 332.79,-183.95 333.89,-190.87"/>
</g>
<!-- Node16&#45;&gt;Node7 -->
<g id="edge34" class="edge">
<title>Node16&#45;&gt;Node7</title>
<path fill="none" stroke="midnightblue" d="M273.32,-293.26C211.79,-288.93 76,-269.51 76,-182.5 76,-182.5 76,-182.5 76,-123.5 76,-29.27 405.85,-14.09 540.64,-11.82"/>
<polygon fill="midnightblue" stroke="midnightblue" points="540.82,-15.31 550.76,-11.66 540.71,-8.31 540.82,-15.31"/>
</g>
<!-- Node16&#45;&gt;Node8 -->
<g id="edge35" class="edge">
<title>Node16&#45;&gt;Node8</title>
<path fill="none" stroke="midnightblue" d="M304.87,-285.43C308.25,-271.25 316.7,-243.81 334,-228 351.87,-211.67 376.04,-201.09 398.43,-194.29"/>
<polygon fill="midnightblue" stroke="midnightblue" points="399.56,-197.61 408.23,-191.52 397.65,-190.88 399.56,-197.61"/>
</g>
<!-- Node16&#45;&gt;Node11 -->
<g id="edge37" class="edge">
<title>Node16&#45;&gt;Node11</title>
<path fill="none" stroke="midnightblue" d="M309.26,-285.14C319.53,-270.56 341.38,-242.59 367,-228 427.7,-193.42 455.36,-218.48 520,-192 591.79,-162.59 667.66,-109.74 702.87,-83.76"/>
<polygon fill="midnightblue" stroke="midnightblue" points="704.99,-86.55 710.91,-77.77 700.8,-80.93 704.99,-86.55"/>
</g>
<!-- Node17 -->
<g id="node17" class="node">
<title>Node17</title>
<g id="a_node17"><a xlink:title=" ">
<polygon fill="white" stroke="#bfbfbf" points="218,-228.5 218,-248.5 282,-248.5 282,-228.5 218,-228.5"/>
<text text-anchor="middle" x="250" y="-235.7" font-family="Helvetica,sans-Serif" font-size="11.00">stdexcept</text>
</a>
</g>
</g>
<!-- Node16&#45;&gt;Node17 -->
<g id="edge33" class="edge">
<title>Node16&#45;&gt;Node17</title>
<path fill="none" stroke="midnightblue" d="M294.25,-285.42C286.62,-277.5 275.37,-265.82 266.12,-256.23"/>
<polygon fill="midnightblue" stroke="midnightblue" points="268.4,-253.55 258.94,-248.78 263.36,-258.41 268.4,-253.55"/>
</g>
<!-- Node18&#45;&gt;Node5 -->
<g id="edge43" class="edge">
<title>Node18&#45;&gt;Node5</title>
<path fill="none" stroke="midnightblue" d="M176.24,-349.95C213.79,-346.65 287.3,-336.5 341,-306 362.59,-293.74 381.7,-272.2 393.52,-256.97"/>
<polygon fill="midnightblue" stroke="midnightblue" points="396.41,-258.94 399.6,-248.84 390.8,-254.75 396.41,-258.94"/>
</g>
<!-- Node18&#45;&gt;Node6 -->
<g id="edge40" class="edge">
<title>Node18&#45;&gt;Node6</title>
<path fill="none" stroke="midnightblue" d="M147.04,-342.49C135.54,-320.25 110.07,-262.02 138,-228 162.33,-198.36 275.81,-187.68 333.35,-184.12"/>
<polygon fill="midnightblue" stroke="midnightblue" points="333.63,-187.61 343.41,-183.54 333.22,-180.62 333.63,-187.61"/>
</g>
<!-- Node18&#45;&gt;Node7 -->
<g id="edge41" class="edge">
<title>Node18&#45;&gt;Node7</title>
<path fill="none" stroke="midnightblue" d="M127.92,-345.71C85.06,-333.8 0,-302.27 0,-239.5 0,-239.5 0,-239.5 0,-123.5 0,-67.13 54.53,-74.86 108,-57 186.91,-30.64 429.69,-18.03 540.64,-13.52"/>
<polygon fill="midnightblue" stroke="midnightblue" points="540.78,-17.02 550.63,-13.12 540.5,-10.03 540.78,-17.02"/>
</g>
<!-- Node18&#45;&gt;Node8 -->
<g id="edge42" class="edge">
<title>Node18&#45;&gt;Node8</title>
<path fill="none" stroke="midnightblue" d="M153.33,-342.28C157.2,-319 170.72,-257.64 209,-228 216.49,-222.2 326.07,-203.83 397.95,-192.28"/>
<polygon fill="midnightblue" stroke="midnightblue" points="398.94,-195.67 408.26,-190.63 397.83,-188.76 398.94,-195.67"/>
</g>
<!-- Node18&#45;&gt;Node11 -->
<g id="edge45" class="edge">
<title>Node18&#45;&gt;Node11</title>
<path fill="none" stroke="midnightblue" d="M143.78,-342.18C136.71,-333.5 127.04,-319.85 123,-306 118.43,-290.32 113.08,-244.88 124,-228 188.56,-128.17 251.85,-147.26 366,-114 475.33,-82.15 609.93,-72.59 678.41,-69.72"/>
<polygon fill="midnightblue" stroke="midnightblue" points="678.96,-73.2 688.81,-69.32 678.69,-66.21 678.96,-73.2"/>
</g>
<!-- Node18&#45;&gt;Node16 -->
<g id="edge44" class="edge">
<title>Node18&#45;&gt;Node16</title>
<path fill="none" stroke="midnightblue" d="M176.26,-342.66C201.24,-333.56 240.4,-319.3 268.58,-309.04"/>
<polygon fill="midnightblue" stroke="midnightblue" points="269.85,-312.3 278.05,-305.59 267.45,-305.72 269.85,-312.3"/>
</g>
<!-- Node19&#45;&gt;Node11 -->
<g id="edge55" class="edge">
<title>Node19&#45;&gt;Node11</title>
<path fill="none" stroke="midnightblue" d="M763.13,-399.35C777.56,-391.34 797.51,-378.57 811,-363 832.61,-338.06 844,-329.49 844,-296.5 844,-296.5 844,-296.5 844,-237.5 844,-169.97 779.34,-110.86 744.55,-83.95"/>
<polygon fill="midnightblue" stroke="midnightblue" points="746.5,-81.03 736.41,-77.81 742.29,-86.63 746.5,-81.03"/>
</g>
<!-- Node20 -->
<g id="node20" class="node">
<title>Node20</title>
<g id="a_node20"><a xlink:href="_generic_sequence_8h.html" target="_top" xlink:title="The GenericSequence specification and body defines a generic sequence type of values with zero&#45;based ...">
<polygon fill="white" stroke="black" points="688.5,-342.5 688.5,-362.5 801.5,-362.5 801.5,-342.5 688.5,-342.5"/>
<text text-anchor="middle" x="745" y="-349.7" font-family="Helvetica,sans-Serif" font-size="11.00">GenericSequence.h</text>
</a>
</g>
</g>
<!-- Node19&#45;&gt;Node20 -->
<g id="edge48" class="edge">
<title>Node19&#45;&gt;Node20</title>
<path fill="none" stroke="midnightblue" d="M745,-399.42C745,-392.22 745,-381.9 745,-372.86"/>
<polygon fill="midnightblue" stroke="midnightblue" points="748.5,-372.78 745,-362.78 741.5,-372.78 748.5,-372.78"/>
</g>
<!-- Node20&#45;&gt;Node5 -->
<g id="edge52" class="edge">
<title>Node20&#45;&gt;Node5</title>
<path fill="none" stroke="midnightblue" d="M688.07,-344.6C642.85,-337.97 578.54,-325.96 525,-306 505.89,-298.88 458.57,-271.2 429.69,-253.88"/>
<polygon fill="midnightblue" stroke="midnightblue" points="431.4,-250.82 421.02,-248.66 427.78,-256.82 431.4,-250.82"/>
</g>
<!-- Node20&#45;&gt;Node7 -->
<g id="edge51" class="edge">
<title>Node20&#45;&gt;Node7</title>
<path fill="none" stroke="midnightblue" d="M740,-342.2C735.18,-333.09 727.77,-318.74 722,-306 672.83,-197.35 673.03,-164.79 622,-57 617.62,-47.75 612.21,-37.75 607.54,-29.49"/>
<polygon fill="midnightblue" stroke="midnightblue" points="610.53,-27.66 602.51,-20.74 604.46,-31.15 610.53,-27.66"/>
</g>
<!-- Node20&#45;&gt;Node10 -->
<g id="edge50" class="edge">
<title>Node20&#45;&gt;Node10</title>
<path fill="none" stroke="midnightblue" d="M767.6,-342.35C784,-334.72 805.73,-322.45 820,-306 862.7,-256.76 884.58,-180.32 892.91,-144.83"/>
<polygon fill="midnightblue" stroke="midnightblue" points="896.38,-145.35 895.15,-134.83 889.55,-143.82 896.38,-145.35"/>
</g>
<!-- Node20&#45;&gt;Node11 -->
<g id="edge54" class="edge">
<title>Node20&#45;&gt;Node11</title>
<path fill="none" stroke="midnightblue" d="M757.62,-342.28C767.72,-334.06 781.13,-321.02 787,-306 795.92,-283.18 823.41,-313.38 782,-171 772.54,-138.49 750.79,-105.34 736.51,-85.86"/>
<polygon fill="midnightblue" stroke="midnightblue" points="739.17,-83.57 730.36,-77.69 733.58,-87.78 739.17,-83.57"/>
</g>
<!-- Node20&#45;&gt;Node16 -->
<g id="edge53" class="edge">
<title>Node20&#45;&gt;Node16</title>
<path fill="none" stroke="midnightblue" d="M688.12,-344.42C597.19,-333.11 421.34,-311.23 342.7,-301.44"/>
<polygon fill="midnightblue" stroke="midnightblue" points="343.06,-297.96 332.71,-300.2 342.2,-304.9 343.06,-297.96"/>
</g>
<!-- Node21 -->
<g id="node21" class="node">
<title>Node21</title>
<g id="a_node21"><a xlink:title=" ">
<polygon fill="white" stroke="#bfbfbf" points="730.5,-285.5 730.5,-305.5 777.5,-305.5 777.5,-285.5 730.5,-285.5"/>
<text text-anchor="middle" x="754" y="-292.7" font-family="Helvetica,sans-Serif" font-size="11.00">vector</text>
</a>
</g>
</g>
<!-- Node20&#45;&gt;Node21 -->
<g id="edge49" class="edge">
<title>Node20&#45;&gt;Node21</title>
<path fill="none" stroke="midnightblue" d="M746.49,-342.42C747.66,-335.22 749.35,-324.9 750.83,-315.86"/>
<polygon fill="midnightblue" stroke="midnightblue" points="754.32,-316.21 752.48,-305.78 747.41,-315.08 754.32,-316.21"/>
</g>
</g>
</svg>
        <g id="navigator" transform="translate(0 0)" fill="#404254">
                <rect fill="#f2f5e9" fill-opacity="0.5" stroke="#606060" stroke-width=".5" x="0" y="0" width="60" height="60"/>
                <use id="zoomplus" xlink:href="#zoomPlus" x="17" y="9" onmousedown="handleZoom(evt,'in')"/>
                <use id="zoomminus" xlink:href="#zoomMin" x="42" y="9" onmousedown="handleZoom(evt,'out')"/>
                <use id="reset" xlink:href="#resetDef" x="30" y="36" onmousedown="handleReset()"/>
                <g id="arrowUp" xlink:href="#dirArrow" transform="translate(30 24)" onmousedown="handlePan(0,-1)">
                  <use xlink:href="#rim" fill="#404040">
                        <set attributeName="fill" to="#808080" begin="arrowUp.mouseover" end="arrowUp.mouseout"/>
                  </use>
                  <path fill="none" stroke="white" stroke-width="1.5" d="M0,-3.0v7 M-2.5,-0.5L0,-3.0L2.5,-0.5"/>
                </g>
                <g id="arrowRight" xlink:href="#dirArrow" transform="rotate(90) translate(36 -43)" onmousedown="handlePan(1,0)">
                  <use xlink:href="#rim" fill="#404040">
                        <set attributeName="fill" to="#808080" begin="arrowRight.mouseover" end="arrowRight.mouseout"/>
                  </use>
                  <path fill="none" stroke="white" stroke-width="1.5" d="M0,-3.0v7 M-2.5,-0.5L0,-3.0L2.5,-0.5"/>
                </g>
                <g id="arrowDown" xlink:href="#dirArrow" transform="rotate(180) translate(-30 -48)" onmousedown="handlePan(0,1)">
                  <use xlink:href="#rim" fill="#404040">
                        <set attributeName="fill" to="#808080" begin="arrowDown.mouseover" end="arrowDown.mouseout"/>
                  </use>
                  <path fill="none" stroke="white" stroke-width="1.5" d="M0,-3.0v7 M-2.5,-0.5L0,-3.0L2.5,-0.5"/>
                </g>
                <g id="arrowLeft" xlink:href="#dirArrow" transform="rotate(270) translate(-36 17)" onmousedown="handlePan(-1,0)">
                  <use xlink:href="#rim" fill="#404040">
                        <set attributeName="fill" to="#808080" begin="arrowLeft.mouseover" end="arrowLeft.mouseout"/>
                  </use>
                  <path fill="none" stroke="white" stroke-width="1.5" d="M0,-3.0v7 M-2.5,-0.5L0,-3.0L2.5,-0.5"/>
                </g>
        </g>
        <svg viewBox="0 0 15 15" width="100%" height="30px" preserveAspectRatio="xMaxYMin meet">
         <g id="arrow_out" transform="scale(0.3 0.3)">
          <a xlink:href="_audio_sample_queue_8cpp-inc__incl_org.svg" target="_base">
           <rect id="button" ry="5" rx="5" y="6" x="6" height="38" width="38"
                fill="#f2f5e9" fill-opacity="0.5" stroke="#606060" stroke-width="1.0"/>
           <path id="arrow"
             d="M 11.500037,31.436501 C 11.940474,20.09759 22.043105,11.32322 32.158766,21.979434 L 37.068811,17.246167 C 37.068811,17.246167 37.088388,32 37.088388,32 L 22.160133,31.978069 C 22.160133,31.978069 26.997745,27.140456 26.997745,27.140456 C 18.528582,18.264221 13.291696,25.230495 11.500037,31.436501 z"
             style="fill:#404040;"/>
          </a>
         </g>
        </svg>
</svg>
