<?xml version="1.0" encoding="UTF-8" standalone="no"?>
<!DOCTYPE svg PUBLIC "-//W3C//DTD SVG 1.1//EN"
 "http://www.w3.org/Graphics/SVG/1.1/DTD/svg11.dtd">
<!-- Generated by graphviz version 2.47.1 (20210417.1919)
 -->
<!-- Title: AudioDataPoint.h Pages: 1 -->
<svg width="967pt" height="302pt"
 viewBox="0.00 0.00 966.50 302.00" xmlns="http://www.w3.org/2000/svg" xmlns:xlink="http://www.w3.org/1999/xlink">
<g id="graph0" class="graph" transform="scale(1 1) rotate(0) translate(4 298)">
<title>AudioDataPoint.h</title>
<!-- Node1 -->
<g id="Node000001" class="node">
<title>Node1</title>
<g id="a_Node000001"><a xlink:title="The AudioDataPoint specification and body provides the definition of the audio data point (a real val...">
<polygon fill="#999999" stroke="#666666" points="346,-294 254,-294 254,-275 346,-275 346,-294"/>
<text text-anchor="middle" x="300" y="-282" font-family="Helvetica,sans-Serif" font-size="10.00">AudioDataPoint.h</text>
</a>
</g>
</g>
<!-- Node2 -->
<g id="Node000002" class="node">
<title>Node2</title>
<g id="a_Node000002"><a xlink:href="_audio_data_point_8cpp.html" target="_top" xlink:title="The AudioDataPoint body implements audio samples (this is the formal CPP file used when not doing inl...">
<polygon fill="white" stroke="#666666" points="289.5,-239 186.5,-239 186.5,-220 289.5,-220 289.5,-239"/>
<text text-anchor="middle" x="238" y="-227" font-family="Helvetica,sans-Serif" font-size="10.00">AudioDataPoint.cpp</text>
</a>
</g>
</g>
<!-- Node1&#45;&gt;Node2 -->
<g id="edge1_Node000001_Node000002" class="edge">
<title>Node1&#45;&gt;Node2</title>
<g id="a_edge1_Node000001_Node000002"><a xlink:title=" ">
<path fill="none" stroke="#63b8ff" d="M282.25,-268.32C271.19,-258.87 257.37,-247.06 248.14,-239.17"/>
<polygon fill="#63b8ff" stroke="#63b8ff" points="280.16,-271.15 290.04,-274.98 284.71,-265.83 280.16,-271.15"/>
</a>
</g>
</g>
<!-- Node3 -->
<g id="Node000003" class="node">
<title>Node3</title>
<g id="a_Node000003"><a xlink:href="_audio_data_point_list_8h.html" target="_top" xlink:title="The AudioDataPointList specification defines lists of audio samples with zero&#45;based arbitrary indexed...">
<polygon fill="white" stroke="#666666" points="416,-239 308,-239 308,-220 416,-220 416,-239"/>
<text text-anchor="middle" x="362" y="-227" font-family="Helvetica,sans-Serif" font-size="10.00">AudioDataPointList.h</text>
</a>
</g>
</g>
<!-- Node1&#45;&gt;Node3 -->
<g id="edge2_Node000001_Node000003" class="edge">
<title>Node1&#45;&gt;Node3</title>
<g id="a_edge2_Node000001_Node000003"><a xlink:title=" ">
<path fill="none" stroke="#63b8ff" d="M317.75,-268.32C328.81,-258.87 342.63,-247.06 351.86,-239.17"/>
<polygon fill="#63b8ff" stroke="#63b8ff" points="315.29,-265.83 309.96,-274.98 319.84,-271.15 315.29,-265.83"/>
</a>
</g>
</g>
<!-- Node4 -->
<g id="Node000004" class="node">
<title>Node4</title>
<g id="a_Node000004"><a xlink:href="_audio_data_point_fifo_queue_8h.html" target="_top" xlink:title="The AudioDataPointFifoQueue specification defines a fifo queue for audio data points with popping off...">
<polygon fill="white" stroke="#666666" points="284.5,-184 147.5,-184 147.5,-165 284.5,-165 284.5,-184"/>
<text text-anchor="middle" x="216" y="-172" font-family="Helvetica,sans-Serif" font-size="10.00">AudioDataPointFifoQueue.h</text>
</a>
</g>
</g>
<!-- Node3&#45;&gt;Node4 -->
<g id="edge3_Node000003_Node000004" class="edge">
<title>Node3&#45;&gt;Node4</title>
<g id="a_edge3_Node000003_Node000004"><a xlink:title=" ">
<path fill="none" stroke="#63b8ff" d="M329.08,-216.55C301.97,-206.71 264.17,-192.98 239.88,-184.17"/>
<polygon fill="#63b8ff" stroke="#63b8ff" points="327.95,-219.86 338.54,-219.98 330.34,-213.28 327.95,-219.86"/>
</a>
</g>
</g>
<!-- Node9 -->
<g id="Node000009" class="node">
<title>Node9</title>
<g id="a_Node000009"><a xlink:href="_audio_data_point_list_8cpp.html" target="_top" xlink:title="The AudioDataPointList body implements a simple list of audio samples (this is the formal CPP file us...">
<polygon fill="white" stroke="#666666" points="421.5,-184 302.5,-184 302.5,-165 421.5,-165 421.5,-184"/>
<text text-anchor="middle" x="362" y="-172" font-family="Helvetica,sans-Serif" font-size="10.00">AudioDataPointList.cpp</text>
</a>
</g>
</g>
<!-- Node3&#45;&gt;Node9 -->
<g id="edge8_Node000003_Node000009" class="edge">
<title>Node3&#45;&gt;Node9</title>
<g id="a_edge8_Node000003_Node000009"><a xlink:title=" ">
<path fill="none" stroke="#63b8ff" d="M362,-209.66C362,-200.93 362,-190.99 362,-184.09"/>
<polygon fill="#63b8ff" stroke="#63b8ff" points="358.5,-209.75 362,-219.75 365.5,-209.75 358.5,-209.75"/>
</a>
</g>
</g>
<!-- Node10 -->
<g id="Node000010" class="node">
<title>Node10</title>
<g id="a_Node000010"><a xlink:href="_audio_data_point_list_vector_8h.html" target="_top" xlink:title="The AudioDataPointListVector specification defines the communication buffer structure for the block p...">
<polygon fill="white" stroke="#666666" points="576.5,-184 439.5,-184 439.5,-165 576.5,-165 576.5,-184"/>
<text text-anchor="middle" x="508" y="-172" font-family="Helvetica,sans-Serif" font-size="10.00">AudioDataPointListVector.h</text>
</a>
</g>
</g>
<!-- Node3&#45;&gt;Node10 -->
<g id="edge9_Node000003_Node000010" class="edge">
<title>Node3&#45;&gt;Node10</title>
<g id="a_edge9_Node000003_Node000010"><a xlink:title=" ">
<path fill="none" stroke="#63b8ff" d="M394.92,-216.55C422.03,-206.71 459.83,-192.98 484.12,-184.17"/>
<polygon fill="#63b8ff" stroke="#63b8ff" points="393.66,-213.28 385.46,-219.98 396.05,-219.86 393.66,-213.28"/>
</a>
</g>
</g>
<!-- Node5 -->
<g id="Node000005" class="node">
<title>Node5</title>
<g id="a_Node000005"><a xlink:href="_audio_data_point_fifo_queue_8cpp.html" target="_top" xlink:title="The AudioDataPointFifoQueue body implements a fifo queue for audio samples with popping off access to...">
<polygon fill="white" stroke="#666666" points="149.5,-129 2.5,-129 2.5,-110 149.5,-110 149.5,-129"/>
<text text-anchor="middle" x="76" y="-117" font-family="Helvetica,sans-Serif" font-size="10.00">AudioDataPointFifoQueue.cpp</text>
</a>
</g>
</g>
<!-- Node4&#45;&gt;Node5 -->
<g id="edge4_Node000004_Node000005" class="edge">
<title>Node4&#45;&gt;Node5</title>
<g id="a_edge4_Node000004_Node000005"><a xlink:title=" ">
<path fill="none" stroke="#63b8ff" d="M184.09,-161.42C158.12,-151.59 122.08,-137.95 98.9,-129.17"/>
<polygon fill="#63b8ff" stroke="#63b8ff" points="182.92,-164.72 193.51,-164.98 185.39,-158.17 182.92,-164.72"/>
</a>
</g>
</g>
<!-- Node6 -->
<g id="Node000006" class="node">
<title>Node6</title>
<g id="a_Node000006"><a xlink:href="_audio_data_point_fifo_queue_vector_8h.html" target="_top" xlink:title="The AudioDataPointFifoQueueVector specification defines a list of fifo queues for audio data points.">
<polygon fill="white" stroke="#666666" points="332.5,-129 167.5,-129 167.5,-110 332.5,-110 332.5,-129"/>
<text text-anchor="middle" x="250" y="-117" font-family="Helvetica,sans-Serif" font-size="10.00">AudioDataPointFifoQueueVector.h</text>
</a>
</g>
</g>
<!-- Node4&#45;&gt;Node6 -->
<g id="edge5_Node000004_Node000006" class="edge">
<title>Node4&#45;&gt;Node6</title>
<g id="a_edge5_Node000004_Node000006"><a xlink:title=" ">
<path fill="none" stroke="#63b8ff" d="M227.16,-156.1C232.97,-147.04 239.82,-136.37 244.49,-129.09"/>
<polygon fill="#63b8ff" stroke="#63b8ff" points="224.07,-154.44 221.61,-164.75 229.96,-158.22 224.07,-154.44"/>
</a>
</g>
</g>
<!-- Node7 -->
<g id="Node000007" class="node">
<title>Node7</title>
<g id="a_Node000007"><a xlink:href="_audio_data_point_fifo_queue_vector_8cpp.html" target="_top" xlink:title="The AudioDataPointFifoQueueVector body implements a list of fifo queues for audio data points (this i...">
<polygon fill="white" stroke="#666666" points="176,-74 0,-74 0,-55 176,-55 176,-74"/>
<text text-anchor="middle" x="88" y="-62" font-family="Helvetica,sans-Serif" font-size="10.00">AudioDataPointFifoQueueVector.cpp</text>
</a>
</g>
</g>
<!-- Node6&#45;&gt;Node7 -->
<g id="edge6_Node000006_Node000007" class="edge">
<title>Node6&#45;&gt;Node7</title>
<g id="a_edge6_Node000006_Node000007"><a xlink:title=" ">
<path fill="none" stroke="#63b8ff" d="M214.23,-106.8C184,-96.91 141.39,-82.97 114.23,-74.08"/>
<polygon fill="#63b8ff" stroke="#63b8ff" points="213.38,-110.2 223.97,-109.98 215.56,-103.55 213.38,-110.2"/>
</a>
</g>
</g>
<!-- Node8 -->
<g id="Node000008" class="node">
<title>Node8</title>
<g id="a_Node000008"><a xlink:href="_fluid_synth_plugin___event_processor_8cpp.html" target="_top" xlink:title="The FluidSynthPlugin_Processor module implements the handling of MIDI events from the DAW via JUCE ha...">
<polygon fill="white" stroke="#666666" points="376,-74 194,-74 194,-55 376,-55 376,-74"/>
<text text-anchor="middle" x="285" y="-62" font-family="Helvetica,sans-Serif" font-size="10.00">FluidSynthPlugin_EventProcessor.cpp</text>
</a>
</g>
</g>
<!-- Node6&#45;&gt;Node8 -->
<g id="edge7_Node000006_Node000008" class="edge">
<title>Node6&#45;&gt;Node8</title>
<g id="a_edge7_Node000006_Node000008"><a xlink:title=" ">
<path fill="none" stroke="#63b8ff" d="M261.3,-101.39C267.32,-92.27 274.47,-81.45 279.33,-74.09"/>
<polygon fill="#63b8ff" stroke="#63b8ff" points="258.37,-99.47 255.78,-109.75 264.21,-103.33 258.37,-99.47"/>
</a>
</g>
</g>
<!-- Node10&#45;&gt;Node6 -->
<g id="edge10_Node000010_Node000006" class="edge">
<title>Node10&#45;&gt;Node6</title>
<g id="a_edge10_Node000010_Node000006"><a xlink:title=" ">
<path fill="none" stroke="#63b8ff" d="M456.6,-162.94C408.24,-153.01 336.72,-138.31 291.78,-129.08"/>
<polygon fill="#63b8ff" stroke="#63b8ff" points="456.05,-166.4 466.55,-164.98 457.46,-159.54 456.05,-166.4"/>
</a>
</g>
</g>
<!-- Node11 -->
<g id="Node000011" class="node">
<title>Node11</title>
<g id="a_Node000011"><a xlink:href="_audio_data_point_list_vector_8cpp.html" target="_top" xlink:title="The AudioDataPointListVector body implements the communication buffer structure for the block process...">
<polygon fill="white" stroke="#666666" points="705.5,-129 558.5,-129 558.5,-110 705.5,-110 705.5,-129"/>
<text text-anchor="middle" x="632" y="-117" font-family="Helvetica,sans-Serif" font-size="10.00">AudioDataPointListVector.cpp</text>
</a>
</g>
</g>
<!-- Node10&#45;&gt;Node11 -->
<g id="edge11_Node000010_Node000011" class="edge">
<title>Node10&#45;&gt;Node11</title>
<g id="a_edge11_Node000010_Node000011"><a xlink:title=" ">
<path fill="none" stroke="#63b8ff" d="M537.18,-161.03C560.11,-151.23 591.45,-137.83 611.71,-129.17"/>
<polygon fill="#63b8ff" stroke="#63b8ff" points="535.74,-157.84 527.92,-164.98 538.49,-164.27 535.74,-157.84"/>
</a>
</g>
</g>
<!-- Node12 -->
<g id="Node000012" class="node">
<title>Node12</title>
<g id="a_Node000012"><a xlink:href="_fluid_synth_synthesizer_8h.html" target="_top" xlink:title="The FluidSynthSynthesizer class specifies an object&#45;oriented wrapper around an underlying fluidsynth ...">
<polygon fill="white" stroke="#666666" points="846.5,-129 723.5,-129 723.5,-110 846.5,-110 846.5,-129"/>
<text text-anchor="middle" x="785" y="-117" font-family="Helvetica,sans-Serif" font-size="10.00">FluidSynthSynthesizer.h</text>
</a>
</g>
</g>
<!-- Node10&#45;&gt;Node12 -->
<g id="edge12_Node000010_Node000012" class="edge">
<title>Node10&#45;&gt;Node12</title>
<g id="a_edge12_Node000010_Node000012"><a xlink:title=" ">
<path fill="none" stroke="#63b8ff" d="M562.54,-163.07C614.47,-153.13 691.69,-138.35 740.15,-129.08"/>
<polygon fill="#63b8ff" stroke="#63b8ff" points="561.67,-159.67 552.5,-164.98 562.98,-166.54 561.67,-159.67"/>
</a>
</g>
</g>
<!-- Node17 -->
<g id="Node000017" class="node">
<title>Node17</title>
<g id="a_Node000017"><a xlink:href="_midi_event_converter_8h.html" target="_top" xlink:title="The MidiEventConverter specification defines the handling of MIDI events by feeding them to an underl...">
<polygon fill="white" stroke="#666666" points="457.5,-129 350.5,-129 350.5,-110 457.5,-110 457.5,-129"/>
<text text-anchor="middle" x="404" y="-117" font-family="Helvetica,sans-Serif" font-size="10.00">MidiEventConverter.h</text>
</a>
</g>
</g>
<!-- Node10&#45;&gt;Node17 -->
<g id="edge17_Node000010_Node000017" class="edge">
<title>Node10&#45;&gt;Node17</title>
<g id="a_edge17_Node000010_Node000017"><a xlink:title=" ">
<path fill="none" stroke="#63b8ff" d="M482.23,-160.37C463.13,-150.63 437.63,-137.64 421.01,-129.17"/>
<polygon fill="#63b8ff" stroke="#63b8ff" points="480.79,-163.56 491.29,-164.98 483.97,-157.33 480.79,-163.56"/>
</a>
</g>
</g>
<!-- Node19 -->
<g id="Node000019" class="node">
<title>Node19</title>
<g id="a_Node000019"><a xlink:href="_wave_file_8h.html" target="_top" xlink:title="The WaveFile specification defines an object for accessing a RIFF wave file with several channels.">
<polygon fill="white" stroke="#666666" points="540.5,-129 475.5,-129 475.5,-110 540.5,-110 540.5,-129"/>
<text text-anchor="middle" x="508" y="-117" font-family="Helvetica,sans-Serif" font-size="10.00">WaveFile.h</text>
</a>
</g>
</g>
<!-- Node10&#45;&gt;Node19 -->
<g id="edge21_Node000010_Node000019" class="edge">
<title>Node10&#45;&gt;Node19</title>
<g id="a_edge21_Node000010_Node000019"><a xlink:title=" ">
<path fill="none" stroke="#63b8ff" d="M508,-154.66C508,-145.93 508,-135.99 508,-129.09"/>
<polygon fill="#63b8ff" stroke="#63b8ff" points="504.5,-154.75 508,-164.75 511.5,-154.75 504.5,-154.75"/>
</a>
</g>
</g>
<!-- Node13 -->
<g id="Node000013" class="node">
<title>Node13</title>
<g id="a_Node000013"><a xlink:href="_fluid_synth_sound_font_8h.html" target="_top" xlink:title="The FluidSynthSoundFont class specifies an object&#45;oriented wrapper around an underlying fluidsynth So...">
<polygon fill="white" stroke="#666666" points="953.5,-74 834.5,-74 834.5,-55 953.5,-55 953.5,-74"/>
<text text-anchor="middle" x="894" y="-62" font-family="Helvetica,sans-Serif" font-size="10.00">FluidSynthSoundFont.h</text>
</a>
</g>
</g>
<!-- Node12&#45;&gt;Node13 -->
<g id="edge13_Node000012_Node000013" class="edge">
<title>Node12&#45;&gt;Node13</title>
<g id="a_edge13_Node000012_Node000013"><a xlink:title=" ">
<path fill="none" stroke="#63b8ff" d="M811.73,-105.5C831.79,-95.75 858.68,-82.68 876.17,-74.17"/>
<polygon fill="#63b8ff" stroke="#63b8ff" points="809.98,-102.46 802.51,-109.98 813.04,-108.76 809.98,-102.46"/>
</a>
</g>
</g>
<!-- Node16 -->
<g id="Node000016" class="node">
<title>Node16</title>
<g id="a_Node000016"><a xlink:href="_fluid_synth_synthesizer_8cpp.html" target="_top" xlink:title="The FluidSynthSynthesizer class implements an object&#45;oriented wrapper around an underlying fluidsynth...">
<polygon fill="white" stroke="#666666" points="816,-74 682,-74 682,-55 816,-55 816,-74"/>
<text text-anchor="middle" x="749" y="-62" font-family="Helvetica,sans-Serif" font-size="10.00">FluidSynthSynthesizer.cpp</text>
</a>
</g>
</g>
<!-- Node12&#45;&gt;Node16 -->
<g id="edge16_Node000012_Node000016" class="edge">
<title>Node12&#45;&gt;Node16</title>
<g id="a_edge16_Node000012_Node000016"><a xlink:title=" ">
<path fill="none" stroke="#63b8ff" d="M773.38,-101.39C767.18,-92.27 759.83,-81.45 754.83,-74.09"/>
<polygon fill="#63b8ff" stroke="#63b8ff" points="770.54,-103.44 779.06,-109.75 776.33,-99.51 770.54,-103.44"/>
</a>
</g>
</g>
<!-- Node14 -->
<g id="Node000014" class="node">
<title>Node14</title>
<g id="a_Node000014"><a xlink:href="_fluid_synth_sound_font_8cpp.html" target="_top" xlink:title="The FluidSynthSoundFont class implements an object&#45;oriented wrapper around an underlying fluidsynth S...">
<polygon fill="white" stroke="#666666" points="958.5,-19 829.5,-19 829.5,0 958.5,0 958.5,-19"/>
<text text-anchor="middle" x="894" y="-7" font-family="Helvetica,sans-Serif" font-size="10.00">FluidSynthSoundFont.cpp</text>
</a>
</g>
</g>
<!-- Node13&#45;&gt;Node14 -->
<g id="edge14_Node000013_Node000014" class="edge">
<title>Node13&#45;&gt;Node14</title>
<g id="a_edge14_Node000013_Node000014"><a xlink:title=" ">
<path fill="none" stroke="#63b8ff" d="M894,-44.66C894,-35.93 894,-25.99 894,-19.09"/>
<polygon fill="#63b8ff" stroke="#63b8ff" points="890.5,-44.75 894,-54.75 897.5,-44.75 890.5,-44.75"/>
</a>
</g>
</g>
<!-- Node15 -->
<g id="Node000015" class="node">
<title>Node15</title>
<g id="a_Node000015"><a xlink:href="_midi_event_converter_8cpp.html" target="_top" xlink:title="The MidiEventConverter module implements the handling of MIDI events by feeding them to an underlying...">
<polygon fill="white" stroke="#666666" points="637,-19 519,-19 519,0 637,0 637,-19"/>
<text text-anchor="middle" x="578" y="-7" font-family="Helvetica,sans-Serif" font-size="10.00">MidiEventConverter.cpp</text>
</a>
</g>
</g>
<!-- Node13&#45;&gt;Node15 -->
<g id="edge15_Node000013_Node000015" class="edge">
<title>Node13&#45;&gt;Node15</title>
<g id="a_edge15_Node000013_Node000015"><a xlink:title=" ">
<path fill="none" stroke="#63b8ff" d="M833.24,-53.31C773.9,-43.36 684.62,-28.38 628.91,-19.04"/>
<polygon fill="#63b8ff" stroke="#63b8ff" points="832.79,-56.78 843.23,-54.98 833.95,-49.88 832.79,-56.78"/>
</a>
</g>
</g>
<!-- Node17&#45;&gt;Node8 -->
<g id="edge19_Node000017_Node000008" class="edge">
<title>Node17&#45;&gt;Node8</title>
<g id="a_edge19_Node000017_Node000008"><a xlink:title=" ">
<path fill="none" stroke="#63b8ff" d="M375.7,-105.9C353.72,-96.11 323.82,-82.79 304.47,-74.17"/>
<polygon fill="#63b8ff" stroke="#63b8ff" points="374.32,-109.11 384.88,-109.98 377.17,-102.72 374.32,-109.11"/>
</a>
</g>
</g>
<!-- Node17&#45;&gt;Node15 -->
<g id="edge20_Node000017_Node000015" class="edge">
<title>Node17&#45;&gt;Node15</title>
<g id="a_edge20_Node000017_Node000015"><a xlink:title=" ">
<path fill="none" stroke="#63b8ff" d="M404.92,-99.71C406.6,-85.59 411.12,-66.75 423,-55 448.28,-30 486.63,-18.85 518.85,-13.97"/>
<polygon fill="#63b8ff" stroke="#63b8ff" points="401.42,-99.54 404.09,-109.79 408.4,-100.11 401.42,-99.54"/>
</a>
</g>
</g>
<!-- Node18 -->
<g id="Node000018" class="node">
<title>Node18</title>
<g id="a_Node000018"><a xlink:href="_fluid_synth_file_converter_8cpp.html" target="_top" xlink:title="The FluidSynthFileConverter module implements a conversion from a MIDI file into a wave file using th...">
<polygon fill="white" stroke="#666666" points="570,-74 432,-74 432,-55 570,-55 570,-74"/>
<text text-anchor="middle" x="501" y="-62" font-family="Helvetica,sans-Serif" font-size="10.00">FluidSynthFileConverter.cpp</text>
</a>
</g>
</g>
<!-- Node17&#45;&gt;Node18 -->
<g id="edge18_Node000017_Node000018" class="edge">
<title>Node17&#45;&gt;Node18</title>
<g id="a_edge18_Node000017_Node000018"><a xlink:title=" ">
<path fill="none" stroke="#63b8ff" d="M428.77,-104.97C446.5,-95.28 469.85,-82.52 485.13,-74.17"/>
<polygon fill="#63b8ff" stroke="#63b8ff" points="426.68,-102.12 419.58,-109.98 430.04,-108.26 426.68,-102.12"/>
</a>
</g>
</g>
<!-- Node19&#45;&gt;Node18 -->
<g id="edge22_Node000019_Node000018" class="edge">
<title>Node19&#45;&gt;Node18</title>
<g id="a_edge22_Node000019_Node000018"><a xlink:title=" ">
<path fill="none" stroke="#63b8ff" d="M505.51,-99.66C504.36,-90.93 503.05,-80.99 502.13,-74.09"/>
<polygon fill="#63b8ff" stroke="#63b8ff" points="502.06,-100.29 506.84,-109.75 509,-99.38 502.06,-100.29"/>
</a>
</g>
</g>
<!-- Node20 -->
<g id="Node000020" class="node">
<title>Node20</title>
<g id="a_Node000020"><a xlink:href="_wave_file_8cpp.html" target="_top" xlink:title="The WaveFile specification defines an object for accessing a RIFF wave file with several channels.">
<polygon fill="white" stroke="#666666" points="663.5,-74 588.5,-74 588.5,-55 663.5,-55 663.5,-74"/>
<text text-anchor="middle" x="626" y="-62" font-family="Helvetica,sans-Serif" font-size="10.00">WaveFile.cpp</text>
</a>
</g>
</g>
<!-- Node19&#45;&gt;Node20 -->
<g id="edge23_Node000019_Node000020" class="edge">
<title>Node19&#45;&gt;Node20</title>
<g id="a_edge23_Node000019_Node000020"><a xlink:title=" ">
<path fill="none" stroke="#63b8ff" d="M536.35,-105.77C558.12,-95.99 587.59,-82.75 606.7,-74.17"/>
<polygon fill="#63b8ff" stroke="#63b8ff" points="534.65,-102.69 526.96,-109.98 537.51,-109.08 534.65,-102.69"/>
</a>
</g>
</g>
</g>
</svg>
