<?xml version="1.0" encoding="UTF-8" standalone="no"?>
<!DOCTYPE svg PUBLIC "-//W3C//DTD SVG 1.1//EN"
 "http://www.w3.org/Graphics/SVG/1.1/DTD/svg11.dtd">
<!-- Generated by graphviz version 2.47.1 (20210417.1919)
 -->
<!-- Title: AudioSampleFifoQueue.cpp Pages: 1 -->
<svg width="762pt" height="577pt"
 viewBox="0.00 0.00 761.50 577.00" xmlns="http://www.w3.org/2000/svg" xmlns:xlink="http://www.w3.org/1999/xlink">
<g id="graph0" class="graph" transform="scale(1 1) rotate(0) translate(4 573)">
<title>AudioSampleFifoQueue.cpp</title>
<!-- Node1 -->
<g id="Node000001" class="node">
<title>Node1</title>
<g id="a_Node000001"><a xlink:title="The AudioSampleFifoQueue body implements a fifo queue for audio samples with popping off access to th...">
<polygon fill="#999999" stroke="#666666" points="211.5,-569 74.5,-569 74.5,-550 211.5,-550 211.5,-569"/>
<text text-anchor="middle" x="143" y="-557" font-family="Helvetica,sans-Serif" font-size="10.00">AudioSampleFifoQueue.cpp</text>
</a>
</g>
</g>
<!-- Node2 -->
<g id="Node000002" class="node">
<title>Node2</title>
<g id="a_Node000002"><a xlink:href="_audio_sample_fifo_queue_8h.html" target="_top" xlink:title="The AudioSampleFifoQueue specification defines a fifo queue for audio samples with popping off access...">
<polygon fill="white" stroke="#666666" points="206.5,-514 79.5,-514 79.5,-495 206.5,-495 206.5,-514"/>
<text text-anchor="middle" x="143" y="-502" font-family="Helvetica,sans-Serif" font-size="10.00">AudioSampleFifoQueue.h</text>
</a>
</g>
</g>
<!-- Node1&#45;&gt;Node2 -->
<g id="edge1_Node000001_Node000002" class="edge">
<title>Node1&#45;&gt;Node2</title>
<g id="a_edge1_Node000001_Node000002"><a xlink:title=" ">
<path fill="none" stroke="#63b8ff" d="M143,-549.75C143,-542.8 143,-532.85 143,-524.13"/>
<polygon fill="#63b8ff" stroke="#63b8ff" points="146.5,-524.09 143,-514.09 139.5,-524.09 146.5,-524.09"/>
</a>
</g>
</g>
<!-- Node3 -->
<g id="Node000003" class="node">
<title>Node3</title>
<g id="a_Node000003"><a xlink:href="_natural_8h.html" target="_top" xlink:title="The Natural specification and body provides a value object type for naturals (positive integers with ...">
<polygon fill="white" stroke="#666666" points="286,-129 230,-129 230,-110 286,-110 286,-129"/>
<text text-anchor="middle" x="258" y="-117" font-family="Helvetica,sans-Serif" font-size="10.00">Natural.h</text>
</a>
</g>
</g>
<!-- Node2&#45;&gt;Node3 -->
<g id="edge2_Node000002_Node000003" class="edge">
<title>Node2&#45;&gt;Node3</title>
<g id="a_edge2_Node000002_Node000003"><a xlink:title=" ">
<path fill="none" stroke="#63b8ff" d="M113.64,-494.94C94.95,-488.06 71.59,-476.6 57,-459 38.2,-436.32 38,-424.96 38,-395.5 38,-395.5 38,-395.5 38,-228.5 38,-148.5 156.69,-127.75 219.71,-122.38"/>
<polygon fill="#63b8ff" stroke="#63b8ff" points="219.98,-125.87 229.69,-121.62 219.45,-118.89 219.98,-125.87"/>
</a>
</g>
</g>
<!-- Node11 -->
<g id="Node000011" class="node">
<title>Node11</title>
<g id="a_Node000011"><a xlink:href="_audio_sample_list_8h.html" target="_top" xlink:title="The AudioSampleList specification defines lists of audio samples with zero&#45;based arbitrary indexed ac...">
<polygon fill="white" stroke="#666666" points="324,-349 226,-349 226,-330 324,-330 324,-349"/>
<text text-anchor="middle" x="275" y="-337" font-family="Helvetica,sans-Serif" font-size="10.00">AudioSampleList.h</text>
</a>
</g>
</g>
<!-- Node2&#45;&gt;Node11 -->
<g id="edge11_Node000002_Node000011" class="edge">
<title>Node2&#45;&gt;Node11</title>
<g id="a_edge11_Node000002_Node000011"><a xlink:title=" ">
<path fill="none" stroke="#63b8ff" d="M170.33,-494.89C188.78,-487.85 212.51,-476.21 228,-459 254.2,-429.9 266.63,-384.43 271.82,-359.11"/>
<polygon fill="#63b8ff" stroke="#63b8ff" points="275.3,-359.5 273.71,-349.03 268.42,-358.21 275.3,-359.5"/>
</a>
</g>
</g>
<!-- Node19 -->
<g id="Node000019" class="node">
<title>Node19</title>
<g id="a_Node000019"><a xlink:href="_audio_sample_fifo_queue_8cpp-inc.html" target="_top" xlink:title="The AudioSampleFifoQueue body implements a fifo queue for audio samples with popping off access to th...">
<polygon fill="white" stroke="#666666" points="219.5,-459 66.5,-459 66.5,-440 219.5,-440 219.5,-459"/>
<text text-anchor="middle" x="143" y="-447" font-family="Helvetica,sans-Serif" font-size="10.00">AudioSampleFifoQueue.cpp&#45;inc</text>
</a>
</g>
</g>
<!-- Node2&#45;&gt;Node19 -->
<g id="edge23_Node000002_Node000019" class="edge">
<title>Node2&#45;&gt;Node19</title>
<g id="a_edge23_Node000002_Node000019"><a xlink:title=" ">
<path fill="none" stroke="#63b8ff" d="M143,-494.75C143,-487.8 143,-477.85 143,-469.13"/>
<polygon fill="#63b8ff" stroke="#63b8ff" points="146.5,-469.09 143,-459.09 139.5,-469.09 146.5,-469.09"/>
</a>
</g>
</g>
<!-- Node4 -->
<g id="Node000004" class="node">
<title>Node4</title>
<g id="a_Node000004"><a xlink:title=" ">
<polygon fill="#e0e0e0" stroke="#999999" points="621,-74 577,-74 577,-55 621,-55 621,-74"/>
<text text-anchor="middle" x="599" y="-62" font-family="Helvetica,sans-Serif" font-size="10.00">cmath</text>
</a>
</g>
</g>
<!-- Node3&#45;&gt;Node4 -->
<g id="edge3_Node000003_Node000004" class="edge">
<title>Node3&#45;&gt;Node4</title>
<g id="a_edge3_Node000003_Node000004"><a xlink:title=" ">
<path fill="none" stroke="#63b8ff" d="M286.2,-114.12C349.05,-104.35 500.35,-80.83 566.79,-70.51"/>
<polygon fill="#63b8ff" stroke="#63b8ff" points="567.36,-73.96 576.7,-68.97 566.28,-67.04 567.36,-73.96"/>
</a>
</g>
</g>
<!-- Node5 -->
<g id="Node000005" class="node">
<title>Node5</title>
<g id="a_Node000005"><a xlink:href="_assertion_8h.html" target="_top" xlink:title="The Assertion specification defines macros for pre&#45; and postconditions in functions or methods.">
<polygon fill="white" stroke="#666666" points="125,-74 59,-74 59,-55 125,-55 125,-74"/>
<text text-anchor="middle" x="92" y="-62" font-family="Helvetica,sans-Serif" font-size="10.00">Assertion.h</text>
</a>
</g>
</g>
<!-- Node3&#45;&gt;Node5 -->
<g id="edge4_Node000003_Node000005" class="edge">
<title>Node3&#45;&gt;Node5</title>
<g id="a_edge4_Node000003_Node000005"><a xlink:title=" ">
<path fill="none" stroke="#63b8ff" d="M231.33,-109.98C203.46,-101.09 159.55,-87.07 128.48,-77.15"/>
<polygon fill="#63b8ff" stroke="#63b8ff" points="129.47,-73.79 118.88,-74.08 127.34,-80.46 129.47,-73.79"/>
</a>
</g>
</g>
<!-- Node8 -->
<g id="Node000008" class="node">
<title>Node8</title>
<g id="a_Node000008"><a xlink:title=" ">
<polygon fill="#e0e0e0" stroke="#999999" points="256,-74 164,-74 164,-55 256,-55 256,-74"/>
<text text-anchor="middle" x="210" y="-62" font-family="Helvetica,sans-Serif" font-size="10.00">GenericNumber.h</text>
</a>
</g>
</g>
<!-- Node3&#45;&gt;Node8 -->
<g id="edge7_Node000003_Node000008" class="edge">
<title>Node3&#45;&gt;Node8</title>
<g id="a_edge7_Node000003_Node000008"><a xlink:title=" ">
<path fill="none" stroke="#63b8ff" d="M250.07,-109.75C243.15,-102.11 232.93,-90.82 224.55,-81.56"/>
<polygon fill="#63b8ff" stroke="#63b8ff" points="227.09,-79.15 217.78,-74.09 221.9,-83.85 227.09,-79.15"/>
</a>
</g>
</g>
<!-- Node9 -->
<g id="Node000009" class="node">
<title>Node9</title>
<g id="a_Node000009"><a xlink:href="_my_string_8h.html" target="_top" xlink:title="The String specification defines a standard string type.">
<polygon fill="white" stroke="#666666" points="338,-74 274,-74 274,-55 338,-55 338,-74"/>
<text text-anchor="middle" x="306" y="-62" font-family="Helvetica,sans-Serif" font-size="10.00">MyString.h</text>
</a>
</g>
</g>
<!-- Node3&#45;&gt;Node9 -->
<g id="edge8_Node000003_Node000009" class="edge">
<title>Node3&#45;&gt;Node9</title>
<g id="a_edge8_Node000003_Node000009"><a xlink:title=" ">
<path fill="none" stroke="#63b8ff" d="M265.93,-109.75C272.85,-102.11 283.07,-90.82 291.45,-81.56"/>
<polygon fill="#63b8ff" stroke="#63b8ff" points="294.1,-83.85 298.22,-74.09 288.91,-79.15 294.1,-83.85"/>
</a>
</g>
</g>
<!-- Node6 -->
<g id="Node000006" class="node">
<title>Node6</title>
<g id="a_Node000006"><a xlink:title=" ">
<polygon fill="#e0e0e0" stroke="#999999" points="70.5,-19 11.5,-19 11.5,0 70.5,0 70.5,-19"/>
<text text-anchor="middle" x="41" y="-7" font-family="Helvetica,sans-Serif" font-size="10.00">stdexcept</text>
</a>
</g>
</g>
<!-- Node5&#45;&gt;Node6 -->
<g id="edge5_Node000005_Node000006" class="edge">
<title>Node5&#45;&gt;Node6</title>
<g id="a_edge5_Node000005_Node000006"><a xlink:title=" ">
<path fill="none" stroke="#63b8ff" d="M83.58,-54.75C76.23,-47.11 65.37,-35.82 56.46,-26.56"/>
<polygon fill="#63b8ff" stroke="#63b8ff" points="58.72,-23.87 49.26,-19.09 53.68,-28.72 58.72,-23.87"/>
</a>
</g>
</g>
<!-- Node7 -->
<g id="Node000007" class="node">
<title>Node7</title>
<g id="a_Node000007"><a xlink:title=" ">
<polygon fill="#e0e0e0" stroke="#999999" points="187.5,-19 146.5,-19 146.5,0 187.5,0 187.5,-19"/>
<text text-anchor="middle" x="167" y="-7" font-family="Helvetica,sans-Serif" font-size="10.00">string</text>
</a>
</g>
</g>
<!-- Node5&#45;&gt;Node7 -->
<g id="edge6_Node000005_Node000007" class="edge">
<title>Node5&#45;&gt;Node7</title>
<g id="a_edge6_Node000005_Node000007"><a xlink:title=" ">
<path fill="none" stroke="#63b8ff" d="M104.05,-54.98C115.46,-46.92 132.83,-34.65 146.43,-25.03"/>
<polygon fill="#63b8ff" stroke="#63b8ff" points="148.58,-27.8 154.73,-19.17 144.54,-22.08 148.58,-27.8"/>
</a>
</g>
</g>
<!-- Node9&#45;&gt;Node7 -->
<g id="edge9_Node000009_Node000007" class="edge">
<title>Node9&#45;&gt;Node7</title>
<g id="a_edge9_Node000009_Node000007"><a xlink:title=" ">
<path fill="none" stroke="#63b8ff" d="M283.67,-54.98C260.26,-46.06 223.33,-31.98 197.3,-22.05"/>
<polygon fill="#63b8ff" stroke="#63b8ff" points="198.5,-18.77 187.91,-18.47 196.01,-25.31 198.5,-18.77"/>
</a>
</g>
</g>
<!-- Node10 -->
<g id="Node000010" class="node">
<title>Node10</title>
<g id="a_Node000010"><a xlink:href="_global_macros_8h.html" target="_top" xlink:title="The GlobalMacros specification defines simple macros (e.g. for parameter modes).">
<polygon fill="white" stroke="#666666" points="348.5,-19 263.5,-19 263.5,0 348.5,0 348.5,-19"/>
<text text-anchor="middle" x="306" y="-7" font-family="Helvetica,sans-Serif" font-size="10.00">GlobalMacros.h</text>
</a>
</g>
</g>
<!-- Node9&#45;&gt;Node10 -->
<g id="edge10_Node000009_Node000010" class="edge">
<title>Node9&#45;&gt;Node10</title>
<g id="a_edge10_Node000009_Node000010"><a xlink:title=" ">
<path fill="none" stroke="#63b8ff" d="M306,-54.75C306,-47.8 306,-37.85 306,-29.13"/>
<polygon fill="#63b8ff" stroke="#63b8ff" points="309.5,-29.09 306,-19.09 302.5,-29.09 309.5,-29.09"/>
</a>
</g>
</g>
<!-- Node12 -->
<g id="Node000012" class="node">
<title>Node12</title>
<g id="a_Node000012"><a xlink:title=" ">
<polygon fill="#e0e0e0" stroke="#999999" points="360,-239 286,-239 286,-220 360,-220 360,-239"/>
<text text-anchor="middle" x="323" y="-227" font-family="Helvetica,sans-Serif" font-size="10.00">GenericList.h</text>
</a>
</g>
</g>
<!-- Node11&#45;&gt;Node12 -->
<g id="edge12_Node000011_Node000012" class="edge">
<title>Node11&#45;&gt;Node12</title>
<g id="a_edge12_Node000011_Node000012"><a xlink:title=" ">
<path fill="none" stroke="#63b8ff" d="M278.93,-329.66C286.81,-311.93 304.68,-271.73 315.08,-248.32"/>
<polygon fill="#63b8ff" stroke="#63b8ff" points="318.29,-249.72 319.15,-239.16 311.89,-246.87 318.29,-249.72"/>
</a>
</g>
</g>
<!-- Node13 -->
<g id="Node000013" class="node">
<title>Node13</title>
<g id="a_Node000013"><a xlink:href="_audio_sample_8h.html" target="_top" xlink:title="The AudioSample specification and body provides the definition of the audio sample (a real value).">
<polygon fill="white" stroke="#666666" points="407.5,-294 324.5,-294 324.5,-275 407.5,-275 407.5,-294"/>
<text text-anchor="middle" x="366" y="-282" font-family="Helvetica,sans-Serif" font-size="10.00">AudioSample.h</text>
</a>
</g>
</g>
<!-- Node11&#45;&gt;Node13 -->
<g id="edge13_Node000011_Node000013" class="edge">
<title>Node11&#45;&gt;Node13</title>
<g id="a_edge13_Node000011_Node000013"><a xlink:title=" ">
<path fill="none" stroke="#63b8ff" d="M289.62,-329.98C303.86,-321.69 325.75,-308.94 342.45,-299.22"/>
<polygon fill="#63b8ff" stroke="#63b8ff" points="344.23,-302.23 351.11,-294.17 340.71,-296.18 344.23,-302.23"/>
</a>
</g>
</g>
<!-- Node16 -->
<g id="Node000016" class="node">
<title>Node16</title>
<g id="a_Node000016"><a xlink:href="_audio_sample_list_8cpp-inc.html" target="_top" xlink:title="The AudioSampleList body implements a simple list of audio samples (this is the effective code includ...">
<polygon fill="white" stroke="#666666" points="229.5,-294 104.5,-294 104.5,-275 229.5,-275 229.5,-294"/>
<text text-anchor="middle" x="167" y="-282" font-family="Helvetica,sans-Serif" font-size="10.00">AudioSampleList.cpp&#45;inc</text>
</a>
</g>
</g>
<!-- Node11&#45;&gt;Node16 -->
<g id="edge19_Node000011_Node000016" class="edge">
<title>Node11&#45;&gt;Node16</title>
<g id="a_edge19_Node000011_Node000016"><a xlink:title=" ">
<path fill="none" stroke="#63b8ff" d="M257.65,-329.98C240.43,-321.54 213.8,-308.47 193.85,-298.68"/>
<polygon fill="#63b8ff" stroke="#63b8ff" points="195.19,-295.43 184.67,-294.17 192.1,-301.72 195.19,-295.43"/>
</a>
</g>
</g>
<!-- Node14 -->
<g id="Node000014" class="node">
<title>Node14</title>
<g id="a_Node000014"><a xlink:href="_real_8h.html" target="_top" xlink:title="The Real specification defines a value object type for real values.">
<polygon fill="white" stroke="#666666" points="422,-239 378,-239 378,-220 422,-220 422,-239"/>
<text text-anchor="middle" x="400" y="-227" font-family="Helvetica,sans-Serif" font-size="10.00">Real.h</text>
</a>
</g>
</g>
<!-- Node13&#45;&gt;Node14 -->
<g id="edge14_Node000013_Node000014" class="edge">
<title>Node13&#45;&gt;Node14</title>
<g id="a_edge14_Node000013_Node000014"><a xlink:title=" ">
<path fill="none" stroke="#63b8ff" d="M371.61,-274.75C376.32,-267.42 383.17,-256.73 388.97,-247.7"/>
<polygon fill="#63b8ff" stroke="#63b8ff" points="392.04,-249.4 394.49,-239.09 386.14,-245.62 392.04,-249.4"/>
</a>
</g>
</g>
<!-- Node15 -->
<g id="Node000015" class="node">
<title>Node15</title>
<g id="a_Node000015"><a xlink:href="_integer_8h.html" target="_top" xlink:title="The Integer specification and body provides a value object type for ints.">
<polygon fill="white" stroke="#666666" points="384,-184 330,-184 330,-165 384,-165 384,-184"/>
<text text-anchor="middle" x="357" y="-172" font-family="Helvetica,sans-Serif" font-size="10.00">Integer.h</text>
</a>
</g>
</g>
<!-- Node14&#45;&gt;Node15 -->
<g id="edge15_Node000014_Node000015" class="edge">
<title>Node14&#45;&gt;Node15</title>
<g id="a_edge15_Node000014_Node000015"><a xlink:title=" ">
<path fill="none" stroke="#63b8ff" d="M392.9,-219.75C386.83,-212.26 377.91,-201.28 370.49,-192.13"/>
<polygon fill="#63b8ff" stroke="#63b8ff" points="372.99,-189.65 363.97,-184.09 367.55,-194.06 372.99,-189.65"/>
</a>
</g>
</g>
<!-- Node15&#45;&gt;Node3 -->
<g id="edge18_Node000015_Node000003" class="edge">
<title>Node15&#45;&gt;Node3</title>
<g id="a_edge18_Node000015_Node000003"><a xlink:title=" ">
<path fill="none" stroke="#63b8ff" d="M341.09,-164.98C325.45,-156.61 301.34,-143.7 283.12,-133.95"/>
<polygon fill="#63b8ff" stroke="#63b8ff" points="284.66,-130.8 274.2,-129.17 281.36,-136.98 284.66,-130.8"/>
</a>
</g>
</g>
<!-- Node15&#45;&gt;Node4 -->
<g id="edge16_Node000015_Node000004" class="edge">
<title>Node15&#45;&gt;Node4</title>
<g id="a_edge16_Node000015_Node000004"><a xlink:title=" ">
<path fill="none" stroke="#63b8ff" d="M376.39,-164.84C418.98,-145.84 520.82,-100.39 570.62,-78.17"/>
<polygon fill="#63b8ff" stroke="#63b8ff" points="572.14,-81.32 579.85,-74.05 569.29,-74.93 572.14,-81.32"/>
</a>
</g>
</g>
<!-- Node15&#45;&gt;Node6 -->
<g id="edge17_Node000015_Node000006" class="edge">
<title>Node15&#45;&gt;Node6</title>
<g id="a_edge17_Node000015_Node000006"><a xlink:title=" ">
<path fill="none" stroke="#63b8ff" d="M329.71,-173.61C268.93,-172.25 122.11,-159.77 50,-74 39.7,-61.75 38.13,-43.23 38.73,-29.35"/>
<polygon fill="#63b8ff" stroke="#63b8ff" points="42.25,-29.28 39.61,-19.02 35.28,-28.69 42.25,-29.28"/>
</a>
</g>
</g>
<!-- Node17 -->
<g id="Node000017" class="node">
<title>Node17</title>
<g id="a_Node000017"><a xlink:href="_my_array_8h.html" target="_top" xlink:title="The MyArray specification and body defines a generic array type for stack allocated arrays represente...">
<polygon fill="white" stroke="#666666" points="198,-239 136,-239 136,-220 198,-220 198,-239"/>
<text text-anchor="middle" x="167" y="-227" font-family="Helvetica,sans-Serif" font-size="10.00">MyArray.h</text>
</a>
</g>
</g>
<!-- Node16&#45;&gt;Node17 -->
<g id="edge20_Node000016_Node000017" class="edge">
<title>Node16&#45;&gt;Node17</title>
<g id="a_edge20_Node000016_Node000017"><a xlink:title=" ">
<path fill="none" stroke="#63b8ff" d="M167,-274.75C167,-267.8 167,-257.85 167,-249.13"/>
<polygon fill="#63b8ff" stroke="#63b8ff" points="170.5,-249.09 167,-239.09 163.5,-249.09 170.5,-249.09"/>
</a>
</g>
</g>
<!-- Node17&#45;&gt;Node3 -->
<g id="edge22_Node000017_Node000003" class="edge">
<title>Node17&#45;&gt;Node3</title>
<g id="a_edge22_Node000017_Node000003"><a xlink:title=" ">
<path fill="none" stroke="#63b8ff" d="M174.45,-219.66C189.65,-201.61 224.48,-160.28 244.03,-137.08"/>
<polygon fill="#63b8ff" stroke="#63b8ff" points="246.94,-139.06 250.7,-129.16 241.58,-134.55 246.94,-139.06"/>
</a>
</g>
</g>
<!-- Node18 -->
<g id="Node000018" class="node">
<title>Node18</title>
<g id="a_Node000018"><a xlink:title=" ">
<polygon fill="#e0e0e0" stroke="#999999" points="190,-184 144,-184 144,-165 190,-165 190,-184"/>
<text text-anchor="middle" x="167" y="-172" font-family="Helvetica,sans-Serif" font-size="10.00">cstring</text>
</a>
</g>
</g>
<!-- Node17&#45;&gt;Node18 -->
<g id="edge21_Node000017_Node000018" class="edge">
<title>Node17&#45;&gt;Node18</title>
<g id="a_edge21_Node000017_Node000018"><a xlink:title=" ">
<path fill="none" stroke="#63b8ff" d="M167,-219.75C167,-212.8 167,-202.85 167,-194.13"/>
<polygon fill="#63b8ff" stroke="#63b8ff" points="170.5,-194.09 167,-184.09 163.5,-194.09 170.5,-194.09"/>
</a>
</g>
</g>
<!-- Node19&#45;&gt;Node5 -->
<g id="edge24_Node000019_Node000005" class="edge">
<title>Node19&#45;&gt;Node5</title>
<g id="a_edge24_Node000019_Node000005"><a xlink:title=" ">
<path fill="none" stroke="#63b8ff" d="M111.26,-439.95C69.13,-426.46 0,-395.88 0,-340.5 0,-340.5 0,-340.5 0,-173.5 0,-131.45 40.91,-97.46 68.17,-79.48"/>
<polygon fill="#63b8ff" stroke="#63b8ff" points="70.23,-82.31 76.81,-74 66.49,-76.4 70.23,-82.31"/>
</a>
</g>
</g>
<!-- Node19&#45;&gt;Node17 -->
<g id="edge45_Node000019_Node000017" class="edge">
<title>Node19&#45;&gt;Node17</title>
<g id="a_edge45_Node000019_Node000017"><a xlink:title=" ">
<path fill="none" stroke="#63b8ff" d="M136.1,-439.64C116.32,-413.11 62.89,-332.6 95,-275 103.04,-260.58 117.9,-250.24 132.04,-243.18"/>
<polygon fill="#63b8ff" stroke="#63b8ff" points="133.51,-246.36 141.15,-239.01 130.6,-239.99 133.51,-246.36"/>
</a>
</g>
</g>
<!-- Node20 -->
<g id="Node000020" class="node">
<title>Node20</title>
<g id="a_Node000020"><a xlink:href="_logging_8h.html" target="_top" xlink:title="The Logging specification defines macros for entry&#45;, exit&#45; and intermediate logging of functions into...">
<polygon fill="white" stroke="#666666" points="452.5,-404 393.5,-404 393.5,-385 452.5,-385 452.5,-404"/>
<text text-anchor="middle" x="423" y="-392" font-family="Helvetica,sans-Serif" font-size="10.00">Logging.h</text>
</a>
</g>
</g>
<!-- Node19&#45;&gt;Node20 -->
<g id="edge25_Node000019_Node000020" class="edge">
<title>Node19&#45;&gt;Node20</title>
<g id="a_edge25_Node000019_Node000020"><a xlink:title=" ">
<path fill="none" stroke="#63b8ff" d="M187.99,-439.98C241.93,-429.77 331.51,-412.82 383.09,-403.05"/>
<polygon fill="#63b8ff" stroke="#63b8ff" points="384.02,-406.44 393.19,-401.14 382.71,-399.56 384.02,-406.44"/>
</a>
</g>
</g>
<!-- Node21 -->
<g id="Node000021" class="node">
<title>Node21</title>
<g id="a_Node000021"><a xlink:title=" ">
<polygon fill="#e0e0e0" stroke="#999999" points="403.5,-349 354.5,-349 354.5,-330 403.5,-330 403.5,-349"/>
<text text-anchor="middle" x="379" y="-337" font-family="Helvetica,sans-Serif" font-size="10.00">cstdarg</text>
</a>
</g>
</g>
<!-- Node20&#45;&gt;Node21 -->
<g id="edge26_Node000020_Node000021" class="edge">
<title>Node20&#45;&gt;Node21</title>
<g id="a_edge26_Node000020_Node000021"><a xlink:title=" ">
<path fill="none" stroke="#63b8ff" d="M415.73,-384.75C409.46,-377.18 400.21,-366.05 392.57,-356.84"/>
<polygon fill="#63b8ff" stroke="#63b8ff" points="395.21,-354.55 386.13,-349.09 389.83,-359.02 395.21,-354.55"/>
</a>
</g>
</g>
<!-- Node22 -->
<g id="Node000022" class="node">
<title>Node22</title>
<g id="a_Node000022"><a xlink:href="_logging_support_8h.html" target="_top" xlink:title="The LoggingSupport specification defines a class for simple entry/exit logging to a file or via an ar...">
<polygon fill="white" stroke="#666666" points="514,-349 422,-349 422,-330 514,-330 514,-349"/>
<text text-anchor="middle" x="468" y="-337" font-family="Helvetica,sans-Serif" font-size="10.00">LoggingSupport.h</text>
</a>
</g>
</g>
<!-- Node20&#45;&gt;Node22 -->
<g id="edge27_Node000020_Node000022" class="edge">
<title>Node20&#45;&gt;Node22</title>
<g id="a_edge27_Node000020_Node000022"><a xlink:title=" ">
<path fill="none" stroke="#63b8ff" d="M430.43,-384.75C436.85,-377.18 446.31,-366.05 454.12,-356.84"/>
<polygon fill="#63b8ff" stroke="#63b8ff" points="456.9,-358.98 460.71,-349.09 451.57,-354.45 456.9,-358.98"/>
</a>
</g>
</g>
<!-- Node24 -->
<g id="Node000024" class="node">
<title>Node24</title>
<g id="a_Node000024"><a xlink:href="_string_util_8h.html" target="_top" xlink:title="The StringUtil specification defines several string routines not included in the standard C++ library...">
<polygon fill="white" stroke="#666666" points="603.5,-349 538.5,-349 538.5,-330 603.5,-330 603.5,-349"/>
<text text-anchor="middle" x="571" y="-337" font-family="Helvetica,sans-Serif" font-size="10.00">StringUtil.h</text>
</a>
</g>
</g>
<!-- Node20&#45;&gt;Node24 -->
<g id="edge31_Node000020_Node000024" class="edge">
<title>Node20&#45;&gt;Node24</title>
<g id="a_edge31_Node000020_Node000024"><a xlink:title=" ">
<path fill="none" stroke="#63b8ff" d="M446.78,-384.98C471.23,-376.23 509.53,-362.51 537.15,-352.62"/>
<polygon fill="#63b8ff" stroke="#63b8ff" points="538.55,-355.84 546.79,-349.17 536.19,-349.25 538.55,-355.84"/>
</a>
</g>
</g>
<!-- Node22&#45;&gt;Node3 -->
<g id="edge30_Node000022_Node000003" class="edge">
<title>Node22&#45;&gt;Node3</title>
<g id="a_edge30_Node000022_Node000003"><a xlink:title=" ">
<path fill="none" stroke="#63b8ff" d="M428.19,-329.97C389.5,-321.14 334.02,-306.85 316,-294 265.83,-258.23 258.39,-177.03 257.73,-139.8"/>
<polygon fill="#63b8ff" stroke="#63b8ff" points="261.23,-139.37 257.71,-129.37 254.23,-139.38 261.23,-139.37"/>
</a>
</g>
</g>
<!-- Node23 -->
<g id="Node000023" class="node">
<title>Node23</title>
<g id="a_Node000023"><a xlink:href="_boolean_8h.html" target="_top" xlink:title="The Boolean specification and body provides a value object type for boolean values.">
<polygon fill="white" stroke="#666666" points="662,-294 602,-294 602,-275 662,-275 662,-294"/>
<text text-anchor="middle" x="632" y="-282" font-family="Helvetica,sans-Serif" font-size="10.00">Boolean.h</text>
</a>
</g>
</g>
<!-- Node22&#45;&gt;Node23 -->
<g id="edge28_Node000022_Node000023" class="edge">
<title>Node22&#45;&gt;Node23</title>
<g id="a_edge28_Node000022_Node000023"><a xlink:title=" ">
<path fill="none" stroke="#63b8ff" d="M494.35,-329.98C521.76,-321.13 564.89,-307.19 595.56,-297.28"/>
<polygon fill="#63b8ff" stroke="#63b8ff" points="597,-300.49 605.44,-294.08 594.85,-293.83 597,-300.49"/>
</a>
</g>
</g>
<!-- Node23&#45;&gt;Node9 -->
<g id="edge29_Node000023_Node000009" class="edge">
<title>Node23&#45;&gt;Node9</title>
<g id="a_edge29_Node000023_Node000009"><a xlink:title=" ">
<path fill="none" stroke="#63b8ff" d="M619.22,-274.95C569.73,-241.86 390.33,-121.89 327.73,-80.03"/>
<polygon fill="#63b8ff" stroke="#63b8ff" points="329.3,-76.87 319.05,-74.22 325.41,-82.69 329.3,-76.87"/>
</a>
</g>
</g>
<!-- Node24&#45;&gt;Node23 -->
<g id="edge32_Node000024_Node000023" class="edge">
<title>Node24&#45;&gt;Node23</title>
<g id="a_edge32_Node000024_Node000023"><a xlink:title=" ">
<path fill="none" stroke="#63b8ff" d="M580.8,-329.98C589.82,-322.15 603.41,-310.34 614.32,-300.86"/>
<polygon fill="#63b8ff" stroke="#63b8ff" points="616.77,-303.37 622.02,-294.17 612.18,-298.09 616.77,-303.37"/>
</a>
</g>
</g>
<!-- Node25 -->
<g id="Node000025" class="node">
<title>Node25</title>
<g id="a_Node000025"><a xlink:href="_character_8h.html" target="_top" xlink:title="The Character specification and body provides a value object type for character values.">
<polygon fill="white" stroke="#666666" points="753.5,-239 686.5,-239 686.5,-220 753.5,-220 753.5,-239"/>
<text text-anchor="middle" x="720" y="-227" font-family="Helvetica,sans-Serif" font-size="10.00">Character.h</text>
</a>
</g>
</g>
<!-- Node24&#45;&gt;Node25 -->
<g id="edge33_Node000024_Node000025" class="edge">
<title>Node24&#45;&gt;Node25</title>
<g id="a_edge33_Node000024_Node000025"><a xlink:title=" ">
<path fill="none" stroke="#63b8ff" d="M603.73,-334.77C648.74,-328.89 726.1,-315.83 743,-294 753.72,-280.16 744.11,-260.86 734.24,-247.18"/>
<polygon fill="#63b8ff" stroke="#63b8ff" points="736.85,-244.84 727.93,-239.12 731.34,-249.15 736.85,-244.84"/>
</a>
</g>
</g>
<!-- Node28 -->
<g id="Node000028" class="node">
<title>Node28</title>
<g id="a_Node000028"><a xlink:href="_object_8h.html" target="_top" xlink:title="The Object specification and body provides the root object type.">
<polygon fill="white" stroke="#666666" points="733.5,-294 680.5,-294 680.5,-275 733.5,-275 733.5,-294"/>
<text text-anchor="middle" x="707" y="-282" font-family="Helvetica,sans-Serif" font-size="10.00">Object.h</text>
</a>
</g>
</g>
<!-- Node24&#45;&gt;Node28 -->
<g id="edge39_Node000024_Node000028" class="edge">
<title>Node24&#45;&gt;Node28</title>
<g id="a_edge39_Node000024_Node000028"><a xlink:title=" ">
<path fill="none" stroke="#63b8ff" d="M592.85,-329.98C615.12,-321.3 649.9,-307.75 675.22,-297.88"/>
<polygon fill="#63b8ff" stroke="#63b8ff" points="676.71,-301.06 684.75,-294.17 674.16,-294.54 676.71,-301.06"/>
</a>
</g>
</g>
<!-- Node29 -->
<g id="Node000029" class="node">
<title>Node29</title>
<g id="a_Node000029"><a xlink:href="_percentage_8h.html" target="_top" xlink:title="The Percentage specification and body provides a simple percentage type.">
<polygon fill="white" stroke="#666666" points="500,-294 426,-294 426,-275 500,-275 500,-294"/>
<text text-anchor="middle" x="463" y="-282" font-family="Helvetica,sans-Serif" font-size="10.00">Percentage.h</text>
</a>
</g>
</g>
<!-- Node24&#45;&gt;Node29 -->
<g id="edge40_Node000024_Node000029" class="edge">
<title>Node24&#45;&gt;Node29</title>
<g id="a_edge40_Node000024_Node000029"><a xlink:title=" ">
<path fill="none" stroke="#63b8ff" d="M553.65,-329.98C536.43,-321.54 509.8,-308.47 489.85,-298.68"/>
<polygon fill="#63b8ff" stroke="#63b8ff" points="491.19,-295.43 480.67,-294.17 488.1,-301.72 491.19,-295.43"/>
</a>
</g>
</g>
<!-- Node30 -->
<g id="Node000030" class="node">
<title>Node30</title>
<g id="a_Node000030"><a xlink:href="_string_list_8h.html" target="_top" xlink:title="The StringList specification defines lists of string values with zero&#45;based arbitrary indexed access ...">
<polygon fill="white" stroke="#666666" points="584,-294 518,-294 518,-275 584,-275 584,-294"/>
<text text-anchor="middle" x="551" y="-282" font-family="Helvetica,sans-Serif" font-size="10.00">StringList.h</text>
</a>
</g>
</g>
<!-- Node24&#45;&gt;Node30 -->
<g id="edge42_Node000024_Node000030" class="edge">
<title>Node24&#45;&gt;Node30</title>
<g id="a_edge42_Node000024_Node000030"><a xlink:title=" ">
<path fill="none" stroke="#63b8ff" d="M567.7,-329.75C565.02,-322.65 561.15,-312.4 557.81,-303.56"/>
<polygon fill="#63b8ff" stroke="#63b8ff" points="561.05,-302.21 554.24,-294.09 554.5,-304.68 561.05,-302.21"/>
</a>
</g>
</g>
<!-- Node25&#45;&gt;Node4 -->
<g id="edge34_Node000025_Node000004" class="edge">
<title>Node25&#45;&gt;Node4</title>
<g id="a_edge34_Node000025_Node000004"><a xlink:title=" ">
<path fill="none" stroke="#63b8ff" d="M721.19,-219.98C723.64,-198.9 727.03,-143.6 701,-110 684.07,-88.15 654.2,-76.82 631.14,-71.08"/>
<polygon fill="#63b8ff" stroke="#63b8ff" points="631.63,-67.6 621.1,-68.82 630.09,-74.43 631.63,-67.6"/>
</a>
</g>
</g>
<!-- Node26 -->
<g id="Node000026" class="node">
<title>Node26</title>
<g id="a_Node000026"><a xlink:href="_byte_8h.html" target="_top" xlink:title="The Byte specification and body provides a value object type for byte values.">
<polygon fill="white" stroke="#666666" points="665.5,-184 620.5,-184 620.5,-165 665.5,-165 665.5,-184"/>
<text text-anchor="middle" x="643" y="-172" font-family="Helvetica,sans-Serif" font-size="10.00">Byte.h</text>
</a>
</g>
</g>
<!-- Node25&#45;&gt;Node26 -->
<g id="edge35_Node000025_Node000026" class="edge">
<title>Node25&#45;&gt;Node26</title>
<g id="a_edge35_Node000025_Node000026"><a xlink:title=" ">
<path fill="none" stroke="#63b8ff" d="M707.63,-219.98C695.91,-211.92 678.08,-199.65 664.11,-190.03"/>
<polygon fill="#63b8ff" stroke="#63b8ff" points="665.82,-186.96 655.6,-184.17 661.85,-192.72 665.82,-186.96"/>
</a>
</g>
</g>
<!-- Node26&#45;&gt;Node3 -->
<g id="edge38_Node000026_Node000003" class="edge">
<title>Node26&#45;&gt;Node3</title>
<g id="a_edge38_Node000026_Node000003"><a xlink:title=" ">
<path fill="none" stroke="#63b8ff" d="M620.35,-170.38C556.72,-161.62 375.79,-136.72 296.28,-125.77"/>
<polygon fill="#63b8ff" stroke="#63b8ff" points="296.59,-122.28 286.2,-124.38 295.63,-129.21 296.59,-122.28"/>
</a>
</g>
</g>
<!-- Node26&#45;&gt;Node4 -->
<g id="edge36_Node000026_Node000004" class="edge">
<title>Node26&#45;&gt;Node4</title>
<g id="a_edge36_Node000026_Node000004"><a xlink:title=" ">
<path fill="none" stroke="#63b8ff" d="M639.4,-164.66C632.21,-147.01 615.94,-107.09 606.39,-83.64"/>
<polygon fill="#63b8ff" stroke="#63b8ff" points="609.54,-82.1 602.53,-74.16 603.06,-84.74 609.54,-82.1"/>
</a>
</g>
</g>
<!-- Node27 -->
<g id="Node000027" class="node">
<title>Node27</title>
<g id="a_Node000027"><a xlink:title=" ">
<polygon fill="#e0e0e0" stroke="#999999" points="692,-129 646,-129 646,-110 692,-110 692,-129"/>
<text text-anchor="middle" x="669" y="-117" font-family="Helvetica,sans-Serif" font-size="10.00">cstdint</text>
</a>
</g>
</g>
<!-- Node26&#45;&gt;Node27 -->
<g id="edge37_Node000026_Node000027" class="edge">
<title>Node26&#45;&gt;Node27</title>
<g id="a_edge37_Node000026_Node000027"><a xlink:title=" ">
<path fill="none" stroke="#63b8ff" d="M647.29,-164.75C650.81,-157.57 655.91,-147.18 660.28,-138.27"/>
<polygon fill="#63b8ff" stroke="#63b8ff" points="663.52,-139.61 664.79,-129.09 657.24,-136.53 663.52,-139.61"/>
</a>
</g>
</g>
<!-- Node29&#45;&gt;Node14 -->
<g id="edge41_Node000029_Node000014" class="edge">
<title>Node29&#45;&gt;Node14</title>
<g id="a_edge41_Node000029_Node000014"><a xlink:title=" ">
<path fill="none" stroke="#63b8ff" d="M452.88,-274.98C443.56,-267.15 429.53,-255.34 418.26,-245.86"/>
<polygon fill="#63b8ff" stroke="#63b8ff" points="420.21,-242.93 410.31,-239.17 415.71,-248.29 420.21,-242.93"/>
</a>
</g>
</g>
<!-- Node30&#45;&gt;Node12 -->
<g id="edge44_Node000030_Node000012" class="edge">
<title>Node30&#45;&gt;Node12</title>
<g id="a_edge44_Node000030_Node000012"><a xlink:title=" ">
<path fill="none" stroke="#63b8ff" d="M517.85,-275.79C478.77,-266.71 413.6,-251.56 369.49,-241.31"/>
<polygon fill="#63b8ff" stroke="#63b8ff" points="370.12,-237.86 359.59,-239.01 368.54,-244.68 370.12,-237.86"/>
</a>
</g>
</g>
<!-- Node31 -->
<g id="Node000031" class="node">
<title>Node31</title>
<g id="a_Node000031"><a xlink:title=" ">
<polygon fill="#e0e0e0" stroke="#999999" points="513.5,-239 440.5,-239 440.5,-220 513.5,-220 513.5,-239"/>
<text text-anchor="middle" x="477" y="-227" font-family="Helvetica,sans-Serif" font-size="10.00">initializer_list</text>
</a>
</g>
</g>
<!-- Node30&#45;&gt;Node31 -->
<g id="edge43_Node000030_Node000031" class="edge">
<title>Node30&#45;&gt;Node31</title>
<g id="a_edge43_Node000030_Node000031"><a xlink:title=" ">
<path fill="none" stroke="#63b8ff" d="M539.11,-274.98C527.85,-266.92 510.71,-254.65 497.29,-245.03"/>
<polygon fill="#63b8ff" stroke="#63b8ff" points="499.27,-242.15 489.11,-239.17 495.2,-247.84 499.27,-242.15"/>
</a>
</g>
</g>
</g>
</svg>
