<?xml version="1.0" encoding="UTF-8" standalone="no"?>
<!DOCTYPE svg PUBLIC "-//W3C//DTD SVG 1.1//EN"
 "http://www.w3.org/Graphics/SVG/1.1/DTD/svg11.dtd">
<!-- Generated by graphviz version 2.47.1 (20210417.1919)
 -->
<!-- Title: AudioSampleFifoQueueVector.cpp&#45;inc Pages: 1 -->
<svg width="608pt" height="476pt"
 viewBox="0.00 0.00 608.00 476.00" xmlns="http://www.w3.org/2000/svg" xmlns:xlink="http://www.w3.org/1999/xlink">
<g id="graph0" class="graph" transform="scale(1 1) rotate(0) translate(4 472)">
<title>AudioSampleFifoQueueVector.cpp&#45;inc</title>
<polygon fill="white" stroke="transparent" points="-4,4 -4,-472 604,-472 604,4 -4,4"/>
<!-- Node1 -->
<g id="node1" class="node">
<title>Node1</title>
<g id="a_node1"><a xlink:title="The AudioSampleFifoQueueVector body implements a list of fifo queues for audio samples (this is the e...">
<polygon fill="#bfbfbf" stroke="black" points="77.5,-448.5 77.5,-467.5 259.5,-467.5 259.5,-448.5 77.5,-448.5"/>
<text text-anchor="middle" x="168.5" y="-455.5" font-family="Helvetica,sans-Serif" font-size="10.00">AudioSampleFifoQueueVector.cpp&#45;inc</text>
</a>
</g>
</g>
<!-- Node2 -->
<g id="node2" class="node">
<title>Node2</title>
<g id="a_node2"><a xlink:href="_assertion_8h.html" target="_top" xlink:title="The Assertion specification defines macros for pre&#45; and postconditions in functions or methods.">
<polygon fill="white" stroke="black" points="92.5,-56.5 92.5,-75.5 158.5,-75.5 158.5,-56.5 92.5,-56.5"/>
<text text-anchor="middle" x="125.5" y="-63.5" font-family="Helvetica,sans-Serif" font-size="10.00">Assertion.h</text>
</a>
</g>
</g>
<!-- Node1&#45;&gt;Node2 -->
<g id="edge1" class="edge">
<title>Node1&#45;&gt;Node2</title>
<path fill="none" stroke="midnightblue" d="M162.66,-448.31C151.12,-430.26 126.5,-387.07 126.5,-347 126.5,-347 126.5,-347 126.5,-177 126.5,-144.95 126.07,-107.64 125.77,-85.75"/>
<polygon fill="midnightblue" stroke="midnightblue" points="129.27,-85.51 125.63,-75.56 122.27,-85.61 129.27,-85.51"/>
</g>
<!-- Node5 -->
<g id="node5" class="node">
<title>Node5</title>
<g id="a_node5"><a xlink:href="_logging_8h.html" target="_top" xlink:title="The Logging specification defines macros for entry&#45;, exit&#45; and intermediate logging of functions into...">
<polygon fill="white" stroke="black" points="236,-392.5 236,-411.5 295,-411.5 295,-392.5 236,-392.5"/>
<text text-anchor="middle" x="265.5" y="-399.5" font-family="Helvetica,sans-Serif" font-size="10.00">Logging.h</text>
</a>
</g>
</g>
<!-- Node1&#45;&gt;Node5 -->
<g id="edge4" class="edge">
<title>Node1&#45;&gt;Node5</title>
<path fill="none" stroke="midnightblue" d="M184.08,-448.32C199.5,-439.74 223.31,-426.49 241.21,-416.52"/>
<polygon fill="midnightblue" stroke="midnightblue" points="242.92,-419.58 249.95,-411.65 239.51,-413.46 242.92,-419.58"/>
</g>
<!-- Node3 -->
<g id="node3" class="node">
<title>Node3</title>
<g id="a_node3"><a xlink:title=" ">
<polygon fill="white" stroke="#bfbfbf" points="215,-0.5 215,-19.5 274,-19.5 274,-0.5 215,-0.5"/>
<text text-anchor="middle" x="244.5" y="-7.5" font-family="Helvetica,sans-Serif" font-size="10.00">stdexcept</text>
</a>
</g>
</g>
<!-- Node2&#45;&gt;Node3 -->
<g id="edge2" class="edge">
<title>Node2&#45;&gt;Node3</title>
<path fill="none" stroke="midnightblue" d="M144.36,-56.44C163.77,-47.64 194.23,-33.81 216.46,-23.72"/>
<polygon fill="midnightblue" stroke="midnightblue" points="218.07,-26.84 225.73,-19.52 215.18,-20.46 218.07,-26.84"/>
</g>
<!-- Node4 -->
<g id="node4" class="node">
<title>Node4</title>
<g id="a_node4"><a xlink:title=" ">
<polygon fill="white" stroke="#bfbfbf" points="104,-0.5 104,-19.5 145,-19.5 145,-0.5 104,-0.5"/>
<text text-anchor="middle" x="124.5" y="-7.5" font-family="Helvetica,sans-Serif" font-size="10.00">string</text>
</a>
</g>
</g>
<!-- Node2&#45;&gt;Node4 -->
<g id="edge3" class="edge">
<title>Node2&#45;&gt;Node4</title>
<path fill="none" stroke="midnightblue" d="M125.33,-56.08C125.2,-49.01 125.02,-38.86 124.85,-29.99"/>
<polygon fill="midnightblue" stroke="midnightblue" points="128.35,-29.68 124.66,-19.75 121.35,-29.81 128.35,-29.68"/>
</g>
<!-- Node6 -->
<g id="node6" class="node">
<title>Node6</title>
<g id="a_node6"><a xlink:title=" ">
<polygon fill="white" stroke="#bfbfbf" points="365,-336.5 365,-355.5 414,-355.5 414,-336.5 365,-336.5"/>
<text text-anchor="middle" x="389.5" y="-343.5" font-family="Helvetica,sans-Serif" font-size="10.00">cstdarg</text>
</a>
</g>
</g>
<!-- Node5&#45;&gt;Node6 -->
<g id="edge5" class="edge">
<title>Node5&#45;&gt;Node6</title>
<path fill="none" stroke="midnightblue" d="M285.15,-392.44C305.46,-383.6 337.4,-369.69 360.6,-359.59"/>
<polygon fill="midnightblue" stroke="midnightblue" points="362.17,-362.72 369.94,-355.52 359.38,-356.3 362.17,-362.72"/>
</g>
<!-- Node7 -->
<g id="node7" class="node">
<title>Node7</title>
<g id="a_node7"><a xlink:href="_logging_support_8h.html" target="_top" xlink:title="The LoggingSupport specification defines a class for simple entry/exit logging to a file or via an ar...">
<polygon fill="white" stroke="black" points="171.5,-336.5 171.5,-355.5 263.5,-355.5 263.5,-336.5 171.5,-336.5"/>
<text text-anchor="middle" x="217.5" y="-343.5" font-family="Helvetica,sans-Serif" font-size="10.00">LoggingSupport.h</text>
</a>
</g>
</g>
<!-- Node5&#45;&gt;Node7 -->
<g id="edge6" class="edge">
<title>Node5&#45;&gt;Node7</title>
<path fill="none" stroke="midnightblue" d="M257.57,-392.08C250.65,-384.3 240.43,-372.8 232.05,-363.37"/>
<polygon fill="midnightblue" stroke="midnightblue" points="234.54,-360.9 225.28,-355.75 229.31,-365.55 234.54,-360.9"/>
</g>
<!-- Node14 -->
<g id="node14" class="node">
<title>Node14</title>
<g id="a_node14"><a xlink:href="_string_util_8h.html" target="_top" xlink:title="The StringUtil specification defines several string routines not included in the standard C++ library...">
<polygon fill="white" stroke="black" points="282,-336.5 282,-355.5 347,-355.5 347,-336.5 282,-336.5"/>
<text text-anchor="middle" x="314.5" y="-343.5" font-family="Helvetica,sans-Serif" font-size="10.00">StringUtil.h</text>
</a>
</g>
</g>
<!-- Node5&#45;&gt;Node14 -->
<g id="edge16" class="edge">
<title>Node5&#45;&gt;Node14</title>
<path fill="none" stroke="midnightblue" d="M273.59,-392.08C280.66,-384.3 291.09,-372.8 299.65,-363.37"/>
<polygon fill="midnightblue" stroke="midnightblue" points="302.43,-365.51 306.56,-355.75 297.25,-360.8 302.43,-365.51"/>
</g>
<!-- Node8 -->
<g id="node8" class="node">
<title>Node8</title>
<g id="a_node8"><a xlink:href="_boolean_8h.html" target="_top" xlink:title="The Boolean specification and body provides a value object type for boolean values.">
<polygon fill="white" stroke="black" points="199.5,-280.5 199.5,-299.5 259.5,-299.5 259.5,-280.5 199.5,-280.5"/>
<text text-anchor="middle" x="229.5" y="-287.5" font-family="Helvetica,sans-Serif" font-size="10.00">Boolean.h</text>
</a>
</g>
</g>
<!-- Node7&#45;&gt;Node8 -->
<g id="edge7" class="edge">
<title>Node7&#45;&gt;Node8</title>
<path fill="none" stroke="midnightblue" d="M219.48,-336.08C221.07,-328.93 223.36,-318.64 225.35,-309.69"/>
<polygon fill="midnightblue" stroke="midnightblue" points="228.8,-310.27 227.56,-299.75 221.97,-308.75 228.8,-310.27"/>
</g>
<!-- Node11 -->
<g id="node11" class="node">
<title>Node11</title>
<g id="a_node11"><a xlink:href="_natural_8h.html" target="_top" xlink:title="The Natural specification and body provides a value object type for naturals (positive integers with ...">
<polygon fill="white" stroke="black" points="194.5,-112.5 194.5,-131.5 250.5,-131.5 250.5,-112.5 194.5,-112.5"/>
<text text-anchor="middle" x="222.5" y="-119.5" font-family="Helvetica,sans-Serif" font-size="10.00">Natural.h</text>
</a>
</g>
</g>
<!-- Node7&#45;&gt;Node11 -->
<g id="edge11" class="edge">
<title>Node7&#45;&gt;Node11</title>
<path fill="none" stroke="midnightblue" d="M210.35,-336.36C203.73,-327.76 194.34,-313.87 190.5,-300 174.7,-242.95 199.85,-173.33 213.96,-141.05"/>
<polygon fill="midnightblue" stroke="midnightblue" points="217.3,-142.15 218.25,-131.6 210.93,-139.26 217.3,-142.15"/>
</g>
<!-- Node9 -->
<g id="node9" class="node">
<title>Node9</title>
<g id="a_node9"><a xlink:href="_my_string_8h.html" target="_top" xlink:title="The String specification defines a standard string type.">
<polygon fill="white" stroke="black" points="10.5,-56.5 10.5,-75.5 74.5,-75.5 74.5,-56.5 10.5,-56.5"/>
<text text-anchor="middle" x="42.5" y="-63.5" font-family="Helvetica,sans-Serif" font-size="10.00">MyString.h</text>
</a>
</g>
</g>
<!-- Node8&#45;&gt;Node9 -->
<g id="edge8" class="edge">
<title>Node8&#45;&gt;Node9</title>
<path fill="none" stroke="midnightblue" d="M222.17,-280.3C194.19,-247.08 93.81,-127.92 56.55,-83.68"/>
<polygon fill="midnightblue" stroke="midnightblue" points="59.1,-81.28 49.98,-75.88 53.75,-85.79 59.1,-81.28"/>
</g>
<!-- Node9&#45;&gt;Node4 -->
<g id="edge9" class="edge">
<title>Node9&#45;&gt;Node4</title>
<path fill="none" stroke="midnightblue" d="M55.67,-56.32C68.35,-47.98 87.73,-35.21 102.71,-25.35"/>
<polygon fill="midnightblue" stroke="midnightblue" points="104.93,-28.08 111.36,-19.65 101.08,-22.23 104.93,-28.08"/>
</g>
<!-- Node10 -->
<g id="node10" class="node">
<title>Node10</title>
<g id="a_node10"><a xlink:href="_global_macros_8h.html" target="_top" xlink:title="The GlobalMacros specification defines simple macros (e.g. for parameter modes).">
<polygon fill="white" stroke="black" points="0,-0.5 0,-19.5 85,-19.5 85,-0.5 0,-0.5"/>
<text text-anchor="middle" x="42.5" y="-7.5" font-family="Helvetica,sans-Serif" font-size="10.00">GlobalMacros.h</text>
</a>
</g>
</g>
<!-- Node9&#45;&gt;Node10 -->
<g id="edge10" class="edge">
<title>Node9&#45;&gt;Node10</title>
<path fill="none" stroke="midnightblue" d="M42.5,-56.08C42.5,-49.01 42.5,-38.86 42.5,-29.99"/>
<polygon fill="midnightblue" stroke="midnightblue" points="46,-29.75 42.5,-19.75 39,-29.75 46,-29.75"/>
</g>
<!-- Node11&#45;&gt;Node2 -->
<g id="edge13" class="edge">
<title>Node11&#45;&gt;Node2</title>
<path fill="none" stroke="midnightblue" d="M206.92,-112.32C191.5,-103.74 167.69,-90.49 149.79,-80.52"/>
<polygon fill="midnightblue" stroke="midnightblue" points="151.49,-77.46 141.05,-75.65 148.08,-83.58 151.49,-77.46"/>
</g>
<!-- Node11&#45;&gt;Node9 -->
<g id="edge15" class="edge">
<title>Node11&#45;&gt;Node9</title>
<path fill="none" stroke="midnightblue" d="M194.38,-112.56C163.78,-103.38 114.69,-88.66 80.63,-78.44"/>
<polygon fill="midnightblue" stroke="midnightblue" points="81.61,-75.08 71.02,-75.56 79.59,-81.78 81.61,-75.08"/>
</g>
<!-- Node12 -->
<g id="node12" class="node">
<title>Node12</title>
<g id="a_node12"><a xlink:title=" ">
<polygon fill="white" stroke="#bfbfbf" points="369.5,-56.5 369.5,-75.5 413.5,-75.5 413.5,-56.5 369.5,-56.5"/>
<text text-anchor="middle" x="391.5" y="-63.5" font-family="Helvetica,sans-Serif" font-size="10.00">cmath</text>
</a>
</g>
</g>
<!-- Node11&#45;&gt;Node12 -->
<g id="edge12" class="edge">
<title>Node11&#45;&gt;Node12</title>
<path fill="none" stroke="midnightblue" d="M249.28,-112.44C279.26,-102.86 327.81,-87.35 359.7,-77.16"/>
<polygon fill="midnightblue" stroke="midnightblue" points="360.96,-80.43 369.42,-74.05 358.83,-73.76 360.96,-80.43"/>
</g>
<!-- Node13 -->
<g id="node13" class="node">
<title>Node13</title>
<g id="a_node13"><a xlink:title=" ">
<polygon fill="white" stroke="#bfbfbf" points="176.5,-56.5 176.5,-75.5 268.5,-75.5 268.5,-56.5 176.5,-56.5"/>
<text text-anchor="middle" x="222.5" y="-63.5" font-family="Helvetica,sans-Serif" font-size="10.00">GenericNumber.h</text>
</a>
</g>
</g>
<!-- Node11&#45;&gt;Node13 -->
<g id="edge14" class="edge">
<title>Node11&#45;&gt;Node13</title>
<path fill="none" stroke="midnightblue" d="M222.5,-112.08C222.5,-105.01 222.5,-94.86 222.5,-85.99"/>
<polygon fill="midnightblue" stroke="midnightblue" points="226,-85.75 222.5,-75.75 219,-85.75 226,-85.75"/>
</g>
<!-- Node14&#45;&gt;Node8 -->
<g id="edge17" class="edge">
<title>Node14&#45;&gt;Node8</title>
<path fill="none" stroke="midnightblue" d="M300.84,-336.32C287.58,-327.9 267.23,-314.97 251.65,-305.07"/>
<polygon fill="midnightblue" stroke="midnightblue" points="253.44,-302.06 243.12,-299.65 249.69,-307.97 253.44,-302.06"/>
</g>
<!-- Node15 -->
<g id="node15" class="node">
<title>Node15</title>
<g id="a_node15"><a xlink:href="_character_8h.html" target="_top" xlink:title="The Character specification and body provides a value object type for character values.">
<polygon fill="white" stroke="black" points="349,-224.5 349,-243.5 416,-243.5 416,-224.5 349,-224.5"/>
<text text-anchor="middle" x="382.5" y="-231.5" font-family="Helvetica,sans-Serif" font-size="10.00">Character.h</text>
</a>
</g>
</g>
<!-- Node14&#45;&gt;Node15 -->
<g id="edge18" class="edge">
<title>Node14&#45;&gt;Node15</title>
<path fill="none" stroke="midnightblue" d="M326.23,-336.2C336.56,-327.89 351.34,-314.56 360.5,-300 369.52,-285.66 375.31,-267.2 378.67,-253.62"/>
<polygon fill="midnightblue" stroke="midnightblue" points="382.15,-254.08 380.94,-243.55 375.32,-252.54 382.15,-254.08"/>
</g>
<!-- Node18 -->
<g id="node18" class="node">
<title>Node18</title>
<g id="a_node18"><a xlink:href="_percentage_8h.html" target="_top" xlink:title="The Percentage specification and body provides a simple percentage type.">
<polygon fill="white" stroke="black" points="277.5,-280.5 277.5,-299.5 351.5,-299.5 351.5,-280.5 277.5,-280.5"/>
<text text-anchor="middle" x="314.5" y="-287.5" font-family="Helvetica,sans-Serif" font-size="10.00">Percentage.h</text>
</a>
</g>
</g>
<!-- Node14&#45;&gt;Node18 -->
<g id="edge24" class="edge">
<title>Node14&#45;&gt;Node18</title>
<path fill="none" stroke="midnightblue" d="M314.5,-336.08C314.5,-329.01 314.5,-318.86 314.5,-309.99"/>
<polygon fill="midnightblue" stroke="midnightblue" points="318,-309.75 314.5,-299.75 311,-309.75 318,-309.75"/>
</g>
<!-- Node21 -->
<g id="node21" class="node">
<title>Node21</title>
<g id="a_node21"><a xlink:href="_string_list_8h.html" target="_top" xlink:title="The StringList specification defines lists of string values with zero&#45;based arbitrary indexed access ...">
<polygon fill="white" stroke="black" points="438.5,-280.5 438.5,-299.5 504.5,-299.5 504.5,-280.5 438.5,-280.5"/>
<text text-anchor="middle" x="471.5" y="-287.5" font-family="Helvetica,sans-Serif" font-size="10.00">StringList.h</text>
</a>
</g>
</g>
<!-- Node14&#45;&gt;Node21 -->
<g id="edge30" class="edge">
<title>Node14&#45;&gt;Node21</title>
<path fill="none" stroke="midnightblue" d="M339.38,-336.44C365.79,-327.36 407.72,-312.94 437.24,-302.78"/>
<polygon fill="midnightblue" stroke="midnightblue" points="438.42,-306.08 446.74,-299.52 436.14,-299.46 438.42,-306.08"/>
</g>
<!-- Node15&#45;&gt;Node12 -->
<g id="edge19" class="edge">
<title>Node15&#45;&gt;Node12</title>
<path fill="none" stroke="midnightblue" d="M389.74,-224.18C396.63,-215.44 406.88,-201.45 413.5,-188 425.04,-164.54 427.45,-157.83 431.5,-132 432.88,-123.22 434.66,-120.31 431.5,-112 427.16,-100.6 418.47,-90.24 410.29,-82.34"/>
<polygon fill="midnightblue" stroke="midnightblue" points="412.54,-79.66 402.77,-75.57 407.86,-84.86 412.54,-79.66"/>
</g>
<!-- Node16 -->
<g id="node16" class="node">
<title>Node16</title>
<g id="a_node16"><a xlink:href="_byte_8h.html" target="_top" xlink:title="The Byte specification and body provides a value object type for byte values.">
<polygon fill="white" stroke="black" points="360,-168.5 360,-187.5 405,-187.5 405,-168.5 360,-168.5"/>
<text text-anchor="middle" x="382.5" y="-175.5" font-family="Helvetica,sans-Serif" font-size="10.00">Byte.h</text>
</a>
</g>
</g>
<!-- Node15&#45;&gt;Node16 -->
<g id="edge20" class="edge">
<title>Node15&#45;&gt;Node16</title>
<path fill="none" stroke="midnightblue" d="M382.5,-224.08C382.5,-217.01 382.5,-206.86 382.5,-197.99"/>
<polygon fill="midnightblue" stroke="midnightblue" points="386,-197.75 382.5,-187.75 379,-197.75 386,-197.75"/>
</g>
<!-- Node16&#45;&gt;Node11 -->
<g id="edge23" class="edge">
<title>Node16&#45;&gt;Node11</title>
<path fill="none" stroke="midnightblue" d="M359.92,-169.38C333.25,-160.38 288.61,-145.31 257.47,-134.8"/>
<polygon fill="midnightblue" stroke="midnightblue" points="258.47,-131.45 247.87,-131.56 256.23,-138.08 258.47,-131.45"/>
</g>
<!-- Node16&#45;&gt;Node12 -->
<g id="edge21" class="edge">
<title>Node16&#45;&gt;Node12</title>
<path fill="none" stroke="midnightblue" d="M391.79,-168.39C400.08,-160.02 411.64,-146.48 416.5,-132 422.01,-115.58 413.52,-97.19 404.98,-84.17"/>
<polygon fill="midnightblue" stroke="midnightblue" points="407.62,-81.84 398.95,-75.74 401.93,-85.91 407.62,-81.84"/>
</g>
<!-- Node17 -->
<g id="node17" class="node">
<title>Node17</title>
<g id="a_node17"><a xlink:title=" ">
<polygon fill="white" stroke="#bfbfbf" points="361.5,-112.5 361.5,-131.5 407.5,-131.5 407.5,-112.5 361.5,-112.5"/>
<text text-anchor="middle" x="384.5" y="-119.5" font-family="Helvetica,sans-Serif" font-size="10.00">cstdint</text>
</a>
</g>
</g>
<!-- Node16&#45;&gt;Node17 -->
<g id="edge22" class="edge">
<title>Node16&#45;&gt;Node17</title>
<path fill="none" stroke="midnightblue" d="M382.83,-168.08C383.09,-161.01 383.47,-150.86 383.8,-141.99"/>
<polygon fill="midnightblue" stroke="midnightblue" points="387.3,-141.87 384.18,-131.75 380.31,-141.61 387.3,-141.87"/>
</g>
<!-- Node19 -->
<g id="node19" class="node">
<title>Node19</title>
<g id="a_node19"><a xlink:href="_real_8h.html" target="_top" xlink:title="The Real specification defines a value object type for real values.">
<polygon fill="white" stroke="black" points="282.5,-224.5 282.5,-243.5 326.5,-243.5 326.5,-224.5 282.5,-224.5"/>
<text text-anchor="middle" x="304.5" y="-231.5" font-family="Helvetica,sans-Serif" font-size="10.00">Real.h</text>
</a>
</g>
</g>
<!-- Node18&#45;&gt;Node19 -->
<g id="edge25" class="edge">
<title>Node18&#45;&gt;Node19</title>
<path fill="none" stroke="midnightblue" d="M312.85,-280.08C311.52,-272.93 309.62,-262.64 307.96,-253.69"/>
<polygon fill="midnightblue" stroke="midnightblue" points="311.38,-252.95 306.12,-243.75 304.5,-254.22 311.38,-252.95"/>
</g>
<!-- Node20 -->
<g id="node20" class="node">
<title>Node20</title>
<g id="a_node20"><a xlink:href="_integer_8h.html" target="_top" xlink:title="The Integer specification and body provides a value object type for ints.">
<polygon fill="white" stroke="black" points="274.5,-168.5 274.5,-187.5 328.5,-187.5 328.5,-168.5 274.5,-168.5"/>
<text text-anchor="middle" x="301.5" y="-175.5" font-family="Helvetica,sans-Serif" font-size="10.00">Integer.h</text>
</a>
</g>
</g>
<!-- Node19&#45;&gt;Node20 -->
<g id="edge26" class="edge">
<title>Node19&#45;&gt;Node20</title>
<path fill="none" stroke="midnightblue" d="M304,-224.08C303.61,-217.01 303.05,-206.86 302.55,-197.99"/>
<polygon fill="midnightblue" stroke="midnightblue" points="306.04,-197.54 301.99,-187.75 299.05,-197.93 306.04,-197.54"/>
</g>
<!-- Node20&#45;&gt;Node3 -->
<g id="edge28" class="edge">
<title>Node20&#45;&gt;Node3</title>
<path fill="none" stroke="midnightblue" d="M301.07,-168.41C299.79,-148.04 294.91,-95.6 277.5,-56 272.98,-45.71 265.77,-35.5 259.25,-27.42"/>
<polygon fill="midnightblue" stroke="midnightblue" points="261.73,-24.94 252.6,-19.57 256.4,-29.46 261.73,-24.94"/>
</g>
<!-- Node20&#45;&gt;Node11 -->
<g id="edge29" class="edge">
<title>Node20&#45;&gt;Node11</title>
<path fill="none" stroke="midnightblue" d="M288.81,-168.32C276.6,-159.98 257.92,-147.21 243.5,-137.35"/>
<polygon fill="midnightblue" stroke="midnightblue" points="245.39,-134.41 235.16,-131.65 241.44,-140.19 245.39,-134.41"/>
</g>
<!-- Node20&#45;&gt;Node12 -->
<g id="edge27" class="edge">
<title>Node20&#45;&gt;Node12</title>
<path fill="none" stroke="midnightblue" d="M307.97,-168.48C317.53,-155.96 336.07,-131.92 352.5,-112 360.49,-102.31 369.68,-91.68 377.13,-83.19"/>
<polygon fill="midnightblue" stroke="midnightblue" points="379.91,-85.34 383.9,-75.52 374.66,-80.7 379.91,-85.34"/>
</g>
<!-- Node22 -->
<g id="node22" class="node">
<title>Node22</title>
<g id="a_node22"><a xlink:title=" ">
<polygon fill="white" stroke="#bfbfbf" points="527,-224.5 527,-243.5 600,-243.5 600,-224.5 527,-224.5"/>
<text text-anchor="middle" x="563.5" y="-231.5" font-family="Helvetica,sans-Serif" font-size="10.00">initializer_list</text>
</a>
</g>
</g>
<!-- Node21&#45;&gt;Node22 -->
<g id="edge31" class="edge">
<title>Node21&#45;&gt;Node22</title>
<path fill="none" stroke="midnightblue" d="M486.28,-280.32C500.77,-271.82 523.07,-258.73 539.99,-248.8"/>
<polygon fill="midnightblue" stroke="midnightblue" points="541.9,-251.74 548.76,-243.65 538.36,-245.7 541.9,-251.74"/>
</g>
<!-- Node23 -->
<g id="node23" class="node">
<title>Node23</title>
<g id="a_node23"><a xlink:title=" ">
<polygon fill="white" stroke="#bfbfbf" points="434.5,-224.5 434.5,-243.5 508.5,-243.5 508.5,-224.5 434.5,-224.5"/>
<text text-anchor="middle" x="471.5" y="-231.5" font-family="Helvetica,sans-Serif" font-size="10.00">GenericList.h</text>
</a>
</g>
</g>
<!-- Node21&#45;&gt;Node23 -->
<g id="edge32" class="edge">
<title>Node21&#45;&gt;Node23</title>
<path fill="none" stroke="midnightblue" d="M471.5,-280.08C471.5,-273.01 471.5,-262.86 471.5,-253.99"/>
<polygon fill="midnightblue" stroke="midnightblue" points="475,-253.75 471.5,-243.75 468,-253.75 475,-253.75"/>
</g>
</g>
</svg>
