<?xml version="1.0" encoding="UTF-8" standalone="no"?>
<!DOCTYPE svg PUBLIC "-//W3C//DTD SVG 1.1//EN"
 "http://www.w3.org/Graphics/SVG/1.1/DTD/svg11.dtd">
<!-- Generated by graphviz version 2.47.1 (20210417.1919)
 -->
<!-- Title: AudioSampleListVector.cpp&#45;inc Pages: 1 -->
<!--zoomable 200 -->
<svg id="main" version="1.1" xmlns="http://www.w3.org/2000/svg" xmlns:xlink="http://www.w3.org/1999/xlink" xml:space="preserve" onload="init(evt)">
<style type="text/css"><![CDATA[
.edge:hover path { stroke: red; }
.edge:hover polygon { stroke: red; fill: red; }
]]></style>
<script type="text/javascript"><![CDATA[
var edges = document.getElementsByTagName('g');
if (edges && edges.length) {
  for (var i=0;i<edges.length;i++) {
    if (edges[i].id.substr(0,4)=='edge') {
      edges[i].setAttribute('class','edge');
    }
  }
}
]]></script>
        <defs>
                <circle id="rim" cx="0" cy="0" r="7"/>
                <circle id="rim2" cx="0" cy="0" r="3.5"/>
                <g id="zoomPlus">
                        <use xlink:href="#rim" fill="#404040">
                                <set attributeName="fill" to="#808080" begin="zoomplus.mouseover" end="zoomplus.mouseout"/>
                        </use>
                        <path d="M-4,0h8M0,-4v8" fill="none" stroke="white" stroke-width="1.5" pointer-events="none"/>
                </g>
                <g id="zoomMin">
                        <use xlink:href="#rim" fill="#404040">
                                <set attributeName="fill" to="#808080" begin="zoomminus.mouseover" end="zoomminus.mouseout"/>
                        </use>
                        <path d="M-4,0h8" fill="none" stroke="white" stroke-width="1.5" pointer-events="none"/>
                </g>
                <g id="dirArrow">
                        <path fill="none" stroke="white" stroke-width="1.5" d="M0,-3.0v7 M-2.5,-0.5L0,-3.0L2.5,-0.5"/>
                </g>
               <g id="resetDef">
                       <use xlink:href="#rim2" fill="#404040">
                               <set attributeName="fill" to="#808080" begin="reset.mouseover" end="reset.mouseout"/>
                       </use>
               </g>
        </defs>

<script type="text/javascript">
var viewWidth = 1004;
var viewHeight = 200;
var sectionId = 'dynsection-0';
</script>
<script xlink:href="svgpan.js"/>
<svg id="graph" class="graph">
<g id="viewport">
<title>AudioSampleListVector.cpp&#45;inc</title>
<polygon fill="white" stroke="transparent" points="-4,4 -4,-196 1000,-196 1000,4 -4,4"/>
<!-- Node1 -->
<g id="node1" class="node">
<title>Node1</title>
<g id="a_node1"><a xlink:title="The AudioSampleListVector body implements the communication buffer structure for the block processing...">
<polygon fill="#bfbfbf" stroke="black" points="546,-171.5 546,-191.5 715,-191.5 715,-171.5 546,-171.5"/>
<text text-anchor="middle" x="630.5" y="-178.7" font-family="Helvetica,sans-Serif" font-size="11.00">AudioSampleListVector.cpp&#45;inc</text>
</a>
</g>
</g>
<!-- Node2 -->
<g id="node2" class="node">
<title>Node2</title>
<g id="a_node2"><a xlink:href="_audio_sample_list_vector_8h.html" target="_top" xlink:title="The AudioSampleListVector specification defines the communication buffer structure for the block proc...">
<polygon fill="white" stroke="black" points="561,-114.5 561,-134.5 700,-134.5 700,-114.5 561,-114.5"/>
<text text-anchor="middle" x="630.5" y="-121.7" font-family="Helvetica,sans-Serif" font-size="11.00">AudioSampleListVector.h</text>
</a>
</g>
</g>
<!-- Node1&#45;&gt;Node2 -->
<g id="edge1" class="edge">
<title>Node1&#45;&gt;Node2</title>
<path fill="none" stroke="midnightblue" d="M630.5,-161.38C630.5,-152.37 630.5,-142.04 630.5,-134.78"/>
<polygon fill="midnightblue" stroke="midnightblue" points="627,-161.42 630.5,-171.42 634,-161.42 627,-161.42"/>
</g>
<!-- Node3 -->
<g id="node3" class="node">
<title>Node3</title>
<g id="a_node3"><a xlink:href="_audio_sample_fifo_queue_vector_8h.html" target="_top" xlink:title="The AudioSampleFifoQueueVector specification defines a list of fifo queues for audio samples.">
<polygon fill="white" stroke="black" points="218,-57.5 218,-77.5 391,-77.5 391,-57.5 218,-57.5"/>
<text text-anchor="middle" x="304.5" y="-64.7" font-family="Helvetica,sans-Serif" font-size="11.00">AudioSampleFifoQueueVector.h</text>
</a>
</g>
</g>
<!-- Node2&#45;&gt;Node3 -->
<g id="edge2" class="edge">
<title>Node2&#45;&gt;Node3</title>
<path fill="none" stroke="midnightblue" d="M567.16,-112.81C506.29,-102.54 415.33,-87.2 358,-77.53"/>
<polygon fill="midnightblue" stroke="midnightblue" points="566.59,-116.27 577.03,-114.48 567.75,-109.36 566.59,-116.27"/>
</g>
<!-- Node6 -->
<g id="node6" class="node">
<title>Node6</title>
<g id="a_node6"><a xlink:href="_audio_sample_list_vector_8cpp.html" target="_top" xlink:title="The AudioSampleListVector body implements the communication buffer structure for the block processing...">
<polygon fill="white" stroke="black" points="845,-57.5 845,-77.5 996,-77.5 996,-57.5 845,-57.5"/>
<text text-anchor="middle" x="920.5" y="-64.7" font-family="Helvetica,sans-Serif" font-size="11.00">AudioSampleListVector.cpp</text>
</a>
</g>
</g>
<!-- Node2&#45;&gt;Node6 -->
<g id="edge5" class="edge">
<title>Node2&#45;&gt;Node6</title>
<path fill="none" stroke="midnightblue" d="M688.19,-112.56C742.33,-102.29 822.33,-87.12 872.91,-77.53"/>
<polygon fill="midnightblue" stroke="midnightblue" points="687.24,-109.18 678.06,-114.48 688.54,-116.05 687.24,-109.18"/>
</g>
<!-- Node7 -->
<g id="node7" class="node">
<title>Node7</title>
<g id="a_node7"><a xlink:href="_wave_file_8h.html" target="_top" xlink:title="The WaveFile specification defines an object for accessing a RIFF wave file with several channels.">
<polygon fill="white" stroke="black" points="595,-57.5 595,-77.5 666,-77.5 666,-57.5 595,-57.5"/>
<text text-anchor="middle" x="630.5" y="-64.7" font-family="Helvetica,sans-Serif" font-size="11.00">WaveFile.h</text>
</a>
</g>
</g>
<!-- Node2&#45;&gt;Node7 -->
<g id="edge6" class="edge">
<title>Node2&#45;&gt;Node7</title>
<path fill="none" stroke="midnightblue" d="M630.5,-104.38C630.5,-95.37 630.5,-85.04 630.5,-77.78"/>
<polygon fill="midnightblue" stroke="midnightblue" points="627,-104.42 630.5,-114.42 634,-104.42 627,-104.42"/>
</g>
<!-- Node10 -->
<g id="node10" class="node">
<title>Node10</title>
<g id="a_node10"><a xlink:href="_fluid_synth_synthesizer_8h.html" target="_top" xlink:title="The FluidSynthSynthesizer class specifies an object&#45;oriented wrapper around an underlying fluidsynth ...">
<polygon fill="white" stroke="black" points="692.5,-57.5 692.5,-77.5 826.5,-77.5 826.5,-57.5 692.5,-57.5"/>
<text text-anchor="middle" x="759.5" y="-64.7" font-family="Helvetica,sans-Serif" font-size="11.00">FluidSynthSynthesizer.h</text>
</a>
</g>
</g>
<!-- Node2&#45;&gt;Node10 -->
<g id="edge9" class="edge">
<title>Node2&#45;&gt;Node10</title>
<path fill="none" stroke="midnightblue" d="M661.08,-110.46C684.82,-100.34 717.15,-86.56 738.17,-77.6"/>
<polygon fill="midnightblue" stroke="midnightblue" points="659.63,-107.28 651.8,-114.42 662.37,-113.72 659.63,-107.28"/>
</g>
<!-- Node13 -->
<g id="node13" class="node">
<title>Node13</title>
<g id="a_node13"><a xlink:href="_midi_event_converter_8h.html" target="_top" xlink:title="The MidiEventConverter specification defines the handling of MIDI events by feeding them to an underl...">
<polygon fill="white" stroke="black" points="445.5,-57.5 445.5,-77.5 565.5,-77.5 565.5,-57.5 445.5,-57.5"/>
<text text-anchor="middle" x="505.5" y="-64.7" font-family="Helvetica,sans-Serif" font-size="11.00">MidiEventConverter.h</text>
</a>
</g>
</g>
<!-- Node2&#45;&gt;Node13 -->
<g id="edge12" class="edge">
<title>Node2&#45;&gt;Node13</title>
<path fill="none" stroke="midnightblue" d="M600.56,-110.33C577.58,-100.22 546.45,-86.52 526.17,-77.6"/>
<polygon fill="midnightblue" stroke="midnightblue" points="599.3,-113.59 609.86,-114.42 602.12,-107.19 599.3,-113.59"/>
</g>
<!-- Node4 -->
<g id="node4" class="node">
<title>Node4</title>
<g id="a_node4"><a xlink:href="_audio_sample_fifo_queue_vector_8cpp.html" target="_top" xlink:title="The AudioSampleFifoQueueVector body implements a list of fifo queues for audio samples (this is the f...">
<polygon fill="white" stroke="black" points="0,-0.5 0,-20.5 185,-20.5 185,-0.5 0,-0.5"/>
<text text-anchor="middle" x="92.5" y="-7.7" font-family="Helvetica,sans-Serif" font-size="11.00">AudioSampleFifoQueueVector.cpp</text>
</a>
</g>
</g>
<!-- Node3&#45;&gt;Node4 -->
<g id="edge3" class="edge">
<title>Node3&#45;&gt;Node4</title>
<path fill="none" stroke="midnightblue" d="M259.59,-54.85C220.06,-44.59 163.34,-29.88 127.21,-20.5"/>
<polygon fill="midnightblue" stroke="midnightblue" points="258.93,-58.29 269.49,-57.42 260.69,-51.52 258.93,-58.29"/>
</g>
<!-- Node5 -->
<g id="node5" class="node">
<title>Node5</title>
<g id="a_node5"><a xlink:href="_fluid_synth_plugin___event_processor_8cpp.html" target="_top" xlink:title="The FluidSynthPlugin_Processor module implements the handling of MIDI events from the DAW via JUCE ha...">
<polygon fill="white" stroke="black" points="203,-0.5 203,-20.5 406,-20.5 406,-0.5 203,-0.5"/>
<text text-anchor="middle" x="304.5" y="-7.7" font-family="Helvetica,sans-Serif" font-size="11.00">FluidSynthPlugin_EventProcessor.cpp</text>
</a>
</g>
</g>
<!-- Node3&#45;&gt;Node5 -->
<g id="edge4" class="edge">
<title>Node3&#45;&gt;Node5</title>
<path fill="none" stroke="midnightblue" d="M304.5,-47.38C304.5,-38.37 304.5,-28.04 304.5,-20.78"/>
<polygon fill="midnightblue" stroke="midnightblue" points="301,-47.42 304.5,-57.42 308,-47.42 301,-47.42"/>
</g>
<!-- Node8 -->
<g id="node8" class="node">
<title>Node8</title>
<g id="a_node8"><a xlink:href="_wave_file_8cpp.html" target="_top" xlink:title="The WaveFile specification defines an object for accessing a RIFF wave file with several channels.">
<polygon fill="white" stroke="black" points="597,-0.5 597,-20.5 680,-20.5 680,-0.5 597,-0.5"/>
<text text-anchor="middle" x="638.5" y="-7.7" font-family="Helvetica,sans-Serif" font-size="11.00">WaveFile.cpp</text>
</a>
</g>
</g>
<!-- Node7&#45;&gt;Node8 -->
<g id="edge7" class="edge">
<title>Node7&#45;&gt;Node8</title>
<path fill="none" stroke="midnightblue" d="M633.28,-47.38C634.59,-38.37 636.09,-28.04 637.15,-20.78"/>
<polygon fill="midnightblue" stroke="midnightblue" points="629.8,-47.02 631.82,-57.42 636.72,-48.03 629.8,-47.02"/>
</g>
<!-- Node9 -->
<g id="node9" class="node">
<title>Node9</title>
<g id="a_node9"><a xlink:href="_fluid_synth_file_converter_8cpp.html" target="_top" xlink:title="The FluidSynthFileConverter module implements a conversion from a MIDI file into a wave file using th...">
<polygon fill="white" stroke="black" points="424.5,-0.5 424.5,-20.5 578.5,-20.5 578.5,-0.5 424.5,-0.5"/>
<text text-anchor="middle" x="501.5" y="-7.7" font-family="Helvetica,sans-Serif" font-size="11.00">FluidSynthFileConverter.cpp</text>
</a>
</g>
</g>
<!-- Node7&#45;&gt;Node9 -->
<g id="edge8" class="edge">
<title>Node7&#45;&gt;Node9</title>
<path fill="none" stroke="midnightblue" d="M599.92,-53.46C576.18,-43.34 543.85,-29.56 522.83,-20.6"/>
<polygon fill="midnightblue" stroke="midnightblue" points="598.63,-56.72 609.2,-57.42 601.37,-50.28 598.63,-56.72"/>
</g>
<!-- Node11 -->
<g id="node11" class="node">
<title>Node11</title>
<g id="a_node11"><a xlink:href="_fluid_synth_synthesizer_8cpp.html" target="_top" xlink:title="The FluidSynthSynthesizer class implements an object&#45;oriented wrapper around an underlying fluidsynth...">
<polygon fill="white" stroke="black" points="848.5,-0.5 848.5,-20.5 994.5,-20.5 994.5,-0.5 848.5,-0.5"/>
<text text-anchor="middle" x="921.5" y="-7.7" font-family="Helvetica,sans-Serif" font-size="11.00">FluidSynthSynthesizer.cpp</text>
</a>
</g>
</g>
<!-- Node10&#45;&gt;Node11 -->
<g id="edge10" class="edge">
<title>Node10&#45;&gt;Node11</title>
<path fill="none" stroke="midnightblue" d="M795.96,-54.12C826.04,-43.91 868.02,-29.66 894.98,-20.5"/>
<polygon fill="midnightblue" stroke="midnightblue" points="794.59,-50.89 786.25,-57.42 796.85,-57.52 794.59,-50.89"/>
</g>
<!-- Node12 -->
<g id="node12" class="node">
<title>Node12</title>
<g id="a_node12"><a xlink:href="_midi_event_converter_8cpp.html" target="_top" xlink:title="The MidiEventConverter module implements the handling of MIDI events by feeding them to an underlying...">
<polygon fill="white" stroke="black" points="698.5,-0.5 698.5,-20.5 830.5,-20.5 830.5,-0.5 698.5,-0.5"/>
<text text-anchor="middle" x="764.5" y="-7.7" font-family="Helvetica,sans-Serif" font-size="11.00">MidiEventConverter.cpp</text>
</a>
</g>
</g>
<!-- Node10&#45;&gt;Node12 -->
<g id="edge11" class="edge">
<title>Node10&#45;&gt;Node12</title>
<path fill="none" stroke="midnightblue" d="M761.24,-47.38C762.06,-38.37 763,-28.04 763.66,-20.78"/>
<polygon fill="midnightblue" stroke="midnightblue" points="757.75,-47.14 760.33,-57.42 764.72,-47.78 757.75,-47.14"/>
</g>
<!-- Node13&#45;&gt;Node5 -->
<g id="edge14" class="edge">
<title>Node13&#45;&gt;Node5</title>
<path fill="none" stroke="midnightblue" d="M462.2,-54.65C424.76,-44.41 371.44,-29.82 337.41,-20.5"/>
<polygon fill="midnightblue" stroke="midnightblue" points="461.74,-58.15 472.31,-57.42 463.59,-51.4 461.74,-58.15"/>
</g>
<!-- Node13&#45;&gt;Node9 -->
<g id="edge13" class="edge">
<title>Node13&#45;&gt;Node9</title>
<path fill="none" stroke="midnightblue" d="M504.11,-47.38C503.45,-38.37 502.7,-28.04 502.17,-20.78"/>
<polygon fill="midnightblue" stroke="midnightblue" points="500.62,-47.7 504.84,-57.42 507.6,-47.19 500.62,-47.7"/>
</g>
<!-- Node13&#45;&gt;Node12 -->
<g id="edge15" class="edge">
<title>Node13&#45;&gt;Node12</title>
<path fill="none" stroke="midnightblue" d="M557.93,-55.37C606.26,-45.1 677.11,-30.06 722,-20.53"/>
<polygon fill="midnightblue" stroke="midnightblue" points="557.03,-51.98 547.98,-57.48 558.49,-58.83 557.03,-51.98"/>
</g>
</g>
</svg>
        <g id="navigator" transform="translate(0 0)" fill="#404254">
                <rect fill="#f2f5e9" fill-opacity="0.5" stroke="#606060" stroke-width=".5" x="0" y="0" width="60" height="60"/>
                <use id="zoomplus" xlink:href="#zoomPlus" x="17" y="9" onmousedown="handleZoom(evt,'in')"/>
                <use id="zoomminus" xlink:href="#zoomMin" x="42" y="9" onmousedown="handleZoom(evt,'out')"/>
                <use id="reset" xlink:href="#resetDef" x="30" y="36" onmousedown="handleReset()"/>
                <g id="arrowUp" xlink:href="#dirArrow" transform="translate(30 24)" onmousedown="handlePan(0,-1)">
                  <use xlink:href="#rim" fill="#404040">
                        <set attributeName="fill" to="#808080" begin="arrowUp.mouseover" end="arrowUp.mouseout"/>
                  </use>
                  <path fill="none" stroke="white" stroke-width="1.5" d="M0,-3.0v7 M-2.5,-0.5L0,-3.0L2.5,-0.5"/>
                </g>
                <g id="arrowRight" xlink:href="#dirArrow" transform="rotate(90) translate(36 -43)" onmousedown="handlePan(1,0)">
                  <use xlink:href="#rim" fill="#404040">
                        <set attributeName="fill" to="#808080" begin="arrowRight.mouseover" end="arrowRight.mouseout"/>
                  </use>
                  <path fill="none" stroke="white" stroke-width="1.5" d="M0,-3.0v7 M-2.5,-0.5L0,-3.0L2.5,-0.5"/>
                </g>
                <g id="arrowDown" xlink:href="#dirArrow" transform="rotate(180) translate(-30 -48)" onmousedown="handlePan(0,1)">
                  <use xlink:href="#rim" fill="#404040">
                        <set attributeName="fill" to="#808080" begin="arrowDown.mouseover" end="arrowDown.mouseout"/>
                  </use>
                  <path fill="none" stroke="white" stroke-width="1.5" d="M0,-3.0v7 M-2.5,-0.5L0,-3.0L2.5,-0.5"/>
                </g>
                <g id="arrowLeft" xlink:href="#dirArrow" transform="rotate(270) translate(-36 17)" onmousedown="handlePan(-1,0)">
                  <use xlink:href="#rim" fill="#404040">
                        <set attributeName="fill" to="#808080" begin="arrowLeft.mouseover" end="arrowLeft.mouseout"/>
                  </use>
                  <path fill="none" stroke="white" stroke-width="1.5" d="M0,-3.0v7 M-2.5,-0.5L0,-3.0L2.5,-0.5"/>
                </g>
        </g>
        <svg viewBox="0 0 15 15" width="100%" height="30px" preserveAspectRatio="xMaxYMin meet">
         <g id="arrow_out" transform="scale(0.3 0.3)">
          <a xlink:href="_audio_sample_list_vector_8cpp-inc__dep__incl_org.svg" target="_base">
           <rect id="button" ry="5" rx="5" y="6" x="6" height="38" width="38"
                fill="#f2f5e9" fill-opacity="0.5" stroke="#606060" stroke-width="1.0"/>
           <path id="arrow"
             d="M 11.500037,31.436501 C 11.940474,20.09759 22.043105,11.32322 32.158766,21.979434 L 37.068811,17.246167 C 37.068811,17.246167 37.088388,32 37.088388,32 L 22.160133,31.978069 C 22.160133,31.978069 26.997745,27.140456 26.997745,27.140456 C 18.528582,18.264221 13.291696,25.230495 11.500037,31.436501 z"
             style="fill:#404040;"/>
          </a>
         </g>
        </svg>
</svg>
