<?xml version="1.0" encoding="UTF-8" standalone="no"?>
<!DOCTYPE svg PUBLIC "-//W3C//DTD SVG 1.1//EN"
 "http://www.w3.org/Graphics/SVG/1.1/DTD/svg11.dtd">
<!-- Generated by graphviz version 2.47.1 (20210417.1919)
 -->
<!-- Title: AudioSampleFifoQueueVector.cpp&#45;inc Pages: 1 -->
<!--zoomable 485 -->
<svg id="main" version="1.1" xmlns="http://www.w3.org/2000/svg" xmlns:xlink="http://www.w3.org/1999/xlink" xml:space="preserve" onload="init(evt)">
<style type="text/css"><![CDATA[
.edge:hover path { stroke: red; }
.edge:hover polygon { stroke: red; fill: red; }
]]></style>
<script type="text/javascript"><![CDATA[
var edges = document.getElementsByTagName('g');
if (edges && edges.length) {
  for (var i=0;i<edges.length;i++) {
    if (edges[i].id.substr(0,4)=='edge') {
      edges[i].setAttribute('class','edge');
    }
  }
}
]]></script>
        <defs>
                <circle id="rim" cx="0" cy="0" r="7"/>
                <circle id="rim2" cx="0" cy="0" r="3.5"/>
                <g id="zoomPlus">
                        <use xlink:href="#rim" fill="#404040">
                                <set attributeName="fill" to="#808080" begin="zoomplus.mouseover" end="zoomplus.mouseout"/>
                        </use>
                        <path d="M-4,0h8M0,-4v8" fill="none" stroke="white" stroke-width="1.5" pointer-events="none"/>
                </g>
                <g id="zoomMin">
                        <use xlink:href="#rim" fill="#404040">
                                <set attributeName="fill" to="#808080" begin="zoomminus.mouseover" end="zoomminus.mouseout"/>
                        </use>
                        <path d="M-4,0h8" fill="none" stroke="white" stroke-width="1.5" pointer-events="none"/>
                </g>
                <g id="dirArrow">
                        <path fill="none" stroke="white" stroke-width="1.5" d="M0,-3.0v7 M-2.5,-0.5L0,-3.0L2.5,-0.5"/>
                </g>
               <g id="resetDef">
                       <use xlink:href="#rim2" fill="#404040">
                               <set attributeName="fill" to="#808080" begin="reset.mouseover" end="reset.mouseout"/>
                       </use>
               </g>
        </defs>

<script type="text/javascript">
var viewWidth = 629;
var viewHeight = 485;
var sectionId = 'dynsection-0';
</script>
<script xlink:href="svgpan.js"/>
<svg id="graph" class="graph">
<g id="viewport">
<title>AudioSampleFifoQueueVector.cpp&#45;inc</title>
<polygon fill="white" stroke="transparent" points="-4,4 -4,-481 625,-481 625,4 -4,4"/>
<!-- Node1 -->
<g id="node1" class="node">
<title>Node1</title>
<g id="a_node1"><a xlink:title="The AudioSampleFifoQueueVector body implements a list of fifo queues for audio samples (this is the e...">
<polygon fill="#bfbfbf" stroke="black" points="62.5,-456.5 62.5,-476.5 265.5,-476.5 265.5,-456.5 62.5,-456.5"/>
<text text-anchor="middle" x="164" y="-463.7" font-family="Helvetica,sans-Serif" font-size="11.00">AudioSampleFifoQueueVector.cpp&#45;inc</text>
</a>
</g>
</g>
<!-- Node2 -->
<g id="node2" class="node">
<title>Node2</title>
<g id="a_node2"><a xlink:href="_assertion_8h.html" target="_top" xlink:title="The Assertion specification defines macros for pre&#45; and postconditions in functions or methods.">
<polygon fill="white" stroke="black" points="98.5,-57.5 98.5,-77.5 169.5,-77.5 169.5,-57.5 98.5,-57.5"/>
<text text-anchor="middle" x="134" y="-64.7" font-family="Helvetica,sans-Serif" font-size="11.00">Assertion.h</text>
</a>
</g>
</g>
<!-- Node1&#45;&gt;Node2 -->
<g id="edge1" class="edge">
<title>Node1&#45;&gt;Node2</title>
<path fill="none" stroke="midnightblue" d="M159.83,-456.43C151.59,-437.65 134,-392.95 134,-353.5 134,-353.5 134,-353.5 134,-180.5 134,-147.88 134,-109.92 134,-87.62"/>
<polygon fill="midnightblue" stroke="midnightblue" points="137.5,-87.5 134,-77.5 130.5,-87.5 137.5,-87.5"/>
</g>
<!-- Node5 -->
<g id="node5" class="node">
<title>Node5</title>
<g id="a_node5"><a xlink:href="_logging_8h.html" target="_top" xlink:title="The Logging specification defines macros for entry&#45;, exit&#45; and intermediate logging of functions into...">
<polygon fill="white" stroke="black" points="207,-399.5 207,-419.5 271,-419.5 271,-399.5 207,-399.5"/>
<text text-anchor="middle" x="239" y="-406.7" font-family="Helvetica,sans-Serif" font-size="11.00">Logging.h</text>
</a>
</g>
</g>
<!-- Node1&#45;&gt;Node5 -->
<g id="edge4" class="edge">
<title>Node1&#45;&gt;Node5</title>
<path fill="none" stroke="midnightblue" d="M176.38,-456.42C187.78,-448.06 204.91,-435.5 218.38,-425.62"/>
<polygon fill="midnightblue" stroke="midnightblue" points="220.6,-428.33 226.6,-419.6 216.46,-422.69 220.6,-428.33"/>
</g>
<!-- Node3 -->
<g id="node3" class="node">
<title>Node3</title>
<g id="a_node3"><a xlink:title=" ">
<polygon fill="white" stroke="#bfbfbf" points="230,-0.5 230,-20.5 294,-20.5 294,-0.5 230,-0.5"/>
<text text-anchor="middle" x="262" y="-7.7" font-family="Helvetica,sans-Serif" font-size="11.00">stdexcept</text>
</a>
</g>
</g>
<!-- Node2&#45;&gt;Node3 -->
<g id="edge2" class="edge">
<title>Node2&#45;&gt;Node3</title>
<path fill="none" stroke="midnightblue" d="M155.14,-57.42C175.98,-48.46 208.05,-34.68 231.62,-24.55"/>
<polygon fill="midnightblue" stroke="midnightblue" points="233.03,-27.76 240.83,-20.6 230.26,-21.33 233.03,-27.76"/>
</g>
<!-- Node4 -->
<g id="node4" class="node">
<title>Node4</title>
<g id="a_node4"><a xlink:title=" ">
<polygon fill="white" stroke="#bfbfbf" points="111,-0.5 111,-20.5 155,-20.5 155,-0.5 111,-0.5"/>
<text text-anchor="middle" x="133" y="-7.7" font-family="Helvetica,sans-Serif" font-size="11.00">string</text>
</a>
</g>
</g>
<!-- Node2&#45;&gt;Node4 -->
<g id="edge3" class="edge">
<title>Node2&#45;&gt;Node4</title>
<path fill="none" stroke="midnightblue" d="M133.83,-57.42C133.7,-50.22 133.52,-39.9 133.35,-30.86"/>
<polygon fill="midnightblue" stroke="midnightblue" points="136.85,-30.71 133.17,-20.78 129.85,-30.84 136.85,-30.71"/>
</g>
<!-- Node6 -->
<g id="node6" class="node">
<title>Node6</title>
<g id="a_node6"><a xlink:title=" ">
<polygon fill="white" stroke="#bfbfbf" points="162.5,-342.5 162.5,-362.5 215.5,-362.5 215.5,-342.5 162.5,-342.5"/>
<text text-anchor="middle" x="189" y="-349.7" font-family="Helvetica,sans-Serif" font-size="11.00">cstdarg</text>
</a>
</g>
</g>
<!-- Node5&#45;&gt;Node6 -->
<g id="edge5" class="edge">
<title>Node5&#45;&gt;Node6</title>
<path fill="none" stroke="midnightblue" d="M230.74,-399.42C223.55,-391.5 212.93,-379.82 204.2,-370.23"/>
<polygon fill="midnightblue" stroke="midnightblue" points="206.75,-367.82 197.44,-362.78 201.57,-372.53 206.75,-367.82"/>
</g>
<!-- Node7 -->
<g id="node7" class="node">
<title>Node7</title>
<g id="a_node7"><a xlink:href="_logging_support_8h.html" target="_top" xlink:title="The LoggingSupport specification defines a class for simple entry/exit logging to a file or via an ar...">
<polygon fill="white" stroke="black" points="234,-342.5 234,-362.5 336,-362.5 336,-342.5 234,-342.5"/>
<text text-anchor="middle" x="285" y="-349.7" font-family="Helvetica,sans-Serif" font-size="11.00">LoggingSupport.h</text>
</a>
</g>
</g>
<!-- Node5&#45;&gt;Node7 -->
<g id="edge6" class="edge">
<title>Node5&#45;&gt;Node7</title>
<path fill="none" stroke="midnightblue" d="M246.6,-399.42C253.15,-391.58 262.79,-380.06 270.77,-370.51"/>
<polygon fill="midnightblue" stroke="midnightblue" points="273.51,-372.7 277.24,-362.78 268.14,-368.2 273.51,-372.7"/>
</g>
<!-- Node14 -->
<g id="node14" class="node">
<title>Node14</title>
<g id="a_node14"><a xlink:href="_string_util_8h.html" target="_top" xlink:title="The StringUtil specification defines several string routines not included in the standard C++ library...">
<polygon fill="white" stroke="black" points="354.5,-342.5 354.5,-362.5 423.5,-362.5 423.5,-342.5 354.5,-342.5"/>
<text text-anchor="middle" x="389" y="-349.7" font-family="Helvetica,sans-Serif" font-size="11.00">StringUtil.h</text>
</a>
</g>
</g>
<!-- Node5&#45;&gt;Node14 -->
<g id="edge16" class="edge">
<title>Node5&#45;&gt;Node14</title>
<path fill="none" stroke="midnightblue" d="M263.77,-399.42C288.6,-390.31 327.01,-376.23 354.75,-366.06"/>
<polygon fill="midnightblue" stroke="midnightblue" points="356.26,-369.23 364.44,-362.5 353.85,-362.66 356.26,-369.23"/>
</g>
<!-- Node8 -->
<g id="node8" class="node">
<title>Node8</title>
<g id="a_node8"><a xlink:href="_boolean_8h.html" target="_top" xlink:title="The Boolean specification and body provides a value object type for boolean values.">
<polygon fill="white" stroke="black" points="245.5,-285.5 245.5,-305.5 310.5,-305.5 310.5,-285.5 245.5,-285.5"/>
<text text-anchor="middle" x="278" y="-292.7" font-family="Helvetica,sans-Serif" font-size="11.00">Boolean.h</text>
</a>
</g>
</g>
<!-- Node7&#45;&gt;Node8 -->
<g id="edge7" class="edge">
<title>Node7&#45;&gt;Node8</title>
<path fill="none" stroke="midnightblue" d="M283.84,-342.42C282.93,-335.22 281.61,-324.9 280.46,-315.86"/>
<polygon fill="midnightblue" stroke="midnightblue" points="283.92,-315.26 279.18,-305.78 276.97,-316.14 283.92,-315.26"/>
</g>
<!-- Node11 -->
<g id="node11" class="node">
<title>Node11</title>
<g id="a_node11"><a xlink:href="_natural_8h.html" target="_top" xlink:title="The Natural specification and body provides a value object type for naturals (positive integers with ...">
<polygon fill="white" stroke="black" points="209,-114.5 209,-134.5 269,-134.5 269,-114.5 209,-114.5"/>
<text text-anchor="middle" x="239" y="-121.7" font-family="Helvetica,sans-Serif" font-size="11.00">Natural.h</text>
</a>
</g>
</g>
<!-- Node7&#45;&gt;Node11 -->
<g id="edge11" class="edge">
<title>Node7&#45;&gt;Node11</title>
<path fill="none" stroke="midnightblue" d="M269.86,-342.45C258.17,-334.5 242.87,-321.75 236,-306 212.25,-251.54 225.32,-178.76 233.7,-144.65"/>
<polygon fill="midnightblue" stroke="midnightblue" points="237.17,-145.21 236.3,-134.65 230.4,-143.45 237.17,-145.21"/>
</g>
<!-- Node9 -->
<g id="node9" class="node">
<title>Node9</title>
<g id="a_node9"><a xlink:href="_my_string_8h.html" target="_top" xlink:title="The String specification defines a standard string type.">
<polygon fill="white" stroke="black" points="12,-57.5 12,-77.5 80,-77.5 80,-57.5 12,-57.5"/>
<text text-anchor="middle" x="46" y="-64.7" font-family="Helvetica,sans-Serif" font-size="11.00">MyString.h</text>
</a>
</g>
</g>
<!-- Node8&#45;&gt;Node9 -->
<g id="edge8" class="edge">
<title>Node8&#45;&gt;Node9</title>
<path fill="none" stroke="midnightblue" d="M268.62,-285.36C233.27,-250.93 107.85,-128.75 62.51,-84.58"/>
<polygon fill="midnightblue" stroke="midnightblue" points="64.85,-81.98 55.24,-77.51 59.97,-86.99 64.85,-81.98"/>
</g>
<!-- Node9&#45;&gt;Node4 -->
<g id="edge9" class="edge">
<title>Node9&#45;&gt;Node4</title>
<path fill="none" stroke="midnightblue" d="M60.37,-57.42C73.84,-48.9 94.22,-36.02 109.96,-26.06"/>
<polygon fill="midnightblue" stroke="midnightblue" points="112.03,-28.9 118.61,-20.6 108.29,-22.98 112.03,-28.9"/>
</g>
<!-- Node10 -->
<g id="node10" class="node">
<title>Node10</title>
<g id="a_node10"><a xlink:href="_global_macros_8h.html" target="_top" xlink:title="The GlobalMacros specification defines simple macros (e.g. for parameter modes).">
<polygon fill="white" stroke="black" points="0,-0.5 0,-20.5 92,-20.5 92,-0.5 0,-0.5"/>
<text text-anchor="middle" x="46" y="-7.7" font-family="Helvetica,sans-Serif" font-size="11.00">GlobalMacros.h</text>
</a>
</g>
</g>
<!-- Node9&#45;&gt;Node10 -->
<g id="edge10" class="edge">
<title>Node9&#45;&gt;Node10</title>
<path fill="none" stroke="midnightblue" d="M46,-57.42C46,-50.22 46,-39.9 46,-30.86"/>
<polygon fill="midnightblue" stroke="midnightblue" points="49.5,-30.78 46,-20.78 42.5,-30.78 49.5,-30.78"/>
</g>
<!-- Node11&#45;&gt;Node2 -->
<g id="edge13" class="edge">
<title>Node11&#45;&gt;Node2</title>
<path fill="none" stroke="midnightblue" d="M221.66,-114.42C205.02,-105.7 179.65,-92.41 160.48,-82.37"/>
<polygon fill="midnightblue" stroke="midnightblue" points="161.85,-79.14 151.36,-77.6 158.6,-85.34 161.85,-79.14"/>
</g>
<!-- Node11&#45;&gt;Node9 -->
<g id="edge15" class="edge">
<title>Node11&#45;&gt;Node9</title>
<path fill="none" stroke="midnightblue" d="M208.84,-114.91C176.28,-105.63 124.19,-90.78 87.71,-80.39"/>
<polygon fill="midnightblue" stroke="midnightblue" points="88.45,-76.96 77.87,-77.58 86.53,-83.69 88.45,-76.96"/>
</g>
<!-- Node12 -->
<g id="node12" class="node">
<title>Node12</title>
<g id="a_node12"><a xlink:title=" ">
<polygon fill="white" stroke="#bfbfbf" points="371.5,-57.5 371.5,-77.5 418.5,-77.5 418.5,-57.5 371.5,-57.5"/>
<text text-anchor="middle" x="395" y="-64.7" font-family="Helvetica,sans-Serif" font-size="11.00">cmath</text>
</a>
</g>
</g>
<!-- Node11&#45;&gt;Node12 -->
<g id="edge12" class="edge">
<title>Node11&#45;&gt;Node12</title>
<path fill="none" stroke="midnightblue" d="M264.76,-114.42C291.24,-105.08 332.57,-90.51 361.56,-80.29"/>
<polygon fill="midnightblue" stroke="midnightblue" points="362.98,-83.5 371.25,-76.87 360.65,-76.9 362.98,-83.5"/>
</g>
<!-- Node13 -->
<g id="node13" class="node">
<title>Node13</title>
<g id="a_node13"><a xlink:title=" ">
<polygon fill="white" stroke="#bfbfbf" points="187.5,-57.5 187.5,-77.5 290.5,-77.5 290.5,-57.5 187.5,-57.5"/>
<text text-anchor="middle" x="239" y="-64.7" font-family="Helvetica,sans-Serif" font-size="11.00">GenericNumber.h</text>
</a>
</g>
</g>
<!-- Node11&#45;&gt;Node13 -->
<g id="edge14" class="edge">
<title>Node11&#45;&gt;Node13</title>
<path fill="none" stroke="midnightblue" d="M239,-114.42C239,-107.22 239,-96.9 239,-87.86"/>
<polygon fill="midnightblue" stroke="midnightblue" points="242.5,-87.78 239,-77.78 235.5,-87.78 242.5,-87.78"/>
</g>
<!-- Node14&#45;&gt;Node8 -->
<g id="edge17" class="edge">
<title>Node14&#45;&gt;Node8</title>
<path fill="none" stroke="midnightblue" d="M370.67,-342.42C352.92,-333.62 325.77,-320.17 305.44,-310.1"/>
<polygon fill="midnightblue" stroke="midnightblue" points="306.87,-306.9 296.36,-305.6 303.76,-313.17 306.87,-306.9"/>
</g>
<!-- Node15 -->
<g id="node15" class="node">
<title>Node15</title>
<g id="a_node15"><a xlink:href="_character_8h.html" target="_top" xlink:title="The Character specification and body provides a value object type for character values.">
<polygon fill="white" stroke="black" points="547,-228.5 547,-248.5 621,-248.5 621,-228.5 547,-228.5"/>
<text text-anchor="middle" x="584" y="-235.7" font-family="Helvetica,sans-Serif" font-size="11.00">Character.h</text>
</a>
</g>
</g>
<!-- Node14&#45;&gt;Node15 -->
<g id="edge18" class="edge">
<title>Node14&#45;&gt;Node15</title>
<path fill="none" stroke="midnightblue" d="M422.88,-342.47C448.03,-334.91 482.57,-322.66 510,-306 532.67,-292.23 554.77,-271.05 568.83,-256.31"/>
<polygon fill="midnightblue" stroke="midnightblue" points="571.5,-258.57 575.76,-248.87 566.38,-253.8 571.5,-258.57"/>
</g>
<!-- Node17 -->
<g id="node17" class="node">
<title>Node17</title>
<g id="a_node17"><a xlink:href="_percentage_8h.html" target="_top" xlink:title="The Percentage specification and body provides a simple percentage type.">
<polygon fill="white" stroke="black" points="329,-285.5 329,-305.5 411,-305.5 411,-285.5 329,-285.5"/>
<text text-anchor="middle" x="370" y="-292.7" font-family="Helvetica,sans-Serif" font-size="11.00">Percentage.h</text>
</a>
</g>
</g>
<!-- Node14&#45;&gt;Node17 -->
<g id="edge23" class="edge">
<title>Node14&#45;&gt;Node17</title>
<path fill="none" stroke="midnightblue" d="M385.86,-342.42C383.32,-335.06 379.65,-324.44 376.48,-315.27"/>
<polygon fill="midnightblue" stroke="midnightblue" points="379.78,-314.09 373.21,-305.78 373.16,-316.37 379.78,-314.09"/>
</g>
<!-- Node20 -->
<g id="node20" class="node">
<title>Node20</title>
<g id="a_node20"><a xlink:href="_string_list_8h.html" target="_top" xlink:title="The StringList specification defines lists of string values with zero&#45;based arbitrary indexed access ...">
<polygon fill="white" stroke="black" points="429.5,-285.5 429.5,-305.5 500.5,-305.5 500.5,-285.5 429.5,-285.5"/>
<text text-anchor="middle" x="465" y="-292.7" font-family="Helvetica,sans-Serif" font-size="11.00">StringList.h</text>
</a>
</g>
</g>
<!-- Node14&#45;&gt;Node20 -->
<g id="edge30" class="edge">
<title>Node14&#45;&gt;Node20</title>
<path fill="none" stroke="midnightblue" d="M401.55,-342.42C413.1,-334.06 430.46,-321.5 444.1,-311.62"/>
<polygon fill="midnightblue" stroke="midnightblue" points="446.38,-314.29 452.43,-305.6 442.28,-308.62 446.38,-314.29"/>
</g>
<!-- Node15&#45;&gt;Node12 -->
<g id="edge19" class="edge">
<title>Node15&#45;&gt;Node12</title>
<path fill="none" stroke="midnightblue" d="M573.84,-228.41C543.33,-201.13 452.23,-119.67 413.14,-84.72"/>
<polygon fill="midnightblue" stroke="midnightblue" points="415,-81.69 405.21,-77.63 410.33,-86.91 415,-81.69"/>
</g>
<!-- Node16 -->
<g id="node16" class="node">
<title>Node16</title>
<g id="a_node16"><a xlink:href="_byte_8h.html" target="_top" xlink:title="The Byte specification and body provides a value object type for byte values.">
<polygon fill="white" stroke="black" points="423.5,-171.5 423.5,-191.5 470.5,-191.5 470.5,-171.5 423.5,-171.5"/>
<text text-anchor="middle" x="447" y="-178.7" font-family="Helvetica,sans-Serif" font-size="11.00">Byte.h</text>
</a>
</g>
</g>
<!-- Node15&#45;&gt;Node16 -->
<g id="edge20" class="edge">
<title>Node15&#45;&gt;Node16</title>
<path fill="none" stroke="midnightblue" d="M561.38,-228.42C538.97,-219.42 504.44,-205.56 479.18,-195.42"/>
<polygon fill="midnightblue" stroke="midnightblue" points="480.24,-192.07 469.66,-191.6 477.63,-198.57 480.24,-192.07"/>
</g>
<!-- Node16&#45;&gt;Node11 -->
<g id="edge22" class="edge">
<title>Node16&#45;&gt;Node11</title>
<path fill="none" stroke="midnightblue" d="M423.14,-174.19C387.97,-164.89 321.78,-147.39 279.08,-136.1"/>
<polygon fill="midnightblue" stroke="midnightblue" points="279.85,-132.68 269.29,-133.51 278.06,-139.45 279.85,-132.68"/>
</g>
<!-- Node16&#45;&gt;Node12 -->
<g id="edge21" class="edge">
<title>Node16&#45;&gt;Node12</title>
<path fill="none" stroke="midnightblue" d="M442.74,-171.33C434.21,-152.96 414.87,-111.29 403.6,-87.01"/>
<polygon fill="midnightblue" stroke="midnightblue" points="406.7,-85.39 399.31,-77.79 400.35,-88.34 406.7,-85.39"/>
</g>
<!-- Node18 -->
<g id="node18" class="node">
<title>Node18</title>
<g id="a_node18"><a xlink:href="_real_8h.html" target="_top" xlink:title="The Real specification defines a value object type for real values.">
<polygon fill="white" stroke="black" points="285,-228.5 285,-248.5 333,-248.5 333,-228.5 285,-228.5"/>
<text text-anchor="middle" x="309" y="-235.7" font-family="Helvetica,sans-Serif" font-size="11.00">Real.h</text>
</a>
</g>
</g>
<!-- Node17&#45;&gt;Node18 -->
<g id="edge24" class="edge">
<title>Node17&#45;&gt;Node18</title>
<path fill="none" stroke="midnightblue" d="M359.93,-285.42C350.97,-277.35 337.68,-265.36 326.91,-255.65"/>
<polygon fill="midnightblue" stroke="midnightblue" points="329.06,-252.88 319.29,-248.78 324.37,-258.08 329.06,-252.88"/>
</g>
<!-- Node18&#45;&gt;Node12 -->
<g id="edge25" class="edge">
<title>Node18&#45;&gt;Node12</title>
<path fill="none" stroke="midnightblue" d="M319.9,-228.4C329.51,-219.86 343.31,-206.3 352,-192 372.65,-158.03 385.16,-112.76 391.02,-87.53"/>
<polygon fill="midnightblue" stroke="midnightblue" points="394.44,-88.27 393.18,-77.75 387.6,-86.76 394.44,-88.27"/>
</g>
<!-- Node19 -->
<g id="node19" class="node">
<title>Node19</title>
<g id="a_node19"><a xlink:href="_integer_8h.html" target="_top" xlink:title="The Integer specification and body provides a value object type for ints.">
<polygon fill="white" stroke="black" points="284.5,-171.5 284.5,-191.5 343.5,-191.5 343.5,-171.5 284.5,-171.5"/>
<text text-anchor="middle" x="314" y="-178.7" font-family="Helvetica,sans-Serif" font-size="11.00">Integer.h</text>
</a>
</g>
</g>
<!-- Node18&#45;&gt;Node19 -->
<g id="edge26" class="edge">
<title>Node18&#45;&gt;Node19</title>
<path fill="none" stroke="midnightblue" d="M309.83,-228.42C310.48,-221.22 311.42,-210.9 312.24,-201.86"/>
<polygon fill="midnightblue" stroke="midnightblue" points="315.74,-202.06 313.16,-191.78 308.77,-201.42 315.74,-202.06"/>
</g>
<!-- Node19&#45;&gt;Node3 -->
<g id="edge28" class="edge">
<title>Node19&#45;&gt;Node3</title>
<path fill="none" stroke="midnightblue" d="M314.57,-171.38C315.54,-150.3 315.98,-96.96 299,-57 294.4,-46.18 286.42,-35.86 279.05,-27.79"/>
<polygon fill="midnightblue" stroke="midnightblue" points="281.49,-25.29 272.02,-20.54 276.47,-30.16 281.49,-25.29"/>
</g>
<!-- Node19&#45;&gt;Node11 -->
<g id="edge29" class="edge">
<title>Node19&#45;&gt;Node11</title>
<path fill="none" stroke="midnightblue" d="M301.62,-171.42C290.22,-163.06 273.09,-150.5 259.62,-140.62"/>
<polygon fill="midnightblue" stroke="midnightblue" points="261.54,-137.69 251.4,-134.6 257.4,-143.33 261.54,-137.69"/>
</g>
<!-- Node19&#45;&gt;Node12 -->
<g id="edge27" class="edge">
<title>Node19&#45;&gt;Node12</title>
<path fill="none" stroke="midnightblue" d="M320.63,-171.33C334.1,-152.71 364.86,-110.17 382.31,-86.05"/>
<polygon fill="midnightblue" stroke="midnightblue" points="385.26,-87.95 388.28,-77.79 379.58,-83.84 385.26,-87.95"/>
</g>
<!-- Node21 -->
<g id="node21" class="node">
<title>Node21</title>
<g id="a_node21"><a xlink:title=" ">
<polygon fill="white" stroke="#bfbfbf" points="351,-228.5 351,-248.5 429,-248.5 429,-228.5 351,-228.5"/>
<text text-anchor="middle" x="390" y="-235.7" font-family="Helvetica,sans-Serif" font-size="11.00">initializer_list</text>
</a>
</g>
</g>
<!-- Node20&#45;&gt;Node21 -->
<g id="edge31" class="edge">
<title>Node20&#45;&gt;Node21</title>
<path fill="none" stroke="midnightblue" d="M452.62,-285.42C441.22,-277.06 424.09,-264.5 410.62,-254.62"/>
<polygon fill="midnightblue" stroke="midnightblue" points="412.54,-251.69 402.4,-248.6 408.4,-257.33 412.54,-251.69"/>
</g>
<!-- Node22 -->
<g id="node22" class="node">
<title>Node22</title>
<g id="a_node22"><a xlink:title=" ">
<polygon fill="white" stroke="#bfbfbf" points="447.5,-228.5 447.5,-248.5 528.5,-248.5 528.5,-228.5 447.5,-228.5"/>
<text text-anchor="middle" x="488" y="-235.7" font-family="Helvetica,sans-Serif" font-size="11.00">GenericList.h</text>
</a>
</g>
</g>
<!-- Node20&#45;&gt;Node22 -->
<g id="edge32" class="edge">
<title>Node20&#45;&gt;Node22</title>
<path fill="none" stroke="midnightblue" d="M468.8,-285.42C471.88,-278.06 476.32,-267.44 480.15,-258.27"/>
<polygon fill="midnightblue" stroke="midnightblue" points="483.49,-259.36 484.12,-248.78 477.03,-256.65 483.49,-259.36"/>
</g>
</g>
</svg>
        <g id="navigator" transform="translate(0 0)" fill="#404254">
                <rect fill="#f2f5e9" fill-opacity="0.5" stroke="#606060" stroke-width=".5" x="0" y="0" width="60" height="60"/>
                <use id="zoomplus" xlink:href="#zoomPlus" x="17" y="9" onmousedown="handleZoom(evt,'in')"/>
                <use id="zoomminus" xlink:href="#zoomMin" x="42" y="9" onmousedown="handleZoom(evt,'out')"/>
                <use id="reset" xlink:href="#resetDef" x="30" y="36" onmousedown="handleReset()"/>
                <g id="arrowUp" xlink:href="#dirArrow" transform="translate(30 24)" onmousedown="handlePan(0,-1)">
                  <use xlink:href="#rim" fill="#404040">
                        <set attributeName="fill" to="#808080" begin="arrowUp.mouseover" end="arrowUp.mouseout"/>
                  </use>
                  <path fill="none" stroke="white" stroke-width="1.5" d="M0,-3.0v7 M-2.5,-0.5L0,-3.0L2.5,-0.5"/>
                </g>
                <g id="arrowRight" xlink:href="#dirArrow" transform="rotate(90) translate(36 -43)" onmousedown="handlePan(1,0)">
                  <use xlink:href="#rim" fill="#404040">
                        <set attributeName="fill" to="#808080" begin="arrowRight.mouseover" end="arrowRight.mouseout"/>
                  </use>
                  <path fill="none" stroke="white" stroke-width="1.5" d="M0,-3.0v7 M-2.5,-0.5L0,-3.0L2.5,-0.5"/>
                </g>
                <g id="arrowDown" xlink:href="#dirArrow" transform="rotate(180) translate(-30 -48)" onmousedown="handlePan(0,1)">
                  <use xlink:href="#rim" fill="#404040">
                        <set attributeName="fill" to="#808080" begin="arrowDown.mouseover" end="arrowDown.mouseout"/>
                  </use>
                  <path fill="none" stroke="white" stroke-width="1.5" d="M0,-3.0v7 M-2.5,-0.5L0,-3.0L2.5,-0.5"/>
                </g>
                <g id="arrowLeft" xlink:href="#dirArrow" transform="rotate(270) translate(-36 17)" onmousedown="handlePan(-1,0)">
                  <use xlink:href="#rim" fill="#404040">
                        <set attributeName="fill" to="#808080" begin="arrowLeft.mouseover" end="arrowLeft.mouseout"/>
                  </use>
                  <path fill="none" stroke="white" stroke-width="1.5" d="M0,-3.0v7 M-2.5,-0.5L0,-3.0L2.5,-0.5"/>
                </g>
        </g>
        <svg viewBox="0 0 15 15" width="100%" height="30px" preserveAspectRatio="xMaxYMin meet">
         <g id="arrow_out" transform="scale(0.3 0.3)">
          <a xlink:href="_audio_sample_fifo_queue_vector_8cpp-inc__incl_org.svg" target="_base">
           <rect id="button" ry="5" rx="5" y="6" x="6" height="38" width="38"
                fill="#f2f5e9" fill-opacity="0.5" stroke="#606060" stroke-width="1.0"/>
           <path id="arrow"
             d="M 11.500037,31.436501 C 11.940474,20.09759 22.043105,11.32322 32.158766,21.979434 L 37.068811,17.246167 C 37.068811,17.246167 37.088388,32 37.088388,32 L 22.160133,31.978069 C 22.160133,31.978069 26.997745,27.140456 26.997745,27.140456 C 18.528582,18.264221 13.291696,25.230495 11.500037,31.436501 z"
             style="fill:#404040;"/>
          </a>
         </g>
        </svg>
</svg>
