<?xml version="1.0" encoding="UTF-8" standalone="no"?>
<!DOCTYPE svg PUBLIC "-//W3C//DTD SVG 1.1//EN"
 "http://www.w3.org/Graphics/SVG/1.1/DTD/svg11.dtd">
<!-- Generated by graphviz version 2.47.1 (20210417.1919)
 -->
<!-- Title: AudioSampleFifoQueueVector.cpp&#45;inc Pages: 1 -->
<!--zoomable 485 -->
<svg id="main" version="1.1" xmlns="http://www.w3.org/2000/svg" xmlns:xlink="http://www.w3.org/1999/xlink" xml:space="preserve" onload="init(evt)">
<style type="text/css"><![CDATA[
.edge:hover path { stroke: red; }
.edge:hover polygon { stroke: red; fill: red; }
]]></style>
<script type="text/javascript"><![CDATA[
var edges = document.getElementsByTagName('g');
if (edges && edges.length) {
  for (var i=0;i<edges.length;i++) {
    if (edges[i].id.substr(0,4)=='edge') {
      edges[i].setAttribute('class','edge');
    }
  }
}
]]></script>
        <defs>
                <circle id="rim" cx="0" cy="0" r="7"/>
                <circle id="rim2" cx="0" cy="0" r="3.5"/>
                <g id="zoomPlus">
                        <use xlink:href="#rim" fill="#404040">
                                <set attributeName="fill" to="#808080" begin="zoomplus.mouseover" end="zoomplus.mouseout"/>
                        </use>
                        <path d="M-4,0h8M0,-4v8" fill="none" stroke="white" stroke-width="1.5" pointer-events="none"/>
                </g>
                <g id="zoomMin">
                        <use xlink:href="#rim" fill="#404040">
                                <set attributeName="fill" to="#808080" begin="zoomminus.mouseover" end="zoomminus.mouseout"/>
                        </use>
                        <path d="M-4,0h8" fill="none" stroke="white" stroke-width="1.5" pointer-events="none"/>
                </g>
                <g id="dirArrow">
                        <path fill="none" stroke="white" stroke-width="1.5" d="M0,-3.0v7 M-2.5,-0.5L0,-3.0L2.5,-0.5"/>
                </g>
               <g id="resetDef">
                       <use xlink:href="#rim2" fill="#404040">
                               <set attributeName="fill" to="#808080" begin="reset.mouseover" end="reset.mouseout"/>
                       </use>
               </g>
        </defs>

<script type="text/javascript">
var viewWidth = 519;
var viewHeight = 485;
var sectionId = 'dynsection-0';
</script>
<script xlink:href="svgpan.js"/>
<svg id="graph" class="graph">
<g id="viewport">
<title>AudioSampleFifoQueueVector.cpp&#45;inc</title>
<polygon fill="white" stroke="transparent" points="-4,4 -4,-481 514.5,-481 514.5,4 -4,4"/>
<!-- Node1 -->
<g id="node1" class="node">
<title>Node1</title>
<g id="a_node1"><a xlink:title="The AudioSampleFifoQueueVector body implements a list of fifo queues for audio samples (this is the e...">
<polygon fill="#bfbfbf" stroke="black" points="0,-456.5 0,-476.5 203,-476.5 203,-456.5 0,-456.5"/>
<text text-anchor="middle" x="101.5" y="-463.7" font-family="Helvetica,sans-Serif" font-size="11.00">AudioSampleFifoQueueVector.cpp&#45;inc</text>
</a>
</g>
</g>
<!-- Node2 -->
<g id="node2" class="node">
<title>Node2</title>
<g id="a_node2"><a xlink:href="_assertion_8h.html" target="_top" xlink:title="The Assertion specification defines macros for pre&#45; and postconditions in functions or methods.">
<polygon fill="white" stroke="black" points="17,-57.5 17,-77.5 88,-77.5 88,-57.5 17,-57.5"/>
<text text-anchor="middle" x="52.5" y="-64.7" font-family="Helvetica,sans-Serif" font-size="11.00">Assertion.h</text>
</a>
</g>
</g>
<!-- Node1&#45;&gt;Node2 -->
<g id="edge1" class="edge">
<title>Node1&#45;&gt;Node2</title>
<path fill="none" stroke="midnightblue" d="M94.27,-456.22C80.64,-437.76 52.5,-394.67 52.5,-353.5 52.5,-353.5 52.5,-353.5 52.5,-180.5 52.5,-147.88 52.5,-109.92 52.5,-87.62"/>
<polygon fill="midnightblue" stroke="midnightblue" points="56,-87.5 52.5,-77.5 49,-87.5 56,-87.5"/>
</g>
<!-- Node4 -->
<g id="node4" class="node">
<title>Node4</title>
<g id="a_node4"><a xlink:href="_logging_8h.html" target="_top" xlink:title="The Logging specification defines macros for entry&#45;, exit&#45; and intermediate logging of functions into...">
<polygon fill="white" stroke="black" points="191.5,-399.5 191.5,-419.5 255.5,-419.5 255.5,-399.5 191.5,-399.5"/>
<text text-anchor="middle" x="223.5" y="-406.7" font-family="Helvetica,sans-Serif" font-size="11.00">Logging.h</text>
</a>
</g>
</g>
<!-- Node1&#45;&gt;Node4 -->
<g id="edge3" class="edge">
<title>Node1&#45;&gt;Node4</title>
<path fill="none" stroke="midnightblue" d="M121.65,-456.42C141.34,-447.54 171.54,-433.93 193.95,-423.82"/>
<polygon fill="midnightblue" stroke="midnightblue" points="195.65,-426.9 203.32,-419.6 192.77,-420.51 195.65,-426.9"/>
</g>
<!-- Node3 -->
<g id="node3" class="node">
<title>Node3</title>
<g id="a_node3"><a xlink:title=" ">
<polygon fill="white" stroke="#bfbfbf" points="24,-0.5 24,-20.5 77,-20.5 77,-0.5 24,-0.5"/>
<text text-anchor="middle" x="50.5" y="-7.7" font-family="Helvetica,sans-Serif" font-size="11.00">cassert</text>
</a>
</g>
</g>
<!-- Node2&#45;&gt;Node3 -->
<g id="edge2" class="edge">
<title>Node2&#45;&gt;Node3</title>
<path fill="none" stroke="midnightblue" d="M52.17,-57.42C51.91,-50.22 51.53,-39.9 51.2,-30.86"/>
<polygon fill="midnightblue" stroke="midnightblue" points="54.7,-30.65 50.84,-20.78 47.7,-30.9 54.7,-30.65"/>
</g>
<!-- Node5 -->
<g id="node5" class="node">
<title>Node5</title>
<g id="a_node5"><a xlink:title=" ">
<polygon fill="white" stroke="#bfbfbf" points="338,-342.5 338,-362.5 391,-362.5 391,-342.5 338,-342.5"/>
<text text-anchor="middle" x="364.5" y="-349.7" font-family="Helvetica,sans-Serif" font-size="11.00">cstdarg</text>
</a>
</g>
</g>
<!-- Node4&#45;&gt;Node5 -->
<g id="edge4" class="edge">
<title>Node4&#45;&gt;Node5</title>
<path fill="none" stroke="midnightblue" d="M246.78,-399.42C269.95,-390.38 305.7,-376.44 331.73,-366.28"/>
<polygon fill="midnightblue" stroke="midnightblue" points="333.14,-369.49 341.18,-362.6 330.59,-362.97 333.14,-369.49"/>
</g>
<!-- Node6 -->
<g id="node6" class="node">
<title>Node6</title>
<g id="a_node6"><a xlink:href="_logging_support_8h.html" target="_top" xlink:title="The LoggingSupport specification defines a class for simple entry/exit logging to a file; this loggin...">
<polygon fill="white" stroke="black" points="110.5,-342.5 110.5,-362.5 212.5,-362.5 212.5,-342.5 110.5,-342.5"/>
<text text-anchor="middle" x="161.5" y="-349.7" font-family="Helvetica,sans-Serif" font-size="11.00">LoggingSupport.h</text>
</a>
</g>
</g>
<!-- Node4&#45;&gt;Node6 -->
<g id="edge5" class="edge">
<title>Node4&#45;&gt;Node6</title>
<path fill="none" stroke="midnightblue" d="M213.26,-399.42C204.16,-391.35 190.65,-379.36 179.71,-369.65"/>
<polygon fill="midnightblue" stroke="midnightblue" points="181.76,-366.8 171.96,-362.78 177.12,-372.03 181.76,-366.8"/>
</g>
<!-- Node14 -->
<g id="node14" class="node">
<title>Node14</title>
<g id="a_node14"><a xlink:href="_string_util_8h.html" target="_top" xlink:title="The StringUtil specification defines several string routines not included in the standard C++ library...">
<polygon fill="white" stroke="black" points="251,-342.5 251,-362.5 320,-362.5 320,-342.5 251,-342.5"/>
<text text-anchor="middle" x="285.5" y="-349.7" font-family="Helvetica,sans-Serif" font-size="11.00">StringUtil.h</text>
</a>
</g>
</g>
<!-- Node4&#45;&gt;Node14 -->
<g id="edge15" class="edge">
<title>Node4&#45;&gt;Node14</title>
<path fill="none" stroke="midnightblue" d="M233.74,-399.42C242.84,-391.35 256.35,-379.36 267.29,-369.65"/>
<polygon fill="midnightblue" stroke="midnightblue" points="269.88,-372.03 275.04,-362.78 265.24,-366.8 269.88,-372.03"/>
</g>
<!-- Node7 -->
<g id="node7" class="node">
<title>Node7</title>
<g id="a_node7"><a xlink:href="_boolean_8h.html" target="_top" xlink:title="The Boolean specification and body provides a value object type for boolean values.">
<polygon fill="white" stroke="black" points="129,-285.5 129,-305.5 194,-305.5 194,-285.5 129,-285.5"/>
<text text-anchor="middle" x="161.5" y="-292.7" font-family="Helvetica,sans-Serif" font-size="11.00">Boolean.h</text>
</a>
</g>
</g>
<!-- Node6&#45;&gt;Node7 -->
<g id="edge6" class="edge">
<title>Node6&#45;&gt;Node7</title>
<path fill="none" stroke="midnightblue" d="M161.5,-342.42C161.5,-335.22 161.5,-324.9 161.5,-315.86"/>
<polygon fill="midnightblue" stroke="midnightblue" points="165,-315.78 161.5,-305.78 158,-315.78 165,-315.78"/>
</g>
<!-- Node11 -->
<g id="node11" class="node">
<title>Node11</title>
<g id="a_node11"><a xlink:href="_natural_8h.html" target="_top" xlink:title="The Natural specification and body provides a value object type for naturals (positive integers with ...">
<polygon fill="white" stroke="black" points="213.5,-114.5 213.5,-134.5 273.5,-134.5 273.5,-114.5 213.5,-114.5"/>
<text text-anchor="middle" x="243.5" y="-121.7" font-family="Helvetica,sans-Serif" font-size="11.00">Natural.h</text>
</a>
</g>
</g>
<!-- Node6&#45;&gt;Node11 -->
<g id="edge10" class="edge">
<title>Node6&#45;&gt;Node11</title>
<path fill="none" stroke="midnightblue" d="M148.88,-342.28C138.78,-334.06 125.37,-321.02 119.5,-306 116.1,-297.31 117.39,-294.09 119.5,-285 134.16,-221.92 192.18,-166.86 223.38,-141.07"/>
<polygon fill="midnightblue" stroke="midnightblue" points="225.83,-143.59 231.42,-134.58 221.44,-138.14 225.83,-143.59"/>
</g>
<!-- Node8 -->
<g id="node8" class="node">
<title>Node8</title>
<g id="a_node8"><a xlink:href="_my_string_8h.html" target="_top" xlink:title="The String specification defines a standard string type.">
<polygon fill="white" stroke="black" points="107.5,-57.5 107.5,-77.5 175.5,-77.5 175.5,-57.5 107.5,-57.5"/>
<text text-anchor="middle" x="141.5" y="-64.7" font-family="Helvetica,sans-Serif" font-size="11.00">MyString.h</text>
</a>
</g>
</g>
<!-- Node7&#45;&gt;Node8 -->
<g id="edge7" class="edge">
<title>Node7&#45;&gt;Node8</title>
<path fill="none" stroke="midnightblue" d="M157.86,-285.26C154.48,-276.19 149.66,-261.88 147.5,-249 137.78,-190.91 139.09,-120.88 140.48,-87.71"/>
<polygon fill="midnightblue" stroke="midnightblue" points="143.98,-87.75 140.96,-77.6 136.99,-87.42 143.98,-87.75"/>
</g>
<!-- Node9 -->
<g id="node9" class="node">
<title>Node9</title>
<g id="a_node9"><a xlink:title=" ">
<polygon fill="white" stroke="#bfbfbf" points="205.5,-0.5 205.5,-20.5 249.5,-20.5 249.5,-0.5 205.5,-0.5"/>
<text text-anchor="middle" x="227.5" y="-7.7" font-family="Helvetica,sans-Serif" font-size="11.00">string</text>
</a>
</g>
</g>
<!-- Node8&#45;&gt;Node9 -->
<g id="edge8" class="edge">
<title>Node8&#45;&gt;Node9</title>
<path fill="none" stroke="midnightblue" d="M155.7,-57.42C169.02,-48.9 189.17,-36.02 204.73,-26.06"/>
<polygon fill="midnightblue" stroke="midnightblue" points="206.74,-28.93 213.28,-20.6 202.97,-23.03 206.74,-28.93"/>
</g>
<!-- Node10 -->
<g id="node10" class="node">
<title>Node10</title>
<g id="a_node10"><a xlink:href="_global_macros_8h.html" target="_top" xlink:title="The GlobalMacros specification defines simple macros (e.g. for parameter modes).">
<polygon fill="white" stroke="black" points="95.5,-0.5 95.5,-20.5 187.5,-20.5 187.5,-0.5 95.5,-0.5"/>
<text text-anchor="middle" x="141.5" y="-7.7" font-family="Helvetica,sans-Serif" font-size="11.00">GlobalMacros.h</text>
</a>
</g>
</g>
<!-- Node8&#45;&gt;Node10 -->
<g id="edge9" class="edge">
<title>Node8&#45;&gt;Node10</title>
<path fill="none" stroke="midnightblue" d="M141.5,-57.42C141.5,-50.22 141.5,-39.9 141.5,-30.86"/>
<polygon fill="midnightblue" stroke="midnightblue" points="145,-30.78 141.5,-20.78 138,-30.78 145,-30.78"/>
</g>
<!-- Node11&#45;&gt;Node2 -->
<g id="edge12" class="edge">
<title>Node11&#45;&gt;Node2</title>
<path fill="none" stroke="midnightblue" d="M213.24,-114.79C180.93,-105.48 129.54,-90.69 93.59,-80.33"/>
<polygon fill="midnightblue" stroke="midnightblue" points="94.47,-76.94 83.89,-77.54 92.53,-83.67 94.47,-76.94"/>
</g>
<!-- Node11&#45;&gt;Node8 -->
<g id="edge14" class="edge">
<title>Node11&#45;&gt;Node8</title>
<path fill="none" stroke="midnightblue" d="M226.66,-114.42C210.49,-105.7 185.85,-92.41 167.22,-82.37"/>
<polygon fill="midnightblue" stroke="midnightblue" points="168.83,-79.26 158.37,-77.6 165.51,-85.42 168.83,-79.26"/>
</g>
<!-- Node12 -->
<g id="node12" class="node">
<title>Node12</title>
<g id="a_node12"><a xlink:title=" ">
<polygon fill="white" stroke="#bfbfbf" points="316,-57.5 316,-77.5 363,-77.5 363,-57.5 316,-57.5"/>
<text text-anchor="middle" x="339.5" y="-64.7" font-family="Helvetica,sans-Serif" font-size="11.00">cmath</text>
</a>
</g>
</g>
<!-- Node11&#45;&gt;Node12 -->
<g id="edge11" class="edge">
<title>Node11&#45;&gt;Node12</title>
<path fill="none" stroke="midnightblue" d="M259.35,-114.42C274.36,-105.82 297.13,-92.78 314.57,-82.78"/>
<polygon fill="midnightblue" stroke="midnightblue" points="316.69,-85.6 323.62,-77.6 313.21,-79.53 316.69,-85.6"/>
</g>
<!-- Node13 -->
<g id="node13" class="node">
<title>Node13</title>
<g id="a_node13"><a xlink:title=" ">
<polygon fill="white" stroke="#bfbfbf" points="194,-57.5 194,-77.5 297,-77.5 297,-57.5 194,-57.5"/>
<text text-anchor="middle" x="245.5" y="-64.7" font-family="Helvetica,sans-Serif" font-size="11.00">GenericNumber.h</text>
</a>
</g>
</g>
<!-- Node11&#45;&gt;Node13 -->
<g id="edge13" class="edge">
<title>Node11&#45;&gt;Node13</title>
<path fill="none" stroke="midnightblue" d="M243.83,-114.42C244.09,-107.22 244.47,-96.9 244.8,-87.86"/>
<polygon fill="midnightblue" stroke="midnightblue" points="248.3,-87.9 245.16,-77.78 241.3,-87.65 248.3,-87.9"/>
</g>
<!-- Node14&#45;&gt;Node7 -->
<g id="edge16" class="edge">
<title>Node14&#45;&gt;Node7</title>
<path fill="none" stroke="midnightblue" d="M265.02,-342.42C244.92,-333.5 214.04,-319.8 191.23,-309.69"/>
<polygon fill="midnightblue" stroke="midnightblue" points="192.57,-306.45 182.01,-305.6 189.73,-312.85 192.57,-306.45"/>
</g>
<!-- Node15 -->
<g id="node15" class="node">
<title>Node15</title>
<g id="a_node15"><a xlink:href="_byte_8h.html" target="_top" xlink:title="The Byte specification and body provides a value object type for byte values.">
<polygon fill="white" stroke="black" points="241,-171.5 241,-191.5 288,-191.5 288,-171.5 241,-171.5"/>
<text text-anchor="middle" x="264.5" y="-178.7" font-family="Helvetica,sans-Serif" font-size="11.00">Byte.h</text>
</a>
</g>
</g>
<!-- Node14&#45;&gt;Node15 -->
<g id="edge17" class="edge">
<title>Node14&#45;&gt;Node15</title>
<path fill="none" stroke="midnightblue" d="M297.72,-342.4C308.03,-334.07 322.37,-320.8 330.5,-306 347.41,-275.19 361.09,-258.43 343.5,-228 333.63,-210.93 314.67,-199.7 297.79,-192.67"/>
<polygon fill="midnightblue" stroke="midnightblue" points="298.77,-189.3 288.18,-189 296.28,-195.84 298.77,-189.3"/>
</g>
<!-- Node16 -->
<g id="node16" class="node">
<title>Node16</title>
<g id="a_node16"><a xlink:href="_character_8h.html" target="_top" xlink:title="The Character specification and body provides a value object type for character values.">
<polygon fill="white" stroke="black" points="306.5,-171.5 306.5,-191.5 380.5,-191.5 380.5,-171.5 306.5,-171.5"/>
<text text-anchor="middle" x="343.5" y="-178.7" font-family="Helvetica,sans-Serif" font-size="11.00">Character.h</text>
</a>
</g>
</g>
<!-- Node14&#45;&gt;Node16 -->
<g id="edge20" class="edge">
<title>Node14&#45;&gt;Node16</title>
<path fill="none" stroke="midnightblue" d="M305.43,-342.47C319.96,-334.84 338.88,-322.51 349.5,-306 368.44,-276.56 366.73,-262.45 360.5,-228 358.83,-218.78 355.41,-208.99 352.07,-200.87"/>
<polygon fill="midnightblue" stroke="midnightblue" points="355.24,-199.39 348.02,-191.63 348.83,-202.2 355.24,-199.39"/>
</g>
<!-- Node17 -->
<g id="node17" class="node">
<title>Node17</title>
<g id="a_node17"><a xlink:href="_percentage_8h.html" target="_top" xlink:title="The Percentage specification and body provides a simple percentage type.">
<polygon fill="white" stroke="black" points="428.5,-285.5 428.5,-305.5 510.5,-305.5 510.5,-285.5 428.5,-285.5"/>
<text text-anchor="middle" x="469.5" y="-292.7" font-family="Helvetica,sans-Serif" font-size="11.00">Percentage.h</text>
</a>
</g>
</g>
<!-- Node14&#45;&gt;Node17 -->
<g id="edge23" class="edge">
<title>Node14&#45;&gt;Node17</title>
<path fill="none" stroke="midnightblue" d="M315.88,-342.42C347.01,-333.12 395.54,-318.61 429.71,-308.39"/>
<polygon fill="midnightblue" stroke="midnightblue" points="430.8,-311.72 439.38,-305.5 428.79,-305.01 430.8,-311.72"/>
</g>
<!-- Node21 -->
<g id="node21" class="node">
<title>Node21</title>
<g id="a_node21"><a xlink:href="_string_list_8h.html" target="_top" xlink:title="The StringList specification defines lists of string values with zero&#45;based arbitrary indexed access ...">
<polygon fill="white" stroke="black" points="250,-285.5 250,-305.5 321,-305.5 321,-285.5 250,-285.5"/>
<text text-anchor="middle" x="285.5" y="-292.7" font-family="Helvetica,sans-Serif" font-size="11.00">StringList.h</text>
</a>
</g>
</g>
<!-- Node14&#45;&gt;Node21 -->
<g id="edge30" class="edge">
<title>Node14&#45;&gt;Node21</title>
<path fill="none" stroke="midnightblue" d="M285.5,-342.42C285.5,-335.22 285.5,-324.9 285.5,-315.86"/>
<polygon fill="midnightblue" stroke="midnightblue" points="289,-315.78 285.5,-305.78 282,-315.78 289,-315.78"/>
</g>
<!-- Node15&#45;&gt;Node11 -->
<g id="edge19" class="edge">
<title>Node15&#45;&gt;Node11</title>
<path fill="none" stroke="midnightblue" d="M261.03,-171.42C258.22,-164.06 254.17,-153.44 250.67,-144.27"/>
<polygon fill="midnightblue" stroke="midnightblue" points="253.88,-142.87 247.04,-134.78 247.34,-145.37 253.88,-142.87"/>
</g>
<!-- Node15&#45;&gt;Node12 -->
<g id="edge18" class="edge">
<title>Node15&#45;&gt;Node12</title>
<path fill="none" stroke="midnightblue" d="M270.64,-171.33C283.05,-152.79 311.34,-110.55 327.53,-86.37"/>
<polygon fill="midnightblue" stroke="midnightblue" points="330.62,-88.05 333.28,-77.79 324.81,-84.15 330.62,-88.05"/>
</g>
<!-- Node16&#45;&gt;Node11 -->
<g id="edge22" class="edge">
<title>Node16&#45;&gt;Node11</title>
<path fill="none" stroke="midnightblue" d="M326.99,-171.42C311.21,-162.74 287.2,-149.53 268.97,-139.51"/>
<polygon fill="midnightblue" stroke="midnightblue" points="270.49,-136.35 260.04,-134.6 267.11,-142.48 270.49,-136.35"/>
</g>
<!-- Node16&#45;&gt;Node12 -->
<g id="edge21" class="edge">
<title>Node16&#45;&gt;Node12</title>
<path fill="none" stroke="midnightblue" d="M343.17,-171.33C342.53,-153.2 341.07,-112.41 340.2,-88"/>
<polygon fill="midnightblue" stroke="midnightblue" points="343.69,-87.66 339.83,-77.79 336.69,-87.91 343.69,-87.66"/>
</g>
<!-- Node18 -->
<g id="node18" class="node">
<title>Node18</title>
<g id="a_node18"><a xlink:href="_real_8h.html" target="_top" xlink:title="The Real specification defines a value object type for real values.">
<polygon fill="white" stroke="black" points="445.5,-228.5 445.5,-248.5 493.5,-248.5 493.5,-228.5 445.5,-228.5"/>
<text text-anchor="middle" x="469.5" y="-235.7" font-family="Helvetica,sans-Serif" font-size="11.00">Real.h</text>
</a>
</g>
</g>
<!-- Node17&#45;&gt;Node18 -->
<g id="edge24" class="edge">
<title>Node17&#45;&gt;Node18</title>
<path fill="none" stroke="midnightblue" d="M469.5,-285.42C469.5,-278.22 469.5,-267.9 469.5,-258.86"/>
<polygon fill="midnightblue" stroke="midnightblue" points="473,-258.78 469.5,-248.78 466,-258.78 473,-258.78"/>
</g>
<!-- Node18&#45;&gt;Node12 -->
<g id="edge25" class="edge">
<title>Node18&#45;&gt;Node12</title>
<path fill="none" stroke="midnightblue" d="M471.83,-228.26C476.97,-205.46 486.57,-146.09 456.5,-114 434.53,-90.55 399.06,-79.02 372.93,-73.46"/>
<polygon fill="midnightblue" stroke="midnightblue" points="373.55,-70.01 363.07,-71.54 372.22,-76.89 373.55,-70.01"/>
</g>
<!-- Node19 -->
<g id="node19" class="node">
<title>Node19</title>
<g id="a_node19"><a xlink:href="_integer_8h.html" target="_top" xlink:title="The Integer specification and body provides a value object type for ints.">
<polygon fill="white" stroke="black" points="406,-171.5 406,-191.5 465,-191.5 465,-171.5 406,-171.5"/>
<text text-anchor="middle" x="435.5" y="-178.7" font-family="Helvetica,sans-Serif" font-size="11.00">Integer.h</text>
</a>
</g>
</g>
<!-- Node18&#45;&gt;Node19 -->
<g id="edge26" class="edge">
<title>Node18&#45;&gt;Node19</title>
<path fill="none" stroke="midnightblue" d="M463.89,-228.42C459.19,-220.82 452.35,-209.75 446.56,-200.39"/>
<polygon fill="midnightblue" stroke="midnightblue" points="449.47,-198.45 441.24,-191.78 443.52,-202.13 449.47,-198.45"/>
</g>
<!-- Node19&#45;&gt;Node11 -->
<g id="edge29" class="edge">
<title>Node19&#45;&gt;Node11</title>
<path fill="none" stroke="midnightblue" d="M405.92,-172.03C373.13,-162.63 320.07,-147.43 283.57,-136.98"/>
<polygon fill="midnightblue" stroke="midnightblue" points="284.32,-133.55 273.75,-134.16 282.4,-140.28 284.32,-133.55"/>
</g>
<!-- Node19&#45;&gt;Node12 -->
<g id="edge27" class="edge">
<title>Node19&#45;&gt;Node12</title>
<path fill="none" stroke="midnightblue" d="M439.38,-171.48C444.59,-157.84 451.94,-131.7 440.5,-114 425.68,-91.07 396.23,-79.58 372.94,-73.89"/>
<polygon fill="midnightblue" stroke="midnightblue" points="373.58,-70.45 363.07,-71.73 372.09,-77.29 373.58,-70.45"/>
</g>
<!-- Node20 -->
<g id="node20" class="node">
<title>Node20</title>
<g id="a_node20"><a xlink:title=" ">
<polygon fill="white" stroke="#bfbfbf" points="367.5,-114.5 367.5,-134.5 431.5,-134.5 431.5,-114.5 367.5,-114.5"/>
<text text-anchor="middle" x="399.5" y="-121.7" font-family="Helvetica,sans-Serif" font-size="11.00">stdexcept</text>
</a>
</g>
</g>
<!-- Node19&#45;&gt;Node20 -->
<g id="edge28" class="edge">
<title>Node19&#45;&gt;Node20</title>
<path fill="none" stroke="midnightblue" d="M429.56,-171.42C424.58,-163.82 417.34,-152.75 411.21,-143.39"/>
<polygon fill="midnightblue" stroke="midnightblue" points="413.98,-141.23 405.57,-134.78 408.12,-145.06 413.98,-141.23"/>
</g>
<!-- Node22 -->
<g id="node22" class="node">
<title>Node22</title>
<g id="a_node22"><a xlink:title=" ">
<polygon fill="white" stroke="#bfbfbf" points="256.5,-228.5 256.5,-248.5 334.5,-248.5 334.5,-228.5 256.5,-228.5"/>
<text text-anchor="middle" x="295.5" y="-235.7" font-family="Helvetica,sans-Serif" font-size="11.00">initializer_list</text>
</a>
</g>
</g>
<!-- Node21&#45;&gt;Node22 -->
<g id="edge31" class="edge">
<title>Node21&#45;&gt;Node22</title>
<path fill="none" stroke="midnightblue" d="M287.15,-285.42C288.46,-278.22 290.34,-267.9 291.98,-258.86"/>
<polygon fill="midnightblue" stroke="midnightblue" points="295.47,-259.24 293.81,-248.78 288.58,-257.99 295.47,-259.24"/>
</g>
<!-- Node23 -->
<g id="node23" class="node">
<title>Node23</title>
<g id="a_node23"><a xlink:title=" ">
<polygon fill="white" stroke="#bfbfbf" points="157,-228.5 157,-248.5 238,-248.5 238,-228.5 157,-228.5"/>
<text text-anchor="middle" x="197.5" y="-235.7" font-family="Helvetica,sans-Serif" font-size="11.00">GenericList.h</text>
</a>
</g>
</g>
<!-- Node21&#45;&gt;Node23 -->
<g id="edge32" class="edge">
<title>Node21&#45;&gt;Node23</title>
<path fill="none" stroke="midnightblue" d="M270.97,-285.42C257.34,-276.9 236.73,-264.02 220.8,-254.06"/>
<polygon fill="midnightblue" stroke="midnightblue" points="222.39,-250.93 212.05,-248.6 218.68,-256.86 222.39,-250.93"/>
</g>
</g>
</svg>
        <g id="navigator" transform="translate(0 0)" fill="#404254">
                <rect fill="#f2f5e9" fill-opacity="0.5" stroke="#606060" stroke-width=".5" x="0" y="0" width="60" height="60"/>
                <use id="zoomplus" xlink:href="#zoomPlus" x="17" y="9" onmousedown="handleZoom(evt,'in')"/>
                <use id="zoomminus" xlink:href="#zoomMin" x="42" y="9" onmousedown="handleZoom(evt,'out')"/>
                <use id="reset" xlink:href="#resetDef" x="30" y="36" onmousedown="handleReset()"/>
                <g id="arrowUp" xlink:href="#dirArrow" transform="translate(30 24)" onmousedown="handlePan(0,-1)">
                  <use xlink:href="#rim" fill="#404040">
                        <set attributeName="fill" to="#808080" begin="arrowUp.mouseover" end="arrowUp.mouseout"/>
                  </use>
                  <path fill="none" stroke="white" stroke-width="1.5" d="M0,-3.0v7 M-2.5,-0.5L0,-3.0L2.5,-0.5"/>
                </g>
                <g id="arrowRight" xlink:href="#dirArrow" transform="rotate(90) translate(36 -43)" onmousedown="handlePan(1,0)">
                  <use xlink:href="#rim" fill="#404040">
                        <set attributeName="fill" to="#808080" begin="arrowRight.mouseover" end="arrowRight.mouseout"/>
                  </use>
                  <path fill="none" stroke="white" stroke-width="1.5" d="M0,-3.0v7 M-2.5,-0.5L0,-3.0L2.5,-0.5"/>
                </g>
                <g id="arrowDown" xlink:href="#dirArrow" transform="rotate(180) translate(-30 -48)" onmousedown="handlePan(0,1)">
                  <use xlink:href="#rim" fill="#404040">
                        <set attributeName="fill" to="#808080" begin="arrowDown.mouseover" end="arrowDown.mouseout"/>
                  </use>
                  <path fill="none" stroke="white" stroke-width="1.5" d="M0,-3.0v7 M-2.5,-0.5L0,-3.0L2.5,-0.5"/>
                </g>
                <g id="arrowLeft" xlink:href="#dirArrow" transform="rotate(270) translate(-36 17)" onmousedown="handlePan(-1,0)">
                  <use xlink:href="#rim" fill="#404040">
                        <set attributeName="fill" to="#808080" begin="arrowLeft.mouseover" end="arrowLeft.mouseout"/>
                  </use>
                  <path fill="none" stroke="white" stroke-width="1.5" d="M0,-3.0v7 M-2.5,-0.5L0,-3.0L2.5,-0.5"/>
                </g>
        </g>
        <svg viewBox="0 0 15 15" width="100%" height="30px" preserveAspectRatio="xMaxYMin meet">
         <g id="arrow_out" transform="scale(0.3 0.3)">
          <a xlink:href="_audio_sample_fifo_queue_vector_8cpp-inc__incl_org.svg" target="_base">
           <rect id="button" ry="5" rx="5" y="6" x="6" height="38" width="38"
                fill="#f2f5e9" fill-opacity="0.5" stroke="#606060" stroke-width="1.0"/>
           <path id="arrow"
             d="M 11.500037,31.436501 C 11.940474,20.09759 22.043105,11.32322 32.158766,21.979434 L 37.068811,17.246167 C 37.068811,17.246167 37.088388,32 37.088388,32 L 22.160133,31.978069 C 22.160133,31.978069 26.997745,27.140456 26.997745,27.140456 C 18.528582,18.264221 13.291696,25.230495 11.500037,31.436501 z"
             style="fill:#404040;"/>
          </a>
         </g>
        </svg>
</svg>
