<?xml version="1.0" encoding="UTF-8" standalone="no"?>
<!DOCTYPE svg PUBLIC "-//W3C//DTD SVG 1.1//EN"
 "http://www.w3.org/Graphics/SVG/1.1/DTD/svg11.dtd">
<!-- Generated by graphviz version 2.47.1 (20210417.1919)
 -->
<!-- Title: AudioSampleFifoQueueVector.cpp Pages: 1 -->
<!--zoomable 644 -->
<svg id="main" version="1.1" xmlns="http://www.w3.org/2000/svg" xmlns:xlink="http://www.w3.org/1999/xlink" xml:space="preserve" onload="init(evt)">
<style type="text/css"><![CDATA[
.edge:hover path { stroke: red; }
.edge:hover polygon { stroke: red; fill: red; }
]]></style>
<script type="text/javascript"><![CDATA[
var edges = document.getElementsByTagName('g');
if (edges && edges.length) {
  for (var i=0;i<edges.length;i++) {
    if (edges[i].id.substr(0,4)=='edge') {
      edges[i].setAttribute('class','edge');
    }
  }
}
]]></script>
        <defs>
                <circle id="rim" cx="0" cy="0" r="7"/>
                <circle id="rim2" cx="0" cy="0" r="3.5"/>
                <g id="zoomPlus">
                        <use xlink:href="#rim" fill="#404040">
                                <set attributeName="fill" to="#808080" begin="zoomplus.mouseover" end="zoomplus.mouseout"/>
                        </use>
                        <path d="M-4,0h8M0,-4v8" fill="none" stroke="white" stroke-width="1.5" pointer-events="none"/>
                </g>
                <g id="zoomMin">
                        <use xlink:href="#rim" fill="#404040">
                                <set attributeName="fill" to="#808080" begin="zoomminus.mouseover" end="zoomminus.mouseout"/>
                        </use>
                        <path d="M-4,0h8" fill="none" stroke="white" stroke-width="1.5" pointer-events="none"/>
                </g>
                <g id="dirArrow">
                        <path fill="none" stroke="white" stroke-width="1.5" d="M0,-3.0v7 M-2.5,-0.5L0,-3.0L2.5,-0.5"/>
                </g>
               <g id="resetDef">
                       <use xlink:href="#rim2" fill="#404040">
                               <set attributeName="fill" to="#808080" begin="reset.mouseover" end="reset.mouseout"/>
                       </use>
               </g>
        </defs>

<script type="text/javascript">
var viewWidth = 871;
var viewHeight = 644;
var sectionId = 'dynsection-0';
</script>
<script xlink:href="svgpan.js"/>
<svg id="graph" class="graph">
<g id="viewport">
<title>AudioSampleFifoQueueVector.cpp</title>
<polygon fill="white" stroke="transparent" points="-4,4 -4,-640 866.52,-640 866.52,4 -4,4"/>
<!-- Node1 -->
<g id="node1" class="node">
<title>Node1</title>
<g id="a_node1"><a xlink:title="The AudioSampleFifoQueueVector body implements a list of fifo queues for audio samples (this is the f...">
<polygon fill="#bfbfbf" stroke="black" points="279,-616.5 279,-635.5 445,-635.5 445,-616.5 279,-616.5"/>
<text text-anchor="middle" x="362" y="-623.5" font-family="Helvetica,sans-Serif" font-size="10.00">AudioSampleFifoQueueVector.cpp</text>
</a>
</g>
</g>
<!-- Node2 -->
<g id="node2" class="node">
<title>Node2</title>
<g id="a_node2"><a xlink:href="_audio_sample_fifo_queue_vector_8h.html" target="_top" xlink:title="The AudioSampleFifoQueueVector specification defines a list of fifo queues for audio samples.">
<polygon fill="white" stroke="black" points="284.5,-560.5 284.5,-579.5 439.5,-579.5 439.5,-560.5 284.5,-560.5"/>
<text text-anchor="middle" x="362" y="-567.5" font-family="Helvetica,sans-Serif" font-size="10.00">AudioSampleFifoQueueVector.h</text>
</a>
</g>
</g>
<!-- Node1&#45;&gt;Node2 -->
<g id="edge1" class="edge">
<title>Node1&#45;&gt;Node2</title>
<path fill="none" stroke="midnightblue" d="M362,-616.08C362,-609.01 362,-598.86 362,-589.99"/>
<polygon fill="midnightblue" stroke="midnightblue" points="365.5,-589.75 362,-579.75 358.5,-589.75 365.5,-589.75"/>
</g>
<!-- Node3 -->
<g id="node3" class="node">
<title>Node3</title>
<g id="a_node3"><a xlink:href="_audio_sample_fifo_queue_8h.html" target="_top" xlink:title="The AudioSampleFifoQueue specification defines a fifo queue for audio samples with popping off access...">
<polygon fill="white" stroke="black" points="456.5,-504.5 456.5,-523.5 583.5,-523.5 583.5,-504.5 456.5,-504.5"/>
<text text-anchor="middle" x="520" y="-511.5" font-family="Helvetica,sans-Serif" font-size="10.00">AudioSampleFifoQueue.h</text>
</a>
</g>
</g>
<!-- Node2&#45;&gt;Node3 -->
<g id="edge2" class="edge">
<title>Node2&#45;&gt;Node3</title>
<path fill="none" stroke="midnightblue" d="M387.04,-560.44C413.62,-551.36 455.81,-536.94 485.52,-526.78"/>
<polygon fill="midnightblue" stroke="midnightblue" points="486.75,-530.06 495.08,-523.52 484.49,-523.44 486.75,-530.06"/>
</g>
<!-- Node32 -->
<g id="node32" class="node">
<title>Node32</title>
<g id="a_node32"><a xlink:href="_audio_sample_list_vector_8h.html" target="_top" xlink:title="The AudioSampleListVector specification defines the communication buffer structure for the block proc...">
<polygon fill="white" stroke="black" points="298.5,-504.5 298.5,-523.5 425.5,-523.5 425.5,-504.5 298.5,-504.5"/>
<text text-anchor="middle" x="362" y="-511.5" font-family="Helvetica,sans-Serif" font-size="10.00">AudioSampleListVector.h</text>
</a>
</g>
</g>
<!-- Node2&#45;&gt;Node32 -->
<g id="edge47" class="edge">
<title>Node2&#45;&gt;Node32</title>
<path fill="none" stroke="midnightblue" d="M362,-560.08C362,-553.01 362,-542.86 362,-533.99"/>
<polygon fill="midnightblue" stroke="midnightblue" points="365.5,-533.75 362,-523.75 358.5,-533.75 365.5,-533.75"/>
</g>
<!-- Node34 -->
<g id="node34" class="node">
<title>Node34</title>
<g id="a_node34"><a xlink:href="_audio_sample_fifo_queue_vector_8cpp-inc.html" target="_top" xlink:title="The AudioSampleFifoQueueVector body implements a list of fifo queues for audio samples (this is the e...">
<polygon fill="white" stroke="black" points="0,-448.5 0,-467.5 182,-467.5 182,-448.5 0,-448.5"/>
<text text-anchor="middle" x="91" y="-455.5" font-family="Helvetica,sans-Serif" font-size="10.00">AudioSampleFifoQueueVector.cpp&#45;inc</text>
</a>
</g>
</g>
<!-- Node2&#45;&gt;Node34 -->
<g id="edge50" class="edge">
<title>Node2&#45;&gt;Node34</title>
<path fill="none" stroke="midnightblue" d="M340.74,-560.37C292.95,-540.97 176.91,-493.87 121.47,-471.37"/>
<polygon fill="midnightblue" stroke="midnightblue" points="122.75,-468.11 112.17,-467.59 120.12,-474.6 122.75,-468.11"/>
</g>
<!-- Node4 -->
<g id="node4" class="node">
<title>Node4</title>
<g id="a_node4"><a xlink:href="_natural_8h.html" target="_top" xlink:title="The Natural specification and body provides a value object type for naturals (positive integers with ...">
<polygon fill="white" stroke="black" points="583,-112.5 583,-131.5 639,-131.5 639,-112.5 583,-112.5"/>
<text text-anchor="middle" x="611" y="-119.5" font-family="Helvetica,sans-Serif" font-size="10.00">Natural.h</text>
</a>
</g>
</g>
<!-- Node3&#45;&gt;Node4 -->
<g id="edge3" class="edge">
<title>Node3&#45;&gt;Node4</title>
<path fill="none" stroke="midnightblue" d="M583.59,-506.61C645.72,-496.44 731,-470.23 731,-403 731,-403 731,-403 731,-345 731,-314.9 724.97,-307.16 712,-280 703.6,-262.42 697.74,-260.25 687,-244 662.95,-207.6 636.07,-164.1 621.61,-140.44"/>
<polygon fill="midnightblue" stroke="midnightblue" points="624.41,-138.31 616.21,-131.59 618.43,-141.95 624.41,-138.31"/>
</g>
<!-- Node12 -->
<g id="node12" class="node">
<title>Node12</title>
<g id="a_node12"><a xlink:href="_audio_sample_list_8h.html" target="_top" xlink:title="The AudioSampleList specification defines lists of audio samples with zero&#45;based arbitrary indexed ac...">
<polygon fill="white" stroke="black" points="543,-448.5 543,-467.5 641,-467.5 641,-448.5 543,-448.5"/>
<text text-anchor="middle" x="592" y="-455.5" font-family="Helvetica,sans-Serif" font-size="10.00">AudioSampleList.h</text>
</a>
</g>
</g>
<!-- Node3&#45;&gt;Node12 -->
<g id="edge12" class="edge">
<title>Node3&#45;&gt;Node12</title>
<path fill="none" stroke="midnightblue" d="M531.57,-504.32C542.42,-496.18 558.88,-483.84 571.88,-474.09"/>
<polygon fill="midnightblue" stroke="midnightblue" points="574.32,-476.63 580.22,-467.83 570.12,-471.03 574.32,-476.63"/>
</g>
<!-- Node20 -->
<g id="node20" class="node">
<title>Node20</title>
<g id="a_node20"><a xlink:href="_audio_sample_fifo_queue_8cpp-inc.html" target="_top" xlink:title="The AudioSampleFifoQueue body implements a fifo queue for audio samples with popping off access to th...">
<polygon fill="white" stroke="black" points="371.5,-448.5 371.5,-467.5 524.5,-467.5 524.5,-448.5 371.5,-448.5"/>
<text text-anchor="middle" x="448" y="-455.5" font-family="Helvetica,sans-Serif" font-size="10.00">AudioSampleFifoQueue.cpp&#45;inc</text>
</a>
</g>
</g>
<!-- Node3&#45;&gt;Node20 -->
<g id="edge25" class="edge">
<title>Node3&#45;&gt;Node20</title>
<path fill="none" stroke="midnightblue" d="M508.43,-504.32C497.58,-496.18 481.12,-483.84 468.12,-474.09"/>
<polygon fill="midnightblue" stroke="midnightblue" points="469.88,-471.03 459.78,-467.83 465.68,-476.63 469.88,-471.03"/>
</g>
<!-- Node5 -->
<g id="node5" class="node">
<title>Node5</title>
<g id="a_node5"><a xlink:title=" ">
<polygon fill="white" stroke="#bfbfbf" points="747,-56.5 747,-75.5 791,-75.5 791,-56.5 747,-56.5"/>
<text text-anchor="middle" x="769" y="-63.5" font-family="Helvetica,sans-Serif" font-size="10.00">cmath</text>
</a>
</g>
</g>
<!-- Node4&#45;&gt;Node5 -->
<g id="edge4" class="edge">
<title>Node4&#45;&gt;Node5</title>
<path fill="none" stroke="midnightblue" d="M636.04,-112.44C663.48,-103.07 707.56,-88 737.37,-77.81"/>
<polygon fill="midnightblue" stroke="midnightblue" points="738.56,-81.1 746.89,-74.56 736.29,-74.48 738.56,-81.1"/>
</g>
<!-- Node6 -->
<g id="node6" class="node">
<title>Node6</title>
<g id="a_node6"><a xlink:href="_assertion_8h.html" target="_top" xlink:title="The Assertion specification defines macros for pre&#45; and postconditions in functions or methods.">
<polygon fill="white" stroke="black" points="406,-56.5 406,-75.5 472,-75.5 472,-56.5 406,-56.5"/>
<text text-anchor="middle" x="439" y="-63.5" font-family="Helvetica,sans-Serif" font-size="10.00">Assertion.h</text>
</a>
</g>
</g>
<!-- Node4&#45;&gt;Node6 -->
<g id="edge5" class="edge">
<title>Node4&#45;&gt;Node6</title>
<path fill="none" stroke="midnightblue" d="M583.75,-112.44C554.56,-103.28 508.08,-88.69 475.69,-78.52"/>
<polygon fill="midnightblue" stroke="midnightblue" points="476.72,-75.17 466.13,-75.52 474.62,-81.85 476.72,-75.17"/>
</g>
<!-- Node9 -->
<g id="node9" class="node">
<title>Node9</title>
<g id="a_node9"><a xlink:title=" ">
<polygon fill="white" stroke="#bfbfbf" points="565,-56.5 565,-75.5 657,-75.5 657,-56.5 565,-56.5"/>
<text text-anchor="middle" x="611" y="-63.5" font-family="Helvetica,sans-Serif" font-size="10.00">GenericNumber.h</text>
</a>
</g>
</g>
<!-- Node4&#45;&gt;Node9 -->
<g id="edge8" class="edge">
<title>Node4&#45;&gt;Node9</title>
<path fill="none" stroke="midnightblue" d="M611,-112.08C611,-105.01 611,-94.86 611,-85.99"/>
<polygon fill="midnightblue" stroke="midnightblue" points="614.5,-85.75 611,-75.75 607.5,-85.75 614.5,-85.75"/>
</g>
<!-- Node10 -->
<g id="node10" class="node">
<title>Node10</title>
<g id="a_node10"><a xlink:href="_my_string_8h.html" target="_top" xlink:title="The String specification defines a standard string type.">
<polygon fill="white" stroke="black" points="324,-56.5 324,-75.5 388,-75.5 388,-56.5 324,-56.5"/>
<text text-anchor="middle" x="356" y="-63.5" font-family="Helvetica,sans-Serif" font-size="10.00">MyString.h</text>
</a>
</g>
</g>
<!-- Node4&#45;&gt;Node10 -->
<g id="edge9" class="edge">
<title>Node4&#45;&gt;Node10</title>
<path fill="none" stroke="midnightblue" d="M582.94,-115.18C543.87,-107.06 470.6,-91.77 398.4,-76.29"/>
<polygon fill="midnightblue" stroke="midnightblue" points="398.74,-72.78 388.22,-74.1 397.27,-79.62 398.74,-72.78"/>
</g>
<!-- Node7 -->
<g id="node7" class="node">
<title>Node7</title>
<g id="a_node7"><a xlink:title=" ">
<polygon fill="white" stroke="#bfbfbf" points="608.5,-0.5 608.5,-19.5 667.5,-19.5 667.5,-0.5 608.5,-0.5"/>
<text text-anchor="middle" x="638" y="-7.5" font-family="Helvetica,sans-Serif" font-size="10.00">stdexcept</text>
</a>
</g>
</g>
<!-- Node6&#45;&gt;Node7 -->
<g id="edge6" class="edge">
<title>Node6&#45;&gt;Node7</title>
<path fill="none" stroke="midnightblue" d="M470.53,-56.44C505.09,-47.07 560.61,-32 598.16,-21.81"/>
<polygon fill="midnightblue" stroke="midnightblue" points="599.51,-25.07 608.24,-19.08 597.67,-18.32 599.51,-25.07"/>
</g>
<!-- Node8 -->
<g id="node8" class="node">
<title>Node8</title>
<g id="a_node8"><a xlink:title=" ">
<polygon fill="white" stroke="#bfbfbf" points="417.5,-0.5 417.5,-19.5 458.5,-19.5 458.5,-0.5 417.5,-0.5"/>
<text text-anchor="middle" x="438" y="-7.5" font-family="Helvetica,sans-Serif" font-size="10.00">string</text>
</a>
</g>
</g>
<!-- Node6&#45;&gt;Node8 -->
<g id="edge7" class="edge">
<title>Node6&#45;&gt;Node8</title>
<path fill="none" stroke="midnightblue" d="M438.83,-56.08C438.7,-49.01 438.52,-38.86 438.35,-29.99"/>
<polygon fill="midnightblue" stroke="midnightblue" points="441.85,-29.68 438.16,-19.75 434.85,-29.81 441.85,-29.68"/>
</g>
<!-- Node10&#45;&gt;Node8 -->
<g id="edge10" class="edge">
<title>Node10&#45;&gt;Node8</title>
<path fill="none" stroke="midnightblue" d="M369.17,-56.32C381.85,-47.98 401.23,-35.21 416.21,-25.35"/>
<polygon fill="midnightblue" stroke="midnightblue" points="418.43,-28.08 424.86,-19.65 414.58,-22.23 418.43,-28.08"/>
</g>
<!-- Node11 -->
<g id="node11" class="node">
<title>Node11</title>
<g id="a_node11"><a xlink:href="_global_macros_8h.html" target="_top" xlink:title="The GlobalMacros specification defines simple macros (e.g. for parameter modes).">
<polygon fill="white" stroke="black" points="313.5,-0.5 313.5,-19.5 398.5,-19.5 398.5,-0.5 313.5,-0.5"/>
<text text-anchor="middle" x="356" y="-7.5" font-family="Helvetica,sans-Serif" font-size="10.00">GlobalMacros.h</text>
</a>
</g>
</g>
<!-- Node10&#45;&gt;Node11 -->
<g id="edge11" class="edge">
<title>Node10&#45;&gt;Node11</title>
<path fill="none" stroke="midnightblue" d="M356,-56.08C356,-49.01 356,-38.86 356,-29.99"/>
<polygon fill="midnightblue" stroke="midnightblue" points="359.5,-29.75 356,-19.75 352.5,-29.75 359.5,-29.75"/>
</g>
<!-- Node13 -->
<g id="node13" class="node">
<title>Node13</title>
<g id="a_node13"><a xlink:title=" ">
<polygon fill="white" stroke="#bfbfbf" points="367,-224.5 367,-243.5 441,-243.5 441,-224.5 367,-224.5"/>
<text text-anchor="middle" x="404" y="-231.5" font-family="Helvetica,sans-Serif" font-size="10.00">GenericList.h</text>
</a>
</g>
</g>
<!-- Node12&#45;&gt;Node13 -->
<g id="edge13" class="edge">
<title>Node12&#45;&gt;Node13</title>
<path fill="none" stroke="midnightblue" d="M543.09,-448.42C494.8,-436.92 424.36,-411.16 397,-356 380.55,-322.83 390.02,-278.09 397.55,-253.36"/>
<polygon fill="midnightblue" stroke="midnightblue" points="400.9,-254.39 400.68,-243.8 394.24,-252.22 400.9,-254.39"/>
</g>
<!-- Node14 -->
<g id="node14" class="node">
<title>Node14</title>
<g id="a_node14"><a xlink:href="_audio_sample_8h.html" target="_top" xlink:title="The AudioSample specification and body provides the definition of the audio sample (a real value).">
<polygon fill="white" stroke="black" points="619.5,-392.5 619.5,-411.5 702.5,-411.5 702.5,-392.5 619.5,-392.5"/>
<text text-anchor="middle" x="661" y="-399.5" font-family="Helvetica,sans-Serif" font-size="10.00">AudioSample.h</text>
</a>
</g>
</g>
<!-- Node12&#45;&gt;Node14 -->
<g id="edge14" class="edge">
<title>Node12&#45;&gt;Node14</title>
<path fill="none" stroke="midnightblue" d="M603.09,-448.32C613.49,-440.18 629.26,-427.84 641.72,-418.09"/>
<polygon fill="midnightblue" stroke="midnightblue" points="643.99,-420.75 649.71,-411.83 639.68,-415.24 643.99,-420.75"/>
</g>
<!-- Node17 -->
<g id="node17" class="node">
<title>Node17</title>
<g id="a_node17"><a xlink:href="_audio_sample_list_8cpp-inc.html" target="_top" xlink:title="The AudioSampleList body implements a simple list of audio samples (this is the effective code includ...">
<polygon fill="white" stroke="black" points="476.5,-392.5 476.5,-411.5 601.5,-411.5 601.5,-392.5 476.5,-392.5"/>
<text text-anchor="middle" x="539" y="-399.5" font-family="Helvetica,sans-Serif" font-size="10.00">AudioSampleList.cpp&#45;inc</text>
</a>
</g>
</g>
<!-- Node12&#45;&gt;Node17 -->
<g id="edge21" class="edge">
<title>Node12&#45;&gt;Node17</title>
<path fill="none" stroke="midnightblue" d="M583.25,-448.08C575.53,-440.22 564.1,-428.57 554.78,-419.08"/>
<polygon fill="midnightblue" stroke="midnightblue" points="557.09,-416.44 547.59,-411.75 552.1,-421.34 557.09,-416.44"/>
</g>
<!-- Node15 -->
<g id="node15" class="node">
<title>Node15</title>
<g id="a_node15"><a xlink:href="_real_8h.html" target="_top" xlink:title="The Real specification defines a value object type for real values.">
<polygon fill="white" stroke="black" points="792,-224.5 792,-243.5 836,-243.5 836,-224.5 792,-224.5"/>
<text text-anchor="middle" x="814" y="-231.5" font-family="Helvetica,sans-Serif" font-size="10.00">Real.h</text>
</a>
</g>
</g>
<!-- Node14&#45;&gt;Node15 -->
<g id="edge15" class="edge">
<title>Node14&#45;&gt;Node15</title>
<path fill="none" stroke="midnightblue" d="M669.23,-392.08C693.83,-365.38 767.12,-285.87 798.96,-251.32"/>
<polygon fill="midnightblue" stroke="midnightblue" points="801.9,-253.29 806.1,-243.57 796.75,-248.55 801.9,-253.29"/>
</g>
<!-- Node15&#45;&gt;Node5 -->
<g id="edge16" class="edge">
<title>Node15&#45;&gt;Node5</title>
<path fill="none" stroke="midnightblue" d="M827.79,-224.19C838.83,-216.24 853.5,-203.45 860,-188 863.45,-179.81 863.17,-176.31 860,-168 845.96,-131.21 811.57,-99.47 789.31,-81.83"/>
<polygon fill="midnightblue" stroke="midnightblue" points="791.23,-78.89 781.17,-75.57 786.97,-84.44 791.23,-78.89"/>
</g>
<!-- Node16 -->
<g id="node16" class="node">
<title>Node16</title>
<g id="a_node16"><a xlink:href="_integer_8h.html" target="_top" xlink:title="The Integer specification and body provides a value object type for ints.">
<polygon fill="white" stroke="black" points="797,-168.5 797,-187.5 851,-187.5 851,-168.5 797,-168.5"/>
<text text-anchor="middle" x="824" y="-175.5" font-family="Helvetica,sans-Serif" font-size="10.00">Integer.h</text>
</a>
</g>
</g>
<!-- Node15&#45;&gt;Node16 -->
<g id="edge17" class="edge">
<title>Node15&#45;&gt;Node16</title>
<path fill="none" stroke="midnightblue" d="M815.65,-224.08C816.98,-216.93 818.88,-206.64 820.54,-197.69"/>
<polygon fill="midnightblue" stroke="midnightblue" points="824,-198.22 822.38,-187.75 817.12,-196.95 824,-198.22"/>
</g>
<!-- Node16&#45;&gt;Node4 -->
<g id="edge20" class="edge">
<title>Node16&#45;&gt;Node4</title>
<path fill="none" stroke="midnightblue" d="M796.59,-170.05C759.12,-160.55 691.72,-143.46 649.28,-132.7"/>
<polygon fill="midnightblue" stroke="midnightblue" points="649.88,-129.25 639.32,-130.18 648.15,-136.03 649.88,-129.25"/>
</g>
<!-- Node16&#45;&gt;Node5 -->
<g id="edge18" class="edge">
<title>Node16&#45;&gt;Node5</title>
<path fill="none" stroke="midnightblue" d="M819.68,-168.37C810.69,-150.38 789.78,-108.55 777.81,-84.63"/>
<polygon fill="midnightblue" stroke="midnightblue" points="780.9,-82.97 773.3,-75.59 774.64,-86.1 780.9,-82.97"/>
</g>
<!-- Node16&#45;&gt;Node7 -->
<g id="edge19" class="edge">
<title>Node16&#45;&gt;Node7</title>
<path fill="none" stroke="midnightblue" d="M825.08,-168.34C827.29,-146.42 829.86,-88.19 800,-56 768.83,-22.4 714.96,-13.09 677.96,-10.91"/>
<polygon fill="midnightblue" stroke="midnightblue" points="677.68,-7.39 667.53,-10.46 677.37,-14.39 677.68,-7.39"/>
</g>
<!-- Node18 -->
<g id="node18" class="node">
<title>Node18</title>
<g id="a_node18"><a xlink:href="_my_array_8h.html" target="_top" xlink:title="The MyArray specification and body defines a generic array type for stack allocated arrays represente...">
<polygon fill="white" stroke="black" points="553,-336.5 553,-355.5 615,-355.5 615,-336.5 553,-336.5"/>
<text text-anchor="middle" x="584" y="-343.5" font-family="Helvetica,sans-Serif" font-size="10.00">MyArray.h</text>
</a>
</g>
</g>
<!-- Node17&#45;&gt;Node18 -->
<g id="edge22" class="edge">
<title>Node17&#45;&gt;Node18</title>
<path fill="none" stroke="midnightblue" d="M546.43,-392.08C552.85,-384.38 562.31,-373.03 570.12,-363.65"/>
<polygon fill="midnightblue" stroke="midnightblue" points="572.99,-365.67 576.71,-355.75 567.62,-361.19 572.99,-365.67"/>
</g>
<!-- Node18&#45;&gt;Node4 -->
<g id="edge24" class="edge">
<title>Node18&#45;&gt;Node4</title>
<path fill="none" stroke="midnightblue" d="M590.87,-336.31C597.24,-327.68 606.27,-313.76 610,-300 625.18,-244.02 618.52,-174.37 613.97,-141.64"/>
<polygon fill="midnightblue" stroke="midnightblue" points="617.42,-141.06 612.49,-131.68 610.5,-142.09 617.42,-141.06"/>
</g>
<!-- Node19 -->
<g id="node19" class="node">
<title>Node19</title>
<g id="a_node19"><a xlink:title=" ">
<polygon fill="white" stroke="#bfbfbf" points="657,-280.5 657,-299.5 703,-299.5 703,-280.5 657,-280.5"/>
<text text-anchor="middle" x="680" y="-287.5" font-family="Helvetica,sans-Serif" font-size="10.00">cstring</text>
</a>
</g>
</g>
<!-- Node18&#45;&gt;Node19 -->
<g id="edge23" class="edge">
<title>Node18&#45;&gt;Node19</title>
<path fill="none" stroke="midnightblue" d="M599.42,-336.32C614.54,-327.82 637.82,-314.73 655.47,-304.8"/>
<polygon fill="midnightblue" stroke="midnightblue" points="657.61,-307.61 664.61,-299.65 654.18,-301.51 657.61,-307.61"/>
</g>
<!-- Node20&#45;&gt;Node6 -->
<g id="edge26" class="edge">
<title>Node20&#45;&gt;Node6</title>
<path fill="none" stroke="midnightblue" d="M428.76,-448.42C397.47,-432.99 339,-397.41 339,-347 339,-347 339,-347 339,-177 339,-132.98 383.38,-98.8 413.01,-80.87"/>
<polygon fill="midnightblue" stroke="midnightblue" points="415.14,-83.68 422.04,-75.64 411.63,-77.63 415.14,-83.68"/>
</g>
<!-- Node20&#45;&gt;Node18 -->
<g id="edge46" class="edge">
<title>Node20&#45;&gt;Node18</title>
<path fill="none" stroke="midnightblue" d="M448.34,-448.24C449.34,-434.52 453.2,-407.9 468,-392 487.6,-370.95 518.19,-359.62 543.04,-353.6"/>
<polygon fill="midnightblue" stroke="midnightblue" points="543.94,-356.98 552.94,-351.4 542.42,-350.15 543.94,-356.98"/>
</g>
<!-- Node21 -->
<g id="node21" class="node">
<title>Node21</title>
<g id="a_node21"><a xlink:href="_logging_8h.html" target="_top" xlink:title="The Logging specification defines macros for entry&#45;, exit&#45; and intermediate logging of functions into...">
<polygon fill="white" stroke="black" points="251.5,-392.5 251.5,-411.5 310.5,-411.5 310.5,-392.5 251.5,-392.5"/>
<text text-anchor="middle" x="281" y="-399.5" font-family="Helvetica,sans-Serif" font-size="10.00">Logging.h</text>
</a>
</g>
</g>
<!-- Node20&#45;&gt;Node21 -->
<g id="edge27" class="edge">
<title>Node20&#45;&gt;Node21</title>
<path fill="none" stroke="midnightblue" d="M421.54,-448.44C393.32,-439.32 348.46,-424.81 317.03,-414.65"/>
<polygon fill="midnightblue" stroke="midnightblue" points="317.93,-411.26 307.34,-411.52 315.78,-417.92 317.93,-411.26"/>
</g>
<!-- Node22 -->
<g id="node22" class="node">
<title>Node22</title>
<g id="a_node22"><a xlink:title=" ">
<polygon fill="white" stroke="#bfbfbf" points="261.5,-336.5 261.5,-355.5 310.5,-355.5 310.5,-336.5 261.5,-336.5"/>
<text text-anchor="middle" x="286" y="-343.5" font-family="Helvetica,sans-Serif" font-size="10.00">cstdarg</text>
</a>
</g>
</g>
<!-- Node21&#45;&gt;Node22 -->
<g id="edge28" class="edge">
<title>Node21&#45;&gt;Node22</title>
<path fill="none" stroke="midnightblue" d="M281.83,-392.08C282.48,-385.01 283.42,-374.86 284.24,-365.99"/>
<polygon fill="midnightblue" stroke="midnightblue" points="287.75,-366.03 285.19,-355.75 280.78,-365.39 287.75,-366.03"/>
</g>
<!-- Node23 -->
<g id="node23" class="node">
<title>Node23</title>
<g id="a_node23"><a xlink:href="_logging_support_8h.html" target="_top" xlink:title="The LoggingSupport specification defines a class for simple entry/exit logging to a file or via an ar...">
<polygon fill="white" stroke="black" points="151,-336.5 151,-355.5 243,-355.5 243,-336.5 151,-336.5"/>
<text text-anchor="middle" x="197" y="-343.5" font-family="Helvetica,sans-Serif" font-size="10.00">LoggingSupport.h</text>
</a>
</g>
</g>
<!-- Node21&#45;&gt;Node23 -->
<g id="edge29" class="edge">
<title>Node21&#45;&gt;Node23</title>
<path fill="none" stroke="midnightblue" d="M267.5,-392.32C254.4,-383.9 234.29,-370.97 218.89,-361.07"/>
<polygon fill="midnightblue" stroke="midnightblue" points="220.77,-358.12 210.46,-355.65 216.98,-364.01 220.77,-358.12"/>
</g>
<!-- Node25 -->
<g id="node25" class="node">
<title>Node25</title>
<g id="a_node25"><a xlink:href="_string_util_8h.html" target="_top" xlink:title="The StringUtil specification defines several string routines not included in the standard C++ library...">
<polygon fill="white" stroke="black" points="405.5,-336.5 405.5,-355.5 470.5,-355.5 470.5,-336.5 405.5,-336.5"/>
<text text-anchor="middle" x="438" y="-343.5" font-family="Helvetica,sans-Serif" font-size="10.00">StringUtil.h</text>
</a>
</g>
</g>
<!-- Node21&#45;&gt;Node25 -->
<g id="edge33" class="edge">
<title>Node21&#45;&gt;Node25</title>
<path fill="none" stroke="midnightblue" d="M305.88,-392.44C332.29,-383.36 374.22,-368.94 403.74,-358.78"/>
<polygon fill="midnightblue" stroke="midnightblue" points="404.92,-362.08 413.24,-355.52 402.64,-355.46 404.92,-362.08"/>
</g>
<!-- Node23&#45;&gt;Node4 -->
<g id="edge32" class="edge">
<title>Node23&#45;&gt;Node4</title>
<path fill="none" stroke="midnightblue" d="M201.12,-336.36C207.96,-322.81 222.81,-296.41 242,-280 343.87,-192.88 501.22,-148 572.99,-131.1"/>
<polygon fill="midnightblue" stroke="midnightblue" points="573.98,-134.46 582.94,-128.81 572.41,-127.64 573.98,-134.46"/>
</g>
<!-- Node24 -->
<g id="node24" class="node">
<title>Node24</title>
<g id="a_node24"><a xlink:href="_boolean_8h.html" target="_top" xlink:title="The Boolean specification and body provides a value object type for boolean values.">
<polygon fill="white" stroke="black" points="251,-280.5 251,-299.5 311,-299.5 311,-280.5 251,-280.5"/>
<text text-anchor="middle" x="281" y="-287.5" font-family="Helvetica,sans-Serif" font-size="10.00">Boolean.h</text>
</a>
</g>
</g>
<!-- Node23&#45;&gt;Node24 -->
<g id="edge30" class="edge">
<title>Node23&#45;&gt;Node24</title>
<path fill="none" stroke="midnightblue" d="M210.5,-336.32C223.6,-327.9 243.71,-314.97 259.11,-305.07"/>
<polygon fill="midnightblue" stroke="midnightblue" points="261.02,-308.01 267.54,-299.65 257.23,-302.12 261.02,-308.01"/>
</g>
<!-- Node24&#45;&gt;Node10 -->
<g id="edge31" class="edge">
<title>Node24&#45;&gt;Node10</title>
<path fill="none" stroke="midnightblue" d="M282.06,-280.16C285.46,-253.66 297.55,-172.91 325,-112 329.52,-101.96 336.31,-91.78 342.39,-83.65"/>
<polygon fill="midnightblue" stroke="midnightblue" points="345.17,-85.77 348.56,-75.73 339.65,-81.47 345.17,-85.77"/>
</g>
<!-- Node25&#45;&gt;Node24 -->
<g id="edge34" class="edge">
<title>Node25&#45;&gt;Node24</title>
<path fill="none" stroke="midnightblue" d="M413.12,-336.44C386.71,-327.36 344.78,-312.94 315.26,-302.78"/>
<polygon fill="midnightblue" stroke="midnightblue" points="316.36,-299.46 305.76,-299.52 314.08,-306.08 316.36,-299.46"/>
</g>
<!-- Node26 -->
<g id="node26" class="node">
<title>Node26</title>
<g id="a_node26"><a xlink:href="_character_8h.html" target="_top" xlink:title="The Character specification and body provides a value object type for character values.">
<polygon fill="white" stroke="black" points="695.5,-224.5 695.5,-243.5 762.5,-243.5 762.5,-224.5 695.5,-224.5"/>
<text text-anchor="middle" x="729" y="-231.5" font-family="Helvetica,sans-Serif" font-size="10.00">Character.h</text>
</a>
</g>
</g>
<!-- Node25&#45;&gt;Node26 -->
<g id="edge35" class="edge">
<title>Node25&#45;&gt;Node26</title>
<path fill="none" stroke="midnightblue" d="M445.94,-336.3C459.35,-322.17 487.97,-294.36 518,-280 572.12,-254.11 641.11,-243 685.18,-238.31"/>
<polygon fill="midnightblue" stroke="midnightblue" points="685.67,-241.78 695.28,-237.3 684.98,-234.82 685.67,-241.78"/>
</g>
<!-- Node29 -->
<g id="node29" class="node">
<title>Node29</title>
<g id="a_node29"><a xlink:href="_percentage_8h.html" target="_top" xlink:title="The Percentage specification and body provides a simple percentage type.">
<polygon fill="white" stroke="black" points="527,-280.5 527,-299.5 601,-299.5 601,-280.5 527,-280.5"/>
<text text-anchor="middle" x="564" y="-287.5" font-family="Helvetica,sans-Serif" font-size="10.00">Percentage.h</text>
</a>
</g>
</g>
<!-- Node25&#45;&gt;Node29 -->
<g id="edge41" class="edge">
<title>Node25&#45;&gt;Node29</title>
<path fill="none" stroke="midnightblue" d="M457.97,-336.44C478.61,-327.6 511.06,-313.69 534.63,-303.59"/>
<polygon fill="midnightblue" stroke="midnightblue" points="536.32,-306.67 544.13,-299.52 533.56,-300.24 536.32,-306.67"/>
</g>
<!-- Node30 -->
<g id="node30" class="node">
<title>Node30</title>
<g id="a_node30"><a xlink:href="_string_list_8h.html" target="_top" xlink:title="The StringList specification defines lists of string values with zero&#45;based arbitrary indexed access ...">
<polygon fill="white" stroke="black" points="405,-280.5 405,-299.5 471,-299.5 471,-280.5 405,-280.5"/>
<text text-anchor="middle" x="438" y="-287.5" font-family="Helvetica,sans-Serif" font-size="10.00">StringList.h</text>
</a>
</g>
</g>
<!-- Node25&#45;&gt;Node30 -->
<g id="edge43" class="edge">
<title>Node25&#45;&gt;Node30</title>
<path fill="none" stroke="midnightblue" d="M438,-336.08C438,-329.01 438,-318.86 438,-309.99"/>
<polygon fill="midnightblue" stroke="midnightblue" points="441.5,-309.75 438,-299.75 434.5,-309.75 441.5,-309.75"/>
</g>
<!-- Node26&#45;&gt;Node5 -->
<g id="edge36" class="edge">
<title>Node26&#45;&gt;Node5</title>
<path fill="none" stroke="midnightblue" d="M733.95,-224.33C738.78,-215.47 745.97,-201.19 750,-188 760.72,-152.87 765.62,-110.06 767.68,-85.93"/>
<polygon fill="midnightblue" stroke="midnightblue" points="771.19,-85.94 768.47,-75.69 764.21,-85.39 771.19,-85.94"/>
</g>
<!-- Node27 -->
<g id="node27" class="node">
<title>Node27</title>
<g id="a_node27"><a xlink:href="_byte_8h.html" target="_top" xlink:title="The Byte specification and body provides a value object type for byte values.">
<polygon fill="white" stroke="black" points="695.5,-168.5 695.5,-187.5 740.5,-187.5 740.5,-168.5 695.5,-168.5"/>
<text text-anchor="middle" x="718" y="-175.5" font-family="Helvetica,sans-Serif" font-size="10.00">Byte.h</text>
</a>
</g>
</g>
<!-- Node26&#45;&gt;Node27 -->
<g id="edge37" class="edge">
<title>Node26&#45;&gt;Node27</title>
<path fill="none" stroke="midnightblue" d="M727.18,-224.08C725.73,-216.93 723.63,-206.64 721.81,-197.69"/>
<polygon fill="midnightblue" stroke="midnightblue" points="725.21,-196.85 719.78,-187.75 718.35,-198.25 725.21,-196.85"/>
</g>
<!-- Node27&#45;&gt;Node4 -->
<g id="edge40" class="edge">
<title>Node27&#45;&gt;Node4</title>
<path fill="none" stroke="midnightblue" d="M700.81,-168.32C683.65,-159.66 657.05,-146.24 637.25,-136.25"/>
<polygon fill="midnightblue" stroke="midnightblue" points="638.65,-133.04 628.15,-131.65 635.5,-139.28 638.65,-133.04"/>
</g>
<!-- Node27&#45;&gt;Node5 -->
<g id="edge38" class="edge">
<title>Node27&#45;&gt;Node5</title>
<path fill="none" stroke="midnightblue" d="M722,-168.37C730.31,-150.46 749.56,-108.92 760.68,-84.95"/>
<polygon fill="midnightblue" stroke="midnightblue" points="763.99,-86.14 765.02,-75.59 757.64,-83.19 763.99,-86.14"/>
</g>
<!-- Node28 -->
<g id="node28" class="node">
<title>Node28</title>
<g id="a_node28"><a xlink:title=" ">
<polygon fill="white" stroke="#bfbfbf" points="657,-112.5 657,-131.5 703,-131.5 703,-112.5 657,-112.5"/>
<text text-anchor="middle" x="680" y="-119.5" font-family="Helvetica,sans-Serif" font-size="10.00">cstdint</text>
</a>
</g>
</g>
<!-- Node27&#45;&gt;Node28 -->
<g id="edge39" class="edge">
<title>Node27&#45;&gt;Node28</title>
<path fill="none" stroke="midnightblue" d="M711.73,-168.08C706.36,-160.46 698.48,-149.26 691.92,-139.94"/>
<polygon fill="midnightblue" stroke="midnightblue" points="694.78,-137.91 686.16,-131.75 689.05,-141.94 694.78,-137.91"/>
</g>
<!-- Node29&#45;&gt;Node15 -->
<g id="edge42" class="edge">
<title>Node29&#45;&gt;Node15</title>
<path fill="none" stroke="midnightblue" d="M601.16,-280.97C650.22,-270.38 735.8,-251.89 782.09,-241.89"/>
<polygon fill="midnightblue" stroke="midnightblue" points="782.85,-245.31 791.88,-239.78 781.37,-238.47 782.85,-245.31"/>
</g>
<!-- Node30&#45;&gt;Node13 -->
<g id="edge45" class="edge">
<title>Node30&#45;&gt;Node13</title>
<path fill="none" stroke="midnightblue" d="M432.39,-280.08C427.63,-272.53 420.68,-261.49 414.85,-252.23"/>
<polygon fill="midnightblue" stroke="midnightblue" points="417.8,-250.35 409.51,-243.75 411.88,-254.08 417.8,-250.35"/>
</g>
<!-- Node31 -->
<g id="node31" class="node">
<title>Node31</title>
<g id="a_node31"><a xlink:title=" ">
<polygon fill="white" stroke="#bfbfbf" points="459.5,-224.5 459.5,-243.5 532.5,-243.5 532.5,-224.5 459.5,-224.5"/>
<text text-anchor="middle" x="496" y="-231.5" font-family="Helvetica,sans-Serif" font-size="10.00">initializer_list</text>
</a>
</g>
</g>
<!-- Node30&#45;&gt;Node31 -->
<g id="edge44" class="edge">
<title>Node30&#45;&gt;Node31</title>
<path fill="none" stroke="midnightblue" d="M447.32,-280.32C455.89,-272.34 468.81,-260.31 479.19,-250.65"/>
<polygon fill="midnightblue" stroke="midnightblue" points="481.58,-253.21 486.51,-243.83 476.81,-248.09 481.58,-253.21"/>
</g>
<!-- Node32&#45;&gt;Node12 -->
<g id="edge48" class="edge">
<title>Node32&#45;&gt;Node12</title>
<path fill="none" stroke="midnightblue" d="M398.44,-504.44C438.4,-495.06 502.59,-479.99 545.98,-469.8"/>
<polygon fill="midnightblue" stroke="midnightblue" points="546.79,-473.21 555.73,-467.52 545.19,-466.39 546.79,-473.21"/>
</g>
<!-- Node33 -->
<g id="node33" class="node">
<title>Node33</title>
<g id="a_node33"><a xlink:href="_audio_sample_list_vector_8cpp-inc.html" target="_top" xlink:title="The AudioSampleListVector body implements the communication buffer structure for the block processing...">
<polygon fill="white" stroke="black" points="200.5,-448.5 200.5,-467.5 353.5,-467.5 353.5,-448.5 200.5,-448.5"/>
<text text-anchor="middle" x="277" y="-455.5" font-family="Helvetica,sans-Serif" font-size="10.00">AudioSampleListVector.cpp&#45;inc</text>
</a>
</g>
</g>
<!-- Node32&#45;&gt;Node33 -->
<g id="edge49" class="edge">
<title>Node32&#45;&gt;Node33</title>
<path fill="none" stroke="midnightblue" d="M348.34,-504.32C335.08,-495.9 314.73,-482.97 299.15,-473.07"/>
<polygon fill="midnightblue" stroke="midnightblue" points="300.94,-470.06 290.62,-467.65 297.19,-475.97 300.94,-470.06"/>
</g>
<!-- Node34&#45;&gt;Node6 -->
<g id="edge51" class="edge">
<title>Node34&#45;&gt;Node6</title>
<path fill="none" stroke="midnightblue" d="M93.16,-448.22C97.53,-429.66 107,-385.02 107,-347 107,-347 107,-347 107,-177 107,-146.89 306.32,-97.4 396.08,-76.64"/>
<polygon fill="midnightblue" stroke="midnightblue" points="396.99,-80.02 405.95,-74.37 395.42,-73.2 396.99,-80.02"/>
</g>
<!-- Node34&#45;&gt;Node21 -->
<g id="edge52" class="edge">
<title>Node34&#45;&gt;Node21</title>
<path fill="none" stroke="midnightblue" d="M121.11,-448.44C153.72,-439.17 205.88,-424.35 241.71,-414.17"/>
<polygon fill="midnightblue" stroke="midnightblue" points="242.69,-417.53 251.35,-411.43 240.77,-410.79 242.69,-417.53"/>
</g>
</g>
</svg>
        <g id="navigator" transform="translate(0 0)" fill="#404254">
                <rect fill="#f2f5e9" fill-opacity="0.5" stroke="#606060" stroke-width=".5" x="0" y="0" width="60" height="60"/>
                <use id="zoomplus" xlink:href="#zoomPlus" x="17" y="9" onmousedown="handleZoom(evt,'in')"/>
                <use id="zoomminus" xlink:href="#zoomMin" x="42" y="9" onmousedown="handleZoom(evt,'out')"/>
                <use id="reset" xlink:href="#resetDef" x="30" y="36" onmousedown="handleReset()"/>
                <g id="arrowUp" xlink:href="#dirArrow" transform="translate(30 24)" onmousedown="handlePan(0,-1)">
                  <use xlink:href="#rim" fill="#404040">
                        <set attributeName="fill" to="#808080" begin="arrowUp.mouseover" end="arrowUp.mouseout"/>
                  </use>
                  <path fill="none" stroke="white" stroke-width="1.5" d="M0,-3.0v7 M-2.5,-0.5L0,-3.0L2.5,-0.5"/>
                </g>
                <g id="arrowRight" xlink:href="#dirArrow" transform="rotate(90) translate(36 -43)" onmousedown="handlePan(1,0)">
                  <use xlink:href="#rim" fill="#404040">
                        <set attributeName="fill" to="#808080" begin="arrowRight.mouseover" end="arrowRight.mouseout"/>
                  </use>
                  <path fill="none" stroke="white" stroke-width="1.5" d="M0,-3.0v7 M-2.5,-0.5L0,-3.0L2.5,-0.5"/>
                </g>
                <g id="arrowDown" xlink:href="#dirArrow" transform="rotate(180) translate(-30 -48)" onmousedown="handlePan(0,1)">
                  <use xlink:href="#rim" fill="#404040">
                        <set attributeName="fill" to="#808080" begin="arrowDown.mouseover" end="arrowDown.mouseout"/>
                  </use>
                  <path fill="none" stroke="white" stroke-width="1.5" d="M0,-3.0v7 M-2.5,-0.5L0,-3.0L2.5,-0.5"/>
                </g>
                <g id="arrowLeft" xlink:href="#dirArrow" transform="rotate(270) translate(-36 17)" onmousedown="handlePan(-1,0)">
                  <use xlink:href="#rim" fill="#404040">
                        <set attributeName="fill" to="#808080" begin="arrowLeft.mouseover" end="arrowLeft.mouseout"/>
                  </use>
                  <path fill="none" stroke="white" stroke-width="1.5" d="M0,-3.0v7 M-2.5,-0.5L0,-3.0L2.5,-0.5"/>
                </g>
        </g>
        <svg viewBox="0 0 15 15" width="100%" height="30px" preserveAspectRatio="xMaxYMin meet">
         <g id="arrow_out" transform="scale(0.3 0.3)">
          <a xlink:href="_audio_sample_fifo_queue_vector_8cpp__incl_org.svg" target="_base">
           <rect id="button" ry="5" rx="5" y="6" x="6" height="38" width="38"
                fill="#f2f5e9" fill-opacity="0.5" stroke="#606060" stroke-width="1.0"/>
           <path id="arrow"
             d="M 11.500037,31.436501 C 11.940474,20.09759 22.043105,11.32322 32.158766,21.979434 L 37.068811,17.246167 C 37.068811,17.246167 37.088388,32 37.088388,32 L 22.160133,31.978069 C 22.160133,31.978069 26.997745,27.140456 26.997745,27.140456 C 18.528582,18.264221 13.291696,25.230495 11.500037,31.436501 z"
             style="fill:#404040;"/>
          </a>
         </g>
        </svg>
</svg>
