<?xml version="1.0" encoding="UTF-8" standalone="no"?>
<!DOCTYPE svg PUBLIC "-//W3C//DTD SVG 1.1//EN"
 "http://www.w3.org/Graphics/SVG/1.1/DTD/svg11.dtd">
<!-- Generated by graphviz version 2.47.1 (20210417.1919)
 -->
<!-- Title: AudioSampleFifoQueueVector.cpp&#45;inc Pages: 1 -->
<svg width="374pt" height="137pt"
 viewBox="0.00 0.00 374.00 137.00" xmlns="http://www.w3.org/2000/svg" xmlns:xlink="http://www.w3.org/1999/xlink">
<g id="graph0" class="graph" transform="scale(1 1) rotate(0) translate(4 133)">
<title>AudioSampleFifoQueueVector.cpp&#45;inc</title>
<!-- Node1 -->
<g id="Node000001" class="node">
<title>Node1</title>
<g id="a_Node000001"><a xlink:title="The AudioSampleFifoQueueVector body implements a list of fifo queues for audio samples (this is the e...">
<polygon fill="#999999" stroke="#666666" points="270,-129 88,-129 88,-110 270,-110 270,-129"/>
<text text-anchor="middle" x="179" y="-117" font-family="Helvetica,sans-Serif" font-size="10.00">AudioSampleFifoQueueVector.cpp&#45;inc</text>
</a>
</g>
</g>
<!-- Node2 -->
<g id="Node000002" class="node">
<title>Node2</title>
<g id="a_Node000002"><a xlink:href="_audio_sample_fifo_queue_vector_8h.html" target="_top" xlink:title="The AudioSampleFifoQueueVector specification defines a list of fifo queues for audio samples.">
<polygon fill="white" stroke="#666666" points="256.5,-74 101.5,-74 101.5,-55 256.5,-55 256.5,-74"/>
<text text-anchor="middle" x="179" y="-62" font-family="Helvetica,sans-Serif" font-size="10.00">AudioSampleFifoQueueVector.h</text>
</a>
</g>
</g>
<!-- Node1&#45;&gt;Node2 -->
<g id="edge1_Node000001_Node000002" class="edge">
<title>Node1&#45;&gt;Node2</title>
<g id="a_edge1_Node000001_Node000002"><a xlink:title=" ">
<path fill="none" stroke="#63b8ff" d="M179,-99.66C179,-90.93 179,-80.99 179,-74.09"/>
<polygon fill="#63b8ff" stroke="#63b8ff" points="175.5,-99.75 179,-109.75 182.5,-99.75 175.5,-99.75"/>
</a>
</g>
</g>
<!-- Node3 -->
<g id="Node000003" class="node">
<title>Node3</title>
<g id="a_Node000003"><a xlink:href="_audio_sample_fifo_queue_vector_8cpp.html" target="_top" xlink:title="The AudioSampleFifoQueueVector body implements a list of fifo queues for audio samples (this is the f...">
<polygon fill="white" stroke="#666666" points="166,-19 0,-19 0,0 166,0 166,-19"/>
<text text-anchor="middle" x="83" y="-7" font-family="Helvetica,sans-Serif" font-size="10.00">AudioSampleFifoQueueVector.cpp</text>
</a>
</g>
</g>
<!-- Node2&#45;&gt;Node3 -->
<g id="edge2_Node000002_Node000003" class="edge">
<title>Node2&#45;&gt;Node3</title>
<g id="a_edge2_Node000002_Node000003"><a xlink:title=" ">
<path fill="none" stroke="#63b8ff" d="M154.48,-49.97C136.94,-40.28 113.83,-27.52 98.7,-19.17"/>
<polygon fill="#63b8ff" stroke="#63b8ff" points="153.13,-53.22 163.58,-54.98 156.51,-47.09 153.13,-53.22"/>
</a>
</g>
</g>
<!-- Node4 -->
<g id="Node000004" class="node">
<title>Node4</title>
<g id="a_Node000004"><a xlink:href="_fluid_synth_plugin___event_processor_8cpp.html" target="_top" xlink:title="The FluidSynthPlugin_Processor module implements the handling of MIDI events from the DAW via JUCE ha...">
<polygon fill="white" stroke="#666666" points="366,-19 184,-19 184,0 366,0 366,-19"/>
<text text-anchor="middle" x="275" y="-7" font-family="Helvetica,sans-Serif" font-size="10.00">FluidSynthPlugin_EventProcessor.cpp</text>
</a>
</g>
</g>
<!-- Node2&#45;&gt;Node4 -->
<g id="edge3_Node000002_Node000004" class="edge">
<title>Node2&#45;&gt;Node4</title>
<g id="a_edge3_Node000002_Node000004"><a xlink:title=" ">
<path fill="none" stroke="#63b8ff" d="M203.52,-49.97C221.06,-40.28 244.17,-27.52 259.3,-19.17"/>
<polygon fill="#63b8ff" stroke="#63b8ff" points="201.49,-47.09 194.42,-54.98 204.87,-53.22 201.49,-47.09"/>
</a>
</g>
</g>
</g>
</svg>
