<?xml version="1.0" encoding="UTF-8" standalone="no"?>
<!DOCTYPE svg PUBLIC "-//W3C//DTD SVG 1.1//EN"
 "http://www.w3.org/Graphics/SVG/1.1/DTD/svg11.dtd">
<!-- Generated by graphviz version 2.47.1 (20210417.1919)
 -->
<!-- Title: Boolean.h Pages: 1 -->
<!--zoomable 371 -->
<svg id="main" version="1.1" xmlns="http://www.w3.org/2000/svg" xmlns:xlink="http://www.w3.org/1999/xlink" xml:space="preserve" onload="init(evt)">
<style type="text/css"><![CDATA[
.edge:hover path { stroke: red; }
.edge:hover polygon { stroke: red; fill: red; }
]]></style>
<script type="text/javascript"><![CDATA[
var edges = document.getElementsByTagName('g');
if (edges && edges.length) {
  for (var i=0;i<edges.length;i++) {
    if (edges[i].id.substr(0,4)=='edge') {
      edges[i].setAttribute('class','edge');
    }
  }
}
]]></script>
        <defs>
                <circle id="rim" cx="0" cy="0" r="7"/>
                <circle id="rim2" cx="0" cy="0" r="3.5"/>
                <g id="zoomPlus">
                        <use xlink:href="#rim" fill="#404040">
                                <set attributeName="fill" to="#808080" begin="zoomplus.mouseover" end="zoomplus.mouseout"/>
                        </use>
                        <path d="M-4,0h8M0,-4v8" fill="none" stroke="white" stroke-width="1.5" pointer-events="none"/>
                </g>
                <g id="zoomMin">
                        <use xlink:href="#rim" fill="#404040">
                                <set attributeName="fill" to="#808080" begin="zoomminus.mouseover" end="zoomminus.mouseout"/>
                        </use>
                        <path d="M-4,0h8" fill="none" stroke="white" stroke-width="1.5" pointer-events="none"/>
                </g>
                <g id="dirArrow">
                        <path fill="none" stroke="white" stroke-width="1.5" d="M0,-3.0v7 M-2.5,-0.5L0,-3.0L2.5,-0.5"/>
                </g>
               <g id="resetDef">
                       <use xlink:href="#rim2" fill="#404040">
                               <set attributeName="fill" to="#808080" begin="reset.mouseover" end="reset.mouseout"/>
                       </use>
               </g>
        </defs>

<script type="text/javascript">
var viewWidth = 2410;
var viewHeight = 371;
var sectionId = 'dynsection-1';
</script>
<script xlink:href="svgpan.js"/>
<svg id="graph" class="graph">
<g id="viewport">
<title>Boolean.h</title>
<polygon fill="white" stroke="transparent" points="-4,4 -4,-367 2406.4,-367 2406.4,4 -4,4"/>
<!-- Node1 -->
<g id="node1" class="node">
<title>Node1</title>
<g id="a_node1"><a xlink:title="The Boolean specification and body provides a value object type for boolean values.">
<polygon fill="#bfbfbf" stroke="black" points="789.4,-342.5 789.4,-362.5 854.4,-362.5 854.4,-342.5 789.4,-342.5"/>
<text text-anchor="middle" x="821.9" y="-349.7" font-family="Helvetica,sans-Serif" font-size="11.00">Boolean.h</text>
</a>
</g>
</g>
<!-- Node2 -->
<g id="node2" class="node">
<title>Node2</title>
<g id="a_node2"><a xlink:href="_file_8h.html" target="_top" xlink:title="The File specification defines a class for simple file handling based on C stdio.">
<polygon fill="white" stroke="black" points="355.4,-228.5 355.4,-248.5 398.4,-248.5 398.4,-228.5 355.4,-228.5"/>
<text text-anchor="middle" x="376.9" y="-235.7" font-family="Helvetica,sans-Serif" font-size="11.00">File.h</text>
</a>
</g>
</g>
<!-- Node1&#45;&gt;Node2 -->
<g id="edge1" class="edge">
<title>Node1&#45;&gt;Node2</title>
<path fill="none" stroke="midnightblue" d="M779.27,-340.77C686.31,-317.37 468.13,-262.46 398.6,-244.96"/>
<polygon fill="midnightblue" stroke="midnightblue" points="778.63,-344.22 789.18,-343.26 780.34,-337.43 778.63,-344.22"/>
</g>
<!-- Node9 -->
<g id="node9" class="node">
<title>Node9</title>
<g id="a_node9"><a xlink:href="_logging_support_8h.html" target="_top" xlink:title="The LoggingSupport specification defines a class for simple entry/exit logging to a file; this loggin...">
<polygon fill="white" stroke="black" points="665.9,-285.5 665.9,-305.5 767.9,-305.5 767.9,-285.5 665.9,-285.5"/>
<text text-anchor="middle" x="716.9" y="-292.7" font-family="Helvetica,sans-Serif" font-size="11.00">LoggingSupport.h</text>
</a>
</g>
</g>
<!-- Node1&#45;&gt;Node9 -->
<g id="edge8" class="edge">
<title>Node1&#45;&gt;Node9</title>
<path fill="none" stroke="midnightblue" d="M795.45,-337.65C776.29,-327.61 750.92,-314.32 734.27,-305.6"/>
<polygon fill="midnightblue" stroke="midnightblue" points="794.08,-340.88 804.57,-342.42 797.33,-334.68 794.08,-340.88"/>
</g>
<!-- Node24 -->
<g id="node24" class="node">
<title>Node24</title>
<g id="a_node24"><a xlink:href="_midi_event_converter_8cpp.html" target="_top" xlink:title="The MidiEventConverter module implements the handling of MIDI events by feeding them to an underlying...">
<polygon fill="white" stroke="black" points="1518.9,-114.5 1518.9,-134.5 1650.9,-134.5 1650.9,-114.5 1518.9,-114.5"/>
<text text-anchor="middle" x="1584.9" y="-121.7" font-family="Helvetica,sans-Serif" font-size="11.00">MidiEventConverter.cpp</text>
</a>
</g>
</g>
<!-- Node1&#45;&gt;Node24 -->
<g id="edge59" class="edge">
<title>Node1&#45;&gt;Node24</title>
<path fill="none" stroke="midnightblue" d="M864.85,-349.9C1084.84,-341.22 2078.29,-296.44 2160.9,-192 2166.69,-184.68 2167.26,-177.83 2160.9,-171 2122.96,-130.22 1716.34,-140.46 1660.9,-135 1657.73,-134.69 1654.48,-134.35 1651.2,-133.99"/>
<polygon fill="midnightblue" stroke="midnightblue" points="864.53,-346.4 854.68,-350.29 864.8,-353.4 864.53,-346.4"/>
</g>
<!-- Node26 -->
<g id="node26" class="node">
<title>Node26</title>
<g id="a_node26"><a xlink:href="_operating_system_8h.html" target="_top" xlink:title="The OperatingSystem specification defines a class for several operating system related utility functi...">
<polygon fill="white" stroke="black" points="14.4,-228.5 14.4,-248.5 125.4,-248.5 125.4,-228.5 14.4,-228.5"/>
<text text-anchor="middle" x="69.9" y="-235.7" font-family="Helvetica,sans-Serif" font-size="11.00">OperatingSystem.h</text>
</a>
</g>
</g>
<!-- Node1&#45;&gt;Node26 -->
<g id="edge32" class="edge">
<title>Node1&#45;&gt;Node26</title>
<path fill="none" stroke="midnightblue" d="M778.87,-345.09C650.31,-325.94 269.07,-269.16 125.47,-247.78"/>
<polygon fill="midnightblue" stroke="midnightblue" points="778.7,-348.6 789.11,-346.62 779.73,-341.68 778.7,-348.6"/>
</g>
<!-- Node27 -->
<g id="node27" class="node">
<title>Node27</title>
<g id="a_node27"><a xlink:href="_string_util_8h.html" target="_top" xlink:title="The StringUtil specification defines several string routines not included in the standard C++ library...">
<polygon fill="white" stroke="black" points="2122.4,-285.5 2122.4,-305.5 2191.4,-305.5 2191.4,-285.5 2122.4,-285.5"/>
<text text-anchor="middle" x="2156.9" y="-292.7" font-family="Helvetica,sans-Serif" font-size="11.00">StringUtil.h</text>
</a>
</g>
</g>
<!-- Node1&#45;&gt;Node27 -->
<g id="edge38" class="edge">
<title>Node1&#45;&gt;Node27</title>
<path fill="none" stroke="midnightblue" d="M864.75,-350.82C1058.79,-347.6 1856.46,-332.96 2104.9,-306 2110.56,-305.39 2116.53,-304.51 2122.32,-303.54"/>
<polygon fill="midnightblue" stroke="midnightblue" points="864.6,-347.32 854.66,-350.98 864.72,-354.32 864.6,-347.32"/>
</g>
<!-- Node31 -->
<g id="node31" class="node">
<title>Node31</title>
<g id="a_node31"><a xlink:href="_dynamic_library_8h.html" target="_top" xlink:title="The DynamicLibrary class specifies a very simple and crude wrapper around the dynamic library loading...">
<polygon fill="white" stroke="black" points="1808.9,-228.5 1808.9,-248.5 1910.9,-248.5 1910.9,-228.5 1808.9,-228.5"/>
<text text-anchor="middle" x="1859.9" y="-235.7" font-family="Helvetica,sans-Serif" font-size="11.00">DynamicLibrary.h</text>
</a>
</g>
</g>
<!-- Node1&#45;&gt;Node31 -->
<g id="edge44" class="edge">
<title>Node1&#45;&gt;Node31</title>
<path fill="none" stroke="midnightblue" d="M864.99,-346.85C1031.06,-328.93 1629.31,-264.38 1808.71,-245.02"/>
<polygon fill="midnightblue" stroke="midnightblue" points="864.25,-343.41 854.68,-347.96 865,-350.37 864.25,-343.41"/>
</g>
<!-- Node32 -->
<g id="node32" class="node">
<title>Node32</title>
<g id="a_node32"><a xlink:href="_midi_event_8h.html" target="_top" xlink:title="The MidiEvent specification defines a single MIDI event and the MIDI event kind enumeration.">
<polygon fill="white" stroke="black" points="785.9,-285.5 785.9,-305.5 857.9,-305.5 857.9,-285.5 785.9,-285.5"/>
<text text-anchor="middle" x="821.9" y="-292.7" font-family="Helvetica,sans-Serif" font-size="11.00">MidiEvent.h</text>
</a>
</g>
</g>
<!-- Node1&#45;&gt;Node32 -->
<g id="edge48" class="edge">
<title>Node1&#45;&gt;Node32</title>
<path fill="none" stroke="midnightblue" d="M821.9,-332.38C821.9,-323.37 821.9,-313.04 821.9,-305.78"/>
<polygon fill="midnightblue" stroke="midnightblue" points="818.4,-332.42 821.9,-342.42 825.4,-332.42 818.4,-332.42"/>
</g>
<!-- Node3 -->
<g id="node3" class="node">
<title>Node3</title>
<g id="a_node3"><a xlink:href="_wave_file_8cpp.html" target="_top" xlink:title="The WaveFile specification defines an object for accessing a RIFF wave file with several channels.">
<polygon fill="white" stroke="black" points="478.4,-171.5 478.4,-191.5 561.4,-191.5 561.4,-171.5 478.4,-171.5"/>
<text text-anchor="middle" x="519.9" y="-178.7" font-family="Helvetica,sans-Serif" font-size="11.00">WaveFile.cpp</text>
</a>
</g>
</g>
<!-- Node2&#45;&gt;Node3 -->
<g id="edge2" class="edge">
<title>Node2&#45;&gt;Node3</title>
<path fill="none" stroke="midnightblue" d="M408.18,-225.47C434.63,-215.3 471.98,-200.93 496.07,-191.67"/>
<polygon fill="midnightblue" stroke="midnightblue" points="406.7,-222.29 398.62,-229.15 409.21,-228.82 406.7,-222.29"/>
</g>
<!-- Node4 -->
<g id="node4" class="node">
<title>Node4</title>
<g id="a_node4"><a xlink:href="_file_8cpp.html" target="_top" xlink:title="The File body implements a class for simple file handling based on C stdio.">
<polygon fill="white" stroke="black" points="405.4,-171.5 405.4,-191.5 460.4,-191.5 460.4,-171.5 405.4,-171.5"/>
<text text-anchor="middle" x="432.9" y="-178.7" font-family="Helvetica,sans-Serif" font-size="11.00">File.cpp</text>
</a>
</g>
</g>
<!-- Node2&#45;&gt;Node4 -->
<g id="edge3" class="edge">
<title>Node2&#45;&gt;Node4</title>
<path fill="none" stroke="midnightblue" d="M393.4,-221.3C403.19,-211.68 415.25,-199.83 423.46,-191.78"/>
<polygon fill="midnightblue" stroke="midnightblue" points="390.83,-218.91 386.15,-228.42 395.74,-223.91 390.83,-218.91"/>
</g>
<!-- Node5 -->
<g id="node5" class="node">
<title>Node5</title>
<g id="a_node5"><a xlink:href="_logging_support_8cpp.html" target="_top" xlink:title="The LoggingSupport body implements a class for simple entry/exit logging to a file; this logging reli...">
<polygon fill="white" stroke="black" points="54.9,-171.5 54.9,-191.5 168.9,-191.5 168.9,-171.5 54.9,-171.5"/>
<text text-anchor="middle" x="111.9" y="-178.7" font-family="Helvetica,sans-Serif" font-size="11.00">LoggingSupport.cpp</text>
</a>
</g>
</g>
<!-- Node2&#45;&gt;Node5 -->
<g id="edge4" class="edge">
<title>Node2&#45;&gt;Node5</title>
<path fill="none" stroke="midnightblue" d="M345.25,-230.93C298.03,-221.13 208.98,-202.65 155.59,-191.57"/>
<polygon fill="midnightblue" stroke="midnightblue" points="344.72,-234.39 355.22,-233 346.14,-227.54 344.72,-234.39"/>
</g>
<!-- Node6 -->
<g id="node6" class="node">
<title>Node6</title>
<g id="a_node6"><a xlink:href="_operating_system_8cpp.html" target="_top" xlink:title="The OperatingSystem body implements a class for several operating system related utility functions (l...">
<polygon fill="white" stroke="black" points="225.4,-171.5 225.4,-191.5 348.4,-191.5 348.4,-171.5 225.4,-171.5"/>
<text text-anchor="middle" x="286.9" y="-178.7" font-family="Helvetica,sans-Serif" font-size="11.00">OperatingSystem.cpp</text>
</a>
</g>
</g>
<!-- Node2&#45;&gt;Node6 -->
<g id="edge5" class="edge">
<title>Node2&#45;&gt;Node6</title>
<path fill="none" stroke="midnightblue" d="M353.1,-222.95C336.82,-213 315.73,-200.12 301.79,-191.6"/>
<polygon fill="midnightblue" stroke="midnightblue" points="351.68,-226.19 362.04,-228.42 355.33,-220.22 351.68,-226.19"/>
</g>
<!-- Node7 -->
<g id="node7" class="node">
<title>Node7</title>
<g id="a_node7"><a xlink:href="_fluid_synth_file_converter_8cpp.html" target="_top" xlink:title="The FluidSynthFileConverter module implements a conversion from a MIDI file into a wave file using th...">
<polygon fill="white" stroke="black" points="533.9,-114.5 533.9,-134.5 687.9,-134.5 687.9,-114.5 533.9,-114.5"/>
<text text-anchor="middle" x="610.9" y="-121.7" font-family="Helvetica,sans-Serif" font-size="11.00">FluidSynthFileConverter.cpp</text>
</a>
</g>
</g>
<!-- Node2&#45;&gt;Node7 -->
<g id="edge6" class="edge">
<title>Node2&#45;&gt;Node7</title>
<path fill="none" stroke="midnightblue" d="M377.29,-218.03C378.67,-203.08 383.03,-183.01 395.9,-171 415.85,-152.39 480.6,-140.38 533.88,-133.39"/>
<polygon fill="midnightblue" stroke="midnightblue" points="373.79,-218.08 376.73,-228.25 380.78,-218.46 373.79,-218.08"/>
</g>
<!-- Node8 -->
<g id="node8" class="node">
<title>Node8</title>
<g id="a_node8"><a xlink:href="_midi_file_8cpp.html" target="_top" xlink:title="The MidiFile implementation implements the services of a MIDI file; currently only file reading is su...">
<polygon fill="white" stroke="black" points="300.9,-114.5 300.9,-134.5 374.9,-134.5 374.9,-114.5 300.9,-114.5"/>
<text text-anchor="middle" x="337.9" y="-121.7" font-family="Helvetica,sans-Serif" font-size="11.00">MidiFile.cpp</text>
</a>
</g>
</g>
<!-- Node2&#45;&gt;Node8 -->
<g id="edge7" class="edge">
<title>Node2&#45;&gt;Node8</title>
<path fill="none" stroke="midnightblue" d="M345.13,-233.08C302.81,-226.48 231.45,-212.55 215.9,-192 190.58,-158.53 256.04,-139.83 300.58,-131.29"/>
<polygon fill="midnightblue" stroke="midnightblue" points="344.8,-236.57 355.21,-234.61 345.85,-229.65 344.8,-236.57"/>
</g>
<!-- Node9&#45;&gt;Node5 -->
<g id="edge31" class="edge">
<title>Node9&#45;&gt;Node5</title>
<path fill="none" stroke="midnightblue" d="M655.73,-289.92C581.8,-283.71 453.88,-270.83 345.9,-249 269.53,-233.56 181.7,-205.83 138.59,-191.55"/>
<polygon fill="midnightblue" stroke="midnightblue" points="655.54,-293.42 665.8,-290.75 656.12,-286.44 655.54,-293.42"/>
</g>
<!-- Node10 -->
<g id="node10" class="node">
<title>Node10</title>
<g id="a_node10"><a xlink:href="_logging_8h.html" target="_top" xlink:title="The Logging specification defines macros for entry&#45;, exit&#45; and intermediate logging of functions into...">
<polygon fill="white" stroke="black" points="1183.9,-228.5 1183.9,-248.5 1247.9,-248.5 1247.9,-228.5 1183.9,-228.5"/>
<text text-anchor="middle" x="1215.9" y="-235.7" font-family="Helvetica,sans-Serif" font-size="11.00">Logging.h</text>
</a>
</g>
</g>
<!-- Node9&#45;&gt;Node10 -->
<g id="edge9" class="edge">
<title>Node9&#45;&gt;Node10</title>
<path fill="none" stroke="midnightblue" d="M777.87,-284.93C936.29,-264.43 1112.81,-248.4 1183.89,-242.22"/>
<polygon fill="midnightblue" stroke="midnightblue" points="777.4,-281.47 767.94,-286.23 778.31,-288.41 777.4,-281.47"/>
</g>
<!-- Node10&#45;&gt;Node3 -->
<g id="edge18" class="edge">
<title>Node10&#45;&gt;Node3</title>
<path fill="none" stroke="midnightblue" d="M1173.89,-236.19C1070.8,-232.62 797.24,-220.97 570.9,-192 567.87,-191.61 564.74,-191.16 561.59,-190.66"/>
<polygon fill="midnightblue" stroke="midnightblue" points="1173.79,-239.69 1183.9,-236.53 1174.02,-232.69 1173.79,-239.69"/>
</g>
<!-- Node10&#45;&gt;Node6 -->
<g id="edge20" class="edge">
<title>Node10&#45;&gt;Node6</title>
<path fill="none" stroke="midnightblue" d="M1173.52,-235.62C1052.23,-230.14 693.41,-213.21 395.9,-192 380.56,-190.91 364.01,-189.55 348.56,-188.21"/>
<polygon fill="midnightblue" stroke="midnightblue" points="1173.69,-239.13 1183.84,-236.08 1174.01,-232.14 1173.69,-239.13"/>
</g>
<!-- Node10&#45;&gt;Node7 -->
<g id="edge24" class="edge">
<title>Node10&#45;&gt;Node7</title>
<path fill="none" stroke="midnightblue" d="M1173.42,-234.03C1119.99,-228.81 1025.9,-216.8 948.9,-192 928.66,-185.48 926.2,-177.36 905.9,-171 833.95,-148.45 748.5,-136.84 688.13,-131.01"/>
<polygon fill="midnightblue" stroke="midnightblue" points="1173.27,-237.53 1183.55,-234.98 1173.92,-230.56 1173.27,-237.53"/>
</g>
<!-- Node10&#45;&gt;Node8 -->
<g id="edge30" class="edge">
<title>Node10&#45;&gt;Node8</title>
<path fill="none" stroke="midnightblue" d="M1173.55,-236.85C1112.54,-234.69 997.23,-225.98 905.9,-192 889.61,-185.94 889.37,-176.56 872.9,-171 825.99,-155.15 488.33,-134.26 374.93,-127.62"/>
<polygon fill="midnightblue" stroke="midnightblue" points="1173.47,-240.35 1183.57,-237.16 1173.69,-233.35 1173.47,-240.35"/>
</g>
<!-- Node11 -->
<g id="node11" class="node">
<title>Node11</title>
<g id="a_node11"><a xlink:href="_audio_sample_fifo_queue_8cpp-inc.html" target="_top" xlink:title="The AudioSampleFifoQueue body implements a fifo queue for audio samples with popping off access to th...">
<polygon fill="white" stroke="black" points="1486.4,-171.5 1486.4,-191.5 1657.4,-191.5 1657.4,-171.5 1486.4,-171.5"/>
<text text-anchor="middle" x="1571.9" y="-178.7" font-family="Helvetica,sans-Serif" font-size="11.00">AudioSampleFifoQueue.cpp&#45;inc</text>
</a>
</g>
</g>
<!-- Node10&#45;&gt;Node11 -->
<g id="edge10" class="edge">
<title>Node10&#45;&gt;Node11</title>
<path fill="none" stroke="midnightblue" d="M1258.18,-230.97C1321.63,-221.17 1441.7,-202.62 1513.49,-191.52"/>
<polygon fill="midnightblue" stroke="midnightblue" points="1257.47,-227.54 1248.12,-232.52 1258.54,-234.45 1257.47,-227.54"/>
</g>
<!-- Node16 -->
<g id="node16" class="node">
<title>Node16</title>
<g id="a_node16"><a xlink:href="_fluid_synth_plugin___event_processor_8cpp.html" target="_top" xlink:title="The FluidSynthPlugin_Processor module implements the handling of MIDI events from the DAW via JUCE ha...">
<polygon fill="white" stroke="black" points="960.4,-0.5 960.4,-20.5 1163.4,-20.5 1163.4,-0.5 960.4,-0.5"/>
<text text-anchor="middle" x="1061.9" y="-7.7" font-family="Helvetica,sans-Serif" font-size="11.00">FluidSynthPlugin_EventProcessor.cpp</text>
</a>
</g>
</g>
<!-- Node10&#45;&gt;Node16 -->
<g id="edge26" class="edge">
<title>Node10&#45;&gt;Node16</title>
<path fill="none" stroke="midnightblue" d="M1175.29,-224.68C1158.06,-217.47 1138.98,-206.86 1125.9,-192 1079.11,-138.84 1065.88,-49.19 1062.75,-20.57"/>
<polygon fill="midnightblue" stroke="midnightblue" points="1174.04,-227.95 1184.63,-228.35 1176.6,-221.43 1174.04,-227.95"/>
</g>
<!-- Node17 -->
<g id="node17" class="node">
<title>Node17</title>
<g id="a_node17"><a xlink:href="_audio_sample_fifo_queue_vector_8cpp-inc.html" target="_top" xlink:title="The AudioSampleFifoQueueVector body implements a list of fifo queues for audio samples (this is the e...">
<polygon fill="white" stroke="black" points="1669.4,-114.5 1669.4,-134.5 1872.4,-134.5 1872.4,-114.5 1669.4,-114.5"/>
<text text-anchor="middle" x="1770.9" y="-121.7" font-family="Helvetica,sans-Serif" font-size="11.00">AudioSampleFifoQueueVector.cpp&#45;inc</text>
</a>
</g>
</g>
<!-- Node10&#45;&gt;Node17 -->
<g id="edge16" class="edge">
<title>Node10&#45;&gt;Node17</title>
<path fill="none" stroke="midnightblue" d="M1258.02,-236.31C1357.8,-233.04 1605.95,-222.04 1682.9,-192 1716.08,-179.05 1747.5,-149.81 1762.21,-134.79"/>
<polygon fill="midnightblue" stroke="midnightblue" points="1257.89,-232.82 1248,-236.63 1258.11,-239.81 1257.89,-232.82"/>
</g>
<!-- Node18 -->
<g id="node18" class="node">
<title>Node18</title>
<g id="a_node18"><a xlink:href="_command_line_arguments_8cpp.html" target="_top" xlink:title="The CommandLineArguments body implements a handler for command&#45;line arguments converting them to a li...">
<polygon fill="white" stroke="black" points="1134.4,-171.5 1134.4,-191.5 1297.4,-191.5 1297.4,-171.5 1134.4,-171.5"/>
<text text-anchor="middle" x="1215.9" y="-178.7" font-family="Helvetica,sans-Serif" font-size="11.00">CommandLineArguments.cpp</text>
</a>
</g>
</g>
<!-- Node10&#45;&gt;Node18 -->
<g id="edge19" class="edge">
<title>Node10&#45;&gt;Node18</title>
<path fill="none" stroke="midnightblue" d="M1215.9,-218.38C1215.9,-209.37 1215.9,-199.04 1215.9,-191.78"/>
<polygon fill="midnightblue" stroke="midnightblue" points="1212.4,-218.42 1215.9,-228.42 1219.4,-218.42 1212.4,-218.42"/>
</g>
<!-- Node19 -->
<g id="node19" class="node">
<title>Node19</title>
<g id="a_node19"><a xlink:href="_fluid_synth_8cpp.html" target="_top" xlink:title="The FluidSynth class implements the access to the fluidsynth library via a dynamic loading of it.">
<polygon fill="white" stroke="black" points="1752.4,-171.5 1752.4,-191.5 1841.4,-191.5 1841.4,-171.5 1752.4,-171.5"/>
<text text-anchor="middle" x="1796.9" y="-178.7" font-family="Helvetica,sans-Serif" font-size="11.00">FluidSynth.cpp</text>
</a>
</g>
</g>
<!-- Node10&#45;&gt;Node19 -->
<g id="edge21" class="edge">
<title>Node10&#45;&gt;Node19</title>
<path fill="none" stroke="midnightblue" d="M1258.3,-234.85C1347.35,-229.07 1560.28,-214.01 1737.9,-192 1742.54,-191.43 1747.36,-190.76 1752.17,-190.05"/>
<polygon fill="midnightblue" stroke="midnightblue" points="1257.82,-231.38 1248.06,-235.51 1258.27,-238.36 1257.82,-231.38"/>
</g>
<!-- Node20 -->
<g id="node20" class="node">
<title>Node20</title>
<g id="a_node20"><a xlink:href="_fluid_synth_settings_8cpp.html" target="_top" xlink:title="The FluidSynthSettings class implements an object&#45;oriented wrapper around an underlying fluidsynth se...">
<polygon fill="white" stroke="black" points="1859.9,-171.5 1859.9,-191.5 1987.9,-191.5 1987.9,-171.5 1859.9,-171.5"/>
<text text-anchor="middle" x="1923.9" y="-178.7" font-family="Helvetica,sans-Serif" font-size="11.00">FluidSynthSettings.cpp</text>
</a>
</g>
</g>
<!-- Node10&#45;&gt;Node20 -->
<g id="edge22" class="edge">
<title>Node10&#45;&gt;Node20</title>
<path fill="none" stroke="midnightblue" d="M1258.21,-235.32C1360.29,-229.86 1628.13,-214.46 1850.9,-192 1853.83,-191.71 1856.82,-191.39 1859.83,-191.05"/>
<polygon fill="midnightblue" stroke="midnightblue" points="1257.81,-231.83 1248.01,-235.86 1258.18,-238.82 1257.81,-231.83"/>
</g>
<!-- Node21 -->
<g id="node21" class="node">
<title>Node21</title>
<g id="a_node21"><a xlink:href="_fluid_synth_synthesizer_8cpp.html" target="_top" xlink:title="The FluidSynthSynthesizer class implements an object&#45;oriented wrapper around an underlying fluidsynth...">
<polygon fill="white" stroke="black" points="2005.9,-171.5 2005.9,-191.5 2151.9,-191.5 2151.9,-171.5 2005.9,-171.5"/>
<text text-anchor="middle" x="2078.9" y="-178.7" font-family="Helvetica,sans-Serif" font-size="11.00">FluidSynthSynthesizer.cpp</text>
</a>
</g>
</g>
<!-- Node10&#45;&gt;Node21 -->
<g id="edge23" class="edge">
<title>Node10&#45;&gt;Node21</title>
<path fill="none" stroke="midnightblue" d="M1258.28,-235.88C1375.76,-231.22 1715.45,-216.48 1996.9,-192 1999.76,-191.75 2002.67,-191.48 2005.61,-191.2"/>
<polygon fill="midnightblue" stroke="midnightblue" points="1257.79,-232.4 1247.94,-236.29 1258.07,-239.39 1257.79,-232.4"/>
</g>
<!-- Node22 -->
<g id="node22" class="node">
<title>Node22</title>
<g id="a_node22"><a xlink:href="_fluid_synth_plugin___editor_8cpp.html" target="_top" xlink:title="The FluidSynthPlugin_Editor module implements the editor for the processor of MIDI events from the DA...">
<polygon fill="white" stroke="black" points="1315.4,-171.5 1315.4,-191.5 1468.4,-191.5 1468.4,-171.5 1315.4,-171.5"/>
<text text-anchor="middle" x="1391.9" y="-178.7" font-family="Helvetica,sans-Serif" font-size="11.00">FluidSynthPlugin_Editor.cpp</text>
</a>
</g>
</g>
<!-- Node10&#45;&gt;Node22 -->
<g id="edge25" class="edge">
<title>Node10&#45;&gt;Node22</title>
<path fill="none" stroke="midnightblue" d="M1254.66,-225.39C1287.4,-215.16 1333.54,-200.74 1363.09,-191.5"/>
<polygon fill="midnightblue" stroke="midnightblue" points="1253.47,-222.09 1244.97,-228.42 1255.56,-228.78 1253.47,-222.09"/>
</g>
<!-- Node23 -->
<g id="node23" class="node">
<title>Node23</title>
<g id="a_node23"><a xlink:href="_midi_event_8cpp.html" target="_top" xlink:title="The MidiEvent implementation defines the services of a single MIDI event.">
<polygon fill="white" stroke="black" points="779.9,-171.5 779.9,-191.5 863.9,-191.5 863.9,-171.5 779.9,-171.5"/>
<text text-anchor="middle" x="821.9" y="-178.7" font-family="Helvetica,sans-Serif" font-size="11.00">MidiEvent.cpp</text>
</a>
</g>
</g>
<!-- Node10&#45;&gt;Node23 -->
<g id="edge27" class="edge">
<title>Node10&#45;&gt;Node23</title>
<path fill="none" stroke="midnightblue" d="M1173.58,-232.27C1109.5,-224.26 984.09,-208.15 877.9,-192 873.42,-191.32 868.74,-190.57 864.08,-189.81"/>
<polygon fill="midnightblue" stroke="midnightblue" points="1173.34,-235.77 1183.69,-233.54 1174.2,-228.83 1173.34,-235.77"/>
</g>
<!-- Node10&#45;&gt;Node24 -->
<g id="edge28" class="edge">
<title>Node10&#45;&gt;Node24</title>
<path fill="none" stroke="midnightblue" d="M1258.23,-236.39C1365.18,-233.17 1639.77,-222.01 1666.9,-192 1688.17,-168.48 1643.25,-146.38 1611.88,-134.52"/>
<polygon fill="midnightblue" stroke="midnightblue" points="1258.01,-232.9 1248.12,-236.69 1258.21,-239.9 1258.01,-232.9"/>
</g>
<!-- Node25 -->
<g id="node25" class="node">
<title>Node25</title>
<g id="a_node25"><a xlink:href="_midi_event_list_8cpp.html" target="_top" xlink:title="The MIDIEventList body implements sequences of integer values with zero&#45;based arbitrary indexed acces...">
<polygon fill="white" stroke="black" points="660.4,-171.5 660.4,-191.5 761.4,-191.5 761.4,-171.5 660.4,-171.5"/>
<text text-anchor="middle" x="710.9" y="-178.7" font-family="Helvetica,sans-Serif" font-size="11.00">MidiEventList.cpp</text>
</a>
</g>
</g>
<!-- Node10&#45;&gt;Node25 -->
<g id="edge29" class="edge">
<title>Node10&#45;&gt;Node25</title>
<path fill="none" stroke="midnightblue" d="M1173.66,-233.96C1094.49,-227.16 918.49,-211.21 770.9,-192 767.87,-191.61 764.76,-191.18 761.61,-190.73"/>
<polygon fill="midnightblue" stroke="midnightblue" points="1173.46,-237.46 1183.72,-234.82 1174.06,-230.48 1173.46,-237.46"/>
</g>
<!-- Node12 -->
<g id="node12" class="node">
<title>Node12</title>
<g id="a_node12"><a xlink:href="_audio_sample_fifo_queue_8h.html" target="_top" xlink:title="The AudioSampleFifoQueue specification defines a fifo queue for audio samples with popping off access...">
<polygon fill="white" stroke="black" points="1359.4,-114.5 1359.4,-134.5 1500.4,-134.5 1500.4,-114.5 1359.4,-114.5"/>
<text text-anchor="middle" x="1429.9" y="-121.7" font-family="Helvetica,sans-Serif" font-size="11.00">AudioSampleFifoQueue.h</text>
</a>
</g>
</g>
<!-- Node11&#45;&gt;Node12 -->
<g id="edge11" class="edge">
<title>Node11&#45;&gt;Node12</title>
<path fill="none" stroke="midnightblue" d="M1538.94,-167.73C1512.74,-157.58 1476.73,-143.64 1453.39,-134.6"/>
<polygon fill="midnightblue" stroke="midnightblue" points="1537.87,-171.07 1548.46,-171.42 1540.39,-164.54 1537.87,-171.07"/>
</g>
<!-- Node13 -->
<g id="node13" class="node">
<title>Node13</title>
<g id="a_node13"><a xlink:href="_audio_sample_fifo_queue_8cpp.html" target="_top" xlink:title="The AudioSampleFifoQueue body implements a fifo queue for audio samples with popping off access to th...">
<polygon fill="white" stroke="black" points="1220.4,-57.5 1220.4,-77.5 1373.4,-77.5 1373.4,-57.5 1220.4,-57.5"/>
<text text-anchor="middle" x="1296.9" y="-64.7" font-family="Helvetica,sans-Serif" font-size="11.00">AudioSampleFifoQueue.cpp</text>
</a>
</g>
</g>
<!-- Node12&#45;&gt;Node13 -->
<g id="edge12" class="edge">
<title>Node12&#45;&gt;Node13</title>
<path fill="none" stroke="midnightblue" d="M1398.38,-110.46C1373.89,-100.34 1340.57,-86.56 1318.9,-77.6"/>
<polygon fill="midnightblue" stroke="midnightblue" points="1397.36,-113.83 1407.94,-114.42 1400.04,-107.36 1397.36,-113.83"/>
</g>
<!-- Node14 -->
<g id="node14" class="node">
<title>Node14</title>
<g id="a_node14"><a xlink:href="_audio_sample_fifo_queue_vector_8h.html" target="_top" xlink:title="The AudioSampleFifoQueueVector specification defines a list of fifo queues for audio samples.">
<polygon fill="white" stroke="black" points="1391.4,-57.5 1391.4,-77.5 1564.4,-77.5 1564.4,-57.5 1391.4,-57.5"/>
<text text-anchor="middle" x="1477.9" y="-64.7" font-family="Helvetica,sans-Serif" font-size="11.00">AudioSampleFifoQueueVector.h</text>
</a>
</g>
</g>
<!-- Node12&#45;&gt;Node14 -->
<g id="edge13" class="edge">
<title>Node12&#45;&gt;Node14</title>
<path fill="none" stroke="midnightblue" d="M1444.54,-106.73C1452.84,-97.22 1462.91,-85.68 1469.81,-77.78"/>
<polygon fill="midnightblue" stroke="midnightblue" points="1441.77,-104.58 1437.83,-114.42 1447.04,-109.18 1441.77,-104.58"/>
</g>
<!-- Node15 -->
<g id="node15" class="node">
<title>Node15</title>
<g id="a_node15"><a xlink:href="_audio_sample_fifo_queue_vector_8cpp.html" target="_top" xlink:title="The AudioSampleFifoQueueVector body implements a list of fifo queues for audio samples (this is the f...">
<polygon fill="white" stroke="black" points="1385.4,-0.5 1385.4,-20.5 1570.4,-20.5 1570.4,-0.5 1385.4,-0.5"/>
<text text-anchor="middle" x="1477.9" y="-7.7" font-family="Helvetica,sans-Serif" font-size="11.00">AudioSampleFifoQueueVector.cpp</text>
</a>
</g>
</g>
<!-- Node14&#45;&gt;Node15 -->
<g id="edge14" class="edge">
<title>Node14&#45;&gt;Node15</title>
<path fill="none" stroke="midnightblue" d="M1477.9,-47.38C1477.9,-38.37 1477.9,-28.04 1477.9,-20.78"/>
<polygon fill="midnightblue" stroke="midnightblue" points="1474.4,-47.42 1477.9,-57.42 1481.4,-47.42 1474.4,-47.42"/>
</g>
<!-- Node14&#45;&gt;Node16 -->
<g id="edge15" class="edge">
<title>Node14&#45;&gt;Node16</title>
<path fill="none" stroke="midnightblue" d="M1399.46,-56.13C1321.8,-45.86 1204.08,-30.3 1130.17,-20.53"/>
<polygon fill="midnightblue" stroke="midnightblue" points="1399.3,-59.64 1409.68,-57.48 1400.22,-52.7 1399.3,-59.64"/>
</g>
<!-- Node17&#45;&gt;Node14 -->
<g id="edge17" class="edge">
<title>Node17&#45;&gt;Node14</title>
<path fill="none" stroke="midnightblue" d="M1712.96,-112.62C1658.26,-102.35 1577.2,-87.14 1525.98,-77.53"/>
<polygon fill="midnightblue" stroke="midnightblue" points="1712.37,-116.07 1722.85,-114.48 1713.67,-109.19 1712.37,-116.07"/>
</g>
<!-- Node26&#45;&gt;Node5 -->
<g id="edge33" class="edge">
<title>Node26&#45;&gt;Node5</title>
<path fill="none" stroke="midnightblue" d="M82.93,-220.44C90.15,-210.98 98.85,-199.6 104.82,-191.78"/>
<polygon fill="midnightblue" stroke="midnightblue" points="80.13,-218.35 76.84,-228.42 85.69,-222.59 80.13,-218.35"/>
</g>
<!-- Node26&#45;&gt;Node6 -->
<g id="edge34" class="edge">
<title>Node26&#45;&gt;Node6</title>
<path fill="none" stroke="midnightblue" d="M115.62,-225.91C156.09,-215.66 214.32,-200.9 251.38,-191.5"/>
<polygon fill="midnightblue" stroke="midnightblue" points="114.57,-222.57 105.74,-228.42 116.29,-229.35 114.57,-222.57"/>
</g>
<!-- Node26&#45;&gt;Node7 -->
<g id="edge35" class="edge">
<title>Node26&#45;&gt;Node7</title>
<path fill="none" stroke="midnightblue" d="M55.01,-220.32C44.11,-205.62 33.24,-184.72 45.9,-171 62.21,-153.33 383.12,-136.11 533.88,-128.96"/>
<polygon fill="midnightblue" stroke="midnightblue" points="52.28,-222.52 61.25,-228.16 57.76,-218.16 52.28,-222.52"/>
</g>
<!-- Node26&#45;&gt;Node8 -->
<g id="edge37" class="edge">
<title>Node26&#45;&gt;Node8</title>
<path fill="none" stroke="midnightblue" d="M43.66,-223.29C22.05,-209.8 -2.71,-188.95 12.9,-171 49.87,-128.49 223.65,-124.51 300.82,-124.89"/>
<polygon fill="midnightblue" stroke="midnightblue" points="41.92,-226.33 52.31,-228.43 45.5,-220.31 41.92,-226.33"/>
</g>
<!-- Node26&#45;&gt;Node16 -->
<g id="edge36" class="edge">
<title>Node26&#45;&gt;Node16</title>
<path fill="none" stroke="midnightblue" d="M40.2,-223.69C16.27,-210.69 -10.99,-190.36 4.9,-171 65.25,-97.49 706.75,-39.43 959.95,-19.22"/>
<polygon fill="midnightblue" stroke="midnightblue" points="38.63,-226.82 49.12,-228.3 41.84,-220.6 38.63,-226.82"/>
</g>
<!-- Node27&#45;&gt;Node4 -->
<g id="edge39" class="edge">
<title>Node27&#45;&gt;Node4</title>
<path fill="none" stroke="midnightblue" d="M2111.99,-294.54C1896.14,-294.52 963.96,-291.92 676.9,-249 595.48,-236.83 502.44,-206.81 458.48,-191.62"/>
<polygon fill="midnightblue" stroke="midnightblue" points="2112.31,-298.04 2122.31,-294.54 2112.31,-291.04 2112.31,-298.04"/>
</g>
<!-- Node27&#45;&gt;Node10 -->
<g id="edge40" class="edge">
<title>Node27&#45;&gt;Node10</title>
<path fill="none" stroke="midnightblue" d="M2112.14,-291.88C1949.13,-282.36 1389.41,-249.64 1248.37,-241.4"/>
<polygon fill="midnightblue" stroke="midnightblue" points="2112.11,-295.39 2122.3,-292.48 2112.52,-288.4 2112.11,-295.39"/>
</g>
<!-- Node28 -->
<g id="node28" class="node">
<title>Node28</title>
<g id="a_node28"><a xlink:href="_string_util_8cpp.html" target="_top" xlink:title="The StringUtil body implements several string routines not included in the standard C++ library (like...">
<polygon fill="white" stroke="black" points="2119.4,-228.5 2119.4,-248.5 2200.4,-248.5 2200.4,-228.5 2119.4,-228.5"/>
<text text-anchor="middle" x="2159.9" y="-235.7" font-family="Helvetica,sans-Serif" font-size="11.00">StringUtil.cpp</text>
</a>
</g>
</g>
<!-- Node27&#45;&gt;Node28 -->
<g id="edge41" class="edge">
<title>Node27&#45;&gt;Node28</title>
<path fill="none" stroke="midnightblue" d="M2157.95,-275.38C2158.44,-266.37 2159,-256.04 2159.4,-248.78"/>
<polygon fill="midnightblue" stroke="midnightblue" points="2154.45,-275.24 2157.4,-285.42 2161.44,-275.62 2154.45,-275.24"/>
</g>
<!-- Node29 -->
<g id="node29" class="node">
<title>Node29</title>
<g id="a_node29"><a xlink:href="_string_list_8cpp.html" target="_top" xlink:title="The StringList body implements lists of string values with zero&#45;based arbitrary indexed access to pos...">
<polygon fill="white" stroke="black" points="2218.4,-228.5 2218.4,-248.5 2301.4,-248.5 2301.4,-228.5 2218.4,-228.5"/>
<text text-anchor="middle" x="2259.9" y="-235.7" font-family="Helvetica,sans-Serif" font-size="11.00">StringList.cpp</text>
</a>
</g>
</g>
<!-- Node27&#45;&gt;Node29 -->
<g id="edge42" class="edge">
<title>Node27&#45;&gt;Node29</title>
<path fill="none" stroke="midnightblue" d="M2182.85,-280.65C2201.65,-270.61 2226.54,-257.32 2242.87,-248.6"/>
<polygon fill="midnightblue" stroke="midnightblue" points="2181.08,-277.62 2173.91,-285.42 2184.38,-283.79 2181.08,-277.62"/>
</g>
<!-- Node30 -->
<g id="node30" class="node">
<title>Node30</title>
<g id="a_node30"><a xlink:href="_string_set_8cpp.html" target="_top" xlink:title="The StringSet body implements sets of string values with no duplicates and only simple containment ac...">
<polygon fill="white" stroke="black" points="2319.4,-228.5 2319.4,-248.5 2402.4,-248.5 2402.4,-228.5 2319.4,-228.5"/>
<text text-anchor="middle" x="2360.9" y="-235.7" font-family="Helvetica,sans-Serif" font-size="11.00">StringSet.cpp</text>
</a>
</g>
</g>
<!-- Node27&#45;&gt;Node30 -->
<g id="edge43" class="edge">
<title>Node27&#45;&gt;Node30</title>
<path fill="none" stroke="midnightblue" d="M2200.36,-282.78C2238.39,-272.53 2292.81,-257.86 2327.51,-248.5"/>
<polygon fill="midnightblue" stroke="midnightblue" points="2199.33,-279.44 2190.59,-285.42 2201.16,-286.19 2199.33,-279.44"/>
</g>
<!-- Node31&#45;&gt;Node19 -->
<g id="edge45" class="edge">
<title>Node31&#45;&gt;Node19</title>
<path fill="none" stroke="midnightblue" d="M1841.67,-221.58C1830.6,-211.92 1816.85,-199.91 1807.53,-191.78"/>
<polygon fill="midnightblue" stroke="midnightblue" points="1839.67,-224.48 1849.5,-228.42 1844.27,-219.2 1839.67,-224.48"/>
</g>
<!-- Node31&#45;&gt;Node20 -->
<g id="edge46" class="edge">
<title>Node31&#45;&gt;Node20</title>
<path fill="none" stroke="midnightblue" d="M1878.09,-221.87C1889.4,-212.15 1903.55,-199.99 1913.11,-191.78"/>
<polygon fill="midnightblue" stroke="midnightblue" points="1875.78,-219.25 1870.47,-228.42 1880.34,-224.55 1875.78,-219.25"/>
</g>
<!-- Node31&#45;&gt;Node21 -->
<g id="edge47" class="edge">
<title>Node31&#45;&gt;Node21</title>
<path fill="none" stroke="midnightblue" d="M1905.78,-225.98C1946.63,-215.72 2005.57,-200.92 2043.05,-191.5"/>
<polygon fill="midnightblue" stroke="midnightblue" points="1904.91,-222.59 1896.07,-228.42 1906.62,-229.38 1904.91,-222.59"/>
</g>
<!-- Node32&#45;&gt;Node23 -->
<g id="edge49" class="edge">
<title>Node32&#45;&gt;Node23</title>
<path fill="none" stroke="midnightblue" d="M821.9,-275.17C821.9,-250.84 821.9,-210.03 821.9,-191.79"/>
<polygon fill="midnightblue" stroke="midnightblue" points="818.4,-275.33 821.9,-285.33 825.4,-275.33 818.4,-275.33"/>
</g>
<!-- Node33 -->
<g id="node33" class="node">
<title>Node33</title>
<g id="a_node33"><a xlink:href="_midi_event_list_8h.html" target="_top" xlink:title="The MidiEventList specification defines lists of MIDI events with zero&#45;based arbitrary indexed access...">
<polygon fill="white" stroke="black" points="685.4,-228.5 685.4,-248.5 774.4,-248.5 774.4,-228.5 685.4,-228.5"/>
<text text-anchor="middle" x="729.9" y="-235.7" font-family="Helvetica,sans-Serif" font-size="11.00">MidiEventList.h</text>
</a>
</g>
</g>
<!-- Node32&#45;&gt;Node33 -->
<g id="edge50" class="edge">
<title>Node32&#45;&gt;Node33</title>
<path fill="none" stroke="midnightblue" d="M798.04,-280.23C781.33,-270.24 759.51,-257.2 745.12,-248.6"/>
<polygon fill="midnightblue" stroke="midnightblue" points="796.33,-283.29 806.71,-285.42 799.92,-277.28 796.33,-283.29"/>
</g>
<!-- Node33&#45;&gt;Node25 -->
<g id="edge55" class="edge">
<title>Node33&#45;&gt;Node25</title>
<path fill="none" stroke="midnightblue" d="M723.4,-218.68C720.27,-209.6 716.64,-199.12 714.11,-191.78"/>
<polygon fill="midnightblue" stroke="midnightblue" points="720.19,-220.11 726.77,-228.42 726.81,-217.82 720.19,-220.11"/>
</g>
<!-- Node34 -->
<g id="node34" class="node">
<title>Node34</title>
<g id="a_node34"><a xlink:href="_midi_event_converter_8h.html" target="_top" xlink:title="The MidiEventConverter specification defines the handling of MIDI events by feeding them to an underl...">
<polygon fill="white" stroke="black" points="957.9,-171.5 957.9,-191.5 1077.9,-191.5 1077.9,-171.5 957.9,-171.5"/>
<text text-anchor="middle" x="1017.9" y="-178.7" font-family="Helvetica,sans-Serif" font-size="11.00">MidiEventConverter.h</text>
</a>
</g>
</g>
<!-- Node33&#45;&gt;Node34 -->
<g id="edge51" class="edge">
<title>Node33&#45;&gt;Node34</title>
<path fill="none" stroke="midnightblue" d="M784.63,-227.05C838.43,-216.77 919.69,-201.26 970.72,-191.51"/>
<polygon fill="midnightblue" stroke="midnightblue" points="783.75,-223.65 774.59,-228.97 785.07,-230.53 783.75,-223.65"/>
</g>
<!-- Node35 -->
<g id="node35" class="node">
<title>Node35</title>
<g id="a_node35"><a xlink:href="_midi_file_8h.html" target="_top" xlink:title="The MidiFile specification defines the services of a MIDI file; currently only file reading is suppor...">
<polygon fill="white" stroke="black" points="579.9,-171.5 579.9,-191.5 641.9,-191.5 641.9,-171.5 579.9,-171.5"/>
<text text-anchor="middle" x="610.9" y="-178.7" font-family="Helvetica,sans-Serif" font-size="11.00">MidiFile.h</text>
</a>
</g>
</g>
<!-- Node33&#45;&gt;Node35 -->
<g id="edge56" class="edge">
<title>Node33&#45;&gt;Node35</title>
<path fill="none" stroke="midnightblue" d="M701.11,-224.19C679.26,-214.09 649.8,-200.48 630.58,-191.6"/>
<polygon fill="midnightblue" stroke="midnightblue" points="699.71,-227.4 710.25,-228.42 702.64,-221.05 699.71,-227.4"/>
</g>
<!-- Node34&#45;&gt;Node7 -->
<g id="edge52" class="edge">
<title>Node34&#45;&gt;Node7</title>
<path fill="none" stroke="midnightblue" d="M947.92,-171.04C872.13,-160.8 752.13,-144.58 677.64,-134.52"/>
<polygon fill="midnightblue" stroke="midnightblue" points="947.47,-174.51 957.85,-172.38 948.41,-167.58 947.47,-174.51"/>
</g>
<!-- Node34&#45;&gt;Node16 -->
<g id="edge53" class="edge">
<title>Node34&#45;&gt;Node16</title>
<path fill="none" stroke="midnightblue" d="M1022.82,-161.61C1032.26,-125.36 1052.59,-47.28 1059.53,-20.63"/>
<polygon fill="midnightblue" stroke="midnightblue" points="1019.4,-160.85 1020.27,-171.41 1026.18,-162.62 1019.4,-160.85"/>
</g>
<!-- Node34&#45;&gt;Node24 -->
<g id="edge54" class="edge">
<title>Node34&#45;&gt;Node24</title>
<path fill="none" stroke="midnightblue" d="M1088.3,-174.29C1204.15,-164.01 1430.13,-143.74 1509.9,-135 1512.77,-134.69 1515.7,-134.36 1518.66,-134.01"/>
<polygon fill="midnightblue" stroke="midnightblue" points="1087.77,-170.82 1078.11,-175.19 1088.38,-177.79 1087.77,-170.82"/>
</g>
<!-- Node35&#45;&gt;Node7 -->
<g id="edge57" class="edge">
<title>Node35&#45;&gt;Node7</title>
<path fill="none" stroke="midnightblue" d="M610.9,-161.38C610.9,-152.37 610.9,-142.04 610.9,-134.78"/>
<polygon fill="midnightblue" stroke="midnightblue" points="607.4,-161.42 610.9,-171.42 614.4,-161.42 607.4,-161.42"/>
</g>
<!-- Node35&#45;&gt;Node8 -->
<g id="edge58" class="edge">
<title>Node35&#45;&gt;Node8</title>
<path fill="none" stroke="midnightblue" d="M569.48,-170.97C494.42,-155.01 418.84,-140.58 374.95,-132.36"/>
<polygon fill="midnightblue" stroke="midnightblue" points="569.08,-174.46 579.59,-173.13 570.54,-167.62 569.08,-174.46"/>
</g>
</g>
</svg>
        <g id="navigator" transform="translate(0 0)" fill="#404254">
                <rect fill="#f2f5e9" fill-opacity="0.5" stroke="#606060" stroke-width=".5" x="0" y="0" width="60" height="60"/>
                <use id="zoomplus" xlink:href="#zoomPlus" x="17" y="9" onmousedown="handleZoom(evt,'in')"/>
                <use id="zoomminus" xlink:href="#zoomMin" x="42" y="9" onmousedown="handleZoom(evt,'out')"/>
                <use id="reset" xlink:href="#resetDef" x="30" y="36" onmousedown="handleReset()"/>
                <g id="arrowUp" xlink:href="#dirArrow" transform="translate(30 24)" onmousedown="handlePan(0,-1)">
                  <use xlink:href="#rim" fill="#404040">
                        <set attributeName="fill" to="#808080" begin="arrowUp.mouseover" end="arrowUp.mouseout"/>
                  </use>
                  <path fill="none" stroke="white" stroke-width="1.5" d="M0,-3.0v7 M-2.5,-0.5L0,-3.0L2.5,-0.5"/>
                </g>
                <g id="arrowRight" xlink:href="#dirArrow" transform="rotate(90) translate(36 -43)" onmousedown="handlePan(1,0)">
                  <use xlink:href="#rim" fill="#404040">
                        <set attributeName="fill" to="#808080" begin="arrowRight.mouseover" end="arrowRight.mouseout"/>
                  </use>
                  <path fill="none" stroke="white" stroke-width="1.5" d="M0,-3.0v7 M-2.5,-0.5L0,-3.0L2.5,-0.5"/>
                </g>
                <g id="arrowDown" xlink:href="#dirArrow" transform="rotate(180) translate(-30 -48)" onmousedown="handlePan(0,1)">
                  <use xlink:href="#rim" fill="#404040">
                        <set attributeName="fill" to="#808080" begin="arrowDown.mouseover" end="arrowDown.mouseout"/>
                  </use>
                  <path fill="none" stroke="white" stroke-width="1.5" d="M0,-3.0v7 M-2.5,-0.5L0,-3.0L2.5,-0.5"/>
                </g>
                <g id="arrowLeft" xlink:href="#dirArrow" transform="rotate(270) translate(-36 17)" onmousedown="handlePan(-1,0)">
                  <use xlink:href="#rim" fill="#404040">
                        <set attributeName="fill" to="#808080" begin="arrowLeft.mouseover" end="arrowLeft.mouseout"/>
                  </use>
                  <path fill="none" stroke="white" stroke-width="1.5" d="M0,-3.0v7 M-2.5,-0.5L0,-3.0L2.5,-0.5"/>
                </g>
        </g>
        <svg viewBox="0 0 15 15" width="100%" height="30px" preserveAspectRatio="xMaxYMin meet">
         <g id="arrow_out" transform="scale(0.3 0.3)">
          <a xlink:href="_boolean_8h__dep__incl_org.svg" target="_base">
           <rect id="button" ry="5" rx="5" y="6" x="6" height="38" width="38"
                fill="#f2f5e9" fill-opacity="0.5" stroke="#606060" stroke-width="1.0"/>
           <path id="arrow"
             d="M 11.500037,31.436501 C 11.940474,20.09759 22.043105,11.32322 32.158766,21.979434 L 37.068811,17.246167 C 37.068811,17.246167 37.088388,32 37.088388,32 L 22.160133,31.978069 C 22.160133,31.978069 26.997745,27.140456 26.997745,27.140456 C 18.528582,18.264221 13.291696,25.230495 11.500037,31.436501 z"
             style="fill:#404040;"/>
          </a>
         </g>
        </svg>
</svg>
