<?xml version="1.0" encoding="UTF-8" standalone="no"?>
<!DOCTYPE svg PUBLIC "-//W3C//DTD SVG 1.1//EN"
 "http://www.w3.org/Graphics/SVG/1.1/DTD/svg11.dtd">
<!-- Generated by graphviz version 2.47.1 (20210417.1919)
 -->
<!-- Title: Boolean.h Pages: 1 -->
<!--zoomable 371 -->
<svg id="main" version="1.1" xmlns="http://www.w3.org/2000/svg" xmlns:xlink="http://www.w3.org/1999/xlink" xml:space="preserve" onload="init(evt)">
<style type="text/css"><![CDATA[
.edge:hover path { stroke: red; }
.edge:hover polygon { stroke: red; fill: red; }
]]></style>
<script type="text/javascript"><![CDATA[
var edges = document.getElementsByTagName('g');
if (edges && edges.length) {
  for (var i=0;i<edges.length;i++) {
    if (edges[i].id.substr(0,4)=='edge') {
      edges[i].setAttribute('class','edge');
    }
  }
}
]]></script>
        <defs>
                <circle id="rim" cx="0" cy="0" r="7"/>
                <circle id="rim2" cx="0" cy="0" r="3.5"/>
                <g id="zoomPlus">
                        <use xlink:href="#rim" fill="#404040">
                                <set attributeName="fill" to="#808080" begin="zoomplus.mouseover" end="zoomplus.mouseout"/>
                        </use>
                        <path d="M-4,0h8M0,-4v8" fill="none" stroke="white" stroke-width="1.5" pointer-events="none"/>
                </g>
                <g id="zoomMin">
                        <use xlink:href="#rim" fill="#404040">
                                <set attributeName="fill" to="#808080" begin="zoomminus.mouseover" end="zoomminus.mouseout"/>
                        </use>
                        <path d="M-4,0h8" fill="none" stroke="white" stroke-width="1.5" pointer-events="none"/>
                </g>
                <g id="dirArrow">
                        <path fill="none" stroke="white" stroke-width="1.5" d="M0,-3.0v7 M-2.5,-0.5L0,-3.0L2.5,-0.5"/>
                </g>
               <g id="resetDef">
                       <use xlink:href="#rim2" fill="#404040">
                               <set attributeName="fill" to="#808080" begin="reset.mouseover" end="reset.mouseout"/>
                       </use>
               </g>
        </defs>

<script type="text/javascript">
var viewWidth = 2495;
var viewHeight = 371;
var sectionId = 'dynsection-1';
</script>
<script xlink:href="svgpan.js"/>
<svg id="graph" class="graph">
<g id="viewport">
<title>Boolean.h</title>
<polygon fill="white" stroke="transparent" points="-4,4 -4,-367 2490.5,-367 2490.5,4 -4,4"/>
<!-- Node1 -->
<g id="node1" class="node">
<title>Node1</title>
<g id="a_node1"><a xlink:title="The Boolean specification and body provides a value object type for boolean values.">
<polygon fill="#bfbfbf" stroke="black" points="1096.5,-342.5 1096.5,-362.5 1161.5,-362.5 1161.5,-342.5 1096.5,-342.5"/>
<text text-anchor="middle" x="1129" y="-349.7" font-family="Helvetica,sans-Serif" font-size="11.00">Boolean.h</text>
</a>
</g>
</g>
<!-- Node2 -->
<g id="node2" class="node">
<title>Node2</title>
<g id="a_node2"><a xlink:href="_file_8h.html" target="_top" xlink:title="The File specification defines a class for simple file handling based on C stdio.">
<polygon fill="white" stroke="black" points="342.5,-228.5 342.5,-248.5 385.5,-248.5 385.5,-228.5 342.5,-228.5"/>
<text text-anchor="middle" x="364" y="-235.7" font-family="Helvetica,sans-Serif" font-size="11.00">File.h</text>
</a>
</g>
</g>
<!-- Node1&#45;&gt;Node2 -->
<g id="edge1" class="edge">
<title>Node1&#45;&gt;Node2</title>
<path fill="none" stroke="midnightblue" d="M1086.04,-345.21C943.68,-324.37 490.53,-258.02 385.76,-242.69"/>
<polygon fill="midnightblue" stroke="midnightblue" points="1085.73,-348.7 1096.13,-346.69 1086.74,-341.78 1085.73,-348.7"/>
</g>
<!-- Node9 -->
<g id="node9" class="node">
<title>Node9</title>
<g id="a_node9"><a xlink:href="_logging_support_8h.html" target="_top" xlink:title="The LoggingSupport specification defines a class for simple entry/exit logging to a file or via an ar...">
<polygon fill="white" stroke="black" points="1078,-285.5 1078,-305.5 1180,-305.5 1180,-285.5 1078,-285.5"/>
<text text-anchor="middle" x="1129" y="-292.7" font-family="Helvetica,sans-Serif" font-size="11.00">LoggingSupport.h</text>
</a>
</g>
</g>
<!-- Node1&#45;&gt;Node9 -->
<g id="edge8" class="edge">
<title>Node1&#45;&gt;Node9</title>
<path fill="none" stroke="midnightblue" d="M1129,-332.38C1129,-323.37 1129,-313.04 1129,-305.78"/>
<polygon fill="midnightblue" stroke="midnightblue" points="1125.5,-332.42 1129,-342.42 1132.5,-332.42 1125.5,-332.42"/>
</g>
<!-- Node24 -->
<g id="node24" class="node">
<title>Node24</title>
<g id="a_node24"><a xlink:href="_midi_event_converter_8cpp.html" target="_top" xlink:title="The MidiEventConverter module implements the handling of MIDI events by feeding them to an underlying...">
<polygon fill="white" stroke="black" points="1303,-114.5 1303,-134.5 1435,-134.5 1435,-114.5 1303,-114.5"/>
<text text-anchor="middle" x="1369" y="-121.7" font-family="Helvetica,sans-Serif" font-size="11.00">MidiEventConverter.cpp</text>
</a>
</g>
</g>
<!-- Node1&#45;&gt;Node24 -->
<g id="edge60" class="edge">
<title>Node1&#45;&gt;Node24</title>
<path fill="none" stroke="midnightblue" d="M1171.86,-348.71C1365.84,-335.62 2154.88,-277.37 2220,-192 2225.66,-184.58 2226.44,-177.75 2220,-171 2190.24,-139.82 1487.94,-138.68 1445,-135 1441.82,-134.73 1438.57,-134.42 1435.29,-134.09"/>
<polygon fill="midnightblue" stroke="midnightblue" points="1171.51,-345.22 1161.77,-349.38 1171.98,-352.21 1171.51,-345.22"/>
</g>
<!-- Node26 -->
<g id="node26" class="node">
<title>Node26</title>
<g id="a_node26"><a xlink:href="_operating_system_8h.html" target="_top" xlink:title="The OperatingSystem specification defines a class for several operating system related utility functi...">
<polygon fill="white" stroke="black" points="200.5,-228.5 200.5,-248.5 311.5,-248.5 311.5,-228.5 200.5,-228.5"/>
<text text-anchor="middle" x="256" y="-235.7" font-family="Helvetica,sans-Serif" font-size="11.00">OperatingSystem.h</text>
</a>
</g>
</g>
<!-- Node1&#45;&gt;Node26 -->
<g id="edge32" class="edge">
<title>Node1&#45;&gt;Node26</title>
<path fill="none" stroke="midnightblue" d="M1086.1,-348.05C1005.3,-341.36 825.07,-325.55 674,-306 541,-288.79 385.2,-262.32 306.69,-248.54"/>
<polygon fill="midnightblue" stroke="midnightblue" points="1086.12,-351.56 1096.37,-348.89 1086.7,-344.58 1086.12,-351.56"/>
</g>
<!-- Node27 -->
<g id="node27" class="node">
<title>Node27</title>
<g id="a_node27"><a xlink:href="_string_util_8h.html" target="_top" xlink:title="The StringUtil specification defines several string routines not included in the standard C++ library...">
<polygon fill="white" stroke="black" points="2200.5,-285.5 2200.5,-305.5 2269.5,-305.5 2269.5,-285.5 2200.5,-285.5"/>
<text text-anchor="middle" x="2235" y="-292.7" font-family="Helvetica,sans-Serif" font-size="11.00">StringUtil.h</text>
</a>
</g>
</g>
<!-- Node1&#45;&gt;Node27 -->
<g id="edge39" class="edge">
<title>Node1&#45;&gt;Node27</title>
<path fill="none" stroke="midnightblue" d="M1172.08,-351.76C1315.88,-352.17 1792.35,-349.91 2183,-306 2188.65,-305.36 2194.62,-304.48 2200.41,-303.5"/>
<polygon fill="midnightblue" stroke="midnightblue" points="1171.92,-348.26 1161.91,-351.72 1171.9,-355.26 1171.92,-348.26"/>
</g>
<!-- Node31 -->
<g id="node31" class="node">
<title>Node31</title>
<g id="a_node31"><a xlink:href="_dynamic_library_8h.html" target="_top" xlink:title="The DynamicLibrary class specifies a very simple and crude wrapper around the dynamic library loading...">
<polygon fill="white" stroke="black" points="1901,-228.5 1901,-248.5 2003,-248.5 2003,-228.5 1901,-228.5"/>
<text text-anchor="middle" x="1952" y="-235.7" font-family="Helvetica,sans-Serif" font-size="11.00">DynamicLibrary.h</text>
</a>
</g>
</g>
<!-- Node1&#45;&gt;Node31 -->
<g id="edge45" class="edge">
<title>Node1&#45;&gt;Node31</title>
<path fill="none" stroke="midnightblue" d="M1171.77,-345.68C1310.92,-326.74 1750.45,-266.93 1900.9,-246.45"/>
<polygon fill="midnightblue" stroke="midnightblue" points="1170.95,-342.26 1161.52,-347.07 1171.9,-349.19 1170.95,-342.26"/>
</g>
<!-- Node32 -->
<g id="node32" class="node">
<title>Node32</title>
<g id="a_node32"><a xlink:href="_midi_event_8h.html" target="_top" xlink:title="The MidiEvent specification defines a single MIDI event and the MIDI event kind enumeration.">
<polygon fill="white" stroke="black" points="844,-285.5 844,-305.5 916,-305.5 916,-285.5 844,-285.5"/>
<text text-anchor="middle" x="880" y="-292.7" font-family="Helvetica,sans-Serif" font-size="11.00">MidiEvent.h</text>
</a>
</g>
</g>
<!-- Node1&#45;&gt;Node32 -->
<g id="edge49" class="edge">
<title>Node1&#45;&gt;Node32</title>
<path fill="none" stroke="midnightblue" d="M1086.39,-342.09C1038.43,-331.49 961.35,-314.47 916.19,-304.49"/>
<polygon fill="midnightblue" stroke="midnightblue" points="1085.93,-345.57 1096.45,-344.31 1087.44,-338.74 1085.93,-345.57"/>
</g>
<!-- Node3 -->
<g id="node3" class="node">
<title>Node3</title>
<g id="a_node3"><a xlink:href="_wave_file_8cpp.html" target="_top" xlink:title="The WaveFile specification defines an object for accessing a RIFF wave file with several channels.">
<polygon fill="white" stroke="black" points="322.5,-171.5 322.5,-191.5 405.5,-191.5 405.5,-171.5 322.5,-171.5"/>
<text text-anchor="middle" x="364" y="-178.7" font-family="Helvetica,sans-Serif" font-size="11.00">WaveFile.cpp</text>
</a>
</g>
</g>
<!-- Node2&#45;&gt;Node3 -->
<g id="edge2" class="edge">
<title>Node2&#45;&gt;Node3</title>
<path fill="none" stroke="midnightblue" d="M364,-218.38C364,-209.37 364,-199.04 364,-191.78"/>
<polygon fill="midnightblue" stroke="midnightblue" points="360.5,-218.42 364,-228.42 367.5,-218.42 360.5,-218.42"/>
</g>
<!-- Node4 -->
<g id="node4" class="node">
<title>Node4</title>
<g id="a_node4"><a xlink:href="_file_8cpp.html" target="_top" xlink:title="The File body implements a class for simple file handling based on C stdio.">
<polygon fill="white" stroke="black" points="564.5,-171.5 564.5,-191.5 619.5,-191.5 619.5,-171.5 564.5,-171.5"/>
<text text-anchor="middle" x="592" y="-178.7" font-family="Helvetica,sans-Serif" font-size="11.00">File.cpp</text>
</a>
</g>
</g>
<!-- Node2&#45;&gt;Node4 -->
<g id="edge3" class="edge">
<title>Node2&#45;&gt;Node4</title>
<path fill="none" stroke="midnightblue" d="M395.43,-230.19C433.32,-221.34 498.89,-205.88 555,-192 557.96,-191.27 561.05,-190.49 564.13,-189.71"/>
<polygon fill="midnightblue" stroke="midnightblue" points="394.46,-226.82 385.51,-232.5 396.05,-233.64 394.46,-226.82"/>
</g>
<!-- Node5 -->
<g id="node5" class="node">
<title>Node5</title>
<g id="a_node5"><a xlink:href="_logging_support_8cpp.html" target="_top" xlink:title="The LoggingSupport body implements a class for simple entry/exit logging to a file or via a callback ...">
<polygon fill="white" stroke="black" points="0,-171.5 0,-191.5 114,-191.5 114,-171.5 0,-171.5"/>
<text text-anchor="middle" x="57" y="-178.7" font-family="Helvetica,sans-Serif" font-size="11.00">LoggingSupport.cpp</text>
</a>
</g>
</g>
<!-- Node2&#45;&gt;Node5 -->
<g id="edge4" class="edge">
<title>Node2&#45;&gt;Node5</title>
<path fill="none" stroke="midnightblue" d="M332.17,-230.46C328.08,-229.61 323.94,-228.77 320,-228 248.81,-214.16 166.37,-200.24 113.05,-191.51"/>
<polygon fill="midnightblue" stroke="midnightblue" points="331.59,-233.92 342.1,-232.59 333.05,-227.07 331.59,-233.92"/>
</g>
<!-- Node6 -->
<g id="node6" class="node">
<title>Node6</title>
<g id="a_node6"><a xlink:href="_operating_system_8cpp.html" target="_top" xlink:title="The OperatingSystem body implements a class for several operating system related utility functions (l...">
<polygon fill="white" stroke="black" points="423.5,-171.5 423.5,-191.5 546.5,-191.5 546.5,-171.5 423.5,-171.5"/>
<text text-anchor="middle" x="485" y="-178.7" font-family="Helvetica,sans-Serif" font-size="11.00">OperatingSystem.cpp</text>
</a>
</g>
</g>
<!-- Node2&#45;&gt;Node6 -->
<g id="edge5" class="edge">
<title>Node2&#45;&gt;Node6</title>
<path fill="none" stroke="midnightblue" d="M393.28,-224.19C415.49,-214.09 445.45,-200.48 464.99,-191.6"/>
<polygon fill="midnightblue" stroke="midnightblue" points="391.64,-221.09 383.98,-228.42 394.53,-227.47 391.64,-221.09"/>
</g>
<!-- Node7 -->
<g id="node7" class="node">
<title>Node7</title>
<g id="a_node7"><a xlink:href="_fluid_synth_file_converter_8cpp.html" target="_top" xlink:title="The FluidSynthFileConverter module implements a conversion from a MIDI file into a wave file using th...">
<polygon fill="white" stroke="black" points="592,-114.5 592,-134.5 746,-134.5 746,-114.5 592,-114.5"/>
<text text-anchor="middle" x="669" y="-121.7" font-family="Helvetica,sans-Serif" font-size="11.00">FluidSynthFileConverter.cpp</text>
</a>
</g>
</g>
<!-- Node2&#45;&gt;Node7 -->
<g id="edge6" class="edge">
<title>Node2&#45;&gt;Node7</title>
<path fill="none" stroke="midnightblue" d="M339.84,-222.77C320.2,-208.98 298.01,-188.03 313,-171 331.12,-150.42 492.59,-136.63 591.74,-130.02"/>
<polygon fill="midnightblue" stroke="midnightblue" points="338,-225.74 348.26,-228.38 341.88,-219.92 338,-225.74"/>
</g>
<!-- Node8 -->
<g id="node8" class="node">
<title>Node8</title>
<g id="a_node8"><a xlink:href="_midi_file_8cpp.html" target="_top" xlink:title="The MidiFile implementation implements the services of a MIDI file; currently only file reading is su...">
<polygon fill="white" stroke="black" points="340,-114.5 340,-134.5 414,-134.5 414,-114.5 340,-114.5"/>
<text text-anchor="middle" x="377" y="-121.7" font-family="Helvetica,sans-Serif" font-size="11.00">MidiFile.cpp</text>
</a>
</g>
</g>
<!-- Node2&#45;&gt;Node8 -->
<g id="edge7" class="edge">
<title>Node2&#45;&gt;Node8</title>
<path fill="none" stroke="midnightblue" d="M332.64,-227.78C302.48,-216.68 263.69,-196.67 280,-171 293.07,-150.43 318.16,-139 339.55,-132.74"/>
<polygon fill="midnightblue" stroke="midnightblue" points="331.86,-231.22 342.45,-231.2 334.16,-224.61 331.86,-231.22"/>
</g>
<!-- Node9&#45;&gt;Node5 -->
<g id="edge31" class="edge">
<title>Node9&#45;&gt;Node5</title>
<path fill="none" stroke="midnightblue" d="M1067.78,-291.61C860.31,-281.82 196.32,-250.39 191,-249 144,-236.77 94.16,-206.92 70.71,-191.72"/>
<polygon fill="midnightblue" stroke="midnightblue" points="1067.74,-295.12 1077.9,-292.09 1068.07,-288.12 1067.74,-295.12"/>
</g>
<!-- Node10 -->
<g id="node10" class="node">
<title>Node10</title>
<g id="a_node10"><a xlink:href="_logging_8h.html" target="_top" xlink:title="The Logging specification defines macros for entry&#45;, exit&#45; and intermediate logging of functions into...">
<polygon fill="white" stroke="black" points="1242,-228.5 1242,-248.5 1306,-248.5 1306,-228.5 1242,-228.5"/>
<text text-anchor="middle" x="1274" y="-235.7" font-family="Helvetica,sans-Serif" font-size="11.00">Logging.h</text>
</a>
</g>
</g>
<!-- Node9&#45;&gt;Node10 -->
<g id="edge9" class="edge">
<title>Node9&#45;&gt;Node10</title>
<path fill="none" stroke="midnightblue" d="M1162.31,-281.87C1189.09,-271.71 1226.08,-257.68 1250.02,-248.6"/>
<polygon fill="midnightblue" stroke="midnightblue" points="1161.05,-278.6 1152.94,-285.42 1163.54,-285.14 1161.05,-278.6"/>
</g>
<!-- Node10&#45;&gt;Node3 -->
<g id="edge18" class="edge">
<title>Node10&#45;&gt;Node3</title>
<path fill="none" stroke="midnightblue" d="M1231.53,-237.28C1106.06,-236.18 726.26,-229.75 414,-192 411.28,-191.67 408.49,-191.28 405.68,-190.85"/>
<polygon fill="midnightblue" stroke="midnightblue" points="1231.82,-240.78 1241.85,-237.36 1231.88,-233.78 1231.82,-240.78"/>
</g>
<!-- Node10&#45;&gt;Node6 -->
<g id="edge20" class="edge">
<title>Node10&#45;&gt;Node6</title>
<path fill="none" stroke="midnightblue" d="M1231.55,-235.88C1120.3,-231.4 811.22,-217.46 555,-192 552.32,-191.73 549.57,-191.44 546.81,-191.13"/>
<polygon fill="midnightblue" stroke="midnightblue" points="1231.55,-239.38 1241.68,-236.28 1231.83,-232.39 1231.55,-239.38"/>
</g>
<!-- Node10&#45;&gt;Node7 -->
<g id="edge24" class="edge">
<title>Node10&#45;&gt;Node7</title>
<path fill="none" stroke="midnightblue" d="M1231.52,-234.03C1178.08,-228.81 1084,-216.8 1007,-192 986.76,-185.48 984.3,-177.36 964,-171 892.05,-148.45 806.59,-136.84 746.22,-131.01"/>
<polygon fill="midnightblue" stroke="midnightblue" points="1231.36,-237.53 1241.65,-234.98 1232.02,-230.56 1231.36,-237.53"/>
</g>
<!-- Node10&#45;&gt;Node8 -->
<g id="edge30" class="edge">
<title>Node10&#45;&gt;Node8</title>
<path fill="none" stroke="midnightblue" d="M1231.64,-236.85C1170.63,-234.69 1055.33,-225.98 964,-192 947.71,-185.94 947.48,-176.54 931,-171 882.23,-154.6 530.29,-133.95 414.11,-127.51"/>
<polygon fill="midnightblue" stroke="midnightblue" points="1231.57,-240.35 1241.67,-237.16 1231.78,-233.35 1231.57,-240.35"/>
</g>
<!-- Node11 -->
<g id="node11" class="node">
<title>Node11</title>
<g id="a_node11"><a xlink:href="_audio_sample_fifo_queue_8cpp-inc.html" target="_top" xlink:title="The AudioSampleFifoQueue body implements a fifo queue for audio samples with popping off access to th...">
<polygon fill="white" stroke="black" points="1621.5,-171.5 1621.5,-191.5 1792.5,-191.5 1792.5,-171.5 1621.5,-171.5"/>
<text text-anchor="middle" x="1707" y="-178.7" font-family="Helvetica,sans-Serif" font-size="11.00">AudioSampleFifoQueue.cpp&#45;inc</text>
</a>
</g>
</g>
<!-- Node10&#45;&gt;Node11 -->
<g id="edge10" class="edge">
<title>Node10&#45;&gt;Node11</title>
<path fill="none" stroke="midnightblue" d="M1316.56,-232.09C1390.89,-222.65 1545.08,-203.07 1635.87,-191.53"/>
<polygon fill="midnightblue" stroke="midnightblue" points="1315.67,-228.68 1306.19,-233.41 1316.55,-235.62 1315.67,-228.68"/>
</g>
<!-- Node16 -->
<g id="node16" class="node">
<title>Node16</title>
<g id="a_node16"><a xlink:href="_fluid_synth_plugin___event_processor_8cpp.html" target="_top" xlink:title="The FluidSynthPlugin_Processor module implements the handling of MIDI events from the DAW via JUCE ha...">
<polygon fill="white" stroke="black" points="1018.5,-0.5 1018.5,-20.5 1221.5,-20.5 1221.5,-0.5 1018.5,-0.5"/>
<text text-anchor="middle" x="1120" y="-7.7" font-family="Helvetica,sans-Serif" font-size="11.00">FluidSynthPlugin_EventProcessor.cpp</text>
</a>
</g>
</g>
<!-- Node10&#45;&gt;Node16 -->
<g id="edge26" class="edge">
<title>Node10&#45;&gt;Node16</title>
<path fill="none" stroke="midnightblue" d="M1233.39,-224.68C1216.16,-217.47 1197.08,-206.86 1184,-192 1137.21,-138.84 1123.98,-49.19 1120.85,-20.57"/>
<polygon fill="midnightblue" stroke="midnightblue" points="1232.14,-227.95 1242.72,-228.35 1234.69,-221.43 1232.14,-227.95"/>
</g>
<!-- Node17 -->
<g id="node17" class="node">
<title>Node17</title>
<g id="a_node17"><a xlink:href="_audio_sample_fifo_queue_vector_8cpp-inc.html" target="_top" xlink:title="The AudioSampleFifoQueueVector body implements a list of fifo queues for audio samples (this is the e...">
<polygon fill="white" stroke="black" points="1453.5,-114.5 1453.5,-134.5 1656.5,-134.5 1656.5,-114.5 1453.5,-114.5"/>
<text text-anchor="middle" x="1555" y="-121.7" font-family="Helvetica,sans-Serif" font-size="11.00">AudioSampleFifoQueueVector.cpp&#45;inc</text>
</a>
</g>
</g>
<!-- Node10&#45;&gt;Node17 -->
<g id="edge16" class="edge">
<title>Node10&#45;&gt;Node17</title>
<path fill="none" stroke="midnightblue" d="M1316.38,-236.83C1386.39,-234.75 1521.51,-226.28 1552,-192 1566.13,-176.11 1561.5,-148.71 1557.77,-134.55"/>
<polygon fill="midnightblue" stroke="midnightblue" points="1316.04,-233.34 1306.14,-237.11 1316.23,-240.34 1316.04,-233.34"/>
</g>
<!-- Node18 -->
<g id="node18" class="node">
<title>Node18</title>
<g id="a_node18"><a xlink:href="_command_line_arguments_8cpp.html" target="_top" xlink:title="The CommandLineArguments body implements a handler for command&#45;line arguments converting them to a li...">
<polygon fill="white" stroke="black" points="1192.5,-171.5 1192.5,-191.5 1355.5,-191.5 1355.5,-171.5 1192.5,-171.5"/>
<text text-anchor="middle" x="1274" y="-178.7" font-family="Helvetica,sans-Serif" font-size="11.00">CommandLineArguments.cpp</text>
</a>
</g>
</g>
<!-- Node10&#45;&gt;Node18 -->
<g id="edge19" class="edge">
<title>Node10&#45;&gt;Node18</title>
<path fill="none" stroke="midnightblue" d="M1274,-218.38C1274,-209.37 1274,-199.04 1274,-191.78"/>
<polygon fill="midnightblue" stroke="midnightblue" points="1270.5,-218.42 1274,-228.42 1277.5,-218.42 1270.5,-218.42"/>
</g>
<!-- Node19 -->
<g id="node19" class="node">
<title>Node19</title>
<g id="a_node19"><a xlink:href="_fluid_synth_8cpp.html" target="_top" xlink:title="The FluidSynth class implements the access to the fluidsynth library via a dynamic loading of it.">
<polygon fill="white" stroke="black" points="1975.5,-171.5 1975.5,-191.5 2064.5,-191.5 2064.5,-171.5 1975.5,-171.5"/>
<text text-anchor="middle" x="2020" y="-178.7" font-family="Helvetica,sans-Serif" font-size="11.00">FluidSynth.cpp</text>
</a>
</g>
</g>
<!-- Node10&#45;&gt;Node19 -->
<g id="edge21" class="edge">
<title>Node10&#45;&gt;Node19</title>
<path fill="none" stroke="midnightblue" d="M1316.39,-236.31C1424.83,-232.93 1721.04,-221.51 1966,-192 1969.02,-191.64 1972.14,-191.21 1975.27,-190.75"/>
<polygon fill="midnightblue" stroke="midnightblue" points="1316.08,-232.82 1306.19,-236.62 1316.29,-239.82 1316.08,-232.82"/>
</g>
<!-- Node20 -->
<g id="node20" class="node">
<title>Node20</title>
<g id="a_node20"><a xlink:href="_fluid_synth_settings_8cpp.html" target="_top" xlink:title="The FluidSynthSettings class implements an object&#45;oriented wrapper around an underlying fluidsynth se...">
<polygon fill="white" stroke="black" points="2083,-171.5 2083,-191.5 2211,-191.5 2211,-171.5 2083,-171.5"/>
<text text-anchor="middle" x="2147" y="-178.7" font-family="Helvetica,sans-Serif" font-size="11.00">FluidSynthSettings.cpp</text>
</a>
</g>
</g>
<!-- Node10&#45;&gt;Node20 -->
<g id="edge22" class="edge">
<title>Node10&#45;&gt;Node20</title>
<path fill="none" stroke="midnightblue" d="M1316.23,-236.18C1435.49,-232.21 1784.93,-218.99 2074,-192 2076.93,-191.73 2079.92,-191.43 2082.94,-191.1"/>
<polygon fill="midnightblue" stroke="midnightblue" points="1315.95,-232.69 1306.07,-236.51 1316.18,-239.68 1315.95,-232.69"/>
</g>
<!-- Node21 -->
<g id="node21" class="node">
<title>Node21</title>
<g id="a_node21"><a xlink:href="_fluid_synth_synthesizer_8cpp.html" target="_top" xlink:title="The FluidSynthSynthesizer class implements an object&#45;oriented wrapper around an underlying fluidsynth...">
<polygon fill="white" stroke="black" points="1811,-171.5 1811,-191.5 1957,-191.5 1957,-171.5 1811,-171.5"/>
<text text-anchor="middle" x="1884" y="-178.7" font-family="Helvetica,sans-Serif" font-size="11.00">FluidSynthSynthesizer.cpp</text>
</a>
</g>
</g>
<!-- Node10&#45;&gt;Node21 -->
<g id="edge23" class="edge">
<title>Node10&#45;&gt;Node21</title>
<path fill="none" stroke="midnightblue" d="M1316.21,-234.29C1405.79,-227.37 1621.49,-210.23 1802,-192 1804.85,-191.71 1807.76,-191.41 1810.69,-191.1"/>
<polygon fill="midnightblue" stroke="midnightblue" points="1315.88,-230.8 1306.17,-235.06 1316.41,-237.78 1315.88,-230.8"/>
</g>
<!-- Node22 -->
<g id="node22" class="node">
<title>Node22</title>
<g id="a_node22"><a xlink:href="_fluid_synth_plugin___editor_8cpp.html" target="_top" xlink:title="The FluidSynthPlugin_Editor module implements the editor for the processor of MIDI events from the DA...">
<polygon fill="white" stroke="black" points="1373.5,-171.5 1373.5,-191.5 1526.5,-191.5 1526.5,-171.5 1373.5,-171.5"/>
<text text-anchor="middle" x="1450" y="-178.7" font-family="Helvetica,sans-Serif" font-size="11.00">FluidSynthPlugin_Editor.cpp</text>
</a>
</g>
</g>
<!-- Node10&#45;&gt;Node22 -->
<g id="edge25" class="edge">
<title>Node10&#45;&gt;Node22</title>
<path fill="none" stroke="midnightblue" d="M1312.76,-225.39C1345.49,-215.16 1391.64,-200.74 1421.19,-191.5"/>
<polygon fill="midnightblue" stroke="midnightblue" points="1311.56,-222.09 1303.06,-228.42 1313.65,-228.78 1311.56,-222.09"/>
</g>
<!-- Node23 -->
<g id="node23" class="node">
<title>Node23</title>
<g id="a_node23"><a xlink:href="_midi_event_8cpp.html" target="_top" xlink:title="The MidiEvent implementation defines the services of a single MIDI event.">
<polygon fill="white" stroke="black" points="838,-171.5 838,-191.5 922,-191.5 922,-171.5 838,-171.5"/>
<text text-anchor="middle" x="880" y="-178.7" font-family="Helvetica,sans-Serif" font-size="11.00">MidiEvent.cpp</text>
</a>
</g>
</g>
<!-- Node10&#45;&gt;Node23 -->
<g id="edge27" class="edge">
<title>Node10&#45;&gt;Node23</title>
<path fill="none" stroke="midnightblue" d="M1231.67,-232.27C1167.6,-224.26 1042.19,-208.15 936,-192 931.52,-191.32 926.83,-190.57 922.17,-189.81"/>
<polygon fill="midnightblue" stroke="midnightblue" points="1231.43,-235.77 1241.79,-233.54 1232.3,-228.83 1231.43,-235.77"/>
</g>
<!-- Node10&#45;&gt;Node24 -->
<g id="edge28" class="edge">
<title>Node10&#45;&gt;Node24</title>
<path fill="none" stroke="midnightblue" d="M1316.32,-236.51C1383.15,-233.94 1508.42,-224.78 1536,-192 1542.01,-184.86 1541.67,-178.42 1536,-171 1523.09,-154.11 1473.43,-141.99 1431.59,-134.53"/>
<polygon fill="midnightblue" stroke="midnightblue" points="1315.99,-233.02 1306.11,-236.86 1316.23,-240.01 1315.99,-233.02"/>
</g>
<!-- Node25 -->
<g id="node25" class="node">
<title>Node25</title>
<g id="a_node25"><a xlink:href="_midi_event_list_8cpp.html" target="_top" xlink:title="The MIDIEventList body implements sequences of integer values with zero&#45;based arbitrary indexed acces...">
<polygon fill="white" stroke="black" points="718.5,-171.5 718.5,-191.5 819.5,-191.5 819.5,-171.5 718.5,-171.5"/>
<text text-anchor="middle" x="769" y="-178.7" font-family="Helvetica,sans-Serif" font-size="11.00">MidiEventList.cpp</text>
</a>
</g>
</g>
<!-- Node10&#45;&gt;Node25 -->
<g id="edge29" class="edge">
<title>Node10&#45;&gt;Node25</title>
<path fill="none" stroke="midnightblue" d="M1231.75,-233.96C1152.59,-227.16 976.59,-211.21 829,-192 825.97,-191.61 822.85,-191.18 819.71,-190.73"/>
<polygon fill="midnightblue" stroke="midnightblue" points="1231.56,-237.46 1241.82,-234.82 1232.15,-230.48 1231.56,-237.46"/>
</g>
<!-- Node12 -->
<g id="node12" class="node">
<title>Node12</title>
<g id="a_node12"><a xlink:href="_audio_sample_fifo_queue_8h.html" target="_top" xlink:title="The AudioSampleFifoQueue specification defines a fifo queue for audio samples with popping off access...">
<polygon fill="white" stroke="black" points="1674.5,-114.5 1674.5,-134.5 1815.5,-134.5 1815.5,-114.5 1674.5,-114.5"/>
<text text-anchor="middle" x="1745" y="-121.7" font-family="Helvetica,sans-Serif" font-size="11.00">AudioSampleFifoQueue.h</text>
</a>
</g>
</g>
<!-- Node11&#45;&gt;Node12 -->
<g id="edge11" class="edge">
<title>Node11&#45;&gt;Node12</title>
<path fill="none" stroke="midnightblue" d="M1718.99,-163.15C1725.48,-153.75 1733.24,-142.52 1738.59,-134.78"/>
<polygon fill="midnightblue" stroke="midnightblue" points="1716.08,-161.2 1713.27,-171.42 1721.84,-165.18 1716.08,-161.2"/>
</g>
<!-- Node13 -->
<g id="node13" class="node">
<title>Node13</title>
<g id="a_node13"><a xlink:href="_audio_sample_fifo_queue_8cpp.html" target="_top" xlink:title="The AudioSampleFifoQueue body implements a fifo queue for audio samples with popping off access to th...">
<polygon fill="white" stroke="black" points="1668.5,-57.5 1668.5,-77.5 1821.5,-77.5 1821.5,-57.5 1668.5,-57.5"/>
<text text-anchor="middle" x="1745" y="-64.7" font-family="Helvetica,sans-Serif" font-size="11.00">AudioSampleFifoQueue.cpp</text>
</a>
</g>
</g>
<!-- Node12&#45;&gt;Node13 -->
<g id="edge12" class="edge">
<title>Node12&#45;&gt;Node13</title>
<path fill="none" stroke="midnightblue" d="M1745,-104.38C1745,-95.37 1745,-85.04 1745,-77.78"/>
<polygon fill="midnightblue" stroke="midnightblue" points="1741.5,-104.42 1745,-114.42 1748.5,-104.42 1741.5,-104.42"/>
</g>
<!-- Node14 -->
<g id="node14" class="node">
<title>Node14</title>
<g id="a_node14"><a xlink:href="_audio_sample_fifo_queue_vector_8h.html" target="_top" xlink:title="The AudioSampleFifoQueueVector specification defines a list of fifo queues for audio samples.">
<polygon fill="white" stroke="black" points="1468.5,-57.5 1468.5,-77.5 1641.5,-77.5 1641.5,-57.5 1468.5,-57.5"/>
<text text-anchor="middle" x="1555" y="-64.7" font-family="Helvetica,sans-Serif" font-size="11.00">AudioSampleFifoQueueVector.h</text>
</a>
</g>
</g>
<!-- Node12&#45;&gt;Node14 -->
<g id="edge13" class="edge">
<title>Node12&#45;&gt;Node14</title>
<path fill="none" stroke="midnightblue" d="M1703.61,-111.52C1668.25,-101.28 1618.14,-86.78 1586.11,-77.5"/>
<polygon fill="midnightblue" stroke="midnightblue" points="1703.05,-115 1713.63,-114.42 1704.99,-108.28 1703.05,-115"/>
</g>
<!-- Node15 -->
<g id="node15" class="node">
<title>Node15</title>
<g id="a_node15"><a xlink:href="_audio_sample_fifo_queue_vector_8cpp.html" target="_top" xlink:title="The AudioSampleFifoQueueVector body implements a list of fifo queues for audio samples (this is the f...">
<polygon fill="white" stroke="black" points="1462.5,-0.5 1462.5,-20.5 1647.5,-20.5 1647.5,-0.5 1462.5,-0.5"/>
<text text-anchor="middle" x="1555" y="-7.7" font-family="Helvetica,sans-Serif" font-size="11.00">AudioSampleFifoQueueVector.cpp</text>
</a>
</g>
</g>
<!-- Node14&#45;&gt;Node15 -->
<g id="edge14" class="edge">
<title>Node14&#45;&gt;Node15</title>
<path fill="none" stroke="midnightblue" d="M1555,-47.38C1555,-38.37 1555,-28.04 1555,-20.78"/>
<polygon fill="midnightblue" stroke="midnightblue" points="1551.5,-47.42 1555,-57.42 1558.5,-47.42 1551.5,-47.42"/>
</g>
<!-- Node14&#45;&gt;Node16 -->
<g id="edge15" class="edge">
<title>Node14&#45;&gt;Node16</title>
<path fill="none" stroke="midnightblue" d="M1473.47,-56.19C1392.27,-45.92 1268.83,-30.32 1191.38,-20.53"/>
<polygon fill="midnightblue" stroke="midnightblue" points="1473.3,-59.7 1483.66,-57.48 1474.17,-52.75 1473.3,-59.7"/>
</g>
<!-- Node17&#45;&gt;Node14 -->
<g id="edge17" class="edge">
<title>Node17&#45;&gt;Node14</title>
<path fill="none" stroke="midnightblue" d="M1555,-104.38C1555,-95.37 1555,-85.04 1555,-77.78"/>
<polygon fill="midnightblue" stroke="midnightblue" points="1551.5,-104.42 1555,-114.42 1558.5,-104.42 1551.5,-104.42"/>
</g>
<!-- Node26&#45;&gt;Node3 -->
<g id="edge33" class="edge">
<title>Node26&#45;&gt;Node3</title>
<path fill="none" stroke="midnightblue" d="M282.94,-223.78C302.68,-213.73 328.93,-200.36 346.14,-191.6"/>
<polygon fill="midnightblue" stroke="midnightblue" points="281.16,-220.76 273.83,-228.42 284.33,-227 281.16,-220.76"/>
</g>
<!-- Node26&#45;&gt;Node5 -->
<g id="edge34" class="edge">
<title>Node26&#45;&gt;Node5</title>
<path fill="none" stroke="midnightblue" d="M213.13,-225.65C176.06,-215.41 123.28,-200.82 89.58,-191.5"/>
<polygon fill="midnightblue" stroke="midnightblue" points="212.57,-229.13 223.14,-228.42 214.43,-222.38 212.57,-229.13"/>
</g>
<!-- Node26&#45;&gt;Node6 -->
<g id="edge35" class="edge">
<title>Node26&#45;&gt;Node6</title>
<path fill="none" stroke="midnightblue" d="M303.44,-226.11C346.14,-215.85 408.06,-200.98 447.42,-191.53"/>
<polygon fill="midnightblue" stroke="midnightblue" points="302.46,-222.74 293.56,-228.48 304.1,-229.55 302.46,-222.74"/>
</g>
<!-- Node26&#45;&gt;Node7 -->
<g id="edge36" class="edge">
<title>Node26&#45;&gt;Node7</title>
<path fill="none" stroke="midnightblue" d="M264.29,-219.13C272.34,-203.56 286.12,-182.06 305,-171 352.12,-143.39 499.47,-132.35 591.61,-128.07"/>
<polygon fill="midnightblue" stroke="midnightblue" points="261.04,-217.8 259.83,-228.33 267.34,-220.86 261.04,-217.8"/>
</g>
<!-- Node26&#45;&gt;Node8 -->
<g id="edge38" class="edge">
<title>Node26&#45;&gt;Node8</title>
<path fill="none" stroke="midnightblue" d="M256.55,-217.84C257.92,-203.38 261.92,-184.04 273,-171 289.97,-151.03 317.38,-139.52 339.8,-133.08"/>
<polygon fill="midnightblue" stroke="midnightblue" points="253.03,-217.99 255.92,-228.19 260.02,-218.42 253.03,-217.99"/>
</g>
<!-- Node26&#45;&gt;Node16 -->
<g id="edge37" class="edge">
<title>Node26&#45;&gt;Node16</title>
<path fill="none" stroke="midnightblue" d="M252.77,-217.97C251.42,-204.11 251.59,-185.47 259,-171 277.6,-134.67 293.4,-129.87 331,-114 452.85,-62.57 833.9,-30.73 1018.19,-17.95"/>
<polygon fill="midnightblue" stroke="midnightblue" points="249.35,-218.84 254.13,-228.29 256.29,-217.92 249.35,-218.84"/>
</g>
<!-- Node27&#45;&gt;Node4 -->
<g id="edge40" class="edge">
<title>Node27&#45;&gt;Node4</title>
<path fill="none" stroke="midnightblue" d="M2190.23,-294.22C1956.19,-292.63 878.55,-283.48 734,-249 684.22,-237.13 630.97,-206.83 606.2,-191.57"/>
<polygon fill="midnightblue" stroke="midnightblue" points="2190.4,-297.72 2200.42,-294.29 2190.44,-290.72 2190.4,-297.72"/>
</g>
<!-- Node27&#45;&gt;Node10 -->
<g id="edge41" class="edge">
<title>Node27&#45;&gt;Node10</title>
<path fill="none" stroke="midnightblue" d="M2189.89,-291.92C2023.86,-282.42 1448.93,-249.51 1306.24,-241.35"/>
<polygon fill="midnightblue" stroke="midnightblue" points="2190.05,-295.43 2200.23,-292.51 2190.45,-288.44 2190.05,-295.43"/>
</g>
<!-- Node28 -->
<g id="node28" class="node">
<title>Node28</title>
<g id="a_node28"><a xlink:href="_string_util_8cpp.html" target="_top" xlink:title="The StringUtil body implements several string routines not included in the standard C++ library (like...">
<polygon fill="white" stroke="black" points="2197.5,-228.5 2197.5,-248.5 2278.5,-248.5 2278.5,-228.5 2197.5,-228.5"/>
<text text-anchor="middle" x="2238" y="-235.7" font-family="Helvetica,sans-Serif" font-size="11.00">StringUtil.cpp</text>
</a>
</g>
</g>
<!-- Node27&#45;&gt;Node28 -->
<g id="edge42" class="edge">
<title>Node27&#45;&gt;Node28</title>
<path fill="none" stroke="midnightblue" d="M2236.04,-275.38C2236.53,-266.37 2237.1,-256.04 2237.49,-248.78"/>
<polygon fill="midnightblue" stroke="midnightblue" points="2232.55,-275.24 2235.5,-285.42 2239.53,-275.62 2232.55,-275.24"/>
</g>
<!-- Node29 -->
<g id="node29" class="node">
<title>Node29</title>
<g id="a_node29"><a xlink:href="_natural_list_8cpp.html" target="_top" xlink:title="The NaturalList body implements lists of non&#45;negative integer values with zero&#45;based arbitrary indexe...">
<polygon fill="white" stroke="black" points="2296.5,-228.5 2296.5,-248.5 2385.5,-248.5 2385.5,-228.5 2296.5,-228.5"/>
<text text-anchor="middle" x="2341" y="-235.7" font-family="Helvetica,sans-Serif" font-size="11.00">NaturalList.cpp</text>
</a>
</g>
</g>
<!-- Node27&#45;&gt;Node29 -->
<g id="edge43" class="edge">
<title>Node27&#45;&gt;Node29</title>
<path fill="none" stroke="midnightblue" d="M2261.44,-280.78C2280.81,-270.73 2306.58,-257.36 2323.47,-248.6"/>
<polygon fill="midnightblue" stroke="midnightblue" points="2259.77,-277.71 2252.5,-285.42 2262.99,-283.92 2259.77,-277.71"/>
</g>
<!-- Node30 -->
<g id="node30" class="node">
<title>Node30</title>
<g id="a_node30"><a xlink:href="_string_list_8cpp.html" target="_top" xlink:title="The StringList body implements lists of string values with zero&#45;based arbitrary indexed access to pos...">
<polygon fill="white" stroke="black" points="2403.5,-228.5 2403.5,-248.5 2486.5,-248.5 2486.5,-228.5 2403.5,-228.5"/>
<text text-anchor="middle" x="2445" y="-235.7" font-family="Helvetica,sans-Serif" font-size="11.00">StringList.cpp</text>
</a>
</g>
</g>
<!-- Node27&#45;&gt;Node30 -->
<g id="edge44" class="edge">
<title>Node27&#45;&gt;Node30</title>
<path fill="none" stroke="midnightblue" d="M2279.49,-282.85C2318.64,-272.59 2374.83,-257.88 2410.62,-248.5"/>
<polygon fill="midnightblue" stroke="midnightblue" points="2278.46,-279.5 2269.68,-285.42 2280.24,-286.27 2278.46,-279.5"/>
</g>
<!-- Node31&#45;&gt;Node19 -->
<g id="edge46" class="edge">
<title>Node31&#45;&gt;Node19</title>
<path fill="none" stroke="midnightblue" d="M1971.33,-221.87C1983.34,-212.15 1998.37,-199.99 2008.53,-191.78"/>
<polygon fill="midnightblue" stroke="midnightblue" points="1968.8,-219.41 1963.23,-228.42 1973.21,-224.85 1968.8,-219.41"/>
</g>
<!-- Node31&#45;&gt;Node20 -->
<g id="edge47" class="edge">
<title>Node31&#45;&gt;Node20</title>
<path fill="none" stroke="midnightblue" d="M1994.01,-225.65C2030.33,-215.41 2082.06,-200.82 2115.08,-191.5"/>
<polygon fill="midnightblue" stroke="midnightblue" points="1992.87,-222.33 1984.2,-228.42 1994.77,-229.07 1992.87,-222.33"/>
</g>
<!-- Node31&#45;&gt;Node21 -->
<g id="edge48" class="edge">
<title>Node31&#45;&gt;Node21</title>
<path fill="none" stroke="midnightblue" d="M1932.67,-221.87C1920.66,-212.15 1905.63,-199.99 1895.47,-191.78"/>
<polygon fill="midnightblue" stroke="midnightblue" points="1930.79,-224.85 1940.77,-228.42 1935.2,-219.41 1930.79,-224.85"/>
</g>
<!-- Node32&#45;&gt;Node23 -->
<g id="edge50" class="edge">
<title>Node32&#45;&gt;Node23</title>
<path fill="none" stroke="midnightblue" d="M880,-275.17C880,-250.84 880,-210.03 880,-191.79"/>
<polygon fill="midnightblue" stroke="midnightblue" points="876.5,-275.33 880,-285.33 883.5,-275.33 876.5,-275.33"/>
</g>
<!-- Node33 -->
<g id="node33" class="node">
<title>Node33</title>
<g id="a_node33"><a xlink:href="_midi_event_list_8h.html" target="_top" xlink:title="The MidiEventList specification defines lists of MIDI events with zero&#45;based arbitrary indexed access...">
<polygon fill="white" stroke="black" points="743.5,-228.5 743.5,-248.5 832.5,-248.5 832.5,-228.5 743.5,-228.5"/>
<text text-anchor="middle" x="788" y="-235.7" font-family="Helvetica,sans-Serif" font-size="11.00">MidiEventList.h</text>
</a>
</g>
</g>
<!-- Node32&#45;&gt;Node33 -->
<g id="edge51" class="edge">
<title>Node32&#45;&gt;Node33</title>
<path fill="none" stroke="midnightblue" d="M856.13,-280.23C839.43,-270.24 817.6,-257.2 803.21,-248.6"/>
<polygon fill="midnightblue" stroke="midnightblue" points="854.43,-283.29 864.81,-285.42 858.02,-277.28 854.43,-283.29"/>
</g>
<!-- Node33&#45;&gt;Node25 -->
<g id="edge56" class="edge">
<title>Node33&#45;&gt;Node25</title>
<path fill="none" stroke="midnightblue" d="M781.5,-218.68C778.36,-209.6 774.74,-199.12 772.21,-191.78"/>
<polygon fill="midnightblue" stroke="midnightblue" points="778.29,-220.11 784.86,-228.42 784.91,-217.82 778.29,-220.11"/>
</g>
<!-- Node34 -->
<g id="node34" class="node">
<title>Node34</title>
<g id="a_node34"><a xlink:href="_midi_event_converter_8h.html" target="_top" xlink:title="The MidiEventConverter specification defines the handling of MIDI events by feeding them to an underl...">
<polygon fill="white" stroke="black" points="1016,-171.5 1016,-191.5 1136,-191.5 1136,-171.5 1016,-171.5"/>
<text text-anchor="middle" x="1076" y="-178.7" font-family="Helvetica,sans-Serif" font-size="11.00">MidiEventConverter.h</text>
</a>
</g>
</g>
<!-- Node33&#45;&gt;Node34 -->
<g id="edge52" class="edge">
<title>Node33&#45;&gt;Node34</title>
<path fill="none" stroke="midnightblue" d="M842.73,-227.05C896.53,-216.77 977.78,-201.26 1028.82,-191.51"/>
<polygon fill="midnightblue" stroke="midnightblue" points="841.85,-223.65 832.68,-228.97 843.16,-230.53 841.85,-223.65"/>
</g>
<!-- Node35 -->
<g id="node35" class="node">
<title>Node35</title>
<g id="a_node35"><a xlink:href="_midi_file_8h.html" target="_top" xlink:title="The MidiFile specification defines the services of a MIDI file; currently only file reading is suppor...">
<polygon fill="white" stroke="black" points="638,-171.5 638,-191.5 700,-191.5 700,-171.5 638,-171.5"/>
<text text-anchor="middle" x="669" y="-178.7" font-family="Helvetica,sans-Serif" font-size="11.00">MidiFile.h</text>
</a>
</g>
</g>
<!-- Node33&#45;&gt;Node35 -->
<g id="edge57" class="edge">
<title>Node33&#45;&gt;Node35</title>
<path fill="none" stroke="midnightblue" d="M759.21,-224.19C737.36,-214.09 707.9,-200.48 688.68,-191.6"/>
<polygon fill="midnightblue" stroke="midnightblue" points="757.8,-227.4 768.35,-228.42 760.74,-221.05 757.8,-227.4"/>
</g>
<!-- Node34&#45;&gt;Node7 -->
<g id="edge53" class="edge">
<title>Node34&#45;&gt;Node7</title>
<path fill="none" stroke="midnightblue" d="M1006.01,-171.04C930.23,-160.8 810.22,-144.58 735.73,-134.52"/>
<polygon fill="midnightblue" stroke="midnightblue" points="1005.57,-174.51 1015.95,-172.38 1006.5,-167.58 1005.57,-174.51"/>
</g>
<!-- Node34&#45;&gt;Node16 -->
<g id="edge54" class="edge">
<title>Node34&#45;&gt;Node16</title>
<path fill="none" stroke="midnightblue" d="M1080.92,-161.61C1090.35,-125.36 1110.68,-47.28 1117.62,-20.63"/>
<polygon fill="midnightblue" stroke="midnightblue" points="1077.5,-160.85 1078.37,-171.41 1084.27,-162.62 1077.5,-160.85"/>
</g>
<!-- Node34&#45;&gt;Node24 -->
<g id="edge55" class="edge">
<title>Node34&#45;&gt;Node24</title>
<path fill="none" stroke="midnightblue" d="M1133.95,-169.62C1188.65,-159.35 1269.71,-144.14 1320.92,-134.53"/>
<polygon fill="midnightblue" stroke="midnightblue" points="1133.24,-166.19 1124.05,-171.48 1134.53,-173.07 1133.24,-166.19"/>
</g>
<!-- Node35&#45;&gt;Node7 -->
<g id="edge58" class="edge">
<title>Node35&#45;&gt;Node7</title>
<path fill="none" stroke="midnightblue" d="M669,-161.38C669,-152.37 669,-142.04 669,-134.78"/>
<polygon fill="midnightblue" stroke="midnightblue" points="665.5,-161.42 669,-171.42 672.5,-161.42 665.5,-161.42"/>
</g>
<!-- Node35&#45;&gt;Node8 -->
<g id="edge59" class="edge">
<title>Node35&#45;&gt;Node8</title>
<path fill="none" stroke="midnightblue" d="M627.67,-171.02C545.41,-154.18 461.27,-139.59 414.11,-131.65"/>
<polygon fill="midnightblue" stroke="midnightblue" points="627.19,-174.49 637.69,-173.08 628.61,-167.64 627.19,-174.49"/>
</g>
</g>
</svg>
        <g id="navigator" transform="translate(0 0)" fill="#404254">
                <rect fill="#f2f5e9" fill-opacity="0.5" stroke="#606060" stroke-width=".5" x="0" y="0" width="60" height="60"/>
                <use id="zoomplus" xlink:href="#zoomPlus" x="17" y="9" onmousedown="handleZoom(evt,'in')"/>
                <use id="zoomminus" xlink:href="#zoomMin" x="42" y="9" onmousedown="handleZoom(evt,'out')"/>
                <use id="reset" xlink:href="#resetDef" x="30" y="36" onmousedown="handleReset()"/>
                <g id="arrowUp" xlink:href="#dirArrow" transform="translate(30 24)" onmousedown="handlePan(0,-1)">
                  <use xlink:href="#rim" fill="#404040">
                        <set attributeName="fill" to="#808080" begin="arrowUp.mouseover" end="arrowUp.mouseout"/>
                  </use>
                  <path fill="none" stroke="white" stroke-width="1.5" d="M0,-3.0v7 M-2.5,-0.5L0,-3.0L2.5,-0.5"/>
                </g>
                <g id="arrowRight" xlink:href="#dirArrow" transform="rotate(90) translate(36 -43)" onmousedown="handlePan(1,0)">
                  <use xlink:href="#rim" fill="#404040">
                        <set attributeName="fill" to="#808080" begin="arrowRight.mouseover" end="arrowRight.mouseout"/>
                  </use>
                  <path fill="none" stroke="white" stroke-width="1.5" d="M0,-3.0v7 M-2.5,-0.5L0,-3.0L2.5,-0.5"/>
                </g>
                <g id="arrowDown" xlink:href="#dirArrow" transform="rotate(180) translate(-30 -48)" onmousedown="handlePan(0,1)">
                  <use xlink:href="#rim" fill="#404040">
                        <set attributeName="fill" to="#808080" begin="arrowDown.mouseover" end="arrowDown.mouseout"/>
                  </use>
                  <path fill="none" stroke="white" stroke-width="1.5" d="M0,-3.0v7 M-2.5,-0.5L0,-3.0L2.5,-0.5"/>
                </g>
                <g id="arrowLeft" xlink:href="#dirArrow" transform="rotate(270) translate(-36 17)" onmousedown="handlePan(-1,0)">
                  <use xlink:href="#rim" fill="#404040">
                        <set attributeName="fill" to="#808080" begin="arrowLeft.mouseover" end="arrowLeft.mouseout"/>
                  </use>
                  <path fill="none" stroke="white" stroke-width="1.5" d="M0,-3.0v7 M-2.5,-0.5L0,-3.0L2.5,-0.5"/>
                </g>
        </g>
        <svg viewBox="0 0 15 15" width="100%" height="30px" preserveAspectRatio="xMaxYMin meet">
         <g id="arrow_out" transform="scale(0.3 0.3)">
          <a xlink:href="_boolean_8h__dep__incl_org.svg" target="_base">
           <rect id="button" ry="5" rx="5" y="6" x="6" height="38" width="38"
                fill="#f2f5e9" fill-opacity="0.5" stroke="#606060" stroke-width="1.0"/>
           <path id="arrow"
             d="M 11.500037,31.436501 C 11.940474,20.09759 22.043105,11.32322 32.158766,21.979434 L 37.068811,17.246167 C 37.068811,17.246167 37.088388,32 37.088388,32 L 22.160133,31.978069 C 22.160133,31.978069 26.997745,27.140456 26.997745,27.140456 C 18.528582,18.264221 13.291696,25.230495 11.500037,31.436501 z"
             style="fill:#404040;"/>
          </a>
         </g>
        </svg>
</svg>
