<?xml version="1.0" encoding="UTF-8" standalone="no"?>
<!DOCTYPE svg PUBLIC "-//W3C//DTD SVG 1.1//EN"
 "http://www.w3.org/Graphics/SVG/1.1/DTD/svg11.dtd">
<!-- Generated by graphviz version 2.47.1 (20210417.1919)
 -->
<!-- Title: Byte.h Pages: 1 -->
<svg width="2244pt" height="428pt"
 viewBox="0.00 0.00 2244.49 428.00" xmlns="http://www.w3.org/2000/svg" xmlns:xlink="http://www.w3.org/1999/xlink">
<g id="graph0" class="graph" transform="scale(1 1) rotate(0) translate(4 424)">
<title>Byte.h</title>
<polygon fill="white" stroke="transparent" points="-4,4 -4,-424 2240.49,-424 2240.49,4 -4,4"/>
<!-- Node1 -->
<g id="node1" class="node">
<title>Node1</title>
<g id="a_node1"><a xlink:title="The Byte specification and body provides a value object type for byte values.">
<polygon fill="#bfbfbf" stroke="black" points="1758,-399.5 1758,-419.5 1805,-419.5 1805,-399.5 1758,-399.5"/>
<text text-anchor="middle" x="1781.5" y="-406.7" font-family="Helvetica,sans-Serif" font-size="11.00">Byte.h</text>
</a>
</g>
</g>
<!-- Node2 -->
<g id="node2" class="node">
<title>Node2</title>
<g id="a_node2"><a xlink:href="_byte_list_8h.html" target="_top" xlink:title="The ByteList specification defines lists of byte values with zero&#45;based arbitrary indexed access to p...">
<polygon fill="white" stroke="black" points="1793,-342.5 1793,-362.5 1858,-362.5 1858,-342.5 1793,-342.5"/>
<text text-anchor="middle" x="1825.5" y="-349.7" font-family="Helvetica,sans-Serif" font-size="11.00">ByteList.h</text>
</a>
</g>
</g>
<!-- Node1&#45;&gt;Node2 -->
<g id="edge1" class="edge">
<title>Node1&#45;&gt;Node2</title>
<path fill="none" stroke="midnightblue" d="M1795.15,-391.44C1802.71,-381.98 1811.82,-370.6 1818.08,-362.78"/>
<polygon fill="midnightblue" stroke="midnightblue" points="1792.28,-389.42 1788.77,-399.42 1797.75,-393.8 1792.28,-389.42"/>
</g>
<!-- Node19 -->
<g id="node19" class="node">
<title>Node19</title>
<g id="a_node19"><a xlink:href="_character_8h.html" target="_top" xlink:title="The Character specification and body provides a value object type for character values.">
<polygon fill="white" stroke="black" points="1700.5,-342.5 1700.5,-362.5 1774.5,-362.5 1774.5,-342.5 1700.5,-342.5"/>
<text text-anchor="middle" x="1737.5" y="-349.7" font-family="Helvetica,sans-Serif" font-size="11.00">Character.h</text>
</a>
</g>
</g>
<!-- Node1&#45;&gt;Node19 -->
<g id="edge21" class="edge">
<title>Node1&#45;&gt;Node19</title>
<path fill="none" stroke="midnightblue" d="M1767.85,-391.44C1760.29,-381.98 1751.18,-370.6 1744.92,-362.78"/>
<polygon fill="midnightblue" stroke="midnightblue" points="1765.25,-393.8 1774.23,-399.42 1770.72,-389.42 1765.25,-393.8"/>
</g>
<!-- Node3 -->
<g id="node3" class="node">
<title>Node3</title>
<g id="a_node3"><a xlink:href="_file_8h.html" target="_top" xlink:title="The File specification defines a class for simple file handling based on C stdio.">
<polygon fill="white" stroke="black" points="1998,-228.5 1998,-248.5 2041,-248.5 2041,-228.5 1998,-228.5"/>
<text text-anchor="middle" x="2019.5" y="-235.7" font-family="Helvetica,sans-Serif" font-size="11.00">File.h</text>
</a>
</g>
</g>
<!-- Node2&#45;&gt;Node3 -->
<g id="edge2" class="edge">
<title>Node2&#45;&gt;Node3</title>
<path fill="none" stroke="midnightblue" d="M1850.07,-337.31C1890.49,-313.98 1969.89,-268.14 2003.68,-248.63"/>
<polygon fill="midnightblue" stroke="midnightblue" points="1848.29,-334.3 1841.38,-342.33 1851.79,-340.37 1848.29,-334.3"/>
</g>
<!-- Node10 -->
<g id="node10" class="node">
<title>Node10</title>
<g id="a_node10"><a xlink:href="_byte_list_8cpp.html" target="_top" xlink:title="The ByteList body implements sequences of byte values with zero&#45;based arbitrary indexed access to pos...">
<polygon fill="white" stroke="black" points="1787,-285.5 1787,-305.5 1864,-305.5 1864,-285.5 1787,-285.5"/>
<text text-anchor="middle" x="1825.5" y="-292.7" font-family="Helvetica,sans-Serif" font-size="11.00">ByteList.cpp</text>
</a>
</g>
</g>
<!-- Node2&#45;&gt;Node10 -->
<g id="edge9" class="edge">
<title>Node2&#45;&gt;Node10</title>
<path fill="none" stroke="midnightblue" d="M1825.5,-332.38C1825.5,-323.37 1825.5,-313.04 1825.5,-305.78"/>
<polygon fill="midnightblue" stroke="midnightblue" points="1822,-332.42 1825.5,-342.42 1829,-332.42 1822,-332.42"/>
</g>
<!-- Node11 -->
<g id="node11" class="node">
<title>Node11</title>
<g id="a_node11"><a xlink:href="_midi_event_8h.html" target="_top" xlink:title="The MidiEvent specification defines a single MIDI event and the MIDI event kind enumeration.">
<polygon fill="white" stroke="black" points="1589.5,-285.5 1589.5,-305.5 1661.5,-305.5 1661.5,-285.5 1589.5,-285.5"/>
<text text-anchor="middle" x="1625.5" y="-292.7" font-family="Helvetica,sans-Serif" font-size="11.00">MidiEvent.h</text>
</a>
</g>
</g>
<!-- Node2&#45;&gt;Node11 -->
<g id="edge10" class="edge">
<title>Node2&#45;&gt;Node11</title>
<path fill="none" stroke="midnightblue" d="M1782.88,-339.78C1745.66,-329.54 1692.41,-314.9 1658.4,-305.55"/>
<polygon fill="midnightblue" stroke="midnightblue" points="1782.35,-343.26 1792.92,-342.54 1784.21,-336.51 1782.35,-343.26"/>
</g>
<!-- Node4 -->
<g id="node4" class="node">
<title>Node4</title>
<g id="a_node4"><a xlink:href="_wave_file_8cpp.html" target="_top" xlink:title="The WaveFile specification defines an object for accessing a RIFF wave file with several channels.">
<polygon fill="white" stroke="black" points="1891,-171.5 1891,-191.5 1974,-191.5 1974,-171.5 1891,-171.5"/>
<text text-anchor="middle" x="1932.5" y="-178.7" font-family="Helvetica,sans-Serif" font-size="11.00">WaveFile.cpp</text>
</a>
</g>
</g>
<!-- Node3&#45;&gt;Node4 -->
<g id="edge3" class="edge">
<title>Node3&#45;&gt;Node4</title>
<path fill="none" stroke="midnightblue" d="M1996.49,-222.95C1980.75,-213 1960.37,-200.12 1946.89,-191.6"/>
<polygon fill="midnightblue" stroke="midnightblue" points="1994.81,-226.03 2005.13,-228.42 1998.55,-220.12 1994.81,-226.03"/>
</g>
<!-- Node5 -->
<g id="node5" class="node">
<title>Node5</title>
<g id="a_node5"><a xlink:href="_file_8cpp.html" target="_top" xlink:title="The File body implements a class for simple file handling based on C stdio.">
<polygon fill="white" stroke="black" points="1992,-171.5 1992,-191.5 2047,-191.5 2047,-171.5 1992,-171.5"/>
<text text-anchor="middle" x="2019.5" y="-178.7" font-family="Helvetica,sans-Serif" font-size="11.00">File.cpp</text>
</a>
</g>
</g>
<!-- Node3&#45;&gt;Node5 -->
<g id="edge4" class="edge">
<title>Node3&#45;&gt;Node5</title>
<path fill="none" stroke="midnightblue" d="M2019.5,-218.38C2019.5,-209.37 2019.5,-199.04 2019.5,-191.78"/>
<polygon fill="midnightblue" stroke="midnightblue" points="2016,-218.42 2019.5,-228.42 2023,-218.42 2016,-218.42"/>
</g>
<!-- Node6 -->
<g id="node6" class="node">
<title>Node6</title>
<g id="a_node6"><a xlink:href="_logging_support_8cpp.html" target="_top" xlink:title="The LoggingSupport body implements a class for simple entry/exit logging to a file or via a callback ...">
<polygon fill="white" stroke="black" points="2103.5,-171.5 2103.5,-191.5 2217.5,-191.5 2217.5,-171.5 2103.5,-171.5"/>
<text text-anchor="middle" x="2160.5" y="-178.7" font-family="Helvetica,sans-Serif" font-size="11.00">LoggingSupport.cpp</text>
</a>
</g>
</g>
<!-- Node3&#45;&gt;Node6 -->
<g id="edge5" class="edge">
<title>Node3&#45;&gt;Node6</title>
<path fill="none" stroke="midnightblue" d="M2050.66,-225.35C2076.77,-215.16 2113.46,-200.85 2137.11,-191.62"/>
<polygon fill="midnightblue" stroke="midnightblue" points="2049.27,-222.13 2041.22,-229.03 2051.81,-228.65 2049.27,-222.13"/>
</g>
<!-- Node7 -->
<g id="node7" class="node">
<title>Node7</title>
<g id="a_node7"><a xlink:href="_operating_system_8cpp.html" target="_top" xlink:title="The OperatingSystem body implements a class for several operating system related utility functions (l...">
<polygon fill="white" stroke="black" points="1669,-171.5 1669,-191.5 1792,-191.5 1792,-171.5 1669,-171.5"/>
<text text-anchor="middle" x="1730.5" y="-178.7" font-family="Helvetica,sans-Serif" font-size="11.00">OperatingSystem.cpp</text>
</a>
</g>
</g>
<!-- Node3&#45;&gt;Node7 -->
<g id="edge6" class="edge">
<title>Node3&#45;&gt;Node7</title>
<path fill="none" stroke="midnightblue" d="M1987.71,-231.45C1936.91,-221.78 1837.11,-202.79 1777.87,-191.52"/>
<polygon fill="midnightblue" stroke="midnightblue" points="1987.3,-234.93 1997.78,-233.37 1988.61,-228.06 1987.3,-234.93"/>
</g>
<!-- Node8 -->
<g id="node8" class="node">
<title>Node8</title>
<g id="a_node8"><a xlink:href="_fluid_synth_file_converter_8cpp.html" target="_top" xlink:title="The FluidSynthFileConverter module implements a conversion from a MIDI file into a wave file using th...">
<polygon fill="white" stroke="black" points="1477.5,-114.5 1477.5,-134.5 1631.5,-134.5 1631.5,-114.5 1477.5,-114.5"/>
<text text-anchor="middle" x="1554.5" y="-121.7" font-family="Helvetica,sans-Serif" font-size="11.00">FluidSynthFileConverter.cpp</text>
</a>
</g>
</g>
<!-- Node3&#45;&gt;Node8 -->
<g id="edge7" class="edge">
<title>Node3&#45;&gt;Node8</title>
<path fill="none" stroke="midnightblue" d="M2038.69,-221.67C2053.84,-207.3 2070.31,-186.12 2056.5,-171 2042.38,-155.54 1768.83,-137.77 1631.62,-129.78"/>
<polygon fill="midnightblue" stroke="midnightblue" points="2036.18,-219.22 2031.05,-228.49 2040.84,-224.44 2036.18,-219.22"/>
</g>
<!-- Node9 -->
<g id="node9" class="node">
<title>Node9</title>
<g id="a_node9"><a xlink:href="_midi_file_8cpp.html" target="_top" xlink:title="The MidiFile implementation implements the services of a MIDI file; currently only file reading is su...">
<polygon fill="white" stroke="black" points="1804.5,-114.5 1804.5,-134.5 1878.5,-134.5 1878.5,-114.5 1804.5,-114.5"/>
<text text-anchor="middle" x="1841.5" y="-121.7" font-family="Helvetica,sans-Serif" font-size="11.00">MidiFile.cpp</text>
</a>
</g>
</g>
<!-- Node3&#45;&gt;Node9 -->
<g id="edge8" class="edge">
<title>Node3&#45;&gt;Node9</title>
<path fill="none" stroke="midnightblue" d="M2051.35,-237.46C2121.02,-236.34 2276.83,-227.62 2226.5,-171 2203.59,-145.22 1970.49,-131.55 1878.52,-127.13"/>
<polygon fill="midnightblue" stroke="midnightblue" points="2051.3,-233.96 2041.34,-237.58 2051.38,-240.96 2051.3,-233.96"/>
</g>
<!-- Node12 -->
<g id="node12" class="node">
<title>Node12</title>
<g id="a_node12"><a xlink:href="_midi_event_8cpp.html" target="_top" xlink:title="The MidiEvent implementation defines the services of a single MIDI event.">
<polygon fill="white" stroke="black" points="1447.5,-171.5 1447.5,-191.5 1531.5,-191.5 1531.5,-171.5 1447.5,-171.5"/>
<text text-anchor="middle" x="1489.5" y="-178.7" font-family="Helvetica,sans-Serif" font-size="11.00">MidiEvent.cpp</text>
</a>
</g>
</g>
<!-- Node11&#45;&gt;Node12 -->
<g id="edge11" class="edge">
<title>Node11&#45;&gt;Node12</title>
<path fill="none" stroke="midnightblue" d="M1606.28,-278.68C1577.48,-254.96 1524.03,-210.94 1500.78,-191.79"/>
<polygon fill="midnightblue" stroke="midnightblue" points="1604.43,-281.68 1614.37,-285.33 1608.88,-276.28 1604.43,-281.68"/>
</g>
<!-- Node13 -->
<g id="node13" class="node">
<title>Node13</title>
<g id="a_node13"><a xlink:href="_midi_event_list_8h.html" target="_top" xlink:title="The MidiEventList specification defines lists of MIDI events with zero&#45;based arbitrary indexed access...">
<polygon fill="white" stroke="black" points="1581,-228.5 1581,-248.5 1670,-248.5 1670,-228.5 1581,-228.5"/>
<text text-anchor="middle" x="1625.5" y="-235.7" font-family="Helvetica,sans-Serif" font-size="11.00">MidiEventList.h</text>
</a>
</g>
</g>
<!-- Node11&#45;&gt;Node13 -->
<g id="edge12" class="edge">
<title>Node11&#45;&gt;Node13</title>
<path fill="none" stroke="midnightblue" d="M1625.5,-275.38C1625.5,-266.37 1625.5,-256.04 1625.5,-248.78"/>
<polygon fill="midnightblue" stroke="midnightblue" points="1622,-275.42 1625.5,-285.42 1629,-275.42 1622,-275.42"/>
</g>
<!-- Node14 -->
<g id="node14" class="node">
<title>Node14</title>
<g id="a_node14"><a xlink:href="_midi_event_converter_8h.html" target="_top" xlink:title="The MidiEventConverter specification defines the handling of MIDI events by feeding them to an underl...">
<polygon fill="white" stroke="black" points="1233.5,-171.5 1233.5,-191.5 1353.5,-191.5 1353.5,-171.5 1233.5,-171.5"/>
<text text-anchor="middle" x="1293.5" y="-178.7" font-family="Helvetica,sans-Serif" font-size="11.00">MidiEventConverter.h</text>
</a>
</g>
</g>
<!-- Node13&#45;&gt;Node14 -->
<g id="edge13" class="edge">
<title>Node13&#45;&gt;Node14</title>
<path fill="none" stroke="midnightblue" d="M1570.8,-228.44C1509.16,-218.23 1409.58,-201.73 1348.02,-191.53"/>
<polygon fill="midnightblue" stroke="midnightblue" points="1570.29,-231.9 1580.73,-230.08 1571.43,-225 1570.29,-231.9"/>
</g>
<!-- Node17 -->
<g id="node17" class="node">
<title>Node17</title>
<g id="a_node17"><a xlink:href="_midi_event_list_8cpp.html" target="_top" xlink:title="The MIDIEventList body implements sequences of integer values with zero&#45;based arbitrary indexed acces...">
<polygon fill="white" stroke="black" points="1550,-171.5 1550,-191.5 1651,-191.5 1651,-171.5 1550,-171.5"/>
<text text-anchor="middle" x="1600.5" y="-178.7" font-family="Helvetica,sans-Serif" font-size="11.00">MidiEventList.cpp</text>
</a>
</g>
</g>
<!-- Node13&#45;&gt;Node17 -->
<g id="edge17" class="edge">
<title>Node13&#45;&gt;Node17</title>
<path fill="none" stroke="midnightblue" d="M1617.21,-219.27C1613.03,-210.06 1608.13,-199.28 1604.72,-191.78"/>
<polygon fill="midnightblue" stroke="midnightblue" points="1614.05,-220.76 1621.37,-228.42 1620.42,-217.87 1614.05,-220.76"/>
</g>
<!-- Node18 -->
<g id="node18" class="node">
<title>Node18</title>
<g id="a_node18"><a xlink:href="_midi_file_8h.html" target="_top" xlink:title="The MidiFile specification defines the services of a MIDI file; currently only file reading is suppor...">
<polygon fill="white" stroke="black" points="1810.5,-171.5 1810.5,-191.5 1872.5,-191.5 1872.5,-171.5 1810.5,-171.5"/>
<text text-anchor="middle" x="1841.5" y="-178.7" font-family="Helvetica,sans-Serif" font-size="11.00">MidiFile.h</text>
</a>
</g>
</g>
<!-- Node13&#45;&gt;Node18 -->
<g id="edge18" class="edge">
<title>Node13&#45;&gt;Node18</title>
<path fill="none" stroke="midnightblue" d="M1671.11,-225.89C1712.95,-215.23 1773.81,-199.74 1810.34,-190.43"/>
<polygon fill="midnightblue" stroke="midnightblue" points="1670,-222.56 1661.17,-228.42 1671.72,-229.34 1670,-222.56"/>
</g>
<!-- Node14&#45;&gt;Node8 -->
<g id="edge14" class="edge">
<title>Node14&#45;&gt;Node8</title>
<path fill="none" stroke="midnightblue" d="M1346.34,-169.37C1395.04,-159.1 1466.43,-144.06 1511.67,-134.53"/>
<polygon fill="midnightblue" stroke="midnightblue" points="1345.37,-165.99 1336.31,-171.48 1346.81,-172.84 1345.37,-165.99"/>
</g>
<!-- Node15 -->
<g id="node15" class="node">
<title>Node15</title>
<g id="a_node15"><a xlink:href="_fluid_synth_plugin___event_processor_8cpp.html" target="_top" xlink:title="The FluidSynthPlugin_Processor module implements the handling of MIDI events from the DAW via JUCE ha...">
<polygon fill="white" stroke="black" points="295,-0.5 295,-20.5 498,-20.5 498,-0.5 295,-0.5"/>
<text text-anchor="middle" x="396.5" y="-7.7" font-family="Helvetica,sans-Serif" font-size="11.00">FluidSynthPlugin_EventProcessor.cpp</text>
</a>
</g>
</g>
<!-- Node14&#45;&gt;Node15 -->
<g id="edge15" class="edge">
<title>Node14&#45;&gt;Node15</title>
<path fill="none" stroke="midnightblue" d="M1294.37,-160.78C1293.88,-145.68 1290.53,-125.55 1277.5,-114 1220.06,-63.09 717.73,-29.31 498.31,-16.85"/>
<polygon fill="midnightblue" stroke="midnightblue" points="1290.87,-161.09 1294.3,-171.12 1297.87,-161.14 1290.87,-161.09"/>
</g>
<!-- Node16 -->
<g id="node16" class="node">
<title>Node16</title>
<g id="a_node16"><a xlink:href="_midi_event_converter_8cpp.html" target="_top" xlink:title="The MidiEventConverter module implements the handling of MIDI events by feeding them to an underlying...">
<polygon fill="white" stroke="black" points="1136.5,-114.5 1136.5,-134.5 1268.5,-134.5 1268.5,-114.5 1136.5,-114.5"/>
<text text-anchor="middle" x="1202.5" y="-121.7" font-family="Helvetica,sans-Serif" font-size="11.00">MidiEventConverter.cpp</text>
</a>
</g>
</g>
<!-- Node14&#45;&gt;Node16 -->
<g id="edge16" class="edge">
<title>Node14&#45;&gt;Node16</title>
<path fill="none" stroke="midnightblue" d="M1269.89,-166.23C1253.37,-156.24 1231.78,-143.2 1217.55,-134.6"/>
<polygon fill="midnightblue" stroke="midnightblue" points="1268.1,-169.24 1278.47,-171.42 1271.73,-163.25 1268.1,-169.24"/>
</g>
<!-- Node18&#45;&gt;Node8 -->
<g id="edge19" class="edge">
<title>Node18&#45;&gt;Node8</title>
<path fill="none" stroke="midnightblue" d="M1799.98,-170.76C1728.3,-155.79 1656.02,-142.85 1608.14,-134.57"/>
<polygon fill="midnightblue" stroke="midnightblue" points="1799.59,-174.25 1810.09,-172.88 1801.02,-167.4 1799.59,-174.25"/>
</g>
<!-- Node18&#45;&gt;Node9 -->
<g id="edge20" class="edge">
<title>Node18&#45;&gt;Node9</title>
<path fill="none" stroke="midnightblue" d="M1841.5,-161.38C1841.5,-152.37 1841.5,-142.04 1841.5,-134.78"/>
<polygon fill="midnightblue" stroke="midnightblue" points="1838,-161.42 1841.5,-171.42 1845,-161.42 1838,-161.42"/>
</g>
<!-- Node19&#45;&gt;Node4 -->
<g id="edge22" class="edge">
<title>Node19&#45;&gt;Node4</title>
<path fill="none" stroke="midnightblue" d="M1746.02,-333.24C1753.27,-318.99 1764.7,-299.29 1778.5,-285 1820,-242.03 1882.49,-207.39 1913.56,-191.66"/>
<polygon fill="midnightblue" stroke="midnightblue" points="1742.74,-331.97 1741.5,-342.49 1749.03,-335.04 1742.74,-331.97"/>
</g>
<!-- Node20 -->
<g id="node20" class="node">
<title>Node20</title>
<g id="a_node20"><a xlink:href="_string_util_8h.html" target="_top" xlink:title="The StringUtil specification defines several string routines not included in the standard C++ library...">
<polygon fill="white" stroke="black" points="1396,-285.5 1396,-305.5 1465,-305.5 1465,-285.5 1396,-285.5"/>
<text text-anchor="middle" x="1430.5" y="-292.7" font-family="Helvetica,sans-Serif" font-size="11.00">StringUtil.h</text>
</a>
</g>
</g>
<!-- Node19&#45;&gt;Node20 -->
<g id="edge23" class="edge">
<title>Node19&#45;&gt;Node20</title>
<path fill="none" stroke="midnightblue" d="M1690.55,-343.09C1628.49,-331.97 1520.56,-312.64 1465.3,-302.73"/>
<polygon fill="midnightblue" stroke="midnightblue" points="1690.01,-346.55 1700.47,-344.87 1691.24,-339.66 1690.01,-346.55"/>
</g>
<!-- Node20&#45;&gt;Node5 -->
<g id="edge24" class="edge">
<title>Node20&#45;&gt;Node5</title>
<path fill="none" stroke="midnightblue" d="M1475.37,-287.39C1569.83,-272.14 1795.98,-234.26 1983.5,-192 1986.15,-191.4 1988.9,-190.75 1991.64,-190.07"/>
<polygon fill="midnightblue" stroke="midnightblue" points="1474.62,-283.96 1465.31,-289 1475.74,-290.87 1474.62,-283.96"/>
</g>
<!-- Node21 -->
<g id="node21" class="node">
<title>Node21</title>
<g id="a_node21"><a xlink:href="_logging_8h.html" target="_top" xlink:title="The Logging specification defines macros for entry&#45;, exit&#45; and intermediate logging of functions into...">
<polygon fill="white" stroke="black" points="1123.5,-228.5 1123.5,-248.5 1187.5,-248.5 1187.5,-228.5 1123.5,-228.5"/>
<text text-anchor="middle" x="1155.5" y="-235.7" font-family="Helvetica,sans-Serif" font-size="11.00">Logging.h</text>
</a>
</g>
</g>
<!-- Node20&#45;&gt;Node21 -->
<g id="edge25" class="edge">
<title>Node20&#45;&gt;Node21</title>
<path fill="none" stroke="midnightblue" d="M1386.03,-285.61C1330.43,-274.49 1236.62,-255.72 1187.57,-245.91"/>
<polygon fill="midnightblue" stroke="midnightblue" points="1385.46,-289.06 1395.95,-287.59 1386.83,-282.2 1385.46,-289.06"/>
</g>
<!-- Node33 -->
<g id="node33" class="node">
<title>Node33</title>
<g id="a_node33"><a xlink:href="_string_util_8cpp.html" target="_top" xlink:title="The StringUtil body implements several string routines not included in the standard C++ library (like...">
<polygon fill="white" stroke="black" points="1235,-228.5 1235,-248.5 1316,-248.5 1316,-228.5 1235,-228.5"/>
<text text-anchor="middle" x="1275.5" y="-235.7" font-family="Helvetica,sans-Serif" font-size="11.00">StringUtil.cpp</text>
</a>
</g>
</g>
<!-- Node20&#45;&gt;Node33 -->
<g id="edge47" class="edge">
<title>Node20&#45;&gt;Node33</title>
<path fill="none" stroke="midnightblue" d="M1395.24,-281.99C1366.49,-271.79 1326.56,-257.62 1300.88,-248.5"/>
<polygon fill="midnightblue" stroke="midnightblue" points="1394.31,-285.37 1404.9,-285.42 1396.65,-278.78 1394.31,-285.37"/>
</g>
<!-- Node34 -->
<g id="node34" class="node">
<title>Node34</title>
<g id="a_node34"><a xlink:href="_natural_list_8cpp.html" target="_top" xlink:title="The NaturalList body implements lists of non&#45;negative integer values with zero&#45;based arbitrary indexe...">
<polygon fill="white" stroke="black" points="1334,-228.5 1334,-248.5 1423,-248.5 1423,-228.5 1334,-228.5"/>
<text text-anchor="middle" x="1378.5" y="-235.7" font-family="Helvetica,sans-Serif" font-size="11.00">NaturalList.cpp</text>
</a>
</g>
</g>
<!-- Node20&#45;&gt;Node34 -->
<g id="edge48" class="edge">
<title>Node20&#45;&gt;Node34</title>
<path fill="none" stroke="midnightblue" d="M1414.91,-278.01C1405.87,-268.45 1394.81,-256.76 1387.27,-248.78"/>
<polygon fill="midnightblue" stroke="midnightblue" points="1412.5,-280.56 1421.91,-285.42 1417.59,-275.75 1412.5,-280.56"/>
</g>
<!-- Node35 -->
<g id="node35" class="node">
<title>Node35</title>
<g id="a_node35"><a xlink:href="_string_list_8cpp.html" target="_top" xlink:title="The StringList body implements lists of string values with zero&#45;based arbitrary indexed access to pos...">
<polygon fill="white" stroke="black" points="1441,-228.5 1441,-248.5 1524,-248.5 1524,-228.5 1441,-228.5"/>
<text text-anchor="middle" x="1482.5" y="-235.7" font-family="Helvetica,sans-Serif" font-size="11.00">StringList.cpp</text>
</a>
</g>
</g>
<!-- Node20&#45;&gt;Node35 -->
<g id="edge49" class="edge">
<title>Node20&#45;&gt;Node35</title>
<path fill="none" stroke="midnightblue" d="M1446.09,-278.01C1455.13,-268.45 1466.19,-256.76 1473.73,-248.78"/>
<polygon fill="midnightblue" stroke="midnightblue" points="1443.41,-275.75 1439.09,-285.42 1448.5,-280.56 1443.41,-275.75"/>
</g>
<!-- Node21&#45;&gt;Node4 -->
<g id="edge34" class="edge">
<title>Node21&#45;&gt;Node4</title>
<path fill="none" stroke="midnightblue" d="M1197.62,-231.31C1207.11,-230.07 1217.13,-228.88 1226.5,-228 1516.76,-200.65 1592.03,-226.77 1881.5,-192 1884.54,-191.63 1887.67,-191.2 1890.82,-190.72"/>
<polygon fill="midnightblue" stroke="midnightblue" points="1197.04,-227.86 1187.6,-232.66 1197.98,-234.8 1197.04,-227.86"/>
</g>
<!-- Node21&#45;&gt;Node7 -->
<g id="edge36" class="edge">
<title>Node21&#45;&gt;Node7</title>
<path fill="none" stroke="midnightblue" d="M1197.64,-231.51C1207.12,-230.26 1217.15,-229.01 1226.5,-228 1418.93,-207.16 1468.09,-213.02 1660.5,-192 1663.18,-191.71 1665.92,-191.39 1668.68,-191.07"/>
<polygon fill="midnightblue" stroke="midnightblue" points="1197.07,-228.05 1187.62,-232.85 1198,-234.99 1197.07,-228.05"/>
</g>
<!-- Node21&#45;&gt;Node8 -->
<g id="edge40" class="edge">
<title>Node21&#45;&gt;Node8</title>
<path fill="none" stroke="midnightblue" d="M1197.68,-231.25C1240.09,-224.28 1306.97,-211.35 1362.5,-192 1382.58,-185 1385.71,-178.8 1405.5,-171 1443.62,-155.98 1488.81,-142.8 1519.34,-134.55"/>
<polygon fill="midnightblue" stroke="midnightblue" points="1197.03,-227.81 1187.71,-232.86 1198.14,-234.73 1197.03,-227.81"/>
</g>
<!-- Node21&#45;&gt;Node9 -->
<g id="edge46" class="edge">
<title>Node21&#45;&gt;Node9</title>
<path fill="none" stroke="midnightblue" d="M1197.95,-231.03C1257.13,-221.74 1361.25,-204.4 1397.5,-192 1416.87,-185.37 1418.9,-176.91 1438.5,-171 1506.59,-150.47 1718.14,-134.01 1804.36,-127.98"/>
<polygon fill="midnightblue" stroke="midnightblue" points="1197.14,-227.61 1187.8,-232.61 1198.22,-234.53 1197.14,-227.61"/>
</g>
<!-- Node21&#45;&gt;Node12 -->
<g id="edge43" class="edge">
<title>Node21&#45;&gt;Node12</title>
<path fill="none" stroke="midnightblue" d="M1197.59,-230.69C1252.06,-221.86 1349.88,-205.93 1433.5,-192 1437.97,-191.25 1442.65,-190.47 1447.31,-189.68"/>
<polygon fill="midnightblue" stroke="midnightblue" points="1196.93,-227.25 1187.62,-232.31 1198.05,-234.16 1196.93,-227.25"/>
</g>
<!-- Node21&#45;&gt;Node15 -->
<g id="edge42" class="edge">
<title>Node21&#45;&gt;Node15</title>
<path fill="none" stroke="midnightblue" d="M1113.31,-238.01C963.88,-239.4 466,-240.35 415.5,-192 366.79,-145.37 386.24,-50.57 393.93,-20.72"/>
<polygon fill="midnightblue" stroke="midnightblue" points="1113.49,-241.51 1123.46,-237.91 1113.42,-234.51 1113.49,-241.51"/>
</g>
<!-- Node21&#45;&gt;Node16 -->
<g id="edge44" class="edge">
<title>Node21&#45;&gt;Node16</title>
<path fill="none" stroke="midnightblue" d="M1169.02,-220C1174.78,-211.85 1181.16,-201.81 1185.5,-192 1194.08,-172.6 1198.95,-148.03 1201.12,-134.86"/>
<polygon fill="midnightblue" stroke="midnightblue" points="1166.04,-218.15 1162.92,-228.27 1171.67,-222.3 1166.04,-218.15"/>
</g>
<!-- Node21&#45;&gt;Node17 -->
<g id="edge45" class="edge">
<title>Node21&#45;&gt;Node17</title>
<path fill="none" stroke="midnightblue" d="M1197.67,-231.72C1207.15,-230.46 1217.16,-229.16 1226.5,-228 1365.9,-210.68 1401.32,-210.99 1540.5,-192 1543.53,-191.59 1546.64,-191.14 1549.78,-190.69"/>
<polygon fill="midnightblue" stroke="midnightblue" points="1197.09,-228.27 1187.65,-233.07 1198.02,-235.21 1197.09,-228.27"/>
</g>
<!-- Node22 -->
<g id="node22" class="node">
<title>Node22</title>
<g id="a_node22"><a xlink:href="_audio_sample_fifo_queue_8cpp-inc.html" target="_top" xlink:title="The AudioSampleFifoQueue body implements a fifo queue for audio samples with popping off access to th...">
<polygon fill="white" stroke="black" points="197,-171.5 197,-191.5 368,-191.5 368,-171.5 197,-171.5"/>
<text text-anchor="middle" x="282.5" y="-178.7" font-family="Helvetica,sans-Serif" font-size="11.00">AudioSampleFifoQueue.cpp&#45;inc</text>
</a>
</g>
</g>
<!-- Node21&#45;&gt;Node22 -->
<g id="edge26" class="edge">
<title>Node21&#45;&gt;Node22</title>
<path fill="none" stroke="midnightblue" d="M1113.17,-235.54C996.59,-230.04 660.98,-213.42 382.5,-192 377.81,-191.64 372.99,-191.25 368.13,-190.84"/>
<polygon fill="midnightblue" stroke="midnightblue" points="1113.29,-239.05 1123.44,-236.03 1113.62,-232.06 1113.29,-239.05"/>
</g>
<!-- Node27 -->
<g id="node27" class="node">
<title>Node27</title>
<g id="a_node27"><a xlink:href="_audio_sample_fifo_queue_vector_8cpp-inc.html" target="_top" xlink:title="The AudioSampleFifoQueueVector body implements a list of fifo queues for audio samples (this is the e...">
<polygon fill="white" stroke="black" points="0,-114.5 0,-134.5 203,-134.5 203,-114.5 0,-114.5"/>
<text text-anchor="middle" x="101.5" y="-121.7" font-family="Helvetica,sans-Serif" font-size="11.00">AudioSampleFifoQueueVector.cpp&#45;inc</text>
</a>
</g>
</g>
<!-- Node21&#45;&gt;Node27 -->
<g id="edge32" class="edge">
<title>Node21&#45;&gt;Node27</title>
<path fill="none" stroke="midnightblue" d="M1113.37,-237.01C938.52,-234.78 275.12,-224.24 187.5,-192 154.55,-179.88 124.08,-150.27 109.88,-134.98"/>
<polygon fill="midnightblue" stroke="midnightblue" points="1113.42,-240.51 1123.46,-237.14 1113.51,-233.51 1113.42,-240.51"/>
</g>
<!-- Node28 -->
<g id="node28" class="node">
<title>Node28</title>
<g id="a_node28"><a xlink:href="_command_line_arguments_8cpp.html" target="_top" xlink:title="The CommandLineArguments body implements a handler for command&#45;line arguments converting them to a li...">
<polygon fill="white" stroke="black" points="425,-171.5 425,-191.5 588,-191.5 588,-171.5 425,-171.5"/>
<text text-anchor="middle" x="506.5" y="-178.7" font-family="Helvetica,sans-Serif" font-size="11.00">CommandLineArguments.cpp</text>
</a>
</g>
</g>
<!-- Node21&#45;&gt;Node28 -->
<g id="edge35" class="edge">
<title>Node21&#45;&gt;Node28</title>
<path fill="none" stroke="midnightblue" d="M1113.17,-234.4C1019.82,-227.49 789.27,-210.02 596.5,-192 593.84,-191.75 591.14,-191.49 588.41,-191.23"/>
<polygon fill="midnightblue" stroke="midnightblue" points="1113.11,-237.91 1123.34,-235.15 1113.62,-230.93 1113.11,-237.91"/>
</g>
<!-- Node29 -->
<g id="node29" class="node">
<title>Node29</title>
<g id="a_node29"><a xlink:href="_fluid_synth_8cpp.html" target="_top" xlink:title="The FluidSynth class implements the access to the fluidsynth library via a dynamic loading of it.">
<polygon fill="white" stroke="black" points="606,-171.5 606,-191.5 695,-191.5 695,-171.5 606,-171.5"/>
<text text-anchor="middle" x="650.5" y="-178.7" font-family="Helvetica,sans-Serif" font-size="11.00">FluidSynth.cpp</text>
</a>
</g>
</g>
<!-- Node21&#45;&gt;Node29 -->
<g id="edge37" class="edge">
<title>Node21&#45;&gt;Node29</title>
<path fill="none" stroke="midnightblue" d="M1113.25,-234.28C1033.26,-227.96 854.27,-212.7 704.5,-192 701.48,-191.58 698.38,-191.12 695.25,-190.63"/>
<polygon fill="midnightblue" stroke="midnightblue" points="1113.17,-237.79 1123.41,-235.08 1113.72,-230.81 1113.17,-237.79"/>
</g>
<!-- Node30 -->
<g id="node30" class="node">
<title>Node30</title>
<g id="a_node30"><a xlink:href="_fluid_synth_settings_8cpp.html" target="_top" xlink:title="The FluidSynthSettings class implements an object&#45;oriented wrapper around an underlying fluidsynth se...">
<polygon fill="white" stroke="black" points="713.5,-171.5 713.5,-191.5 841.5,-191.5 841.5,-171.5 713.5,-171.5"/>
<text text-anchor="middle" x="777.5" y="-178.7" font-family="Helvetica,sans-Serif" font-size="11.00">FluidSynthSettings.cpp</text>
</a>
</g>
</g>
<!-- Node21&#45;&gt;Node30 -->
<g id="edge38" class="edge">
<title>Node21&#45;&gt;Node30</title>
<path fill="none" stroke="midnightblue" d="M1113.14,-231.34C1046.49,-221.64 916.83,-202.77 839.63,-191.54"/>
<polygon fill="midnightblue" stroke="midnightblue" points="1112.87,-234.83 1123.27,-232.81 1113.88,-227.91 1112.87,-234.83"/>
</g>
<!-- Node31 -->
<g id="node31" class="node">
<title>Node31</title>
<g id="a_node31"><a xlink:href="_fluid_synth_synthesizer_8cpp.html" target="_top" xlink:title="The FluidSynthSynthesizer class implements an object&#45;oriented wrapper around an underlying fluidsynth...">
<polygon fill="white" stroke="black" points="859.5,-171.5 859.5,-191.5 1005.5,-191.5 1005.5,-171.5 859.5,-171.5"/>
<text text-anchor="middle" x="932.5" y="-178.7" font-family="Helvetica,sans-Serif" font-size="11.00">FluidSynthSynthesizer.cpp</text>
</a>
</g>
</g>
<!-- Node21&#45;&gt;Node31 -->
<g id="edge39" class="edge">
<title>Node21&#45;&gt;Node31</title>
<path fill="none" stroke="midnightblue" d="M1113.23,-227.07C1071.58,-216.8 1008.59,-201.27 969.04,-191.51"/>
<polygon fill="midnightblue" stroke="midnightblue" points="1112.53,-230.51 1123.07,-229.5 1114.2,-223.71 1112.53,-230.51"/>
</g>
<!-- Node32 -->
<g id="node32" class="node">
<title>Node32</title>
<g id="a_node32"><a xlink:href="_fluid_synth_plugin___editor_8cpp.html" target="_top" xlink:title="The FluidSynthPlugin_Editor module implements the editor for the processor of MIDI events from the DA...">
<polygon fill="white" stroke="black" points="1024,-171.5 1024,-191.5 1177,-191.5 1177,-171.5 1024,-171.5"/>
<text text-anchor="middle" x="1100.5" y="-178.7" font-family="Helvetica,sans-Serif" font-size="11.00">FluidSynthPlugin_Editor.cpp</text>
</a>
</g>
</g>
<!-- Node21&#45;&gt;Node32 -->
<g id="edge41" class="edge">
<title>Node21&#45;&gt;Node32</title>
<path fill="none" stroke="midnightblue" d="M1139.3,-221.3C1129.68,-211.68 1117.83,-199.83 1109.78,-191.78"/>
<polygon fill="midnightblue" stroke="midnightblue" points="1136.87,-223.82 1146.42,-228.42 1141.82,-218.87 1136.87,-223.82"/>
</g>
<!-- Node23 -->
<g id="node23" class="node">
<title>Node23</title>
<g id="a_node23"><a xlink:href="_audio_sample_fifo_queue_8h.html" target="_top" xlink:title="The AudioSampleFifoQueue specification defines a fifo queue for audio samples with popping off access...">
<polygon fill="white" stroke="black" points="221,-114.5 221,-134.5 362,-134.5 362,-114.5 221,-114.5"/>
<text text-anchor="middle" x="291.5" y="-121.7" font-family="Helvetica,sans-Serif" font-size="11.00">AudioSampleFifoQueue.h</text>
</a>
</g>
</g>
<!-- Node22&#45;&gt;Node23 -->
<g id="edge27" class="edge">
<title>Node22&#45;&gt;Node23</title>
<path fill="none" stroke="midnightblue" d="M285.63,-161.38C287.1,-152.37 288.79,-142.04 289.98,-134.78"/>
<polygon fill="midnightblue" stroke="midnightblue" points="282.15,-160.98 283.99,-171.42 289.06,-162.11 282.15,-160.98"/>
</g>
<!-- Node24 -->
<g id="node24" class="node">
<title>Node24</title>
<g id="a_node24"><a xlink:href="_audio_sample_fifo_queue_8cpp.html" target="_top" xlink:title="The AudioSampleFifoQueue body implements a fifo queue for audio samples with popping off access to th...">
<polygon fill="white" stroke="black" points="215,-57.5 215,-77.5 368,-77.5 368,-57.5 215,-57.5"/>
<text text-anchor="middle" x="291.5" y="-64.7" font-family="Helvetica,sans-Serif" font-size="11.00">AudioSampleFifoQueue.cpp</text>
</a>
</g>
</g>
<!-- Node23&#45;&gt;Node24 -->
<g id="edge28" class="edge">
<title>Node23&#45;&gt;Node24</title>
<path fill="none" stroke="midnightblue" d="M291.5,-104.38C291.5,-95.37 291.5,-85.04 291.5,-77.78"/>
<polygon fill="midnightblue" stroke="midnightblue" points="288,-104.42 291.5,-114.42 295,-104.42 288,-104.42"/>
</g>
<!-- Node25 -->
<g id="node25" class="node">
<title>Node25</title>
<g id="a_node25"><a xlink:href="_audio_sample_fifo_queue_vector_8h.html" target="_top" xlink:title="The AudioSampleFifoQueueVector specification defines a list of fifo queues for audio samples.">
<polygon fill="white" stroke="black" points="24,-57.5 24,-77.5 197,-77.5 197,-57.5 24,-57.5"/>
<text text-anchor="middle" x="110.5" y="-64.7" font-family="Helvetica,sans-Serif" font-size="11.00">AudioSampleFifoQueueVector.h</text>
</a>
</g>
</g>
<!-- Node23&#45;&gt;Node25 -->
<g id="edge29" class="edge">
<title>Node23&#45;&gt;Node25</title>
<path fill="none" stroke="midnightblue" d="M251.64,-111.39C217.97,-101.16 170.52,-86.74 140.13,-77.5"/>
<polygon fill="midnightblue" stroke="midnightblue" points="251.03,-114.86 261.61,-114.42 253.06,-108.16 251.03,-114.86"/>
</g>
<!-- Node25&#45;&gt;Node15 -->
<g id="edge31" class="edge">
<title>Node25&#45;&gt;Node15</title>
<path fill="none" stroke="midnightblue" d="M167.4,-55.56C220.79,-45.29 299.68,-30.12 349.57,-20.53"/>
<polygon fill="midnightblue" stroke="midnightblue" points="166.57,-52.15 157.41,-57.48 167.89,-59.03 166.57,-52.15"/>
</g>
<!-- Node26 -->
<g id="node26" class="node">
<title>Node26</title>
<g id="a_node26"><a xlink:href="_audio_sample_fifo_queue_vector_8cpp.html" target="_top" xlink:title="The AudioSampleFifoQueueVector body implements a list of fifo queues for audio samples (this is the f...">
<polygon fill="white" stroke="black" points="18,-0.5 18,-20.5 203,-20.5 203,-0.5 18,-0.5"/>
<text text-anchor="middle" x="110.5" y="-7.7" font-family="Helvetica,sans-Serif" font-size="11.00">AudioSampleFifoQueueVector.cpp</text>
</a>
</g>
</g>
<!-- Node25&#45;&gt;Node26 -->
<g id="edge30" class="edge">
<title>Node25&#45;&gt;Node26</title>
<path fill="none" stroke="midnightblue" d="M110.5,-47.38C110.5,-38.37 110.5,-28.04 110.5,-20.78"/>
<polygon fill="midnightblue" stroke="midnightblue" points="107,-47.42 110.5,-57.42 114,-47.42 107,-47.42"/>
</g>
<!-- Node27&#45;&gt;Node25 -->
<g id="edge33" class="edge">
<title>Node27&#45;&gt;Node25</title>
<path fill="none" stroke="midnightblue" d="M104.63,-104.38C106.1,-95.37 107.79,-85.04 108.98,-77.78"/>
<polygon fill="midnightblue" stroke="midnightblue" points="101.15,-103.98 102.99,-114.42 108.06,-105.11 101.15,-103.98"/>
</g>
</g>
</svg>
