<?xml version="1.0" encoding="UTF-8" standalone="no"?>
<!DOCTYPE svg PUBLIC "-//W3C//DTD SVG 1.1//EN"
 "http://www.w3.org/Graphics/SVG/1.1/DTD/svg11.dtd">
<!-- Generated by graphviz version 2.47.1 (20210417.1919)
 -->
<!-- Title: Byte.h Pages: 1 -->
<svg width="2561pt" height="420pt"
 viewBox="0.00 0.00 2560.50 420.00" xmlns="http://www.w3.org/2000/svg" xmlns:xlink="http://www.w3.org/1999/xlink">
<g id="graph0" class="graph" transform="scale(1 1) rotate(0) translate(4 416)">
<title>Byte.h</title>
<polygon fill="white" stroke="transparent" points="-4,4 -4,-416 2556.5,-416 2556.5,4 -4,4"/>
<!-- Node1 -->
<g id="node1" class="node">
<title>Node1</title>
<g id="a_node1"><a xlink:title="The Byte specification and body provides a value object type for byte values.">
<polygon fill="#bfbfbf" stroke="black" points="397,-392.5 397,-411.5 442,-411.5 442,-392.5 397,-392.5"/>
<text text-anchor="middle" x="419.5" y="-399.5" font-family="Helvetica,sans-Serif" font-size="10.00">Byte.h</text>
</a>
</g>
</g>
<!-- Node2 -->
<g id="node2" class="node">
<title>Node2</title>
<g id="a_node2"><a xlink:href="_byte_list_8h.html" target="_top" xlink:title="The ByteList specification defines lists of byte values with zero&#45;based arbitrary indexed access to p...">
<polygon fill="white" stroke="black" points="348,-336.5 348,-355.5 409,-355.5 409,-336.5 348,-336.5"/>
<text text-anchor="middle" x="378.5" y="-343.5" font-family="Helvetica,sans-Serif" font-size="10.00">ByteList.h</text>
</a>
</g>
</g>
<!-- Node1&#45;&gt;Node2 -->
<g id="edge1" class="edge">
<title>Node1&#45;&gt;Node2</title>
<path fill="none" stroke="midnightblue" d="M406.48,-383.86C399.38,-374.5 390.9,-363.33 385.14,-355.75"/>
<polygon fill="midnightblue" stroke="midnightblue" points="403.89,-386.24 412.73,-392.08 409.47,-382 403.89,-386.24"/>
</g>
<!-- Node19 -->
<g id="node19" class="node">
<title>Node19</title>
<g id="a_node19"><a xlink:href="_character_8h.html" target="_top" xlink:title="The Character specification and body provides a value object type for character values.">
<polygon fill="white" stroke="black" points="427,-336.5 427,-355.5 494,-355.5 494,-336.5 427,-336.5"/>
<text text-anchor="middle" x="460.5" y="-343.5" font-family="Helvetica,sans-Serif" font-size="10.00">Character.h</text>
</a>
</g>
</g>
<!-- Node1&#45;&gt;Node19 -->
<g id="edge21" class="edge">
<title>Node1&#45;&gt;Node19</title>
<path fill="none" stroke="midnightblue" d="M432.52,-383.86C439.62,-374.5 448.1,-363.33 453.86,-355.75"/>
<polygon fill="midnightblue" stroke="midnightblue" points="429.53,-382 426.27,-392.08 435.11,-386.24 429.53,-382"/>
</g>
<!-- Node3 -->
<g id="node3" class="node">
<title>Node3</title>
<g id="a_node3"><a xlink:href="_file_8h.html" target="_top" xlink:title="The File specification defines a class for simple file handling based on C stdio.">
<polygon fill="white" stroke="black" points="203,-224.5 203,-243.5 244,-243.5 244,-224.5 203,-224.5"/>
<text text-anchor="middle" x="223.5" y="-231.5" font-family="Helvetica,sans-Serif" font-size="10.00">File.h</text>
</a>
</g>
</g>
<!-- Node2&#45;&gt;Node3 -->
<g id="edge2" class="edge">
<title>Node2&#45;&gt;Node3</title>
<path fill="none" stroke="midnightblue" d="M357.95,-330.42C325.17,-307.15 262.04,-262.35 235.61,-243.59"/>
<polygon fill="midnightblue" stroke="midnightblue" points="356.16,-333.44 366.34,-336.37 360.21,-327.73 356.16,-333.44"/>
</g>
<!-- Node10 -->
<g id="node10" class="node">
<title>Node10</title>
<g id="a_node10"><a xlink:href="_byte_list_8cpp.html" target="_top" xlink:title="The ByteList body implements sequences of byte values with zero&#45;based arbitrary indexed access to pos...">
<polygon fill="white" stroke="black" points="343,-280.5 343,-299.5 414,-299.5 414,-280.5 343,-280.5"/>
<text text-anchor="middle" x="378.5" y="-287.5" font-family="Helvetica,sans-Serif" font-size="10.00">ByteList.cpp</text>
</a>
</g>
</g>
<!-- Node2&#45;&gt;Node10 -->
<g id="edge9" class="edge">
<title>Node2&#45;&gt;Node10</title>
<path fill="none" stroke="midnightblue" d="M378.5,-325.8C378.5,-316.91 378.5,-306.78 378.5,-299.75"/>
<polygon fill="midnightblue" stroke="midnightblue" points="375,-326.08 378.5,-336.08 382,-326.08 375,-326.08"/>
</g>
<!-- Node11 -->
<g id="node11" class="node">
<title>Node11</title>
<g id="a_node11"><a xlink:href="_midi_event_8h.html" target="_top" xlink:title="The MidiEvent specification defines a single MIDI event and the MIDI event kind enumeration.">
<polygon fill="white" stroke="black" points="579,-280.5 579,-299.5 646,-299.5 646,-280.5 579,-280.5"/>
<text text-anchor="middle" x="612.5" y="-287.5" font-family="Helvetica,sans-Serif" font-size="10.00">MidiEvent.h</text>
</a>
</g>
</g>
<!-- Node2&#45;&gt;Node11 -->
<g id="edge10" class="edge">
<title>Node2&#45;&gt;Node11</title>
<path fill="none" stroke="midnightblue" d="M418.86,-335.69C464.09,-325.25 536.59,-308.52 578.87,-298.76"/>
<polygon fill="midnightblue" stroke="midnightblue" points="418.05,-332.28 409.09,-337.94 419.62,-339.1 418.05,-332.28"/>
</g>
<!-- Node4 -->
<g id="node4" class="node">
<title>Node4</title>
<g id="a_node4"><a xlink:href="_wave_file_8cpp.html" target="_top" xlink:title="The WaveFile specification defines an object for accessing a RIFF wave file with several channels.">
<polygon fill="white" stroke="black" points="396,-168.5 396,-187.5 471,-187.5 471,-168.5 396,-168.5"/>
<text text-anchor="middle" x="433.5" y="-175.5" font-family="Helvetica,sans-Serif" font-size="10.00">WaveFile.cpp</text>
</a>
</g>
</g>
<!-- Node3&#45;&gt;Node4 -->
<g id="edge3" class="edge">
<title>Node3&#45;&gt;Node4</title>
<path fill="none" stroke="midnightblue" d="M253.72,-225.23C292.59,-215.23 359.89,-197.93 400.2,-187.56"/>
<polygon fill="midnightblue" stroke="midnightblue" points="252.83,-221.84 244.02,-227.72 254.57,-228.62 252.83,-221.84"/>
</g>
<!-- Node5 -->
<g id="node5" class="node">
<title>Node5</title>
<g id="a_node5"><a xlink:href="_file_8cpp.html" target="_top" xlink:title="The File body implements a class for simple file handling based on C stdio.">
<polygon fill="white" stroke="black" points="198,-168.5 198,-187.5 249,-187.5 249,-168.5 198,-168.5"/>
<text text-anchor="middle" x="223.5" y="-175.5" font-family="Helvetica,sans-Serif" font-size="10.00">File.cpp</text>
</a>
</g>
</g>
<!-- Node3&#45;&gt;Node5 -->
<g id="edge4" class="edge">
<title>Node3&#45;&gt;Node5</title>
<path fill="none" stroke="midnightblue" d="M223.5,-213.8C223.5,-204.91 223.5,-194.78 223.5,-187.75"/>
<polygon fill="midnightblue" stroke="midnightblue" points="220,-214.08 223.5,-224.08 227,-214.08 220,-214.08"/>
</g>
<!-- Node6 -->
<g id="node6" class="node">
<title>Node6</title>
<g id="a_node6"><a xlink:href="_logging_support_8cpp.html" target="_top" xlink:title="The LoggingSupport body implements a class for simple entry/exit logging to a file or via a callback ...">
<polygon fill="white" stroke="black" points="0,-168.5 0,-187.5 103,-187.5 103,-168.5 0,-168.5"/>
<text text-anchor="middle" x="51.5" y="-175.5" font-family="Helvetica,sans-Serif" font-size="10.00">LoggingSupport.cpp</text>
</a>
</g>
</g>
<!-- Node3&#45;&gt;Node6 -->
<g id="edge5" class="edge">
<title>Node3&#45;&gt;Node6</title>
<path fill="none" stroke="midnightblue" d="M192.93,-223.4C160.56,-213.24 109.93,-197.34 78.84,-187.58"/>
<polygon fill="midnightblue" stroke="midnightblue" points="192.16,-226.83 202.75,-226.49 194.26,-220.15 192.16,-226.83"/>
</g>
<!-- Node7 -->
<g id="node7" class="node">
<title>Node7</title>
<g id="a_node7"><a xlink:href="_operating_system_8cpp.html" target="_top" xlink:title="The OperatingSystem body implements a class for several operating system related utility functions (l...">
<polygon fill="white" stroke="black" points="267,-168.5 267,-187.5 378,-187.5 378,-168.5 267,-168.5"/>
<text text-anchor="middle" x="322.5" y="-175.5" font-family="Helvetica,sans-Serif" font-size="10.00">OperatingSystem.cpp</text>
</a>
</g>
</g>
<!-- Node3&#45;&gt;Node7 -->
<g id="edge6" class="edge">
<title>Node3&#45;&gt;Node7</title>
<path fill="none" stroke="midnightblue" d="M248.34,-219.45C266.61,-209.48 290.92,-196.23 306.63,-187.65"/>
<polygon fill="midnightblue" stroke="midnightblue" points="246.51,-216.46 239.41,-224.32 249.86,-222.61 246.51,-216.46"/>
</g>
<!-- Node8 -->
<g id="node8" class="node">
<title>Node8</title>
<g id="a_node8"><a xlink:href="_fluid_synth_file_converter_8cpp.html" target="_top" xlink:title="The FluidSynthFileConverter module implements a conversion from a MIDI file into a wave file using th...">
<polygon fill="white" stroke="black" points="661.5,-112.5 661.5,-131.5 799.5,-131.5 799.5,-112.5 661.5,-112.5"/>
<text text-anchor="middle" x="730.5" y="-119.5" font-family="Helvetica,sans-Serif" font-size="10.00">FluidSynthFileConverter.cpp</text>
</a>
</g>
</g>
<!-- Node3&#45;&gt;Node8 -->
<g id="edge7" class="edge">
<title>Node3&#45;&gt;Node8</title>
<path fill="none" stroke="midnightblue" d="M205.01,-217.29C190.6,-203.2 175.1,-182.56 188.5,-168 196.42,-159.39 517.12,-137.13 661.41,-127.52"/>
<polygon fill="midnightblue" stroke="midnightblue" points="202.98,-220.18 212.71,-224.37 207.71,-215.03 202.98,-220.18"/>
</g>
<!-- Node9 -->
<g id="node9" class="node">
<title>Node9</title>
<g id="a_node9"><a xlink:href="_midi_file_8cpp.html" target="_top" xlink:title="The MidiFile implementation implements the services of a MIDI file; currently only file reading is su...">
<polygon fill="white" stroke="black" points="484,-112.5 484,-131.5 553,-131.5 553,-112.5 484,-112.5"/>
<text text-anchor="middle" x="518.5" y="-119.5" font-family="Helvetica,sans-Serif" font-size="10.00">MidiFile.cpp</text>
</a>
</g>
</g>
<!-- Node3&#45;&gt;Node9 -->
<g id="edge8" class="edge">
<title>Node3&#45;&gt;Node9</title>
<path fill="none" stroke="midnightblue" d="M193.55,-220.13C168.18,-207.47 138.45,-187.29 155.5,-168 177.08,-143.58 397.4,-129.39 483.9,-124.73"/>
<polygon fill="midnightblue" stroke="midnightblue" points="192.07,-223.3 202.6,-224.44 195.08,-216.98 192.07,-223.3"/>
</g>
<!-- Node12 -->
<g id="node12" class="node">
<title>Node12</title>
<g id="a_node12"><a xlink:href="_midi_event_8cpp.html" target="_top" xlink:title="The MidiEvent implementation defines the services of a single MIDI event.">
<polygon fill="white" stroke="black" points="677,-168.5 677,-187.5 754,-187.5 754,-168.5 677,-168.5"/>
<text text-anchor="middle" x="715.5" y="-175.5" font-family="Helvetica,sans-Serif" font-size="10.00">MidiEvent.cpp</text>
</a>
</g>
</g>
<!-- Node11&#45;&gt;Node12 -->
<g id="edge11" class="edge">
<title>Node11&#45;&gt;Node12</title>
<path fill="none" stroke="midnightblue" d="M630.76,-273.76C640.52,-265.33 652.53,-254.47 662.5,-244 680.58,-225.02 699.43,-200.6 709.04,-187.77"/>
<polygon fill="midnightblue" stroke="midnightblue" points="628.23,-271.32 622.88,-280.47 632.77,-276.65 628.23,-271.32"/>
</g>
<!-- Node13 -->
<g id="node13" class="node">
<title>Node13</title>
<g id="a_node13"><a xlink:href="_midi_event_list_8h.html" target="_top" xlink:title="The MidiEventList specification defines lists of MIDI events with zero&#45;based arbitrary indexed access...">
<polygon fill="white" stroke="black" points="571,-224.5 571,-243.5 654,-243.5 654,-224.5 571,-224.5"/>
<text text-anchor="middle" x="612.5" y="-231.5" font-family="Helvetica,sans-Serif" font-size="10.00">MidiEventList.h</text>
</a>
</g>
</g>
<!-- Node11&#45;&gt;Node13 -->
<g id="edge12" class="edge">
<title>Node11&#45;&gt;Node13</title>
<path fill="none" stroke="midnightblue" d="M612.5,-269.8C612.5,-260.91 612.5,-250.78 612.5,-243.75"/>
<polygon fill="midnightblue" stroke="midnightblue" points="609,-270.08 612.5,-280.08 616,-270.08 609,-270.08"/>
</g>
<!-- Node14 -->
<g id="node14" class="node">
<title>Node14</title>
<g id="a_node14"><a xlink:href="_midi_event_converter_8h.html" target="_top" xlink:title="The MidiEventConverter specification defines the handling of MIDI events by feeding them to an underl...">
<polygon fill="white" stroke="black" points="849,-168.5 849,-187.5 956,-187.5 956,-168.5 849,-168.5"/>
<text text-anchor="middle" x="902.5" y="-175.5" font-family="Helvetica,sans-Serif" font-size="10.00">MidiEventConverter.h</text>
</a>
</g>
</g>
<!-- Node13&#45;&gt;Node14 -->
<g id="edge13" class="edge">
<title>Node13&#45;&gt;Node14</title>
<path fill="none" stroke="midnightblue" d="M663.88,-223.43C718.57,-213.25 804.28,-197.29 856.72,-187.52"/>
<polygon fill="midnightblue" stroke="midnightblue" points="663.24,-219.99 654.05,-225.26 664.52,-226.87 663.24,-219.99"/>
</g>
<!-- Node17 -->
<g id="node17" class="node">
<title>Node17</title>
<g id="a_node17"><a xlink:href="_midi_event_list_8cpp.html" target="_top" xlink:title="The MIDIEventList body implements sequences of integer values with zero&#45;based arbitrary indexed acces...">
<polygon fill="white" stroke="black" points="566,-168.5 566,-187.5 659,-187.5 659,-168.5 566,-168.5"/>
<text text-anchor="middle" x="612.5" y="-175.5" font-family="Helvetica,sans-Serif" font-size="10.00">MidiEventList.cpp</text>
</a>
</g>
</g>
<!-- Node13&#45;&gt;Node17 -->
<g id="edge17" class="edge">
<title>Node13&#45;&gt;Node17</title>
<path fill="none" stroke="midnightblue" d="M612.5,-213.8C612.5,-204.91 612.5,-194.78 612.5,-187.75"/>
<polygon fill="midnightblue" stroke="midnightblue" points="609,-214.08 612.5,-224.08 616,-214.08 609,-214.08"/>
</g>
<!-- Node18 -->
<g id="node18" class="node">
<title>Node18</title>
<g id="a_node18"><a xlink:href="_midi_file_8h.html" target="_top" xlink:title="The MidiFile specification defines the services of a MIDI file; currently only file reading is suppor...">
<polygon fill="white" stroke="black" points="489,-168.5 489,-187.5 548,-187.5 548,-168.5 489,-168.5"/>
<text text-anchor="middle" x="518.5" y="-175.5" font-family="Helvetica,sans-Serif" font-size="10.00">MidiFile.h</text>
</a>
</g>
</g>
<!-- Node13&#45;&gt;Node18 -->
<g id="edge18" class="edge">
<title>Node13&#45;&gt;Node18</title>
<path fill="none" stroke="midnightblue" d="M588.44,-219.18C571.14,-209.24 548.35,-196.15 533.57,-187.65"/>
<polygon fill="midnightblue" stroke="midnightblue" points="586.98,-222.38 597.4,-224.32 590.47,-216.31 586.98,-222.38"/>
</g>
<!-- Node14&#45;&gt;Node8 -->
<g id="edge14" class="edge">
<title>Node14&#45;&gt;Node8</title>
<path fill="none" stroke="midnightblue" d="M865.67,-165.44C833.24,-155.26 786.76,-140.66 757.63,-131.52"/>
<polygon fill="midnightblue" stroke="midnightblue" points="864.66,-168.79 875.25,-168.44 866.75,-162.11 864.66,-168.79"/>
</g>
<!-- Node15 -->
<g id="node15" class="node">
<title>Node15</title>
<g id="a_node15"><a xlink:href="_fluid_synth_plugin___event_processor_8cpp.html" target="_top" xlink:title="The FluidSynthPlugin_Processor module implements the handling of MIDI events from the DAW via JUCE ha...">
<polygon fill="white" stroke="black" points="2087.5,-0.5 2087.5,-19.5 2269.5,-19.5 2269.5,-0.5 2087.5,-0.5"/>
<text text-anchor="middle" x="2178.5" y="-7.5" font-family="Helvetica,sans-Serif" font-size="10.00">FluidSynthPlugin_EventProcessor.cpp</text>
</a>
</g>
</g>
<!-- Node14&#45;&gt;Node15 -->
<g id="edge15" class="edge">
<title>Node14&#45;&gt;Node15</title>
<path fill="none" stroke="midnightblue" d="M966.35,-167.76C1407.98,-107.23 1925.85,-42.36 2109.66,-19.52"/>
<polygon fill="midnightblue" stroke="midnightblue" points="965.69,-164.32 956.26,-169.14 966.64,-171.25 965.69,-164.32"/>
</g>
<!-- Node16 -->
<g id="node16" class="node">
<title>Node16</title>
<g id="a_node16"><a xlink:href="_midi_event_converter_8cpp.html" target="_top" xlink:title="The MidiEventConverter module implements the handling of MIDI events by feeding them to an underlying...">
<polygon fill="white" stroke="black" points="1753.5,-112.5 1753.5,-131.5 1871.5,-131.5 1871.5,-112.5 1753.5,-112.5"/>
<text text-anchor="middle" x="1812.5" y="-119.5" font-family="Helvetica,sans-Serif" font-size="10.00">MidiEventConverter.cpp</text>
</a>
</g>
</g>
<!-- Node14&#45;&gt;Node16 -->
<g id="edge16" class="edge">
<title>Node14&#45;&gt;Node16</title>
<path fill="none" stroke="midnightblue" d="M966.48,-167.89C1267.71,-138.55 1616.42,-127.66 1753.24,-124.29"/>
<polygon fill="midnightblue" stroke="midnightblue" points="965.84,-164.43 956.23,-168.89 966.53,-171.4 965.84,-164.43"/>
</g>
<!-- Node18&#45;&gt;Node8 -->
<g id="edge19" class="edge">
<title>Node18&#45;&gt;Node8</title>
<path fill="none" stroke="midnightblue" d="M558.36,-166.85C598.35,-156.66 659.26,-141.15 696.88,-131.56"/>
<polygon fill="midnightblue" stroke="midnightblue" points="557.25,-163.52 548.42,-169.38 558.98,-170.3 557.25,-163.52"/>
</g>
<!-- Node18&#45;&gt;Node9 -->
<g id="edge20" class="edge">
<title>Node18&#45;&gt;Node9</title>
<path fill="none" stroke="midnightblue" d="M518.5,-157.8C518.5,-148.91 518.5,-138.78 518.5,-131.75"/>
<polygon fill="midnightblue" stroke="midnightblue" points="515,-158.08 518.5,-168.08 522,-158.08 515,-158.08"/>
</g>
<!-- Node19&#45;&gt;Node4 -->
<g id="edge22" class="edge">
<title>Node19&#45;&gt;Node4</title>
<path fill="none" stroke="midnightblue" d="M457.4,-325.93C451.54,-289.92 439.07,-213.23 434.89,-187.57"/>
<polygon fill="midnightblue" stroke="midnightblue" points="453.99,-326.77 459.05,-336.08 460.9,-325.64 453.99,-326.77"/>
</g>
<!-- Node20 -->
<g id="node20" class="node">
<title>Node20</title>
<g id="a_node20"><a xlink:href="_string_util_8h.html" target="_top" xlink:title="The StringUtil specification defines several string routines not included in the standard C++ library...">
<polygon fill="white" stroke="black" points="1341,-280.5 1341,-299.5 1406,-299.5 1406,-280.5 1341,-280.5"/>
<text text-anchor="middle" x="1373.5" y="-287.5" font-family="Helvetica,sans-Serif" font-size="10.00">StringUtil.h</text>
</a>
</g>
</g>
<!-- Node19&#45;&gt;Node20 -->
<g id="edge23" class="edge">
<title>Node19&#45;&gt;Node20</title>
<path fill="none" stroke="midnightblue" d="M504.37,-342.41C662.54,-333.05 1201.57,-301.17 1340.58,-292.95"/>
<polygon fill="midnightblue" stroke="midnightblue" points="503.85,-338.93 494.08,-343.01 504.27,-345.92 503.85,-338.93"/>
</g>
<!-- Node20&#45;&gt;Node5 -->
<g id="edge24" class="edge">
<title>Node20&#45;&gt;Node5</title>
<path fill="none" stroke="midnightblue" d="M1330.55,-288.53C1209.28,-286.81 854.09,-278.91 561.5,-244 425.08,-227.72 391.56,-218.04 257.5,-188 254.76,-187.39 251.91,-186.7 249.07,-185.99"/>
<polygon fill="midnightblue" stroke="midnightblue" points="1330.84,-292.04 1340.88,-288.67 1330.93,-285.04 1330.84,-292.04"/>
</g>
<!-- Node21 -->
<g id="node21" class="node">
<title>Node21</title>
<g id="a_node21"><a xlink:href="_logging_8h.html" target="_top" xlink:title="The Logging specification defines macros for entry&#45;, exit&#45; and intermediate logging of functions into...">
<polygon fill="white" stroke="black" points="1315,-224.5 1315,-243.5 1374,-243.5 1374,-224.5 1315,-224.5"/>
<text text-anchor="middle" x="1344.5" y="-231.5" font-family="Helvetica,sans-Serif" font-size="10.00">Logging.h</text>
</a>
</g>
</g>
<!-- Node20&#45;&gt;Node21 -->
<g id="edge25" class="edge">
<title>Node20&#45;&gt;Node21</title>
<path fill="none" stroke="midnightblue" d="M1363.82,-270.98C1358.9,-261.82 1353.14,-251.09 1349.2,-243.75"/>
<polygon fill="midnightblue" stroke="midnightblue" points="1360.9,-272.93 1368.71,-280.08 1367.06,-269.62 1360.9,-272.93"/>
</g>
<!-- Node36 -->
<g id="node36" class="node">
<title>Node36</title>
<g id="a_node36"><a xlink:href="_midi_preset_identification_8cpp.html" target="_top" xlink:title="The MidiPresetIdentification body implements the identification of a MIDI preset as a tuple of bank a...">
<polygon fill="white" stroke="black" points="2416.5,-168.5 2416.5,-187.5 2552.5,-187.5 2552.5,-168.5 2416.5,-168.5"/>
<text text-anchor="middle" x="2484.5" y="-175.5" font-family="Helvetica,sans-Serif" font-size="10.00">MidiPresetIdentification.cpp</text>
</a>
</g>
</g>
<!-- Node20&#45;&gt;Node36 -->
<g id="edge55" class="edge">
<title>Node20&#45;&gt;Node36</title>
<path fill="none" stroke="midnightblue" d="M1381.41,-271.13C1389.35,-255.6 1403.18,-234.08 1422.5,-224 1518.81,-173.76 2291.15,-195.72 2399.5,-188 2404.98,-187.61 2410.65,-187.14 2416.34,-186.63"/>
<polygon fill="midnightblue" stroke="midnightblue" points="1378.19,-269.75 1377.05,-280.28 1384.51,-272.76 1378.19,-269.75"/>
</g>
<!-- Node37 -->
<g id="node37" class="node">
<title>Node37</title>
<g id="a_node37"><a xlink:href="_string_util_8cpp.html" target="_top" xlink:title="The StringUtil body implements several string routines not included in the standard C++ library (like...">
<polygon fill="white" stroke="black" points="1431,-224.5 1431,-243.5 1506,-243.5 1506,-224.5 1431,-224.5"/>
<text text-anchor="middle" x="1468.5" y="-231.5" font-family="Helvetica,sans-Serif" font-size="10.00">StringUtil.cpp</text>
</a>
</g>
</g>
<!-- Node20&#45;&gt;Node37 -->
<g id="edge51" class="edge">
<title>Node20&#45;&gt;Node37</title>
<path fill="none" stroke="midnightblue" d="M1397.82,-275.18C1415.3,-265.24 1438.33,-252.15 1453.27,-243.65"/>
<polygon fill="midnightblue" stroke="midnightblue" points="1395.73,-272.34 1388.76,-280.32 1399.19,-278.43 1395.73,-272.34"/>
</g>
<!-- Node38 -->
<g id="node38" class="node">
<title>Node38</title>
<g id="a_node38"><a xlink:href="_natural_list_8cpp.html" target="_top" xlink:title="The NaturalList body implements lists of non&#45;negative integer values with zero&#45;based arbitrary indexe...">
<polygon fill="white" stroke="black" points="1524.5,-224.5 1524.5,-243.5 1606.5,-243.5 1606.5,-224.5 1524.5,-224.5"/>
<text text-anchor="middle" x="1565.5" y="-231.5" font-family="Helvetica,sans-Serif" font-size="10.00">NaturalList.cpp</text>
</a>
</g>
</g>
<!-- Node20&#45;&gt;Node38 -->
<g id="edge52" class="edge">
<title>Node20&#45;&gt;Node38</title>
<path fill="none" stroke="midnightblue" d="M1413.68,-277.7C1449.92,-267.51 1502.41,-252.74 1535.22,-243.52"/>
<polygon fill="midnightblue" stroke="midnightblue" points="1412.6,-274.37 1403.92,-280.44 1414.5,-281.11 1412.6,-274.37"/>
</g>
<!-- Node39 -->
<g id="node39" class="node">
<title>Node39</title>
<g id="a_node39"><a xlink:href="_string_list_8cpp.html" target="_top" xlink:title="The StringList body implements lists of string values with zero&#45;based arbitrary indexed access to pos...">
<polygon fill="white" stroke="black" points="1625,-224.5 1625,-243.5 1702,-243.5 1702,-224.5 1625,-224.5"/>
<text text-anchor="middle" x="1663.5" y="-231.5" font-family="Helvetica,sans-Serif" font-size="10.00">StringList.cpp</text>
</a>
</g>
</g>
<!-- Node20&#45;&gt;Node39 -->
<g id="edge53" class="edge">
<title>Node20&#45;&gt;Node39</title>
<path fill="none" stroke="midnightblue" d="M1416.49,-281.03C1464.88,-272.05 1545.84,-257.01 1615.5,-244 1618.58,-243.42 1621.78,-242.83 1624.99,-242.23"/>
<polygon fill="midnightblue" stroke="midnightblue" points="1415.58,-277.64 1406.38,-282.9 1416.85,-284.52 1415.58,-277.64"/>
</g>
<!-- Node40 -->
<g id="node40" class="node">
<title>Node40</title>
<g id="a_node40"><a xlink:href="_real_8cpp.html" target="_top" xlink:title="The Real body implements a value object type for real values.">
<polygon fill="white" stroke="black" points="1242,-224.5 1242,-243.5 1297,-243.5 1297,-224.5 1242,-224.5"/>
<text text-anchor="middle" x="1269.5" y="-231.5" font-family="Helvetica,sans-Serif" font-size="10.00">Real.cpp</text>
</a>
</g>
</g>
<!-- Node20&#45;&gt;Node40 -->
<g id="edge54" class="edge">
<title>Node20&#45;&gt;Node40</title>
<path fill="none" stroke="midnightblue" d="M1347.67,-275.59C1328.44,-265.61 1302.76,-252.27 1286.17,-243.65"/>
<polygon fill="midnightblue" stroke="midnightblue" points="1346.3,-278.82 1356.79,-280.32 1349.53,-272.61 1346.3,-278.82"/>
</g>
<!-- Node21&#45;&gt;Node4 -->
<g id="edge34" class="edge">
<title>Node21&#45;&gt;Node4</title>
<path fill="none" stroke="midnightblue" d="M1304.7,-224C940.32,-174.42 841.53,-231.05 479.5,-188 476.75,-187.67 473.92,-187.27 471.08,-186.83"/>
<polygon fill="midnightblue" stroke="midnightblue" points="1304.35,-227.49 1314.73,-225.39 1305.3,-220.55 1304.35,-227.49"/>
</g>
<!-- Node21&#45;&gt;Node7 -->
<g id="edge37" class="edge">
<title>Node21&#45;&gt;Node7</title>
<path fill="none" stroke="midnightblue" d="M1304.79,-224.02C899.32,-169.48 790.78,-224.24 386.5,-188 383.82,-187.76 381.08,-187.49 378.31,-187.19"/>
<polygon fill="midnightblue" stroke="midnightblue" points="1304.35,-227.5 1314.73,-225.37 1305.29,-220.56 1304.35,-227.5"/>
</g>
<!-- Node21&#45;&gt;Node8 -->
<g id="edge42" class="edge">
<title>Node21&#45;&gt;Node8</title>
<path fill="none" stroke="midnightblue" d="M1304.8,-223.98C1098.82,-193.73 1034.82,-249.99 839.5,-188 819.23,-181.57 767.57,-147.89 743.37,-131.7"/>
<polygon fill="midnightblue" stroke="midnightblue" points="1304.3,-227.44 1314.72,-225.48 1305.36,-220.52 1304.3,-227.44"/>
</g>
<!-- Node21&#45;&gt;Node9 -->
<g id="edge49" class="edge">
<title>Node21&#45;&gt;Node9</title>
<path fill="none" stroke="midnightblue" d="M1304.61,-223.96C1080.29,-191.61 1011.32,-252.94 797.5,-188 780.36,-182.79 779.33,-174.16 762.5,-168 690.7,-141.73 601.16,-130.25 553,-125.69"/>
<polygon fill="midnightblue" stroke="midnightblue" points="1304.31,-227.45 1314.72,-225.47 1305.34,-220.53 1304.31,-227.45"/>
</g>
<!-- Node21&#45;&gt;Node12 -->
<g id="edge46" class="edge">
<title>Node21&#45;&gt;Node12</title>
<path fill="none" stroke="midnightblue" d="M1304.77,-223.96C1067.78,-189.01 1003.24,-215.71 768.5,-188 763.87,-187.45 759.02,-186.78 754.22,-186.04"/>
<polygon fill="midnightblue" stroke="midnightblue" points="1304.31,-227.44 1314.72,-225.45 1305.35,-220.51 1304.31,-227.44"/>
</g>
<!-- Node21&#45;&gt;Node15 -->
<g id="edge45" class="edge">
<title>Node21&#45;&gt;Node15</title>
<path fill="none" stroke="midnightblue" d="M1383.95,-225.41C1387.51,-224.87 1391.07,-224.39 1394.5,-224 1476.62,-214.66 2074.06,-240.98 2137.5,-188 2189.55,-144.53 2183.09,-49.23 2179.69,-19.82"/>
<polygon fill="midnightblue" stroke="midnightblue" points="1383.32,-221.97 1374.02,-227.03 1384.45,-228.87 1383.32,-221.97"/>
</g>
<!-- Node21&#45;&gt;Node16 -->
<g id="edge47" class="edge">
<title>Node21&#45;&gt;Node16</title>
<path fill="none" stroke="midnightblue" d="M1384.09,-224.61C1385.58,-224.39 1387.05,-224.18 1388.5,-224 1428.95,-218.9 2093.39,-217.53 2121.5,-188 2127.63,-181.56 2127.31,-174.72 2121.5,-168 2089.85,-131.41 1952.11,-123.96 1871.61,-122.81"/>
<polygon fill="midnightblue" stroke="midnightblue" points="1383.49,-221.16 1374.22,-226.28 1384.66,-228.06 1383.49,-221.16"/>
</g>
<!-- Node21&#45;&gt;Node17 -->
<g id="edge48" class="edge">
<title>Node21&#45;&gt;Node17</title>
<path fill="none" stroke="midnightblue" d="M1304.63,-223.97C1023.23,-183.9 946.94,-218.65 667.5,-188 664.81,-187.7 662.05,-187.37 659.26,-187"/>
<polygon fill="midnightblue" stroke="midnightblue" points="1304.33,-227.46 1314.72,-225.42 1305.33,-220.53 1304.33,-227.46"/>
</g>
<!-- Node22 -->
<g id="node22" class="node">
<title>Node22</title>
<g id="a_node22"><a xlink:href="_audio_sample_fifo_queue_8cpp-inc.html" target="_top" xlink:title="The AudioSampleFifoQueue body implements a fifo queue for audio samples with popping off access to th...">
<polygon fill="white" stroke="black" points="2207,-168.5 2207,-187.5 2360,-187.5 2360,-168.5 2207,-168.5"/>
<text text-anchor="middle" x="2283.5" y="-175.5" font-family="Helvetica,sans-Serif" font-size="10.00">AudioSampleFifoQueue.cpp&#45;inc</text>
</a>
</g>
</g>
<!-- Node21&#45;&gt;Node22 -->
<g id="edge26" class="edge">
<title>Node21&#45;&gt;Node22</title>
<path fill="none" stroke="midnightblue" d="M1384.09,-224.6C1385.57,-224.38 1387.05,-224.18 1388.5,-224 1743.48,-180.02 1835.73,-213.61 2192.5,-188 2197.09,-187.67 2201.81,-187.3 2206.57,-186.9"/>
<polygon fill="midnightblue" stroke="midnightblue" points="1383.5,-221.15 1374.22,-226.26 1384.66,-228.05 1383.5,-221.15"/>
</g>
<!-- Node27 -->
<g id="node27" class="node">
<title>Node27</title>
<g id="a_node27"><a xlink:href="_audio_sample_fifo_queue_vector_8cpp-inc.html" target="_top" xlink:title="The AudioSampleFifoQueueVector body implements a list of fifo queues for audio samples (this is the e...">
<polygon fill="white" stroke="black" points="2357.5,-112.5 2357.5,-131.5 2539.5,-131.5 2539.5,-112.5 2357.5,-112.5"/>
<text text-anchor="middle" x="2448.5" y="-119.5" font-family="Helvetica,sans-Serif" font-size="10.00">AudioSampleFifoQueueVector.cpp&#45;inc</text>
</a>
</g>
</g>
<!-- Node21&#45;&gt;Node27 -->
<g id="edge32" class="edge">
<title>Node21&#45;&gt;Node27</title>
<path fill="none" stroke="midnightblue" d="M1384.09,-224.59C1385.57,-224.37 1387.05,-224.17 1388.5,-224 1496.8,-211.03 2267.52,-226.69 2369.5,-188 2400.72,-176.16 2428.69,-146.65 2441.35,-131.82"/>
<polygon fill="midnightblue" stroke="midnightblue" points="1383.5,-221.13 1374.21,-226.23 1384.65,-228.04 1383.5,-221.13"/>
</g>
<!-- Node28 -->
<g id="node28" class="node">
<title>Node28</title>
<g id="a_node28"><a xlink:href="_command_line_arguments_8cpp.html" target="_top" xlink:title="The CommandLineArguments body implements a handler for command&#45;line arguments converting them to a li...">
<polygon fill="white" stroke="black" points="974,-168.5 974,-187.5 1119,-187.5 1119,-168.5 974,-168.5"/>
<text text-anchor="middle" x="1046.5" y="-175.5" font-family="Helvetica,sans-Serif" font-size="10.00">CommandLineArguments.cpp</text>
</a>
</g>
</g>
<!-- Node21&#45;&gt;Node28 -->
<g id="edge35" class="edge">
<title>Node21&#45;&gt;Node28</title>
<path fill="none" stroke="midnightblue" d="M1304.52,-223.68C1229.06,-208.41 1151.95,-195.56 1101.46,-187.51"/>
<polygon fill="midnightblue" stroke="midnightblue" points="1304.17,-227.18 1314.67,-225.75 1305.57,-220.32 1304.17,-227.18"/>
</g>
<!-- Node29 -->
<g id="node29" class="node">
<title>Node29</title>
<g id="a_node29"><a xlink:href="_environment_8cpp.html" target="_top" xlink:title="The Environment body implements operating system services related to environment variables.">
<polygon fill="white" stroke="black" points="1137,-168.5 1137,-187.5 1226,-187.5 1226,-168.5 1137,-168.5"/>
<text text-anchor="middle" x="1181.5" y="-175.5" font-family="Helvetica,sans-Serif" font-size="10.00">Environment.cpp</text>
</a>
</g>
</g>
<!-- Node21&#45;&gt;Node29 -->
<g id="edge36" class="edge">
<title>Node21&#45;&gt;Node29</title>
<path fill="none" stroke="midnightblue" d="M1308.8,-221.17C1278.1,-211 1234.58,-196.59 1207.21,-187.52"/>
<polygon fill="midnightblue" stroke="midnightblue" points="1308.08,-224.62 1318.67,-224.44 1310.28,-217.98 1308.08,-224.62"/>
</g>
<!-- Node30 -->
<g id="node30" class="node">
<title>Node30</title>
<g id="a_node30"><a xlink:href="_fluid_synth_8cpp.html" target="_top" xlink:title="The FluidSynth class implements the access to the fluidsynth library via a dynamic loading of it.">
<polygon fill="white" stroke="black" points="1244.5,-168.5 1244.5,-187.5 1326.5,-187.5 1326.5,-168.5 1244.5,-168.5"/>
<text text-anchor="middle" x="1285.5" y="-175.5" font-family="Helvetica,sans-Serif" font-size="10.00">FluidSynth.cpp</text>
</a>
</g>
</g>
<!-- Node21&#45;&gt;Node30 -->
<g id="edge38" class="edge">
<title>Node21&#45;&gt;Node30</title>
<path fill="none" stroke="midnightblue" d="M1327.61,-217.54C1317.09,-207.91 1303.93,-195.87 1295.15,-187.83"/>
<polygon fill="midnightblue" stroke="midnightblue" points="1325.28,-220.15 1335.02,-224.32 1330.01,-214.99 1325.28,-220.15"/>
</g>
<!-- Node31 -->
<g id="node31" class="node">
<title>Node31</title>
<g id="a_node31"><a xlink:href="_fluid_synth_settings_8cpp.html" target="_top" xlink:title="The FluidSynthSettings class implements an object&#45;oriented wrapper around an underlying fluidsynth se...">
<polygon fill="white" stroke="black" points="1344.5,-168.5 1344.5,-187.5 1462.5,-187.5 1462.5,-168.5 1344.5,-168.5"/>
<text text-anchor="middle" x="1403.5" y="-175.5" font-family="Helvetica,sans-Serif" font-size="10.00">FluidSynthSettings.cpp</text>
</a>
</g>
</g>
<!-- Node21&#45;&gt;Node31 -->
<g id="edge39" class="edge">
<title>Node21&#45;&gt;Node31</title>
<path fill="none" stroke="midnightblue" d="M1361.39,-217.54C1371.91,-207.91 1385.07,-195.87 1393.85,-187.83"/>
<polygon fill="midnightblue" stroke="midnightblue" points="1358.99,-214.99 1353.98,-224.32 1363.72,-220.15 1358.99,-214.99"/>
</g>
<!-- Node32 -->
<g id="node32" class="node">
<title>Node32</title>
<g id="a_node32"><a xlink:href="_fluid_synth_sound_font_8cpp.html" target="_top" xlink:title="The FluidSynthSoundFont class implements an object&#45;oriented wrapper around an underlying fluidsynth s...">
<polygon fill="white" stroke="black" points="1481,-168.5 1481,-187.5 1610,-187.5 1610,-168.5 1481,-168.5"/>
<text text-anchor="middle" x="1545.5" y="-175.5" font-family="Helvetica,sans-Serif" font-size="10.00">FluidSynthSoundFont.cpp</text>
</a>
</g>
</g>
<!-- Node21&#45;&gt;Node32 -->
<g id="edge40" class="edge">
<title>Node21&#45;&gt;Node32</title>
<path fill="none" stroke="midnightblue" d="M1383.86,-222.43C1421.82,-212.23 1478.55,-196.99 1513.73,-187.54"/>
<polygon fill="midnightblue" stroke="midnightblue" points="1382.91,-219.06 1374.16,-225.03 1384.72,-225.82 1382.91,-219.06"/>
</g>
<!-- Node33 -->
<g id="node33" class="node">
<title>Node33</title>
<g id="a_node33"><a xlink:href="_fluid_synth_synthesizer_8cpp.html" target="_top" xlink:title="The FluidSynthSynthesizer class implements an object&#45;oriented wrapper around an underlying fluidsynth...">
<polygon fill="white" stroke="black" points="1628.5,-168.5 1628.5,-187.5 1762.5,-187.5 1762.5,-168.5 1628.5,-168.5"/>
<text text-anchor="middle" x="1695.5" y="-175.5" font-family="Helvetica,sans-Serif" font-size="10.00">FluidSynthSynthesizer.cpp</text>
</a>
</g>
</g>
<!-- Node21&#45;&gt;Node33 -->
<g id="edge41" class="edge">
<title>Node21&#45;&gt;Node33</title>
<path fill="none" stroke="midnightblue" d="M1384.12,-224.79C1385.59,-224.52 1387.06,-224.25 1388.5,-224 1471.54,-209.43 1567.78,-195.86 1630.05,-187.51"/>
<polygon fill="midnightblue" stroke="midnightblue" points="1383.44,-221.35 1374.28,-226.67 1384.76,-228.23 1383.44,-221.35"/>
</g>
<!-- Node34 -->
<g id="node34" class="node">
<title>Node34</title>
<g id="a_node34"><a xlink:href="_fluid_synth_plugin___editor_8cpp.html" target="_top" xlink:title="The FluidSynthPlugin_Editor module implements the editor for the processor of MIDI events from the DA...">
<polygon fill="white" stroke="black" points="1780.5,-168.5 1780.5,-187.5 1920.5,-187.5 1920.5,-168.5 1780.5,-168.5"/>
<text text-anchor="middle" x="1850.5" y="-175.5" font-family="Helvetica,sans-Serif" font-size="10.00">FluidSynthPlugin_Editor.cpp</text>
</a>
</g>
</g>
<!-- Node21&#45;&gt;Node34 -->
<g id="edge43" class="edge">
<title>Node21&#45;&gt;Node34</title>
<path fill="none" stroke="midnightblue" d="M1384.1,-224.69C1385.58,-224.45 1387.05,-224.22 1388.5,-224 1557.61,-198.83 1601.44,-205.68 1771.5,-188 1774.38,-187.7 1777.33,-187.39 1780.3,-187.07"/>
<polygon fill="midnightblue" stroke="midnightblue" points="1383.47,-221.25 1374.24,-226.46 1384.71,-228.14 1383.47,-221.25"/>
</g>
<!-- Node35 -->
<g id="node35" class="node">
<title>Node35</title>
<g id="a_node35"><a xlink:href="_fluid_synth_plugin___editor_support_8cpp.html" target="_top" xlink:title="The FluidSynthPlugin_EditorSupport module implements support services for the editor of the FluidSynt...">
<polygon fill="white" stroke="black" points="1939,-168.5 1939,-187.5 2112,-187.5 2112,-168.5 1939,-168.5"/>
<text text-anchor="middle" x="2025.5" y="-175.5" font-family="Helvetica,sans-Serif" font-size="10.00">FluidSynthPlugin_EditorSupport.cpp</text>
</a>
</g>
</g>
<!-- Node21&#45;&gt;Node35 -->
<g id="edge44" class="edge">
<title>Node21&#45;&gt;Node35</title>
<path fill="none" stroke="midnightblue" d="M1384.09,-224.64C1385.58,-224.41 1387.05,-224.2 1388.5,-224 1627.31,-191.78 1689.29,-207.25 1929.5,-188 1932.59,-187.75 1935.73,-187.49 1938.9,-187.23"/>
<polygon fill="midnightblue" stroke="midnightblue" points="1383.48,-221.19 1374.23,-226.35 1384.68,-228.09 1383.48,-221.19"/>
</g>
<!-- Node21&#45;&gt;Node36 -->
<g id="edge50" class="edge">
<title>Node21&#45;&gt;Node36</title>
<path fill="none" stroke="midnightblue" d="M1384.09,-224.58C1385.57,-224.37 1387.05,-224.17 1388.5,-224 1836.28,-170.63 1952.73,-220.62 2402.5,-188 2406.93,-187.68 2411.49,-187.3 2416.08,-186.89"/>
<polygon fill="midnightblue" stroke="midnightblue" points="1383.5,-221.13 1374.21,-226.23 1384.65,-228.04 1383.5,-221.13"/>
</g>
<!-- Node23 -->
<g id="node23" class="node">
<title>Node23</title>
<g id="a_node23"><a xlink:href="_audio_sample_fifo_queue_8h.html" target="_top" xlink:title="The AudioSampleFifoQueue specification defines a fifo queue for audio samples with popping off access...">
<polygon fill="white" stroke="black" points="2212,-112.5 2212,-131.5 2339,-131.5 2339,-112.5 2212,-112.5"/>
<text text-anchor="middle" x="2275.5" y="-119.5" font-family="Helvetica,sans-Serif" font-size="10.00">AudioSampleFifoQueue.h</text>
</a>
</g>
</g>
<!-- Node22&#45;&gt;Node23 -->
<g id="edge27" class="edge">
<title>Node22&#45;&gt;Node23</title>
<path fill="none" stroke="midnightblue" d="M2280.7,-158.1C2279.37,-149.14 2277.85,-138.86 2276.8,-131.75"/>
<polygon fill="midnightblue" stroke="midnightblue" points="2277.25,-158.7 2282.18,-168.08 2284.18,-157.68 2277.25,-158.7"/>
</g>
<!-- Node24 -->
<g id="node24" class="node">
<title>Node24</title>
<g id="a_node24"><a xlink:href="_audio_sample_fifo_queue_8cpp.html" target="_top" xlink:title="The AudioSampleFifoQueue body implements a fifo queue for audio samples with popping off access to th...">
<polygon fill="white" stroke="black" points="2207,-56.5 2207,-75.5 2344,-75.5 2344,-56.5 2207,-56.5"/>
<text text-anchor="middle" x="2275.5" y="-63.5" font-family="Helvetica,sans-Serif" font-size="10.00">AudioSampleFifoQueue.cpp</text>
</a>
</g>
</g>
<!-- Node23&#45;&gt;Node24 -->
<g id="edge28" class="edge">
<title>Node23&#45;&gt;Node24</title>
<path fill="none" stroke="midnightblue" d="M2275.5,-101.8C2275.5,-92.91 2275.5,-82.78 2275.5,-75.75"/>
<polygon fill="midnightblue" stroke="midnightblue" points="2272,-102.08 2275.5,-112.08 2279,-102.08 2272,-102.08"/>
</g>
<!-- Node25 -->
<g id="node25" class="node">
<title>Node25</title>
<g id="a_node25"><a xlink:href="_audio_sample_fifo_queue_vector_8h.html" target="_top" xlink:title="The AudioSampleFifoQueueVector specification defines a list of fifo queues for audio samples.">
<polygon fill="white" stroke="black" points="2362,-56.5 2362,-75.5 2517,-75.5 2517,-56.5 2362,-56.5"/>
<text text-anchor="middle" x="2439.5" y="-63.5" font-family="Helvetica,sans-Serif" font-size="10.00">AudioSampleFifoQueueVector.h</text>
</a>
</g>
</g>
<!-- Node23&#45;&gt;Node25 -->
<g id="edge29" class="edge">
<title>Node23&#45;&gt;Node25</title>
<path fill="none" stroke="midnightblue" d="M2311.02,-109.3C2341.92,-99.13 2385.97,-84.62 2413.64,-75.52"/>
<polygon fill="midnightblue" stroke="midnightblue" points="2309.89,-105.99 2301.49,-112.44 2312.08,-112.64 2309.89,-105.99"/>
</g>
<!-- Node25&#45;&gt;Node15 -->
<g id="edge31" class="edge">
<title>Node25&#45;&gt;Node15</title>
<path fill="none" stroke="midnightblue" d="M2388.31,-54.41C2338.99,-44.2 2265.31,-28.96 2219.66,-19.52"/>
<polygon fill="midnightblue" stroke="midnightblue" points="2387.64,-57.84 2398.14,-56.44 2389.06,-50.99 2387.64,-57.84"/>
</g>
<!-- Node26 -->
<g id="node26" class="node">
<title>Node26</title>
<g id="a_node26"><a xlink:href="_audio_sample_fifo_queue_vector_8cpp.html" target="_top" xlink:title="The AudioSampleFifoQueueVector body implements a list of fifo queues for audio samples (this is the f...">
<polygon fill="white" stroke="black" points="2356.5,-0.5 2356.5,-19.5 2522.5,-19.5 2522.5,-0.5 2356.5,-0.5"/>
<text text-anchor="middle" x="2439.5" y="-7.5" font-family="Helvetica,sans-Serif" font-size="10.00">AudioSampleFifoQueueVector.cpp</text>
</a>
</g>
</g>
<!-- Node25&#45;&gt;Node26 -->
<g id="edge30" class="edge">
<title>Node25&#45;&gt;Node26</title>
<path fill="none" stroke="midnightblue" d="M2439.5,-45.8C2439.5,-36.91 2439.5,-26.78 2439.5,-19.75"/>
<polygon fill="midnightblue" stroke="midnightblue" points="2436,-46.08 2439.5,-56.08 2443,-46.08 2436,-46.08"/>
</g>
<!-- Node27&#45;&gt;Node25 -->
<g id="edge33" class="edge">
<title>Node27&#45;&gt;Node25</title>
<path fill="none" stroke="midnightblue" d="M2445.35,-102.1C2443.86,-93.14 2442.14,-82.86 2440.96,-75.75"/>
<polygon fill="midnightblue" stroke="midnightblue" points="2441.92,-102.79 2447.01,-112.08 2448.82,-101.64 2441.92,-102.79"/>
</g>
</g>
</svg>
