<?xml version="1.0" encoding="UTF-8" standalone="no"?>
<!DOCTYPE svg PUBLIC "-//W3C//DTD SVG 1.1//EN"
 "http://www.w3.org/Graphics/SVG/1.1/DTD/svg11.dtd">
<!-- Generated by graphviz version 2.47.1 (20210417.1919)
 -->
<!-- Title: Character.h Pages: 1 -->
<!--zoomable 364 -->
<svg id="main" version="1.1" xmlns="http://www.w3.org/2000/svg" xmlns:xlink="http://www.w3.org/1999/xlink" xml:space="preserve" onload="init(evt)">
<style type="text/css"><![CDATA[
.edge:hover path { stroke: red; }
.edge:hover polygon { stroke: red; fill: red; }
]]></style>
<script type="text/javascript"><![CDATA[
var edges = document.getElementsByTagName('g');
if (edges && edges.length) {
  for (var i=0;i<edges.length;i++) {
    if (edges[i].id.substr(0,4)=='edge') {
      edges[i].setAttribute('class','edge');
    }
  }
}
]]></script>
        <defs>
                <circle id="rim" cx="0" cy="0" r="7"/>
                <circle id="rim2" cx="0" cy="0" r="3.5"/>
                <g id="zoomPlus">
                        <use xlink:href="#rim" fill="#404040">
                                <set attributeName="fill" to="#808080" begin="zoomplus.mouseover" end="zoomplus.mouseout"/>
                        </use>
                        <path d="M-4,0h8M0,-4v8" fill="none" stroke="white" stroke-width="1.5" pointer-events="none"/>
                </g>
                <g id="zoomMin">
                        <use xlink:href="#rim" fill="#404040">
                                <set attributeName="fill" to="#808080" begin="zoomminus.mouseover" end="zoomminus.mouseout"/>
                        </use>
                        <path d="M-4,0h8" fill="none" stroke="white" stroke-width="1.5" pointer-events="none"/>
                </g>
                <g id="dirArrow">
                        <path fill="none" stroke="white" stroke-width="1.5" d="M0,-3.0v7 M-2.5,-0.5L0,-3.0L2.5,-0.5"/>
                </g>
               <g id="resetDef">
                       <use xlink:href="#rim2" fill="#404040">
                               <set attributeName="fill" to="#808080" begin="reset.mouseover" end="reset.mouseout"/>
                       </use>
               </g>
        </defs>

<script type="text/javascript">
var viewWidth = 1756;
var viewHeight = 364;
var sectionId = 'dynsection-1';
</script>
<script xlink:href="svgpan.js"/>
<svg id="graph" class="graph">
<g id="viewport">
<title>Character.h</title>
<polygon fill="white" stroke="transparent" points="-4,4 -4,-360 1752,-360 1752,4 -4,4"/>
<!-- Node1 -->
<g id="node1" class="node">
<title>Node1</title>
<g id="a_node1"><a xlink:title="The Character specification and body provides a value object type for character values.">
<polygon fill="#bfbfbf" stroke="black" points="410,-336.5 410,-355.5 477,-355.5 477,-336.5 410,-336.5"/>
<text text-anchor="middle" x="443.5" y="-343.5" font-family="Helvetica,sans-Serif" font-size="10.00">Character.h</text>
</a>
</g>
</g>
<!-- Node2 -->
<g id="node2" class="node">
<title>Node2</title>
<g id="a_node2"><a xlink:href="_wave_file_8cpp.html" target="_top" xlink:title="The WaveFile specification defines an object for accessing a RIFF wave file with several channels.">
<polygon fill="white" stroke="black" points="0,-168.5 0,-187.5 75,-187.5 75,-168.5 0,-168.5"/>
<text text-anchor="middle" x="37.5" y="-175.5" font-family="Helvetica,sans-Serif" font-size="10.00">WaveFile.cpp</text>
</a>
</g>
</g>
<!-- Node1&#45;&gt;Node2 -->
<g id="edge1" class="edge">
<title>Node1&#45;&gt;Node2</title>
<path fill="none" stroke="midnightblue" d="M413.18,-332.6C334.58,-300.47 125.72,-215.07 58.59,-187.62"/>
<polygon fill="midnightblue" stroke="midnightblue" points="411.95,-335.88 422.53,-336.42 414.6,-329.4 411.95,-335.88"/>
</g>
<!-- Node3 -->
<g id="node3" class="node">
<title>Node3</title>
<g id="a_node3"><a xlink:href="_string_util_8h.html" target="_top" xlink:title="The StringUtil specification defines several string routines not included in the standard C++ library...">
<polygon fill="white" stroke="black" points="794,-280.5 794,-299.5 859,-299.5 859,-280.5 794,-280.5"/>
<text text-anchor="middle" x="826.5" y="-287.5" font-family="Helvetica,sans-Serif" font-size="10.00">StringUtil.h</text>
</a>
</g>
</g>
<!-- Node1&#45;&gt;Node3 -->
<g id="edge2" class="edge">
<title>Node1&#45;&gt;Node3</title>
<path fill="none" stroke="midnightblue" d="M487.09,-338.85C564.66,-327.92 724.98,-305.31 793.88,-295.6"/>
<polygon fill="midnightblue" stroke="midnightblue" points="486.57,-335.39 477.15,-340.26 487.54,-342.32 486.57,-335.39"/>
</g>
<!-- Node4 -->
<g id="node4" class="node">
<title>Node4</title>
<g id="a_node4"><a xlink:href="_file_8cpp.html" target="_top" xlink:title="The File body implements a class for simple file handling based on C stdio.">
<polygon fill="white" stroke="black" points="1030,-224.5 1030,-243.5 1081,-243.5 1081,-224.5 1030,-224.5"/>
<text text-anchor="middle" x="1055.5" y="-231.5" font-family="Helvetica,sans-Serif" font-size="10.00">File.cpp</text>
</a>
</g>
</g>
<!-- Node3&#45;&gt;Node4 -->
<g id="edge3" class="edge">
<title>Node3&#45;&gt;Node4</title>
<path fill="none" stroke="midnightblue" d="M868.84,-279.64C908.4,-270.8 969.07,-256.99 1021.5,-244 1024.23,-243.32 1027.07,-242.6 1029.9,-241.87"/>
<polygon fill="midnightblue" stroke="midnightblue" points="868.01,-276.24 859.01,-281.83 869.53,-283.07 868.01,-276.24"/>
</g>
<!-- Node5 -->
<g id="node5" class="node">
<title>Node5</title>
<g id="a_node5"><a xlink:href="_logging_8h.html" target="_top" xlink:title="The Logging specification defines macros for entry&#45;, exit&#45; and intermediate logging of functions into...">
<polygon fill="white" stroke="black" points="664,-224.5 664,-243.5 723,-243.5 723,-224.5 664,-224.5"/>
<text text-anchor="middle" x="693.5" y="-231.5" font-family="Helvetica,sans-Serif" font-size="10.00">Logging.h</text>
</a>
</g>
</g>
<!-- Node3&#45;&gt;Node5 -->
<g id="edge4" class="edge">
<title>Node3&#45;&gt;Node5</title>
<path fill="none" stroke="midnightblue" d="M796.05,-276.64C771.09,-266.5 736.42,-252.43 714.48,-243.52"/>
<polygon fill="midnightblue" stroke="midnightblue" points="794.84,-279.92 805.43,-280.44 797.48,-273.44 794.84,-279.92"/>
</g>
<!-- Node24 -->
<g id="node24" class="node">
<title>Node24</title>
<g id="a_node24"><a xlink:href="_string_util_8cpp.html" target="_top" xlink:title="The StringUtil body implements several string routines not included in the standard C++ library (like...">
<polygon fill="white" stroke="black" points="741,-224.5 741,-243.5 816,-243.5 816,-224.5 741,-224.5"/>
<text text-anchor="middle" x="778.5" y="-231.5" font-family="Helvetica,sans-Serif" font-size="10.00">StringUtil.cpp</text>
</a>
</g>
</g>
<!-- Node3&#45;&gt;Node24 -->
<g id="edge26" class="edge">
<title>Node3&#45;&gt;Node24</title>
<path fill="none" stroke="midnightblue" d="M811.77,-272.43C803.36,-262.97 793.15,-251.48 786.28,-243.75"/>
<polygon fill="midnightblue" stroke="midnightblue" points="809.31,-274.93 818.57,-280.08 814.55,-270.28 809.31,-274.93"/>
</g>
<!-- Node25 -->
<g id="node25" class="node">
<title>Node25</title>
<g id="a_node25"><a xlink:href="_natural_list_8cpp.html" target="_top" xlink:title="The NaturalList body implements lists of non&#45;negative integer values with zero&#45;based arbitrary indexe...">
<polygon fill="white" stroke="black" points="834.5,-224.5 834.5,-243.5 916.5,-243.5 916.5,-224.5 834.5,-224.5"/>
<text text-anchor="middle" x="875.5" y="-231.5" font-family="Helvetica,sans-Serif" font-size="10.00">NaturalList.cpp</text>
</a>
</g>
</g>
<!-- Node3&#45;&gt;Node25 -->
<g id="edge27" class="edge">
<title>Node3&#45;&gt;Node25</title>
<path fill="none" stroke="midnightblue" d="M841.53,-272.43C850.12,-262.97 860.54,-251.48 867.56,-243.75"/>
<polygon fill="midnightblue" stroke="midnightblue" points="838.72,-270.33 834.59,-280.08 843.9,-275.03 838.72,-270.33"/>
</g>
<!-- Node26 -->
<g id="node26" class="node">
<title>Node26</title>
<g id="a_node26"><a xlink:href="_string_list_8cpp.html" target="_top" xlink:title="The StringList body implements lists of string values with zero&#45;based arbitrary indexed access to pos...">
<polygon fill="white" stroke="black" points="935,-224.5 935,-243.5 1012,-243.5 1012,-224.5 935,-224.5"/>
<text text-anchor="middle" x="973.5" y="-231.5" font-family="Helvetica,sans-Serif" font-size="10.00">StringList.cpp</text>
</a>
</g>
</g>
<!-- Node3&#45;&gt;Node26 -->
<g id="edge28" class="edge">
<title>Node3&#45;&gt;Node26</title>
<path fill="none" stroke="midnightblue" d="M859.42,-276.91C887.06,-266.75 925.84,-252.51 950.32,-243.52"/>
<polygon fill="midnightblue" stroke="midnightblue" points="857.97,-273.71 849.79,-280.44 860.39,-280.28 857.97,-273.71"/>
</g>
<!-- Node5&#45;&gt;Node2 -->
<g id="edge13" class="edge">
<title>Node5&#45;&gt;Node2</title>
<path fill="none" stroke="midnightblue" d="M653.64,-231.37C556.75,-227.12 301.24,-214.15 89.5,-188 84.86,-187.43 80.01,-186.73 75.21,-185.97"/>
<polygon fill="midnightblue" stroke="midnightblue" points="653.72,-234.88 663.86,-231.81 654.02,-227.88 653.72,-234.88"/>
</g>
<!-- Node6 -->
<g id="node6" class="node">
<title>Node6</title>
<g id="a_node6"><a xlink:href="_audio_sample_fifo_queue_8cpp-inc.html" target="_top" xlink:title="The AudioSampleFifoQueue body implements a fifo queue for audio samples with popping off access to th...">
<polygon fill="white" stroke="black" points="1595,-168.5 1595,-187.5 1748,-187.5 1748,-168.5 1595,-168.5"/>
<text text-anchor="middle" x="1671.5" y="-175.5" font-family="Helvetica,sans-Serif" font-size="10.00">AudioSampleFifoQueue.cpp&#45;inc</text>
</a>
</g>
</g>
<!-- Node5&#45;&gt;Node6 -->
<g id="edge5" class="edge">
<title>Node5&#45;&gt;Node6</title>
<path fill="none" stroke="midnightblue" d="M733.35,-224C1110.02,-172.71 1210.53,-215.79 1586.5,-188 1589.16,-187.8 1591.87,-187.59 1594.61,-187.36"/>
<polygon fill="midnightblue" stroke="midnightblue" points="732.7,-220.55 723.27,-225.38 733.65,-227.49 732.7,-220.55"/>
</g>
<!-- Node11 -->
<g id="node11" class="node">
<title>Node11</title>
<g id="a_node11"><a xlink:href="_fluid_synth_plugin___event_processor_8cpp.html" target="_top" xlink:title="The FluidSynthPlugin_Processor module implements the handling of MIDI events from the DAW via JUCE ha...">
<polygon fill="white" stroke="black" points="12.5,-0.5 12.5,-19.5 194.5,-19.5 194.5,-0.5 12.5,-0.5"/>
<text text-anchor="middle" x="103.5" y="-7.5" font-family="Helvetica,sans-Serif" font-size="10.00">FluidSynthPlugin_EventProcessor.cpp</text>
</a>
</g>
</g>
<!-- Node5&#45;&gt;Node11 -->
<g id="edge21" class="edge">
<title>Node5&#45;&gt;Node11</title>
<path fill="none" stroke="midnightblue" d="M653.73,-232.29C535.15,-229.83 189.88,-219.97 151.5,-188 98.9,-144.19 100.79,-49.12 102.75,-19.8"/>
<polygon fill="midnightblue" stroke="midnightblue" points="653.76,-235.79 663.83,-232.5 653.9,-228.8 653.76,-235.79"/>
</g>
<!-- Node12 -->
<g id="node12" class="node">
<title>Node12</title>
<g id="a_node12"><a xlink:href="_audio_sample_fifo_queue_vector_8cpp-inc.html" target="_top" xlink:title="The AudioSampleFifoQueueVector body implements a list of fifo queues for audio samples (this is the e...">
<polygon fill="white" stroke="black" points="167.5,-112.5 167.5,-131.5 349.5,-131.5 349.5,-112.5 167.5,-112.5"/>
<text text-anchor="middle" x="258.5" y="-119.5" font-family="Helvetica,sans-Serif" font-size="10.00">AudioSampleFifoQueueVector.cpp&#45;inc</text>
</a>
</g>
</g>
<!-- Node5&#45;&gt;Node12 -->
<g id="edge11" class="edge">
<title>Node5&#45;&gt;Node12</title>
<path fill="none" stroke="midnightblue" d="M653.32,-231.08C532.08,-225.11 177.16,-206.13 160.5,-188 137.08,-162.52 187.64,-142.29 224.47,-131.52"/>
<polygon fill="midnightblue" stroke="midnightblue" points="653.49,-234.6 663.64,-231.59 653.83,-227.6 653.49,-234.6"/>
</g>
<!-- Node13 -->
<g id="node13" class="node">
<title>Node13</title>
<g id="a_node13"><a xlink:href="_command_line_arguments_8cpp.html" target="_top" xlink:title="The CommandLineArguments body implements a handler for command&#45;line arguments converting them to a li...">
<polygon fill="white" stroke="black" points="170,-168.5 170,-187.5 315,-187.5 315,-168.5 170,-168.5"/>
<text text-anchor="middle" x="242.5" y="-175.5" font-family="Helvetica,sans-Serif" font-size="10.00">CommandLineArguments.cpp</text>
</a>
</g>
</g>
<!-- Node5&#45;&gt;Node13 -->
<g id="edge14" class="edge">
<title>Node5&#45;&gt;Node13</title>
<path fill="none" stroke="midnightblue" d="M653.77,-228.24C577.51,-219.11 409.66,-199.02 313.64,-187.52"/>
<polygon fill="midnightblue" stroke="midnightblue" points="653.56,-231.74 663.91,-229.46 654.4,-224.79 653.56,-231.74"/>
</g>
<!-- Node14 -->
<g id="node14" class="node">
<title>Node14</title>
<g id="a_node14"><a xlink:href="_operating_system_8cpp.html" target="_top" xlink:title="The OperatingSystem body implements a class for several operating system related utility functions (l...">
<polygon fill="white" stroke="black" points="333,-168.5 333,-187.5 444,-187.5 444,-168.5 333,-168.5"/>
<text text-anchor="middle" x="388.5" y="-175.5" font-family="Helvetica,sans-Serif" font-size="10.00">OperatingSystem.cpp</text>
</a>
</g>
</g>
<!-- Node5&#45;&gt;Node14 -->
<g id="edge15" class="edge">
<title>Node5&#45;&gt;Node14</title>
<path fill="none" stroke="midnightblue" d="M653.79,-225.97C598.05,-216.1 496.7,-198.16 436.7,-187.53"/>
<polygon fill="midnightblue" stroke="midnightblue" points="653.52,-229.48 663.98,-227.77 654.74,-222.58 653.52,-229.48"/>
</g>
<!-- Node15 -->
<g id="node15" class="node">
<title>Node15</title>
<g id="a_node15"><a xlink:href="_fluid_synth_8cpp.html" target="_top" xlink:title="The FluidSynth class implements the access to the fluidsynth library via a dynamic loading of it.">
<polygon fill="white" stroke="black" points="462.5,-168.5 462.5,-187.5 544.5,-187.5 544.5,-168.5 462.5,-168.5"/>
<text text-anchor="middle" x="503.5" y="-175.5" font-family="Helvetica,sans-Serif" font-size="10.00">FluidSynth.cpp</text>
</a>
</g>
</g>
<!-- Node5&#45;&gt;Node15 -->
<g id="edge16" class="edge">
<title>Node5&#45;&gt;Node15</title>
<path fill="none" stroke="midnightblue" d="M654.17,-221.82C618.35,-211.64 566.21,-196.82 533.61,-187.56"/>
<polygon fill="midnightblue" stroke="midnightblue" points="653.24,-225.2 663.81,-224.56 655.15,-218.46 653.24,-225.2"/>
</g>
<!-- Node16 -->
<g id="node16" class="node">
<title>Node16</title>
<g id="a_node16"><a xlink:href="_fluid_synth_settings_8cpp.html" target="_top" xlink:title="The FluidSynthSettings class implements an object&#45;oriented wrapper around an underlying fluidsynth se...">
<polygon fill="white" stroke="black" points="562.5,-168.5 562.5,-187.5 680.5,-187.5 680.5,-168.5 562.5,-168.5"/>
<text text-anchor="middle" x="621.5" y="-175.5" font-family="Helvetica,sans-Serif" font-size="10.00">FluidSynthSettings.cpp</text>
</a>
</g>
</g>
<!-- Node5&#45;&gt;Node16 -->
<g id="edge17" class="edge">
<title>Node5&#45;&gt;Node16</title>
<path fill="none" stroke="midnightblue" d="M673.63,-218.1C660.68,-208.38 644.2,-196.03 633.28,-187.83"/>
<polygon fill="midnightblue" stroke="midnightblue" points="671.83,-221.12 681.93,-224.32 676.03,-215.52 671.83,-221.12"/>
</g>
<!-- Node17 -->
<g id="node17" class="node">
<title>Node17</title>
<g id="a_node17"><a xlink:href="_fluid_synth_synthesizer_8cpp.html" target="_top" xlink:title="The FluidSynthSynthesizer class implements an object&#45;oriented wrapper around an underlying fluidsynth...">
<polygon fill="white" stroke="black" points="698.5,-168.5 698.5,-187.5 832.5,-187.5 832.5,-168.5 698.5,-168.5"/>
<text text-anchor="middle" x="765.5" y="-175.5" font-family="Helvetica,sans-Serif" font-size="10.00">FluidSynthSynthesizer.cpp</text>
</a>
</g>
</g>
<!-- Node5&#45;&gt;Node17 -->
<g id="edge18" class="edge">
<title>Node5&#45;&gt;Node17</title>
<path fill="none" stroke="midnightblue" d="M713.37,-218.1C726.32,-208.38 742.8,-196.03 753.72,-187.83"/>
<polygon fill="midnightblue" stroke="midnightblue" points="710.97,-215.52 705.07,-224.32 715.17,-221.12 710.97,-215.52"/>
</g>
<!-- Node18 -->
<g id="node18" class="node">
<title>Node18</title>
<g id="a_node18"><a xlink:href="_fluid_synth_file_converter_8cpp.html" target="_top" xlink:title="The FluidSynthFileConverter module implements a conversion from a MIDI file into a wave file using th...">
<polygon fill="white" stroke="black" points="850.5,-168.5 850.5,-187.5 988.5,-187.5 988.5,-168.5 850.5,-168.5"/>
<text text-anchor="middle" x="919.5" y="-175.5" font-family="Helvetica,sans-Serif" font-size="10.00">FluidSynthFileConverter.cpp</text>
</a>
</g>
</g>
<!-- Node5&#45;&gt;Node18 -->
<g id="edge19" class="edge">
<title>Node5&#45;&gt;Node18</title>
<path fill="none" stroke="midnightblue" d="M733.03,-223.55C775.55,-213.4 842.56,-197.38 883.61,-187.58"/>
<polygon fill="midnightblue" stroke="midnightblue" points="731.96,-220.21 723.05,-225.94 733.59,-227.02 731.96,-220.21"/>
</g>
<!-- Node19 -->
<g id="node19" class="node">
<title>Node19</title>
<g id="a_node19"><a xlink:href="_fluid_synth_plugin___editor_8cpp.html" target="_top" xlink:title="The FluidSynthPlugin_Editor module implements the editor for the processor of MIDI events from the DA...">
<polygon fill="white" stroke="black" points="1006.5,-168.5 1006.5,-187.5 1146.5,-187.5 1146.5,-168.5 1006.5,-168.5"/>
<text text-anchor="middle" x="1076.5" y="-175.5" font-family="Helvetica,sans-Serif" font-size="10.00">FluidSynthPlugin_Editor.cpp</text>
</a>
</g>
</g>
<!-- Node5&#45;&gt;Node19 -->
<g id="edge20" class="edge">
<title>Node5&#45;&gt;Node19</title>
<path fill="none" stroke="midnightblue" d="M733.34,-223.84C797.13,-212.84 925.66,-196.96 1006.32,-187.29"/>
<polygon fill="midnightblue" stroke="midnightblue" points="732.54,-220.43 723.31,-225.63 733.77,-227.32 732.54,-220.43"/>
</g>
<!-- Node20 -->
<g id="node20" class="node">
<title>Node20</title>
<g id="a_node20"><a xlink:href="_midi_event_8cpp.html" target="_top" xlink:title="The MidiEvent implementation defines the services of a single MIDI event.">
<polygon fill="white" stroke="black" points="1165,-168.5 1165,-187.5 1242,-187.5 1242,-168.5 1165,-168.5"/>
<text text-anchor="middle" x="1203.5" y="-175.5" font-family="Helvetica,sans-Serif" font-size="10.00">MidiEvent.cpp</text>
</a>
</g>
</g>
<!-- Node5&#45;&gt;Node20 -->
<g id="edge22" class="edge">
<title>Node5&#45;&gt;Node20</title>
<path fill="none" stroke="midnightblue" d="M733.44,-223.9C920.04,-194.79 971.39,-213.01 1155.5,-188 1158.52,-187.59 1161.65,-187.12 1164.78,-186.61"/>
<polygon fill="midnightblue" stroke="midnightblue" points="732.62,-220.48 723.29,-225.51 733.71,-227.4 732.62,-220.48"/>
</g>
<!-- Node21 -->
<g id="node21" class="node">
<title>Node21</title>
<g id="a_node21"><a xlink:href="_midi_event_converter_8cpp.html" target="_top" xlink:title="The MidiEventConverter module implements the handling of MIDI events by feeding them to an underlying...">
<polygon fill="white" stroke="black" points="1260.5,-168.5 1260.5,-187.5 1378.5,-187.5 1378.5,-168.5 1260.5,-168.5"/>
<text text-anchor="middle" x="1319.5" y="-175.5" font-family="Helvetica,sans-Serif" font-size="10.00">MidiEventConverter.cpp</text>
</a>
</g>
</g>
<!-- Node5&#45;&gt;Node21 -->
<g id="edge23" class="edge">
<title>Node5&#45;&gt;Node21</title>
<path fill="none" stroke="midnightblue" d="M733.25,-223.95C962.28,-189.8 1024.27,-210.88 1251.5,-188 1254.34,-187.71 1257.25,-187.4 1260.19,-187.07"/>
<polygon fill="midnightblue" stroke="midnightblue" points="732.65,-220.51 723.28,-225.46 733.69,-227.43 732.65,-220.51"/>
</g>
<!-- Node22 -->
<g id="node22" class="node">
<title>Node22</title>
<g id="a_node22"><a xlink:href="_midi_event_list_8cpp.html" target="_top" xlink:title="The MIDIEventList body implements sequences of integer values with zero&#45;based arbitrary indexed acces...">
<polygon fill="white" stroke="black" points="1397,-168.5 1397,-187.5 1490,-187.5 1490,-168.5 1397,-168.5"/>
<text text-anchor="middle" x="1443.5" y="-175.5" font-family="Helvetica,sans-Serif" font-size="10.00">MidiEventList.cpp</text>
</a>
</g>
</g>
<!-- Node5&#45;&gt;Node22 -->
<g id="edge24" class="edge">
<title>Node5&#45;&gt;Node22</title>
<path fill="none" stroke="midnightblue" d="M733.21,-223.99C1022.23,-183.01 1100.44,-218.86 1387.5,-188 1390.54,-187.67 1393.66,-187.29 1396.8,-186.88"/>
<polygon fill="midnightblue" stroke="midnightblue" points="732.68,-220.53 723.27,-225.42 733.67,-227.46 732.68,-220.53"/>
</g>
<!-- Node23 -->
<g id="node23" class="node">
<title>Node23</title>
<g id="a_node23"><a xlink:href="_midi_file_8cpp.html" target="_top" xlink:title="The MidiFile implementation implements the services of a MIDI file; currently only file reading is su...">
<polygon fill="white" stroke="black" points="1508,-168.5 1508,-187.5 1577,-187.5 1577,-168.5 1508,-168.5"/>
<text text-anchor="middle" x="1542.5" y="-175.5" font-family="Helvetica,sans-Serif" font-size="10.00">MidiFile.cpp</text>
</a>
</g>
</g>
<!-- Node5&#45;&gt;Node23 -->
<g id="edge25" class="edge">
<title>Node5&#45;&gt;Node23</title>
<path fill="none" stroke="midnightblue" d="M733.35,-223.99C1071.67,-177.48 1163.84,-230.72 1499.5,-188 1502.22,-187.65 1505.03,-187.23 1507.85,-186.75"/>
<polygon fill="midnightblue" stroke="midnightblue" points="732.69,-220.55 723.27,-225.4 733.66,-227.48 732.69,-220.55"/>
</g>
<!-- Node7 -->
<g id="node7" class="node">
<title>Node7</title>
<g id="a_node7"><a xlink:href="_audio_sample_fifo_queue_8h.html" target="_top" xlink:title="The AudioSampleFifoQueue specification defines a fifo queue for audio samples with popping off access...">
<polygon fill="white" stroke="black" points="988,-112.5 988,-131.5 1115,-131.5 1115,-112.5 988,-112.5"/>
<text text-anchor="middle" x="1051.5" y="-119.5" font-family="Helvetica,sans-Serif" font-size="10.00">AudioSampleFifoQueue.h</text>
</a>
</g>
</g>
<!-- Node6&#45;&gt;Node7 -->
<g id="edge6" class="edge">
<title>Node6&#45;&gt;Node7</title>
<path fill="none" stroke="midnightblue" d="M1584.4,-167.82C1408.85,-151.24 1213.81,-135.61 1115.36,-127.92"/>
<polygon fill="midnightblue" stroke="midnightblue" points="1584.31,-171.32 1594.6,-168.78 1584.97,-164.35 1584.31,-171.32"/>
</g>
<!-- Node8 -->
<g id="node8" class="node">
<title>Node8</title>
<g id="a_node8"><a xlink:href="_audio_sample_fifo_queue_8cpp.html" target="_top" xlink:title="The AudioSampleFifoQueue body implements a fifo queue for audio samples with popping off access to th...">
<polygon fill="white" stroke="black" points="983,-56.5 983,-75.5 1120,-75.5 1120,-56.5 983,-56.5"/>
<text text-anchor="middle" x="1051.5" y="-63.5" font-family="Helvetica,sans-Serif" font-size="10.00">AudioSampleFifoQueue.cpp</text>
</a>
</g>
</g>
<!-- Node7&#45;&gt;Node8 -->
<g id="edge7" class="edge">
<title>Node7&#45;&gt;Node8</title>
<path fill="none" stroke="midnightblue" d="M1051.5,-101.8C1051.5,-92.91 1051.5,-82.78 1051.5,-75.75"/>
<polygon fill="midnightblue" stroke="midnightblue" points="1048,-102.08 1051.5,-112.08 1055,-102.08 1048,-102.08"/>
</g>
<!-- Node9 -->
<g id="node9" class="node">
<title>Node9</title>
<g id="a_node9"><a xlink:href="_audio_sample_fifo_queue_vector_8h.html" target="_top" xlink:title="The AudioSampleFifoQueueVector specification defines a list of fifo queues for audio samples.">
<polygon fill="white" stroke="black" points="199,-56.5 199,-75.5 354,-75.5 354,-56.5 199,-56.5"/>
<text text-anchor="middle" x="276.5" y="-63.5" font-family="Helvetica,sans-Serif" font-size="10.00">AudioSampleFifoQueueVector.h</text>
</a>
</g>
</g>
<!-- Node7&#45;&gt;Node9 -->
<g id="edge8" class="edge">
<title>Node7&#45;&gt;Node9</title>
<path fill="none" stroke="midnightblue" d="M977.49,-115.84C830.65,-105.61 503.75,-82.83 354.06,-72.4"/>
<polygon fill="midnightblue" stroke="midnightblue" points="977.53,-119.35 987.75,-116.56 978.02,-112.37 977.53,-119.35"/>
</g>
<!-- Node10 -->
<g id="node10" class="node">
<title>Node10</title>
<g id="a_node10"><a xlink:href="_audio_sample_fifo_queue_vector_8cpp.html" target="_top" xlink:title="The AudioSampleFifoQueueVector body implements a list of fifo queues for audio samples (this is the f...">
<polygon fill="white" stroke="black" points="212.5,-0.5 212.5,-19.5 378.5,-19.5 378.5,-0.5 212.5,-0.5"/>
<text text-anchor="middle" x="295.5" y="-7.5" font-family="Helvetica,sans-Serif" font-size="10.00">AudioSampleFifoQueueVector.cpp</text>
</a>
</g>
</g>
<!-- Node9&#45;&gt;Node10 -->
<g id="edge9" class="edge">
<title>Node9&#45;&gt;Node10</title>
<path fill="none" stroke="midnightblue" d="M283.05,-46.4C286.22,-37.36 289.89,-26.94 292.42,-19.75"/>
<polygon fill="midnightblue" stroke="midnightblue" points="279.65,-45.49 279.64,-56.08 286.26,-47.81 279.65,-45.49"/>
</g>
<!-- Node9&#45;&gt;Node11 -->
<g id="edge10" class="edge">
<title>Node9&#45;&gt;Node11</title>
<path fill="none" stroke="midnightblue" d="M239.45,-53.44C206.84,-43.26 160.09,-28.66 130.78,-19.52"/>
<polygon fill="midnightblue" stroke="midnightblue" points="238.5,-56.8 249.09,-56.44 240.58,-50.12 238.5,-56.8"/>
</g>
<!-- Node12&#45;&gt;Node9 -->
<g id="edge12" class="edge">
<title>Node12&#45;&gt;Node9</title>
<path fill="none" stroke="midnightblue" d="M264.7,-102.4C267.71,-93.36 271.19,-82.94 273.58,-75.75"/>
<polygon fill="midnightblue" stroke="midnightblue" points="261.31,-101.49 261.47,-112.08 267.96,-103.7 261.31,-101.49"/>
</g>
</g>
</svg>
        <g id="navigator" transform="translate(0 0)" fill="#404254">
                <rect fill="#f2f5e9" fill-opacity="0.5" stroke="#606060" stroke-width=".5" x="0" y="0" width="60" height="60"/>
                <use id="zoomplus" xlink:href="#zoomPlus" x="17" y="9" onmousedown="handleZoom(evt,'in')"/>
                <use id="zoomminus" xlink:href="#zoomMin" x="42" y="9" onmousedown="handleZoom(evt,'out')"/>
                <use id="reset" xlink:href="#resetDef" x="30" y="36" onmousedown="handleReset()"/>
                <g id="arrowUp" xlink:href="#dirArrow" transform="translate(30 24)" onmousedown="handlePan(0,-1)">
                  <use xlink:href="#rim" fill="#404040">
                        <set attributeName="fill" to="#808080" begin="arrowUp.mouseover" end="arrowUp.mouseout"/>
                  </use>
                  <path fill="none" stroke="white" stroke-width="1.5" d="M0,-3.0v7 M-2.5,-0.5L0,-3.0L2.5,-0.5"/>
                </g>
                <g id="arrowRight" xlink:href="#dirArrow" transform="rotate(90) translate(36 -43)" onmousedown="handlePan(1,0)">
                  <use xlink:href="#rim" fill="#404040">
                        <set attributeName="fill" to="#808080" begin="arrowRight.mouseover" end="arrowRight.mouseout"/>
                  </use>
                  <path fill="none" stroke="white" stroke-width="1.5" d="M0,-3.0v7 M-2.5,-0.5L0,-3.0L2.5,-0.5"/>
                </g>
                <g id="arrowDown" xlink:href="#dirArrow" transform="rotate(180) translate(-30 -48)" onmousedown="handlePan(0,1)">
                  <use xlink:href="#rim" fill="#404040">
                        <set attributeName="fill" to="#808080" begin="arrowDown.mouseover" end="arrowDown.mouseout"/>
                  </use>
                  <path fill="none" stroke="white" stroke-width="1.5" d="M0,-3.0v7 M-2.5,-0.5L0,-3.0L2.5,-0.5"/>
                </g>
                <g id="arrowLeft" xlink:href="#dirArrow" transform="rotate(270) translate(-36 17)" onmousedown="handlePan(-1,0)">
                  <use xlink:href="#rim" fill="#404040">
                        <set attributeName="fill" to="#808080" begin="arrowLeft.mouseover" end="arrowLeft.mouseout"/>
                  </use>
                  <path fill="none" stroke="white" stroke-width="1.5" d="M0,-3.0v7 M-2.5,-0.5L0,-3.0L2.5,-0.5"/>
                </g>
        </g>
        <svg viewBox="0 0 15 15" width="100%" height="30px" preserveAspectRatio="xMaxYMin meet">
         <g id="arrow_out" transform="scale(0.3 0.3)">
          <a xlink:href="_character_8h__dep__incl_org.svg" target="_base">
           <rect id="button" ry="5" rx="5" y="6" x="6" height="38" width="38"
                fill="#f2f5e9" fill-opacity="0.5" stroke="#606060" stroke-width="1.0"/>
           <path id="arrow"
             d="M 11.500037,31.436501 C 11.940474,20.09759 22.043105,11.32322 32.158766,21.979434 L 37.068811,17.246167 C 37.068811,17.246167 37.088388,32 37.088388,32 L 22.160133,31.978069 C 22.160133,31.978069 26.997745,27.140456 26.997745,27.140456 C 18.528582,18.264221 13.291696,25.230495 11.500037,31.436501 z"
             style="fill:#404040;"/>
          </a>
         </g>
        </svg>
</svg>
