<?xml version="1.0" encoding="UTF-8" standalone="no"?>
<!DOCTYPE svg PUBLIC "-//W3C//DTD SVG 1.1//EN"
 "http://www.w3.org/Graphics/SVG/1.1/DTD/svg11.dtd">
<!-- Generated by graphviz version 2.47.1 (20210417.1919)
 -->
<!-- Title: Character.h Pages: 1 -->
<!--zoomable 357 -->

<svg id="main" version="1.1" xmlns="http://www.w3.org/2000/svg" xmlns:xlink="http://www.w3.org/1999/xlink" xml:space="preserve" onload="init(evt)">

<style type="text/css"><![CDATA[
.node, .edge {opacity: 0.7;}
.node.selected, .edge.selected {opacity: 1;}
.edge:hover path { stroke: red; }
.edge:hover polygon { stroke: red; fill: red; }
]]></style>

<defs>
  <circle id="rim" cx="0" cy="0" r="7"/>
  <circle id="rim2" cx="0" cy="0" r="3.5"/>
  <g id="zoomPlus">
    <use xlink:href="#rim" fill="#404040"><set attributeName="fill" to="#808080" begin="zoomplus.mouseover" end="zoomplus.mouseout"/></use>
    <path d="M-4,0h8M0,-4v8" fill="none" stroke="white" stroke-width="1.5" pointer-events="none"/>
  </g>
  <g id="zoomMin">
    <use xlink:href="#rim" fill="#404040"><set attributeName="fill" to="#808080" begin="zoomminus.mouseover" end="zoomminus.mouseout"/></use>
    <path d="M-4,0h8" fill="none" stroke="white" stroke-width="1.5" pointer-events="none"/>
  </g>
  <g id="arrowUp" transform="translate(30 24)">
    <use xlink:href="#rim"/>
    <path pointer-events="none" fill="none" stroke="white" stroke-width="1.5" d="M0,-3.0v7 M-2.5,-0.5L0,-3.0L2.5,-0.5"/>
  </g>
  <g id="arrowRight" transform="rotate(90) translate(36 -43)">
    <use xlink:href="#rim"/>
    <path pointer-events="none" fill="none" stroke="white" stroke-width="1.5" d="M0,-3.0v7 M-2.5,-0.5L0,-3.0L2.5,-0.5"/>
  </g>
  <g id="arrowDown" transform="rotate(180) translate(-30 -48)">
    <use xlink:href="#rim"/>
    <path pointer-events="none" fill="none" stroke="white" stroke-width="1.5" d="M0,-3.0v7 M-2.5,-0.5L0,-3.0L2.5,-0.5"/>
  </g>
  <g id="arrowLeft" transform="rotate(270) translate(-36 17)">
    <use xlink:href="#rim"/>
    <path pointer-events="none" fill="none" stroke="white" stroke-width="1.5" d="M0,-3.0v7 M-2.5,-0.5L0,-3.0L2.5,-0.5"/>
  </g>
  <g id="resetDef">
    <use xlink:href="#rim2" fill="#404040"><set attributeName="fill" to="#808080" begin="reset.mouseover" end="reset.mouseout"/></use>
  </g>
</defs>
<script type="application/ecmascript">
var viewWidth = 2568;
var viewHeight = 357;
var sectionId = 'dynsection-1';
</script>
<script type="application/ecmascript" xlink:href="svg.min.js"/>
<svg id="graph" class="graph">
<g id="viewport">
<title>Character.h</title>
<!-- Node1 -->
<g id="Node000001" class="node">
<title>Node1</title>
<g id="a_Node000001"><a xlink:title="The Character specification and body provides a value object type for character values.">
<polygon fill="#999999" stroke="#666666" points="1852.5,-349 1785.5,-349 1785.5,-330 1852.5,-330 1852.5,-349"/>
<text text-anchor="middle" x="1819" y="-337" font-family="Helvetica,sans-Serif" font-size="10.00">Character.h</text>
</a>
</g>
</g>
<!-- Node2 -->
<g id="Node000002" class="node">
<title>Node2</title>
<g id="a_Node000002"><a xlink:href="_string_util_8h.html" target="_top" xlink:title="The StringUtil specification defines several string routines not included in the standard C++ library...">
<polygon fill="white" stroke="#666666" points="1685.5,-294 1620.5,-294 1620.5,-275 1685.5,-275 1685.5,-294"/>
<text text-anchor="middle" x="1653" y="-282" font-family="Helvetica,sans-Serif" font-size="10.00">StringUtil.h</text>
</a>
</g>
</g>
<!-- Node1&#45;&gt;Node2 -->
<g id="edge1_Node000001_Node000002" class="edge">
<title>Node1&#45;&gt;Node2</title>
<g id="a_edge1_Node000001_Node000002"><a xlink:title=" ">
<path fill="none" stroke="#63b8ff" d="M1782.75,-326.93C1751.75,-317.03 1707.83,-303.01 1679.88,-294.08"/>
<polygon fill="#63b8ff" stroke="#63b8ff" points="1781.74,-330.28 1792.33,-329.98 1783.87,-323.61 1781.74,-330.28"/>
</a>
</g>
</g>
<!-- Node29 -->
<g id="Node000029" class="node">
<title>Node29</title>
<g id="a_Node000029"><a xlink:href="_wave_file_8cpp.html" target="_top" xlink:title="The WaveFile specification defines an object for accessing a RIFF wave file with several channels.">
<polygon fill="white" stroke="#666666" points="2559.5,-184 2484.5,-184 2484.5,-165 2559.5,-165 2559.5,-184"/>
<text text-anchor="middle" x="2522" y="-172" font-family="Helvetica,sans-Serif" font-size="10.00">WaveFile.cpp</text>
</a>
</g>
</g>
<!-- Node1&#45;&gt;Node29 -->
<g id="edge36_Node000001_Node000029" class="edge">
<title>Node1&#45;&gt;Node29</title>
<g id="a_edge36_Node000001_Node000029"><a xlink:title=" ">
<path fill="none" stroke="#63b8ff" d="M1862.8,-328.35C1991.32,-298.55 2365.85,-211.71 2485.09,-184.06"/>
<polygon fill="#63b8ff" stroke="#63b8ff" points="1861.86,-324.97 1852.91,-330.64 1863.44,-331.79 1861.86,-324.97"/>
</a>
</g>
</g>
<!-- Node3 -->
<g id="Node000003" class="node">
<title>Node3</title>
<g id="a_Node000003"><a xlink:href="_byte_list_8cpp.html" target="_top" xlink:title="The ByteList body implements sequences of byte values with zero&#45;based arbitrary indexed access to pos...">
<polygon fill="white" stroke="#666666" points="1957.5,-239 1886.5,-239 1886.5,-220 1957.5,-220 1957.5,-239"/>
<text text-anchor="middle" x="1922" y="-227" font-family="Helvetica,sans-Serif" font-size="10.00">ByteList.cpp</text>
</a>
</g>
</g>
<!-- Node2&#45;&gt;Node3 -->
<g id="edge2_Node000002_Node000003" class="edge">
<title>Node2&#45;&gt;Node3</title>
<g id="a_edge2_Node000002_Node000003"><a xlink:title=" ">
<path fill="none" stroke="#63b8ff" d="M1695.74,-275.08C1748.37,-264.71 1836.82,-247.28 1886.09,-237.57"/>
<polygon fill="#63b8ff" stroke="#63b8ff" points="1694.85,-271.69 1685.72,-277.05 1696.2,-278.55 1694.85,-271.69"/>
</a>
</g>
</g>
<!-- Node4 -->
<g id="Node000004" class="node">
<title>Node4</title>
<g id="a_Node000004"><a xlink:href="_file_8cpp.html" target="_top" xlink:title="The File body implements a class for simple file handling based on C stdio.">
<polygon fill="white" stroke="#666666" points="1337.5,-239 1286.5,-239 1286.5,-220 1337.5,-220 1337.5,-239"/>
<text text-anchor="middle" x="1312" y="-227" font-family="Helvetica,sans-Serif" font-size="10.00">File.cpp</text>
</a>
</g>
</g>
<!-- Node2&#45;&gt;Node4 -->
<g id="edge3_Node000002_Node000004" class="edge">
<title>Node2&#45;&gt;Node4</title>
<g id="a_edge3_Node000002_Node000004"><a xlink:title=" ">
<path fill="none" stroke="#63b8ff" d="M1609.94,-278.65C1550.33,-271.62 1439.46,-257.41 1346,-239 1343.25,-238.46 1340.4,-237.84 1337.56,-237.18"/>
<polygon fill="#63b8ff" stroke="#63b8ff" points="1609.76,-282.15 1620.1,-279.84 1610.58,-275.2 1609.76,-282.15"/>
</a>
</g>
</g>
<!-- Node5 -->
<g id="Node000005" class="node">
<title>Node5</title>
<g id="a_Node000005"><a xlink:href="_logging_8h.html" target="_top" xlink:title="The Logging specification defines macros for entry&#45;, exit&#45; and intermediate logging of functions into...">
<polygon fill="white" stroke="#666666" points="1414.5,-239 1355.5,-239 1355.5,-220 1414.5,-220 1414.5,-239"/>
<text text-anchor="middle" x="1385" y="-227" font-family="Helvetica,sans-Serif" font-size="10.00">Logging.h</text>
</a>
</g>
</g>
<!-- Node2&#45;&gt;Node5 -->
<g id="edge4_Node000002_Node000005" class="edge">
<title>Node2&#45;&gt;Node5</title>
<g id="a_edge4_Node000002_Node000005"><a xlink:title=" ">
<path fill="none" stroke="#63b8ff" d="M1610.42,-275.52C1564.39,-266.83 1488.9,-252.38 1424,-239 1421.01,-238.38 1417.9,-237.73 1414.8,-237.07"/>
<polygon fill="#63b8ff" stroke="#63b8ff" points="1609.87,-278.98 1620.34,-277.39 1611.16,-272.1 1609.87,-278.98"/>
</a>
</g>
</g>
<!-- Node30 -->
<g id="Node000030" class="node">
<title>Node30</title>
<g id="a_Node000030"><a xlink:href="_my_string_8cpp.html" target="_top" xlink:title="The String body implements a standard string type.">
<polygon fill="white" stroke="#666666" points="1507,-239 1433,-239 1433,-220 1507,-220 1507,-239"/>
<text text-anchor="middle" x="1470" y="-227" font-family="Helvetica,sans-Serif" font-size="10.00">MyString.cpp</text>
</a>
</g>
</g>
<!-- Node2&#45;&gt;Node30 -->
<g id="edge31_Node000002_Node000030" class="edge">
<title>Node2&#45;&gt;Node30</title>
<g id="a_edge31_Node000002_Node000030"><a xlink:title=" ">
<path fill="none" stroke="#63b8ff" d="M1613.93,-272.18C1579.7,-262.27 1530.71,-248.08 1499.63,-239.08"/>
<polygon fill="#63b8ff" stroke="#63b8ff" points="1613.02,-275.56 1623.6,-274.98 1614.97,-268.84 1613.02,-275.56"/>
</a>
</g>
</g>
<!-- Node31 -->
<g id="Node000031" class="node">
<title>Node31</title>
<g id="a_Node000031"><a xlink:href="_natural_list_8cpp.html" target="_top" xlink:title="The NaturalList body implements lists of non&#45;negative integer values with zero&#45;based arbitrary indexe...">
<polygon fill="white" stroke="#666666" points="1607,-239 1525,-239 1525,-220 1607,-220 1607,-239"/>
<text text-anchor="middle" x="1566" y="-227" font-family="Helvetica,sans-Serif" font-size="10.00">NaturalList.cpp</text>
</a>
</g>
</g>
<!-- Node2&#45;&gt;Node31 -->
<g id="edge32_Node000002_Node000031" class="edge">
<title>Node2&#45;&gt;Node31</title>
<g id="a_edge32_Node000002_Node000031"><a xlink:title=" ">
<path fill="none" stroke="#63b8ff" d="M1630.34,-269.7C1614.49,-260.04 1593.81,-247.44 1580.23,-239.17"/>
<polygon fill="#63b8ff" stroke="#63b8ff" points="1628.66,-272.77 1639.02,-274.98 1632.3,-266.79 1628.66,-272.77"/>
</a>
</g>
</g>
<!-- Node32 -->
<g id="Node000032" class="node">
<title>Node32</title>
<g id="a_Node000032"><a xlink:href="_real_8cpp.html" target="_top" xlink:title="The Real body implements a value object type for real values.">
<polygon fill="white" stroke="#666666" points="1680.5,-239 1625.5,-239 1625.5,-220 1680.5,-220 1680.5,-239"/>
<text text-anchor="middle" x="1653" y="-227" font-family="Helvetica,sans-Serif" font-size="10.00">Real.cpp</text>
</a>
</g>
</g>
<!-- Node2&#45;&gt;Node32 -->
<g id="edge33_Node000002_Node000032" class="edge">
<title>Node2&#45;&gt;Node32</title>
<g id="a_edge33_Node000002_Node000032"><a xlink:title=" ">
<path fill="none" stroke="#63b8ff" d="M1653,-264.66C1653,-255.93 1653,-245.99 1653,-239.09"/>
<polygon fill="#63b8ff" stroke="#63b8ff" points="1649.5,-264.75 1653,-274.75 1656.5,-264.75 1649.5,-264.75"/>
</a>
</g>
</g>
<!-- Node33 -->
<g id="Node000033" class="node">
<title>Node33</title>
<g id="a_Node000033"><a xlink:href="_string_list_8cpp.html" target="_top" xlink:title="The StringList body implements lists of string values with zero&#45;based arbitrary indexed access to pos...">
<polygon fill="white" stroke="#666666" points="1775.5,-239 1698.5,-239 1698.5,-220 1775.5,-220 1775.5,-239"/>
<text text-anchor="middle" x="1737" y="-227" font-family="Helvetica,sans-Serif" font-size="10.00">StringList.cpp</text>
</a>
</g>
</g>
<!-- Node2&#45;&gt;Node33 -->
<g id="edge34_Node000002_Node000033" class="edge">
<title>Node2&#45;&gt;Node33</title>
<g id="a_edge34_Node000002_Node000033"><a xlink:title=" ">
<path fill="none" stroke="#63b8ff" d="M1675.31,-269.42C1690.55,-259.81 1710.27,-247.37 1723.26,-239.17"/>
<polygon fill="#63b8ff" stroke="#63b8ff" points="1673.09,-266.69 1666.5,-274.98 1676.82,-272.61 1673.09,-266.69"/>
</a>
</g>
</g>
<!-- Node34 -->
<g id="Node000034" class="node">
<title>Node34</title>
<g id="a_Node000034"><a xlink:href="_string_util_8cpp.html" target="_top" xlink:title="The StringUtil body implements several string routines not included in the standard C++ library (like...">
<polygon fill="white" stroke="#666666" points="1868.5,-239 1793.5,-239 1793.5,-220 1868.5,-220 1868.5,-239"/>
<text text-anchor="middle" x="1831" y="-227" font-family="Helvetica,sans-Serif" font-size="10.00">StringUtil.cpp</text>
</a>
</g>
</g>
<!-- Node2&#45;&gt;Node34 -->
<g id="edge35_Node000002_Node000034" class="edge">
<title>Node2&#45;&gt;Node34</title>
<g id="a_edge35_Node000002_Node000034"><a xlink:title=" ">
<path fill="none" stroke="#63b8ff" d="M1691.44,-272.06C1724.7,-262.15 1772.08,-248.04 1802.18,-239.08"/>
<polygon fill="#63b8ff" stroke="#63b8ff" points="1690.18,-268.78 1681.6,-274.98 1692.18,-275.49 1690.18,-268.78"/>
</a>
</g>
</g>
<!-- Node6 -->
<g id="Node000006" class="node">
<title>Node6</title>
<g id="a_Node000006"><a xlink:href="_audio_sample_fifo_queue_8cpp-inc.html" target="_top" xlink:title="The AudioSampleFifoQueue body implements a fifo queue for audio samples with popping off access to th...">
<polygon fill="white" stroke="#666666" points="2466.5,-184 2313.5,-184 2313.5,-165 2466.5,-165 2466.5,-184"/>
<text text-anchor="middle" x="2390" y="-172" font-family="Helvetica,sans-Serif" font-size="10.00">AudioSampleFifoQueue.cpp&#45;inc</text>
</a>
</g>
</g>
<!-- Node5&#45;&gt;Node6 -->
<g id="edge5_Node000005_Node000006" class="edge">
<title>Node5&#45;&gt;Node6</title>
<g id="a_edge5_Node000005_Node000006"><a xlink:title=" ">
<path fill="none" stroke="#63b8ff" d="M1424.84,-220.17C1814,-170.83 1916.85,-211.03 2304,-184 2306.99,-183.79 2310.04,-183.56 2313.12,-183.32"/>
<polygon fill="#63b8ff" stroke="#63b8ff" points="1424.19,-216.73 1414.72,-221.47 1425.08,-223.67 1424.19,-216.73"/>
</a>
</g>
</g>
<!-- Node11 -->
<g id="Node000011" class="node">
<title>Node11</title>
<g id="a_Node000011"><a xlink:href="_fluid_synth_plugin___event_processor_8cpp.html" target="_top" xlink:title="The FluidSynthPlugin_Processor module implements the handling of MIDI events from the DAW via JUCE ha...">
<polygon fill="white" stroke="#666666" points="182,-19 0,-19 0,0 182,0 182,-19"/>
<text text-anchor="middle" x="91" y="-7" font-family="Helvetica,sans-Serif" font-size="10.00">FluidSynthPlugin_EventProcessor.cpp</text>
</a>
</g>
</g>
<!-- Node5&#45;&gt;Node11 -->
<g id="edge19_Node000005_Node000011" class="edge">
<title>Node5&#45;&gt;Node11</title>
<g id="a_edge19_Node000005_Node000011"><a xlink:title=" ">
<path fill="none" stroke="#63b8ff" d="M1345.26,-220.6C1212.33,-212.62 189.06,-224.29 138,-184 85.33,-142.44 87.98,-48.31 90.18,-19.23"/>
<polygon fill="#63b8ff" stroke="#63b8ff" points="1345.03,-224.09 1355.29,-221.43 1345.61,-217.11 1345.03,-224.09"/>
</a>
</g>
</g>
<!-- Node12 -->
<g id="Node000012" class="node">
<title>Node12</title>
<g id="a_Node000012"><a xlink:href="_audio_sample_fifo_queue_vector_8cpp-inc.html" target="_top" xlink:title="The AudioSampleFifoQueueVector body implements a list of fifo queues for audio samples (this is the e...">
<polygon fill="white" stroke="#666666" points="337,-129 155,-129 155,-110 337,-110 337,-129"/>
<text text-anchor="middle" x="246" y="-117" font-family="Helvetica,sans-Serif" font-size="10.00">AudioSampleFifoQueueVector.cpp&#45;inc</text>
</a>
</g>
</g>
<!-- Node5&#45;&gt;Node12 -->
<g id="edge11_Node000005_Node000012" class="edge">
<title>Node5&#45;&gt;Node12</title>
<g id="a_edge11_Node000005_Node000012"><a xlink:title=" ">
<path fill="none" stroke="#63b8ff" d="M1344.92,-220.6C1211.02,-213.09 192.88,-230.25 148,-184 124.21,-159.48 174.19,-139.73 211.14,-129.09"/>
<polygon fill="#63b8ff" stroke="#63b8ff" points="1345.04,-224.12 1355.29,-221.43 1345.6,-217.14 1345.04,-224.12"/>
</a>
</g>
</g>
<!-- Node13 -->
<g id="Node000013" class="node">
<title>Node13</title>
<g id="a_Node000013"><a xlink:href="_command_line_arguments_8cpp.html" target="_top" xlink:title="The CommandLineArguments body implements a handler for command&#45;line arguments converting them to a li...">
<polygon fill="white" stroke="#666666" points="302.5,-184 157.5,-184 157.5,-165 302.5,-165 302.5,-184"/>
<text text-anchor="middle" x="230" y="-172" font-family="Helvetica,sans-Serif" font-size="10.00">CommandLineArguments.cpp</text>
</a>
</g>
</g>
<!-- Node5&#45;&gt;Node13 -->
<g id="edge13_Node000005_Node000013" class="edge">
<title>Node5&#45;&gt;Node13</title>
<g id="a_edge13_Node000005_Node000013"><a xlink:title=" ">
<path fill="none" stroke="#63b8ff" d="M1345.1,-220.18C887.53,-163.54 766.8,-215.8 311,-184 308.32,-183.81 305.59,-183.61 302.84,-183.39"/>
<polygon fill="#63b8ff" stroke="#63b8ff" points="1344.93,-223.68 1355.28,-221.45 1345.8,-216.73 1344.93,-223.68"/>
</a>
</g>
</g>
<!-- Node14 -->
<g id="Node000014" class="node">
<title>Node14</title>
<g id="a_Node000014"><a xlink:href="_environment_8cpp.html" target="_top" xlink:title="The Environment body implements operating system services related to environment variables.">
<polygon fill="white" stroke="#666666" points="409.5,-184 320.5,-184 320.5,-165 409.5,-165 409.5,-184"/>
<text text-anchor="middle" x="365" y="-172" font-family="Helvetica,sans-Serif" font-size="10.00">Environment.cpp</text>
</a>
</g>
</g>
<!-- Node5&#45;&gt;Node14 -->
<g id="edge14_Node000005_Node000014" class="edge">
<title>Node5&#45;&gt;Node14</title>
<g id="a_edge14_Node000005_Node000014"><a xlink:title=" ">
<path fill="none" stroke="#63b8ff" d="M1345.23,-220.19C935.24,-168.8 826.05,-223.8 419,-184 415.98,-183.7 412.87,-183.35 409.74,-182.96"/>
<polygon fill="#63b8ff" stroke="#63b8ff" points="1344.92,-223.67 1355.28,-221.46 1345.8,-216.73 1344.92,-223.67"/>
</a>
</g>
</g>
<!-- Node15 -->
<g id="Node000015" class="node">
<title>Node15</title>
<g id="a_Node000015"><a xlink:href="_fluid_synth_8cpp.html" target="_top" xlink:title="The FluidSynth class implements the access to the fluidsynth library via a dynamic loading of it.">
<polygon fill="white" stroke="#666666" points="510,-184 428,-184 428,-165 510,-165 510,-184"/>
<text text-anchor="middle" x="469" y="-172" font-family="Helvetica,sans-Serif" font-size="10.00">FluidSynth.cpp</text>
</a>
</g>
</g>
<!-- Node5&#45;&gt;Node15 -->
<g id="edge15_Node000005_Node000015" class="edge">
<title>Node5&#45;&gt;Node15</title>
<g id="a_edge15_Node000005_Node000015"><a xlink:title=" ">
<path fill="none" stroke="#63b8ff" d="M1345.21,-220.18C979.39,-173.55 881.54,-222.55 519,-184 516.11,-183.69 513.14,-183.32 510.14,-182.91"/>
<polygon fill="#63b8ff" stroke="#63b8ff" points="1344.92,-223.67 1355.28,-221.47 1345.81,-216.72 1344.92,-223.67"/>
</a>
</g>
</g>
<!-- Node16 -->
<g id="Node000016" class="node">
<title>Node16</title>
<g id="a_Node000016"><a xlink:href="_fluid_synth_file_converter_8cpp.html" target="_top" xlink:title="The FluidSynthFileConverter module implements a conversion from a MIDI file into a wave file using th...">
<polygon fill="white" stroke="#666666" points="666,-184 528,-184 528,-165 666,-165 666,-184"/>
<text text-anchor="middle" x="597" y="-172" font-family="Helvetica,sans-Serif" font-size="10.00">FluidSynthFileConverter.cpp</text>
</a>
</g>
</g>
<!-- Node5&#45;&gt;Node16 -->
<g id="edge16_Node000005_Node000016" class="edge">
<title>Node5&#45;&gt;Node16</title>
<g id="a_edge16_Node000005_Node000016"><a xlink:title=" ">
<path fill="none" stroke="#63b8ff" d="M1345.08,-220.14C1048.26,-180.7 969.33,-207.91 675,-184 672.15,-183.77 669.24,-183.52 666.3,-183.25"/>
<polygon fill="#63b8ff" stroke="#63b8ff" points="1344.9,-223.64 1355.28,-221.51 1345.83,-216.71 1344.9,-223.64"/>
</a>
</g>
</g>
<!-- Node17 -->
<g id="Node000017" class="node">
<title>Node17</title>
<g id="a_Node000017"><a xlink:href="_fluid_synth_plugin___editor_8cpp.html" target="_top" xlink:title="The FluidSynthPlugin_Editor module implements the editor for the processor of MIDI events from the DA...">
<polygon fill="white" stroke="#666666" points="824,-184 684,-184 684,-165 824,-165 824,-184"/>
<text text-anchor="middle" x="754" y="-172" font-family="Helvetica,sans-Serif" font-size="10.00">FluidSynthPlugin_Editor.cpp</text>
</a>
</g>
</g>
<!-- Node5&#45;&gt;Node17 -->
<g id="edge17_Node000005_Node000017" class="edge">
<title>Node5&#45;&gt;Node17</title>
<g id="a_edge17_Node000005_Node000017"><a xlink:title=" ">
<path fill="none" stroke="#63b8ff" d="M1345.37,-220.14C1118.04,-188.04 1057.44,-203.94 833,-184 830.11,-183.74 827.17,-183.47 824.2,-183.19"/>
<polygon fill="#63b8ff" stroke="#63b8ff" points="1344.88,-223.61 1355.27,-221.56 1345.86,-216.68 1344.88,-223.61"/>
</a>
</g>
</g>
<!-- Node18 -->
<g id="Node000018" class="node">
<title>Node18</title>
<g id="a_Node000018"><a xlink:href="_fluid_synth_plugin___editor_support_8cpp.html" target="_top" xlink:title="The FluidSynthPlugin_EditorSupport module implements support services for the editor of the FluidSynt...">
<polygon fill="white" stroke="#666666" points="1015.5,-184 842.5,-184 842.5,-165 1015.5,-165 1015.5,-184"/>
<text text-anchor="middle" x="929" y="-172" font-family="Helvetica,sans-Serif" font-size="10.00">FluidSynthPlugin_EditorSupport.cpp</text>
</a>
</g>
</g>
<!-- Node5&#45;&gt;Node18 -->
<g id="edge18_Node000005_Node000018" class="edge">
<title>Node5&#45;&gt;Node18</title>
<g id="a_edge18_Node000005_Node000018"><a xlink:title=" ">
<path fill="none" stroke="#63b8ff" d="M1345.15,-220.07C1269.69,-208.57 1114.02,-193.05 1015.61,-183.63"/>
<polygon fill="#63b8ff" stroke="#63b8ff" points="1344.83,-223.57 1355.25,-221.67 1345.92,-216.65 1344.83,-223.57"/>
</a>
</g>
</g>
<!-- Node19 -->
<g id="Node000019" class="node">
<title>Node19</title>
<g id="a_Node000019"><a xlink:href="_fluid_synth_settings_8cpp.html" target="_top" xlink:title="The FluidSynthSettings class implements an object&#45;oriented wrapper around an underlying fluidsynth se...">
<polygon fill="white" stroke="#666666" points="1152,-184 1034,-184 1034,-165 1152,-165 1152,-184"/>
<text text-anchor="middle" x="1093" y="-172" font-family="Helvetica,sans-Serif" font-size="10.00">FluidSynthSettings.cpp</text>
</a>
</g>
</g>
<!-- Node5&#45;&gt;Node19 -->
<g id="edge20_Node000005_Node000019" class="edge">
<title>Node5&#45;&gt;Node19</title>
<g id="a_edge20_Node000005_Node000019"><a xlink:title=" ">
<path fill="none" stroke="#63b8ff" d="M1345.08,-219.89C1269.78,-205.17 1193.98,-192.18 1144.96,-184.01"/>
<polygon fill="#63b8ff" stroke="#63b8ff" points="1344.73,-223.38 1355.22,-221.88 1346.08,-216.52 1344.73,-223.38"/>
</a>
</g>
</g>
<!-- Node20 -->
<g id="Node000020" class="node">
<title>Node20</title>
<g id="a_Node000020"><a xlink:href="_fluid_synth_sound_font_8cpp.html" target="_top" xlink:title="The FluidSynthSoundFont class implements an object&#45;oriented wrapper around an underlying fluidsynth S...">
<polygon fill="white" stroke="#666666" points="1299.5,-184 1170.5,-184 1170.5,-165 1299.5,-165 1299.5,-184"/>
<text text-anchor="middle" x="1235" y="-172" font-family="Helvetica,sans-Serif" font-size="10.00">FluidSynthSoundFont.cpp</text>
</a>
</g>
</g>
<!-- Node5&#45;&gt;Node20 -->
<g id="edge21_Node000005_Node000020" class="edge">
<title>Node5&#45;&gt;Node20</title>
<g id="a_edge21_Node000005_Node000020"><a xlink:title=" ">
<path fill="none" stroke="#63b8ff" d="M1351.18,-216.55C1323.32,-206.71 1284.49,-192.98 1259.54,-184.17"/>
<polygon fill="#63b8ff" stroke="#63b8ff" points="1350.31,-219.95 1360.9,-219.98 1352.64,-213.35 1350.31,-219.95"/>
</a>
</g>
</g>
<!-- Node21 -->
<g id="Node000021" class="node">
<title>Node21</title>
<g id="a_Node000021"><a xlink:href="_fluid_synth_synthesizer_8cpp.html" target="_top" xlink:title="The FluidSynthSynthesizer class implements an object&#45;oriented wrapper around an underlying fluidsynth...">
<polygon fill="white" stroke="#666666" points="1452,-184 1318,-184 1318,-165 1452,-165 1452,-184"/>
<text text-anchor="middle" x="1385" y="-172" font-family="Helvetica,sans-Serif" font-size="10.00">FluidSynthSynthesizer.cpp</text>
</a>
</g>
</g>
<!-- Node5&#45;&gt;Node21 -->
<g id="edge22_Node000005_Node000021" class="edge">
<title>Node5&#45;&gt;Node21</title>
<g id="a_edge22_Node000005_Node000021"><a xlink:title=" ">
<path fill="none" stroke="#63b8ff" d="M1385,-209.66C1385,-200.93 1385,-190.99 1385,-184.09"/>
<polygon fill="#63b8ff" stroke="#63b8ff" points="1381.5,-209.75 1385,-219.75 1388.5,-209.75 1381.5,-209.75"/>
</a>
</g>
</g>
<!-- Node22 -->
<g id="Node000022" class="node">
<title>Node22</title>
<g id="a_Node000022"><a xlink:href="_midi_event_8cpp.html" target="_top" xlink:title="The MidiEvent implementation defines the services of a single MIDI event.">
<polygon fill="white" stroke="#666666" points="1547.5,-184 1470.5,-184 1470.5,-165 1547.5,-165 1547.5,-184"/>
<text text-anchor="middle" x="1509" y="-172" font-family="Helvetica,sans-Serif" font-size="10.00">MidiEvent.cpp</text>
</a>
</g>
</g>
<!-- Node5&#45;&gt;Node22 -->
<g id="edge23_Node000005_Node000022" class="edge">
<title>Node5&#45;&gt;Node22</title>
<g id="a_edge23_Node000005_Node000022"><a xlink:title=" ">
<path fill="none" stroke="#63b8ff" d="M1414.18,-216.03C1437.11,-206.23 1468.45,-192.83 1488.71,-184.17"/>
<polygon fill="#63b8ff" stroke="#63b8ff" points="1412.74,-212.84 1404.92,-219.98 1415.49,-219.27 1412.74,-212.84"/>
</a>
</g>
</g>
<!-- Node23 -->
<g id="Node000023" class="node">
<title>Node23</title>
<g id="a_Node000023"><a xlink:href="_midi_event_converter_8cpp.html" target="_top" xlink:title="The MidiEventConverter module implements the handling of MIDI events by feeding them to an underlying...">
<polygon fill="white" stroke="#666666" points="1684,-184 1566,-184 1566,-165 1684,-165 1684,-184"/>
<text text-anchor="middle" x="1625" y="-172" font-family="Helvetica,sans-Serif" font-size="10.00">MidiEventConverter.cpp</text>
</a>
</g>
</g>
<!-- Node5&#45;&gt;Node23 -->
<g id="edge24_Node000005_Node000023" class="edge">
<title>Node5&#45;&gt;Node23</title>
<g id="a_edge24_Node000005_Node000023"><a xlink:title=" ">
<path fill="none" stroke="#63b8ff" d="M1424.86,-219.7C1469.7,-209.8 1542.03,-193.82 1586.36,-184.03"/>
<polygon fill="#63b8ff" stroke="#63b8ff" points="1423.92,-216.32 1414.91,-221.89 1425.43,-223.16 1423.92,-216.32"/>
</a>
</g>
</g>
<!-- Node24 -->
<g id="Node000024" class="node">
<title>Node24</title>
<g id="a_Node000024"><a xlink:href="_midi_event_list_8cpp.html" target="_top" xlink:title="The MIDIEventList body implements sequences of integer values with zero&#45;based arbitrary indexed acces...">
<polygon fill="white" stroke="#666666" points="1795.5,-184 1702.5,-184 1702.5,-165 1795.5,-165 1795.5,-184"/>
<text text-anchor="middle" x="1749" y="-172" font-family="Helvetica,sans-Serif" font-size="10.00">MidiEventList.cpp</text>
</a>
</g>
</g>
<!-- Node5&#45;&gt;Node24 -->
<g id="edge25_Node000005_Node000024" class="edge">
<title>Node5&#45;&gt;Node24</title>
<g id="a_edge25_Node000005_Node000024"><a xlink:title=" ">
<path fill="none" stroke="#63b8ff" d="M1424.69,-220.01C1544.49,-199.23 1576.74,-200.6 1693,-184 1696.02,-183.57 1699.13,-183.12 1702.26,-182.66"/>
<polygon fill="#63b8ff" stroke="#63b8ff" points="1424.01,-216.58 1414.76,-221.75 1425.21,-223.47 1424.01,-216.58"/>
</a>
</g>
</g>
<!-- Node25 -->
<g id="Node000025" class="node">
<title>Node25</title>
<g id="a_Node000025"><a xlink:href="_midi_file_8cpp.html" target="_top" xlink:title="The MidiFile implementation implements the services of a MIDI file; currently only file reading is su...">
<polygon fill="white" stroke="#666666" points="1882.5,-184 1813.5,-184 1813.5,-165 1882.5,-165 1882.5,-184"/>
<text text-anchor="middle" x="1848" y="-172" font-family="Helvetica,sans-Serif" font-size="10.00">MidiFile.cpp</text>
</a>
</g>
</g>
<!-- Node5&#45;&gt;Node25 -->
<g id="edge26_Node000005_Node000025" class="edge">
<title>Node5&#45;&gt;Node25</title>
<g id="a_edge26_Node000005_Node000025"><a xlink:title=" ">
<path fill="none" stroke="#63b8ff" d="M1424.7,-220.09C1593.36,-194.42 1639.28,-207.66 1804,-184 1807.08,-183.56 1810.27,-183.05 1813.47,-182.5"/>
<polygon fill="#63b8ff" stroke="#63b8ff" points="1424.09,-216.65 1414.74,-221.63 1425.16,-223.56 1424.09,-216.65"/>
</a>
</g>
</g>
<!-- Node26 -->
<g id="Node000026" class="node">
<title>Node26</title>
<g id="a_Node000026"><a xlink:href="_midi_preset_identification_8cpp.html" target="_top" xlink:title="The MidiPresetIdentification body implements the identification of a MIDI preset as a tuple of bank a...">
<polygon fill="white" stroke="#666666" points="2037,-184 1901,-184 1901,-165 2037,-165 2037,-184"/>
<text text-anchor="middle" x="1969" y="-172" font-family="Helvetica,sans-Serif" font-size="10.00">MidiPresetIdentification.cpp</text>
</a>
</g>
</g>
<!-- Node5&#45;&gt;Node26 -->
<g id="edge27_Node000005_Node000026" class="edge">
<title>Node5&#45;&gt;Node26</title>
<g id="a_edge27_Node000005_Node000026"><a xlink:title=" ">
<path fill="none" stroke="#63b8ff" d="M1424.7,-220.12C1631.68,-190.18 1686.96,-202.98 1891,-184 1894.26,-183.7 1897.59,-183.38 1900.95,-183.04"/>
<polygon fill="#63b8ff" stroke="#63b8ff" points="1424.12,-216.67 1414.73,-221.58 1425.13,-223.59 1424.12,-216.67"/>
</a>
</g>
</g>
<!-- Node27 -->
<g id="Node000027" class="node">
<title>Node27</title>
<g id="a_Node000027"><a xlink:href="_operating_system_8cpp.html" target="_top" xlink:title="The OperatingSystem body implements a class for several operating system related utility functions (l...">
<polygon fill="white" stroke="#666666" points="2166.5,-184 2055.5,-184 2055.5,-165 2166.5,-165 2166.5,-184"/>
<text text-anchor="middle" x="2111" y="-172" font-family="Helvetica,sans-Serif" font-size="10.00">OperatingSystem.cpp</text>
</a>
</g>
</g>
<!-- Node5&#45;&gt;Node27 -->
<g id="edge28_Node000005_Node000027" class="edge">
<title>Node5&#45;&gt;Node27</title>
<g id="a_edge28_Node000005_Node000027"><a xlink:title=" ">
<path fill="none" stroke="#63b8ff" d="M1425.02,-220.12C1700.13,-183.07 1773.68,-209.65 2046,-184 2049.06,-183.71 2052.2,-183.39 2055.36,-183.04"/>
<polygon fill="#63b8ff" stroke="#63b8ff" points="1424.16,-216.7 1414.72,-221.52 1425.11,-223.64 1424.16,-216.7"/>
</a>
</g>
</g>
<!-- Node28 -->
<g id="Node000028" class="node">
<title>Node28</title>
<g id="a_Node000028"><a xlink:href="_time_and_duration_8cpp.html" target="_top" xlink:title="The TimeAndDuration body implements simple functions for the types for time and duration.">
<polygon fill="white" stroke="#666666" points="2295,-184 2185,-184 2185,-165 2295,-165 2295,-184"/>
<text text-anchor="middle" x="2240" y="-172" font-family="Helvetica,sans-Serif" font-size="10.00">TimeAndDuration.cpp</text>
</a>
</g>
</g>
<!-- Node5&#45;&gt;Node28 -->
<g id="edge29_Node000005_Node000028" class="edge">
<title>Node5&#45;&gt;Node28</title>
<g id="a_edge29_Node000005_Node000028"><a xlink:title=" ">
<path fill="none" stroke="#63b8ff" d="M1425.12,-220.12C1757.09,-177.03 1845.57,-213.39 2175,-184 2178.17,-183.72 2181.43,-183.39 2184.72,-183.04"/>
<polygon fill="#63b8ff" stroke="#63b8ff" points="1424.18,-216.72 1414.72,-221.49 1425.09,-223.66 1424.18,-216.72"/>
</a>
</g>
</g>
<!-- Node5&#45;&gt;Node29 -->
<g id="edge30_Node000005_Node000029" class="edge">
<title>Node5&#45;&gt;Node29</title>
<g id="a_edge30_Node000005_Node000029"><a xlink:title=" ">
<path fill="none" stroke="#63b8ff" d="M1424.71,-220.2C1889.52,-163.01 2013.56,-233.37 2475,-184 2478.05,-183.67 2481.2,-183.26 2484.36,-182.8"/>
<polygon fill="#63b8ff" stroke="#63b8ff" points="1424.21,-216.74 1414.72,-221.45 1425.07,-223.68 1424.21,-216.74"/>
</a>
</g>
</g>
<!-- Node7 -->
<g id="Node000007" class="node">
<title>Node7</title>
<g id="a_Node000007"><a xlink:href="_audio_sample_fifo_queue_8h.html" target="_top" xlink:title="The AudioSampleFifoQueue specification defines a fifo queue for audio samples with popping off access...">
<polygon fill="white" stroke="#666666" points="1467.5,-129 1340.5,-129 1340.5,-110 1467.5,-110 1467.5,-129"/>
<text text-anchor="middle" x="1404" y="-117" font-family="Helvetica,sans-Serif" font-size="10.00">AudioSampleFifoQueue.h</text>
</a>
</g>
</g>
<!-- Node6&#45;&gt;Node7 -->
<g id="edge6_Node000006_Node000007" class="edge">
<title>Node6&#45;&gt;Node7</title>
<g id="a_edge6_Node000006_Node000007"><a xlink:title=" ">
<path fill="none" stroke="#63b8ff" d="M2302.71,-164.94C1982.56,-141.48 1613.32,-127.55 1467.63,-122.57"/>
<polygon fill="#63b8ff" stroke="#63b8ff" points="2302.89,-168.47 2313.12,-165.71 2303.41,-161.49 2302.89,-168.47"/>
</a>
</g>
</g>
<!-- Node8 -->
<g id="Node000008" class="node">
<title>Node8</title>
<g id="a_Node000008"><a xlink:href="_audio_sample_fifo_queue_8cpp.html" target="_top" xlink:title="The AudioSampleFifoQueue body implements a fifo queue for audio samples with popping off access to th...">
<polygon fill="white" stroke="#666666" points="1472.5,-74 1335.5,-74 1335.5,-55 1472.5,-55 1472.5,-74"/>
<text text-anchor="middle" x="1404" y="-62" font-family="Helvetica,sans-Serif" font-size="10.00">AudioSampleFifoQueue.cpp</text>
</a>
</g>
</g>
<!-- Node7&#45;&gt;Node8 -->
<g id="edge7_Node000007_Node000008" class="edge">
<title>Node7&#45;&gt;Node8</title>
<g id="a_edge7_Node000007_Node000008"><a xlink:title=" ">
<path fill="none" stroke="#63b8ff" d="M1404,-99.66C1404,-90.93 1404,-80.99 1404,-74.09"/>
<polygon fill="#63b8ff" stroke="#63b8ff" points="1400.5,-99.75 1404,-109.75 1407.5,-99.75 1400.5,-99.75"/>
</a>
</g>
</g>
<!-- Node9 -->
<g id="Node000009" class="node">
<title>Node9</title>
<g id="a_Node000009"><a xlink:href="_audio_sample_fifo_queue_vector_8h.html" target="_top" xlink:title="The AudioSampleFifoQueueVector specification defines a list of fifo queues for audio samples.">
<polygon fill="white" stroke="#666666" points="341.5,-74 186.5,-74 186.5,-55 341.5,-55 341.5,-74"/>
<text text-anchor="middle" x="264" y="-62" font-family="Helvetica,sans-Serif" font-size="10.00">AudioSampleFifoQueueVector.h</text>
</a>
</g>
</g>
<!-- Node7&#45;&gt;Node9 -->
<g id="edge8_Node000007_Node000009" class="edge">
<title>Node7&#45;&gt;Node9</title>
<g id="a_edge8_Node000007_Node000009"><a xlink:title=" ">
<path fill="none" stroke="#63b8ff" d="M1330.21,-115.07C1125.35,-105.55 550.96,-78.84 341.6,-69.11"/>
<polygon fill="#63b8ff" stroke="#63b8ff" points="1330.11,-118.57 1340.27,-115.54 1330.44,-111.58 1330.11,-118.57"/>
</a>
</g>
</g>
<!-- Node10 -->
<g id="Node000010" class="node">
<title>Node10</title>
<g id="a_Node000010"><a xlink:href="_audio_sample_fifo_queue_vector_8cpp.html" target="_top" xlink:title="The AudioSampleFifoQueueVector body implements a list of fifo queues for audio samples (this is the f...">
<polygon fill="white" stroke="#666666" points="366,-19 200,-19 200,0 366,0 366,-19"/>
<text text-anchor="middle" x="283" y="-7" font-family="Helvetica,sans-Serif" font-size="10.00">AudioSampleFifoQueueVector.cpp</text>
</a>
</g>
</g>
<!-- Node9&#45;&gt;Node10 -->
<g id="edge9_Node000009_Node000010" class="edge">
<title>Node9&#45;&gt;Node10</title>
<g id="a_edge9_Node000009_Node000010"><a xlink:title=" ">
<path fill="none" stroke="#63b8ff" d="M270.55,-45.24C273.72,-36.37 277.39,-26.14 279.92,-19.09"/>
<polygon fill="#63b8ff" stroke="#63b8ff" points="267.22,-44.15 267.14,-54.75 273.81,-46.52 267.22,-44.15"/>
</a>
</g>
</g>
<!-- Node9&#45;&gt;Node11 -->
<g id="edge10_Node000009_Node000011" class="edge">
<title>Node9&#45;&gt;Node11</title>
<g id="a_edge10_Node000009_Node000011"><a xlink:title=" ">
<path fill="none" stroke="#63b8ff" d="M226.23,-51.93C193.91,-42.03 148.14,-28.01 119.01,-19.08"/>
<polygon fill="#63b8ff" stroke="#63b8ff" points="225.62,-55.4 236.2,-54.98 227.67,-48.71 225.62,-55.4"/>
</a>
</g>
</g>
<!-- Node12&#45;&gt;Node9 -->
<g id="edge12_Node000012_Node000009" class="edge">
<title>Node12&#45;&gt;Node9</title>
<g id="a_edge12_Node000012_Node000009"><a xlink:title=" ">
<path fill="none" stroke="#63b8ff" d="M252.2,-100.24C255.21,-91.37 258.69,-81.14 261.08,-74.09"/>
<polygon fill="#63b8ff" stroke="#63b8ff" points="248.87,-99.15 248.97,-109.75 255.5,-101.4 248.87,-99.15"/>
</a>
</g>
</g>
</g>
</svg>

<g id="navigator" transform="translate(0 0)" fill="#404254">
  <rect fill="#f2f5e9" fill-opacity="0.5" stroke="#606060" stroke-width=".5" x="0" y="0" width="60" height="60"/>
  <use id="zoomplus" xlink:href="#zoomPlus" x="17" y="9" onmousedown="handleZoom(evt,'in')"/>
  <use id="zoomminus" xlink:href="#zoomMin" x="42" y="9" onmousedown="handleZoom(evt,'out')"/>
  <use id="reset" xlink:href="#resetDef" x="30" y="36" onmousedown="handleReset()"/>
   <use id="arrowup" xlink:href="#arrowUp" x="0" y="0" onmousedown="handlePan(0,-1)"/>
  <use id="arrowright" xlink:href="#arrowRight" x="0" y="0" onmousedown="handlePan(1,0)"/>
  <use id="arrowdown" xlink:href="#arrowDown" x="0" y="0" onmousedown="handlePan(0,1)"/>
  <use id="arrowleft" xlink:href="#arrowLeft" x="0" y="0" onmousedown="handlePan(-1,0)"/>
</g>
<svg viewBox="0 0 15 15" width="100%" height="30px" preserveAspectRatio="xMaxYMin meet">
 <g id="arrow_out" transform="scale(0.3 0.3)">
  <a xlink:href="_character_8h__dep__incl_org.svg" target="_base">
   <rect id="button" ry="5" rx="5" y="6" x="6" height="38" width="38"
        fill="#f2f5e9" fill-opacity="0.5" stroke="#606060" stroke-width="1.0"/>
   <path id="arrow"
     d="M 11.500037,31.436501 C 11.940474,20.09759 22.043105,11.32322 32.158766,21.979434 L 37.068811,17.246167 C 37.068811,17.246167 37.088388,32 37.088388,32 L 22.160133,31.978069 C 22.160133,31.978069 26.997745,27.140456 26.997745,27.140456 C 18.528582,18.264221 13.291696,25.230495 11.500037,31.436501 z"
     style="fill:#404040;"/>
  </a>
 </g>
</svg>

<style type='text/css'>
<![CDATA[
[data-mouse-over-selected='false'] { opacity: 0.7; }
[data-mouse-over-selected='true']  { opacity: 1.0; }
]]>
</style>
<script type="application/ecmascript"><![CDATA[
document.addEventListener('DOMContentLoaded', (event) => {
  highlightEdges();
  highlightAdjacentNodes();
});
]]></script>
</svg>
