<?xml version="1.0" encoding="UTF-8" standalone="no"?>
<!DOCTYPE svg PUBLIC "-//W3C//DTD SVG 1.1//EN"
 "http://www.w3.org/Graphics/SVG/1.1/DTD/svg11.dtd">
<!-- Generated by graphviz version 2.47.1 (20210417.1919)
 -->
<!-- Title: Character.h Pages: 1 -->
<svg width="339pt" height="252pt"
 viewBox="0.00 0.00 338.50 252.00" xmlns="http://www.w3.org/2000/svg" xmlns:xlink="http://www.w3.org/1999/xlink">
<g id="graph0" class="graph" transform="scale(1 1) rotate(0) translate(4 248)">
<title>Character.h</title>
<polygon fill="white" stroke="transparent" points="-4,4 -4,-248 334.5,-248 334.5,4 -4,4"/>
<!-- Node1 -->
<g id="node1" class="node">
<title>Node1</title>
<g id="a_node1"><a xlink:title="The Character specification and body provides a value object type for character values.">
<polygon fill="#bfbfbf" stroke="black" points="3.5,-224.5 3.5,-243.5 70.5,-243.5 70.5,-224.5 3.5,-224.5"/>
<text text-anchor="middle" x="37" y="-231.5" font-family="Helvetica,sans-Serif" font-size="10.00">Character.h</text>
</a>
</g>
</g>
<!-- Node2 -->
<g id="node2" class="node">
<title>Node2</title>
<g id="a_node2"><a xlink:title=" ">
<polygon fill="white" stroke="#bfbfbf" points="0,-56.5 0,-75.5 44,-75.5 44,-56.5 0,-56.5"/>
<text text-anchor="middle" x="22" y="-63.5" font-family="Helvetica,sans-Serif" font-size="10.00">cmath</text>
</a>
</g>
</g>
<!-- Node1&#45;&gt;Node2 -->
<g id="edge1" class="edge">
<title>Node1&#45;&gt;Node2</title>
<path fill="none" stroke="midnightblue" d="M35.7,-224.39C34.37,-215.35 32.32,-200.7 31,-188 27.24,-151.81 24.46,-109.37 23.05,-85.59"/>
<polygon fill="midnightblue" stroke="midnightblue" points="26.53,-85.3 22.46,-75.52 19.55,-85.71 26.53,-85.3"/>
</g>
<!-- Node3 -->
<g id="node3" class="node">
<title>Node3</title>
<g id="a_node3"><a xlink:href="_byte_8h.html" target="_top" xlink:title="The Byte specification and body provides a value object type for byte values.">
<polygon fill="white" stroke="black" points="40.5,-168.5 40.5,-187.5 85.5,-187.5 85.5,-168.5 40.5,-168.5"/>
<text text-anchor="middle" x="63" y="-175.5" font-family="Helvetica,sans-Serif" font-size="10.00">Byte.h</text>
</a>
</g>
</g>
<!-- Node1&#45;&gt;Node3 -->
<g id="edge2" class="edge">
<title>Node1&#45;&gt;Node3</title>
<path fill="none" stroke="midnightblue" d="M41.29,-224.08C44.85,-216.69 50.02,-205.95 54.42,-196.81"/>
<polygon fill="midnightblue" stroke="midnightblue" points="57.6,-198.28 58.79,-187.75 51.29,-195.24 57.6,-198.28"/>
</g>
<!-- Node3&#45;&gt;Node2 -->
<g id="edge3" class="edge">
<title>Node3&#45;&gt;Node2</title>
<path fill="none" stroke="midnightblue" d="M59.78,-168.37C53.14,-150.54 37.76,-109.3 28.81,-85.27"/>
<polygon fill="midnightblue" stroke="midnightblue" points="31.97,-83.74 25.2,-75.59 25.42,-86.18 31.97,-83.74"/>
</g>
<!-- Node4 -->
<g id="node4" class="node">
<title>Node4</title>
<g id="a_node4"><a xlink:href="_natural_8h.html" target="_top" xlink:title="The Natural specification and body provides a value object type for naturals (positive integers with ...">
<polygon fill="white" stroke="black" points="78,-112.5 78,-131.5 134,-131.5 134,-112.5 78,-112.5"/>
<text text-anchor="middle" x="106" y="-119.5" font-family="Helvetica,sans-Serif" font-size="10.00">Natural.h</text>
</a>
</g>
</g>
<!-- Node3&#45;&gt;Node4 -->
<g id="edge4" class="edge">
<title>Node3&#45;&gt;Node4</title>
<path fill="none" stroke="midnightblue" d="M70.1,-168.08C76.24,-160.38 85.27,-149.03 92.74,-139.65"/>
<polygon fill="midnightblue" stroke="midnightblue" points="95.54,-141.75 99.03,-131.75 90.06,-137.39 95.54,-141.75"/>
</g>
<!-- Node4&#45;&gt;Node2 -->
<g id="edge5" class="edge">
<title>Node4&#45;&gt;Node2</title>
<path fill="none" stroke="midnightblue" d="M92.5,-112.32C79.4,-103.9 59.29,-90.97 43.89,-81.07"/>
<polygon fill="midnightblue" stroke="midnightblue" points="45.77,-78.12 35.46,-75.65 41.98,-84.01 45.77,-78.12"/>
</g>
<!-- Node5 -->
<g id="node5" class="node">
<title>Node5</title>
<g id="a_node5"><a xlink:href="_assertion_8h.html" target="_top" xlink:title="The Assertion specification defines macros for pre&#45; and postconditions in functions or methods.">
<polygon fill="white" stroke="black" points="62,-56.5 62,-75.5 128,-75.5 128,-56.5 62,-56.5"/>
<text text-anchor="middle" x="95" y="-63.5" font-family="Helvetica,sans-Serif" font-size="10.00">Assertion.h</text>
</a>
</g>
</g>
<!-- Node4&#45;&gt;Node5 -->
<g id="edge6" class="edge">
<title>Node4&#45;&gt;Node5</title>
<path fill="none" stroke="midnightblue" d="M104.18,-112.08C102.73,-104.93 100.63,-94.64 98.81,-85.69"/>
<polygon fill="midnightblue" stroke="midnightblue" points="102.21,-84.85 96.78,-75.75 95.35,-86.25 102.21,-84.85"/>
</g>
<!-- Node8 -->
<g id="node8" class="node">
<title>Node8</title>
<g id="a_node8"><a xlink:title=" ">
<polygon fill="white" stroke="#bfbfbf" points="146,-56.5 146,-75.5 238,-75.5 238,-56.5 146,-56.5"/>
<text text-anchor="middle" x="192" y="-63.5" font-family="Helvetica,sans-Serif" font-size="10.00">GenericNumber.h</text>
</a>
</g>
</g>
<!-- Node4&#45;&gt;Node8 -->
<g id="edge9" class="edge">
<title>Node4&#45;&gt;Node8</title>
<path fill="none" stroke="midnightblue" d="M119.82,-112.32C133.23,-103.9 153.82,-90.97 169.59,-81.07"/>
<polygon fill="midnightblue" stroke="midnightblue" points="171.61,-83.94 178.22,-75.65 167.89,-78.01 171.61,-83.94"/>
</g>
<!-- Node9 -->
<g id="node9" class="node">
<title>Node9</title>
<g id="a_node9"><a xlink:href="_my_string_8h.html" target="_top" xlink:title="The String specification defines a standard string type.">
<polygon fill="white" stroke="black" points="256,-56.5 256,-75.5 320,-75.5 320,-56.5 256,-56.5"/>
<text text-anchor="middle" x="288" y="-63.5" font-family="Helvetica,sans-Serif" font-size="10.00">MyString.h</text>
</a>
</g>
</g>
<!-- Node4&#45;&gt;Node9 -->
<g id="edge10" class="edge">
<title>Node4&#45;&gt;Node9</title>
<path fill="none" stroke="midnightblue" d="M134.04,-112.68C164.99,-103.5 214.99,-88.66 249.57,-78.4"/>
<polygon fill="midnightblue" stroke="midnightblue" points="250.74,-81.71 259.33,-75.51 248.75,-75 250.74,-81.71"/>
</g>
<!-- Node6 -->
<g id="node6" class="node">
<title>Node6</title>
<g id="a_node6"><a xlink:title=" ">
<polygon fill="white" stroke="#bfbfbf" points="65.5,-0.5 65.5,-19.5 124.5,-19.5 124.5,-0.5 65.5,-0.5"/>
<text text-anchor="middle" x="95" y="-7.5" font-family="Helvetica,sans-Serif" font-size="10.00">stdexcept</text>
</a>
</g>
</g>
<!-- Node5&#45;&gt;Node6 -->
<g id="edge7" class="edge">
<title>Node5&#45;&gt;Node6</title>
<path fill="none" stroke="midnightblue" d="M95,-56.08C95,-49.01 95,-38.86 95,-29.99"/>
<polygon fill="midnightblue" stroke="midnightblue" points="98.5,-29.75 95,-19.75 91.5,-29.75 98.5,-29.75"/>
</g>
<!-- Node7 -->
<g id="node7" class="node">
<title>Node7</title>
<g id="a_node7"><a xlink:title=" ">
<polygon fill="white" stroke="#bfbfbf" points="164.5,-0.5 164.5,-19.5 205.5,-19.5 205.5,-0.5 164.5,-0.5"/>
<text text-anchor="middle" x="185" y="-7.5" font-family="Helvetica,sans-Serif" font-size="10.00">string</text>
</a>
</g>
</g>
<!-- Node5&#45;&gt;Node7 -->
<g id="edge8" class="edge">
<title>Node5&#45;&gt;Node7</title>
<path fill="none" stroke="midnightblue" d="M109.46,-56.32C123.5,-47.9 145.05,-34.97 161.54,-25.07"/>
<polygon fill="midnightblue" stroke="midnightblue" points="163.8,-27.8 170.58,-19.65 160.2,-21.8 163.8,-27.8"/>
</g>
<!-- Node9&#45;&gt;Node7 -->
<g id="edge11" class="edge">
<title>Node9&#45;&gt;Node7</title>
<path fill="none" stroke="midnightblue" d="M271.45,-56.32C255.01,-47.7 229.57,-34.36 210.53,-24.39"/>
<polygon fill="midnightblue" stroke="midnightblue" points="211.99,-21.2 201.51,-19.65 208.74,-27.4 211.99,-21.2"/>
</g>
<!-- Node10 -->
<g id="node10" class="node">
<title>Node10</title>
<g id="a_node10"><a xlink:href="_global_macros_8h.html" target="_top" xlink:title="The GlobalMacros specification defines simple macros (e.g. for parameter modes).">
<polygon fill="white" stroke="black" points="245.5,-0.5 245.5,-19.5 330.5,-19.5 330.5,-0.5 245.5,-0.5"/>
<text text-anchor="middle" x="288" y="-7.5" font-family="Helvetica,sans-Serif" font-size="10.00">GlobalMacros.h</text>
</a>
</g>
</g>
<!-- Node9&#45;&gt;Node10 -->
<g id="edge12" class="edge">
<title>Node9&#45;&gt;Node10</title>
<path fill="none" stroke="midnightblue" d="M288,-56.08C288,-49.01 288,-38.86 288,-29.99"/>
<polygon fill="midnightblue" stroke="midnightblue" points="291.5,-29.75 288,-19.75 284.5,-29.75 291.5,-29.75"/>
</g>
</g>
</svg>
