<?xml version="1.0" encoding="UTF-8" standalone="no"?>
<!DOCTYPE svg PUBLIC "-//W3C//DTD SVG 1.1//EN"
 "http://www.w3.org/Graphics/SVG/1.1/DTD/svg11.dtd">
<!-- Generated by graphviz version 2.47.1 (20210417.1919)
 -->
<!-- Title: Character.h Pages: 1 -->
<!--zoomable 371 -->
<svg id="main" version="1.1" xmlns="http://www.w3.org/2000/svg" xmlns:xlink="http://www.w3.org/1999/xlink" xml:space="preserve" onload="init(evt)">
<style type="text/css"><![CDATA[
.edge:hover path { stroke: red; }
.edge:hover polygon { stroke: red; fill: red; }
]]></style>
<script type="text/javascript"><![CDATA[
var edges = document.getElementsByTagName('g');
if (edges && edges.length) {
  for (var i=0;i<edges.length;i++) {
    if (edges[i].id.substr(0,4)=='edge') {
      edges[i].setAttribute('class','edge');
    }
  }
}
]]></script>
        <defs>
                <circle id="rim" cx="0" cy="0" r="7"/>
                <circle id="rim2" cx="0" cy="0" r="3.5"/>
                <g id="zoomPlus">
                        <use xlink:href="#rim" fill="#404040">
                                <set attributeName="fill" to="#808080" begin="zoomplus.mouseover" end="zoomplus.mouseout"/>
                        </use>
                        <path d="M-4,0h8M0,-4v8" fill="none" stroke="white" stroke-width="1.5" pointer-events="none"/>
                </g>
                <g id="zoomMin">
                        <use xlink:href="#rim" fill="#404040">
                                <set attributeName="fill" to="#808080" begin="zoomminus.mouseover" end="zoomminus.mouseout"/>
                        </use>
                        <path d="M-4,0h8" fill="none" stroke="white" stroke-width="1.5" pointer-events="none"/>
                </g>
                <g id="dirArrow">
                        <path fill="none" stroke="white" stroke-width="1.5" d="M0,-3.0v7 M-2.5,-0.5L0,-3.0L2.5,-0.5"/>
                </g>
               <g id="resetDef">
                       <use xlink:href="#rim2" fill="#404040">
                               <set attributeName="fill" to="#808080" begin="reset.mouseover" end="reset.mouseout"/>
                       </use>
               </g>
        </defs>

<script type="text/javascript">
var viewWidth = 1905;
var viewHeight = 371;
var sectionId = 'dynsection-1';
</script>
<script xlink:href="svgpan.js"/>
<svg id="graph" class="graph">
<g id="viewport">
<title>Character.h</title>
<polygon fill="white" stroke="transparent" points="-4,4 -4,-367 1901,-367 1901,4 -4,4"/>
<!-- Node1 -->
<g id="node1" class="node">
<title>Node1</title>
<g id="a_node1"><a xlink:title="The Character specification and body provides a value object type for character values.">
<polygon fill="#bfbfbf" stroke="black" points="441.5,-342.5 441.5,-362.5 515.5,-362.5 515.5,-342.5 441.5,-342.5"/>
<text text-anchor="middle" x="478.5" y="-349.7" font-family="Helvetica,sans-Serif" font-size="11.00">Character.h</text>
</a>
</g>
</g>
<!-- Node2 -->
<g id="node2" class="node">
<title>Node2</title>
<g id="a_node2"><a xlink:href="_wave_file_8cpp.html" target="_top" xlink:title="The WaveFile specification defines an object for accessing a RIFF wave file with several channels.">
<polygon fill="white" stroke="black" points="0,-171.5 0,-191.5 83,-191.5 83,-171.5 0,-171.5"/>
<text text-anchor="middle" x="41.5" y="-178.7" font-family="Helvetica,sans-Serif" font-size="11.00">WaveFile.cpp</text>
</a>
</g>
</g>
<!-- Node1&#45;&gt;Node2 -->
<g id="edge1" class="edge">
<title>Node1&#45;&gt;Node2</title>
<path fill="none" stroke="midnightblue" d="M445.64,-338.79C361.11,-306.1 137.71,-219.71 64.85,-191.53"/>
<polygon fill="midnightblue" stroke="midnightblue" points="444.42,-342.07 455,-342.41 446.94,-335.54 444.42,-342.07"/>
</g>
<!-- Node3 -->
<g id="node3" class="node">
<title>Node3</title>
<g id="a_node3"><a xlink:href="_string_util_8h.html" target="_top" xlink:title="The StringUtil specification defines several string routines not included in the standard C++ library...">
<polygon fill="white" stroke="black" points="856,-285.5 856,-305.5 925,-305.5 925,-285.5 856,-285.5"/>
<text text-anchor="middle" x="890.5" y="-292.7" font-family="Helvetica,sans-Serif" font-size="11.00">StringUtil.h</text>
</a>
</g>
</g>
<!-- Node1&#45;&gt;Node3 -->
<g id="edge2" class="edge">
<title>Node1&#45;&gt;Node3</title>
<path fill="none" stroke="midnightblue" d="M525.8,-345.19C609.59,-334 782.23,-310.95 855.93,-301.12"/>
<polygon fill="midnightblue" stroke="midnightblue" points="525.24,-341.73 515.79,-346.52 526.16,-348.67 525.24,-341.73"/>
</g>
<!-- Node4 -->
<g id="node4" class="node">
<title>Node4</title>
<g id="a_node4"><a xlink:href="_file_8cpp.html" target="_top" xlink:title="The File body implements a class for simple file handling based on C stdio.">
<polygon fill="white" stroke="black" points="1106,-228.5 1106,-248.5 1161,-248.5 1161,-228.5 1106,-228.5"/>
<text text-anchor="middle" x="1133.5" y="-235.7" font-family="Helvetica,sans-Serif" font-size="11.00">File.cpp</text>
</a>
</g>
</g>
<!-- Node3&#45;&gt;Node4 -->
<g id="edge3" class="edge">
<title>Node3&#45;&gt;Node4</title>
<path fill="none" stroke="midnightblue" d="M934.94,-285.29C976.94,-276.46 1041.66,-262.5 1097.5,-249 1100.14,-248.36 1102.88,-247.68 1105.62,-246.98"/>
<polygon fill="midnightblue" stroke="midnightblue" points="934.1,-281.89 925.03,-287.37 935.54,-288.74 934.1,-281.89"/>
</g>
<!-- Node5 -->
<g id="node5" class="node">
<title>Node5</title>
<g id="a_node5"><a xlink:href="_logging_8h.html" target="_top" xlink:title="The Logging specification defines macros for entry&#45;, exit&#45; and intermediate logging of functions into...">
<polygon fill="white" stroke="black" points="716.5,-228.5 716.5,-248.5 780.5,-248.5 780.5,-228.5 716.5,-228.5"/>
<text text-anchor="middle" x="748.5" y="-235.7" font-family="Helvetica,sans-Serif" font-size="11.00">Logging.h</text>
</a>
</g>
</g>
<!-- Node3&#45;&gt;Node5 -->
<g id="edge4" class="edge">
<title>Node3&#45;&gt;Node5</title>
<path fill="none" stroke="midnightblue" d="M857.54,-281.73C831.33,-271.58 795.33,-257.64 771.98,-248.6"/>
<polygon fill="midnightblue" stroke="midnightblue" points="856.46,-285.07 867.05,-285.42 858.99,-278.54 856.46,-285.07"/>
</g>
<!-- Node24 -->
<g id="node24" class="node">
<title>Node24</title>
<g id="a_node24"><a xlink:href="_string_util_8cpp.html" target="_top" xlink:title="The StringUtil body implements several string routines not included in the standard C++ library (like...">
<polygon fill="white" stroke="black" points="799,-228.5 799,-248.5 880,-248.5 880,-228.5 799,-228.5"/>
<text text-anchor="middle" x="839.5" y="-235.7" font-family="Helvetica,sans-Serif" font-size="11.00">StringUtil.cpp</text>
</a>
</g>
</g>
<!-- Node3&#45;&gt;Node24 -->
<g id="edge26" class="edge">
<title>Node3&#45;&gt;Node24</title>
<path fill="none" stroke="midnightblue" d="M875.21,-278.01C866.34,-268.45 855.5,-256.76 848.1,-248.78"/>
<polygon fill="midnightblue" stroke="midnightblue" points="872.71,-280.46 882.08,-285.42 877.85,-275.71 872.71,-280.46"/>
</g>
<!-- Node25 -->
<g id="node25" class="node">
<title>Node25</title>
<g id="a_node25"><a xlink:href="_natural_list_8cpp.html" target="_top" xlink:title="The NaturalList body implements lists of non&#45;negative integer values with zero&#45;based arbitrary indexe...">
<polygon fill="white" stroke="black" points="898,-228.5 898,-248.5 987,-248.5 987,-228.5 898,-228.5"/>
<text text-anchor="middle" x="942.5" y="-235.7" font-family="Helvetica,sans-Serif" font-size="11.00">NaturalList.cpp</text>
</a>
</g>
</g>
<!-- Node3&#45;&gt;Node25 -->
<g id="edge27" class="edge">
<title>Node3&#45;&gt;Node25</title>
<path fill="none" stroke="midnightblue" d="M906.09,-278.01C915.13,-268.45 926.19,-256.76 933.73,-248.78"/>
<polygon fill="midnightblue" stroke="midnightblue" points="903.41,-275.75 899.09,-285.42 908.5,-280.56 903.41,-275.75"/>
</g>
<!-- Node26 -->
<g id="node26" class="node">
<title>Node26</title>
<g id="a_node26"><a xlink:href="_string_list_8cpp.html" target="_top" xlink:title="The StringList body implements lists of string values with zero&#45;based arbitrary indexed access to pos...">
<polygon fill="white" stroke="black" points="1005,-228.5 1005,-248.5 1088,-248.5 1088,-228.5 1005,-228.5"/>
<text text-anchor="middle" x="1046.5" y="-235.7" font-family="Helvetica,sans-Serif" font-size="11.00">StringList.cpp</text>
</a>
</g>
</g>
<!-- Node3&#45;&gt;Node26 -->
<g id="edge28" class="edge">
<title>Node3&#45;&gt;Node26</title>
<path fill="none" stroke="midnightblue" d="M925.99,-281.99C954.93,-271.79 995.11,-257.62 1020.96,-248.5"/>
<polygon fill="midnightblue" stroke="midnightblue" points="924.53,-278.79 916.26,-285.42 926.86,-285.39 924.53,-278.79"/>
</g>
<!-- Node5&#45;&gt;Node2 -->
<g id="edge13" class="edge">
<title>Node5&#45;&gt;Node2</title>
<path fill="none" stroke="midnightblue" d="M706.12,-235.98C602.14,-231.94 326.17,-219.32 97.5,-192 92.8,-191.44 87.89,-190.75 83.02,-190.01"/>
<polygon fill="midnightblue" stroke="midnightblue" points="706.09,-239.48 716.22,-236.37 706.36,-232.49 706.09,-239.48"/>
</g>
<!-- Node6 -->
<g id="node6" class="node">
<title>Node6</title>
<g id="a_node6"><a xlink:href="_audio_sample_fifo_queue_8cpp-inc.html" target="_top" xlink:title="The AudioSampleFifoQueue body implements a fifo queue for audio samples with popping off access to th...">
<polygon fill="white" stroke="black" points="1726,-171.5 1726,-191.5 1897,-191.5 1897,-171.5 1726,-171.5"/>
<text text-anchor="middle" x="1811.5" y="-178.7" font-family="Helvetica,sans-Serif" font-size="11.00">AudioSampleFifoQueue.cpp&#45;inc</text>
</a>
</g>
</g>
<!-- Node5&#45;&gt;Node6 -->
<g id="edge5" class="edge">
<title>Node5&#45;&gt;Node6</title>
<path fill="none" stroke="midnightblue" d="M790.65,-228.11C1199.9,-173.98 1308.49,-220.3 1716.5,-192 1719.56,-191.79 1722.67,-191.56 1725.82,-191.31"/>
<polygon fill="midnightblue" stroke="midnightblue" points="790.07,-224.66 780.62,-229.45 791,-231.6 790.07,-224.66"/>
</g>
<!-- Node11 -->
<g id="node11" class="node">
<title>Node11</title>
<g id="a_node11"><a xlink:href="_fluid_synth_plugin___event_processor_8cpp.html" target="_top" xlink:title="The FluidSynthPlugin_Processor module implements the handling of MIDI events from the DAW via JUCE ha...">
<polygon fill="white" stroke="black" points="10,-0.5 10,-20.5 213,-20.5 213,-0.5 10,-0.5"/>
<text text-anchor="middle" x="111.5" y="-7.7" font-family="Helvetica,sans-Serif" font-size="11.00">FluidSynthPlugin_EventProcessor.cpp</text>
</a>
</g>
</g>
<!-- Node5&#45;&gt;Node11 -->
<g id="edge21" class="edge">
<title>Node5&#45;&gt;Node11</title>
<path fill="none" stroke="midnightblue" d="M705.98,-237.03C577.61,-235.21 200.27,-226.94 158.5,-192 105.34,-147.54 108.21,-51.28 110.59,-20.89"/>
<polygon fill="midnightblue" stroke="midnightblue" points="706.15,-240.53 716.2,-237.16 706.25,-233.53 706.15,-240.53"/>
</g>
<!-- Node12 -->
<g id="node12" class="node">
<title>Node12</title>
<g id="a_node12"><a xlink:href="_audio_sample_fifo_queue_vector_8cpp-inc.html" target="_top" xlink:title="The AudioSampleFifoQueueVector body implements a list of fifo queues for audio samples (this is the e...">
<polygon fill="white" stroke="black" points="181,-114.5 181,-134.5 384,-134.5 384,-114.5 181,-114.5"/>
<text text-anchor="middle" x="282.5" y="-121.7" font-family="Helvetica,sans-Serif" font-size="11.00">AudioSampleFifoQueueVector.cpp&#45;inc</text>
</a>
</g>
</g>
<!-- Node5&#45;&gt;Node12 -->
<g id="edge11" class="edge">
<title>Node5&#45;&gt;Node12</title>
<path fill="none" stroke="midnightblue" d="M706.42,-235.75C576.09,-230.13 186.76,-211.74 168.5,-192 143.14,-164.58 196.29,-145.12 238.26,-134.6"/>
<polygon fill="midnightblue" stroke="midnightblue" points="706.28,-239.25 716.42,-236.18 706.58,-232.25 706.28,-239.25"/>
</g>
<!-- Node13 -->
<g id="node13" class="node">
<title>Node13</title>
<g id="a_node13"><a xlink:href="_command_line_arguments_8cpp.html" target="_top" xlink:title="The CommandLineArguments body implements a handler for command&#45;line arguments converting them to a li...">
<polygon fill="white" stroke="black" points="178,-171.5 178,-191.5 341,-191.5 341,-171.5 178,-171.5"/>
<text text-anchor="middle" x="259.5" y="-178.7" font-family="Helvetica,sans-Serif" font-size="11.00">CommandLineArguments.cpp</text>
</a>
</g>
</g>
<!-- Node5&#45;&gt;Node13 -->
<g id="edge14" class="edge">
<title>Node5&#45;&gt;Node13</title>
<path fill="none" stroke="midnightblue" d="M706.04,-232.72C624.48,-223.55 444.71,-203.33 339.84,-191.54"/>
<polygon fill="midnightblue" stroke="midnightblue" points="706.09,-236.25 716.42,-233.89 706.87,-229.3 706.09,-236.25"/>
</g>
<!-- Node14 -->
<g id="node14" class="node">
<title>Node14</title>
<g id="a_node14"><a xlink:href="_operating_system_8cpp.html" target="_top" xlink:title="The OperatingSystem body implements a class for several operating system related utility functions (l...">
<polygon fill="white" stroke="black" points="359,-171.5 359,-191.5 482,-191.5 482,-171.5 359,-171.5"/>
<text text-anchor="middle" x="420.5" y="-178.7" font-family="Helvetica,sans-Serif" font-size="11.00">OperatingSystem.cpp</text>
</a>
</g>
</g>
<!-- Node5&#45;&gt;Node14 -->
<g id="edge15" class="edge">
<title>Node5&#45;&gt;Node14</title>
<path fill="none" stroke="midnightblue" d="M706.33,-230.43C647.09,-220.49 539.22,-202.41 474.28,-191.52"/>
<polygon fill="midnightblue" stroke="midnightblue" points="706.01,-233.92 716.45,-232.13 707.17,-227.02 706.01,-233.92"/>
</g>
<!-- Node15 -->
<g id="node15" class="node">
<title>Node15</title>
<g id="a_node15"><a xlink:href="_fluid_synth_8cpp.html" target="_top" xlink:title="The FluidSynth class implements the access to the fluidsynth library via a dynamic loading of it.">
<polygon fill="white" stroke="black" points="500,-171.5 500,-191.5 589,-191.5 589,-171.5 500,-171.5"/>
<text text-anchor="middle" x="544.5" y="-178.7" font-family="Helvetica,sans-Serif" font-size="11.00">FluidSynth.cpp</text>
</a>
</g>
</g>
<!-- Node5&#45;&gt;Node15 -->
<g id="edge16" class="edge">
<title>Node5&#45;&gt;Node15</title>
<path fill="none" stroke="midnightblue" d="M706.42,-226.15C668.39,-215.9 613.15,-201.01 578.03,-191.54"/>
<polygon fill="midnightblue" stroke="midnightblue" points="705.61,-229.56 716.18,-228.79 707.43,-222.8 705.61,-229.56"/>
</g>
<!-- Node16 -->
<g id="node16" class="node">
<title>Node16</title>
<g id="a_node16"><a xlink:href="_fluid_synth_settings_8cpp.html" target="_top" xlink:title="The FluidSynthSettings class implements an object&#45;oriented wrapper around an underlying fluidsynth se...">
<polygon fill="white" stroke="black" points="607.5,-171.5 607.5,-191.5 735.5,-191.5 735.5,-171.5 607.5,-171.5"/>
<text text-anchor="middle" x="671.5" y="-178.7" font-family="Helvetica,sans-Serif" font-size="11.00">FluidSynthSettings.cpp</text>
</a>
</g>
</g>
<!-- Node5&#45;&gt;Node16 -->
<g id="edge17" class="edge">
<title>Node5&#45;&gt;Node16</title>
<path fill="none" stroke="midnightblue" d="M727.35,-222.39C713.53,-212.52 695.94,-199.96 684.23,-191.6"/>
<polygon fill="midnightblue" stroke="midnightblue" points="725.61,-225.45 735.79,-228.42 729.68,-219.76 725.61,-225.45"/>
</g>
<!-- Node17 -->
<g id="node17" class="node">
<title>Node17</title>
<g id="a_node17"><a xlink:href="_fluid_synth_synthesizer_8cpp.html" target="_top" xlink:title="The FluidSynthSynthesizer class implements an object&#45;oriented wrapper around an underlying fluidsynth...">
<polygon fill="white" stroke="black" points="753.5,-171.5 753.5,-191.5 899.5,-191.5 899.5,-171.5 753.5,-171.5"/>
<text text-anchor="middle" x="826.5" y="-178.7" font-family="Helvetica,sans-Serif" font-size="11.00">FluidSynthSynthesizer.cpp</text>
</a>
</g>
</g>
<!-- Node5&#45;&gt;Node17 -->
<g id="edge18" class="edge">
<title>Node5&#45;&gt;Node17</title>
<path fill="none" stroke="midnightblue" d="M769.93,-222.39C783.92,-212.52 801.74,-199.96 813.6,-191.6"/>
<polygon fill="midnightblue" stroke="midnightblue" points="767.54,-219.79 761.38,-228.42 771.57,-225.52 767.54,-219.79"/>
</g>
<!-- Node18 -->
<g id="node18" class="node">
<title>Node18</title>
<g id="a_node18"><a xlink:href="_fluid_synth_file_converter_8cpp.html" target="_top" xlink:title="The FluidSynthFileConverter module implements a conversion from a MIDI file into a wave file using th...">
<polygon fill="white" stroke="black" points="917.5,-171.5 917.5,-191.5 1071.5,-191.5 1071.5,-171.5 917.5,-171.5"/>
<text text-anchor="middle" x="994.5" y="-178.7" font-family="Helvetica,sans-Serif" font-size="11.00">FluidSynthFileConverter.cpp</text>
</a>
</g>
</g>
<!-- Node5&#45;&gt;Node18 -->
<g id="edge19" class="edge">
<title>Node5&#45;&gt;Node18</title>
<path fill="none" stroke="midnightblue" d="M790.7,-227.74C852.81,-213.68 913.93,-200.18 953.25,-191.54"/>
<polygon fill="midnightblue" stroke="midnightblue" points="789.7,-224.38 780.72,-230 791.25,-231.21 789.7,-224.38"/>
</g>
<!-- Node19 -->
<g id="node19" class="node">
<title>Node19</title>
<g id="a_node19"><a xlink:href="_fluid_synth_plugin___editor_8cpp.html" target="_top" xlink:title="The FluidSynthPlugin_Editor module implements the editor for the processor of MIDI events from the DA...">
<polygon fill="white" stroke="black" points="1090,-171.5 1090,-191.5 1243,-191.5 1243,-171.5 1090,-171.5"/>
<text text-anchor="middle" x="1166.5" y="-178.7" font-family="Helvetica,sans-Serif" font-size="11.00">FluidSynthPlugin_Editor.cpp</text>
</a>
</g>
</g>
<!-- Node5&#45;&gt;Node19 -->
<g id="edge20" class="edge">
<title>Node5&#45;&gt;Node19</title>
<path fill="none" stroke="midnightblue" d="M790.81,-228.04C842.44,-220.12 995.28,-202.23 1089.59,-191.33"/>
<polygon fill="midnightblue" stroke="midnightblue" points="789.96,-224.63 780.66,-229.7 791.1,-231.54 789.96,-224.63"/>
</g>
<!-- Node20 -->
<g id="node20" class="node">
<title>Node20</title>
<g id="a_node20"><a xlink:href="_midi_event_8cpp.html" target="_top" xlink:title="The MidiEvent implementation defines the services of a single MIDI event.">
<polygon fill="white" stroke="black" points="1261.5,-171.5 1261.5,-191.5 1345.5,-191.5 1345.5,-171.5 1261.5,-171.5"/>
<text text-anchor="middle" x="1303.5" y="-178.7" font-family="Helvetica,sans-Serif" font-size="11.00">MidiEvent.cpp</text>
</a>
</g>
</g>
<!-- Node5&#45;&gt;Node20 -->
<g id="edge22" class="edge">
<title>Node5&#45;&gt;Node20</title>
<path fill="none" stroke="midnightblue" d="M790.81,-228.02C995.29,-197.32 1051.16,-218.5 1252.5,-192 1255.36,-191.62 1258.3,-191.19 1261.25,-190.73"/>
<polygon fill="midnightblue" stroke="midnightblue" points="790,-224.6 780.64,-229.57 791.05,-231.52 790,-224.6"/>
</g>
<!-- Node21 -->
<g id="node21" class="node">
<title>Node21</title>
<g id="a_node21"><a xlink:href="_midi_event_converter_8cpp.html" target="_top" xlink:title="The MidiEventConverter module implements the handling of MIDI events by feeding them to an underlying...">
<polygon fill="white" stroke="black" points="1363.5,-171.5 1363.5,-191.5 1495.5,-191.5 1495.5,-171.5 1363.5,-171.5"/>
<text text-anchor="middle" x="1429.5" y="-178.7" font-family="Helvetica,sans-Serif" font-size="11.00">MidiEventConverter.cpp</text>
</a>
</g>
</g>
<!-- Node5&#45;&gt;Node21 -->
<g id="edge23" class="edge">
<title>Node5&#45;&gt;Node21</title>
<path fill="none" stroke="midnightblue" d="M790.73,-228.06C1040.22,-192.11 1107.31,-215.51 1354.5,-192 1357.37,-191.73 1360.31,-191.43 1363.27,-191.12"/>
<polygon fill="midnightblue" stroke="midnightblue" points="790.02,-224.62 780.63,-229.53 791.03,-231.55 790.02,-224.62"/>
</g>
<!-- Node22 -->
<g id="node22" class="node">
<title>Node22</title>
<g id="a_node22"><a xlink:href="_midi_event_list_8cpp.html" target="_top" xlink:title="The MIDIEventList body implements sequences of integer values with zero&#45;based arbitrary indexed acces...">
<polygon fill="white" stroke="black" points="1514,-171.5 1514,-191.5 1615,-191.5 1615,-171.5 1514,-171.5"/>
<text text-anchor="middle" x="1564.5" y="-178.7" font-family="Helvetica,sans-Serif" font-size="11.00">MidiEventList.cpp</text>
</a>
</g>
</g>
<!-- Node5&#45;&gt;Node22 -->
<g id="edge24" class="edge">
<title>Node5&#45;&gt;Node22</title>
<path fill="none" stroke="midnightblue" d="M790.99,-228.05C1106.43,-184.79 1191.43,-224.57 1504.5,-192 1507.54,-191.68 1510.66,-191.32 1513.81,-190.92"/>
<polygon fill="midnightblue" stroke="midnightblue" points="790.05,-224.65 780.63,-229.49 791.01,-231.58 790.05,-224.65"/>
</g>
<!-- Node23 -->
<g id="node23" class="node">
<title>Node23</title>
<g id="a_node23"><a xlink:href="_midi_file_8cpp.html" target="_top" xlink:title="The MidiFile implementation implements the services of a MIDI file; currently only file reading is su...">
<polygon fill="white" stroke="black" points="1633.5,-171.5 1633.5,-191.5 1707.5,-191.5 1707.5,-171.5 1633.5,-171.5"/>
<text text-anchor="middle" x="1670.5" y="-178.7" font-family="Helvetica,sans-Serif" font-size="11.00">MidiFile.cpp</text>
</a>
</g>
</g>
<!-- Node5&#45;&gt;Node23 -->
<g id="edge25" class="edge">
<title>Node5&#45;&gt;Node23</title>
<path fill="none" stroke="midnightblue" d="M790.77,-228.09C1159.35,-178.94 1259.2,-237.3 1624.5,-192 1627.41,-191.64 1630.42,-191.19 1633.43,-190.69"/>
<polygon fill="midnightblue" stroke="midnightblue" points="790.07,-224.66 780.62,-229.47 791,-231.59 790.07,-224.66"/>
</g>
<!-- Node7 -->
<g id="node7" class="node">
<title>Node7</title>
<g id="a_node7"><a xlink:href="_audio_sample_fifo_queue_8h.html" target="_top" xlink:title="The AudioSampleFifoQueue specification defines a fifo queue for audio samples with popping off access...">
<polygon fill="white" stroke="black" points="1071,-114.5 1071,-134.5 1212,-134.5 1212,-114.5 1071,-114.5"/>
<text text-anchor="middle" x="1141.5" y="-121.7" font-family="Helvetica,sans-Serif" font-size="11.00">AudioSampleFifoQueue.h</text>
</a>
</g>
</g>
<!-- Node6&#45;&gt;Node7 -->
<g id="edge6" class="edge">
<title>Node6&#45;&gt;Node7</title>
<path fill="none" stroke="midnightblue" d="M1715.72,-170.95C1527.48,-154.18 1319.02,-138.46 1212.36,-130.63"/>
<polygon fill="midnightblue" stroke="midnightblue" points="1715.53,-174.44 1725.8,-171.85 1716.15,-167.47 1715.53,-174.44"/>
</g>
<!-- Node8 -->
<g id="node8" class="node">
<title>Node8</title>
<g id="a_node8"><a xlink:href="_audio_sample_fifo_queue_8cpp.html" target="_top" xlink:title="The AudioSampleFifoQueue body implements a fifo queue for audio samples with popping off access to th...">
<polygon fill="white" stroke="black" points="1065,-57.5 1065,-77.5 1218,-77.5 1218,-57.5 1065,-57.5"/>
<text text-anchor="middle" x="1141.5" y="-64.7" font-family="Helvetica,sans-Serif" font-size="11.00">AudioSampleFifoQueue.cpp</text>
</a>
</g>
</g>
<!-- Node7&#45;&gt;Node8 -->
<g id="edge7" class="edge">
<title>Node7&#45;&gt;Node8</title>
<path fill="none" stroke="midnightblue" d="M1141.5,-104.38C1141.5,-95.37 1141.5,-85.04 1141.5,-77.78"/>
<polygon fill="midnightblue" stroke="midnightblue" points="1138,-104.42 1141.5,-114.42 1145,-104.42 1138,-104.42"/>
</g>
<!-- Node9 -->
<g id="node9" class="node">
<title>Node9</title>
<g id="a_node9"><a xlink:href="_audio_sample_fifo_queue_vector_8h.html" target="_top" xlink:title="The AudioSampleFifoQueueVector specification defines a list of fifo queues for audio samples.">
<polygon fill="white" stroke="black" points="216,-57.5 216,-77.5 389,-77.5 389,-57.5 216,-57.5"/>
<text text-anchor="middle" x="302.5" y="-64.7" font-family="Helvetica,sans-Serif" font-size="11.00">AudioSampleFifoQueueVector.h</text>
</a>
</g>
</g>
<!-- Node7&#45;&gt;Node9 -->
<g id="edge8" class="edge">
<title>Node7&#45;&gt;Node9</title>
<path fill="none" stroke="midnightblue" d="M1060.53,-118.19C902.05,-107.8 552.18,-84.87 389.2,-74.18"/>
<polygon fill="midnightblue" stroke="midnightblue" points="1060.48,-121.7 1070.69,-118.86 1060.94,-114.71 1060.48,-121.7"/>
</g>
<!-- Node10 -->
<g id="node10" class="node">
<title>Node10</title>
<g id="a_node10"><a xlink:href="_audio_sample_fifo_queue_vector_8cpp.html" target="_top" xlink:title="The AudioSampleFifoQueueVector body implements a list of fifo queues for audio samples (this is the f...">
<polygon fill="white" stroke="black" points="231,-0.5 231,-20.5 416,-20.5 416,-0.5 231,-0.5"/>
<text text-anchor="middle" x="323.5" y="-7.7" font-family="Helvetica,sans-Serif" font-size="11.00">AudioSampleFifoQueueVector.cpp</text>
</a>
</g>
</g>
<!-- Node9&#45;&gt;Node10 -->
<g id="edge9" class="edge">
<title>Node9&#45;&gt;Node10</title>
<path fill="none" stroke="midnightblue" d="M309.57,-47.98C313.07,-38.83 317.12,-28.2 319.96,-20.78"/>
<polygon fill="midnightblue" stroke="midnightblue" points="306.27,-46.83 305.97,-57.42 312.8,-49.32 306.27,-46.83"/>
</g>
<!-- Node9&#45;&gt;Node11 -->
<g id="edge10" class="edge">
<title>Node9&#45;&gt;Node11</title>
<path fill="none" stroke="midnightblue" d="M260.9,-54.52C225.34,-44.28 174.97,-29.78 142.77,-20.5"/>
<polygon fill="midnightblue" stroke="midnightblue" points="260.38,-58.01 270.96,-57.42 262.32,-51.29 260.38,-58.01"/>
</g>
<!-- Node12&#45;&gt;Node9 -->
<g id="edge12" class="edge">
<title>Node12&#45;&gt;Node9</title>
<path fill="none" stroke="midnightblue" d="M289.24,-104.98C292.56,-95.83 296.43,-85.2 299.13,-77.78"/>
<polygon fill="midnightblue" stroke="midnightblue" points="285.93,-103.82 285.8,-114.42 292.51,-106.22 285.93,-103.82"/>
</g>
</g>
</svg>
        <g id="navigator" transform="translate(0 0)" fill="#404254">
                <rect fill="#f2f5e9" fill-opacity="0.5" stroke="#606060" stroke-width=".5" x="0" y="0" width="60" height="60"/>
                <use id="zoomplus" xlink:href="#zoomPlus" x="17" y="9" onmousedown="handleZoom(evt,'in')"/>
                <use id="zoomminus" xlink:href="#zoomMin" x="42" y="9" onmousedown="handleZoom(evt,'out')"/>
                <use id="reset" xlink:href="#resetDef" x="30" y="36" onmousedown="handleReset()"/>
                <g id="arrowUp" xlink:href="#dirArrow" transform="translate(30 24)" onmousedown="handlePan(0,-1)">
                  <use xlink:href="#rim" fill="#404040">
                        <set attributeName="fill" to="#808080" begin="arrowUp.mouseover" end="arrowUp.mouseout"/>
                  </use>
                  <path fill="none" stroke="white" stroke-width="1.5" d="M0,-3.0v7 M-2.5,-0.5L0,-3.0L2.5,-0.5"/>
                </g>
                <g id="arrowRight" xlink:href="#dirArrow" transform="rotate(90) translate(36 -43)" onmousedown="handlePan(1,0)">
                  <use xlink:href="#rim" fill="#404040">
                        <set attributeName="fill" to="#808080" begin="arrowRight.mouseover" end="arrowRight.mouseout"/>
                  </use>
                  <path fill="none" stroke="white" stroke-width="1.5" d="M0,-3.0v7 M-2.5,-0.5L0,-3.0L2.5,-0.5"/>
                </g>
                <g id="arrowDown" xlink:href="#dirArrow" transform="rotate(180) translate(-30 -48)" onmousedown="handlePan(0,1)">
                  <use xlink:href="#rim" fill="#404040">
                        <set attributeName="fill" to="#808080" begin="arrowDown.mouseover" end="arrowDown.mouseout"/>
                  </use>
                  <path fill="none" stroke="white" stroke-width="1.5" d="M0,-3.0v7 M-2.5,-0.5L0,-3.0L2.5,-0.5"/>
                </g>
                <g id="arrowLeft" xlink:href="#dirArrow" transform="rotate(270) translate(-36 17)" onmousedown="handlePan(-1,0)">
                  <use xlink:href="#rim" fill="#404040">
                        <set attributeName="fill" to="#808080" begin="arrowLeft.mouseover" end="arrowLeft.mouseout"/>
                  </use>
                  <path fill="none" stroke="white" stroke-width="1.5" d="M0,-3.0v7 M-2.5,-0.5L0,-3.0L2.5,-0.5"/>
                </g>
        </g>
        <svg viewBox="0 0 15 15" width="100%" height="30px" preserveAspectRatio="xMaxYMin meet">
         <g id="arrow_out" transform="scale(0.3 0.3)">
          <a xlink:href="_character_8h__dep__incl_org.svg" target="_base">
           <rect id="button" ry="5" rx="5" y="6" x="6" height="38" width="38"
                fill="#f2f5e9" fill-opacity="0.5" stroke="#606060" stroke-width="1.0"/>
           <path id="arrow"
             d="M 11.500037,31.436501 C 11.940474,20.09759 22.043105,11.32322 32.158766,21.979434 L 37.068811,17.246167 C 37.068811,17.246167 37.088388,32 37.088388,32 L 22.160133,31.978069 C 22.160133,31.978069 26.997745,27.140456 26.997745,27.140456 C 18.528582,18.264221 13.291696,25.230495 11.500037,31.436501 z"
             style="fill:#404040;"/>
          </a>
         </g>
        </svg>
</svg>
