<?xml version="1.0" encoding="UTF-8" standalone="no"?>
<!DOCTYPE svg PUBLIC "-//W3C//DTD SVG 1.1//EN"
 "http://www.w3.org/Graphics/SVG/1.1/DTD/svg11.dtd">
<!-- Generated by graphviz version 2.47.1 (20210417.1919)
 -->
<!-- Title: Character.h Pages: 1 -->
<!--zoomable 364 -->
<svg id="main" version="1.1" xmlns="http://www.w3.org/2000/svg" xmlns:xlink="http://www.w3.org/1999/xlink" xml:space="preserve" onload="init(evt)">
<style type="text/css"><![CDATA[
.edge:hover path { stroke: red; }
.edge:hover polygon { stroke: red; fill: red; }
]]></style>
<script type="text/javascript"><![CDATA[
var edges = document.getElementsByTagName('g');
if (edges && edges.length) {
  for (var i=0;i<edges.length;i++) {
    if (edges[i].id.substr(0,4)=='edge') {
      edges[i].setAttribute('class','edge');
    }
  }
}
]]></script>
        <defs>
                <circle id="rim" cx="0" cy="0" r="7"/>
                <circle id="rim2" cx="0" cy="0" r="3.5"/>
                <g id="zoomPlus">
                        <use xlink:href="#rim" fill="#404040">
                                <set attributeName="fill" to="#808080" begin="zoomplus.mouseover" end="zoomplus.mouseout"/>
                        </use>
                        <path d="M-4,0h8M0,-4v8" fill="none" stroke="white" stroke-width="1.5" pointer-events="none"/>
                </g>
                <g id="zoomMin">
                        <use xlink:href="#rim" fill="#404040">
                                <set attributeName="fill" to="#808080" begin="zoomminus.mouseover" end="zoomminus.mouseout"/>
                        </use>
                        <path d="M-4,0h8" fill="none" stroke="white" stroke-width="1.5" pointer-events="none"/>
                </g>
                <g id="dirArrow">
                        <path fill="none" stroke="white" stroke-width="1.5" d="M0,-3.0v7 M-2.5,-0.5L0,-3.0L2.5,-0.5"/>
                </g>
               <g id="resetDef">
                       <use xlink:href="#rim2" fill="#404040">
                               <set attributeName="fill" to="#808080" begin="reset.mouseover" end="reset.mouseout"/>
                       </use>
               </g>
        </defs>

<script type="text/javascript">
var viewWidth = 2357;
var viewHeight = 364;
var sectionId = 'dynsection-1';
</script>
<script xlink:href="svgpan.js"/>
<svg id="graph" class="graph">
<g id="viewport">
<title>Character.h</title>
<polygon fill="white" stroke="transparent" points="-4,4 -4,-360 2352.5,-360 2352.5,4 -4,4"/>
<!-- Node1 -->
<g id="node1" class="node">
<title>Node1</title>
<g id="a_node1"><a xlink:title="The Character specification and body provides a value object type for character values.">
<polygon fill="#bfbfbf" stroke="black" points="616,-336.5 616,-355.5 683,-355.5 683,-336.5 616,-336.5"/>
<text text-anchor="middle" x="649.5" y="-343.5" font-family="Helvetica,sans-Serif" font-size="10.00">Character.h</text>
</a>
</g>
</g>
<!-- Node2 -->
<g id="node2" class="node">
<title>Node2</title>
<g id="a_node2"><a xlink:href="_wave_file_8cpp.html" target="_top" xlink:title="The WaveFile specification defines an object for accessing a RIFF wave file with several channels.">
<polygon fill="white" stroke="black" points="0,-168.5 0,-187.5 75,-187.5 75,-168.5 0,-168.5"/>
<text text-anchor="middle" x="37.5" y="-175.5" font-family="Helvetica,sans-Serif" font-size="10.00">WaveFile.cpp</text>
</a>
</g>
</g>
<!-- Node1&#45;&gt;Node2 -->
<g id="edge1" class="edge">
<title>Node1&#45;&gt;Node2</title>
<path fill="none" stroke="midnightblue" d="M608.04,-333.75C492.88,-302.52 170.94,-215.19 68.93,-187.52"/>
<polygon fill="midnightblue" stroke="midnightblue" points="607.32,-337.18 617.88,-336.42 609.15,-330.43 607.32,-337.18"/>
</g>
<!-- Node3 -->
<g id="node3" class="node">
<title>Node3</title>
<g id="a_node3"><a xlink:href="_string_util_8h.html" target="_top" xlink:title="The StringUtil specification defines several string routines not included in the standard C++ library...">
<polygon fill="white" stroke="black" points="1228,-280.5 1228,-299.5 1293,-299.5 1293,-280.5 1228,-280.5"/>
<text text-anchor="middle" x="1260.5" y="-287.5" font-family="Helvetica,sans-Serif" font-size="10.00">StringUtil.h</text>
</a>
</g>
</g>
<!-- Node1&#45;&gt;Node3 -->
<g id="edge2" class="edge">
<title>Node1&#45;&gt;Node3</title>
<path fill="none" stroke="midnightblue" d="M693.21,-341.14C809.69,-330.84 1125.62,-302.92 1228,-293.87"/>
<polygon fill="midnightblue" stroke="midnightblue" points="692.87,-337.65 683.22,-342.02 693.49,-344.63 692.87,-337.65"/>
</g>
<!-- Node4 -->
<g id="node4" class="node">
<title>Node4</title>
<g id="a_node4"><a xlink:href="_file_8cpp.html" target="_top" xlink:title="The File body implements a class for simple file handling based on C stdio.">
<polygon fill="white" stroke="black" points="1512,-224.5 1512,-243.5 1563,-243.5 1563,-224.5 1512,-224.5"/>
<text text-anchor="middle" x="1537.5" y="-231.5" font-family="Helvetica,sans-Serif" font-size="10.00">File.cpp</text>
</a>
</g>
</g>
<!-- Node3&#45;&gt;Node4 -->
<g id="edge3" class="edge">
<title>Node3&#45;&gt;Node4</title>
<path fill="none" stroke="midnightblue" d="M1303.15,-282.11C1351.83,-274.01 1433.74,-259.67 1503.5,-244 1506.24,-243.38 1509.09,-242.7 1511.93,-241.99"/>
<polygon fill="midnightblue" stroke="midnightblue" points="1302.58,-278.65 1293.28,-283.74 1303.72,-285.56 1302.58,-278.65"/>
</g>
<!-- Node5 -->
<g id="node5" class="node">
<title>Node5</title>
<g id="a_node5"><a xlink:href="_logging_8h.html" target="_top" xlink:title="The Logging specification defines macros for entry&#45;, exit&#45; and intermediate logging of functions into...">
<polygon fill="white" stroke="black" points="1107,-224.5 1107,-243.5 1166,-243.5 1166,-224.5 1107,-224.5"/>
<text text-anchor="middle" x="1136.5" y="-231.5" font-family="Helvetica,sans-Serif" font-size="10.00">Logging.h</text>
</a>
</g>
</g>
<!-- Node3&#45;&gt;Node5 -->
<g id="edge4" class="edge">
<title>Node3&#45;&gt;Node5</title>
<path fill="none" stroke="midnightblue" d="M1231.49,-276.37C1208.27,-266.26 1176.34,-252.35 1156.06,-243.52"/>
<polygon fill="midnightblue" stroke="midnightblue" points="1230.29,-279.66 1240.85,-280.44 1233.08,-273.24 1230.29,-279.66"/>
</g>
<!-- Node27 -->
<g id="node27" class="node">
<title>Node27</title>
<g id="a_node27"><a xlink:href="_midi_preset_identification_8cpp.html" target="_top" xlink:title="The MidiPresetIdentification body implements the identification of a MIDI preset as a tuple of bank a...">
<polygon fill="white" stroke="black" points="2212.5,-168.5 2212.5,-187.5 2348.5,-187.5 2348.5,-168.5 2212.5,-168.5"/>
<text text-anchor="middle" x="2280.5" y="-175.5" font-family="Helvetica,sans-Serif" font-size="10.00">MidiPresetIdentification.cpp</text>
</a>
</g>
</g>
<!-- Node3&#45;&gt;Node27 -->
<g id="edge33" class="edge">
<title>Node3&#45;&gt;Node27</title>
<path fill="none" stroke="midnightblue" d="M1238.34,-274.64C1219.66,-260.84 1198.25,-239.82 1213.5,-224 1251.51,-184.58 2143.89,-191.99 2198.5,-188 2202.93,-187.68 2207.49,-187.3 2212.08,-186.89"/>
<polygon fill="midnightblue" stroke="midnightblue" points="1236.38,-277.54 1246.58,-280.42 1240.4,-271.81 1236.38,-277.54"/>
</g>
<!-- Node28 -->
<g id="node28" class="node">
<title>Node28</title>
<g id="a_node28"><a xlink:href="_string_util_8cpp.html" target="_top" xlink:title="The StringUtil body implements several string routines not included in the standard C++ library (like...">
<polygon fill="white" stroke="black" points="1223,-224.5 1223,-243.5 1298,-243.5 1298,-224.5 1223,-224.5"/>
<text text-anchor="middle" x="1260.5" y="-231.5" font-family="Helvetica,sans-Serif" font-size="10.00">StringUtil.cpp</text>
</a>
</g>
</g>
<!-- Node3&#45;&gt;Node28 -->
<g id="edge30" class="edge">
<title>Node3&#45;&gt;Node28</title>
<path fill="none" stroke="midnightblue" d="M1260.5,-269.8C1260.5,-260.91 1260.5,-250.78 1260.5,-243.75"/>
<polygon fill="midnightblue" stroke="midnightblue" points="1257,-270.08 1260.5,-280.08 1264,-270.08 1257,-270.08"/>
</g>
<!-- Node29 -->
<g id="node29" class="node">
<title>Node29</title>
<g id="a_node29"><a xlink:href="_natural_list_8cpp.html" target="_top" xlink:title="The NaturalList body implements lists of non&#45;negative integer values with zero&#45;based arbitrary indexe...">
<polygon fill="white" stroke="black" points="1316.5,-224.5 1316.5,-243.5 1398.5,-243.5 1398.5,-224.5 1316.5,-224.5"/>
<text text-anchor="middle" x="1357.5" y="-231.5" font-family="Helvetica,sans-Serif" font-size="10.00">NaturalList.cpp</text>
</a>
</g>
</g>
<!-- Node3&#45;&gt;Node29 -->
<g id="edge31" class="edge">
<title>Node3&#45;&gt;Node29</title>
<path fill="none" stroke="midnightblue" d="M1284.84,-275.45C1302.74,-265.48 1326.55,-252.23 1341.95,-243.65"/>
<polygon fill="midnightblue" stroke="midnightblue" points="1283.12,-272.4 1276.08,-280.32 1286.52,-278.52 1283.12,-272.4"/>
</g>
<!-- Node30 -->
<g id="node30" class="node">
<title>Node30</title>
<g id="a_node30"><a xlink:href="_string_list_8cpp.html" target="_top" xlink:title="The StringList body implements lists of string values with zero&#45;based arbitrary indexed access to pos...">
<polygon fill="white" stroke="black" points="1417,-224.5 1417,-243.5 1494,-243.5 1494,-224.5 1417,-224.5"/>
<text text-anchor="middle" x="1455.5" y="-231.5" font-family="Helvetica,sans-Serif" font-size="10.00">StringList.cpp</text>
</a>
</g>
</g>
<!-- Node3&#45;&gt;Node30 -->
<g id="edge32" class="edge">
<title>Node3&#45;&gt;Node30</title>
<path fill="none" stroke="midnightblue" d="M1301.31,-277.7C1338.11,-267.51 1391.43,-252.74 1424.75,-243.52"/>
<polygon fill="midnightblue" stroke="midnightblue" points="1300.1,-274.4 1291.4,-280.44 1301.97,-281.15 1300.1,-274.4"/>
</g>
<!-- Node5&#45;&gt;Node2 -->
<g id="edge13" class="edge">
<title>Node5&#45;&gt;Node2</title>
<path fill="none" stroke="midnightblue" d="M1096.65,-233.13C957.51,-233.18 480.45,-230.06 89.5,-188 84.85,-187.5 80,-186.84 75.19,-186.11"/>
<polygon fill="midnightblue" stroke="midnightblue" points="1096.84,-236.63 1106.83,-233.12 1096.83,-229.63 1096.84,-236.63"/>
</g>
<!-- Node6 -->
<g id="node6" class="node">
<title>Node6</title>
<g id="a_node6"><a xlink:href="_audio_sample_fifo_queue_8cpp-inc.html" target="_top" xlink:title="The AudioSampleFifoQueue body implements a fifo queue for audio samples with popping off access to th...">
<polygon fill="white" stroke="black" points="2003,-168.5 2003,-187.5 2156,-187.5 2156,-168.5 2003,-168.5"/>
<text text-anchor="middle" x="2079.5" y="-175.5" font-family="Helvetica,sans-Serif" font-size="10.00">AudioSampleFifoQueue.cpp&#45;inc</text>
</a>
</g>
</g>
<!-- Node5&#45;&gt;Node6 -->
<g id="edge5" class="edge">
<title>Node5&#45;&gt;Node6</title>
<path fill="none" stroke="midnightblue" d="M1176.09,-224.6C1177.57,-224.38 1179.05,-224.18 1180.5,-224 1539.9,-179.58 1633.38,-215.08 1994.5,-188 1997.16,-187.8 1999.87,-187.58 2002.61,-187.35"/>
<polygon fill="midnightblue" stroke="midnightblue" points="1175.5,-221.15 1166.22,-226.26 1176.66,-228.05 1175.5,-221.15"/>
</g>
<!-- Node11 -->
<g id="node11" class="node">
<title>Node11</title>
<g id="a_node11"><a xlink:href="_fluid_synth_plugin___event_processor_8cpp.html" target="_top" xlink:title="The FluidSynthPlugin_Processor module implements the handling of MIDI events from the DAW via JUCE ha...">
<polygon fill="white" stroke="black" points="2058.5,-0.5 2058.5,-19.5 2240.5,-19.5 2240.5,-0.5 2058.5,-0.5"/>
<text text-anchor="middle" x="2149.5" y="-7.5" font-family="Helvetica,sans-Serif" font-size="10.00">FluidSynthPlugin_EventProcessor.cpp</text>
</a>
</g>
</g>
<!-- Node5&#45;&gt;Node11 -->
<g id="edge24" class="edge">
<title>Node5&#45;&gt;Node11</title>
<path fill="none" stroke="midnightblue" d="M1176.34,-227.09C1185.57,-225.9 1195.36,-224.77 1204.5,-224 1257.74,-219.49 2128.44,-226.48 2165.5,-188 2211.31,-140.44 2169.35,-48.71 2154.35,-19.89"/>
<polygon fill="midnightblue" stroke="midnightblue" points="1175.67,-223.65 1166.22,-228.45 1176.6,-230.58 1175.67,-223.65"/>
</g>
<!-- Node12 -->
<g id="node12" class="node">
<title>Node12</title>
<g id="a_node12"><a xlink:href="_audio_sample_fifo_queue_vector_8cpp-inc.html" target="_top" xlink:title="The AudioSampleFifoQueueVector body implements a list of fifo queues for audio samples (this is the e...">
<polygon fill="white" stroke="black" points="914.5,-112.5 914.5,-131.5 1096.5,-131.5 1096.5,-112.5 914.5,-112.5"/>
<text text-anchor="middle" x="1005.5" y="-119.5" font-family="Helvetica,sans-Serif" font-size="10.00">AudioSampleFifoQueueVector.cpp&#45;inc</text>
</a>
</g>
</g>
<!-- Node5&#45;&gt;Node12 -->
<g id="edge11" class="edge">
<title>Node5&#45;&gt;Node12</title>
<path fill="none" stroke="midnightblue" d="M1096.72,-232.75C913.31,-231.43 156.74,-223.79 122.5,-188 116.36,-181.58 116.38,-174.44 122.5,-168 149.46,-139.63 694.17,-127.9 914.34,-124.3"/>
<polygon fill="midnightblue" stroke="midnightblue" points="1096.72,-236.25 1106.74,-232.82 1096.77,-229.25 1096.72,-236.25"/>
</g>
<!-- Node13 -->
<g id="node13" class="node">
<title>Node13</title>
<g id="a_node13"><a xlink:href="_command_line_arguments_8cpp.html" target="_top" xlink:title="The CommandLineArguments body implements a handler for command&#45;line arguments converting them to a li...">
<polygon fill="white" stroke="black" points="132,-168.5 132,-187.5 277,-187.5 277,-168.5 132,-168.5"/>
<text text-anchor="middle" x="204.5" y="-175.5" font-family="Helvetica,sans-Serif" font-size="10.00">CommandLineArguments.cpp</text>
</a>
</g>
</g>
<!-- Node5&#45;&gt;Node13 -->
<g id="edge14" class="edge">
<title>Node5&#45;&gt;Node13</title>
<path fill="none" stroke="midnightblue" d="M1096.34,-231.7C974.32,-227.58 597.18,-213.53 285.5,-188 282.82,-187.78 280.09,-187.54 277.34,-187.29"/>
<polygon fill="midnightblue" stroke="midnightblue" points="1096.58,-235.21 1106.69,-232.05 1096.81,-228.22 1096.58,-235.21"/>
</g>
<!-- Node14 -->
<g id="node14" class="node">
<title>Node14</title>
<g id="a_node14"><a xlink:href="_environment_8cpp.html" target="_top" xlink:title="The Environment body implements operating system services related to environment variables.">
<polygon fill="white" stroke="black" points="295,-168.5 295,-187.5 384,-187.5 384,-168.5 295,-168.5"/>
<text text-anchor="middle" x="339.5" y="-175.5" font-family="Helvetica,sans-Serif" font-size="10.00">Environment.cpp</text>
</a>
</g>
</g>
<!-- Node5&#45;&gt;Node14 -->
<g id="edge15" class="edge">
<title>Node5&#45;&gt;Node14</title>
<path fill="none" stroke="midnightblue" d="M1096.88,-232.11C985.56,-229.27 660.57,-218.78 392.5,-188 389.81,-187.69 387.05,-187.34 384.27,-186.95"/>
<polygon fill="midnightblue" stroke="midnightblue" points="1096.9,-235.61 1106.98,-232.36 1097.07,-228.61 1096.9,-235.61"/>
</g>
<!-- Node15 -->
<g id="node15" class="node">
<title>Node15</title>
<g id="a_node15"><a xlink:href="_operating_system_8cpp.html" target="_top" xlink:title="The OperatingSystem body implements a class for several operating system related utility functions (l...">
<polygon fill="white" stroke="black" points="402,-168.5 402,-187.5 513,-187.5 513,-168.5 402,-168.5"/>
<text text-anchor="middle" x="457.5" y="-175.5" font-family="Helvetica,sans-Serif" font-size="10.00">OperatingSystem.cpp</text>
</a>
</g>
</g>
<!-- Node5&#45;&gt;Node15 -->
<g id="edge16" class="edge">
<title>Node5&#45;&gt;Node15</title>
<path fill="none" stroke="midnightblue" d="M1096.68,-230.97C998.8,-225.8 738.63,-210.86 522.5,-188 519.44,-187.68 516.3,-187.32 513.14,-186.94"/>
<polygon fill="midnightblue" stroke="midnightblue" points="1096.56,-234.47 1106.73,-231.5 1096.92,-227.48 1096.56,-234.47"/>
</g>
<!-- Node16 -->
<g id="node16" class="node">
<title>Node16</title>
<g id="a_node16"><a xlink:href="_fluid_synth_8cpp.html" target="_top" xlink:title="The FluidSynth class implements the access to the fluidsynth library via a dynamic loading of it.">
<polygon fill="white" stroke="black" points="531.5,-168.5 531.5,-187.5 613.5,-187.5 613.5,-168.5 531.5,-168.5"/>
<text text-anchor="middle" x="572.5" y="-175.5" font-family="Helvetica,sans-Serif" font-size="10.00">FluidSynth.cpp</text>
</a>
</g>
</g>
<!-- Node5&#45;&gt;Node16 -->
<g id="edge17" class="edge">
<title>Node5&#45;&gt;Node16</title>
<path fill="none" stroke="midnightblue" d="M1096.68,-230.75C1010.13,-225.59 798.51,-211.5 622.5,-188 619.61,-187.61 616.64,-187.18 613.65,-186.71"/>
<polygon fill="midnightblue" stroke="midnightblue" points="1096.66,-234.25 1106.84,-231.35 1097.07,-227.27 1096.66,-234.25"/>
</g>
<!-- Node17 -->
<g id="node17" class="node">
<title>Node17</title>
<g id="a_node17"><a xlink:href="_fluid_synth_settings_8cpp.html" target="_top" xlink:title="The FluidSynthSettings class implements an object&#45;oriented wrapper around an underlying fluidsynth se...">
<polygon fill="white" stroke="black" points="631.5,-168.5 631.5,-187.5 749.5,-187.5 749.5,-168.5 631.5,-168.5"/>
<text text-anchor="middle" x="690.5" y="-175.5" font-family="Helvetica,sans-Serif" font-size="10.00">FluidSynthSettings.cpp</text>
</a>
</g>
</g>
<!-- Node5&#45;&gt;Node17 -->
<g id="edge18" class="edge">
<title>Node5&#45;&gt;Node17</title>
<path fill="none" stroke="midnightblue" d="M1096.59,-228.42C1027.63,-220.47 881.68,-203.48 758.5,-188 755.66,-187.64 752.76,-187.27 749.83,-186.9"/>
<polygon fill="midnightblue" stroke="midnightblue" points="1096.26,-231.91 1106.59,-229.57 1097.06,-224.95 1096.26,-231.91"/>
</g>
<!-- Node18 -->
<g id="node18" class="node">
<title>Node18</title>
<g id="a_node18"><a xlink:href="_fluid_synth_sound_font_8cpp.html" target="_top" xlink:title="The FluidSynthSoundFont class implements an object&#45;oriented wrapper around an underlying fluidsynth s...">
<polygon fill="white" stroke="black" points="768,-168.5 768,-187.5 897,-187.5 897,-168.5 768,-168.5"/>
<text text-anchor="middle" x="832.5" y="-175.5" font-family="Helvetica,sans-Serif" font-size="10.00">FluidSynthSoundFont.cpp</text>
</a>
</g>
</g>
<!-- Node5&#45;&gt;Node18 -->
<g id="edge19" class="edge">
<title>Node5&#45;&gt;Node18</title>
<path fill="none" stroke="midnightblue" d="M1096.62,-225.92C1040.96,-216.03 940.12,-198.12 880.44,-187.52"/>
<polygon fill="midnightblue" stroke="midnightblue" points="1096.34,-229.42 1106.8,-227.72 1097.56,-222.53 1096.34,-229.42"/>
</g>
<!-- Node19 -->
<g id="node19" class="node">
<title>Node19</title>
<g id="a_node19"><a xlink:href="_fluid_synth_synthesizer_8cpp.html" target="_top" xlink:title="The FluidSynthSynthesizer class implements an object&#45;oriented wrapper around an underlying fluidsynth...">
<polygon fill="white" stroke="black" points="915.5,-168.5 915.5,-187.5 1049.5,-187.5 1049.5,-168.5 915.5,-168.5"/>
<text text-anchor="middle" x="982.5" y="-175.5" font-family="Helvetica,sans-Serif" font-size="10.00">FluidSynthSynthesizer.cpp</text>
</a>
</g>
</g>
<!-- Node5&#45;&gt;Node19 -->
<g id="edge20" class="edge">
<title>Node5&#45;&gt;Node19</title>
<path fill="none" stroke="midnightblue" d="M1102.39,-221.04C1073.41,-210.88 1032.54,-196.55 1006.79,-187.52"/>
<polygon fill="midnightblue" stroke="midnightblue" points="1101.5,-224.44 1112.1,-224.44 1103.82,-217.83 1101.5,-224.44"/>
</g>
<!-- Node20 -->
<g id="node20" class="node">
<title>Node20</title>
<g id="a_node20"><a xlink:href="_fluid_synth_file_converter_8cpp.html" target="_top" xlink:title="The FluidSynthFileConverter module implements a conversion from a MIDI file into a wave file using th...">
<polygon fill="white" stroke="black" points="1067.5,-168.5 1067.5,-187.5 1205.5,-187.5 1205.5,-168.5 1067.5,-168.5"/>
<text text-anchor="middle" x="1136.5" y="-175.5" font-family="Helvetica,sans-Serif" font-size="10.00">FluidSynthFileConverter.cpp</text>
</a>
</g>
</g>
<!-- Node5&#45;&gt;Node20 -->
<g id="edge21" class="edge">
<title>Node5&#45;&gt;Node20</title>
<path fill="none" stroke="midnightblue" d="M1136.5,-213.8C1136.5,-204.91 1136.5,-194.78 1136.5,-187.75"/>
<polygon fill="midnightblue" stroke="midnightblue" points="1133,-214.08 1136.5,-224.08 1140,-214.08 1133,-214.08"/>
</g>
<!-- Node21 -->
<g id="node21" class="node">
<title>Node21</title>
<g id="a_node21"><a xlink:href="_fluid_synth_plugin___editor_8cpp.html" target="_top" xlink:title="The FluidSynthPlugin_Editor module implements the editor for the processor of MIDI events from the DA...">
<polygon fill="white" stroke="black" points="1223.5,-168.5 1223.5,-187.5 1363.5,-187.5 1363.5,-168.5 1223.5,-168.5"/>
<text text-anchor="middle" x="1293.5" y="-175.5" font-family="Helvetica,sans-Serif" font-size="10.00">FluidSynthPlugin_Editor.cpp</text>
</a>
</g>
</g>
<!-- Node5&#45;&gt;Node21 -->
<g id="edge22" class="edge">
<title>Node5&#45;&gt;Node21</title>
<path fill="none" stroke="midnightblue" d="M1170.89,-221.17C1200.45,-211 1242.37,-196.59 1268.74,-187.52"/>
<polygon fill="midnightblue" stroke="midnightblue" points="1169.7,-217.88 1161.38,-224.44 1171.97,-224.5 1169.7,-217.88"/>
</g>
<!-- Node22 -->
<g id="node22" class="node">
<title>Node22</title>
<g id="a_node22"><a xlink:href="_fluid_synth_plugin___editor_support_8cpp.html" target="_top" xlink:title="The FluidSynthPlugin_EditorSupport module implements support services for the editor of the FluidSynt...">
<polygon fill="white" stroke="black" points="1382,-168.5 1382,-187.5 1555,-187.5 1555,-168.5 1382,-168.5"/>
<text text-anchor="middle" x="1468.5" y="-175.5" font-family="Helvetica,sans-Serif" font-size="10.00">FluidSynthPlugin_EditorSupport.cpp</text>
</a>
</g>
</g>
<!-- Node5&#45;&gt;Node22 -->
<g id="edge23" class="edge">
<title>Node5&#45;&gt;Node22</title>
<path fill="none" stroke="midnightblue" d="M1176.12,-224.81C1177.6,-224.53 1179.06,-224.26 1180.5,-224 1259.07,-209.83 1350.16,-196.04 1408.52,-187.54"/>
<polygon fill="midnightblue" stroke="midnightblue" points="1175.44,-221.37 1166.29,-226.71 1176.77,-228.25 1175.44,-221.37"/>
</g>
<!-- Node23 -->
<g id="node23" class="node">
<title>Node23</title>
<g id="a_node23"><a xlink:href="_midi_event_8cpp.html" target="_top" xlink:title="The MidiEvent implementation defines the services of a single MIDI event.">
<polygon fill="white" stroke="black" points="1573,-168.5 1573,-187.5 1650,-187.5 1650,-168.5 1573,-168.5"/>
<text text-anchor="middle" x="1611.5" y="-175.5" font-family="Helvetica,sans-Serif" font-size="10.00">MidiEvent.cpp</text>
</a>
</g>
</g>
<!-- Node5&#45;&gt;Node23 -->
<g id="edge25" class="edge">
<title>Node5&#45;&gt;Node23</title>
<path fill="none" stroke="midnightblue" d="M1176.1,-224.69C1177.58,-224.45 1179.05,-224.22 1180.5,-224 1350.05,-198.79 1394.79,-212.15 1564.5,-188 1567.21,-187.61 1570.01,-187.18 1572.82,-186.71"/>
<polygon fill="midnightblue" stroke="midnightblue" points="1175.47,-221.25 1166.24,-226.46 1176.71,-228.14 1175.47,-221.25"/>
</g>
<!-- Node24 -->
<g id="node24" class="node">
<title>Node24</title>
<g id="a_node24"><a xlink:href="_midi_event_converter_8cpp.html" target="_top" xlink:title="The MidiEventConverter module implements the handling of MIDI events by feeding them to an underlying...">
<polygon fill="white" stroke="black" points="1668.5,-168.5 1668.5,-187.5 1786.5,-187.5 1786.5,-168.5 1668.5,-168.5"/>
<text text-anchor="middle" x="1727.5" y="-175.5" font-family="Helvetica,sans-Serif" font-size="10.00">MidiEventConverter.cpp</text>
</a>
</g>
</g>
<!-- Node5&#45;&gt;Node24 -->
<g id="edge26" class="edge">
<title>Node5&#45;&gt;Node24</title>
<path fill="none" stroke="midnightblue" d="M1176.1,-224.66C1177.58,-224.42 1179.05,-224.2 1180.5,-224 1391.95,-194.55 1447.15,-210.01 1659.5,-188 1662.34,-187.71 1665.25,-187.39 1668.19,-187.05"/>
<polygon fill="midnightblue" stroke="midnightblue" points="1175.48,-221.21 1166.23,-226.39 1176.69,-228.11 1175.48,-221.21"/>
</g>
<!-- Node25 -->
<g id="node25" class="node">
<title>Node25</title>
<g id="a_node25"><a xlink:href="_midi_event_list_8cpp.html" target="_top" xlink:title="The MIDIEventList body implements sequences of integer values with zero&#45;based arbitrary indexed acces...">
<polygon fill="white" stroke="black" points="1805,-168.5 1805,-187.5 1898,-187.5 1898,-168.5 1805,-168.5"/>
<text text-anchor="middle" x="1851.5" y="-175.5" font-family="Helvetica,sans-Serif" font-size="10.00">MidiEventList.cpp</text>
</a>
</g>
</g>
<!-- Node5&#45;&gt;Node25 -->
<g id="edge27" class="edge">
<title>Node5&#45;&gt;Node25</title>
<path fill="none" stroke="midnightblue" d="M1176.09,-224.63C1177.58,-224.4 1179.05,-224.19 1180.5,-224 1451.99,-188.47 1523.32,-217.76 1795.5,-188 1798.53,-187.67 1801.66,-187.28 1804.8,-186.87"/>
<polygon fill="midnightblue" stroke="midnightblue" points="1175.49,-221.18 1166.22,-226.32 1176.67,-228.08 1175.49,-221.18"/>
</g>
<!-- Node26 -->
<g id="node26" class="node">
<title>Node26</title>
<g id="a_node26"><a xlink:href="_midi_file_8cpp.html" target="_top" xlink:title="The MidiFile implementation implements the services of a MIDI file; currently only file reading is su...">
<polygon fill="white" stroke="black" points="1916,-168.5 1916,-187.5 1985,-187.5 1985,-168.5 1916,-168.5"/>
<text text-anchor="middle" x="1950.5" y="-175.5" font-family="Helvetica,sans-Serif" font-size="10.00">MidiFile.cpp</text>
</a>
</g>
</g>
<!-- Node5&#45;&gt;Node26 -->
<g id="edge28" class="edge">
<title>Node5&#45;&gt;Node26</title>
<path fill="none" stroke="midnightblue" d="M1176.09,-224.61C1177.58,-224.39 1179.05,-224.18 1180.5,-224 1501.46,-183.47 1586.64,-229.26 1907.5,-188 1910.22,-187.65 1913.03,-187.22 1915.85,-186.74"/>
<polygon fill="midnightblue" stroke="midnightblue" points="1175.49,-221.16 1166.22,-226.28 1176.66,-228.06 1175.49,-221.16"/>
</g>
<!-- Node5&#45;&gt;Node27 -->
<g id="edge29" class="edge">
<title>Node5&#45;&gt;Node27</title>
<path fill="none" stroke="midnightblue" d="M1176.09,-224.58C1177.57,-224.37 1179.05,-224.17 1180.5,-224 1630.05,-170.45 1746.96,-220.72 2198.5,-188 2202.93,-187.68 2207.49,-187.3 2212.08,-186.89"/>
<polygon fill="midnightblue" stroke="midnightblue" points="1175.5,-221.13 1166.21,-226.22 1176.65,-228.04 1175.5,-221.13"/>
</g>
<!-- Node7 -->
<g id="node7" class="node">
<title>Node7</title>
<g id="a_node7"><a xlink:href="_audio_sample_fifo_queue_8h.html" target="_top" xlink:title="The AudioSampleFifoQueue specification defines a fifo queue for audio samples with popping off access...">
<polygon fill="white" stroke="black" points="2016,-112.5 2016,-131.5 2143,-131.5 2143,-112.5 2016,-112.5"/>
<text text-anchor="middle" x="2079.5" y="-119.5" font-family="Helvetica,sans-Serif" font-size="10.00">AudioSampleFifoQueue.h</text>
</a>
</g>
</g>
<!-- Node6&#45;&gt;Node7 -->
<g id="edge6" class="edge">
<title>Node6&#45;&gt;Node7</title>
<path fill="none" stroke="midnightblue" d="M2079.5,-157.8C2079.5,-148.91 2079.5,-138.78 2079.5,-131.75"/>
<polygon fill="midnightblue" stroke="midnightblue" points="2076,-158.08 2079.5,-168.08 2083,-158.08 2076,-158.08"/>
</g>
<!-- Node8 -->
<g id="node8" class="node">
<title>Node8</title>
<g id="a_node8"><a xlink:href="_audio_sample_fifo_queue_8cpp.html" target="_top" xlink:title="The AudioSampleFifoQueue body implements a fifo queue for audio samples with popping off access to th...">
<polygon fill="white" stroke="black" points="2015,-56.5 2015,-75.5 2152,-75.5 2152,-56.5 2015,-56.5"/>
<text text-anchor="middle" x="2083.5" y="-63.5" font-family="Helvetica,sans-Serif" font-size="10.00">AudioSampleFifoQueue.cpp</text>
</a>
</g>
</g>
<!-- Node7&#45;&gt;Node8 -->
<g id="edge7" class="edge">
<title>Node7&#45;&gt;Node8</title>
<path fill="none" stroke="midnightblue" d="M2080.9,-102.1C2081.56,-93.14 2082.33,-82.86 2082.85,-75.75"/>
<polygon fill="midnightblue" stroke="midnightblue" points="2077.41,-101.85 2080.16,-112.08 2084.39,-102.37 2077.41,-101.85"/>
</g>
<!-- Node9 -->
<g id="node9" class="node">
<title>Node9</title>
<g id="a_node9"><a xlink:href="_audio_sample_fifo_queue_vector_8h.html" target="_top" xlink:title="The AudioSampleFifoQueueVector specification defines a list of fifo queues for audio samples.">
<polygon fill="white" stroke="black" points="1842,-56.5 1842,-75.5 1997,-75.5 1997,-56.5 1842,-56.5"/>
<text text-anchor="middle" x="1919.5" y="-63.5" font-family="Helvetica,sans-Serif" font-size="10.00">AudioSampleFifoQueueVector.h</text>
</a>
</g>
</g>
<!-- Node7&#45;&gt;Node9 -->
<g id="edge8" class="edge">
<title>Node7&#45;&gt;Node9</title>
<path fill="none" stroke="midnightblue" d="M2044.45,-109.17C2014.33,-99 1971.6,-84.59 1944.73,-75.52"/>
<polygon fill="midnightblue" stroke="midnightblue" points="2043.55,-112.56 2054.15,-112.44 2045.79,-105.93 2043.55,-112.56"/>
</g>
<!-- Node10 -->
<g id="node10" class="node">
<title>Node10</title>
<g id="a_node10"><a xlink:href="_audio_sample_fifo_queue_vector_8cpp.html" target="_top" xlink:title="The AudioSampleFifoQueueVector body implements a list of fifo queues for audio samples (this is the f...">
<polygon fill="white" stroke="black" points="1836.5,-0.5 1836.5,-19.5 2002.5,-19.5 2002.5,-0.5 1836.5,-0.5"/>
<text text-anchor="middle" x="1919.5" y="-7.5" font-family="Helvetica,sans-Serif" font-size="10.00">AudioSampleFifoQueueVector.cpp</text>
</a>
</g>
</g>
<!-- Node9&#45;&gt;Node10 -->
<g id="edge9" class="edge">
<title>Node9&#45;&gt;Node10</title>
<path fill="none" stroke="midnightblue" d="M1919.5,-45.8C1919.5,-36.91 1919.5,-26.78 1919.5,-19.75"/>
<polygon fill="midnightblue" stroke="midnightblue" points="1916,-46.08 1919.5,-56.08 1923,-46.08 1916,-46.08"/>
</g>
<!-- Node9&#45;&gt;Node11 -->
<g id="edge10" class="edge">
<title>Node9&#45;&gt;Node11</title>
<path fill="none" stroke="midnightblue" d="M1965.7,-54.15C2009.16,-43.95 2073.34,-28.88 2113.23,-19.52"/>
<polygon fill="midnightblue" stroke="midnightblue" points="1964.88,-50.75 1955.94,-56.44 1966.48,-57.57 1964.88,-50.75"/>
</g>
<!-- Node12&#45;&gt;Node9 -->
<g id="edge12" class="edge">
<title>Node12&#45;&gt;Node9</title>
<path fill="none" stroke="midnightblue" d="M1107.13,-115C1291.38,-104.11 1676.72,-81.34 1841.76,-71.59"/>
<polygon fill="midnightblue" stroke="midnightblue" points="1106.68,-111.52 1096.9,-115.6 1107.09,-118.5 1106.68,-111.52"/>
</g>
</g>
</svg>
        <g id="navigator" transform="translate(0 0)" fill="#404254">
                <rect fill="#f2f5e9" fill-opacity="0.5" stroke="#606060" stroke-width=".5" x="0" y="0" width="60" height="60"/>
                <use id="zoomplus" xlink:href="#zoomPlus" x="17" y="9" onmousedown="handleZoom(evt,'in')"/>
                <use id="zoomminus" xlink:href="#zoomMin" x="42" y="9" onmousedown="handleZoom(evt,'out')"/>
                <use id="reset" xlink:href="#resetDef" x="30" y="36" onmousedown="handleReset()"/>
                <g id="arrowUp" xlink:href="#dirArrow" transform="translate(30 24)" onmousedown="handlePan(0,-1)">
                  <use xlink:href="#rim" fill="#404040">
                        <set attributeName="fill" to="#808080" begin="arrowUp.mouseover" end="arrowUp.mouseout"/>
                  </use>
                  <path fill="none" stroke="white" stroke-width="1.5" d="M0,-3.0v7 M-2.5,-0.5L0,-3.0L2.5,-0.5"/>
                </g>
                <g id="arrowRight" xlink:href="#dirArrow" transform="rotate(90) translate(36 -43)" onmousedown="handlePan(1,0)">
                  <use xlink:href="#rim" fill="#404040">
                        <set attributeName="fill" to="#808080" begin="arrowRight.mouseover" end="arrowRight.mouseout"/>
                  </use>
                  <path fill="none" stroke="white" stroke-width="1.5" d="M0,-3.0v7 M-2.5,-0.5L0,-3.0L2.5,-0.5"/>
                </g>
                <g id="arrowDown" xlink:href="#dirArrow" transform="rotate(180) translate(-30 -48)" onmousedown="handlePan(0,1)">
                  <use xlink:href="#rim" fill="#404040">
                        <set attributeName="fill" to="#808080" begin="arrowDown.mouseover" end="arrowDown.mouseout"/>
                  </use>
                  <path fill="none" stroke="white" stroke-width="1.5" d="M0,-3.0v7 M-2.5,-0.5L0,-3.0L2.5,-0.5"/>
                </g>
                <g id="arrowLeft" xlink:href="#dirArrow" transform="rotate(270) translate(-36 17)" onmousedown="handlePan(-1,0)">
                  <use xlink:href="#rim" fill="#404040">
                        <set attributeName="fill" to="#808080" begin="arrowLeft.mouseover" end="arrowLeft.mouseout"/>
                  </use>
                  <path fill="none" stroke="white" stroke-width="1.5" d="M0,-3.0v7 M-2.5,-0.5L0,-3.0L2.5,-0.5"/>
                </g>
        </g>
        <svg viewBox="0 0 15 15" width="100%" height="30px" preserveAspectRatio="xMaxYMin meet">
         <g id="arrow_out" transform="scale(0.3 0.3)">
          <a xlink:href="_character_8h__dep__incl_org.svg" target="_base">
           <rect id="button" ry="5" rx="5" y="6" x="6" height="38" width="38"
                fill="#f2f5e9" fill-opacity="0.5" stroke="#606060" stroke-width="1.0"/>
           <path id="arrow"
             d="M 11.500037,31.436501 C 11.940474,20.09759 22.043105,11.32322 32.158766,21.979434 L 37.068811,17.246167 C 37.068811,17.246167 37.088388,32 37.088388,32 L 22.160133,31.978069 C 22.160133,31.978069 26.997745,27.140456 26.997745,27.140456 C 18.528582,18.264221 13.291696,25.230495 11.500037,31.436501 z"
             style="fill:#404040;"/>
          </a>
         </g>
        </svg>
</svg>
