<?xml version="1.0" encoding="UTF-8" standalone="no"?>
<!DOCTYPE svg PUBLIC "-//W3C//DTD SVG 1.1//EN"
 "http://www.w3.org/Graphics/SVG/1.1/DTD/svg11.dtd">
<!-- Generated by graphviz version 2.47.1 (20210417.1919)
 -->
<!-- Title: Character.h Pages: 1 -->
<svg width="344pt" height="247pt"
 viewBox="0.00 0.00 344.00 247.00" xmlns="http://www.w3.org/2000/svg" xmlns:xlink="http://www.w3.org/1999/xlink">

<svg id="main" version="1.1" xmlns="http://www.w3.org/2000/svg" xmlns:xlink="http://www.w3.org/1999/xlink" xml:space="preserve">

<style type="text/css"><![CDATA[
.node, .edge {opacity: 0.7;}
.node.selected, .edge.selected {opacity: 1;}
.edge:hover path { stroke: red; }
.edge:hover polygon { stroke: red; fill: red; }
]]></style>
<script type="application/ecmascript" xlink:href="svg.min.js"/>
<svg id="graph" class="graph">
<g id="graph0" class="graph" transform="scale(1 1) rotate(0) translate(4 243)">
<title>Character.h</title>
<!-- Node1 -->
<g id="Node000001" class="node">
<title>Node1</title>
<g id="a_Node000001"><a xlink:title="The Character specification and body provides a value object type for character values.">
<polygon fill="#999999" stroke="#666666" points="67,-239 0,-239 0,-220 67,-220 67,-239"/>
<text text-anchor="middle" x="33.5" y="-227" font-family="Helvetica,sans-Serif" font-size="10.00">Character.h</text>
</a>
</g>
</g>
<!-- Node2 -->
<g id="Node000002" class="node">
<title>Node2</title>
<g id="a_Node000002"><a xlink:title=" ">
<polygon fill="#e0e0e0" stroke="#999999" points="49.5,-74 5.5,-74 5.5,-55 49.5,-55 49.5,-74"/>
<text text-anchor="middle" x="27.5" y="-62" font-family="Helvetica,sans-Serif" font-size="10.00">cmath</text>
</a>
</g>
</g>
<!-- Node1&#45;&gt;Node2 -->
<g id="edge1_Node000001_Node000002" class="edge">
<title>Node1&#45;&gt;Node2</title>
<g id="a_edge1_Node000001_Node000002"><a xlink:title=" ">
<path fill="none" stroke="#63b8ff" d="M33.18,-219.74C32.24,-194.31 29.51,-120.08 28.21,-84.69"/>
<polygon fill="#63b8ff" stroke="#63b8ff" points="31.69,-84.17 27.82,-74.31 24.69,-84.43 31.69,-84.17"/>
</a>
</g>
</g>
<!-- Node3 -->
<g id="Node000003" class="node">
<title>Node3</title>
<g id="a_Node000003"><a xlink:href="_byte_8h.html" target="_top" xlink:title="The Byte specification and body provides a value object type for byte values.">
<polygon fill="white" stroke="#666666" points="101,-184 56,-184 56,-165 101,-165 101,-184"/>
<text text-anchor="middle" x="78.5" y="-172" font-family="Helvetica,sans-Serif" font-size="10.00">Byte.h</text>
</a>
</g>
</g>
<!-- Node1&#45;&gt;Node3 -->
<g id="edge2_Node000001_Node000003" class="edge">
<title>Node1&#45;&gt;Node3</title>
<g id="a_edge2_Node000001_Node000003"><a xlink:title=" ">
<path fill="none" stroke="#63b8ff" d="M40.93,-219.75C47.35,-212.18 56.81,-201.05 64.62,-191.84"/>
<polygon fill="#63b8ff" stroke="#63b8ff" points="67.4,-193.98 71.21,-184.09 62.07,-189.45 67.4,-193.98"/>
</a>
</g>
</g>
<!-- Node3&#45;&gt;Node2 -->
<g id="edge3_Node000003_Node000002" class="edge">
<title>Node3&#45;&gt;Node2</title>
<g id="a_edge3_Node000003_Node000002"><a xlink:title=" ">
<path fill="none" stroke="#63b8ff" d="M74.33,-164.66C65.95,-146.93 46.97,-106.73 35.91,-83.32"/>
<polygon fill="#63b8ff" stroke="#63b8ff" points="39.02,-81.71 31.59,-74.16 32.69,-84.7 39.02,-81.71"/>
</a>
</g>
</g>
<!-- Node4 -->
<g id="Node000004" class="node">
<title>Node4</title>
<g id="a_Node000004"><a xlink:title=" ">
<polygon fill="#e0e0e0" stroke="#999999" points="120.5,-129 74.5,-129 74.5,-110 120.5,-110 120.5,-129"/>
<text text-anchor="middle" x="97.5" y="-117" font-family="Helvetica,sans-Serif" font-size="10.00">cstdint</text>
</a>
</g>
</g>
<!-- Node3&#45;&gt;Node4 -->
<g id="edge4_Node000003_Node000004" class="edge">
<title>Node3&#45;&gt;Node4</title>
<g id="a_edge4_Node000003_Node000004"><a xlink:title=" ">
<path fill="none" stroke="#63b8ff" d="M81.64,-164.75C84.18,-157.65 87.86,-147.4 91.03,-138.56"/>
<polygon fill="#63b8ff" stroke="#63b8ff" points="94.34,-139.68 94.42,-129.09 87.75,-137.32 94.34,-139.68"/>
</a>
</g>
</g>
<!-- Node5 -->
<g id="Node000005" class="node">
<title>Node5</title>
<g id="a_Node000005"><a xlink:href="_natural_8h.html" target="_top" xlink:title="The Natural specification and body provides a value object type for naturals (positive integers with ...">
<polygon fill="white" stroke="#666666" points="194.5,-129 138.5,-129 138.5,-110 194.5,-110 194.5,-129"/>
<text text-anchor="middle" x="166.5" y="-117" font-family="Helvetica,sans-Serif" font-size="10.00">Natural.h</text>
</a>
</g>
</g>
<!-- Node3&#45;&gt;Node5 -->
<g id="edge5_Node000003_Node000005" class="edge">
<title>Node3&#45;&gt;Node5</title>
<g id="a_edge5_Node000003_Node000005"><a xlink:title=" ">
<path fill="none" stroke="#63b8ff" d="M92.64,-164.98C106.29,-156.77 127.19,-144.18 143.28,-134.49"/>
<polygon fill="#63b8ff" stroke="#63b8ff" points="145.34,-137.33 152.1,-129.17 141.73,-131.33 145.34,-137.33"/>
</a>
</g>
</g>
<!-- Node5&#45;&gt;Node2 -->
<g id="edge6_Node000005_Node000002" class="edge">
<title>Node5&#45;&gt;Node2</title>
<g id="a_edge6_Node000005_Node000002"><a xlink:title=" ">
<path fill="none" stroke="#63b8ff" d="M144.17,-109.98C121.17,-101.21 85.12,-87.47 59.18,-77.58"/>
<polygon fill="#63b8ff" stroke="#63b8ff" points="60.37,-74.29 49.78,-73.99 57.87,-80.83 60.37,-74.29"/>
</a>
</g>
</g>
<!-- Node6 -->
<g id="Node000006" class="node">
<title>Node6</title>
<g id="a_Node000006"><a xlink:href="_assertion_8h.html" target="_top" xlink:title="The Assertion specification defines macros for pre&#45; and postconditions in functions or methods.">
<polygon fill="white" stroke="#666666" points="133.5,-74 67.5,-74 67.5,-55 133.5,-55 133.5,-74"/>
<text text-anchor="middle" x="100.5" y="-62" font-family="Helvetica,sans-Serif" font-size="10.00">Assertion.h</text>
</a>
</g>
</g>
<!-- Node5&#45;&gt;Node6 -->
<g id="edge7_Node000005_Node000006" class="edge">
<title>Node5&#45;&gt;Node6</title>
<g id="a_edge7_Node000005_Node000006"><a xlink:title=" ">
<path fill="none" stroke="#63b8ff" d="M155.9,-109.98C146.04,-102.07 131.15,-90.11 119.28,-80.58"/>
<polygon fill="#63b8ff" stroke="#63b8ff" points="121.29,-77.7 111.3,-74.17 116.9,-83.16 121.29,-77.7"/>
</a>
</g>
</g>
<!-- Node9 -->
<g id="Node000009" class="node">
<title>Node9</title>
<g id="a_Node000009"><a xlink:title=" ">
<polygon fill="#e0e0e0" stroke="#999999" points="243.5,-74 151.5,-74 151.5,-55 243.5,-55 243.5,-74"/>
<text text-anchor="middle" x="197.5" y="-62" font-family="Helvetica,sans-Serif" font-size="10.00">GenericNumber.h</text>
</a>
</g>
</g>
<!-- Node5&#45;&gt;Node9 -->
<g id="edge10_Node000005_Node000009" class="edge">
<title>Node5&#45;&gt;Node9</title>
<g id="a_edge10_Node000005_Node000009"><a xlink:title=" ">
<path fill="none" stroke="#63b8ff" d="M171.62,-109.75C175.86,-102.49 182.03,-91.95 187.28,-82.98"/>
<polygon fill="#63b8ff" stroke="#63b8ff" points="190.45,-84.49 192.48,-74.09 184.41,-80.95 190.45,-84.49"/>
</a>
</g>
</g>
<!-- Node10 -->
<g id="Node000010" class="node">
<title>Node10</title>
<g id="a_Node000010"><a xlink:href="_my_string_8h.html" target="_top" xlink:title="The String specification defines a standard string type.">
<polygon fill="white" stroke="#666666" points="325.5,-74 261.5,-74 261.5,-55 325.5,-55 325.5,-74"/>
<text text-anchor="middle" x="293.5" y="-62" font-family="Helvetica,sans-Serif" font-size="10.00">MyString.h</text>
</a>
</g>
</g>
<!-- Node5&#45;&gt;Node10 -->
<g id="edge11_Node000005_Node000010" class="edge">
<title>Node5&#45;&gt;Node10</title>
<g id="a_edge11_Node000005_Node000010"><a xlink:title=" ">
<path fill="none" stroke="#63b8ff" d="M186.9,-109.98C207.52,-101.38 239.61,-87.99 263.19,-78.15"/>
<polygon fill="#63b8ff" stroke="#63b8ff" points="264.84,-81.25 272.72,-74.17 262.15,-74.79 264.84,-81.25"/>
</a>
</g>
</g>
<!-- Node7 -->
<g id="Node000007" class="node">
<title>Node7</title>
<g id="a_Node000007"><a xlink:title=" ">
<polygon fill="#e0e0e0" stroke="#999999" points="130,-19 71,-19 71,0 130,0 130,-19"/>
<text text-anchor="middle" x="100.5" y="-7" font-family="Helvetica,sans-Serif" font-size="10.00">stdexcept</text>
</a>
</g>
</g>
<!-- Node6&#45;&gt;Node7 -->
<g id="edge8_Node000006_Node000007" class="edge">
<title>Node6&#45;&gt;Node7</title>
<g id="a_edge8_Node000006_Node000007"><a xlink:title=" ">
<path fill="none" stroke="#63b8ff" d="M100.5,-54.75C100.5,-47.8 100.5,-37.85 100.5,-29.13"/>
<polygon fill="#63b8ff" stroke="#63b8ff" points="104,-29.09 100.5,-19.09 97,-29.09 104,-29.09"/>
</a>
</g>
</g>
<!-- Node8 -->
<g id="Node000008" class="node">
<title>Node8</title>
<g id="a_Node000008"><a xlink:title=" ">
<polygon fill="#e0e0e0" stroke="#999999" points="211,-19 170,-19 170,0 211,0 211,-19"/>
<text text-anchor="middle" x="190.5" y="-7" font-family="Helvetica,sans-Serif" font-size="10.00">string</text>
</a>
</g>
</g>
<!-- Node6&#45;&gt;Node8 -->
<g id="edge9_Node000006_Node000008" class="edge">
<title>Node6&#45;&gt;Node8</title>
<g id="a_edge9_Node000006_Node000008"><a xlink:title=" ">
<path fill="none" stroke="#63b8ff" d="M114.96,-54.98C128.92,-46.77 150.29,-34.18 166.75,-24.49"/>
<polygon fill="#63b8ff" stroke="#63b8ff" points="168.94,-27.26 175.78,-19.17 165.38,-21.23 168.94,-27.26"/>
</a>
</g>
</g>
<!-- Node10&#45;&gt;Node8 -->
<g id="edge12_Node000010_Node000008" class="edge">
<title>Node10&#45;&gt;Node8</title>
<g id="a_edge12_Node000010_Node000008"><a xlink:title=" ">
<path fill="none" stroke="#63b8ff" d="M276.95,-54.98C260.61,-46.57 235.37,-33.59 216.37,-23.81"/>
<polygon fill="#63b8ff" stroke="#63b8ff" points="217.84,-20.63 207.35,-19.17 214.64,-26.86 217.84,-20.63"/>
</a>
</g>
</g>
<!-- Node11 -->
<g id="Node000011" class="node">
<title>Node11</title>
<g id="a_Node000011"><a xlink:href="_global_macros_8h.html" target="_top" xlink:title="The GlobalMacros specification defines simple macros (e.g. for parameter modes).">
<polygon fill="white" stroke="#666666" points="336,-19 251,-19 251,0 336,0 336,-19"/>
<text text-anchor="middle" x="293.5" y="-7" font-family="Helvetica,sans-Serif" font-size="10.00">GlobalMacros.h</text>
</a>
</g>
</g>
<!-- Node10&#45;&gt;Node11 -->
<g id="edge13_Node000010_Node000011" class="edge">
<title>Node10&#45;&gt;Node11</title>
<g id="a_edge13_Node000010_Node000011"><a xlink:title=" ">
<path fill="none" stroke="#63b8ff" d="M293.5,-54.75C293.5,-47.8 293.5,-37.85 293.5,-29.13"/>
<polygon fill="#63b8ff" stroke="#63b8ff" points="297,-29.09 293.5,-19.09 290,-29.09 297,-29.09"/>
</a>
</g>
</g>
</g>
</svg>
</svg>

<style type='text/css'>
<![CDATA[
[data-mouse-over-selected='false'] { opacity: 0.7; }
[data-mouse-over-selected='true']  { opacity: 1.0; }
]]>
</style>
<script type="application/ecmascript"><![CDATA[
document.addEventListener('DOMContentLoaded', (event) => {
  highlightEdges();
  highlightAdjacentNodes();
});
]]></script>
</svg>
