<?xml version="1.0" encoding="UTF-8" standalone="no"?>
<!DOCTYPE svg PUBLIC "-//W3C//DTD SVG 1.1//EN"
 "http://www.w3.org/Graphics/SVG/1.1/DTD/svg11.dtd">
<!-- Generated by graphviz version 2.47.1 (20210417.1919)
 -->
<!-- Title: CommandLineArguments.cpp Pages: 1 -->
<!--zoomable 485 -->
<svg id="main" version="1.1" xmlns="http://www.w3.org/2000/svg" xmlns:xlink="http://www.w3.org/1999/xlink" xml:space="preserve" onload="init(evt)">
<style type="text/css"><![CDATA[
.edge:hover path { stroke: red; }
.edge:hover polygon { stroke: red; fill: red; }
]]></style>
<script type="text/javascript"><![CDATA[
var edges = document.getElementsByTagName('g');
if (edges && edges.length) {
  for (var i=0;i<edges.length;i++) {
    if (edges[i].id.substr(0,4)=='edge') {
      edges[i].setAttribute('class','edge');
    }
  }
}
]]></script>
        <defs>
                <circle id="rim" cx="0" cy="0" r="7"/>
                <circle id="rim2" cx="0" cy="0" r="3.5"/>
                <g id="zoomPlus">
                        <use xlink:href="#rim" fill="#404040">
                                <set attributeName="fill" to="#808080" begin="zoomplus.mouseover" end="zoomplus.mouseout"/>
                        </use>
                        <path d="M-4,0h8M0,-4v8" fill="none" stroke="white" stroke-width="1.5" pointer-events="none"/>
                </g>
                <g id="zoomMin">
                        <use xlink:href="#rim" fill="#404040">
                                <set attributeName="fill" to="#808080" begin="zoomminus.mouseover" end="zoomminus.mouseout"/>
                        </use>
                        <path d="M-4,0h8" fill="none" stroke="white" stroke-width="1.5" pointer-events="none"/>
                </g>
                <g id="dirArrow">
                        <path fill="none" stroke="white" stroke-width="1.5" d="M0,-3.0v7 M-2.5,-0.5L0,-3.0L2.5,-0.5"/>
                </g>
               <g id="resetDef">
                       <use xlink:href="#rim2" fill="#404040">
                               <set attributeName="fill" to="#808080" begin="reset.mouseover" end="reset.mouseout"/>
                       </use>
               </g>
        </defs>

<script type="text/javascript">
var viewWidth = 607;
var viewHeight = 485;
var sectionId = 'dynsection-0';
</script>
<script xlink:href="svgpan.js"/>
<svg id="graph" class="graph">
<g id="viewport">
<title>CommandLineArguments.cpp</title>
<polygon fill="white" stroke="transparent" points="-4,4 -4,-481 602.5,-481 602.5,4 -4,4"/>
<!-- Node1 -->
<g id="node1" class="node">
<title>Node1</title>
<g id="a_node1"><a xlink:title="The CommandLineArguments body implements a handler for command&#45;line arguments converting them to a li...">
<polygon fill="#bfbfbf" stroke="black" points="167,-456.5 167,-476.5 330,-476.5 330,-456.5 167,-456.5"/>
<text text-anchor="middle" x="248.5" y="-463.7" font-family="Helvetica,sans-Serif" font-size="11.00">CommandLineArguments.cpp</text>
</a>
</g>
</g>
<!-- Node2 -->
<g id="node2" class="node">
<title>Node2</title>
<g id="a_node2"><a xlink:href="_assertion_8h.html" target="_top" xlink:title="The Assertion specification defines macros for pre&#45; and postconditions in functions or methods.">
<polygon fill="white" stroke="black" points="0,-57.5 0,-77.5 71,-77.5 71,-57.5 0,-57.5"/>
<text text-anchor="middle" x="35.5" y="-64.7" font-family="Helvetica,sans-Serif" font-size="11.00">Assertion.h</text>
</a>
</g>
</g>
<!-- Node1&#45;&gt;Node2 -->
<g id="edge1" class="edge">
<title>Node1&#45;&gt;Node2</title>
<path fill="none" stroke="midnightblue" d="M176.97,-456.47C117.14,-444.44 41.5,-416.73 41.5,-353.5 41.5,-353.5 41.5,-353.5 41.5,-180.5 41.5,-148 38.95,-110.27 37.17,-87.94"/>
<polygon fill="midnightblue" stroke="midnightblue" points="40.65,-87.46 36.33,-77.78 33.67,-88.04 40.65,-87.46"/>
</g>
<!-- Node4 -->
<g id="node4" class="node">
<title>Node4</title>
<g id="a_node4"><a xlink:href="_command_line_arguments_8h.html" target="_top" xlink:title="The CommandLineArguments specification defines a handler for command&#45;line arguments converting them t...">
<polygon fill="white" stroke="black" points="411,-399.5 411,-419.5 562,-419.5 562,-399.5 411,-399.5"/>
<text text-anchor="middle" x="486.5" y="-406.7" font-family="Helvetica,sans-Serif" font-size="11.00">CommandLineArguments.h</text>
</a>
</g>
</g>
<!-- Node1&#45;&gt;Node4 -->
<g id="edge3" class="edge">
<title>Node1&#45;&gt;Node4</title>
<path fill="none" stroke="midnightblue" d="M287.53,-456.48C328.52,-447.01 393.06,-432.09 437.46,-421.83"/>
<polygon fill="midnightblue" stroke="midnightblue" points="438.49,-425.19 447.44,-419.53 436.91,-418.37 438.49,-425.19"/>
</g>
<!-- Node8 -->
<g id="node8" class="node">
<title>Node8</title>
<g id="a_node8"><a xlink:href="_logging_8h.html" target="_top" xlink:title="The Logging specification defines macros for entry&#45;, exit&#45; and intermediate logging of functions into...">
<polygon fill="white" stroke="black" points="216.5,-399.5 216.5,-419.5 280.5,-419.5 280.5,-399.5 216.5,-399.5"/>
<text text-anchor="middle" x="248.5" y="-406.7" font-family="Helvetica,sans-Serif" font-size="11.00">Logging.h</text>
</a>
</g>
</g>
<!-- Node1&#45;&gt;Node8 -->
<g id="edge7" class="edge">
<title>Node1&#45;&gt;Node8</title>
<path fill="none" stroke="midnightblue" d="M248.5,-456.42C248.5,-449.22 248.5,-438.9 248.5,-429.86"/>
<polygon fill="midnightblue" stroke="midnightblue" points="252,-429.78 248.5,-419.78 245,-429.78 252,-429.78"/>
</g>
<!-- Node3 -->
<g id="node3" class="node">
<title>Node3</title>
<g id="a_node3"><a xlink:title=" ">
<polygon fill="white" stroke="#bfbfbf" points="6,-0.5 6,-20.5 59,-20.5 59,-0.5 6,-0.5"/>
<text text-anchor="middle" x="32.5" y="-7.7" font-family="Helvetica,sans-Serif" font-size="11.00">cassert</text>
</a>
</g>
</g>
<!-- Node2&#45;&gt;Node3 -->
<g id="edge2" class="edge">
<title>Node2&#45;&gt;Node3</title>
<path fill="none" stroke="midnightblue" d="M35,-57.42C34.61,-50.22 34.05,-39.9 33.56,-30.86"/>
<polygon fill="midnightblue" stroke="midnightblue" points="37.05,-30.57 33.01,-20.78 30.06,-30.96 37.05,-30.57"/>
</g>
<!-- Node5 -->
<g id="node5" class="node">
<title>Node5</title>
<g id="a_node5"><a xlink:href="_dictionary_8h.html" target="_top" xlink:title="The Dictionary specification defines maps from string keys to string values.">
<polygon fill="white" stroke="black" points="516.5,-342.5 516.5,-362.5 590.5,-362.5 590.5,-342.5 516.5,-342.5"/>
<text text-anchor="middle" x="553.5" y="-349.7" font-family="Helvetica,sans-Serif" font-size="11.00">Dictionary.h</text>
</a>
</g>
</g>
<!-- Node4&#45;&gt;Node5 -->
<g id="edge4" class="edge">
<title>Node4&#45;&gt;Node5</title>
<path fill="none" stroke="midnightblue" d="M497.56,-399.42C507.49,-391.27 522.29,-379.12 534.17,-369.37"/>
<polygon fill="midnightblue" stroke="midnightblue" points="536.69,-371.83 542.2,-362.78 532.25,-366.42 536.69,-371.83"/>
</g>
<!-- Node7 -->
<g id="node7" class="node">
<title>Node7</title>
<g id="a_node7"><a xlink:title=" ">
<polygon fill="white" stroke="#bfbfbf" points="457,-228.5 457,-248.5 538,-248.5 538,-228.5 457,-228.5"/>
<text text-anchor="middle" x="497.5" y="-235.7" font-family="Helvetica,sans-Serif" font-size="11.00">GenericList.h</text>
</a>
</g>
</g>
<!-- Node4&#45;&gt;Node7 -->
<g id="edge6" class="edge">
<title>Node4&#45;&gt;Node7</title>
<path fill="none" stroke="midnightblue" d="M487.09,-399.41C488.81,-372.94 493.86,-295.42 496.24,-258.92"/>
<polygon fill="midnightblue" stroke="midnightblue" points="499.75,-258.84 496.91,-248.63 492.76,-258.38 499.75,-258.84"/>
</g>
<!-- Node6 -->
<g id="node6" class="node">
<title>Node6</title>
<g id="a_node6"><a xlink:title=" ">
<polygon fill="white" stroke="#bfbfbf" points="514.5,-285.5 514.5,-305.5 598.5,-305.5 598.5,-285.5 514.5,-285.5"/>
<text text-anchor="middle" x="556.5" y="-292.7" font-family="Helvetica,sans-Serif" font-size="11.00">GenericMap.h</text>
</a>
</g>
</g>
<!-- Node5&#45;&gt;Node6 -->
<g id="edge5" class="edge">
<title>Node5&#45;&gt;Node6</title>
<path fill="none" stroke="midnightblue" d="M554,-342.42C554.39,-335.22 554.95,-324.9 555.44,-315.86"/>
<polygon fill="midnightblue" stroke="midnightblue" points="558.94,-315.96 555.99,-305.78 551.95,-315.57 558.94,-315.96"/>
</g>
<!-- Node9 -->
<g id="node9" class="node">
<title>Node9</title>
<g id="a_node9"><a xlink:title=" ">
<polygon fill="white" stroke="#bfbfbf" points="301,-342.5 301,-362.5 354,-362.5 354,-342.5 301,-342.5"/>
<text text-anchor="middle" x="327.5" y="-349.7" font-family="Helvetica,sans-Serif" font-size="11.00">cstdarg</text>
</a>
</g>
</g>
<!-- Node8&#45;&gt;Node9 -->
<g id="edge8" class="edge">
<title>Node8&#45;&gt;Node9</title>
<path fill="none" stroke="midnightblue" d="M261.55,-399.42C273.67,-390.98 291.94,-378.26 306.18,-368.34"/>
<polygon fill="midnightblue" stroke="midnightblue" points="308.23,-371.18 314.44,-362.6 304.23,-365.44 308.23,-371.18"/>
</g>
<!-- Node10 -->
<g id="node10" class="node">
<title>Node10</title>
<g id="a_node10"><a xlink:href="_logging_support_8h.html" target="_top" xlink:title="The LoggingSupport specification defines a class for simple entry/exit logging to a file; this loggin...">
<polygon fill="white" stroke="black" points="93.5,-342.5 93.5,-362.5 195.5,-362.5 195.5,-342.5 93.5,-342.5"/>
<text text-anchor="middle" x="144.5" y="-349.7" font-family="Helvetica,sans-Serif" font-size="11.00">LoggingSupport.h</text>
</a>
</g>
</g>
<!-- Node8&#45;&gt;Node10 -->
<g id="edge9" class="edge">
<title>Node8&#45;&gt;Node10</title>
<path fill="none" stroke="midnightblue" d="M231.33,-399.42C214.84,-390.7 189.72,-377.41 170.73,-367.37"/>
<polygon fill="midnightblue" stroke="midnightblue" points="172.18,-364.18 161.7,-362.6 168.9,-370.36 172.18,-364.18"/>
</g>
<!-- Node18 -->
<g id="node18" class="node">
<title>Node18</title>
<g id="a_node18"><a xlink:href="_string_util_8h.html" target="_top" xlink:title="The StringUtil specification defines several string routines not included in the standard C++ library...">
<polygon fill="white" stroke="black" points="214,-342.5 214,-362.5 283,-362.5 283,-342.5 214,-342.5"/>
<text text-anchor="middle" x="248.5" y="-349.7" font-family="Helvetica,sans-Serif" font-size="11.00">StringUtil.h</text>
</a>
</g>
</g>
<!-- Node8&#45;&gt;Node18 -->
<g id="edge19" class="edge">
<title>Node8&#45;&gt;Node18</title>
<path fill="none" stroke="midnightblue" d="M248.5,-399.42C248.5,-392.22 248.5,-381.9 248.5,-372.86"/>
<polygon fill="midnightblue" stroke="midnightblue" points="252,-372.78 248.5,-362.78 245,-372.78 252,-372.78"/>
</g>
<!-- Node11 -->
<g id="node11" class="node">
<title>Node11</title>
<g id="a_node11"><a xlink:href="_boolean_8h.html" target="_top" xlink:title="The Boolean specification and body provides a value object type for boolean values.">
<polygon fill="white" stroke="black" points="114,-285.5 114,-305.5 179,-305.5 179,-285.5 114,-285.5"/>
<text text-anchor="middle" x="146.5" y="-292.7" font-family="Helvetica,sans-Serif" font-size="11.00">Boolean.h</text>
</a>
</g>
</g>
<!-- Node10&#45;&gt;Node11 -->
<g id="edge10" class="edge">
<title>Node10&#45;&gt;Node11</title>
<path fill="none" stroke="midnightblue" d="M144.83,-342.42C145.09,-335.22 145.47,-324.9 145.8,-315.86"/>
<polygon fill="midnightblue" stroke="midnightblue" points="149.3,-315.9 146.16,-305.78 142.3,-315.65 149.3,-315.9"/>
</g>
<!-- Node15 -->
<g id="node15" class="node">
<title>Node15</title>
<g id="a_node15"><a xlink:href="_natural_8h.html" target="_top" xlink:title="The Natural specification and body provides a value object type for naturals (positive integers with ...">
<polygon fill="white" stroke="black" points="152.5,-114.5 152.5,-134.5 212.5,-134.5 212.5,-114.5 152.5,-114.5"/>
<text text-anchor="middle" x="182.5" y="-121.7" font-family="Helvetica,sans-Serif" font-size="11.00">Natural.h</text>
</a>
</g>
</g>
<!-- Node10&#45;&gt;Node15 -->
<g id="edge14" class="edge">
<title>Node10&#45;&gt;Node15</title>
<path fill="none" stroke="midnightblue" d="M132.85,-342.48C123.18,-334.19 110.14,-320.96 104.5,-306 101.21,-297.27 103,-294.21 104.5,-285 113.05,-232.28 115.9,-217.31 142.5,-171 148.55,-160.47 157.28,-150.18 165.05,-142.05"/>
<polygon fill="midnightblue" stroke="midnightblue" points="167.77,-144.28 172.35,-134.72 162.81,-139.34 167.77,-144.28"/>
</g>
<!-- Node12 -->
<g id="node12" class="node">
<title>Node12</title>
<g id="a_node12"><a xlink:href="_my_string_8h.html" target="_top" xlink:title="The String specification defines a standard string type.">
<polygon fill="white" stroke="black" points="89.5,-57.5 89.5,-77.5 157.5,-77.5 157.5,-57.5 89.5,-57.5"/>
<text text-anchor="middle" x="123.5" y="-64.7" font-family="Helvetica,sans-Serif" font-size="11.00">MyString.h</text>
</a>
</g>
</g>
<!-- Node11&#45;&gt;Node12 -->
<g id="edge11" class="edge">
<title>Node11&#45;&gt;Node12</title>
<path fill="none" stroke="midnightblue" d="M145.57,-285.36C142.15,-251.71 130.19,-134.27 125.46,-87.72"/>
<polygon fill="midnightblue" stroke="midnightblue" points="128.91,-87.1 124.42,-77.51 121.95,-87.81 128.91,-87.1"/>
</g>
<!-- Node13 -->
<g id="node13" class="node">
<title>Node13</title>
<g id="a_node13"><a xlink:title=" ">
<polygon fill="white" stroke="#bfbfbf" points="187.5,-0.5 187.5,-20.5 231.5,-20.5 231.5,-0.5 187.5,-0.5"/>
<text text-anchor="middle" x="209.5" y="-7.7" font-family="Helvetica,sans-Serif" font-size="11.00">string</text>
</a>
</g>
</g>
<!-- Node12&#45;&gt;Node13 -->
<g id="edge12" class="edge">
<title>Node12&#45;&gt;Node13</title>
<path fill="none" stroke="midnightblue" d="M137.7,-57.42C151.02,-48.9 171.17,-36.02 186.73,-26.06"/>
<polygon fill="midnightblue" stroke="midnightblue" points="188.74,-28.93 195.28,-20.6 184.97,-23.03 188.74,-28.93"/>
</g>
<!-- Node14 -->
<g id="node14" class="node">
<title>Node14</title>
<g id="a_node14"><a xlink:href="_global_macros_8h.html" target="_top" xlink:title="The GlobalMacros specification defines simple macros (e.g. for parameter modes).">
<polygon fill="white" stroke="black" points="77.5,-0.5 77.5,-20.5 169.5,-20.5 169.5,-0.5 77.5,-0.5"/>
<text text-anchor="middle" x="123.5" y="-7.7" font-family="Helvetica,sans-Serif" font-size="11.00">GlobalMacros.h</text>
</a>
</g>
</g>
<!-- Node12&#45;&gt;Node14 -->
<g id="edge13" class="edge">
<title>Node12&#45;&gt;Node14</title>
<path fill="none" stroke="midnightblue" d="M123.5,-57.42C123.5,-50.22 123.5,-39.9 123.5,-30.86"/>
<polygon fill="midnightblue" stroke="midnightblue" points="127,-30.78 123.5,-20.78 120,-30.78 127,-30.78"/>
</g>
<!-- Node15&#45;&gt;Node2 -->
<g id="edge16" class="edge">
<title>Node15&#45;&gt;Node2</title>
<path fill="none" stroke="midnightblue" d="M158.23,-114.42C133.97,-105.34 96.47,-91.31 69.31,-81.15"/>
<polygon fill="midnightblue" stroke="midnightblue" points="70.4,-77.82 59.81,-77.6 67.95,-84.38 70.4,-77.82"/>
</g>
<!-- Node15&#45;&gt;Node12 -->
<g id="edge18" class="edge">
<title>Node15&#45;&gt;Node12</title>
<path fill="none" stroke="midnightblue" d="M172.76,-114.42C164.1,-106.35 151.24,-94.36 140.83,-84.65"/>
<polygon fill="midnightblue" stroke="midnightblue" points="143.16,-82.04 133.45,-77.78 138.38,-87.16 143.16,-82.04"/>
</g>
<!-- Node16 -->
<g id="node16" class="node">
<title>Node16</title>
<g id="a_node16"><a xlink:title=" ">
<polygon fill="white" stroke="#bfbfbf" points="297,-57.5 297,-77.5 344,-77.5 344,-57.5 297,-57.5"/>
<text text-anchor="middle" x="320.5" y="-64.7" font-family="Helvetica,sans-Serif" font-size="11.00">cmath</text>
</a>
</g>
</g>
<!-- Node15&#45;&gt;Node16 -->
<g id="edge15" class="edge">
<title>Node15&#45;&gt;Node16</title>
<path fill="none" stroke="midnightblue" d="M205.29,-114.42C227.86,-105.42 262.65,-91.56 288.09,-81.42"/>
<polygon fill="midnightblue" stroke="midnightblue" points="289.68,-84.55 297.68,-77.6 287.09,-78.05 289.68,-84.55"/>
</g>
<!-- Node17 -->
<g id="node17" class="node">
<title>Node17</title>
<g id="a_node17"><a xlink:title=" ">
<polygon fill="white" stroke="#bfbfbf" points="176,-57.5 176,-77.5 279,-77.5 279,-57.5 176,-57.5"/>
<text text-anchor="middle" x="227.5" y="-64.7" font-family="Helvetica,sans-Serif" font-size="11.00">GenericNumber.h</text>
</a>
</g>
</g>
<!-- Node15&#45;&gt;Node17 -->
<g id="edge17" class="edge">
<title>Node15&#45;&gt;Node17</title>
<path fill="none" stroke="midnightblue" d="M189.93,-114.42C196.28,-106.66 205.58,-95.29 213.34,-85.8"/>
<polygon fill="midnightblue" stroke="midnightblue" points="216.28,-87.74 219.91,-77.78 210.87,-83.3 216.28,-87.74"/>
</g>
<!-- Node18&#45;&gt;Node11 -->
<g id="edge20" class="edge">
<title>Node18&#45;&gt;Node11</title>
<path fill="none" stroke="midnightblue" d="M231.66,-342.42C215.49,-333.7 190.85,-320.41 172.22,-310.37"/>
<polygon fill="midnightblue" stroke="midnightblue" points="173.83,-307.26 163.37,-305.6 170.51,-313.42 173.83,-307.26"/>
</g>
<!-- Node19 -->
<g id="node19" class="node">
<title>Node19</title>
<g id="a_node19"><a xlink:href="_byte_8h.html" target="_top" xlink:title="The Byte specification and body provides a value object type for byte values.">
<polygon fill="white" stroke="black" points="152,-171.5 152,-191.5 199,-191.5 199,-171.5 152,-171.5"/>
<text text-anchor="middle" x="175.5" y="-178.7" font-family="Helvetica,sans-Serif" font-size="11.00">Byte.h</text>
</a>
</g>
</g>
<!-- Node18&#45;&gt;Node19 -->
<g id="edge21" class="edge">
<title>Node18&#45;&gt;Node19</title>
<path fill="none" stroke="midnightblue" d="M244.58,-342.41C233.04,-315.71 199.07,-237.07 183.48,-200.98"/>
<polygon fill="midnightblue" stroke="midnightblue" points="186.62,-199.42 179.44,-191.63 180.2,-202.2 186.62,-199.42"/>
</g>
<!-- Node20 -->
<g id="node20" class="node">
<title>Node20</title>
<g id="a_node20"><a xlink:href="_character_8h.html" target="_top" xlink:title="The Character specification and body provides a value object type for character values.">
<polygon fill="white" stroke="black" points="217.5,-171.5 217.5,-191.5 291.5,-191.5 291.5,-171.5 217.5,-171.5"/>
<text text-anchor="middle" x="254.5" y="-178.7" font-family="Helvetica,sans-Serif" font-size="11.00">Character.h</text>
</a>
</g>
</g>
<!-- Node18&#45;&gt;Node20 -->
<g id="edge24" class="edge">
<title>Node18&#45;&gt;Node20</title>
<path fill="none" stroke="midnightblue" d="M248.82,-342.41C249.76,-315.94 252.51,-238.42 253.81,-201.92"/>
<polygon fill="midnightblue" stroke="midnightblue" points="257.32,-201.75 254.18,-191.63 250.32,-201.5 257.32,-201.75"/>
</g>
<!-- Node21 -->
<g id="node21" class="node">
<title>Node21</title>
<g id="a_node21"><a xlink:href="_percentage_8h.html" target="_top" xlink:title="The Percentage specification and body provides a simple percentage type.">
<polygon fill="white" stroke="black" points="276.5,-285.5 276.5,-305.5 358.5,-305.5 358.5,-285.5 276.5,-285.5"/>
<text text-anchor="middle" x="317.5" y="-292.7" font-family="Helvetica,sans-Serif" font-size="11.00">Percentage.h</text>
</a>
</g>
</g>
<!-- Node18&#45;&gt;Node21 -->
<g id="edge27" class="edge">
<title>Node18&#45;&gt;Node21</title>
<path fill="none" stroke="midnightblue" d="M259.89,-342.42C270.22,-334.19 285.65,-321.88 297.95,-312.08"/>
<polygon fill="midnightblue" stroke="midnightblue" points="300.22,-314.75 305.86,-305.78 295.86,-309.28 300.22,-314.75"/>
</g>
<!-- Node25 -->
<g id="node25" class="node">
<title>Node25</title>
<g id="a_node25"><a xlink:href="_string_list_8h.html" target="_top" xlink:title="The StringList specification defines lists of string values with zero&#45;based arbitrary indexed access ...">
<polygon fill="white" stroke="black" points="377,-285.5 377,-305.5 448,-305.5 448,-285.5 377,-285.5"/>
<text text-anchor="middle" x="412.5" y="-292.7" font-family="Helvetica,sans-Serif" font-size="11.00">StringList.h</text>
</a>
</g>
</g>
<!-- Node18&#45;&gt;Node25 -->
<g id="edge34" class="edge">
<title>Node18&#45;&gt;Node25</title>
<path fill="none" stroke="midnightblue" d="M275.58,-342.42C302.96,-333.23 345.47,-318.98 375.85,-308.79"/>
<polygon fill="midnightblue" stroke="midnightblue" points="377.28,-312 385.65,-305.5 375.06,-305.37 377.28,-312"/>
</g>
<!-- Node19&#45;&gt;Node15 -->
<g id="edge23" class="edge">
<title>Node19&#45;&gt;Node15</title>
<path fill="none" stroke="midnightblue" d="M176.66,-171.42C177.57,-164.22 178.89,-153.9 180.04,-144.86"/>
<polygon fill="midnightblue" stroke="midnightblue" points="183.53,-145.14 181.32,-134.78 176.58,-144.26 183.53,-145.14"/>
</g>
<!-- Node19&#45;&gt;Node16 -->
<g id="edge22" class="edge">
<title>Node19&#45;&gt;Node16</title>
<path fill="none" stroke="midnightblue" d="M187.37,-171.33C212.11,-152.22 269.48,-107.91 300.21,-84.18"/>
<polygon fill="midnightblue" stroke="midnightblue" points="302.7,-86.67 308.47,-77.79 298.42,-81.14 302.7,-86.67"/>
</g>
<!-- Node20&#45;&gt;Node15 -->
<g id="edge26" class="edge">
<title>Node20&#45;&gt;Node15</title>
<path fill="none" stroke="midnightblue" d="M242.61,-171.42C231.84,-163.19 215.73,-150.88 202.9,-141.08"/>
<polygon fill="midnightblue" stroke="midnightblue" points="204.72,-138.07 194.65,-134.78 200.47,-143.63 204.72,-138.07"/>
</g>
<!-- Node20&#45;&gt;Node16 -->
<g id="edge25" class="edge">
<title>Node20&#45;&gt;Node16</title>
<path fill="none" stroke="midnightblue" d="M259.9,-171.33C270.78,-152.88 295.5,-110.92 309.78,-86.69"/>
<polygon fill="midnightblue" stroke="midnightblue" points="312.96,-88.18 315.02,-77.79 306.93,-84.63 312.96,-88.18"/>
</g>
<!-- Node22 -->
<g id="node22" class="node">
<title>Node22</title>
<g id="a_node22"><a xlink:href="_real_8h.html" target="_top" xlink:title="The Real specification defines a value object type for real values.">
<polygon fill="white" stroke="black" points="294.5,-228.5 294.5,-248.5 342.5,-248.5 342.5,-228.5 294.5,-228.5"/>
<text text-anchor="middle" x="318.5" y="-235.7" font-family="Helvetica,sans-Serif" font-size="11.00">Real.h</text>
</a>
</g>
</g>
<!-- Node21&#45;&gt;Node22 -->
<g id="edge28" class="edge">
<title>Node21&#45;&gt;Node22</title>
<path fill="none" stroke="midnightblue" d="M317.67,-285.42C317.8,-278.22 317.98,-267.9 318.15,-258.86"/>
<polygon fill="midnightblue" stroke="midnightblue" points="321.65,-258.84 318.33,-248.78 314.65,-258.71 321.65,-258.84"/>
</g>
<!-- Node22&#45;&gt;Node16 -->
<g id="edge29" class="edge">
<title>Node22&#45;&gt;Node16</title>
<path fill="none" stroke="midnightblue" d="M318.61,-228.41C318.92,-201.94 319.84,-124.42 320.27,-87.92"/>
<polygon fill="midnightblue" stroke="midnightblue" points="323.77,-87.67 320.39,-77.63 316.77,-87.59 323.77,-87.67"/>
</g>
<!-- Node23 -->
<g id="node23" class="node">
<title>Node23</title>
<g id="a_node23"><a xlink:href="_integer_8h.html" target="_top" xlink:title="The Integer specification and body provides a value object type for ints.">
<polygon fill="white" stroke="black" points="349,-171.5 349,-191.5 408,-191.5 408,-171.5 349,-171.5"/>
<text text-anchor="middle" x="378.5" y="-178.7" font-family="Helvetica,sans-Serif" font-size="11.00">Integer.h</text>
</a>
</g>
</g>
<!-- Node22&#45;&gt;Node23 -->
<g id="edge30" class="edge">
<title>Node22&#45;&gt;Node23</title>
<path fill="none" stroke="midnightblue" d="M328.41,-228.42C337.21,-220.35 350.29,-208.36 360.88,-198.65"/>
<polygon fill="midnightblue" stroke="midnightblue" points="363.37,-201.12 368.38,-191.78 358.64,-195.96 363.37,-201.12"/>
</g>
<!-- Node23&#45;&gt;Node15 -->
<g id="edge33" class="edge">
<title>Node23&#45;&gt;Node15</title>
<path fill="none" stroke="midnightblue" d="M348.73,-172.15C315.06,-162.7 260.05,-147.26 222.61,-136.76"/>
<polygon fill="midnightblue" stroke="midnightblue" points="223.12,-133.26 212.55,-133.93 221.23,-140 223.12,-133.26"/>
</g>
<!-- Node23&#45;&gt;Node16 -->
<g id="edge31" class="edge">
<title>Node23&#45;&gt;Node16</title>
<path fill="none" stroke="midnightblue" d="M391.48,-171.43C408.21,-158.6 433.66,-134.44 420.5,-114 405.93,-91.37 377.04,-79.86 354.04,-74.09"/>
<polygon fill="midnightblue" stroke="midnightblue" points="354.81,-70.68 344.28,-71.89 353.27,-77.5 354.81,-70.68"/>
</g>
<!-- Node24 -->
<g id="node24" class="node">
<title>Node24</title>
<g id="a_node24"><a xlink:title=" ">
<polygon fill="white" stroke="#bfbfbf" points="347.5,-114.5 347.5,-134.5 411.5,-134.5 411.5,-114.5 347.5,-114.5"/>
<text text-anchor="middle" x="379.5" y="-121.7" font-family="Helvetica,sans-Serif" font-size="11.00">stdexcept</text>
</a>
</g>
</g>
<!-- Node23&#45;&gt;Node24 -->
<g id="edge32" class="edge">
<title>Node23&#45;&gt;Node24</title>
<path fill="none" stroke="midnightblue" d="M378.67,-171.42C378.8,-164.22 378.98,-153.9 379.15,-144.86"/>
<polygon fill="midnightblue" stroke="midnightblue" points="382.65,-144.84 379.33,-134.78 375.65,-144.71 382.65,-144.84"/>
</g>
<!-- Node25&#45;&gt;Node7 -->
<g id="edge36" class="edge">
<title>Node25&#45;&gt;Node7</title>
<path fill="none" stroke="midnightblue" d="M426.54,-285.42C439.7,-276.9 459.61,-264.02 474.99,-254.06"/>
<polygon fill="midnightblue" stroke="midnightblue" points="476.95,-256.97 483.44,-248.6 473.15,-251.09 476.95,-256.97"/>
</g>
<!-- Node26 -->
<g id="node26" class="node">
<title>Node26</title>
<g id="a_node26"><a xlink:title=" ">
<polygon fill="white" stroke="#bfbfbf" points="360.5,-228.5 360.5,-248.5 438.5,-248.5 438.5,-228.5 360.5,-228.5"/>
<text text-anchor="middle" x="399.5" y="-235.7" font-family="Helvetica,sans-Serif" font-size="11.00">initializer_list</text>
</a>
</g>
</g>
<!-- Node25&#45;&gt;Node26 -->
<g id="edge35" class="edge">
<title>Node25&#45;&gt;Node26</title>
<path fill="none" stroke="midnightblue" d="M410.35,-285.42C408.63,-278.14 406.16,-267.67 404.01,-258.57"/>
<polygon fill="midnightblue" stroke="midnightblue" points="407.4,-257.71 401.69,-248.78 400.59,-259.32 407.4,-257.71"/>
</g>
</g>
</svg>
        <g id="navigator" transform="translate(0 0)" fill="#404254">
                <rect fill="#f2f5e9" fill-opacity="0.5" stroke="#606060" stroke-width=".5" x="0" y="0" width="60" height="60"/>
                <use id="zoomplus" xlink:href="#zoomPlus" x="17" y="9" onmousedown="handleZoom(evt,'in')"/>
                <use id="zoomminus" xlink:href="#zoomMin" x="42" y="9" onmousedown="handleZoom(evt,'out')"/>
                <use id="reset" xlink:href="#resetDef" x="30" y="36" onmousedown="handleReset()"/>
                <g id="arrowUp" xlink:href="#dirArrow" transform="translate(30 24)" onmousedown="handlePan(0,-1)">
                  <use xlink:href="#rim" fill="#404040">
                        <set attributeName="fill" to="#808080" begin="arrowUp.mouseover" end="arrowUp.mouseout"/>
                  </use>
                  <path fill="none" stroke="white" stroke-width="1.5" d="M0,-3.0v7 M-2.5,-0.5L0,-3.0L2.5,-0.5"/>
                </g>
                <g id="arrowRight" xlink:href="#dirArrow" transform="rotate(90) translate(36 -43)" onmousedown="handlePan(1,0)">
                  <use xlink:href="#rim" fill="#404040">
                        <set attributeName="fill" to="#808080" begin="arrowRight.mouseover" end="arrowRight.mouseout"/>
                  </use>
                  <path fill="none" stroke="white" stroke-width="1.5" d="M0,-3.0v7 M-2.5,-0.5L0,-3.0L2.5,-0.5"/>
                </g>
                <g id="arrowDown" xlink:href="#dirArrow" transform="rotate(180) translate(-30 -48)" onmousedown="handlePan(0,1)">
                  <use xlink:href="#rim" fill="#404040">
                        <set attributeName="fill" to="#808080" begin="arrowDown.mouseover" end="arrowDown.mouseout"/>
                  </use>
                  <path fill="none" stroke="white" stroke-width="1.5" d="M0,-3.0v7 M-2.5,-0.5L0,-3.0L2.5,-0.5"/>
                </g>
                <g id="arrowLeft" xlink:href="#dirArrow" transform="rotate(270) translate(-36 17)" onmousedown="handlePan(-1,0)">
                  <use xlink:href="#rim" fill="#404040">
                        <set attributeName="fill" to="#808080" begin="arrowLeft.mouseover" end="arrowLeft.mouseout"/>
                  </use>
                  <path fill="none" stroke="white" stroke-width="1.5" d="M0,-3.0v7 M-2.5,-0.5L0,-3.0L2.5,-0.5"/>
                </g>
        </g>
        <svg viewBox="0 0 15 15" width="100%" height="30px" preserveAspectRatio="xMaxYMin meet">
         <g id="arrow_out" transform="scale(0.3 0.3)">
          <a xlink:href="_command_line_arguments_8cpp__incl_org.svg" target="_base">
           <rect id="button" ry="5" rx="5" y="6" x="6" height="38" width="38"
                fill="#f2f5e9" fill-opacity="0.5" stroke="#606060" stroke-width="1.0"/>
           <path id="arrow"
             d="M 11.500037,31.436501 C 11.940474,20.09759 22.043105,11.32322 32.158766,21.979434 L 37.068811,17.246167 C 37.068811,17.246167 37.088388,32 37.088388,32 L 22.160133,31.978069 C 22.160133,31.978069 26.997745,27.140456 26.997745,27.140456 C 18.528582,18.264221 13.291696,25.230495 11.500037,31.436501 z"
             style="fill:#404040;"/>
          </a>
         </g>
        </svg>
</svg>
