<?xml version="1.0" encoding="UTF-8" standalone="no"?>
<!DOCTYPE svg PUBLIC "-//W3C//DTD SVG 1.1//EN"
 "http://www.w3.org/Graphics/SVG/1.1/DTD/svg11.dtd">
<!-- Generated by graphviz version 2.47.1 (20210417.1919)
 -->
<!-- Title: CommandLineArguments.h Pages: 1 -->
<svg width="187pt" height="143pt"
 viewBox="0.00 0.00 186.50 143.00" xmlns="http://www.w3.org/2000/svg" xmlns:xlink="http://www.w3.org/1999/xlink">
<g id="graph0" class="graph" transform="scale(1 1) rotate(0) translate(4 139)">
<title>CommandLineArguments.h</title>
<polygon fill="white" stroke="transparent" points="-4,4 -4,-139 182.5,-139 182.5,4 -4,4"/>
<!-- Node1 -->
<g id="node1" class="node">
<title>Node1</title>
<g id="a_node1"><a xlink:title="The CommandLineArguments specification defines a handler for command&#45;line arguments converting them t...">
<polygon fill="#bfbfbf" stroke="black" points="14.5,-114.5 14.5,-134.5 165.5,-134.5 165.5,-114.5 14.5,-114.5"/>
<text text-anchor="middle" x="90" y="-121.7" font-family="Helvetica,sans-Serif" font-size="11.00">CommandLineArguments.h</text>
</a>
</g>
</g>
<!-- Node2 -->
<g id="node2" class="node">
<title>Node2</title>
<g id="a_node2"><a xlink:href="_dictionary_8h.html" target="_top" xlink:title="The Dictionary specification defines maps from string keys to string values.">
<polygon fill="white" stroke="black" points="5,-57.5 5,-77.5 79,-77.5 79,-57.5 5,-57.5"/>
<text text-anchor="middle" x="42" y="-64.7" font-family="Helvetica,sans-Serif" font-size="11.00">Dictionary.h</text>
</a>
</g>
</g>
<!-- Node1&#45;&gt;Node2 -->
<g id="edge1" class="edge">
<title>Node1&#45;&gt;Node2</title>
<path fill="none" stroke="midnightblue" d="M82.07,-114.42C75.24,-106.58 65.18,-95.06 56.85,-85.51"/>
<polygon fill="midnightblue" stroke="midnightblue" points="59.31,-83.01 50.1,-77.78 54.04,-87.62 59.31,-83.01"/>
</g>
<!-- Node4 -->
<g id="node4" class="node">
<title>Node4</title>
<g id="a_node4"><a xlink:title=" ">
<polygon fill="white" stroke="#bfbfbf" points="97.5,-57.5 97.5,-77.5 178.5,-77.5 178.5,-57.5 97.5,-57.5"/>
<text text-anchor="middle" x="138" y="-64.7" font-family="Helvetica,sans-Serif" font-size="11.00">GenericList.h</text>
</a>
</g>
</g>
<!-- Node1&#45;&gt;Node4 -->
<g id="edge3" class="edge">
<title>Node1&#45;&gt;Node4</title>
<path fill="none" stroke="midnightblue" d="M97.93,-114.42C104.76,-106.58 114.82,-95.06 123.15,-85.51"/>
<polygon fill="midnightblue" stroke="midnightblue" points="125.96,-87.62 129.9,-77.78 120.69,-83.01 125.96,-87.62"/>
</g>
<!-- Node3 -->
<g id="node3" class="node">
<title>Node3</title>
<g id="a_node3"><a xlink:title=" ">
<polygon fill="white" stroke="#bfbfbf" points="0,-0.5 0,-20.5 84,-20.5 84,-0.5 0,-0.5"/>
<text text-anchor="middle" x="42" y="-7.7" font-family="Helvetica,sans-Serif" font-size="11.00">GenericMap.h</text>
</a>
</g>
</g>
<!-- Node2&#45;&gt;Node3 -->
<g id="edge2" class="edge">
<title>Node2&#45;&gt;Node3</title>
<path fill="none" stroke="midnightblue" d="M42,-57.42C42,-50.22 42,-39.9 42,-30.86"/>
<polygon fill="midnightblue" stroke="midnightblue" points="45.5,-30.78 42,-20.78 38.5,-30.78 45.5,-30.78"/>
</g>
</g>
</svg>
