<?xml version="1.0" encoding="UTF-8" standalone="no"?>
<!DOCTYPE svg PUBLIC "-//W3C//DTD SVG 1.1//EN"
 "http://www.w3.org/Graphics/SVG/1.1/DTD/svg11.dtd">
<!-- Generated by graphviz version 2.47.1 (20210417.1919)
 -->
<!-- Title: CommandLineArguments.cpp Pages: 1 -->
<svg width="658pt" height="476pt"
 viewBox="0.00 0.00 658.00 476.00" xmlns="http://www.w3.org/2000/svg" xmlns:xlink="http://www.w3.org/1999/xlink">
<g id="graph0" class="graph" transform="scale(1 1) rotate(0) translate(4 472)">
<title>CommandLineArguments.cpp</title>
<polygon fill="white" stroke="transparent" points="-4,4 -4,-472 654,-472 654,4 -4,4"/>
<!-- Node1 -->
<g id="node1" class="node">
<title>Node1</title>
<g id="a_node1"><a xlink:title="The CommandLineArguments body implements a handler for command&#45;line arguments converting them to a li...">
<polygon fill="#bfbfbf" stroke="black" points="249,-448.5 249,-467.5 394,-467.5 394,-448.5 249,-448.5"/>
<text text-anchor="middle" x="321.5" y="-455.5" font-family="Helvetica,sans-Serif" font-size="10.00">CommandLineArguments.cpp</text>
</a>
</g>
</g>
<!-- Node2 -->
<g id="node2" class="node">
<title>Node2</title>
<g id="a_node2"><a xlink:href="_assertion_8h.html" target="_top" xlink:title="The Assertion specification defines macros for pre&#45; and postconditions in functions or methods.">
<polygon fill="white" stroke="black" points="92.5,-56.5 92.5,-75.5 158.5,-75.5 158.5,-56.5 92.5,-56.5"/>
<text text-anchor="middle" x="125.5" y="-63.5" font-family="Helvetica,sans-Serif" font-size="10.00">Assertion.h</text>
</a>
</g>
</g>
<!-- Node1&#45;&gt;Node2 -->
<g id="edge1" class="edge">
<title>Node1&#45;&gt;Node2</title>
<path fill="none" stroke="midnightblue" d="M260.92,-448.5C203.99,-436.69 127.5,-409.24 127.5,-347 127.5,-347 127.5,-347 127.5,-177 127.5,-144.94 126.64,-107.64 126.05,-85.75"/>
<polygon fill="midnightblue" stroke="midnightblue" points="129.54,-85.45 125.76,-75.56 122.54,-85.65 129.54,-85.45"/>
</g>
<!-- Node5 -->
<g id="node5" class="node">
<title>Node5</title>
<g id="a_node5"><a xlink:href="_command_line_arguments_8h.html" target="_top" xlink:title="The CommandLineArguments specification defines a handler for command&#45;line arguments converting them t...">
<polygon fill="white" stroke="black" points="477.5,-392.5 477.5,-411.5 611.5,-411.5 611.5,-392.5 477.5,-392.5"/>
<text text-anchor="middle" x="544.5" y="-399.5" font-family="Helvetica,sans-Serif" font-size="10.00">CommandLineArguments.h</text>
</a>
</g>
</g>
<!-- Node1&#45;&gt;Node5 -->
<g id="edge4" class="edge">
<title>Node1&#45;&gt;Node5</title>
<path fill="none" stroke="midnightblue" d="M356.84,-448.44C395.41,-439.1 457.28,-424.12 499.35,-413.93"/>
<polygon fill="midnightblue" stroke="midnightblue" points="500.43,-417.27 509.33,-411.52 498.79,-410.47 500.43,-417.27"/>
</g>
<!-- Node9 -->
<g id="node9" class="node">
<title>Node9</title>
<g id="a_node9"><a xlink:href="_logging_8h.html" target="_top" xlink:title="The Logging specification defines macros for entry&#45;, exit&#45; and intermediate logging of functions into...">
<polygon fill="white" stroke="black" points="292,-392.5 292,-411.5 351,-411.5 351,-392.5 292,-392.5"/>
<text text-anchor="middle" x="321.5" y="-399.5" font-family="Helvetica,sans-Serif" font-size="10.00">Logging.h</text>
</a>
</g>
</g>
<!-- Node1&#45;&gt;Node9 -->
<g id="edge8" class="edge">
<title>Node1&#45;&gt;Node9</title>
<path fill="none" stroke="midnightblue" d="M321.5,-448.08C321.5,-441.01 321.5,-430.86 321.5,-421.99"/>
<polygon fill="midnightblue" stroke="midnightblue" points="325,-421.75 321.5,-411.75 318,-421.75 325,-421.75"/>
</g>
<!-- Node3 -->
<g id="node3" class="node">
<title>Node3</title>
<g id="a_node3"><a xlink:title=" ">
<polygon fill="white" stroke="#bfbfbf" points="215,-0.5 215,-19.5 274,-19.5 274,-0.5 215,-0.5"/>
<text text-anchor="middle" x="244.5" y="-7.5" font-family="Helvetica,sans-Serif" font-size="10.00">stdexcept</text>
</a>
</g>
</g>
<!-- Node2&#45;&gt;Node3 -->
<g id="edge2" class="edge">
<title>Node2&#45;&gt;Node3</title>
<path fill="none" stroke="midnightblue" d="M144.36,-56.44C163.77,-47.64 194.23,-33.81 216.46,-23.72"/>
<polygon fill="midnightblue" stroke="midnightblue" points="218.07,-26.84 225.73,-19.52 215.18,-20.46 218.07,-26.84"/>
</g>
<!-- Node4 -->
<g id="node4" class="node">
<title>Node4</title>
<g id="a_node4"><a xlink:title=" ">
<polygon fill="white" stroke="#bfbfbf" points="104,-0.5 104,-19.5 145,-19.5 145,-0.5 104,-0.5"/>
<text text-anchor="middle" x="124.5" y="-7.5" font-family="Helvetica,sans-Serif" font-size="10.00">string</text>
</a>
</g>
</g>
<!-- Node2&#45;&gt;Node4 -->
<g id="edge3" class="edge">
<title>Node2&#45;&gt;Node4</title>
<path fill="none" stroke="midnightblue" d="M125.33,-56.08C125.2,-49.01 125.02,-38.86 124.85,-29.99"/>
<polygon fill="midnightblue" stroke="midnightblue" points="128.35,-29.68 124.66,-19.75 121.35,-29.81 128.35,-29.68"/>
</g>
<!-- Node6 -->
<g id="node6" class="node">
<title>Node6</title>
<g id="a_node6"><a xlink:href="_dictionary_8h.html" target="_top" xlink:title="The Dictionary specification defines maps from string keys to string values.">
<polygon fill="white" stroke="black" points="574.5,-336.5 574.5,-355.5 642.5,-355.5 642.5,-336.5 574.5,-336.5"/>
<text text-anchor="middle" x="608.5" y="-343.5" font-family="Helvetica,sans-Serif" font-size="10.00">Dictionary.h</text>
</a>
</g>
</g>
<!-- Node5&#45;&gt;Node6 -->
<g id="edge5" class="edge">
<title>Node5&#45;&gt;Node6</title>
<path fill="none" stroke="midnightblue" d="M554.78,-392.32C564.34,-384.26 578.78,-372.08 590.28,-362.37"/>
<polygon fill="midnightblue" stroke="midnightblue" points="592.64,-364.96 598.03,-355.83 588.13,-359.61 592.64,-364.96"/>
</g>
<!-- Node8 -->
<g id="node8" class="node">
<title>Node8</title>
<g id="a_node8"><a xlink:title=" ">
<polygon fill="white" stroke="#bfbfbf" points="523.5,-224.5 523.5,-243.5 597.5,-243.5 597.5,-224.5 523.5,-224.5"/>
<text text-anchor="middle" x="560.5" y="-231.5" font-family="Helvetica,sans-Serif" font-size="10.00">GenericList.h</text>
</a>
</g>
</g>
<!-- Node5&#45;&gt;Node8 -->
<g id="edge7" class="edge">
<title>Node5&#45;&gt;Node8</title>
<path fill="none" stroke="midnightblue" d="M545.36,-392.08C547.88,-365.95 555.27,-289.21 558.71,-253.58"/>
<polygon fill="midnightblue" stroke="midnightblue" points="562.2,-253.86 559.67,-243.57 555.23,-253.19 562.2,-253.86"/>
</g>
<!-- Node7 -->
<g id="node7" class="node">
<title>Node7</title>
<g id="a_node7"><a xlink:title=" ">
<polygon fill="white" stroke="#bfbfbf" points="573,-280.5 573,-299.5 650,-299.5 650,-280.5 573,-280.5"/>
<text text-anchor="middle" x="611.5" y="-287.5" font-family="Helvetica,sans-Serif" font-size="10.00">GenericMap.h</text>
</a>
</g>
</g>
<!-- Node6&#45;&gt;Node7 -->
<g id="edge6" class="edge">
<title>Node6&#45;&gt;Node7</title>
<path fill="none" stroke="midnightblue" d="M609,-336.08C609.39,-329.01 609.95,-318.86 610.45,-309.99"/>
<polygon fill="midnightblue" stroke="midnightblue" points="613.95,-309.93 611.01,-299.75 606.96,-309.54 613.95,-309.93"/>
</g>
<!-- Node10 -->
<g id="node10" class="node">
<title>Node10</title>
<g id="a_node10"><a xlink:title=" ">
<polygon fill="white" stroke="#bfbfbf" points="372,-336.5 372,-355.5 421,-355.5 421,-336.5 372,-336.5"/>
<text text-anchor="middle" x="396.5" y="-343.5" font-family="Helvetica,sans-Serif" font-size="10.00">cstdarg</text>
</a>
</g>
</g>
<!-- Node9&#45;&gt;Node10 -->
<g id="edge9" class="edge">
<title>Node9&#45;&gt;Node10</title>
<path fill="none" stroke="midnightblue" d="M333.55,-392.32C344.96,-384.11 362.33,-371.6 375.93,-361.81"/>
<polygon fill="midnightblue" stroke="midnightblue" points="378.16,-364.52 384.23,-355.83 374.07,-358.84 378.16,-364.52"/>
</g>
<!-- Node11 -->
<g id="node11" class="node">
<title>Node11</title>
<g id="a_node11"><a xlink:href="_logging_support_8h.html" target="_top" xlink:title="The LoggingSupport specification defines a class for simple entry/exit logging to a file or via an ar...">
<polygon fill="white" stroke="black" points="178.5,-336.5 178.5,-355.5 270.5,-355.5 270.5,-336.5 178.5,-336.5"/>
<text text-anchor="middle" x="224.5" y="-343.5" font-family="Helvetica,sans-Serif" font-size="10.00">LoggingSupport.h</text>
</a>
</g>
</g>
<!-- Node9&#45;&gt;Node11 -->
<g id="edge10" class="edge">
<title>Node9&#45;&gt;Node11</title>
<path fill="none" stroke="midnightblue" d="M305.92,-392.32C290.5,-383.74 266.69,-370.49 248.79,-360.52"/>
<polygon fill="midnightblue" stroke="midnightblue" points="250.49,-357.46 240.05,-355.65 247.08,-363.58 250.49,-357.46"/>
</g>
<!-- Node18 -->
<g id="node18" class="node">
<title>Node18</title>
<g id="a_node18"><a xlink:href="_string_util_8h.html" target="_top" xlink:title="The StringUtil specification defines several string routines not included in the standard C++ library...">
<polygon fill="white" stroke="black" points="289,-336.5 289,-355.5 354,-355.5 354,-336.5 289,-336.5"/>
<text text-anchor="middle" x="321.5" y="-343.5" font-family="Helvetica,sans-Serif" font-size="10.00">StringUtil.h</text>
</a>
</g>
</g>
<!-- Node9&#45;&gt;Node18 -->
<g id="edge20" class="edge">
<title>Node9&#45;&gt;Node18</title>
<path fill="none" stroke="midnightblue" d="M321.5,-392.08C321.5,-385.01 321.5,-374.86 321.5,-365.99"/>
<polygon fill="midnightblue" stroke="midnightblue" points="325,-365.75 321.5,-355.75 318,-365.75 325,-365.75"/>
</g>
<!-- Node12 -->
<g id="node12" class="node">
<title>Node12</title>
<g id="a_node12"><a xlink:href="_boolean_8h.html" target="_top" xlink:title="The Boolean specification and body provides a value object type for boolean values.">
<polygon fill="white" stroke="black" points="200.5,-280.5 200.5,-299.5 260.5,-299.5 260.5,-280.5 200.5,-280.5"/>
<text text-anchor="middle" x="230.5" y="-287.5" font-family="Helvetica,sans-Serif" font-size="10.00">Boolean.h</text>
</a>
</g>
</g>
<!-- Node11&#45;&gt;Node12 -->
<g id="edge11" class="edge">
<title>Node11&#45;&gt;Node12</title>
<path fill="none" stroke="midnightblue" d="M225.49,-336.08C226.29,-328.93 227.43,-318.64 228.42,-309.69"/>
<polygon fill="midnightblue" stroke="midnightblue" points="231.9,-310.08 229.53,-299.75 224.94,-309.3 231.9,-310.08"/>
</g>
<!-- Node15 -->
<g id="node15" class="node">
<title>Node15</title>
<g id="a_node15"><a xlink:href="_natural_8h.html" target="_top" xlink:title="The Natural specification and body provides a value object type for naturals (positive integers with ...">
<polygon fill="white" stroke="black" points="194.5,-112.5 194.5,-131.5 250.5,-131.5 250.5,-112.5 194.5,-112.5"/>
<text text-anchor="middle" x="222.5" y="-119.5" font-family="Helvetica,sans-Serif" font-size="10.00">Natural.h</text>
</a>
</g>
</g>
<!-- Node11&#45;&gt;Node15 -->
<g id="edge15" class="edge">
<title>Node11&#45;&gt;Node15</title>
<path fill="none" stroke="midnightblue" d="M215.48,-336.34C207.43,-327.93 196.2,-314.36 191.5,-300 173.02,-243.55 199.18,-173.16 213.79,-140.79"/>
<polygon fill="midnightblue" stroke="midnightblue" points="216.99,-142.23 218.06,-131.69 210.65,-139.25 216.99,-142.23"/>
</g>
<!-- Node13 -->
<g id="node13" class="node">
<title>Node13</title>
<g id="a_node13"><a xlink:href="_my_string_8h.html" target="_top" xlink:title="The String specification defines a standard string type.">
<polygon fill="white" stroke="black" points="10.5,-56.5 10.5,-75.5 74.5,-75.5 74.5,-56.5 10.5,-56.5"/>
<text text-anchor="middle" x="42.5" y="-63.5" font-family="Helvetica,sans-Serif" font-size="10.00">MyString.h</text>
</a>
</g>
</g>
<!-- Node12&#45;&gt;Node13 -->
<g id="edge12" class="edge">
<title>Node12&#45;&gt;Node13</title>
<path fill="none" stroke="midnightblue" d="M223.13,-280.3C195,-247.08 94.09,-127.92 56.63,-83.68"/>
<polygon fill="midnightblue" stroke="midnightblue" points="59.16,-81.25 50.02,-75.88 53.81,-85.78 59.16,-81.25"/>
</g>
<!-- Node13&#45;&gt;Node4 -->
<g id="edge13" class="edge">
<title>Node13&#45;&gt;Node4</title>
<path fill="none" stroke="midnightblue" d="M55.67,-56.32C68.35,-47.98 87.73,-35.21 102.71,-25.35"/>
<polygon fill="midnightblue" stroke="midnightblue" points="104.93,-28.08 111.36,-19.65 101.08,-22.23 104.93,-28.08"/>
</g>
<!-- Node14 -->
<g id="node14" class="node">
<title>Node14</title>
<g id="a_node14"><a xlink:href="_global_macros_8h.html" target="_top" xlink:title="The GlobalMacros specification defines simple macros (e.g. for parameter modes).">
<polygon fill="white" stroke="black" points="0,-0.5 0,-19.5 85,-19.5 85,-0.5 0,-0.5"/>
<text text-anchor="middle" x="42.5" y="-7.5" font-family="Helvetica,sans-Serif" font-size="10.00">GlobalMacros.h</text>
</a>
</g>
</g>
<!-- Node13&#45;&gt;Node14 -->
<g id="edge14" class="edge">
<title>Node13&#45;&gt;Node14</title>
<path fill="none" stroke="midnightblue" d="M42.5,-56.08C42.5,-49.01 42.5,-38.86 42.5,-29.99"/>
<polygon fill="midnightblue" stroke="midnightblue" points="46,-29.75 42.5,-19.75 39,-29.75 46,-29.75"/>
</g>
<!-- Node15&#45;&gt;Node2 -->
<g id="edge17" class="edge">
<title>Node15&#45;&gt;Node2</title>
<path fill="none" stroke="midnightblue" d="M206.92,-112.32C191.5,-103.74 167.69,-90.49 149.79,-80.52"/>
<polygon fill="midnightblue" stroke="midnightblue" points="151.49,-77.46 141.05,-75.65 148.08,-83.58 151.49,-77.46"/>
</g>
<!-- Node15&#45;&gt;Node13 -->
<g id="edge19" class="edge">
<title>Node15&#45;&gt;Node13</title>
<path fill="none" stroke="midnightblue" d="M194.38,-112.56C163.78,-103.38 114.69,-88.66 80.63,-78.44"/>
<polygon fill="midnightblue" stroke="midnightblue" points="81.61,-75.08 71.02,-75.56 79.59,-81.78 81.61,-75.08"/>
</g>
<!-- Node16 -->
<g id="node16" class="node">
<title>Node16</title>
<g id="a_node16"><a xlink:title=" ">
<polygon fill="white" stroke="#bfbfbf" points="369.5,-56.5 369.5,-75.5 413.5,-75.5 413.5,-56.5 369.5,-56.5"/>
<text text-anchor="middle" x="391.5" y="-63.5" font-family="Helvetica,sans-Serif" font-size="10.00">cmath</text>
</a>
</g>
</g>
<!-- Node15&#45;&gt;Node16 -->
<g id="edge16" class="edge">
<title>Node15&#45;&gt;Node16</title>
<path fill="none" stroke="midnightblue" d="M249.28,-112.44C279.26,-102.86 327.81,-87.35 359.7,-77.16"/>
<polygon fill="midnightblue" stroke="midnightblue" points="360.96,-80.43 369.42,-74.05 358.83,-73.76 360.96,-80.43"/>
</g>
<!-- Node17 -->
<g id="node17" class="node">
<title>Node17</title>
<g id="a_node17"><a xlink:title=" ">
<polygon fill="white" stroke="#bfbfbf" points="176.5,-56.5 176.5,-75.5 268.5,-75.5 268.5,-56.5 176.5,-56.5"/>
<text text-anchor="middle" x="222.5" y="-63.5" font-family="Helvetica,sans-Serif" font-size="10.00">GenericNumber.h</text>
</a>
</g>
</g>
<!-- Node15&#45;&gt;Node17 -->
<g id="edge18" class="edge">
<title>Node15&#45;&gt;Node17</title>
<path fill="none" stroke="midnightblue" d="M222.5,-112.08C222.5,-105.01 222.5,-94.86 222.5,-85.99"/>
<polygon fill="midnightblue" stroke="midnightblue" points="226,-85.75 222.5,-75.75 219,-85.75 226,-85.75"/>
</g>
<!-- Node18&#45;&gt;Node12 -->
<g id="edge21" class="edge">
<title>Node18&#45;&gt;Node12</title>
<path fill="none" stroke="midnightblue" d="M306.88,-336.32C292.55,-327.82 270.49,-314.73 253.75,-304.8"/>
<polygon fill="midnightblue" stroke="midnightblue" points="255.47,-301.75 245.08,-299.65 251.9,-307.77 255.47,-301.75"/>
</g>
<!-- Node19 -->
<g id="node19" class="node">
<title>Node19</title>
<g id="a_node19"><a xlink:href="_character_8h.html" target="_top" xlink:title="The Character specification and body provides a value object type for character values.">
<polygon fill="white" stroke="black" points="347,-224.5 347,-243.5 414,-243.5 414,-224.5 347,-224.5"/>
<text text-anchor="middle" x="380.5" y="-231.5" font-family="Helvetica,sans-Serif" font-size="10.00">Character.h</text>
</a>
</g>
</g>
<!-- Node18&#45;&gt;Node19 -->
<g id="edge22" class="edge">
<title>Node18&#45;&gt;Node19</title>
<path fill="none" stroke="midnightblue" d="M331.43,-336.3C340.48,-327.86 353.6,-314.27 361.5,-300 369.51,-285.53 374.45,-267.35 377.28,-253.89"/>
<polygon fill="midnightblue" stroke="midnightblue" points="380.75,-254.37 379.18,-243.89 373.88,-253.06 380.75,-254.37"/>
</g>
<!-- Node22 -->
<g id="node22" class="node">
<title>Node22</title>
<g id="a_node22"><a xlink:href="_percentage_8h.html" target="_top" xlink:title="The Percentage specification and body provides a simple percentage type.">
<polygon fill="white" stroke="black" points="278.5,-280.5 278.5,-299.5 352.5,-299.5 352.5,-280.5 278.5,-280.5"/>
<text text-anchor="middle" x="315.5" y="-287.5" font-family="Helvetica,sans-Serif" font-size="10.00">Percentage.h</text>
</a>
</g>
</g>
<!-- Node18&#45;&gt;Node22 -->
<g id="edge28" class="edge">
<title>Node18&#45;&gt;Node22</title>
<path fill="none" stroke="midnightblue" d="M320.51,-336.08C319.71,-328.93 318.57,-318.64 317.58,-309.69"/>
<polygon fill="midnightblue" stroke="midnightblue" points="321.06,-309.3 316.47,-299.75 314.1,-310.08 321.06,-309.3"/>
</g>
<!-- Node25 -->
<g id="node25" class="node">
<title>Node25</title>
<g id="a_node25"><a xlink:href="_string_list_8h.html" target="_top" xlink:title="The StringList specification defines lists of string values with zero&#45;based arbitrary indexed access ...">
<polygon fill="white" stroke="black" points="435.5,-280.5 435.5,-299.5 501.5,-299.5 501.5,-280.5 435.5,-280.5"/>
<text text-anchor="middle" x="468.5" y="-287.5" font-family="Helvetica,sans-Serif" font-size="10.00">StringList.h</text>
</a>
</g>
</g>
<!-- Node18&#45;&gt;Node25 -->
<g id="edge34" class="edge">
<title>Node18&#45;&gt;Node25</title>
<path fill="none" stroke="midnightblue" d="M344.79,-336.44C369.31,-327.44 408.1,-313.19 435.7,-303.05"/>
<polygon fill="midnightblue" stroke="midnightblue" points="437.14,-306.25 445.32,-299.52 434.72,-299.68 437.14,-306.25"/>
</g>
<!-- Node19&#45;&gt;Node16 -->
<g id="edge23" class="edge">
<title>Node19&#45;&gt;Node16</title>
<path fill="none" stroke="midnightblue" d="M387.95,-224.19C395.03,-215.47 405.6,-201.49 412.5,-188 424.46,-164.6 427.22,-157.93 431.5,-132 432.95,-123.23 434.66,-120.31 431.5,-112 427.16,-100.6 418.47,-90.24 410.29,-82.34"/>
<polygon fill="midnightblue" stroke="midnightblue" points="412.54,-79.66 402.77,-75.57 407.86,-84.86 412.54,-79.66"/>
</g>
<!-- Node20 -->
<g id="node20" class="node">
<title>Node20</title>
<g id="a_node20"><a xlink:href="_byte_8h.html" target="_top" xlink:title="The Byte specification and body provides a value object type for byte values.">
<polygon fill="white" stroke="black" points="359,-168.5 359,-187.5 404,-187.5 404,-168.5 359,-168.5"/>
<text text-anchor="middle" x="381.5" y="-175.5" font-family="Helvetica,sans-Serif" font-size="10.00">Byte.h</text>
</a>
</g>
</g>
<!-- Node19&#45;&gt;Node20 -->
<g id="edge24" class="edge">
<title>Node19&#45;&gt;Node20</title>
<path fill="none" stroke="midnightblue" d="M380.67,-224.08C380.8,-217.01 380.98,-206.86 381.15,-197.99"/>
<polygon fill="midnightblue" stroke="midnightblue" points="384.65,-197.81 381.34,-187.75 377.65,-197.68 384.65,-197.81"/>
</g>
<!-- Node20&#45;&gt;Node15 -->
<g id="edge27" class="edge">
<title>Node20&#45;&gt;Node15</title>
<path fill="none" stroke="midnightblue" d="M358.72,-169.26C332.14,-160.24 287.92,-145.22 257.1,-134.75"/>
<polygon fill="midnightblue" stroke="midnightblue" points="258.19,-131.43 247.6,-131.52 255.94,-138.05 258.19,-131.43"/>
</g>
<!-- Node20&#45;&gt;Node16 -->
<g id="edge25" class="edge">
<title>Node20&#45;&gt;Node16</title>
<path fill="none" stroke="midnightblue" d="M391.06,-168.45C399.59,-160.12 411.49,-146.6 416.5,-132 422.12,-115.62 413.63,-97.22 405.05,-84.19"/>
<polygon fill="midnightblue" stroke="midnightblue" points="407.67,-81.84 398.99,-75.76 401.98,-85.92 407.67,-81.84"/>
</g>
<!-- Node21 -->
<g id="node21" class="node">
<title>Node21</title>
<g id="a_node21"><a xlink:title=" ">
<polygon fill="white" stroke="#bfbfbf" points="361.5,-112.5 361.5,-131.5 407.5,-131.5 407.5,-112.5 361.5,-112.5"/>
<text text-anchor="middle" x="384.5" y="-119.5" font-family="Helvetica,sans-Serif" font-size="10.00">cstdint</text>
</a>
</g>
</g>
<!-- Node20&#45;&gt;Node21 -->
<g id="edge26" class="edge">
<title>Node20&#45;&gt;Node21</title>
<path fill="none" stroke="midnightblue" d="M382,-168.08C382.39,-161.01 382.95,-150.86 383.45,-141.99"/>
<polygon fill="midnightblue" stroke="midnightblue" points="386.95,-141.93 384.01,-131.75 379.96,-141.54 386.95,-141.93"/>
</g>
<!-- Node23 -->
<g id="node23" class="node">
<title>Node23</title>
<g id="a_node23"><a xlink:href="_real_8h.html" target="_top" xlink:title="The Real specification defines a value object type for real values.">
<polygon fill="white" stroke="black" points="281.5,-224.5 281.5,-243.5 325.5,-243.5 325.5,-224.5 281.5,-224.5"/>
<text text-anchor="middle" x="303.5" y="-231.5" font-family="Helvetica,sans-Serif" font-size="10.00">Real.h</text>
</a>
</g>
</g>
<!-- Node22&#45;&gt;Node23 -->
<g id="edge29" class="edge">
<title>Node22&#45;&gt;Node23</title>
<path fill="none" stroke="midnightblue" d="M313.52,-280.08C311.93,-272.93 309.64,-262.64 307.65,-253.69"/>
<polygon fill="midnightblue" stroke="midnightblue" points="311.03,-252.75 305.44,-243.75 304.2,-254.27 311.03,-252.75"/>
</g>
<!-- Node24 -->
<g id="node24" class="node">
<title>Node24</title>
<g id="a_node24"><a xlink:href="_integer_8h.html" target="_top" xlink:title="The Integer specification and body provides a value object type for ints.">
<polygon fill="white" stroke="black" points="274.5,-168.5 274.5,-187.5 328.5,-187.5 328.5,-168.5 274.5,-168.5"/>
<text text-anchor="middle" x="301.5" y="-175.5" font-family="Helvetica,sans-Serif" font-size="10.00">Integer.h</text>
</a>
</g>
</g>
<!-- Node23&#45;&gt;Node24 -->
<g id="edge30" class="edge">
<title>Node23&#45;&gt;Node24</title>
<path fill="none" stroke="midnightblue" d="M303.17,-224.08C302.91,-217.01 302.53,-206.86 302.2,-197.99"/>
<polygon fill="midnightblue" stroke="midnightblue" points="305.69,-197.61 301.82,-187.75 298.7,-197.87 305.69,-197.61"/>
</g>
<!-- Node24&#45;&gt;Node3 -->
<g id="edge32" class="edge">
<title>Node24&#45;&gt;Node3</title>
<path fill="none" stroke="midnightblue" d="M301.07,-168.41C299.79,-148.04 294.91,-95.6 277.5,-56 272.98,-45.71 265.77,-35.5 259.25,-27.42"/>
<polygon fill="midnightblue" stroke="midnightblue" points="261.73,-24.94 252.6,-19.57 256.4,-29.46 261.73,-24.94"/>
</g>
<!-- Node24&#45;&gt;Node15 -->
<g id="edge33" class="edge">
<title>Node24&#45;&gt;Node15</title>
<path fill="none" stroke="midnightblue" d="M288.81,-168.32C276.6,-159.98 257.92,-147.21 243.5,-137.35"/>
<polygon fill="midnightblue" stroke="midnightblue" points="245.39,-134.41 235.16,-131.65 241.44,-140.19 245.39,-134.41"/>
</g>
<!-- Node24&#45;&gt;Node16 -->
<g id="edge31" class="edge">
<title>Node24&#45;&gt;Node16</title>
<path fill="none" stroke="midnightblue" d="M307.97,-168.48C317.53,-155.96 336.07,-131.92 352.5,-112 360.49,-102.31 369.68,-91.68 377.13,-83.19"/>
<polygon fill="midnightblue" stroke="midnightblue" points="379.91,-85.34 383.9,-75.52 374.66,-80.7 379.91,-85.34"/>
</g>
<!-- Node25&#45;&gt;Node8 -->
<g id="edge36" class="edge">
<title>Node25&#45;&gt;Node8</title>
<path fill="none" stroke="midnightblue" d="M483.28,-280.32C497.77,-271.82 520.07,-258.73 536.99,-248.8"/>
<polygon fill="midnightblue" stroke="midnightblue" points="538.9,-251.74 545.76,-243.65 535.36,-245.7 538.9,-251.74"/>
</g>
<!-- Node26 -->
<g id="node26" class="node">
<title>Node26</title>
<g id="a_node26"><a xlink:title=" ">
<polygon fill="white" stroke="#bfbfbf" points="432,-224.5 432,-243.5 505,-243.5 505,-224.5 432,-224.5"/>
<text text-anchor="middle" x="468.5" y="-231.5" font-family="Helvetica,sans-Serif" font-size="10.00">initializer_list</text>
</a>
</g>
</g>
<!-- Node25&#45;&gt;Node26 -->
<g id="edge35" class="edge">
<title>Node25&#45;&gt;Node26</title>
<path fill="none" stroke="midnightblue" d="M468.5,-280.08C468.5,-273.01 468.5,-262.86 468.5,-253.99"/>
<polygon fill="midnightblue" stroke="midnightblue" points="472,-253.75 468.5,-243.75 465,-253.75 472,-253.75"/>
</g>
</g>
</svg>
