<?xml version="1.0" encoding="UTF-8" standalone="no"?>
<!DOCTYPE svg PUBLIC "-//W3C//DTD SVG 1.1//EN"
 "http://www.w3.org/Graphics/SVG/1.1/DTD/svg11.dtd">
<!-- Generated by graphviz version 2.47.1 (20210417.1919)
 -->
<!-- Title: CommandLineArguments.h Pages: 1 -->
<svg width="396pt" height="599pt"
 viewBox="0.00 0.00 395.50 599.00" xmlns="http://www.w3.org/2000/svg" xmlns:xlink="http://www.w3.org/1999/xlink">
<g id="graph0" class="graph" transform="scale(1 1) rotate(0) translate(4 595)">
<title>CommandLineArguments.h</title>
<polygon fill="white" stroke="transparent" points="-4,4 -4,-595 391.5,-595 391.5,4 -4,4"/>
<!-- Node1 -->
<g id="node1" class="node">
<title>Node1</title>
<g id="a_node1"><a xlink:title="The CommandLineArguments specification defines a handler for command&#45;line arguments converting them t...">
<polygon fill="#bfbfbf" stroke="black" points="0,-570.5 0,-590.5 151,-590.5 151,-570.5 0,-570.5"/>
<text text-anchor="middle" x="75.5" y="-577.7" font-family="Helvetica,sans-Serif" font-size="11.00">CommandLineArguments.h</text>
</a>
</g>
</g>
<!-- Node2 -->
<g id="node2" class="node">
<title>Node2</title>
<g id="a_node2"><a xlink:href="_dictionary_8h.html" target="_top" xlink:title="The Dictionary specification defines maps from string keys to string values.">
<polygon fill="white" stroke="black" points="82.5,-513.5 82.5,-533.5 156.5,-533.5 156.5,-513.5 82.5,-513.5"/>
<text text-anchor="middle" x="119.5" y="-520.7" font-family="Helvetica,sans-Serif" font-size="11.00">Dictionary.h</text>
</a>
</g>
</g>
<!-- Node1&#45;&gt;Node2 -->
<g id="edge1" class="edge">
<title>Node1&#45;&gt;Node2</title>
<path fill="none" stroke="midnightblue" d="M82.77,-570.42C88.97,-562.66 98.07,-551.29 105.66,-541.8"/>
<polygon fill="midnightblue" stroke="midnightblue" points="108.56,-543.77 112.08,-533.78 103.1,-539.4 108.56,-543.77"/>
</g>
<!-- Node20 -->
<g id="node20" class="node">
<title>Node20</title>
<g id="a_node20"><a xlink:href="_generic_sequence_8h.html" target="_top" xlink:title="The GenericSequence specification and body defines a generic sequence type of values with zero&#45;based ...">
<polygon fill="white" stroke="black" points="34,-342.5 34,-362.5 147,-362.5 147,-342.5 34,-342.5"/>
<text text-anchor="middle" x="90.5" y="-349.7" font-family="Helvetica,sans-Serif" font-size="11.00">GenericSequence.h</text>
</a>
</g>
</g>
<!-- Node1&#45;&gt;Node20 -->
<g id="edge31" class="edge">
<title>Node1&#45;&gt;Node20</title>
<path fill="none" stroke="midnightblue" d="M72.65,-570.26C64.79,-543.28 44.53,-462.48 62.5,-399 65.36,-388.88 71.18,-378.81 76.77,-370.72"/>
<polygon fill="midnightblue" stroke="midnightblue" points="79.69,-372.65 82.82,-362.53 74.07,-368.49 79.69,-372.65"/>
</g>
<!-- Node3 -->
<g id="node3" class="node">
<title>Node3</title>
<g id="a_node3"><a xlink:title=" ">
<polygon fill="white" stroke="#bfbfbf" points="100.5,-456.5 100.5,-476.5 138.5,-476.5 138.5,-456.5 100.5,-456.5"/>
<text text-anchor="middle" x="119.5" y="-463.7" font-family="Helvetica,sans-Serif" font-size="11.00">map</text>
</a>
</g>
</g>
<!-- Node2&#45;&gt;Node3 -->
<g id="edge2" class="edge">
<title>Node2&#45;&gt;Node3</title>
<path fill="none" stroke="midnightblue" d="M119.5,-513.42C119.5,-506.22 119.5,-495.9 119.5,-486.86"/>
<polygon fill="midnightblue" stroke="midnightblue" points="123,-486.78 119.5,-476.78 116,-486.78 123,-486.78"/>
</g>
<!-- Node4 -->
<g id="node4" class="node">
<title>Node4</title>
<g id="a_node4"><a xlink:href="_string_util_8h.html" target="_top" xlink:title="The StringUtil specification defines several string routines not included in the standard C++ library...">
<polygon fill="white" stroke="black" points="162,-456.5 162,-476.5 231,-476.5 231,-456.5 162,-456.5"/>
<text text-anchor="middle" x="196.5" y="-463.7" font-family="Helvetica,sans-Serif" font-size="11.00">StringUtil.h</text>
</a>
</g>
</g>
<!-- Node2&#45;&gt;Node4 -->
<g id="edge3" class="edge">
<title>Node2&#45;&gt;Node4</title>
<path fill="none" stroke="midnightblue" d="M132.21,-513.42C143.92,-505.06 161.5,-492.5 175.33,-482.62"/>
<polygon fill="midnightblue" stroke="midnightblue" points="177.66,-485.26 183.77,-476.6 173.59,-479.56 177.66,-485.26"/>
</g>
<!-- Node5 -->
<g id="node5" class="node">
<title>Node5</title>
<g id="a_node5"><a xlink:href="_boolean_8h.html" target="_top" xlink:title="The Boolean specification and body provides a value object type for boolean values.">
<polygon fill="white" stroke="black" points="107,-114.5 107,-134.5 172,-134.5 172,-114.5 107,-114.5"/>
<text text-anchor="middle" x="139.5" y="-121.7" font-family="Helvetica,sans-Serif" font-size="11.00">Boolean.h</text>
</a>
</g>
</g>
<!-- Node4&#45;&gt;Node5 -->
<g id="edge4" class="edge">
<title>Node4&#45;&gt;Node5</title>
<path fill="none" stroke="midnightblue" d="M161.95,-458.71C133.59,-452.03 93.24,-439.87 62.5,-420 28.56,-398.06 0.5,-393.91 0.5,-353.5 0.5,-353.5 0.5,-353.5 0.5,-237.5 0.5,-185.86 59.4,-153.99 100.51,-138.04"/>
<polygon fill="midnightblue" stroke="midnightblue" points="101.87,-141.27 110.02,-134.5 99.43,-134.71 101.87,-141.27"/>
</g>
<!-- Node9 -->
<g id="node9" class="node">
<title>Node9</title>
<g id="a_node9"><a xlink:href="_byte_8h.html" target="_top" xlink:title="The Byte specification and body provides a value object type for byte values.">
<polygon fill="white" stroke="black" points="248,-285.5 248,-305.5 295,-305.5 295,-285.5 248,-285.5"/>
<text text-anchor="middle" x="271.5" y="-292.7" font-family="Helvetica,sans-Serif" font-size="11.00">Byte.h</text>
</a>
</g>
</g>
<!-- Node4&#45;&gt;Node9 -->
<g id="edge8" class="edge">
<title>Node4&#45;&gt;Node9</title>
<path fill="none" stroke="midnightblue" d="M213.33,-456.47C226.24,-448.61 243.34,-435.98 252.5,-420 271.4,-387.03 273.33,-341.36 272.67,-315.8"/>
<polygon fill="midnightblue" stroke="midnightblue" points="276.15,-315.43 272.23,-305.59 269.16,-315.73 276.15,-315.43"/>
</g>
<!-- Node14 -->
<g id="node14" class="node">
<title>Node14</title>
<g id="a_node14"><a xlink:href="_character_8h.html" target="_top" xlink:title="The Character specification and body provides a value object type for character values.">
<polygon fill="white" stroke="black" points="313.5,-285.5 313.5,-305.5 387.5,-305.5 387.5,-285.5 313.5,-285.5"/>
<text text-anchor="middle" x="350.5" y="-292.7" font-family="Helvetica,sans-Serif" font-size="11.00">Character.h</text>
</a>
</g>
</g>
<!-- Node4&#45;&gt;Node14 -->
<g id="edge16" class="edge">
<title>Node4&#45;&gt;Node14</title>
<path fill="none" stroke="midnightblue" d="M216.37,-456.37C232.29,-448.37 254.53,-435.6 270.5,-420 303.11,-388.15 329.12,-340.71 341.9,-314.88"/>
<polygon fill="midnightblue" stroke="midnightblue" points="345.21,-316.06 346.4,-305.53 338.91,-313.02 345.21,-316.06"/>
</g>
<!-- Node15 -->
<g id="node15" class="node">
<title>Node15</title>
<g id="a_node15"><a xlink:href="_percentage_8h.html" target="_top" xlink:title="The Percentage specification and body provides a simple percentage type.">
<polygon fill="white" stroke="black" points="161.5,-399.5 161.5,-419.5 243.5,-419.5 243.5,-399.5 161.5,-399.5"/>
<text text-anchor="middle" x="202.5" y="-406.7" font-family="Helvetica,sans-Serif" font-size="11.00">Percentage.h</text>
</a>
</g>
</g>
<!-- Node4&#45;&gt;Node15 -->
<g id="edge19" class="edge">
<title>Node4&#45;&gt;Node15</title>
<path fill="none" stroke="midnightblue" d="M197.49,-456.42C198.28,-449.22 199.4,-438.9 200.39,-429.86"/>
<polygon fill="midnightblue" stroke="midnightblue" points="203.88,-430.1 201.49,-419.78 196.92,-429.34 203.88,-430.1"/>
</g>
<!-- Node19 -->
<g id="node19" class="node">
<title>Node19</title>
<g id="a_node19"><a xlink:href="_string_list_8h.html" target="_top" xlink:title="The StringList specification defines sequences of string values with zero&#45;based arbitrary indexed acc...">
<polygon fill="white" stroke="black" points="72,-399.5 72,-419.5 143,-419.5 143,-399.5 72,-399.5"/>
<text text-anchor="middle" x="107.5" y="-406.7" font-family="Helvetica,sans-Serif" font-size="11.00">StringList.h</text>
</a>
</g>
</g>
<!-- Node4&#45;&gt;Node19 -->
<g id="edge26" class="edge">
<title>Node4&#45;&gt;Node19</title>
<path fill="none" stroke="midnightblue" d="M181.8,-456.42C168.02,-447.9 147.17,-435.02 131.07,-425.06"/>
<polygon fill="midnightblue" stroke="midnightblue" points="132.57,-421.88 122.22,-419.6 128.89,-427.83 132.57,-421.88"/>
</g>
<!-- Node6 -->
<g id="node6" class="node">
<title>Node6</title>
<g id="a_node6"><a xlink:href="_my_string_8h.html" target="_top" xlink:title="The String specification defines a standard string type.">
<polygon fill="white" stroke="black" points="181.5,-57.5 181.5,-77.5 249.5,-77.5 249.5,-57.5 181.5,-57.5"/>
<text text-anchor="middle" x="215.5" y="-64.7" font-family="Helvetica,sans-Serif" font-size="11.00">MyString.h</text>
</a>
</g>
</g>
<!-- Node5&#45;&gt;Node6 -->
<g id="edge5" class="edge">
<title>Node5&#45;&gt;Node6</title>
<path fill="none" stroke="midnightblue" d="M152.05,-114.42C163.6,-106.06 180.96,-93.5 194.6,-83.62"/>
<polygon fill="midnightblue" stroke="midnightblue" points="196.88,-86.29 202.93,-77.6 192.78,-80.62 196.88,-86.29"/>
</g>
<!-- Node7 -->
<g id="node7" class="node">
<title>Node7</title>
<g id="a_node7"><a xlink:title=" ">
<polygon fill="white" stroke="#bfbfbf" points="150.5,-0.5 150.5,-20.5 194.5,-20.5 194.5,-0.5 150.5,-0.5"/>
<text text-anchor="middle" x="172.5" y="-7.7" font-family="Helvetica,sans-Serif" font-size="11.00">string</text>
</a>
</g>
</g>
<!-- Node6&#45;&gt;Node7 -->
<g id="edge6" class="edge">
<title>Node6&#45;&gt;Node7</title>
<path fill="none" stroke="midnightblue" d="M208.4,-57.42C202.34,-49.66 193.44,-38.29 186.03,-28.8"/>
<polygon fill="midnightblue" stroke="midnightblue" points="188.67,-26.5 179.75,-20.78 183.16,-30.81 188.67,-26.5"/>
</g>
<!-- Node8 -->
<g id="node8" class="node">
<title>Node8</title>
<g id="a_node8"><a xlink:href="_global_macros_8h.html" target="_top" xlink:title="The GlobalMacros specification defines simple macros (e.g. for parameter modes).">
<polygon fill="white" stroke="black" points="212.5,-0.5 212.5,-20.5 304.5,-20.5 304.5,-0.5 212.5,-0.5"/>
<text text-anchor="middle" x="258.5" y="-7.7" font-family="Helvetica,sans-Serif" font-size="11.00">GlobalMacros.h</text>
</a>
</g>
</g>
<!-- Node6&#45;&gt;Node8 -->
<g id="edge7" class="edge">
<title>Node6&#45;&gt;Node8</title>
<path fill="none" stroke="midnightblue" d="M222.6,-57.42C228.66,-49.66 237.56,-38.29 244.97,-28.8"/>
<polygon fill="midnightblue" stroke="midnightblue" points="247.84,-30.81 251.25,-20.78 242.33,-26.5 247.84,-30.81"/>
</g>
<!-- Node10 -->
<g id="node10" class="node">
<title>Node10</title>
<g id="a_node10"><a xlink:title=" ">
<polygon fill="white" stroke="#bfbfbf" points="196,-171.5 196,-191.5 243,-191.5 243,-171.5 196,-171.5"/>
<text text-anchor="middle" x="219.5" y="-178.7" font-family="Helvetica,sans-Serif" font-size="11.00">cmath</text>
</a>
</g>
</g>
<!-- Node9&#45;&gt;Node10 -->
<g id="edge9" class="edge">
<title>Node9&#45;&gt;Node10</title>
<path fill="none" stroke="midnightblue" d="M267.24,-285.33C258.71,-266.96 239.37,-225.29 228.1,-201.01"/>
<polygon fill="midnightblue" stroke="midnightblue" points="231.2,-199.39 223.81,-191.79 224.85,-202.34 231.2,-199.39"/>
</g>
<!-- Node11 -->
<g id="node11" class="node">
<title>Node11</title>
<g id="a_node11"><a xlink:href="_natural_8h.html" target="_top" xlink:title="The Natural specification and body provides a value object type for naturals (positive integers with ...">
<polygon fill="white" stroke="black" points="323.5,-228.5 323.5,-248.5 383.5,-248.5 383.5,-228.5 323.5,-228.5"/>
<text text-anchor="middle" x="353.5" y="-235.7" font-family="Helvetica,sans-Serif" font-size="11.00">Natural.h</text>
</a>
</g>
</g>
<!-- Node9&#45;&gt;Node11 -->
<g id="edge10" class="edge">
<title>Node9&#45;&gt;Node11</title>
<path fill="none" stroke="midnightblue" d="M285.04,-285.42C297.62,-276.98 316.59,-264.26 331.37,-254.34"/>
<polygon fill="midnightblue" stroke="midnightblue" points="333.58,-257.07 339.94,-248.6 329.68,-251.26 333.58,-257.07"/>
</g>
<!-- Node11&#45;&gt;Node6 -->
<g id="edge15" class="edge">
<title>Node11&#45;&gt;Node6</title>
<path fill="none" stroke="midnightblue" d="M358.82,-228.47C363.74,-219.55 370.7,-205.34 373.5,-192 381.17,-155.49 370.83,-138.27 342.5,-114 319,-93.87 285.93,-82.4 259.43,-76.01"/>
<polygon fill="midnightblue" stroke="midnightblue" points="260.15,-72.58 249.62,-73.8 258.61,-79.41 260.15,-72.58"/>
</g>
<!-- Node11&#45;&gt;Node10 -->
<g id="edge11" class="edge">
<title>Node11&#45;&gt;Node10</title>
<path fill="none" stroke="midnightblue" d="M331.37,-228.42C309.45,-219.42 275.68,-205.56 250.97,-195.42"/>
<polygon fill="midnightblue" stroke="midnightblue" points="252.24,-192.15 241.66,-191.6 249.58,-198.63 252.24,-192.15"/>
</g>
<!-- Node12 -->
<g id="node12" class="node">
<title>Node12</title>
<g id="a_node12"><a xlink:href="_generic_number_8h.html" target="_top" xlink:title="The GenericNumber specification and body defines a template for wrapper objects for elementary numeri...">
<polygon fill="white" stroke="black" points="261,-171.5 261,-191.5 364,-191.5 364,-171.5 261,-171.5"/>
<text text-anchor="middle" x="312.5" y="-178.7" font-family="Helvetica,sans-Serif" font-size="11.00">GenericNumber.h</text>
</a>
</g>
</g>
<!-- Node11&#45;&gt;Node12 -->
<g id="edge12" class="edge">
<title>Node11&#45;&gt;Node12</title>
<path fill="none" stroke="midnightblue" d="M346.73,-228.42C340.95,-220.66 332.47,-209.29 325.4,-199.8"/>
<polygon fill="midnightblue" stroke="midnightblue" points="328.2,-197.71 319.42,-191.78 322.59,-201.89 328.2,-197.71"/>
</g>
<!-- Node12&#45;&gt;Node5 -->
<g id="edge14" class="edge">
<title>Node12&#45;&gt;Node5</title>
<path fill="none" stroke="midnightblue" d="M283.93,-171.42C254.92,-162.19 209.82,-147.86 177.74,-137.66"/>
<polygon fill="midnightblue" stroke="midnightblue" points="178.41,-134.2 167.82,-134.5 176.29,-140.87 178.41,-134.2"/>
</g>
<!-- Node13 -->
<g id="node13" class="node">
<title>Node13</title>
<g id="a_node13"><a xlink:title=" ">
<polygon fill="white" stroke="#bfbfbf" points="291.5,-114.5 291.5,-134.5 333.5,-134.5 333.5,-114.5 291.5,-114.5"/>
<text text-anchor="middle" x="312.5" y="-121.7" font-family="Helvetica,sans-Serif" font-size="11.00">limits</text>
</a>
</g>
</g>
<!-- Node12&#45;&gt;Node13 -->
<g id="edge13" class="edge">
<title>Node12&#45;&gt;Node13</title>
<path fill="none" stroke="midnightblue" d="M312.5,-171.42C312.5,-164.22 312.5,-153.9 312.5,-144.86"/>
<polygon fill="midnightblue" stroke="midnightblue" points="316,-144.78 312.5,-134.78 309,-144.78 316,-144.78"/>
</g>
<!-- Node14&#45;&gt;Node10 -->
<g id="edge17" class="edge">
<title>Node14&#45;&gt;Node10</title>
<path fill="none" stroke="midnightblue" d="M339.78,-285.33C317.52,-266.3 266.04,-222.29 238.19,-198.48"/>
<polygon fill="midnightblue" stroke="midnightblue" points="240.24,-195.63 230.37,-191.79 235.69,-200.95 240.24,-195.63"/>
</g>
<!-- Node14&#45;&gt;Node11 -->
<g id="edge18" class="edge">
<title>Node14&#45;&gt;Node11</title>
<path fill="none" stroke="midnightblue" d="M351,-285.42C351.39,-278.22 351.95,-267.9 352.44,-258.86"/>
<polygon fill="midnightblue" stroke="midnightblue" points="355.94,-258.96 352.99,-248.78 348.95,-258.57 355.94,-258.96"/>
</g>
<!-- Node16 -->
<g id="node16" class="node">
<title>Node16</title>
<g id="a_node16"><a xlink:href="_real_8h.html" target="_top" xlink:title="The Real specification defines a value object type for real values.">
<polygon fill="white" stroke="black" points="178.5,-342.5 178.5,-362.5 226.5,-362.5 226.5,-342.5 178.5,-342.5"/>
<text text-anchor="middle" x="202.5" y="-349.7" font-family="Helvetica,sans-Serif" font-size="11.00">Real.h</text>
</a>
</g>
</g>
<!-- Node15&#45;&gt;Node16 -->
<g id="edge20" class="edge">
<title>Node15&#45;&gt;Node16</title>
<path fill="none" stroke="midnightblue" d="M202.5,-399.42C202.5,-392.22 202.5,-381.9 202.5,-372.86"/>
<polygon fill="midnightblue" stroke="midnightblue" points="206,-372.78 202.5,-362.78 199,-372.78 206,-372.78"/>
</g>
<!-- Node16&#45;&gt;Node10 -->
<g id="edge21" class="edge">
<title>Node16&#45;&gt;Node10</title>
<path fill="none" stroke="midnightblue" d="M203.41,-342.41C206.08,-315.94 213.88,-238.42 217.55,-201.92"/>
<polygon fill="midnightblue" stroke="midnightblue" points="221.06,-201.93 218.58,-191.63 214.1,-201.23 221.06,-201.93"/>
</g>
<!-- Node17 -->
<g id="node17" class="node">
<title>Node17</title>
<g id="a_node17"><a xlink:href="_integer_8h.html" target="_top" xlink:title="The Integer specification and body provides a value object type for ints.">
<polygon fill="white" stroke="black" points="132,-285.5 132,-305.5 191,-305.5 191,-285.5 132,-285.5"/>
<text text-anchor="middle" x="161.5" y="-292.7" font-family="Helvetica,sans-Serif" font-size="11.00">Integer.h</text>
</a>
</g>
</g>
<!-- Node16&#45;&gt;Node17 -->
<g id="edge22" class="edge">
<title>Node16&#45;&gt;Node17</title>
<path fill="none" stroke="midnightblue" d="M195.73,-342.42C189.95,-334.66 181.47,-323.29 174.4,-313.8"/>
<polygon fill="midnightblue" stroke="midnightblue" points="177.2,-311.71 168.42,-305.78 171.59,-315.89 177.2,-311.71"/>
</g>
<!-- Node17&#45;&gt;Node10 -->
<g id="edge23" class="edge">
<title>Node17&#45;&gt;Node10</title>
<path fill="none" stroke="midnightblue" d="M148.26,-285.47C131.19,-272.67 105.22,-248.55 118.5,-228 133.32,-205.07 162.77,-193.58 186.06,-187.89"/>
<polygon fill="midnightblue" stroke="midnightblue" points="186.91,-191.29 195.93,-185.73 185.42,-184.45 186.91,-191.29"/>
</g>
<!-- Node17&#45;&gt;Node11 -->
<g id="edge25" class="edge">
<title>Node17&#45;&gt;Node11</title>
<path fill="none" stroke="midnightblue" d="M191.08,-286.03C223.87,-276.63 276.93,-261.43 313.43,-250.98"/>
<polygon fill="midnightblue" stroke="midnightblue" points="314.6,-254.28 323.25,-248.16 312.68,-247.55 314.6,-254.28"/>
</g>
<!-- Node18 -->
<g id="node18" class="node">
<title>Node18</title>
<g id="a_node18"><a xlink:title=" ">
<polygon fill="white" stroke="#bfbfbf" points="127.5,-228.5 127.5,-248.5 191.5,-248.5 191.5,-228.5 127.5,-228.5"/>
<text text-anchor="middle" x="159.5" y="-235.7" font-family="Helvetica,sans-Serif" font-size="11.00">stdexcept</text>
</a>
</g>
</g>
<!-- Node17&#45;&gt;Node18 -->
<g id="edge24" class="edge">
<title>Node17&#45;&gt;Node18</title>
<path fill="none" stroke="midnightblue" d="M161.17,-285.42C160.91,-278.22 160.53,-267.9 160.2,-258.86"/>
<polygon fill="midnightblue" stroke="midnightblue" points="163.7,-258.65 159.84,-248.78 156.7,-258.9 163.7,-258.65"/>
</g>
<!-- Node19&#45;&gt;Node20 -->
<g id="edge27" class="edge">
<title>Node19&#45;&gt;Node20</title>
<path fill="none" stroke="midnightblue" d="M104.69,-399.42C102.44,-392.14 99.21,-381.67 96.39,-372.57"/>
<polygon fill="midnightblue" stroke="midnightblue" points="99.67,-371.3 93.37,-362.78 92.98,-373.37 99.67,-371.3"/>
</g>
<!-- Node20&#45;&gt;Node5 -->
<g id="edge29" class="edge">
<title>Node20&#45;&gt;Node5</title>
<path fill="none" stroke="midnightblue" d="M81.17,-342.39C73.14,-333.86 62.14,-320.29 57.5,-306 54.62,-297.12 55.3,-294.07 57.5,-285 70.99,-229.26 107.51,-171.17 126.94,-142.96"/>
<polygon fill="midnightblue" stroke="midnightblue" points="129.94,-144.78 132.82,-134.58 124.21,-140.76 129.94,-144.78"/>
</g>
<!-- Node20&#45;&gt;Node17 -->
<g id="edge30" class="edge">
<title>Node20&#45;&gt;Node17</title>
<path fill="none" stroke="midnightblue" d="M102.22,-342.42C112.85,-334.19 128.73,-321.88 141.38,-312.08"/>
<polygon fill="midnightblue" stroke="midnightblue" points="143.76,-314.67 149.52,-305.78 139.47,-309.14 143.76,-314.67"/>
</g>
<!-- Node21 -->
<g id="node21" class="node">
<title>Node21</title>
<g id="a_node21"><a xlink:title=" ">
<polygon fill="white" stroke="#bfbfbf" points="67,-285.5 67,-305.5 114,-305.5 114,-285.5 67,-285.5"/>
<text text-anchor="middle" x="90.5" y="-292.7" font-family="Helvetica,sans-Serif" font-size="11.00">vector</text>
</a>
</g>
</g>
<!-- Node20&#45;&gt;Node21 -->
<g id="edge28" class="edge">
<title>Node20&#45;&gt;Node21</title>
<path fill="none" stroke="midnightblue" d="M90.5,-342.42C90.5,-335.22 90.5,-324.9 90.5,-315.86"/>
<polygon fill="midnightblue" stroke="midnightblue" points="94,-315.78 90.5,-305.78 87,-315.78 94,-315.78"/>
</g>
</g>
</svg>
