<?xml version="1.0" encoding="UTF-8" standalone="no"?>
<!DOCTYPE svg PUBLIC "-//W3C//DTD SVG 1.1//EN"
 "http://www.w3.org/Graphics/SVG/1.1/DTD/svg11.dtd">
<!-- Generated by graphviz version 2.47.1 (20210417.1919)
 -->
<!-- Title: CommandLineArguments.cpp Pages: 1 -->
<svg width="577pt" height="476pt"
 viewBox="0.00 0.00 577.00 476.00" xmlns="http://www.w3.org/2000/svg" xmlns:xlink="http://www.w3.org/1999/xlink">
<g id="graph0" class="graph" transform="scale(1 1) rotate(0) translate(4 472)">
<title>CommandLineArguments.cpp</title>
<polygon fill="white" stroke="transparent" points="-4,4 -4,-472 573,-472 573,4 -4,4"/>
<!-- Node1 -->
<g id="node1" class="node">
<title>Node1</title>
<g id="a_node1"><a xlink:title="The CommandLineArguments body implements a handler for command&#45;line arguments converting them to a li...">
<polygon fill="#bfbfbf" stroke="black" points="188,-448.5 188,-467.5 333,-467.5 333,-448.5 188,-448.5"/>
<text text-anchor="middle" x="260.5" y="-455.5" font-family="Helvetica,sans-Serif" font-size="10.00">CommandLineArguments.cpp</text>
</a>
</g>
</g>
<!-- Node2 -->
<g id="node2" class="node">
<title>Node2</title>
<g id="a_node2"><a xlink:href="_assertion_8h.html" target="_top" xlink:title="The Assertion specification defines macros for pre&#45; and postconditions in functions or methods.">
<polygon fill="white" stroke="black" points="92.5,-56.5 92.5,-75.5 158.5,-75.5 158.5,-56.5 92.5,-56.5"/>
<text text-anchor="middle" x="125.5" y="-63.5" font-family="Helvetica,sans-Serif" font-size="10.00">Assertion.h</text>
</a>
</g>
</g>
<!-- Node1&#45;&gt;Node2 -->
<g id="edge1" class="edge">
<title>Node1&#45;&gt;Node2</title>
<path fill="none" stroke="midnightblue" d="M206.49,-448.45C151.89,-436.36 75.5,-408.47 75.5,-347 75.5,-347 75.5,-347 75.5,-233 75.5,-177 101.91,-114.71 116.34,-84.86"/>
<polygon fill="midnightblue" stroke="midnightblue" points="119.57,-86.23 120.89,-75.72 113.3,-83.12 119.57,-86.23"/>
</g>
<!-- Node5 -->
<g id="node5" class="node">
<title>Node5</title>
<g id="a_node5"><a xlink:href="_command_line_arguments_8h.html" target="_top" xlink:title="The CommandLineArguments specification defines a handler for command&#45;line arguments converting them t...">
<polygon fill="white" stroke="black" points="396.5,-392.5 396.5,-411.5 530.5,-411.5 530.5,-392.5 396.5,-392.5"/>
<text text-anchor="middle" x="463.5" y="-399.5" font-family="Helvetica,sans-Serif" font-size="10.00">CommandLineArguments.h</text>
</a>
</g>
</g>
<!-- Node1&#45;&gt;Node5 -->
<g id="edge4" class="edge">
<title>Node1&#45;&gt;Node5</title>
<path fill="none" stroke="midnightblue" d="M292.67,-448.44C327.56,-439.16 383.39,-424.31 421.67,-414.13"/>
<polygon fill="midnightblue" stroke="midnightblue" points="422.72,-417.47 431.48,-411.52 420.92,-410.7 422.72,-417.47"/>
</g>
<!-- Node9 -->
<g id="node9" class="node">
<title>Node9</title>
<g id="a_node9"><a xlink:href="_logging_8h.html" target="_top" xlink:title="The Logging specification defines macros for entry&#45;, exit&#45; and intermediate logging of functions into...">
<polygon fill="white" stroke="black" points="231,-392.5 231,-411.5 290,-411.5 290,-392.5 231,-392.5"/>
<text text-anchor="middle" x="260.5" y="-399.5" font-family="Helvetica,sans-Serif" font-size="10.00">Logging.h</text>
</a>
</g>
</g>
<!-- Node1&#45;&gt;Node9 -->
<g id="edge8" class="edge">
<title>Node1&#45;&gt;Node9</title>
<path fill="none" stroke="midnightblue" d="M260.5,-448.08C260.5,-441.01 260.5,-430.86 260.5,-421.99"/>
<polygon fill="midnightblue" stroke="midnightblue" points="264,-421.75 260.5,-411.75 257,-421.75 264,-421.75"/>
</g>
<!-- Node3 -->
<g id="node3" class="node">
<title>Node3</title>
<g id="a_node3"><a xlink:title=" ">
<polygon fill="white" stroke="#bfbfbf" points="267,-0.5 267,-19.5 326,-19.5 326,-0.5 267,-0.5"/>
<text text-anchor="middle" x="296.5" y="-7.5" font-family="Helvetica,sans-Serif" font-size="10.00">stdexcept</text>
</a>
</g>
</g>
<!-- Node2&#45;&gt;Node3 -->
<g id="edge2" class="edge">
<title>Node2&#45;&gt;Node3</title>
<path fill="none" stroke="midnightblue" d="M152.6,-56.44C181.49,-47.32 227.42,-32.81 259.61,-22.65"/>
<polygon fill="midnightblue" stroke="midnightblue" points="261.05,-25.87 269.53,-19.52 258.94,-19.19 261.05,-25.87"/>
</g>
<!-- Node4 -->
<g id="node4" class="node">
<title>Node4</title>
<g id="a_node4"><a xlink:title=" ">
<polygon fill="white" stroke="#bfbfbf" points="104,-0.5 104,-19.5 145,-19.5 145,-0.5 104,-0.5"/>
<text text-anchor="middle" x="124.5" y="-7.5" font-family="Helvetica,sans-Serif" font-size="10.00">string</text>
</a>
</g>
</g>
<!-- Node2&#45;&gt;Node4 -->
<g id="edge3" class="edge">
<title>Node2&#45;&gt;Node4</title>
<path fill="none" stroke="midnightblue" d="M125.33,-56.08C125.2,-49.01 125.02,-38.86 124.85,-29.99"/>
<polygon fill="midnightblue" stroke="midnightblue" points="128.35,-29.68 124.66,-19.75 121.35,-29.81 128.35,-29.68"/>
</g>
<!-- Node6 -->
<g id="node6" class="node">
<title>Node6</title>
<g id="a_node6"><a xlink:href="_dictionary_8h.html" target="_top" xlink:title="The Dictionary specification defines maps from string keys to string values.">
<polygon fill="white" stroke="black" points="493.5,-336.5 493.5,-355.5 561.5,-355.5 561.5,-336.5 493.5,-336.5"/>
<text text-anchor="middle" x="527.5" y="-343.5" font-family="Helvetica,sans-Serif" font-size="10.00">Dictionary.h</text>
</a>
</g>
</g>
<!-- Node5&#45;&gt;Node6 -->
<g id="edge5" class="edge">
<title>Node5&#45;&gt;Node6</title>
<path fill="none" stroke="midnightblue" d="M473.78,-392.32C483.34,-384.26 497.78,-372.08 509.28,-362.37"/>
<polygon fill="midnightblue" stroke="midnightblue" points="511.64,-364.96 517.03,-355.83 507.13,-359.61 511.64,-364.96"/>
</g>
<!-- Node8 -->
<g id="node8" class="node">
<title>Node8</title>
<g id="a_node8"><a xlink:title=" ">
<polygon fill="white" stroke="#bfbfbf" points="440.5,-224.5 440.5,-243.5 514.5,-243.5 514.5,-224.5 440.5,-224.5"/>
<text text-anchor="middle" x="477.5" y="-231.5" font-family="Helvetica,sans-Serif" font-size="10.00">GenericList.h</text>
</a>
</g>
</g>
<!-- Node5&#45;&gt;Node8 -->
<g id="edge7" class="edge">
<title>Node5&#45;&gt;Node8</title>
<path fill="none" stroke="midnightblue" d="M464.25,-392.08C466.46,-365.95 472.93,-289.21 475.93,-253.58"/>
<polygon fill="midnightblue" stroke="midnightblue" points="479.42,-253.83 476.78,-243.57 472.45,-253.24 479.42,-253.83"/>
</g>
<!-- Node7 -->
<g id="node7" class="node">
<title>Node7</title>
<g id="a_node7"><a xlink:title=" ">
<polygon fill="white" stroke="#bfbfbf" points="492,-280.5 492,-299.5 569,-299.5 569,-280.5 492,-280.5"/>
<text text-anchor="middle" x="530.5" y="-287.5" font-family="Helvetica,sans-Serif" font-size="10.00">GenericMap.h</text>
</a>
</g>
</g>
<!-- Node6&#45;&gt;Node7 -->
<g id="edge6" class="edge">
<title>Node6&#45;&gt;Node7</title>
<path fill="none" stroke="midnightblue" d="M528,-336.08C528.39,-329.01 528.95,-318.86 529.45,-309.99"/>
<polygon fill="midnightblue" stroke="midnightblue" points="532.95,-309.93 530.01,-299.75 525.96,-309.54 532.95,-309.93"/>
</g>
<!-- Node10 -->
<g id="node10" class="node">
<title>Node10</title>
<g id="a_node10"><a xlink:title=" ">
<polygon fill="white" stroke="#bfbfbf" points="311,-336.5 311,-355.5 360,-355.5 360,-336.5 311,-336.5"/>
<text text-anchor="middle" x="335.5" y="-343.5" font-family="Helvetica,sans-Serif" font-size="10.00">cstdarg</text>
</a>
</g>
</g>
<!-- Node9&#45;&gt;Node10 -->
<g id="edge9" class="edge">
<title>Node9&#45;&gt;Node10</title>
<path fill="none" stroke="midnightblue" d="M272.55,-392.32C283.96,-384.11 301.33,-371.6 314.93,-361.81"/>
<polygon fill="midnightblue" stroke="midnightblue" points="317.16,-364.52 323.23,-355.83 313.07,-358.84 317.16,-364.52"/>
</g>
<!-- Node11 -->
<g id="node11" class="node">
<title>Node11</title>
<g id="a_node11"><a xlink:href="_logging_support_8h.html" target="_top" xlink:title="The LoggingSupport specification defines a class for simple entry/exit logging to a file or via an ar...">
<polygon fill="white" stroke="black" points="117.5,-336.5 117.5,-355.5 209.5,-355.5 209.5,-336.5 117.5,-336.5"/>
<text text-anchor="middle" x="163.5" y="-343.5" font-family="Helvetica,sans-Serif" font-size="10.00">LoggingSupport.h</text>
</a>
</g>
</g>
<!-- Node9&#45;&gt;Node11 -->
<g id="edge10" class="edge">
<title>Node9&#45;&gt;Node11</title>
<path fill="none" stroke="midnightblue" d="M244.92,-392.32C229.5,-383.74 205.69,-370.49 187.79,-360.52"/>
<polygon fill="midnightblue" stroke="midnightblue" points="189.49,-357.46 179.05,-355.65 186.08,-363.58 189.49,-357.46"/>
</g>
<!-- Node18 -->
<g id="node18" class="node">
<title>Node18</title>
<g id="a_node18"><a xlink:href="_string_util_8h.html" target="_top" xlink:title="The StringUtil specification defines several string routines not included in the standard C++ library...">
<polygon fill="white" stroke="black" points="228,-336.5 228,-355.5 293,-355.5 293,-336.5 228,-336.5"/>
<text text-anchor="middle" x="260.5" y="-343.5" font-family="Helvetica,sans-Serif" font-size="10.00">StringUtil.h</text>
</a>
</g>
</g>
<!-- Node9&#45;&gt;Node18 -->
<g id="edge20" class="edge">
<title>Node9&#45;&gt;Node18</title>
<path fill="none" stroke="midnightblue" d="M260.5,-392.08C260.5,-385.01 260.5,-374.86 260.5,-365.99"/>
<polygon fill="midnightblue" stroke="midnightblue" points="264,-365.75 260.5,-355.75 257,-365.75 264,-365.75"/>
</g>
<!-- Node12 -->
<g id="node12" class="node">
<title>Node12</title>
<g id="a_node12"><a xlink:href="_boolean_8h.html" target="_top" xlink:title="The Boolean specification and body provides a value object type for boolean values.">
<polygon fill="white" stroke="black" points="151.5,-280.5 151.5,-299.5 211.5,-299.5 211.5,-280.5 151.5,-280.5"/>
<text text-anchor="middle" x="181.5" y="-287.5" font-family="Helvetica,sans-Serif" font-size="10.00">Boolean.h</text>
</a>
</g>
</g>
<!-- Node11&#45;&gt;Node12 -->
<g id="edge11" class="edge">
<title>Node11&#45;&gt;Node12</title>
<path fill="none" stroke="midnightblue" d="M166.47,-336.08C168.88,-328.85 172.36,-318.41 175.37,-309.4"/>
<polygon fill="midnightblue" stroke="midnightblue" points="178.74,-310.34 178.58,-299.75 172.1,-308.13 178.74,-310.34"/>
</g>
<!-- Node15 -->
<g id="node15" class="node">
<title>Node15</title>
<g id="a_node15"><a xlink:href="_natural_8h.html" target="_top" xlink:title="The Natural specification and body provides a value object type for naturals (positive integers with ...">
<polygon fill="white" stroke="black" points="131.5,-112.5 131.5,-131.5 187.5,-131.5 187.5,-112.5 131.5,-112.5"/>
<text text-anchor="middle" x="159.5" y="-119.5" font-family="Helvetica,sans-Serif" font-size="10.00">Natural.h</text>
</a>
</g>
</g>
<!-- Node11&#45;&gt;Node15 -->
<g id="edge15" class="edge">
<title>Node11&#45;&gt;Node15</title>
<path fill="none" stroke="midnightblue" d="M158.12,-336.44C152.94,-327.68 145.49,-313.47 142.5,-300 129.88,-243.12 145.11,-173.9 153.98,-141.45"/>
<polygon fill="midnightblue" stroke="midnightblue" points="157.42,-142.17 156.8,-131.59 150.69,-140.24 157.42,-142.17"/>
</g>
<!-- Node13 -->
<g id="node13" class="node">
<title>Node13</title>
<g id="a_node13"><a xlink:href="_my_string_8h.html" target="_top" xlink:title="The String specification defines a standard string type.">
<polygon fill="white" stroke="black" points="10.5,-56.5 10.5,-75.5 74.5,-75.5 74.5,-56.5 10.5,-56.5"/>
<text text-anchor="middle" x="42.5" y="-63.5" font-family="Helvetica,sans-Serif" font-size="10.00">MyString.h</text>
</a>
</g>
</g>
<!-- Node12&#45;&gt;Node13 -->
<g id="edge12" class="edge">
<title>Node12&#45;&gt;Node13</title>
<path fill="none" stroke="midnightblue" d="M176.05,-280.3C155.38,-247.29 81.57,-129.4 53.47,-84.52"/>
<polygon fill="midnightblue" stroke="midnightblue" points="56.34,-82.5 48.06,-75.88 50.4,-86.22 56.34,-82.5"/>
</g>
<!-- Node13&#45;&gt;Node4 -->
<g id="edge13" class="edge">
<title>Node13&#45;&gt;Node4</title>
<path fill="none" stroke="midnightblue" d="M55.67,-56.32C68.35,-47.98 87.73,-35.21 102.71,-25.35"/>
<polygon fill="midnightblue" stroke="midnightblue" points="104.93,-28.08 111.36,-19.65 101.08,-22.23 104.93,-28.08"/>
</g>
<!-- Node14 -->
<g id="node14" class="node">
<title>Node14</title>
<g id="a_node14"><a xlink:href="_global_macros_8h.html" target="_top" xlink:title="The GlobalMacros specification defines simple macros (e.g. for parameter modes).">
<polygon fill="white" stroke="black" points="0,-0.5 0,-19.5 85,-19.5 85,-0.5 0,-0.5"/>
<text text-anchor="middle" x="42.5" y="-7.5" font-family="Helvetica,sans-Serif" font-size="10.00">GlobalMacros.h</text>
</a>
</g>
</g>
<!-- Node13&#45;&gt;Node14 -->
<g id="edge14" class="edge">
<title>Node13&#45;&gt;Node14</title>
<path fill="none" stroke="midnightblue" d="M42.5,-56.08C42.5,-49.01 42.5,-38.86 42.5,-29.99"/>
<polygon fill="midnightblue" stroke="midnightblue" points="46,-29.75 42.5,-19.75 39,-29.75 46,-29.75"/>
</g>
<!-- Node15&#45;&gt;Node2 -->
<g id="edge17" class="edge">
<title>Node15&#45;&gt;Node2</title>
<path fill="none" stroke="midnightblue" d="M153.89,-112.08C149.13,-104.53 142.18,-93.49 136.35,-84.23"/>
<polygon fill="midnightblue" stroke="midnightblue" points="139.3,-82.35 131.01,-75.75 133.38,-86.08 139.3,-82.35"/>
</g>
<!-- Node15&#45;&gt;Node13 -->
<g id="edge19" class="edge">
<title>Node15&#45;&gt;Node13</title>
<path fill="none" stroke="midnightblue" d="M140.96,-112.44C121.88,-103.64 91.93,-89.81 70.06,-79.72"/>
<polygon fill="midnightblue" stroke="midnightblue" points="71.5,-76.53 60.95,-75.52 68.57,-82.88 71.5,-76.53"/>
</g>
<!-- Node16 -->
<g id="node16" class="node">
<title>Node16</title>
<g id="a_node16"><a xlink:title=" ">
<polygon fill="white" stroke="#bfbfbf" points="286.5,-56.5 286.5,-75.5 330.5,-75.5 330.5,-56.5 286.5,-56.5"/>
<text text-anchor="middle" x="308.5" y="-63.5" font-family="Helvetica,sans-Serif" font-size="10.00">cmath</text>
</a>
</g>
</g>
<!-- Node15&#45;&gt;Node16 -->
<g id="edge16" class="edge">
<title>Node15&#45;&gt;Node16</title>
<path fill="none" stroke="midnightblue" d="M183.11,-112.44C208.4,-103.28 248.67,-88.68 276.72,-78.52"/>
<polygon fill="midnightblue" stroke="midnightblue" points="278.25,-81.69 286.46,-74.99 275.86,-75.11 278.25,-81.69"/>
</g>
<!-- Node17 -->
<g id="node17" class="node">
<title>Node17</title>
<g id="a_node17"><a xlink:title=" ">
<polygon fill="white" stroke="#bfbfbf" points="176.5,-56.5 176.5,-75.5 268.5,-75.5 268.5,-56.5 176.5,-56.5"/>
<text text-anchor="middle" x="222.5" y="-63.5" font-family="Helvetica,sans-Serif" font-size="10.00">GenericNumber.h</text>
</a>
</g>
</g>
<!-- Node15&#45;&gt;Node17 -->
<g id="edge18" class="edge">
<title>Node15&#45;&gt;Node17</title>
<path fill="none" stroke="midnightblue" d="M169.62,-112.32C179.03,-104.26 193.24,-92.08 204.57,-82.37"/>
<polygon fill="midnightblue" stroke="midnightblue" points="206.88,-85 212.19,-75.83 202.32,-79.68 206.88,-85"/>
</g>
<!-- Node18&#45;&gt;Node12 -->
<g id="edge21" class="edge">
<title>Node18&#45;&gt;Node12</title>
<path fill="none" stroke="midnightblue" d="M247.81,-336.32C235.6,-327.98 216.92,-315.21 202.5,-305.35"/>
<polygon fill="midnightblue" stroke="midnightblue" points="204.39,-302.41 194.16,-299.65 200.44,-308.19 204.39,-302.41"/>
</g>
<!-- Node19 -->
<g id="node19" class="node">
<title>Node19</title>
<g id="a_node19"><a xlink:href="_character_8h.html" target="_top" xlink:title="The Character specification and body provides a value object type for character values.">
<polygon fill="white" stroke="black" points="201,-224.5 201,-243.5 268,-243.5 268,-224.5 201,-224.5"/>
<text text-anchor="middle" x="234.5" y="-231.5" font-family="Helvetica,sans-Serif" font-size="10.00">Character.h</text>
</a>
</g>
</g>
<!-- Node18&#45;&gt;Node19 -->
<g id="edge22" class="edge">
<title>Node18&#45;&gt;Node19</title>
<path fill="none" stroke="midnightblue" d="M258.46,-336.37C254.26,-318.62 244.58,-277.67 238.9,-253.6"/>
<polygon fill="midnightblue" stroke="midnightblue" points="242.24,-252.52 236.53,-243.59 235.42,-254.13 242.24,-252.52"/>
</g>
<!-- Node21 -->
<g id="node21" class="node">
<title>Node21</title>
<g id="a_node21"><a xlink:href="_percentage_8h.html" target="_top" xlink:title="The Percentage specification and body provides a simple percentage type.">
<polygon fill="white" stroke="black" points="267.5,-280.5 267.5,-299.5 341.5,-299.5 341.5,-280.5 267.5,-280.5"/>
<text text-anchor="middle" x="304.5" y="-287.5" font-family="Helvetica,sans-Serif" font-size="10.00">Percentage.h</text>
</a>
</g>
</g>
<!-- Node18&#45;&gt;Node21 -->
<g id="edge27" class="edge">
<title>Node18&#45;&gt;Node21</title>
<path fill="none" stroke="midnightblue" d="M267.77,-336.08C274.04,-328.38 283.29,-317.03 290.93,-307.65"/>
<polygon fill="midnightblue" stroke="midnightblue" points="293.77,-309.71 297.37,-299.75 288.34,-305.29 293.77,-309.71"/>
</g>
<!-- Node24 -->
<g id="node24" class="node">
<title>Node24</title>
<g id="a_node24"><a xlink:href="_string_list_8h.html" target="_top" xlink:title="The StringList specification defines lists of string values with zero&#45;based arbitrary indexed access ...">
<polygon fill="white" stroke="black" points="359.5,-280.5 359.5,-299.5 425.5,-299.5 425.5,-280.5 359.5,-280.5"/>
<text text-anchor="middle" x="392.5" y="-287.5" font-family="Helvetica,sans-Serif" font-size="10.00">StringList.h</text>
</a>
</g>
</g>
<!-- Node18&#45;&gt;Node24 -->
<g id="edge34" class="edge">
<title>Node18&#45;&gt;Node24</title>
<path fill="none" stroke="midnightblue" d="M281.42,-336.44C303.24,-327.52 337.65,-313.44 362.39,-303.32"/>
<polygon fill="midnightblue" stroke="midnightblue" points="363.75,-306.54 371.68,-299.52 361.1,-300.06 363.75,-306.54"/>
</g>
<!-- Node19&#45;&gt;Node16 -->
<g id="edge23" class="edge">
<title>Node19&#45;&gt;Node16</title>
<path fill="none" stroke="midnightblue" d="M238.48,-224.08C250.18,-197.83 284.63,-120.55 300.42,-85.12"/>
<polygon fill="midnightblue" stroke="midnightblue" points="303.81,-86.13 304.68,-75.57 297.41,-83.28 303.81,-86.13"/>
</g>
<!-- Node20 -->
<g id="node20" class="node">
<title>Node20</title>
<g id="a_node20"><a xlink:href="_byte_8h.html" target="_top" xlink:title="The Byte specification and body provides a value object type for byte values.">
<polygon fill="white" stroke="black" points="180,-168.5 180,-187.5 225,-187.5 225,-168.5 180,-168.5"/>
<text text-anchor="middle" x="202.5" y="-175.5" font-family="Helvetica,sans-Serif" font-size="10.00">Byte.h</text>
</a>
</g>
</g>
<!-- Node19&#45;&gt;Node20 -->
<g id="edge24" class="edge">
<title>Node19&#45;&gt;Node20</title>
<path fill="none" stroke="midnightblue" d="M229.22,-224.08C224.79,-216.61 218.34,-205.72 212.88,-196.52"/>
<polygon fill="midnightblue" stroke="midnightblue" points="215.79,-194.57 207.69,-187.75 209.77,-198.14 215.79,-194.57"/>
</g>
<!-- Node20&#45;&gt;Node15 -->
<g id="edge26" class="edge">
<title>Node20&#45;&gt;Node15</title>
<path fill="none" stroke="midnightblue" d="M195.4,-168.08C189.26,-160.38 180.23,-149.03 172.76,-139.65"/>
<polygon fill="midnightblue" stroke="midnightblue" points="175.44,-137.39 166.47,-131.75 169.96,-141.75 175.44,-137.39"/>
</g>
<!-- Node20&#45;&gt;Node16 -->
<g id="edge25" class="edge">
<title>Node20&#45;&gt;Node16</title>
<path fill="none" stroke="midnightblue" d="M205.93,-168.16C211.43,-154.8 223.3,-129.21 239.5,-112 251.53,-99.22 267.87,-88.36 281.64,-80.51"/>
<polygon fill="midnightblue" stroke="midnightblue" points="283.58,-83.44 290.67,-75.56 280.22,-77.29 283.58,-83.44"/>
</g>
<!-- Node22 -->
<g id="node22" class="node">
<title>Node22</title>
<g id="a_node22"><a xlink:href="_real_8h.html" target="_top" xlink:title="The Real specification defines a value object type for real values.">
<polygon fill="white" stroke="black" points="286.5,-224.5 286.5,-243.5 330.5,-243.5 330.5,-224.5 286.5,-224.5"/>
<text text-anchor="middle" x="308.5" y="-231.5" font-family="Helvetica,sans-Serif" font-size="10.00">Real.h</text>
</a>
</g>
</g>
<!-- Node21&#45;&gt;Node22 -->
<g id="edge28" class="edge">
<title>Node21&#45;&gt;Node22</title>
<path fill="none" stroke="midnightblue" d="M305.16,-280.08C305.68,-273.01 306.44,-262.86 307.09,-253.99"/>
<polygon fill="midnightblue" stroke="midnightblue" points="310.6,-253.98 307.85,-243.75 303.62,-253.47 310.6,-253.98"/>
</g>
<!-- Node22&#45;&gt;Node16 -->
<g id="edge29" class="edge">
<title>Node22&#45;&gt;Node16</title>
<path fill="none" stroke="midnightblue" d="M318.66,-224.19C327.41,-215.87 339.4,-202.54 344.5,-188 357.32,-151.46 335.3,-107.73 320.42,-84.13"/>
<polygon fill="midnightblue" stroke="midnightblue" points="323.22,-82.02 314.79,-75.6 317.38,-85.87 323.22,-82.02"/>
</g>
<!-- Node23 -->
<g id="node23" class="node">
<title>Node23</title>
<g id="a_node23"><a xlink:href="_integer_8h.html" target="_top" xlink:title="The Integer specification and body provides a value object type for ints.">
<polygon fill="white" stroke="black" points="281.5,-168.5 281.5,-187.5 335.5,-187.5 335.5,-168.5 281.5,-168.5"/>
<text text-anchor="middle" x="308.5" y="-175.5" font-family="Helvetica,sans-Serif" font-size="10.00">Integer.h</text>
</a>
</g>
</g>
<!-- Node22&#45;&gt;Node23 -->
<g id="edge30" class="edge">
<title>Node22&#45;&gt;Node23</title>
<path fill="none" stroke="midnightblue" d="M308.5,-224.08C308.5,-217.01 308.5,-206.86 308.5,-197.99"/>
<polygon fill="midnightblue" stroke="midnightblue" points="312,-197.75 308.5,-187.75 305,-197.75 312,-197.75"/>
</g>
<!-- Node23&#45;&gt;Node3 -->
<g id="edge32" class="edge">
<title>Node23&#45;&gt;Node3</title>
<path fill="none" stroke="midnightblue" d="M314.42,-168.25C327.36,-147.98 355.72,-96.46 339.5,-56 334.82,-44.33 325.51,-33.97 316.74,-26.14"/>
<polygon fill="midnightblue" stroke="midnightblue" points="318.92,-23.4 309,-19.7 314.45,-28.78 318.92,-23.4"/>
</g>
<!-- Node23&#45;&gt;Node15 -->
<g id="edge33" class="edge">
<title>Node23&#45;&gt;Node15</title>
<path fill="none" stroke="midnightblue" d="M284.89,-168.44C260.04,-159.44 220.73,-145.19 192.75,-135.05"/>
<polygon fill="midnightblue" stroke="midnightblue" points="193.59,-131.63 183,-131.52 191.21,-138.21 193.59,-131.63"/>
</g>
<!-- Node23&#45;&gt;Node16 -->
<g id="edge31" class="edge">
<title>Node23&#45;&gt;Node16</title>
<path fill="none" stroke="midnightblue" d="M308.5,-168.37C308.5,-150.62 308.5,-109.67 308.5,-85.6"/>
<polygon fill="midnightblue" stroke="midnightblue" points="312,-85.59 308.5,-75.59 305,-85.59 312,-85.59"/>
</g>
<!-- Node24&#45;&gt;Node8 -->
<g id="edge36" class="edge">
<title>Node24&#45;&gt;Node8</title>
<path fill="none" stroke="midnightblue" d="M406.16,-280.32C419.42,-271.9 439.77,-258.97 455.35,-249.07"/>
<polygon fill="midnightblue" stroke="midnightblue" points="457.31,-251.97 463.88,-243.65 453.56,-246.06 457.31,-251.97"/>
</g>
<!-- Node25 -->
<g id="node25" class="node">
<title>Node25</title>
<g id="a_node25"><a xlink:title=" ">
<polygon fill="white" stroke="#bfbfbf" points="349,-224.5 349,-243.5 422,-243.5 422,-224.5 349,-224.5"/>
<text text-anchor="middle" x="385.5" y="-231.5" font-family="Helvetica,sans-Serif" font-size="10.00">initializer_list</text>
</a>
</g>
</g>
<!-- Node24&#45;&gt;Node25 -->
<g id="edge35" class="edge">
<title>Node24&#45;&gt;Node25</title>
<path fill="none" stroke="midnightblue" d="M391.34,-280.08C390.42,-272.93 389.08,-262.64 387.92,-253.69"/>
<polygon fill="midnightblue" stroke="midnightblue" points="391.39,-253.22 386.63,-243.75 384.45,-254.12 391.39,-253.22"/>
</g>
</g>
</svg>
