<?xml version="1.0" encoding="UTF-8" standalone="no"?>
<!DOCTYPE svg PUBLIC "-//W3C//DTD SVG 1.1//EN"
 "http://www.w3.org/Graphics/SVG/1.1/DTD/svg11.dtd">
<!-- Generated by graphviz version 2.47.1 (20210417.1919)
 -->
<!-- Title: CommandLineArguments.cpp Pages: 1 -->
<!--zoomable 485 -->
<svg id="main" version="1.1" xmlns="http://www.w3.org/2000/svg" xmlns:xlink="http://www.w3.org/1999/xlink" xml:space="preserve" onload="init(evt)">
<style type="text/css"><![CDATA[
.edge:hover path { stroke: red; }
.edge:hover polygon { stroke: red; fill: red; }
]]></style>
<script type="text/javascript"><![CDATA[
var edges = document.getElementsByTagName('g');
if (edges && edges.length) {
  for (var i=0;i<edges.length;i++) {
    if (edges[i].id.substr(0,4)=='edge') {
      edges[i].setAttribute('class','edge');
    }
  }
}
]]></script>
        <defs>
                <circle id="rim" cx="0" cy="0" r="7"/>
                <circle id="rim2" cx="0" cy="0" r="3.5"/>
                <g id="zoomPlus">
                        <use xlink:href="#rim" fill="#404040">
                                <set attributeName="fill" to="#808080" begin="zoomplus.mouseover" end="zoomplus.mouseout"/>
                        </use>
                        <path d="M-4,0h8M0,-4v8" fill="none" stroke="white" stroke-width="1.5" pointer-events="none"/>
                </g>
                <g id="zoomMin">
                        <use xlink:href="#rim" fill="#404040">
                                <set attributeName="fill" to="#808080" begin="zoomminus.mouseover" end="zoomminus.mouseout"/>
                        </use>
                        <path d="M-4,0h8" fill="none" stroke="white" stroke-width="1.5" pointer-events="none"/>
                </g>
                <g id="dirArrow">
                        <path fill="none" stroke="white" stroke-width="1.5" d="M0,-3.0v7 M-2.5,-0.5L0,-3.0L2.5,-0.5"/>
                </g>
               <g id="resetDef">
                       <use xlink:href="#rim2" fill="#404040">
                               <set attributeName="fill" to="#808080" begin="reset.mouseover" end="reset.mouseout"/>
                       </use>
               </g>
        </defs>

<script type="text/javascript">
var viewWidth = 648;
var viewHeight = 485;
var sectionId = 'dynsection-0';
</script>
<script xlink:href="svgpan.js"/>
<svg id="graph" class="graph">
<g id="viewport">
<title>CommandLineArguments.cpp</title>
<polygon fill="white" stroke="transparent" points="-4,4 -4,-481 643.5,-481 643.5,4 -4,4"/>
<!-- Node1 -->
<g id="node1" class="node">
<title>Node1</title>
<g id="a_node1"><a xlink:title="The CommandLineArguments body implements a handler for command&#45;line arguments converting them to a li...">
<polygon fill="#bfbfbf" stroke="black" points="200,-456.5 200,-476.5 363,-476.5 363,-456.5 200,-456.5"/>
<text text-anchor="middle" x="281.5" y="-463.7" font-family="Helvetica,sans-Serif" font-size="11.00">CommandLineArguments.cpp</text>
</a>
</g>
</g>
<!-- Node2 -->
<g id="node2" class="node">
<title>Node2</title>
<g id="a_node2"><a xlink:href="_assertion_8h.html" target="_top" xlink:title="The Assertion specification defines macros for pre&#45; and postconditions in functions or methods.">
<polygon fill="white" stroke="black" points="0,-57.5 0,-77.5 71,-77.5 71,-57.5 0,-57.5"/>
<text text-anchor="middle" x="35.5" y="-64.7" font-family="Helvetica,sans-Serif" font-size="11.00">Assertion.h</text>
</a>
</g>
</g>
<!-- Node1&#45;&gt;Node2 -->
<g id="edge1" class="edge">
<title>Node1&#45;&gt;Node2</title>
<path fill="none" stroke="midnightblue" d="M199.91,-460.53C129.99,-451.32 40.5,-425.47 40.5,-353.5 40.5,-353.5 40.5,-353.5 40.5,-180.5 40.5,-148.01 38.37,-110.28 36.9,-87.95"/>
<polygon fill="midnightblue" stroke="midnightblue" points="40.37,-87.52 36.2,-77.79 33.39,-88 40.37,-87.52"/>
</g>
<!-- Node4 -->
<g id="node4" class="node">
<title>Node4</title>
<g id="a_node4"><a xlink:href="_command_line_arguments_8h.html" target="_top" xlink:title="The CommandLineArguments specification defines a handler for command&#45;line arguments converting them t...">
<polygon fill="white" stroke="black" points="452,-399.5 452,-419.5 603,-419.5 603,-399.5 452,-399.5"/>
<text text-anchor="middle" x="527.5" y="-406.7" font-family="Helvetica,sans-Serif" font-size="11.00">CommandLineArguments.h</text>
</a>
</g>
</g>
<!-- Node1&#45;&gt;Node4 -->
<g id="edge3" class="edge">
<title>Node1&#45;&gt;Node4</title>
<path fill="none" stroke="midnightblue" d="M321.85,-456.48C364.3,-446.99 431.2,-432.03 477.1,-421.77"/>
<polygon fill="midnightblue" stroke="midnightblue" points="478.14,-425.12 487.13,-419.53 476.61,-418.29 478.14,-425.12"/>
</g>
<!-- Node8 -->
<g id="node8" class="node">
<title>Node8</title>
<g id="a_node8"><a xlink:href="_logging_8h.html" target="_top" xlink:title="The Logging specification defines macros for entry&#45;, exit&#45; and intermediate logging of functions into...">
<polygon fill="white" stroke="black" points="249.5,-399.5 249.5,-419.5 313.5,-419.5 313.5,-399.5 249.5,-399.5"/>
<text text-anchor="middle" x="281.5" y="-406.7" font-family="Helvetica,sans-Serif" font-size="11.00">Logging.h</text>
</a>
</g>
</g>
<!-- Node1&#45;&gt;Node8 -->
<g id="edge7" class="edge">
<title>Node1&#45;&gt;Node8</title>
<path fill="none" stroke="midnightblue" d="M281.5,-456.42C281.5,-449.22 281.5,-438.9 281.5,-429.86"/>
<polygon fill="midnightblue" stroke="midnightblue" points="285,-429.78 281.5,-419.78 278,-429.78 285,-429.78"/>
</g>
<!-- Node3 -->
<g id="node3" class="node">
<title>Node3</title>
<g id="a_node3"><a xlink:title=" ">
<polygon fill="white" stroke="#bfbfbf" points="9,-0.5 9,-20.5 62,-20.5 62,-0.5 9,-0.5"/>
<text text-anchor="middle" x="35.5" y="-7.7" font-family="Helvetica,sans-Serif" font-size="11.00">cassert</text>
</a>
</g>
</g>
<!-- Node2&#45;&gt;Node3 -->
<g id="edge2" class="edge">
<title>Node2&#45;&gt;Node3</title>
<path fill="none" stroke="midnightblue" d="M35.5,-57.42C35.5,-50.22 35.5,-39.9 35.5,-30.86"/>
<polygon fill="midnightblue" stroke="midnightblue" points="39,-30.78 35.5,-20.78 32,-30.78 39,-30.78"/>
</g>
<!-- Node5 -->
<g id="node5" class="node">
<title>Node5</title>
<g id="a_node5"><a xlink:href="_dictionary_8h.html" target="_top" xlink:title="The Dictionary specification defines maps from string keys to string values.">
<polygon fill="white" stroke="black" points="557.5,-342.5 557.5,-362.5 631.5,-362.5 631.5,-342.5 557.5,-342.5"/>
<text text-anchor="middle" x="594.5" y="-349.7" font-family="Helvetica,sans-Serif" font-size="11.00">Dictionary.h</text>
</a>
</g>
</g>
<!-- Node4&#45;&gt;Node5 -->
<g id="edge4" class="edge">
<title>Node4&#45;&gt;Node5</title>
<path fill="none" stroke="midnightblue" d="M538.56,-399.42C548.49,-391.27 563.29,-379.12 575.17,-369.37"/>
<polygon fill="midnightblue" stroke="midnightblue" points="577.69,-371.83 583.2,-362.78 573.25,-366.42 577.69,-371.83"/>
</g>
<!-- Node7 -->
<g id="node7" class="node">
<title>Node7</title>
<g id="a_node7"><a xlink:title=" ">
<polygon fill="white" stroke="#bfbfbf" points="504,-228.5 504,-248.5 585,-248.5 585,-228.5 504,-228.5"/>
<text text-anchor="middle" x="544.5" y="-235.7" font-family="Helvetica,sans-Serif" font-size="11.00">GenericList.h</text>
</a>
</g>
</g>
<!-- Node4&#45;&gt;Node7 -->
<g id="edge6" class="edge">
<title>Node4&#45;&gt;Node7</title>
<path fill="none" stroke="midnightblue" d="M528.41,-399.41C531.08,-372.94 538.88,-295.42 542.55,-258.92"/>
<polygon fill="midnightblue" stroke="midnightblue" points="546.06,-258.93 543.58,-248.63 539.1,-258.23 546.06,-258.93"/>
</g>
<!-- Node6 -->
<g id="node6" class="node">
<title>Node6</title>
<g id="a_node6"><a xlink:title=" ">
<polygon fill="white" stroke="#bfbfbf" points="555.5,-285.5 555.5,-305.5 639.5,-305.5 639.5,-285.5 555.5,-285.5"/>
<text text-anchor="middle" x="597.5" y="-292.7" font-family="Helvetica,sans-Serif" font-size="11.00">GenericMap.h</text>
</a>
</g>
</g>
<!-- Node5&#45;&gt;Node6 -->
<g id="edge5" class="edge">
<title>Node5&#45;&gt;Node6</title>
<path fill="none" stroke="midnightblue" d="M595,-342.42C595.39,-335.22 595.95,-324.9 596.44,-315.86"/>
<polygon fill="midnightblue" stroke="midnightblue" points="599.94,-315.96 596.99,-305.78 592.95,-315.57 599.94,-315.96"/>
</g>
<!-- Node9 -->
<g id="node9" class="node">
<title>Node9</title>
<g id="a_node9"><a xlink:title=" ">
<polygon fill="white" stroke="#bfbfbf" points="334,-342.5 334,-362.5 387,-362.5 387,-342.5 334,-342.5"/>
<text text-anchor="middle" x="360.5" y="-349.7" font-family="Helvetica,sans-Serif" font-size="11.00">cstdarg</text>
</a>
</g>
</g>
<!-- Node8&#45;&gt;Node9 -->
<g id="edge8" class="edge">
<title>Node8&#45;&gt;Node9</title>
<path fill="none" stroke="midnightblue" d="M294.55,-399.42C306.67,-390.98 324.94,-378.26 339.18,-368.34"/>
<polygon fill="midnightblue" stroke="midnightblue" points="341.23,-371.18 347.44,-362.6 337.23,-365.44 341.23,-371.18"/>
</g>
<!-- Node10 -->
<g id="node10" class="node">
<title>Node10</title>
<g id="a_node10"><a xlink:href="_logging_support_8h.html" target="_top" xlink:title="The LoggingSupport specification defines a class for simple entry/exit logging to a file; this loggin...">
<polygon fill="white" stroke="black" points="126.5,-342.5 126.5,-362.5 228.5,-362.5 228.5,-342.5 126.5,-342.5"/>
<text text-anchor="middle" x="177.5" y="-349.7" font-family="Helvetica,sans-Serif" font-size="11.00">LoggingSupport.h</text>
</a>
</g>
</g>
<!-- Node8&#45;&gt;Node10 -->
<g id="edge9" class="edge">
<title>Node8&#45;&gt;Node10</title>
<path fill="none" stroke="midnightblue" d="M264.33,-399.42C247.84,-390.7 222.72,-377.41 203.73,-367.37"/>
<polygon fill="midnightblue" stroke="midnightblue" points="205.18,-364.18 194.7,-362.6 201.9,-370.36 205.18,-364.18"/>
</g>
<!-- Node18 -->
<g id="node18" class="node">
<title>Node18</title>
<g id="a_node18"><a xlink:href="_string_util_8h.html" target="_top" xlink:title="The StringUtil specification defines several string routines not included in the standard C++ library...">
<polygon fill="white" stroke="black" points="247,-342.5 247,-362.5 316,-362.5 316,-342.5 247,-342.5"/>
<text text-anchor="middle" x="281.5" y="-349.7" font-family="Helvetica,sans-Serif" font-size="11.00">StringUtil.h</text>
</a>
</g>
</g>
<!-- Node8&#45;&gt;Node18 -->
<g id="edge19" class="edge">
<title>Node8&#45;&gt;Node18</title>
<path fill="none" stroke="midnightblue" d="M281.5,-399.42C281.5,-392.22 281.5,-381.9 281.5,-372.86"/>
<polygon fill="midnightblue" stroke="midnightblue" points="285,-372.78 281.5,-362.78 278,-372.78 285,-372.78"/>
</g>
<!-- Node11 -->
<g id="node11" class="node">
<title>Node11</title>
<g id="a_node11"><a xlink:href="_boolean_8h.html" target="_top" xlink:title="The Boolean specification and body provides a value object type for boolean values.">
<polygon fill="white" stroke="black" points="148,-285.5 148,-305.5 213,-305.5 213,-285.5 148,-285.5"/>
<text text-anchor="middle" x="180.5" y="-292.7" font-family="Helvetica,sans-Serif" font-size="11.00">Boolean.h</text>
</a>
</g>
</g>
<!-- Node10&#45;&gt;Node11 -->
<g id="edge10" class="edge">
<title>Node10&#45;&gt;Node11</title>
<path fill="none" stroke="midnightblue" d="M178,-342.42C178.39,-335.22 178.95,-324.9 179.44,-315.86"/>
<polygon fill="midnightblue" stroke="midnightblue" points="182.94,-315.96 179.99,-305.78 175.95,-315.57 182.94,-315.96"/>
</g>
<!-- Node15 -->
<g id="node15" class="node">
<title>Node15</title>
<g id="a_node15"><a xlink:href="_natural_8h.html" target="_top" xlink:title="The Natural specification and body provides a value object type for naturals (positive integers with ...">
<polygon fill="white" stroke="black" points="109.5,-114.5 109.5,-134.5 169.5,-134.5 169.5,-114.5 109.5,-114.5"/>
<text text-anchor="middle" x="139.5" y="-121.7" font-family="Helvetica,sans-Serif" font-size="11.00">Natural.h</text>
</a>
</g>
</g>
<!-- Node10&#45;&gt;Node15 -->
<g id="edge14" class="edge">
<title>Node10&#45;&gt;Node15</title>
<path fill="none" stroke="midnightblue" d="M166.14,-342.42C156.71,-334.09 143.99,-320.83 138.5,-306 117.89,-250.28 128.35,-178.11 135.17,-144.4"/>
<polygon fill="midnightblue" stroke="midnightblue" points="138.61,-145.03 137.29,-134.52 131.77,-143.56 138.61,-145.03"/>
</g>
<!-- Node12 -->
<g id="node12" class="node">
<title>Node12</title>
<g id="a_node12"><a xlink:href="_my_string_8h.html" target="_top" xlink:title="The String specification defines a standard string type.">
<polygon fill="white" stroke="black" points="89.5,-57.5 89.5,-77.5 157.5,-77.5 157.5,-57.5 89.5,-57.5"/>
<text text-anchor="middle" x="123.5" y="-64.7" font-family="Helvetica,sans-Serif" font-size="11.00">MyString.h</text>
</a>
</g>
</g>
<!-- Node11&#45;&gt;Node12 -->
<g id="edge11" class="edge">
<title>Node11&#45;&gt;Node12</title>
<path fill="none" stroke="midnightblue" d="M173.98,-285.39C157.63,-261.9 115.13,-196.8 100.5,-135 98.35,-125.92 98.34,-123.08 100.5,-114 102.78,-104.45 107.4,-94.64 111.9,-86.58"/>
<polygon fill="midnightblue" stroke="midnightblue" points="115.05,-88.13 117.18,-77.76 109.04,-84.54 115.05,-88.13"/>
</g>
<!-- Node13 -->
<g id="node13" class="node">
<title>Node13</title>
<g id="a_node13"><a xlink:title=" ">
<polygon fill="white" stroke="#bfbfbf" points="90.5,-0.5 90.5,-20.5 134.5,-20.5 134.5,-0.5 90.5,-0.5"/>
<text text-anchor="middle" x="112.5" y="-7.7" font-family="Helvetica,sans-Serif" font-size="11.00">string</text>
</a>
</g>
</g>
<!-- Node12&#45;&gt;Node13 -->
<g id="edge12" class="edge">
<title>Node12&#45;&gt;Node13</title>
<path fill="none" stroke="midnightblue" d="M121.68,-57.42C120.24,-50.22 118.18,-39.9 116.37,-30.86"/>
<polygon fill="midnightblue" stroke="midnightblue" points="119.75,-29.9 114.36,-20.78 112.89,-31.27 119.75,-29.9"/>
</g>
<!-- Node14 -->
<g id="node14" class="node">
<title>Node14</title>
<g id="a_node14"><a xlink:href="_global_macros_8h.html" target="_top" xlink:title="The GlobalMacros specification defines simple macros (e.g. for parameter modes).">
<polygon fill="white" stroke="black" points="152.5,-0.5 152.5,-20.5 244.5,-20.5 244.5,-0.5 152.5,-0.5"/>
<text text-anchor="middle" x="198.5" y="-7.7" font-family="Helvetica,sans-Serif" font-size="11.00">GlobalMacros.h</text>
</a>
</g>
</g>
<!-- Node12&#45;&gt;Node14 -->
<g id="edge13" class="edge">
<title>Node12&#45;&gt;Node14</title>
<path fill="none" stroke="midnightblue" d="M135.88,-57.42C147.28,-49.06 164.41,-36.5 177.88,-26.62"/>
<polygon fill="midnightblue" stroke="midnightblue" points="180.1,-29.33 186.1,-20.6 175.96,-23.69 180.1,-29.33"/>
</g>
<!-- Node15&#45;&gt;Node2 -->
<g id="edge16" class="edge">
<title>Node15&#45;&gt;Node2</title>
<path fill="none" stroke="midnightblue" d="M122.33,-114.42C105.84,-105.7 80.72,-92.41 61.73,-82.37"/>
<polygon fill="midnightblue" stroke="midnightblue" points="63.18,-79.18 52.7,-77.6 59.9,-85.36 63.18,-79.18"/>
</g>
<!-- Node15&#45;&gt;Node12 -->
<g id="edge18" class="edge">
<title>Node15&#45;&gt;Node12</title>
<path fill="none" stroke="midnightblue" d="M136.86,-114.42C134.74,-107.14 131.69,-96.67 129.05,-87.57"/>
<polygon fill="midnightblue" stroke="midnightblue" points="132.35,-86.4 126.2,-77.78 125.63,-88.36 132.35,-86.4"/>
</g>
<!-- Node16 -->
<g id="node16" class="node">
<title>Node16</title>
<g id="a_node16"><a xlink:title=" ">
<polygon fill="white" stroke="#bfbfbf" points="297,-57.5 297,-77.5 344,-77.5 344,-57.5 297,-57.5"/>
<text text-anchor="middle" x="320.5" y="-64.7" font-family="Helvetica,sans-Serif" font-size="11.00">cmath</text>
</a>
</g>
</g>
<!-- Node15&#45;&gt;Node16 -->
<g id="edge15" class="edge">
<title>Node15&#45;&gt;Node16</title>
<path fill="none" stroke="midnightblue" d="M169.39,-114.42C201.78,-104.57 253.35,-88.9 287.07,-78.66"/>
<polygon fill="midnightblue" stroke="midnightblue" points="288.37,-81.92 296.92,-75.67 286.33,-75.22 288.37,-81.92"/>
</g>
<!-- Node17 -->
<g id="node17" class="node">
<title>Node17</title>
<g id="a_node17"><a xlink:title=" ">
<polygon fill="white" stroke="#bfbfbf" points="176,-57.5 176,-77.5 279,-77.5 279,-57.5 176,-57.5"/>
<text text-anchor="middle" x="227.5" y="-64.7" font-family="Helvetica,sans-Serif" font-size="11.00">GenericNumber.h</text>
</a>
</g>
</g>
<!-- Node15&#45;&gt;Node17 -->
<g id="edge17" class="edge">
<title>Node15&#45;&gt;Node17</title>
<path fill="none" stroke="midnightblue" d="M154.03,-114.42C167.66,-105.9 188.27,-93.02 204.2,-83.06"/>
<polygon fill="midnightblue" stroke="midnightblue" points="206.32,-85.86 212.95,-77.6 202.61,-79.93 206.32,-85.86"/>
</g>
<!-- Node18&#45;&gt;Node11 -->
<g id="edge20" class="edge">
<title>Node18&#45;&gt;Node11</title>
<path fill="none" stroke="midnightblue" d="M264.82,-342.42C248.89,-333.74 224.63,-320.53 206.22,-310.51"/>
<polygon fill="midnightblue" stroke="midnightblue" points="207.66,-307.3 197.2,-305.6 204.31,-313.45 207.66,-307.3"/>
</g>
<!-- Node19 -->
<g id="node19" class="node">
<title>Node19</title>
<g id="a_node19"><a xlink:href="_character_8h.html" target="_top" xlink:title="The Character specification and body provides a value object type for character values.">
<polygon fill="white" stroke="black" points="315.5,-228.5 315.5,-248.5 389.5,-248.5 389.5,-228.5 315.5,-228.5"/>
<text text-anchor="middle" x="352.5" y="-235.7" font-family="Helvetica,sans-Serif" font-size="11.00">Character.h</text>
</a>
</g>
</g>
<!-- Node18&#45;&gt;Node19 -->
<g id="edge21" class="edge">
<title>Node18&#45;&gt;Node19</title>
<path fill="none" stroke="midnightblue" d="M293.83,-342.25C304.31,-333.82 319.13,-320.5 328.5,-306 337.97,-291.36 344.32,-272.5 348.09,-258.6"/>
<polygon fill="midnightblue" stroke="midnightblue" points="351.54,-259.25 350.58,-248.7 344.75,-257.54 351.54,-259.25"/>
</g>
<!-- Node21 -->
<g id="node21" class="node">
<title>Node21</title>
<g id="a_node21"><a xlink:href="_percentage_8h.html" target="_top" xlink:title="The Percentage specification and body provides a simple percentage type.">
<polygon fill="white" stroke="black" points="237.5,-285.5 237.5,-305.5 319.5,-305.5 319.5,-285.5 237.5,-285.5"/>
<text text-anchor="middle" x="278.5" y="-292.7" font-family="Helvetica,sans-Serif" font-size="11.00">Percentage.h</text>
</a>
</g>
</g>
<!-- Node18&#45;&gt;Node21 -->
<g id="edge26" class="edge">
<title>Node18&#45;&gt;Node21</title>
<path fill="none" stroke="midnightblue" d="M281,-342.42C280.61,-335.22 280.05,-324.9 279.56,-315.86"/>
<polygon fill="midnightblue" stroke="midnightblue" points="283.05,-315.57 279.01,-305.78 276.06,-315.96 283.05,-315.57"/>
</g>
<!-- Node25 -->
<g id="node25" class="node">
<title>Node25</title>
<g id="a_node25"><a xlink:href="_string_list_8h.html" target="_top" xlink:title="The StringList specification defines lists of string values with zero&#45;based arbitrary indexed access ...">
<polygon fill="white" stroke="black" points="411,-285.5 411,-305.5 482,-305.5 482,-285.5 411,-285.5"/>
<text text-anchor="middle" x="446.5" y="-292.7" font-family="Helvetica,sans-Serif" font-size="11.00">StringList.h</text>
</a>
</g>
</g>
<!-- Node18&#45;&gt;Node25 -->
<g id="edge33" class="edge">
<title>Node18&#45;&gt;Node25</title>
<path fill="none" stroke="midnightblue" d="M308.75,-342.42C336.3,-333.23 379.06,-318.98 409.63,-308.79"/>
<polygon fill="midnightblue" stroke="midnightblue" points="411.11,-311.99 419.49,-305.5 408.89,-305.35 411.11,-311.99"/>
</g>
<!-- Node19&#45;&gt;Node16 -->
<g id="edge22" class="edge">
<title>Node19&#45;&gt;Node16</title>
<path fill="none" stroke="midnightblue" d="M361.83,-228.39C369.86,-219.86 380.86,-206.29 385.5,-192 388.38,-183.12 387.98,-180 385.5,-171 376.28,-137.53 352,-104.68 335.87,-85.52"/>
<polygon fill="midnightblue" stroke="midnightblue" points="338.31,-82.99 329.11,-77.73 333.02,-87.58 338.31,-82.99"/>
</g>
<!-- Node20 -->
<g id="node20" class="node">
<title>Node20</title>
<g id="a_node20"><a xlink:href="_byte_8h.html" target="_top" xlink:title="The Byte specification and body provides a value object type for byte values.">
<polygon fill="white" stroke="black" points="330,-171.5 330,-191.5 377,-191.5 377,-171.5 330,-171.5"/>
<text text-anchor="middle" x="353.5" y="-178.7" font-family="Helvetica,sans-Serif" font-size="11.00">Byte.h</text>
</a>
</g>
</g>
<!-- Node19&#45;&gt;Node20 -->
<g id="edge23" class="edge">
<title>Node19&#45;&gt;Node20</title>
<path fill="none" stroke="midnightblue" d="M352.67,-228.42C352.8,-221.22 352.98,-210.9 353.15,-201.86"/>
<polygon fill="midnightblue" stroke="midnightblue" points="356.65,-201.84 353.33,-191.78 349.65,-201.71 356.65,-201.84"/>
</g>
<!-- Node20&#45;&gt;Node15 -->
<g id="edge25" class="edge">
<title>Node20&#45;&gt;Node15</title>
<path fill="none" stroke="midnightblue" d="M329.78,-174.4C293.54,-165.09 223.93,-147.2 179.7,-135.83"/>
<polygon fill="midnightblue" stroke="midnightblue" points="180.41,-132.4 169.85,-133.3 178.67,-139.18 180.41,-132.4"/>
</g>
<!-- Node20&#45;&gt;Node16 -->
<g id="edge24" class="edge">
<title>Node20&#45;&gt;Node16</title>
<path fill="none" stroke="midnightblue" d="M350.8,-171.33C345.43,-153.12 333.33,-112.04 326.15,-87.67"/>
<polygon fill="midnightblue" stroke="midnightblue" points="329.42,-86.4 323.24,-77.79 322.71,-88.37 329.42,-86.4"/>
</g>
<!-- Node22 -->
<g id="node22" class="node">
<title>Node22</title>
<g id="a_node22"><a xlink:href="_real_8h.html" target="_top" xlink:title="The Real specification defines a value object type for real values.">
<polygon fill="white" stroke="black" points="249.5,-228.5 249.5,-248.5 297.5,-248.5 297.5,-228.5 249.5,-228.5"/>
<text text-anchor="middle" x="273.5" y="-235.7" font-family="Helvetica,sans-Serif" font-size="11.00">Real.h</text>
</a>
</g>
</g>
<!-- Node21&#45;&gt;Node22 -->
<g id="edge27" class="edge">
<title>Node21&#45;&gt;Node22</title>
<path fill="none" stroke="midnightblue" d="M277.67,-285.42C277.02,-278.22 276.08,-267.9 275.26,-258.86"/>
<polygon fill="midnightblue" stroke="midnightblue" points="278.73,-258.42 274.34,-248.78 271.76,-259.06 278.73,-258.42"/>
</g>
<!-- Node22&#45;&gt;Node16 -->
<g id="edge28" class="edge">
<title>Node22&#45;&gt;Node16</title>
<path fill="none" stroke="midnightblue" d="M276.03,-228.41C283.42,-201.82 305.14,-123.74 315.23,-87.45"/>
<polygon fill="midnightblue" stroke="midnightblue" points="318.65,-88.2 317.96,-77.63 311.91,-86.33 318.65,-88.2"/>
</g>
<!-- Node23 -->
<g id="node23" class="node">
<title>Node23</title>
<g id="a_node23"><a xlink:href="_integer_8h.html" target="_top" xlink:title="The Integer specification and body provides a value object type for ints.">
<polygon fill="white" stroke="black" points="201,-171.5 201,-191.5 260,-191.5 260,-171.5 201,-171.5"/>
<text text-anchor="middle" x="230.5" y="-178.7" font-family="Helvetica,sans-Serif" font-size="11.00">Integer.h</text>
</a>
</g>
</g>
<!-- Node22&#45;&gt;Node23 -->
<g id="edge29" class="edge">
<title>Node22&#45;&gt;Node23</title>
<path fill="none" stroke="midnightblue" d="M266.4,-228.42C260.34,-220.66 251.44,-209.29 244.03,-199.8"/>
<polygon fill="midnightblue" stroke="midnightblue" points="246.67,-197.5 237.75,-191.78 241.16,-201.81 246.67,-197.5"/>
</g>
<!-- Node23&#45;&gt;Node15 -->
<g id="edge32" class="edge">
<title>Node23&#45;&gt;Node15</title>
<path fill="none" stroke="midnightblue" d="M215.47,-171.42C201.25,-162.82 179.66,-149.78 163.13,-139.78"/>
<polygon fill="midnightblue" stroke="midnightblue" points="164.92,-136.77 154.55,-134.6 161.3,-142.76 164.92,-136.77"/>
</g>
<!-- Node23&#45;&gt;Node16 -->
<g id="edge30" class="edge">
<title>Node23&#45;&gt;Node16</title>
<path fill="none" stroke="midnightblue" d="M237.87,-171.33C252.9,-152.63 287.31,-109.8 306.65,-85.73"/>
<polygon fill="midnightblue" stroke="midnightblue" points="309.5,-87.78 313.03,-77.79 304.04,-83.39 309.5,-87.78"/>
</g>
<!-- Node24 -->
<g id="node24" class="node">
<title>Node24</title>
<g id="a_node24"><a xlink:title=" ">
<polygon fill="white" stroke="#bfbfbf" points="187.5,-114.5 187.5,-134.5 251.5,-134.5 251.5,-114.5 187.5,-114.5"/>
<text text-anchor="middle" x="219.5" y="-121.7" font-family="Helvetica,sans-Serif" font-size="11.00">stdexcept</text>
</a>
</g>
</g>
<!-- Node23&#45;&gt;Node24 -->
<g id="edge31" class="edge">
<title>Node23&#45;&gt;Node24</title>
<path fill="none" stroke="midnightblue" d="M228.68,-171.42C227.24,-164.22 225.18,-153.9 223.37,-144.86"/>
<polygon fill="midnightblue" stroke="midnightblue" points="226.75,-143.9 221.36,-134.78 219.89,-145.27 226.75,-143.9"/>
</g>
<!-- Node25&#45;&gt;Node7 -->
<g id="edge35" class="edge">
<title>Node25&#45;&gt;Node7</title>
<path fill="none" stroke="midnightblue" d="M462.68,-285.42C478.15,-276.74 501.68,-263.53 519.54,-253.51"/>
<polygon fill="midnightblue" stroke="midnightblue" points="521.29,-256.54 528.29,-248.6 517.86,-250.44 521.29,-256.54"/>
</g>
<!-- Node26 -->
<g id="node26" class="node">
<title>Node26</title>
<g id="a_node26"><a xlink:title=" ">
<polygon fill="white" stroke="#bfbfbf" points="407.5,-228.5 407.5,-248.5 485.5,-248.5 485.5,-228.5 407.5,-228.5"/>
<text text-anchor="middle" x="446.5" y="-235.7" font-family="Helvetica,sans-Serif" font-size="11.00">initializer_list</text>
</a>
</g>
</g>
<!-- Node25&#45;&gt;Node26 -->
<g id="edge34" class="edge">
<title>Node25&#45;&gt;Node26</title>
<path fill="none" stroke="midnightblue" d="M446.5,-285.42C446.5,-278.22 446.5,-267.9 446.5,-258.86"/>
<polygon fill="midnightblue" stroke="midnightblue" points="450,-258.78 446.5,-248.78 443,-258.78 450,-258.78"/>
</g>
</g>
</svg>
        <g id="navigator" transform="translate(0 0)" fill="#404254">
                <rect fill="#f2f5e9" fill-opacity="0.5" stroke="#606060" stroke-width=".5" x="0" y="0" width="60" height="60"/>
                <use id="zoomplus" xlink:href="#zoomPlus" x="17" y="9" onmousedown="handleZoom(evt,'in')"/>
                <use id="zoomminus" xlink:href="#zoomMin" x="42" y="9" onmousedown="handleZoom(evt,'out')"/>
                <use id="reset" xlink:href="#resetDef" x="30" y="36" onmousedown="handleReset()"/>
                <g id="arrowUp" xlink:href="#dirArrow" transform="translate(30 24)" onmousedown="handlePan(0,-1)">
                  <use xlink:href="#rim" fill="#404040">
                        <set attributeName="fill" to="#808080" begin="arrowUp.mouseover" end="arrowUp.mouseout"/>
                  </use>
                  <path fill="none" stroke="white" stroke-width="1.5" d="M0,-3.0v7 M-2.5,-0.5L0,-3.0L2.5,-0.5"/>
                </g>
                <g id="arrowRight" xlink:href="#dirArrow" transform="rotate(90) translate(36 -43)" onmousedown="handlePan(1,0)">
                  <use xlink:href="#rim" fill="#404040">
                        <set attributeName="fill" to="#808080" begin="arrowRight.mouseover" end="arrowRight.mouseout"/>
                  </use>
                  <path fill="none" stroke="white" stroke-width="1.5" d="M0,-3.0v7 M-2.5,-0.5L0,-3.0L2.5,-0.5"/>
                </g>
                <g id="arrowDown" xlink:href="#dirArrow" transform="rotate(180) translate(-30 -48)" onmousedown="handlePan(0,1)">
                  <use xlink:href="#rim" fill="#404040">
                        <set attributeName="fill" to="#808080" begin="arrowDown.mouseover" end="arrowDown.mouseout"/>
                  </use>
                  <path fill="none" stroke="white" stroke-width="1.5" d="M0,-3.0v7 M-2.5,-0.5L0,-3.0L2.5,-0.5"/>
                </g>
                <g id="arrowLeft" xlink:href="#dirArrow" transform="rotate(270) translate(-36 17)" onmousedown="handlePan(-1,0)">
                  <use xlink:href="#rim" fill="#404040">
                        <set attributeName="fill" to="#808080" begin="arrowLeft.mouseover" end="arrowLeft.mouseout"/>
                  </use>
                  <path fill="none" stroke="white" stroke-width="1.5" d="M0,-3.0v7 M-2.5,-0.5L0,-3.0L2.5,-0.5"/>
                </g>
        </g>
        <svg viewBox="0 0 15 15" width="100%" height="30px" preserveAspectRatio="xMaxYMin meet">
         <g id="arrow_out" transform="scale(0.3 0.3)">
          <a xlink:href="_command_line_arguments_8cpp__incl_org.svg" target="_base">
           <rect id="button" ry="5" rx="5" y="6" x="6" height="38" width="38"
                fill="#f2f5e9" fill-opacity="0.5" stroke="#606060" stroke-width="1.0"/>
           <path id="arrow"
             d="M 11.500037,31.436501 C 11.940474,20.09759 22.043105,11.32322 32.158766,21.979434 L 37.068811,17.246167 C 37.068811,17.246167 37.088388,32 37.088388,32 L 22.160133,31.978069 C 22.160133,31.978069 26.997745,27.140456 26.997745,27.140456 C 18.528582,18.264221 13.291696,25.230495 11.500037,31.436501 z"
             style="fill:#404040;"/>
          </a>
         </g>
        </svg>
</svg>
