<?xml version="1.0" encoding="UTF-8" standalone="no"?>
<!DOCTYPE svg PUBLIC "-//W3C//DTD SVG 1.1//EN"
 "http://www.w3.org/Graphics/SVG/1.1/DTD/svg11.dtd">
<!-- Generated by graphviz version 2.47.1 (20210417.1919)
 -->
<!-- Title: DynamicLibrary.h Pages: 1 -->
<svg width="182pt" height="200pt"
 viewBox="0.00 0.00 182.00 200.00" xmlns="http://www.w3.org/2000/svg" xmlns:xlink="http://www.w3.org/1999/xlink">
<g id="graph0" class="graph" transform="scale(1 1) rotate(0) translate(4 196)">
<title>DynamicLibrary.h</title>
<polygon fill="white" stroke="transparent" points="-4,4 -4,-196 178,-196 178,4 -4,4"/>
<!-- Node1 -->
<g id="node1" class="node">
<title>Node1</title>
<g id="a_node1"><a xlink:title="The DynamicLibrary class specifies a very simple and crude wrapper around the dynamic library loading...">
<polygon fill="#bfbfbf" stroke="black" points="54,-171.5 54,-191.5 156,-191.5 156,-171.5 54,-171.5"/>
<text text-anchor="middle" x="105" y="-178.7" font-family="Helvetica,sans-Serif" font-size="11.00">DynamicLibrary.h</text>
</a>
</g>
</g>
<!-- Node2 -->
<g id="node2" class="node">
<title>Node2</title>
<g id="a_node2"><a xlink:href="_boolean_8h.html" target="_top" xlink:title="The Boolean specification and body provides a value object type for boolean values.">
<polygon fill="white" stroke="black" points="32.5,-114.5 32.5,-134.5 97.5,-134.5 97.5,-114.5 32.5,-114.5"/>
<text text-anchor="middle" x="65" y="-121.7" font-family="Helvetica,sans-Serif" font-size="11.00">Boolean.h</text>
</a>
</g>
</g>
<!-- Node1&#45;&gt;Node2 -->
<g id="edge1" class="edge">
<title>Node1&#45;&gt;Node2</title>
<path fill="none" stroke="midnightblue" d="M98.39,-171.42C92.81,-163.74 84.65,-152.52 77.8,-143.09"/>
<polygon fill="midnightblue" stroke="midnightblue" points="80.46,-140.81 71.75,-134.78 74.8,-144.93 80.46,-140.81"/>
</g>
<!-- Node6 -->
<g id="node6" class="node">
<title>Node6</title>
<g id="a_node6"><a xlink:href="_object_8h.html" target="_top" xlink:title="The Object specification and body provides the root object type.">
<polygon fill="white" stroke="black" points="116,-114.5 116,-134.5 174,-134.5 174,-114.5 116,-114.5"/>
<text text-anchor="middle" x="145" y="-121.7" font-family="Helvetica,sans-Serif" font-size="11.00">Object.h</text>
</a>
</g>
</g>
<!-- Node1&#45;&gt;Node6 -->
<g id="edge5" class="edge">
<title>Node1&#45;&gt;Node6</title>
<path fill="none" stroke="midnightblue" d="M111.61,-171.42C117.19,-163.74 125.35,-152.52 132.2,-143.09"/>
<polygon fill="midnightblue" stroke="midnightblue" points="135.2,-144.93 138.25,-134.78 129.54,-140.81 135.2,-144.93"/>
</g>
<!-- Node3 -->
<g id="node3" class="node">
<title>Node3</title>
<g id="a_node3"><a xlink:href="_my_string_8h.html" target="_top" xlink:title="The String specification defines a standard string type.">
<polygon fill="white" stroke="black" points="31,-57.5 31,-77.5 99,-77.5 99,-57.5 31,-57.5"/>
<text text-anchor="middle" x="65" y="-64.7" font-family="Helvetica,sans-Serif" font-size="11.00">MyString.h</text>
</a>
</g>
</g>
<!-- Node2&#45;&gt;Node3 -->
<g id="edge2" class="edge">
<title>Node2&#45;&gt;Node3</title>
<path fill="none" stroke="midnightblue" d="M65,-114.42C65,-107.22 65,-96.9 65,-87.86"/>
<polygon fill="midnightblue" stroke="midnightblue" points="68.5,-87.78 65,-77.78 61.5,-87.78 68.5,-87.78"/>
</g>
<!-- Node4 -->
<g id="node4" class="node">
<title>Node4</title>
<g id="a_node4"><a xlink:title=" ">
<polygon fill="white" stroke="#bfbfbf" points="0,-0.5 0,-20.5 44,-20.5 44,-0.5 0,-0.5"/>
<text text-anchor="middle" x="22" y="-7.7" font-family="Helvetica,sans-Serif" font-size="11.00">string</text>
</a>
</g>
</g>
<!-- Node3&#45;&gt;Node4 -->
<g id="edge3" class="edge">
<title>Node3&#45;&gt;Node4</title>
<path fill="none" stroke="midnightblue" d="M57.9,-57.42C51.84,-49.66 42.94,-38.29 35.53,-28.8"/>
<polygon fill="midnightblue" stroke="midnightblue" points="38.17,-26.5 29.25,-20.78 32.66,-30.81 38.17,-26.5"/>
</g>
<!-- Node5 -->
<g id="node5" class="node">
<title>Node5</title>
<g id="a_node5"><a xlink:href="_global_macros_8h.html" target="_top" xlink:title="The GlobalMacros specification defines simple macros (e.g. for parameter modes).">
<polygon fill="white" stroke="black" points="62,-0.5 62,-20.5 154,-20.5 154,-0.5 62,-0.5"/>
<text text-anchor="middle" x="108" y="-7.7" font-family="Helvetica,sans-Serif" font-size="11.00">GlobalMacros.h</text>
</a>
</g>
</g>
<!-- Node3&#45;&gt;Node5 -->
<g id="edge4" class="edge">
<title>Node3&#45;&gt;Node5</title>
<path fill="none" stroke="midnightblue" d="M72.1,-57.42C78.16,-49.66 87.06,-38.29 94.47,-28.8"/>
<polygon fill="midnightblue" stroke="midnightblue" points="97.34,-30.81 100.75,-20.78 91.83,-26.5 97.34,-30.81"/>
</g>
</g>
</svg>
