<?xml version="1.0" encoding="UTF-8" standalone="no"?>
<!DOCTYPE svg PUBLIC "-//W3C//DTD SVG 1.1//EN"
 "http://www.w3.org/Graphics/SVG/1.1/DTD/svg11.dtd">
<!-- Generated by graphviz version 2.47.1 (20210417.1919)
 -->
<!-- Title: DynamicLibrary.h Pages: 1 -->
<svg width="237pt" height="143pt"
 viewBox="0.00 0.00 237.00 143.00" xmlns="http://www.w3.org/2000/svg" xmlns:xlink="http://www.w3.org/1999/xlink">
<g id="graph0" class="graph" transform="scale(1 1) rotate(0) translate(4 139)">
<title>DynamicLibrary.h</title>
<polygon fill="white" stroke="transparent" points="-4,4 -4,-139 233,-139 233,4 -4,4"/>
<!-- Node1 -->
<g id="node1" class="node">
<title>Node1</title>
<g id="a_node1"><a xlink:title="The DynamicLibrary class specifies a very simple and crude wrapper around the dynamic library loading...">
<polygon fill="#bfbfbf" stroke="black" points="18,-114.5 18,-134.5 120,-134.5 120,-114.5 18,-114.5"/>
<text text-anchor="middle" x="69" y="-121.7" font-family="Helvetica,sans-Serif" font-size="11.00">DynamicLibrary.h</text>
</a>
</g>
</g>
<!-- Node2 -->
<g id="node2" class="node">
<title>Node2</title>
<g id="a_node2"><a xlink:href="_object_8h.html" target="_top" xlink:title="The Object specification and body provides the root object type.">
<polygon fill="white" stroke="black" points="0,-57.5 0,-77.5 58,-77.5 58,-57.5 0,-57.5"/>
<text text-anchor="middle" x="29" y="-64.7" font-family="Helvetica,sans-Serif" font-size="11.00">Object.h</text>
</a>
</g>
</g>
<!-- Node1&#45;&gt;Node2 -->
<g id="edge1" class="edge">
<title>Node1&#45;&gt;Node2</title>
<path fill="none" stroke="midnightblue" d="M62.39,-114.42C56.81,-106.74 48.65,-95.52 41.8,-86.09"/>
<polygon fill="midnightblue" stroke="midnightblue" points="44.46,-83.81 35.75,-77.78 38.8,-87.93 44.46,-83.81"/>
</g>
<!-- Node4 -->
<g id="node4" class="node">
<title>Node4</title>
<g id="a_node4"><a xlink:href="_my_string_8h.html" target="_top" xlink:title="The String specification defines a standard string type.">
<polygon fill="white" stroke="black" points="76,-57.5 76,-77.5 144,-77.5 144,-57.5 76,-57.5"/>
<text text-anchor="middle" x="110" y="-64.7" font-family="Helvetica,sans-Serif" font-size="11.00">MyString.h</text>
</a>
</g>
</g>
<!-- Node1&#45;&gt;Node4 -->
<g id="edge3" class="edge">
<title>Node1&#45;&gt;Node4</title>
<path fill="none" stroke="midnightblue" d="M75.77,-114.42C81.55,-106.66 90.03,-95.29 97.1,-85.8"/>
<polygon fill="midnightblue" stroke="midnightblue" points="99.91,-87.89 103.08,-77.78 94.3,-83.71 99.91,-87.89"/>
</g>
<!-- Node3 -->
<g id="node3" class="node">
<title>Node3</title>
<g id="a_node3"><a xlink:title=" ">
<polygon fill="white" stroke="#bfbfbf" points="13,-0.5 13,-20.5 45,-20.5 45,-0.5 13,-0.5"/>
<text text-anchor="middle" x="29" y="-7.7" font-family="Helvetica,sans-Serif" font-size="11.00">set</text>
</a>
</g>
</g>
<!-- Node2&#45;&gt;Node3 -->
<g id="edge2" class="edge">
<title>Node2&#45;&gt;Node3</title>
<path fill="none" stroke="midnightblue" d="M29,-57.42C29,-50.22 29,-39.9 29,-30.86"/>
<polygon fill="midnightblue" stroke="midnightblue" points="32.5,-30.78 29,-20.78 25.5,-30.78 32.5,-30.78"/>
</g>
<!-- Node5 -->
<g id="node5" class="node">
<title>Node5</title>
<g id="a_node5"><a xlink:title=" ">
<polygon fill="white" stroke="#bfbfbf" points="75,-0.5 75,-20.5 119,-20.5 119,-0.5 75,-0.5"/>
<text text-anchor="middle" x="97" y="-7.7" font-family="Helvetica,sans-Serif" font-size="11.00">string</text>
</a>
</g>
</g>
<!-- Node4&#45;&gt;Node5 -->
<g id="edge4" class="edge">
<title>Node4&#45;&gt;Node5</title>
<path fill="none" stroke="midnightblue" d="M107.85,-57.42C106.13,-50.14 103.66,-39.67 101.51,-30.57"/>
<polygon fill="midnightblue" stroke="midnightblue" points="104.9,-29.71 99.19,-20.78 98.09,-31.32 104.9,-29.71"/>
</g>
<!-- Node6 -->
<g id="node6" class="node">
<title>Node6</title>
<g id="a_node6"><a xlink:href="_global_macros_8h.html" target="_top" xlink:title="The GlobalMacros specification defines simple macros (e.g. for parameter modes).">
<polygon fill="white" stroke="black" points="137,-0.5 137,-20.5 229,-20.5 229,-0.5 137,-0.5"/>
<text text-anchor="middle" x="183" y="-7.7" font-family="Helvetica,sans-Serif" font-size="11.00">GlobalMacros.h</text>
</a>
</g>
</g>
<!-- Node4&#45;&gt;Node6 -->
<g id="edge5" class="edge">
<title>Node4&#45;&gt;Node6</title>
<path fill="none" stroke="midnightblue" d="M122.05,-57.42C133.08,-49.11 149.62,-36.65 162.69,-26.8"/>
<polygon fill="midnightblue" stroke="midnightblue" points="164.8,-29.59 170.68,-20.78 160.59,-24 164.8,-29.59"/>
</g>
</g>
</svg>
