<?xml version="1.0" encoding="UTF-8" standalone="no"?>
<!DOCTYPE svg PUBLIC "-//W3C//DTD SVG 1.1//EN"
 "http://www.w3.org/Graphics/SVG/1.1/DTD/svg11.dtd">
<!-- Generated by graphviz version 2.47.1 (20210417.1919)
 -->
<!-- Title: DynamicLibrary.cpp Pages: 1 -->
<svg width="233pt" height="200pt"
 viewBox="0.00 0.00 233.00 200.00" xmlns="http://www.w3.org/2000/svg" xmlns:xlink="http://www.w3.org/1999/xlink">
<g id="graph0" class="graph" transform="scale(1 1) rotate(0) translate(4 196)">
<title>DynamicLibrary.cpp</title>
<polygon fill="white" stroke="transparent" points="-4,4 -4,-196 229,-196 229,4 -4,4"/>
<!-- Node1 -->
<g id="node1" class="node">
<title>Node1</title>
<g id="a_node1"><a xlink:title="The DynamicLibrary class implements a very simple and crude wrapper around the dynamic library loadin...">
<polygon fill="#bfbfbf" stroke="black" points="85,-171.5 85,-191.5 199,-191.5 199,-171.5 85,-171.5"/>
<text text-anchor="middle" x="142" y="-178.7" font-family="Helvetica,sans-Serif" font-size="11.00">DynamicLibrary.cpp</text>
</a>
</g>
</g>
<!-- Node2 -->
<g id="node2" class="node">
<title>Node2</title>
<g id="a_node2"><a xlink:href="_dynamic_library_8h.html" target="_top" xlink:title="The DynamicLibrary class specifies a very simple and crude wrapper around the dynamic library loading...">
<polygon fill="white" stroke="black" points="41,-114.5 41,-134.5 143,-134.5 143,-114.5 41,-114.5"/>
<text text-anchor="middle" x="92" y="-121.7" font-family="Helvetica,sans-Serif" font-size="11.00">DynamicLibrary.h</text>
</a>
</g>
</g>
<!-- Node1&#45;&gt;Node2 -->
<g id="edge1" class="edge">
<title>Node1&#45;&gt;Node2</title>
<path fill="none" stroke="midnightblue" d="M133.74,-171.42C126.55,-163.5 115.93,-151.82 107.2,-142.23"/>
<polygon fill="midnightblue" stroke="midnightblue" points="109.75,-139.82 100.44,-134.78 104.57,-144.53 109.75,-139.82"/>
</g>
<!-- Node8 -->
<g id="node8" class="node">
<title>Node8</title>
<g id="a_node8"><a xlink:title=" ">
<polygon fill="white" stroke="#bfbfbf" points="161,-114.5 161,-134.5 225,-134.5 225,-114.5 161,-114.5"/>
<text text-anchor="middle" x="193" y="-121.7" font-family="Helvetica,sans-Serif" font-size="11.00">Logging.h</text>
</a>
</g>
</g>
<!-- Node1&#45;&gt;Node8 -->
<g id="edge8" class="edge">
<title>Node1&#45;&gt;Node8</title>
<path fill="none" stroke="midnightblue" d="M150.42,-171.42C157.76,-163.5 168.59,-151.82 177.49,-142.23"/>
<polygon fill="midnightblue" stroke="midnightblue" points="180.16,-144.49 184.4,-134.78 175.03,-139.73 180.16,-144.49"/>
</g>
<!-- Node3 -->
<g id="node3" class="node">
<title>Node3</title>
<g id="a_node3"><a xlink:href="_global_macros_8h.html" target="_top" xlink:title="The GlobalMacros specification defines simple macros (e.g. for parameter modes).">
<polygon fill="white" stroke="black" points="52,-0.5 52,-20.5 144,-20.5 144,-0.5 52,-0.5"/>
<text text-anchor="middle" x="98" y="-7.7" font-family="Helvetica,sans-Serif" font-size="11.00">GlobalMacros.h</text>
</a>
</g>
</g>
<!-- Node2&#45;&gt;Node3 -->
<g id="edge2" class="edge">
<title>Node2&#45;&gt;Node3</title>
<path fill="none" stroke="midnightblue" d="M92.49,-114.33C93.46,-96.2 95.65,-55.41 96.96,-31"/>
<polygon fill="midnightblue" stroke="midnightblue" points="100.46,-30.97 97.5,-20.79 93.47,-30.59 100.46,-30.97"/>
</g>
<!-- Node4 -->
<g id="node4" class="node">
<title>Node4</title>
<g id="a_node4"><a xlink:href="_object_8h.html" target="_top" xlink:title="The Object specification and body provides the root object type.">
<polygon fill="white" stroke="black" points="0,-57.5 0,-77.5 58,-77.5 58,-57.5 0,-57.5"/>
<text text-anchor="middle" x="29" y="-64.7" font-family="Helvetica,sans-Serif" font-size="11.00">Object.h</text>
</a>
</g>
</g>
<!-- Node2&#45;&gt;Node4 -->
<g id="edge3" class="edge">
<title>Node2&#45;&gt;Node4</title>
<path fill="none" stroke="midnightblue" d="M81.6,-114.42C72.26,-106.27 58.35,-94.12 47.17,-84.37"/>
<polygon fill="midnightblue" stroke="midnightblue" points="49.46,-81.72 39.63,-77.78 44.86,-86.99 49.46,-81.72"/>
</g>
<!-- Node6 -->
<g id="node6" class="node">
<title>Node6</title>
<g id="a_node6"><a xlink:href="_my_string_8h.html" target="_top" xlink:title="The String specification defines a standard string type.">
<polygon fill="white" stroke="black" points="120,-57.5 120,-77.5 188,-77.5 188,-57.5 120,-57.5"/>
<text text-anchor="middle" x="154" y="-64.7" font-family="Helvetica,sans-Serif" font-size="11.00">MyString.h</text>
</a>
</g>
</g>
<!-- Node2&#45;&gt;Node6 -->
<g id="edge5" class="edge">
<title>Node2&#45;&gt;Node6</title>
<path fill="none" stroke="midnightblue" d="M102.24,-114.42C111.34,-106.35 124.85,-94.36 135.79,-84.65"/>
<polygon fill="midnightblue" stroke="midnightblue" points="138.38,-87.03 143.54,-77.78 133.74,-81.8 138.38,-87.03"/>
</g>
<!-- Node5 -->
<g id="node5" class="node">
<title>Node5</title>
<g id="a_node5"><a xlink:title=" ">
<polygon fill="white" stroke="#bfbfbf" points="2,-0.5 2,-20.5 34,-20.5 34,-0.5 2,-0.5"/>
<text text-anchor="middle" x="18" y="-7.7" font-family="Helvetica,sans-Serif" font-size="11.00">set</text>
</a>
</g>
</g>
<!-- Node4&#45;&gt;Node5 -->
<g id="edge4" class="edge">
<title>Node4&#45;&gt;Node5</title>
<path fill="none" stroke="midnightblue" d="M27.18,-57.42C25.74,-50.22 23.68,-39.9 21.87,-30.86"/>
<polygon fill="midnightblue" stroke="midnightblue" points="25.25,-29.9 19.86,-20.78 18.39,-31.27 25.25,-29.9"/>
</g>
<!-- Node6&#45;&gt;Node3 -->
<g id="edge7" class="edge">
<title>Node6&#45;&gt;Node3</title>
<path fill="none" stroke="midnightblue" d="M144.75,-57.42C136.61,-49.42 124.56,-37.59 114.74,-27.94"/>
<polygon fill="midnightblue" stroke="midnightblue" points="117.04,-25.29 107.45,-20.78 112.13,-30.28 117.04,-25.29"/>
</g>
<!-- Node7 -->
<g id="node7" class="node">
<title>Node7</title>
<g id="a_node7"><a xlink:title=" ">
<polygon fill="white" stroke="#bfbfbf" points="162,-0.5 162,-20.5 206,-20.5 206,-0.5 162,-0.5"/>
<text text-anchor="middle" x="184" y="-7.7" font-family="Helvetica,sans-Serif" font-size="11.00">string</text>
</a>
</g>
</g>
<!-- Node6&#45;&gt;Node7 -->
<g id="edge6" class="edge">
<title>Node6&#45;&gt;Node7</title>
<path fill="none" stroke="midnightblue" d="M158.95,-57.42C163.05,-49.9 169.01,-38.98 174.08,-29.68"/>
<polygon fill="midnightblue" stroke="midnightblue" points="177.22,-31.23 178.94,-20.78 171.08,-27.88 177.22,-31.23"/>
</g>
</g>
</svg>
