<?xml version="1.0" encoding="UTF-8" standalone="no"?>
<!DOCTYPE svg PUBLIC "-//W3C//DTD SVG 1.1//EN"
 "http://www.w3.org/Graphics/SVG/1.1/DTD/svg11.dtd">
<!-- Generated by graphviz version 2.47.1 (20210417.1919)
 -->
<!-- Title: Environment.cpp Pages: 1 -->
<!--zoomable 476 -->
<svg id="main" version="1.1" xmlns="http://www.w3.org/2000/svg" xmlns:xlink="http://www.w3.org/1999/xlink" xml:space="preserve" onload="init(evt)">
<style type="text/css"><![CDATA[
.edge:hover path { stroke: red; }
.edge:hover polygon { stroke: red; fill: red; }
]]></style>
<script type="text/javascript"><![CDATA[
var edges = document.getElementsByTagName('g');
if (edges && edges.length) {
  for (var i=0;i<edges.length;i++) {
    if (edges[i].id.substr(0,4)=='edge') {
      edges[i].setAttribute('class','edge');
    }
  }
}
]]></script>
        <defs>
                <circle id="rim" cx="0" cy="0" r="7"/>
                <circle id="rim2" cx="0" cy="0" r="3.5"/>
                <g id="zoomPlus">
                        <use xlink:href="#rim" fill="#404040">
                                <set attributeName="fill" to="#808080" begin="zoomplus.mouseover" end="zoomplus.mouseout"/>
                        </use>
                        <path d="M-4,0h8M0,-4v8" fill="none" stroke="white" stroke-width="1.5" pointer-events="none"/>
                </g>
                <g id="zoomMin">
                        <use xlink:href="#rim" fill="#404040">
                                <set attributeName="fill" to="#808080" begin="zoomminus.mouseover" end="zoomminus.mouseout"/>
                        </use>
                        <path d="M-4,0h8" fill="none" stroke="white" stroke-width="1.5" pointer-events="none"/>
                </g>
                <g id="dirArrow">
                        <path fill="none" stroke="white" stroke-width="1.5" d="M0,-3.0v7 M-2.5,-0.5L0,-3.0L2.5,-0.5"/>
                </g>
               <g id="resetDef">
                       <use xlink:href="#rim2" fill="#404040">
                               <set attributeName="fill" to="#808080" begin="reset.mouseover" end="reset.mouseout"/>
                       </use>
               </g>
        </defs>

<script type="text/javascript">
var viewWidth = 576;
var viewHeight = 476;
var sectionId = 'dynsection-0';
</script>
<script xlink:href="svgpan.js"/>
<svg id="graph" class="graph">
<g id="viewport">
<title>Environment.cpp</title>
<polygon fill="white" stroke="transparent" points="-4,4 -4,-472 571.5,-472 571.5,4 -4,4"/>
<!-- Node1 -->
<g id="node1" class="node">
<title>Node1</title>
<g id="a_node1"><a xlink:title="The Environment body implements operating system services related to environment variables.">
<polygon fill="#bfbfbf" stroke="black" points="86,-448.5 86,-467.5 175,-467.5 175,-448.5 86,-448.5"/>
<text text-anchor="middle" x="130.5" y="-455.5" font-family="Helvetica,sans-Serif" font-size="10.00">Environment.cpp</text>
</a>
</g>
</g>
<!-- Node2 -->
<g id="node2" class="node">
<title>Node2</title>
<g id="a_node2"><a xlink:title=" ">
<polygon fill="white" stroke="#bfbfbf" points="57,-392.5 57,-411.5 102,-411.5 102,-392.5 57,-392.5"/>
<text text-anchor="middle" x="79.5" y="-399.5" font-family="Helvetica,sans-Serif" font-size="10.00">cstdlib</text>
</a>
</g>
</g>
<!-- Node1&#45;&gt;Node2 -->
<g id="edge1" class="edge">
<title>Node1&#45;&gt;Node2</title>
<path fill="none" stroke="midnightblue" d="M122.08,-448.08C114.65,-440.22 103.65,-428.57 94.69,-419.08"/>
<polygon fill="midnightblue" stroke="midnightblue" points="97.18,-416.62 87.76,-411.75 92.09,-421.42 97.18,-416.62"/>
</g>
<!-- Node3 -->
<g id="node3" class="node">
<title>Node3</title>
<g id="a_node3"><a xlink:href="_environment_8h.html" target="_top" xlink:title="The Environment specification defines operating system services related to environment variables.">
<polygon fill="white" stroke="black" points="68.5,-336.5 68.5,-355.5 146.5,-355.5 146.5,-336.5 68.5,-336.5"/>
<text text-anchor="middle" x="107.5" y="-343.5" font-family="Helvetica,sans-Serif" font-size="10.00">Environment.h</text>
</a>
</g>
</g>
<!-- Node1&#45;&gt;Node3 -->
<g id="edge2" class="edge">
<title>Node1&#45;&gt;Node3</title>
<path fill="none" stroke="midnightblue" d="M128.7,-448.37C124.98,-430.62 116.42,-389.67 111.39,-365.6"/>
<polygon fill="midnightblue" stroke="midnightblue" points="114.77,-364.66 109.3,-355.59 107.92,-366.1 114.77,-364.66"/>
</g>
<!-- Node15 -->
<g id="node15" class="node">
<title>Node15</title>
<g id="a_node15"><a xlink:href="_logging_8h.html" target="_top" xlink:title="The Logging specification defines macros for entry&#45;, exit&#45; and intermediate logging of functions into...">
<polygon fill="white" stroke="black" points="226,-392.5 226,-411.5 285,-411.5 285,-392.5 226,-392.5"/>
<text text-anchor="middle" x="255.5" y="-399.5" font-family="Helvetica,sans-Serif" font-size="10.00">Logging.h</text>
</a>
</g>
</g>
<!-- Node1&#45;&gt;Node15 -->
<g id="edge16" class="edge">
<title>Node1&#45;&gt;Node15</title>
<path fill="none" stroke="midnightblue" d="M150.31,-448.44C170.79,-439.6 202.98,-425.69 226.36,-415.59"/>
<polygon fill="midnightblue" stroke="midnightblue" points="227.99,-418.7 235.79,-411.52 225.22,-412.27 227.99,-418.7"/>
</g>
<!-- Node4 -->
<g id="node4" class="node">
<title>Node4</title>
<g id="a_node4"><a xlink:href="_boolean_8h.html" target="_top" xlink:title="The Boolean specification and body provides a value object type for boolean values.">
<polygon fill="white" stroke="black" points="132.5,-280.5 132.5,-299.5 192.5,-299.5 192.5,-280.5 132.5,-280.5"/>
<text text-anchor="middle" x="162.5" y="-287.5" font-family="Helvetica,sans-Serif" font-size="10.00">Boolean.h</text>
</a>
</g>
</g>
<!-- Node3&#45;&gt;Node4 -->
<g id="edge3" class="edge">
<title>Node3&#45;&gt;Node4</title>
<path fill="none" stroke="midnightblue" d="M116.58,-336.08C124.67,-328.14 136.7,-316.34 146.41,-306.8"/>
<polygon fill="midnightblue" stroke="midnightblue" points="148.9,-309.25 153.59,-299.75 144,-304.26 148.9,-309.25"/>
</g>
<!-- Node8 -->
<g id="node8" class="node">
<title>Node8</title>
<g id="a_node8"><a xlink:href="_dictionary_8h.html" target="_top" xlink:title="The Dictionary specification defines maps from string keys to string values.">
<polygon fill="white" stroke="black" points="7.5,-280.5 7.5,-299.5 75.5,-299.5 75.5,-280.5 7.5,-280.5"/>
<text text-anchor="middle" x="41.5" y="-287.5" font-family="Helvetica,sans-Serif" font-size="10.00">Dictionary.h</text>
</a>
</g>
</g>
<!-- Node3&#45;&gt;Node8 -->
<g id="edge7" class="edge">
<title>Node3&#45;&gt;Node8</title>
<path fill="none" stroke="midnightblue" d="M96.9,-336.32C87.04,-328.26 72.15,-316.08 60.28,-306.37"/>
<polygon fill="midnightblue" stroke="midnightblue" points="62.25,-303.46 52.3,-299.83 57.82,-308.88 62.25,-303.46"/>
</g>
<!-- Node10 -->
<g id="node10" class="node">
<title>Node10</title>
<g id="a_node10"><a xlink:href="_natural_8h.html" target="_top" xlink:title="The Natural specification and body provides a value object type for naturals (positive integers with ...">
<polygon fill="white" stroke="black" points="255.5,-112.5 255.5,-131.5 311.5,-131.5 311.5,-112.5 255.5,-112.5"/>
<text text-anchor="middle" x="283.5" y="-119.5" font-family="Helvetica,sans-Serif" font-size="10.00">Natural.h</text>
</a>
</g>
</g>
<!-- Node3&#45;&gt;Node10 -->
<g id="edge9" class="edge">
<title>Node3&#45;&gt;Node10</title>
<path fill="none" stroke="midnightblue" d="M108.11,-336.45C109.36,-323.48 113.03,-298.38 123.5,-280 159.42,-217 227.82,-162.53 262.39,-137.55"/>
<polygon fill="midnightblue" stroke="midnightblue" points="264.67,-140.22 270.8,-131.58 260.62,-134.52 264.67,-140.22"/>
</g>
<!-- Node5 -->
<g id="node5" class="node">
<title>Node5</title>
<g id="a_node5"><a xlink:href="_my_string_8h.html" target="_top" xlink:title="The String specification defines a standard string type.">
<polygon fill="white" stroke="black" points="152.5,-56.5 152.5,-75.5 216.5,-75.5 216.5,-56.5 152.5,-56.5"/>
<text text-anchor="middle" x="184.5" y="-63.5" font-family="Helvetica,sans-Serif" font-size="10.00">MyString.h</text>
</a>
</g>
</g>
<!-- Node4&#45;&gt;Node5 -->
<g id="edge4" class="edge">
<title>Node4&#45;&gt;Node5</title>
<path fill="none" stroke="midnightblue" d="M163.36,-280.3C166.6,-247.63 178.07,-131.87 182.62,-85.96"/>
<polygon fill="midnightblue" stroke="midnightblue" points="186.12,-86.18 183.62,-75.88 179.15,-85.49 186.12,-86.18"/>
</g>
<!-- Node6 -->
<g id="node6" class="node">
<title>Node6</title>
<g id="a_node6"><a xlink:title=" ">
<polygon fill="white" stroke="#bfbfbf" points="312,-0.5 312,-19.5 353,-19.5 353,-0.5 312,-0.5"/>
<text text-anchor="middle" x="332.5" y="-7.5" font-family="Helvetica,sans-Serif" font-size="10.00">string</text>
</a>
</g>
</g>
<!-- Node5&#45;&gt;Node6 -->
<g id="edge5" class="edge">
<title>Node5&#45;&gt;Node6</title>
<path fill="none" stroke="midnightblue" d="M207.95,-56.44C233.36,-47.17 273.99,-32.35 301.9,-22.17"/>
<polygon fill="midnightblue" stroke="midnightblue" points="303.36,-25.36 311.55,-18.64 300.96,-18.78 303.36,-25.36"/>
</g>
<!-- Node7 -->
<g id="node7" class="node">
<title>Node7</title>
<g id="a_node7"><a xlink:href="_global_macros_8h.html" target="_top" xlink:title="The GlobalMacros specification defines simple macros (e.g. for parameter modes).">
<polygon fill="white" stroke="black" points="142,-0.5 142,-19.5 227,-19.5 227,-0.5 142,-0.5"/>
<text text-anchor="middle" x="184.5" y="-7.5" font-family="Helvetica,sans-Serif" font-size="10.00">GlobalMacros.h</text>
</a>
</g>
</g>
<!-- Node5&#45;&gt;Node7 -->
<g id="edge6" class="edge">
<title>Node5&#45;&gt;Node7</title>
<path fill="none" stroke="midnightblue" d="M184.5,-56.08C184.5,-49.01 184.5,-38.86 184.5,-29.99"/>
<polygon fill="midnightblue" stroke="midnightblue" points="188,-29.75 184.5,-19.75 181,-29.75 188,-29.75"/>
</g>
<!-- Node9 -->
<g id="node9" class="node">
<title>Node9</title>
<g id="a_node9"><a xlink:title=" ">
<polygon fill="white" stroke="#bfbfbf" points="0,-224.5 0,-243.5 77,-243.5 77,-224.5 0,-224.5"/>
<text text-anchor="middle" x="38.5" y="-231.5" font-family="Helvetica,sans-Serif" font-size="10.00">GenericMap.h</text>
</a>
</g>
</g>
<!-- Node8&#45;&gt;Node9 -->
<g id="edge8" class="edge">
<title>Node8&#45;&gt;Node9</title>
<path fill="none" stroke="midnightblue" d="M41,-280.08C40.61,-273.01 40.05,-262.86 39.55,-253.99"/>
<polygon fill="midnightblue" stroke="midnightblue" points="43.04,-253.54 38.99,-243.75 36.05,-253.93 43.04,-253.54"/>
</g>
<!-- Node10&#45;&gt;Node5 -->
<g id="edge15" class="edge">
<title>Node10&#45;&gt;Node5</title>
<path fill="none" stroke="midnightblue" d="M267.59,-112.32C251.86,-103.74 227.56,-90.49 209.29,-80.52"/>
<polygon fill="midnightblue" stroke="midnightblue" points="210.82,-77.37 200.37,-75.65 207.47,-83.52 210.82,-77.37"/>
</g>
<!-- Node11 -->
<g id="node11" class="node">
<title>Node11</title>
<g id="a_node11"><a xlink:title=" ">
<polygon fill="white" stroke="#bfbfbf" points="428.5,-56.5 428.5,-75.5 472.5,-75.5 472.5,-56.5 428.5,-56.5"/>
<text text-anchor="middle" x="450.5" y="-63.5" font-family="Helvetica,sans-Serif" font-size="10.00">cmath</text>
</a>
</g>
</g>
<!-- Node10&#45;&gt;Node11 -->
<g id="edge10" class="edge">
<title>Node10&#45;&gt;Node11</title>
<path fill="none" stroke="midnightblue" d="M309.96,-112.44C339.51,-102.89 387.3,-87.44 418.81,-77.25"/>
<polygon fill="midnightblue" stroke="midnightblue" points="419.99,-80.54 428.43,-74.14 417.84,-73.88 419.99,-80.54"/>
</g>
<!-- Node12 -->
<g id="node12" class="node">
<title>Node12</title>
<g id="a_node12"><a xlink:href="_assertion_8h.html" target="_top" xlink:title="The Assertion specification defines macros for pre&#45; and postconditions in functions or methods.">
<polygon fill="white" stroke="black" points="344.5,-56.5 344.5,-75.5 410.5,-75.5 410.5,-56.5 344.5,-56.5"/>
<text text-anchor="middle" x="377.5" y="-63.5" font-family="Helvetica,sans-Serif" font-size="10.00">Assertion.h</text>
</a>
</g>
</g>
<!-- Node10&#45;&gt;Node12 -->
<g id="edge11" class="edge">
<title>Node10&#45;&gt;Node12</title>
<path fill="none" stroke="midnightblue" d="M298.6,-112.32C313.4,-103.82 336.19,-90.73 353.48,-80.8"/>
<polygon fill="midnightblue" stroke="midnightblue" points="355.51,-83.67 362.43,-75.65 352.02,-77.6 355.51,-83.67"/>
</g>
<!-- Node14 -->
<g id="node14" class="node">
<title>Node14</title>
<g id="a_node14"><a xlink:title=" ">
<polygon fill="white" stroke="#bfbfbf" points="234.5,-56.5 234.5,-75.5 326.5,-75.5 326.5,-56.5 234.5,-56.5"/>
<text text-anchor="middle" x="280.5" y="-63.5" font-family="Helvetica,sans-Serif" font-size="10.00">GenericNumber.h</text>
</a>
</g>
</g>
<!-- Node10&#45;&gt;Node14 -->
<g id="edge14" class="edge">
<title>Node10&#45;&gt;Node14</title>
<path fill="none" stroke="midnightblue" d="M283,-112.08C282.61,-105.01 282.05,-94.86 281.55,-85.99"/>
<polygon fill="midnightblue" stroke="midnightblue" points="285.04,-85.54 280.99,-75.75 278.05,-85.93 285.04,-85.54"/>
</g>
<!-- Node12&#45;&gt;Node6 -->
<g id="edge13" class="edge">
<title>Node12&#45;&gt;Node6</title>
<path fill="none" stroke="midnightblue" d="M370.07,-56.08C363.65,-48.38 354.19,-37.03 346.38,-27.65"/>
<polygon fill="midnightblue" stroke="midnightblue" points="348.88,-25.19 339.79,-19.75 343.51,-29.67 348.88,-25.19"/>
</g>
<!-- Node13 -->
<g id="node13" class="node">
<title>Node13</title>
<g id="a_node13"><a xlink:title=" ">
<polygon fill="white" stroke="#bfbfbf" points="393,-0.5 393,-19.5 452,-19.5 452,-0.5 393,-0.5"/>
<text text-anchor="middle" x="422.5" y="-7.5" font-family="Helvetica,sans-Serif" font-size="10.00">stdexcept</text>
</a>
</g>
</g>
<!-- Node12&#45;&gt;Node13 -->
<g id="edge12" class="edge">
<title>Node12&#45;&gt;Node13</title>
<path fill="none" stroke="midnightblue" d="M384.93,-56.08C391.35,-48.38 400.81,-37.03 408.62,-27.65"/>
<polygon fill="midnightblue" stroke="midnightblue" points="411.49,-29.67 415.21,-19.75 406.12,-25.19 411.49,-29.67"/>
</g>
<!-- Node16 -->
<g id="node16" class="node">
<title>Node16</title>
<g id="a_node16"><a xlink:title=" ">
<polygon fill="white" stroke="#bfbfbf" points="276,-336.5 276,-355.5 325,-355.5 325,-336.5 276,-336.5"/>
<text text-anchor="middle" x="300.5" y="-343.5" font-family="Helvetica,sans-Serif" font-size="10.00">cstdarg</text>
</a>
</g>
</g>
<!-- Node15&#45;&gt;Node16 -->
<g id="edge17" class="edge">
<title>Node15&#45;&gt;Node16</title>
<path fill="none" stroke="midnightblue" d="M262.93,-392.08C269.35,-384.38 278.81,-373.03 286.62,-363.65"/>
<polygon fill="midnightblue" stroke="midnightblue" points="289.49,-365.67 293.21,-355.75 284.12,-361.19 289.49,-365.67"/>
</g>
<!-- Node17 -->
<g id="node17" class="node">
<title>Node17</title>
<g id="a_node17"><a xlink:href="_logging_support_8h.html" target="_top" xlink:title="The LoggingSupport specification defines a class for simple entry/exit logging to a file or via an ar...">
<polygon fill="white" stroke="black" points="165.5,-336.5 165.5,-355.5 257.5,-355.5 257.5,-336.5 165.5,-336.5"/>
<text text-anchor="middle" x="211.5" y="-343.5" font-family="Helvetica,sans-Serif" font-size="10.00">LoggingSupport.h</text>
</a>
</g>
</g>
<!-- Node15&#45;&gt;Node17 -->
<g id="edge18" class="edge">
<title>Node15&#45;&gt;Node17</title>
<path fill="none" stroke="midnightblue" d="M248.23,-392.08C241.96,-384.38 232.71,-373.03 225.07,-363.65"/>
<polygon fill="midnightblue" stroke="midnightblue" points="227.66,-361.29 218.63,-355.75 222.23,-365.71 227.66,-361.29"/>
</g>
<!-- Node18 -->
<g id="node18" class="node">
<title>Node18</title>
<g id="a_node18"><a xlink:href="_string_util_8h.html" target="_top" xlink:title="The StringUtil specification defines several string routines not included in the standard C++ library...">
<polygon fill="white" stroke="black" points="344,-336.5 344,-355.5 409,-355.5 409,-336.5 344,-336.5"/>
<text text-anchor="middle" x="376.5" y="-343.5" font-family="Helvetica,sans-Serif" font-size="10.00">StringUtil.h</text>
</a>
</g>
</g>
<!-- Node15&#45;&gt;Node18 -->
<g id="edge21" class="edge">
<title>Node15&#45;&gt;Node18</title>
<path fill="none" stroke="midnightblue" d="M274.67,-392.44C294.41,-383.64 325.39,-369.81 347.99,-359.72"/>
<polygon fill="midnightblue" stroke="midnightblue" points="349.71,-362.79 357.42,-355.52 346.86,-356.4 349.71,-362.79"/>
</g>
<!-- Node17&#45;&gt;Node4 -->
<g id="edge19" class="edge">
<title>Node17&#45;&gt;Node4</title>
<path fill="none" stroke="midnightblue" d="M203.41,-336.08C196.34,-328.3 185.91,-316.8 177.35,-307.37"/>
<polygon fill="midnightblue" stroke="midnightblue" points="179.75,-304.8 170.44,-299.75 174.57,-309.51 179.75,-304.8"/>
</g>
<!-- Node17&#45;&gt;Node10 -->
<g id="edge20" class="edge">
<title>Node17&#45;&gt;Node10</title>
<path fill="none" stroke="midnightblue" d="M212.94,-336.34C216.4,-316.28 225.9,-265.15 239.5,-224 249.41,-194 264.86,-160.66 274.56,-140.78"/>
<polygon fill="midnightblue" stroke="midnightblue" points="277.76,-142.22 279.06,-131.7 271.48,-139.11 277.76,-142.22"/>
</g>
<!-- Node18&#45;&gt;Node4 -->
<g id="edge22" class="edge">
<title>Node18&#45;&gt;Node4</title>
<path fill="none" stroke="midnightblue" d="M344,-336.8C306.06,-327.22 243.3,-311.39 202.43,-301.08"/>
<polygon fill="midnightblue" stroke="midnightblue" points="203.09,-297.63 192.54,-298.58 201.38,-304.42 203.09,-297.63"/>
</g>
<!-- Node19 -->
<g id="node19" class="node">
<title>Node19</title>
<g id="a_node19"><a xlink:href="_character_8h.html" target="_top" xlink:title="The Character specification and body provides a value object type for character values.">
<polygon fill="white" stroke="black" points="433,-224.5 433,-243.5 500,-243.5 500,-224.5 433,-224.5"/>
<text text-anchor="middle" x="466.5" y="-231.5" font-family="Helvetica,sans-Serif" font-size="10.00">Character.h</text>
</a>
</g>
</g>
<!-- Node18&#45;&gt;Node19 -->
<g id="edge23" class="edge">
<title>Node18&#45;&gt;Node19</title>
<path fill="none" stroke="midnightblue" d="M385.18,-336.31C393.9,-327.44 407.57,-313.15 418.5,-300 431.61,-284.22 445.41,-265.26 454.83,-251.9"/>
<polygon fill="midnightblue" stroke="midnightblue" points="457.73,-253.85 460.59,-243.65 451.99,-249.85 457.73,-253.85"/>
</g>
<!-- Node22 -->
<g id="node22" class="node">
<title>Node22</title>
<g id="a_node22"><a xlink:href="_percentage_8h.html" target="_top" xlink:title="The Percentage specification and body provides a simple percentage type.">
<polygon fill="white" stroke="black" points="491.5,-280.5 491.5,-299.5 565.5,-299.5 565.5,-280.5 491.5,-280.5"/>
<text text-anchor="middle" x="528.5" y="-287.5" font-family="Helvetica,sans-Serif" font-size="10.00">Percentage.h</text>
</a>
</g>
</g>
<!-- Node18&#45;&gt;Node22 -->
<g id="edge29" class="edge">
<title>Node18&#45;&gt;Node22</title>
<path fill="none" stroke="midnightblue" d="M400.58,-336.44C426.04,-327.4 466.39,-313.06 494.96,-302.92"/>
<polygon fill="midnightblue" stroke="midnightblue" points="496.28,-306.16 504.53,-299.52 493.93,-299.57 496.28,-306.16"/>
</g>
<!-- Node25 -->
<g id="node25" class="node">
<title>Node25</title>
<g id="a_node25"><a xlink:href="_string_list_8h.html" target="_top" xlink:title="The StringList specification defines lists of string values with zero&#45;based arbitrary indexed access ...">
<polygon fill="white" stroke="black" points="343.5,-280.5 343.5,-299.5 409.5,-299.5 409.5,-280.5 343.5,-280.5"/>
<text text-anchor="middle" x="376.5" y="-287.5" font-family="Helvetica,sans-Serif" font-size="10.00">StringList.h</text>
</a>
</g>
</g>
<!-- Node18&#45;&gt;Node25 -->
<g id="edge36" class="edge">
<title>Node18&#45;&gt;Node25</title>
<path fill="none" stroke="midnightblue" d="M376.5,-336.08C376.5,-329.01 376.5,-318.86 376.5,-309.99"/>
<polygon fill="midnightblue" stroke="midnightblue" points="380,-309.75 376.5,-299.75 373,-309.75 380,-309.75"/>
</g>
<!-- Node19&#45;&gt;Node11 -->
<g id="edge24" class="edge">
<title>Node19&#45;&gt;Node11</title>
<path fill="none" stroke="midnightblue" d="M465.64,-224.08C463.12,-197.95 455.73,-121.21 452.29,-85.58"/>
<polygon fill="midnightblue" stroke="midnightblue" points="455.77,-85.19 451.33,-75.57 448.8,-85.86 455.77,-85.19"/>
</g>
<!-- Node20 -->
<g id="node20" class="node">
<title>Node20</title>
<g id="a_node20"><a xlink:href="_byte_8h.html" target="_top" xlink:title="The Byte specification and body provides a value object type for byte values.">
<polygon fill="white" stroke="black" points="355,-168.5 355,-187.5 400,-187.5 400,-168.5 355,-168.5"/>
<text text-anchor="middle" x="377.5" y="-175.5" font-family="Helvetica,sans-Serif" font-size="10.00">Byte.h</text>
</a>
</g>
</g>
<!-- Node19&#45;&gt;Node20 -->
<g id="edge25" class="edge">
<title>Node19&#45;&gt;Node20</title>
<path fill="none" stroke="midnightblue" d="M452.2,-224.32C438.32,-215.9 417.01,-202.97 400.7,-193.07"/>
<polygon fill="midnightblue" stroke="midnightblue" points="402.13,-189.85 391.76,-187.65 398.5,-195.83 402.13,-189.85"/>
</g>
<!-- Node20&#45;&gt;Node10 -->
<g id="edge28" class="edge">
<title>Node20&#45;&gt;Node10</title>
<path fill="none" stroke="midnightblue" d="M362.4,-168.32C347.6,-159.82 324.81,-146.73 307.52,-136.8"/>
<polygon fill="midnightblue" stroke="midnightblue" points="308.98,-133.6 298.57,-131.65 305.49,-139.67 308.98,-133.6"/>
</g>
<!-- Node20&#45;&gt;Node11 -->
<g id="edge26" class="edge">
<title>Node20&#45;&gt;Node11</title>
<path fill="none" stroke="midnightblue" d="M383.23,-168.37C395.28,-150.22 423.42,-107.8 439.22,-83.99"/>
<polygon fill="midnightblue" stroke="midnightblue" points="442.19,-85.86 444.8,-75.59 436.35,-81.99 442.19,-85.86"/>
</g>
<!-- Node21 -->
<g id="node21" class="node">
<title>Node21</title>
<g id="a_node21"><a xlink:title=" ">
<polygon fill="white" stroke="#bfbfbf" points="335.5,-112.5 335.5,-131.5 381.5,-131.5 381.5,-112.5 335.5,-112.5"/>
<text text-anchor="middle" x="358.5" y="-119.5" font-family="Helvetica,sans-Serif" font-size="10.00">cstdint</text>
</a>
</g>
</g>
<!-- Node20&#45;&gt;Node21 -->
<g id="edge27" class="edge">
<title>Node20&#45;&gt;Node21</title>
<path fill="none" stroke="midnightblue" d="M374.36,-168.08C371.82,-160.85 368.14,-150.41 364.97,-141.4"/>
<polygon fill="midnightblue" stroke="midnightblue" points="368.2,-140.02 361.58,-131.75 361.6,-142.35 368.2,-140.02"/>
</g>
<!-- Node23 -->
<g id="node23" class="node">
<title>Node23</title>
<g id="a_node23"><a xlink:href="_real_8h.html" target="_top" xlink:title="The Real specification defines a value object type for real values.">
<polygon fill="white" stroke="black" points="518.5,-224.5 518.5,-243.5 562.5,-243.5 562.5,-224.5 518.5,-224.5"/>
<text text-anchor="middle" x="540.5" y="-231.5" font-family="Helvetica,sans-Serif" font-size="10.00">Real.h</text>
</a>
</g>
</g>
<!-- Node22&#45;&gt;Node23 -->
<g id="edge30" class="edge">
<title>Node22&#45;&gt;Node23</title>
<path fill="none" stroke="midnightblue" d="M530.48,-280.08C532.07,-272.93 534.36,-262.64 536.35,-253.69"/>
<polygon fill="midnightblue" stroke="midnightblue" points="539.8,-254.27 538.56,-243.75 532.97,-252.75 539.8,-254.27"/>
</g>
<!-- Node23&#45;&gt;Node11 -->
<g id="edge31" class="edge">
<title>Node23&#45;&gt;Node11</title>
<path fill="none" stroke="midnightblue" d="M532.33,-224.2C524.51,-215.48 512.73,-201.5 504.5,-188 498.8,-178.65 471.69,-116.23 458.18,-84.89"/>
<polygon fill="midnightblue" stroke="midnightblue" points="461.34,-83.37 454.18,-75.57 454.91,-86.14 461.34,-83.37"/>
</g>
<!-- Node24 -->
<g id="node24" class="node">
<title>Node24</title>
<g id="a_node24"><a xlink:href="_integer_8h.html" target="_top" xlink:title="The Integer specification and body provides a value object type for ints.">
<polygon fill="white" stroke="black" points="513.5,-168.5 513.5,-187.5 567.5,-187.5 567.5,-168.5 513.5,-168.5"/>
<text text-anchor="middle" x="540.5" y="-175.5" font-family="Helvetica,sans-Serif" font-size="10.00">Integer.h</text>
</a>
</g>
</g>
<!-- Node23&#45;&gt;Node24 -->
<g id="edge32" class="edge">
<title>Node23&#45;&gt;Node24</title>
<path fill="none" stroke="midnightblue" d="M540.5,-224.08C540.5,-217.01 540.5,-206.86 540.5,-197.99"/>
<polygon fill="midnightblue" stroke="midnightblue" points="544,-197.75 540.5,-187.75 537,-197.75 544,-197.75"/>
</g>
<!-- Node24&#45;&gt;Node10 -->
<g id="edge35" class="edge">
<title>Node24&#45;&gt;Node10</title>
<path fill="none" stroke="midnightblue" d="M513.48,-171.32C467.57,-161.68 374.21,-142.06 321.65,-131.02"/>
<polygon fill="midnightblue" stroke="midnightblue" points="322.22,-127.56 311.71,-128.93 320.78,-134.41 322.22,-127.56"/>
</g>
<!-- Node24&#45;&gt;Node11 -->
<g id="edge33" class="edge">
<title>Node24&#45;&gt;Node11</title>
<path fill="none" stroke="midnightblue" d="M535.87,-168.09C528.9,-155.08 514.89,-130.44 499.5,-112 490.46,-101.16 478.88,-90.42 469.25,-82.15"/>
<polygon fill="midnightblue" stroke="midnightblue" points="471.32,-79.31 461.4,-75.57 466.82,-84.68 471.32,-79.31"/>
</g>
<!-- Node24&#45;&gt;Node13 -->
<g id="edge34" class="edge">
<title>Node24&#45;&gt;Node13</title>
<path fill="none" stroke="midnightblue" d="M538.52,-168.29C535.44,-155.52 528.87,-131.18 519.5,-112 506.3,-84.97 502.17,-77.85 481.5,-56 470.49,-44.37 456.26,-33.42 444.54,-25.24"/>
<polygon fill="midnightblue" stroke="midnightblue" points="446.39,-22.27 436.15,-19.55 442.47,-28.06 446.39,-22.27"/>
</g>
<!-- Node26 -->
<g id="node26" class="node">
<title>Node26</title>
<g id="a_node26"><a xlink:title=" ">
<polygon fill="white" stroke="#bfbfbf" points="249,-224.5 249,-243.5 322,-243.5 322,-224.5 249,-224.5"/>
<text text-anchor="middle" x="285.5" y="-231.5" font-family="Helvetica,sans-Serif" font-size="10.00">initializer_list</text>
</a>
</g>
</g>
<!-- Node25&#45;&gt;Node26 -->
<g id="edge37" class="edge">
<title>Node25&#45;&gt;Node26</title>
<path fill="none" stroke="midnightblue" d="M361.88,-280.32C347.55,-271.82 325.49,-258.73 308.75,-248.8"/>
<polygon fill="midnightblue" stroke="midnightblue" points="310.47,-245.75 300.08,-243.65 306.9,-251.77 310.47,-245.75"/>
</g>
<!-- Node27 -->
<g id="node27" class="node">
<title>Node27</title>
<g id="a_node27"><a xlink:title=" ">
<polygon fill="white" stroke="#bfbfbf" points="340.5,-224.5 340.5,-243.5 414.5,-243.5 414.5,-224.5 340.5,-224.5"/>
<text text-anchor="middle" x="377.5" y="-231.5" font-family="Helvetica,sans-Serif" font-size="10.00">GenericList.h</text>
</a>
</g>
</g>
<!-- Node25&#45;&gt;Node27 -->
<g id="edge38" class="edge">
<title>Node25&#45;&gt;Node27</title>
<path fill="none" stroke="midnightblue" d="M376.67,-280.08C376.8,-273.01 376.98,-262.86 377.15,-253.99"/>
<polygon fill="midnightblue" stroke="midnightblue" points="380.65,-253.81 377.34,-243.75 373.65,-253.68 380.65,-253.81"/>
</g>
</g>
</svg>
        <g id="navigator" transform="translate(0 0)" fill="#404254">
                <rect fill="#f2f5e9" fill-opacity="0.5" stroke="#606060" stroke-width=".5" x="0" y="0" width="60" height="60"/>
                <use id="zoomplus" xlink:href="#zoomPlus" x="17" y="9" onmousedown="handleZoom(evt,'in')"/>
                <use id="zoomminus" xlink:href="#zoomMin" x="42" y="9" onmousedown="handleZoom(evt,'out')"/>
                <use id="reset" xlink:href="#resetDef" x="30" y="36" onmousedown="handleReset()"/>
                <g id="arrowUp" xlink:href="#dirArrow" transform="translate(30 24)" onmousedown="handlePan(0,-1)">
                  <use xlink:href="#rim" fill="#404040">
                        <set attributeName="fill" to="#808080" begin="arrowUp.mouseover" end="arrowUp.mouseout"/>
                  </use>
                  <path fill="none" stroke="white" stroke-width="1.5" d="M0,-3.0v7 M-2.5,-0.5L0,-3.0L2.5,-0.5"/>
                </g>
                <g id="arrowRight" xlink:href="#dirArrow" transform="rotate(90) translate(36 -43)" onmousedown="handlePan(1,0)">
                  <use xlink:href="#rim" fill="#404040">
                        <set attributeName="fill" to="#808080" begin="arrowRight.mouseover" end="arrowRight.mouseout"/>
                  </use>
                  <path fill="none" stroke="white" stroke-width="1.5" d="M0,-3.0v7 M-2.5,-0.5L0,-3.0L2.5,-0.5"/>
                </g>
                <g id="arrowDown" xlink:href="#dirArrow" transform="rotate(180) translate(-30 -48)" onmousedown="handlePan(0,1)">
                  <use xlink:href="#rim" fill="#404040">
                        <set attributeName="fill" to="#808080" begin="arrowDown.mouseover" end="arrowDown.mouseout"/>
                  </use>
                  <path fill="none" stroke="white" stroke-width="1.5" d="M0,-3.0v7 M-2.5,-0.5L0,-3.0L2.5,-0.5"/>
                </g>
                <g id="arrowLeft" xlink:href="#dirArrow" transform="rotate(270) translate(-36 17)" onmousedown="handlePan(-1,0)">
                  <use xlink:href="#rim" fill="#404040">
                        <set attributeName="fill" to="#808080" begin="arrowLeft.mouseover" end="arrowLeft.mouseout"/>
                  </use>
                  <path fill="none" stroke="white" stroke-width="1.5" d="M0,-3.0v7 M-2.5,-0.5L0,-3.0L2.5,-0.5"/>
                </g>
        </g>
        <svg viewBox="0 0 15 15" width="100%" height="30px" preserveAspectRatio="xMaxYMin meet">
         <g id="arrow_out" transform="scale(0.3 0.3)">
          <a xlink:href="_environment_8cpp__incl_org.svg" target="_base">
           <rect id="button" ry="5" rx="5" y="6" x="6" height="38" width="38"
                fill="#f2f5e9" fill-opacity="0.5" stroke="#606060" stroke-width="1.0"/>
           <path id="arrow"
             d="M 11.500037,31.436501 C 11.940474,20.09759 22.043105,11.32322 32.158766,21.979434 L 37.068811,17.246167 C 37.068811,17.246167 37.088388,32 37.088388,32 L 22.160133,31.978069 C 22.160133,31.978069 26.997745,27.140456 26.997745,27.140456 C 18.528582,18.264221 13.291696,25.230495 11.500037,31.436501 z"
             style="fill:#404040;"/>
          </a>
         </g>
        </svg>
</svg>
