<?xml version="1.0" encoding="UTF-8" standalone="no"?>
<!DOCTYPE svg PUBLIC "-//W3C//DTD SVG 1.1//EN"
 "http://www.w3.org/Graphics/SVG/1.1/DTD/svg11.dtd">
<!-- Generated by graphviz version 2.47.1 (20210417.1919)
 -->
<!-- Title: FluidSynthSettings.cpp Pages: 1 -->
<svg width="745pt" height="467pt"
 viewBox="0.00 0.00 745.00 467.00" xmlns="http://www.w3.org/2000/svg" xmlns:xlink="http://www.w3.org/1999/xlink">
<g id="graph0" class="graph" transform="scale(1 1) rotate(0) translate(4 463)">
<title>FluidSynthSettings.cpp</title>
<!-- Node1 -->
<g id="Node000001" class="node">
<title>Node1</title>
<g id="a_Node000001"><a xlink:title="The FluidSynthSettings class implements an object&#45;oriented wrapper around an underlying fluidsynth se...">
<polygon fill="#999999" stroke="#666666" points="606.5,-459 488.5,-459 488.5,-440 606.5,-440 606.5,-459"/>
<text text-anchor="middle" x="547.5" y="-447" font-family="Helvetica,sans-Serif" font-size="10.00">FluidSynthSettings.cpp</text>
</a>
</g>
</g>
<!-- Node2 -->
<g id="Node000002" class="node">
<title>Node2</title>
<g id="a_Node000002"><a xlink:href="_logging_8h.html" target="_top" xlink:title="The Logging specification defines macros for entry&#45;, exit&#45; and intermediate logging of functions into...">
<polygon fill="white" stroke="#666666" points="403,-404 344,-404 344,-385 403,-385 403,-404"/>
<text text-anchor="middle" x="373.5" y="-392" font-family="Helvetica,sans-Serif" font-size="10.00">Logging.h</text>
</a>
</g>
</g>
<!-- Node1&#45;&gt;Node2 -->
<g id="edge1_Node000001_Node000002" class="edge">
<title>Node1&#45;&gt;Node2</title>
<g id="a_edge1_Node000001_Node000002"><a xlink:title=" ">
<path fill="none" stroke="#63b8ff" d="M519.54,-439.98C490.2,-431.05 443.9,-416.94 411.31,-407.02"/>
<polygon fill="#63b8ff" stroke="#63b8ff" points="412.26,-403.65 401.68,-404.08 410.22,-410.34 412.26,-403.65"/>
</a>
</g>
</g>
<!-- Node25 -->
<g id="Node000025" class="node">
<title>Node25</title>
<g id="a_Node000025"><a xlink:href="_dictionary_8h.html" target="_top" xlink:title="The Dictionary specification defines maps from string keys to string values.">
<polygon fill="white" stroke="#666666" points="731.5,-404 663.5,-404 663.5,-385 731.5,-385 731.5,-404"/>
<text text-anchor="middle" x="697.5" y="-392" font-family="Helvetica,sans-Serif" font-size="10.00">Dictionary.h</text>
</a>
</g>
</g>
<!-- Node1&#45;&gt;Node25 -->
<g id="edge33_Node000001_Node000025" class="edge">
<title>Node1&#45;&gt;Node25</title>
<g id="a_edge33_Node000001_Node000025"><a xlink:title=" ">
<path fill="none" stroke="#63b8ff" d="M571.6,-439.98C596.38,-431.23 635.2,-417.51 663.19,-407.62"/>
<polygon fill="#63b8ff" stroke="#63b8ff" points="664.7,-410.8 672.96,-404.17 662.37,-404.2 664.7,-410.8"/>
</a>
</g>
</g>
<!-- Node27 -->
<g id="Node000027" class="node">
<title>Node27</title>
<g id="a_Node000027"><a xlink:href="_dynamic_library_8h.html" target="_top" xlink:title="The DynamicLibrary class specifies a very simple and crude wrapper around the dynamic library loading...">
<polygon fill="white" stroke="#666666" points="552.5,-349 460.5,-349 460.5,-330 552.5,-330 552.5,-349"/>
<text text-anchor="middle" x="506.5" y="-337" font-family="Helvetica,sans-Serif" font-size="10.00">DynamicLibrary.h</text>
</a>
</g>
</g>
<!-- Node1&#45;&gt;Node27 -->
<g id="edge35_Node000001_Node000027" class="edge">
<title>Node1&#45;&gt;Node27</title>
<g id="a_edge35_Node000001_Node000027"><a xlink:title=" ">
<path fill="none" stroke="#63b8ff" d="M543.24,-439.75C539,-430.86 532.41,-416.63 527.5,-404 521.71,-389.1 516.07,-371.86 512.1,-359.11"/>
<polygon fill="#63b8ff" stroke="#63b8ff" points="515.35,-357.77 509.07,-349.23 508.65,-359.81 515.35,-357.77"/>
</a>
</g>
</g>
<!-- Node28 -->
<g id="Node000028" class="node">
<title>Node28</title>
<g id="a_Node000028"><a xlink:href="_fluid_synth_settings_8h.html" target="_top" xlink:title="The FluidSynthSettings class specifies an object&#45;oriented wrapper around an underlying fluidsynth set...">
<polygon fill="white" stroke="#666666" points="644,-404 537,-404 537,-385 644,-385 644,-404"/>
<text text-anchor="middle" x="590.5" y="-392" font-family="Helvetica,sans-Serif" font-size="10.00">FluidSynthSettings.h</text>
</a>
</g>
</g>
<!-- Node1&#45;&gt;Node28 -->
<g id="edge38_Node000001_Node000028" class="edge">
<title>Node1&#45;&gt;Node28</title>
<g id="a_edge38_Node000001_Node000028"><a xlink:title=" ">
<path fill="none" stroke="#63b8ff" d="M554.6,-439.75C560.67,-432.26 569.59,-421.28 577.01,-412.13"/>
<polygon fill="#63b8ff" stroke="#63b8ff" points="579.95,-414.06 583.53,-404.09 574.51,-409.65 579.95,-414.06"/>
</a>
</g>
</g>
<!-- Node3 -->
<g id="Node000003" class="node">
<title>Node3</title>
<g id="a_Node000003"><a xlink:title=" ">
<polygon fill="#e0e0e0" stroke="#999999" points="442,-349 393,-349 393,-330 442,-330 442,-349"/>
<text text-anchor="middle" x="417.5" y="-337" font-family="Helvetica,sans-Serif" font-size="10.00">cstdarg</text>
</a>
</g>
</g>
<!-- Node2&#45;&gt;Node3 -->
<g id="edge2_Node000002_Node000003" class="edge">
<title>Node2&#45;&gt;Node3</title>
<g id="a_edge2_Node000002_Node000003"><a xlink:title=" ">
<path fill="none" stroke="#63b8ff" d="M380.77,-384.75C387.04,-377.18 396.29,-366.05 403.93,-356.84"/>
<polygon fill="#63b8ff" stroke="#63b8ff" points="406.67,-359.02 410.37,-349.09 401.29,-354.55 406.67,-359.02"/>
</a>
</g>
</g>
<!-- Node4 -->
<g id="Node000004" class="node">
<title>Node4</title>
<g id="a_Node000004"><a xlink:href="_logging_support_8h.html" target="_top" xlink:title="The LoggingSupport specification defines a class for simple entry/exit logging to a file or via an ar...">
<polygon fill="white" stroke="#666666" points="374.5,-349 282.5,-349 282.5,-330 374.5,-330 374.5,-349"/>
<text text-anchor="middle" x="328.5" y="-337" font-family="Helvetica,sans-Serif" font-size="10.00">LoggingSupport.h</text>
</a>
</g>
</g>
<!-- Node2&#45;&gt;Node4 -->
<g id="edge3_Node000002_Node000004" class="edge">
<title>Node2&#45;&gt;Node4</title>
<g id="a_edge3_Node000002_Node000004"><a xlink:title=" ">
<path fill="none" stroke="#63b8ff" d="M366.07,-384.75C359.65,-377.18 350.19,-366.05 342.38,-356.84"/>
<polygon fill="#63b8ff" stroke="#63b8ff" points="344.93,-354.45 335.79,-349.09 339.6,-358.98 344.93,-354.45"/>
</a>
</g>
</g>
<!-- Node14 -->
<g id="Node000014" class="node">
<title>Node14</title>
<g id="a_Node000014"><a xlink:href="_string_util_8h.html" target="_top" xlink:title="The StringUtil specification defines several string routines not included in the standard C++ library...">
<polygon fill="white" stroke="#666666" points="264,-349 199,-349 199,-330 264,-330 264,-349"/>
<text text-anchor="middle" x="231.5" y="-337" font-family="Helvetica,sans-Serif" font-size="10.00">StringUtil.h</text>
</a>
</g>
</g>
<!-- Node2&#45;&gt;Node14 -->
<g id="edge15_Node000002_Node000014" class="edge">
<title>Node2&#45;&gt;Node14</title>
<g id="a_edge15_Node000002_Node000014"><a xlink:title=" ">
<path fill="none" stroke="#63b8ff" d="M350.69,-384.98C327.33,-376.27 290.8,-362.63 264.33,-352.75"/>
<polygon fill="#63b8ff" stroke="#63b8ff" points="265.32,-349.39 254.73,-349.17 262.87,-355.95 265.32,-349.39"/>
</a>
</g>
</g>
<!-- Node5 -->
<g id="Node000005" class="node">
<title>Node5</title>
<g id="a_Node000005"><a xlink:href="_boolean_8h.html" target="_top" xlink:title="The Boolean specification and body provides a value object type for boolean values.">
<polygon fill="white" stroke="#666666" points="450.5,-294 390.5,-294 390.5,-275 450.5,-275 450.5,-294"/>
<text text-anchor="middle" x="420.5" y="-282" font-family="Helvetica,sans-Serif" font-size="10.00">Boolean.h</text>
</a>
</g>
</g>
<!-- Node4&#45;&gt;Node5 -->
<g id="edge4_Node000004_Node000005" class="edge">
<title>Node4&#45;&gt;Node5</title>
<g id="a_edge4_Node000004_Node000005"><a xlink:title=" ">
<path fill="none" stroke="#63b8ff" d="M343.28,-329.98C357.68,-321.69 379.81,-308.94 396.69,-299.22"/>
<polygon fill="#63b8ff" stroke="#63b8ff" points="398.53,-302.19 405.45,-294.17 395.04,-296.13 398.53,-302.19"/>
</a>
</g>
</g>
<!-- Node9 -->
<g id="Node000009" class="node">
<title>Node9</title>
<g id="a_Node000009"><a xlink:href="_natural_8h.html" target="_top" xlink:title="The Natural specification and body provides a value object type for naturals (positive integers with ...">
<polygon fill="white" stroke="#666666" points="341.5,-129 285.5,-129 285.5,-110 341.5,-110 341.5,-129"/>
<text text-anchor="middle" x="313.5" y="-117" font-family="Helvetica,sans-Serif" font-size="10.00">Natural.h</text>
</a>
</g>
</g>
<!-- Node4&#45;&gt;Node9 -->
<g id="edge8_Node000004_Node000009" class="edge">
<title>Node4&#45;&gt;Node9</title>
<g id="a_edge8_Node000004_Node000009"><a xlink:title=" ">
<path fill="none" stroke="#63b8ff" d="M328.05,-329.87C327.03,-310.32 324.37,-261.12 321.5,-220 319.53,-191.82 316.83,-159.18 315.12,-139.19"/>
<polygon fill="#63b8ff" stroke="#63b8ff" points="318.59,-138.68 314.25,-129.01 311.62,-139.28 318.59,-138.68"/>
</a>
</g>
</g>
<!-- Node6 -->
<g id="Node000006" class="node">
<title>Node6</title>
<g id="a_Node000006"><a xlink:href="_my_string_8h.html" target="_top" xlink:title="The String specification defines a standard string type.">
<polygon fill="white" stroke="#666666" points="518.5,-74 454.5,-74 454.5,-55 518.5,-55 518.5,-74"/>
<text text-anchor="middle" x="486.5" y="-62" font-family="Helvetica,sans-Serif" font-size="10.00">MyString.h</text>
</a>
</g>
</g>
<!-- Node5&#45;&gt;Node6 -->
<g id="edge5_Node000005_Node000006" class="edge">
<title>Node5&#45;&gt;Node6</title>
<g id="a_edge5_Node000005_Node000006"><a xlink:title=" ">
<path fill="none" stroke="#63b8ff" d="M423.09,-274.95C432.82,-242.81 467.36,-128.72 480.95,-83.83"/>
<polygon fill="#63b8ff" stroke="#63b8ff" points="484.31,-84.81 483.86,-74.22 477.61,-82.78 484.31,-84.81"/>
</a>
</g>
</g>
<!-- Node7 -->
<g id="Node000007" class="node">
<title>Node7</title>
<g id="a_Node000007"><a xlink:title=" ">
<polygon fill="#e0e0e0" stroke="#999999" points="425,-19 384,-19 384,0 425,0 425,-19"/>
<text text-anchor="middle" x="404.5" y="-7" font-family="Helvetica,sans-Serif" font-size="10.00">string</text>
</a>
</g>
</g>
<!-- Node6&#45;&gt;Node7 -->
<g id="edge6_Node000006_Node000007" class="edge">
<title>Node6&#45;&gt;Node7</title>
<g id="a_edge6_Node000006_Node000007"><a xlink:title=" ">
<path fill="none" stroke="#63b8ff" d="M473.33,-54.98C460.73,-46.84 441.5,-34.41 426.56,-24.76"/>
<polygon fill="#63b8ff" stroke="#63b8ff" points="428.21,-21.66 417.91,-19.17 424.41,-27.54 428.21,-21.66"/>
</a>
</g>
</g>
<!-- Node8 -->
<g id="Node000008" class="node">
<title>Node8</title>
<g id="a_Node000008"><a xlink:href="_global_macros_8h.html" target="_top" xlink:title="The GlobalMacros specification defines simple macros (e.g. for parameter modes).">
<polygon fill="white" stroke="#666666" points="529,-19 444,-19 444,0 529,0 529,-19"/>
<text text-anchor="middle" x="486.5" y="-7" font-family="Helvetica,sans-Serif" font-size="10.00">GlobalMacros.h</text>
</a>
</g>
</g>
<!-- Node6&#45;&gt;Node8 -->
<g id="edge7_Node000006_Node000008" class="edge">
<title>Node6&#45;&gt;Node8</title>
<g id="a_edge7_Node000006_Node000008"><a xlink:title=" ">
<path fill="none" stroke="#63b8ff" d="M486.5,-54.75C486.5,-47.8 486.5,-37.85 486.5,-29.13"/>
<polygon fill="#63b8ff" stroke="#63b8ff" points="490,-29.09 486.5,-19.09 483,-29.09 490,-29.09"/>
</a>
</g>
</g>
<!-- Node9&#45;&gt;Node6 -->
<g id="edge14_Node000009_Node000006" class="edge">
<title>Node9&#45;&gt;Node6</title>
<g id="a_edge14_Node000009_Node000006"><a xlink:title=" ">
<path fill="none" stroke="#63b8ff" d="M341.3,-109.98C370.47,-101.05 416.5,-86.94 448.9,-77.02"/>
<polygon fill="#63b8ff" stroke="#63b8ff" points="449.95,-80.36 458.49,-74.08 447.9,-73.66 449.95,-80.36"/>
</a>
</g>
</g>
<!-- Node10 -->
<g id="Node000010" class="node">
<title>Node10</title>
<g id="a_Node000010"><a xlink:title=" ">
<polygon fill="#e0e0e0" stroke="#999999" points="191.5,-74 147.5,-74 147.5,-55 191.5,-55 191.5,-74"/>
<text text-anchor="middle" x="169.5" y="-62" font-family="Helvetica,sans-Serif" font-size="10.00">cmath</text>
</a>
</g>
</g>
<!-- Node9&#45;&gt;Node10 -->
<g id="edge9_Node000009_Node000010" class="edge">
<title>Node9&#45;&gt;Node10</title>
<g id="a_edge9_Node000009_Node000010"><a xlink:title=" ">
<path fill="none" stroke="#63b8ff" d="M290.36,-109.98C266.25,-101.11 228.3,-87.14 201.37,-77.23"/>
<polygon fill="#63b8ff" stroke="#63b8ff" points="202.23,-73.82 191.63,-73.65 199.81,-80.38 202.23,-73.82"/>
</a>
</g>
</g>
<!-- Node11 -->
<g id="Node000011" class="node">
<title>Node11</title>
<g id="a_Node000011"><a xlink:href="_assertion_8h.html" target="_top" xlink:title="The Assertion specification defines macros for pre&#45; and postconditions in functions or methods.">
<polygon fill="white" stroke="#666666" points="436.5,-74 370.5,-74 370.5,-55 436.5,-55 436.5,-74"/>
<text text-anchor="middle" x="403.5" y="-62" font-family="Helvetica,sans-Serif" font-size="10.00">Assertion.h</text>
</a>
</g>
</g>
<!-- Node9&#45;&gt;Node11 -->
<g id="edge10_Node000009_Node000011" class="edge">
<title>Node9&#45;&gt;Node11</title>
<g id="a_edge10_Node000009_Node000011"><a xlink:title=" ">
<path fill="none" stroke="#63b8ff" d="M327.96,-109.98C341.92,-101.77 363.29,-89.18 379.75,-79.49"/>
<polygon fill="#63b8ff" stroke="#63b8ff" points="381.94,-82.26 388.78,-74.17 378.38,-76.23 381.94,-82.26"/>
</a>
</g>
</g>
<!-- Node13 -->
<g id="Node000013" class="node">
<title>Node13</title>
<g id="a_Node000013"><a xlink:title=" ">
<polygon fill="#e0e0e0" stroke="#999999" points="352.5,-74 260.5,-74 260.5,-55 352.5,-55 352.5,-74"/>
<text text-anchor="middle" x="306.5" y="-62" font-family="Helvetica,sans-Serif" font-size="10.00">GenericNumber.h</text>
</a>
</g>
</g>
<!-- Node9&#45;&gt;Node13 -->
<g id="edge13_Node000009_Node000013" class="edge">
<title>Node9&#45;&gt;Node13</title>
<g id="a_edge13_Node000009_Node000013"><a xlink:title=" ">
<path fill="none" stroke="#63b8ff" d="M312.34,-109.75C311.43,-102.8 310.11,-92.85 308.96,-84.13"/>
<polygon fill="#63b8ff" stroke="#63b8ff" points="312.41,-83.54 307.63,-74.09 305.47,-84.46 312.41,-83.54"/>
</a>
</g>
</g>
<!-- Node11&#45;&gt;Node7 -->
<g id="edge12_Node000011_Node000007" class="edge">
<title>Node11&#45;&gt;Node7</title>
<g id="a_edge12_Node000011_Node000007"><a xlink:title=" ">
<path fill="none" stroke="#63b8ff" d="M403.67,-54.75C403.8,-47.8 403.98,-37.85 404.15,-29.13"/>
<polygon fill="#63b8ff" stroke="#63b8ff" points="407.65,-29.15 404.34,-19.09 400.65,-29.02 407.65,-29.15"/>
</a>
</g>
</g>
<!-- Node12 -->
<g id="Node000012" class="node">
<title>Node12</title>
<g id="a_Node000012"><a xlink:title=" ">
<polygon fill="#e0e0e0" stroke="#999999" points="315,-19 256,-19 256,0 315,0 315,-19"/>
<text text-anchor="middle" x="285.5" y="-7" font-family="Helvetica,sans-Serif" font-size="10.00">stdexcept</text>
</a>
</g>
</g>
<!-- Node11&#45;&gt;Node12 -->
<g id="edge11_Node000011_Node000012" class="edge">
<title>Node11&#45;&gt;Node12</title>
<g id="a_edge11_Node000011_Node000012"><a xlink:title=" ">
<path fill="none" stroke="#63b8ff" d="M384.54,-54.98C365.47,-46.42 335.84,-33.11 313.95,-23.28"/>
<polygon fill="#63b8ff" stroke="#63b8ff" points="315.36,-20.07 304.8,-19.17 312.49,-26.46 315.36,-20.07"/>
</a>
</g>
</g>
<!-- Node14&#45;&gt;Node5 -->
<g id="edge16_Node000014_Node000005" class="edge">
<title>Node14&#45;&gt;Node5</title>
<g id="a_edge16_Node000014_Node000005"><a xlink:title=" ">
<path fill="none" stroke="#63b8ff" d="M261.87,-329.98C293.97,-320.98 344.76,-306.74 380.2,-296.8"/>
<polygon fill="#63b8ff" stroke="#63b8ff" points="381.53,-300.06 390.21,-293.99 379.64,-293.32 381.53,-300.06"/>
</a>
</g>
</g>
<!-- Node15 -->
<g id="Node000015" class="node">
<title>Node15</title>
<g id="a_Node000015"><a xlink:href="_character_8h.html" target="_top" xlink:title="The Character specification and body provides a value object type for character values.">
<polygon fill="white" stroke="#666666" points="67,-239 0,-239 0,-220 67,-220 67,-239"/>
<text text-anchor="middle" x="33.5" y="-227" font-family="Helvetica,sans-Serif" font-size="10.00">Character.h</text>
</a>
</g>
</g>
<!-- Node14&#45;&gt;Node15 -->
<g id="edge17_Node000014_Node000015" class="edge">
<title>Node14&#45;&gt;Node15</title>
<g id="a_edge17_Node000014_Node000015"><a xlink:title=" ">
<path fill="none" stroke="#63b8ff" d="M214.59,-329.99C197.18,-321.17 169.3,-306.9 145.5,-294 114.72,-277.32 79.68,-257.28 57.11,-244.24"/>
<polygon fill="#63b8ff" stroke="#63b8ff" points="58.66,-241.09 48.26,-239.1 55.15,-247.15 58.66,-241.09"/>
</a>
</g>
</g>
<!-- Node18 -->
<g id="Node000018" class="node">
<title>Node18</title>
<g id="a_Node000018"><a xlink:href="_object_8h.html" target="_top" xlink:title="The Object specification and body provides the root object type.">
<polygon fill="white" stroke="#666666" points="533,-294 480,-294 480,-275 533,-275 533,-294"/>
<text text-anchor="middle" x="506.5" y="-282" font-family="Helvetica,sans-Serif" font-size="10.00">Object.h</text>
</a>
</g>
</g>
<!-- Node14&#45;&gt;Node18 -->
<g id="edge23_Node000014_Node000018" class="edge">
<title>Node14&#45;&gt;Node18</title>
<g id="a_edge23_Node000014_Node000018"><a xlink:title=" ">
<path fill="none" stroke="#63b8ff" d="M264.05,-331.88C267.24,-331.24 270.43,-330.6 273.5,-330 342.85,-316.36 423.94,-301.01 469.86,-292.37"/>
<polygon fill="#63b8ff" stroke="#63b8ff" points="470.74,-295.76 479.92,-290.48 469.45,-288.88 470.74,-295.76"/>
</a>
</g>
</g>
<!-- Node19 -->
<g id="Node000019" class="node">
<title>Node19</title>
<g id="a_Node000019"><a xlink:href="_percentage_8h.html" target="_top" xlink:title="The Percentage specification and body provides a simple percentage type.">
<polygon fill="white" stroke="#666666" points="312.5,-294 238.5,-294 238.5,-275 312.5,-275 312.5,-294"/>
<text text-anchor="middle" x="275.5" y="-282" font-family="Helvetica,sans-Serif" font-size="10.00">Percentage.h</text>
</a>
</g>
</g>
<!-- Node14&#45;&gt;Node19 -->
<g id="edge24_Node000014_Node000019" class="edge">
<title>Node14&#45;&gt;Node19</title>
<g id="a_edge24_Node000014_Node000019"><a xlink:title=" ">
<path fill="none" stroke="#63b8ff" d="M238.77,-329.75C245.04,-322.18 254.29,-311.05 261.93,-301.84"/>
<polygon fill="#63b8ff" stroke="#63b8ff" points="264.67,-304.02 268.37,-294.09 259.29,-299.55 264.67,-304.02"/>
</a>
</g>
</g>
<!-- Node22 -->
<g id="Node000022" class="node">
<title>Node22</title>
<g id="a_Node000022"><a xlink:href="_string_list_8h.html" target="_top" xlink:title="The StringList specification defines lists of string values with zero&#45;based arbitrary indexed access ...">
<polygon fill="white" stroke="#666666" points="220.5,-294 154.5,-294 154.5,-275 220.5,-275 220.5,-294"/>
<text text-anchor="middle" x="187.5" y="-282" font-family="Helvetica,sans-Serif" font-size="10.00">StringList.h</text>
</a>
</g>
</g>
<!-- Node14&#45;&gt;Node22 -->
<g id="edge30_Node000014_Node000022" class="edge">
<title>Node14&#45;&gt;Node22</title>
<g id="a_edge30_Node000014_Node000022"><a xlink:title=" ">
<path fill="none" stroke="#63b8ff" d="M224.23,-329.75C217.96,-322.18 208.71,-311.05 201.07,-301.84"/>
<polygon fill="#63b8ff" stroke="#63b8ff" points="203.71,-299.55 194.63,-294.09 198.33,-304.02 203.71,-299.55"/>
</a>
</g>
</g>
<!-- Node15&#45;&gt;Node10 -->
<g id="edge18_Node000015_Node000010" class="edge">
<title>Node15&#45;&gt;Node10</title>
<g id="a_edge18_Node000015_Node000010"><a xlink:title=" ">
<path fill="none" stroke="#63b8ff" d="M34.12,-219.9C36.08,-198.64 43.92,-142.97 73.5,-110 90.37,-91.2 116.81,-79.75 137.68,-73.19"/>
<polygon fill="#63b8ff" stroke="#63b8ff" points="138.79,-76.51 147.4,-70.35 136.82,-69.79 138.79,-76.51"/>
</a>
</g>
</g>
<!-- Node16 -->
<g id="Node000016" class="node">
<title>Node16</title>
<g id="a_Node000016"><a xlink:href="_byte_8h.html" target="_top" xlink:title="The Byte specification and body provides a value object type for byte values.">
<polygon fill="white" stroke="#666666" points="153,-184 108,-184 108,-165 153,-165 153,-184"/>
<text text-anchor="middle" x="130.5" y="-172" font-family="Helvetica,sans-Serif" font-size="10.00">Byte.h</text>
</a>
</g>
</g>
<!-- Node15&#45;&gt;Node16 -->
<g id="edge19_Node000015_Node000016" class="edge">
<title>Node15&#45;&gt;Node16</title>
<g id="a_edge19_Node000015_Node000016"><a xlink:title=" ">
<path fill="none" stroke="#63b8ff" d="M49.08,-219.98C64.27,-211.69 87.6,-198.94 105.4,-189.22"/>
<polygon fill="#63b8ff" stroke="#63b8ff" points="107.53,-192.04 114.63,-184.17 104.18,-185.89 107.53,-192.04"/>
</a>
</g>
</g>
<!-- Node16&#45;&gt;Node9 -->
<g id="edge22_Node000016_Node000009" class="edge">
<title>Node16&#45;&gt;Node9</title>
<g id="a_edge22_Node000016_Node000009"><a xlink:title=" ">
<path fill="none" stroke="#63b8ff" d="M153.31,-166.89C183.87,-158.04 238.54,-142.21 275.41,-131.53"/>
<polygon fill="#63b8ff" stroke="#63b8ff" points="276.67,-134.81 285.3,-128.67 274.72,-128.09 276.67,-134.81"/>
</a>
</g>
</g>
<!-- Node16&#45;&gt;Node10 -->
<g id="edge20_Node000016_Node000010" class="edge">
<title>Node16&#45;&gt;Node10</title>
<g id="a_edge20_Node000016_Node000010"><a xlink:title=" ">
<path fill="none" stroke="#63b8ff" d="M133.69,-164.66C140.07,-147.01 154.48,-107.09 162.95,-83.64"/>
<polygon fill="#63b8ff" stroke="#63b8ff" points="166.27,-84.75 166.37,-74.16 159.68,-82.38 166.27,-84.75"/>
</a>
</g>
</g>
<!-- Node17 -->
<g id="Node000017" class="node">
<title>Node17</title>
<g id="a_Node000017"><a xlink:title=" ">
<polygon fill="#e0e0e0" stroke="#999999" points="128.5,-129 82.5,-129 82.5,-110 128.5,-110 128.5,-129"/>
<text text-anchor="middle" x="105.5" y="-117" font-family="Helvetica,sans-Serif" font-size="10.00">cstdint</text>
</a>
</g>
</g>
<!-- Node16&#45;&gt;Node17 -->
<g id="edge21_Node000016_Node000017" class="edge">
<title>Node16&#45;&gt;Node17</title>
<g id="a_edge21_Node000016_Node000017"><a xlink:title=" ">
<path fill="none" stroke="#63b8ff" d="M126.37,-164.75C122.99,-157.57 118.08,-147.18 113.88,-138.27"/>
<polygon fill="#63b8ff" stroke="#63b8ff" points="116.98,-136.64 109.55,-129.09 110.65,-139.63 116.98,-136.64"/>
</a>
</g>
</g>
<!-- Node20 -->
<g id="Node000020" class="node">
<title>Node20</title>
<g id="a_Node000020"><a xlink:href="_real_8h.html" target="_top" xlink:title="The Real specification defines a value object type for real values.">
<polygon fill="white" stroke="#666666" points="312.5,-239 268.5,-239 268.5,-220 312.5,-220 312.5,-239"/>
<text text-anchor="middle" x="290.5" y="-227" font-family="Helvetica,sans-Serif" font-size="10.00">Real.h</text>
</a>
</g>
</g>
<!-- Node19&#45;&gt;Node20 -->
<g id="edge25_Node000019_Node000020" class="edge">
<title>Node19&#45;&gt;Node20</title>
<g id="a_edge25_Node000019_Node000020"><a xlink:title=" ">
<path fill="none" stroke="#63b8ff" d="M277.98,-274.75C279.96,-267.72 282.82,-257.62 285.31,-248.84"/>
<polygon fill="#63b8ff" stroke="#63b8ff" points="288.71,-249.66 288.07,-239.09 281.98,-247.76 288.71,-249.66"/>
</a>
</g>
</g>
<!-- Node21 -->
<g id="Node000021" class="node">
<title>Node21</title>
<g id="a_Node000021"><a xlink:href="_integer_8h.html" target="_top" xlink:title="The Integer specification and body provides a value object type for ints.">
<polygon fill="white" stroke="#666666" points="285.5,-184 231.5,-184 231.5,-165 285.5,-165 285.5,-184"/>
<text text-anchor="middle" x="258.5" y="-172" font-family="Helvetica,sans-Serif" font-size="10.00">Integer.h</text>
</a>
</g>
</g>
<!-- Node20&#45;&gt;Node21 -->
<g id="edge26_Node000020_Node000021" class="edge">
<title>Node20&#45;&gt;Node21</title>
<g id="a_edge26_Node000020_Node000021"><a xlink:title=" ">
<path fill="none" stroke="#63b8ff" d="M285.22,-219.75C280.79,-212.42 274.34,-201.73 268.88,-192.7"/>
<polygon fill="#63b8ff" stroke="#63b8ff" points="271.85,-190.84 263.69,-184.09 265.86,-194.46 271.85,-190.84"/>
</a>
</g>
</g>
<!-- Node21&#45;&gt;Node9 -->
<g id="edge29_Node000021_Node000009" class="edge">
<title>Node21&#45;&gt;Node9</title>
<g id="a_edge29_Node000021_Node000009"><a xlink:title=" ">
<path fill="none" stroke="#63b8ff" d="M267.58,-164.75C275.59,-157.03 287.46,-145.6 297.12,-136.28"/>
<polygon fill="#63b8ff" stroke="#63b8ff" points="299.81,-138.55 304.59,-129.09 294.96,-133.51 299.81,-138.55"/>
</a>
</g>
</g>
<!-- Node21&#45;&gt;Node10 -->
<g id="edge27_Node000021_Node000010" class="edge">
<title>Node21&#45;&gt;Node10</title>
<g id="a_edge27_Node000021_Node000010"><a xlink:title=" ">
<path fill="none" stroke="#63b8ff" d="M250.33,-164.81C242.11,-155.96 229.14,-141.77 218.5,-129 205.61,-113.53 191.64,-95.27 181.93,-82.31"/>
<polygon fill="#63b8ff" stroke="#63b8ff" points="184.74,-80.22 175.96,-74.29 179.12,-84.4 184.74,-80.22"/>
</a>
</g>
</g>
<!-- Node21&#45;&gt;Node12 -->
<g id="edge28_Node000021_Node000012" class="edge">
<title>Node21&#45;&gt;Node12</title>
<g id="a_edge28_Node000021_Node000012"><a xlink:title=" ">
<path fill="none" stroke="#63b8ff" d="M255.83,-164.87C250.11,-144.91 238.23,-94.24 251.5,-55 255.06,-44.47 262.22,-34.48 269.05,-26.63"/>
<polygon fill="#63b8ff" stroke="#63b8ff" points="271.63,-29.01 275.89,-19.31 266.51,-24.23 271.63,-29.01"/>
</a>
</g>
</g>
<!-- Node23 -->
<g id="Node000023" class="node">
<title>Node23</title>
<g id="a_Node000023"><a xlink:title=" ">
<polygon fill="#e0e0e0" stroke="#999999" points="158,-239 85,-239 85,-220 158,-220 158,-239"/>
<text text-anchor="middle" x="121.5" y="-227" font-family="Helvetica,sans-Serif" font-size="10.00">initializer_list</text>
</a>
</g>
</g>
<!-- Node22&#45;&gt;Node23 -->
<g id="edge31_Node000022_Node000023" class="edge">
<title>Node22&#45;&gt;Node23</title>
<g id="a_edge31_Node000022_Node000023"><a xlink:title=" ">
<path fill="none" stroke="#63b8ff" d="M176.9,-274.98C167.04,-267.07 152.15,-255.11 140.28,-245.58"/>
<polygon fill="#63b8ff" stroke="#63b8ff" points="142.29,-242.7 132.3,-239.17 137.9,-248.16 142.29,-242.7"/>
</a>
</g>
</g>
<!-- Node24 -->
<g id="Node000024" class="node">
<title>Node24</title>
<g id="a_Node000024"><a xlink:title=" ">
<polygon fill="#e0e0e0" stroke="#999999" points="250.5,-239 176.5,-239 176.5,-220 250.5,-220 250.5,-239"/>
<text text-anchor="middle" x="213.5" y="-227" font-family="Helvetica,sans-Serif" font-size="10.00">GenericList.h</text>
</a>
</g>
</g>
<!-- Node22&#45;&gt;Node24 -->
<g id="edge32_Node000022_Node000024" class="edge">
<title>Node22&#45;&gt;Node24</title>
<g id="a_edge32_Node000022_Node000024"><a xlink:title=" ">
<path fill="none" stroke="#63b8ff" d="M191.79,-274.75C195.31,-267.57 200.41,-257.18 204.78,-248.27"/>
<polygon fill="#63b8ff" stroke="#63b8ff" points="208.02,-249.61 209.29,-239.09 201.74,-246.53 208.02,-249.61"/>
</a>
</g>
</g>
<!-- Node26 -->
<g id="Node000026" class="node">
<title>Node26</title>
<g id="a_Node000026"><a xlink:title=" ">
<polygon fill="#e0e0e0" stroke="#999999" points="737,-349 660,-349 660,-330 737,-330 737,-349"/>
<text text-anchor="middle" x="698.5" y="-337" font-family="Helvetica,sans-Serif" font-size="10.00">GenericMap.h</text>
</a>
</g>
</g>
<!-- Node25&#45;&gt;Node26 -->
<g id="edge34_Node000025_Node000026" class="edge">
<title>Node25&#45;&gt;Node26</title>
<g id="a_edge34_Node000025_Node000026"><a xlink:title=" ">
<path fill="none" stroke="#63b8ff" d="M697.67,-384.75C697.8,-377.8 697.98,-367.85 698.15,-359.13"/>
<polygon fill="#63b8ff" stroke="#63b8ff" points="701.65,-359.15 698.34,-349.09 694.65,-359.02 701.65,-359.15"/>
</a>
</g>
</g>
<!-- Node27&#45;&gt;Node5 -->
<g id="edge36_Node000027_Node000005" class="edge">
<title>Node27&#45;&gt;Node5</title>
<g id="a_edge36_Node000027_Node000005"><a xlink:title=" ">
<path fill="none" stroke="#63b8ff" d="M492.68,-329.98C479.35,-321.77 458.92,-309.18 443.19,-299.49"/>
<polygon fill="#63b8ff" stroke="#63b8ff" points="444.92,-296.44 434.57,-294.17 441.25,-302.4 444.92,-296.44"/>
</a>
</g>
</g>
<!-- Node27&#45;&gt;Node18 -->
<g id="edge37_Node000027_Node000018" class="edge">
<title>Node27&#45;&gt;Node18</title>
<g id="a_edge37_Node000027_Node000018"><a xlink:title=" ">
<path fill="none" stroke="#63b8ff" d="M506.5,-329.75C506.5,-322.8 506.5,-312.85 506.5,-304.13"/>
<polygon fill="#63b8ff" stroke="#63b8ff" points="510,-304.09 506.5,-294.09 503,-304.09 510,-304.09"/>
</a>
</g>
</g>
<!-- Node29 -->
<g id="Node000029" class="node">
<title>Node29</title>
<g id="a_Node000029"><a xlink:href="_fluid_synth_8h.html" target="_top" xlink:title="The FluidSynth class specifies an object&#45;oriented wrapper around the fluidsynth library and also allo...">
<polygon fill="white" stroke="#666666" points="642,-349 571,-349 571,-330 642,-330 642,-349"/>
<text text-anchor="middle" x="606.5" y="-337" font-family="Helvetica,sans-Serif" font-size="10.00">FluidSynth.h</text>
</a>
</g>
</g>
<!-- Node28&#45;&gt;Node29 -->
<g id="edge39_Node000028_Node000029" class="edge">
<title>Node28&#45;&gt;Node29</title>
<g id="a_edge39_Node000028_Node000029"><a xlink:title=" ">
<path fill="none" stroke="#63b8ff" d="M593.14,-384.75C595.26,-377.72 598.31,-367.62 600.96,-358.84"/>
<polygon fill="#63b8ff" stroke="#63b8ff" points="604.37,-359.67 603.91,-349.09 597.67,-357.65 604.37,-359.67"/>
</a>
</g>
</g>
<!-- Node29&#45;&gt;Node9 -->
<g id="edge40_Node000029_Node000009" class="edge">
<title>Node29&#45;&gt;Node9</title>
<g id="a_edge40_Node000029_Node000009"><a xlink:title=" ">
<path fill="none" stroke="#63b8ff" d="M598.53,-329.78C586.7,-317.06 563.5,-292.96 541.5,-275 470.91,-217.37 379.06,-159.92 336.72,-134.32"/>
<polygon fill="#63b8ff" stroke="#63b8ff" points="338.37,-131.23 328,-129.07 334.77,-137.23 338.37,-131.23"/>
</a>
</g>
</g>
<!-- Node29&#45;&gt;Node18 -->
<g id="edge41_Node000029_Node000018" class="edge">
<title>Node29&#45;&gt;Node18</title>
<g id="a_edge41_Node000029_Node000018"><a xlink:title=" ">
<path fill="none" stroke="#63b8ff" d="M590.43,-329.98C574.64,-321.61 550.28,-308.7 531.87,-298.95"/>
<polygon fill="#63b8ff" stroke="#63b8ff" points="533.33,-295.76 522.86,-294.17 530.06,-301.95 533.33,-295.76"/>
</a>
</g>
</g>
</g>
</svg>
