<?xml version="1.0" encoding="UTF-8" standalone="no"?>
<!DOCTYPE svg PUBLIC "-//W3C//DTD SVG 1.1//EN"
 "http://www.w3.org/Graphics/SVG/1.1/DTD/svg11.dtd">
<!-- Generated by graphviz version 2.47.1 (20210417.1919)
 -->
<!-- Title: FluidSynthSettings.cpp Pages: 1 -->
<svg width="698pt" height="476pt"
 viewBox="0.00 0.00 698.00 476.00" xmlns="http://www.w3.org/2000/svg" xmlns:xlink="http://www.w3.org/1999/xlink">
<g id="graph0" class="graph" transform="scale(1 1) rotate(0) translate(4 472)">
<title>FluidSynthSettings.cpp</title>
<polygon fill="white" stroke="transparent" points="-4,4 -4,-472 694,-472 694,4 -4,4"/>
<!-- Node1 -->
<g id="node1" class="node">
<title>Node1</title>
<g id="a_node1"><a xlink:title="The FluidSynthSettings class implements an object&#45;oriented wrapper around an underlying fluidsynth se...">
<polygon fill="#bfbfbf" stroke="black" points="436,-448.5 436,-467.5 554,-467.5 554,-448.5 436,-448.5"/>
<text text-anchor="middle" x="495" y="-455.5" font-family="Helvetica,sans-Serif" font-size="10.00">FluidSynthSettings.cpp</text>
</a>
</g>
</g>
<!-- Node2 -->
<g id="node2" class="node">
<title>Node2</title>
<g id="a_node2"><a xlink:href="_logging_8h.html" target="_top" xlink:title="The Logging specification defines macros for entry&#45;, exit&#45; and intermediate logging of functions into...">
<polygon fill="white" stroke="black" points="270.5,-392.5 270.5,-411.5 329.5,-411.5 329.5,-392.5 270.5,-392.5"/>
<text text-anchor="middle" x="300" y="-399.5" font-family="Helvetica,sans-Serif" font-size="10.00">Logging.h</text>
</a>
</g>
</g>
<!-- Node1&#45;&gt;Node2 -->
<g id="edge1" class="edge">
<title>Node1&#45;&gt;Node2</title>
<path fill="none" stroke="midnightblue" d="M464.1,-448.44C430.43,-439.12 376.46,-424.17 339.68,-413.99"/>
<polygon fill="midnightblue" stroke="midnightblue" points="340.37,-410.55 329.79,-411.25 338.5,-417.29 340.37,-410.55"/>
</g>
<!-- Node24 -->
<g id="node24" class="node">
<title>Node24</title>
<g id="a_node24"><a xlink:href="_dictionary_8h.html" target="_top" xlink:title="The Dictionary specification defines maps from string keys to string values.">
<polygon fill="white" stroke="black" points="514,-392.5 514,-411.5 582,-411.5 582,-392.5 514,-392.5"/>
<text text-anchor="middle" x="548" y="-399.5" font-family="Helvetica,sans-Serif" font-size="10.00">Dictionary.h</text>
</a>
</g>
</g>
<!-- Node1&#45;&gt;Node24 -->
<g id="edge33" class="edge">
<title>Node1&#45;&gt;Node24</title>
<path fill="none" stroke="midnightblue" d="M503.75,-448.08C511.47,-440.22 522.9,-428.57 532.22,-419.08"/>
<polygon fill="midnightblue" stroke="midnightblue" points="534.9,-421.34 539.41,-411.75 529.91,-416.44 534.9,-421.34"/>
</g>
<!-- Node26 -->
<g id="node26" class="node">
<title>Node26</title>
<g id="a_node26"><a xlink:href="_dynamic_library_8h.html" target="_top" xlink:title="The DynamicLibrary class specifies a very simple and crude wrapper around the dynamic library loading...">
<polygon fill="white" stroke="black" points="598,-336.5 598,-355.5 690,-355.5 690,-336.5 598,-336.5"/>
<text text-anchor="middle" x="644" y="-343.5" font-family="Helvetica,sans-Serif" font-size="10.00">DynamicLibrary.h</text>
</a>
</g>
</g>
<!-- Node1&#45;&gt;Node26 -->
<g id="edge35" class="edge">
<title>Node1&#45;&gt;Node26</title>
<path fill="none" stroke="midnightblue" d="M521.21,-448.37C541.57,-440.84 569.81,-428.53 591,-412 608.33,-398.48 623.65,-378.31 633.3,-364.03"/>
<polygon fill="midnightblue" stroke="midnightblue" points="636.25,-365.91 638.79,-355.62 630.39,-362.08 636.25,-365.91"/>
</g>
<!-- Node28 -->
<g id="node28" class="node">
<title>Node28</title>
<g id="a_node28"><a xlink:href="_fluid_synth_settings_8h.html" target="_top" xlink:title="The FluidSynthSettings class specifies an object&#45;oriented wrapper around an underlying fluidsynth set...">
<polygon fill="white" stroke="black" points="388.5,-392.5 388.5,-411.5 495.5,-411.5 495.5,-392.5 388.5,-392.5"/>
<text text-anchor="middle" x="442" y="-399.5" font-family="Helvetica,sans-Serif" font-size="10.00">FluidSynthSettings.h</text>
</a>
</g>
</g>
<!-- Node1&#45;&gt;Node28 -->
<g id="edge38" class="edge">
<title>Node1&#45;&gt;Node28</title>
<path fill="none" stroke="midnightblue" d="M486.25,-448.08C478.53,-440.22 467.1,-428.57 457.78,-419.08"/>
<polygon fill="midnightblue" stroke="midnightblue" points="460.09,-416.44 450.59,-411.75 455.1,-421.34 460.09,-416.44"/>
</g>
<!-- Node3 -->
<g id="node3" class="node">
<title>Node3</title>
<g id="a_node3"><a xlink:title=" ">
<polygon fill="white" stroke="#bfbfbf" points="152.5,-336.5 152.5,-355.5 201.5,-355.5 201.5,-336.5 152.5,-336.5"/>
<text text-anchor="middle" x="177" y="-343.5" font-family="Helvetica,sans-Serif" font-size="10.00">cstdarg</text>
</a>
</g>
</g>
<!-- Node2&#45;&gt;Node3 -->
<g id="edge2" class="edge">
<title>Node2&#45;&gt;Node3</title>
<path fill="none" stroke="midnightblue" d="M280.51,-392.44C260.36,-383.6 228.68,-369.69 205.67,-359.59"/>
<polygon fill="midnightblue" stroke="midnightblue" points="206.96,-356.33 196.4,-355.52 204.15,-362.74 206.96,-356.33"/>
</g>
<!-- Node4 -->
<g id="node4" class="node">
<title>Node4</title>
<g id="a_node4"><a xlink:href="_logging_support_8h.html" target="_top" xlink:title="The LoggingSupport specification defines a class for simple entry/exit logging to a file or via an ar...">
<polygon fill="white" stroke="black" points="303,-336.5 303,-355.5 395,-355.5 395,-336.5 303,-336.5"/>
<text text-anchor="middle" x="349" y="-343.5" font-family="Helvetica,sans-Serif" font-size="10.00">LoggingSupport.h</text>
</a>
</g>
</g>
<!-- Node2&#45;&gt;Node4 -->
<g id="edge3" class="edge">
<title>Node2&#45;&gt;Node4</title>
<path fill="none" stroke="midnightblue" d="M308.09,-392.08C315.16,-384.3 325.59,-372.8 334.15,-363.37"/>
<polygon fill="midnightblue" stroke="midnightblue" points="336.93,-365.51 341.06,-355.75 331.75,-360.8 336.93,-365.51"/>
</g>
<!-- Node14 -->
<g id="node14" class="node">
<title>Node14</title>
<g id="a_node14"><a xlink:href="_string_util_8h.html" target="_top" xlink:title="The StringUtil specification defines several string routines not included in the standard C++ library...">
<polygon fill="white" stroke="black" points="219.5,-336.5 219.5,-355.5 284.5,-355.5 284.5,-336.5 219.5,-336.5"/>
<text text-anchor="middle" x="252" y="-343.5" font-family="Helvetica,sans-Serif" font-size="10.00">StringUtil.h</text>
</a>
</g>
</g>
<!-- Node2&#45;&gt;Node14 -->
<g id="edge15" class="edge">
<title>Node2&#45;&gt;Node14</title>
<path fill="none" stroke="midnightblue" d="M292.07,-392.08C285.15,-384.3 274.93,-372.8 266.55,-363.37"/>
<polygon fill="midnightblue" stroke="midnightblue" points="269.04,-360.9 259.78,-355.75 263.81,-365.55 269.04,-360.9"/>
</g>
<!-- Node5 -->
<g id="node5" class="node">
<title>Node5</title>
<g id="a_node5"><a xlink:href="_boolean_8h.html" target="_top" xlink:title="The Boolean specification and body provides a value object type for boolean values.">
<polygon fill="white" stroke="black" points="369,-280.5 369,-299.5 429,-299.5 429,-280.5 369,-280.5"/>
<text text-anchor="middle" x="399" y="-287.5" font-family="Helvetica,sans-Serif" font-size="10.00">Boolean.h</text>
</a>
</g>
</g>
<!-- Node4&#45;&gt;Node5 -->
<g id="edge4" class="edge">
<title>Node4&#45;&gt;Node5</title>
<path fill="none" stroke="midnightblue" d="M357.26,-336.08C364.46,-328.3 375.11,-316.8 383.85,-307.37"/>
<polygon fill="midnightblue" stroke="midnightblue" points="386.67,-309.47 390.9,-299.75 381.53,-304.71 386.67,-309.47"/>
</g>
<!-- Node9 -->
<g id="node9" class="node">
<title>Node9</title>
<g id="a_node9"><a xlink:href="_natural_8h.html" target="_top" xlink:title="The Natural specification and body provides a value object type for naturals (positive integers with ...">
<polygon fill="white" stroke="black" points="307,-112.5 307,-131.5 363,-131.5 363,-112.5 307,-112.5"/>
<text text-anchor="middle" x="335" y="-119.5" font-family="Helvetica,sans-Serif" font-size="10.00">Natural.h</text>
</a>
</g>
</g>
<!-- Node4&#45;&gt;Node9 -->
<g id="edge8" class="edge">
<title>Node4&#45;&gt;Node9</title>
<path fill="none" stroke="midnightblue" d="M348.45,-336.3C346.39,-303.63 339.09,-187.87 336.2,-141.96"/>
<polygon fill="midnightblue" stroke="midnightblue" points="339.68,-141.64 335.56,-131.88 332.7,-142.08 339.68,-141.64"/>
</g>
<!-- Node6 -->
<g id="node6" class="node">
<title>Node6</title>
<g id="a_node6"><a xlink:href="_my_string_8h.html" target="_top" xlink:title="The String specification defines a standard string type.">
<polygon fill="white" stroke="black" points="386,-56.5 386,-75.5 450,-75.5 450,-56.5 386,-56.5"/>
<text text-anchor="middle" x="418" y="-63.5" font-family="Helvetica,sans-Serif" font-size="10.00">MyString.h</text>
</a>
</g>
</g>
<!-- Node5&#45;&gt;Node6 -->
<g id="edge5" class="edge">
<title>Node5&#45;&gt;Node6</title>
<path fill="none" stroke="midnightblue" d="M399.74,-280.3C402.54,-247.63 412.45,-131.87 416.38,-85.96"/>
<polygon fill="midnightblue" stroke="midnightblue" points="419.87,-86.15 417.24,-75.88 412.9,-85.55 419.87,-86.15"/>
</g>
<!-- Node7 -->
<g id="node7" class="node">
<title>Node7</title>
<g id="a_node7"><a xlink:title=" ">
<polygon fill="white" stroke="#bfbfbf" points="251.5,-0.5 251.5,-19.5 292.5,-19.5 292.5,-0.5 251.5,-0.5"/>
<text text-anchor="middle" x="272" y="-7.5" font-family="Helvetica,sans-Serif" font-size="10.00">string</text>
</a>
</g>
</g>
<!-- Node6&#45;&gt;Node7 -->
<g id="edge6" class="edge">
<title>Node6&#45;&gt;Node7</title>
<path fill="none" stroke="midnightblue" d="M394.87,-56.44C369.8,-47.17 329.71,-32.35 302.19,-22.17"/>
<polygon fill="midnightblue" stroke="midnightblue" points="303.26,-18.83 292.67,-18.64 300.83,-25.4 303.26,-18.83"/>
</g>
<!-- Node8 -->
<g id="node8" class="node">
<title>Node8</title>
<g id="a_node8"><a xlink:href="_global_macros_8h.html" target="_top" xlink:title="The GlobalMacros specification defines simple macros (e.g. for parameter modes).">
<polygon fill="white" stroke="black" points="375.5,-0.5 375.5,-19.5 460.5,-19.5 460.5,-0.5 375.5,-0.5"/>
<text text-anchor="middle" x="418" y="-7.5" font-family="Helvetica,sans-Serif" font-size="10.00">GlobalMacros.h</text>
</a>
</g>
</g>
<!-- Node6&#45;&gt;Node8 -->
<g id="edge7" class="edge">
<title>Node6&#45;&gt;Node8</title>
<path fill="none" stroke="midnightblue" d="M418,-56.08C418,-49.01 418,-38.86 418,-29.99"/>
<polygon fill="midnightblue" stroke="midnightblue" points="421.5,-29.75 418,-19.75 414.5,-29.75 421.5,-29.75"/>
</g>
<!-- Node9&#45;&gt;Node6 -->
<g id="edge14" class="edge">
<title>Node9&#45;&gt;Node6</title>
<path fill="none" stroke="midnightblue" d="M348.34,-112.32C361.16,-103.98 380.78,-91.21 395.94,-81.35"/>
<polygon fill="midnightblue" stroke="midnightblue" points="398.22,-84.04 404.7,-75.65 394.41,-78.17 398.22,-84.04"/>
</g>
<!-- Node10 -->
<g id="node10" class="node">
<title>Node10</title>
<g id="a_node10"><a xlink:title=" ">
<polygon fill="white" stroke="#bfbfbf" points="130,-56.5 130,-75.5 174,-75.5 174,-56.5 130,-56.5"/>
<text text-anchor="middle" x="152" y="-63.5" font-family="Helvetica,sans-Serif" font-size="10.00">cmath</text>
</a>
</g>
</g>
<!-- Node9&#45;&gt;Node10 -->
<g id="edge9" class="edge">
<title>Node9&#45;&gt;Node10</title>
<path fill="none" stroke="midnightblue" d="M306.81,-112.68C273.59,-102.88 218.54,-86.64 183.83,-76.39"/>
<polygon fill="midnightblue" stroke="midnightblue" points="184.76,-73.02 174.18,-73.54 182.78,-79.73 184.76,-73.02"/>
</g>
<!-- Node11 -->
<g id="node11" class="node">
<title>Node11</title>
<g id="a_node11"><a xlink:href="_assertion_8h.html" target="_top" xlink:title="The Assertion specification defines macros for pre&#45; and postconditions in functions or methods.">
<polygon fill="white" stroke="black" points="192,-56.5 192,-75.5 258,-75.5 258,-56.5 192,-56.5"/>
<text text-anchor="middle" x="225" y="-63.5" font-family="Helvetica,sans-Serif" font-size="10.00">Assertion.h</text>
</a>
</g>
</g>
<!-- Node9&#45;&gt;Node11 -->
<g id="edge10" class="edge">
<title>Node9&#45;&gt;Node11</title>
<path fill="none" stroke="midnightblue" d="M317.33,-112.32C299.61,-103.62 272.1,-90.12 251.71,-80.11"/>
<polygon fill="midnightblue" stroke="midnightblue" points="253.15,-76.92 242.63,-75.65 250.06,-83.2 253.15,-76.92"/>
</g>
<!-- Node13 -->
<g id="node13" class="node">
<title>Node13</title>
<g id="a_node13"><a xlink:title=" ">
<polygon fill="white" stroke="#bfbfbf" points="276,-56.5 276,-75.5 368,-75.5 368,-56.5 276,-56.5"/>
<text text-anchor="middle" x="322" y="-63.5" font-family="Helvetica,sans-Serif" font-size="10.00">GenericNumber.h</text>
</a>
</g>
</g>
<!-- Node9&#45;&gt;Node13 -->
<g id="edge13" class="edge">
<title>Node9&#45;&gt;Node13</title>
<path fill="none" stroke="midnightblue" d="M332.85,-112.08C331.13,-104.93 328.65,-94.64 326.5,-85.69"/>
<polygon fill="midnightblue" stroke="midnightblue" points="329.85,-84.65 324.11,-75.75 323.04,-86.29 329.85,-84.65"/>
</g>
<!-- Node11&#45;&gt;Node7 -->
<g id="edge12" class="edge">
<title>Node11&#45;&gt;Node7</title>
<path fill="none" stroke="midnightblue" d="M232.76,-56.08C239.54,-48.3 249.54,-36.8 257.76,-27.37"/>
<polygon fill="midnightblue" stroke="midnightblue" points="260.46,-29.59 264.38,-19.75 255.18,-25 260.46,-29.59"/>
</g>
<!-- Node12 -->
<g id="node12" class="node">
<title>Node12</title>
<g id="a_node12"><a xlink:title=" ">
<polygon fill="white" stroke="#bfbfbf" points="147.5,-0.5 147.5,-19.5 206.5,-19.5 206.5,-0.5 147.5,-0.5"/>
<text text-anchor="middle" x="177" y="-7.5" font-family="Helvetica,sans-Serif" font-size="10.00">stdexcept</text>
</a>
</g>
</g>
<!-- Node11&#45;&gt;Node12 -->
<g id="edge11" class="edge">
<title>Node11&#45;&gt;Node12</title>
<path fill="none" stroke="midnightblue" d="M217.07,-56.08C210.15,-48.3 199.93,-36.8 191.55,-27.37"/>
<polygon fill="midnightblue" stroke="midnightblue" points="194.04,-24.9 184.78,-19.75 188.81,-29.55 194.04,-24.9"/>
</g>
<!-- Node14&#45;&gt;Node5 -->
<g id="edge16" class="edge">
<title>Node14&#45;&gt;Node5</title>
<path fill="none" stroke="midnightblue" d="M275.29,-336.44C299.81,-327.44 338.6,-313.19 366.2,-303.05"/>
<polygon fill="midnightblue" stroke="midnightblue" points="367.64,-306.25 375.82,-299.52 365.22,-299.68 367.64,-306.25"/>
</g>
<!-- Node15 -->
<g id="node15" class="node">
<title>Node15</title>
<g id="a_node15"><a xlink:href="_character_8h.html" target="_top" xlink:title="The Character specification and body provides a value object type for character values.">
<polygon fill="white" stroke="black" points="245.5,-224.5 245.5,-243.5 312.5,-243.5 312.5,-224.5 245.5,-224.5"/>
<text text-anchor="middle" x="279" y="-231.5" font-family="Helvetica,sans-Serif" font-size="10.00">Character.h</text>
</a>
</g>
</g>
<!-- Node14&#45;&gt;Node15 -->
<g id="edge17" class="edge">
<title>Node14&#45;&gt;Node15</title>
<path fill="none" stroke="midnightblue" d="M254.12,-336.37C258.48,-318.62 268.53,-277.67 274.44,-253.6"/>
<polygon fill="midnightblue" stroke="midnightblue" points="277.91,-254.14 276.89,-243.59 271.11,-252.47 277.91,-254.14"/>
</g>
<!-- Node18 -->
<g id="node18" class="node">
<title>Node18</title>
<g id="a_node18"><a xlink:href="_percentage_8h.html" target="_top" xlink:title="The Percentage specification and body provides a simple percentage type.">
<polygon fill="white" stroke="black" points="26,-280.5 26,-299.5 100,-299.5 100,-280.5 26,-280.5"/>
<text text-anchor="middle" x="63" y="-287.5" font-family="Helvetica,sans-Serif" font-size="10.00">Percentage.h</text>
</a>
</g>
</g>
<!-- Node14&#45;&gt;Node18 -->
<g id="edge23" class="edge">
<title>Node14&#45;&gt;Node18</title>
<path fill="none" stroke="midnightblue" d="M222.05,-336.44C189.84,-327.24 138.47,-312.56 102.86,-302.39"/>
<polygon fill="midnightblue" stroke="midnightblue" points="103.38,-298.9 92.81,-299.52 101.46,-305.63 103.38,-298.9"/>
</g>
<!-- Node21 -->
<g id="node21" class="node">
<title>Node21</title>
<g id="a_node21"><a xlink:href="_string_list_8h.html" target="_top" xlink:title="The StringList specification defines lists of string values with zero&#45;based arbitrary indexed access ...">
<polygon fill="white" stroke="black" points="158,-280.5 158,-299.5 224,-299.5 224,-280.5 158,-280.5"/>
<text text-anchor="middle" x="191" y="-287.5" font-family="Helvetica,sans-Serif" font-size="10.00">StringList.h</text>
</a>
</g>
</g>
<!-- Node14&#45;&gt;Node21 -->
<g id="edge30" class="edge">
<title>Node14&#45;&gt;Node21</title>
<path fill="none" stroke="midnightblue" d="M242.2,-336.32C233.18,-328.34 219.59,-316.31 208.68,-306.65"/>
<polygon fill="midnightblue" stroke="midnightblue" points="210.79,-303.84 200.98,-299.83 206.15,-309.08 210.79,-303.84"/>
</g>
<!-- Node15&#45;&gt;Node10 -->
<g id="edge18" class="edge">
<title>Node15&#45;&gt;Node10</title>
<path fill="none" stroke="midnightblue" d="M271.39,-224.3C256.43,-207.09 222.35,-167.28 196,-132 184.19,-116.19 171.66,-97.46 163,-84.18"/>
<polygon fill="midnightblue" stroke="midnightblue" points="165.82,-82.09 157.45,-75.59 159.94,-85.89 165.82,-82.09"/>
</g>
<!-- Node16 -->
<g id="node16" class="node">
<title>Node16</title>
<g id="a_node16"><a xlink:href="_byte_8h.html" target="_top" xlink:title="The Byte specification and body provides a value object type for byte values.">
<polygon fill="white" stroke="black" points="256.5,-168.5 256.5,-187.5 301.5,-187.5 301.5,-168.5 256.5,-168.5"/>
<text text-anchor="middle" x="279" y="-175.5" font-family="Helvetica,sans-Serif" font-size="10.00">Byte.h</text>
</a>
</g>
</g>
<!-- Node15&#45;&gt;Node16 -->
<g id="edge19" class="edge">
<title>Node15&#45;&gt;Node16</title>
<path fill="none" stroke="midnightblue" d="M279,-224.08C279,-217.01 279,-206.86 279,-197.99"/>
<polygon fill="midnightblue" stroke="midnightblue" points="282.5,-197.75 279,-187.75 275.5,-197.75 282.5,-197.75"/>
</g>
<!-- Node16&#45;&gt;Node9 -->
<g id="edge22" class="edge">
<title>Node16&#45;&gt;Node9</title>
<path fill="none" stroke="midnightblue" d="M288,-168.32C296.19,-160.42 308.51,-148.55 318.47,-138.94"/>
<polygon fill="midnightblue" stroke="midnightblue" points="321.07,-141.29 325.84,-131.83 316.21,-136.26 321.07,-141.29"/>
</g>
<!-- Node16&#45;&gt;Node10 -->
<g id="edge20" class="edge">
<title>Node16&#45;&gt;Node10</title>
<path fill="none" stroke="midnightblue" d="M278.76,-168.29C277.93,-154.65 274.43,-128.12 260,-112 249.44,-100.21 211.71,-86.09 183.8,-76.86"/>
<polygon fill="midnightblue" stroke="midnightblue" points="184.63,-73.44 174.03,-73.69 182.47,-80.1 184.63,-73.44"/>
</g>
<!-- Node17 -->
<g id="node17" class="node">
<title>Node17</title>
<g id="a_node17"><a xlink:title=" ">
<polygon fill="white" stroke="#bfbfbf" points="205,-112.5 205,-131.5 251,-131.5 251,-112.5 205,-112.5"/>
<text text-anchor="middle" x="228" y="-119.5" font-family="Helvetica,sans-Serif" font-size="10.00">cstdint</text>
</a>
</g>
</g>
<!-- Node16&#45;&gt;Node17 -->
<g id="edge21" class="edge">
<title>Node16&#45;&gt;Node17</title>
<path fill="none" stroke="midnightblue" d="M270.58,-168.08C263.15,-160.22 252.15,-148.57 243.19,-139.08"/>
<polygon fill="midnightblue" stroke="midnightblue" points="245.68,-136.62 236.26,-131.75 240.59,-141.42 245.68,-136.62"/>
</g>
<!-- Node19 -->
<g id="node19" class="node">
<title>Node19</title>
<g id="a_node19"><a xlink:href="_real_8h.html" target="_top" xlink:title="The Real specification defines a value object type for real values.">
<polygon fill="white" stroke="black" points="0,-224.5 0,-243.5 44,-243.5 44,-224.5 0,-224.5"/>
<text text-anchor="middle" x="22" y="-231.5" font-family="Helvetica,sans-Serif" font-size="10.00">Real.h</text>
</a>
</g>
</g>
<!-- Node18&#45;&gt;Node19 -->
<g id="edge24" class="edge">
<title>Node18&#45;&gt;Node19</title>
<path fill="none" stroke="midnightblue" d="M56.23,-280.08C50.44,-272.46 41.94,-261.26 34.86,-251.94"/>
<polygon fill="midnightblue" stroke="midnightblue" points="37.48,-249.6 28.64,-243.75 31.9,-253.83 37.48,-249.6"/>
</g>
<!-- Node19&#45;&gt;Node10 -->
<g id="edge25" class="edge">
<title>Node19&#45;&gt;Node10</title>
<path fill="none" stroke="midnightblue" d="M28.99,-224.08C49.81,-197.49 111.64,-118.54 138.87,-83.76"/>
<polygon fill="midnightblue" stroke="midnightblue" points="141.88,-85.6 145.29,-75.57 136.37,-81.28 141.88,-85.6"/>
</g>
<!-- Node20 -->
<g id="node20" class="node">
<title>Node20</title>
<g id="a_node20"><a xlink:href="_integer_8h.html" target="_top" xlink:title="The Integer specification and body provides a value object type for ints.">
<polygon fill="white" stroke="black" points="93,-168.5 93,-187.5 147,-187.5 147,-168.5 93,-168.5"/>
<text text-anchor="middle" x="120" y="-175.5" font-family="Helvetica,sans-Serif" font-size="10.00">Integer.h</text>
</a>
</g>
</g>
<!-- Node19&#45;&gt;Node20 -->
<g id="edge26" class="edge">
<title>Node19&#45;&gt;Node20</title>
<path fill="none" stroke="midnightblue" d="M37.75,-224.32C53.32,-215.74 77.38,-202.49 95.46,-192.52"/>
<polygon fill="midnightblue" stroke="midnightblue" points="97.22,-195.55 104.29,-187.65 93.85,-189.42 97.22,-195.55"/>
</g>
<!-- Node20&#45;&gt;Node9 -->
<g id="edge29" class="edge">
<title>Node20&#45;&gt;Node9</title>
<path fill="none" stroke="midnightblue" d="M147.23,-170.16C185.2,-160.62 254.22,-143.29 297.17,-132.5"/>
<polygon fill="midnightblue" stroke="midnightblue" points="298.12,-135.87 306.97,-130.04 296.42,-129.08 298.12,-135.87"/>
</g>
<!-- Node20&#45;&gt;Node10 -->
<g id="edge27" class="edge">
<title>Node20&#45;&gt;Node10</title>
<path fill="none" stroke="midnightblue" d="M122.51,-168.37C127.7,-150.54 139.7,-109.3 146.68,-85.27"/>
<polygon fill="midnightblue" stroke="midnightblue" points="150.07,-86.17 149.5,-75.59 143.35,-84.22 150.07,-86.17"/>
</g>
<!-- Node20&#45;&gt;Node12 -->
<g id="edge28" class="edge">
<title>Node20&#45;&gt;Node12</title>
<path fill="none" stroke="midnightblue" d="M117.65,-168.22C112.57,-147.45 102.5,-94.19 121,-56 127.31,-42.98 139.39,-32.52 150.73,-24.97"/>
<polygon fill="midnightblue" stroke="midnightblue" points="152.85,-27.78 159.54,-19.55 149.18,-21.82 152.85,-27.78"/>
</g>
<!-- Node22 -->
<g id="node22" class="node">
<title>Node22</title>
<g id="a_node22"><a xlink:title=" ">
<polygon fill="white" stroke="#bfbfbf" points="154.5,-224.5 154.5,-243.5 227.5,-243.5 227.5,-224.5 154.5,-224.5"/>
<text text-anchor="middle" x="191" y="-231.5" font-family="Helvetica,sans-Serif" font-size="10.00">initializer_list</text>
</a>
</g>
</g>
<!-- Node21&#45;&gt;Node22 -->
<g id="edge31" class="edge">
<title>Node21&#45;&gt;Node22</title>
<path fill="none" stroke="midnightblue" d="M191,-280.08C191,-273.01 191,-262.86 191,-253.99"/>
<polygon fill="midnightblue" stroke="midnightblue" points="194.5,-253.75 191,-243.75 187.5,-253.75 194.5,-253.75"/>
</g>
<!-- Node23 -->
<g id="node23" class="node">
<title>Node23</title>
<g id="a_node23"><a xlink:title=" ">
<polygon fill="white" stroke="#bfbfbf" points="62,-224.5 62,-243.5 136,-243.5 136,-224.5 62,-224.5"/>
<text text-anchor="middle" x="99" y="-231.5" font-family="Helvetica,sans-Serif" font-size="10.00">GenericList.h</text>
</a>
</g>
</g>
<!-- Node21&#45;&gt;Node23 -->
<g id="edge32" class="edge">
<title>Node21&#45;&gt;Node23</title>
<path fill="none" stroke="midnightblue" d="M176.22,-280.32C161.73,-271.82 139.43,-258.73 122.51,-248.8"/>
<polygon fill="midnightblue" stroke="midnightblue" points="124.14,-245.7 113.74,-243.65 120.6,-251.74 124.14,-245.7"/>
</g>
<!-- Node25 -->
<g id="node25" class="node">
<title>Node25</title>
<g id="a_node25"><a xlink:title=" ">
<polygon fill="white" stroke="#bfbfbf" points="502.5,-336.5 502.5,-355.5 579.5,-355.5 579.5,-336.5 502.5,-336.5"/>
<text text-anchor="middle" x="541" y="-343.5" font-family="Helvetica,sans-Serif" font-size="10.00">GenericMap.h</text>
</a>
</g>
</g>
<!-- Node24&#45;&gt;Node25 -->
<g id="edge34" class="edge">
<title>Node24&#45;&gt;Node25</title>
<path fill="none" stroke="midnightblue" d="M546.84,-392.08C545.92,-384.93 544.58,-374.64 543.42,-365.69"/>
<polygon fill="midnightblue" stroke="midnightblue" points="546.89,-365.22 542.13,-355.75 539.95,-366.12 546.89,-365.22"/>
</g>
<!-- Node26&#45;&gt;Node5 -->
<g id="edge36" class="edge">
<title>Node26&#45;&gt;Node5</title>
<path fill="none" stroke="midnightblue" d="M605.18,-336.44C559.77,-326.43 484.97,-309.95 439.04,-299.83"/>
<polygon fill="midnightblue" stroke="midnightblue" points="439.66,-296.38 429.14,-297.64 438.16,-303.21 439.66,-296.38"/>
</g>
<!-- Node27 -->
<g id="node27" class="node">
<title>Node27</title>
<g id="a_node27"><a xlink:href="_object_8h.html" target="_top" xlink:title="The Object specification and body provides the root object type.">
<polygon fill="white" stroke="black" points="547.5,-280.5 547.5,-299.5 600.5,-299.5 600.5,-280.5 547.5,-280.5"/>
<text text-anchor="middle" x="574" y="-287.5" font-family="Helvetica,sans-Serif" font-size="10.00">Object.h</text>
</a>
</g>
</g>
<!-- Node26&#45;&gt;Node27 -->
<g id="edge37" class="edge">
<title>Node26&#45;&gt;Node27</title>
<path fill="none" stroke="midnightblue" d="M632.75,-336.32C622.2,-328.18 606.2,-315.84 593.56,-306.09"/>
<polygon fill="midnightblue" stroke="midnightblue" points="595.51,-303.17 585.45,-299.83 591.23,-308.71 595.51,-303.17"/>
</g>
<!-- Node29 -->
<g id="node29" class="node">
<title>Node29</title>
<g id="a_node29"><a xlink:href="_fluid_synth_8h.html" target="_top" xlink:title="The FluidSynth class specifies an object&#45;oriented wrapper around the fluidsynth library and also allo...">
<polygon fill="white" stroke="black" points="413.5,-336.5 413.5,-355.5 484.5,-355.5 484.5,-336.5 413.5,-336.5"/>
<text text-anchor="middle" x="449" y="-343.5" font-family="Helvetica,sans-Serif" font-size="10.00">FluidSynth.h</text>
</a>
</g>
</g>
<!-- Node28&#45;&gt;Node29 -->
<g id="edge39" class="edge">
<title>Node28&#45;&gt;Node29</title>
<path fill="none" stroke="midnightblue" d="M443.16,-392.08C444.08,-384.93 445.42,-374.64 446.58,-365.69"/>
<polygon fill="midnightblue" stroke="midnightblue" points="450.05,-366.12 447.87,-355.75 443.11,-365.22 450.05,-366.12"/>
</g>
<!-- Node29&#45;&gt;Node9 -->
<g id="edge40" class="edge">
<title>Node29&#45;&gt;Node9</title>
<path fill="none" stroke="midnightblue" d="M448.66,-336.29C447.91,-323.52 445.53,-299.18 438,-280 415.96,-223.87 371.99,-166.88 349.29,-139.59"/>
<polygon fill="midnightblue" stroke="midnightblue" points="351.85,-137.19 342.73,-131.8 346.5,-141.7 351.85,-137.19"/>
</g>
<!-- Node29&#45;&gt;Node27 -->
<g id="edge41" class="edge">
<title>Node29&#45;&gt;Node27</title>
<path fill="none" stroke="midnightblue" d="M468.81,-336.44C489.29,-327.6 521.48,-313.69 544.86,-303.59"/>
<polygon fill="midnightblue" stroke="midnightblue" points="546.49,-306.7 554.29,-299.52 543.72,-300.27 546.49,-306.7"/>
</g>
</g>
</svg>
