<?xml version="1.0" encoding="UTF-8" standalone="no"?>
<!DOCTYPE svg PUBLIC "-//W3C//DTD SVG 1.1//EN"
 "http://www.w3.org/Graphics/SVG/1.1/DTD/svg11.dtd">
<!-- Generated by graphviz version 2.47.1 (20210417.1919)
 -->
<!-- Title: FluidSynthSoundFont.cpp Pages: 1 -->
<svg width="854pt" height="588pt"
 viewBox="0.00 0.00 853.50 588.00" xmlns="http://www.w3.org/2000/svg" xmlns:xlink="http://www.w3.org/1999/xlink">
<g id="graph0" class="graph" transform="scale(1 1) rotate(0) translate(4 584)">
<title>FluidSynthSoundFont.cpp</title>
<polygon fill="white" stroke="transparent" points="-4,4 -4,-584 849.5,-584 849.5,4 -4,4"/>
<!-- Node1 -->
<g id="node1" class="node">
<title>Node1</title>
<g id="a_node1"><a xlink:title="The FluidSynthSoundFont class implements an object&#45;oriented wrapper around an underlying fluidsynth s...">
<polygon fill="#bfbfbf" stroke="black" points="481,-560.5 481,-579.5 610,-579.5 610,-560.5 481,-560.5"/>
<text text-anchor="middle" x="545.5" y="-567.5" font-family="Helvetica,sans-Serif" font-size="10.00">FluidSynthSoundFont.cpp</text>
</a>
</g>
</g>
<!-- Node2 -->
<g id="node2" class="node">
<title>Node2</title>
<g id="a_node2"><a xlink:href="_dynamic_library_8h.html" target="_top" xlink:title="The DynamicLibrary class specifies a very simple and crude wrapper around the dynamic library loading...">
<polygon fill="white" stroke="black" points="492.5,-336.5 492.5,-355.5 584.5,-355.5 584.5,-336.5 492.5,-336.5"/>
<text text-anchor="middle" x="538.5" y="-343.5" font-family="Helvetica,sans-Serif" font-size="10.00">DynamicLibrary.h</text>
</a>
</g>
</g>
<!-- Node1&#45;&gt;Node2 -->
<g id="edge1" class="edge">
<title>Node1&#45;&gt;Node2</title>
<path fill="none" stroke="midnightblue" d="M545.23,-560.3C544.2,-527.63 540.55,-411.87 539.1,-365.96"/>
<polygon fill="midnightblue" stroke="midnightblue" points="542.59,-365.77 538.78,-355.88 535.6,-365.99 542.59,-365.77"/>
</g>
<!-- Node8 -->
<g id="node8" class="node">
<title>Node8</title>
<g id="a_node8"><a xlink:href="_fluid_synth_sound_font_8h.html" target="_top" xlink:title="The FluidSynthSoundFont class specifies an object&#45;oriented wrapper around an underlying fluidsynth so...">
<polygon fill="white" stroke="black" points="398,-504.5 398,-523.5 517,-523.5 517,-504.5 398,-504.5"/>
<text text-anchor="middle" x="457.5" y="-511.5" font-family="Helvetica,sans-Serif" font-size="10.00">FluidSynthSoundFont.h</text>
</a>
</g>
</g>
<!-- Node1&#45;&gt;Node8 -->
<g id="edge7" class="edge">
<title>Node1&#45;&gt;Node8</title>
<path fill="none" stroke="midnightblue" d="M531.36,-560.32C517.63,-551.9 496.56,-538.97 480.44,-529.07"/>
<polygon fill="midnightblue" stroke="midnightblue" points="481.96,-525.9 471.6,-523.65 478.3,-531.87 481.96,-525.9"/>
</g>
<!-- Node29 -->
<g id="node29" class="node">
<title>Node29</title>
<g id="a_node29"><a xlink:href="_logging_8h.html" target="_top" xlink:title="The Logging specification defines macros for entry&#45;, exit&#45; and intermediate logging of functions into...">
<polygon fill="white" stroke="black" points="643,-392.5 643,-411.5 702,-411.5 702,-392.5 643,-392.5"/>
<text text-anchor="middle" x="672.5" y="-399.5" font-family="Helvetica,sans-Serif" font-size="10.00">Logging.h</text>
</a>
</g>
</g>
<!-- Node1&#45;&gt;Node29 -->
<g id="edge38" class="edge">
<title>Node1&#45;&gt;Node29</title>
<path fill="none" stroke="midnightblue" d="M552.33,-560.08C572.67,-533.49 633.07,-454.54 659.68,-419.76"/>
<polygon fill="midnightblue" stroke="midnightblue" points="662.65,-421.64 665.94,-411.57 657.09,-417.38 662.65,-421.64"/>
</g>
<!-- Node3 -->
<g id="node3" class="node">
<title>Node3</title>
<g id="a_node3"><a xlink:href="_boolean_8h.html" target="_top" xlink:title="The Boolean specification and body provides a value object type for boolean values.">
<polygon fill="white" stroke="black" points="668.5,-280.5 668.5,-299.5 728.5,-299.5 728.5,-280.5 668.5,-280.5"/>
<text text-anchor="middle" x="698.5" y="-287.5" font-family="Helvetica,sans-Serif" font-size="10.00">Boolean.h</text>
</a>
</g>
</g>
<!-- Node2&#45;&gt;Node3 -->
<g id="edge2" class="edge">
<title>Node2&#45;&gt;Node3</title>
<path fill="none" stroke="midnightblue" d="M563.85,-336.44C590.77,-327.36 633.5,-312.94 663.59,-302.78"/>
<polygon fill="midnightblue" stroke="midnightblue" points="664.91,-306.03 673.27,-299.52 662.67,-299.4 664.91,-306.03"/>
</g>
<!-- Node7 -->
<g id="node7" class="node">
<title>Node7</title>
<g id="a_node7"><a xlink:href="_object_8h.html" target="_top" xlink:title="The Object specification and body provides the root object type.">
<polygon fill="white" stroke="black" points="345,-280.5 345,-299.5 398,-299.5 398,-280.5 345,-280.5"/>
<text text-anchor="middle" x="371.5" y="-287.5" font-family="Helvetica,sans-Serif" font-size="10.00">Object.h</text>
</a>
</g>
</g>
<!-- Node2&#45;&gt;Node7 -->
<g id="edge6" class="edge">
<title>Node2&#45;&gt;Node7</title>
<path fill="none" stroke="midnightblue" d="M512.04,-336.44C483.82,-327.32 438.96,-312.81 407.53,-302.65"/>
<polygon fill="midnightblue" stroke="midnightblue" points="408.43,-299.26 397.84,-299.52 406.28,-305.92 408.43,-299.26"/>
</g>
<!-- Node4 -->
<g id="node4" class="node">
<title>Node4</title>
<g id="a_node4"><a xlink:href="_my_string_8h.html" target="_top" xlink:title="The String specification defines a standard string type.">
<polygon fill="white" stroke="black" points="549.5,-56.5 549.5,-75.5 613.5,-75.5 613.5,-56.5 549.5,-56.5"/>
<text text-anchor="middle" x="581.5" y="-63.5" font-family="Helvetica,sans-Serif" font-size="10.00">MyString.h</text>
</a>
</g>
</g>
<!-- Node3&#45;&gt;Node4 -->
<g id="edge3" class="edge">
<title>Node3&#45;&gt;Node4</title>
<path fill="none" stroke="midnightblue" d="M696.64,-280.22C690.63,-253.22 669.75,-169.7 630.5,-112 622.76,-100.63 611.62,-90.09 601.91,-82.08"/>
<polygon fill="midnightblue" stroke="midnightblue" points="603.89,-79.19 593.87,-75.73 599.55,-84.68 603.89,-79.19"/>
</g>
<!-- Node5 -->
<g id="node5" class="node">
<title>Node5</title>
<g id="a_node5"><a xlink:title=" ">
<polygon fill="white" stroke="#bfbfbf" points="412,-0.5 412,-19.5 453,-19.5 453,-0.5 412,-0.5"/>
<text text-anchor="middle" x="432.5" y="-7.5" font-family="Helvetica,sans-Serif" font-size="10.00">string</text>
</a>
</g>
</g>
<!-- Node4&#45;&gt;Node5 -->
<g id="edge4" class="edge">
<title>Node4&#45;&gt;Node5</title>
<path fill="none" stroke="midnightblue" d="M557.89,-56.44C532.17,-47.12 490.93,-32.18 462.83,-21.99"/>
<polygon fill="midnightblue" stroke="midnightblue" points="463.71,-18.59 453.12,-18.47 461.33,-25.17 463.71,-18.59"/>
</g>
<!-- Node6 -->
<g id="node6" class="node">
<title>Node6</title>
<g id="a_node6"><a xlink:href="_global_macros_8h.html" target="_top" xlink:title="The GlobalMacros specification defines simple macros (e.g. for parameter modes).">
<polygon fill="white" stroke="black" points="539,-0.5 539,-19.5 624,-19.5 624,-0.5 539,-0.5"/>
<text text-anchor="middle" x="581.5" y="-7.5" font-family="Helvetica,sans-Serif" font-size="10.00">GlobalMacros.h</text>
</a>
</g>
</g>
<!-- Node4&#45;&gt;Node6 -->
<g id="edge5" class="edge">
<title>Node4&#45;&gt;Node6</title>
<path fill="none" stroke="midnightblue" d="M581.5,-56.08C581.5,-49.01 581.5,-38.86 581.5,-29.99"/>
<polygon fill="midnightblue" stroke="midnightblue" points="585,-29.75 581.5,-19.75 578,-29.75 585,-29.75"/>
</g>
<!-- Node9 -->
<g id="node9" class="node">
<title>Node9</title>
<g id="a_node9"><a xlink:href="_fluid_synth_synthesizer_8h.html" target="_top" xlink:title="The FluidSynthSynthesizer class specifies an object&#45;oriented wrapper around an underlying fluidsynth ...">
<polygon fill="white" stroke="black" points="313,-448.5 313,-467.5 436,-467.5 436,-448.5 313,-448.5"/>
<text text-anchor="middle" x="374.5" y="-455.5" font-family="Helvetica,sans-Serif" font-size="10.00">FluidSynthSynthesizer.h</text>
</a>
</g>
</g>
<!-- Node8&#45;&gt;Node9 -->
<g id="edge8" class="edge">
<title>Node8&#45;&gt;Node9</title>
<path fill="none" stroke="midnightblue" d="M444.16,-504.32C431.34,-495.98 411.72,-483.21 396.56,-473.35"/>
<polygon fill="midnightblue" stroke="midnightblue" points="398.09,-470.17 387.8,-467.65 394.28,-476.04 398.09,-470.17"/>
</g>
<!-- Node27 -->
<g id="node27" class="node">
<title>Node27</title>
<g id="a_node27"><a xlink:href="_string_list_8h.html" target="_top" xlink:title="The StringList specification defines lists of string values with zero&#45;based arbitrary indexed access ...">
<polygon fill="white" stroke="black" points="546.5,-280.5 546.5,-299.5 612.5,-299.5 612.5,-280.5 546.5,-280.5"/>
<text text-anchor="middle" x="579.5" y="-287.5" font-family="Helvetica,sans-Serif" font-size="10.00">StringList.h</text>
</a>
</g>
</g>
<!-- Node8&#45;&gt;Node27 -->
<g id="edge35" class="edge">
<title>Node8&#45;&gt;Node27</title>
<path fill="none" stroke="midnightblue" d="M456.11,-504.19C452.24,-476.37 444.04,-389.1 483.5,-336 496.31,-318.76 517.38,-307.89 536.52,-301.16"/>
<polygon fill="midnightblue" stroke="midnightblue" points="537.86,-304.41 546.31,-298.01 535.71,-297.75 537.86,-304.41"/>
</g>
<!-- Node9&#45;&gt;Node7 -->
<g id="edge30" class="edge">
<title>Node9&#45;&gt;Node7</title>
<path fill="none" stroke="midnightblue" d="M374.34,-448.08C373.87,-421.95 372.48,-345.21 371.84,-309.58"/>
<polygon fill="midnightblue" stroke="midnightblue" points="375.34,-309.5 371.65,-299.57 368.34,-309.63 375.34,-309.5"/>
</g>
<!-- Node10 -->
<g id="node10" class="node">
<title>Node10</title>
<g id="a_node10"><a xlink:href="_audio_sample_list_vector_8h.html" target="_top" xlink:title="The AudioSampleListVector specification defines the communication buffer structure for the block proc...">
<polygon fill="white" stroke="black" points="108,-392.5 108,-411.5 235,-411.5 235,-392.5 108,-392.5"/>
<text text-anchor="middle" x="171.5" y="-399.5" font-family="Helvetica,sans-Serif" font-size="10.00">AudioSampleListVector.h</text>
</a>
</g>
</g>
<!-- Node9&#45;&gt;Node10 -->
<g id="edge9" class="edge">
<title>Node9&#45;&gt;Node10</title>
<path fill="none" stroke="midnightblue" d="M342.33,-448.44C307.44,-439.16 251.61,-424.31 213.33,-414.13"/>
<polygon fill="midnightblue" stroke="midnightblue" points="214.08,-410.7 203.52,-411.52 212.28,-417.47 214.08,-410.7"/>
</g>
<!-- Node18 -->
<g id="node18" class="node">
<title>Node18</title>
<g id="a_node18"><a xlink:href="_natural_8h.html" target="_top" xlink:title="The Natural specification and body provides a value object type for naturals (positive integers with ...">
<polygon fill="white" stroke="black" points="401.5,-112.5 401.5,-131.5 457.5,-131.5 457.5,-112.5 401.5,-112.5"/>
<text text-anchor="middle" x="429.5" y="-119.5" font-family="Helvetica,sans-Serif" font-size="10.00">Natural.h</text>
</a>
</g>
</g>
<!-- Node9&#45;&gt;Node18 -->
<g id="edge29" class="edge">
<title>Node9&#45;&gt;Node18</title>
<path fill="none" stroke="midnightblue" d="M377.26,-448.44C380.1,-439.44 384.51,-424.83 387.5,-412 404.72,-338.13 407.08,-319.13 417.5,-244 422.51,-207.88 426.22,-165.42 428.11,-141.61"/>
<polygon fill="midnightblue" stroke="midnightblue" points="431.6,-141.77 428.88,-131.54 424.63,-141.24 431.6,-141.77"/>
</g>
<!-- Node25 -->
<g id="node25" class="node">
<title>Node25</title>
<g id="a_node25"><a xlink:href="_fluid_synth_settings_8h.html" target="_top" xlink:title="The FluidSynthSettings class specifies an object&#45;oriented wrapper around an underlying fluidsynth set...">
<polygon fill="white" stroke="black" points="253,-392.5 253,-411.5 360,-411.5 360,-392.5 253,-392.5"/>
<text text-anchor="middle" x="306.5" y="-399.5" font-family="Helvetica,sans-Serif" font-size="10.00">FluidSynthSettings.h</text>
</a>
</g>
</g>
<!-- Node9&#45;&gt;Node25 -->
<g id="edge31" class="edge">
<title>Node9&#45;&gt;Node25</title>
<path fill="none" stroke="midnightblue" d="M363.57,-448.32C353.33,-440.18 337.78,-427.84 325.5,-418.09"/>
<polygon fill="midnightblue" stroke="midnightblue" points="327.63,-415.31 317.62,-411.83 323.28,-420.79 327.63,-415.31"/>
</g>
<!-- Node11 -->
<g id="node11" class="node">
<title>Node11</title>
<g id="a_node11"><a xlink:href="_audio_sample_list_8h.html" target="_top" xlink:title="The AudioSampleList specification defines lists of audio samples with zero&#45;based arbitrary indexed ac...">
<polygon fill="white" stroke="black" points="1.5,-336.5 1.5,-355.5 99.5,-355.5 99.5,-336.5 1.5,-336.5"/>
<text text-anchor="middle" x="50.5" y="-343.5" font-family="Helvetica,sans-Serif" font-size="10.00">AudioSampleList.h</text>
</a>
</g>
</g>
<!-- Node10&#45;&gt;Node11 -->
<g id="edge10" class="edge">
<title>Node10&#45;&gt;Node11</title>
<path fill="none" stroke="midnightblue" d="M152.33,-392.44C132.59,-383.64 101.61,-369.81 79.01,-359.72"/>
<polygon fill="midnightblue" stroke="midnightblue" points="80.14,-356.4 69.58,-355.52 77.29,-362.79 80.14,-356.4"/>
</g>
<!-- Node24 -->
<g id="node24" class="node">
<title>Node24</title>
<g id="a_node24"><a xlink:href="_audio_sample_list_vector_8cpp-inc.html" target="_top" xlink:title="The AudioSampleListVector body implements the communication buffer structure for the block processing...">
<polygon fill="white" stroke="black" points="118,-336.5 118,-355.5 271,-355.5 271,-336.5 118,-336.5"/>
<text text-anchor="middle" x="194.5" y="-343.5" font-family="Helvetica,sans-Serif" font-size="10.00">AudioSampleListVector.cpp&#45;inc</text>
</a>
</g>
</g>
<!-- Node10&#45;&gt;Node24 -->
<g id="edge28" class="edge">
<title>Node10&#45;&gt;Node24</title>
<path fill="none" stroke="midnightblue" d="M175.3,-392.08C178.41,-384.77 182.92,-374.18 186.79,-365.1"/>
<polygon fill="midnightblue" stroke="midnightblue" points="190.07,-366.32 190.77,-355.75 183.63,-363.58 190.07,-366.32"/>
</g>
<!-- Node12 -->
<g id="node12" class="node">
<title>Node12</title>
<g id="a_node12"><a xlink:title=" ">
<polygon fill="white" stroke="#bfbfbf" points="334.5,-224.5 334.5,-243.5 408.5,-243.5 408.5,-224.5 334.5,-224.5"/>
<text text-anchor="middle" x="371.5" y="-231.5" font-family="Helvetica,sans-Serif" font-size="10.00">GenericList.h</text>
</a>
</g>
</g>
<!-- Node11&#45;&gt;Node12 -->
<g id="edge11" class="edge">
<title>Node11&#45;&gt;Node12</title>
<path fill="none" stroke="midnightblue" d="M99.83,-336.89C139.4,-329.58 195.98,-317.32 243.5,-300 281.91,-286 323.66,-263.25 348.69,-248.72"/>
<polygon fill="midnightblue" stroke="midnightblue" points="350.57,-251.67 357.42,-243.58 347.03,-245.63 350.57,-251.67"/>
</g>
<!-- Node13 -->
<g id="node13" class="node">
<title>Node13</title>
<g id="a_node13"><a xlink:href="_audio_sample_8h.html" target="_top" xlink:title="The AudioSample specification and body provides the definition of the audio sample (a real value).">
<polygon fill="white" stroke="black" points="151,-280.5 151,-299.5 234,-299.5 234,-280.5 151,-280.5"/>
<text text-anchor="middle" x="192.5" y="-287.5" font-family="Helvetica,sans-Serif" font-size="10.00">AudioSample.h</text>
</a>
</g>
</g>
<!-- Node11&#45;&gt;Node13 -->
<g id="edge12" class="edge">
<title>Node11&#45;&gt;Node13</title>
<path fill="none" stroke="midnightblue" d="M73,-336.44C96.58,-327.48 133.82,-313.31 160.46,-303.18"/>
<polygon fill="midnightblue" stroke="midnightblue" points="162,-306.34 170.1,-299.52 159.51,-299.8 162,-306.34"/>
</g>
<!-- Node21 -->
<g id="node21" class="node">
<title>Node21</title>
<g id="a_node21"><a xlink:href="_audio_sample_list_8cpp-inc.html" target="_top" xlink:title="The AudioSampleList body implements a simple list of audio samples (this is the effective code includ...">
<polygon fill="white" stroke="black" points="0,-280.5 0,-299.5 125,-299.5 125,-280.5 0,-280.5"/>
<text text-anchor="middle" x="62.5" y="-287.5" font-family="Helvetica,sans-Serif" font-size="10.00">AudioSampleList.cpp&#45;inc</text>
</a>
</g>
</g>
<!-- Node11&#45;&gt;Node21 -->
<g id="edge24" class="edge">
<title>Node11&#45;&gt;Node21</title>
<path fill="none" stroke="midnightblue" d="M52.48,-336.08C54.07,-328.93 56.36,-318.64 58.35,-309.69"/>
<polygon fill="midnightblue" stroke="midnightblue" points="61.8,-310.27 60.56,-299.75 54.97,-308.75 61.8,-310.27"/>
</g>
<!-- Node14 -->
<g id="node14" class="node">
<title>Node14</title>
<g id="a_node14"><a xlink:href="_real_8h.html" target="_top" xlink:title="The Real specification defines a value object type for real values.">
<polygon fill="white" stroke="black" points="213.5,-224.5 213.5,-243.5 257.5,-243.5 257.5,-224.5 213.5,-224.5"/>
<text text-anchor="middle" x="235.5" y="-231.5" font-family="Helvetica,sans-Serif" font-size="10.00">Real.h</text>
</a>
</g>
</g>
<!-- Node13&#45;&gt;Node14 -->
<g id="edge13" class="edge">
<title>Node13&#45;&gt;Node14</title>
<path fill="none" stroke="midnightblue" d="M199.6,-280.08C205.74,-272.38 214.77,-261.03 222.24,-251.65"/>
<polygon fill="midnightblue" stroke="midnightblue" points="225.04,-253.75 228.53,-243.75 219.56,-249.39 225.04,-253.75"/>
</g>
<!-- Node15 -->
<g id="node15" class="node">
<title>Node15</title>
<g id="a_node15"><a xlink:href="_integer_8h.html" target="_top" xlink:title="The Integer specification and body provides a value object type for ints.">
<polygon fill="white" stroke="black" points="208.5,-168.5 208.5,-187.5 262.5,-187.5 262.5,-168.5 208.5,-168.5"/>
<text text-anchor="middle" x="235.5" y="-175.5" font-family="Helvetica,sans-Serif" font-size="10.00">Integer.h</text>
</a>
</g>
</g>
<!-- Node14&#45;&gt;Node15 -->
<g id="edge14" class="edge">
<title>Node14&#45;&gt;Node15</title>
<path fill="none" stroke="midnightblue" d="M235.5,-224.08C235.5,-217.01 235.5,-206.86 235.5,-197.99"/>
<polygon fill="midnightblue" stroke="midnightblue" points="239,-197.75 235.5,-187.75 232,-197.75 239,-197.75"/>
</g>
<!-- Node16 -->
<g id="node16" class="node">
<title>Node16</title>
<g id="a_node16"><a xlink:title=" ">
<polygon fill="white" stroke="#bfbfbf" points="487.5,-56.5 487.5,-75.5 531.5,-75.5 531.5,-56.5 487.5,-56.5"/>
<text text-anchor="middle" x="509.5" y="-63.5" font-family="Helvetica,sans-Serif" font-size="10.00">cmath</text>
</a>
</g>
</g>
<!-- Node15&#45;&gt;Node16 -->
<g id="edge15" class="edge">
<title>Node15&#45;&gt;Node16</title>
<path fill="none" stroke="midnightblue" d="M255.76,-168.42C285.6,-155.83 343.18,-131.69 392.5,-112 421.33,-100.49 454.35,-87.84 477.94,-78.89"/>
<polygon fill="midnightblue" stroke="midnightblue" points="479.33,-82.11 487.44,-75.29 476.85,-75.56 479.33,-82.11"/>
</g>
<!-- Node17 -->
<g id="node17" class="node">
<title>Node17</title>
<g id="a_node17"><a xlink:title=" ">
<polygon fill="white" stroke="#bfbfbf" points="267,-0.5 267,-19.5 326,-19.5 326,-0.5 267,-0.5"/>
<text text-anchor="middle" x="296.5" y="-7.5" font-family="Helvetica,sans-Serif" font-size="10.00">stdexcept</text>
</a>
</g>
</g>
<!-- Node15&#45;&gt;Node17 -->
<g id="edge16" class="edge">
<title>Node15&#45;&gt;Node17</title>
<path fill="none" stroke="midnightblue" d="M238.78,-168.08C248.42,-141.83 276.82,-64.55 289.84,-29.12"/>
<polygon fill="midnightblue" stroke="midnightblue" points="293.19,-30.16 293.35,-19.57 286.62,-27.75 293.19,-30.16"/>
</g>
<!-- Node15&#45;&gt;Node18 -->
<g id="edge17" class="edge">
<title>Node15&#45;&gt;Node18</title>
<path fill="none" stroke="midnightblue" d="M262.88,-169.38C296.54,-160.01 353.82,-144.07 391.66,-133.53"/>
<polygon fill="midnightblue" stroke="midnightblue" points="392.62,-136.9 401.31,-130.85 390.74,-130.16 392.62,-136.9"/>
</g>
<!-- Node18&#45;&gt;Node4 -->
<g id="edge23" class="edge">
<title>Node18&#45;&gt;Node4</title>
<path fill="none" stroke="midnightblue" d="M453.58,-112.44C479.04,-103.4 519.39,-89.06 547.96,-78.92"/>
<polygon fill="midnightblue" stroke="midnightblue" points="549.28,-82.16 557.53,-75.52 546.93,-75.57 549.28,-82.16"/>
</g>
<!-- Node18&#45;&gt;Node16 -->
<g id="edge18" class="edge">
<title>Node18&#45;&gt;Node16</title>
<path fill="none" stroke="midnightblue" d="M442.35,-112.32C454.72,-103.98 473.63,-91.21 488.24,-81.35"/>
<polygon fill="midnightblue" stroke="midnightblue" points="490.35,-84.15 496.68,-75.65 486.43,-78.35 490.35,-84.15"/>
</g>
<!-- Node19 -->
<g id="node19" class="node">
<title>Node19</title>
<g id="a_node19"><a xlink:href="_assertion_8h.html" target="_top" xlink:title="The Assertion specification defines macros for pre&#45; and postconditions in functions or methods.">
<polygon fill="white" stroke="black" points="293.5,-56.5 293.5,-75.5 359.5,-75.5 359.5,-56.5 293.5,-56.5"/>
<text text-anchor="middle" x="326.5" y="-63.5" font-family="Helvetica,sans-Serif" font-size="10.00">Assertion.h</text>
</a>
</g>
</g>
<!-- Node18&#45;&gt;Node19 -->
<g id="edge19" class="edge">
<title>Node18&#45;&gt;Node19</title>
<path fill="none" stroke="midnightblue" d="M412.95,-112.32C396.51,-103.7 371.07,-90.36 352.03,-80.39"/>
<polygon fill="midnightblue" stroke="midnightblue" points="353.49,-77.2 343.01,-75.65 350.24,-83.4 353.49,-77.2"/>
</g>
<!-- Node20 -->
<g id="node20" class="node">
<title>Node20</title>
<g id="a_node20"><a xlink:title=" ">
<polygon fill="white" stroke="#bfbfbf" points="377.5,-56.5 377.5,-75.5 469.5,-75.5 469.5,-56.5 377.5,-56.5"/>
<text text-anchor="middle" x="423.5" y="-63.5" font-family="Helvetica,sans-Serif" font-size="10.00">GenericNumber.h</text>
</a>
</g>
</g>
<!-- Node18&#45;&gt;Node20 -->
<g id="edge22" class="edge">
<title>Node18&#45;&gt;Node20</title>
<path fill="none" stroke="midnightblue" d="M428.51,-112.08C427.71,-104.93 426.57,-94.64 425.58,-85.69"/>
<polygon fill="midnightblue" stroke="midnightblue" points="429.06,-85.3 424.47,-75.75 422.1,-86.08 429.06,-85.3"/>
</g>
<!-- Node19&#45;&gt;Node5 -->
<g id="edge21" class="edge">
<title>Node19&#45;&gt;Node5</title>
<path fill="none" stroke="midnightblue" d="M343.53,-56.32C360.53,-47.66 386.88,-34.24 406.49,-24.25"/>
<polygon fill="midnightblue" stroke="midnightblue" points="408.19,-27.31 415.51,-19.65 405.01,-21.08 408.19,-27.31"/>
</g>
<!-- Node19&#45;&gt;Node17 -->
<g id="edge20" class="edge">
<title>Node19&#45;&gt;Node17</title>
<path fill="none" stroke="midnightblue" d="M321.55,-56.08C317.4,-48.61 311.35,-37.72 306.23,-28.52"/>
<polygon fill="midnightblue" stroke="midnightblue" points="309.28,-26.79 301.36,-19.75 303.16,-30.19 309.28,-26.79"/>
</g>
<!-- Node22 -->
<g id="node22" class="node">
<title>Node22</title>
<g id="a_node22"><a xlink:href="_my_array_8h.html" target="_top" xlink:title="The MyArray specification and body defines a generic array type for stack allocated arrays represente...">
<polygon fill="white" stroke="black" points="72.5,-224.5 72.5,-243.5 134.5,-243.5 134.5,-224.5 72.5,-224.5"/>
<text text-anchor="middle" x="103.5" y="-231.5" font-family="Helvetica,sans-Serif" font-size="10.00">MyArray.h</text>
</a>
</g>
</g>
<!-- Node21&#45;&gt;Node22 -->
<g id="edge25" class="edge">
<title>Node21&#45;&gt;Node22</title>
<path fill="none" stroke="midnightblue" d="M69.27,-280.08C75.06,-272.46 83.56,-261.26 90.64,-251.94"/>
<polygon fill="midnightblue" stroke="midnightblue" points="93.6,-253.83 96.86,-243.75 88.02,-249.6 93.6,-253.83"/>
</g>
<!-- Node22&#45;&gt;Node18 -->
<g id="edge27" class="edge">
<title>Node22&#45;&gt;Node18</title>
<path fill="none" stroke="midnightblue" d="M134.65,-226.36C168.76,-218.71 224.82,-204.96 271.5,-188 291.31,-180.8 295.12,-176.29 314.5,-168 342.1,-156.2 373.9,-143.84 397.06,-135.07"/>
<polygon fill="midnightblue" stroke="midnightblue" points="398.3,-138.35 406.42,-131.55 395.83,-131.8 398.3,-138.35"/>
</g>
<!-- Node23 -->
<g id="node23" class="node">
<title>Node23</title>
<g id="a_node23"><a xlink:title=" ">
<polygon fill="white" stroke="#bfbfbf" points="80.5,-168.5 80.5,-187.5 126.5,-187.5 126.5,-168.5 80.5,-168.5"/>
<text text-anchor="middle" x="103.5" y="-175.5" font-family="Helvetica,sans-Serif" font-size="10.00">cstring</text>
</a>
</g>
</g>
<!-- Node22&#45;&gt;Node23 -->
<g id="edge26" class="edge">
<title>Node22&#45;&gt;Node23</title>
<path fill="none" stroke="midnightblue" d="M103.5,-224.08C103.5,-217.01 103.5,-206.86 103.5,-197.99"/>
<polygon fill="midnightblue" stroke="midnightblue" points="107,-197.75 103.5,-187.75 100,-197.75 107,-197.75"/>
</g>
<!-- Node26 -->
<g id="node26" class="node">
<title>Node26</title>
<g id="a_node26"><a xlink:href="_fluid_synth_8h.html" target="_top" xlink:title="The FluidSynth class specifies an object&#45;oriented wrapper around the fluidsynth library and also allo...">
<polygon fill="white" stroke="black" points="289,-336.5 289,-355.5 360,-355.5 360,-336.5 289,-336.5"/>
<text text-anchor="middle" x="324.5" y="-343.5" font-family="Helvetica,sans-Serif" font-size="10.00">FluidSynth.h</text>
</a>
</g>
</g>
<!-- Node25&#45;&gt;Node26 -->
<g id="edge32" class="edge">
<title>Node25&#45;&gt;Node26</title>
<path fill="none" stroke="midnightblue" d="M309.47,-392.08C311.88,-384.85 315.36,-374.41 318.37,-365.4"/>
<polygon fill="midnightblue" stroke="midnightblue" points="321.74,-366.34 321.58,-355.75 315.1,-364.13 321.74,-366.34"/>
</g>
<!-- Node26&#45;&gt;Node7 -->
<g id="edge34" class="edge">
<title>Node26&#45;&gt;Node7</title>
<path fill="none" stroke="midnightblue" d="M332.26,-336.08C339.04,-328.3 349.04,-316.8 357.26,-307.37"/>
<polygon fill="midnightblue" stroke="midnightblue" points="359.96,-309.59 363.88,-299.75 354.68,-305 359.96,-309.59"/>
</g>
<!-- Node26&#45;&gt;Node18 -->
<g id="edge33" class="edge">
<title>Node26&#45;&gt;Node18</title>
<path fill="none" stroke="midnightblue" d="M322.39,-336.33C317.84,-315.8 308.81,-263.02 325.5,-224 341.98,-185.46 381.04,-154.32 406.32,-137.26"/>
<polygon fill="midnightblue" stroke="midnightblue" points="408.48,-140.03 414.94,-131.63 404.65,-134.17 408.48,-140.03"/>
</g>
<!-- Node27&#45;&gt;Node12 -->
<g id="edge37" class="edge">
<title>Node27&#45;&gt;Node12</title>
<path fill="none" stroke="midnightblue" d="M546.54,-280.44C510.71,-271.14 453.34,-256.25 414.11,-246.06"/>
<polygon fill="midnightblue" stroke="midnightblue" points="414.86,-242.64 404.3,-243.52 413.1,-249.42 414.86,-242.64"/>
</g>
<!-- Node28 -->
<g id="node28" class="node">
<title>Node28</title>
<g id="a_node28"><a xlink:title=" ">
<polygon fill="white" stroke="#bfbfbf" points="470,-224.5 470,-243.5 543,-243.5 543,-224.5 470,-224.5"/>
<text text-anchor="middle" x="506.5" y="-231.5" font-family="Helvetica,sans-Serif" font-size="10.00">initializer_list</text>
</a>
</g>
</g>
<!-- Node27&#45;&gt;Node28 -->
<g id="edge36" class="edge">
<title>Node27&#45;&gt;Node28</title>
<path fill="none" stroke="midnightblue" d="M567.77,-280.32C556.66,-272.11 539.76,-259.6 526.52,-249.81"/>
<polygon fill="midnightblue" stroke="midnightblue" points="528.56,-246.97 518.44,-243.83 524.4,-252.59 528.56,-246.97"/>
</g>
<!-- Node30 -->
<g id="node30" class="node">
<title>Node30</title>
<g id="a_node30"><a xlink:title=" ">
<polygon fill="white" stroke="#bfbfbf" points="686,-336.5 686,-355.5 735,-355.5 735,-336.5 686,-336.5"/>
<text text-anchor="middle" x="710.5" y="-343.5" font-family="Helvetica,sans-Serif" font-size="10.00">cstdarg</text>
</a>
</g>
</g>
<!-- Node29&#45;&gt;Node30 -->
<g id="edge39" class="edge">
<title>Node29&#45;&gt;Node30</title>
<path fill="none" stroke="midnightblue" d="M678.77,-392.08C684.14,-384.46 692.02,-373.26 698.58,-363.94"/>
<polygon fill="midnightblue" stroke="midnightblue" points="701.45,-365.94 704.34,-355.75 695.72,-361.91 701.45,-365.94"/>
</g>
<!-- Node31 -->
<g id="node31" class="node">
<title>Node31</title>
<g id="a_node31"><a xlink:href="_logging_support_8h.html" target="_top" xlink:title="The LoggingSupport specification defines a class for simple entry/exit logging to a file or via an ar...">
<polygon fill="white" stroke="black" points="753.5,-336.5 753.5,-355.5 845.5,-355.5 845.5,-336.5 753.5,-336.5"/>
<text text-anchor="middle" x="799.5" y="-343.5" font-family="Helvetica,sans-Serif" font-size="10.00">LoggingSupport.h</text>
</a>
</g>
</g>
<!-- Node29&#45;&gt;Node31 -->
<g id="edge40" class="edge">
<title>Node29&#45;&gt;Node31</title>
<path fill="none" stroke="midnightblue" d="M692.62,-392.44C713.52,-383.56 746.43,-369.56 770.22,-359.45"/>
<polygon fill="midnightblue" stroke="midnightblue" points="771.64,-362.65 779.47,-355.52 768.9,-356.21 771.64,-362.65"/>
</g>
<!-- Node32 -->
<g id="node32" class="node">
<title>Node32</title>
<g id="a_node32"><a xlink:href="_string_util_8h.html" target="_top" xlink:title="The StringUtil specification defines several string routines not included in the standard C++ library...">
<polygon fill="white" stroke="black" points="603,-336.5 603,-355.5 668,-355.5 668,-336.5 603,-336.5"/>
<text text-anchor="middle" x="635.5" y="-343.5" font-family="Helvetica,sans-Serif" font-size="10.00">StringUtil.h</text>
</a>
</g>
</g>
<!-- Node29&#45;&gt;Node32 -->
<g id="edge43" class="edge">
<title>Node29&#45;&gt;Node32</title>
<path fill="none" stroke="midnightblue" d="M666.39,-392.08C661.22,-384.53 653.65,-373.49 647.31,-364.23"/>
<polygon fill="midnightblue" stroke="midnightblue" points="650.04,-362.02 641.5,-355.75 644.26,-365.98 650.04,-362.02"/>
</g>
<!-- Node31&#45;&gt;Node3 -->
<g id="edge41" class="edge">
<title>Node31&#45;&gt;Node3</title>
<path fill="none" stroke="midnightblue" d="M783.27,-336.32C767.15,-327.7 742.2,-314.36 723.54,-304.39"/>
<polygon fill="midnightblue" stroke="midnightblue" points="725.16,-301.28 714.69,-299.65 721.86,-307.46 725.16,-301.28"/>
</g>
<!-- Node31&#45;&gt;Node18 -->
<g id="edge42" class="edge">
<title>Node31&#45;&gt;Node18</title>
<path fill="none" stroke="midnightblue" d="M792.82,-336.3C770.03,-307.27 691.88,-213.03 604.5,-168 560.59,-145.38 504.49,-133.56 467.81,-127.81"/>
<polygon fill="midnightblue" stroke="midnightblue" points="467.95,-124.3 457.54,-126.28 466.92,-131.22 467.95,-124.3"/>
</g>
<!-- Node32&#45;&gt;Node3 -->
<g id="edge44" class="edge">
<title>Node32&#45;&gt;Node3</title>
<path fill="none" stroke="midnightblue" d="M645.62,-336.32C655.03,-328.26 669.24,-316.08 680.57,-306.37"/>
<polygon fill="midnightblue" stroke="midnightblue" points="682.88,-309 688.19,-299.83 678.32,-303.68 682.88,-309"/>
</g>
<!-- Node32&#45;&gt;Node27 -->
<g id="edge53" class="edge">
<title>Node32&#45;&gt;Node27</title>
<path fill="none" stroke="midnightblue" d="M626.5,-336.32C618.31,-328.42 605.99,-316.55 596.03,-306.94"/>
<polygon fill="midnightblue" stroke="midnightblue" points="598.29,-304.26 588.66,-299.83 593.43,-309.29 598.29,-304.26"/>
</g>
<!-- Node33 -->
<g id="node33" class="node">
<title>Node33</title>
<g id="a_node33"><a xlink:href="_character_8h.html" target="_top" xlink:title="The Character specification and body provides a value object type for character values.">
<polygon fill="white" stroke="black" points="561,-224.5 561,-243.5 628,-243.5 628,-224.5 561,-224.5"/>
<text text-anchor="middle" x="594.5" y="-231.5" font-family="Helvetica,sans-Serif" font-size="10.00">Character.h</text>
</a>
</g>
</g>
<!-- Node32&#45;&gt;Node33 -->
<g id="edge45" class="edge">
<title>Node32&#45;&gt;Node33</title>
<path fill="none" stroke="midnightblue" d="M634.55,-336.32C632.95,-323.61 629.14,-299.32 621.5,-280 617.65,-270.26 611.81,-260.18 606.55,-252.05"/>
<polygon fill="midnightblue" stroke="midnightblue" points="609.28,-249.85 600.78,-243.52 603.48,-253.76 609.28,-249.85"/>
</g>
<!-- Node36 -->
<g id="node36" class="node">
<title>Node36</title>
<g id="a_node36"><a xlink:href="_percentage_8h.html" target="_top" xlink:title="The Percentage specification and body provides a simple percentage type.">
<polygon fill="white" stroke="black" points="454.5,-280.5 454.5,-299.5 528.5,-299.5 528.5,-280.5 454.5,-280.5"/>
<text text-anchor="middle" x="491.5" y="-287.5" font-family="Helvetica,sans-Serif" font-size="10.00">Percentage.h</text>
</a>
</g>
</g>
<!-- Node32&#45;&gt;Node36 -->
<g id="edge51" class="edge">
<title>Node32&#45;&gt;Node36</title>
<path fill="none" stroke="midnightblue" d="M612.68,-336.44C588.67,-327.44 550.67,-313.19 523.63,-303.05"/>
<polygon fill="midnightblue" stroke="midnightblue" points="524.8,-299.75 514.21,-299.52 522.34,-306.3 524.8,-299.75"/>
</g>
<!-- Node33&#45;&gt;Node16 -->
<g id="edge46" class="edge">
<title>Node33&#45;&gt;Node16</title>
<path fill="none" stroke="midnightblue" d="M580.21,-224.44C568.14,-216.47 551.29,-203.52 541.5,-188 521.19,-155.79 513.69,-110.98 510.98,-85.91"/>
<polygon fill="midnightblue" stroke="midnightblue" points="514.43,-85.25 510.02,-75.61 507.46,-85.9 514.43,-85.25"/>
</g>
<!-- Node34 -->
<g id="node34" class="node">
<title>Node34</title>
<g id="a_node34"><a xlink:href="_byte_8h.html" target="_top" xlink:title="The Byte specification and body provides a value object type for byte values.">
<polygon fill="white" stroke="black" points="550,-168.5 550,-187.5 595,-187.5 595,-168.5 550,-168.5"/>
<text text-anchor="middle" x="572.5" y="-175.5" font-family="Helvetica,sans-Serif" font-size="10.00">Byte.h</text>
</a>
</g>
</g>
<!-- Node33&#45;&gt;Node34 -->
<g id="edge47" class="edge">
<title>Node33&#45;&gt;Node34</title>
<path fill="none" stroke="midnightblue" d="M590.87,-224.08C587.89,-216.77 583.57,-206.18 579.88,-197.1"/>
<polygon fill="midnightblue" stroke="midnightblue" points="583.08,-195.69 576.07,-187.75 576.6,-198.33 583.08,-195.69"/>
</g>
<!-- Node34&#45;&gt;Node16 -->
<g id="edge48" class="edge">
<title>Node34&#45;&gt;Node16</title>
<path fill="none" stroke="midnightblue" d="M567.56,-168.37C557.21,-150.3 533.08,-108.18 519.41,-84.31"/>
<polygon fill="midnightblue" stroke="midnightblue" points="522.43,-82.53 514.42,-75.59 516.35,-86.01 522.43,-82.53"/>
</g>
<!-- Node34&#45;&gt;Node18 -->
<g id="edge50" class="edge">
<title>Node34&#45;&gt;Node18</title>
<path fill="none" stroke="midnightblue" d="M549.84,-168.44C526.1,-159.48 488.59,-145.31 461.76,-135.18"/>
<polygon fill="midnightblue" stroke="midnightblue" points="462.64,-131.77 452.05,-131.52 460.17,-138.32 462.64,-131.77"/>
</g>
<!-- Node35 -->
<g id="node35" class="node">
<title>Node35</title>
<g id="a_node35"><a xlink:title=" ">
<polygon fill="white" stroke="#bfbfbf" points="575.5,-112.5 575.5,-131.5 621.5,-131.5 621.5,-112.5 575.5,-112.5"/>
<text text-anchor="middle" x="598.5" y="-119.5" font-family="Helvetica,sans-Serif" font-size="10.00">cstdint</text>
</a>
</g>
</g>
<!-- Node34&#45;&gt;Node35 -->
<g id="edge49" class="edge">
<title>Node34&#45;&gt;Node35</title>
<path fill="none" stroke="midnightblue" d="M576.79,-168.08C580.35,-160.69 585.52,-149.95 589.92,-140.81"/>
<polygon fill="midnightblue" stroke="midnightblue" points="593.1,-142.28 594.29,-131.75 586.79,-139.24 593.1,-142.28"/>
</g>
<!-- Node36&#45;&gt;Node14 -->
<g id="edge52" class="edge">
<title>Node36&#45;&gt;Node14</title>
<path fill="none" stroke="midnightblue" d="M454.28,-281.15C404,-270.54 315.21,-251.81 267.68,-241.79"/>
<polygon fill="midnightblue" stroke="midnightblue" points="268.14,-238.31 257.63,-239.67 266.7,-245.16 268.14,-238.31"/>
</g>
</g>
</svg>
