<?xml version="1.0" encoding="UTF-8" standalone="no"?>
<!DOCTYPE svg PUBLIC "-//W3C//DTD SVG 1.1//EN"
 "http://www.w3.org/Graphics/SVG/1.1/DTD/svg11.dtd">
<!-- Generated by graphviz version 2.47.1 (20210417.1919)
 -->
<!-- Title: FluidSynthPlugin_EditorSupport.cpp Pages: 1 -->
<svg width="1879pt" height="478pt"
 viewBox="0.00 0.00 1879.00 478.00" xmlns="http://www.w3.org/2000/svg" xmlns:xlink="http://www.w3.org/1999/xlink">
<g id="graph0" class="graph" transform="scale(1 1) rotate(0) translate(4 474)">
<title>FluidSynthPlugin_EditorSupport.cpp</title>
<!-- Node1 -->
<g id="Node000001" class="node">
<title>Node1</title>
<g id="a_Node000001"><a xlink:title="The FluidSynthPlugin_EditorSupport module implements support services for the editor of the FluidSynt...">
<polygon fill="#999999" stroke="#666666" points="1577.5,-470 1404.5,-470 1404.5,-451 1577.5,-451 1577.5,-470"/>
<text text-anchor="middle" x="1491" y="-458" font-family="Helvetica,sans-Serif" font-size="10.00">FluidSynthPlugin_EditorSupport.cpp</text>
</a>
</g>
</g>
<!-- Node2 -->
<g id="Node000002" class="node">
<title>Node2</title>
<g id="a_Node000002"><a xlink:href="_juce_headers_8h_source.html" target="_top" xlink:title=" ">
<polygon fill="white" stroke="#666666" points="863.5,-305 782.5,-305 782.5,-286 863.5,-286 863.5,-305"/>
<text text-anchor="middle" x="823" y="-293" font-family="Helvetica,sans-Serif" font-size="10.00">JuceHeaders.h</text>
</a>
</g>
</g>
<!-- Node1&#45;&gt;Node2 -->
<g id="edge1_Node000001_Node000002" class="edge">
<title>Node1&#45;&gt;Node2</title>
<g id="a_edge1_Node000001_Node000002"><a xlink:title=" ">
<path fill="none" stroke="#63b8ff" d="M1404.45,-454.75C1330.84,-449.3 1222.79,-437.96 1131,-415 1023.44,-388.09 902.48,-334.15 849.86,-309.42"/>
<polygon fill="#63b8ff" stroke="#63b8ff" points="851.09,-306.13 840.56,-305.02 848.1,-312.46 851.09,-306.13"/>
</a>
</g>
</g>
<!-- Node13 -->
<g id="Node000013" class="node">
<title>Node13</title>
<g id="a_Node000013"><a xlink:href="_build_information_8h.html" target="_top" xlink:title="The BuildInformation specification defines four functions returning build date and time,...">
<polygon fill="white" stroke="#666666" points="1434,-415 1340,-415 1340,-396 1434,-396 1434,-415"/>
<text text-anchor="middle" x="1387" y="-403" font-family="Helvetica,sans-Serif" font-size="10.00">BuildInformation.h</text>
</a>
</g>
</g>
<!-- Node1&#45;&gt;Node13 -->
<g id="edge12_Node000001_Node000013" class="edge">
<title>Node1&#45;&gt;Node13</title>
<g id="a_edge12_Node000001_Node000013"><a xlink:title=" ">
<path fill="none" stroke="#63b8ff" d="M1474.29,-450.98C1457.79,-442.57 1432.3,-429.59 1413.12,-419.81"/>
<polygon fill="#63b8ff" stroke="#63b8ff" points="1414.51,-416.59 1404.01,-415.17 1411.33,-422.83 1414.51,-416.59"/>
</a>
</g>
</g>
<!-- Node18 -->
<g id="Node000018" class="node">
<title>Node18</title>
<g id="a_Node000018"><a xlink:title=" ">
<polygon fill="#e0e0e0" stroke="#999999" points="1654.5,-415 1577.5,-415 1577.5,-396 1654.5,-396 1654.5,-415"/>
<text text-anchor="middle" x="1616" y="-403" font-family="Helvetica,sans-Serif" font-size="10.00">GenericMap.h</text>
</a>
</g>
</g>
<!-- Node1&#45;&gt;Node18 -->
<g id="edge17_Node000001_Node000018" class="edge">
<title>Node1&#45;&gt;Node18</title>
<g id="a_edge17_Node000001_Node000018"><a xlink:title=" ">
<path fill="none" stroke="#63b8ff" d="M1511.08,-450.98C1531.37,-442.38 1562.96,-428.99 1586.17,-419.15"/>
<polygon fill="#63b8ff" stroke="#63b8ff" points="1587.71,-422.3 1595.55,-415.17 1584.98,-415.85 1587.71,-422.3"/>
</a>
</g>
</g>
<!-- Node19 -->
<g id="Node000019" class="node">
<title>Node19</title>
<g id="a_Node000019"><a xlink:href="_logging_8h.html" target="_top" xlink:title="The Logging specification defines macros for entry&#45;, exit&#45; and intermediate logging of functions into...">
<polygon fill="white" stroke="#666666" points="1520.5,-415 1461.5,-415 1461.5,-396 1520.5,-396 1520.5,-415"/>
<text text-anchor="middle" x="1491" y="-403" font-family="Helvetica,sans-Serif" font-size="10.00">Logging.h</text>
</a>
</g>
</g>
<!-- Node1&#45;&gt;Node19 -->
<g id="edge18_Node000001_Node000019" class="edge">
<title>Node1&#45;&gt;Node19</title>
<g id="a_edge18_Node000001_Node000019"><a xlink:title=" ">
<path fill="none" stroke="#63b8ff" d="M1491,-450.75C1491,-443.8 1491,-433.85 1491,-425.13"/>
<polygon fill="#63b8ff" stroke="#63b8ff" points="1494.5,-425.09 1491,-415.09 1487.5,-425.09 1494.5,-425.09"/>
</a>
</g>
</g>
<!-- Node38 -->
<g id="Node000038" class="node">
<title>Node38</title>
<g id="a_Node000038"><a xlink:href="_natural_list_8h.html" target="_top" xlink:title="The NaturalList specification defines lists of non&#45;negative integer values with zero&#45;based arbitrary ...">
<polygon fill="white" stroke="#666666" points="1711.5,-360 1640.5,-360 1640.5,-341 1711.5,-341 1711.5,-360"/>
<text text-anchor="middle" x="1676" y="-348" font-family="Helvetica,sans-Serif" font-size="10.00">NaturalList.h</text>
</a>
</g>
</g>
<!-- Node1&#45;&gt;Node38 -->
<g id="edge47_Node000001_Node000038" class="edge">
<title>Node1&#45;&gt;Node38</title>
<g id="a_edge47_Node000001_Node000038"><a xlink:title=" ">
<path fill="none" stroke="#63b8ff" d="M1499.95,-450.74C1513.81,-437.52 1541.72,-412.3 1569,-396 1591.36,-382.63 1618.48,-371.4 1639.82,-363.57"/>
<polygon fill="#63b8ff" stroke="#63b8ff" points="1641.25,-366.78 1649.48,-360.11 1638.89,-360.19 1641.25,-366.78"/>
</a>
</g>
</g>
<!-- Node39 -->
<g id="Node000039" class="node">
<title>Node39</title>
<g id="a_Node000039"><a xlink:href="_natural_set_8h.html" target="_top" xlink:title="The NaturalSet specification defines sets of natural values with no duplicates and only simple contai...">
<polygon fill="white" stroke="#666666" points="1761.5,-415 1690.5,-415 1690.5,-396 1761.5,-396 1761.5,-415"/>
<text text-anchor="middle" x="1726" y="-403" font-family="Helvetica,sans-Serif" font-size="10.00">NaturalSet.h</text>
</a>
</g>
</g>
<!-- Node1&#45;&gt;Node39 -->
<g id="edge49_Node000001_Node000039" class="edge">
<title>Node1&#45;&gt;Node39</title>
<g id="a_edge49_Node000001_Node000039"><a xlink:title=" ">
<path fill="none" stroke="#63b8ff" d="M1528.76,-450.98C1570.04,-441.67 1636.2,-426.75 1680.36,-416.79"/>
<polygon fill="#63b8ff" stroke="#63b8ff" points="1681.28,-420.17 1690.26,-414.56 1679.74,-413.35 1681.28,-420.17"/>
</a>
</g>
</g>
<!-- Node41 -->
<g id="Node000041" class="node">
<title>Node41</title>
<g id="a_Node000041"><a xlink:href="_fluid_synth_plugin___editor_support_8h.html" target="_top" xlink:title="The FluidSynthPlugin_EditorSupport specification defines support services for the editor of the Fluid...">
<polygon fill="white" stroke="#666666" points="1303.5,-415 1140.5,-415 1140.5,-396 1303.5,-396 1303.5,-415"/>
<text text-anchor="middle" x="1222" y="-403" font-family="Helvetica,sans-Serif" font-size="10.00">FluidSynthPlugin_EditorSupport.h</text>
</a>
</g>
</g>
<!-- Node1&#45;&gt;Node41 -->
<g id="edge51_Node000001_Node000041" class="edge">
<title>Node1&#45;&gt;Node41</title>
<g id="a_edge51_Node000001_Node000041"><a xlink:title=" ">
<path fill="none" stroke="#63b8ff" d="M1447.78,-450.98C1400.96,-441.76 1326.19,-427.03 1275.64,-417.07"/>
<polygon fill="#63b8ff" stroke="#63b8ff" points="1276.05,-413.58 1265.56,-415.08 1274.69,-420.45 1276.05,-413.58"/>
</a>
</g>
</g>
<!-- Node3 -->
<g id="Node000003" class="node">
<title>Node3</title>
<g id="a_Node000003"><a xlink:title=" ">
<polygon fill="#e0e0e0" stroke="#999999" points="1319,-250 1201,-250 1201,-220 1319,-220 1319,-250"/>
<text text-anchor="start" x="1209" y="-238" font-family="Helvetica,sans-Serif" font-size="10.00">juce_audio_basics/juce</text>
<text text-anchor="middle" x="1260" y="-227" font-family="Helvetica,sans-Serif" font-size="10.00">_audio_basics.h</text>
</a>
</g>
</g>
<!-- Node2&#45;&gt;Node3 -->
<g id="edge2_Node000002_Node000003" class="edge">
<title>Node2&#45;&gt;Node3</title>
<g id="a_edge2_Node000002_Node000003"><a xlink:title=" ">
<path fill="none" stroke="#63b8ff" d="M863.72,-290.65C931.74,-283.98 1072.68,-269.13 1191,-250 1191.1,-249.98 1191.2,-249.97 1191.31,-249.95"/>
<polygon fill="#63b8ff" stroke="#63b8ff" points="1191.69,-253.44 1200.96,-248.3 1190.52,-246.53 1191.69,-253.44"/>
</a>
</g>
</g>
<!-- Node4 -->
<g id="Node000004" class="node">
<title>Node4</title>
<g id="a_Node000004"><a xlink:title=" ">
<polygon fill="#e0e0e0" stroke="#999999" points="134,-250 0,-250 0,-220 134,-220 134,-250"/>
<text text-anchor="start" x="8" y="-238" font-family="Helvetica,sans-Serif" font-size="10.00">juce_audio_plugin_client</text>
<text text-anchor="middle" x="67" y="-227" font-family="Helvetica,sans-Serif" font-size="10.00">/juce_audio_plugin_client.h</text>
</a>
</g>
</g>
<!-- Node2&#45;&gt;Node4 -->
<g id="edge3_Node000002_Node000004" class="edge">
<title>Node2&#45;&gt;Node4</title>
<g id="a_edge3_Node000002_Node000004"><a xlink:title=" ">
<path fill="none" stroke="#63b8ff" d="M782.22,-293.49C677.81,-290.56 392.22,-280.3 144.36,-250.06"/>
<polygon fill="#63b8ff" stroke="#63b8ff" points="144.42,-246.55 134.07,-248.79 143.57,-253.49 144.42,-246.55"/>
</a>
</g>
</g>
<!-- Node5 -->
<g id="Node000005" class="node">
<title>Node5</title>
<g id="a_Node000005"><a xlink:title=" ">
<polygon fill="#e0e0e0" stroke="#999999" points="280,-250 152,-250 152,-220 280,-220 280,-250"/>
<text text-anchor="start" x="160" y="-238" font-family="Helvetica,sans-Serif" font-size="10.00">juce_audio_processors</text>
<text text-anchor="middle" x="216" y="-227" font-family="Helvetica,sans-Serif" font-size="10.00">/juce_audio_processors.h</text>
</a>
</g>
</g>
<!-- Node2&#45;&gt;Node5 -->
<g id="edge4_Node000002_Node000005" class="edge">
<title>Node2&#45;&gt;Node5</title>
<g id="a_edge4_Node000002_Node000005"><a xlink:title=" ">
<path fill="none" stroke="#63b8ff" d="M782.31,-292.59C694.37,-288.14 479.9,-275.58 290.19,-250.06"/>
<polygon fill="#63b8ff" stroke="#63b8ff" points="290.41,-246.56 280.03,-248.68 289.47,-253.5 290.41,-246.56"/>
</a>
</g>
</g>
<!-- Node6 -->
<g id="Node000006" class="node">
<title>Node6</title>
<g id="a_Node000006"><a xlink:title=" ">
<polygon fill="#e0e0e0" stroke="#999999" points="405.5,-250 298.5,-250 298.5,-220 405.5,-220 405.5,-250"/>
<text text-anchor="start" x="306.5" y="-238" font-family="Helvetica,sans-Serif" font-size="10.00">juce_audio_utils/juce</text>
<text text-anchor="middle" x="352" y="-227" font-family="Helvetica,sans-Serif" font-size="10.00">_audio_utils.h</text>
</a>
</g>
</g>
<!-- Node2&#45;&gt;Node6 -->
<g id="edge5_Node000002_Node000006" class="edge">
<title>Node2&#45;&gt;Node6</title>
<g id="a_edge5_Node000002_Node000006"><a xlink:title=" ">
<path fill="none" stroke="#63b8ff" d="M782.26,-291.55C710.34,-286.02 556.03,-272.7 415.62,-249.97"/>
<polygon fill="#63b8ff" stroke="#63b8ff" points="415.97,-246.48 405.54,-248.32 414.84,-253.39 415.97,-246.48"/>
</a>
</g>
</g>
<!-- Node7 -->
<g id="Node000007" class="node">
<title>Node7</title>
<g id="a_Node000007"><a xlink:title=" ">
<polygon fill="#e0e0e0" stroke="#999999" points="536,-244.5 424,-244.5 424,-225.5 536,-225.5 536,-244.5"/>
<text text-anchor="middle" x="480" y="-232.5" font-family="Helvetica,sans-Serif" font-size="10.00">juce_core/juce_core.h</text>
</a>
</g>
</g>
<!-- Node2&#45;&gt;Node7 -->
<g id="edge6_Node000002_Node000007" class="edge">
<title>Node2&#45;&gt;Node7</title>
<g id="a_edge6_Node000002_Node000007"><a xlink:title=" ">
<path fill="none" stroke="#63b8ff" d="M782.37,-288.69C728.11,-280.77 629.07,-265.77 545,-250 539.54,-248.98 533.84,-247.84 528.17,-246.68"/>
<polygon fill="#63b8ff" stroke="#63b8ff" points="528.59,-243.19 518.08,-244.56 527.15,-250.04 528.59,-243.19"/>
</a>
</g>
</g>
<!-- Node8 -->
<g id="Node000008" class="node">
<title>Node8</title>
<g id="a_Node000008"><a xlink:title=" ">
<polygon fill="#e0e0e0" stroke="#999999" points="673.5,-250 554.5,-250 554.5,-220 673.5,-220 673.5,-250"/>
<text text-anchor="start" x="562.5" y="-238" font-family="Helvetica,sans-Serif" font-size="10.00">juce_data_structures</text>
<text text-anchor="middle" x="614" y="-227" font-family="Helvetica,sans-Serif" font-size="10.00">/juce_data_structures.h</text>
</a>
</g>
</g>
<!-- Node2&#45;&gt;Node8 -->
<g id="edge7_Node000002_Node000008" class="edge">
<title>Node2&#45;&gt;Node8</title>
<g id="a_edge7_Node000002_Node000008"><a xlink:title=" ">
<path fill="none" stroke="#63b8ff" d="M792.61,-285.99C761.61,-277.32 712.69,-263.62 673.88,-252.76"/>
<polygon fill="#63b8ff" stroke="#63b8ff" points="674.82,-249.39 664.25,-250.06 672.93,-256.13 674.82,-249.39"/>
</a>
</g>
</g>
<!-- Node9 -->
<g id="Node000009" class="node">
<title>Node9</title>
<g id="a_Node000009"><a xlink:title=" ">
<polygon fill="#e0e0e0" stroke="#999999" points="822,-244.5 692,-244.5 692,-225.5 822,-225.5 822,-244.5"/>
<text text-anchor="middle" x="757" y="-232.5" font-family="Helvetica,sans-Serif" font-size="10.00">juce_events/juce_events.h</text>
</a>
</g>
</g>
<!-- Node2&#45;&gt;Node9 -->
<g id="edge8_Node000002_Node000009" class="edge">
<title>Node2&#45;&gt;Node9</title>
<g id="a_edge8_Node000002_Node000009"><a xlink:title=" ">
<path fill="none" stroke="#63b8ff" d="M813.26,-285.87C803.03,-276.8 786.71,-262.34 774.28,-251.32"/>
<polygon fill="#63b8ff" stroke="#63b8ff" points="776.58,-248.68 766.78,-244.67 771.94,-253.92 776.58,-248.68"/>
</a>
</g>
</g>
<!-- Node10 -->
<g id="Node000010" class="node">
<title>Node10</title>
<g id="a_Node000010"><a xlink:title=" ">
<polygon fill="#e0e0e0" stroke="#999999" points="938,-250 840,-250 840,-220 938,-220 938,-250"/>
<text text-anchor="start" x="848" y="-238" font-family="Helvetica,sans-Serif" font-size="10.00">juce_graphics/juce</text>
<text text-anchor="middle" x="889" y="-227" font-family="Helvetica,sans-Serif" font-size="10.00">_graphics.h</text>
</a>
</g>
</g>
<!-- Node2&#45;&gt;Node10 -->
<g id="edge9_Node000002_Node000010" class="edge">
<title>Node2&#45;&gt;Node10</title>
<g id="a_edge9_Node000002_Node000010"><a xlink:title=" ">
<path fill="none" stroke="#63b8ff" d="M832.74,-285.87C841.36,-278.22 854.3,-266.76 865.59,-256.75"/>
<polygon fill="#63b8ff" stroke="#63b8ff" points="867.91,-259.37 873.08,-250.11 863.27,-254.13 867.91,-259.37"/>
</a>
</g>
</g>
<!-- Node11 -->
<g id="Node000011" class="node">
<title>Node11</title>
<g id="a_Node000011"><a xlink:title=" ">
<polygon fill="#e0e0e0" stroke="#999999" points="1063.5,-250 956.5,-250 956.5,-220 1063.5,-220 1063.5,-250"/>
<text text-anchor="start" x="964.5" y="-238" font-family="Helvetica,sans-Serif" font-size="10.00">juce_gui_basics/juce</text>
<text text-anchor="middle" x="1010" y="-227" font-family="Helvetica,sans-Serif" font-size="10.00">_gui_basics.h</text>
</a>
</g>
</g>
<!-- Node2&#45;&gt;Node11 -->
<g id="edge10_Node000002_Node000011" class="edge">
<title>Node2&#45;&gt;Node11</title>
<g id="a_edge10_Node000002_Node000011"><a xlink:title=" ">
<path fill="none" stroke="#63b8ff" d="M850.19,-285.99C877.57,-277.43 920.59,-263.97 955.1,-253.18"/>
<polygon fill="#63b8ff" stroke="#63b8ff" points="956.54,-256.39 965.04,-250.06 954.45,-249.71 956.54,-256.39"/>
</a>
</g>
</g>
<!-- Node12 -->
<g id="Node000012" class="node">
<title>Node12</title>
<g id="a_Node000012"><a xlink:title=" ">
<polygon fill="#e0e0e0" stroke="#999999" points="1182.5,-250 1081.5,-250 1081.5,-220 1182.5,-220 1182.5,-250"/>
<text text-anchor="start" x="1089.5" y="-238" font-family="Helvetica,sans-Serif" font-size="10.00">juce_gui_extra/juce</text>
<text text-anchor="middle" x="1132" y="-227" font-family="Helvetica,sans-Serif" font-size="10.00">_gui_extra.h</text>
</a>
</g>
</g>
<!-- Node2&#45;&gt;Node12 -->
<g id="edge11_Node000002_Node000012" class="edge">
<title>Node2&#45;&gt;Node12</title>
<g id="a_edge11_Node000002_Node000012"><a xlink:title=" ">
<path fill="none" stroke="#63b8ff" d="M863.67,-287.9C911.04,-280.07 991.9,-266.25 1071.15,-250.11"/>
<polygon fill="#63b8ff" stroke="#63b8ff" points="1072.21,-253.46 1081.3,-248.03 1070.8,-246.61 1072.21,-253.46"/>
</a>
</g>
</g>
<!-- Node14 -->
<g id="Node000014" class="node">
<title>Node14</title>
<g id="a_Node000014"><a xlink:href="_boolean_8h.html" target="_top" xlink:title="The Boolean specification and body provides a value object type for boolean values.">
<polygon fill="white" stroke="#666666" points="1435,-244.5 1375,-244.5 1375,-225.5 1435,-225.5 1435,-244.5"/>
<text text-anchor="middle" x="1405" y="-232.5" font-family="Helvetica,sans-Serif" font-size="10.00">Boolean.h</text>
</a>
</g>
</g>
<!-- Node13&#45;&gt;Node14 -->
<g id="edge13_Node000013_Node000014" class="edge">
<title>Node13&#45;&gt;Node14</title>
<g id="a_edge13_Node000013_Node000014"><a xlink:title=" ">
<path fill="none" stroke="#63b8ff" d="M1380.18,-395.93C1365.28,-376.07 1332.47,-325.62 1350,-286 1356.55,-271.19 1369.9,-258.88 1381.81,-250.18"/>
<polygon fill="#63b8ff" stroke="#63b8ff" points="1383.83,-253.04 1390.11,-244.5 1379.88,-247.26 1383.83,-253.04"/>
</a>
</g>
</g>
<!-- Node15 -->
<g id="Node000015" class="node">
<title>Node15</title>
<g id="a_Node000015"><a xlink:href="_my_string_8h.html" target="_top" xlink:title="The String specification defines a standard string type.">
<polygon fill="white" stroke="#666666" points="1568,-74 1504,-74 1504,-55 1568,-55 1568,-74"/>
<text text-anchor="middle" x="1536" y="-62" font-family="Helvetica,sans-Serif" font-size="10.00">MyString.h</text>
</a>
</g>
</g>
<!-- Node14&#45;&gt;Node15 -->
<g id="edge14_Node000014_Node000015" class="edge">
<title>Node14&#45;&gt;Node15</title>
<g id="a_edge14_Node000014_Node000015"><a xlink:title=" ">
<path fill="none" stroke="#63b8ff" d="M1409.36,-225.13C1416.16,-211.62 1430.09,-185.32 1445,-165 1468.27,-133.29 1500.19,-100.35 1519.38,-81.45"/>
<polygon fill="#63b8ff" stroke="#63b8ff" points="1522.05,-83.74 1526.77,-74.25 1517.16,-78.73 1522.05,-83.74"/>
</a>
</g>
</g>
<!-- Node16 -->
<g id="Node000016" class="node">
<title>Node16</title>
<g id="a_Node000016"><a xlink:title=" ">
<polygon fill="#e0e0e0" stroke="#999999" points="1480.5,-19 1439.5,-19 1439.5,0 1480.5,0 1480.5,-19"/>
<text text-anchor="middle" x="1460" y="-7" font-family="Helvetica,sans-Serif" font-size="10.00">string</text>
</a>
</g>
</g>
<!-- Node15&#45;&gt;Node16 -->
<g id="edge15_Node000015_Node000016" class="edge">
<title>Node15&#45;&gt;Node16</title>
<g id="a_edge15_Node000015_Node000016"><a xlink:title=" ">
<path fill="none" stroke="#63b8ff" d="M1523.79,-54.98C1512.22,-46.92 1494.62,-34.65 1480.84,-25.03"/>
<polygon fill="#63b8ff" stroke="#63b8ff" points="1482.64,-22.02 1472.43,-19.17 1478.63,-27.76 1482.64,-22.02"/>
</a>
</g>
</g>
<!-- Node17 -->
<g id="Node000017" class="node">
<title>Node17</title>
<g id="a_Node000017"><a xlink:href="_global_macros_8h.html" target="_top" xlink:title="The GlobalMacros specification defines simple macros (e.g. for parameter modes).">
<polygon fill="white" stroke="#666666" points="1583.5,-19 1498.5,-19 1498.5,0 1583.5,0 1583.5,-19"/>
<text text-anchor="middle" x="1541" y="-7" font-family="Helvetica,sans-Serif" font-size="10.00">GlobalMacros.h</text>
</a>
</g>
</g>
<!-- Node15&#45;&gt;Node17 -->
<g id="edge16_Node000015_Node000017" class="edge">
<title>Node15&#45;&gt;Node17</title>
<g id="a_edge16_Node000015_Node000017"><a xlink:title=" ">
<path fill="none" stroke="#63b8ff" d="M1536.83,-54.75C1537.48,-47.8 1538.42,-37.85 1539.24,-29.13"/>
<polygon fill="#63b8ff" stroke="#63b8ff" points="1542.73,-29.37 1540.19,-19.09 1535.77,-28.72 1542.73,-29.37"/>
</a>
</g>
</g>
<!-- Node20 -->
<g id="Node000020" class="node">
<title>Node20</title>
<g id="a_Node000020"><a xlink:title=" ">
<polygon fill="#e0e0e0" stroke="#999999" points="1622.5,-360 1573.5,-360 1573.5,-341 1622.5,-341 1622.5,-360"/>
<text text-anchor="middle" x="1598" y="-348" font-family="Helvetica,sans-Serif" font-size="10.00">cstdarg</text>
</a>
</g>
</g>
<!-- Node19&#45;&gt;Node20 -->
<g id="edge19_Node000019_Node000020" class="edge">
<title>Node19&#45;&gt;Node20</title>
<g id="a_edge19_Node000019_Node000020"><a xlink:title=" ">
<path fill="none" stroke="#63b8ff" d="M1508.19,-395.98C1525.25,-387.54 1551.63,-374.47 1571.4,-364.68"/>
<polygon fill="#63b8ff" stroke="#63b8ff" points="1573.09,-367.75 1580.5,-360.17 1569.98,-361.47 1573.09,-367.75"/>
</a>
</g>
</g>
<!-- Node21 -->
<g id="Node000021" class="node">
<title>Node21</title>
<g id="a_Node000021"><a xlink:href="_logging_support_8h.html" target="_top" xlink:title="The LoggingSupport specification defines a class for simple entry/exit logging to a file or via an ar...">
<polygon fill="white" stroke="#666666" points="1451,-305 1359,-305 1359,-286 1451,-286 1451,-305"/>
<text text-anchor="middle" x="1405" y="-293" font-family="Helvetica,sans-Serif" font-size="10.00">LoggingSupport.h</text>
</a>
</g>
</g>
<!-- Node19&#45;&gt;Node21 -->
<g id="edge20_Node000019_Node000021" class="edge">
<title>Node19&#45;&gt;Node21</title>
<g id="a_edge20_Node000019_Node000021"><a xlink:title=" ">
<path fill="none" stroke="#63b8ff" d="M1483.96,-395.66C1469.59,-377.61 1436.67,-336.28 1418.2,-313.08"/>
<polygon fill="#63b8ff" stroke="#63b8ff" points="1420.86,-310.8 1411.89,-305.16 1415.39,-315.16 1420.86,-310.8"/>
</a>
</g>
</g>
<!-- Node27 -->
<g id="Node000027" class="node">
<title>Node27</title>
<g id="a_Node000027"><a xlink:href="_string_util_8h.html" target="_top" xlink:title="The StringUtil specification defines several string routines not included in the standard C++ library...">
<polygon fill="white" stroke="#666666" points="1555.5,-360 1490.5,-360 1490.5,-341 1555.5,-341 1555.5,-360"/>
<text text-anchor="middle" x="1523" y="-348" font-family="Helvetica,sans-Serif" font-size="10.00">StringUtil.h</text>
</a>
</g>
</g>
<!-- Node19&#45;&gt;Node27 -->
<g id="edge29_Node000019_Node000027" class="edge">
<title>Node19&#45;&gt;Node27</title>
<g id="a_edge29_Node000019_Node000027"><a xlink:title=" ">
<path fill="none" stroke="#63b8ff" d="M1496.28,-395.75C1500.71,-388.42 1507.16,-377.73 1512.62,-368.7"/>
<polygon fill="#63b8ff" stroke="#63b8ff" points="1515.64,-370.46 1517.81,-360.09 1509.65,-366.84 1515.64,-370.46"/>
</a>
</g>
</g>
<!-- Node21&#45;&gt;Node14 -->
<g id="edge21_Node000021_Node000014" class="edge">
<title>Node21&#45;&gt;Node14</title>
<g id="a_edge21_Node000021_Node000014"><a xlink:title=" ">
<path fill="none" stroke="#63b8ff" d="M1405,-285.87C1405,-277.75 1405,-265.31 1405,-254.89"/>
<polygon fill="#63b8ff" stroke="#63b8ff" points="1408.5,-254.67 1405,-244.67 1401.5,-254.67 1408.5,-254.67"/>
</a>
</g>
</g>
<!-- Node22 -->
<g id="Node000022" class="node">
<title>Node22</title>
<g id="a_Node000022"><a xlink:href="_natural_8h.html" target="_top" xlink:title="The Natural specification and body provides a value object type for naturals (positive integers with ...">
<polygon fill="white" stroke="#666666" points="1564,-129 1508,-129 1508,-110 1564,-110 1564,-129"/>
<text text-anchor="middle" x="1536" y="-117" font-family="Helvetica,sans-Serif" font-size="10.00">Natural.h</text>
</a>
</g>
</g>
<!-- Node21&#45;&gt;Node22 -->
<g id="edge22_Node000021_Node000022" class="edge">
<title>Node21&#45;&gt;Node22</title>
<g id="a_edge22_Node000021_Node000022"><a xlink:title=" ">
<path fill="none" stroke="#63b8ff" d="M1451.26,-286.76C1473.82,-280.58 1499.39,-269.56 1515,-250 1540.61,-217.91 1540.57,-166.81 1538.3,-139.38"/>
<polygon fill="#63b8ff" stroke="#63b8ff" points="1541.76,-138.79 1537.26,-129.19 1534.79,-139.5 1541.76,-138.79"/>
</a>
</g>
</g>
<!-- Node22&#45;&gt;Node15 -->
<g id="edge28_Node000022_Node000015" class="edge">
<title>Node22&#45;&gt;Node15</title>
<g id="a_edge28_Node000022_Node000015"><a xlink:title=" ">
<path fill="none" stroke="#63b8ff" d="M1536,-109.75C1536,-102.8 1536,-92.85 1536,-84.13"/>
<polygon fill="#63b8ff" stroke="#63b8ff" points="1539.5,-84.09 1536,-74.09 1532.5,-84.09 1539.5,-84.09"/>
</a>
</g>
</g>
<!-- Node23 -->
<g id="Node000023" class="node">
<title>Node23</title>
<g id="a_Node000023"><a xlink:title=" ">
<polygon fill="#e0e0e0" stroke="#999999" points="1740,-74 1696,-74 1696,-55 1740,-55 1740,-74"/>
<text text-anchor="middle" x="1718" y="-62" font-family="Helvetica,sans-Serif" font-size="10.00">cmath</text>
</a>
</g>
</g>
<!-- Node22&#45;&gt;Node23 -->
<g id="edge23_Node000022_Node000023" class="edge">
<title>Node22&#45;&gt;Node23</title>
<g id="a_edge23_Node000022_Node000023"><a xlink:title=" ">
<path fill="none" stroke="#63b8ff" d="M1564.04,-110.33C1596.93,-100.76 1651.35,-84.91 1685.9,-74.85"/>
<polygon fill="#63b8ff" stroke="#63b8ff" points="1687.32,-78.08 1695.94,-71.92 1685.36,-71.36 1687.32,-78.08"/>
</a>
</g>
</g>
<!-- Node24 -->
<g id="Node000024" class="node">
<title>Node24</title>
<g id="a_Node000024"><a xlink:href="_assertion_8h.html" target="_top" xlink:title="The Assertion specification defines macros for pre&#45; and postconditions in functions or methods.">
<polygon fill="white" stroke="#666666" points="1486,-74 1420,-74 1420,-55 1486,-55 1486,-74"/>
<text text-anchor="middle" x="1453" y="-62" font-family="Helvetica,sans-Serif" font-size="10.00">Assertion.h</text>
</a>
</g>
</g>
<!-- Node22&#45;&gt;Node24 -->
<g id="edge24_Node000022_Node000024" class="edge">
<title>Node22&#45;&gt;Node24</title>
<g id="a_edge24_Node000022_Node000024"><a xlink:title=" ">
<path fill="none" stroke="#63b8ff" d="M1522.66,-109.98C1509.91,-101.84 1490.45,-89.41 1475.33,-79.76"/>
<polygon fill="#63b8ff" stroke="#63b8ff" points="1476.89,-76.6 1466.58,-74.17 1473.12,-82.5 1476.89,-76.6"/>
</a>
</g>
</g>
<!-- Node26 -->
<g id="Node000026" class="node">
<title>Node26</title>
<g id="a_Node000026"><a xlink:title=" ">
<polygon fill="#e0e0e0" stroke="#999999" points="1678,-74 1586,-74 1586,-55 1678,-55 1678,-74"/>
<text text-anchor="middle" x="1632" y="-62" font-family="Helvetica,sans-Serif" font-size="10.00">GenericNumber.h</text>
</a>
</g>
</g>
<!-- Node22&#45;&gt;Node26 -->
<g id="edge27_Node000022_Node000026" class="edge">
<title>Node22&#45;&gt;Node26</title>
<g id="a_edge27_Node000022_Node000026"><a xlink:title=" ">
<path fill="none" stroke="#63b8ff" d="M1551.42,-109.98C1566.45,-101.69 1589.54,-88.94 1607.16,-79.22"/>
<polygon fill="#63b8ff" stroke="#63b8ff" points="1609.23,-82.07 1616.3,-74.17 1605.85,-75.94 1609.23,-82.07"/>
</a>
</g>
</g>
<!-- Node24&#45;&gt;Node16 -->
<g id="edge26_Node000024_Node000016" class="edge">
<title>Node24&#45;&gt;Node16</title>
<g id="a_edge26_Node000024_Node000016"><a xlink:title=" ">
<path fill="none" stroke="#63b8ff" d="M1454.16,-54.75C1455.07,-47.8 1456.39,-37.85 1457.54,-29.13"/>
<polygon fill="#63b8ff" stroke="#63b8ff" points="1461.03,-29.46 1458.87,-19.09 1454.09,-28.54 1461.03,-29.46"/>
</a>
</g>
</g>
<!-- Node25 -->
<g id="Node000025" class="node">
<title>Node25</title>
<g id="a_Node000025"><a xlink:title=" ">
<polygon fill="#e0e0e0" stroke="#999999" points="1421.5,-19 1362.5,-19 1362.5,0 1421.5,0 1421.5,-19"/>
<text text-anchor="middle" x="1392" y="-7" font-family="Helvetica,sans-Serif" font-size="10.00">stdexcept</text>
</a>
</g>
</g>
<!-- Node24&#45;&gt;Node25 -->
<g id="edge25_Node000024_Node000025" class="edge">
<title>Node24&#45;&gt;Node25</title>
<g id="a_edge25_Node000024_Node000025"><a xlink:title=" ">
<path fill="none" stroke="#63b8ff" d="M1443.2,-54.98C1434.18,-47.15 1420.59,-35.34 1409.68,-25.86"/>
<polygon fill="#63b8ff" stroke="#63b8ff" points="1411.82,-23.09 1401.98,-19.17 1407.23,-28.37 1411.82,-23.09"/>
</a>
</g>
</g>
<!-- Node27&#45;&gt;Node14 -->
<g id="edge30_Node000027_Node000014" class="edge">
<title>Node27&#45;&gt;Node14</title>
<g id="a_edge30_Node000027_Node000014"><a xlink:title=" ">
<path fill="none" stroke="#63b8ff" d="M1527.68,-340.85C1534.05,-327.78 1543.41,-302.75 1532,-286 1526.56,-278.01 1476.47,-259.9 1440.85,-247.81"/>
<polygon fill="#63b8ff" stroke="#63b8ff" points="1441.83,-244.44 1431.23,-244.57 1439.59,-251.08 1441.83,-244.44"/>
</a>
</g>
</g>
<!-- Node28 -->
<g id="Node000028" class="node">
<title>Node28</title>
<g id="a_Node000028"><a xlink:href="_character_8h.html" target="_top" xlink:title="The Character specification and body provides a value object type for character values.">
<polygon fill="white" stroke="#666666" points="1687.5,-244.5 1620.5,-244.5 1620.5,-225.5 1687.5,-225.5 1687.5,-244.5"/>
<text text-anchor="middle" x="1654" y="-232.5" font-family="Helvetica,sans-Serif" font-size="10.00">Character.h</text>
</a>
</g>
</g>
<!-- Node27&#45;&gt;Node28 -->
<g id="edge31_Node000027_Node000028" class="edge">
<title>Node27&#45;&gt;Node28</title>
<g id="a_edge31_Node000027_Node000028"><a xlink:title=" ">
<path fill="none" stroke="#63b8ff" d="M1555.66,-341.2C1594.69,-330.96 1655.56,-313.83 1662,-305 1672.74,-290.28 1668.02,-268.89 1662.34,-253.84"/>
<polygon fill="#63b8ff" stroke="#63b8ff" points="1665.55,-252.44 1658.43,-244.59 1659.1,-255.17 1665.55,-252.44"/>
</a>
</g>
</g>
<!-- Node31 -->
<g id="Node000031" class="node">
<title>Node31</title>
<g id="a_Node000031"><a xlink:href="_object_8h.html" target="_top" xlink:title="The Object specification and body provides the root object type.">
<polygon fill="white" stroke="#666666" points="1522.5,-305 1469.5,-305 1469.5,-286 1522.5,-286 1522.5,-305"/>
<text text-anchor="middle" x="1496" y="-293" font-family="Helvetica,sans-Serif" font-size="10.00">Object.h</text>
</a>
</g>
</g>
<!-- Node27&#45;&gt;Node31 -->
<g id="edge37_Node000027_Node000031" class="edge">
<title>Node27&#45;&gt;Node31</title>
<g id="a_edge37_Node000027_Node000031"><a xlink:title=" ">
<path fill="none" stroke="#63b8ff" d="M1518.54,-340.75C1514.88,-333.57 1509.59,-323.18 1505.05,-314.27"/>
<polygon fill="#63b8ff" stroke="#63b8ff" points="1508.03,-312.41 1500.38,-305.09 1501.8,-315.59 1508.03,-312.41"/>
</a>
</g>
</g>
<!-- Node32 -->
<g id="Node000032" class="node">
<title>Node32</title>
<g id="a_Node000032"><a xlink:href="_percentage_8h.html" target="_top" xlink:title="The Percentage specification and body provides a simple percentage type.">
<polygon fill="white" stroke="#666666" points="1653,-305 1579,-305 1579,-286 1653,-286 1653,-305"/>
<text text-anchor="middle" x="1616" y="-293" font-family="Helvetica,sans-Serif" font-size="10.00">Percentage.h</text>
</a>
</g>
</g>
<!-- Node27&#45;&gt;Node32 -->
<g id="edge38_Node000027_Node000032" class="edge">
<title>Node27&#45;&gt;Node32</title>
<g id="a_edge38_Node000027_Node000032"><a xlink:title=" ">
<path fill="none" stroke="#63b8ff" d="M1537.94,-340.98C1552.5,-332.69 1574.87,-319.94 1591.93,-310.22"/>
<polygon fill="#63b8ff" stroke="#63b8ff" points="1593.83,-313.16 1600.79,-305.17 1590.36,-307.08 1593.83,-313.16"/>
</a>
</g>
</g>
<!-- Node35 -->
<g id="Node000035" class="node">
<title>Node35</title>
<g id="a_Node000035"><a xlink:href="_string_list_8h.html" target="_top" xlink:title="The StringList specification defines lists of string values with zero&#45;based arbitrary indexed access ...">
<polygon fill="white" stroke="#666666" points="1775,-305 1709,-305 1709,-286 1775,-286 1775,-305"/>
<text text-anchor="middle" x="1742" y="-293" font-family="Helvetica,sans-Serif" font-size="10.00">StringList.h</text>
</a>
</g>
</g>
<!-- Node27&#45;&gt;Node35 -->
<g id="edge44_Node000027_Node000035" class="edge">
<title>Node27&#45;&gt;Node35</title>
<g id="a_edge44_Node000027_Node000035"><a xlink:title=" ">
<path fill="none" stroke="#63b8ff" d="M1555.79,-341.57C1593.93,-332.33 1657.02,-317.07 1699.05,-306.89"/>
<polygon fill="#63b8ff" stroke="#63b8ff" points="1700.09,-310.24 1708.99,-304.49 1698.45,-303.44 1700.09,-310.24"/>
</a>
</g>
</g>
<!-- Node28&#45;&gt;Node23 -->
<g id="edge32_Node000028_Node000023" class="edge">
<title>Node28&#45;&gt;Node23</title>
<g id="a_edge32_Node000028_Node000023"><a xlink:title=" ">
<path fill="none" stroke="#63b8ff" d="M1660.63,-225.34C1673.4,-208.1 1701.2,-167.81 1713,-129 1717.39,-114.58 1718.52,-97.52 1718.62,-84.71"/>
<polygon fill="#63b8ff" stroke="#63b8ff" points="1722.11,-84.3 1718.49,-74.35 1715.12,-84.39 1722.11,-84.3"/>
</a>
</g>
</g>
<!-- Node29 -->
<g id="Node000029" class="node">
<title>Node29</title>
<g id="a_Node000029"><a xlink:href="_byte_8h.html" target="_top" xlink:title="The Byte specification and body provides a value object type for byte values.">
<polygon fill="white" stroke="#666666" points="1659.5,-184 1614.5,-184 1614.5,-165 1659.5,-165 1659.5,-184"/>
<text text-anchor="middle" x="1637" y="-172" font-family="Helvetica,sans-Serif" font-size="10.00">Byte.h</text>
</a>
</g>
</g>
<!-- Node28&#45;&gt;Node29 -->
<g id="edge33_Node000028_Node000029" class="edge">
<title>Node28&#45;&gt;Node29</title>
<g id="a_edge33_Node000028_Node000029"><a xlink:title=" ">
<path fill="none" stroke="#63b8ff" d="M1651.49,-225.37C1649.11,-217.16 1645.44,-204.54 1642.39,-194.05"/>
<polygon fill="#63b8ff" stroke="#63b8ff" points="1645.67,-192.79 1639.52,-184.17 1638.95,-194.75 1645.67,-192.79"/>
</a>
</g>
</g>
<!-- Node29&#45;&gt;Node22 -->
<g id="edge36_Node000029_Node000022" class="edge">
<title>Node29&#45;&gt;Node22</title>
<g id="a_edge36_Node000029_Node000022"><a xlink:title=" ">
<path fill="none" stroke="#63b8ff" d="M1620.77,-164.98C1604.82,-156.61 1580.22,-143.7 1561.62,-133.95"/>
<polygon fill="#63b8ff" stroke="#63b8ff" points="1563,-130.72 1552.52,-129.17 1559.75,-136.92 1563,-130.72"/>
</a>
</g>
</g>
<!-- Node29&#45;&gt;Node23 -->
<g id="edge34_Node000029_Node000023" class="edge">
<title>Node29&#45;&gt;Node23</title>
<g id="a_edge34_Node000029_Node000023"><a xlink:title=" ">
<path fill="none" stroke="#63b8ff" d="M1636.57,-164.9C1636.34,-151.89 1637.6,-126.94 1649,-110 1658.18,-96.36 1673.1,-85.97 1686.72,-78.68"/>
<polygon fill="#63b8ff" stroke="#63b8ff" points="1688.47,-81.72 1695.86,-74.12 1685.35,-75.45 1688.47,-81.72"/>
</a>
</g>
</g>
<!-- Node30 -->
<g id="Node000030" class="node">
<title>Node30</title>
<g id="a_Node000030"><a xlink:title=" ">
<polygon fill="#e0e0e0" stroke="#999999" points="1704,-129 1658,-129 1658,-110 1704,-110 1704,-129"/>
<text text-anchor="middle" x="1681" y="-117" font-family="Helvetica,sans-Serif" font-size="10.00">cstdint</text>
</a>
</g>
</g>
<!-- Node29&#45;&gt;Node30 -->
<g id="edge35_Node000029_Node000030" class="edge">
<title>Node29&#45;&gt;Node30</title>
<g id="a_edge35_Node000029_Node000030"><a xlink:title=" ">
<path fill="none" stroke="#63b8ff" d="M1644.27,-164.75C1650.54,-157.18 1659.79,-146.05 1667.43,-136.84"/>
<polygon fill="#63b8ff" stroke="#63b8ff" points="1670.17,-139.02 1673.87,-129.09 1664.79,-134.55 1670.17,-139.02"/>
</a>
</g>
</g>
<!-- Node33 -->
<g id="Node000033" class="node">
<title>Node33</title>
<g id="a_Node000033"><a xlink:href="_real_8h.html" target="_top" xlink:title="The Real specification defines a value object type for real values.">
<polygon fill="white" stroke="#666666" points="1506,-244.5 1462,-244.5 1462,-225.5 1506,-225.5 1506,-244.5"/>
<text text-anchor="middle" x="1484" y="-232.5" font-family="Helvetica,sans-Serif" font-size="10.00">Real.h</text>
</a>
</g>
</g>
<!-- Node32&#45;&gt;Node33 -->
<g id="edge39_Node000032_Node000033" class="edge">
<title>Node32&#45;&gt;Node33</title>
<g id="a_edge39_Node000032_Node000033"><a xlink:title=" ">
<path fill="none" stroke="#63b8ff" d="M1596.81,-285.99C1574.61,-276.16 1537.88,-259.88 1512.38,-248.58"/>
<polygon fill="#63b8ff" stroke="#63b8ff" points="1513.78,-245.37 1503.22,-244.52 1510.94,-251.77 1513.78,-245.37"/>
</a>
</g>
</g>
<!-- Node34 -->
<g id="Node000034" class="node">
<title>Node34</title>
<g id="a_Node000034"><a xlink:href="_integer_8h.html" target="_top" xlink:title="The Integer specification and body provides a value object type for ints.">
<polygon fill="white" stroke="#666666" points="1508,-184 1454,-184 1454,-165 1508,-165 1508,-184"/>
<text text-anchor="middle" x="1481" y="-172" font-family="Helvetica,sans-Serif" font-size="10.00">Integer.h</text>
</a>
</g>
</g>
<!-- Node33&#45;&gt;Node34 -->
<g id="edge40_Node000033_Node000034" class="edge">
<title>Node33&#45;&gt;Node34</title>
<g id="a_edge40_Node000033_Node000034"><a xlink:title=" ">
<path fill="none" stroke="#63b8ff" d="M1483.56,-225.37C1483.14,-217.25 1482.5,-204.81 1481.97,-194.39"/>
<polygon fill="#63b8ff" stroke="#63b8ff" points="1485.45,-193.97 1481.44,-184.17 1478.46,-194.33 1485.45,-193.97"/>
</a>
</g>
</g>
<!-- Node34&#45;&gt;Node22 -->
<g id="edge43_Node000034_Node000022" class="edge">
<title>Node34&#45;&gt;Node22</title>
<g id="a_edge43_Node000034_Node000022"><a xlink:title=" ">
<path fill="none" stroke="#63b8ff" d="M1490.08,-164.75C1498.09,-157.03 1509.96,-145.6 1519.62,-136.28"/>
<polygon fill="#63b8ff" stroke="#63b8ff" points="1522.31,-138.55 1527.09,-129.09 1517.46,-133.51 1522.31,-138.55"/>
</a>
</g>
</g>
<!-- Node34&#45;&gt;Node23 -->
<g id="edge41_Node000034_Node000023" class="edge">
<title>Node34&#45;&gt;Node23</title>
<g id="a_edge41_Node000034_Node000023"><a xlink:title=" ">
<path fill="none" stroke="#63b8ff" d="M1499.99,-164.84C1541.61,-145.88 1641.02,-100.58 1689.9,-78.31"/>
<polygon fill="#63b8ff" stroke="#63b8ff" points="1691.6,-81.38 1699.24,-74.05 1688.69,-75.01 1691.6,-81.38"/>
</a>
</g>
</g>
<!-- Node34&#45;&gt;Node25 -->
<g id="edge42_Node000034_Node000025" class="edge">
<title>Node34&#45;&gt;Node25</title>
<g id="a_edge42_Node000034_Node000025"><a xlink:title=" ">
<path fill="none" stroke="#63b8ff" d="M1473.38,-164.79C1459.23,-148.21 1428.71,-110.48 1411,-74 1404,-59.59 1399,-42.07 1395.89,-29.09"/>
<polygon fill="#63b8ff" stroke="#63b8ff" points="1399.24,-28.03 1393.64,-19.04 1392.41,-29.56 1399.24,-28.03"/>
</a>
</g>
</g>
<!-- Node36 -->
<g id="Node000036" class="node">
<title>Node36</title>
<g id="a_Node000036"><a xlink:title=" ">
<polygon fill="#e0e0e0" stroke="#999999" points="1778.5,-244.5 1705.5,-244.5 1705.5,-225.5 1778.5,-225.5 1778.5,-244.5"/>
<text text-anchor="middle" x="1742" y="-232.5" font-family="Helvetica,sans-Serif" font-size="10.00">initializer_list</text>
</a>
</g>
</g>
<!-- Node35&#45;&gt;Node36 -->
<g id="edge45_Node000035_Node000036" class="edge">
<title>Node35&#45;&gt;Node36</title>
<g id="a_edge45_Node000035_Node000036"><a xlink:title=" ">
<path fill="none" stroke="#63b8ff" d="M1742,-285.87C1742,-277.75 1742,-265.31 1742,-254.89"/>
<polygon fill="#63b8ff" stroke="#63b8ff" points="1745.5,-254.67 1742,-244.67 1738.5,-254.67 1745.5,-254.67"/>
</a>
</g>
</g>
<!-- Node37 -->
<g id="Node000037" class="node">
<title>Node37</title>
<g id="a_Node000037"><a xlink:title=" ">
<polygon fill="#e0e0e0" stroke="#999999" points="1871,-244.5 1797,-244.5 1797,-225.5 1871,-225.5 1871,-244.5"/>
<text text-anchor="middle" x="1834" y="-232.5" font-family="Helvetica,sans-Serif" font-size="10.00">GenericList.h</text>
</a>
</g>
</g>
<!-- Node35&#45;&gt;Node37 -->
<g id="edge46_Node000035_Node000037" class="edge">
<title>Node35&#45;&gt;Node37</title>
<g id="a_edge46_Node000035_Node000037"><a xlink:title=" ">
<path fill="none" stroke="#63b8ff" d="M1755.57,-285.87C1770.39,-276.45 1794.33,-261.23 1811.86,-250.08"/>
<polygon fill="#63b8ff" stroke="#63b8ff" points="1813.81,-252.99 1820.37,-244.67 1810.05,-247.08 1813.81,-252.99"/>
</a>
</g>
</g>
<!-- Node38&#45;&gt;Node35 -->
<g id="edge48_Node000038_Node000035" class="edge">
<title>Node38&#45;&gt;Node35</title>
<g id="a_edge48_Node000038_Node000035"><a xlink:title=" ">
<path fill="none" stroke="#63b8ff" d="M1686.6,-340.98C1696.46,-333.07 1711.35,-321.11 1723.22,-311.58"/>
<polygon fill="#63b8ff" stroke="#63b8ff" points="1725.6,-314.16 1731.2,-305.17 1721.21,-308.7 1725.6,-314.16"/>
</a>
</g>
</g>
<!-- Node40 -->
<g id="Node000040" class="node">
<title>Node40</title>
<g id="a_Node000040"><a xlink:title=" ">
<polygon fill="#e0e0e0" stroke="#999999" points="1804,-360 1730,-360 1730,-341 1804,-341 1804,-360"/>
<text text-anchor="middle" x="1767" y="-348" font-family="Helvetica,sans-Serif" font-size="10.00">GenericSet.h</text>
</a>
</g>
</g>
<!-- Node39&#45;&gt;Node40 -->
<g id="edge50_Node000039_Node000040" class="edge">
<title>Node39&#45;&gt;Node40</title>
<g id="a_edge50_Node000039_Node000040"><a xlink:title=" ">
<path fill="none" stroke="#63b8ff" d="M1732.77,-395.75C1738.56,-388.26 1747.06,-377.28 1754.14,-368.13"/>
<polygon fill="#63b8ff" stroke="#63b8ff" points="1757.01,-370.14 1760.36,-360.09 1751.47,-365.86 1757.01,-370.14"/>
</a>
</g>
</g>
<!-- Node42 -->
<g id="Node000042" class="node">
<title>Node42</title>
<g id="a_Node000042"><a xlink:href="_fluid_synth_plugin___event_processor_8h.html" target="_top" xlink:title="The FluidSynthPlugin_Processor specification defines the handling of MIDI events from the DAW via JUC...">
<polygon fill="white" stroke="#666666" points="1303,-360 1131,-360 1131,-341 1303,-341 1303,-360"/>
<text text-anchor="middle" x="1217" y="-348" font-family="Helvetica,sans-Serif" font-size="10.00">FluidSynthPlugin_EventProcessor.h</text>
</a>
</g>
</g>
<!-- Node41&#45;&gt;Node42 -->
<g id="edge52_Node000041_Node000042" class="edge">
<title>Node41&#45;&gt;Node42</title>
<g id="a_edge52_Node000041_Node000042"><a xlink:title=" ">
<path fill="none" stroke="#63b8ff" d="M1221.17,-395.75C1220.52,-388.8 1219.58,-378.85 1218.76,-370.13"/>
<polygon fill="#63b8ff" stroke="#63b8ff" points="1222.23,-369.72 1217.81,-360.09 1215.27,-370.37 1222.23,-369.72"/>
</a>
</g>
</g>
<!-- Node42&#45;&gt;Node2 -->
<g id="edge53_Node000042_Node000002" class="edge">
<title>Node42&#45;&gt;Node2</title>
<g id="a_edge53_Node000042_Node000002"><a xlink:title=" ">
<path fill="none" stroke="#63b8ff" d="M1153.7,-340.98C1075.84,-330.51 945.24,-312.94 873.68,-303.32"/>
<polygon fill="#63b8ff" stroke="#63b8ff" points="873.94,-299.82 863.56,-301.96 873.01,-306.76 873.94,-299.82"/>
</a>
</g>
</g>
<!-- Node42&#45;&gt;Node31 -->
<g id="edge54_Node000042_Node000031" class="edge">
<title>Node42&#45;&gt;Node31</title>
<g id="a_edge54_Node000042_Node000031"><a xlink:title=" ">
<path fill="none" stroke="#63b8ff" d="M1267.88,-340.96C1314.93,-332.88 1387.05,-320.07 1459.13,-305.09"/>
<polygon fill="#63b8ff" stroke="#63b8ff" points="1460.23,-308.44 1469.3,-302.96 1458.79,-301.59 1460.23,-308.44"/>
</a>
</g>
</g>
<!-- Node43 -->
<g id="Node000043" class="node">
<title>Node43</title>
<g id="a_Node000043"><a xlink:href="_midi_preset_identification_8h.html" target="_top" xlink:title="The MidiPresetIdentification specification defines the identification of a MIDI preset as a tuple of ...">
<polygon fill="white" stroke="#666666" points="1302.5,-305 1177.5,-305 1177.5,-286 1302.5,-286 1302.5,-305"/>
<text text-anchor="middle" x="1240" y="-293" font-family="Helvetica,sans-Serif" font-size="10.00">MidiPresetIdentification.h</text>
</a>
</g>
</g>
<!-- Node42&#45;&gt;Node43 -->
<g id="edge55_Node000042_Node000043" class="edge">
<title>Node42&#45;&gt;Node43</title>
<g id="a_edge55_Node000042_Node000043"><a xlink:title=" ">
<path fill="none" stroke="#63b8ff" d="M1220.8,-340.75C1223.91,-333.57 1228.42,-323.18 1232.29,-314.27"/>
<polygon fill="#63b8ff" stroke="#63b8ff" points="1235.5,-315.66 1236.27,-305.09 1229.08,-312.87 1235.5,-315.66"/>
</a>
</g>
</g>
<!-- Node43&#45;&gt;Node14 -->
<g id="edge56_Node000043_Node000014" class="edge">
<title>Node43&#45;&gt;Node14</title>
<g id="a_edge56_Node000043_Node000014"><a xlink:title=" ">
<path fill="none" stroke="#63b8ff" d="M1263.99,-285.99C1292.22,-275.99 1339.28,-259.3 1371.19,-247.99"/>
<polygon fill="#63b8ff" stroke="#63b8ff" points="1372.72,-251.16 1380.98,-244.52 1370.38,-244.56 1372.72,-251.16"/>
</a>
</g>
</g>
<!-- Node43&#45;&gt;Node34 -->
<g id="edge57_Node000043_Node000034" class="edge">
<title>Node43&#45;&gt;Node34</title>
<g id="a_edge57_Node000043_Node000034"><a xlink:title=" ">
<path fill="none" stroke="#63b8ff" d="M1259.84,-285.85C1278.09,-277.58 1305.63,-264.28 1328,-250 1346.14,-238.42 1347.31,-230.67 1366,-220 1390.78,-205.85 1420.93,-194.38 1444.14,-186.62"/>
<polygon fill="#63b8ff" stroke="#63b8ff" points="1445.52,-189.85 1453.95,-183.43 1443.35,-183.2 1445.52,-189.85"/>
</a>
</g>
</g>
</g>
</svg>
