<?xml version="1.0" encoding="UTF-8" standalone="no"?>
<!DOCTYPE svg PUBLIC "-//W3C//DTD SVG 1.1//EN"
 "http://www.w3.org/Graphics/SVG/1.1/DTD/svg11.dtd">
<!-- Generated by graphviz version 2.47.1 (20210417.1919)
 -->
<!-- Title: FluidSynthPlugin_EventProcessor.h Pages: 1 -->
<svg width="2111pt" height="319pt"
 viewBox="0.00 0.00 2110.75 319.00" xmlns="http://www.w3.org/2000/svg" xmlns:xlink="http://www.w3.org/1999/xlink">
<g id="graph0" class="graph" transform="scale(1 1) rotate(0) translate(4 315)">
<title>FluidSynthPlugin_EventProcessor.h</title>
<polygon fill="white" stroke="transparent" points="-4,4 -4,-315 2106.75,-315 2106.75,4 -4,4"/>
<!-- Node1 -->
<g id="node1" class="node">
<title>Node1</title>
<g id="a_node1"><a xlink:title="The FluidSynthPlugin_Processor specification defines the handling of MIDI events from the DAW via JUC...">
<polygon fill="#bfbfbf" stroke="black" points="1360,-291.5 1360,-310.5 1532,-310.5 1532,-291.5 1360,-291.5"/>
<text text-anchor="middle" x="1446" y="-298.5" font-family="Helvetica,sans-Serif" font-size="10.00">FluidSynthPlugin_EventProcessor.h</text>
</a>
</g>
</g>
<!-- Node2 -->
<g id="node2" class="node">
<title>Node2</title>
<g id="a_node2"><a xlink:href="_juce_headers_8h_source.html" target="_top" xlink:title=" ">
<polygon fill="white" stroke="black" points="981.5,-235.5 981.5,-254.5 1062.5,-254.5 1062.5,-235.5 981.5,-235.5"/>
<text text-anchor="middle" x="1022" y="-242.5" font-family="Helvetica,sans-Serif" font-size="10.00">JuceHeaders.h</text>
</a>
</g>
</g>
<!-- Node1&#45;&gt;Node2 -->
<g id="edge1" class="edge">
<title>Node1&#45;&gt;Node2</title>
<path fill="none" stroke="midnightblue" d="M1378.82,-291.44C1293.85,-280.62 1149.42,-262.23 1072.97,-252.49"/>
<polygon fill="midnightblue" stroke="midnightblue" points="1073.01,-248.97 1062.65,-251.18 1072.13,-255.91 1073.01,-248.97"/>
</g>
<!-- Node17 -->
<g id="node17" class="node">
<title>Node17</title>
<g id="a_node17"><a xlink:href="_object_8h.html" target="_top" xlink:title="The Object specification and body provides the root object type.">
<polygon fill="white" stroke="black" points="1419.5,-235.5 1419.5,-254.5 1472.5,-254.5 1472.5,-235.5 1419.5,-235.5"/>
<text text-anchor="middle" x="1446" y="-242.5" font-family="Helvetica,sans-Serif" font-size="10.00">Object.h</text>
</a>
</g>
</g>
<!-- Node1&#45;&gt;Node17 -->
<g id="edge16" class="edge">
<title>Node1&#45;&gt;Node17</title>
<path fill="none" stroke="midnightblue" d="M1446,-291.08C1446,-284.01 1446,-273.86 1446,-264.99"/>
<polygon fill="midnightblue" stroke="midnightblue" points="1449.5,-264.75 1446,-254.75 1442.5,-264.75 1449.5,-264.75"/>
</g>
<!-- Node18 -->
<g id="node18" class="node">
<title>Node18</title>
<g id="a_node18"><a xlink:href="_midi_preset_identification_8h.html" target="_top" xlink:title="The MidiPresetIdentification specification defines the identification of a MIDI preset as a tuple of ...">
<polygon fill="white" stroke="black" points="1828.5,-235.5 1828.5,-254.5 1953.5,-254.5 1953.5,-235.5 1828.5,-235.5"/>
<text text-anchor="middle" x="1891" y="-242.5" font-family="Helvetica,sans-Serif" font-size="10.00">MidiPresetIdentification.h</text>
</a>
</g>
</g>
<!-- Node1&#45;&gt;Node18 -->
<g id="edge17" class="edge">
<title>Node1&#45;&gt;Node18</title>
<path fill="none" stroke="midnightblue" d="M1516.51,-291.44C1598.97,-281.44 1734.78,-264.96 1818.21,-254.83"/>
<polygon fill="midnightblue" stroke="midnightblue" points="1818.86,-258.28 1828.37,-253.6 1818.02,-251.33 1818.86,-258.28"/>
</g>
<!-- Node3 -->
<g id="node3" class="node">
<title>Node3</title>
<g id="a_node3"><a xlink:title=" ">
<polygon fill="white" stroke="#bfbfbf" points="1615,-168.5 1615,-198.5 1733,-198.5 1733,-168.5 1615,-168.5"/>
<text text-anchor="start" x="1623" y="-186.5" font-family="Helvetica,sans-Serif" font-size="10.00">juce_audio_basics/juce</text>
<text text-anchor="middle" x="1674" y="-175.5" font-family="Helvetica,sans-Serif" font-size="10.00">_audio_basics.h</text>
</a>
</g>
</g>
<!-- Node2&#45;&gt;Node3 -->
<g id="edge2" class="edge">
<title>Node2&#45;&gt;Node3</title>
<path fill="none" stroke="midnightblue" d="M1062.84,-242.68C1158.2,-239.18 1402.76,-227.93 1605,-199 1605.1,-198.99 1605.2,-198.97 1605.31,-198.96"/>
<polygon fill="midnightblue" stroke="midnightblue" points="1605.66,-202.44 1614.99,-197.43 1604.57,-195.53 1605.66,-202.44"/>
</g>
<!-- Node4 -->
<g id="node4" class="node">
<title>Node4</title>
<g id="a_node4"><a xlink:title=" ">
<polygon fill="white" stroke="#bfbfbf" points="1751,-168.5 1751,-198.5 1863,-198.5 1863,-168.5 1751,-168.5"/>
<text text-anchor="start" x="1759" y="-186.5" font-family="Helvetica,sans-Serif" font-size="10.00">juce_audio_devices</text>
<text text-anchor="middle" x="1807" y="-175.5" font-family="Helvetica,sans-Serif" font-size="10.00">/juce_audio_devices.h</text>
</a>
</g>
</g>
<!-- Node2&#45;&gt;Node4 -->
<g id="edge3" class="edge">
<title>Node2&#45;&gt;Node4</title>
<path fill="none" stroke="midnightblue" d="M1062.82,-243.69C1171.59,-242.38 1477.42,-235.6 1740.6,-199.05"/>
<polygon fill="midnightblue" stroke="midnightblue" points="1741.31,-202.48 1750.73,-197.62 1740.34,-195.55 1741.31,-202.48"/>
</g>
<!-- Node5 -->
<g id="node5" class="node">
<title>Node5</title>
<g id="a_node5"><a xlink:title=" ">
<polygon fill="white" stroke="#bfbfbf" points="0,-168.5 0,-198.5 112,-198.5 112,-168.5 0,-168.5"/>
<text text-anchor="start" x="8" y="-186.5" font-family="Helvetica,sans-Serif" font-size="10.00">juce_audio_formats</text>
<text text-anchor="middle" x="56" y="-175.5" font-family="Helvetica,sans-Serif" font-size="10.00">/juce_audio_formats.h</text>
</a>
</g>
</g>
<!-- Node2&#45;&gt;Node5 -->
<g id="edge4" class="edge">
<title>Node2&#45;&gt;Node5</title>
<path fill="none" stroke="midnightblue" d="M981.36,-244.41C855.14,-245.19 458.65,-243.72 122.2,-199"/>
<polygon fill="midnightblue" stroke="midnightblue" points="122.64,-195.53 112.26,-197.66 121.71,-202.47 122.64,-195.53"/>
</g>
<!-- Node6 -->
<g id="node6" class="node">
<title>Node6</title>
<g id="a_node6"><a xlink:title=" ">
<polygon fill="white" stroke="#bfbfbf" points="130,-168.5 130,-198.5 264,-198.5 264,-168.5 130,-168.5"/>
<text text-anchor="start" x="138" y="-186.5" font-family="Helvetica,sans-Serif" font-size="10.00">juce_audio_plugin_client</text>
<text text-anchor="middle" x="197" y="-175.5" font-family="Helvetica,sans-Serif" font-size="10.00">/juce_audio_plugin_client.h</text>
</a>
</g>
</g>
<!-- Node2&#45;&gt;Node6 -->
<g id="edge5" class="edge">
<title>Node2&#45;&gt;Node6</title>
<path fill="none" stroke="midnightblue" d="M981.24,-243.39C869.66,-241.33 549.81,-232.8 274.26,-199.04"/>
<polygon fill="midnightblue" stroke="midnightblue" points="274.42,-195.54 264.06,-197.78 273.56,-202.48 274.42,-195.54"/>
</g>
<!-- Node7 -->
<g id="node7" class="node">
<title>Node7</title>
<g id="a_node7"><a xlink:title=" ">
<polygon fill="white" stroke="#bfbfbf" points="282,-168.5 282,-198.5 410,-198.5 410,-168.5 282,-168.5"/>
<text text-anchor="start" x="290" y="-186.5" font-family="Helvetica,sans-Serif" font-size="10.00">juce_audio_processors</text>
<text text-anchor="middle" x="346" y="-175.5" font-family="Helvetica,sans-Serif" font-size="10.00">/juce_audio_processors.h</text>
</a>
</g>
</g>
<!-- Node2&#45;&gt;Node7 -->
<g id="edge6" class="edge">
<title>Node2&#45;&gt;Node7</title>
<path fill="none" stroke="midnightblue" d="M981.24,-242.67C885.19,-239.17 637.04,-227.98 420,-199.02"/>
<polygon fill="midnightblue" stroke="midnightblue" points="420.4,-195.54 410.02,-197.67 419.46,-202.48 420.4,-195.54"/>
</g>
<!-- Node8 -->
<g id="node8" class="node">
<title>Node8</title>
<g id="a_node8"><a xlink:title=" ">
<polygon fill="white" stroke="#bfbfbf" points="428.5,-168.5 428.5,-198.5 535.5,-198.5 535.5,-168.5 428.5,-168.5"/>
<text text-anchor="start" x="436.5" y="-186.5" font-family="Helvetica,sans-Serif" font-size="10.00">juce_audio_utils/juce</text>
<text text-anchor="middle" x="482" y="-175.5" font-family="Helvetica,sans-Serif" font-size="10.00">_audio_utils.h</text>
</a>
</g>
</g>
<!-- Node2&#45;&gt;Node8 -->
<g id="edge7" class="edge">
<title>Node2&#45;&gt;Node8</title>
<path fill="none" stroke="midnightblue" d="M981.25,-241.98C900.18,-237.56 712.84,-225.39 545.5,-198.92"/>
<polygon fill="midnightblue" stroke="midnightblue" points="545.95,-195.45 535.52,-197.33 544.84,-202.36 545.95,-195.45"/>
</g>
<!-- Node9 -->
<g id="node9" class="node">
<title>Node9</title>
<g id="a_node9"><a xlink:title=" ">
<polygon fill="white" stroke="#bfbfbf" points="554,-174 554,-193 666,-193 666,-174 554,-174"/>
<text text-anchor="middle" x="610" y="-181" font-family="Helvetica,sans-Serif" font-size="10.00">juce_core/juce_core.h</text>
</a>
</g>
</g>
<!-- Node2&#45;&gt;Node9 -->
<g id="edge8" class="edge">
<title>Node2&#45;&gt;Node9</title>
<path fill="none" stroke="midnightblue" d="M981.48,-239.95C916.54,-233.19 785.23,-218.4 675,-199 668.72,-197.9 662.14,-196.59 655.66,-195.23"/>
<polygon fill="midnightblue" stroke="midnightblue" points="656.16,-191.76 645.64,-193.06 654.68,-198.6 656.16,-191.76"/>
</g>
<!-- Node10 -->
<g id="node10" class="node">
<title>Node10</title>
<g id="a_node10"><a xlink:title=" ">
<polygon fill="white" stroke="#bfbfbf" points="684.5,-168.5 684.5,-198.5 801.5,-198.5 801.5,-168.5 684.5,-168.5"/>
<text text-anchor="start" x="692.5" y="-186.5" font-family="Helvetica,sans-Serif" font-size="10.00">juce_cryptography/juce</text>
<text text-anchor="middle" x="743" y="-175.5" font-family="Helvetica,sans-Serif" font-size="10.00">_cryptography.h</text>
</a>
</g>
</g>
<!-- Node2&#45;&gt;Node10 -->
<g id="edge9" class="edge">
<title>Node2&#45;&gt;Node10</title>
<path fill="none" stroke="midnightblue" d="M981.35,-235.42C940.75,-226.84 876.28,-213.19 811.76,-199.37"/>
<polygon fill="midnightblue" stroke="midnightblue" points="812.33,-195.92 801.82,-197.24 810.87,-202.76 812.33,-195.92"/>
</g>
<!-- Node11 -->
<g id="node11" class="node">
<title>Node11</title>
<g id="a_node11"><a xlink:title=" ">
<polygon fill="white" stroke="#bfbfbf" points="819.5,-168.5 819.5,-198.5 938.5,-198.5 938.5,-168.5 819.5,-168.5"/>
<text text-anchor="start" x="827.5" y="-186.5" font-family="Helvetica,sans-Serif" font-size="10.00">juce_data_structures</text>
<text text-anchor="middle" x="879" y="-175.5" font-family="Helvetica,sans-Serif" font-size="10.00">/juce_data_structures.h</text>
</a>
</g>
</g>
<!-- Node2&#45;&gt;Node11 -->
<g id="edge10" class="edge">
<title>Node2&#45;&gt;Node11</title>
<path fill="none" stroke="midnightblue" d="M1001.51,-235.48C980.88,-226.89 948.42,-213.38 922.09,-202.43"/>
<polygon fill="midnightblue" stroke="midnightblue" points="923.28,-199.13 912.7,-198.52 920.59,-205.6 923.28,-199.13"/>
</g>
<!-- Node12 -->
<g id="node12" class="node">
<title>Node12</title>
<g id="a_node12"><a xlink:title=" ">
<polygon fill="white" stroke="#bfbfbf" points="957,-174 957,-193 1087,-193 1087,-174 957,-174"/>
<text text-anchor="middle" x="1022" y="-181" font-family="Helvetica,sans-Serif" font-size="10.00">juce_events/juce_events.h</text>
</a>
</g>
</g>
<!-- Node2&#45;&gt;Node12 -->
<g id="edge11" class="edge">
<title>Node2&#45;&gt;Node12</title>
<path fill="none" stroke="midnightblue" d="M1022,-235.48C1022,-227.08 1022,-213.98 1022,-203.16"/>
<polygon fill="midnightblue" stroke="midnightblue" points="1025.5,-203.01 1022,-193.01 1018.5,-203.01 1025.5,-203.01"/>
</g>
<!-- Node13 -->
<g id="node13" class="node">
<title>Node13</title>
<g id="a_node13"><a xlink:title=" ">
<polygon fill="white" stroke="#bfbfbf" points="1105,-168.5 1105,-198.5 1203,-198.5 1203,-168.5 1105,-168.5"/>
<text text-anchor="start" x="1113" y="-186.5" font-family="Helvetica,sans-Serif" font-size="10.00">juce_graphics/juce</text>
<text text-anchor="middle" x="1154" y="-175.5" font-family="Helvetica,sans-Serif" font-size="10.00">_graphics.h</text>
</a>
</g>
</g>
<!-- Node2&#45;&gt;Node13 -->
<g id="edge12" class="edge">
<title>Node2&#45;&gt;Node13</title>
<path fill="none" stroke="midnightblue" d="M1040.91,-235.48C1059.79,-226.96 1089.4,-213.62 1113.58,-202.72"/>
<polygon fill="midnightblue" stroke="midnightblue" points="1115.21,-205.82 1122.89,-198.52 1112.34,-199.44 1115.21,-205.82"/>
</g>
<!-- Node14 -->
<g id="node14" class="node">
<title>Node14</title>
<g id="a_node14"><a xlink:title=" ">
<polygon fill="white" stroke="#bfbfbf" points="1221.5,-168.5 1221.5,-198.5 1328.5,-198.5 1328.5,-168.5 1221.5,-168.5"/>
<text text-anchor="start" x="1229.5" y="-186.5" font-family="Helvetica,sans-Serif" font-size="10.00">juce_gui_basics/juce</text>
<text text-anchor="middle" x="1275" y="-175.5" font-family="Helvetica,sans-Serif" font-size="10.00">_gui_basics.h</text>
</a>
</g>
</g>
<!-- Node2&#45;&gt;Node14 -->
<g id="edge13" class="edge">
<title>Node2&#45;&gt;Node14</title>
<path fill="none" stroke="midnightblue" d="M1058.25,-235.48C1098.13,-226.1 1162.99,-210.84 1211.38,-199.46"/>
<polygon fill="midnightblue" stroke="midnightblue" points="1212.2,-202.86 1221.13,-197.17 1210.6,-196.05 1212.2,-202.86"/>
</g>
<!-- Node15 -->
<g id="node15" class="node">
<title>Node15</title>
<g id="a_node15"><a xlink:title=" ">
<polygon fill="white" stroke="#bfbfbf" points="1346.5,-168.5 1346.5,-198.5 1447.5,-198.5 1447.5,-168.5 1346.5,-168.5"/>
<text text-anchor="start" x="1354.5" y="-186.5" font-family="Helvetica,sans-Serif" font-size="10.00">juce_gui_extra/juce</text>
<text text-anchor="middle" x="1397" y="-175.5" font-family="Helvetica,sans-Serif" font-size="10.00">_gui_extra.h</text>
</a>
</g>
</g>
<!-- Node2&#45;&gt;Node15 -->
<g id="edge14" class="edge">
<title>Node2&#45;&gt;Node15</title>
<path fill="none" stroke="midnightblue" d="M1062.98,-239.41C1121.4,-232.59 1232.14,-218.64 1336.28,-199.02"/>
<polygon fill="midnightblue" stroke="midnightblue" points="1337.17,-202.41 1346.33,-197.1 1335.86,-195.54 1337.17,-202.41"/>
</g>
<!-- Node16 -->
<g id="node16" class="node">
<title>Node16</title>
<g id="a_node16"><a xlink:title=" ">
<polygon fill="white" stroke="#bfbfbf" points="1465.5,-174 1465.5,-193 1596.5,-193 1596.5,-174 1465.5,-174"/>
<text text-anchor="middle" x="1531" y="-181" font-family="Helvetica,sans-Serif" font-size="10.00">juce_opengl/juce_opengl.h</text>
</a>
</g>
</g>
<!-- Node2&#45;&gt;Node16 -->
<g id="edge15" class="edge">
<title>Node2&#45;&gt;Node16</title>
<path fill="none" stroke="midnightblue" d="M1062.54,-240.99C1139.49,-235.01 1311.94,-220.35 1456,-199 1463.84,-197.84 1472.11,-196.43 1480.18,-194.95"/>
<polygon fill="midnightblue" stroke="midnightblue" points="1481.06,-198.34 1490.24,-193.05 1479.77,-191.47 1481.06,-198.34"/>
</g>
<!-- Node19 -->
<g id="node19" class="node">
<title>Node19</title>
<g id="a_node19"><a xlink:href="_boolean_8h.html" target="_top" xlink:title="The Boolean specification and body provides a value object type for boolean values.">
<polygon fill="white" stroke="black" points="1825,-112.5 1825,-131.5 1885,-131.5 1885,-112.5 1825,-112.5"/>
<text text-anchor="middle" x="1855" y="-119.5" font-family="Helvetica,sans-Serif" font-size="10.00">Boolean.h</text>
</a>
</g>
</g>
<!-- Node18&#45;&gt;Node19 -->
<g id="edge18" class="edge">
<title>Node18&#45;&gt;Node19</title>
<path fill="none" stroke="midnightblue" d="M1889.21,-235.48C1886.16,-221.32 1879.55,-192.14 1872,-168 1869.16,-158.92 1865.48,-149.01 1862.27,-140.81"/>
<polygon fill="midnightblue" stroke="midnightblue" points="1865.52,-139.51 1858.56,-131.52 1859.02,-142.11 1865.52,-139.51"/>
</g>
<!-- Node23 -->
<g id="node23" class="node">
<title>Node23</title>
<g id="a_node23"><a xlink:href="_integer_8h.html" target="_top" xlink:title="The Integer specification and body provides a value object type for ints.">
<polygon fill="white" stroke="black" points="1991,-174 1991,-193 2045,-193 2045,-174 1991,-174"/>
<text text-anchor="middle" x="2018" y="-181" font-family="Helvetica,sans-Serif" font-size="10.00">Integer.h</text>
</a>
</g>
</g>
<!-- Node18&#45;&gt;Node23 -->
<g id="edge22" class="edge">
<title>Node18&#45;&gt;Node23</title>
<path fill="none" stroke="midnightblue" d="M1909.2,-235.48C1930.51,-225.49 1966.03,-208.85 1990.66,-197.31"/>
<polygon fill="midnightblue" stroke="midnightblue" points="1992.27,-200.42 1999.84,-193.01 1989.3,-194.08 1992.27,-200.42"/>
</g>
<!-- Node20 -->
<g id="node20" class="node">
<title>Node20</title>
<g id="a_node20"><a xlink:href="_my_string_8h.html" target="_top" xlink:title="The String specification defines a standard string type.">
<polygon fill="white" stroke="black" points="1771,-56.5 1771,-75.5 1835,-75.5 1835,-56.5 1771,-56.5"/>
<text text-anchor="middle" x="1803" y="-63.5" font-family="Helvetica,sans-Serif" font-size="10.00">MyString.h</text>
</a>
</g>
</g>
<!-- Node19&#45;&gt;Node20 -->
<g id="edge19" class="edge">
<title>Node19&#45;&gt;Node20</title>
<path fill="none" stroke="midnightblue" d="M1846.41,-112.08C1838.84,-104.22 1827.62,-92.57 1818.49,-83.08"/>
<polygon fill="midnightblue" stroke="midnightblue" points="1820.88,-80.53 1811.43,-75.75 1815.84,-85.38 1820.88,-80.53"/>
</g>
<!-- Node21 -->
<g id="node21" class="node">
<title>Node21</title>
<g id="a_node21"><a xlink:title=" ">
<polygon fill="white" stroke="#bfbfbf" points="1864.5,-0.5 1864.5,-19.5 1905.5,-19.5 1905.5,-0.5 1864.5,-0.5"/>
<text text-anchor="middle" x="1885" y="-7.5" font-family="Helvetica,sans-Serif" font-size="10.00">string</text>
</a>
</g>
</g>
<!-- Node20&#45;&gt;Node21 -->
<g id="edge20" class="edge">
<title>Node20&#45;&gt;Node21</title>
<path fill="none" stroke="midnightblue" d="M1816.17,-56.32C1828.85,-47.98 1848.23,-35.21 1863.21,-25.35"/>
<polygon fill="midnightblue" stroke="midnightblue" points="1865.43,-28.08 1871.86,-19.65 1861.58,-22.23 1865.43,-28.08"/>
</g>
<!-- Node22 -->
<g id="node22" class="node">
<title>Node22</title>
<g id="a_node22"><a xlink:href="_global_macros_8h.html" target="_top" xlink:title="The GlobalMacros specification defines simple macros (e.g. for parameter modes).">
<polygon fill="white" stroke="black" points="1760.5,-0.5 1760.5,-19.5 1845.5,-19.5 1845.5,-0.5 1760.5,-0.5"/>
<text text-anchor="middle" x="1803" y="-7.5" font-family="Helvetica,sans-Serif" font-size="10.00">GlobalMacros.h</text>
</a>
</g>
</g>
<!-- Node20&#45;&gt;Node22 -->
<g id="edge21" class="edge">
<title>Node20&#45;&gt;Node22</title>
<path fill="none" stroke="midnightblue" d="M1803,-56.08C1803,-49.01 1803,-38.86 1803,-29.99"/>
<polygon fill="midnightblue" stroke="midnightblue" points="1806.5,-29.75 1803,-19.75 1799.5,-29.75 1806.5,-29.75"/>
</g>
<!-- Node24 -->
<g id="node24" class="node">
<title>Node24</title>
<g id="a_node24"><a xlink:title=" ">
<polygon fill="white" stroke="#bfbfbf" points="2047,-56.5 2047,-75.5 2091,-75.5 2091,-56.5 2047,-56.5"/>
<text text-anchor="middle" x="2069" y="-63.5" font-family="Helvetica,sans-Serif" font-size="10.00">cmath</text>
</a>
</g>
</g>
<!-- Node23&#45;&gt;Node24 -->
<g id="edge23" class="edge">
<title>Node23&#45;&gt;Node24</title>
<path fill="none" stroke="midnightblue" d="M2021.83,-173.82C2030.14,-155.01 2049.95,-110.15 2061.07,-84.96"/>
<polygon fill="midnightblue" stroke="midnightblue" points="2064.28,-86.34 2065.12,-75.78 2057.88,-83.52 2064.28,-86.34"/>
</g>
<!-- Node25 -->
<g id="node25" class="node">
<title>Node25</title>
<g id="a_node25"><a xlink:title=" ">
<polygon fill="white" stroke="#bfbfbf" points="2006.5,-0.5 2006.5,-19.5 2065.5,-19.5 2065.5,-0.5 2006.5,-0.5"/>
<text text-anchor="middle" x="2036" y="-7.5" font-family="Helvetica,sans-Serif" font-size="10.00">stdexcept</text>
</a>
</g>
</g>
<!-- Node23&#45;&gt;Node25 -->
<g id="edge24" class="edge">
<title>Node23&#45;&gt;Node25</title>
<path fill="none" stroke="midnightblue" d="M2028.16,-173.83C2046.79,-157.16 2085.83,-118.5 2100,-76 2102.81,-67.57 2104.1,-63.89 2100,-56 2092.85,-42.23 2079.33,-31.78 2066.55,-24.44"/>
<polygon fill="midnightblue" stroke="midnightblue" points="2067.96,-21.23 2057.48,-19.64 2064.68,-27.41 2067.96,-21.23"/>
</g>
<!-- Node26 -->
<g id="node26" class="node">
<title>Node26</title>
<g id="a_node26"><a xlink:href="_natural_8h.html" target="_top" xlink:title="The Natural specification and body provides a value object type for naturals (positive integers with ...">
<polygon fill="white" stroke="black" points="1955,-112.5 1955,-131.5 2011,-131.5 2011,-112.5 1955,-112.5"/>
<text text-anchor="middle" x="1983" y="-119.5" font-family="Helvetica,sans-Serif" font-size="10.00">Natural.h</text>
</a>
</g>
</g>
<!-- Node23&#45;&gt;Node26 -->
<g id="edge25" class="edge">
<title>Node23&#45;&gt;Node26</title>
<path fill="none" stroke="midnightblue" d="M2012.99,-173.98C2007.84,-165.23 1999.69,-151.37 1993.18,-140.31"/>
<polygon fill="midnightblue" stroke="midnightblue" points="1996.09,-138.35 1988.01,-131.51 1990.06,-141.9 1996.09,-138.35"/>
</g>
<!-- Node26&#45;&gt;Node20 -->
<g id="edge31" class="edge">
<title>Node26&#45;&gt;Node20</title>
<path fill="none" stroke="midnightblue" d="M1954.88,-112.56C1924.28,-103.38 1875.19,-88.66 1841.13,-78.44"/>
<polygon fill="midnightblue" stroke="midnightblue" points="1842.11,-75.08 1831.52,-75.56 1840.09,-81.78 1842.11,-75.08"/>
</g>
<!-- Node26&#45;&gt;Node24 -->
<g id="edge26" class="edge">
<title>Node26&#45;&gt;Node24</title>
<path fill="none" stroke="midnightblue" d="M1996.82,-112.32C2010.23,-103.9 2030.82,-90.97 2046.59,-81.07"/>
<polygon fill="midnightblue" stroke="midnightblue" points="2048.61,-83.94 2055.22,-75.65 2044.89,-78.01 2048.61,-83.94"/>
</g>
<!-- Node27 -->
<g id="node27" class="node">
<title>Node27</title>
<g id="a_node27"><a xlink:href="_assertion_8h.html" target="_top" xlink:title="The Assertion specification defines macros for pre&#45; and postconditions in functions or methods.">
<polygon fill="white" stroke="black" points="1853,-56.5 1853,-75.5 1919,-75.5 1919,-56.5 1853,-56.5"/>
<text text-anchor="middle" x="1886" y="-63.5" font-family="Helvetica,sans-Serif" font-size="10.00">Assertion.h</text>
</a>
</g>
</g>
<!-- Node26&#45;&gt;Node27 -->
<g id="edge27" class="edge">
<title>Node26&#45;&gt;Node27</title>
<path fill="none" stroke="midnightblue" d="M1967.42,-112.32C1952,-103.74 1928.19,-90.49 1910.29,-80.52"/>
<polygon fill="midnightblue" stroke="midnightblue" points="1911.99,-77.46 1901.55,-75.65 1908.58,-83.58 1911.99,-77.46"/>
</g>
<!-- Node28 -->
<g id="node28" class="node">
<title>Node28</title>
<g id="a_node28"><a xlink:title=" ">
<polygon fill="white" stroke="#bfbfbf" points="1937,-56.5 1937,-75.5 2029,-75.5 2029,-56.5 1937,-56.5"/>
<text text-anchor="middle" x="1983" y="-63.5" font-family="Helvetica,sans-Serif" font-size="10.00">GenericNumber.h</text>
</a>
</g>
</g>
<!-- Node26&#45;&gt;Node28 -->
<g id="edge30" class="edge">
<title>Node26&#45;&gt;Node28</title>
<path fill="none" stroke="midnightblue" d="M1983,-112.08C1983,-105.01 1983,-94.86 1983,-85.99"/>
<polygon fill="midnightblue" stroke="midnightblue" points="1986.5,-85.75 1983,-75.75 1979.5,-85.75 1986.5,-85.75"/>
</g>
<!-- Node27&#45;&gt;Node21 -->
<g id="edge29" class="edge">
<title>Node27&#45;&gt;Node21</title>
<path fill="none" stroke="midnightblue" d="M1885.83,-56.08C1885.7,-49.01 1885.52,-38.86 1885.35,-29.99"/>
<polygon fill="midnightblue" stroke="midnightblue" points="1888.85,-29.68 1885.16,-19.75 1881.85,-29.81 1888.85,-29.68"/>
</g>
<!-- Node27&#45;&gt;Node25 -->
<g id="edge28" class="edge">
<title>Node27&#45;&gt;Node25</title>
<path fill="none" stroke="midnightblue" d="M1909.77,-56.44C1934.89,-47.4 1974.71,-33.06 2002.9,-22.92"/>
<polygon fill="midnightblue" stroke="midnightblue" points="2004.12,-26.2 2012.34,-19.52 2001.75,-19.61 2004.12,-26.2"/>
</g>
</g>
</svg>
