<?xml version="1.0" encoding="UTF-8" standalone="no"?>
<!DOCTYPE svg PUBLIC "-//W3C//DTD SVG 1.1//EN"
 "http://www.w3.org/Graphics/SVG/1.1/DTD/svg11.dtd">
<!-- Generated by graphviz version 2.47.1 (20210417.1919)
 -->
<!-- Title: FluidSynthSynthesizer.cpp Pages: 1 -->
<!--zoomable 542 -->
<svg id="main" version="1.1" xmlns="http://www.w3.org/2000/svg" xmlns:xlink="http://www.w3.org/1999/xlink" xml:space="preserve" onload="init(evt)">
<style type="text/css"><![CDATA[
.edge:hover path { stroke: red; }
.edge:hover polygon { stroke: red; fill: red; }
]]></style>
<script type="text/javascript"><![CDATA[
var edges = document.getElementsByTagName('g');
if (edges && edges.length) {
  for (var i=0;i<edges.length;i++) {
    if (edges[i].id.substr(0,4)=='edge') {
      edges[i].setAttribute('class','edge');
    }
  }
}
]]></script>
        <defs>
                <circle id="rim" cx="0" cy="0" r="7"/>
                <circle id="rim2" cx="0" cy="0" r="3.5"/>
                <g id="zoomPlus">
                        <use xlink:href="#rim" fill="#404040">
                                <set attributeName="fill" to="#808080" begin="zoomplus.mouseover" end="zoomplus.mouseout"/>
                        </use>
                        <path d="M-4,0h8M0,-4v8" fill="none" stroke="white" stroke-width="1.5" pointer-events="none"/>
                </g>
                <g id="zoomMin">
                        <use xlink:href="#rim" fill="#404040">
                                <set attributeName="fill" to="#808080" begin="zoomminus.mouseover" end="zoomminus.mouseout"/>
                        </use>
                        <path d="M-4,0h8" fill="none" stroke="white" stroke-width="1.5" pointer-events="none"/>
                </g>
                <g id="dirArrow">
                        <path fill="none" stroke="white" stroke-width="1.5" d="M0,-3.0v7 M-2.5,-0.5L0,-3.0L2.5,-0.5"/>
                </g>
               <g id="resetDef">
                       <use xlink:href="#rim2" fill="#404040">
                               <set attributeName="fill" to="#808080" begin="reset.mouseover" end="reset.mouseout"/>
                       </use>
               </g>
        </defs>

<script type="text/javascript">
var viewWidth = 1009;
var viewHeight = 542;
var sectionId = 'dynsection-0';
</script>
<script xlink:href="svgpan.js"/>
<svg id="graph" class="graph">
<g id="viewport">
<title>FluidSynthSynthesizer.cpp</title>
<polygon fill="white" stroke="transparent" points="-4,4 -4,-538 1004.5,-538 1004.5,4 -4,4"/>
<!-- Node1 -->
<g id="node1" class="node">
<title>Node1</title>
<g id="a_node1"><a xlink:title="The FluidSynthSynthesizer class implements an object&#45;oriented wrapper around an underlying fluidsynth...">
<polygon fill="#bfbfbf" stroke="black" points="119,-513.5 119,-533.5 265,-533.5 265,-513.5 119,-513.5"/>
<text text-anchor="middle" x="192" y="-520.7" font-family="Helvetica,sans-Serif" font-size="11.00">FluidSynthSynthesizer.cpp</text>
</a>
</g>
</g>
<!-- Node2 -->
<g id="node2" class="node">
<title>Node2</title>
<g id="a_node2"><a xlink:href="_dynamic_library_8h.html" target="_top" xlink:title="The DynamicLibrary class specifies a very simple and crude wrapper around the dynamic library loading...">
<polygon fill="white" stroke="black" points="0,-342.5 0,-362.5 102,-362.5 102,-342.5 0,-342.5"/>
<text text-anchor="middle" x="51" y="-349.7" font-family="Helvetica,sans-Serif" font-size="11.00">DynamicLibrary.h</text>
</a>
</g>
</g>
<!-- Node1&#45;&gt;Node2 -->
<g id="edge1" class="edge">
<title>Node1&#45;&gt;Node2</title>
<path fill="none" stroke="midnightblue" d="M170.17,-513.39C153.67,-505.64 131.33,-493.19 116,-477 86.42,-445.74 66.59,-398.41 57.23,-372.35"/>
<polygon fill="midnightblue" stroke="midnightblue" points="60.43,-370.9 53.86,-362.6 53.82,-373.19 60.43,-370.9"/>
</g>
<!-- Node7 -->
<g id="node7" class="node">
<title>Node7</title>
<g id="a_node7"><a xlink:href="_fluid_synth_synthesizer_8h.html" target="_top" xlink:title="The FluidSynthSynthesizer class specifies an object&#45;oriented wrapper around an underlying fluidsynth ...">
<polygon fill="white" stroke="black" points="187,-456.5 187,-476.5 321,-476.5 321,-456.5 187,-456.5"/>
<text text-anchor="middle" x="254" y="-463.7" font-family="Helvetica,sans-Serif" font-size="11.00">FluidSynthSynthesizer.h</text>
</a>
</g>
</g>
<!-- Node1&#45;&gt;Node7 -->
<g id="edge6" class="edge">
<title>Node1&#45;&gt;Node7</title>
<path fill="none" stroke="midnightblue" d="M202.24,-513.42C211.34,-505.35 224.85,-493.36 235.79,-483.65"/>
<polygon fill="midnightblue" stroke="midnightblue" points="238.38,-486.03 243.54,-476.78 233.74,-480.8 238.38,-486.03"/>
</g>
<!-- Node21 -->
<g id="node21" class="node">
<title>Node21</title>
<g id="a_node21"><a xlink:href="_my_array_8h.html" target="_top" xlink:title="The MyArray specification and body defines a generic array type for stack allocated arrays represente...">
<polygon fill="white" stroke="black" points="273.5,-228.5 273.5,-248.5 338.5,-248.5 338.5,-228.5 273.5,-228.5"/>
<text text-anchor="middle" x="306" y="-235.7" font-family="Helvetica,sans-Serif" font-size="11.00">MyArray.h</text>
</a>
</g>
</g>
<!-- Node1&#45;&gt;Node21 -->
<g id="edge52" class="edge">
<title>Node1&#45;&gt;Node21</title>
<path fill="none" stroke="midnightblue" d="M182.58,-513.28C165.24,-495.27 130,-453.39 130,-410.5 130,-410.5 130,-410.5 130,-351.5 130,-320.76 127.31,-306.78 149,-285 179.17,-254.72 228.19,-244.32 263.43,-240.89"/>
<polygon fill="midnightblue" stroke="midnightblue" points="263.76,-244.37 273.44,-240.06 263.18,-237.4 263.76,-244.37"/>
</g>
<!-- Node26 -->
<g id="node26" class="node">
<title>Node26</title>
<g id="a_node26"><a xlink:href="_logging_8h.html" target="_top" xlink:title="The Logging specification defines macros for entry&#45;, exit&#45; and intermediate logging of functions into...">
<polygon fill="white" stroke="black" points="709,-399.5 709,-419.5 773,-419.5 773,-399.5 709,-399.5"/>
<text text-anchor="middle" x="741" y="-406.7" font-family="Helvetica,sans-Serif" font-size="11.00">Logging.h</text>
</a>
</g>
</g>
<!-- Node1&#45;&gt;Node26 -->
<g id="edge33" class="edge">
<title>Node1&#45;&gt;Node26</title>
<path fill="none" stroke="midnightblue" d="M236.46,-513.43C340.24,-492.26 597.31,-439.81 698.81,-419.11"/>
<polygon fill="midnightblue" stroke="midnightblue" points="699.6,-422.52 708.7,-417.09 698.2,-415.66 699.6,-422.52"/>
</g>
<!-- Node3 -->
<g id="node3" class="node">
<title>Node3</title>
<g id="a_node3"><a xlink:href="_object_8h.html" target="_top" xlink:title="The Object specification and body provides the root object type.">
<polygon fill="white" stroke="black" points="158,-285.5 158,-305.5 216,-305.5 216,-285.5 158,-285.5"/>
<text text-anchor="middle" x="187" y="-292.7" font-family="Helvetica,sans-Serif" font-size="11.00">Object.h</text>
</a>
</g>
</g>
<!-- Node2&#45;&gt;Node3 -->
<g id="edge2" class="edge">
<title>Node2&#45;&gt;Node3</title>
<path fill="none" stroke="midnightblue" d="M73.46,-342.42C95.7,-333.42 129.98,-319.56 155.06,-309.42"/>
<polygon fill="midnightblue" stroke="midnightblue" points="156.55,-312.59 164.51,-305.6 153.93,-306.1 156.55,-312.59"/>
</g>
<!-- Node4 -->
<g id="node4" class="node">
<title>Node4</title>
<g id="a_node4"><a xlink:href="_my_string_8h.html" target="_top" xlink:title="The String specification defines a standard string type.">
<polygon fill="white" stroke="black" points="513,-57.5 513,-77.5 581,-77.5 581,-57.5 513,-57.5"/>
<text text-anchor="middle" x="547" y="-64.7" font-family="Helvetica,sans-Serif" font-size="11.00">MyString.h</text>
</a>
</g>
</g>
<!-- Node2&#45;&gt;Node4 -->
<g id="edge3" class="edge">
<title>Node2&#45;&gt;Node4</title>
<path fill="none" stroke="midnightblue" d="M53.92,-342.32C59.69,-323.33 72,-278.28 72,-239.5 72,-239.5 72,-239.5 72,-180.5 72,-92.5 384.76,-73.57 502.71,-69.56"/>
<polygon fill="midnightblue" stroke="midnightblue" points="502.96,-73.05 512.84,-69.23 502.73,-66.06 502.96,-73.05"/>
</g>
<!-- Node5 -->
<g id="node5" class="node">
<title>Node5</title>
<g id="a_node5"><a xlink:title=" ">
<polygon fill="white" stroke="#bfbfbf" points="536,-0.5 536,-20.5 580,-20.5 580,-0.5 536,-0.5"/>
<text text-anchor="middle" x="558" y="-7.7" font-family="Helvetica,sans-Serif" font-size="11.00">string</text>
</a>
</g>
</g>
<!-- Node4&#45;&gt;Node5 -->
<g id="edge4" class="edge">
<title>Node4&#45;&gt;Node5</title>
<path fill="none" stroke="midnightblue" d="M548.82,-57.42C550.26,-50.22 552.32,-39.9 554.13,-30.86"/>
<polygon fill="midnightblue" stroke="midnightblue" points="557.61,-31.27 556.14,-20.78 550.75,-29.9 557.61,-31.27"/>
</g>
<!-- Node6 -->
<g id="node6" class="node">
<title>Node6</title>
<g id="a_node6"><a xlink:href="_global_macros_8h.html" target="_top" xlink:title="The GlobalMacros specification defines simple macros (e.g. for parameter modes).">
<polygon fill="white" stroke="black" points="426,-0.5 426,-20.5 518,-20.5 518,-0.5 426,-0.5"/>
<text text-anchor="middle" x="472" y="-7.7" font-family="Helvetica,sans-Serif" font-size="11.00">GlobalMacros.h</text>
</a>
</g>
</g>
<!-- Node4&#45;&gt;Node6 -->
<g id="edge5" class="edge">
<title>Node4&#45;&gt;Node6</title>
<path fill="none" stroke="midnightblue" d="M534.62,-57.42C523.22,-49.06 506.09,-36.5 492.62,-26.62"/>
<polygon fill="midnightblue" stroke="midnightblue" points="494.54,-23.69 484.4,-20.6 490.4,-29.33 494.54,-23.69"/>
</g>
<!-- Node7&#45;&gt;Node3 -->
<g id="edge28" class="edge">
<title>Node7&#45;&gt;Node3</title>
<path fill="none" stroke="midnightblue" d="M230.54,-456.5C215.11,-449.2 196.15,-437.27 187,-420 169.34,-386.66 175.96,-340.81 181.82,-315.39"/>
<polygon fill="midnightblue" stroke="midnightblue" points="185.25,-316.11 184.29,-305.56 178.46,-314.4 185.25,-316.11"/>
</g>
<!-- Node8 -->
<g id="node8" class="node">
<title>Node8</title>
<g id="a_node8"><a xlink:href="_audio_sample_list_vector_8h.html" target="_top" xlink:title="The AudioSampleListVector specification defines the communication buffer structure for the block proc...">
<polygon fill="white" stroke="black" points="330.5,-399.5 330.5,-419.5 469.5,-419.5 469.5,-399.5 330.5,-399.5"/>
<text text-anchor="middle" x="400" y="-406.7" font-family="Helvetica,sans-Serif" font-size="11.00">AudioSampleListVector.h</text>
</a>
</g>
</g>
<!-- Node7&#45;&gt;Node8 -->
<g id="edge7" class="edge">
<title>Node7&#45;&gt;Node8</title>
<path fill="none" stroke="midnightblue" d="M278.11,-456.42C302.2,-447.34 339.44,-433.31 366.42,-423.15"/>
<polygon fill="midnightblue" stroke="midnightblue" points="367.73,-426.4 375.86,-419.6 365.26,-419.85 367.73,-426.4"/>
</g>
<!-- Node16 -->
<g id="node16" class="node">
<title>Node16</title>
<g id="a_node16"><a xlink:href="_natural_8h.html" target="_top" xlink:title="The Natural specification and body provides a value object type for naturals (positive integers with ...">
<polygon fill="white" stroke="black" points="625,-114.5 625,-134.5 685,-134.5 685,-114.5 625,-114.5"/>
<text text-anchor="middle" x="655" y="-121.7" font-family="Helvetica,sans-Serif" font-size="11.00">Natural.h</text>
</a>
</g>
</g>
<!-- Node7&#45;&gt;Node16 -->
<g id="edge27" class="edge">
<title>Node7&#45;&gt;Node16</title>
<path fill="none" stroke="midnightblue" d="M321.35,-456.44C366.45,-449.25 426.73,-437.48 478,-420 532.37,-401.46 560,-409.3 594,-363 614.76,-334.73 598.16,-319.19 606,-285 617.88,-233.2 637.9,-173.72 648.29,-144.18"/>
<polygon fill="midnightblue" stroke="midnightblue" points="651.6,-145.31 651.65,-134.72 645,-142.97 651.6,-145.31"/>
</g>
<!-- Node24 -->
<g id="node24" class="node">
<title>Node24</title>
<g id="a_node24"><a xlink:href="_fluid_synth_settings_8h.html" target="_top" xlink:title="The FluidSynthSettings class specifies an object&#45;oriented wrapper around an underlying fluidsynth set...">
<polygon fill="white" stroke="black" points="196,-399.5 196,-419.5 312,-419.5 312,-399.5 196,-399.5"/>
<text text-anchor="middle" x="254" y="-406.7" font-family="Helvetica,sans-Serif" font-size="11.00">FluidSynthSettings.h</text>
</a>
</g>
</g>
<!-- Node7&#45;&gt;Node24 -->
<g id="edge29" class="edge">
<title>Node7&#45;&gt;Node24</title>
<path fill="none" stroke="midnightblue" d="M254,-456.42C254,-449.22 254,-438.9 254,-429.86"/>
<polygon fill="midnightblue" stroke="midnightblue" points="257.5,-429.78 254,-419.78 250.5,-429.78 257.5,-429.78"/>
</g>
<!-- Node9 -->
<g id="node9" class="node">
<title>Node9</title>
<g id="a_node9"><a xlink:href="_audio_sample_list_8h.html" target="_top" xlink:title="The AudioSampleList specification defines lists of audio samples with zero&#45;based arbitrary indexed ac...">
<polygon fill="white" stroke="black" points="291.5,-342.5 291.5,-362.5 398.5,-362.5 398.5,-342.5 291.5,-342.5"/>
<text text-anchor="middle" x="345" y="-349.7" font-family="Helvetica,sans-Serif" font-size="11.00">AudioSampleList.h</text>
</a>
</g>
</g>
<!-- Node8&#45;&gt;Node9 -->
<g id="edge8" class="edge">
<title>Node8&#45;&gt;Node9</title>
<path fill="none" stroke="midnightblue" d="M390.92,-399.42C382.92,-391.42 371.09,-379.59 361.44,-369.94"/>
<polygon fill="midnightblue" stroke="midnightblue" points="363.83,-367.38 354.28,-362.78 358.88,-372.33 363.83,-367.38"/>
</g>
<!-- Node23 -->
<g id="node23" class="node">
<title>Node23</title>
<g id="a_node23"><a xlink:href="_audio_sample_list_vector_8cpp-inc.html" target="_top" xlink:title="The AudioSampleListVector body implements the communication buffer structure for the block processing...">
<polygon fill="white" stroke="black" points="416.5,-342.5 416.5,-362.5 585.5,-362.5 585.5,-342.5 416.5,-342.5"/>
<text text-anchor="middle" x="501" y="-349.7" font-family="Helvetica,sans-Serif" font-size="11.00">AudioSampleListVector.cpp&#45;inc</text>
</a>
</g>
</g>
<!-- Node8&#45;&gt;Node23 -->
<g id="edge26" class="edge">
<title>Node8&#45;&gt;Node23</title>
<path fill="none" stroke="midnightblue" d="M416.68,-399.42C432.61,-390.74 456.87,-377.53 475.28,-367.51"/>
<polygon fill="midnightblue" stroke="midnightblue" points="477.19,-370.45 484.3,-362.6 473.84,-364.3 477.19,-370.45"/>
</g>
<!-- Node10 -->
<g id="node10" class="node">
<title>Node10</title>
<g id="a_node10"><a xlink:title=" ">
<polygon fill="white" stroke="#bfbfbf" points="435.5,-228.5 435.5,-248.5 516.5,-248.5 516.5,-228.5 435.5,-228.5"/>
<text text-anchor="middle" x="476" y="-235.7" font-family="Helvetica,sans-Serif" font-size="11.00">GenericList.h</text>
</a>
</g>
</g>
<!-- Node9&#45;&gt;Node10 -->
<g id="edge9" class="edge">
<title>Node9&#45;&gt;Node10</title>
<path fill="none" stroke="midnightblue" d="M362.21,-342.44C377.41,-334.04 399.76,-320.65 417,-306 434.53,-291.1 451.65,-271.01 462.89,-256.82"/>
<polygon fill="midnightblue" stroke="midnightblue" points="465.72,-258.89 469.09,-248.85 460.19,-254.6 465.72,-258.89"/>
</g>
<!-- Node11 -->
<g id="node11" class="node">
<title>Node11</title>
<g id="a_node11"><a xlink:href="_audio_sample_8h.html" target="_top" xlink:title="The AudioSample specification and body provides the definition of the audio sample (a real value).">
<polygon fill="white" stroke="black" points="469,-285.5 469,-305.5 559,-305.5 559,-285.5 469,-285.5"/>
<text text-anchor="middle" x="514" y="-292.7" font-family="Helvetica,sans-Serif" font-size="11.00">AudioSample.h</text>
</a>
</g>
</g>
<!-- Node9&#45;&gt;Node11 -->
<g id="edge10" class="edge">
<title>Node9&#45;&gt;Node11</title>
<path fill="none" stroke="midnightblue" d="M372.91,-342.42C401.25,-333.19 445.3,-318.86 476.64,-308.66"/>
<polygon fill="midnightblue" stroke="midnightblue" points="477.91,-311.93 486.33,-305.5 475.74,-305.27 477.91,-311.93"/>
</g>
<!-- Node20 -->
<g id="node20" class="node">
<title>Node20</title>
<g id="a_node20"><a xlink:href="_audio_sample_list_8cpp-inc.html" target="_top" xlink:title="The AudioSampleList body implements a simple list of audio samples (this is the effective code includ...">
<polygon fill="white" stroke="black" points="237.5,-285.5 237.5,-305.5 374.5,-305.5 374.5,-285.5 237.5,-285.5"/>
<text text-anchor="middle" x="306" y="-292.7" font-family="Helvetica,sans-Serif" font-size="11.00">AudioSampleList.cpp&#45;inc</text>
</a>
</g>
</g>
<!-- Node9&#45;&gt;Node20 -->
<g id="edge22" class="edge">
<title>Node9&#45;&gt;Node20</title>
<path fill="none" stroke="midnightblue" d="M338.56,-342.42C333.12,-334.74 325.16,-323.52 318.48,-314.09"/>
<polygon fill="midnightblue" stroke="midnightblue" points="321.22,-311.91 312.58,-305.78 315.51,-315.96 321.22,-311.91"/>
</g>
<!-- Node12 -->
<g id="node12" class="node">
<title>Node12</title>
<g id="a_node12"><a xlink:href="_real_8h.html" target="_top" xlink:title="The Real specification defines a value object type for real values.">
<polygon fill="white" stroke="black" points="831,-228.5 831,-248.5 879,-248.5 879,-228.5 831,-228.5"/>
<text text-anchor="middle" x="855" y="-235.7" font-family="Helvetica,sans-Serif" font-size="11.00">Real.h</text>
</a>
</g>
</g>
<!-- Node11&#45;&gt;Node12 -->
<g id="edge11" class="edge">
<title>Node11&#45;&gt;Node12</title>
<path fill="none" stroke="midnightblue" d="M559.23,-289.74C617.63,-283.16 722.52,-269.93 821.12,-248.95"/>
<polygon fill="midnightblue" stroke="midnightblue" points="821.91,-252.36 830.94,-246.83 820.43,-245.52 821.91,-252.36"/>
</g>
<!-- Node13 -->
<g id="node13" class="node">
<title>Node13</title>
<g id="a_node13"><a xlink:title=" ">
<polygon fill="white" stroke="#bfbfbf" points="809.5,-57.5 809.5,-77.5 856.5,-77.5 856.5,-57.5 809.5,-57.5"/>
<text text-anchor="middle" x="833" y="-64.7" font-family="Helvetica,sans-Serif" font-size="11.00">cmath</text>
</a>
</g>
</g>
<!-- Node12&#45;&gt;Node13 -->
<g id="edge12" class="edge">
<title>Node12&#45;&gt;Node13</title>
<path fill="none" stroke="midnightblue" d="M853.82,-228.41C850.37,-201.94 840.28,-124.42 835.53,-87.92"/>
<polygon fill="midnightblue" stroke="midnightblue" points="838.95,-87.1 834.19,-77.63 832.01,-88 838.95,-87.1"/>
</g>
<!-- Node14 -->
<g id="node14" class="node">
<title>Node14</title>
<g id="a_node14"><a xlink:href="_integer_8h.html" target="_top" xlink:title="The Integer specification and body provides a value object type for ints.">
<polygon fill="white" stroke="black" points="740.5,-171.5 740.5,-191.5 799.5,-191.5 799.5,-171.5 740.5,-171.5"/>
<text text-anchor="middle" x="770" y="-178.7" font-family="Helvetica,sans-Serif" font-size="11.00">Integer.h</text>
</a>
</g>
</g>
<!-- Node12&#45;&gt;Node14 -->
<g id="edge13" class="edge">
<title>Node12&#45;&gt;Node14</title>
<path fill="none" stroke="midnightblue" d="M840.96,-228.42C827.8,-219.9 807.89,-207.02 792.51,-197.06"/>
<polygon fill="midnightblue" stroke="midnightblue" points="794.35,-194.09 784.06,-191.6 790.55,-199.97 794.35,-194.09"/>
</g>
<!-- Node14&#45;&gt;Node13 -->
<g id="edge14" class="edge">
<title>Node14&#45;&gt;Node13</title>
<path fill="none" stroke="midnightblue" d="M775.16,-171.33C785.54,-152.88 809.14,-110.92 822.77,-86.69"/>
<polygon fill="midnightblue" stroke="midnightblue" points="825.92,-88.22 827.77,-77.79 819.82,-84.79 825.92,-88.22"/>
</g>
<!-- Node15 -->
<g id="node15" class="node">
<title>Node15</title>
<g id="a_node15"><a xlink:title=" ">
<polygon fill="white" stroke="#bfbfbf" points="703,-114.5 703,-134.5 767,-134.5 767,-114.5 703,-114.5"/>
<text text-anchor="middle" x="735" y="-121.7" font-family="Helvetica,sans-Serif" font-size="11.00">stdexcept</text>
</a>
</g>
</g>
<!-- Node14&#45;&gt;Node15 -->
<g id="edge15" class="edge">
<title>Node14&#45;&gt;Node15</title>
<path fill="none" stroke="midnightblue" d="M764.22,-171.42C759.39,-163.82 752.34,-152.75 746.38,-143.39"/>
<polygon fill="midnightblue" stroke="midnightblue" points="749.23,-141.34 740.91,-134.78 743.32,-145.1 749.23,-141.34"/>
</g>
<!-- Node14&#45;&gt;Node16 -->
<g id="edge16" class="edge">
<title>Node14&#45;&gt;Node16</title>
<path fill="none" stroke="midnightblue" d="M751.01,-171.42C732.53,-162.58 704.24,-149.05 683.14,-138.96"/>
<polygon fill="midnightblue" stroke="midnightblue" points="684.55,-135.75 674.02,-134.6 681.53,-142.07 684.55,-135.75"/>
</g>
<!-- Node16&#45;&gt;Node4 -->
<g id="edge21" class="edge">
<title>Node16&#45;&gt;Node4</title>
<path fill="none" stroke="midnightblue" d="M637.17,-114.42C619.97,-105.66 593.72,-92.29 573.97,-82.23"/>
<polygon fill="midnightblue" stroke="midnightblue" points="575.36,-79.01 564.86,-77.6 572.18,-85.25 575.36,-79.01"/>
</g>
<!-- Node16&#45;&gt;Node13 -->
<g id="edge17" class="edge">
<title>Node16&#45;&gt;Node13</title>
<path fill="none" stroke="midnightblue" d="M684.39,-114.42C716.07,-104.63 766.4,-89.08 799.56,-78.83"/>
<polygon fill="midnightblue" stroke="midnightblue" points="800.74,-82.13 809.27,-75.83 798.68,-75.44 800.74,-82.13"/>
</g>
<!-- Node17 -->
<g id="node17" class="node">
<title>Node17</title>
<g id="a_node17"><a xlink:href="_assertion_8h.html" target="_top" xlink:title="The Assertion specification defines macros for pre&#45; and postconditions in functions or methods.">
<polygon fill="white" stroke="black" points="599.5,-57.5 599.5,-77.5 670.5,-77.5 670.5,-57.5 599.5,-57.5"/>
<text text-anchor="middle" x="635" y="-64.7" font-family="Helvetica,sans-Serif" font-size="11.00">Assertion.h</text>
</a>
</g>
</g>
<!-- Node16&#45;&gt;Node17 -->
<g id="edge18" class="edge">
<title>Node16&#45;&gt;Node17</title>
<path fill="none" stroke="midnightblue" d="M651.7,-114.42C649.02,-107.06 645.16,-96.44 641.83,-87.27"/>
<polygon fill="midnightblue" stroke="midnightblue" points="645.08,-85.98 638.37,-77.78 638.5,-88.37 645.08,-85.98"/>
</g>
<!-- Node19 -->
<g id="node19" class="node">
<title>Node19</title>
<g id="a_node19"><a xlink:title=" ">
<polygon fill="white" stroke="#bfbfbf" points="688.5,-57.5 688.5,-77.5 791.5,-77.5 791.5,-57.5 688.5,-57.5"/>
<text text-anchor="middle" x="740" y="-64.7" font-family="Helvetica,sans-Serif" font-size="11.00">GenericNumber.h</text>
</a>
</g>
</g>
<!-- Node16&#45;&gt;Node19 -->
<g id="edge20" class="edge">
<title>Node16&#45;&gt;Node19</title>
<path fill="none" stroke="midnightblue" d="M669.04,-114.42C682.2,-105.9 702.11,-93.02 717.49,-83.06"/>
<polygon fill="midnightblue" stroke="midnightblue" points="719.45,-85.97 725.94,-77.6 715.65,-80.09 719.45,-85.97"/>
</g>
<!-- Node18 -->
<g id="node18" class="node">
<title>Node18</title>
<g id="a_node18"><a xlink:title=" ">
<polygon fill="white" stroke="#bfbfbf" points="608.5,-0.5 608.5,-20.5 661.5,-20.5 661.5,-0.5 608.5,-0.5"/>
<text text-anchor="middle" x="635" y="-7.7" font-family="Helvetica,sans-Serif" font-size="11.00">cassert</text>
</a>
</g>
</g>
<!-- Node17&#45;&gt;Node18 -->
<g id="edge19" class="edge">
<title>Node17&#45;&gt;Node18</title>
<path fill="none" stroke="midnightblue" d="M635,-57.42C635,-50.22 635,-39.9 635,-30.86"/>
<polygon fill="midnightblue" stroke="midnightblue" points="638.5,-30.78 635,-20.78 631.5,-30.78 638.5,-30.78"/>
</g>
<!-- Node20&#45;&gt;Node21 -->
<g id="edge23" class="edge">
<title>Node20&#45;&gt;Node21</title>
<path fill="none" stroke="midnightblue" d="M306,-285.42C306,-278.22 306,-267.9 306,-258.86"/>
<polygon fill="midnightblue" stroke="midnightblue" points="309.5,-258.78 306,-248.78 302.5,-258.78 309.5,-258.78"/>
</g>
<!-- Node21&#45;&gt;Node16 -->
<g id="edge25" class="edge">
<title>Node21&#45;&gt;Node16</title>
<path fill="none" stroke="midnightblue" d="M314.2,-228.46C328.05,-213.81 357.68,-185.08 389,-171 463.92,-137.32 560.97,-128.43 614.71,-126.17"/>
<polygon fill="midnightblue" stroke="midnightblue" points="614.99,-129.67 624.86,-125.81 614.74,-122.67 614.99,-129.67"/>
</g>
<!-- Node22 -->
<g id="node22" class="node">
<title>Node22</title>
<g id="a_node22"><a xlink:title=" ">
<polygon fill="white" stroke="#bfbfbf" points="281,-171.5 281,-191.5 331,-191.5 331,-171.5 281,-171.5"/>
<text text-anchor="middle" x="306" y="-178.7" font-family="Helvetica,sans-Serif" font-size="11.00">cstring</text>
</a>
</g>
</g>
<!-- Node21&#45;&gt;Node22 -->
<g id="edge24" class="edge">
<title>Node21&#45;&gt;Node22</title>
<path fill="none" stroke="midnightblue" d="M306,-228.42C306,-221.22 306,-210.9 306,-201.86"/>
<polygon fill="midnightblue" stroke="midnightblue" points="309.5,-201.78 306,-191.78 302.5,-201.78 309.5,-201.78"/>
</g>
<!-- Node25 -->
<g id="node25" class="node">
<title>Node25</title>
<g id="a_node25"><a xlink:href="_fluid_synth_8h.html" target="_top" xlink:title="The FluidSynth class specifies an object&#45;oriented wrapper around the fluidsynth library and also allo...">
<polygon fill="white" stroke="black" points="196.5,-342.5 196.5,-362.5 273.5,-362.5 273.5,-342.5 196.5,-342.5"/>
<text text-anchor="middle" x="235" y="-349.7" font-family="Helvetica,sans-Serif" font-size="11.00">FluidSynth.h</text>
</a>
</g>
</g>
<!-- Node24&#45;&gt;Node25 -->
<g id="edge30" class="edge">
<title>Node24&#45;&gt;Node25</title>
<path fill="none" stroke="midnightblue" d="M250.86,-399.42C248.32,-392.06 244.65,-381.44 241.48,-372.27"/>
<polygon fill="midnightblue" stroke="midnightblue" points="244.78,-371.09 238.21,-362.78 238.16,-373.37 244.78,-371.09"/>
</g>
<!-- Node25&#45;&gt;Node3 -->
<g id="edge32" class="edge">
<title>Node25&#45;&gt;Node3</title>
<path fill="none" stroke="midnightblue" d="M227.07,-342.42C220.24,-334.58 210.18,-323.06 201.85,-313.51"/>
<polygon fill="midnightblue" stroke="midnightblue" points="204.31,-311.01 195.1,-305.78 199.04,-315.62 204.31,-311.01"/>
</g>
<!-- Node25&#45;&gt;Node16 -->
<g id="edge31" class="edge">
<title>Node25&#45;&gt;Node16</title>
<path fill="none" stroke="midnightblue" d="M273.73,-343.07C311.66,-334.22 366.16,-319.69 383,-306 413.72,-281.03 396.87,-254.81 426,-228 481.17,-177.23 565.69,-148.39 615.14,-134.95"/>
<polygon fill="midnightblue" stroke="midnightblue" points="616.07,-138.32 624.84,-132.38 614.28,-131.55 616.07,-138.32"/>
</g>
<!-- Node27 -->
<g id="node27" class="node">
<title>Node27</title>
<g id="a_node27"><a xlink:title=" ">
<polygon fill="white" stroke="#bfbfbf" points="762.5,-342.5 762.5,-362.5 815.5,-362.5 815.5,-342.5 762.5,-342.5"/>
<text text-anchor="middle" x="789" y="-349.7" font-family="Helvetica,sans-Serif" font-size="11.00">cstdarg</text>
</a>
</g>
</g>
<!-- Node26&#45;&gt;Node27 -->
<g id="edge34" class="edge">
<title>Node26&#45;&gt;Node27</title>
<path fill="none" stroke="midnightblue" d="M748.93,-399.42C755.76,-391.58 765.82,-380.06 774.15,-370.51"/>
<polygon fill="midnightblue" stroke="midnightblue" points="776.96,-372.62 780.9,-362.78 771.69,-368.01 776.96,-372.62"/>
</g>
<!-- Node28 -->
<g id="node28" class="node">
<title>Node28</title>
<g id="a_node28"><a xlink:href="_logging_support_8h.html" target="_top" xlink:title="The LoggingSupport specification defines a class for simple entry/exit logging to a file; this loggin...">
<polygon fill="white" stroke="black" points="642,-342.5 642,-362.5 744,-362.5 744,-342.5 642,-342.5"/>
<text text-anchor="middle" x="693" y="-349.7" font-family="Helvetica,sans-Serif" font-size="11.00">LoggingSupport.h</text>
</a>
</g>
</g>
<!-- Node26&#45;&gt;Node28 -->
<g id="edge35" class="edge">
<title>Node26&#45;&gt;Node28</title>
<path fill="none" stroke="midnightblue" d="M733.07,-399.42C726.24,-391.58 716.18,-380.06 707.85,-370.51"/>
<polygon fill="midnightblue" stroke="midnightblue" points="710.31,-368.01 701.1,-362.78 705.04,-372.62 710.31,-368.01"/>
</g>
<!-- Node30 -->
<g id="node30" class="node">
<title>Node30</title>
<g id="a_node30"><a xlink:href="_string_util_8h.html" target="_top" xlink:title="The StringUtil specification defines several string routines not included in the standard C++ library...">
<polygon fill="white" stroke="black" points="833.5,-342.5 833.5,-362.5 902.5,-362.5 902.5,-342.5 833.5,-342.5"/>
<text text-anchor="middle" x="868" y="-349.7" font-family="Helvetica,sans-Serif" font-size="11.00">StringUtil.h</text>
</a>
</g>
</g>
<!-- Node26&#45;&gt;Node30 -->
<g id="edge39" class="edge">
<title>Node26&#45;&gt;Node30</title>
<path fill="none" stroke="midnightblue" d="M761.97,-399.42C782.56,-390.5 814.19,-376.8 837.55,-366.69"/>
<polygon fill="midnightblue" stroke="midnightblue" points="839.21,-369.78 847,-362.6 836.43,-363.36 839.21,-369.78"/>
</g>
<!-- Node28&#45;&gt;Node16 -->
<g id="edge38" class="edge">
<title>Node28&#45;&gt;Node16</title>
<path fill="none" stroke="midnightblue" d="M692.88,-342.42C692.62,-329.58 691.77,-305.4 689,-285 682.04,-233.75 667.7,-174.43 660.06,-144.65"/>
<polygon fill="midnightblue" stroke="midnightblue" points="663.39,-143.56 657.49,-134.76 656.62,-145.32 663.39,-143.56"/>
</g>
<!-- Node29 -->
<g id="node29" class="node">
<title>Node29</title>
<g id="a_node29"><a xlink:href="_boolean_8h.html" target="_top" xlink:title="The Boolean specification and body provides a value object type for boolean values.">
<polygon fill="white" stroke="black" points="615.5,-285.5 615.5,-305.5 680.5,-305.5 680.5,-285.5 615.5,-285.5"/>
<text text-anchor="middle" x="648" y="-292.7" font-family="Helvetica,sans-Serif" font-size="11.00">Boolean.h</text>
</a>
</g>
</g>
<!-- Node28&#45;&gt;Node29 -->
<g id="edge36" class="edge">
<title>Node28&#45;&gt;Node29</title>
<path fill="none" stroke="midnightblue" d="M685.57,-342.42C679.22,-334.66 669.92,-323.29 662.16,-313.8"/>
<polygon fill="midnightblue" stroke="midnightblue" points="664.63,-311.3 655.59,-305.78 659.22,-315.74 664.63,-311.3"/>
</g>
<!-- Node29&#45;&gt;Node4 -->
<g id="edge37" class="edge">
<title>Node29&#45;&gt;Node4</title>
<path fill="none" stroke="midnightblue" d="M643.92,-285.36C628.78,-251.5 575.72,-132.77 555.2,-86.84"/>
<polygon fill="midnightblue" stroke="midnightblue" points="558.3,-85.21 551.02,-77.51 551.91,-88.06 558.3,-85.21"/>
</g>
<!-- Node30&#45;&gt;Node29 -->
<g id="edge40" class="edge">
<title>Node30&#45;&gt;Node29</title>
<path fill="none" stroke="midnightblue" d="M833.14,-342.79C794.41,-333.1 731.88,-317.47 690.36,-307.09"/>
<polygon fill="midnightblue" stroke="midnightblue" points="691.1,-303.67 680.54,-304.64 689.4,-310.46 691.1,-303.67"/>
</g>
<!-- Node31 -->
<g id="node31" class="node">
<title>Node31</title>
<g id="a_node31"><a xlink:href="_byte_8h.html" target="_top" xlink:title="The Byte specification and body provides a value object type for byte values.">
<polygon fill="white" stroke="black" points="953.5,-171.5 953.5,-191.5 1000.5,-191.5 1000.5,-171.5 953.5,-171.5"/>
<text text-anchor="middle" x="977" y="-178.7" font-family="Helvetica,sans-Serif" font-size="11.00">Byte.h</text>
</a>
</g>
</g>
<!-- Node30&#45;&gt;Node31 -->
<g id="edge41" class="edge">
<title>Node30&#45;&gt;Node31</title>
<path fill="none" stroke="midnightblue" d="M887.26,-342.47C901.95,-334.69 921.68,-322.16 934,-306 958.21,-274.22 969.46,-227.78 974.12,-201.85"/>
<polygon fill="midnightblue" stroke="midnightblue" points="977.6,-202.23 975.78,-191.8 970.7,-201.09 977.6,-202.23"/>
</g>
<!-- Node32 -->
<g id="node32" class="node">
<title>Node32</title>
<g id="a_node32"><a xlink:href="_character_8h.html" target="_top" xlink:title="The Character specification and body provides a value object type for character values.">
<polygon fill="white" stroke="black" points="861,-171.5 861,-191.5 935,-191.5 935,-171.5 861,-171.5"/>
<text text-anchor="middle" x="898" y="-178.7" font-family="Helvetica,sans-Serif" font-size="11.00">Character.h</text>
</a>
</g>
</g>
<!-- Node30&#45;&gt;Node32 -->
<g id="edge44" class="edge">
<title>Node30&#45;&gt;Node32</title>
<path fill="none" stroke="midnightblue" d="M883.92,-342.2C895.78,-334.27 911.07,-321.67 918,-306 933.45,-271.06 918.23,-225.84 907.19,-200.95"/>
<polygon fill="midnightblue" stroke="midnightblue" points="910.23,-199.19 902.82,-191.62 903.89,-202.16 910.23,-199.19"/>
</g>
<!-- Node33 -->
<g id="node33" class="node">
<title>Node33</title>
<g id="a_node33"><a xlink:href="_percentage_8h.html" target="_top" xlink:title="The Percentage specification and body provides a simple percentage type.">
<polygon fill="white" stroke="black" points="827,-285.5 827,-305.5 909,-305.5 909,-285.5 827,-285.5"/>
<text text-anchor="middle" x="868" y="-292.7" font-family="Helvetica,sans-Serif" font-size="11.00">Percentage.h</text>
</a>
</g>
</g>
<!-- Node30&#45;&gt;Node33 -->
<g id="edge47" class="edge">
<title>Node30&#45;&gt;Node33</title>
<path fill="none" stroke="midnightblue" d="M868,-342.42C868,-335.22 868,-324.9 868,-315.86"/>
<polygon fill="midnightblue" stroke="midnightblue" points="871.5,-315.78 868,-305.78 864.5,-315.78 871.5,-315.78"/>
</g>
<!-- Node34 -->
<g id="node34" class="node">
<title>Node34</title>
<g id="a_node34"><a xlink:href="_string_list_8h.html" target="_top" xlink:title="The StringList specification defines lists of string values with zero&#45;based arbitrary indexed access ...">
<polygon fill="white" stroke="black" points="737.5,-285.5 737.5,-305.5 808.5,-305.5 808.5,-285.5 737.5,-285.5"/>
<text text-anchor="middle" x="773" y="-292.7" font-family="Helvetica,sans-Serif" font-size="11.00">StringList.h</text>
</a>
</g>
</g>
<!-- Node30&#45;&gt;Node34 -->
<g id="edge49" class="edge">
<title>Node30&#45;&gt;Node34</title>
<path fill="none" stroke="midnightblue" d="M852.31,-342.42C837.46,-333.82 814.93,-320.78 797.67,-310.78"/>
<polygon fill="midnightblue" stroke="midnightblue" points="799.12,-307.58 788.71,-305.6 795.61,-313.64 799.12,-307.58"/>
</g>
<!-- Node31&#45;&gt;Node13 -->
<g id="edge42" class="edge">
<title>Node31&#45;&gt;Node13</title>
<path fill="none" stroke="midnightblue" d="M965.22,-171.33C940.64,-152.22 883.67,-107.91 853.15,-84.18"/>
<polygon fill="midnightblue" stroke="midnightblue" points="854.99,-81.17 844.95,-77.79 850.69,-86.69 854.99,-81.17"/>
</g>
<!-- Node31&#45;&gt;Node16 -->
<g id="edge43" class="edge">
<title>Node31&#45;&gt;Node16</title>
<path fill="none" stroke="midnightblue" d="M953.31,-173.26C950.19,-172.43 947.03,-171.65 944,-171 837.36,-148.08 805.98,-155.83 695.07,-135.04"/>
<polygon fill="midnightblue" stroke="midnightblue" points="695.65,-131.59 685.17,-133.15 694.34,-138.47 695.65,-131.59"/>
</g>
<!-- Node32&#45;&gt;Node13 -->
<g id="edge45" class="edge">
<title>Node32&#45;&gt;Node13</title>
<path fill="none" stroke="midnightblue" d="M892.68,-171.33C881.97,-152.88 857.62,-110.92 843.56,-86.69"/>
<polygon fill="midnightblue" stroke="midnightblue" points="846.44,-84.68 838.39,-77.79 840.39,-88.2 846.44,-84.68"/>
</g>
<!-- Node32&#45;&gt;Node16 -->
<g id="edge46" class="edge">
<title>Node32&#45;&gt;Node16</title>
<path fill="none" stroke="midnightblue" d="M860.73,-172.41C821.79,-163.92 758.67,-150 695.02,-135.21"/>
<polygon fill="midnightblue" stroke="midnightblue" points="695.75,-131.78 685.22,-132.92 694.16,-138.6 695.75,-131.78"/>
</g>
<!-- Node33&#45;&gt;Node12 -->
<g id="edge48" class="edge">
<title>Node33&#45;&gt;Node12</title>
<path fill="none" stroke="midnightblue" d="M865.85,-285.42C864.13,-278.14 861.66,-267.67 859.51,-258.57"/>
<polygon fill="midnightblue" stroke="midnightblue" points="862.9,-257.71 857.19,-248.78 856.09,-259.32 862.9,-257.71"/>
</g>
<!-- Node34&#45;&gt;Node10 -->
<g id="edge51" class="edge">
<title>Node34&#45;&gt;Node10</title>
<path fill="none" stroke="midnightblue" d="M737.47,-287.92C685.07,-278.22 586.81,-260.02 526.81,-248.91"/>
<polygon fill="midnightblue" stroke="midnightblue" points="527.27,-245.43 516.8,-247.05 525.99,-252.32 527.27,-245.43"/>
</g>
<!-- Node35 -->
<g id="node35" class="node">
<title>Node35</title>
<g id="a_node35"><a xlink:title=" ">
<polygon fill="white" stroke="#bfbfbf" points="735,-228.5 735,-248.5 813,-248.5 813,-228.5 735,-228.5"/>
<text text-anchor="middle" x="774" y="-235.7" font-family="Helvetica,sans-Serif" font-size="11.00">initializer_list</text>
</a>
</g>
</g>
<!-- Node34&#45;&gt;Node35 -->
<g id="edge50" class="edge">
<title>Node34&#45;&gt;Node35</title>
<path fill="none" stroke="midnightblue" d="M773.17,-285.42C773.3,-278.22 773.48,-267.9 773.65,-258.86"/>
<polygon fill="midnightblue" stroke="midnightblue" points="777.15,-258.84 773.83,-248.78 770.15,-258.71 777.15,-258.84"/>
</g>
</g>
</svg>
        <g id="navigator" transform="translate(0 0)" fill="#404254">
                <rect fill="#f2f5e9" fill-opacity="0.5" stroke="#606060" stroke-width=".5" x="0" y="0" width="60" height="60"/>
                <use id="zoomplus" xlink:href="#zoomPlus" x="17" y="9" onmousedown="handleZoom(evt,'in')"/>
                <use id="zoomminus" xlink:href="#zoomMin" x="42" y="9" onmousedown="handleZoom(evt,'out')"/>
                <use id="reset" xlink:href="#resetDef" x="30" y="36" onmousedown="handleReset()"/>
                <g id="arrowUp" xlink:href="#dirArrow" transform="translate(30 24)" onmousedown="handlePan(0,-1)">
                  <use xlink:href="#rim" fill="#404040">
                        <set attributeName="fill" to="#808080" begin="arrowUp.mouseover" end="arrowUp.mouseout"/>
                  </use>
                  <path fill="none" stroke="white" stroke-width="1.5" d="M0,-3.0v7 M-2.5,-0.5L0,-3.0L2.5,-0.5"/>
                </g>
                <g id="arrowRight" xlink:href="#dirArrow" transform="rotate(90) translate(36 -43)" onmousedown="handlePan(1,0)">
                  <use xlink:href="#rim" fill="#404040">
                        <set attributeName="fill" to="#808080" begin="arrowRight.mouseover" end="arrowRight.mouseout"/>
                  </use>
                  <path fill="none" stroke="white" stroke-width="1.5" d="M0,-3.0v7 M-2.5,-0.5L0,-3.0L2.5,-0.5"/>
                </g>
                <g id="arrowDown" xlink:href="#dirArrow" transform="rotate(180) translate(-30 -48)" onmousedown="handlePan(0,1)">
                  <use xlink:href="#rim" fill="#404040">
                        <set attributeName="fill" to="#808080" begin="arrowDown.mouseover" end="arrowDown.mouseout"/>
                  </use>
                  <path fill="none" stroke="white" stroke-width="1.5" d="M0,-3.0v7 M-2.5,-0.5L0,-3.0L2.5,-0.5"/>
                </g>
                <g id="arrowLeft" xlink:href="#dirArrow" transform="rotate(270) translate(-36 17)" onmousedown="handlePan(-1,0)">
                  <use xlink:href="#rim" fill="#404040">
                        <set attributeName="fill" to="#808080" begin="arrowLeft.mouseover" end="arrowLeft.mouseout"/>
                  </use>
                  <path fill="none" stroke="white" stroke-width="1.5" d="M0,-3.0v7 M-2.5,-0.5L0,-3.0L2.5,-0.5"/>
                </g>
        </g>
        <svg viewBox="0 0 15 15" width="100%" height="30px" preserveAspectRatio="xMaxYMin meet">
         <g id="arrow_out" transform="scale(0.3 0.3)">
          <a xlink:href="_fluid_synth_synthesizer_8cpp__incl_org.svg" target="_base">
           <rect id="button" ry="5" rx="5" y="6" x="6" height="38" width="38"
                fill="#f2f5e9" fill-opacity="0.5" stroke="#606060" stroke-width="1.0"/>
           <path id="arrow"
             d="M 11.500037,31.436501 C 11.940474,20.09759 22.043105,11.32322 32.158766,21.979434 L 37.068811,17.246167 C 37.068811,17.246167 37.088388,32 37.088388,32 L 22.160133,31.978069 C 22.160133,31.978069 26.997745,27.140456 26.997745,27.140456 C 18.528582,18.264221 13.291696,25.230495 11.500037,31.436501 z"
             style="fill:#404040;"/>
          </a>
         </g>
        </svg>
</svg>
