<?xml version="1.0" encoding="UTF-8" standalone="no"?>
<!DOCTYPE svg PUBLIC "-//W3C//DTD SVG 1.1//EN"
 "http://www.w3.org/Graphics/SVG/1.1/DTD/svg11.dtd">
<!-- Generated by graphviz version 2.47.1 (20210417.1919)
 -->
<!-- Title: FluidSynth.cpp Pages: 1 -->
<!--zoomable 476 -->
<svg id="main" version="1.1" xmlns="http://www.w3.org/2000/svg" xmlns:xlink="http://www.w3.org/1999/xlink" xml:space="preserve" onload="init(evt)">
<style type="text/css"><![CDATA[
.edge:hover path { stroke: red; }
.edge:hover polygon { stroke: red; fill: red; }
]]></style>
<script type="text/javascript"><![CDATA[
var edges = document.getElementsByTagName('g');
if (edges && edges.length) {
  for (var i=0;i<edges.length;i++) {
    if (edges[i].id.substr(0,4)=='edge') {
      edges[i].setAttribute('class','edge');
    }
  }
}
]]></script>
        <defs>
                <circle id="rim" cx="0" cy="0" r="7"/>
                <circle id="rim2" cx="0" cy="0" r="3.5"/>
                <g id="zoomPlus">
                        <use xlink:href="#rim" fill="#404040">
                                <set attributeName="fill" to="#808080" begin="zoomplus.mouseover" end="zoomplus.mouseout"/>
                        </use>
                        <path d="M-4,0h8M0,-4v8" fill="none" stroke="white" stroke-width="1.5" pointer-events="none"/>
                </g>
                <g id="zoomMin">
                        <use xlink:href="#rim" fill="#404040">
                                <set attributeName="fill" to="#808080" begin="zoomminus.mouseover" end="zoomminus.mouseout"/>
                        </use>
                        <path d="M-4,0h8" fill="none" stroke="white" stroke-width="1.5" pointer-events="none"/>
                </g>
                <g id="dirArrow">
                        <path fill="none" stroke="white" stroke-width="1.5" d="M0,-3.0v7 M-2.5,-0.5L0,-3.0L2.5,-0.5"/>
                </g>
               <g id="resetDef">
                       <use xlink:href="#rim2" fill="#404040">
                               <set attributeName="fill" to="#808080" begin="reset.mouseover" end="reset.mouseout"/>
                       </use>
               </g>
        </defs>

<script type="text/javascript">
var viewWidth = 737;
var viewHeight = 476;
var sectionId = 'dynsection-0';
</script>
<script xlink:href="svgpan.js"/>
<svg id="graph" class="graph">
<g id="viewport">
<title>FluidSynth.cpp</title>
<polygon fill="white" stroke="transparent" points="-4,4 -4,-472 732.5,-472 732.5,4 -4,4"/>
<!-- Node1 -->
<g id="node1" class="node">
<title>Node1</title>
<g id="a_node1"><a xlink:title="The FluidSynth class implements the access to the fluidsynth library via a dynamic loading of it.">
<polygon fill="#bfbfbf" stroke="black" points="501,-448.5 501,-467.5 583,-467.5 583,-448.5 501,-448.5"/>
<text text-anchor="middle" x="542" y="-455.5" font-family="Helvetica,sans-Serif" font-size="10.00">FluidSynth.cpp</text>
</a>
</g>
</g>
<!-- Node2 -->
<g id="node2" class="node">
<title>Node2</title>
<g id="a_node2"><a xlink:href="_logging_8h.html" target="_top" xlink:title="The Logging specification defines macros for entry&#45;, exit&#45; and intermediate logging of functions into...">
<polygon fill="white" stroke="black" points="339.5,-392.5 339.5,-411.5 398.5,-411.5 398.5,-392.5 339.5,-392.5"/>
<text text-anchor="middle" x="369" y="-399.5" font-family="Helvetica,sans-Serif" font-size="10.00">Logging.h</text>
</a>
</g>
</g>
<!-- Node1&#45;&gt;Node2 -->
<g id="edge1" class="edge">
<title>Node1&#45;&gt;Node2</title>
<path fill="none" stroke="midnightblue" d="M514.59,-448.44C485.23,-439.28 438.48,-424.69 405.9,-414.52"/>
<polygon fill="midnightblue" stroke="midnightblue" points="406.87,-411.16 396.28,-411.52 404.79,-417.84 406.87,-411.16"/>
</g>
<!-- Node24 -->
<g id="node24" class="node">
<title>Node24</title>
<g id="a_node24"><a xlink:href="_dictionary_8h.html" target="_top" xlink:title="The Dictionary specification defines maps from string keys to string values.">
<polygon fill="white" stroke="black" points="656,-392.5 656,-411.5 724,-411.5 724,-392.5 656,-392.5"/>
<text text-anchor="middle" x="690" y="-399.5" font-family="Helvetica,sans-Serif" font-size="10.00">Dictionary.h</text>
</a>
</g>
</g>
<!-- Node1&#45;&gt;Node24 -->
<g id="edge32" class="edge">
<title>Node1&#45;&gt;Node24</title>
<path fill="none" stroke="midnightblue" d="M565.45,-448.44C590.13,-439.44 629.19,-425.19 656.98,-415.05"/>
<polygon fill="midnightblue" stroke="midnightblue" points="658.46,-418.23 666.66,-411.52 656.06,-411.66 658.46,-418.23"/>
</g>
<!-- Node26 -->
<g id="node26" class="node">
<title>Node26</title>
<g id="a_node26"><a xlink:href="_fluid_synth_8h.html" target="_top" xlink:title="The FluidSynth class specifies an object&#45;oriented wrapper around the fluidsynth library and also allo...">
<polygon fill="white" stroke="black" points="456.5,-392.5 456.5,-411.5 527.5,-411.5 527.5,-392.5 456.5,-392.5"/>
<text text-anchor="middle" x="492" y="-399.5" font-family="Helvetica,sans-Serif" font-size="10.00">FluidSynth.h</text>
</a>
</g>
</g>
<!-- Node1&#45;&gt;Node26 -->
<g id="edge34" class="edge">
<title>Node1&#45;&gt;Node26</title>
<path fill="none" stroke="midnightblue" d="M533.74,-448.08C526.54,-440.3 515.89,-428.8 507.15,-419.37"/>
<polygon fill="midnightblue" stroke="midnightblue" points="509.47,-416.71 500.1,-411.75 504.33,-421.47 509.47,-416.71"/>
</g>
<!-- Node28 -->
<g id="node28" class="node">
<title>Node28</title>
<g id="a_node28"><a xlink:href="_dynamic_library_8h.html" target="_top" xlink:title="The DynamicLibrary class specifies a very simple and crude wrapper around the dynamic library loading...">
<polygon fill="white" stroke="black" points="546,-392.5 546,-411.5 638,-411.5 638,-392.5 546,-392.5"/>
<text text-anchor="middle" x="592" y="-399.5" font-family="Helvetica,sans-Serif" font-size="10.00">DynamicLibrary.h</text>
</a>
</g>
</g>
<!-- Node1&#45;&gt;Node28 -->
<g id="edge37" class="edge">
<title>Node1&#45;&gt;Node28</title>
<path fill="none" stroke="midnightblue" d="M550.26,-448.08C557.46,-440.3 568.11,-428.8 576.85,-419.37"/>
<polygon fill="midnightblue" stroke="midnightblue" points="579.67,-421.47 583.9,-411.75 574.53,-416.71 579.67,-421.47"/>
</g>
<!-- Node3 -->
<g id="node3" class="node">
<title>Node3</title>
<g id="a_node3"><a xlink:title=" ">
<polygon fill="white" stroke="#bfbfbf" points="298.5,-336.5 298.5,-355.5 347.5,-355.5 347.5,-336.5 298.5,-336.5"/>
<text text-anchor="middle" x="323" y="-343.5" font-family="Helvetica,sans-Serif" font-size="10.00">cstdarg</text>
</a>
</g>
</g>
<!-- Node2&#45;&gt;Node3 -->
<g id="edge2" class="edge">
<title>Node2&#45;&gt;Node3</title>
<path fill="none" stroke="midnightblue" d="M361.4,-392.08C354.77,-384.3 344.98,-372.8 336.94,-363.37"/>
<polygon fill="midnightblue" stroke="midnightblue" points="339.6,-361.09 330.45,-355.75 334.27,-365.63 339.6,-361.09"/>
</g>
<!-- Node4 -->
<g id="node4" class="node">
<title>Node4</title>
<g id="a_node4"><a xlink:href="_logging_support_8h.html" target="_top" xlink:title="The LoggingSupport specification defines a class for simple entry/exit logging to a file or via an ar...">
<polygon fill="white" stroke="black" points="366,-336.5 366,-355.5 458,-355.5 458,-336.5 366,-336.5"/>
<text text-anchor="middle" x="412" y="-343.5" font-family="Helvetica,sans-Serif" font-size="10.00">LoggingSupport.h</text>
</a>
</g>
</g>
<!-- Node2&#45;&gt;Node4 -->
<g id="edge3" class="edge">
<title>Node2&#45;&gt;Node4</title>
<path fill="none" stroke="midnightblue" d="M376.1,-392.08C382.24,-384.38 391.27,-373.03 398.74,-363.65"/>
<polygon fill="midnightblue" stroke="midnightblue" points="401.54,-365.75 405.03,-355.75 396.06,-361.39 401.54,-365.75"/>
</g>
<!-- Node14 -->
<g id="node14" class="node">
<title>Node14</title>
<g id="a_node14"><a xlink:href="_string_util_8h.html" target="_top" xlink:title="The StringUtil specification defines several string routines not included in the standard C++ library...">
<polygon fill="white" stroke="black" points="203.5,-336.5 203.5,-355.5 268.5,-355.5 268.5,-336.5 203.5,-336.5"/>
<text text-anchor="middle" x="236" y="-343.5" font-family="Helvetica,sans-Serif" font-size="10.00">StringUtil.h</text>
</a>
</g>
</g>
<!-- Node2&#45;&gt;Node14 -->
<g id="edge15" class="edge">
<title>Node2&#45;&gt;Node14</title>
<path fill="none" stroke="midnightblue" d="M347.93,-392.44C325.94,-383.52 291.27,-369.44 266.34,-359.32"/>
<polygon fill="midnightblue" stroke="midnightblue" points="267.56,-356.04 256.98,-355.52 264.92,-362.52 267.56,-356.04"/>
</g>
<!-- Node5 -->
<g id="node5" class="node">
<title>Node5</title>
<g id="a_node5"><a xlink:href="_boolean_8h.html" target="_top" xlink:title="The Boolean specification and body provides a value object type for boolean values.">
<polygon fill="white" stroke="black" points="404,-280.5 404,-299.5 464,-299.5 464,-280.5 404,-280.5"/>
<text text-anchor="middle" x="434" y="-287.5" font-family="Helvetica,sans-Serif" font-size="10.00">Boolean.h</text>
</a>
</g>
</g>
<!-- Node4&#45;&gt;Node5 -->
<g id="edge4" class="edge">
<title>Node4&#45;&gt;Node5</title>
<path fill="none" stroke="midnightblue" d="M415.63,-336.08C418.61,-328.77 422.93,-318.18 426.62,-309.1"/>
<polygon fill="midnightblue" stroke="midnightblue" points="429.9,-310.33 430.43,-299.75 423.42,-307.69 429.9,-310.33"/>
</g>
<!-- Node9 -->
<g id="node9" class="node">
<title>Node9</title>
<g id="a_node9"><a xlink:href="_natural_8h.html" target="_top" xlink:title="The Natural specification and body provides a value object type for naturals (positive integers with ...">
<polygon fill="white" stroke="black" points="283,-112.5 283,-131.5 339,-131.5 339,-112.5 283,-112.5"/>
<text text-anchor="middle" x="311" y="-119.5" font-family="Helvetica,sans-Serif" font-size="10.00">Natural.h</text>
</a>
</g>
</g>
<!-- Node4&#45;&gt;Node9 -->
<g id="edge8" class="edge">
<title>Node4&#45;&gt;Node9</title>
<path fill="none" stroke="midnightblue" d="M408.04,-336.3C393.09,-303.42 339.84,-186.39 319.23,-141.09"/>
<polygon fill="midnightblue" stroke="midnightblue" points="322.37,-139.54 315.04,-131.88 316,-142.44 322.37,-139.54"/>
</g>
<!-- Node6 -->
<g id="node6" class="node">
<title>Node6</title>
<g id="a_node6"><a xlink:href="_my_string_8h.html" target="_top" xlink:title="The String specification defines a standard string type.">
<polygon fill="white" stroke="black" points="410,-56.5 410,-75.5 474,-75.5 474,-56.5 410,-56.5"/>
<text text-anchor="middle" x="442" y="-63.5" font-family="Helvetica,sans-Serif" font-size="10.00">MyString.h</text>
</a>
</g>
</g>
<!-- Node5&#45;&gt;Node6 -->
<g id="edge5" class="edge">
<title>Node5&#45;&gt;Node6</title>
<path fill="none" stroke="midnightblue" d="M434.31,-280.3C435.49,-247.63 439.66,-131.87 441.32,-85.96"/>
<polygon fill="midnightblue" stroke="midnightblue" points="444.82,-86 441.68,-75.88 437.82,-85.75 444.82,-86"/>
</g>
<!-- Node7 -->
<g id="node7" class="node">
<title>Node7</title>
<g id="a_node7"><a xlink:title=" ">
<polygon fill="white" stroke="#bfbfbf" points="339.5,-0.5 339.5,-19.5 380.5,-19.5 380.5,-0.5 339.5,-0.5"/>
<text text-anchor="middle" x="360" y="-7.5" font-family="Helvetica,sans-Serif" font-size="10.00">string</text>
</a>
</g>
</g>
<!-- Node6&#45;&gt;Node7 -->
<g id="edge6" class="edge">
<title>Node6&#45;&gt;Node7</title>
<path fill="none" stroke="midnightblue" d="M428.83,-56.32C416.15,-47.98 396.77,-35.21 381.79,-25.35"/>
<polygon fill="midnightblue" stroke="midnightblue" points="383.42,-22.23 373.14,-19.65 379.57,-28.08 383.42,-22.23"/>
</g>
<!-- Node8 -->
<g id="node8" class="node">
<title>Node8</title>
<g id="a_node8"><a xlink:href="_global_macros_8h.html" target="_top" xlink:title="The GlobalMacros specification defines simple macros (e.g. for parameter modes).">
<polygon fill="white" stroke="black" points="399.5,-0.5 399.5,-19.5 484.5,-19.5 484.5,-0.5 399.5,-0.5"/>
<text text-anchor="middle" x="442" y="-7.5" font-family="Helvetica,sans-Serif" font-size="10.00">GlobalMacros.h</text>
</a>
</g>
</g>
<!-- Node6&#45;&gt;Node8 -->
<g id="edge7" class="edge">
<title>Node6&#45;&gt;Node8</title>
<path fill="none" stroke="midnightblue" d="M442,-56.08C442,-49.01 442,-38.86 442,-29.99"/>
<polygon fill="midnightblue" stroke="midnightblue" points="445.5,-29.75 442,-19.75 438.5,-29.75 445.5,-29.75"/>
</g>
<!-- Node9&#45;&gt;Node6 -->
<g id="edge14" class="edge">
<title>Node9&#45;&gt;Node6</title>
<path fill="none" stroke="midnightblue" d="M331.76,-112.44C353.32,-103.56 387.26,-89.56 411.79,-79.45"/>
<polygon fill="midnightblue" stroke="midnightblue" points="413.43,-82.56 421.34,-75.52 410.76,-76.09 413.43,-82.56"/>
</g>
<!-- Node10 -->
<g id="node10" class="node">
<title>Node10</title>
<g id="a_node10"><a xlink:title=" ">
<polygon fill="white" stroke="#bfbfbf" points="103,-56.5 103,-75.5 147,-75.5 147,-56.5 103,-56.5"/>
<text text-anchor="middle" x="125" y="-63.5" font-family="Helvetica,sans-Serif" font-size="10.00">cmath</text>
</a>
</g>
</g>
<!-- Node9&#45;&gt;Node10 -->
<g id="edge9" class="edge">
<title>Node9&#45;&gt;Node10</title>
<path fill="none" stroke="midnightblue" d="M282.75,-112.8C248.9,-102.97 192.32,-86.54 156.92,-76.27"/>
<polygon fill="midnightblue" stroke="midnightblue" points="157.67,-72.84 147.09,-73.41 155.72,-79.56 157.67,-72.84"/>
</g>
<!-- Node11 -->
<g id="node11" class="node">
<title>Node11</title>
<g id="a_node11"><a xlink:href="_assertion_8h.html" target="_top" xlink:title="The Assertion specification defines macros for pre&#45; and postconditions in functions or methods.">
<polygon fill="white" stroke="black" points="326,-56.5 326,-75.5 392,-75.5 392,-56.5 326,-56.5"/>
<text text-anchor="middle" x="359" y="-63.5" font-family="Helvetica,sans-Serif" font-size="10.00">Assertion.h</text>
</a>
</g>
</g>
<!-- Node9&#45;&gt;Node11 -->
<g id="edge10" class="edge">
<title>Node9&#45;&gt;Node11</title>
<path fill="none" stroke="midnightblue" d="M318.93,-112.08C325.85,-104.3 336.07,-92.8 344.45,-83.37"/>
<polygon fill="midnightblue" stroke="midnightblue" points="347.19,-85.55 351.22,-75.75 341.96,-80.9 347.19,-85.55"/>
</g>
<!-- Node13 -->
<g id="node13" class="node">
<title>Node13</title>
<g id="a_node13"><a xlink:title=" ">
<polygon fill="white" stroke="#bfbfbf" points="216,-56.5 216,-75.5 308,-75.5 308,-56.5 216,-56.5"/>
<text text-anchor="middle" x="262" y="-63.5" font-family="Helvetica,sans-Serif" font-size="10.00">GenericNumber.h</text>
</a>
</g>
</g>
<!-- Node9&#45;&gt;Node13 -->
<g id="edge13" class="edge">
<title>Node9&#45;&gt;Node13</title>
<path fill="none" stroke="midnightblue" d="M302.91,-112.08C295.84,-104.3 285.41,-92.8 276.85,-83.37"/>
<polygon fill="midnightblue" stroke="midnightblue" points="279.25,-80.8 269.94,-75.75 274.07,-85.51 279.25,-80.8"/>
</g>
<!-- Node11&#45;&gt;Node7 -->
<g id="edge12" class="edge">
<title>Node11&#45;&gt;Node7</title>
<path fill="none" stroke="midnightblue" d="M359.17,-56.08C359.3,-49.01 359.48,-38.86 359.65,-29.99"/>
<polygon fill="midnightblue" stroke="midnightblue" points="363.15,-29.81 359.84,-19.75 356.15,-29.68 363.15,-29.81"/>
</g>
<!-- Node12 -->
<g id="node12" class="node">
<title>Node12</title>
<g id="a_node12"><a xlink:title=" ">
<polygon fill="white" stroke="#bfbfbf" points="211.5,-0.5 211.5,-19.5 270.5,-19.5 270.5,-0.5 211.5,-0.5"/>
<text text-anchor="middle" x="241" y="-7.5" font-family="Helvetica,sans-Serif" font-size="10.00">stdexcept</text>
</a>
</g>
</g>
<!-- Node11&#45;&gt;Node12 -->
<g id="edge11" class="edge">
<title>Node11&#45;&gt;Node12</title>
<path fill="none" stroke="midnightblue" d="M340.3,-56.44C321.06,-47.64 290.85,-33.81 268.8,-23.72"/>
<polygon fill="midnightblue" stroke="midnightblue" points="270.16,-20.5 259.61,-19.52 267.25,-26.86 270.16,-20.5"/>
</g>
<!-- Node14&#45;&gt;Node5 -->
<g id="edge16" class="edge">
<title>Node14&#45;&gt;Node5</title>
<path fill="none" stroke="midnightblue" d="M267.37,-336.44C301.56,-327.12 356.36,-312.17 393.71,-301.99"/>
<polygon fill="midnightblue" stroke="midnightblue" points="395.02,-305.26 403.75,-299.25 393.18,-298.51 395.02,-305.26"/>
</g>
<!-- Node15 -->
<g id="node15" class="node">
<title>Node15</title>
<g id="a_node15"><a xlink:href="_character_8h.html" target="_top" xlink:title="The Character specification and body provides a value object type for character values.">
<polygon fill="white" stroke="black" points="34.5,-224.5 34.5,-243.5 101.5,-243.5 101.5,-224.5 34.5,-224.5"/>
<text text-anchor="middle" x="68" y="-231.5" font-family="Helvetica,sans-Serif" font-size="10.00">Character.h</text>
</a>
</g>
</g>
<!-- Node14&#45;&gt;Node15 -->
<g id="edge17" class="edge">
<title>Node14&#45;&gt;Node15</title>
<path fill="none" stroke="midnightblue" d="M203.33,-341.62C173.07,-336.94 128.41,-325.88 99,-300 85.24,-287.89 77.07,-268.33 72.6,-253.83"/>
<polygon fill="midnightblue" stroke="midnightblue" points="75.91,-252.64 69.88,-243.93 69.16,-254.5 75.91,-252.64"/>
</g>
<!-- Node18 -->
<g id="node18" class="node">
<title>Node18</title>
<g id="a_node18"><a xlink:href="_percentage_8h.html" target="_top" xlink:title="The Percentage specification and body provides a simple percentage type.">
<polygon fill="white" stroke="black" points="108,-280.5 108,-299.5 182,-299.5 182,-280.5 108,-280.5"/>
<text text-anchor="middle" x="145" y="-287.5" font-family="Helvetica,sans-Serif" font-size="10.00">Percentage.h</text>
</a>
</g>
</g>
<!-- Node14&#45;&gt;Node18 -->
<g id="edge23" class="edge">
<title>Node14&#45;&gt;Node18</title>
<path fill="none" stroke="midnightblue" d="M221.38,-336.32C207.05,-327.82 184.99,-314.73 168.25,-304.8"/>
<polygon fill="midnightblue" stroke="midnightblue" points="169.97,-301.75 159.58,-299.65 166.4,-307.77 169.97,-301.75"/>
</g>
<!-- Node21 -->
<g id="node21" class="node">
<title>Node21</title>
<g id="a_node21"><a xlink:href="_string_list_8h.html" target="_top" xlink:title="The StringList specification defines lists of string values with zero&#45;based arbitrary indexed access ...">
<polygon fill="white" stroke="black" points="203,-280.5 203,-299.5 269,-299.5 269,-280.5 203,-280.5"/>
<text text-anchor="middle" x="236" y="-287.5" font-family="Helvetica,sans-Serif" font-size="10.00">StringList.h</text>
</a>
</g>
</g>
<!-- Node14&#45;&gt;Node21 -->
<g id="edge29" class="edge">
<title>Node14&#45;&gt;Node21</title>
<path fill="none" stroke="midnightblue" d="M236,-336.08C236,-329.01 236,-318.86 236,-309.99"/>
<polygon fill="midnightblue" stroke="midnightblue" points="239.5,-309.75 236,-299.75 232.5,-309.75 239.5,-309.75"/>
</g>
<!-- Node15&#45;&gt;Node10 -->
<g id="edge18" class="edge">
<title>Node15&#45;&gt;Node10</title>
<path fill="none" stroke="midnightblue" d="M73.39,-224.32C78.7,-215.45 86.77,-201.17 92,-188 105.95,-152.89 116.15,-109.78 121.27,-85.65"/>
<polygon fill="midnightblue" stroke="midnightblue" points="124.73,-86.22 123.32,-75.72 117.87,-84.81 124.73,-86.22"/>
</g>
<!-- Node16 -->
<g id="node16" class="node">
<title>Node16</title>
<g id="a_node16"><a xlink:href="_byte_8h.html" target="_top" xlink:title="The Byte specification and body provides a value object type for byte values.">
<polygon fill="white" stroke="black" points="38.5,-168.5 38.5,-187.5 83.5,-187.5 83.5,-168.5 38.5,-168.5"/>
<text text-anchor="middle" x="61" y="-175.5" font-family="Helvetica,sans-Serif" font-size="10.00">Byte.h</text>
</a>
</g>
</g>
<!-- Node15&#45;&gt;Node16 -->
<g id="edge19" class="edge">
<title>Node15&#45;&gt;Node16</title>
<path fill="none" stroke="midnightblue" d="M66.84,-224.08C65.92,-216.93 64.58,-206.64 63.42,-197.69"/>
<polygon fill="midnightblue" stroke="midnightblue" points="66.89,-197.22 62.13,-187.75 59.95,-198.12 66.89,-197.22"/>
</g>
<!-- Node16&#45;&gt;Node9 -->
<g id="edge22" class="edge">
<title>Node16&#45;&gt;Node9</title>
<path fill="none" stroke="midnightblue" d="M83.63,-172.11C126.56,-162.84 220.25,-142.6 272.98,-131.21"/>
<polygon fill="midnightblue" stroke="midnightblue" points="273.92,-134.59 282.96,-129.06 272.44,-127.75 273.92,-134.59"/>
</g>
<!-- Node16&#45;&gt;Node10 -->
<g id="edge20" class="edge">
<title>Node16&#45;&gt;Node10</title>
<path fill="none" stroke="midnightblue" d="M65.96,-168.13C73,-155.58 86.34,-131.95 98,-112 103.35,-102.84 109.42,-92.7 114.45,-84.37"/>
<polygon fill="midnightblue" stroke="midnightblue" points="117.58,-85.96 119.77,-75.59 111.59,-82.33 117.58,-85.96"/>
</g>
<!-- Node17 -->
<g id="node17" class="node">
<title>Node17</title>
<g id="a_node17"><a xlink:title=" ">
<polygon fill="white" stroke="#bfbfbf" points="0,-112.5 0,-131.5 46,-131.5 46,-112.5 0,-112.5"/>
<text text-anchor="middle" x="23" y="-119.5" font-family="Helvetica,sans-Serif" font-size="10.00">cstdint</text>
</a>
</g>
</g>
<!-- Node16&#45;&gt;Node17 -->
<g id="edge21" class="edge">
<title>Node16&#45;&gt;Node17</title>
<path fill="none" stroke="midnightblue" d="M54.73,-168.08C49.36,-160.46 41.48,-149.26 34.92,-139.94"/>
<polygon fill="midnightblue" stroke="midnightblue" points="37.78,-137.91 29.16,-131.75 32.05,-141.94 37.78,-137.91"/>
</g>
<!-- Node19 -->
<g id="node19" class="node">
<title>Node19</title>
<g id="a_node19"><a xlink:href="_real_8h.html" target="_top" xlink:title="The Real specification defines a value object type for real values.">
<polygon fill="white" stroke="black" points="120,-224.5 120,-243.5 164,-243.5 164,-224.5 120,-224.5"/>
<text text-anchor="middle" x="142" y="-231.5" font-family="Helvetica,sans-Serif" font-size="10.00">Real.h</text>
</a>
</g>
</g>
<!-- Node18&#45;&gt;Node19 -->
<g id="edge24" class="edge">
<title>Node18&#45;&gt;Node19</title>
<path fill="none" stroke="midnightblue" d="M144.5,-280.08C144.11,-273.01 143.55,-262.86 143.05,-253.99"/>
<polygon fill="midnightblue" stroke="midnightblue" points="146.54,-253.54 142.49,-243.75 139.55,-253.93 146.54,-253.54"/>
</g>
<!-- Node20 -->
<g id="node20" class="node">
<title>Node20</title>
<g id="a_node20"><a xlink:href="_integer_8h.html" target="_top" xlink:title="The Integer specification and body provides a value object type for ints.">
<polygon fill="white" stroke="black" points="151,-168.5 151,-187.5 205,-187.5 205,-168.5 151,-168.5"/>
<text text-anchor="middle" x="178" y="-175.5" font-family="Helvetica,sans-Serif" font-size="10.00">Integer.h</text>
</a>
</g>
</g>
<!-- Node19&#45;&gt;Node20 -->
<g id="edge25" class="edge">
<title>Node19&#45;&gt;Node20</title>
<path fill="none" stroke="midnightblue" d="M147.94,-224.08C152.98,-216.53 160.34,-205.49 166.51,-196.23"/>
<polygon fill="midnightblue" stroke="midnightblue" points="169.53,-198.01 172.17,-187.75 163.71,-194.13 169.53,-198.01"/>
</g>
<!-- Node20&#45;&gt;Node9 -->
<g id="edge28" class="edge">
<title>Node20&#45;&gt;Node9</title>
<path fill="none" stroke="midnightblue" d="M199.07,-168.44C221.06,-159.52 255.73,-145.44 280.66,-135.32"/>
<polygon fill="midnightblue" stroke="midnightblue" points="282.08,-138.52 290.02,-131.52 279.44,-132.04 282.08,-138.52"/>
</g>
<!-- Node20&#45;&gt;Node10 -->
<g id="edge26" class="edge">
<title>Node20&#45;&gt;Node10</title>
<path fill="none" stroke="midnightblue" d="M173.84,-168.37C165.17,-150.38 145.02,-108.55 133.49,-84.63"/>
<polygon fill="midnightblue" stroke="midnightblue" points="136.63,-83.08 129.14,-75.59 130.33,-86.12 136.63,-83.08"/>
</g>
<!-- Node20&#45;&gt;Node12 -->
<g id="edge27" class="edge">
<title>Node20&#45;&gt;Node12</title>
<path fill="none" stroke="midnightblue" d="M178.84,-168.39C181.08,-147.98 188.37,-95.46 207,-56 211.9,-45.62 219.45,-35.3 226.19,-27.18"/>
<polygon fill="midnightblue" stroke="midnightblue" points="228.86,-29.43 232.77,-19.58 223.57,-24.84 228.86,-29.43"/>
</g>
<!-- Node22 -->
<g id="node22" class="node">
<title>Node22</title>
<g id="a_node22"><a xlink:title=" ">
<polygon fill="white" stroke="#bfbfbf" points="274.5,-224.5 274.5,-243.5 347.5,-243.5 347.5,-224.5 274.5,-224.5"/>
<text text-anchor="middle" x="311" y="-231.5" font-family="Helvetica,sans-Serif" font-size="10.00">initializer_list</text>
</a>
</g>
</g>
<!-- Node21&#45;&gt;Node22 -->
<g id="edge30" class="edge">
<title>Node21&#45;&gt;Node22</title>
<path fill="none" stroke="midnightblue" d="M248.05,-280.32C259.46,-272.11 276.83,-259.6 290.43,-249.81"/>
<polygon fill="midnightblue" stroke="midnightblue" points="292.66,-252.52 298.73,-243.83 288.57,-246.84 292.66,-252.52"/>
</g>
<!-- Node23 -->
<g id="node23" class="node">
<title>Node23</title>
<g id="a_node23"><a xlink:title=" ">
<polygon fill="white" stroke="#bfbfbf" points="182,-224.5 182,-243.5 256,-243.5 256,-224.5 182,-224.5"/>
<text text-anchor="middle" x="219" y="-231.5" font-family="Helvetica,sans-Serif" font-size="10.00">GenericList.h</text>
</a>
</g>
</g>
<!-- Node21&#45;&gt;Node23 -->
<g id="edge31" class="edge">
<title>Node21&#45;&gt;Node23</title>
<path fill="none" stroke="midnightblue" d="M233.19,-280.08C230.92,-272.85 227.63,-262.41 224.79,-253.4"/>
<polygon fill="midnightblue" stroke="midnightblue" points="228.1,-252.24 221.75,-243.75 221.42,-254.34 228.1,-252.24"/>
</g>
<!-- Node25 -->
<g id="node25" class="node">
<title>Node25</title>
<g id="a_node25"><a xlink:title=" ">
<polygon fill="white" stroke="#bfbfbf" points="651.5,-336.5 651.5,-355.5 728.5,-355.5 728.5,-336.5 651.5,-336.5"/>
<text text-anchor="middle" x="690" y="-343.5" font-family="Helvetica,sans-Serif" font-size="10.00">GenericMap.h</text>
</a>
</g>
</g>
<!-- Node24&#45;&gt;Node25 -->
<g id="edge33" class="edge">
<title>Node24&#45;&gt;Node25</title>
<path fill="none" stroke="midnightblue" d="M690,-392.08C690,-385.01 690,-374.86 690,-365.99"/>
<polygon fill="midnightblue" stroke="midnightblue" points="693.5,-365.75 690,-355.75 686.5,-365.75 693.5,-365.75"/>
</g>
<!-- Node26&#45;&gt;Node9 -->
<g id="edge35" class="edge">
<title>Node26&#45;&gt;Node9</title>
<path fill="none" stroke="midnightblue" d="M492,-392.44C492,-373.94 492,-328.81 492,-291 492,-291 492,-291 492,-233 492,-166.81 402.52,-139.32 349.39,-128.83"/>
<polygon fill="midnightblue" stroke="midnightblue" points="349.75,-125.34 339.28,-126.95 348.47,-132.22 349.75,-125.34"/>
</g>
<!-- Node27 -->
<g id="node27" class="node">
<title>Node27</title>
<g id="a_node27"><a xlink:href="_object_8h.html" target="_top" xlink:title="The Object specification and body provides the root object type.">
<polygon fill="white" stroke="black" points="520.5,-336.5 520.5,-355.5 573.5,-355.5 573.5,-336.5 520.5,-336.5"/>
<text text-anchor="middle" x="547" y="-343.5" font-family="Helvetica,sans-Serif" font-size="10.00">Object.h</text>
</a>
</g>
</g>
<!-- Node26&#45;&gt;Node27 -->
<g id="edge36" class="edge">
<title>Node26&#45;&gt;Node27</title>
<path fill="none" stroke="midnightblue" d="M501.08,-392.08C509.17,-384.14 521.2,-372.34 530.91,-362.8"/>
<polygon fill="midnightblue" stroke="midnightblue" points="533.4,-365.25 538.09,-355.75 528.5,-360.26 533.4,-365.25"/>
</g>
<!-- Node28&#45;&gt;Node5 -->
<g id="edge38" class="edge">
<title>Node28&#45;&gt;Node5</title>
<path fill="none" stroke="midnightblue" d="M593.34,-392.23C594.91,-378.51 595.76,-351.88 582,-336 555.3,-305.19 508.23,-295.1 474.33,-291.99"/>
<polygon fill="midnightblue" stroke="midnightblue" points="474.5,-288.49 464.27,-291.23 473.98,-295.47 474.5,-288.49"/>
</g>
<!-- Node28&#45;&gt;Node27 -->
<g id="edge39" class="edge">
<title>Node28&#45;&gt;Node27</title>
<path fill="none" stroke="midnightblue" d="M584.57,-392.08C578.15,-384.38 568.69,-373.03 560.88,-363.65"/>
<polygon fill="midnightblue" stroke="midnightblue" points="563.38,-361.19 554.29,-355.75 558.01,-365.67 563.38,-361.19"/>
</g>
</g>
</svg>
        <g id="navigator" transform="translate(0 0)" fill="#404254">
                <rect fill="#f2f5e9" fill-opacity="0.5" stroke="#606060" stroke-width=".5" x="0" y="0" width="60" height="60"/>
                <use id="zoomplus" xlink:href="#zoomPlus" x="17" y="9" onmousedown="handleZoom(evt,'in')"/>
                <use id="zoomminus" xlink:href="#zoomMin" x="42" y="9" onmousedown="handleZoom(evt,'out')"/>
                <use id="reset" xlink:href="#resetDef" x="30" y="36" onmousedown="handleReset()"/>
                <g id="arrowUp" xlink:href="#dirArrow" transform="translate(30 24)" onmousedown="handlePan(0,-1)">
                  <use xlink:href="#rim" fill="#404040">
                        <set attributeName="fill" to="#808080" begin="arrowUp.mouseover" end="arrowUp.mouseout"/>
                  </use>
                  <path fill="none" stroke="white" stroke-width="1.5" d="M0,-3.0v7 M-2.5,-0.5L0,-3.0L2.5,-0.5"/>
                </g>
                <g id="arrowRight" xlink:href="#dirArrow" transform="rotate(90) translate(36 -43)" onmousedown="handlePan(1,0)">
                  <use xlink:href="#rim" fill="#404040">
                        <set attributeName="fill" to="#808080" begin="arrowRight.mouseover" end="arrowRight.mouseout"/>
                  </use>
                  <path fill="none" stroke="white" stroke-width="1.5" d="M0,-3.0v7 M-2.5,-0.5L0,-3.0L2.5,-0.5"/>
                </g>
                <g id="arrowDown" xlink:href="#dirArrow" transform="rotate(180) translate(-30 -48)" onmousedown="handlePan(0,1)">
                  <use xlink:href="#rim" fill="#404040">
                        <set attributeName="fill" to="#808080" begin="arrowDown.mouseover" end="arrowDown.mouseout"/>
                  </use>
                  <path fill="none" stroke="white" stroke-width="1.5" d="M0,-3.0v7 M-2.5,-0.5L0,-3.0L2.5,-0.5"/>
                </g>
                <g id="arrowLeft" xlink:href="#dirArrow" transform="rotate(270) translate(-36 17)" onmousedown="handlePan(-1,0)">
                  <use xlink:href="#rim" fill="#404040">
                        <set attributeName="fill" to="#808080" begin="arrowLeft.mouseover" end="arrowLeft.mouseout"/>
                  </use>
                  <path fill="none" stroke="white" stroke-width="1.5" d="M0,-3.0v7 M-2.5,-0.5L0,-3.0L2.5,-0.5"/>
                </g>
        </g>
        <svg viewBox="0 0 15 15" width="100%" height="30px" preserveAspectRatio="xMaxYMin meet">
         <g id="arrow_out" transform="scale(0.3 0.3)">
          <a xlink:href="_fluid_synth_8cpp__incl_org.svg" target="_base">
           <rect id="button" ry="5" rx="5" y="6" x="6" height="38" width="38"
                fill="#f2f5e9" fill-opacity="0.5" stroke="#606060" stroke-width="1.0"/>
           <path id="arrow"
             d="M 11.500037,31.436501 C 11.940474,20.09759 22.043105,11.32322 32.158766,21.979434 L 37.068811,17.246167 C 37.068811,17.246167 37.088388,32 37.088388,32 L 22.160133,31.978069 C 22.160133,31.978069 26.997745,27.140456 26.997745,27.140456 C 18.528582,18.264221 13.291696,25.230495 11.500037,31.436501 z"
             style="fill:#404040;"/>
          </a>
         </g>
        </svg>
</svg>
