<?xml version="1.0" encoding="UTF-8" standalone="no"?>
<!DOCTYPE svg PUBLIC "-//W3C//DTD SVG 1.1//EN"
 "http://www.w3.org/Graphics/SVG/1.1/DTD/svg11.dtd">
<!-- Generated by graphviz version 2.47.1 (20210417.1919)
 -->
<!-- Title: FluidSynthSynthesizer.cpp Pages: 1 -->
<!--zoomable 542 -->
<svg id="main" version="1.1" xmlns="http://www.w3.org/2000/svg" xmlns:xlink="http://www.w3.org/1999/xlink" xml:space="preserve" onload="init(evt)">
<style type="text/css"><![CDATA[
.edge:hover path { stroke: red; }
.edge:hover polygon { stroke: red; fill: red; }
]]></style>
<script type="text/javascript"><![CDATA[
var edges = document.getElementsByTagName('g');
if (edges && edges.length) {
  for (var i=0;i<edges.length;i++) {
    if (edges[i].id.substr(0,4)=='edge') {
      edges[i].setAttribute('class','edge');
    }
  }
}
]]></script>
        <defs>
                <circle id="rim" cx="0" cy="0" r="7"/>
                <circle id="rim2" cx="0" cy="0" r="3.5"/>
                <g id="zoomPlus">
                        <use xlink:href="#rim" fill="#404040">
                                <set attributeName="fill" to="#808080" begin="zoomplus.mouseover" end="zoomplus.mouseout"/>
                        </use>
                        <path d="M-4,0h8M0,-4v8" fill="none" stroke="white" stroke-width="1.5" pointer-events="none"/>
                </g>
                <g id="zoomMin">
                        <use xlink:href="#rim" fill="#404040">
                                <set attributeName="fill" to="#808080" begin="zoomminus.mouseover" end="zoomminus.mouseout"/>
                        </use>
                        <path d="M-4,0h8" fill="none" stroke="white" stroke-width="1.5" pointer-events="none"/>
                </g>
                <g id="dirArrow">
                        <path fill="none" stroke="white" stroke-width="1.5" d="M0,-3.0v7 M-2.5,-0.5L0,-3.0L2.5,-0.5"/>
                </g>
               <g id="resetDef">
                       <use xlink:href="#rim2" fill="#404040">
                               <set attributeName="fill" to="#808080" begin="reset.mouseover" end="reset.mouseout"/>
                       </use>
               </g>
        </defs>

<script type="text/javascript">
var viewWidth = 964;
var viewHeight = 542;
var sectionId = 'dynsection-0';
</script>
<script xlink:href="svgpan.js"/>
<svg id="graph" class="graph">
<g id="viewport">
<title>FluidSynthSynthesizer.cpp</title>
<polygon fill="white" stroke="transparent" points="-4,4 -4,-538 960,-538 960,4 -4,4"/>
<!-- Node1 -->
<g id="node1" class="node">
<title>Node1</title>
<g id="a_node1"><a xlink:title="The FluidSynthSynthesizer class implements an object&#45;oriented wrapper around an underlying fluidsynth...">
<polygon fill="#bfbfbf" stroke="black" points="549,-513.5 549,-533.5 695,-533.5 695,-513.5 549,-513.5"/>
<text text-anchor="middle" x="622" y="-520.7" font-family="Helvetica,sans-Serif" font-size="11.00">FluidSynthSynthesizer.cpp</text>
</a>
</g>
</g>
<!-- Node2 -->
<g id="node2" class="node">
<title>Node2</title>
<g id="a_node2"><a xlink:href="_dynamic_library_8h.html" target="_top" xlink:title="The DynamicLibrary class specifies a very simple and crude wrapper around the dynamic library loading...">
<polygon fill="white" stroke="black" points="447,-342.5 447,-362.5 549,-362.5 549,-342.5 447,-342.5"/>
<text text-anchor="middle" x="498" y="-349.7" font-family="Helvetica,sans-Serif" font-size="11.00">DynamicLibrary.h</text>
</a>
</g>
</g>
<!-- Node1&#45;&gt;Node2 -->
<g id="edge1" class="edge">
<title>Node1&#45;&gt;Node2</title>
<path fill="none" stroke="midnightblue" d="M615.33,-513.41C595.57,-486.48 537.05,-406.72 510.89,-371.06"/>
<polygon fill="midnightblue" stroke="midnightblue" points="513.44,-368.62 504.7,-362.63 507.79,-372.76 513.44,-368.62"/>
</g>
<!-- Node8 -->
<g id="node8" class="node">
<title>Node8</title>
<g id="a_node8"><a xlink:href="_fluid_synth_synthesizer_8h.html" target="_top" xlink:title="The FluidSynthSynthesizer class specifies an object&#45;oriented wrapper around an underlying fluidsynth ...">
<polygon fill="white" stroke="black" points="679,-456.5 679,-476.5 813,-476.5 813,-456.5 679,-456.5"/>
<text text-anchor="middle" x="746" y="-463.7" font-family="Helvetica,sans-Serif" font-size="11.00">FluidSynthSynthesizer.h</text>
</a>
</g>
</g>
<!-- Node1&#45;&gt;Node8 -->
<g id="edge7" class="edge">
<title>Node1&#45;&gt;Node8</title>
<path fill="none" stroke="midnightblue" d="M642.48,-513.42C662.58,-504.5 693.46,-490.8 716.27,-480.69"/>
<polygon fill="midnightblue" stroke="midnightblue" points="717.77,-483.85 725.49,-476.6 714.93,-477.45 717.77,-483.85"/>
</g>
<!-- Node21 -->
<g id="node21" class="node">
<title>Node21</title>
<g id="a_node21"><a xlink:href="_my_array_8h.html" target="_top" xlink:title="The MyArray specification and body defines a generic array type for stack allocated arrays represente...">
<polygon fill="white" stroke="black" points="812.5,-228.5 812.5,-248.5 877.5,-248.5 877.5,-228.5 812.5,-228.5"/>
<text text-anchor="middle" x="845" y="-235.7" font-family="Helvetica,sans-Serif" font-size="11.00">MyArray.h</text>
</a>
</g>
</g>
<!-- Node1&#45;&gt;Node21 -->
<g id="edge52" class="edge">
<title>Node1&#45;&gt;Node21</title>
<path fill="none" stroke="midnightblue" d="M691.61,-513.48C789.5,-498.83 956,-465.77 956,-410.5 956,-410.5 956,-410.5 956,-351.5 956,-305.16 907.46,-271.13 874.58,-253.39"/>
<polygon fill="midnightblue" stroke="midnightblue" points="875.85,-250.11 865.36,-248.62 872.63,-256.33 875.85,-250.11"/>
</g>
<!-- Node26 -->
<g id="node26" class="node">
<title>Node26</title>
<g id="a_node26"><a xlink:href="_logging_8h.html" target="_top" xlink:title="The Logging specification defines macros for entry&#45;, exit&#45; and intermediate logging of functions into...">
<polygon fill="white" stroke="black" points="236,-399.5 236,-419.5 300,-419.5 300,-399.5 236,-399.5"/>
<text text-anchor="middle" x="268" y="-406.7" font-family="Helvetica,sans-Serif" font-size="11.00">Logging.h</text>
</a>
</g>
</g>
<!-- Node1&#45;&gt;Node26 -->
<g id="edge35" class="edge">
<title>Node1&#45;&gt;Node26</title>
<path fill="none" stroke="midnightblue" d="M593.33,-513.43C529.98,-493.39 378.02,-445.31 306.48,-422.67"/>
<polygon fill="midnightblue" stroke="midnightblue" points="307.53,-419.33 296.94,-419.66 305.42,-426.01 307.53,-419.33"/>
</g>
<!-- Node3 -->
<g id="node3" class="node">
<title>Node3</title>
<g id="a_node3"><a xlink:href="_boolean_8h.html" target="_top" xlink:title="The Boolean specification and body provides a value object type for boolean values.">
<polygon fill="white" stroke="black" points="388.5,-285.5 388.5,-305.5 453.5,-305.5 453.5,-285.5 388.5,-285.5"/>
<text text-anchor="middle" x="421" y="-292.7" font-family="Helvetica,sans-Serif" font-size="11.00">Boolean.h</text>
</a>
</g>
</g>
<!-- Node2&#45;&gt;Node3 -->
<g id="edge2" class="edge">
<title>Node2&#45;&gt;Node3</title>
<path fill="none" stroke="midnightblue" d="M485.29,-342.42C473.58,-334.06 456,-321.5 442.17,-311.62"/>
<polygon fill="midnightblue" stroke="midnightblue" points="443.91,-308.56 433.73,-305.6 439.84,-314.26 443.91,-308.56"/>
</g>
<!-- Node7 -->
<g id="node7" class="node">
<title>Node7</title>
<g id="a_node7"><a xlink:href="_object_8h.html" target="_top" xlink:title="The Object specification and body provides the root object type.">
<polygon fill="white" stroke="black" points="687,-285.5 687,-305.5 745,-305.5 745,-285.5 687,-285.5"/>
<text text-anchor="middle" x="716" y="-292.7" font-family="Helvetica,sans-Serif" font-size="11.00">Object.h</text>
</a>
</g>
</g>
<!-- Node2&#45;&gt;Node7 -->
<g id="edge6" class="edge">
<title>Node2&#45;&gt;Node7</title>
<path fill="none" stroke="midnightblue" d="M534,-342.42C573.46,-332.46 636.56,-316.54 677.13,-306.31"/>
<polygon fill="midnightblue" stroke="midnightblue" points="678.09,-309.67 686.93,-303.83 676.38,-302.89 678.09,-309.67"/>
</g>
<!-- Node4 -->
<g id="node4" class="node">
<title>Node4</title>
<g id="a_node4"><a xlink:href="_my_string_8h.html" target="_top" xlink:title="The String specification defines a standard string type.">
<polygon fill="white" stroke="black" points="387,-57.5 387,-77.5 455,-77.5 455,-57.5 387,-57.5"/>
<text text-anchor="middle" x="421" y="-64.7" font-family="Helvetica,sans-Serif" font-size="11.00">MyString.h</text>
</a>
</g>
</g>
<!-- Node3&#45;&gt;Node4 -->
<g id="edge3" class="edge">
<title>Node3&#45;&gt;Node4</title>
<path fill="none" stroke="midnightblue" d="M421,-285.36C421,-251.71 421,-134.27 421,-87.72"/>
<polygon fill="midnightblue" stroke="midnightblue" points="424.5,-87.51 421,-77.51 417.5,-87.51 424.5,-87.51"/>
</g>
<!-- Node5 -->
<g id="node5" class="node">
<title>Node5</title>
<g id="a_node5"><a xlink:title=" ">
<polygon fill="white" stroke="#bfbfbf" points="487,-0.5 487,-20.5 531,-20.5 531,-0.5 487,-0.5"/>
<text text-anchor="middle" x="509" y="-7.7" font-family="Helvetica,sans-Serif" font-size="11.00">string</text>
</a>
</g>
</g>
<!-- Node4&#45;&gt;Node5 -->
<g id="edge4" class="edge">
<title>Node4&#45;&gt;Node5</title>
<path fill="none" stroke="midnightblue" d="M435.53,-57.42C449.16,-48.9 469.77,-36.02 485.7,-26.06"/>
<polygon fill="midnightblue" stroke="midnightblue" points="487.82,-28.86 494.45,-20.6 484.11,-22.93 487.82,-28.86"/>
</g>
<!-- Node6 -->
<g id="node6" class="node">
<title>Node6</title>
<g id="a_node6"><a xlink:href="_global_macros_8h.html" target="_top" xlink:title="The GlobalMacros specification defines simple macros (e.g. for parameter modes).">
<polygon fill="white" stroke="black" points="377,-0.5 377,-20.5 469,-20.5 469,-0.5 377,-0.5"/>
<text text-anchor="middle" x="423" y="-7.7" font-family="Helvetica,sans-Serif" font-size="11.00">GlobalMacros.h</text>
</a>
</g>
</g>
<!-- Node4&#45;&gt;Node6 -->
<g id="edge5" class="edge">
<title>Node4&#45;&gt;Node6</title>
<path fill="none" stroke="midnightblue" d="M421.33,-57.42C421.59,-50.22 421.97,-39.9 422.3,-30.86"/>
<polygon fill="midnightblue" stroke="midnightblue" points="425.8,-30.9 422.66,-20.78 418.8,-30.65 425.8,-30.9"/>
</g>
<!-- Node8&#45;&gt;Node7 -->
<g id="edge30" class="edge">
<title>Node8&#45;&gt;Node7</title>
<path fill="none" stroke="midnightblue" d="M747.77,-456.25C751.39,-435.35 758.32,-383.07 746,-342 742.93,-331.75 736.71,-321.68 730.73,-313.62"/>
<polygon fill="midnightblue" stroke="midnightblue" points="733.46,-311.42 724.5,-305.77 727.97,-315.78 733.46,-311.42"/>
</g>
<!-- Node9 -->
<g id="node9" class="node">
<title>Node9</title>
<g id="a_node9"><a xlink:href="_audio_sample_list_vector_8h.html" target="_top" xlink:title="The AudioSampleListVector specification defines the communication buffer structure for the block proc...">
<polygon fill="white" stroke="black" points="578.5,-399.5 578.5,-419.5 717.5,-419.5 717.5,-399.5 578.5,-399.5"/>
<text text-anchor="middle" x="648" y="-406.7" font-family="Helvetica,sans-Serif" font-size="11.00">AudioSampleListVector.h</text>
</a>
</g>
</g>
<!-- Node8&#45;&gt;Node9 -->
<g id="edge8" class="edge">
<title>Node8&#45;&gt;Node9</title>
<path fill="none" stroke="midnightblue" d="M729.82,-456.42C714.35,-447.74 690.82,-434.53 672.96,-424.51"/>
<polygon fill="midnightblue" stroke="midnightblue" points="674.64,-421.44 664.21,-419.6 671.21,-427.54 674.64,-421.44"/>
</g>
<!-- Node17 -->
<g id="node17" class="node">
<title>Node17</title>
<g id="a_node17"><a xlink:href="_natural_8h.html" target="_top" xlink:title="The Natural specification and body provides a value object type for naturals (positive integers with ...">
<polygon fill="white" stroke="black" points="473,-114.5 473,-134.5 533,-134.5 533,-114.5 473,-114.5"/>
<text text-anchor="middle" x="503" y="-121.7" font-family="Helvetica,sans-Serif" font-size="11.00">Natural.h</text>
</a>
</g>
</g>
<!-- Node8&#45;&gt;Node17 -->
<g id="edge29" class="edge">
<title>Node8&#45;&gt;Node17</title>
<path fill="none" stroke="midnightblue" d="M813.33,-459.99C843.15,-454.24 876.49,-442.75 899,-420 920.62,-398.15 918,-384.24 918,-353.5 918,-353.5 918,-353.5 918,-237.5 918,-202.78 906.24,-189.73 877,-171 822.41,-136.03 628.11,-127.94 543.2,-126.06"/>
<polygon fill="midnightblue" stroke="midnightblue" points="543.23,-122.56 533.16,-125.86 543.09,-129.56 543.23,-122.56"/>
</g>
<!-- Node24 -->
<g id="node24" class="node">
<title>Node24</title>
<g id="a_node24"><a xlink:href="_fluid_synth_settings_8h.html" target="_top" xlink:title="The FluidSynthSettings class specifies an object&#45;oriented wrapper around an underlying fluidsynth set...">
<polygon fill="white" stroke="black" points="774,-399.5 774,-419.5 890,-419.5 890,-399.5 774,-399.5"/>
<text text-anchor="middle" x="832" y="-406.7" font-family="Helvetica,sans-Serif" font-size="11.00">FluidSynthSettings.h</text>
</a>
</g>
</g>
<!-- Node8&#45;&gt;Node24 -->
<g id="edge31" class="edge">
<title>Node8&#45;&gt;Node24</title>
<path fill="none" stroke="midnightblue" d="M760.2,-456.42C773.52,-447.9 793.67,-435.02 809.23,-425.06"/>
<polygon fill="midnightblue" stroke="midnightblue" points="811.24,-427.93 817.78,-419.6 807.47,-422.03 811.24,-427.93"/>
</g>
<!-- Node10 -->
<g id="node10" class="node">
<title>Node10</title>
<g id="a_node10"><a xlink:href="_audio_sample_list_8h.html" target="_top" xlink:title="The AudioSampleList specification defines lists of audio samples with zero&#45;based arbitrary indexed ac...">
<polygon fill="white" stroke="black" points="201.5,-342.5 201.5,-362.5 308.5,-362.5 308.5,-342.5 201.5,-342.5"/>
<text text-anchor="middle" x="255" y="-349.7" font-family="Helvetica,sans-Serif" font-size="11.00">AudioSampleList.h</text>
</a>
</g>
</g>
<!-- Node9&#45;&gt;Node10 -->
<g id="edge9" class="edge">
<title>Node9&#45;&gt;Node10</title>
<path fill="none" stroke="midnightblue" d="M580.65,-399.47C516.15,-390.76 415.8,-377.06 318.61,-363.07"/>
<polygon fill="midnightblue" stroke="midnightblue" points="319.01,-359.59 308.61,-361.63 318.01,-366.52 319.01,-359.59"/>
</g>
<!-- Node23 -->
<g id="node23" class="node">
<title>Node23</title>
<g id="a_node23"><a xlink:href="_audio_sample_list_vector_8cpp-inc.html" target="_top" xlink:title="The AudioSampleListVector body implements the communication buffer structure for the block processing...">
<polygon fill="white" stroke="black" points="567.5,-342.5 567.5,-362.5 736.5,-362.5 736.5,-342.5 567.5,-342.5"/>
<text text-anchor="middle" x="652" y="-349.7" font-family="Helvetica,sans-Serif" font-size="11.00">AudioSampleListVector.cpp&#45;inc</text>
</a>
</g>
</g>
<!-- Node9&#45;&gt;Node23 -->
<g id="edge28" class="edge">
<title>Node9&#45;&gt;Node23</title>
<path fill="none" stroke="midnightblue" d="M648.66,-399.42C649.18,-392.22 649.93,-381.9 650.59,-372.86"/>
<polygon fill="midnightblue" stroke="midnightblue" points="654.09,-373.01 651.33,-362.78 647.11,-372.5 654.09,-373.01"/>
</g>
<!-- Node11 -->
<g id="node11" class="node">
<title>Node11</title>
<g id="a_node11"><a xlink:title=" ">
<polygon fill="white" stroke="#bfbfbf" points="194.5,-228.5 194.5,-248.5 275.5,-248.5 275.5,-228.5 194.5,-228.5"/>
<text text-anchor="middle" x="235" y="-235.7" font-family="Helvetica,sans-Serif" font-size="11.00">GenericList.h</text>
</a>
</g>
</g>
<!-- Node10&#45;&gt;Node11 -->
<g id="edge10" class="edge">
<title>Node10&#45;&gt;Node11</title>
<path fill="none" stroke="midnightblue" d="M253.36,-342.33C250.11,-324.12 242.77,-283.04 238.42,-258.67"/>
<polygon fill="midnightblue" stroke="midnightblue" points="241.86,-258.02 236.66,-248.79 234.97,-259.25 241.86,-258.02"/>
</g>
<!-- Node12 -->
<g id="node12" class="node">
<title>Node12</title>
<g id="a_node12"><a xlink:href="_audio_sample_8h.html" target="_top" xlink:title="The AudioSample specification and body provides the definition of the audio sample (a real value).">
<polygon fill="white" stroke="black" points="280,-285.5 280,-305.5 370,-305.5 370,-285.5 280,-285.5"/>
<text text-anchor="middle" x="325" y="-292.7" font-family="Helvetica,sans-Serif" font-size="11.00">AudioSample.h</text>
</a>
</g>
</g>
<!-- Node10&#45;&gt;Node12 -->
<g id="edge11" class="edge">
<title>Node10&#45;&gt;Node12</title>
<path fill="none" stroke="midnightblue" d="M266.56,-342.42C277.03,-334.19 292.69,-321.88 305.17,-312.08"/>
<polygon fill="midnightblue" stroke="midnightblue" points="307.49,-314.71 313.19,-305.78 303.16,-309.21 307.49,-314.71"/>
</g>
<!-- Node20 -->
<g id="node20" class="node">
<title>Node20</title>
<g id="a_node20"><a xlink:href="_audio_sample_list_8cpp-inc.html" target="_top" xlink:title="The AudioSampleList body implements a simple list of audio samples (this is the effective code includ...">
<polygon fill="white" stroke="black" points="530.5,-285.5 530.5,-305.5 667.5,-305.5 667.5,-285.5 530.5,-285.5"/>
<text text-anchor="middle" x="599" y="-292.7" font-family="Helvetica,sans-Serif" font-size="11.00">AudioSampleList.cpp&#45;inc</text>
</a>
</g>
</g>
<!-- Node10&#45;&gt;Node20 -->
<g id="edge24" class="edge">
<title>Node10&#45;&gt;Node20</title>
<path fill="none" stroke="midnightblue" d="M308.75,-342.91C369.11,-333.26 467.12,-317.59 532.31,-307.16"/>
<polygon fill="midnightblue" stroke="midnightblue" points="533.16,-310.57 542.48,-305.54 532.06,-303.66 533.16,-310.57"/>
</g>
<!-- Node13 -->
<g id="node13" class="node">
<title>Node13</title>
<g id="a_node13"><a xlink:href="_real_8h.html" target="_top" xlink:title="The Real specification defines a value object type for real values.">
<polygon fill="white" stroke="black" points="297,-228.5 297,-248.5 345,-248.5 345,-228.5 297,-228.5"/>
<text text-anchor="middle" x="321" y="-235.7" font-family="Helvetica,sans-Serif" font-size="11.00">Real.h</text>
</a>
</g>
</g>
<!-- Node12&#45;&gt;Node13 -->
<g id="edge12" class="edge">
<title>Node12&#45;&gt;Node13</title>
<path fill="none" stroke="midnightblue" d="M324.34,-285.42C323.82,-278.22 323.07,-267.9 322.41,-258.86"/>
<polygon fill="midnightblue" stroke="midnightblue" points="325.89,-258.5 321.67,-248.78 318.91,-259.01 325.89,-258.5"/>
</g>
<!-- Node14 -->
<g id="node14" class="node">
<title>Node14</title>
<g id="a_node14"><a xlink:title=" ">
<polygon fill="white" stroke="#bfbfbf" points="243.5,-57.5 243.5,-77.5 290.5,-77.5 290.5,-57.5 243.5,-57.5"/>
<text text-anchor="middle" x="267" y="-64.7" font-family="Helvetica,sans-Serif" font-size="11.00">cmath</text>
</a>
</g>
</g>
<!-- Node13&#45;&gt;Node14 -->
<g id="edge13" class="edge">
<title>Node13&#45;&gt;Node14</title>
<path fill="none" stroke="midnightblue" d="M315.06,-228.45C309.43,-219.51 301.1,-205.29 296,-192 282.31,-156.34 273.86,-112.31 269.83,-87.62"/>
<polygon fill="midnightblue" stroke="midnightblue" points="273.29,-87.08 268.29,-77.74 266.37,-88.16 273.29,-87.08"/>
</g>
<!-- Node15 -->
<g id="node15" class="node">
<title>Node15</title>
<g id="a_node15"><a xlink:href="_integer_8h.html" target="_top" xlink:title="The Integer specification and body provides a value object type for ints.">
<polygon fill="white" stroke="black" points="304.5,-171.5 304.5,-191.5 363.5,-191.5 363.5,-171.5 304.5,-171.5"/>
<text text-anchor="middle" x="334" y="-178.7" font-family="Helvetica,sans-Serif" font-size="11.00">Integer.h</text>
</a>
</g>
</g>
<!-- Node13&#45;&gt;Node15 -->
<g id="edge14" class="edge">
<title>Node13&#45;&gt;Node15</title>
<path fill="none" stroke="midnightblue" d="M323.15,-228.42C324.87,-221.14 327.34,-210.67 329.49,-201.57"/>
<polygon fill="midnightblue" stroke="midnightblue" points="332.91,-202.32 331.81,-191.78 326.1,-200.71 332.91,-202.32"/>
</g>
<!-- Node15&#45;&gt;Node14 -->
<g id="edge15" class="edge">
<title>Node15&#45;&gt;Node14</title>
<path fill="none" stroke="midnightblue" d="M328.52,-171.33C317.47,-152.88 292.38,-110.92 277.88,-86.69"/>
<polygon fill="midnightblue" stroke="midnightblue" points="280.7,-84.58 272.56,-77.79 274.69,-88.17 280.7,-84.58"/>
</g>
<!-- Node16 -->
<g id="node16" class="node">
<title>Node16</title>
<g id="a_node16"><a xlink:title=" ">
<polygon fill="white" stroke="#bfbfbf" points="295,-0.5 295,-20.5 359,-20.5 359,-0.5 295,-0.5"/>
<text text-anchor="middle" x="327" y="-7.7" font-family="Helvetica,sans-Serif" font-size="11.00">stdexcept</text>
</a>
</g>
</g>
<!-- Node15&#45;&gt;Node16 -->
<g id="edge16" class="edge">
<title>Node15&#45;&gt;Node16</title>
<path fill="none" stroke="midnightblue" d="M333.62,-171.41C332.53,-144.94 329.32,-67.42 327.8,-30.92"/>
<polygon fill="midnightblue" stroke="midnightblue" points="331.29,-30.48 327.38,-20.63 324.3,-30.77 331.29,-30.48"/>
</g>
<!-- Node15&#45;&gt;Node17 -->
<g id="edge17" class="edge">
<title>Node15&#45;&gt;Node17</title>
<path fill="none" stroke="midnightblue" d="M361.91,-171.42C390.25,-162.19 434.3,-147.86 465.64,-137.66"/>
<polygon fill="midnightblue" stroke="midnightblue" points="466.91,-140.93 475.33,-134.5 464.74,-134.27 466.91,-140.93"/>
</g>
<!-- Node17&#45;&gt;Node4 -->
<g id="edge23" class="edge">
<title>Node17&#45;&gt;Node4</title>
<path fill="none" stroke="midnightblue" d="M489.46,-114.42C476.88,-105.98 457.91,-93.26 443.13,-83.34"/>
<polygon fill="midnightblue" stroke="midnightblue" points="444.82,-80.26 434.56,-77.6 440.92,-86.07 444.82,-80.26"/>
</g>
<!-- Node17&#45;&gt;Node14 -->
<g id="edge18" class="edge">
<title>Node17&#45;&gt;Node14</title>
<path fill="none" stroke="midnightblue" d="M472.63,-116.42C428.3,-106.09 346.18,-86.95 300.27,-76.25"/>
<polygon fill="midnightblue" stroke="midnightblue" points="301.04,-72.84 290.5,-73.98 299.45,-79.66 301.04,-72.84"/>
</g>
<!-- Node18 -->
<g id="node18" class="node">
<title>Node18</title>
<g id="a_node18"><a xlink:href="_assertion_8h.html" target="_top" xlink:title="The Assertion specification defines macros for pre&#45; and postconditions in functions or methods.">
<polygon fill="white" stroke="black" points="473.5,-57.5 473.5,-77.5 544.5,-77.5 544.5,-57.5 473.5,-57.5"/>
<text text-anchor="middle" x="509" y="-64.7" font-family="Helvetica,sans-Serif" font-size="11.00">Assertion.h</text>
</a>
</g>
</g>
<!-- Node17&#45;&gt;Node18 -->
<g id="edge19" class="edge">
<title>Node17&#45;&gt;Node18</title>
<path fill="none" stroke="midnightblue" d="M503.99,-114.42C504.78,-107.22 505.9,-96.9 506.89,-87.86"/>
<polygon fill="midnightblue" stroke="midnightblue" points="510.38,-88.1 507.99,-77.78 503.42,-87.34 510.38,-88.1"/>
</g>
<!-- Node19 -->
<g id="node19" class="node">
<title>Node19</title>
<g id="a_node19"><a xlink:title=" ">
<polygon fill="white" stroke="#bfbfbf" points="562.5,-57.5 562.5,-77.5 665.5,-77.5 665.5,-57.5 562.5,-57.5"/>
<text text-anchor="middle" x="614" y="-64.7" font-family="Helvetica,sans-Serif" font-size="11.00">GenericNumber.h</text>
</a>
</g>
</g>
<!-- Node17&#45;&gt;Node19 -->
<g id="edge22" class="edge">
<title>Node17&#45;&gt;Node19</title>
<path fill="none" stroke="midnightblue" d="M521.33,-114.42C539.08,-105.62 566.23,-92.17 586.56,-82.1"/>
<polygon fill="midnightblue" stroke="midnightblue" points="588.24,-85.17 595.64,-77.6 585.13,-78.9 588.24,-85.17"/>
</g>
<!-- Node18&#45;&gt;Node5 -->
<g id="edge21" class="edge">
<title>Node18&#45;&gt;Node5</title>
<path fill="none" stroke="midnightblue" d="M509,-57.42C509,-50.22 509,-39.9 509,-30.86"/>
<polygon fill="midnightblue" stroke="midnightblue" points="512.5,-30.78 509,-20.78 505.5,-30.78 512.5,-30.78"/>
</g>
<!-- Node18&#45;&gt;Node16 -->
<g id="edge20" class="edge">
<title>Node18&#45;&gt;Node16</title>
<path fill="none" stroke="midnightblue" d="M478.95,-57.42C448.29,-48.15 400.57,-33.73 366.8,-23.53"/>
<polygon fill="midnightblue" stroke="midnightblue" points="367.38,-20.05 356.8,-20.5 365.36,-26.75 367.38,-20.05"/>
</g>
<!-- Node20&#45;&gt;Node21 -->
<g id="edge25" class="edge">
<title>Node20&#45;&gt;Node21</title>
<path fill="none" stroke="midnightblue" d="M639.35,-285.48C684.33,-275.42 756.78,-259.23 802.58,-248.98"/>
<polygon fill="midnightblue" stroke="midnightblue" points="803.5,-252.36 812.5,-246.77 801.97,-245.53 803.5,-252.36"/>
</g>
<!-- Node21&#45;&gt;Node17 -->
<g id="edge27" class="edge">
<title>Node21&#45;&gt;Node17</title>
<path fill="none" stroke="midnightblue" d="M851.6,-228.09C860.65,-213.96 874.24,-187.17 860,-171 839.32,-147.51 632.34,-132.92 543.34,-127.69"/>
<polygon fill="midnightblue" stroke="midnightblue" points="543.27,-124.18 533.09,-127.09 542.87,-131.16 543.27,-124.18"/>
</g>
<!-- Node22 -->
<g id="node22" class="node">
<title>Node22</title>
<g id="a_node22"><a xlink:title=" ">
<polygon fill="white" stroke="#bfbfbf" points="801,-171.5 801,-191.5 851,-191.5 851,-171.5 801,-171.5"/>
<text text-anchor="middle" x="826" y="-178.7" font-family="Helvetica,sans-Serif" font-size="11.00">cstring</text>
</a>
</g>
</g>
<!-- Node21&#45;&gt;Node22 -->
<g id="edge26" class="edge">
<title>Node21&#45;&gt;Node22</title>
<path fill="none" stroke="midnightblue" d="M841.86,-228.42C839.32,-221.06 835.65,-210.44 832.48,-201.27"/>
<polygon fill="midnightblue" stroke="midnightblue" points="835.78,-200.09 829.21,-191.78 829.16,-202.37 835.78,-200.09"/>
</g>
<!-- Node25 -->
<g id="node25" class="node">
<title>Node25</title>
<g id="a_node25"><a xlink:href="_fluid_synth_8h.html" target="_top" xlink:title="The FluidSynth class specifies an object&#45;oriented wrapper around the fluidsynth library and also allo...">
<polygon fill="white" stroke="black" points="793.5,-342.5 793.5,-362.5 870.5,-362.5 870.5,-342.5 793.5,-342.5"/>
<text text-anchor="middle" x="832" y="-349.7" font-family="Helvetica,sans-Serif" font-size="11.00">FluidSynth.h</text>
</a>
</g>
</g>
<!-- Node24&#45;&gt;Node25 -->
<g id="edge32" class="edge">
<title>Node24&#45;&gt;Node25</title>
<path fill="none" stroke="midnightblue" d="M832,-399.42C832,-392.22 832,-381.9 832,-372.86"/>
<polygon fill="midnightblue" stroke="midnightblue" points="835.5,-372.78 832,-362.78 828.5,-372.78 835.5,-372.78"/>
</g>
<!-- Node25&#45;&gt;Node7 -->
<g id="edge34" class="edge">
<title>Node25&#45;&gt;Node7</title>
<path fill="none" stroke="midnightblue" d="M812.84,-342.42C794.21,-333.58 765.66,-320.05 744.39,-309.96"/>
<polygon fill="midnightblue" stroke="midnightblue" points="745.72,-306.72 735.18,-305.6 742.72,-313.04 745.72,-306.72"/>
</g>
<!-- Node25&#45;&gt;Node17 -->
<g id="edge33" class="edge">
<title>Node25&#45;&gt;Node17</title>
<path fill="none" stroke="midnightblue" d="M822.27,-342.43C807.86,-329.17 779.77,-304.03 754,-285 674.54,-226.32 573.66,-166.27 527.75,-139.66"/>
<polygon fill="midnightblue" stroke="midnightblue" points="529.49,-136.62 519.07,-134.65 525.99,-142.68 529.49,-136.62"/>
</g>
<!-- Node27 -->
<g id="node27" class="node">
<title>Node27</title>
<g id="a_node27"><a xlink:title=" ">
<polygon fill="white" stroke="#bfbfbf" points="130.5,-342.5 130.5,-362.5 183.5,-362.5 183.5,-342.5 130.5,-342.5"/>
<text text-anchor="middle" x="157" y="-349.7" font-family="Helvetica,sans-Serif" font-size="11.00">cstdarg</text>
</a>
</g>
</g>
<!-- Node26&#45;&gt;Node27 -->
<g id="edge36" class="edge">
<title>Node26&#45;&gt;Node27</title>
<path fill="none" stroke="midnightblue" d="M249.67,-399.42C231.92,-390.62 204.77,-377.17 184.44,-367.1"/>
<polygon fill="midnightblue" stroke="midnightblue" points="185.87,-363.9 175.36,-362.6 182.76,-370.17 185.87,-363.9"/>
</g>
<!-- Node28 -->
<g id="node28" class="node">
<title>Node28</title>
<g id="a_node28"><a xlink:href="_logging_support_8h.html" target="_top" xlink:title="The LoggingSupport specification defines a class for simple entry/exit logging to a file or via an ar...">
<polygon fill="white" stroke="black" points="327,-342.5 327,-362.5 429,-362.5 429,-342.5 327,-342.5"/>
<text text-anchor="middle" x="378" y="-349.7" font-family="Helvetica,sans-Serif" font-size="11.00">LoggingSupport.h</text>
</a>
</g>
</g>
<!-- Node26&#45;&gt;Node28 -->
<g id="edge37" class="edge">
<title>Node26&#45;&gt;Node28</title>
<path fill="none" stroke="midnightblue" d="M286.16,-399.42C303.76,-390.62 330.66,-377.17 350.81,-367.1"/>
<polygon fill="midnightblue" stroke="midnightblue" points="352.43,-370.2 359.81,-362.6 349.3,-363.94 352.43,-370.2"/>
</g>
<!-- Node29 -->
<g id="node29" class="node">
<title>Node29</title>
<g id="a_node29"><a xlink:href="_string_util_8h.html" target="_top" xlink:title="The StringUtil specification defines several string routines not included in the standard C++ library...">
<polygon fill="white" stroke="black" points="43.5,-342.5 43.5,-362.5 112.5,-362.5 112.5,-342.5 43.5,-342.5"/>
<text text-anchor="middle" x="78" y="-349.7" font-family="Helvetica,sans-Serif" font-size="11.00">StringUtil.h</text>
</a>
</g>
</g>
<!-- Node26&#45;&gt;Node29 -->
<g id="edge40" class="edge">
<title>Node26&#45;&gt;Node29</title>
<path fill="none" stroke="midnightblue" d="M236.63,-399.42C204.49,-390.12 154.37,-375.61 119.09,-365.39"/>
<polygon fill="midnightblue" stroke="midnightblue" points="119.68,-361.92 109.11,-362.5 117.74,-368.65 119.68,-361.92"/>
</g>
<!-- Node28&#45;&gt;Node3 -->
<g id="edge38" class="edge">
<title>Node28&#45;&gt;Node3</title>
<path fill="none" stroke="midnightblue" d="M385.1,-342.42C391.16,-334.66 400.06,-323.29 407.47,-313.8"/>
<polygon fill="midnightblue" stroke="midnightblue" points="410.34,-315.81 413.75,-305.78 404.83,-311.5 410.34,-315.81"/>
</g>
<!-- Node28&#45;&gt;Node17 -->
<g id="edge39" class="edge">
<title>Node28&#45;&gt;Node17</title>
<path fill="none" stroke="midnightblue" d="M408.7,-342.37C427.13,-335.33 449.55,-323.74 463,-306 500.1,-257.07 504.09,-180.48 503.73,-144.89"/>
<polygon fill="midnightblue" stroke="midnightblue" points="507.23,-144.77 503.5,-134.86 500.24,-144.94 507.23,-144.77"/>
</g>
<!-- Node29&#45;&gt;Node3 -->
<g id="edge41" class="edge">
<title>Node29&#45;&gt;Node3</title>
<path fill="none" stroke="midnightblue" d="M112.54,-343.79C115.73,-343.16 118.92,-342.55 122,-342 232.45,-322.37 263.84,-326.49 378.61,-305.93"/>
<polygon fill="midnightblue" stroke="midnightblue" points="379.28,-309.36 388.5,-304.13 378.03,-302.48 379.28,-309.36"/>
</g>
<!-- Node30 -->
<g id="node30" class="node">
<title>Node30</title>
<g id="a_node30"><a xlink:href="_character_8h.html" target="_top" xlink:title="The Character specification and body provides a value object type for character values.">
<polygon fill="white" stroke="black" points="0,-228.5 0,-248.5 74,-248.5 74,-228.5 0,-228.5"/>
<text text-anchor="middle" x="37" y="-235.7" font-family="Helvetica,sans-Serif" font-size="11.00">Character.h</text>
</a>
</g>
</g>
<!-- Node29&#45;&gt;Node30 -->
<g id="edge42" class="edge">
<title>Node29&#45;&gt;Node30</title>
<path fill="none" stroke="midnightblue" d="M68.75,-342.32C60.72,-333.73 49.54,-320.14 44,-306 38.11,-290.97 36.56,-272.64 36.36,-259.04"/>
<polygon fill="midnightblue" stroke="midnightblue" points="39.86,-258.93 36.45,-248.9 32.86,-258.87 39.86,-258.93"/>
</g>
<!-- Node32 -->
<g id="node32" class="node">
<title>Node32</title>
<g id="a_node32"><a xlink:href="_percentage_8h.html" target="_top" xlink:title="The Percentage specification and body provides a simple percentage type.">
<polygon fill="white" stroke="black" points="142,-285.5 142,-305.5 224,-305.5 224,-285.5 142,-285.5"/>
<text text-anchor="middle" x="183" y="-292.7" font-family="Helvetica,sans-Serif" font-size="11.00">Percentage.h</text>
</a>
</g>
</g>
<!-- Node29&#45;&gt;Node32 -->
<g id="edge47" class="edge">
<title>Node29&#45;&gt;Node32</title>
<path fill="none" stroke="midnightblue" d="M95.34,-342.42C111.98,-333.7 137.35,-320.41 156.52,-310.37"/>
<polygon fill="midnightblue" stroke="midnightblue" points="158.4,-313.34 165.64,-305.6 155.15,-307.14 158.4,-313.34"/>
</g>
<!-- Node33 -->
<g id="node33" class="node">
<title>Node33</title>
<g id="a_node33"><a xlink:href="_string_list_8h.html" target="_top" xlink:title="The StringList specification defines lists of string values with zero&#45;based arbitrary indexed access ...">
<polygon fill="white" stroke="black" points="52.5,-285.5 52.5,-305.5 123.5,-305.5 123.5,-285.5 52.5,-285.5"/>
<text text-anchor="middle" x="88" y="-292.7" font-family="Helvetica,sans-Serif" font-size="11.00">StringList.h</text>
</a>
</g>
</g>
<!-- Node29&#45;&gt;Node33 -->
<g id="edge49" class="edge">
<title>Node29&#45;&gt;Node33</title>
<path fill="none" stroke="midnightblue" d="M79.65,-342.42C80.96,-335.22 82.84,-324.9 84.48,-315.86"/>
<polygon fill="midnightblue" stroke="midnightblue" points="87.97,-316.24 86.31,-305.78 81.08,-314.99 87.97,-316.24"/>
</g>
<!-- Node30&#45;&gt;Node14 -->
<g id="edge43" class="edge">
<title>Node30&#45;&gt;Node14</title>
<path fill="none" stroke="midnightblue" d="M49.37,-228.41C86.88,-200.85 199.7,-117.95 246.4,-83.63"/>
<polygon fill="midnightblue" stroke="midnightblue" points="248.59,-86.37 254.57,-77.63 244.44,-80.73 248.59,-86.37"/>
</g>
<!-- Node31 -->
<g id="node31" class="node">
<title>Node31</title>
<g id="a_node31"><a xlink:href="_byte_8h.html" target="_top" xlink:title="The Byte specification and body provides a value object type for byte values.">
<polygon fill="white" stroke="black" points="191.5,-171.5 191.5,-191.5 238.5,-191.5 238.5,-171.5 191.5,-171.5"/>
<text text-anchor="middle" x="215" y="-178.7" font-family="Helvetica,sans-Serif" font-size="11.00">Byte.h</text>
</a>
</g>
</g>
<!-- Node30&#45;&gt;Node31 -->
<g id="edge44" class="edge">
<title>Node30&#45;&gt;Node31</title>
<path fill="none" stroke="midnightblue" d="M66.39,-228.42C98.07,-218.63 148.4,-203.08 181.56,-192.83"/>
<polygon fill="midnightblue" stroke="midnightblue" points="182.74,-196.13 191.27,-189.83 180.68,-189.44 182.74,-196.13"/>
</g>
<!-- Node31&#45;&gt;Node14 -->
<g id="edge45" class="edge">
<title>Node31&#45;&gt;Node14</title>
<path fill="none" stroke="midnightblue" d="M219.26,-171.33C227.79,-152.96 247.13,-111.29 258.4,-87.01"/>
<polygon fill="midnightblue" stroke="midnightblue" points="261.65,-88.34 262.69,-77.79 255.3,-85.39 261.65,-88.34"/>
</g>
<!-- Node31&#45;&gt;Node17 -->
<g id="edge46" class="edge">
<title>Node31&#45;&gt;Node17</title>
<path fill="none" stroke="midnightblue" d="M238.57,-176C287.72,-166.61 401.63,-144.86 462.67,-133.2"/>
<polygon fill="midnightblue" stroke="midnightblue" points="463.54,-136.6 472.71,-131.28 462.23,-129.72 463.54,-136.6"/>
</g>
<!-- Node32&#45;&gt;Node13 -->
<g id="edge48" class="edge">
<title>Node32&#45;&gt;Node13</title>
<path fill="none" stroke="midnightblue" d="M205.79,-285.42C228.36,-276.42 263.15,-262.56 288.59,-252.42"/>
<polygon fill="midnightblue" stroke="midnightblue" points="290.18,-255.55 298.18,-248.6 287.59,-249.05 290.18,-255.55"/>
</g>
<!-- Node33&#45;&gt;Node11 -->
<g id="edge51" class="edge">
<title>Node33&#45;&gt;Node11</title>
<path fill="none" stroke="midnightblue" d="M112.27,-285.42C136.53,-276.34 174.03,-262.31 201.19,-252.15"/>
<polygon fill="midnightblue" stroke="midnightblue" points="202.55,-255.38 210.69,-248.6 200.1,-248.82 202.55,-255.38"/>
</g>
<!-- Node34 -->
<g id="node34" class="node">
<title>Node34</title>
<g id="a_node34"><a xlink:title=" ">
<polygon fill="white" stroke="#bfbfbf" points="92,-228.5 92,-248.5 170,-248.5 170,-228.5 92,-228.5"/>
<text text-anchor="middle" x="131" y="-235.7" font-family="Helvetica,sans-Serif" font-size="11.00">initializer_list</text>
</a>
</g>
</g>
<!-- Node33&#45;&gt;Node34 -->
<g id="edge50" class="edge">
<title>Node33&#45;&gt;Node34</title>
<path fill="none" stroke="midnightblue" d="M95.1,-285.42C101.16,-277.66 110.06,-266.29 117.47,-256.8"/>
<polygon fill="midnightblue" stroke="midnightblue" points="120.34,-258.81 123.75,-248.78 114.83,-254.5 120.34,-258.81"/>
</g>
</g>
</svg>
        <g id="navigator" transform="translate(0 0)" fill="#404254">
                <rect fill="#f2f5e9" fill-opacity="0.5" stroke="#606060" stroke-width=".5" x="0" y="0" width="60" height="60"/>
                <use id="zoomplus" xlink:href="#zoomPlus" x="17" y="9" onmousedown="handleZoom(evt,'in')"/>
                <use id="zoomminus" xlink:href="#zoomMin" x="42" y="9" onmousedown="handleZoom(evt,'out')"/>
                <use id="reset" xlink:href="#resetDef" x="30" y="36" onmousedown="handleReset()"/>
                <g id="arrowUp" xlink:href="#dirArrow" transform="translate(30 24)" onmousedown="handlePan(0,-1)">
                  <use xlink:href="#rim" fill="#404040">
                        <set attributeName="fill" to="#808080" begin="arrowUp.mouseover" end="arrowUp.mouseout"/>
                  </use>
                  <path fill="none" stroke="white" stroke-width="1.5" d="M0,-3.0v7 M-2.5,-0.5L0,-3.0L2.5,-0.5"/>
                </g>
                <g id="arrowRight" xlink:href="#dirArrow" transform="rotate(90) translate(36 -43)" onmousedown="handlePan(1,0)">
                  <use xlink:href="#rim" fill="#404040">
                        <set attributeName="fill" to="#808080" begin="arrowRight.mouseover" end="arrowRight.mouseout"/>
                  </use>
                  <path fill="none" stroke="white" stroke-width="1.5" d="M0,-3.0v7 M-2.5,-0.5L0,-3.0L2.5,-0.5"/>
                </g>
                <g id="arrowDown" xlink:href="#dirArrow" transform="rotate(180) translate(-30 -48)" onmousedown="handlePan(0,1)">
                  <use xlink:href="#rim" fill="#404040">
                        <set attributeName="fill" to="#808080" begin="arrowDown.mouseover" end="arrowDown.mouseout"/>
                  </use>
                  <path fill="none" stroke="white" stroke-width="1.5" d="M0,-3.0v7 M-2.5,-0.5L0,-3.0L2.5,-0.5"/>
                </g>
                <g id="arrowLeft" xlink:href="#dirArrow" transform="rotate(270) translate(-36 17)" onmousedown="handlePan(-1,0)">
                  <use xlink:href="#rim" fill="#404040">
                        <set attributeName="fill" to="#808080" begin="arrowLeft.mouseover" end="arrowLeft.mouseout"/>
                  </use>
                  <path fill="none" stroke="white" stroke-width="1.5" d="M0,-3.0v7 M-2.5,-0.5L0,-3.0L2.5,-0.5"/>
                </g>
        </g>
        <svg viewBox="0 0 15 15" width="100%" height="30px" preserveAspectRatio="xMaxYMin meet">
         <g id="arrow_out" transform="scale(0.3 0.3)">
          <a xlink:href="_fluid_synth_synthesizer_8cpp__incl_org.svg" target="_base">
           <rect id="button" ry="5" rx="5" y="6" x="6" height="38" width="38"
                fill="#f2f5e9" fill-opacity="0.5" stroke="#606060" stroke-width="1.0"/>
           <path id="arrow"
             d="M 11.500037,31.436501 C 11.940474,20.09759 22.043105,11.32322 32.158766,21.979434 L 37.068811,17.246167 C 37.068811,17.246167 37.088388,32 37.088388,32 L 22.160133,31.978069 C 22.160133,31.978069 26.997745,27.140456 26.997745,27.140456 C 18.528582,18.264221 13.291696,25.230495 11.500037,31.436501 z"
             style="fill:#404040;"/>
          </a>
         </g>
        </svg>
</svg>
