<?xml version="1.0" encoding="UTF-8" standalone="no"?>
<!DOCTYPE svg PUBLIC "-//W3C//DTD SVG 1.1//EN"
 "http://www.w3.org/Graphics/SVG/1.1/DTD/svg11.dtd">
<!-- Generated by graphviz version 2.47.1 (20210417.1919)
 -->
<!-- Title: FluidSynthFileConverter.cpp Pages: 1 -->
<svg width="1335pt" height="532pt"
 viewBox="0.00 0.00 1335.00 532.00" xmlns="http://www.w3.org/2000/svg" xmlns:xlink="http://www.w3.org/1999/xlink">
<g id="graph0" class="graph" transform="scale(1 1) rotate(0) translate(4 528)">
<title>FluidSynthFileConverter.cpp</title>
<polygon fill="white" stroke="transparent" points="-4,4 -4,-528 1331,-528 1331,4 -4,4"/>
<!-- Node1 -->
<g id="node1" class="node">
<title>Node1</title>
<g id="a_node1"><a xlink:title="The FluidSynthFileConverter module implements a conversion from a MIDI file into a wave file using th...">
<polygon fill="#bfbfbf" stroke="black" points="434,-504.5 434,-523.5 572,-523.5 572,-504.5 434,-504.5"/>
<text text-anchor="middle" x="503" y="-511.5" font-family="Helvetica,sans-Serif" font-size="10.00">FluidSynthFileConverter.cpp</text>
</a>
</g>
</g>
<!-- Node2 -->
<g id="node2" class="node">
<title>Node2</title>
<g id="a_node2"><a xlink:href="_fluid_synth_file_converter_8h.html" target="_top" xlink:title="The FluidSynthFileConverter specification defines a conversion program from a MIDI file into a wave f...">
<polygon fill="white" stroke="black" points="121,-448.5 121,-467.5 249,-467.5 249,-448.5 121,-448.5"/>
<text text-anchor="middle" x="185" y="-455.5" font-family="Helvetica,sans-Serif" font-size="10.00">FluidSynthFileConverter.h</text>
</a>
</g>
</g>
<!-- Node1&#45;&gt;Node2 -->
<g id="edge1" class="edge">
<title>Node1&#45;&gt;Node2</title>
<path fill="none" stroke="midnightblue" d="M452.61,-504.44C396.32,-494.89 305.25,-479.42 245.24,-469.23"/>
<polygon fill="midnightblue" stroke="midnightblue" points="245.6,-465.74 235.15,-467.52 244.43,-472.64 245.6,-465.74"/>
</g>
<!-- Node3 -->
<g id="node3" class="node">
<title>Node3</title>
<g id="a_node3"><a xlink:href="_assertion_8h.html" target="_top" xlink:title="The Assertion specification defines macros for pre&#45; and postconditions in functions or methods.">
<polygon fill="white" stroke="black" points="917,-56.5 917,-75.5 983,-75.5 983,-56.5 917,-56.5"/>
<text text-anchor="middle" x="950" y="-63.5" font-family="Helvetica,sans-Serif" font-size="10.00">Assertion.h</text>
</a>
</g>
</g>
<!-- Node1&#45;&gt;Node3 -->
<g id="edge2" class="edge">
<title>Node1&#45;&gt;Node3</title>
<path fill="none" stroke="midnightblue" d="M572.08,-512.86C727.53,-511.86 1100.56,-505.51 1220,-468 1273.09,-451.33 1327,-458.64 1327,-403 1327,-403 1327,-403 1327,-177 1327,-108.1 1092.04,-79.43 993.1,-70.41"/>
<polygon fill="midnightblue" stroke="midnightblue" points="993.4,-66.93 983.13,-69.53 992.78,-73.9 993.4,-66.93"/>
</g>
<!-- Node6 -->
<g id="node6" class="node">
<title>Node6</title>
<g id="a_node6"><a xlink:href="_command_line_arguments_8h.html" target="_top" xlink:title="The CommandLineArguments specification defines a handler for command&#45;line arguments converting them t...">
<polygon fill="white" stroke="black" points="585,-448.5 585,-467.5 719,-467.5 719,-448.5 585,-448.5"/>
<text text-anchor="middle" x="652" y="-455.5" font-family="Helvetica,sans-Serif" font-size="10.00">CommandLineArguments.h</text>
</a>
</g>
</g>
<!-- Node1&#45;&gt;Node6 -->
<g id="edge5" class="edge">
<title>Node1&#45;&gt;Node6</title>
<path fill="none" stroke="midnightblue" d="M526.61,-504.44C551.46,-495.44 590.77,-481.19 618.75,-471.05"/>
<polygon fill="midnightblue" stroke="midnightblue" points="620.29,-474.21 628.5,-467.52 617.91,-467.63 620.29,-474.21"/>
</g>
<!-- Node10 -->
<g id="node10" class="node">
<title>Node10</title>
<g id="a_node10"><a xlink:href="_dynamic_library_8h.html" target="_top" xlink:title="The DynamicLibrary class specifies a very simple and crude wrapper around the dynamic library loading...">
<polygon fill="white" stroke="black" points="337,-336.5 337,-355.5 429,-355.5 429,-336.5 337,-336.5"/>
<text text-anchor="middle" x="383" y="-343.5" font-family="Helvetica,sans-Serif" font-size="10.00">DynamicLibrary.h</text>
</a>
</g>
</g>
<!-- Node1&#45;&gt;Node10 -->
<g id="edge9" class="edge">
<title>Node1&#45;&gt;Node10</title>
<path fill="none" stroke="midnightblue" d="M496.55,-504.08C477.33,-477.49 420.26,-398.54 395.12,-363.76"/>
<polygon fill="midnightblue" stroke="midnightblue" points="397.89,-361.62 389.19,-355.57 392.22,-365.72 397.89,-361.62"/>
</g>
<!-- Node15 -->
<g id="node15" class="node">
<title>Node15</title>
<g id="a_node15"><a xlink:href="_file_8h.html" target="_top" xlink:title="The File specification defines a class for simple file handling based on C stdio.">
<polygon fill="white" stroke="black" points="447.5,-336.5 447.5,-355.5 488.5,-355.5 488.5,-336.5 447.5,-336.5"/>
<text text-anchor="middle" x="468" y="-343.5" font-family="Helvetica,sans-Serif" font-size="10.00">File.h</text>
</a>
</g>
</g>
<!-- Node1&#45;&gt;Node15 -->
<g id="edge15" class="edge">
<title>Node1&#45;&gt;Node15</title>
<path fill="none" stroke="midnightblue" d="M501.04,-504.38C499,-495.33 495.72,-480.68 493,-468 485.23,-431.77 476.57,-389.34 471.75,-365.58"/>
<polygon fill="midnightblue" stroke="midnightblue" points="475.13,-364.63 469.71,-355.52 468.27,-366.01 475.13,-364.63"/>
</g>
<!-- Node24 -->
<g id="node24" class="node">
<title>Node24</title>
<g id="a_node24"><a xlink:href="_logging_8h.html" target="_top" xlink:title="The Logging specification defines macros for entry&#45;, exit&#45; and intermediate logging of functions into...">
<polygon fill="white" stroke="black" points="142.5,-392.5 142.5,-411.5 201.5,-411.5 201.5,-392.5 142.5,-392.5"/>
<text text-anchor="middle" x="172" y="-399.5" font-family="Helvetica,sans-Serif" font-size="10.00">Logging.h</text>
</a>
</g>
</g>
<!-- Node1&#45;&gt;Node24 -->
<g id="edge30" class="edge">
<title>Node1&#45;&gt;Node24</title>
<path fill="none" stroke="midnightblue" d="M443.36,-504.43C401.34,-497.34 344.21,-485.56 296,-468 278.07,-461.47 274.9,-456.87 258,-448 237.79,-437.4 214.9,-425.42 197.82,-416.49"/>
<polygon fill="midnightblue" stroke="midnightblue" points="198.98,-413.15 188.49,-411.62 195.73,-419.35 198.98,-413.15"/>
</g>
<!-- Node32 -->
<g id="node32" class="node">
<title>Node32</title>
<g id="a_node32"><a xlink:href="_midi_event_converter_8h.html" target="_top" xlink:title="The MidiEventConverter specification defines the handling of MIDI events by feeding them to an underl...">
<polygon fill="white" stroke="black" points="1019.5,-448.5 1019.5,-467.5 1126.5,-467.5 1126.5,-448.5 1019.5,-448.5"/>
<text text-anchor="middle" x="1073" y="-455.5" font-family="Helvetica,sans-Serif" font-size="10.00">MidiEventConverter.h</text>
</a>
</g>
</g>
<!-- Node1&#45;&gt;Node32 -->
<g id="edge47" class="edge">
<title>Node1&#45;&gt;Node32</title>
<path fill="none" stroke="midnightblue" d="M572.04,-506.46C683.45,-495.91 901.27,-475.27 1009.22,-465.04"/>
<polygon fill="midnightblue" stroke="midnightblue" points="1009.69,-468.51 1019.32,-464.09 1009.03,-461.54 1009.69,-468.51"/>
</g>
<!-- Node42 -->
<g id="node42" class="node">
<title>Node42</title>
<g id="a_node42"><a xlink:href="_midi_file_8h.html" target="_top" xlink:title="The MidiFile specification defines the services of a MIDI file; currently only file reading is suppor...">
<polygon fill="white" stroke="black" points="1151.5,-448.5 1151.5,-467.5 1210.5,-467.5 1210.5,-448.5 1151.5,-448.5"/>
<text text-anchor="middle" x="1181" y="-455.5" font-family="Helvetica,sans-Serif" font-size="10.00">MidiFile.h</text>
</a>
</g>
</g>
<!-- Node1&#45;&gt;Node42 -->
<g id="edge70" class="edge">
<title>Node1&#45;&gt;Node42</title>
<path fill="none" stroke="midnightblue" d="M572.14,-510.95C688.83,-506.84 932.1,-495.53 1136,-468 1137.68,-467.77 1139.4,-467.52 1141.13,-467.25"/>
<polygon fill="midnightblue" stroke="midnightblue" points="1141.81,-470.68 1151.07,-465.53 1140.62,-463.79 1141.81,-470.68"/>
</g>
<!-- Node43 -->
<g id="node43" class="node">
<title>Node43</title>
<g id="a_node43"><a xlink:href="_operating_system_8h.html" target="_top" xlink:title="The OperatingSystem specification defines a class for several operating system related utility functi...">
<polygon fill="white" stroke="black" points="305.5,-448.5 305.5,-467.5 406.5,-467.5 406.5,-448.5 305.5,-448.5"/>
<text text-anchor="middle" x="356" y="-455.5" font-family="Helvetica,sans-Serif" font-size="10.00">OperatingSystem.h</text>
</a>
</g>
</g>
<!-- Node1&#45;&gt;Node43 -->
<g id="edge73" class="edge">
<title>Node1&#45;&gt;Node43</title>
<path fill="none" stroke="midnightblue" d="M479.71,-504.44C455.19,-495.44 416.4,-481.19 388.8,-471.05"/>
<polygon fill="midnightblue" stroke="midnightblue" points="389.78,-467.68 379.18,-467.52 387.36,-474.25 389.78,-467.68"/>
</g>
<!-- Node44 -->
<g id="node44" class="node">
<title>Node44</title>
<g id="a_node44"><a xlink:href="_wave_file_8h.html" target="_top" xlink:title="The WaveFile specification defines an object for accessing a RIFF wave file with several channels.">
<polygon fill="white" stroke="black" points="501.5,-448.5 501.5,-467.5 566.5,-467.5 566.5,-448.5 501.5,-448.5"/>
<text text-anchor="middle" x="534" y="-455.5" font-family="Helvetica,sans-Serif" font-size="10.00">WaveFile.h</text>
</a>
</g>
</g>
<!-- Node1&#45;&gt;Node44 -->
<g id="edge77" class="edge">
<title>Node1&#45;&gt;Node44</title>
<path fill="none" stroke="midnightblue" d="M508.12,-504.08C512.41,-496.61 518.66,-485.72 523.94,-476.52"/>
<polygon fill="midnightblue" stroke="midnightblue" points="527.03,-478.17 528.98,-467.75 520.96,-474.68 527.03,-478.17"/>
</g>
<!-- Node4 -->
<g id="node4" class="node">
<title>Node4</title>
<g id="a_node4"><a xlink:title=" ">
<polygon fill="white" stroke="#bfbfbf" points="980.5,-0.5 980.5,-19.5 1039.5,-19.5 1039.5,-0.5 980.5,-0.5"/>
<text text-anchor="middle" x="1010" y="-7.5" font-family="Helvetica,sans-Serif" font-size="10.00">stdexcept</text>
</a>
</g>
</g>
<!-- Node3&#45;&gt;Node4 -->
<g id="edge3" class="edge">
<title>Node3&#45;&gt;Node4</title>
<path fill="none" stroke="midnightblue" d="M959.64,-56.32C968.51,-48.34 981.87,-36.31 992.61,-26.65"/>
<polygon fill="midnightblue" stroke="midnightblue" points="995.09,-29.13 1000.18,-19.83 990.41,-23.92 995.09,-29.13"/>
</g>
<!-- Node5 -->
<g id="node5" class="node">
<title>Node5</title>
<g id="a_node5"><a xlink:title=" ">
<polygon fill="white" stroke="#bfbfbf" points="868.5,-0.5 868.5,-19.5 909.5,-19.5 909.5,-0.5 868.5,-0.5"/>
<text text-anchor="middle" x="889" y="-7.5" font-family="Helvetica,sans-Serif" font-size="10.00">string</text>
</a>
</g>
</g>
<!-- Node3&#45;&gt;Node5 -->
<g id="edge4" class="edge">
<title>Node3&#45;&gt;Node5</title>
<path fill="none" stroke="midnightblue" d="M940.2,-56.32C931.18,-48.34 917.59,-36.31 906.68,-26.65"/>
<polygon fill="midnightblue" stroke="midnightblue" points="908.79,-23.84 898.98,-19.83 904.15,-29.08 908.79,-23.84"/>
</g>
<!-- Node7 -->
<g id="node7" class="node">
<title>Node7</title>
<g id="a_node7"><a xlink:href="_dictionary_8h.html" target="_top" xlink:title="The Dictionary specification defines maps from string keys to string values.">
<polygon fill="white" stroke="black" points="606,-392.5 606,-411.5 674,-411.5 674,-392.5 606,-392.5"/>
<text text-anchor="middle" x="640" y="-399.5" font-family="Helvetica,sans-Serif" font-size="10.00">Dictionary.h</text>
</a>
</g>
</g>
<!-- Node6&#45;&gt;Node7 -->
<g id="edge6" class="edge">
<title>Node6&#45;&gt;Node7</title>
<path fill="none" stroke="midnightblue" d="M650.02,-448.08C648.43,-440.93 646.14,-430.64 644.15,-421.69"/>
<polygon fill="midnightblue" stroke="midnightblue" points="647.53,-420.75 641.94,-411.75 640.7,-422.27 647.53,-420.75"/>
</g>
<!-- Node9 -->
<g id="node9" class="node">
<title>Node9</title>
<g id="a_node9"><a xlink:title=" ">
<polygon fill="white" stroke="#bfbfbf" points="951,-168.5 951,-187.5 1025,-187.5 1025,-168.5 951,-168.5"/>
<text text-anchor="middle" x="988" y="-175.5" font-family="Helvetica,sans-Serif" font-size="10.00">GenericList.h</text>
</a>
</g>
</g>
<!-- Node6&#45;&gt;Node9 -->
<g id="edge8" class="edge">
<title>Node6&#45;&gt;Node9</title>
<path fill="none" stroke="midnightblue" d="M719.13,-451.4C775.38,-445.43 857.28,-433.73 926,-412 980.58,-394.74 1004.08,-398.89 1042,-356 1082.44,-310.27 1112.32,-275.79 1080,-224 1069.91,-207.84 1052.15,-197.32 1034.91,-190.56"/>
<polygon fill="midnightblue" stroke="midnightblue" points="1036.03,-187.24 1025.43,-187.17 1033.67,-193.83 1036.03,-187.24"/>
</g>
<!-- Node8 -->
<g id="node8" class="node">
<title>Node8</title>
<g id="a_node8"><a xlink:title=" ">
<polygon fill="white" stroke="#bfbfbf" points="583.5,-336.5 583.5,-355.5 660.5,-355.5 660.5,-336.5 583.5,-336.5"/>
<text text-anchor="middle" x="622" y="-343.5" font-family="Helvetica,sans-Serif" font-size="10.00">GenericMap.h</text>
</a>
</g>
</g>
<!-- Node7&#45;&gt;Node8 -->
<g id="edge7" class="edge">
<title>Node7&#45;&gt;Node8</title>
<path fill="none" stroke="midnightblue" d="M637.03,-392.08C634.62,-384.85 631.14,-374.41 628.13,-365.4"/>
<polygon fill="midnightblue" stroke="midnightblue" points="631.4,-364.13 624.92,-355.75 624.76,-366.34 631.4,-364.13"/>
</g>
<!-- Node11 -->
<g id="node11" class="node">
<title>Node11</title>
<g id="a_node11"><a xlink:href="_boolean_8h.html" target="_top" xlink:title="The Boolean specification and body provides a value object type for boolean values.">
<polygon fill="white" stroke="black" points="342,-280.5 342,-299.5 402,-299.5 402,-280.5 342,-280.5"/>
<text text-anchor="middle" x="372" y="-287.5" font-family="Helvetica,sans-Serif" font-size="10.00">Boolean.h</text>
</a>
</g>
</g>
<!-- Node10&#45;&gt;Node11 -->
<g id="edge10" class="edge">
<title>Node10&#45;&gt;Node11</title>
<path fill="none" stroke="midnightblue" d="M381.18,-336.08C379.73,-328.93 377.63,-318.64 375.81,-309.69"/>
<polygon fill="midnightblue" stroke="midnightblue" points="379.21,-308.85 373.78,-299.75 372.35,-310.25 379.21,-308.85"/>
</g>
<!-- Node14 -->
<g id="node14" class="node">
<title>Node14</title>
<g id="a_node14"><a xlink:href="_object_8h.html" target="_top" xlink:title="The Object specification and body provides the root object type.">
<polygon fill="white" stroke="black" points="458.5,-280.5 458.5,-299.5 511.5,-299.5 511.5,-280.5 458.5,-280.5"/>
<text text-anchor="middle" x="485" y="-287.5" font-family="Helvetica,sans-Serif" font-size="10.00">Object.h</text>
</a>
</g>
</g>
<!-- Node10&#45;&gt;Node14 -->
<g id="edge14" class="edge">
<title>Node10&#45;&gt;Node14</title>
<path fill="none" stroke="midnightblue" d="M399.39,-336.32C415.67,-327.7 440.87,-314.36 459.72,-304.39"/>
<polygon fill="midnightblue" stroke="midnightblue" points="461.45,-307.43 468.65,-299.65 458.18,-301.24 461.45,-307.43"/>
</g>
<!-- Node12 -->
<g id="node12" class="node">
<title>Node12</title>
<g id="a_node12"><a xlink:href="_my_string_8h.html" target="_top" xlink:title="The String specification defines a standard string type.">
<polygon fill="white" stroke="black" points="502,-56.5 502,-75.5 566,-75.5 566,-56.5 502,-56.5"/>
<text text-anchor="middle" x="534" y="-63.5" font-family="Helvetica,sans-Serif" font-size="10.00">MyString.h</text>
</a>
</g>
</g>
<!-- Node11&#45;&gt;Node12 -->
<g id="edge11" class="edge">
<title>Node11&#45;&gt;Node12</title>
<path fill="none" stroke="midnightblue" d="M341.98,-282.18C309.2,-274.06 259.91,-259.61 249,-244 221.55,-204.73 187.89,-198.64 292,-112 321.73,-87.26 430.43,-75.01 491.54,-69.95"/>
<polygon fill="midnightblue" stroke="midnightblue" points="491.95,-73.43 501.64,-69.15 491.4,-66.45 491.95,-73.43"/>
</g>
<!-- Node12&#45;&gt;Node5 -->
<g id="edge12" class="edge">
<title>Node12&#45;&gt;Node5</title>
<path fill="none" stroke="midnightblue" d="M566.18,-57.7C569.16,-57.1 572.13,-56.52 575,-56 678.34,-37.28 801.97,-21.48 858.31,-14.63"/>
<polygon fill="midnightblue" stroke="midnightblue" points="858.83,-18.1 868.34,-13.43 857.99,-11.15 858.83,-18.1"/>
</g>
<!-- Node13 -->
<g id="node13" class="node">
<title>Node13</title>
<g id="a_node13"><a xlink:href="_global_macros_8h.html" target="_top" xlink:title="The GlobalMacros specification defines simple macros (e.g. for parameter modes).">
<polygon fill="white" stroke="black" points="491.5,-0.5 491.5,-19.5 576.5,-19.5 576.5,-0.5 491.5,-0.5"/>
<text text-anchor="middle" x="534" y="-7.5" font-family="Helvetica,sans-Serif" font-size="10.00">GlobalMacros.h</text>
</a>
</g>
</g>
<!-- Node12&#45;&gt;Node13 -->
<g id="edge13" class="edge">
<title>Node12&#45;&gt;Node13</title>
<path fill="none" stroke="midnightblue" d="M534,-56.08C534,-49.01 534,-38.86 534,-29.99"/>
<polygon fill="midnightblue" stroke="midnightblue" points="537.5,-29.75 534,-19.75 530.5,-29.75 537.5,-29.75"/>
</g>
<!-- Node15&#45;&gt;Node11 -->
<g id="edge16" class="edge">
<title>Node15&#45;&gt;Node11</title>
<path fill="none" stroke="midnightblue" d="M452.58,-336.32C437.46,-327.82 414.18,-314.73 396.53,-304.8"/>
<polygon fill="midnightblue" stroke="midnightblue" points="397.82,-301.51 387.39,-299.65 394.39,-307.61 397.82,-301.51"/>
</g>
<!-- Node15&#45;&gt;Node14 -->
<g id="edge29" class="edge">
<title>Node15&#45;&gt;Node14</title>
<path fill="none" stroke="midnightblue" d="M470.81,-336.08C473.08,-328.85 476.37,-318.41 479.21,-309.4"/>
<polygon fill="midnightblue" stroke="midnightblue" points="482.58,-310.34 482.25,-299.75 475.9,-308.24 482.58,-310.34"/>
</g>
<!-- Node16 -->
<g id="node16" class="node">
<title>Node16</title>
<g id="a_node16"><a xlink:href="_byte_list_8h.html" target="_top" xlink:title="The ByteList specification defines lists of byte values with zero&#45;based arbitrary indexed access to p...">
<polygon fill="white" stroke="black" points="529.5,-280.5 529.5,-299.5 590.5,-299.5 590.5,-280.5 529.5,-280.5"/>
<text text-anchor="middle" x="560" y="-287.5" font-family="Helvetica,sans-Serif" font-size="10.00">ByteList.h</text>
</a>
</g>
</g>
<!-- Node15&#45;&gt;Node16 -->
<g id="edge17" class="edge">
<title>Node15&#45;&gt;Node16</title>
<path fill="none" stroke="midnightblue" d="M482.78,-336.32C497.27,-327.82 519.57,-314.73 536.49,-304.8"/>
<polygon fill="midnightblue" stroke="midnightblue" points="538.4,-307.74 545.26,-299.65 534.86,-301.7 538.4,-307.74"/>
</g>
<!-- Node17 -->
<g id="node17" class="node">
<title>Node17</title>
<g id="a_node17"><a xlink:href="_byte_8h.html" target="_top" xlink:title="The Byte specification and body provides a value object type for byte values.">
<polygon fill="white" stroke="black" points="318.5,-168.5 318.5,-187.5 363.5,-187.5 363.5,-168.5 318.5,-168.5"/>
<text text-anchor="middle" x="341" y="-175.5" font-family="Helvetica,sans-Serif" font-size="10.00">Byte.h</text>
</a>
</g>
</g>
<!-- Node16&#45;&gt;Node17 -->
<g id="edge18" class="edge">
<title>Node16&#45;&gt;Node17</title>
<path fill="none" stroke="midnightblue" d="M542.82,-280.37C504.68,-261.21 412.74,-215.04 367.31,-192.22"/>
<polygon fill="midnightblue" stroke="midnightblue" points="368.61,-188.95 358.1,-187.59 365.47,-195.21 368.61,-188.95"/>
</g>
<!-- Node22 -->
<g id="node22" class="node">
<title>Node22</title>
<g id="a_node22"><a xlink:href="_string_list_8h.html" target="_top" xlink:title="The StringList specification defines lists of string values with zero&#45;based arbitrary indexed access ...">
<polygon fill="white" stroke="black" points="943,-224.5 943,-243.5 1009,-243.5 1009,-224.5 943,-224.5"/>
<text text-anchor="middle" x="976" y="-231.5" font-family="Helvetica,sans-Serif" font-size="10.00">StringList.h</text>
</a>
</g>
</g>
<!-- Node16&#45;&gt;Node22 -->
<g id="edge26" class="edge">
<title>Node16&#45;&gt;Node22</title>
<path fill="none" stroke="midnightblue" d="M590.59,-285.03C663.63,-275.55 848.39,-251.57 932.77,-240.61"/>
<polygon fill="midnightblue" stroke="midnightblue" points="933.32,-244.07 942.79,-239.31 932.42,-237.13 933.32,-244.07"/>
</g>
<!-- Node18 -->
<g id="node18" class="node">
<title>Node18</title>
<g id="a_node18"><a xlink:title=" ">
<polygon fill="white" stroke="#bfbfbf" points="584,-56.5 584,-75.5 628,-75.5 628,-56.5 584,-56.5"/>
<text text-anchor="middle" x="606" y="-63.5" font-family="Helvetica,sans-Serif" font-size="10.00">cmath</text>
</a>
</g>
</g>
<!-- Node17&#45;&gt;Node18 -->
<g id="edge19" class="edge">
<title>Node17&#45;&gt;Node18</title>
<path fill="none" stroke="midnightblue" d="M361.79,-168.37C408.43,-149.01 521.53,-102.06 575.87,-79.51"/>
<polygon fill="midnightblue" stroke="midnightblue" points="577.41,-82.66 585.3,-75.59 574.72,-76.19 577.41,-82.66"/>
</g>
<!-- Node19 -->
<g id="node19" class="node">
<title>Node19</title>
<g id="a_node19"><a xlink:title=" ">
<polygon fill="white" stroke="#bfbfbf" points="318,-112.5 318,-131.5 364,-131.5 364,-112.5 318,-112.5"/>
<text text-anchor="middle" x="341" y="-119.5" font-family="Helvetica,sans-Serif" font-size="10.00">cstdint</text>
</a>
</g>
</g>
<!-- Node17&#45;&gt;Node19 -->
<g id="edge20" class="edge">
<title>Node17&#45;&gt;Node19</title>
<path fill="none" stroke="midnightblue" d="M341,-168.08C341,-161.01 341,-150.86 341,-141.99"/>
<polygon fill="midnightblue" stroke="midnightblue" points="344.5,-141.75 341,-131.75 337.5,-141.75 344.5,-141.75"/>
</g>
<!-- Node20 -->
<g id="node20" class="node">
<title>Node20</title>
<g id="a_node20"><a xlink:href="_natural_8h.html" target="_top" xlink:title="The Natural specification and body provides a value object type for naturals (positive integers with ...">
<polygon fill="white" stroke="black" points="621,-112.5 621,-131.5 677,-131.5 677,-112.5 621,-112.5"/>
<text text-anchor="middle" x="649" y="-119.5" font-family="Helvetica,sans-Serif" font-size="10.00">Natural.h</text>
</a>
</g>
</g>
<!-- Node17&#45;&gt;Node20 -->
<g id="edge21" class="edge">
<title>Node17&#45;&gt;Node20</title>
<path fill="none" stroke="midnightblue" d="M363.64,-171.21C368.37,-170.08 373.34,-168.95 378,-168 460.58,-151.13 558.28,-136.1 610.88,-128.42"/>
<polygon fill="midnightblue" stroke="midnightblue" points="611.39,-131.88 620.78,-126.98 610.39,-124.95 611.39,-131.88"/>
</g>
<!-- Node20&#45;&gt;Node3 -->
<g id="edge23" class="edge">
<title>Node20&#45;&gt;Node3</title>
<path fill="none" stroke="midnightblue" d="M677.05,-115.97C729.86,-106.49 844.36,-85.95 906.97,-74.72"/>
<polygon fill="midnightblue" stroke="midnightblue" points="907.7,-78.14 916.93,-72.93 906.47,-71.25 907.7,-78.14"/>
</g>
<!-- Node20&#45;&gt;Node12 -->
<g id="edge25" class="edge">
<title>Node20&#45;&gt;Node12</title>
<path fill="none" stroke="midnightblue" d="M630.78,-112.44C612.1,-103.68 582.84,-89.94 561.38,-79.86"/>
<polygon fill="midnightblue" stroke="midnightblue" points="562.68,-76.6 552.14,-75.52 559.7,-82.93 562.68,-76.6"/>
</g>
<!-- Node20&#45;&gt;Node18 -->
<g id="edge22" class="edge">
<title>Node20&#45;&gt;Node18</title>
<path fill="none" stroke="midnightblue" d="M641.9,-112.08C635.76,-104.38 626.73,-93.03 619.26,-83.65"/>
<polygon fill="midnightblue" stroke="midnightblue" points="621.94,-81.39 612.97,-75.75 616.46,-85.75 621.94,-81.39"/>
</g>
<!-- Node21 -->
<g id="node21" class="node">
<title>Node21</title>
<g id="a_node21"><a xlink:title=" ">
<polygon fill="white" stroke="#bfbfbf" points="646,-56.5 646,-75.5 738,-75.5 738,-56.5 646,-56.5"/>
<text text-anchor="middle" x="692" y="-63.5" font-family="Helvetica,sans-Serif" font-size="10.00">GenericNumber.h</text>
</a>
</g>
</g>
<!-- Node20&#45;&gt;Node21 -->
<g id="edge24" class="edge">
<title>Node20&#45;&gt;Node21</title>
<path fill="none" stroke="midnightblue" d="M656.1,-112.08C662.24,-104.38 671.27,-93.03 678.74,-83.65"/>
<polygon fill="midnightblue" stroke="midnightblue" points="681.54,-85.75 685.03,-75.75 676.06,-81.39 681.54,-85.75"/>
</g>
<!-- Node22&#45;&gt;Node9 -->
<g id="edge28" class="edge">
<title>Node22&#45;&gt;Node9</title>
<path fill="none" stroke="midnightblue" d="M977.98,-224.08C979.57,-216.93 981.86,-206.64 983.85,-197.69"/>
<polygon fill="midnightblue" stroke="midnightblue" points="987.3,-198.27 986.06,-187.75 980.47,-196.75 987.3,-198.27"/>
</g>
<!-- Node23 -->
<g id="node23" class="node">
<title>Node23</title>
<g id="a_node23"><a xlink:title=" ">
<polygon fill="white" stroke="#bfbfbf" points="1066.5,-168.5 1066.5,-187.5 1139.5,-187.5 1139.5,-168.5 1066.5,-168.5"/>
<text text-anchor="middle" x="1103" y="-175.5" font-family="Helvetica,sans-Serif" font-size="10.00">initializer_list</text>
</a>
</g>
</g>
<!-- Node22&#45;&gt;Node23 -->
<g id="edge27" class="edge">
<title>Node22&#45;&gt;Node23</title>
<path fill="none" stroke="midnightblue" d="M996.12,-224.44C1017.02,-215.56 1049.93,-201.56 1073.72,-191.45"/>
<polygon fill="midnightblue" stroke="midnightblue" points="1075.14,-194.65 1082.97,-187.52 1072.4,-188.21 1075.14,-194.65"/>
</g>
<!-- Node25 -->
<g id="node25" class="node">
<title>Node25</title>
<g id="a_node25"><a xlink:title=" ">
<polygon fill="white" stroke="#bfbfbf" points="110.5,-336.5 110.5,-355.5 159.5,-355.5 159.5,-336.5 110.5,-336.5"/>
<text text-anchor="middle" x="135" y="-343.5" font-family="Helvetica,sans-Serif" font-size="10.00">cstdarg</text>
</a>
</g>
</g>
<!-- Node24&#45;&gt;Node25 -->
<g id="edge31" class="edge">
<title>Node24&#45;&gt;Node25</title>
<path fill="none" stroke="midnightblue" d="M165.89,-392.08C160.72,-384.53 153.15,-373.49 146.81,-364.23"/>
<polygon fill="midnightblue" stroke="midnightblue" points="149.54,-362.02 141,-355.75 143.76,-365.98 149.54,-362.02"/>
</g>
<!-- Node26 -->
<g id="node26" class="node">
<title>Node26</title>
<g id="a_node26"><a xlink:href="_logging_support_8h.html" target="_top" xlink:title="The LoggingSupport specification defines a class for simple entry/exit logging to a file or via an ar...">
<polygon fill="white" stroke="black" points="0,-336.5 0,-355.5 92,-355.5 92,-336.5 0,-336.5"/>
<text text-anchor="middle" x="46" y="-343.5" font-family="Helvetica,sans-Serif" font-size="10.00">LoggingSupport.h</text>
</a>
</g>
</g>
<!-- Node24&#45;&gt;Node26 -->
<g id="edge32" class="edge">
<title>Node24&#45;&gt;Node26</title>
<path fill="none" stroke="midnightblue" d="M152.03,-392.44C131.39,-383.6 98.94,-369.69 75.37,-359.59"/>
<polygon fill="midnightblue" stroke="midnightblue" points="76.44,-356.24 65.87,-355.52 73.68,-362.67 76.44,-356.24"/>
</g>
<!-- Node27 -->
<g id="node27" class="node">
<title>Node27</title>
<g id="a_node27"><a xlink:href="_string_util_8h.html" target="_top" xlink:title="The StringUtil specification defines several string routines not included in the standard C++ library...">
<polygon fill="white" stroke="black" points="177.5,-336.5 177.5,-355.5 242.5,-355.5 242.5,-336.5 177.5,-336.5"/>
<text text-anchor="middle" x="210" y="-343.5" font-family="Helvetica,sans-Serif" font-size="10.00">StringUtil.h</text>
</a>
</g>
</g>
<!-- Node24&#45;&gt;Node27 -->
<g id="edge35" class="edge">
<title>Node24&#45;&gt;Node27</title>
<path fill="none" stroke="midnightblue" d="M178.27,-392.08C183.64,-384.46 191.52,-373.26 198.08,-363.94"/>
<polygon fill="midnightblue" stroke="midnightblue" points="200.95,-365.94 203.84,-355.75 195.22,-361.91 200.95,-365.94"/>
</g>
<!-- Node26&#45;&gt;Node11 -->
<g id="edge33" class="edge">
<title>Node26&#45;&gt;Node11</title>
<path fill="none" stroke="midnightblue" d="M92.21,-337.41C95.18,-336.93 98.13,-336.46 101,-336 200.92,-320.07 228.87,-319.75 331.94,-300.09"/>
<polygon fill="midnightblue" stroke="midnightblue" points="332.65,-303.52 341.81,-298.2 331.33,-296.65 332.65,-303.52"/>
</g>
<!-- Node26&#45;&gt;Node20 -->
<g id="edge34" class="edge">
<title>Node26&#45;&gt;Node20</title>
<path fill="none" stroke="midnightblue" d="M67.98,-336.46C101.02,-323.7 165.54,-299.12 221,-280 270.83,-262.82 288.47,-270.55 334,-244 376.93,-218.97 371.68,-190.46 416,-168 479.2,-135.97 562.65,-126.66 610.61,-124.01"/>
<polygon fill="midnightblue" stroke="midnightblue" points="611.04,-127.49 620.86,-123.51 610.71,-120.5 611.04,-127.49"/>
</g>
<!-- Node27&#45;&gt;Node11 -->
<g id="edge36" class="edge">
<title>Node27&#45;&gt;Node11</title>
<path fill="none" stroke="midnightblue" d="M235.67,-336.44C262.92,-327.36 306.18,-312.94 336.65,-302.78"/>
<polygon fill="midnightblue" stroke="midnightblue" points="338.07,-306 346.45,-299.52 335.86,-299.36 338.07,-306"/>
</g>
<!-- Node27&#45;&gt;Node22 -->
<g id="edge46" class="edge">
<title>Node27&#45;&gt;Node22</title>
<path fill="none" stroke="midnightblue" d="M211.28,-336.46C213.93,-322.04 221.51,-293.14 241,-280 255.42,-270.27 777.06,-244.54 932.64,-237.06"/>
<polygon fill="midnightblue" stroke="midnightblue" points="932.95,-240.55 942.77,-236.58 932.61,-233.56 932.95,-240.55"/>
</g>
<!-- Node28 -->
<g id="node28" class="node">
<title>Node28</title>
<g id="a_node28"><a xlink:href="_character_8h.html" target="_top" xlink:title="The Character specification and body provides a value object type for character values.">
<polygon fill="white" stroke="black" points="258.5,-224.5 258.5,-243.5 325.5,-243.5 325.5,-224.5 258.5,-224.5"/>
<text text-anchor="middle" x="292" y="-231.5" font-family="Helvetica,sans-Serif" font-size="10.00">Character.h</text>
</a>
</g>
</g>
<!-- Node27&#45;&gt;Node28 -->
<g id="edge37" class="edge">
<title>Node27&#45;&gt;Node28</title>
<path fill="none" stroke="midnightblue" d="M206.95,-336.27C202.91,-323.05 197.44,-297.63 208,-280 217.15,-264.72 233.46,-254.33 249.29,-247.43"/>
<polygon fill="midnightblue" stroke="midnightblue" points="251.01,-250.51 259.01,-243.56 248.43,-244 251.01,-250.51"/>
</g>
<!-- Node29 -->
<g id="node29" class="node">
<title>Node29</title>
<g id="a_node29"><a xlink:href="_percentage_8h.html" target="_top" xlink:title="The Percentage specification and body provides a simple percentage type.">
<polygon fill="white" stroke="black" points="250,-280.5 250,-299.5 324,-299.5 324,-280.5 250,-280.5"/>
<text text-anchor="middle" x="287" y="-287.5" font-family="Helvetica,sans-Serif" font-size="10.00">Percentage.h</text>
</a>
</g>
</g>
<!-- Node27&#45;&gt;Node29 -->
<g id="edge40" class="edge">
<title>Node27&#45;&gt;Node29</title>
<path fill="none" stroke="midnightblue" d="M222.37,-336.32C234.16,-328.06 252.13,-315.45 266.14,-305.63"/>
<polygon fill="midnightblue" stroke="midnightblue" points="268.48,-308.26 274.66,-299.65 264.46,-302.53 268.48,-308.26"/>
</g>
<!-- Node28&#45;&gt;Node17 -->
<g id="edge39" class="edge">
<title>Node28&#45;&gt;Node17</title>
<path fill="none" stroke="midnightblue" d="M300.09,-224.08C307.16,-216.3 317.59,-204.8 326.15,-195.37"/>
<polygon fill="midnightblue" stroke="midnightblue" points="328.93,-197.51 333.06,-187.75 323.75,-192.8 328.93,-197.51"/>
</g>
<!-- Node28&#45;&gt;Node18 -->
<g id="edge38" class="edge">
<title>Node28&#45;&gt;Node18</title>
<path fill="none" stroke="midnightblue" d="M290.15,-224.48C285.89,-202.39 278.02,-142.82 309,-112 349.3,-71.9 501.41,-86.76 573.69,-75.71"/>
<polygon fill="midnightblue" stroke="midnightblue" points="574.53,-79.12 583.75,-73.89 573.28,-72.23 574.53,-79.12"/>
</g>
<!-- Node30 -->
<g id="node30" class="node">
<title>Node30</title>
<g id="a_node30"><a xlink:href="_real_8h.html" target="_top" xlink:title="The Real specification defines a value object type for real values.">
<polygon fill="white" stroke="black" points="1027,-224.5 1027,-243.5 1071,-243.5 1071,-224.5 1027,-224.5"/>
<text text-anchor="middle" x="1049" y="-231.5" font-family="Helvetica,sans-Serif" font-size="10.00">Real.h</text>
</a>
</g>
</g>
<!-- Node29&#45;&gt;Node30 -->
<g id="edge41" class="edge">
<title>Node29&#45;&gt;Node30</title>
<path fill="none" stroke="midnightblue" d="M324.09,-281.28C327.09,-280.8 330.09,-280.36 333,-280 632.32,-243.04 715.62,-293.72 1016.9,-243.77"/>
<polygon fill="midnightblue" stroke="midnightblue" points="1017.51,-247.22 1026.79,-242.11 1016.35,-240.32 1017.51,-247.22"/>
</g>
<!-- Node31 -->
<g id="node31" class="node">
<title>Node31</title>
<g id="a_node31"><a xlink:href="_integer_8h.html" target="_top" xlink:title="The Integer specification and body provides a value object type for ints.">
<polygon fill="white" stroke="black" points="1245,-168.5 1245,-187.5 1299,-187.5 1299,-168.5 1245,-168.5"/>
<text text-anchor="middle" x="1272" y="-175.5" font-family="Helvetica,sans-Serif" font-size="10.00">Integer.h</text>
</a>
</g>
</g>
<!-- Node30&#45;&gt;Node31 -->
<g id="edge42" class="edge">
<title>Node30&#45;&gt;Node31</title>
<path fill="none" stroke="midnightblue" d="M1071.2,-227.62C1109.48,-218.35 1188.3,-199.27 1234.99,-187.96"/>
<polygon fill="midnightblue" stroke="midnightblue" points="1235.83,-191.36 1244.72,-185.61 1234.18,-184.56 1235.83,-191.36"/>
</g>
<!-- Node31&#45;&gt;Node4 -->
<g id="edge44" class="edge">
<title>Node31&#45;&gt;Node4</title>
<path fill="none" stroke="midnightblue" d="M1258.28,-168.31C1215.57,-141.25 1084.69,-58.32 1032.16,-25.04"/>
<polygon fill="midnightblue" stroke="midnightblue" points="1033.9,-22 1023.58,-19.61 1030.16,-27.91 1033.9,-22"/>
</g>
<!-- Node31&#45;&gt;Node18 -->
<g id="edge43" class="edge">
<title>Node31&#45;&gt;Node18</title>
<path fill="none" stroke="midnightblue" d="M1244.7,-170.76C1240.14,-169.79 1235.44,-168.83 1231,-168 971.61,-119.49 899.57,-133.45 638.05,-76"/>
<polygon fill="midnightblue" stroke="midnightblue" points="638.78,-72.58 628.26,-73.84 637.27,-79.41 638.78,-72.58"/>
</g>
<!-- Node31&#45;&gt;Node20 -->
<g id="edge45" class="edge">
<title>Node31&#45;&gt;Node20</title>
<path fill="none" stroke="midnightblue" d="M1244.75,-170.47C1240.18,-169.53 1235.47,-168.66 1231,-168 1027.31,-137.92 780.36,-127.24 687.1,-124.11"/>
<polygon fill="midnightblue" stroke="midnightblue" points="687.13,-120.61 677.02,-123.79 686.9,-127.61 687.13,-120.61"/>
</g>
<!-- Node32&#45;&gt;Node7 -->
<g id="edge58" class="edge">
<title>Node32&#45;&gt;Node7</title>
<path fill="none" stroke="midnightblue" d="M1019.47,-450.32C933.07,-439.55 764.47,-418.52 684.34,-408.53"/>
<polygon fill="midnightblue" stroke="midnightblue" points="684.46,-405.02 674.1,-407.25 683.59,-411.96 684.46,-405.02"/>
</g>
<!-- Node32&#45;&gt;Node20 -->
<g id="edge60" class="edge">
<title>Node32&#45;&gt;Node20</title>
<path fill="none" stroke="midnightblue" d="M1122.34,-448.43C1163.02,-440.42 1216.47,-427.4 1232,-412 1253.37,-390.81 1251,-377.1 1251,-347 1251,-347 1251,-347 1251,-289 1251,-218.66 1212.97,-197.24 1149,-168 1107.38,-148.97 797.57,-130.88 687.59,-124.99"/>
<polygon fill="midnightblue" stroke="midnightblue" points="687.45,-121.48 677.28,-124.45 687.08,-128.47 687.45,-121.48"/>
</g>
<!-- Node32&#45;&gt;Node22 -->
<g id="edge69" class="edge">
<title>Node32&#45;&gt;Node22</title>
<path fill="none" stroke="midnightblue" d="M1073.72,-448.42C1075.56,-421.29 1078.02,-335.84 1042,-280 1033.14,-266.27 1018.46,-255.65 1005.19,-248.18"/>
<polygon fill="midnightblue" stroke="midnightblue" points="1006.8,-245.07 996.32,-243.51 1003.54,-251.26 1006.8,-245.07"/>
</g>
<!-- Node32&#45;&gt;Node30 -->
<g id="edge59" class="edge">
<title>Node32&#45;&gt;Node30</title>
<path fill="none" stroke="midnightblue" d="M1079.67,-448.26C1093.98,-428.45 1125.33,-378.5 1113,-336 1103.37,-302.81 1079.19,-270.07 1063.47,-251.23"/>
<polygon fill="midnightblue" stroke="midnightblue" points="1066.09,-248.91 1056.92,-243.6 1060.78,-253.47 1066.09,-248.91"/>
</g>
<!-- Node33 -->
<g id="node33" class="node">
<title>Node33</title>
<g id="a_node33"><a xlink:href="_audio_sample_list_vector_8h.html" target="_top" xlink:title="The AudioSampleListVector specification defines the communication buffer structure for the block proc...">
<polygon fill="white" stroke="black" points="789.5,-392.5 789.5,-411.5 916.5,-411.5 916.5,-392.5 789.5,-392.5"/>
<text text-anchor="middle" x="853" y="-399.5" font-family="Helvetica,sans-Serif" font-size="10.00">AudioSampleListVector.h</text>
</a>
</g>
</g>
<!-- Node32&#45;&gt;Node33 -->
<g id="edge48" class="edge">
<title>Node32&#45;&gt;Node33</title>
<path fill="none" stroke="midnightblue" d="M1038.14,-448.44C1000.08,-439.1 939.04,-424.12 897.54,-413.93"/>
<polygon fill="midnightblue" stroke="midnightblue" points="898.24,-410.5 887.7,-411.52 896.57,-417.3 898.24,-410.5"/>
</g>
<!-- Node40 -->
<g id="node40" class="node">
<title>Node40</title>
<g id="a_node40"><a xlink:href="_midi_event_list_8h.html" target="_top" xlink:title="The MidiEventList specification defines lists of MIDI events with zero&#45;based arbitrary indexed access...">
<polygon fill="white" stroke="black" points="1139.5,-392.5 1139.5,-411.5 1222.5,-411.5 1222.5,-392.5 1139.5,-392.5"/>
<text text-anchor="middle" x="1181" y="-399.5" font-family="Helvetica,sans-Serif" font-size="10.00">MidiEventList.h</text>
</a>
</g>
</g>
<!-- Node32&#45;&gt;Node40 -->
<g id="edge61" class="edge">
<title>Node32&#45;&gt;Node40</title>
<path fill="none" stroke="midnightblue" d="M1090.35,-448.32C1107.67,-439.66 1134.52,-426.24 1154.5,-416.25"/>
<polygon fill="midnightblue" stroke="midnightblue" points="1156.31,-419.26 1163.69,-411.65 1153.18,-413 1156.31,-419.26"/>
</g>
<!-- Node34 -->
<g id="node34" class="node">
<title>Node34</title>
<g id="a_node34"><a xlink:href="_audio_sample_list_8h.html" target="_top" xlink:title="The AudioSampleList specification defines lists of audio samples with zero&#45;based arbitrary indexed ac...">
<polygon fill="white" stroke="black" points="935,-336.5 935,-355.5 1033,-355.5 1033,-336.5 935,-336.5"/>
<text text-anchor="middle" x="984" y="-343.5" font-family="Helvetica,sans-Serif" font-size="10.00">AudioSampleList.h</text>
</a>
</g>
</g>
<!-- Node33&#45;&gt;Node34 -->
<g id="edge49" class="edge">
<title>Node33&#45;&gt;Node34</title>
<path fill="none" stroke="midnightblue" d="M873.76,-392.44C895.32,-383.56 929.26,-369.56 953.79,-359.45"/>
<polygon fill="midnightblue" stroke="midnightblue" points="955.43,-362.56 963.34,-355.52 952.76,-356.09 955.43,-362.56"/>
</g>
<!-- Node39 -->
<g id="node39" class="node">
<title>Node39</title>
<g id="a_node39"><a xlink:href="_audio_sample_list_vector_8cpp-inc.html" target="_top" xlink:title="The AudioSampleListVector body implements the communication buffer structure for the block processing...">
<polygon fill="white" stroke="black" points="678.5,-336.5 678.5,-355.5 831.5,-355.5 831.5,-336.5 678.5,-336.5"/>
<text text-anchor="middle" x="755" y="-343.5" font-family="Helvetica,sans-Serif" font-size="10.00">AudioSampleListVector.cpp&#45;inc</text>
</a>
</g>
</g>
<!-- Node33&#45;&gt;Node39 -->
<g id="edge57" class="edge">
<title>Node33&#45;&gt;Node39</title>
<path fill="none" stroke="midnightblue" d="M837.25,-392.32C821.68,-383.74 797.62,-370.49 779.54,-360.52"/>
<polygon fill="midnightblue" stroke="midnightblue" points="781.15,-357.42 770.71,-355.65 777.78,-363.55 781.15,-357.42"/>
</g>
<!-- Node34&#45;&gt;Node9 -->
<g id="edge50" class="edge">
<title>Node34&#45;&gt;Node9</title>
<path fill="none" stroke="midnightblue" d="M972.36,-336.42C962.25,-328.26 948.14,-315.03 941,-300 926.44,-269.36 919.61,-254.72 934,-224 940.04,-211.09 951.81,-200.6 962.82,-193"/>
<polygon fill="midnightblue" stroke="midnightblue" points="964.83,-195.87 971.37,-187.54 961.06,-189.97 964.83,-195.87"/>
</g>
<!-- Node35 -->
<g id="node35" class="node">
<title>Node35</title>
<g id="a_node35"><a xlink:href="_audio_sample_8h.html" target="_top" xlink:title="The AudioSample specification and body provides the definition of the audio sample (a real value).">
<polygon fill="white" stroke="black" points="949.5,-280.5 949.5,-299.5 1032.5,-299.5 1032.5,-280.5 949.5,-280.5"/>
<text text-anchor="middle" x="991" y="-287.5" font-family="Helvetica,sans-Serif" font-size="10.00">AudioSample.h</text>
</a>
</g>
</g>
<!-- Node34&#45;&gt;Node35 -->
<g id="edge51" class="edge">
<title>Node34&#45;&gt;Node35</title>
<path fill="none" stroke="midnightblue" d="M985.16,-336.08C986.08,-328.93 987.42,-318.64 988.58,-309.69"/>
<polygon fill="midnightblue" stroke="midnightblue" points="992.05,-310.12 989.87,-299.75 985.11,-309.22 992.05,-310.12"/>
</g>
<!-- Node36 -->
<g id="node36" class="node">
<title>Node36</title>
<g id="a_node36"><a xlink:href="_audio_sample_list_8cpp-inc.html" target="_top" xlink:title="The AudioSampleList body implements a simple list of audio samples (this is the effective code includ...">
<polygon fill="white" stroke="black" points="694.5,-280.5 694.5,-299.5 819.5,-299.5 819.5,-280.5 694.5,-280.5"/>
<text text-anchor="middle" x="757" y="-287.5" font-family="Helvetica,sans-Serif" font-size="10.00">AudioSampleList.cpp&#45;inc</text>
</a>
</g>
</g>
<!-- Node34&#45;&gt;Node36 -->
<g id="edge53" class="edge">
<title>Node34&#45;&gt;Node36</title>
<path fill="none" stroke="midnightblue" d="M948.03,-336.44C908.68,-327.08 845.51,-312.06 802.69,-301.87"/>
<polygon fill="midnightblue" stroke="midnightblue" points="803.34,-298.43 792.8,-299.52 801.72,-305.24 803.34,-298.43"/>
</g>
<!-- Node35&#45;&gt;Node30 -->
<g id="edge52" class="edge">
<title>Node35&#45;&gt;Node30</title>
<path fill="none" stroke="midnightblue" d="M1000.32,-280.32C1008.89,-272.34 1021.81,-260.31 1032.19,-250.65"/>
<polygon fill="midnightblue" stroke="midnightblue" points="1034.58,-253.21 1039.51,-243.83 1029.81,-248.09 1034.58,-253.21"/>
</g>
<!-- Node37 -->
<g id="node37" class="node">
<title>Node37</title>
<g id="a_node37"><a xlink:href="_my_array_8h.html" target="_top" xlink:title="The MyArray specification and body defines a generic array type for stack allocated arrays represente...">
<polygon fill="white" stroke="black" points="707,-224.5 707,-243.5 769,-243.5 769,-224.5 707,-224.5"/>
<text text-anchor="middle" x="738" y="-231.5" font-family="Helvetica,sans-Serif" font-size="10.00">MyArray.h</text>
</a>
</g>
</g>
<!-- Node36&#45;&gt;Node37 -->
<g id="edge54" class="edge">
<title>Node36&#45;&gt;Node37</title>
<path fill="none" stroke="midnightblue" d="M753.86,-280.08C751.32,-272.85 747.64,-262.41 744.47,-253.4"/>
<polygon fill="midnightblue" stroke="midnightblue" points="747.7,-252.02 741.08,-243.75 741.1,-254.35 747.7,-252.02"/>
</g>
<!-- Node37&#45;&gt;Node20 -->
<g id="edge56" class="edge">
<title>Node37&#45;&gt;Node20</title>
<path fill="none" stroke="midnightblue" d="M731.02,-224.37C716.26,-206.14 681.71,-163.43 662.49,-139.68"/>
<polygon fill="midnightblue" stroke="midnightblue" points="664.96,-137.16 655.95,-131.59 659.52,-141.57 664.96,-137.16"/>
</g>
<!-- Node38 -->
<g id="node38" class="node">
<title>Node38</title>
<g id="a_node38"><a xlink:title=" ">
<polygon fill="white" stroke="#bfbfbf" points="715,-168.5 715,-187.5 761,-187.5 761,-168.5 715,-168.5"/>
<text text-anchor="middle" x="738" y="-175.5" font-family="Helvetica,sans-Serif" font-size="10.00">cstring</text>
</a>
</g>
</g>
<!-- Node37&#45;&gt;Node38 -->
<g id="edge55" class="edge">
<title>Node37&#45;&gt;Node38</title>
<path fill="none" stroke="midnightblue" d="M738,-224.08C738,-217.01 738,-206.86 738,-197.99"/>
<polygon fill="midnightblue" stroke="midnightblue" points="741.5,-197.75 738,-187.75 734.5,-197.75 741.5,-197.75"/>
</g>
<!-- Node40&#45;&gt;Node9 -->
<g id="edge63" class="edge">
<title>Node40&#45;&gt;Node9</title>
<path fill="none" stroke="midnightblue" d="M1180.63,-392.17C1178.87,-362.75 1168.91,-267.4 1113,-224 1090.34,-206.41 1060.2,-195.29 1035.19,-188.51"/>
<polygon fill="midnightblue" stroke="midnightblue" points="1035.73,-185.03 1025.18,-185.94 1034,-191.81 1035.73,-185.03"/>
</g>
<!-- Node40&#45;&gt;Node23 -->
<g id="edge62" class="edge">
<title>Node40&#45;&gt;Node23</title>
<path fill="none" stroke="midnightblue" d="M1184.47,-392.44C1194.86,-365.36 1222.93,-280.05 1189,-224 1179.59,-208.46 1162.85,-198.02 1146.62,-191.15"/>
<polygon fill="midnightblue" stroke="midnightblue" points="1147.77,-187.85 1137.18,-187.51 1145.25,-194.37 1147.77,-187.85"/>
</g>
<!-- Node41 -->
<g id="node41" class="node">
<title>Node41</title>
<g id="a_node41"><a xlink:href="_midi_event_8h.html" target="_top" xlink:title="The MidiEvent specification defines a single MIDI event and the MIDI event kind enumeration.">
<polygon fill="white" stroke="black" points="849.5,-336.5 849.5,-355.5 916.5,-355.5 916.5,-336.5 849.5,-336.5"/>
<text text-anchor="middle" x="883" y="-343.5" font-family="Helvetica,sans-Serif" font-size="10.00">MidiEvent.h</text>
</a>
</g>
</g>
<!-- Node40&#45;&gt;Node41 -->
<g id="edge64" class="edge">
<title>Node40&#45;&gt;Node41</title>
<path fill="none" stroke="midnightblue" d="M1139.41,-394.08C1090.84,-385.9 1007.85,-371.64 926.67,-356.08"/>
<polygon fill="midnightblue" stroke="midnightblue" points="927.26,-352.63 916.78,-354.18 925.94,-359.5 927.26,-352.63"/>
</g>
<!-- Node41&#45;&gt;Node11 -->
<g id="edge65" class="edge">
<title>Node41&#45;&gt;Node11</title>
<path fill="none" stroke="midnightblue" d="M849.14,-337.38C846.39,-336.87 843.65,-336.41 841,-336 668.48,-309.67 623.58,-318 450,-300 437.84,-298.74 424.62,-297.26 412.58,-295.86"/>
<polygon fill="midnightblue" stroke="midnightblue" points="412.7,-292.35 402.36,-294.67 411.88,-299.3 412.7,-292.35"/>
</g>
<!-- Node41&#45;&gt;Node14 -->
<g id="edge68" class="edge">
<title>Node41&#45;&gt;Node14</title>
<path fill="none" stroke="midnightblue" d="M849.13,-337.44C846.38,-336.92 843.65,-336.43 841,-336 702.92,-313.5 663.6,-324.87 521.6,-299.86"/>
<polygon fill="midnightblue" stroke="midnightblue" points="522.11,-296.4 511.65,-298.08 520.88,-303.29 522.11,-296.4"/>
</g>
<!-- Node41&#45;&gt;Node16 -->
<g id="edge67" class="edge">
<title>Node41&#45;&gt;Node16</title>
<path fill="none" stroke="midnightblue" d="M849.1,-337.58C846.37,-337.03 843.64,-336.49 841,-336 755.91,-320.08 655.67,-304.87 600.87,-296.86"/>
<polygon fill="midnightblue" stroke="midnightblue" points="601.26,-293.38 590.86,-295.4 600.25,-300.31 601.26,-293.38"/>
</g>
<!-- Node41&#45;&gt;Node31 -->
<g id="edge66" class="edge">
<title>Node41&#45;&gt;Node31</title>
<path fill="none" stroke="midnightblue" d="M888.25,-336.36C897.25,-322.33 916.99,-294.65 941,-280 995.48,-246.76 1018.85,-262.24 1080,-244 1136.34,-227.19 1200.92,-204.64 1238.99,-191"/>
<polygon fill="midnightblue" stroke="midnightblue" points="1240.31,-194.24 1248.53,-187.56 1237.94,-187.65 1240.31,-194.24"/>
</g>
<!-- Node42&#45;&gt;Node20 -->
<g id="edge71" class="edge">
<title>Node42&#45;&gt;Node20</title>
<path fill="none" stroke="midnightblue" d="M1199.81,-448.49C1230.75,-433.05 1289,-397.31 1289,-347 1289,-347 1289,-347 1289,-289 1289,-217.21 1248.68,-194.59 1182,-168 1136.36,-149.8 801.89,-130.94 687.35,-124.95"/>
<polygon fill="midnightblue" stroke="midnightblue" points="687.45,-121.45 677.28,-124.42 687.09,-128.44 687.45,-121.45"/>
</g>
<!-- Node42&#45;&gt;Node40 -->
<g id="edge72" class="edge">
<title>Node42&#45;&gt;Node40</title>
<path fill="none" stroke="midnightblue" d="M1181,-448.08C1181,-441.01 1181,-430.86 1181,-421.99"/>
<polygon fill="midnightblue" stroke="midnightblue" points="1184.5,-421.75 1181,-411.75 1177.5,-421.75 1184.5,-421.75"/>
</g>
<!-- Node43&#45;&gt;Node7 -->
<g id="edge75" class="edge">
<title>Node43&#45;&gt;Node7</title>
<path fill="none" stroke="midnightblue" d="M401,-448.44C454.37,-438.29 542.77,-421.49 595.79,-411.41"/>
<polygon fill="midnightblue" stroke="midnightblue" points="596.74,-414.79 605.91,-409.48 595.43,-407.91 596.74,-414.79"/>
</g>
<!-- Node43&#45;&gt;Node11 -->
<g id="edge74" class="edge">
<title>Node43&#45;&gt;Node11</title>
<path fill="none" stroke="midnightblue" d="M336.09,-448.41C321.78,-441.04 303.54,-428.92 295,-412 279.77,-381.85 278.19,-365.3 295,-336 303.62,-320.99 319.39,-310.5 334.43,-303.46"/>
<polygon fill="midnightblue" stroke="midnightblue" points="335.82,-306.67 343.63,-299.51 333.06,-300.24 335.82,-306.67"/>
</g>
<!-- Node43&#45;&gt;Node20 -->
<g id="edge76" class="edge">
<title>Node43&#45;&gt;Node20</title>
<path fill="none" stroke="midnightblue" d="M349.81,-448.29C335.66,-427.24 303.98,-372.59 328,-336 350.06,-302.38 376.19,-320.13 411,-300 499.27,-248.95 593.39,-170.97 631.49,-138.27"/>
<polygon fill="midnightblue" stroke="midnightblue" points="633.87,-140.84 639.15,-131.66 629.29,-135.54 633.87,-140.84"/>
</g>
<!-- Node44&#45;&gt;Node14 -->
<g id="edge80" class="edge">
<title>Node44&#45;&gt;Node14</title>
<path fill="none" stroke="midnightblue" d="M531.37,-448.08C523.65,-421.95 501,-345.21 490.48,-309.58"/>
<polygon fill="midnightblue" stroke="midnightblue" points="493.72,-308.17 487.53,-299.57 487,-310.15 493.72,-308.17"/>
</g>
<!-- Node44&#45;&gt;Node20 -->
<g id="edge79" class="edge">
<title>Node44&#45;&gt;Node20</title>
<path fill="none" stroke="midnightblue" d="M536.01,-448.46C540.97,-428.22 554.84,-376.01 575,-336 583.77,-318.6 591.73,-317.64 600,-300 625.55,-245.51 640.06,-175.15 645.92,-141.95"/>
<polygon fill="midnightblue" stroke="midnightblue" points="649.42,-142.28 647.64,-131.84 642.51,-141.11 649.42,-142.28"/>
</g>
<!-- Node44&#45;&gt;Node33 -->
<g id="edge78" class="edge">
<title>Node44&#45;&gt;Node33</title>
<path fill="none" stroke="midnightblue" d="M566.53,-449.86C569.72,-449.21 572.92,-448.58 576,-448 647.1,-434.61 728.93,-421.62 785.11,-413.06"/>
<polygon fill="midnightblue" stroke="midnightblue" points="785.93,-416.47 795.29,-411.51 784.88,-409.55 785.93,-416.47"/>
</g>
</g>
</svg>
