<?xml version="1.0" encoding="UTF-8" standalone="no"?>
<!DOCTYPE svg PUBLIC "-//W3C//DTD SVG 1.1//EN"
 "http://www.w3.org/Graphics/SVG/1.1/DTD/svg11.dtd">
<!-- Generated by graphviz version 2.47.1 (20210417.1919)
 -->
<!-- Title: FluidSynthPlugin_Editor.cpp Pages: 1 -->
<svg width="1973pt" height="478pt"
 viewBox="0.00 0.00 1972.50 478.00" xmlns="http://www.w3.org/2000/svg" xmlns:xlink="http://www.w3.org/1999/xlink">
<g id="graph0" class="graph" transform="scale(1 1) rotate(0) translate(4 474)">
<title>FluidSynthPlugin_Editor.cpp</title>
<!-- Node1 -->
<g id="Node000001" class="node">
<title>Node1</title>
<g id="a_Node000001"><a xlink:title="The FluidSynthPlugin_Editor module implements the editor for the processor of MIDI events from the DA...">
<polygon fill="#999999" stroke="#666666" points="362,-470 222,-470 222,-451 362,-451 362,-470"/>
<text text-anchor="middle" x="292" y="-458" font-family="Helvetica,sans-Serif" font-size="10.00">FluidSynthPlugin_Editor.cpp</text>
</a>
</g>
</g>
<!-- Node2 -->
<g id="Node000002" class="node">
<title>Node2</title>
<g id="a_Node000002"><a xlink:href="_assertion_8h.html" target="_top" xlink:title="The Assertion specification defines macros for pre&#45; and postconditions in functions or methods.">
<polygon fill="white" stroke="#666666" points="287,-74 221,-74 221,-55 287,-55 287,-74"/>
<text text-anchor="middle" x="254" y="-62" font-family="Helvetica,sans-Serif" font-size="10.00">Assertion.h</text>
</a>
</g>
</g>
<!-- Node1&#45;&gt;Node2 -->
<g id="edge1_Node000001_Node000002" class="edge">
<title>Node1&#45;&gt;Node2</title>
<g id="a_edge1_Node000001_Node000002"><a xlink:title=" ">
<path fill="none" stroke="#63b8ff" d="M238.44,-450.97C154.14,-436 0,-401.77 0,-351.5 0,-351.5 0,-351.5 0,-173.5 0,-128.28 138.03,-91.04 210.59,-74.59"/>
<polygon fill="#63b8ff" stroke="#63b8ff" points="211.8,-77.91 220.79,-72.31 210.27,-71.07 211.8,-77.91"/>
</a>
</g>
</g>
<!-- Node5 -->
<g id="Node000005" class="node">
<title>Node5</title>
<g id="a_Node000005"><a xlink:href="_environment_8h.html" target="_top" xlink:title="The Environment specification defines operating system services related to environment variables.">
<polygon fill="white" stroke="#666666" points="146,-305 68,-305 68,-286 146,-286 146,-305"/>
<text text-anchor="middle" x="107" y="-293" font-family="Helvetica,sans-Serif" font-size="10.00">Environment.h</text>
</a>
</g>
</g>
<!-- Node1&#45;&gt;Node5 -->
<g id="edge4_Node000001_Node000005" class="edge">
<title>Node1&#45;&gt;Node5</title>
<g id="a_edge4_Node000001_Node000005"><a xlink:title=" ">
<path fill="none" stroke="#63b8ff" d="M282.31,-450.97C252.73,-424.9 163.24,-346.06 124.83,-312.21"/>
<polygon fill="#63b8ff" stroke="#63b8ff" points="126.86,-309.33 117.04,-305.34 122.23,-314.58 126.86,-309.33"/>
</a>
</g>
</g>
<!-- Node14 -->
<g id="Node000014" class="node">
<title>Node14</title>
<g id="a_Node000014"><a xlink:href="_logging_8h.html" target="_top" xlink:title="The Logging specification defines macros for entry&#45;, exit&#45; and intermediate logging of functions into...">
<polygon fill="white" stroke="#666666" points="321.5,-415 262.5,-415 262.5,-396 321.5,-396 321.5,-415"/>
<text text-anchor="middle" x="292" y="-403" font-family="Helvetica,sans-Serif" font-size="10.00">Logging.h</text>
</a>
</g>
</g>
<!-- Node1&#45;&gt;Node14 -->
<g id="edge16_Node000001_Node000014" class="edge">
<title>Node1&#45;&gt;Node14</title>
<g id="a_edge16_Node000001_Node000014"><a xlink:title=" ">
<path fill="none" stroke="#63b8ff" d="M292,-450.75C292,-443.8 292,-433.85 292,-425.13"/>
<polygon fill="#63b8ff" stroke="#63b8ff" points="295.5,-425.09 292,-415.09 288.5,-425.09 295.5,-425.09"/>
</a>
</g>
</g>
<!-- Node27 -->
<g id="Node000027" class="node">
<title>Node27</title>
<g id="a_Node000027"><a xlink:href="_fluid_synth_plugin___editor_8h.html" target="_top" xlink:title="The FluidSynthPlugin_Editor specification implements the editor for the processor of MIDI events from...">
<polygon fill="white" stroke="#666666" points="649.5,-415 520.5,-415 520.5,-396 649.5,-396 649.5,-415"/>
<text text-anchor="middle" x="585" y="-403" font-family="Helvetica,sans-Serif" font-size="10.00">FluidSynthPlugin_Editor.h</text>
</a>
</g>
</g>
<!-- Node1&#45;&gt;Node27 -->
<g id="edge38_Node000001_Node000027" class="edge">
<title>Node1&#45;&gt;Node27</title>
<g id="a_edge38_Node000001_Node000027"><a xlink:title=" ">
<path fill="none" stroke="#63b8ff" d="M339.08,-450.98C390.4,-441.7 472.54,-426.84 527.6,-416.88"/>
<polygon fill="#63b8ff" stroke="#63b8ff" points="528.34,-420.31 537.56,-415.08 527.09,-413.42 528.34,-420.31"/>
</a>
</g>
</g>
<!-- Node42 -->
<g id="Node000042" class="node">
<title>Node42</title>
<g id="a_Node000042"><a xlink:href="_fluid_synth_plugin___editor_support_8h.html" target="_top" xlink:title="The FluidSynthPlugin_EditorSupport specification defines support services for the editor of the Fluid...">
<polygon fill="white" stroke="#666666" points="502.5,-415 339.5,-415 339.5,-396 502.5,-396 502.5,-415"/>
<text text-anchor="middle" x="421" y="-403" font-family="Helvetica,sans-Serif" font-size="10.00">FluidSynthPlugin_EditorSupport.h</text>
</a>
</g>
</g>
<!-- Node1&#45;&gt;Node42 -->
<g id="edge55_Node000001_Node000042" class="edge">
<title>Node1&#45;&gt;Node42</title>
<g id="a_edge55_Node000001_Node000042"><a xlink:title=" ">
<path fill="none" stroke="#63b8ff" d="M312.73,-450.98C333.76,-442.34 366.55,-428.87 390.54,-419.02"/>
<polygon fill="#63b8ff" stroke="#63b8ff" points="391.98,-422.21 399.9,-415.17 389.32,-415.73 391.98,-422.21"/>
</a>
</g>
</g>
<!-- Node3 -->
<g id="Node000003" class="node">
<title>Node3</title>
<g id="a_Node000003"><a xlink:title=" ">
<polygon fill="#e0e0e0" stroke="#999999" points="402.5,-19 343.5,-19 343.5,0 402.5,0 402.5,-19"/>
<text text-anchor="middle" x="373" y="-7" font-family="Helvetica,sans-Serif" font-size="10.00">stdexcept</text>
</a>
</g>
</g>
<!-- Node2&#45;&gt;Node3 -->
<g id="edge2_Node000002_Node000003" class="edge">
<title>Node2&#45;&gt;Node3</title>
<g id="a_edge2_Node000002_Node000003"><a xlink:title=" ">
<path fill="none" stroke="#63b8ff" d="M273.12,-54.98C292.35,-46.42 322.23,-33.11 344.31,-23.28"/>
<polygon fill="#63b8ff" stroke="#63b8ff" points="345.82,-26.44 353.53,-19.17 342.97,-20.04 345.82,-26.44"/>
</a>
</g>
</g>
<!-- Node4 -->
<g id="Node000004" class="node">
<title>Node4</title>
<g id="a_Node000004"><a xlink:title=" ">
<polygon fill="#e0e0e0" stroke="#999999" points="273.5,-19 232.5,-19 232.5,0 273.5,0 273.5,-19"/>
<text text-anchor="middle" x="253" y="-7" font-family="Helvetica,sans-Serif" font-size="10.00">string</text>
</a>
</g>
</g>
<!-- Node2&#45;&gt;Node4 -->
<g id="edge3_Node000002_Node000004" class="edge">
<title>Node2&#45;&gt;Node4</title>
<g id="a_edge3_Node000002_Node000004"><a xlink:title=" ">
<path fill="none" stroke="#63b8ff" d="M253.83,-54.75C253.7,-47.8 253.52,-37.85 253.35,-29.13"/>
<polygon fill="#63b8ff" stroke="#63b8ff" points="256.85,-29.02 253.16,-19.09 249.85,-29.15 256.85,-29.02"/>
</a>
</g>
</g>
<!-- Node6 -->
<g id="Node000006" class="node">
<title>Node6</title>
<g id="a_Node000006"><a xlink:href="_boolean_8h.html" target="_top" xlink:title="The Boolean specification and body provides a value object type for boolean values.">
<polygon fill="white" stroke="#666666" points="220,-244.5 160,-244.5 160,-225.5 220,-225.5 220,-244.5"/>
<text text-anchor="middle" x="190" y="-232.5" font-family="Helvetica,sans-Serif" font-size="10.00">Boolean.h</text>
</a>
</g>
</g>
<!-- Node5&#45;&gt;Node6 -->
<g id="edge5_Node000005_Node000006" class="edge">
<title>Node5&#45;&gt;Node6</title>
<g id="a_edge5_Node000005_Node000006"><a xlink:title=" ">
<path fill="none" stroke="#63b8ff" d="M119.25,-285.87C132.36,-276.62 153.42,-261.78 169.15,-250.69"/>
<polygon fill="#63b8ff" stroke="#63b8ff" points="171.55,-253.29 177.7,-244.67 167.51,-247.57 171.55,-253.29"/>
</a>
</g>
</g>
<!-- Node9 -->
<g id="Node000009" class="node">
<title>Node9</title>
<g id="a_Node000009"><a xlink:href="_dictionary_8h.html" target="_top" xlink:title="The Dictionary specification defines maps from string keys to string values.">
<polygon fill="white" stroke="#666666" points="102,-244.5 34,-244.5 34,-225.5 102,-225.5 102,-244.5"/>
<text text-anchor="middle" x="68" y="-232.5" font-family="Helvetica,sans-Serif" font-size="10.00">Dictionary.h</text>
</a>
</g>
</g>
<!-- Node5&#45;&gt;Node9 -->
<g id="edge9_Node000005_Node000009" class="edge">
<title>Node5&#45;&gt;Node9</title>
<g id="a_edge9_Node000005_Node000009"><a xlink:title=" ">
<path fill="none" stroke="#63b8ff" d="M101.25,-285.87C95.54,-277.31 86.65,-263.97 79.49,-253.24"/>
<polygon fill="#63b8ff" stroke="#63b8ff" points="82.24,-251.05 73.78,-244.67 76.41,-254.93 82.24,-251.05"/>
</a>
</g>
</g>
<!-- Node11 -->
<g id="Node000011" class="node">
<title>Node11</title>
<g id="a_Node000011"><a xlink:href="_natural_8h.html" target="_top" xlink:title="The Natural specification and body provides a value object type for naturals (positive integers with ...">
<polygon fill="white" stroke="#666666" points="323,-129 267,-129 267,-110 323,-110 323,-129"/>
<text text-anchor="middle" x="295" y="-117" font-family="Helvetica,sans-Serif" font-size="10.00">Natural.h</text>
</a>
</g>
</g>
<!-- Node5&#45;&gt;Node11 -->
<g id="edge11_Node000005_Node000011" class="edge">
<title>Node5&#45;&gt;Node11</title>
<g id="a_edge11_Node000005_Node000011"><a xlink:title=" ">
<path fill="none" stroke="#63b8ff" d="M110.59,-285.9C117.05,-271.16 131.75,-240.67 151,-220 186.1,-182.31 237.83,-150.92 268.79,-134"/>
<polygon fill="#63b8ff" stroke="#63b8ff" points="270.54,-137.04 277.7,-129.23 267.23,-130.87 270.54,-137.04"/>
</a>
</g>
</g>
<!-- Node7 -->
<g id="Node000007" class="node">
<title>Node7</title>
<g id="a_Node000007"><a xlink:href="_my_string_8h.html" target="_top" xlink:title="The String specification defines a standard string type.">
<polygon fill="white" stroke="#666666" points="203,-74 139,-74 139,-55 203,-55 203,-74"/>
<text text-anchor="middle" x="171" y="-62" font-family="Helvetica,sans-Serif" font-size="10.00">MyString.h</text>
</a>
</g>
</g>
<!-- Node6&#45;&gt;Node7 -->
<g id="edge6_Node000006_Node000007" class="edge">
<title>Node6&#45;&gt;Node7</title>
<g id="a_edge6_Node000006_Node000007"><a xlink:title=" ">
<path fill="none" stroke="#63b8ff" d="M189.03,-225.41C186.1,-199.39 177.25,-120.97 173.14,-84.51"/>
<polygon fill="#63b8ff" stroke="#63b8ff" points="176.59,-83.82 171.99,-74.27 169.63,-84.6 176.59,-83.82"/>
</a>
</g>
</g>
<!-- Node7&#45;&gt;Node4 -->
<g id="edge7_Node000007_Node000004" class="edge">
<title>Node7&#45;&gt;Node4</title>
<g id="a_edge7_Node000007_Node000004"><a xlink:title=" ">
<path fill="none" stroke="#63b8ff" d="M184.17,-54.98C196.77,-46.84 216,-34.41 230.94,-24.76"/>
<polygon fill="#63b8ff" stroke="#63b8ff" points="233.09,-27.54 239.59,-19.17 229.29,-21.66 233.09,-27.54"/>
</a>
</g>
</g>
<!-- Node8 -->
<g id="Node000008" class="node">
<title>Node8</title>
<g id="a_Node000008"><a xlink:href="_global_macros_8h.html" target="_top" xlink:title="The GlobalMacros specification defines simple macros (e.g. for parameter modes).">
<polygon fill="white" stroke="#666666" points="213.5,-19 128.5,-19 128.5,0 213.5,0 213.5,-19"/>
<text text-anchor="middle" x="171" y="-7" font-family="Helvetica,sans-Serif" font-size="10.00">GlobalMacros.h</text>
</a>
</g>
</g>
<!-- Node7&#45;&gt;Node8 -->
<g id="edge8_Node000007_Node000008" class="edge">
<title>Node7&#45;&gt;Node8</title>
<g id="a_edge8_Node000007_Node000008"><a xlink:title=" ">
<path fill="none" stroke="#63b8ff" d="M171,-54.75C171,-47.8 171,-37.85 171,-29.13"/>
<polygon fill="#63b8ff" stroke="#63b8ff" points="174.5,-29.09 171,-19.09 167.5,-29.09 174.5,-29.09"/>
</a>
</g>
</g>
<!-- Node10 -->
<g id="Node000010" class="node">
<title>Node10</title>
<g id="a_Node000010"><a xlink:title=" ">
<polygon fill="#e0e0e0" stroke="#999999" points="105.5,-184 28.5,-184 28.5,-165 105.5,-165 105.5,-184"/>
<text text-anchor="middle" x="67" y="-172" font-family="Helvetica,sans-Serif" font-size="10.00">GenericMap.h</text>
</a>
</g>
</g>
<!-- Node9&#45;&gt;Node10 -->
<g id="edge10_Node000009_Node000010" class="edge">
<title>Node9&#45;&gt;Node10</title>
<g id="a_edge10_Node000009_Node000010"><a xlink:title=" ">
<path fill="none" stroke="#63b8ff" d="M67.85,-225.37C67.71,-217.25 67.5,-204.81 67.32,-194.39"/>
<polygon fill="#63b8ff" stroke="#63b8ff" points="70.82,-194.11 67.15,-184.17 63.82,-194.23 70.82,-194.11"/>
</a>
</g>
</g>
<!-- Node11&#45;&gt;Node2 -->
<g id="edge13_Node000011_Node000002" class="edge">
<title>Node11&#45;&gt;Node2</title>
<g id="a_edge13_Node000011_Node000002"><a xlink:title=" ">
<path fill="none" stroke="#63b8ff" d="M288.23,-109.75C282.44,-102.26 273.94,-91.28 266.86,-82.13"/>
<polygon fill="#63b8ff" stroke="#63b8ff" points="269.53,-79.86 260.64,-74.09 263.99,-84.14 269.53,-79.86"/>
</a>
</g>
</g>
<!-- Node11&#45;&gt;Node7 -->
<g id="edge15_Node000011_Node000007" class="edge">
<title>Node11&#45;&gt;Node7</title>
<g id="a_edge15_Node000011_Node000007"><a xlink:title=" ">
<path fill="none" stroke="#63b8ff" d="M275.08,-109.98C254.95,-101.38 223.62,-87.99 200.59,-78.15"/>
<polygon fill="#63b8ff" stroke="#63b8ff" points="201.86,-74.88 191.29,-74.17 199.1,-81.32 201.86,-74.88"/>
</a>
</g>
</g>
<!-- Node12 -->
<g id="Node000012" class="node">
<title>Node12</title>
<g id="a_Node000012"><a xlink:title=" ">
<polygon fill="#e0e0e0" stroke="#999999" points="542,-74 498,-74 498,-55 542,-55 542,-74"/>
<text text-anchor="middle" x="520" y="-62" font-family="Helvetica,sans-Serif" font-size="10.00">cmath</text>
</a>
</g>
</g>
<!-- Node11&#45;&gt;Node12 -->
<g id="edge12_Node000011_Node000012" class="edge">
<title>Node11&#45;&gt;Node12</title>
<g id="a_edge12_Node000011_Node000012"><a xlink:title=" ">
<path fill="none" stroke="#63b8ff" d="M323.04,-111.89C364.92,-102.03 443.6,-83.5 487.78,-73.09"/>
<polygon fill="#63b8ff" stroke="#63b8ff" points="488.78,-76.45 497.71,-70.75 487.17,-69.64 488.78,-76.45"/>
</a>
</g>
</g>
<!-- Node13 -->
<g id="Node000013" class="node">
<title>Node13</title>
<g id="a_Node000013"><a xlink:title=" ">
<polygon fill="#e0e0e0" stroke="#999999" points="397,-74 305,-74 305,-55 397,-55 397,-74"/>
<text text-anchor="middle" x="351" y="-62" font-family="Helvetica,sans-Serif" font-size="10.00">GenericNumber.h</text>
</a>
</g>
</g>
<!-- Node11&#45;&gt;Node13 -->
<g id="edge14_Node000011_Node000013" class="edge">
<title>Node11&#45;&gt;Node13</title>
<g id="a_edge14_Node000011_Node000013"><a xlink:title=" ">
<path fill="none" stroke="#63b8ff" d="M304,-109.98C312.19,-102.23 324.51,-90.58 334.47,-81.14"/>
<polygon fill="#63b8ff" stroke="#63b8ff" points="336.98,-83.59 341.84,-74.17 332.17,-78.5 336.98,-83.59"/>
</a>
</g>
</g>
<!-- Node15 -->
<g id="Node000015" class="node">
<title>Node15</title>
<g id="a_Node000015"><a xlink:title=" ">
<polygon fill="#e0e0e0" stroke="#999999" points="426.5,-360 377.5,-360 377.5,-341 426.5,-341 426.5,-360"/>
<text text-anchor="middle" x="402" y="-348" font-family="Helvetica,sans-Serif" font-size="10.00">cstdarg</text>
</a>
</g>
</g>
<!-- Node14&#45;&gt;Node15 -->
<g id="edge17_Node000014_Node000015" class="edge">
<title>Node14&#45;&gt;Node15</title>
<g id="a_edge17_Node000014_Node000015"><a xlink:title=" ">
<path fill="none" stroke="#63b8ff" d="M309.67,-395.98C327.29,-387.5 354.58,-374.35 374.93,-364.54"/>
<polygon fill="#63b8ff" stroke="#63b8ff" points="376.52,-367.66 384.01,-360.17 373.48,-361.36 376.52,-367.66"/>
</a>
</g>
</g>
<!-- Node16 -->
<g id="Node000016" class="node">
<title>Node16</title>
<g id="a_Node000016"><a xlink:href="_logging_support_8h.html" target="_top" xlink:title="The LoggingSupport specification defines a class for simple entry/exit logging to a file or via an ar...">
<polygon fill="white" stroke="#666666" points="294,-305 202,-305 202,-286 294,-286 294,-305"/>
<text text-anchor="middle" x="248" y="-293" font-family="Helvetica,sans-Serif" font-size="10.00">LoggingSupport.h</text>
</a>
</g>
</g>
<!-- Node14&#45;&gt;Node16 -->
<g id="edge18_Node000014_Node000016" class="edge">
<title>Node14&#45;&gt;Node16</title>
<g id="a_edge18_Node000014_Node000016"><a xlink:title=" ">
<path fill="none" stroke="#63b8ff" d="M288.4,-395.66C281.21,-378.01 264.94,-338.09 255.39,-314.64"/>
<polygon fill="#63b8ff" stroke="#63b8ff" points="258.54,-313.1 251.53,-305.16 252.06,-315.74 258.54,-313.1"/>
</a>
</g>
</g>
<!-- Node17 -->
<g id="Node000017" class="node">
<title>Node17</title>
<g id="a_Node000017"><a xlink:href="_string_util_8h.html" target="_top" xlink:title="The StringUtil specification defines several string routines not included in the standard C++ library...">
<polygon fill="white" stroke="#666666" points="359.5,-360 294.5,-360 294.5,-341 359.5,-341 359.5,-360"/>
<text text-anchor="middle" x="327" y="-348" font-family="Helvetica,sans-Serif" font-size="10.00">StringUtil.h</text>
</a>
</g>
</g>
<!-- Node14&#45;&gt;Node17 -->
<g id="edge21_Node000014_Node000017" class="edge">
<title>Node14&#45;&gt;Node17</title>
<g id="a_edge21_Node000014_Node000017"><a xlink:title=" ">
<path fill="none" stroke="#63b8ff" d="M297.78,-395.75C302.62,-388.42 309.68,-377.73 315.64,-368.7"/>
<polygon fill="#63b8ff" stroke="#63b8ff" points="318.74,-370.36 321.33,-360.09 312.9,-366.5 318.74,-370.36"/>
</a>
</g>
</g>
<!-- Node16&#45;&gt;Node6 -->
<g id="edge19_Node000016_Node000006" class="edge">
<title>Node16&#45;&gt;Node6</title>
<g id="a_edge19_Node000016_Node000006"><a xlink:title=" ">
<path fill="none" stroke="#63b8ff" d="M239.44,-285.87C230.62,-276.97 216.66,-262.89 205.82,-251.95"/>
<polygon fill="#63b8ff" stroke="#63b8ff" points="208.12,-249.3 198.59,-244.67 203.15,-254.23 208.12,-249.3"/>
</a>
</g>
</g>
<!-- Node16&#45;&gt;Node11 -->
<g id="edge20_Node000016_Node000011" class="edge">
<title>Node16&#45;&gt;Node11</title>
<g id="a_edge20_Node000016_Node000011"><a xlink:title=" ">
<path fill="none" stroke="#63b8ff" d="M250.15,-285.77C253.61,-271.83 260.64,-243.72 267,-220 274.61,-191.63 283.93,-158.86 289.67,-138.92"/>
<polygon fill="#63b8ff" stroke="#63b8ff" points="293.05,-139.84 292.46,-129.26 286.32,-137.9 293.05,-139.84"/>
</a>
</g>
</g>
<!-- Node17&#45;&gt;Node6 -->
<g id="edge22_Node000017_Node000006" class="edge">
<title>Node17&#45;&gt;Node6</title>
<g id="a_edge22_Node000017_Node000006"><a xlink:title=" ">
<path fill="none" stroke="#63b8ff" d="M294.28,-348.6C262.78,-345.8 216.56,-336.2 193,-305 182.29,-290.82 182.98,-269.93 185.45,-254.85"/>
<polygon fill="#63b8ff" stroke="#63b8ff" points="188.96,-255.16 187.54,-244.66 182.1,-253.76 188.96,-255.16"/>
</a>
</g>
</g>
<!-- Node18 -->
<g id="Node000018" class="node">
<title>Node18</title>
<g id="a_Node000018"><a xlink:href="_character_8h.html" target="_top" xlink:title="The Character specification and body provides a value object type for character values.">
<polygon fill="white" stroke="#666666" points="627.5,-244.5 560.5,-244.5 560.5,-225.5 627.5,-225.5 627.5,-244.5"/>
<text text-anchor="middle" x="594" y="-232.5" font-family="Helvetica,sans-Serif" font-size="10.00">Character.h</text>
</a>
</g>
</g>
<!-- Node17&#45;&gt;Node18 -->
<g id="edge23_Node000017_Node000018" class="edge">
<title>Node17&#45;&gt;Node18</title>
<g id="a_edge23_Node000017_Node000018"><a xlink:title=" ">
<path fill="none" stroke="#63b8ff" d="M359.64,-342.54C362.46,-341.99 365.28,-341.47 368,-341 424.38,-331.19 585.47,-348.2 623,-305 636.37,-289.61 622.45,-267.15 609.67,-252.08"/>
<polygon fill="#63b8ff" stroke="#63b8ff" points="612.18,-249.63 602.87,-244.56 606.98,-254.33 612.18,-249.63"/>
</a>
</g>
</g>
<!-- Node21 -->
<g id="Node000021" class="node">
<title>Node21</title>
<g id="a_Node000021"><a xlink:href="_percentage_8h.html" target="_top" xlink:title="The Percentage specification and body provides a simple percentage type.">
<polygon fill="white" stroke="#666666" points="470,-305 396,-305 396,-286 470,-286 470,-305"/>
<text text-anchor="middle" x="433" y="-293" font-family="Helvetica,sans-Serif" font-size="10.00">Percentage.h</text>
</a>
</g>
</g>
<!-- Node17&#45;&gt;Node21 -->
<g id="edge29_Node000017_Node000021" class="edge">
<title>Node17&#45;&gt;Node21</title>
<g id="a_edge29_Node000017_Node000021"><a xlink:title=" ">
<path fill="none" stroke="#63b8ff" d="M344.03,-340.98C360.93,-332.54 387.06,-319.47 406.64,-309.68"/>
<polygon fill="#63b8ff" stroke="#63b8ff" points="408.28,-312.77 415.66,-305.17 405.15,-306.51 408.28,-312.77"/>
</a>
</g>
</g>
<!-- Node24 -->
<g id="Node000024" class="node">
<title>Node24</title>
<g id="a_Node000024"><a xlink:href="_string_list_8h.html" target="_top" xlink:title="The StringList specification defines lists of string values with zero&#45;based arbitrary indexed access ...">
<polygon fill="white" stroke="#666666" points="378,-305 312,-305 312,-286 378,-286 378,-305"/>
<text text-anchor="middle" x="345" y="-293" font-family="Helvetica,sans-Serif" font-size="10.00">StringList.h</text>
</a>
</g>
</g>
<!-- Node17&#45;&gt;Node24 -->
<g id="edge35_Node000017_Node000024" class="edge">
<title>Node17&#45;&gt;Node24</title>
<g id="a_edge35_Node000017_Node000024"><a xlink:title=" ">
<path fill="none" stroke="#63b8ff" d="M329.97,-340.75C332.36,-333.72 335.79,-323.62 338.77,-314.84"/>
<polygon fill="#63b8ff" stroke="#63b8ff" points="342.18,-315.68 342.08,-305.09 335.55,-313.43 342.18,-315.68"/>
</a>
</g>
</g>
<!-- Node18&#45;&gt;Node12 -->
<g id="edge24_Node000018_Node000012" class="edge">
<title>Node18&#45;&gt;Node12</title>
<g id="a_edge24_Node000018_Node000012"><a xlink:title=" ">
<path fill="none" stroke="#63b8ff" d="M593.14,-225.35C590.77,-204.38 582.77,-149.64 561,-110 555.16,-99.37 546.24,-89.27 538.21,-81.39"/>
<polygon fill="#63b8ff" stroke="#63b8ff" points="540.33,-78.58 530.63,-74.31 535.55,-83.69 540.33,-78.58"/>
</a>
</g>
</g>
<!-- Node19 -->
<g id="Node000019" class="node">
<title>Node19</title>
<g id="a_Node000019"><a xlink:href="_byte_8h.html" target="_top" xlink:title="The Byte specification and body provides a value object type for byte values.">
<polygon fill="white" stroke="#666666" points="564.5,-184 519.5,-184 519.5,-165 564.5,-165 564.5,-184"/>
<text text-anchor="middle" x="542" y="-172" font-family="Helvetica,sans-Serif" font-size="10.00">Byte.h</text>
</a>
</g>
</g>
<!-- Node18&#45;&gt;Node19 -->
<g id="edge25_Node000018_Node000019" class="edge">
<title>Node18&#45;&gt;Node19</title>
<g id="a_edge25_Node000018_Node000019"><a xlink:title=" ">
<path fill="none" stroke="#63b8ff" d="M586.33,-225.37C578.49,-216.55 566.14,-202.66 556.46,-191.77"/>
<polygon fill="#63b8ff" stroke="#63b8ff" points="558.96,-189.32 549.7,-184.17 553.73,-193.97 558.96,-189.32"/>
</a>
</g>
</g>
<!-- Node19&#45;&gt;Node11 -->
<g id="edge28_Node000019_Node000011" class="edge">
<title>Node19&#45;&gt;Node11</title>
<g id="a_edge28_Node000019_Node000011"><a xlink:title=" ">
<path fill="none" stroke="#63b8ff" d="M519.21,-168.61C476.77,-159.5 385.26,-139.87 333.22,-128.7"/>
<polygon fill="#63b8ff" stroke="#63b8ff" points="333.88,-125.26 323.36,-126.59 332.41,-132.11 333.88,-125.26"/>
</a>
</g>
</g>
<!-- Node19&#45;&gt;Node12 -->
<g id="edge26_Node000019_Node000012" class="edge">
<title>Node19&#45;&gt;Node12</title>
<g id="a_edge26_Node000019_Node000012"><a xlink:title=" ">
<path fill="none" stroke="#63b8ff" d="M544.32,-164.69C547.2,-152.26 551.14,-128.98 546,-110 543.34,-100.19 537.93,-90.33 532.72,-82.39"/>
<polygon fill="#63b8ff" stroke="#63b8ff" points="535.5,-80.25 526.89,-74.07 529.77,-84.27 535.5,-80.25"/>
</a>
</g>
</g>
<!-- Node20 -->
<g id="Node000020" class="node">
<title>Node20</title>
<g id="a_Node000020"><a xlink:title=" ">
<polygon fill="#e0e0e0" stroke="#999999" points="537,-129 491,-129 491,-110 537,-110 537,-129"/>
<text text-anchor="middle" x="514" y="-117" font-family="Helvetica,sans-Serif" font-size="10.00">cstdint</text>
</a>
</g>
</g>
<!-- Node19&#45;&gt;Node20 -->
<g id="edge27_Node000019_Node000020" class="edge">
<title>Node19&#45;&gt;Node20</title>
<g id="a_edge27_Node000019_Node000020"><a xlink:title=" ">
<path fill="none" stroke="#63b8ff" d="M537.38,-164.75C533.54,-157.49 527.98,-146.95 523.24,-137.98"/>
<polygon fill="#63b8ff" stroke="#63b8ff" points="526.3,-136.3 518.54,-129.09 520.11,-139.57 526.3,-136.3"/>
</a>
</g>
</g>
<!-- Node22 -->
<g id="Node000022" class="node">
<title>Node22</title>
<g id="a_Node000022"><a xlink:href="_real_8h.html" target="_top" xlink:title="The Real specification defines a value object type for real values.">
<polygon fill="white" stroke="#666666" points="504,-244.5 460,-244.5 460,-225.5 504,-225.5 504,-244.5"/>
<text text-anchor="middle" x="482" y="-232.5" font-family="Helvetica,sans-Serif" font-size="10.00">Real.h</text>
</a>
</g>
</g>
<!-- Node21&#45;&gt;Node22 -->
<g id="edge30_Node000021_Node000022" class="edge">
<title>Node21&#45;&gt;Node22</title>
<g id="a_edge30_Node000021_Node000022"><a xlink:title=" ">
<path fill="none" stroke="#63b8ff" d="M440.23,-285.87C447.54,-277.14 459.02,-263.43 468.1,-252.59"/>
<polygon fill="#63b8ff" stroke="#63b8ff" points="471,-254.58 474.74,-244.67 465.64,-250.09 471,-254.58"/>
</a>
</g>
</g>
<!-- Node23 -->
<g id="Node000023" class="node">
<title>Node23</title>
<g id="a_Node000023"><a xlink:href="_integer_8h.html" target="_top" xlink:title="The Integer specification and body provides a value object type for ints.">
<polygon fill="white" stroke="#666666" points="490,-184 436,-184 436,-165 490,-165 490,-184"/>
<text text-anchor="middle" x="463" y="-172" font-family="Helvetica,sans-Serif" font-size="10.00">Integer.h</text>
</a>
</g>
</g>
<!-- Node22&#45;&gt;Node23 -->
<g id="edge31_Node000022_Node000023" class="edge">
<title>Node22&#45;&gt;Node23</title>
<g id="a_edge31_Node000022_Node000023"><a xlink:title=" ">
<path fill="none" stroke="#63b8ff" d="M479.2,-225.37C476.5,-217.07 472.35,-204.28 468.92,-193.72"/>
<polygon fill="#63b8ff" stroke="#63b8ff" points="472.23,-192.6 465.82,-184.17 465.58,-194.76 472.23,-192.6"/>
</a>
</g>
</g>
<!-- Node23&#45;&gt;Node3 -->
<g id="edge33_Node000023_Node000003" class="edge">
<title>Node23&#45;&gt;Node3</title>
<g id="a_edge33_Node000023_Node000003"><a xlink:title=" ">
<path fill="none" stroke="#63b8ff" d="M459.52,-164.88C451.33,-144.93 429.72,-94.28 406,-55 400.16,-45.33 392.73,-35.16 386.4,-26.99"/>
<polygon fill="#63b8ff" stroke="#63b8ff" points="389.04,-24.69 380.09,-19.02 383.55,-29.03 389.04,-24.69"/>
</a>
</g>
</g>
<!-- Node23&#45;&gt;Node11 -->
<g id="edge34_Node000023_Node000011" class="edge">
<title>Node23&#45;&gt;Node11</title>
<g id="a_edge34_Node000023_Node000011"><a xlink:title=" ">
<path fill="none" stroke="#63b8ff" d="M436.01,-164.98C407.8,-156.09 363.36,-142.07 331.92,-132.15"/>
<polygon fill="#63b8ff" stroke="#63b8ff" points="332.79,-128.75 322.2,-129.08 330.69,-135.43 332.79,-128.75"/>
</a>
</g>
</g>
<!-- Node23&#45;&gt;Node12 -->
<g id="edge32_Node000023_Node000012" class="edge">
<title>Node23&#45;&gt;Node12</title>
<g id="a_edge32_Node000023_Node000012"><a xlink:title=" ">
<path fill="none" stroke="#63b8ff" d="M464.41,-164.84C466.72,-152.19 472.09,-128.19 482,-110 487.69,-99.56 496.11,-89.37 503.59,-81.38"/>
<polygon fill="#63b8ff" stroke="#63b8ff" points="506.12,-83.79 510.61,-74.19 501.11,-78.9 506.12,-83.79"/>
</a>
</g>
</g>
<!-- Node25 -->
<g id="Node000025" class="node">
<title>Node25</title>
<g id="a_Node000025"><a xlink:title=" ">
<polygon fill="#e0e0e0" stroke="#999999" points="349.5,-244.5 276.5,-244.5 276.5,-225.5 349.5,-225.5 349.5,-244.5"/>
<text text-anchor="middle" x="313" y="-232.5" font-family="Helvetica,sans-Serif" font-size="10.00">initializer_list</text>
</a>
</g>
</g>
<!-- Node24&#45;&gt;Node25 -->
<g id="edge36_Node000024_Node000025" class="edge">
<title>Node24&#45;&gt;Node25</title>
<g id="a_edge36_Node000024_Node000025"><a xlink:title=" ">
<path fill="none" stroke="#63b8ff" d="M340.28,-285.87C335.65,-277.4 328.45,-264.24 322.61,-253.57"/>
<polygon fill="#63b8ff" stroke="#63b8ff" points="325.61,-251.76 317.74,-244.67 319.47,-255.12 325.61,-251.76"/>
</a>
</g>
</g>
<!-- Node26 -->
<g id="Node000026" class="node">
<title>Node26</title>
<g id="a_Node000026"><a xlink:title=" ">
<polygon fill="#e0e0e0" stroke="#999999" points="442,-244.5 368,-244.5 368,-225.5 442,-225.5 442,-244.5"/>
<text text-anchor="middle" x="405" y="-232.5" font-family="Helvetica,sans-Serif" font-size="10.00">GenericList.h</text>
</a>
</g>
</g>
<!-- Node24&#45;&gt;Node26 -->
<g id="edge37_Node000024_Node000026" class="edge">
<title>Node24&#45;&gt;Node26</title>
<g id="a_edge37_Node000024_Node000026"><a xlink:title=" ">
<path fill="none" stroke="#63b8ff" d="M353.85,-285.87C362.98,-276.97 377.42,-262.89 388.64,-251.95"/>
<polygon fill="#63b8ff" stroke="#63b8ff" points="391.39,-254.15 396.11,-244.67 386.51,-249.14 391.39,-254.15"/>
</a>
</g>
</g>
<!-- Node28 -->
<g id="Node000028" class="node">
<title>Node28</title>
<g id="a_Node000028"><a xlink:href="_fluid_synth_plugin___event_processor_8h.html" target="_top" xlink:title="The FluidSynthPlugin_Processor specification defines the handling of MIDI events from the DAW via JUC...">
<polygon fill="white" stroke="#666666" points="671,-360 499,-360 499,-341 671,-341 671,-360"/>
<text text-anchor="middle" x="585" y="-348" font-family="Helvetica,sans-Serif" font-size="10.00">FluidSynthPlugin_EventProcessor.h</text>
</a>
</g>
</g>
<!-- Node27&#45;&gt;Node28 -->
<g id="edge39_Node000027_Node000028" class="edge">
<title>Node27&#45;&gt;Node28</title>
<g id="a_edge39_Node000027_Node000028"><a xlink:title=" ">
<path fill="none" stroke="#63b8ff" d="M585,-395.75C585,-388.8 585,-378.85 585,-370.13"/>
<polygon fill="#63b8ff" stroke="#63b8ff" points="588.5,-370.09 585,-360.09 581.5,-370.09 588.5,-370.09"/>
</a>
</g>
</g>
<!-- Node29 -->
<g id="Node000029" class="node">
<title>Node29</title>
<g id="a_Node000029"><a xlink:href="_juce_headers_8h_source.html" target="_top" xlink:title=" ">
<polygon fill="white" stroke="#666666" points="1225.5,-305 1144.5,-305 1144.5,-286 1225.5,-286 1225.5,-305"/>
<text text-anchor="middle" x="1185" y="-293" font-family="Helvetica,sans-Serif" font-size="10.00">JuceHeaders.h</text>
</a>
</g>
</g>
<!-- Node28&#45;&gt;Node29 -->
<g id="edge40_Node000028_Node000029" class="edge">
<title>Node28&#45;&gt;Node29</title>
<g id="a_edge40_Node000028_Node000029"><a xlink:title=" ">
<path fill="none" stroke="#63b8ff" d="M671.28,-341.88C798.26,-330.66 1031.47,-310.06 1134.17,-300.99"/>
<polygon fill="#63b8ff" stroke="#63b8ff" points="1134.62,-304.46 1144.28,-300.1 1134.01,-297.49 1134.62,-304.46"/>
</a>
</g>
</g>
<!-- Node40 -->
<g id="Node000040" class="node">
<title>Node40</title>
<g id="a_Node000040"><a xlink:href="_object_8h.html" target="_top" xlink:title="The Object specification and body provides the root object type.">
<polygon fill="white" stroke="#666666" points="1296.5,-305 1243.5,-305 1243.5,-286 1296.5,-286 1296.5,-305"/>
<text text-anchor="middle" x="1270" y="-293" font-family="Helvetica,sans-Serif" font-size="10.00">Object.h</text>
</a>
</g>
</g>
<!-- Node28&#45;&gt;Node40 -->
<g id="edge51_Node000028_Node000040" class="edge">
<title>Node28&#45;&gt;Node40</title>
<g id="a_edge51_Node000028_Node000040"><a xlink:title=" ">
<path fill="none" stroke="#63b8ff" d="M671.21,-348.25C794.16,-345.43 1026.97,-336.26 1233.23,-305.02"/>
<polygon fill="#63b8ff" stroke="#63b8ff" points="1233.99,-308.45 1243.34,-303.47 1232.93,-301.53 1233.99,-308.45"/>
</a>
</g>
</g>
<!-- Node41 -->
<g id="Node000041" class="node">
<title>Node41</title>
<g id="a_Node000041"><a xlink:href="_midi_preset_identification_8h.html" target="_top" xlink:title="The MidiPresetIdentification specification defines the identification of a MIDI preset as a tuple of ...">
<polygon fill="white" stroke="#666666" points="613.5,-305 488.5,-305 488.5,-286 613.5,-286 613.5,-305"/>
<text text-anchor="middle" x="551" y="-293" font-family="Helvetica,sans-Serif" font-size="10.00">MidiPresetIdentification.h</text>
</a>
</g>
</g>
<!-- Node28&#45;&gt;Node41 -->
<g id="edge52_Node000028_Node000041" class="edge">
<title>Node28&#45;&gt;Node41</title>
<g id="a_edge52_Node000028_Node000041"><a xlink:title=" ">
<path fill="none" stroke="#63b8ff" d="M579.39,-340.75C574.68,-333.42 567.83,-322.73 562.03,-313.7"/>
<polygon fill="#63b8ff" stroke="#63b8ff" points="564.86,-311.62 556.51,-305.09 558.96,-315.4 564.86,-311.62"/>
</a>
</g>
</g>
<!-- Node30 -->
<g id="Node000030" class="node">
<title>Node30</title>
<g id="a_Node000030"><a xlink:title=" ">
<polygon fill="#e0e0e0" stroke="#999999" points="883,-250 765,-250 765,-220 883,-220 883,-250"/>
<text text-anchor="start" x="773" y="-238" font-family="Helvetica,sans-Serif" font-size="10.00">juce_audio_basics/juce</text>
<text text-anchor="middle" x="824" y="-227" font-family="Helvetica,sans-Serif" font-size="10.00">_audio_basics.h</text>
</a>
</g>
</g>
<!-- Node29&#45;&gt;Node30 -->
<g id="edge41_Node000029_Node000030" class="edge">
<title>Node29&#45;&gt;Node30</title>
<g id="a_edge41_Node000029_Node000030"><a xlink:title=" ">
<path fill="none" stroke="#63b8ff" d="M1144.13,-288.98C1089.34,-281.43 988.82,-267.05 893.41,-250.2"/>
<polygon fill="#63b8ff" stroke="#63b8ff" points="893.76,-246.71 883.3,-248.4 892.54,-253.6 893.76,-246.71"/>
</a>
</g>
</g>
<!-- Node31 -->
<g id="Node000031" class="node">
<title>Node31</title>
<g id="a_Node000031"><a xlink:title=" ">
<polygon fill="#e0e0e0" stroke="#999999" points="1035,-250 901,-250 901,-220 1035,-220 1035,-250"/>
<text text-anchor="start" x="909" y="-238" font-family="Helvetica,sans-Serif" font-size="10.00">juce_audio_plugin_client</text>
<text text-anchor="middle" x="968" y="-227" font-family="Helvetica,sans-Serif" font-size="10.00">/juce_audio_plugin_client.h</text>
</a>
</g>
</g>
<!-- Node29&#45;&gt;Node31 -->
<g id="edge42_Node000029_Node000031" class="edge">
<title>Node29&#45;&gt;Node31</title>
<g id="a_edge42_Node000029_Node000031"><a xlink:title=" ">
<path fill="none" stroke="#63b8ff" d="M1153.45,-285.99C1121.19,-277.3 1070.25,-263.57 1029.92,-252.69"/>
<polygon fill="#63b8ff" stroke="#63b8ff" points="1030.74,-249.29 1020.17,-250.06 1028.91,-256.05 1030.74,-249.29"/>
</a>
</g>
</g>
<!-- Node32 -->
<g id="Node000032" class="node">
<title>Node32</title>
<g id="a_Node000032"><a xlink:title=" ">
<polygon fill="#e0e0e0" stroke="#999999" points="1181,-250 1053,-250 1053,-220 1181,-220 1181,-250"/>
<text text-anchor="start" x="1061" y="-238" font-family="Helvetica,sans-Serif" font-size="10.00">juce_audio_processors</text>
<text text-anchor="middle" x="1117" y="-227" font-family="Helvetica,sans-Serif" font-size="10.00">/juce_audio_processors.h</text>
</a>
</g>
</g>
<!-- Node29&#45;&gt;Node32 -->
<g id="edge43_Node000029_Node000032" class="edge">
<title>Node29&#45;&gt;Node32</title>
<g id="a_edge43_Node000029_Node000032"><a xlink:title=" ">
<path fill="none" stroke="#63b8ff" d="M1174.97,-285.87C1166.08,-278.22 1152.75,-266.76 1141.12,-256.75"/>
<polygon fill="#63b8ff" stroke="#63b8ff" points="1143.27,-253.98 1133.41,-250.11 1138.7,-259.29 1143.27,-253.98"/>
</a>
</g>
</g>
<!-- Node33 -->
<g id="Node000033" class="node">
<title>Node33</title>
<g id="a_Node000033"><a xlink:title=" ">
<polygon fill="#e0e0e0" stroke="#999999" points="1306.5,-250 1199.5,-250 1199.5,-220 1306.5,-220 1306.5,-250"/>
<text text-anchor="start" x="1207.5" y="-238" font-family="Helvetica,sans-Serif" font-size="10.00">juce_audio_utils/juce</text>
<text text-anchor="middle" x="1253" y="-227" font-family="Helvetica,sans-Serif" font-size="10.00">_audio_utils.h</text>
</a>
</g>
</g>
<!-- Node29&#45;&gt;Node33 -->
<g id="edge44_Node000029_Node000033" class="edge">
<title>Node29&#45;&gt;Node33</title>
<g id="a_edge44_Node000029_Node000033"><a xlink:title=" ">
<path fill="none" stroke="#63b8ff" d="M1195.03,-285.87C1203.92,-278.22 1217.25,-266.76 1228.88,-256.75"/>
<polygon fill="#63b8ff" stroke="#63b8ff" points="1231.3,-259.29 1236.59,-250.11 1226.73,-253.98 1231.3,-259.29"/>
</a>
</g>
</g>
<!-- Node34 -->
<g id="Node000034" class="node">
<title>Node34</title>
<g id="a_Node000034"><a xlink:title=" ">
<polygon fill="#e0e0e0" stroke="#999999" points="1437,-244.5 1325,-244.5 1325,-225.5 1437,-225.5 1437,-244.5"/>
<text text-anchor="middle" x="1381" y="-232.5" font-family="Helvetica,sans-Serif" font-size="10.00">juce_core/juce_core.h</text>
</a>
</g>
</g>
<!-- Node29&#45;&gt;Node34 -->
<g id="edge45_Node000029_Node000034" class="edge">
<title>Node29&#45;&gt;Node34</title>
<g id="a_edge45_Node000029_Node000034"><a xlink:title=" ">
<path fill="none" stroke="#63b8ff" d="M1213.5,-285.99C1247.61,-275.81 1304.87,-258.72 1342.79,-247.4"/>
<polygon fill="#63b8ff" stroke="#63b8ff" points="1343.88,-250.73 1352.47,-244.52 1341.88,-244.02 1343.88,-250.73"/>
</a>
</g>
</g>
<!-- Node35 -->
<g id="Node000035" class="node">
<title>Node35</title>
<g id="a_Node000035"><a xlink:title=" ">
<polygon fill="#e0e0e0" stroke="#999999" points="1574.5,-250 1455.5,-250 1455.5,-220 1574.5,-220 1574.5,-250"/>
<text text-anchor="start" x="1463.5" y="-238" font-family="Helvetica,sans-Serif" font-size="10.00">juce_data_structures</text>
<text text-anchor="middle" x="1515" y="-227" font-family="Helvetica,sans-Serif" font-size="10.00">/juce_data_structures.h</text>
</a>
</g>
</g>
<!-- Node29&#45;&gt;Node35 -->
<g id="edge46_Node000029_Node000035" class="edge">
<title>Node29&#45;&gt;Node35</title>
<g id="a_edge46_Node000029_Node000035"><a xlink:title=" ">
<path fill="none" stroke="#63b8ff" d="M1225.61,-287.59C1289.16,-276.78 1408.06,-256.55 1445.09,-250.06"/>
<polygon fill="#63b8ff" stroke="#63b8ff" points="1445.95,-253.46 1455.18,-248.26 1444.72,-246.57 1445.95,-253.46"/>
</a>
</g>
</g>
<!-- Node36 -->
<g id="Node000036" class="node">
<title>Node36</title>
<g id="a_Node000036"><a xlink:title=" ">
<polygon fill="#e0e0e0" stroke="#999999" points="1723,-244.5 1593,-244.5 1593,-225.5 1723,-225.5 1723,-244.5"/>
<text text-anchor="middle" x="1658" y="-232.5" font-family="Helvetica,sans-Serif" font-size="10.00">juce_events/juce_events.h</text>
</a>
</g>
</g>
<!-- Node29&#45;&gt;Node36 -->
<g id="edge47_Node000029_Node000036" class="edge">
<title>Node29&#45;&gt;Node36</title>
<g id="a_edge47_Node000029_Node000036"><a xlink:title=" ">
<path fill="none" stroke="#63b8ff" d="M1225.62,-287.36C1228.79,-286.88 1231.95,-286.42 1235,-286 1389.5,-264.92 1429.7,-272.51 1584,-250 1591.2,-248.95 1598.78,-247.69 1606.22,-246.37"/>
<polygon fill="#63b8ff" stroke="#63b8ff" points="1607.02,-249.78 1616.23,-244.54 1605.76,-242.89 1607.02,-249.78"/>
</a>
</g>
</g>
<!-- Node37 -->
<g id="Node000037" class="node">
<title>Node37</title>
<g id="a_Node000037"><a xlink:title=" ">
<polygon fill="#e0e0e0" stroke="#999999" points="1839,-250 1741,-250 1741,-220 1839,-220 1839,-250"/>
<text text-anchor="start" x="1749" y="-238" font-family="Helvetica,sans-Serif" font-size="10.00">juce_graphics/juce</text>
<text text-anchor="middle" x="1790" y="-227" font-family="Helvetica,sans-Serif" font-size="10.00">_graphics.h</text>
</a>
</g>
</g>
<!-- Node29&#45;&gt;Node37 -->
<g id="edge48_Node000029_Node000037" class="edge">
<title>Node29&#45;&gt;Node37</title>
<g id="a_edge48_Node000029_Node000037"><a xlink:title=" ">
<path fill="none" stroke="#63b8ff" d="M1225.61,-287.26C1228.78,-286.8 1231.94,-286.37 1235,-286 1451.64,-259.8 1511.43,-283.39 1730.86,-250"/>
<polygon fill="#63b8ff" stroke="#63b8ff" points="1731.4,-253.46 1740.75,-248.47 1730.33,-246.54 1731.4,-253.46"/>
</a>
</g>
</g>
<!-- Node38 -->
<g id="Node000038" class="node">
<title>Node38</title>
<g id="a_Node000038"><a xlink:title=" ">
<polygon fill="#e0e0e0" stroke="#999999" points="1964.5,-250 1857.5,-250 1857.5,-220 1964.5,-220 1964.5,-250"/>
<text text-anchor="start" x="1865.5" y="-238" font-family="Helvetica,sans-Serif" font-size="10.00">juce_gui_basics/juce</text>
<text text-anchor="middle" x="1911" y="-227" font-family="Helvetica,sans-Serif" font-size="10.00">_gui_basics.h</text>
</a>
</g>
</g>
<!-- Node29&#45;&gt;Node38 -->
<g id="edge49_Node000029_Node000038" class="edge">
<title>Node29&#45;&gt;Node38</title>
<g id="a_edge49_Node000029_Node000038"><a xlink:title=" ">
<path fill="none" stroke="#63b8ff" d="M1225.61,-287.21C1228.78,-286.76 1231.94,-286.35 1235,-286 1502.85,-255.46 1575.93,-286.93 1847.34,-249.91"/>
<polygon fill="#63b8ff" stroke="#63b8ff" points="1848.06,-253.34 1857.49,-248.5 1847.1,-246.41 1848.06,-253.34"/>
</a>
</g>
</g>
<!-- Node39 -->
<g id="Node000039" class="node">
<title>Node39</title>
<g id="a_Node000039"><a xlink:title=" ">
<polygon fill="#e0e0e0" stroke="#999999" points="746.5,-250 645.5,-250 645.5,-220 746.5,-220 746.5,-250"/>
<text text-anchor="start" x="653.5" y="-238" font-family="Helvetica,sans-Serif" font-size="10.00">juce_gui_extra/juce</text>
<text text-anchor="middle" x="696" y="-227" font-family="Helvetica,sans-Serif" font-size="10.00">_gui_extra.h</text>
</a>
</g>
</g>
<!-- Node29&#45;&gt;Node39 -->
<g id="edge50_Node000029_Node000039" class="edge">
<title>Node29&#45;&gt;Node39</title>
<g id="a_edge50_Node000029_Node000039"><a xlink:title=" ">
<path fill="none" stroke="#63b8ff" d="M1144.25,-291.99C1069.48,-287.01 905.2,-274.35 756.85,-249.99"/>
<polygon fill="#63b8ff" stroke="#63b8ff" points="757.09,-246.48 746.65,-248.29 755.94,-253.39 757.09,-246.48"/>
</a>
</g>
</g>
<!-- Node41&#45;&gt;Node6 -->
<g id="edge53_Node000041_Node000006" class="edge">
<title>Node41&#45;&gt;Node6</title>
<g id="a_edge53_Node000041_Node000006"><a xlink:title=" ">
<path fill="none" stroke="#63b8ff" d="M493.82,-285.96C436.42,-277.29 345.49,-263.28 267,-250 255.08,-247.98 242.15,-245.68 230.35,-243.53"/>
<polygon fill="#63b8ff" stroke="#63b8ff" points="230.79,-240.05 220.32,-241.69 229.53,-246.94 230.79,-240.05"/>
</a>
</g>
</g>
<!-- Node41&#45;&gt;Node23 -->
<g id="edge54_Node000041_Node000023" class="edge">
<title>Node41&#45;&gt;Node23</title>
<g id="a_edge54_Node000041_Node000023"><a xlink:title=" ">
<path fill="none" stroke="#63b8ff" d="M547.73,-285.63C542.09,-271.02 529.51,-241.37 513,-220 504.54,-209.05 493.13,-198.65 483.34,-190.67"/>
<polygon fill="#63b8ff" stroke="#63b8ff" points="485.3,-187.75 475.28,-184.32 480.97,-193.25 485.3,-187.75"/>
</a>
</g>
</g>
<!-- Node42&#45;&gt;Node28 -->
<g id="edge56_Node000042_Node000028" class="edge">
<title>Node42&#45;&gt;Node28</title>
<g id="a_edge56_Node000042_Node000028"><a xlink:title=" ">
<path fill="none" stroke="#63b8ff" d="M447.35,-395.98C474.76,-387.13 517.89,-373.19 548.56,-363.28"/>
<polygon fill="#63b8ff" stroke="#63b8ff" points="550,-366.49 558.44,-360.08 547.85,-359.83 550,-366.49"/>
</a>
</g>
</g>
</g>
</svg>
