<?xml version="1.0" encoding="UTF-8" standalone="no"?>
<!DOCTYPE svg PUBLIC "-//W3C//DTD SVG 1.1//EN"
 "http://www.w3.org/Graphics/SVG/1.1/DTD/svg11.dtd">
<!-- Generated by graphviz version 2.47.1 (20210417.1919)
 -->
<!-- Title: FluidSynthSoundFont.cpp Pages: 1 -->
<svg width="1072pt" height="577pt"
 viewBox="0.00 0.00 1072.00 577.00" xmlns="http://www.w3.org/2000/svg" xmlns:xlink="http://www.w3.org/1999/xlink">
<g id="graph0" class="graph" transform="scale(1 1) rotate(0) translate(4 573)">
<title>FluidSynthSoundFont.cpp</title>
<!-- Node1 -->
<g id="Node000001" class="node">
<title>Node1</title>
<g id="a_Node000001"><a xlink:title="The FluidSynthSoundFont class implements an object&#45;oriented wrapper around an underlying fluidsynth S...">
<polygon fill="#999999" stroke="#666666" points="773,-569 644,-569 644,-550 773,-550 773,-569"/>
<text text-anchor="middle" x="708.5" y="-557" font-family="Helvetica,sans-Serif" font-size="10.00">FluidSynthSoundFont.cpp</text>
</a>
</g>
</g>
<!-- Node2 -->
<g id="Node000002" class="node">
<title>Node2</title>
<g id="a_Node000002"><a xlink:href="_dynamic_library_8h.html" target="_top" xlink:title="The DynamicLibrary class specifies a very simple and crude wrapper around the dynamic library loading...">
<polygon fill="white" stroke="#666666" points="717.5,-349 625.5,-349 625.5,-330 717.5,-330 717.5,-349"/>
<text text-anchor="middle" x="671.5" y="-337" font-family="Helvetica,sans-Serif" font-size="10.00">DynamicLibrary.h</text>
</a>
</g>
</g>
<!-- Node1&#45;&gt;Node2 -->
<g id="edge1_Node000001_Node000002" class="edge">
<title>Node1&#45;&gt;Node2</title>
<g id="a_edge1_Node000001_Node000002"><a xlink:title=" ">
<path fill="none" stroke="#63b8ff" d="M707.05,-549.95C701.61,-517.88 682.31,-404.2 674.66,-359.12"/>
<polygon fill="#63b8ff" stroke="#63b8ff" points="678.1,-358.5 672.98,-349.22 671.2,-359.67 678.1,-358.5"/>
</a>
</g>
</g>
<!-- Node8 -->
<g id="Node000008" class="node">
<title>Node8</title>
<g id="a_Node000008"><a xlink:href="_fluid_synth_sound_font_8h.html" target="_top" xlink:title="The FluidSynthSoundFont class specifies an object&#45;oriented wrapper around an underlying fluidsynth So...">
<polygon fill="white" stroke="#666666" points="450,-514 331,-514 331,-495 450,-495 450,-514"/>
<text text-anchor="middle" x="390.5" y="-502" font-family="Helvetica,sans-Serif" font-size="10.00">FluidSynthSoundFont.h</text>
</a>
</g>
</g>
<!-- Node1&#45;&gt;Node8 -->
<g id="edge7_Node000001_Node000008" class="edge">
<title>Node1&#45;&gt;Node8</title>
<g id="a_edge7_Node000001_Node000008"><a xlink:title=" ">
<path fill="none" stroke="#63b8ff" d="M657.41,-549.98C601.39,-540.65 511.55,-525.67 451.79,-515.71"/>
<polygon fill="#63b8ff" stroke="#63b8ff" points="452.17,-512.23 441.73,-514.04 451.02,-519.13 452.17,-512.23"/>
</a>
</g>
</g>
<!-- Node29 -->
<g id="Node000029" class="node">
<title>Node29</title>
<g id="a_Node000029"><a xlink:href="_logging_8h.html" target="_top" xlink:title="The Logging specification defines macros for entry&#45;, exit&#45; and intermediate logging of functions into...">
<polygon fill="white" stroke="#666666" points="782,-404 723,-404 723,-385 782,-385 782,-404"/>
<text text-anchor="middle" x="752.5" y="-392" font-family="Helvetica,sans-Serif" font-size="10.00">Logging.h</text>
</a>
</g>
</g>
<!-- Node1&#45;&gt;Node29 -->
<g id="edge38_Node000001_Node000029" class="edge">
<title>Node1&#45;&gt;Node29</title>
<g id="a_edge38_Node000001_Node000029"><a xlink:title=" ">
<path fill="none" stroke="#63b8ff" d="M710.87,-549.74C717.76,-524.2 737.94,-449.43 747.44,-414.23"/>
<polygon fill="#63b8ff" stroke="#63b8ff" points="750.9,-414.87 750.12,-404.31 744.14,-413.05 750.9,-414.87"/>
</a>
</g>
</g>
<!-- Node37 -->
<g id="Node000037" class="node">
<title>Node37</title>
<g id="a_Node000037"><a xlink:href="_operating_system_8h.html" target="_top" xlink:title="The OperatingSystem specification defines a class for several operating system related utility functi...">
<polygon fill="white" stroke="#666666" points="1015,-349 914,-349 914,-330 1015,-330 1015,-349"/>
<text text-anchor="middle" x="964.5" y="-337" font-family="Helvetica,sans-Serif" font-size="10.00">OperatingSystem.h</text>
</a>
</g>
</g>
<!-- Node1&#45;&gt;Node37 -->
<g id="edge55_Node000001_Node000037" class="edge">
<title>Node1&#45;&gt;Node37</title>
<g id="a_edge55_Node000001_Node000037"><a xlink:title=" ">
<path fill="none" stroke="#63b8ff" d="M718.54,-549.95C757.16,-517.06 896.55,-398.36 946.52,-355.81"/>
<polygon fill="#63b8ff" stroke="#63b8ff" points="948.91,-358.37 954.26,-349.22 944.37,-353.04 948.91,-358.37"/>
</a>
</g>
</g>
<!-- Node3 -->
<g id="Node000003" class="node">
<title>Node3</title>
<g id="a_Node000003"><a xlink:href="_boolean_8h.html" target="_top" xlink:title="The Boolean specification and body provides a value object type for boolean values.">
<polygon fill="white" stroke="#666666" points="817.5,-294 757.5,-294 757.5,-275 817.5,-275 817.5,-294"/>
<text text-anchor="middle" x="787.5" y="-282" font-family="Helvetica,sans-Serif" font-size="10.00">Boolean.h</text>
</a>
</g>
</g>
<!-- Node2&#45;&gt;Node3 -->
<g id="edge2_Node000002_Node000003" class="edge">
<title>Node2&#45;&gt;Node3</title>
<g id="a_edge2_Node000002_Node000003"><a xlink:title=" ">
<path fill="none" stroke="#63b8ff" d="M690.14,-329.98C708.8,-321.46 737.75,-308.23 759.24,-298.41"/>
<polygon fill="#63b8ff" stroke="#63b8ff" points="760.88,-301.51 768.52,-294.17 757.97,-295.14 760.88,-301.51"/>
</a>
</g>
</g>
<!-- Node7 -->
<g id="Node000007" class="node">
<title>Node7</title>
<g id="a_Node000007"><a xlink:href="_object_8h.html" target="_top" xlink:title="The Object specification and body provides the root object type.">
<polygon fill="white" stroke="#666666" points="571,-294 518,-294 518,-275 571,-275 571,-294"/>
<text text-anchor="middle" x="544.5" y="-282" font-family="Helvetica,sans-Serif" font-size="10.00">Object.h</text>
</a>
</g>
</g>
<!-- Node2&#45;&gt;Node7 -->
<g id="edge6_Node000002_Node000007" class="edge">
<title>Node2&#45;&gt;Node7</title>
<g id="a_edge6_Node000002_Node000007"><a xlink:title=" ">
<path fill="none" stroke="#63b8ff" d="M651.1,-329.98C630.48,-321.38 598.39,-307.99 574.81,-298.15"/>
<polygon fill="#63b8ff" stroke="#63b8ff" points="575.85,-294.79 565.28,-294.17 573.16,-301.25 575.85,-294.79"/>
</a>
</g>
</g>
<!-- Node4 -->
<g id="Node000004" class="node">
<title>Node4</title>
<g id="a_Node000004"><a xlink:href="_my_string_8h.html" target="_top" xlink:title="The String specification defines a standard string type.">
<polygon fill="white" stroke="#666666" points="819.5,-74 755.5,-74 755.5,-55 819.5,-55 819.5,-74"/>
<text text-anchor="middle" x="787.5" y="-62" font-family="Helvetica,sans-Serif" font-size="10.00">MyString.h</text>
</a>
</g>
</g>
<!-- Node3&#45;&gt;Node4 -->
<g id="edge3_Node000003_Node000004" class="edge">
<title>Node3&#45;&gt;Node4</title>
<g id="a_edge3_Node000003_Node000004"><a xlink:title=" ">
<path fill="none" stroke="#63b8ff" d="M806.77,-274.9C820.62,-267.55 838.26,-255.54 846.5,-239 858.96,-213.99 906.67,-240.4 841.5,-110 835.2,-97.4 823.52,-87.08 812.64,-79.56"/>
<polygon fill="#63b8ff" stroke="#63b8ff" points="814.5,-76.6 804.19,-74.14 810.72,-82.49 814.5,-76.6"/>
</a>
</g>
</g>
<!-- Node5 -->
<g id="Node000005" class="node">
<title>Node5</title>
<g id="a_Node000005"><a xlink:title=" ">
<polygon fill="#e0e0e0" stroke="#999999" points="659,-19 618,-19 618,0 659,0 659,-19"/>
<text text-anchor="middle" x="638.5" y="-7" font-family="Helvetica,sans-Serif" font-size="10.00">string</text>
</a>
</g>
</g>
<!-- Node4&#45;&gt;Node5 -->
<g id="edge4_Node000004_Node000005" class="edge">
<title>Node4&#45;&gt;Node5</title>
<g id="a_edge4_Node000004_Node000005"><a xlink:title=" ">
<path fill="none" stroke="#63b8ff" d="M763.56,-54.98C737.77,-45.81 696.68,-31.19 668.69,-21.24"/>
<polygon fill="#63b8ff" stroke="#63b8ff" points="669.62,-17.85 659.02,-17.8 667.27,-24.45 669.62,-17.85"/>
</a>
</g>
</g>
<!-- Node6 -->
<g id="Node000006" class="node">
<title>Node6</title>
<g id="a_Node000006"><a xlink:href="_global_macros_8h.html" target="_top" xlink:title="The GlobalMacros specification defines simple macros (e.g. for parameter modes).">
<polygon fill="white" stroke="#666666" points="830,-19 745,-19 745,0 830,0 830,-19"/>
<text text-anchor="middle" x="787.5" y="-7" font-family="Helvetica,sans-Serif" font-size="10.00">GlobalMacros.h</text>
</a>
</g>
</g>
<!-- Node4&#45;&gt;Node6 -->
<g id="edge5_Node000004_Node000006" class="edge">
<title>Node4&#45;&gt;Node6</title>
<g id="a_edge5_Node000004_Node000006"><a xlink:title=" ">
<path fill="none" stroke="#63b8ff" d="M787.5,-54.75C787.5,-47.8 787.5,-37.85 787.5,-29.13"/>
<polygon fill="#63b8ff" stroke="#63b8ff" points="791,-29.09 787.5,-19.09 784,-29.09 791,-29.09"/>
</a>
</g>
</g>
<!-- Node9 -->
<g id="Node000009" class="node">
<title>Node9</title>
<g id="a_Node000009"><a xlink:href="_fluid_synth_synthesizer_8h.html" target="_top" xlink:title="The FluidSynthSynthesizer class specifies an object&#45;oriented wrapper around an underlying fluidsynth ...">
<polygon fill="white" stroke="#666666" points="452,-459 329,-459 329,-440 452,-440 452,-459"/>
<text text-anchor="middle" x="390.5" y="-447" font-family="Helvetica,sans-Serif" font-size="10.00">FluidSynthSynthesizer.h</text>
</a>
</g>
</g>
<!-- Node8&#45;&gt;Node9 -->
<g id="edge8_Node000008_Node000009" class="edge">
<title>Node8&#45;&gt;Node9</title>
<g id="a_edge8_Node000008_Node000009"><a xlink:title=" ">
<path fill="none" stroke="#63b8ff" d="M390.5,-494.75C390.5,-487.8 390.5,-477.85 390.5,-469.13"/>
<polygon fill="#63b8ff" stroke="#63b8ff" points="394,-469.09 390.5,-459.09 387,-469.09 394,-469.09"/>
</a>
</g>
</g>
<!-- Node27 -->
<g id="Node000027" class="node">
<title>Node27</title>
<g id="a_Node000027"><a xlink:href="_string_list_8h.html" target="_top" xlink:title="The StringList specification defines lists of string values with zero&#45;based arbitrary indexed access ...">
<polygon fill="white" stroke="#666666" points="263.5,-294 197.5,-294 197.5,-275 263.5,-275 263.5,-294"/>
<text text-anchor="middle" x="230.5" y="-282" font-family="Helvetica,sans-Serif" font-size="10.00">StringList.h</text>
</a>
</g>
</g>
<!-- Node8&#45;&gt;Node27 -->
<g id="edge35_Node000008_Node000027" class="edge">
<title>Node8&#45;&gt;Node27</title>
<g id="a_edge35_Node000008_Node000027"><a xlink:title=" ">
<path fill="none" stroke="#63b8ff" d="M343.75,-494.9C293.59,-483.17 215.27,-457.22 171.5,-404 150.29,-378.21 142.24,-359.17 158.5,-330 166.54,-315.58 181.4,-305.24 195.54,-298.18"/>
<polygon fill="#63b8ff" stroke="#63b8ff" points="197.01,-301.36 204.65,-294.01 194.1,-294.99 197.01,-301.36"/>
</a>
</g>
</g>
<!-- Node9&#45;&gt;Node7 -->
<g id="edge30_Node000009_Node000007" class="edge">
<title>Node9&#45;&gt;Node7</title>
<g id="a_edge30_Node000009_Node000007"><a xlink:title=" ">
<path fill="none" stroke="#63b8ff" d="M427.29,-439.95C448.92,-433.29 475.47,-422.06 493.5,-404 508.23,-389.25 528.5,-333.3 538.47,-303.86"/>
<polygon fill="#63b8ff" stroke="#63b8ff" points="541.8,-304.94 541.65,-294.34 535.16,-302.72 541.8,-304.94"/>
</a>
</g>
</g>
<!-- Node10 -->
<g id="Node000010" class="node">
<title>Node10</title>
<g id="a_Node000010"><a xlink:href="_audio_sample_list_vector_8h.html" target="_top" xlink:title="The AudioSampleListVector specification defines the communication buffer structure for the block proc...">
<polygon fill="white" stroke="#666666" points="308,-404 181,-404 181,-385 308,-385 308,-404"/>
<text text-anchor="middle" x="244.5" y="-392" font-family="Helvetica,sans-Serif" font-size="10.00">AudioSampleListVector.h</text>
</a>
</g>
</g>
<!-- Node9&#45;&gt;Node10 -->
<g id="edge9_Node000009_Node000010" class="edge">
<title>Node9&#45;&gt;Node10</title>
<g id="a_edge9_Node000009_Node000010"><a xlink:title=" ">
<path fill="none" stroke="#63b8ff" d="M367.04,-439.98C342.92,-431.23 305.13,-417.51 277.9,-407.62"/>
<polygon fill="#63b8ff" stroke="#63b8ff" points="278.98,-404.29 268.38,-404.17 276.59,-410.87 278.98,-404.29"/>
</a>
</g>
</g>
<!-- Node18 -->
<g id="Node000018" class="node">
<title>Node18</title>
<g id="a_Node000018"><a xlink:href="_natural_8h.html" target="_top" xlink:title="The Natural specification and body provides a value object type for naturals (positive integers with ...">
<polygon fill="white" stroke="#666666" points="657.5,-129 601.5,-129 601.5,-110 657.5,-110 657.5,-129"/>
<text text-anchor="middle" x="629.5" y="-117" font-family="Helvetica,sans-Serif" font-size="10.00">Natural.h</text>
</a>
</g>
</g>
<!-- Node9&#45;&gt;Node18 -->
<g id="edge29_Node000009_Node000018" class="edge">
<title>Node9&#45;&gt;Node18</title>
<g id="a_edge29_Node000009_Node000018"><a xlink:title=" ">
<path fill="none" stroke="#63b8ff" d="M384.66,-439.76C379.25,-431.1 371.6,-417.26 368.5,-404 355.45,-348.17 340.1,-324.81 368.5,-275 416.7,-190.46 531.33,-147.46 591.36,-130.09"/>
<polygon fill="#63b8ff" stroke="#63b8ff" points="592.52,-133.39 601.2,-127.32 590.63,-126.65 592.52,-133.39"/>
</a>
</g>
</g>
<!-- Node25 -->
<g id="Node000025" class="node">
<title>Node25</title>
<g id="a_Node000025"><a xlink:href="_fluid_synth_settings_8h.html" target="_top" xlink:title="The FluidSynthSettings class specifies an object&#45;oriented wrapper around an underlying fluidsynth set...">
<polygon fill="white" stroke="#666666" points="485,-404 378,-404 378,-385 485,-385 485,-404"/>
<text text-anchor="middle" x="431.5" y="-392" font-family="Helvetica,sans-Serif" font-size="10.00">FluidSynthSettings.h</text>
</a>
</g>
</g>
<!-- Node9&#45;&gt;Node25 -->
<g id="edge31_Node000009_Node000025" class="edge">
<title>Node9&#45;&gt;Node25</title>
<g id="a_edge31_Node000009_Node000025"><a xlink:title=" ">
<path fill="none" stroke="#63b8ff" d="M397.27,-439.75C403.06,-432.26 411.56,-421.28 418.64,-412.13"/>
<polygon fill="#63b8ff" stroke="#63b8ff" points="421.51,-414.14 424.86,-404.09 415.97,-409.86 421.51,-414.14"/>
</a>
</g>
</g>
<!-- Node11 -->
<g id="Node000011" class="node">
<title>Node11</title>
<g id="a_Node000011"><a xlink:href="_audio_sample_list_8h.html" target="_top" xlink:title="The AudioSampleList specification defines lists of audio samples with zero&#45;based arbitrary indexed ac...">
<polygon fill="white" stroke="#666666" points="111.5,-349 13.5,-349 13.5,-330 111.5,-330 111.5,-349"/>
<text text-anchor="middle" x="62.5" y="-337" font-family="Helvetica,sans-Serif" font-size="10.00">AudioSampleList.h</text>
</a>
</g>
</g>
<!-- Node10&#45;&gt;Node11 -->
<g id="edge10_Node000010_Node000011" class="edge">
<title>Node10&#45;&gt;Node11</title>
<g id="a_edge10_Node000010_Node000011"><a xlink:title=" ">
<path fill="none" stroke="#63b8ff" d="M215.26,-384.98C184.44,-376.01 135.72,-361.82 101.61,-351.89"/>
<polygon fill="#63b8ff" stroke="#63b8ff" points="102.55,-348.52 91.97,-349.08 100.59,-355.24 102.55,-348.52"/>
</a>
</g>
</g>
<!-- Node24 -->
<g id="Node000024" class="node">
<title>Node24</title>
<g id="a_Node000024"><a xlink:href="_audio_sample_list_vector_8cpp-inc.html" target="_top" xlink:title="The AudioSampleListVector body implements the communication buffer structure for the block processing...">
<polygon fill="white" stroke="#666666" points="321,-349 168,-349 168,-330 321,-330 321,-349"/>
<text text-anchor="middle" x="244.5" y="-337" font-family="Helvetica,sans-Serif" font-size="10.00">AudioSampleListVector.cpp&#45;inc</text>
</a>
</g>
</g>
<!-- Node10&#45;&gt;Node24 -->
<g id="edge28_Node000010_Node000024" class="edge">
<title>Node10&#45;&gt;Node24</title>
<g id="a_edge28_Node000010_Node000024"><a xlink:title=" ">
<path fill="none" stroke="#63b8ff" d="M244.5,-384.75C244.5,-377.8 244.5,-367.85 244.5,-359.13"/>
<polygon fill="#63b8ff" stroke="#63b8ff" points="248,-359.09 244.5,-349.09 241,-359.09 248,-359.09"/>
</a>
</g>
</g>
<!-- Node12 -->
<g id="Node000012" class="node">
<title>Node12</title>
<g id="a_Node000012"><a xlink:title=" ">
<polygon fill="#e0e0e0" stroke="#999999" points="190.5,-239 116.5,-239 116.5,-220 190.5,-220 190.5,-239"/>
<text text-anchor="middle" x="153.5" y="-227" font-family="Helvetica,sans-Serif" font-size="10.00">GenericList.h</text>
</a>
</g>
</g>
<!-- Node11&#45;&gt;Node12 -->
<g id="edge11_Node000011_Node000012" class="edge">
<title>Node11&#45;&gt;Node12</title>
<g id="a_edge11_Node000011_Node000012"><a xlink:title=" ">
<path fill="none" stroke="#63b8ff" d="M84.02,-329.92C99.83,-322.58 120.69,-310.57 133.5,-294 143.55,-281 148.61,-262.85 151.12,-249.28"/>
<polygon fill="#63b8ff" stroke="#63b8ff" points="154.61,-249.6 152.68,-239.18 147.69,-248.53 154.61,-249.6"/>
</a>
</g>
</g>
<!-- Node13 -->
<g id="Node000013" class="node">
<title>Node13</title>
<g id="a_Node000013"><a xlink:href="_audio_sample_8h.html" target="_top" xlink:title="The AudioSample specification and body provides the definition of the audio sample (a real value).">
<polygon fill="white" stroke="#666666" points="461,-294 378,-294 378,-275 461,-275 461,-294"/>
<text text-anchor="middle" x="419.5" y="-282" font-family="Helvetica,sans-Serif" font-size="10.00">AudioSample.h</text>
</a>
</g>
</g>
<!-- Node11&#45;&gt;Node13 -->
<g id="edge12_Node000011_Node000013" class="edge">
<title>Node11&#45;&gt;Node13</title>
<g id="a_edge12_Node000011_Node000013"><a xlink:title=" ">
<path fill="none" stroke="#63b8ff" d="M111.76,-331.19C179.08,-321.19 299.25,-303.35 367.81,-293.17"/>
<polygon fill="#63b8ff" stroke="#63b8ff" points="368.57,-296.6 377.95,-291.67 367.54,-289.68 368.57,-296.6"/>
</a>
</g>
</g>
<!-- Node21 -->
<g id="Node000021" class="node">
<title>Node21</title>
<g id="a_Node000021"><a xlink:href="_audio_sample_list_8cpp-inc.html" target="_top" xlink:title="The AudioSampleList body implements a simple list of audio samples (this is the effective code includ...">
<polygon fill="white" stroke="#666666" points="125,-294 0,-294 0,-275 125,-275 125,-294"/>
<text text-anchor="middle" x="62.5" y="-282" font-family="Helvetica,sans-Serif" font-size="10.00">AudioSampleList.cpp&#45;inc</text>
</a>
</g>
</g>
<!-- Node11&#45;&gt;Node21 -->
<g id="edge24_Node000011_Node000021" class="edge">
<title>Node11&#45;&gt;Node21</title>
<g id="a_edge24_Node000011_Node000021"><a xlink:title=" ">
<path fill="none" stroke="#63b8ff" d="M62.5,-329.75C62.5,-322.8 62.5,-312.85 62.5,-304.13"/>
<polygon fill="#63b8ff" stroke="#63b8ff" points="66,-304.09 62.5,-294.09 59,-304.09 66,-304.09"/>
</a>
</g>
</g>
<!-- Node14 -->
<g id="Node000014" class="node">
<title>Node14</title>
<g id="a_Node000014"><a xlink:href="_real_8h.html" target="_top" xlink:title="The Real specification defines a value object type for real values.">
<polygon fill="white" stroke="#666666" points="605.5,-239 561.5,-239 561.5,-220 605.5,-220 605.5,-239"/>
<text text-anchor="middle" x="583.5" y="-227" font-family="Helvetica,sans-Serif" font-size="10.00">Real.h</text>
</a>
</g>
</g>
<!-- Node13&#45;&gt;Node14 -->
<g id="edge13_Node000013_Node000014" class="edge">
<title>Node13&#45;&gt;Node14</title>
<g id="a_edge13_Node000013_Node000014"><a xlink:title=" ">
<path fill="none" stroke="#63b8ff" d="M445.85,-274.98C474.65,-265.68 520.78,-250.77 551.6,-240.81"/>
<polygon fill="#63b8ff" stroke="#63b8ff" points="552.98,-244.04 561.42,-237.63 550.83,-237.38 552.98,-244.04"/>
</a>
</g>
</g>
<!-- Node15 -->
<g id="Node000015" class="node">
<title>Node15</title>
<g id="a_Node000015"><a xlink:href="_integer_8h.html" target="_top" xlink:title="The Integer specification and body provides a value object type for ints.">
<polygon fill="white" stroke="#666666" points="423.5,-184 369.5,-184 369.5,-165 423.5,-165 423.5,-184"/>
<text text-anchor="middle" x="396.5" y="-172" font-family="Helvetica,sans-Serif" font-size="10.00">Integer.h</text>
</a>
</g>
</g>
<!-- Node14&#45;&gt;Node15 -->
<g id="edge14_Node000014_Node000015" class="edge">
<title>Node14&#45;&gt;Node15</title>
<g id="a_edge14_Node000014_Node000015"><a xlink:title=" ">
<path fill="none" stroke="#63b8ff" d="M561.31,-222.21C529.79,-213.28 471.62,-196.79 433.51,-185.99"/>
<polygon fill="#63b8ff" stroke="#63b8ff" points="434.37,-182.6 423.8,-183.24 432.47,-189.33 434.37,-182.6"/>
</a>
</g>
</g>
<!-- Node16 -->
<g id="Node000016" class="node">
<title>Node16</title>
<g id="a_Node000016"><a xlink:title=" ">
<polygon fill="#e0e0e0" stroke="#999999" points="737.5,-74 693.5,-74 693.5,-55 737.5,-55 737.5,-74"/>
<text text-anchor="middle" x="715.5" y="-62" font-family="Helvetica,sans-Serif" font-size="10.00">cmath</text>
</a>
</g>
</g>
<!-- Node15&#45;&gt;Node16 -->
<g id="edge15_Node000015_Node000016" class="edge">
<title>Node15&#45;&gt;Node16</title>
<g id="a_edge15_Node000015_Node000016"><a xlink:title=" ">
<path fill="none" stroke="#63b8ff" d="M421.8,-164.94C479.43,-145.42 620.37,-97.71 683.73,-76.25"/>
<polygon fill="#63b8ff" stroke="#63b8ff" points="684.86,-79.57 693.21,-73.05 682.62,-72.94 684.86,-79.57"/>
</a>
</g>
</g>
<!-- Node17 -->
<g id="Node000017" class="node">
<title>Node17</title>
<g id="a_Node000017"><a xlink:title=" ">
<polygon fill="#e0e0e0" stroke="#999999" points="532,-19 473,-19 473,0 532,0 532,-19"/>
<text text-anchor="middle" x="502.5" y="-7" font-family="Helvetica,sans-Serif" font-size="10.00">stdexcept</text>
</a>
</g>
</g>
<!-- Node15&#45;&gt;Node17 -->
<g id="edge16_Node000015_Node000017" class="edge">
<title>Node15&#45;&gt;Node17</title>
<g id="a_edge16_Node000015_Node000017"><a xlink:title=" ">
<path fill="none" stroke="#63b8ff" d="M402.2,-164.74C419.02,-138.87 468.7,-62.48 491.2,-27.88"/>
<polygon fill="#63b8ff" stroke="#63b8ff" points="494.26,-29.6 496.77,-19.31 488.39,-25.78 494.26,-29.6"/>
</a>
</g>
</g>
<!-- Node15&#45;&gt;Node18 -->
<g id="edge17_Node000015_Node000018" class="edge">
<title>Node15&#45;&gt;Node18</title>
<g id="a_edge17_Node000015_Node000018"><a xlink:title=" ">
<path fill="none" stroke="#63b8ff" d="M423.68,-167.32C465.18,-157.88 544.44,-139.85 591.57,-129.13"/>
<polygon fill="#63b8ff" stroke="#63b8ff" points="592.43,-132.52 601.4,-126.89 590.88,-125.7 592.43,-132.52"/>
</a>
</g>
</g>
<!-- Node18&#45;&gt;Node4 -->
<g id="edge23_Node000018_Node000004" class="edge">
<title>Node18&#45;&gt;Node4</title>
<g id="a_edge23_Node000018_Node000004"><a xlink:title=" ">
<path fill="none" stroke="#63b8ff" d="M654.89,-109.98C681.3,-101.13 722.85,-87.19 752.39,-77.28"/>
<polygon fill="#63b8ff" stroke="#63b8ff" points="753.55,-80.58 761.92,-74.08 751.32,-73.94 753.55,-80.58"/>
</a>
</g>
</g>
<!-- Node18&#45;&gt;Node16 -->
<g id="edge18_Node000018_Node000016" class="edge">
<title>Node18&#45;&gt;Node16</title>
<g id="a_edge18_Node000018_Node000016"><a xlink:title=" ">
<path fill="none" stroke="#63b8ff" d="M643.32,-109.98C656.65,-101.77 677.08,-89.18 692.81,-79.49"/>
<polygon fill="#63b8ff" stroke="#63b8ff" points="694.75,-82.4 701.43,-74.17 691.08,-76.44 694.75,-82.4"/>
</a>
</g>
</g>
<!-- Node19 -->
<g id="Node000019" class="node">
<title>Node19</title>
<g id="a_Node000019"><a xlink:href="_assertion_8h.html" target="_top" xlink:title="The Assertion specification defines macros for pre&#45; and postconditions in functions or methods.">
<polygon fill="white" stroke="#666666" points="565.5,-74 499.5,-74 499.5,-55 565.5,-55 565.5,-74"/>
<text text-anchor="middle" x="532.5" y="-62" font-family="Helvetica,sans-Serif" font-size="10.00">Assertion.h</text>
</a>
</g>
</g>
<!-- Node18&#45;&gt;Node19 -->
<g id="edge19_Node000018_Node000019" class="edge">
<title>Node18&#45;&gt;Node19</title>
<g id="a_edge19_Node000018_Node000019"><a xlink:title=" ">
<path fill="none" stroke="#63b8ff" d="M613.92,-109.98C598.73,-101.69 575.4,-88.94 557.6,-79.22"/>
<polygon fill="#63b8ff" stroke="#63b8ff" points="558.82,-75.89 548.37,-74.17 555.47,-82.04 558.82,-75.89"/>
</a>
</g>
</g>
<!-- Node20 -->
<g id="Node000020" class="node">
<title>Node20</title>
<g id="a_Node000020"><a xlink:title=" ">
<polygon fill="#e0e0e0" stroke="#999999" points="675.5,-74 583.5,-74 583.5,-55 675.5,-55 675.5,-74"/>
<text text-anchor="middle" x="629.5" y="-62" font-family="Helvetica,sans-Serif" font-size="10.00">GenericNumber.h</text>
</a>
</g>
</g>
<!-- Node18&#45;&gt;Node20 -->
<g id="edge22_Node000018_Node000020" class="edge">
<title>Node18&#45;&gt;Node20</title>
<g id="a_edge22_Node000018_Node000020"><a xlink:title=" ">
<path fill="none" stroke="#63b8ff" d="M629.5,-109.75C629.5,-102.8 629.5,-92.85 629.5,-84.13"/>
<polygon fill="#63b8ff" stroke="#63b8ff" points="633,-84.09 629.5,-74.09 626,-84.09 633,-84.09"/>
</a>
</g>
</g>
<!-- Node19&#45;&gt;Node5 -->
<g id="edge21_Node000019_Node000005" class="edge">
<title>Node19&#45;&gt;Node5</title>
<g id="a_edge21_Node000019_Node000005"><a xlink:title=" ">
<path fill="none" stroke="#63b8ff" d="M549.53,-54.98C566.43,-46.54 592.56,-33.47 612.14,-23.68"/>
<polygon fill="#63b8ff" stroke="#63b8ff" points="613.78,-26.77 621.16,-19.17 610.65,-20.51 613.78,-26.77"/>
</a>
</g>
</g>
<!-- Node19&#45;&gt;Node17 -->
<g id="edge20_Node000019_Node000017" class="edge">
<title>Node19&#45;&gt;Node17</title>
<g id="a_edge20_Node000019_Node000017"><a xlink:title=" ">
<path fill="none" stroke="#63b8ff" d="M527.55,-54.75C523.44,-47.49 517.47,-36.95 512.4,-27.98"/>
<polygon fill="#63b8ff" stroke="#63b8ff" points="515.33,-26.07 507.36,-19.09 509.24,-29.52 515.33,-26.07"/>
</a>
</g>
</g>
<!-- Node22 -->
<g id="Node000022" class="node">
<title>Node22</title>
<g id="a_Node000022"><a xlink:href="_my_array_8h.html" target="_top" xlink:title="The MyArray specification and body defines a generic array type for stack allocated arrays represente...">
<polygon fill="white" stroke="#666666" points="96.5,-239 34.5,-239 34.5,-220 96.5,-220 96.5,-239"/>
<text text-anchor="middle" x="65.5" y="-227" font-family="Helvetica,sans-Serif" font-size="10.00">MyArray.h</text>
</a>
</g>
</g>
<!-- Node21&#45;&gt;Node22 -->
<g id="edge25_Node000021_Node000022" class="edge">
<title>Node21&#45;&gt;Node22</title>
<g id="a_edge25_Node000021_Node000022"><a xlink:title=" ">
<path fill="none" stroke="#63b8ff" d="M63,-274.75C63.39,-267.8 63.95,-257.85 64.45,-249.13"/>
<polygon fill="#63b8ff" stroke="#63b8ff" points="67.94,-249.27 65.01,-239.09 60.95,-248.88 67.94,-249.27"/>
</a>
</g>
</g>
<!-- Node22&#45;&gt;Node18 -->
<g id="edge27_Node000022_Node000018" class="edge">
<title>Node22&#45;&gt;Node18</title>
<g id="a_edge27_Node000022_Node000018"><a xlink:title=" ">
<path fill="none" stroke="#63b8ff" d="M65.25,-219.87C65.37,-205.89 67.87,-178.47 84.5,-165 123.67,-133.28 472.91,-123.56 590.82,-121.17"/>
<polygon fill="#63b8ff" stroke="#63b8ff" points="591.24,-124.67 601.17,-120.97 591.1,-117.67 591.24,-124.67"/>
</a>
</g>
</g>
<!-- Node23 -->
<g id="Node000023" class="node">
<title>Node23</title>
<g id="a_Node000023"><a xlink:title=" ">
<polygon fill="#e0e0e0" stroke="#999999" points="139.5,-184 93.5,-184 93.5,-165 139.5,-165 139.5,-184"/>
<text text-anchor="middle" x="116.5" y="-172" font-family="Helvetica,sans-Serif" font-size="10.00">cstring</text>
</a>
</g>
</g>
<!-- Node22&#45;&gt;Node23 -->
<g id="edge26_Node000022_Node000023" class="edge">
<title>Node22&#45;&gt;Node23</title>
<g id="a_edge26_Node000022_Node000023"><a xlink:title=" ">
<path fill="none" stroke="#63b8ff" d="M73.92,-219.75C81.27,-212.11 92.13,-200.82 101.04,-191.56"/>
<polygon fill="#63b8ff" stroke="#63b8ff" points="103.82,-193.72 108.24,-184.09 98.78,-188.87 103.82,-193.72"/>
</a>
</g>
</g>
<!-- Node26 -->
<g id="Node000026" class="node">
<title>Node26</title>
<g id="a_Node000026"><a xlink:href="_fluid_synth_8h.html" target="_top" xlink:title="The FluidSynth class specifies an object&#45;oriented wrapper around the fluidsynth library and also allo...">
<polygon fill="white" stroke="#666666" points="485,-349 414,-349 414,-330 485,-330 485,-349"/>
<text text-anchor="middle" x="449.5" y="-337" font-family="Helvetica,sans-Serif" font-size="10.00">FluidSynth.h</text>
</a>
</g>
</g>
<!-- Node25&#45;&gt;Node26 -->
<g id="edge32_Node000025_Node000026" class="edge">
<title>Node25&#45;&gt;Node26</title>
<g id="a_edge32_Node000025_Node000026"><a xlink:title=" ">
<path fill="none" stroke="#63b8ff" d="M434.47,-384.75C436.86,-377.72 440.29,-367.62 443.27,-358.84"/>
<polygon fill="#63b8ff" stroke="#63b8ff" points="446.68,-359.68 446.58,-349.09 440.05,-357.43 446.68,-359.68"/>
</a>
</g>
</g>
<!-- Node26&#45;&gt;Node7 -->
<g id="edge34_Node000026_Node000007" class="edge">
<title>Node26&#45;&gt;Node7</title>
<g id="a_edge34_Node000026_Node000007"><a xlink:title=" ">
<path fill="none" stroke="#63b8ff" d="M464.76,-329.98C479.63,-321.69 502.48,-308.94 519.92,-299.22"/>
<polygon fill="#63b8ff" stroke="#63b8ff" points="521.93,-302.1 528.96,-294.17 518.52,-295.99 521.93,-302.1"/>
</a>
</g>
</g>
<!-- Node26&#45;&gt;Node18 -->
<g id="edge33_Node000026_Node000018" class="edge">
<title>Node26&#45;&gt;Node18</title>
<g id="a_edge33_Node000026_Node000018"><a xlink:title=" ">
<path fill="none" stroke="#63b8ff" d="M456.56,-329.95C483.43,-297.4 579.7,-180.81 615.75,-137.16"/>
<polygon fill="#63b8ff" stroke="#63b8ff" points="618.63,-139.16 622.3,-129.22 613.23,-134.71 618.63,-139.16"/>
</a>
</g>
</g>
<!-- Node27&#45;&gt;Node12 -->
<g id="edge37_Node000027_Node000012" class="edge">
<title>Node27&#45;&gt;Node12</title>
<g id="a_edge37_Node000027_Node000012"><a xlink:title=" ">
<path fill="none" stroke="#63b8ff" d="M218.13,-274.98C206.41,-266.92 188.58,-254.65 174.61,-245.03"/>
<polygon fill="#63b8ff" stroke="#63b8ff" points="176.32,-241.96 166.1,-239.17 172.35,-247.72 176.32,-241.96"/>
</a>
</g>
</g>
<!-- Node28 -->
<g id="Node000028" class="node">
<title>Node28</title>
<g id="a_Node000028"><a xlink:title=" ">
<polygon fill="#e0e0e0" stroke="#999999" points="282,-239 209,-239 209,-220 282,-220 282,-239"/>
<text text-anchor="middle" x="245.5" y="-227" font-family="Helvetica,sans-Serif" font-size="10.00">initializer_list</text>
</a>
</g>
</g>
<!-- Node27&#45;&gt;Node28 -->
<g id="edge36_Node000027_Node000028" class="edge">
<title>Node27&#45;&gt;Node28</title>
<g id="a_edge36_Node000027_Node000028"><a xlink:title=" ">
<path fill="none" stroke="#63b8ff" d="M232.98,-274.75C234.96,-267.72 237.82,-257.62 240.31,-248.84"/>
<polygon fill="#63b8ff" stroke="#63b8ff" points="243.71,-249.66 243.07,-239.09 236.98,-247.76 243.71,-249.66"/>
</a>
</g>
</g>
<!-- Node30 -->
<g id="Node000030" class="node">
<title>Node30</title>
<g id="a_Node000030"><a xlink:title=" ">
<polygon fill="#e0e0e0" stroke="#999999" points="785,-349 736,-349 736,-330 785,-330 785,-349"/>
<text text-anchor="middle" x="760.5" y="-337" font-family="Helvetica,sans-Serif" font-size="10.00">cstdarg</text>
</a>
</g>
</g>
<!-- Node29&#45;&gt;Node30 -->
<g id="edge39_Node000029_Node000030" class="edge">
<title>Node29&#45;&gt;Node30</title>
<g id="a_edge39_Node000029_Node000030"><a xlink:title=" ">
<path fill="none" stroke="#63b8ff" d="M753.82,-384.75C754.87,-377.8 756.37,-367.85 757.69,-359.13"/>
<polygon fill="#63b8ff" stroke="#63b8ff" points="761.17,-359.5 759.2,-349.09 754.25,-358.45 761.17,-359.5"/>
</a>
</g>
</g>
<!-- Node31 -->
<g id="Node000031" class="node">
<title>Node31</title>
<g id="a_Node000031"><a xlink:href="_logging_support_8h.html" target="_top" xlink:title="The LoggingSupport specification defines a class for simple entry/exit logging to a file or via an ar...">
<polygon fill="white" stroke="#666666" points="895.5,-349 803.5,-349 803.5,-330 895.5,-330 895.5,-349"/>
<text text-anchor="middle" x="849.5" y="-337" font-family="Helvetica,sans-Serif" font-size="10.00">LoggingSupport.h</text>
</a>
</g>
</g>
<!-- Node29&#45;&gt;Node31 -->
<g id="edge40_Node000029_Node000031" class="edge">
<title>Node29&#45;&gt;Node31</title>
<g id="a_edge40_Node000029_Node000031"><a xlink:title=" ">
<path fill="none" stroke="#63b8ff" d="M768.08,-384.98C783.27,-376.69 806.6,-363.94 824.4,-354.22"/>
<polygon fill="#63b8ff" stroke="#63b8ff" points="826.53,-357.04 833.63,-349.17 823.18,-350.89 826.53,-357.04"/>
</a>
</g>
</g>
<!-- Node32 -->
<g id="Node000032" class="node">
<title>Node32</title>
<g id="a_Node000032"><a xlink:href="_string_util_8h.html" target="_top" xlink:title="The StringUtil specification defines several string routines not included in the standard C++ library...">
<polygon fill="white" stroke="#666666" points="607,-349 542,-349 542,-330 607,-330 607,-349"/>
<text text-anchor="middle" x="574.5" y="-337" font-family="Helvetica,sans-Serif" font-size="10.00">StringUtil.h</text>
</a>
</g>
</g>
<!-- Node29&#45;&gt;Node32 -->
<g id="edge43_Node000029_Node000032" class="edge">
<title>Node29&#45;&gt;Node32</title>
<g id="a_edge43_Node000029_Node000032"><a xlink:title=" ">
<path fill="none" stroke="#63b8ff" d="M723.9,-384.98C693.89,-376.05 646.52,-361.94 613.18,-352.02"/>
<polygon fill="#63b8ff" stroke="#63b8ff" points="613.91,-348.58 603.32,-349.08 611.91,-355.29 613.91,-348.58"/>
</a>
</g>
</g>
<!-- Node31&#45;&gt;Node3 -->
<g id="edge41_Node000031_Node000003" class="edge">
<title>Node31&#45;&gt;Node3</title>
<g id="a_edge41_Node000031_Node000003"><a xlink:title=" ">
<path fill="none" stroke="#63b8ff" d="M839.54,-329.98C830.37,-322.15 816.56,-310.34 805.47,-300.86"/>
<polygon fill="#63b8ff" stroke="#63b8ff" points="807.52,-298.01 797.64,-294.17 802.97,-303.33 807.52,-298.01"/>
</a>
</g>
</g>
<!-- Node31&#45;&gt;Node18 -->
<g id="edge42_Node000031_Node000018" class="edge">
<title>Node31&#45;&gt;Node18</title>
<g id="a_edge42_Node000031_Node000018"><a xlink:title=" ">
<path fill="none" stroke="#63b8ff" d="M818.8,-329.92C797.42,-322.83 769.15,-311.12 748.5,-294 694.23,-248.99 654.14,-173.22 637.71,-138.66"/>
<polygon fill="#63b8ff" stroke="#63b8ff" points="640.76,-136.93 633.38,-129.34 634.42,-139.88 640.76,-136.93"/>
</a>
</g>
</g>
<!-- Node32&#45;&gt;Node3 -->
<g id="edge44_Node000032_Node000003" class="edge">
<title>Node32&#45;&gt;Node3</title>
<g id="a_edge44_Node000032_Node000003"><a xlink:title=" ">
<path fill="none" stroke="#63b8ff" d="M607.31,-330.33C645.07,-320.94 707.07,-305.51 747.59,-295.43"/>
<polygon fill="#63b8ff" stroke="#63b8ff" points="748.55,-298.8 757.41,-292.99 746.86,-292.01 748.55,-298.8"/>
</a>
</g>
</g>
<!-- Node32&#45;&gt;Node7 -->
<g id="edge51_Node000032_Node000007" class="edge">
<title>Node32&#45;&gt;Node7</title>
<g id="a_edge51_Node000032_Node000007"><a xlink:title=" ">
<path fill="none" stroke="#63b8ff" d="M569.55,-329.75C565.44,-322.49 559.47,-311.95 554.4,-302.98"/>
<polygon fill="#63b8ff" stroke="#63b8ff" points="557.33,-301.07 549.36,-294.09 551.24,-304.52 557.33,-301.07"/>
</a>
</g>
</g>
<!-- Node32&#45;&gt;Node27 -->
<g id="edge54_Node000032_Node000027" class="edge">
<title>Node32&#45;&gt;Node27</title>
<g id="a_edge54_Node000032_Node000027"><a xlink:title=" ">
<path fill="none" stroke="#63b8ff" d="M541.83,-333.47C479.53,-323.87 343.78,-302.95 273.93,-292.19"/>
<polygon fill="#63b8ff" stroke="#63b8ff" points="274.13,-288.68 263.71,-290.62 273.06,-295.6 274.13,-288.68"/>
</a>
</g>
</g>
<!-- Node33 -->
<g id="Node000033" class="node">
<title>Node33</title>
<g id="a_Node000033"><a xlink:href="_character_8h.html" target="_top" xlink:title="The Character specification and body provides a value object type for character values.">
<polygon fill="white" stroke="#666666" points="837,-239 770,-239 770,-220 837,-220 837,-239"/>
<text text-anchor="middle" x="803.5" y="-227" font-family="Helvetica,sans-Serif" font-size="10.00">Character.h</text>
</a>
</g>
</g>
<!-- Node32&#45;&gt;Node33 -->
<g id="edge45_Node000032_Node000033" class="edge">
<title>Node32&#45;&gt;Node33</title>
<g id="a_edge45_Node000032_Node000033"><a xlink:title=" ">
<path fill="none" stroke="#63b8ff" d="M593.72,-329.94C613.53,-321.09 645.27,-306.78 672.5,-294 708.98,-276.88 750.82,-256.46 777.21,-243.48"/>
<polygon fill="#63b8ff" stroke="#63b8ff" points="778.77,-246.62 786.19,-239.06 775.67,-240.34 778.77,-246.62"/>
</a>
</g>
</g>
<!-- Node36 -->
<g id="Node000036" class="node">
<title>Node36</title>
<g id="a_Node000036"><a xlink:href="_percentage_8h.html" target="_top" xlink:title="The Percentage specification and body provides a simple percentage type.">
<polygon fill="white" stroke="#666666" points="663.5,-294 589.5,-294 589.5,-275 663.5,-275 663.5,-294"/>
<text text-anchor="middle" x="626.5" y="-282" font-family="Helvetica,sans-Serif" font-size="10.00">Percentage.h</text>
</a>
</g>
</g>
<!-- Node32&#45;&gt;Node36 -->
<g id="edge52_Node000032_Node000036" class="edge">
<title>Node32&#45;&gt;Node36</title>
<g id="a_edge52_Node000032_Node000036"><a xlink:title=" ">
<path fill="none" stroke="#63b8ff" d="M583.09,-329.75C590.66,-322.03 601.88,-310.6 611.01,-301.28"/>
<polygon fill="#63b8ff" stroke="#63b8ff" points="613.57,-303.68 618.07,-294.09 608.57,-298.78 613.57,-303.68"/>
</a>
</g>
</g>
<!-- Node33&#45;&gt;Node16 -->
<g id="edge46_Node000033_Node000016" class="edge">
<title>Node33&#45;&gt;Node16</title>
<g id="a_edge46_Node000033_Node000016"><a xlink:title=" ">
<path fill="none" stroke="#63b8ff" d="M808.87,-219.89C821.09,-199.09 848.15,-145.21 824.5,-110 819.9,-103.16 777.84,-87.28 747.34,-76.46"/>
<polygon fill="#63b8ff" stroke="#63b8ff" points="748.11,-73.02 737.51,-73.01 745.79,-79.62 748.11,-73.02"/>
</a>
</g>
</g>
<!-- Node34 -->
<g id="Node000034" class="node">
<title>Node34</title>
<g id="a_Node000034"><a xlink:href="_byte_8h.html" target="_top" xlink:title="The Byte specification and body provides a value object type for byte values.">
<polygon fill="white" stroke="#666666" points="815,-184 770,-184 770,-165 815,-165 815,-184"/>
<text text-anchor="middle" x="792.5" y="-172" font-family="Helvetica,sans-Serif" font-size="10.00">Byte.h</text>
</a>
</g>
</g>
<!-- Node33&#45;&gt;Node34 -->
<g id="edge47_Node000033_Node000034" class="edge">
<title>Node33&#45;&gt;Node34</title>
<g id="a_edge47_Node000033_Node000034"><a xlink:title=" ">
<path fill="none" stroke="#63b8ff" d="M801.68,-219.75C800.24,-212.8 798.18,-202.85 796.37,-194.13"/>
<polygon fill="#63b8ff" stroke="#63b8ff" points="799.74,-193.17 794.28,-184.09 792.89,-194.59 799.74,-193.17"/>
</a>
</g>
</g>
<!-- Node34&#45;&gt;Node16 -->
<g id="edge48_Node000034_Node000016" class="edge">
<title>Node34&#45;&gt;Node16</title>
<g id="a_edge48_Node000034_Node000016"><a xlink:title=" ">
<path fill="none" stroke="#63b8ff" d="M786.35,-164.98C779.89,-156.03 769.46,-141.55 760.5,-129 749.26,-113.25 736.51,-95.24 727.46,-82.44"/>
<polygon fill="#63b8ff" stroke="#63b8ff" points="730.22,-80.29 721.6,-74.14 724.51,-84.33 730.22,-80.29"/>
</a>
</g>
</g>
<!-- Node34&#45;&gt;Node18 -->
<g id="edge50_Node000034_Node000018" class="edge">
<title>Node34&#45;&gt;Node18</title>
<g id="a_edge50_Node000034_Node000018"><a xlink:title=" ">
<path fill="none" stroke="#63b8ff" d="M769.84,-166.13C742.84,-157.35 697.4,-142.58 665.56,-132.23"/>
<polygon fill="#63b8ff" stroke="#63b8ff" points="666.34,-128.8 655.75,-129.03 664.17,-135.45 666.34,-128.8"/>
</a>
</g>
</g>
<!-- Node35 -->
<g id="Node000035" class="node">
<title>Node35</title>
<g id="a_Node000035"><a xlink:title=" ">
<polygon fill="#e0e0e0" stroke="#999999" points="815.5,-129 769.5,-129 769.5,-110 815.5,-110 815.5,-129"/>
<text text-anchor="middle" x="792.5" y="-117" font-family="Helvetica,sans-Serif" font-size="10.00">cstdint</text>
</a>
</g>
</g>
<!-- Node34&#45;&gt;Node35 -->
<g id="edge49_Node000034_Node000035" class="edge">
<title>Node34&#45;&gt;Node35</title>
<g id="a_edge49_Node000034_Node000035"><a xlink:title=" ">
<path fill="none" stroke="#63b8ff" d="M792.5,-164.75C792.5,-157.8 792.5,-147.85 792.5,-139.13"/>
<polygon fill="#63b8ff" stroke="#63b8ff" points="796,-139.09 792.5,-129.09 789,-139.09 796,-139.09"/>
</a>
</g>
</g>
<!-- Node36&#45;&gt;Node14 -->
<g id="edge53_Node000036_Node000014" class="edge">
<title>Node36&#45;&gt;Node14</title>
<g id="a_edge53_Node000036_Node000014"><a xlink:title=" ">
<path fill="none" stroke="#63b8ff" d="M619.4,-274.75C613.33,-267.26 604.41,-256.28 596.99,-247.13"/>
<polygon fill="#63b8ff" stroke="#63b8ff" points="599.49,-244.65 590.47,-239.09 594.05,-249.06 599.49,-244.65"/>
</a>
</g>
</g>
<!-- Node37&#45;&gt;Node3 -->
<g id="edge56_Node000037_Node000003" class="edge">
<title>Node37&#45;&gt;Node3</title>
<g id="a_edge56_Node000037_Node000003"><a xlink:title=" ">
<path fill="none" stroke="#63b8ff" d="M936.06,-329.98C906.22,-321.05 859.12,-306.94 825.97,-297.02"/>
<polygon fill="#63b8ff" stroke="#63b8ff" points="826.74,-293.6 816.16,-294.08 824.74,-300.3 826.74,-293.6"/>
</a>
</g>
</g>
<!-- Node37&#45;&gt;Node18 -->
<g id="edge59_Node000037_Node000018" class="edge">
<title>Node37&#45;&gt;Node18</title>
<g id="a_edge59_Node000037_Node000018"><a xlink:title=" ">
<path fill="none" stroke="#63b8ff" d="M964.41,-329.62C963.75,-315.78 960.36,-289.17 944.5,-275 882.37,-219.47 835.01,-276.31 760.5,-239 734.18,-225.82 673.68,-165.78 645.05,-136.57"/>
<polygon fill="#63b8ff" stroke="#63b8ff" points="647.37,-133.92 637.88,-129.21 642.35,-138.81 647.37,-133.92"/>
</a>
</g>
</g>
<!-- Node38 -->
<g id="Node000038" class="node">
<title>Node38</title>
<g id="a_Node000038"><a xlink:href="_dictionary_8h.html" target="_top" xlink:title="The Dictionary specification defines maps from string keys to string values.">
<polygon fill="white" stroke="#666666" points="1059.5,-294 991.5,-294 991.5,-275 1059.5,-275 1059.5,-294"/>
<text text-anchor="middle" x="1025.5" y="-282" font-family="Helvetica,sans-Serif" font-size="10.00">Dictionary.h</text>
</a>
</g>
</g>
<!-- Node37&#45;&gt;Node38 -->
<g id="edge57_Node000037_Node000038" class="edge">
<title>Node37&#45;&gt;Node38</title>
<g id="a_edge57_Node000037_Node000038"><a xlink:title=" ">
<path fill="none" stroke="#63b8ff" d="M974.3,-329.98C983.32,-322.15 996.91,-310.34 1007.82,-300.86"/>
<polygon fill="#63b8ff" stroke="#63b8ff" points="1010.27,-303.37 1015.52,-294.17 1005.68,-298.09 1010.27,-303.37"/>
</a>
</g>
</g>
<!-- Node40 -->
<g id="Node000040" class="node">
<title>Node40</title>
<g id="a_Node000040"><a xlink:href="_time_and_duration_8h.html" target="_top" xlink:title="The TimeAndDuration specification and body provides types for time and duration.">
<polygon fill="white" stroke="#666666" points="935,-294 836,-294 836,-275 935,-275 935,-294"/>
<text text-anchor="middle" x="885.5" y="-282" font-family="Helvetica,sans-Serif" font-size="10.00">TimeAndDuration.h</text>
</a>
</g>
</g>
<!-- Node37&#45;&gt;Node40 -->
<g id="edge60_Node000037_Node000040" class="edge">
<title>Node37&#45;&gt;Node40</title>
<g id="a_edge60_Node000037_Node000040"><a xlink:title=" ">
<path fill="none" stroke="#63b8ff" d="M951.81,-329.98C939.67,-321.84 921.14,-309.41 906.75,-299.76"/>
<polygon fill="#63b8ff" stroke="#63b8ff" points="908.68,-296.84 898.42,-294.17 904.78,-302.65 908.68,-296.84"/>
</a>
</g>
</g>
<!-- Node39 -->
<g id="Node000039" class="node">
<title>Node39</title>
<g id="a_Node000039"><a xlink:title=" ">
<polygon fill="#e0e0e0" stroke="#999999" points="1064,-239 987,-239 987,-220 1064,-220 1064,-239"/>
<text text-anchor="middle" x="1025.5" y="-227" font-family="Helvetica,sans-Serif" font-size="10.00">GenericMap.h</text>
</a>
</g>
</g>
<!-- Node38&#45;&gt;Node39 -->
<g id="edge58_Node000038_Node000039" class="edge">
<title>Node38&#45;&gt;Node39</title>
<g id="a_edge58_Node000038_Node000039"><a xlink:title=" ">
<path fill="none" stroke="#63b8ff" d="M1025.5,-274.75C1025.5,-267.8 1025.5,-257.85 1025.5,-249.13"/>
<polygon fill="#63b8ff" stroke="#63b8ff" points="1029,-249.09 1025.5,-239.09 1022,-249.09 1029,-249.09"/>
</a>
</g>
</g>
<!-- Node40&#45;&gt;Node14 -->
<g id="edge61_Node000040_Node000014" class="edge">
<title>Node40&#45;&gt;Node14</title>
<g id="a_edge61_Node000040_Node000014"><a xlink:title=" ">
<path fill="none" stroke="#63b8ff" d="M836.98,-274.98C774.77,-264.07 668.61,-245.44 615.6,-236.13"/>
<polygon fill="#63b8ff" stroke="#63b8ff" points="616.19,-232.68 605.73,-234.4 614.98,-239.58 616.19,-232.68"/>
</a>
</g>
</g>
</g>
</svg>
