<?xml version="1.0" encoding="UTF-8" standalone="no"?>
<!DOCTYPE svg PUBLIC "-//W3C//DTD SVG 1.1//EN"
 "http://www.w3.org/Graphics/SVG/1.1/DTD/svg11.dtd">
<!-- Generated by graphviz version 2.47.1 (20210417.1919)
 -->
<!-- Title: FluidSynth.cpp Pages: 1 -->
<!--zoomable 485 -->
<svg id="main" version="1.1" xmlns="http://www.w3.org/2000/svg" xmlns:xlink="http://www.w3.org/1999/xlink" xml:space="preserve" onload="init(evt)">
<style type="text/css"><![CDATA[
.edge:hover path { stroke: red; }
.edge:hover polygon { stroke: red; fill: red; }
]]></style>
<script type="text/javascript"><![CDATA[
var edges = document.getElementsByTagName('g');
if (edges && edges.length) {
  for (var i=0;i<edges.length;i++) {
    if (edges[i].id.substr(0,4)=='edge') {
      edges[i].setAttribute('class','edge');
    }
  }
}
]]></script>
        <defs>
                <circle id="rim" cx="0" cy="0" r="7"/>
                <circle id="rim2" cx="0" cy="0" r="3.5"/>
                <g id="zoomPlus">
                        <use xlink:href="#rim" fill="#404040">
                                <set attributeName="fill" to="#808080" begin="zoomplus.mouseover" end="zoomplus.mouseout"/>
                        </use>
                        <path d="M-4,0h8M0,-4v8" fill="none" stroke="white" stroke-width="1.5" pointer-events="none"/>
                </g>
                <g id="zoomMin">
                        <use xlink:href="#rim" fill="#404040">
                                <set attributeName="fill" to="#808080" begin="zoomminus.mouseover" end="zoomminus.mouseout"/>
                        </use>
                        <path d="M-4,0h8" fill="none" stroke="white" stroke-width="1.5" pointer-events="none"/>
                </g>
                <g id="dirArrow">
                        <path fill="none" stroke="white" stroke-width="1.5" d="M0,-3.0v7 M-2.5,-0.5L0,-3.0L2.5,-0.5"/>
                </g>
               <g id="resetDef">
                       <use xlink:href="#rim2" fill="#404040">
                               <set attributeName="fill" to="#808080" begin="reset.mouseover" end="reset.mouseout"/>
                       </use>
               </g>
        </defs>

<script type="text/javascript">
var viewWidth = 674;
var viewHeight = 485;
var sectionId = 'dynsection-0';
</script>
<script xlink:href="svgpan.js"/>
<svg id="graph" class="graph">
<g id="viewport">
<title>FluidSynth.cpp</title>
<polygon fill="white" stroke="transparent" points="-4,4 -4,-481 670,-481 670,4 -4,4"/>
<!-- Node1 -->
<g id="node1" class="node">
<title>Node1</title>
<g id="a_node1"><a xlink:title="The FluidSynth class implements the access to the fluidsynth library via a dynamic loading of it.">
<polygon fill="#bfbfbf" stroke="black" points="158.5,-456.5 158.5,-476.5 247.5,-476.5 247.5,-456.5 158.5,-456.5"/>
<text text-anchor="middle" x="203" y="-463.7" font-family="Helvetica,sans-Serif" font-size="11.00">FluidSynth.cpp</text>
</a>
</g>
</g>
<!-- Node2 -->
<g id="node2" class="node">
<title>Node2</title>
<g id="a_node2"><a xlink:href="_logging_8h.html" target="_top" xlink:title="The Logging specification defines macros for entry&#45;, exit&#45; and intermediate logging of functions into...">
<polygon fill="white" stroke="black" points="259,-399.5 259,-419.5 323,-419.5 323,-399.5 259,-399.5"/>
<text text-anchor="middle" x="291" y="-406.7" font-family="Helvetica,sans-Serif" font-size="11.00">Logging.h</text>
</a>
</g>
</g>
<!-- Node1&#45;&gt;Node2 -->
<g id="edge1" class="edge">
<title>Node1&#45;&gt;Node2</title>
<path fill="none" stroke="midnightblue" d="M217.53,-456.42C231.16,-447.9 251.77,-435.02 267.7,-425.06"/>
<polygon fill="midnightblue" stroke="midnightblue" points="269.82,-427.86 276.45,-419.6 266.11,-421.93 269.82,-427.86"/>
</g>
<!-- Node23 -->
<g id="node23" class="node">
<title>Node23</title>
<g id="a_node23"><a xlink:href="_dictionary_8h.html" target="_top" xlink:title="The Dictionary specification defines maps from string keys to string values.">
<polygon fill="white" stroke="black" points="406,-399.5 406,-419.5 480,-419.5 480,-399.5 406,-399.5"/>
<text text-anchor="middle" x="443" y="-406.7" font-family="Helvetica,sans-Serif" font-size="11.00">Dictionary.h</text>
</a>
</g>
</g>
<!-- Node1&#45;&gt;Node23 -->
<g id="edge32" class="edge">
<title>Node1&#45;&gt;Node23</title>
<path fill="none" stroke="midnightblue" d="M242.36,-456.48C284.52,-446.82 351.39,-431.49 396.21,-421.22"/>
<polygon fill="midnightblue" stroke="midnightblue" points="397.02,-424.63 405.98,-418.98 395.45,-417.81 397.02,-424.63"/>
</g>
<!-- Node25 -->
<g id="node25" class="node">
<title>Node25</title>
<g id="a_node25"><a xlink:href="_fluid_synth_8h.html" target="_top" xlink:title="The FluidSynth class specifies an object&#45;oriented wrapper around the fluidsynth library and also allo...">
<polygon fill="white" stroke="black" points="120.5,-399.5 120.5,-419.5 197.5,-419.5 197.5,-399.5 120.5,-399.5"/>
<text text-anchor="middle" x="159" y="-406.7" font-family="Helvetica,sans-Serif" font-size="11.00">FluidSynth.h</text>
</a>
</g>
</g>
<!-- Node1&#45;&gt;Node25 -->
<g id="edge34" class="edge">
<title>Node1&#45;&gt;Node25</title>
<path fill="none" stroke="midnightblue" d="M195.73,-456.42C189.53,-448.66 180.43,-437.29 172.84,-427.8"/>
<polygon fill="midnightblue" stroke="midnightblue" points="175.4,-425.4 166.42,-419.78 169.94,-429.77 175.4,-425.4"/>
</g>
<!-- Node27 -->
<g id="node27" class="node">
<title>Node27</title>
<g id="a_node27"><a xlink:href="_dynamic_library_8h.html" target="_top" xlink:title="The DynamicLibrary class specifies a very simple and crude wrapper around the dynamic library loading...">
<polygon fill="white" stroke="black" points="0,-399.5 0,-419.5 102,-419.5 102,-399.5 0,-399.5"/>
<text text-anchor="middle" x="51" y="-406.7" font-family="Helvetica,sans-Serif" font-size="11.00">DynamicLibrary.h</text>
</a>
</g>
</g>
<!-- Node1&#45;&gt;Node27 -->
<g id="edge37" class="edge">
<title>Node1&#45;&gt;Node27</title>
<path fill="none" stroke="midnightblue" d="M177.9,-456.42C152.63,-447.27 113.47,-433.1 85.34,-422.92"/>
<polygon fill="midnightblue" stroke="midnightblue" points="86.48,-419.62 75.88,-419.5 84.1,-426.2 86.48,-419.62"/>
</g>
<!-- Node3 -->
<g id="node3" class="node">
<title>Node3</title>
<g id="a_node3"><a xlink:title=" ">
<polygon fill="white" stroke="#bfbfbf" points="286.5,-342.5 286.5,-362.5 339.5,-362.5 339.5,-342.5 286.5,-342.5"/>
<text text-anchor="middle" x="313" y="-349.7" font-family="Helvetica,sans-Serif" font-size="11.00">cstdarg</text>
</a>
</g>
</g>
<!-- Node2&#45;&gt;Node3 -->
<g id="edge2" class="edge">
<title>Node2&#45;&gt;Node3</title>
<path fill="none" stroke="midnightblue" d="M294.63,-399.42C297.58,-392.06 301.82,-381.44 305.49,-372.27"/>
<polygon fill="midnightblue" stroke="midnightblue" points="308.82,-373.36 309.29,-362.78 302.32,-370.76 308.82,-373.36"/>
</g>
<!-- Node4 -->
<g id="node4" class="node">
<title>Node4</title>
<g id="a_node4"><a xlink:href="_logging_support_8h.html" target="_top" xlink:title="The LoggingSupport specification defines a class for simple entry/exit logging to a file or via an ar...">
<polygon fill="white" stroke="black" points="166,-342.5 166,-362.5 268,-362.5 268,-342.5 166,-342.5"/>
<text text-anchor="middle" x="217" y="-349.7" font-family="Helvetica,sans-Serif" font-size="11.00">LoggingSupport.h</text>
</a>
</g>
</g>
<!-- Node2&#45;&gt;Node4 -->
<g id="edge3" class="edge">
<title>Node2&#45;&gt;Node4</title>
<path fill="none" stroke="midnightblue" d="M278.78,-399.42C267.53,-391.06 250.63,-378.5 237.35,-368.62"/>
<polygon fill="midnightblue" stroke="midnightblue" points="239.35,-365.75 229.24,-362.6 235.18,-371.37 239.35,-365.75"/>
</g>
<!-- Node14 -->
<g id="node14" class="node">
<title>Node14</title>
<g id="a_node14"><a xlink:href="_string_util_8h.html" target="_top" xlink:title="The StringUtil specification defines several string routines not included in the standard C++ library...">
<polygon fill="white" stroke="black" points="357.5,-342.5 357.5,-362.5 426.5,-362.5 426.5,-342.5 357.5,-342.5"/>
<text text-anchor="middle" x="392" y="-349.7" font-family="Helvetica,sans-Serif" font-size="11.00">StringUtil.h</text>
</a>
</g>
</g>
<!-- Node2&#45;&gt;Node14 -->
<g id="edge15" class="edge">
<title>Node2&#45;&gt;Node14</title>
<path fill="none" stroke="midnightblue" d="M307.68,-399.42C323.61,-390.74 347.87,-377.53 366.28,-367.51"/>
<polygon fill="midnightblue" stroke="midnightblue" points="368.19,-370.45 375.3,-362.6 364.84,-364.3 368.19,-370.45"/>
</g>
<!-- Node5 -->
<g id="node5" class="node">
<title>Node5</title>
<g id="a_node5"><a xlink:href="_boolean_8h.html" target="_top" xlink:title="The Boolean specification and body provides a value object type for boolean values.">
<polygon fill="white" stroke="black" points="166.5,-285.5 166.5,-305.5 231.5,-305.5 231.5,-285.5 166.5,-285.5"/>
<text text-anchor="middle" x="199" y="-292.7" font-family="Helvetica,sans-Serif" font-size="11.00">Boolean.h</text>
</a>
</g>
</g>
<!-- Node4&#45;&gt;Node5 -->
<g id="edge4" class="edge">
<title>Node4&#45;&gt;Node5</title>
<path fill="none" stroke="midnightblue" d="M214.03,-342.42C211.64,-335.14 208.22,-324.67 205.24,-315.57"/>
<polygon fill="midnightblue" stroke="midnightblue" points="208.47,-314.19 202.04,-305.78 201.82,-316.37 208.47,-314.19"/>
</g>
<!-- Node9 -->
<g id="node9" class="node">
<title>Node9</title>
<g id="a_node9"><a xlink:href="_natural_8h.html" target="_top" xlink:title="The Natural specification and body provides a value object type for naturals (positive integers with ...">
<polygon fill="white" stroke="black" points="228,-114.5 228,-134.5 288,-134.5 288,-114.5 228,-114.5"/>
<text text-anchor="middle" x="258" y="-121.7" font-family="Helvetica,sans-Serif" font-size="11.00">Natural.h</text>
</a>
</g>
</g>
<!-- Node4&#45;&gt;Node9 -->
<g id="edge8" class="edge">
<title>Node4&#45;&gt;Node9</title>
<path fill="none" stroke="midnightblue" d="M223.3,-342.21C228.98,-333.33 237.02,-319.35 241,-306 257.89,-249.34 259.14,-178.64 258.62,-145.02"/>
<polygon fill="midnightblue" stroke="midnightblue" points="262.11,-144.67 258.38,-134.75 255.11,-144.83 262.11,-144.67"/>
</g>
<!-- Node6 -->
<g id="node6" class="node">
<title>Node6</title>
<g id="a_node6"><a xlink:href="_my_string_8h.html" target="_top" xlink:title="The String specification defines a standard string type.">
<polygon fill="white" stroke="black" points="14,-57.5 14,-77.5 82,-77.5 82,-57.5 14,-57.5"/>
<text text-anchor="middle" x="48" y="-64.7" font-family="Helvetica,sans-Serif" font-size="11.00">MyString.h</text>
</a>
</g>
</g>
<!-- Node5&#45;&gt;Node6 -->
<g id="edge5" class="edge">
<title>Node5&#45;&gt;Node6</title>
<path fill="none" stroke="midnightblue" d="M192.89,-285.36C170.13,-251.28 89.94,-131.27 59.68,-85.98"/>
<polygon fill="midnightblue" stroke="midnightblue" points="62.48,-83.88 54.02,-77.51 56.66,-87.76 62.48,-83.88"/>
</g>
<!-- Node7 -->
<g id="node7" class="node">
<title>Node7</title>
<g id="a_node7"><a xlink:title=" ">
<polygon fill="white" stroke="#bfbfbf" points="170,-0.5 170,-20.5 214,-20.5 214,-0.5 170,-0.5"/>
<text text-anchor="middle" x="192" y="-7.7" font-family="Helvetica,sans-Serif" font-size="11.00">string</text>
</a>
</g>
</g>
<!-- Node6&#45;&gt;Node7 -->
<g id="edge6" class="edge">
<title>Node6&#45;&gt;Node7</title>
<path fill="none" stroke="midnightblue" d="M71.78,-57.42C95.86,-48.22 133.27,-33.93 159.96,-23.74"/>
<polygon fill="midnightblue" stroke="midnightblue" points="161.52,-26.89 169.61,-20.05 159.02,-20.35 161.52,-26.89"/>
</g>
<!-- Node8 -->
<g id="node8" class="node">
<title>Node8</title>
<g id="a_node8"><a xlink:href="_global_macros_8h.html" target="_top" xlink:title="The GlobalMacros specification defines simple macros (e.g. for parameter modes).">
<polygon fill="white" stroke="black" points="2,-0.5 2,-20.5 94,-20.5 94,-0.5 2,-0.5"/>
<text text-anchor="middle" x="48" y="-7.7" font-family="Helvetica,sans-Serif" font-size="11.00">GlobalMacros.h</text>
</a>
</g>
</g>
<!-- Node6&#45;&gt;Node8 -->
<g id="edge7" class="edge">
<title>Node6&#45;&gt;Node8</title>
<path fill="none" stroke="midnightblue" d="M48,-57.42C48,-50.22 48,-39.9 48,-30.86"/>
<polygon fill="midnightblue" stroke="midnightblue" points="51.5,-30.78 48,-20.78 44.5,-30.78 51.5,-30.78"/>
</g>
<!-- Node9&#45;&gt;Node6 -->
<g id="edge14" class="edge">
<title>Node9&#45;&gt;Node6</title>
<path fill="none" stroke="midnightblue" d="M227.91,-115.62C192.29,-106.29 132.66,-90.67 91.89,-80"/>
<polygon fill="midnightblue" stroke="midnightblue" points="92.78,-76.61 82.21,-77.46 91,-83.38 92.78,-76.61"/>
</g>
<!-- Node10 -->
<g id="node10" class="node">
<title>Node10</title>
<g id="a_node10"><a xlink:title=" ">
<polygon fill="white" stroke="#bfbfbf" points="371.5,-57.5 371.5,-77.5 418.5,-77.5 418.5,-57.5 371.5,-57.5"/>
<text text-anchor="middle" x="395" y="-64.7" font-family="Helvetica,sans-Serif" font-size="11.00">cmath</text>
</a>
</g>
</g>
<!-- Node9&#45;&gt;Node10 -->
<g id="edge9" class="edge">
<title>Node9&#45;&gt;Node10</title>
<path fill="none" stroke="midnightblue" d="M280.62,-114.42C303.03,-105.42 337.56,-91.56 362.82,-81.42"/>
<polygon fill="midnightblue" stroke="midnightblue" points="364.37,-84.57 372.34,-77.6 361.76,-78.07 364.37,-84.57"/>
</g>
<!-- Node11 -->
<g id="node11" class="node">
<title>Node11</title>
<g id="a_node11"><a xlink:href="_assertion_8h.html" target="_top" xlink:title="The Assertion specification defines macros for pre&#45; and postconditions in functions or methods.">
<polygon fill="white" stroke="black" points="221.5,-57.5 221.5,-77.5 292.5,-77.5 292.5,-57.5 221.5,-57.5"/>
<text text-anchor="middle" x="257" y="-64.7" font-family="Helvetica,sans-Serif" font-size="11.00">Assertion.h</text>
</a>
</g>
</g>
<!-- Node9&#45;&gt;Node11 -->
<g id="edge10" class="edge">
<title>Node9&#45;&gt;Node11</title>
<path fill="none" stroke="midnightblue" d="M257.83,-114.42C257.7,-107.22 257.52,-96.9 257.35,-87.86"/>
<polygon fill="midnightblue" stroke="midnightblue" points="260.85,-87.71 257.17,-77.78 253.85,-87.84 260.85,-87.71"/>
</g>
<!-- Node13 -->
<g id="node13" class="node">
<title>Node13</title>
<g id="a_node13"><a xlink:title=" ">
<polygon fill="white" stroke="#bfbfbf" points="100.5,-57.5 100.5,-77.5 203.5,-77.5 203.5,-57.5 100.5,-57.5"/>
<text text-anchor="middle" x="152" y="-64.7" font-family="Helvetica,sans-Serif" font-size="11.00">GenericNumber.h</text>
</a>
</g>
</g>
<!-- Node9&#45;&gt;Node13 -->
<g id="edge13" class="edge">
<title>Node9&#45;&gt;Node13</title>
<path fill="none" stroke="midnightblue" d="M240.5,-114.42C223.62,-105.66 197.85,-92.29 178.47,-82.23"/>
<polygon fill="midnightblue" stroke="midnightblue" points="180.02,-79.09 169.53,-77.6 176.79,-85.31 180.02,-79.09"/>
</g>
<!-- Node11&#45;&gt;Node7 -->
<g id="edge12" class="edge">
<title>Node11&#45;&gt;Node7</title>
<path fill="none" stroke="midnightblue" d="M246.27,-57.42C236.63,-49.27 222.28,-37.12 210.75,-27.37"/>
<polygon fill="midnightblue" stroke="midnightblue" points="212.86,-24.57 202.97,-20.78 208.34,-29.91 212.86,-24.57"/>
</g>
<!-- Node12 -->
<g id="node12" class="node">
<title>Node12</title>
<g id="a_node12"><a xlink:title=" ">
<polygon fill="white" stroke="#bfbfbf" points="257,-0.5 257,-20.5 321,-20.5 321,-0.5 257,-0.5"/>
<text text-anchor="middle" x="289" y="-7.7" font-family="Helvetica,sans-Serif" font-size="11.00">stdexcept</text>
</a>
</g>
</g>
<!-- Node11&#45;&gt;Node12 -->
<g id="edge11" class="edge">
<title>Node11&#45;&gt;Node12</title>
<path fill="none" stroke="midnightblue" d="M262.28,-57.42C266.66,-49.9 273.01,-38.98 278.42,-29.68"/>
<polygon fill="midnightblue" stroke="midnightblue" points="281.6,-31.18 283.6,-20.78 275.55,-27.66 281.6,-31.18"/>
</g>
<!-- Node14&#45;&gt;Node5 -->
<g id="edge16" class="edge">
<title>Node14&#45;&gt;Node5</title>
<path fill="none" stroke="midnightblue" d="M360.13,-342.42C327.35,-333.08 276.14,-318.48 240.28,-308.26"/>
<polygon fill="midnightblue" stroke="midnightblue" points="241.17,-304.88 230.6,-305.5 239.25,-311.61 241.17,-304.88"/>
</g>
<!-- Node15 -->
<g id="node15" class="node">
<title>Node15</title>
<g id="a_node15"><a xlink:href="_character_8h.html" target="_top" xlink:title="The Character specification and body provides a value object type for character values.">
<polygon fill="white" stroke="black" points="396,-228.5 396,-248.5 470,-248.5 470,-228.5 396,-228.5"/>
<text text-anchor="middle" x="433" y="-235.7" font-family="Helvetica,sans-Serif" font-size="11.00">Character.h</text>
</a>
</g>
</g>
<!-- Node14&#45;&gt;Node15 -->
<g id="edge17" class="edge">
<title>Node14&#45;&gt;Node15</title>
<path fill="none" stroke="midnightblue" d="M395.36,-342.33C402.05,-324.04 417.2,-282.67 426.1,-258.34"/>
<polygon fill="midnightblue" stroke="midnightblue" points="429.45,-259.39 429.6,-248.79 422.87,-256.98 429.45,-259.39"/>
</g>
<!-- Node17 -->
<g id="node17" class="node">
<title>Node17</title>
<g id="a_node17"><a xlink:href="_percentage_8h.html" target="_top" xlink:title="The Percentage specification and body provides a simple percentage type.">
<polygon fill="white" stroke="black" points="315,-285.5 315,-305.5 397,-305.5 397,-285.5 315,-285.5"/>
<text text-anchor="middle" x="356" y="-292.7" font-family="Helvetica,sans-Serif" font-size="11.00">Percentage.h</text>
</a>
</g>
</g>
<!-- Node14&#45;&gt;Node17 -->
<g id="edge22" class="edge">
<title>Node14&#45;&gt;Node17</title>
<path fill="none" stroke="midnightblue" d="M386.06,-342.42C381.08,-334.82 373.84,-323.75 367.71,-314.39"/>
<polygon fill="midnightblue" stroke="midnightblue" points="370.48,-312.23 362.07,-305.78 364.62,-316.06 370.48,-312.23"/>
</g>
<!-- Node20 -->
<g id="node20" class="node">
<title>Node20</title>
<g id="a_node20"><a xlink:href="_string_list_8h.html" target="_top" xlink:title="The StringList specification defines lists of string values with zero&#45;based arbitrary indexed access ...">
<polygon fill="white" stroke="black" points="493.5,-285.5 493.5,-305.5 564.5,-305.5 564.5,-285.5 493.5,-285.5"/>
<text text-anchor="middle" x="529" y="-292.7" font-family="Helvetica,sans-Serif" font-size="11.00">StringList.h</text>
</a>
</g>
</g>
<!-- Node14&#45;&gt;Node20 -->
<g id="edge29" class="edge">
<title>Node14&#45;&gt;Node20</title>
<path fill="none" stroke="midnightblue" d="M414.62,-342.42C437.03,-333.42 471.56,-319.56 496.82,-309.42"/>
<polygon fill="midnightblue" stroke="midnightblue" points="498.37,-312.57 506.34,-305.6 495.76,-306.07 498.37,-312.57"/>
</g>
<!-- Node15&#45;&gt;Node10 -->
<g id="edge18" class="edge">
<title>Node15&#45;&gt;Node10</title>
<path fill="none" stroke="midnightblue" d="M442.33,-228.39C450.36,-219.86 461.36,-206.29 466,-192 468.88,-183.12 468.76,-179.92 466,-171 455.41,-136.77 428.84,-103.96 411.37,-85.04"/>
<polygon fill="midnightblue" stroke="midnightblue" points="413.72,-82.43 404.3,-77.59 408.65,-87.25 413.72,-82.43"/>
</g>
<!-- Node16 -->
<g id="node16" class="node">
<title>Node16</title>
<g id="a_node16"><a xlink:href="_byte_8h.html" target="_top" xlink:title="The Byte specification and body provides a value object type for byte values.">
<polygon fill="white" stroke="black" points="409.5,-171.5 409.5,-191.5 456.5,-191.5 456.5,-171.5 409.5,-171.5"/>
<text text-anchor="middle" x="433" y="-178.7" font-family="Helvetica,sans-Serif" font-size="11.00">Byte.h</text>
</a>
</g>
</g>
<!-- Node15&#45;&gt;Node16 -->
<g id="edge19" class="edge">
<title>Node15&#45;&gt;Node16</title>
<path fill="none" stroke="midnightblue" d="M433,-228.42C433,-221.22 433,-210.9 433,-201.86"/>
<polygon fill="midnightblue" stroke="midnightblue" points="436.5,-201.78 433,-191.78 429.5,-201.78 436.5,-201.78"/>
</g>
<!-- Node16&#45;&gt;Node9 -->
<g id="edge21" class="edge">
<title>Node16&#45;&gt;Node9</title>
<path fill="none" stroke="midnightblue" d="M409.4,-173.08C380.44,-163.98 330.96,-148.43 296.48,-137.59"/>
<polygon fill="midnightblue" stroke="midnightblue" points="297.33,-134.19 286.74,-134.53 295.23,-140.87 297.33,-134.19"/>
</g>
<!-- Node16&#45;&gt;Node10 -->
<g id="edge20" class="edge">
<title>Node16&#45;&gt;Node10</title>
<path fill="none" stroke="midnightblue" d="M429.89,-171.33C423.68,-153.04 409.65,-111.67 401.39,-87.34"/>
<polygon fill="midnightblue" stroke="midnightblue" points="404.68,-86.14 398.15,-77.79 398.05,-88.39 404.68,-86.14"/>
</g>
<!-- Node18 -->
<g id="node18" class="node">
<title>Node18</title>
<g id="a_node18"><a xlink:href="_real_8h.html" target="_top" xlink:title="The Real specification defines a value object type for real values.">
<polygon fill="white" stroke="black" points="330,-228.5 330,-248.5 378,-248.5 378,-228.5 330,-228.5"/>
<text text-anchor="middle" x="354" y="-235.7" font-family="Helvetica,sans-Serif" font-size="11.00">Real.h</text>
</a>
</g>
</g>
<!-- Node17&#45;&gt;Node18 -->
<g id="edge23" class="edge">
<title>Node17&#45;&gt;Node18</title>
<path fill="none" stroke="midnightblue" d="M355.67,-285.42C355.41,-278.22 355.03,-267.9 354.7,-258.86"/>
<polygon fill="midnightblue" stroke="midnightblue" points="358.2,-258.65 354.34,-248.78 351.2,-258.9 358.2,-258.65"/>
</g>
<!-- Node18&#45;&gt;Node10 -->
<g id="edge24" class="edge">
<title>Node18&#45;&gt;Node10</title>
<path fill="none" stroke="midnightblue" d="M356.2,-228.41C362.66,-201.82 381.6,-123.74 390.4,-87.45"/>
<polygon fill="midnightblue" stroke="midnightblue" points="393.83,-88.17 392.78,-77.63 387.03,-86.52 393.83,-88.17"/>
</g>
<!-- Node19 -->
<g id="node19" class="node">
<title>Node19</title>
<g id="a_node19"><a xlink:href="_integer_8h.html" target="_top" xlink:title="The Integer specification and body provides a value object type for ints.">
<polygon fill="white" stroke="black" points="291.5,-171.5 291.5,-191.5 350.5,-191.5 350.5,-171.5 291.5,-171.5"/>
<text text-anchor="middle" x="321" y="-178.7" font-family="Helvetica,sans-Serif" font-size="11.00">Integer.h</text>
</a>
</g>
</g>
<!-- Node18&#45;&gt;Node19 -->
<g id="edge25" class="edge">
<title>Node18&#45;&gt;Node19</title>
<path fill="none" stroke="midnightblue" d="M348.55,-228.42C343.99,-220.82 337.35,-209.75 331.73,-200.39"/>
<polygon fill="midnightblue" stroke="midnightblue" points="334.71,-198.55 326.57,-191.78 328.71,-202.16 334.71,-198.55"/>
</g>
<!-- Node19&#45;&gt;Node9 -->
<g id="edge28" class="edge">
<title>Node19&#45;&gt;Node9</title>
<path fill="none" stroke="midnightblue" d="M310.6,-171.42C301.26,-163.27 287.35,-151.12 276.17,-141.37"/>
<polygon fill="midnightblue" stroke="midnightblue" points="278.46,-138.72 268.63,-134.78 273.86,-143.99 278.46,-138.72"/>
</g>
<!-- Node19&#45;&gt;Node10 -->
<g id="edge26" class="edge">
<title>Node19&#45;&gt;Node10</title>
<path fill="none" stroke="midnightblue" d="M327.06,-171.33C339.31,-152.79 367.22,-110.55 383.19,-86.37"/>
<polygon fill="midnightblue" stroke="midnightblue" points="386.27,-88.06 388.86,-77.79 380.43,-84.21 386.27,-88.06"/>
</g>
<!-- Node19&#45;&gt;Node12 -->
<g id="edge27" class="edge">
<title>Node19&#45;&gt;Node12</title>
<path fill="none" stroke="midnightblue" d="M320,-171.44C317.66,-150.92 311.28,-99.38 302,-57 300.07,-48.18 297.4,-38.55 294.99,-30.43"/>
<polygon fill="midnightblue" stroke="midnightblue" points="298.32,-29.36 292.04,-20.82 291.62,-31.41 298.32,-29.36"/>
</g>
<!-- Node21 -->
<g id="node21" class="node">
<title>Node21</title>
<g id="a_node21"><a xlink:title=" ">
<polygon fill="white" stroke="#bfbfbf" points="588,-228.5 588,-248.5 666,-248.5 666,-228.5 588,-228.5"/>
<text text-anchor="middle" x="627" y="-235.7" font-family="Helvetica,sans-Serif" font-size="11.00">initializer_list</text>
</a>
</g>
</g>
<!-- Node20&#45;&gt;Node21 -->
<g id="edge30" class="edge">
<title>Node20&#45;&gt;Node21</title>
<path fill="none" stroke="midnightblue" d="M545.18,-285.42C560.65,-276.74 584.18,-263.53 602.04,-253.51"/>
<polygon fill="midnightblue" stroke="midnightblue" points="603.79,-256.54 610.79,-248.6 600.36,-250.44 603.79,-256.54"/>
</g>
<!-- Node22 -->
<g id="node22" class="node">
<title>Node22</title>
<g id="a_node22"><a xlink:title=" ">
<polygon fill="white" stroke="#bfbfbf" points="488.5,-228.5 488.5,-248.5 569.5,-248.5 569.5,-228.5 488.5,-228.5"/>
<text text-anchor="middle" x="529" y="-235.7" font-family="Helvetica,sans-Serif" font-size="11.00">GenericList.h</text>
</a>
</g>
</g>
<!-- Node20&#45;&gt;Node22 -->
<g id="edge31" class="edge">
<title>Node20&#45;&gt;Node22</title>
<path fill="none" stroke="midnightblue" d="M529,-285.42C529,-278.22 529,-267.9 529,-258.86"/>
<polygon fill="midnightblue" stroke="midnightblue" points="532.5,-258.78 529,-248.78 525.5,-258.78 532.5,-258.78"/>
</g>
<!-- Node24 -->
<g id="node24" class="node">
<title>Node24</title>
<g id="a_node24"><a xlink:title=" ">
<polygon fill="white" stroke="#bfbfbf" points="445,-342.5 445,-362.5 529,-362.5 529,-342.5 445,-342.5"/>
<text text-anchor="middle" x="487" y="-349.7" font-family="Helvetica,sans-Serif" font-size="11.00">GenericMap.h</text>
</a>
</g>
</g>
<!-- Node23&#45;&gt;Node24 -->
<g id="edge33" class="edge">
<title>Node23&#45;&gt;Node24</title>
<path fill="none" stroke="midnightblue" d="M450.27,-399.42C456.47,-391.66 465.57,-380.29 473.16,-370.8"/>
<polygon fill="midnightblue" stroke="midnightblue" points="476.06,-372.77 479.58,-362.78 470.6,-368.4 476.06,-372.77"/>
</g>
<!-- Node25&#45;&gt;Node9 -->
<g id="edge35" class="edge">
<title>Node25&#45;&gt;Node9</title>
<path fill="none" stroke="midnightblue" d="M157.04,-399.27C152.99,-378.4 145.06,-326.19 157,-285 173.88,-226.8 219.05,-169.48 242.85,-142.12"/>
<polygon fill="midnightblue" stroke="midnightblue" points="245.48,-144.43 249.5,-134.62 240.24,-139.78 245.48,-144.43"/>
</g>
<!-- Node26 -->
<g id="node26" class="node">
<title>Node26</title>
<g id="a_node26"><a xlink:href="_object_8h.html" target="_top" xlink:title="The Object specification and body provides the root object type.">
<polygon fill="white" stroke="black" points="52,-342.5 52,-362.5 110,-362.5 110,-342.5 52,-342.5"/>
<text text-anchor="middle" x="81" y="-349.7" font-family="Helvetica,sans-Serif" font-size="11.00">Object.h</text>
</a>
</g>
</g>
<!-- Node25&#45;&gt;Node26 -->
<g id="edge36" class="edge">
<title>Node25&#45;&gt;Node26</title>
<path fill="none" stroke="midnightblue" d="M146.12,-399.42C134.26,-391.06 116.45,-378.5 102.45,-368.62"/>
<polygon fill="midnightblue" stroke="midnightblue" points="104.09,-365.5 93.9,-362.6 100.05,-371.22 104.09,-365.5"/>
</g>
<!-- Node27&#45;&gt;Node5 -->
<g id="edge38" class="edge">
<title>Node27&#45;&gt;Node5</title>
<path fill="none" stroke="midnightblue" d="M46.2,-399.29C39.7,-385.4 30.3,-358.93 43,-342 56.65,-323.79 115.05,-310.47 156.38,-303.1"/>
<polygon fill="midnightblue" stroke="midnightblue" points="157.22,-306.5 166.48,-301.35 156.03,-299.6 157.22,-306.5"/>
</g>
<!-- Node27&#45;&gt;Node26 -->
<g id="edge39" class="edge">
<title>Node27&#45;&gt;Node26</title>
<path fill="none" stroke="midnightblue" d="M55.95,-399.42C60.05,-391.9 66.01,-380.98 71.08,-371.68"/>
<polygon fill="midnightblue" stroke="midnightblue" points="74.22,-373.23 75.94,-362.78 68.08,-369.88 74.22,-373.23"/>
</g>
</g>
</svg>
        <g id="navigator" transform="translate(0 0)" fill="#404254">
                <rect fill="#f2f5e9" fill-opacity="0.5" stroke="#606060" stroke-width=".5" x="0" y="0" width="60" height="60"/>
                <use id="zoomplus" xlink:href="#zoomPlus" x="17" y="9" onmousedown="handleZoom(evt,'in')"/>
                <use id="zoomminus" xlink:href="#zoomMin" x="42" y="9" onmousedown="handleZoom(evt,'out')"/>
                <use id="reset" xlink:href="#resetDef" x="30" y="36" onmousedown="handleReset()"/>
                <g id="arrowUp" xlink:href="#dirArrow" transform="translate(30 24)" onmousedown="handlePan(0,-1)">
                  <use xlink:href="#rim" fill="#404040">
                        <set attributeName="fill" to="#808080" begin="arrowUp.mouseover" end="arrowUp.mouseout"/>
                  </use>
                  <path fill="none" stroke="white" stroke-width="1.5" d="M0,-3.0v7 M-2.5,-0.5L0,-3.0L2.5,-0.5"/>
                </g>
                <g id="arrowRight" xlink:href="#dirArrow" transform="rotate(90) translate(36 -43)" onmousedown="handlePan(1,0)">
                  <use xlink:href="#rim" fill="#404040">
                        <set attributeName="fill" to="#808080" begin="arrowRight.mouseover" end="arrowRight.mouseout"/>
                  </use>
                  <path fill="none" stroke="white" stroke-width="1.5" d="M0,-3.0v7 M-2.5,-0.5L0,-3.0L2.5,-0.5"/>
                </g>
                <g id="arrowDown" xlink:href="#dirArrow" transform="rotate(180) translate(-30 -48)" onmousedown="handlePan(0,1)">
                  <use xlink:href="#rim" fill="#404040">
                        <set attributeName="fill" to="#808080" begin="arrowDown.mouseover" end="arrowDown.mouseout"/>
                  </use>
                  <path fill="none" stroke="white" stroke-width="1.5" d="M0,-3.0v7 M-2.5,-0.5L0,-3.0L2.5,-0.5"/>
                </g>
                <g id="arrowLeft" xlink:href="#dirArrow" transform="rotate(270) translate(-36 17)" onmousedown="handlePan(-1,0)">
                  <use xlink:href="#rim" fill="#404040">
                        <set attributeName="fill" to="#808080" begin="arrowLeft.mouseover" end="arrowLeft.mouseout"/>
                  </use>
                  <path fill="none" stroke="white" stroke-width="1.5" d="M0,-3.0v7 M-2.5,-0.5L0,-3.0L2.5,-0.5"/>
                </g>
        </g>
        <svg viewBox="0 0 15 15" width="100%" height="30px" preserveAspectRatio="xMaxYMin meet">
         <g id="arrow_out" transform="scale(0.3 0.3)">
          <a xlink:href="_fluid_synth_8cpp__incl_org.svg" target="_base">
           <rect id="button" ry="5" rx="5" y="6" x="6" height="38" width="38"
                fill="#f2f5e9" fill-opacity="0.5" stroke="#606060" stroke-width="1.0"/>
           <path id="arrow"
             d="M 11.500037,31.436501 C 11.940474,20.09759 22.043105,11.32322 32.158766,21.979434 L 37.068811,17.246167 C 37.068811,17.246167 37.088388,32 37.088388,32 L 22.160133,31.978069 C 22.160133,31.978069 26.997745,27.140456 26.997745,27.140456 C 18.528582,18.264221 13.291696,25.230495 11.500037,31.436501 z"
             style="fill:#404040;"/>
          </a>
         </g>
        </svg>
</svg>
