<?xml version="1.0" encoding="UTF-8" standalone="no"?>
<!DOCTYPE svg PUBLIC "-//W3C//DTD SVG 1.1//EN"
 "http://www.w3.org/Graphics/SVG/1.1/DTD/svg11.dtd">
<!-- Generated by graphviz version 2.47.1 (20210417.1919)
 -->
<!-- Title: FluidSynthPlugin_EditorSupport.cpp Pages: 1 -->
<!--zoomable 478 -->

<svg id="main" version="1.1" xmlns="http://www.w3.org/2000/svg" xmlns:xlink="http://www.w3.org/1999/xlink" xml:space="preserve" onload="init(evt)">

<style type="text/css"><![CDATA[
.node, .edge {opacity: 0.7;}
.node.selected, .edge.selected {opacity: 1;}
.edge:hover path { stroke: red; }
.edge:hover polygon { stroke: red; fill: red; }
]]></style>

<defs>
  <circle id="rim" cx="0" cy="0" r="7"/>
  <circle id="rim2" cx="0" cy="0" r="3.5"/>
  <g id="zoomPlus">
    <use xlink:href="#rim" fill="#404040"><set attributeName="fill" to="#808080" begin="zoomplus.mouseover" end="zoomplus.mouseout"/></use>
    <path d="M-4,0h8M0,-4v8" fill="none" stroke="white" stroke-width="1.5" pointer-events="none"/>
  </g>
  <g id="zoomMin">
    <use xlink:href="#rim" fill="#404040"><set attributeName="fill" to="#808080" begin="zoomminus.mouseover" end="zoomminus.mouseout"/></use>
    <path d="M-4,0h8" fill="none" stroke="white" stroke-width="1.5" pointer-events="none"/>
  </g>
  <g id="arrowUp" transform="translate(30 24)">
    <use xlink:href="#rim"/>
    <path pointer-events="none" fill="none" stroke="white" stroke-width="1.5" d="M0,-3.0v7 M-2.5,-0.5L0,-3.0L2.5,-0.5"/>
  </g>
  <g id="arrowRight" transform="rotate(90) translate(36 -43)">
    <use xlink:href="#rim"/>
    <path pointer-events="none" fill="none" stroke="white" stroke-width="1.5" d="M0,-3.0v7 M-2.5,-0.5L0,-3.0L2.5,-0.5"/>
  </g>
  <g id="arrowDown" transform="rotate(180) translate(-30 -48)">
    <use xlink:href="#rim"/>
    <path pointer-events="none" fill="none" stroke="white" stroke-width="1.5" d="M0,-3.0v7 M-2.5,-0.5L0,-3.0L2.5,-0.5"/>
  </g>
  <g id="arrowLeft" transform="rotate(270) translate(-36 17)">
    <use xlink:href="#rim"/>
    <path pointer-events="none" fill="none" stroke="white" stroke-width="1.5" d="M0,-3.0v7 M-2.5,-0.5L0,-3.0L2.5,-0.5"/>
  </g>
  <g id="resetDef">
    <use xlink:href="#rim2" fill="#404040"><set attributeName="fill" to="#808080" begin="reset.mouseover" end="reset.mouseout"/></use>
  </g>
</defs>
<script type="application/ecmascript">
var viewWidth = 1843;
var viewHeight = 478;
var sectionId = 'dynsection-0';
</script>
<script type="application/ecmascript" xlink:href="svg.min.js"/>
<svg id="graph" class="graph">
<g id="viewport">
<title>FluidSynthPlugin_EditorSupport.cpp</title>
<!-- Node1 -->
<g id="Node000001" class="node">
<title>Node1</title>
<g id="a_Node000001"><a xlink:title="The FluidSynthPlugin_EditorSupport module implements support services for the editor of the FluidSynt...">
<polygon fill="#999999" stroke="#666666" points="1538.5,-470 1365.5,-470 1365.5,-451 1538.5,-451 1538.5,-470"/>
<text text-anchor="middle" x="1452" y="-458" font-family="Helvetica,sans-Serif" font-size="10.00">FluidSynthPlugin_EditorSupport.cpp</text>
</a>
</g>
</g>
<!-- Node2 -->
<g id="Node000002" class="node">
<title>Node2</title>
<g id="a_Node000002"><a xlink:href="_juce_headers_8h_source.html" target="_top" xlink:title=" ">
<polygon fill="white" stroke="#666666" points="821.5,-305 740.5,-305 740.5,-286 821.5,-286 821.5,-305"/>
<text text-anchor="middle" x="781" y="-293" font-family="Helvetica,sans-Serif" font-size="10.00">JuceHeaders.h</text>
</a>
</g>
</g>
<!-- Node1&#45;&gt;Node2 -->
<g id="edge1_Node000001_Node000002" class="edge">
<title>Node1&#45;&gt;Node2</title>
<g id="a_edge1_Node000001_Node000002"><a xlink:title=" ">
<path fill="none" stroke="#63b8ff" d="M1365.44,-451.24C1302.62,-444.26 1215.88,-432.54 1141,-415 1016.59,-385.86 873.78,-332.74 812.07,-308.79"/>
<polygon fill="#63b8ff" stroke="#63b8ff" points="813.12,-305.45 802.53,-305.07 810.58,-311.97 813.12,-305.45"/>
</a>
</g>
</g>
<!-- Node13 -->
<g id="Node000013" class="node">
<title>Node13</title>
<g id="a_Node000013"><a xlink:href="_build_information_8h.html" target="_top" xlink:title="The BuildInformation specification defines four functions returning build date and time,...">
<polygon fill="white" stroke="#666666" points="1409,-360 1315,-360 1315,-341 1409,-341 1409,-360"/>
<text text-anchor="middle" x="1362" y="-348" font-family="Helvetica,sans-Serif" font-size="10.00">BuildInformation.h</text>
</a>
</g>
</g>
<!-- Node1&#45;&gt;Node13 -->
<g id="edge12_Node000001_Node000013" class="edge">
<title>Node1&#45;&gt;Node13</title>
<g id="a_edge12_Node000001_Node000013"><a xlink:title=" ">
<path fill="none" stroke="#63b8ff" d="M1444.38,-450.68C1436.66,-441.73 1424.43,-427.47 1414,-415 1400.78,-399.19 1385.9,-380.98 1375.46,-368.12"/>
<polygon fill="#63b8ff" stroke="#63b8ff" points="1378.03,-365.74 1369.01,-360.17 1372.59,-370.15 1378.03,-365.74"/>
</a>
</g>
</g>
<!-- Node18 -->
<g id="Node000018" class="node">
<title>Node18</title>
<g id="a_Node000018"><a xlink:title=" ">
<polygon fill="#e0e0e0" stroke="#999999" points="1665.5,-415 1588.5,-415 1588.5,-396 1665.5,-396 1665.5,-415"/>
<text text-anchor="middle" x="1627" y="-403" font-family="Helvetica,sans-Serif" font-size="10.00">GenericMap.h</text>
</a>
</g>
</g>
<!-- Node1&#45;&gt;Node18 -->
<g id="edge17_Node000001_Node000018" class="edge">
<title>Node1&#45;&gt;Node18</title>
<g id="a_edge17_Node000001_Node000018"><a xlink:title=" ">
<path fill="none" stroke="#63b8ff" d="M1480.12,-450.98C1509.62,-442.05 1556.19,-427.94 1588.97,-418.02"/>
<polygon fill="#63b8ff" stroke="#63b8ff" points="1590.11,-421.33 1598.66,-415.08 1588.08,-414.63 1590.11,-421.33"/>
</a>
</g>
</g>
<!-- Node19 -->
<g id="Node000019" class="node">
<title>Node19</title>
<g id="a_Node000019"><a xlink:href="_logging_8h.html" target="_top" xlink:title="The Logging specification defines macros for entry&#45;, exit&#45; and intermediate logging of functions into...">
<polygon fill="white" stroke="#666666" points="1481.5,-415 1422.5,-415 1422.5,-396 1481.5,-396 1481.5,-415"/>
<text text-anchor="middle" x="1452" y="-403" font-family="Helvetica,sans-Serif" font-size="10.00">Logging.h</text>
</a>
</g>
</g>
<!-- Node1&#45;&gt;Node19 -->
<g id="edge18_Node000001_Node000019" class="edge">
<title>Node1&#45;&gt;Node19</title>
<g id="a_edge18_Node000001_Node000019"><a xlink:title=" ">
<path fill="none" stroke="#63b8ff" d="M1452,-450.75C1452,-443.8 1452,-433.85 1452,-425.13"/>
<polygon fill="#63b8ff" stroke="#63b8ff" points="1455.5,-425.09 1452,-415.09 1448.5,-425.09 1455.5,-425.09"/>
</a>
</g>
</g>
<!-- Node37 -->
<g id="Node000037" class="node">
<title>Node37</title>
<g id="a_Node000037"><a xlink:href="_natural_list_8h.html" target="_top" xlink:title="The NaturalList specification defines lists of non&#45;negative integer values with zero&#45;based arbitrary ...">
<polygon fill="white" stroke="#666666" points="1570.5,-415 1499.5,-415 1499.5,-396 1570.5,-396 1570.5,-415"/>
<text text-anchor="middle" x="1535" y="-403" font-family="Helvetica,sans-Serif" font-size="10.00">NaturalList.h</text>
</a>
</g>
</g>
<!-- Node1&#45;&gt;Node37 -->
<g id="edge46_Node000001_Node000037" class="edge">
<title>Node1&#45;&gt;Node37</title>
<g id="a_edge46_Node000001_Node000037"><a xlink:title=" ">
<path fill="none" stroke="#63b8ff" d="M1465.34,-450.98C1478.09,-442.84 1497.55,-430.41 1512.67,-420.76"/>
<polygon fill="#63b8ff" stroke="#63b8ff" points="1514.88,-423.5 1521.42,-415.17 1511.11,-417.6 1514.88,-423.5"/>
</a>
</g>
</g>
<!-- Node38 -->
<g id="Node000038" class="node">
<title>Node38</title>
<g id="a_Node000038"><a xlink:href="_natural_set_8h.html" target="_top" xlink:title="The NaturalSet specification defines sets of natural values with no duplicates and only simple contai...">
<polygon fill="white" stroke="#666666" points="1754.5,-415 1683.5,-415 1683.5,-396 1754.5,-396 1754.5,-415"/>
<text text-anchor="middle" x="1719" y="-403" font-family="Helvetica,sans-Serif" font-size="10.00">NaturalSet.h</text>
</a>
</g>
</g>
<!-- Node1&#45;&gt;Node38 -->
<g id="edge48_Node000001_Node000038" class="edge">
<title>Node1&#45;&gt;Node38</title>
<g id="a_edge48_Node000001_Node000038"><a xlink:title=" ">
<path fill="none" stroke="#63b8ff" d="M1494.9,-450.98C1543.86,-441.27 1623.6,-425.44 1673.58,-415.52"/>
<polygon fill="#63b8ff" stroke="#63b8ff" points="1674.34,-418.93 1683.47,-413.55 1672.98,-412.07 1674.34,-418.93"/>
</a>
</g>
</g>
<!-- Node40 -->
<g id="Node000040" class="node">
<title>Node40</title>
<g id="a_Node000040"><a xlink:href="_fluid_synth_plugin___editor_support_8h.html" target="_top" xlink:title="The FluidSynthPlugin_EditorSupport specification defines support services for the editor of the Fluid...">
<polygon fill="white" stroke="#666666" points="1313.5,-415 1150.5,-415 1150.5,-396 1313.5,-396 1313.5,-415"/>
<text text-anchor="middle" x="1232" y="-403" font-family="Helvetica,sans-Serif" font-size="10.00">FluidSynthPlugin_EditorSupport.h</text>
</a>
</g>
</g>
<!-- Node1&#45;&gt;Node40 -->
<g id="edge50_Node000001_Node000040" class="edge">
<title>Node1&#45;&gt;Node40</title>
<g id="a_edge50_Node000001_Node000040"><a xlink:title=" ">
<path fill="none" stroke="#63b8ff" d="M1416.65,-450.98C1378.84,-441.87 1318.74,-427.4 1277.43,-417.45"/>
<polygon fill="#63b8ff" stroke="#63b8ff" points="1278.17,-414.02 1267.62,-415.08 1276.53,-420.83 1278.17,-414.02"/>
</a>
</g>
</g>
<!-- Node3 -->
<g id="Node000003" class="node">
<title>Node3</title>
<g id="a_Node000003"><a xlink:title=" ">
<polygon fill="#e0e0e0" stroke="#999999" points="479,-250 361,-250 361,-220 479,-220 479,-250"/>
<text text-anchor="start" x="369" y="-238" font-family="Helvetica,sans-Serif" font-size="10.00">juce_audio_basics/juce</text>
<text text-anchor="middle" x="420" y="-227" font-family="Helvetica,sans-Serif" font-size="10.00">_audio_basics.h</text>
</a>
</g>
</g>
<!-- Node2&#45;&gt;Node3 -->
<g id="edge2_Node000002_Node000003" class="edge">
<title>Node2&#45;&gt;Node3</title>
<g id="a_edge2_Node000002_Node000003"><a xlink:title=" ">
<path fill="none" stroke="#63b8ff" d="M740.13,-288.98C685.34,-281.43 584.82,-267.05 489.41,-250.2"/>
<polygon fill="#63b8ff" stroke="#63b8ff" points="489.76,-246.71 479.3,-248.4 488.54,-253.6 489.76,-246.71"/>
</a>
</g>
</g>
<!-- Node4 -->
<g id="Node000004" class="node">
<title>Node4</title>
<g id="a_Node000004"><a xlink:title=" ">
<polygon fill="#e0e0e0" stroke="#999999" points="631,-250 497,-250 497,-220 631,-220 631,-250"/>
<text text-anchor="start" x="505" y="-238" font-family="Helvetica,sans-Serif" font-size="10.00">juce_audio_plugin_client</text>
<text text-anchor="middle" x="564" y="-227" font-family="Helvetica,sans-Serif" font-size="10.00">/juce_audio_plugin_client.h</text>
</a>
</g>
</g>
<!-- Node2&#45;&gt;Node4 -->
<g id="edge3_Node000002_Node000004" class="edge">
<title>Node2&#45;&gt;Node4</title>
<g id="a_edge3_Node000002_Node000004"><a xlink:title=" ">
<path fill="none" stroke="#63b8ff" d="M749.45,-285.99C717.19,-277.3 666.25,-263.57 625.92,-252.69"/>
<polygon fill="#63b8ff" stroke="#63b8ff" points="626.74,-249.29 616.17,-250.06 624.91,-256.05 626.74,-249.29"/>
</a>
</g>
</g>
<!-- Node5 -->
<g id="Node000005" class="node">
<title>Node5</title>
<g id="a_Node000005"><a xlink:title=" ">
<polygon fill="#e0e0e0" stroke="#999999" points="777,-250 649,-250 649,-220 777,-220 777,-250"/>
<text text-anchor="start" x="657" y="-238" font-family="Helvetica,sans-Serif" font-size="10.00">juce_audio_processors</text>
<text text-anchor="middle" x="713" y="-227" font-family="Helvetica,sans-Serif" font-size="10.00">/juce_audio_processors.h</text>
</a>
</g>
</g>
<!-- Node2&#45;&gt;Node5 -->
<g id="edge4_Node000002_Node000005" class="edge">
<title>Node2&#45;&gt;Node5</title>
<g id="a_edge4_Node000002_Node000005"><a xlink:title=" ">
<path fill="none" stroke="#63b8ff" d="M770.97,-285.87C762.08,-278.22 748.75,-266.76 737.12,-256.75"/>
<polygon fill="#63b8ff" stroke="#63b8ff" points="739.27,-253.98 729.41,-250.11 734.7,-259.29 739.27,-253.98"/>
</a>
</g>
</g>
<!-- Node6 -->
<g id="Node000006" class="node">
<title>Node6</title>
<g id="a_Node000006"><a xlink:title=" ">
<polygon fill="#e0e0e0" stroke="#999999" points="902.5,-250 795.5,-250 795.5,-220 902.5,-220 902.5,-250"/>
<text text-anchor="start" x="803.5" y="-238" font-family="Helvetica,sans-Serif" font-size="10.00">juce_audio_utils/juce</text>
<text text-anchor="middle" x="849" y="-227" font-family="Helvetica,sans-Serif" font-size="10.00">_audio_utils.h</text>
</a>
</g>
</g>
<!-- Node2&#45;&gt;Node6 -->
<g id="edge5_Node000002_Node000006" class="edge">
<title>Node2&#45;&gt;Node6</title>
<g id="a_edge5_Node000002_Node000006"><a xlink:title=" ">
<path fill="none" stroke="#63b8ff" d="M791.03,-285.87C799.92,-278.22 813.25,-266.76 824.88,-256.75"/>
<polygon fill="#63b8ff" stroke="#63b8ff" points="827.3,-259.29 832.59,-250.11 822.73,-253.98 827.3,-259.29"/>
</a>
</g>
</g>
<!-- Node7 -->
<g id="Node000007" class="node">
<title>Node7</title>
<g id="a_Node000007"><a xlink:title=" ">
<polygon fill="#e0e0e0" stroke="#999999" points="1033,-244.5 921,-244.5 921,-225.5 1033,-225.5 1033,-244.5"/>
<text text-anchor="middle" x="977" y="-232.5" font-family="Helvetica,sans-Serif" font-size="10.00">juce_core/juce_core.h</text>
</a>
</g>
</g>
<!-- Node2&#45;&gt;Node7 -->
<g id="edge6_Node000002_Node000007" class="edge">
<title>Node2&#45;&gt;Node7</title>
<g id="a_edge6_Node000002_Node000007"><a xlink:title=" ">
<path fill="none" stroke="#63b8ff" d="M809.5,-285.99C843.61,-275.81 900.87,-258.72 938.79,-247.4"/>
<polygon fill="#63b8ff" stroke="#63b8ff" points="939.88,-250.73 948.47,-244.52 937.88,-244.02 939.88,-250.73"/>
</a>
</g>
</g>
<!-- Node8 -->
<g id="Node000008" class="node">
<title>Node8</title>
<g id="a_Node000008"><a xlink:title=" ">
<polygon fill="#e0e0e0" stroke="#999999" points="1170.5,-250 1051.5,-250 1051.5,-220 1170.5,-220 1170.5,-250"/>
<text text-anchor="start" x="1059.5" y="-238" font-family="Helvetica,sans-Serif" font-size="10.00">juce_data_structures</text>
<text text-anchor="middle" x="1111" y="-227" font-family="Helvetica,sans-Serif" font-size="10.00">/juce_data_structures.h</text>
</a>
</g>
</g>
<!-- Node2&#45;&gt;Node8 -->
<g id="edge7_Node000002_Node000008" class="edge">
<title>Node2&#45;&gt;Node8</title>
<g id="a_edge7_Node000002_Node000008"><a xlink:title=" ">
<path fill="none" stroke="#63b8ff" d="M821.76,-287.96C871.22,-279.93 957.4,-265.65 1041.24,-250.11"/>
<polygon fill="#63b8ff" stroke="#63b8ff" points="1041.99,-253.53 1051.18,-248.26 1040.71,-246.65 1041.99,-253.53"/>
</a>
</g>
</g>
<!-- Node9 -->
<g id="Node000009" class="node">
<title>Node9</title>
<g id="a_Node000009"><a xlink:title=" ">
<polygon fill="#e0e0e0" stroke="#999999" points="1319,-244.5 1189,-244.5 1189,-225.5 1319,-225.5 1319,-244.5"/>
<text text-anchor="middle" x="1254" y="-232.5" font-family="Helvetica,sans-Serif" font-size="10.00">juce_events/juce_events.h</text>
</a>
</g>
</g>
<!-- Node2&#45;&gt;Node9 -->
<g id="edge8_Node000002_Node000009" class="edge">
<title>Node2&#45;&gt;Node9</title>
<g id="a_edge8_Node000002_Node000009"><a xlink:title=" ">
<path fill="none" stroke="#63b8ff" d="M821.52,-290.96C893.62,-284.43 1048.86,-269.4 1179,-250 1186.21,-248.93 1193.78,-247.67 1201.22,-246.35"/>
<polygon fill="#63b8ff" stroke="#63b8ff" points="1202.04,-249.76 1211.26,-244.54 1200.79,-242.87 1202.04,-249.76"/>
</a>
</g>
</g>
<!-- Node10 -->
<g id="Node000010" class="node">
<title>Node10</title>
<g id="a_Node000010"><a xlink:title=" ">
<polygon fill="#e0e0e0" stroke="#999999" points="98,-250 0,-250 0,-220 98,-220 98,-250"/>
<text text-anchor="start" x="8" y="-238" font-family="Helvetica,sans-Serif" font-size="10.00">juce_graphics/juce</text>
<text text-anchor="middle" x="49" y="-227" font-family="Helvetica,sans-Serif" font-size="10.00">_graphics.h</text>
</a>
</g>
</g>
<!-- Node2&#45;&gt;Node10 -->
<g id="edge9_Node000002_Node000010" class="edge">
<title>Node2&#45;&gt;Node10</title>
<g id="a_edge9_Node000002_Node000010"><a xlink:title=" ">
<path fill="none" stroke="#63b8ff" d="M740.48,-294.23C636.74,-293.03 353.13,-286.52 108.4,-250.03"/>
<polygon fill="#63b8ff" stroke="#63b8ff" points="108.66,-246.53 98.25,-248.49 107.61,-253.45 108.66,-246.53"/>
</a>
</g>
</g>
<!-- Node11 -->
<g id="Node000011" class="node">
<title>Node11</title>
<g id="a_Node000011"><a xlink:title=" ">
<polygon fill="#e0e0e0" stroke="#999999" points="223.5,-250 116.5,-250 116.5,-220 223.5,-220 223.5,-250"/>
<text text-anchor="start" x="124.5" y="-238" font-family="Helvetica,sans-Serif" font-size="10.00">juce_gui_basics/juce</text>
<text text-anchor="middle" x="170" y="-227" font-family="Helvetica,sans-Serif" font-size="10.00">_gui_basics.h</text>
</a>
</g>
</g>
<!-- Node2&#45;&gt;Node11 -->
<g id="edge10_Node000002_Node000011" class="edge">
<title>Node2&#45;&gt;Node11</title>
<g id="a_edge10_Node000002_Node000011"><a xlink:title=" ">
<path fill="none" stroke="#63b8ff" d="M740.48,-293.17C650.78,-289.82 428.59,-279.2 233.81,-250.14"/>
<polygon fill="#63b8ff" stroke="#63b8ff" points="234.09,-246.64 223.68,-248.61 233.04,-253.56 234.09,-246.64"/>
</a>
</g>
</g>
<!-- Node12 -->
<g id="Node000012" class="node">
<title>Node12</title>
<g id="a_Node000012"><a xlink:title=" ">
<polygon fill="#e0e0e0" stroke="#999999" points="342.5,-250 241.5,-250 241.5,-220 342.5,-220 342.5,-250"/>
<text text-anchor="start" x="249.5" y="-238" font-family="Helvetica,sans-Serif" font-size="10.00">juce_gui_extra/juce</text>
<text text-anchor="middle" x="292" y="-227" font-family="Helvetica,sans-Serif" font-size="10.00">_gui_extra.h</text>
</a>
</g>
</g>
<!-- Node2&#45;&gt;Node12 -->
<g id="edge11_Node000002_Node000012" class="edge">
<title>Node2&#45;&gt;Node12</title>
<g id="a_edge11_Node000002_Node000012"><a xlink:title=" ">
<path fill="none" stroke="#63b8ff" d="M740.25,-291.99C665.48,-287.01 501.2,-274.35 352.85,-249.99"/>
<polygon fill="#63b8ff" stroke="#63b8ff" points="353.09,-246.48 342.65,-248.29 351.94,-253.39 353.09,-246.48"/>
</a>
</g>
</g>
<!-- Node14 -->
<g id="Node000014" class="node">
<title>Node14</title>
<g id="a_Node000014"><a xlink:href="_boolean_8h.html" target="_top" xlink:title="The Boolean specification and body provides a value object type for boolean values.">
<polygon fill="white" stroke="#666666" points="1435,-244.5 1375,-244.5 1375,-225.5 1435,-225.5 1435,-244.5"/>
<text text-anchor="middle" x="1405" y="-232.5" font-family="Helvetica,sans-Serif" font-size="10.00">Boolean.h</text>
</a>
</g>
</g>
<!-- Node13&#45;&gt;Node14 -->
<g id="edge13_Node000013_Node000014" class="edge">
<title>Node13&#45;&gt;Node14</title>
<g id="a_edge13_Node000013_Node000014"><a xlink:title=" ">
<path fill="none" stroke="#63b8ff" d="M1365.23,-340.97C1372.17,-322.65 1388.64,-279.18 1398.06,-254.31"/>
<polygon fill="#63b8ff" stroke="#63b8ff" points="1401.46,-255.22 1401.73,-244.63 1394.91,-252.74 1401.46,-255.22"/>
</a>
</g>
</g>
<!-- Node15 -->
<g id="Node000015" class="node">
<title>Node15</title>
<g id="a_Node000015"><a xlink:href="_my_string_8h.html" target="_top" xlink:title="The String specification defines a standard string type.">
<polygon fill="white" stroke="#666666" points="1416,-74 1352,-74 1352,-55 1416,-55 1416,-74"/>
<text text-anchor="middle" x="1384" y="-62" font-family="Helvetica,sans-Serif" font-size="10.00">MyString.h</text>
</a>
</g>
</g>
<!-- Node14&#45;&gt;Node15 -->
<g id="edge14_Node000014_Node000015" class="edge">
<title>Node14&#45;&gt;Node15</title>
<g id="a_edge14_Node000014_Node000015"><a xlink:title=" ">
<path fill="none" stroke="#63b8ff" d="M1403.93,-225.41C1400.69,-199.39 1390.91,-120.97 1386.37,-84.51"/>
<polygon fill="#63b8ff" stroke="#63b8ff" points="1389.8,-83.76 1385.09,-74.27 1382.86,-84.63 1389.8,-83.76"/>
</a>
</g>
</g>
<!-- Node16 -->
<g id="Node000016" class="node">
<title>Node16</title>
<g id="a_Node000016"><a xlink:title=" ">
<polygon fill="#e0e0e0" stroke="#999999" points="1328.5,-19 1287.5,-19 1287.5,0 1328.5,0 1328.5,-19"/>
<text text-anchor="middle" x="1308" y="-7" font-family="Helvetica,sans-Serif" font-size="10.00">string</text>
</a>
</g>
</g>
<!-- Node15&#45;&gt;Node16 -->
<g id="edge15_Node000015_Node000016" class="edge">
<title>Node15&#45;&gt;Node16</title>
<g id="a_edge15_Node000015_Node000016"><a xlink:title=" ">
<path fill="none" stroke="#63b8ff" d="M1371.79,-54.98C1360.22,-46.92 1342.62,-34.65 1328.84,-25.03"/>
<polygon fill="#63b8ff" stroke="#63b8ff" points="1330.64,-22.02 1320.43,-19.17 1326.63,-27.76 1330.64,-22.02"/>
</a>
</g>
</g>
<!-- Node17 -->
<g id="Node000017" class="node">
<title>Node17</title>
<g id="a_Node000017"><a xlink:href="_global_macros_8h.html" target="_top" xlink:title="The GlobalMacros specification defines simple macros (e.g. for parameter modes).">
<polygon fill="white" stroke="#666666" points="1431.5,-19 1346.5,-19 1346.5,0 1431.5,0 1431.5,-19"/>
<text text-anchor="middle" x="1389" y="-7" font-family="Helvetica,sans-Serif" font-size="10.00">GlobalMacros.h</text>
</a>
</g>
</g>
<!-- Node15&#45;&gt;Node17 -->
<g id="edge16_Node000015_Node000017" class="edge">
<title>Node15&#45;&gt;Node17</title>
<g id="a_edge16_Node000015_Node000017"><a xlink:title=" ">
<path fill="none" stroke="#63b8ff" d="M1384.83,-54.75C1385.48,-47.8 1386.42,-37.85 1387.24,-29.13"/>
<polygon fill="#63b8ff" stroke="#63b8ff" points="1390.73,-29.37 1388.19,-19.09 1383.77,-28.72 1390.73,-29.37"/>
</a>
</g>
</g>
<!-- Node20 -->
<g id="Node000020" class="node">
<title>Node20</title>
<g id="a_Node000020"><a xlink:title=" ">
<polygon fill="#e0e0e0" stroke="#999999" points="1476.5,-360 1427.5,-360 1427.5,-341 1476.5,-341 1476.5,-360"/>
<text text-anchor="middle" x="1452" y="-348" font-family="Helvetica,sans-Serif" font-size="10.00">cstdarg</text>
</a>
</g>
</g>
<!-- Node19&#45;&gt;Node20 -->
<g id="edge19_Node000019_Node000020" class="edge">
<title>Node19&#45;&gt;Node20</title>
<g id="a_edge19_Node000019_Node000020"><a xlink:title=" ">
<path fill="none" stroke="#63b8ff" d="M1452,-395.75C1452,-388.8 1452,-378.85 1452,-370.13"/>
<polygon fill="#63b8ff" stroke="#63b8ff" points="1455.5,-370.09 1452,-360.09 1448.5,-370.09 1455.5,-370.09"/>
</a>
</g>
</g>
<!-- Node21 -->
<g id="Node000021" class="node">
<title>Node21</title>
<g id="a_Node000021"><a xlink:href="_logging_support_8h.html" target="_top" xlink:title="The LoggingSupport specification defines a class for simple entry/exit logging to a file or via an ar...">
<polygon fill="white" stroke="#666666" points="1525,-305 1433,-305 1433,-286 1525,-286 1525,-305"/>
<text text-anchor="middle" x="1479" y="-293" font-family="Helvetica,sans-Serif" font-size="10.00">LoggingSupport.h</text>
</a>
</g>
</g>
<!-- Node19&#45;&gt;Node21 -->
<g id="edge20_Node000019_Node000021" class="edge">
<title>Node19&#45;&gt;Node21</title>
<g id="a_edge20_Node000019_Node000021"><a xlink:title=" ">
<path fill="none" stroke="#63b8ff" d="M1461.61,-395.69C1469.87,-387.41 1481.2,-374.18 1486,-360 1490.94,-345.39 1488.45,-327.91 1485.14,-315"/>
<polygon fill="#63b8ff" stroke="#63b8ff" points="1488.49,-313.99 1482.32,-305.38 1481.78,-315.97 1488.49,-313.99"/>
</a>
</g>
</g>
<!-- Node27 -->
<g id="Node000027" class="node">
<title>Node27</title>
<g id="a_Node000027"><a xlink:href="_string_util_8h.html" target="_top" xlink:title="The StringUtil specification defines several string routines not included in the standard C++ library...">
<polygon fill="white" stroke="#666666" points="1612.5,-360 1547.5,-360 1547.5,-341 1612.5,-341 1612.5,-360"/>
<text text-anchor="middle" x="1580" y="-348" font-family="Helvetica,sans-Serif" font-size="10.00">StringUtil.h</text>
</a>
</g>
</g>
<!-- Node19&#45;&gt;Node27 -->
<g id="edge29_Node000019_Node000027" class="edge">
<title>Node19&#45;&gt;Node27</title>
<g id="a_edge29_Node000019_Node000027"><a xlink:title=" ">
<path fill="none" stroke="#63b8ff" d="M1472.57,-395.98C1493.43,-387.34 1525.97,-373.87 1549.77,-364.02"/>
<polygon fill="#63b8ff" stroke="#63b8ff" points="1551.16,-367.23 1559.06,-360.17 1548.48,-360.76 1551.16,-367.23"/>
</a>
</g>
</g>
<!-- Node21&#45;&gt;Node14 -->
<g id="edge21_Node000021_Node000014" class="edge">
<title>Node21&#45;&gt;Node14</title>
<g id="a_edge21_Node000021_Node000014"><a xlink:title=" ">
<path fill="none" stroke="#63b8ff" d="M1468.08,-285.87C1456.49,-276.71 1437.97,-262.06 1423.98,-251.01"/>
<polygon fill="#63b8ff" stroke="#63b8ff" points="1425.98,-248.12 1415.96,-244.67 1421.64,-253.61 1425.98,-248.12"/>
</a>
</g>
</g>
<!-- Node22 -->
<g id="Node000022" class="node">
<title>Node22</title>
<g id="a_Node000022"><a xlink:href="_natural_8h.html" target="_top" xlink:title="The Natural specification and body provides a value object type for naturals (positive integers with ...">
<polygon fill="white" stroke="#666666" points="1500,-129 1444,-129 1444,-110 1500,-110 1500,-129"/>
<text text-anchor="middle" x="1472" y="-117" font-family="Helvetica,sans-Serif" font-size="10.00">Natural.h</text>
</a>
</g>
</g>
<!-- Node21&#45;&gt;Node22 -->
<g id="edge22_Node000021_Node000022" class="edge">
<title>Node21&#45;&gt;Node22</title>
<g id="a_edge22_Node000021_Node000022"><a xlink:title=" ">
<path fill="none" stroke="#63b8ff" d="M1478.68,-285.71C1477.91,-264.79 1475.9,-210.41 1474,-165 1473.64,-156.49 1473.22,-147.07 1472.86,-139.1"/>
<polygon fill="#63b8ff" stroke="#63b8ff" points="1476.35,-138.86 1472.4,-129.03 1469.36,-139.18 1476.35,-138.86"/>
</a>
</g>
</g>
<!-- Node22&#45;&gt;Node15 -->
<g id="edge28_Node000022_Node000015" class="edge">
<title>Node22&#45;&gt;Node15</title>
<g id="a_edge28_Node000022_Node000015"><a xlink:title=" ">
<path fill="none" stroke="#63b8ff" d="M1457.86,-109.98C1444.21,-101.77 1423.31,-89.18 1407.22,-79.49"/>
<polygon fill="#63b8ff" stroke="#63b8ff" points="1408.77,-76.33 1398.4,-74.17 1405.16,-82.33 1408.77,-76.33"/>
</a>
</g>
</g>
<!-- Node23 -->
<g id="Node000023" class="node">
<title>Node23</title>
<g id="a_Node000023"><a xlink:title=" ">
<polygon fill="#e0e0e0" stroke="#999999" points="1588,-74 1544,-74 1544,-55 1588,-55 1588,-74"/>
<text text-anchor="middle" x="1566" y="-62" font-family="Helvetica,sans-Serif" font-size="10.00">cmath</text>
</a>
</g>
</g>
<!-- Node22&#45;&gt;Node23 -->
<g id="edge23_Node000022_Node000023" class="edge">
<title>Node22&#45;&gt;Node23</title>
<g id="a_edge23_Node000022_Node000023"><a xlink:title=" ">
<path fill="none" stroke="#63b8ff" d="M1487.1,-109.98C1501.82,-101.69 1524.42,-88.94 1541.67,-79.22"/>
<polygon fill="#63b8ff" stroke="#63b8ff" points="1543.63,-82.13 1550.62,-74.17 1540.19,-76.03 1543.63,-82.13"/>
</a>
</g>
</g>
<!-- Node24 -->
<g id="Node000024" class="node">
<title>Node24</title>
<g id="a_Node000024"><a xlink:href="_assertion_8h.html" target="_top" xlink:title="The Assertion specification defines macros for pre&#45; and postconditions in functions or methods.">
<polygon fill="white" stroke="#666666" points="1334,-74 1268,-74 1268,-55 1334,-55 1334,-74"/>
<text text-anchor="middle" x="1301" y="-62" font-family="Helvetica,sans-Serif" font-size="10.00">Assertion.h</text>
</a>
</g>
</g>
<!-- Node22&#45;&gt;Node24 -->
<g id="edge24_Node000022_Node000024" class="edge">
<title>Node22&#45;&gt;Node24</title>
<g id="a_edge24_Node000022_Node000024"><a xlink:title=" ">
<path fill="none" stroke="#63b8ff" d="M1444.53,-109.98C1415.82,-101.09 1370.58,-87.07 1338.58,-77.15"/>
<polygon fill="#63b8ff" stroke="#63b8ff" points="1339.28,-73.7 1328.69,-74.08 1337.2,-80.39 1339.28,-73.7"/>
</a>
</g>
</g>
<!-- Node26 -->
<g id="Node000026" class="node">
<title>Node26</title>
<g id="a_Node000026"><a xlink:title=" ">
<polygon fill="#e0e0e0" stroke="#999999" points="1526,-74 1434,-74 1434,-55 1526,-55 1526,-74"/>
<text text-anchor="middle" x="1480" y="-62" font-family="Helvetica,sans-Serif" font-size="10.00">GenericNumber.h</text>
</a>
</g>
</g>
<!-- Node22&#45;&gt;Node26 -->
<g id="edge27_Node000022_Node000026" class="edge">
<title>Node22&#45;&gt;Node26</title>
<g id="a_edge27_Node000022_Node000026"><a xlink:title=" ">
<path fill="none" stroke="#63b8ff" d="M1473.32,-109.75C1474.37,-102.8 1475.87,-92.85 1477.19,-84.13"/>
<polygon fill="#63b8ff" stroke="#63b8ff" points="1480.67,-84.5 1478.7,-74.09 1473.75,-83.45 1480.67,-84.5"/>
</a>
</g>
</g>
<!-- Node24&#45;&gt;Node16 -->
<g id="edge26_Node000024_Node000016" class="edge">
<title>Node24&#45;&gt;Node16</title>
<g id="a_edge26_Node000024_Node000016"><a xlink:title=" ">
<path fill="none" stroke="#63b8ff" d="M1302.16,-54.75C1303.07,-47.8 1304.39,-37.85 1305.54,-29.13"/>
<polygon fill="#63b8ff" stroke="#63b8ff" points="1309.03,-29.46 1306.87,-19.09 1302.09,-28.54 1309.03,-29.46"/>
</a>
</g>
</g>
<!-- Node25 -->
<g id="Node000025" class="node">
<title>Node25</title>
<g id="a_Node000025"><a xlink:title=" ">
<polygon fill="#e0e0e0" stroke="#999999" points="1269.5,-19 1210.5,-19 1210.5,0 1269.5,0 1269.5,-19"/>
<text text-anchor="middle" x="1240" y="-7" font-family="Helvetica,sans-Serif" font-size="10.00">stdexcept</text>
</a>
</g>
</g>
<!-- Node24&#45;&gt;Node25 -->
<g id="edge25_Node000024_Node000025" class="edge">
<title>Node24&#45;&gt;Node25</title>
<g id="a_edge25_Node000024_Node000025"><a xlink:title=" ">
<path fill="none" stroke="#63b8ff" d="M1291.2,-54.98C1282.18,-47.15 1268.59,-35.34 1257.68,-25.86"/>
<polygon fill="#63b8ff" stroke="#63b8ff" points="1259.82,-23.09 1249.98,-19.17 1255.23,-28.37 1259.82,-23.09"/>
</a>
</g>
</g>
<!-- Node27&#45;&gt;Node14 -->
<g id="edge30_Node000027_Node000014" class="edge">
<title>Node27&#45;&gt;Node14</title>
<g id="a_edge30_Node000027_Node000014"><a xlink:title=" ">
<path fill="none" stroke="#63b8ff" d="M1547.28,-349.14C1512.06,-346.95 1456.71,-338.01 1424,-305 1410.9,-291.78 1406.62,-270.4 1405.33,-254.94"/>
<polygon fill="#63b8ff" stroke="#63b8ff" points="1408.81,-254.33 1404.83,-244.51 1401.82,-254.66 1408.81,-254.33"/>
</a>
</g>
</g>
<!-- Node28 -->
<g id="Node000028" class="node">
<title>Node28</title>
<g id="a_Node000028"><a xlink:href="_character_8h.html" target="_top" xlink:title="The Character specification and body provides a value object type for character values.">
<polygon fill="white" stroke="#666666" points="1650.5,-244.5 1583.5,-244.5 1583.5,-225.5 1650.5,-225.5 1650.5,-244.5"/>
<text text-anchor="middle" x="1617" y="-232.5" font-family="Helvetica,sans-Serif" font-size="10.00">Character.h</text>
</a>
</g>
</g>
<!-- Node27&#45;&gt;Node28 -->
<g id="edge31_Node000027_Node000028" class="edge">
<title>Node27&#45;&gt;Node28</title>
<g id="a_edge31_Node000027_Node000028"><a xlink:title=" ">
<path fill="none" stroke="#63b8ff" d="M1593.78,-340.82C1604.82,-332.99 1619.49,-320.35 1626,-305 1632.84,-288.87 1629.04,-268.87 1624.46,-254.56"/>
<polygon fill="#63b8ff" stroke="#63b8ff" points="1627.66,-253.11 1620.97,-244.89 1621.07,-255.48 1627.66,-253.11"/>
</a>
</g>
</g>
<!-- Node31 -->
<g id="Node000031" class="node">
<title>Node31</title>
<g id="a_Node000031"><a xlink:href="_percentage_8h.html" target="_top" xlink:title="The Percentage specification and body provides a simple percentage type.">
<polygon fill="white" stroke="#666666" points="1617,-305 1543,-305 1543,-286 1617,-286 1617,-305"/>
<text text-anchor="middle" x="1580" y="-293" font-family="Helvetica,sans-Serif" font-size="10.00">Percentage.h</text>
</a>
</g>
</g>
<!-- Node27&#45;&gt;Node31 -->
<g id="edge37_Node000027_Node000031" class="edge">
<title>Node27&#45;&gt;Node31</title>
<g id="a_edge37_Node000027_Node000031"><a xlink:title=" ">
<path fill="none" stroke="#63b8ff" d="M1580,-340.75C1580,-333.8 1580,-323.85 1580,-315.13"/>
<polygon fill="#63b8ff" stroke="#63b8ff" points="1583.5,-315.09 1580,-305.09 1576.5,-315.09 1583.5,-315.09"/>
</a>
</g>
</g>
<!-- Node34 -->
<g id="Node000034" class="node">
<title>Node34</title>
<g id="a_Node000034"><a xlink:href="_string_list_8h.html" target="_top" xlink:title="The StringList specification defines lists of string values with zero&#45;based arbitrary indexed access ...">
<polygon fill="white" stroke="#666666" points="1739,-305 1673,-305 1673,-286 1739,-286 1739,-305"/>
<text text-anchor="middle" x="1706" y="-293" font-family="Helvetica,sans-Serif" font-size="10.00">StringList.h</text>
</a>
</g>
</g>
<!-- Node27&#45;&gt;Node34 -->
<g id="edge43_Node000027_Node000034" class="edge">
<title>Node27&#45;&gt;Node34</title>
<g id="a_edge43_Node000027_Node000034"><a xlink:title=" ">
<path fill="none" stroke="#63b8ff" d="M1600.24,-340.98C1620.7,-332.38 1652.53,-318.99 1675.93,-309.15"/>
<polygon fill="#63b8ff" stroke="#63b8ff" points="1677.53,-312.27 1685.39,-305.17 1674.81,-305.82 1677.53,-312.27"/>
</a>
</g>
</g>
<!-- Node28&#45;&gt;Node23 -->
<g id="edge32_Node000028_Node000023" class="edge">
<title>Node28&#45;&gt;Node23</title>
<g id="a_edge32_Node000028_Node000023"><a xlink:title=" ">
<path fill="none" stroke="#63b8ff" d="M1610.16,-225.34C1602.98,-215.78 1591.92,-199.67 1586,-184 1573.27,-150.29 1568.61,-108.12 1566.93,-84.25"/>
<polygon fill="#63b8ff" stroke="#63b8ff" points="1570.42,-83.9 1566.32,-74.13 1563.43,-84.32 1570.42,-83.9"/>
</a>
</g>
</g>
<!-- Node29 -->
<g id="Node000029" class="node">
<title>Node29</title>
<g id="a_Node000029"><a xlink:href="_byte_8h.html" target="_top" xlink:title="The Byte specification and body provides a value object type for byte values.">
<polygon fill="white" stroke="#666666" points="1639.5,-184 1594.5,-184 1594.5,-165 1639.5,-165 1639.5,-184"/>
<text text-anchor="middle" x="1617" y="-172" font-family="Helvetica,sans-Serif" font-size="10.00">Byte.h</text>
</a>
</g>
</g>
<!-- Node28&#45;&gt;Node29 -->
<g id="edge33_Node000028_Node000029" class="edge">
<title>Node28&#45;&gt;Node29</title>
<g id="a_edge33_Node000028_Node000029"><a xlink:title=" ">
<path fill="none" stroke="#63b8ff" d="M1617,-225.37C1617,-217.25 1617,-204.81 1617,-194.39"/>
<polygon fill="#63b8ff" stroke="#63b8ff" points="1620.5,-194.17 1617,-184.17 1613.5,-194.17 1620.5,-194.17"/>
</a>
</g>
</g>
<!-- Node29&#45;&gt;Node22 -->
<g id="edge36_Node000029_Node000022" class="edge">
<title>Node29&#45;&gt;Node22</title>
<g id="a_edge36_Node000029_Node000022"><a xlink:title=" ">
<path fill="none" stroke="#63b8ff" d="M1594.34,-165.22C1570.37,-156.45 1532.29,-142.54 1504.98,-132.56"/>
<polygon fill="#63b8ff" stroke="#63b8ff" points="1506.05,-129.22 1495.46,-129.07 1503.65,-135.79 1506.05,-129.22"/>
</a>
</g>
</g>
<!-- Node29&#45;&gt;Node23 -->
<g id="edge34_Node000029_Node000023" class="edge">
<title>Node29&#45;&gt;Node23</title>
<g id="a_edge34_Node000029_Node000023"><a xlink:title=" ">
<path fill="none" stroke="#63b8ff" d="M1612.83,-164.66C1604.45,-146.93 1585.47,-106.73 1574.41,-83.32"/>
<polygon fill="#63b8ff" stroke="#63b8ff" points="1577.52,-81.71 1570.09,-74.16 1571.19,-84.7 1577.52,-81.71"/>
</a>
</g>
</g>
<!-- Node30 -->
<g id="Node000030" class="node">
<title>Node30</title>
<g id="a_Node000030"><a xlink:title=" ">
<polygon fill="#e0e0e0" stroke="#999999" points="1678,-129 1632,-129 1632,-110 1678,-110 1678,-129"/>
<text text-anchor="middle" x="1655" y="-117" font-family="Helvetica,sans-Serif" font-size="10.00">cstdint</text>
</a>
</g>
</g>
<!-- Node29&#45;&gt;Node30 -->
<g id="edge35_Node000029_Node000030" class="edge">
<title>Node29&#45;&gt;Node30</title>
<g id="a_edge35_Node000029_Node000030"><a xlink:title=" ">
<path fill="none" stroke="#63b8ff" d="M1623.27,-164.75C1628.59,-157.34 1636.36,-146.5 1642.88,-137.41"/>
<polygon fill="#63b8ff" stroke="#63b8ff" points="1645.86,-139.26 1648.84,-129.09 1640.17,-135.18 1645.86,-139.26"/>
</a>
</g>
</g>
<!-- Node32 -->
<g id="Node000032" class="node">
<title>Node32</title>
<g id="a_Node000032"><a xlink:href="_real_8h.html" target="_top" xlink:title="The Real specification defines a value object type for real values.">
<polygon fill="white" stroke="#666666" points="1565,-244.5 1521,-244.5 1521,-225.5 1565,-225.5 1565,-244.5"/>
<text text-anchor="middle" x="1543" y="-232.5" font-family="Helvetica,sans-Serif" font-size="10.00">Real.h</text>
</a>
</g>
</g>
<!-- Node31&#45;&gt;Node32 -->
<g id="edge38_Node000031_Node000032" class="edge">
<title>Node31&#45;&gt;Node32</title>
<g id="a_edge38_Node000031_Node000032"><a xlink:title=" ">
<path fill="none" stroke="#63b8ff" d="M1574.54,-285.87C1569.13,-277.31 1560.69,-263.97 1553.9,-253.24"/>
<polygon fill="#63b8ff" stroke="#63b8ff" points="1556.79,-251.25 1548.48,-244.67 1550.87,-254.99 1556.79,-251.25"/>
</a>
</g>
</g>
<!-- Node33 -->
<g id="Node000033" class="node">
<title>Node33</title>
<g id="a_Node000033"><a xlink:href="_integer_8h.html" target="_top" xlink:title="The Integer specification and body provides a value object type for ints.">
<polygon fill="white" stroke="#666666" points="1465,-184 1411,-184 1411,-165 1465,-165 1465,-184"/>
<text text-anchor="middle" x="1438" y="-172" font-family="Helvetica,sans-Serif" font-size="10.00">Integer.h</text>
</a>
</g>
</g>
<!-- Node32&#45;&gt;Node33 -->
<g id="edge39_Node000032_Node000033" class="edge">
<title>Node32&#45;&gt;Node33</title>
<g id="a_edge39_Node000032_Node000033"><a xlink:title=" ">
<path fill="none" stroke="#63b8ff" d="M1527.51,-225.37C1510.37,-215.82 1482.53,-200.31 1462.44,-189.12"/>
<polygon fill="#63b8ff" stroke="#63b8ff" points="1464,-185.98 1453.56,-184.17 1460.59,-192.09 1464,-185.98"/>
</a>
</g>
</g>
<!-- Node33&#45;&gt;Node22 -->
<g id="edge42_Node000033_Node000022" class="edge">
<title>Node33&#45;&gt;Node22</title>
<g id="a_edge42_Node000033_Node000022"><a xlink:title=" ">
<path fill="none" stroke="#63b8ff" d="M1443.61,-164.75C1448.32,-157.42 1455.17,-146.73 1460.97,-137.7"/>
<polygon fill="#63b8ff" stroke="#63b8ff" points="1464.04,-139.4 1466.49,-129.09 1458.14,-135.62 1464.04,-139.4"/>
</a>
</g>
</g>
<!-- Node33&#45;&gt;Node23 -->
<g id="edge40_Node000033_Node000023" class="edge">
<title>Node33&#45;&gt;Node23</title>
<g id="a_edge40_Node000033_Node000023"><a xlink:title=" ">
<path fill="none" stroke="#63b8ff" d="M1454.38,-164.97C1469.36,-156.77 1491.75,-143.52 1509,-129 1525.74,-114.92 1542.13,-95.95 1553.01,-82.43"/>
<polygon fill="#63b8ff" stroke="#63b8ff" points="1555.87,-84.45 1559.31,-74.43 1550.37,-80.12 1555.87,-84.45"/>
</a>
</g>
</g>
<!-- Node33&#45;&gt;Node25 -->
<g id="edge41_Node000033_Node000025" class="edge">
<title>Node33&#45;&gt;Node25</title>
<g id="a_edge41_Node000033_Node000025"><a xlink:title=" ">
<path fill="none" stroke="#63b8ff" d="M1410.97,-165.69C1371.7,-152.97 1299.21,-124.02 1259,-74 1248.75,-61.25 1244.02,-43.07 1241.85,-29.43"/>
<polygon fill="#63b8ff" stroke="#63b8ff" points="1245.29,-28.74 1240.56,-19.26 1238.34,-29.62 1245.29,-28.74"/>
</a>
</g>
</g>
<!-- Node35 -->
<g id="Node000035" class="node">
<title>Node35</title>
<g id="a_Node000035"><a xlink:title=" ">
<polygon fill="#e0e0e0" stroke="#999999" points="1834.5,-244.5 1761.5,-244.5 1761.5,-225.5 1834.5,-225.5 1834.5,-244.5"/>
<text text-anchor="middle" x="1798" y="-232.5" font-family="Helvetica,sans-Serif" font-size="10.00">initializer_list</text>
</a>
</g>
</g>
<!-- Node34&#45;&gt;Node35 -->
<g id="edge44_Node000034_Node000035" class="edge">
<title>Node34&#45;&gt;Node35</title>
<g id="a_edge44_Node000034_Node000035"><a xlink:title=" ">
<path fill="none" stroke="#63b8ff" d="M1719.57,-285.87C1734.39,-276.45 1758.33,-261.23 1775.86,-250.08"/>
<polygon fill="#63b8ff" stroke="#63b8ff" points="1777.81,-252.99 1784.37,-244.67 1774.05,-247.08 1777.81,-252.99"/>
</a>
</g>
</g>
<!-- Node36 -->
<g id="Node000036" class="node">
<title>Node36</title>
<g id="a_Node000036"><a xlink:title=" ">
<polygon fill="#e0e0e0" stroke="#999999" points="1743,-244.5 1669,-244.5 1669,-225.5 1743,-225.5 1743,-244.5"/>
<text text-anchor="middle" x="1706" y="-232.5" font-family="Helvetica,sans-Serif" font-size="10.00">GenericList.h</text>
</a>
</g>
</g>
<!-- Node34&#45;&gt;Node36 -->
<g id="edge45_Node000034_Node000036" class="edge">
<title>Node34&#45;&gt;Node36</title>
<g id="a_edge45_Node000034_Node000036"><a xlink:title=" ">
<path fill="none" stroke="#63b8ff" d="M1706,-285.87C1706,-277.75 1706,-265.31 1706,-254.89"/>
<polygon fill="#63b8ff" stroke="#63b8ff" points="1709.5,-254.67 1706,-244.67 1702.5,-254.67 1709.5,-254.67"/>
</a>
</g>
</g>
<!-- Node37&#45;&gt;Node34 -->
<g id="edge47_Node000037_Node000034" class="edge">
<title>Node37&#45;&gt;Node34</title>
<g id="a_edge47_Node000037_Node000034"><a xlink:title=" ">
<path fill="none" stroke="#63b8ff" d="M1554.19,-395.87C1572.18,-387.51 1599.58,-374.06 1622,-360 1645.87,-345.03 1671.45,-325.07 1688.02,-311.55"/>
<polygon fill="#63b8ff" stroke="#63b8ff" points="1690.32,-314.19 1695.81,-305.13 1685.87,-308.79 1690.32,-314.19"/>
</a>
</g>
</g>
<!-- Node39 -->
<g id="Node000039" class="node">
<title>Node39</title>
<g id="a_Node000039"><a xlink:title=" ">
<polygon fill="#e0e0e0" stroke="#999999" points="1756,-360 1682,-360 1682,-341 1756,-341 1756,-360"/>
<text text-anchor="middle" x="1719" y="-348" font-family="Helvetica,sans-Serif" font-size="10.00">GenericSet.h</text>
</a>
</g>
</g>
<!-- Node38&#45;&gt;Node39 -->
<g id="edge49_Node000038_Node000039" class="edge">
<title>Node38&#45;&gt;Node39</title>
<g id="a_edge49_Node000038_Node000039"><a xlink:title=" ">
<path fill="none" stroke="#63b8ff" d="M1719,-395.75C1719,-388.8 1719,-378.85 1719,-370.13"/>
<polygon fill="#63b8ff" stroke="#63b8ff" points="1722.5,-370.09 1719,-360.09 1715.5,-370.09 1722.5,-370.09"/>
</a>
</g>
</g>
<!-- Node41 -->
<g id="Node000041" class="node">
<title>Node41</title>
<g id="a_Node000041"><a xlink:href="_fluid_synth_plugin___event_processor_8h.html" target="_top" xlink:title="The FluidSynthPlugin_Processor specification defines the handling of MIDI events from the DAW via JUC...">
<polygon fill="white" stroke="#666666" points="1283,-360 1111,-360 1111,-341 1283,-341 1283,-360"/>
<text text-anchor="middle" x="1197" y="-348" font-family="Helvetica,sans-Serif" font-size="10.00">FluidSynthPlugin_EventProcessor.h</text>
</a>
</g>
</g>
<!-- Node40&#45;&gt;Node41 -->
<g id="edge51_Node000040_Node000041" class="edge">
<title>Node40&#45;&gt;Node41</title>
<g id="a_edge51_Node000040_Node000041"><a xlink:title=" ">
<path fill="none" stroke="#63b8ff" d="M1226.22,-395.75C1221.38,-388.42 1214.32,-377.73 1208.36,-368.7"/>
<polygon fill="#63b8ff" stroke="#63b8ff" points="1211.1,-366.5 1202.67,-360.09 1205.26,-370.36 1211.1,-366.5"/>
</a>
</g>
</g>
<!-- Node41&#45;&gt;Node2 -->
<g id="edge52_Node000041_Node000002" class="edge">
<title>Node41&#45;&gt;Node2</title>
<g id="a_edge52_Node000041_Node000002"><a xlink:title=" ">
<path fill="none" stroke="#63b8ff" d="M1130.16,-340.98C1046.92,-330.38 906.55,-312.5 831.66,-302.95"/>
<polygon fill="#63b8ff" stroke="#63b8ff" points="831.9,-299.46 821.54,-301.66 831.01,-306.4 831.9,-299.46"/>
</a>
</g>
</g>
<!-- Node42 -->
<g id="Node000042" class="node">
<title>Node42</title>
<g id="a_Node000042"><a xlink:href="_object_8h.html" target="_top" xlink:title="The Object specification and body provides the root object type.">
<polygon fill="white" stroke="#666666" points="1195.5,-305 1142.5,-305 1142.5,-286 1195.5,-286 1195.5,-305"/>
<text text-anchor="middle" x="1169" y="-293" font-family="Helvetica,sans-Serif" font-size="10.00">Object.h</text>
</a>
</g>
</g>
<!-- Node41&#45;&gt;Node42 -->
<g id="edge53_Node000041_Node000042" class="edge">
<title>Node41&#45;&gt;Node42</title>
<g id="a_edge53_Node000041_Node000042"><a xlink:title=" ">
<path fill="none" stroke="#63b8ff" d="M1192.38,-340.75C1188.54,-333.49 1182.98,-322.95 1178.24,-313.98"/>
<polygon fill="#63b8ff" stroke="#63b8ff" points="1181.3,-312.3 1173.54,-305.09 1175.11,-315.57 1181.3,-312.3"/>
</a>
</g>
</g>
<!-- Node43 -->
<g id="Node000043" class="node">
<title>Node43</title>
<g id="a_Node000043"><a xlink:href="_midi_preset_identification_8h.html" target="_top" xlink:title="The MidiPresetIdentification specification defines the identification of a MIDI preset as a tuple of ...">
<polygon fill="white" stroke="#666666" points="1338.5,-305 1213.5,-305 1213.5,-286 1338.5,-286 1338.5,-305"/>
<text text-anchor="middle" x="1276" y="-293" font-family="Helvetica,sans-Serif" font-size="10.00">MidiPresetIdentification.h</text>
</a>
</g>
</g>
<!-- Node41&#45;&gt;Node43 -->
<g id="edge54_Node000041_Node000043" class="edge">
<title>Node41&#45;&gt;Node43</title>
<g id="a_edge54_Node000041_Node000043"><a xlink:title=" ">
<path fill="none" stroke="#63b8ff" d="M1209.69,-340.98C1221.83,-332.84 1240.36,-320.41 1254.75,-310.76"/>
<polygon fill="#63b8ff" stroke="#63b8ff" points="1256.72,-313.65 1263.08,-305.17 1252.82,-307.84 1256.72,-313.65"/>
</a>
</g>
</g>
<!-- Node43&#45;&gt;Node14 -->
<g id="edge55_Node000043_Node000014" class="edge">
<title>Node43&#45;&gt;Node14</title>
<g id="a_edge55_Node000043_Node000014"><a xlink:title=" ">
<path fill="none" stroke="#63b8ff" d="M1294.76,-285.99C1316.35,-276.2 1352.03,-260.02 1376.93,-248.73"/>
<polygon fill="#63b8ff" stroke="#63b8ff" points="1378.56,-251.83 1386.22,-244.52 1375.67,-245.46 1378.56,-251.83"/>
</a>
</g>
</g>
<!-- Node43&#45;&gt;Node33 -->
<g id="edge56_Node000043_Node000033" class="edge">
<title>Node43&#45;&gt;Node33</title>
<g id="a_edge56_Node000043_Node000033"><a xlink:title=" ">
<path fill="none" stroke="#63b8ff" d="M1286.16,-285.79C1306.12,-268.72 1349.93,-231.53 1366,-220 1381.47,-208.89 1399.73,-197.63 1413.99,-189.21"/>
<polygon fill="#63b8ff" stroke="#63b8ff" points="1415.84,-192.18 1422.72,-184.12 1412.32,-186.14 1415.84,-192.18"/>
</a>
</g>
</g>
</g>
</svg>

<g id="navigator" transform="translate(0 0)" fill="#404254">
  <rect fill="#f2f5e9" fill-opacity="0.5" stroke="#606060" stroke-width=".5" x="0" y="0" width="60" height="60"/>
  <use id="zoomplus" xlink:href="#zoomPlus" x="17" y="9" onmousedown="handleZoom(evt,'in')"/>
  <use id="zoomminus" xlink:href="#zoomMin" x="42" y="9" onmousedown="handleZoom(evt,'out')"/>
  <use id="reset" xlink:href="#resetDef" x="30" y="36" onmousedown="handleReset()"/>
   <use id="arrowup" xlink:href="#arrowUp" x="0" y="0" onmousedown="handlePan(0,-1)"/>
  <use id="arrowright" xlink:href="#arrowRight" x="0" y="0" onmousedown="handlePan(1,0)"/>
  <use id="arrowdown" xlink:href="#arrowDown" x="0" y="0" onmousedown="handlePan(0,1)"/>
  <use id="arrowleft" xlink:href="#arrowLeft" x="0" y="0" onmousedown="handlePan(-1,0)"/>
</g>
<svg viewBox="0 0 15 15" width="100%" height="30px" preserveAspectRatio="xMaxYMin meet">
 <g id="arrow_out" transform="scale(0.3 0.3)">
  <a xlink:href="_fluid_synth_plugin___editor_support_8cpp__incl_org.svg" target="_base">
   <rect id="button" ry="5" rx="5" y="6" x="6" height="38" width="38"
        fill="#f2f5e9" fill-opacity="0.5" stroke="#606060" stroke-width="1.0"/>
   <path id="arrow"
     d="M 11.500037,31.436501 C 11.940474,20.09759 22.043105,11.32322 32.158766,21.979434 L 37.068811,17.246167 C 37.068811,17.246167 37.088388,32 37.088388,32 L 22.160133,31.978069 C 22.160133,31.978069 26.997745,27.140456 26.997745,27.140456 C 18.528582,18.264221 13.291696,25.230495 11.500037,31.436501 z"
     style="fill:#404040;"/>
  </a>
 </g>
</svg>

<style type='text/css'>
<![CDATA[
[data-mouse-over-selected='false'] { opacity: 0.7; }
[data-mouse-over-selected='true']  { opacity: 1.0; }
]]>
</style>
<script type="application/ecmascript"><![CDATA[
document.addEventListener('DOMContentLoaded', (event) => {
  highlightEdges();
  highlightAdjacentNodes();
});
]]></script>
</svg>
