<?xml version="1.0" encoding="UTF-8" standalone="no"?>
<!DOCTYPE svg PUBLIC "-//W3C//DTD SVG 1.1//EN"
 "http://www.w3.org/Graphics/SVG/1.1/DTD/svg11.dtd">
<!-- Generated by graphviz version 2.47.1 (20210417.1919)
 -->
<!-- Title: FluidSynthSettings.h Pages: 1 -->
<svg width="365pt" height="143pt"
 viewBox="0.00 0.00 365.00 143.00" xmlns="http://www.w3.org/2000/svg" xmlns:xlink="http://www.w3.org/1999/xlink">
<g id="graph0" class="graph" transform="scale(1 1) rotate(0) translate(4 139)">
<title>FluidSynthSettings.h</title>
<polygon fill="white" stroke="transparent" points="-4,4 -4,-139 361,-139 361,4 -4,4"/>
<!-- Node1 -->
<g id="node1" class="node">
<title>Node1</title>
<g id="a_node1"><a xlink:title="The FluidSynthSettings class specifies an object&#45;oriented wrapper around an underlying fluidsynth set...">
<polygon fill="#bfbfbf" stroke="black" points="80,-114.5 80,-134.5 196,-134.5 196,-114.5 80,-114.5"/>
<text text-anchor="middle" x="138" y="-121.7" font-family="Helvetica,sans-Serif" font-size="11.00">FluidSynthSettings.h</text>
</a>
</g>
</g>
<!-- Node2 -->
<g id="node2" class="node">
<title>Node2</title>
<g id="a_node2"><a xlink:href="_fluid_synth_settings_8cpp.html" target="_top" xlink:title="The FluidSynthSettings class implements an object&#45;oriented wrapper around an underlying fluidsynth se...">
<polygon fill="white" stroke="black" points="0,-57.5 0,-77.5 128,-77.5 128,-57.5 0,-57.5"/>
<text text-anchor="middle" x="64" y="-64.7" font-family="Helvetica,sans-Serif" font-size="11.00">FluidSynthSettings.cpp</text>
</a>
</g>
</g>
<!-- Node1&#45;&gt;Node2 -->
<g id="edge1" class="edge">
<title>Node1&#45;&gt;Node2</title>
<path fill="none" stroke="midnightblue" d="M117.67,-108.39C104.39,-98.52 87.49,-85.96 76.24,-77.6"/>
<polygon fill="midnightblue" stroke="midnightblue" points="115.67,-111.26 125.78,-114.42 119.84,-105.64 115.67,-111.26"/>
</g>
<!-- Node3 -->
<g id="node3" class="node">
<title>Node3</title>
<g id="a_node3"><a xlink:href="_fluid_synth_synthesizer_8h.html" target="_top" xlink:title="The FluidSynthSynthesizer class specifies an object&#45;oriented wrapper around an underlying fluidsynth ...">
<polygon fill="white" stroke="black" points="146,-57.5 146,-77.5 280,-77.5 280,-57.5 146,-57.5"/>
<text text-anchor="middle" x="213" y="-64.7" font-family="Helvetica,sans-Serif" font-size="11.00">FluidSynthSynthesizer.h</text>
</a>
</g>
</g>
<!-- Node1&#45;&gt;Node3 -->
<g id="edge2" class="edge">
<title>Node1&#45;&gt;Node3</title>
<path fill="none" stroke="midnightblue" d="M158.6,-108.39C172.06,-98.52 189.19,-85.96 200.6,-77.6"/>
<polygon fill="midnightblue" stroke="midnightblue" points="156.38,-105.68 150.38,-114.42 160.52,-111.33 156.38,-105.68"/>
</g>
<!-- Node4 -->
<g id="node4" class="node">
<title>Node4</title>
<g id="a_node4"><a xlink:href="_fluid_synth_synthesizer_8cpp.html" target="_top" xlink:title="The FluidSynthSynthesizer class implements an object&#45;oriented wrapper around an underlying fluidsynth...">
<polygon fill="white" stroke="black" points="61,-0.5 61,-20.5 207,-20.5 207,-0.5 61,-0.5"/>
<text text-anchor="middle" x="134" y="-7.7" font-family="Helvetica,sans-Serif" font-size="11.00">FluidSynthSynthesizer.cpp</text>
</a>
</g>
</g>
<!-- Node3&#45;&gt;Node4 -->
<g id="edge3" class="edge">
<title>Node3&#45;&gt;Node4</title>
<path fill="none" stroke="midnightblue" d="M191.7,-51.67C177.47,-41.76 159.19,-29.04 147.06,-20.6"/>
<polygon fill="midnightblue" stroke="midnightblue" points="189.75,-54.58 199.95,-57.42 193.75,-48.83 189.75,-54.58"/>
</g>
<!-- Node5 -->
<g id="node5" class="node">
<title>Node5</title>
<g id="a_node5"><a xlink:href="_midi_event_converter_8cpp.html" target="_top" xlink:title="The MidiEventConverter module implements the handling of MIDI events by feeding them to an underlying...">
<polygon fill="white" stroke="black" points="225,-0.5 225,-20.5 357,-20.5 357,-0.5 225,-0.5"/>
<text text-anchor="middle" x="291" y="-7.7" font-family="Helvetica,sans-Serif" font-size="11.00">MidiEventConverter.cpp</text>
</a>
</g>
</g>
<!-- Node3&#45;&gt;Node5 -->
<g id="edge4" class="edge">
<title>Node3&#45;&gt;Node5</title>
<path fill="none" stroke="midnightblue" d="M234.43,-51.39C248.42,-41.52 266.24,-28.96 278.1,-20.6"/>
<polygon fill="midnightblue" stroke="midnightblue" points="232.04,-48.79 225.88,-57.42 236.07,-54.52 232.04,-48.79"/>
</g>
</g>
</svg>
