<?xml version="1.0" encoding="UTF-8" standalone="no"?>
<!DOCTYPE svg PUBLIC "-//W3C//DTD SVG 1.1//EN"
 "http://www.w3.org/Graphics/SVG/1.1/DTD/svg11.dtd">
<!-- Generated by graphviz version 2.47.1 (20210417.1919)
 -->
<!-- Title: FluidSynthSynthesizer.h Pages: 1 -->
<svg width="557pt" height="467pt"
 viewBox="0.00 0.00 556.50 467.00" xmlns="http://www.w3.org/2000/svg" xmlns:xlink="http://www.w3.org/1999/xlink">
<g id="graph0" class="graph" transform="scale(1 1) rotate(0) translate(4 463)">
<title>FluidSynthSynthesizer.h</title>
<!-- Node1 -->
<g id="Node000001" class="node">
<title>Node1</title>
<g id="a_Node000001"><a xlink:title="The FluidSynthSynthesizer class specifies an object&#45;oriented wrapper around an underlying fluidsynth ...">
<polygon fill="#999999" stroke="#666666" points="453,-459 330,-459 330,-440 453,-440 453,-459"/>
<text text-anchor="middle" x="391.5" y="-447" font-family="Helvetica,sans-Serif" font-size="10.00">FluidSynthSynthesizer.h</text>
</a>
</g>
</g>
<!-- Node2 -->
<g id="Node000002" class="node">
<title>Node2</title>
<g id="a_Node000002"><a xlink:href="_audio_sample_list_vector_8h.html" target="_top" xlink:title="The AudioSampleListVector specification defines the communication buffer structure for the block proc...">
<polygon fill="white" stroke="#666666" points="284,-404 157,-404 157,-385 284,-385 284,-404"/>
<text text-anchor="middle" x="220.5" y="-392" font-family="Helvetica,sans-Serif" font-size="10.00">AudioSampleListVector.h</text>
</a>
</g>
</g>
<!-- Node1&#45;&gt;Node2 -->
<g id="edge1_Node000001_Node000002" class="edge">
<title>Node1&#45;&gt;Node2</title>
<g id="a_edge1_Node000001_Node000002"><a xlink:title=" ">
<path fill="none" stroke="#63b8ff" d="M364.03,-439.98C335.32,-431.09 290.08,-417.07 258.08,-407.15"/>
<polygon fill="#63b8ff" stroke="#63b8ff" points="258.78,-403.7 248.19,-404.08 256.7,-410.39 258.78,-403.7"/>
</a>
</g>
</g>
<!-- Node10 -->
<g id="Node000010" class="node">
<title>Node10</title>
<g id="a_Node000010"><a xlink:href="_natural_8h.html" target="_top" xlink:title="The Natural specification and body provides a value object type for naturals (positive integers with ...">
<polygon fill="white" stroke="#666666" points="372.5,-129 316.5,-129 316.5,-110 372.5,-110 372.5,-129"/>
<text text-anchor="middle" x="344.5" y="-117" font-family="Helvetica,sans-Serif" font-size="10.00">Natural.h</text>
</a>
</g>
</g>
<!-- Node1&#45;&gt;Node10 -->
<g id="edge23_Node000001_Node000010" class="edge">
<title>Node1&#45;&gt;Node10</title>
<g id="a_edge23_Node000001_Node000010"><a xlink:title=" ">
<path fill="none" stroke="#63b8ff" d="M388.94,-439.91C383.75,-421.74 372.5,-378 372.5,-340.5 372.5,-340.5 372.5,-340.5 372.5,-228.5 372.5,-196.02 360.49,-159.76 352.2,-138.6"/>
<polygon fill="#63b8ff" stroke="#63b8ff" points="355.41,-137.2 348.39,-129.26 348.93,-139.84 355.41,-137.2"/>
</a>
</g>
</g>
<!-- Node20 -->
<g id="Node000020" class="node">
<title>Node20</title>
<g id="a_Node000020"><a xlink:href="_object_8h.html" target="_top" xlink:title="The Object specification and body provides the root object type.">
<polygon fill="white" stroke="#666666" points="454,-294 401,-294 401,-275 454,-275 454,-294"/>
<text text-anchor="middle" x="427.5" y="-282" font-family="Helvetica,sans-Serif" font-size="10.00">Object.h</text>
</a>
</g>
</g>
<!-- Node1&#45;&gt;Node20 -->
<g id="edge24_Node000001_Node000020" class="edge">
<title>Node1&#45;&gt;Node20</title>
<g id="a_edge24_Node000001_Node000020"><a xlink:title=" ">
<path fill="none" stroke="#63b8ff" d="M393.44,-439.74C399.08,-414.2 415.59,-339.43 423.36,-304.23"/>
<polygon fill="#63b8ff" stroke="#63b8ff" points="426.82,-304.83 425.55,-294.31 419.98,-303.32 426.82,-304.83"/>
</a>
</g>
</g>
<!-- Node21 -->
<g id="Node000021" class="node">
<title>Node21</title>
<g id="a_Node000021"><a xlink:href="_fluid_synth_settings_8h.html" target="_top" xlink:title="The FluidSynthSettings class specifies an object&#45;oriented wrapper around an underlying fluidsynth set...">
<polygon fill="white" stroke="#666666" points="546,-404 439,-404 439,-385 546,-385 546,-404"/>
<text text-anchor="middle" x="492.5" y="-392" font-family="Helvetica,sans-Serif" font-size="10.00">FluidSynthSettings.h</text>
</a>
</g>
</g>
<!-- Node1&#45;&gt;Node21 -->
<g id="edge25_Node000001_Node000021" class="edge">
<title>Node1&#45;&gt;Node21</title>
<g id="a_edge25_Node000001_Node000021"><a xlink:title=" ">
<path fill="none" stroke="#63b8ff" d="M407.73,-439.98C423.68,-431.61 448.28,-418.7 466.88,-408.95"/>
<polygon fill="#63b8ff" stroke="#63b8ff" points="468.75,-411.92 475.98,-404.17 465.5,-405.72 468.75,-411.92"/>
</a>
</g>
</g>
<!-- Node3 -->
<g id="Node000003" class="node">
<title>Node3</title>
<g id="a_Node000003"><a xlink:href="_audio_sample_list_8h.html" target="_top" xlink:title="The AudioSampleList specification defines lists of audio samples with zero&#45;based arbitrary indexed ac...">
<polygon fill="white" stroke="#666666" points="269.5,-349 171.5,-349 171.5,-330 269.5,-330 269.5,-349"/>
<text text-anchor="middle" x="220.5" y="-337" font-family="Helvetica,sans-Serif" font-size="10.00">AudioSampleList.h</text>
</a>
</g>
</g>
<!-- Node2&#45;&gt;Node3 -->
<g id="edge2_Node000002_Node000003" class="edge">
<title>Node2&#45;&gt;Node3</title>
<g id="a_edge2_Node000002_Node000003"><a xlink:title=" ">
<path fill="none" stroke="#63b8ff" d="M220.5,-384.75C220.5,-377.8 220.5,-367.85 220.5,-359.13"/>
<polygon fill="#63b8ff" stroke="#63b8ff" points="224,-359.09 220.5,-349.09 217,-359.09 224,-359.09"/>
</a>
</g>
</g>
<!-- Node19 -->
<g id="Node000019" class="node">
<title>Node19</title>
<g id="a_Node000019"><a xlink:href="_audio_sample_list_vector_8cpp-inc.html" target="_top" xlink:title="The AudioSampleListVector body implements the communication buffer structure for the block processing...">
<polygon fill="white" stroke="#666666" points="153,-349 0,-349 0,-330 153,-330 153,-349"/>
<text text-anchor="middle" x="76.5" y="-337" font-family="Helvetica,sans-Serif" font-size="10.00">AudioSampleListVector.cpp&#45;inc</text>
</a>
</g>
</g>
<!-- Node2&#45;&gt;Node19 -->
<g id="edge22_Node000002_Node000019" class="edge">
<title>Node2&#45;&gt;Node19</title>
<g id="a_edge22_Node000002_Node000019"><a xlink:title=" ">
<path fill="none" stroke="#63b8ff" d="M197.36,-384.98C173.68,-376.27 136.63,-362.63 109.79,-352.75"/>
<polygon fill="#63b8ff" stroke="#63b8ff" points="110.65,-349.34 100.06,-349.17 108.23,-355.91 110.65,-349.34"/>
</a>
</g>
</g>
<!-- Node4 -->
<g id="Node000004" class="node">
<title>Node4</title>
<g id="a_Node000004"><a xlink:title=" ">
<polygon fill="#e0e0e0" stroke="#999999" points="99.5,-294 25.5,-294 25.5,-275 99.5,-275 99.5,-294"/>
<text text-anchor="middle" x="62.5" y="-282" font-family="Helvetica,sans-Serif" font-size="10.00">GenericList.h</text>
</a>
</g>
</g>
<!-- Node3&#45;&gt;Node4 -->
<g id="edge3_Node000003_Node000004" class="edge">
<title>Node3&#45;&gt;Node4</title>
<g id="a_edge3_Node000003_Node000004"><a xlink:title=" ">
<path fill="none" stroke="#63b8ff" d="M195.11,-329.98C168.7,-321.13 127.15,-307.19 97.61,-297.28"/>
<polygon fill="#63b8ff" stroke="#63b8ff" points="98.68,-293.94 88.08,-294.08 96.45,-300.58 98.68,-293.94"/>
</a>
</g>
</g>
<!-- Node5 -->
<g id="Node000005" class="node">
<title>Node5</title>
<g id="a_Node000005"><a xlink:href="_audio_sample_8h.html" target="_top" xlink:title="The AudioSample specification and body provides the definition of the audio sample (a real value).">
<polygon fill="white" stroke="#666666" points="201,-294 118,-294 118,-275 201,-275 201,-294"/>
<text text-anchor="middle" x="159.5" y="-282" font-family="Helvetica,sans-Serif" font-size="10.00">AudioSample.h</text>
</a>
</g>
</g>
<!-- Node3&#45;&gt;Node5 -->
<g id="edge4_Node000003_Node000005" class="edge">
<title>Node3&#45;&gt;Node5</title>
<g id="a_edge4_Node000003_Node000005"><a xlink:title=" ">
<path fill="none" stroke="#63b8ff" d="M210.7,-329.98C201.68,-322.15 188.09,-310.34 177.18,-300.86"/>
<polygon fill="#63b8ff" stroke="#63b8ff" points="179.32,-298.09 169.48,-294.17 174.73,-303.37 179.32,-298.09"/>
</a>
</g>
</g>
<!-- Node16 -->
<g id="Node000016" class="node">
<title>Node16</title>
<g id="a_Node000016"><a xlink:href="_audio_sample_list_8cpp-inc.html" target="_top" xlink:title="The AudioSampleList body implements a simple list of audio samples (this is the effective code includ...">
<polygon fill="white" stroke="#666666" points="344,-294 219,-294 219,-275 344,-275 344,-294"/>
<text text-anchor="middle" x="281.5" y="-282" font-family="Helvetica,sans-Serif" font-size="10.00">AudioSampleList.cpp&#45;inc</text>
</a>
</g>
</g>
<!-- Node3&#45;&gt;Node16 -->
<g id="edge18_Node000003_Node000016" class="edge">
<title>Node3&#45;&gt;Node16</title>
<g id="a_edge18_Node000003_Node000016"><a xlink:title=" ">
<path fill="none" stroke="#63b8ff" d="M230.3,-329.98C239.32,-322.15 252.91,-310.34 263.82,-300.86"/>
<polygon fill="#63b8ff" stroke="#63b8ff" points="266.27,-303.37 271.52,-294.17 261.68,-298.09 266.27,-303.37"/>
</a>
</g>
</g>
<!-- Node6 -->
<g id="Node000006" class="node">
<title>Node6</title>
<g id="a_Node000006"><a xlink:href="_real_8h.html" target="_top" xlink:title="The Real specification defines a value object type for real values.">
<polygon fill="white" stroke="#666666" points="206.5,-239 162.5,-239 162.5,-220 206.5,-220 206.5,-239"/>
<text text-anchor="middle" x="184.5" y="-227" font-family="Helvetica,sans-Serif" font-size="10.00">Real.h</text>
</a>
</g>
</g>
<!-- Node5&#45;&gt;Node6 -->
<g id="edge5_Node000005_Node000006" class="edge">
<title>Node5&#45;&gt;Node6</title>
<g id="a_edge5_Node000005_Node000006"><a xlink:title=" ">
<path fill="none" stroke="#63b8ff" d="M163.63,-274.75C167.01,-267.57 171.92,-257.18 176.12,-248.27"/>
<polygon fill="#63b8ff" stroke="#63b8ff" points="179.35,-249.63 180.45,-239.09 173.02,-246.64 179.35,-249.63"/>
</a>
</g>
</g>
<!-- Node7 -->
<g id="Node000007" class="node">
<title>Node7</title>
<g id="a_Node000007"><a xlink:href="_integer_8h.html" target="_top" xlink:title="The Integer specification and body provides a value object type for ints.">
<polygon fill="white" stroke="#666666" points="238.5,-184 184.5,-184 184.5,-165 238.5,-165 238.5,-184"/>
<text text-anchor="middle" x="211.5" y="-172" font-family="Helvetica,sans-Serif" font-size="10.00">Integer.h</text>
</a>
</g>
</g>
<!-- Node6&#45;&gt;Node7 -->
<g id="edge6_Node000006_Node000007" class="edge">
<title>Node6&#45;&gt;Node7</title>
<g id="a_edge6_Node000006_Node000007"><a xlink:title=" ">
<path fill="none" stroke="#63b8ff" d="M188.96,-219.75C192.62,-212.57 197.91,-202.18 202.45,-193.27"/>
<polygon fill="#63b8ff" stroke="#63b8ff" points="205.7,-194.59 207.12,-184.09 199.47,-191.41 205.7,-194.59"/>
</a>
</g>
</g>
<!-- Node8 -->
<g id="Node000008" class="node">
<title>Node8</title>
<g id="a_Node000008"><a xlink:title=" ">
<polygon fill="#e0e0e0" stroke="#999999" points="272.5,-74 228.5,-74 228.5,-55 272.5,-55 272.5,-74"/>
<text text-anchor="middle" x="250.5" y="-62" font-family="Helvetica,sans-Serif" font-size="10.00">cmath</text>
</a>
</g>
</g>
<!-- Node7&#45;&gt;Node8 -->
<g id="edge7_Node000007_Node000008" class="edge">
<title>Node7&#45;&gt;Node8</title>
<g id="a_edge7_Node000007_Node000008"><a xlink:title=" ">
<path fill="none" stroke="#63b8ff" d="M214.69,-164.66C221.07,-147.01 235.48,-107.09 243.95,-83.64"/>
<polygon fill="#63b8ff" stroke="#63b8ff" points="247.27,-84.75 247.37,-74.16 240.68,-82.38 247.27,-84.75"/>
</a>
</g>
</g>
<!-- Node9 -->
<g id="Node000009" class="node">
<title>Node9</title>
<g id="a_Node000009"><a xlink:title=" ">
<polygon fill="#e0e0e0" stroke="#999999" points="259,-19 200,-19 200,0 259,0 259,-19"/>
<text text-anchor="middle" x="229.5" y="-7" font-family="Helvetica,sans-Serif" font-size="10.00">stdexcept</text>
</a>
</g>
</g>
<!-- Node7&#45;&gt;Node9 -->
<g id="edge8_Node000007_Node000009" class="edge">
<title>Node7&#45;&gt;Node9</title>
<g id="a_edge8_Node000007_Node000009"><a xlink:title=" ">
<path fill="none" stroke="#63b8ff" d="M211.63,-164.83C212.02,-145.18 213.57,-95.81 219.5,-55 220.75,-46.38 222.77,-36.95 224.67,-29"/>
<polygon fill="#63b8ff" stroke="#63b8ff" points="228.07,-29.84 227.1,-19.29 221.28,-28.14 228.07,-29.84"/>
</a>
</g>
</g>
<!-- Node7&#45;&gt;Node10 -->
<g id="edge9_Node000007_Node000010" class="edge">
<title>Node7&#45;&gt;Node10</title>
<g id="a_edge9_Node000007_Node000010"><a xlink:title=" ">
<path fill="none" stroke="#63b8ff" d="M232.87,-164.98C254.65,-156.3 288.66,-142.75 313.42,-132.88"/>
<polygon fill="#63b8ff" stroke="#63b8ff" points="314.75,-136.12 322.74,-129.17 312.16,-129.62 314.75,-136.12"/>
</a>
</g>
</g>
<!-- Node10&#45;&gt;Node8 -->
<g id="edge10_Node000010_Node000008" class="edge">
<title>Node10&#45;&gt;Node8</title>
<g id="a_edge10_Node000010_Node000008"><a xlink:title=" ">
<path fill="none" stroke="#63b8ff" d="M329.4,-109.98C314.68,-101.69 292.08,-88.94 274.83,-79.22"/>
<polygon fill="#63b8ff" stroke="#63b8ff" points="276.31,-76.03 265.88,-74.17 272.87,-82.13 276.31,-76.03"/>
</a>
</g>
</g>
<!-- Node11 -->
<g id="Node000011" class="node">
<title>Node11</title>
<g id="a_Node000011"><a xlink:href="_assertion_8h.html" target="_top" xlink:title="The Assertion specification defines macros for pre&#45; and postconditions in functions or methods.">
<polygon fill="white" stroke="#666666" points="356.5,-74 290.5,-74 290.5,-55 356.5,-55 356.5,-74"/>
<text text-anchor="middle" x="323.5" y="-62" font-family="Helvetica,sans-Serif" font-size="10.00">Assertion.h</text>
</a>
</g>
</g>
<!-- Node10&#45;&gt;Node11 -->
<g id="edge11_Node000010_Node000011" class="edge">
<title>Node10&#45;&gt;Node11</title>
<g id="a_edge11_Node000010_Node000011"><a xlink:title=" ">
<path fill="none" stroke="#63b8ff" d="M341.03,-109.75C338.22,-102.65 334.16,-92.4 330.65,-83.56"/>
<polygon fill="#63b8ff" stroke="#63b8ff" points="333.84,-82.1 326.9,-74.09 327.33,-84.68 333.84,-82.1"/>
</a>
</g>
</g>
<!-- Node13 -->
<g id="Node000013" class="node">
<title>Node13</title>
<g id="a_Node000013"><a xlink:title=" ">
<polygon fill="#e0e0e0" stroke="#999999" points="548.5,-74 456.5,-74 456.5,-55 548.5,-55 548.5,-74"/>
<text text-anchor="middle" x="502.5" y="-62" font-family="Helvetica,sans-Serif" font-size="10.00">GenericNumber.h</text>
</a>
</g>
</g>
<!-- Node10&#45;&gt;Node13 -->
<g id="edge14_Node000010_Node000013" class="edge">
<title>Node10&#45;&gt;Node13</title>
<g id="a_edge14_Node000010_Node000013"><a xlink:title=" ">
<path fill="none" stroke="#63b8ff" d="M369.89,-109.98C396.3,-101.13 437.85,-87.19 467.39,-77.28"/>
<polygon fill="#63b8ff" stroke="#63b8ff" points="468.55,-80.58 476.92,-74.08 466.32,-73.94 468.55,-80.58"/>
</a>
</g>
</g>
<!-- Node14 -->
<g id="Node000014" class="node">
<title>Node14</title>
<g id="a_Node000014"><a xlink:href="_my_string_8h.html" target="_top" xlink:title="The String specification defines a standard string type.">
<polygon fill="white" stroke="#666666" points="438.5,-74 374.5,-74 374.5,-55 438.5,-55 438.5,-74"/>
<text text-anchor="middle" x="406.5" y="-62" font-family="Helvetica,sans-Serif" font-size="10.00">MyString.h</text>
</a>
</g>
</g>
<!-- Node10&#45;&gt;Node14 -->
<g id="edge15_Node000010_Node000014" class="edge">
<title>Node10&#45;&gt;Node14</title>
<g id="a_edge15_Node000010_Node000014"><a xlink:title=" ">
<path fill="none" stroke="#63b8ff" d="M354.46,-109.98C363.63,-102.15 377.44,-90.34 388.53,-80.86"/>
<polygon fill="#63b8ff" stroke="#63b8ff" points="391.03,-83.33 396.36,-74.17 386.48,-78.01 391.03,-83.33"/>
</a>
</g>
</g>
<!-- Node11&#45;&gt;Node9 -->
<g id="edge12_Node000011_Node000009" class="edge">
<title>Node11&#45;&gt;Node9</title>
<g id="a_edge12_Node000011_Node000009"><a xlink:title=" ">
<path fill="none" stroke="#63b8ff" d="M308.4,-54.98C293.68,-46.69 271.08,-33.94 253.83,-24.22"/>
<polygon fill="#63b8ff" stroke="#63b8ff" points="255.31,-21.03 244.88,-19.17 251.87,-27.13 255.31,-21.03"/>
</a>
</g>
</g>
<!-- Node12 -->
<g id="Node000012" class="node">
<title>Node12</title>
<g id="a_Node000012"><a xlink:title=" ">
<polygon fill="#e0e0e0" stroke="#999999" points="345,-19 304,-19 304,0 345,0 345,-19"/>
<text text-anchor="middle" x="324.5" y="-7" font-family="Helvetica,sans-Serif" font-size="10.00">string</text>
</a>
</g>
</g>
<!-- Node11&#45;&gt;Node12 -->
<g id="edge13_Node000011_Node000012" class="edge">
<title>Node11&#45;&gt;Node12</title>
<g id="a_edge13_Node000011_Node000012"><a xlink:title=" ">
<path fill="none" stroke="#63b8ff" d="M323.67,-54.75C323.8,-47.8 323.98,-37.85 324.15,-29.13"/>
<polygon fill="#63b8ff" stroke="#63b8ff" points="327.65,-29.15 324.34,-19.09 320.65,-29.02 327.65,-29.15"/>
</a>
</g>
</g>
<!-- Node14&#45;&gt;Node12 -->
<g id="edge16_Node000014_Node000012" class="edge">
<title>Node14&#45;&gt;Node12</title>
<g id="a_edge16_Node000014_Node000012"><a xlink:title=" ">
<path fill="none" stroke="#63b8ff" d="M393.33,-54.98C380.73,-46.84 361.5,-34.41 346.56,-24.76"/>
<polygon fill="#63b8ff" stroke="#63b8ff" points="348.21,-21.66 337.91,-19.17 344.41,-27.54 348.21,-21.66"/>
</a>
</g>
</g>
<!-- Node15 -->
<g id="Node000015" class="node">
<title>Node15</title>
<g id="a_Node000015"><a xlink:href="_global_macros_8h.html" target="_top" xlink:title="The GlobalMacros specification defines simple macros (e.g. for parameter modes).">
<polygon fill="white" stroke="#666666" points="449,-19 364,-19 364,0 449,0 449,-19"/>
<text text-anchor="middle" x="406.5" y="-7" font-family="Helvetica,sans-Serif" font-size="10.00">GlobalMacros.h</text>
</a>
</g>
</g>
<!-- Node14&#45;&gt;Node15 -->
<g id="edge17_Node000014_Node000015" class="edge">
<title>Node14&#45;&gt;Node15</title>
<g id="a_edge17_Node000014_Node000015"><a xlink:title=" ">
<path fill="none" stroke="#63b8ff" d="M406.5,-54.75C406.5,-47.8 406.5,-37.85 406.5,-29.13"/>
<polygon fill="#63b8ff" stroke="#63b8ff" points="410,-29.09 406.5,-19.09 403,-29.09 410,-29.09"/>
</a>
</g>
</g>
<!-- Node17 -->
<g id="Node000017" class="node">
<title>Node17</title>
<g id="a_Node000017"><a xlink:href="_my_array_8h.html" target="_top" xlink:title="The MyArray specification and body defines a generic array type for stack allocated arrays represente...">
<polygon fill="white" stroke="#666666" points="312.5,-239 250.5,-239 250.5,-220 312.5,-220 312.5,-239"/>
<text text-anchor="middle" x="281.5" y="-227" font-family="Helvetica,sans-Serif" font-size="10.00">MyArray.h</text>
</a>
</g>
</g>
<!-- Node16&#45;&gt;Node17 -->
<g id="edge19_Node000016_Node000017" class="edge">
<title>Node16&#45;&gt;Node17</title>
<g id="a_edge19_Node000016_Node000017"><a xlink:title=" ">
<path fill="none" stroke="#63b8ff" d="M281.5,-274.75C281.5,-267.8 281.5,-257.85 281.5,-249.13"/>
<polygon fill="#63b8ff" stroke="#63b8ff" points="285,-249.09 281.5,-239.09 278,-249.09 285,-249.09"/>
</a>
</g>
</g>
<!-- Node17&#45;&gt;Node10 -->
<g id="edge21_Node000017_Node000010" class="edge">
<title>Node17&#45;&gt;Node10</title>
<g id="a_edge21_Node000017_Node000010"><a xlink:title=" ">
<path fill="none" stroke="#63b8ff" d="M288.33,-219.93C295.14,-211.18 305.69,-197.07 313.5,-184 322.34,-169.21 330.81,-151.54 336.66,-138.59"/>
<polygon fill="#63b8ff" stroke="#63b8ff" points="339.89,-139.93 340.74,-129.37 333.49,-137.1 339.89,-139.93"/>
</a>
</g>
</g>
<!-- Node18 -->
<g id="Node000018" class="node">
<title>Node18</title>
<g id="a_Node000018"><a xlink:title=" ">
<polygon fill="#e0e0e0" stroke="#999999" points="304.5,-184 258.5,-184 258.5,-165 304.5,-165 304.5,-184"/>
<text text-anchor="middle" x="281.5" y="-172" font-family="Helvetica,sans-Serif" font-size="10.00">cstring</text>
</a>
</g>
</g>
<!-- Node17&#45;&gt;Node18 -->
<g id="edge20_Node000017_Node000018" class="edge">
<title>Node17&#45;&gt;Node18</title>
<g id="a_edge20_Node000017_Node000018"><a xlink:title=" ">
<path fill="none" stroke="#63b8ff" d="M281.5,-219.75C281.5,-212.8 281.5,-202.85 281.5,-194.13"/>
<polygon fill="#63b8ff" stroke="#63b8ff" points="285,-194.09 281.5,-184.09 278,-194.09 285,-194.09"/>
</a>
</g>
</g>
<!-- Node22 -->
<g id="Node000022" class="node">
<title>Node22</title>
<g id="a_Node000022"><a xlink:href="_fluid_synth_8h.html" target="_top" xlink:title="The FluidSynth class specifies an object&#45;oriented wrapper around the fluidsynth library and also allo...">
<polygon fill="white" stroke="#666666" points="518,-349 447,-349 447,-330 518,-330 518,-349"/>
<text text-anchor="middle" x="482.5" y="-337" font-family="Helvetica,sans-Serif" font-size="10.00">FluidSynth.h</text>
</a>
</g>
</g>
<!-- Node21&#45;&gt;Node22 -->
<g id="edge26_Node000021_Node000022" class="edge">
<title>Node21&#45;&gt;Node22</title>
<g id="a_edge26_Node000021_Node000022"><a xlink:title=" ">
<path fill="none" stroke="#63b8ff" d="M490.85,-384.75C489.54,-377.8 487.66,-367.85 486.02,-359.13"/>
<polygon fill="#63b8ff" stroke="#63b8ff" points="489.41,-358.27 484.12,-349.09 482.54,-359.56 489.41,-358.27"/>
</a>
</g>
</g>
<!-- Node22&#45;&gt;Node10 -->
<g id="edge27_Node000022_Node000010" class="edge">
<title>Node22&#45;&gt;Node10</title>
<g id="a_edge27_Node000022_Node000010"><a xlink:title=" ">
<path fill="none" stroke="#63b8ff" d="M480.86,-329.96C478.25,-317.46 472.52,-293.64 463.5,-275 436.1,-218.38 385.8,-162.57 360.26,-136.22"/>
<polygon fill="#63b8ff" stroke="#63b8ff" points="362.69,-133.69 353.19,-129.01 357.7,-138.6 362.69,-133.69"/>
</a>
</g>
</g>
<!-- Node22&#45;&gt;Node20 -->
<g id="edge28_Node000022_Node000020" class="edge">
<title>Node22&#45;&gt;Node20</title>
<g id="a_edge28_Node000022_Node000020"><a xlink:title=" ">
<path fill="none" stroke="#63b8ff" d="M473.42,-329.75C465.41,-322.03 453.54,-310.6 443.88,-301.28"/>
<polygon fill="#63b8ff" stroke="#63b8ff" points="446.04,-298.51 436.41,-294.09 441.19,-303.55 446.04,-298.51"/>
</a>
</g>
</g>
</g>
</svg>
