<?xml version="1.0" encoding="UTF-8" standalone="no"?>
<!DOCTYPE svg PUBLIC "-//W3C//DTD SVG 1.1//EN"
 "http://www.w3.org/Graphics/SVG/1.1/DTD/svg11.dtd">
<!-- Generated by graphviz version 2.47.1 (20210417.1919)
 -->
<!-- Title: FluidSynth.cpp Pages: 1 -->
<svg width="696pt" height="599pt"
 viewBox="0.00 0.00 696.00 599.00" xmlns="http://www.w3.org/2000/svg" xmlns:xlink="http://www.w3.org/1999/xlink">
<g id="graph0" class="graph" transform="scale(1 1) rotate(0) translate(4 595)">
<title>FluidSynth.cpp</title>
<polygon fill="white" stroke="transparent" points="-4,4 -4,-595 692,-595 692,4 -4,4"/>
<!-- Node1 -->
<g id="node1" class="node">
<title>Node1</title>
<g id="a_node1"><a xlink:title="The FluidSynth class implements the access to the fluidsynth library via a dynamic loading of it.">
<polygon fill="#bfbfbf" stroke="black" points="429.5,-570.5 429.5,-590.5 518.5,-590.5 518.5,-570.5 429.5,-570.5"/>
<text text-anchor="middle" x="474" y="-577.7" font-family="Helvetica,sans-Serif" font-size="11.00">FluidSynth.cpp</text>
</a>
</g>
</g>
<!-- Node2 -->
<g id="node2" class="node">
<title>Node2</title>
<g id="a_node2"><a xlink:href="_logging_8h.html" target="_top" xlink:title="The Logging specification defines macros for entry&#45;, exit&#45; and intermediate logging of functions into...">
<polygon fill="white" stroke="black" points="398,-513.5 398,-533.5 462,-533.5 462,-513.5 398,-513.5"/>
<text text-anchor="middle" x="430" y="-520.7" font-family="Helvetica,sans-Serif" font-size="11.00">Logging.h</text>
</a>
</g>
</g>
<!-- Node1&#45;&gt;Node2 -->
<g id="edge1" class="edge">
<title>Node1&#45;&gt;Node2</title>
<path fill="none" stroke="midnightblue" d="M466.73,-570.42C460.53,-562.66 451.43,-551.29 443.84,-541.8"/>
<polygon fill="midnightblue" stroke="midnightblue" points="446.4,-539.4 437.42,-533.78 440.94,-543.77 446.4,-539.4"/>
</g>
<!-- Node23 -->
<g id="node23" class="node">
<title>Node23</title>
<g id="a_node23"><a xlink:href="_dictionary_8h.html" target="_top" xlink:title="The Dictionary specification defines maps from string keys to string values.">
<polygon fill="white" stroke="black" points="247,-513.5 247,-533.5 321,-533.5 321,-513.5 247,-513.5"/>
<text text-anchor="middle" x="284" y="-520.7" font-family="Helvetica,sans-Serif" font-size="11.00">Dictionary.h</text>
</a>
</g>
</g>
<!-- Node1&#45;&gt;Node23 -->
<g id="edge34" class="edge">
<title>Node1&#45;&gt;Node23</title>
<path fill="none" stroke="midnightblue" d="M442.63,-570.42C410.49,-561.12 360.37,-546.61 325.09,-536.39"/>
<polygon fill="midnightblue" stroke="midnightblue" points="325.68,-532.92 315.11,-533.5 323.74,-539.65 325.68,-532.92"/>
</g>
<!-- Node25 -->
<g id="node25" class="node">
<title>Node25</title>
<g id="a_node25"><a xlink:href="_fluid_synth_8h.html" target="_top" xlink:title="The FluidSynth class specifies an object&#45;oriented wrapper around the fluidsynth library and also allo...">
<polygon fill="white" stroke="black" points="490.5,-513.5 490.5,-533.5 567.5,-533.5 567.5,-513.5 490.5,-513.5"/>
<text text-anchor="middle" x="529" y="-520.7" font-family="Helvetica,sans-Serif" font-size="11.00">FluidSynth.h</text>
</a>
</g>
</g>
<!-- Node1&#45;&gt;Node25 -->
<g id="edge37" class="edge">
<title>Node1&#45;&gt;Node25</title>
<path fill="none" stroke="midnightblue" d="M483.08,-570.42C491.08,-562.42 502.91,-550.59 512.56,-540.94"/>
<polygon fill="midnightblue" stroke="midnightblue" points="515.12,-543.33 519.72,-533.78 510.17,-538.38 515.12,-543.33"/>
</g>
<!-- Node28 -->
<g id="node28" class="node">
<title>Node28</title>
<g id="a_node28"><a xlink:href="_dynamic_library_8h.html" target="_top" xlink:title="The DynamicLibrary class specifies a very simple and crude wrapper around the dynamic library loading...">
<polygon fill="white" stroke="black" points="586,-513.5 586,-533.5 688,-533.5 688,-513.5 586,-513.5"/>
<text text-anchor="middle" x="637" y="-520.7" font-family="Helvetica,sans-Serif" font-size="11.00">DynamicLibrary.h</text>
</a>
</g>
</g>
<!-- Node1&#45;&gt;Node28 -->
<g id="edge41" class="edge">
<title>Node1&#45;&gt;Node28</title>
<path fill="none" stroke="midnightblue" d="M500.92,-570.42C528.13,-561.23 570.38,-546.98 600.57,-536.79"/>
<polygon fill="midnightblue" stroke="midnightblue" points="601.96,-540.02 610.31,-533.5 599.72,-533.39 601.96,-540.02"/>
</g>
<!-- Node3 -->
<g id="node3" class="node">
<title>Node3</title>
<g id="a_node3"><a xlink:title=" ">
<polygon fill="white" stroke="#bfbfbf" points="453.5,-456.5 453.5,-476.5 506.5,-476.5 506.5,-456.5 453.5,-456.5"/>
<text text-anchor="middle" x="480" y="-463.7" font-family="Helvetica,sans-Serif" font-size="11.00">cstdarg</text>
</a>
</g>
</g>
<!-- Node2&#45;&gt;Node3 -->
<g id="edge2" class="edge">
<title>Node2&#45;&gt;Node3</title>
<path fill="none" stroke="midnightblue" d="M438.26,-513.42C445.45,-505.5 456.07,-493.82 464.8,-484.23"/>
<polygon fill="midnightblue" stroke="midnightblue" points="467.43,-486.53 471.56,-476.78 462.25,-481.82 467.43,-486.53"/>
</g>
<!-- Node4 -->
<g id="node4" class="node">
<title>Node4</title>
<g id="a_node4"><a xlink:href="_logging_support_8h.html" target="_top" xlink:title="The LoggingSupport specification defines a class for simple entry/exit logging to a file; this loggin...">
<polygon fill="white" stroke="black" points="405,-285.5 405,-305.5 507,-305.5 507,-285.5 405,-285.5"/>
<text text-anchor="middle" x="456" y="-292.7" font-family="Helvetica,sans-Serif" font-size="11.00">LoggingSupport.h</text>
</a>
</g>
</g>
<!-- Node2&#45;&gt;Node4 -->
<g id="edge3" class="edge">
<title>Node2&#45;&gt;Node4</title>
<path fill="none" stroke="midnightblue" d="M431.05,-513.36C434.92,-479.71 448.43,-362.27 453.79,-315.72"/>
<polygon fill="midnightblue" stroke="midnightblue" points="457.3,-315.84 454.96,-305.51 450.34,-315.04 457.3,-315.84"/>
</g>
<!-- Node13 -->
<g id="node13" class="node">
<title>Node13</title>
<g id="a_node13"><a xlink:href="_string_util_8h.html" target="_top" xlink:title="The StringUtil specification defines several string routines not included in the standard C++ library...">
<polygon fill="white" stroke="black" points="249.5,-456.5 249.5,-476.5 318.5,-476.5 318.5,-456.5 249.5,-456.5"/>
<text text-anchor="middle" x="284" y="-463.7" font-family="Helvetica,sans-Serif" font-size="11.00">StringUtil.h</text>
</a>
</g>
</g>
<!-- Node2&#45;&gt;Node13 -->
<g id="edge14" class="edge">
<title>Node2&#45;&gt;Node13</title>
<path fill="none" stroke="midnightblue" d="M405.89,-513.42C381.8,-504.34 344.56,-490.31 317.58,-480.15"/>
<polygon fill="midnightblue" stroke="midnightblue" points="318.74,-476.85 308.14,-476.6 316.27,-483.4 318.74,-476.85"/>
</g>
<!-- Node5 -->
<g id="node5" class="node">
<title>Node5</title>
<g id="a_node5"><a xlink:href="_boolean_8h.html" target="_top" xlink:title="The Boolean specification and body provides a value object type for boolean values.">
<polygon fill="white" stroke="black" points="275.5,-114.5 275.5,-134.5 340.5,-134.5 340.5,-114.5 275.5,-114.5"/>
<text text-anchor="middle" x="308" y="-121.7" font-family="Helvetica,sans-Serif" font-size="11.00">Boolean.h</text>
</a>
</g>
</g>
<!-- Node4&#45;&gt;Node5 -->
<g id="edge4" class="edge">
<title>Node4&#45;&gt;Node5</title>
<path fill="none" stroke="midnightblue" d="M456.29,-285.47C456.5,-263.16 453.97,-204.81 424,-171 413.76,-159.45 378.9,-146.64 350.05,-137.57"/>
<polygon fill="midnightblue" stroke="midnightblue" points="350.73,-134.11 340.14,-134.52 348.67,-140.8 350.73,-134.11"/>
</g>
<!-- Node9 -->
<g id="node9" class="node">
<title>Node9</title>
<g id="a_node9"><a xlink:href="_natural_8h.html" target="_top" xlink:title="The Natural specification and body provides a value object type for naturals (positive integers with ...">
<polygon fill="white" stroke="black" points="336,-228.5 336,-248.5 396,-248.5 396,-228.5 336,-228.5"/>
<text text-anchor="middle" x="366" y="-235.7" font-family="Helvetica,sans-Serif" font-size="11.00">Natural.h</text>
</a>
</g>
</g>
<!-- Node4&#45;&gt;Node9 -->
<g id="edge8" class="edge">
<title>Node4&#45;&gt;Node9</title>
<path fill="none" stroke="midnightblue" d="M441.14,-285.42C427.2,-276.9 406.12,-264.02 389.83,-254.06"/>
<polygon fill="midnightblue" stroke="midnightblue" points="391.24,-250.82 380.88,-248.6 387.59,-256.8 391.24,-250.82"/>
</g>
<!-- Node6 -->
<g id="node6" class="node">
<title>Node6</title>
<g id="a_node6"><a xlink:href="_my_string_8h.html" target="_top" xlink:title="The String specification defines a standard string type.">
<polygon fill="white" stroke="black" points="410,-57.5 410,-77.5 478,-77.5 478,-57.5 410,-57.5"/>
<text text-anchor="middle" x="444" y="-64.7" font-family="Helvetica,sans-Serif" font-size="11.00">MyString.h</text>
</a>
</g>
</g>
<!-- Node5&#45;&gt;Node6 -->
<g id="edge5" class="edge">
<title>Node5&#45;&gt;Node6</title>
<path fill="none" stroke="midnightblue" d="M330.46,-114.42C352.7,-105.42 386.98,-91.56 412.06,-81.42"/>
<polygon fill="midnightblue" stroke="midnightblue" points="413.55,-84.59 421.51,-77.6 410.93,-78.1 413.55,-84.59"/>
</g>
<!-- Node7 -->
<g id="node7" class="node">
<title>Node7</title>
<g id="a_node7"><a xlink:title=" ">
<polygon fill="white" stroke="#bfbfbf" points="379,-0.5 379,-20.5 423,-20.5 423,-0.5 379,-0.5"/>
<text text-anchor="middle" x="401" y="-7.7" font-family="Helvetica,sans-Serif" font-size="11.00">string</text>
</a>
</g>
</g>
<!-- Node6&#45;&gt;Node7 -->
<g id="edge6" class="edge">
<title>Node6&#45;&gt;Node7</title>
<path fill="none" stroke="midnightblue" d="M436.9,-57.42C430.84,-49.66 421.94,-38.29 414.53,-28.8"/>
<polygon fill="midnightblue" stroke="midnightblue" points="417.17,-26.5 408.25,-20.78 411.66,-30.81 417.17,-26.5"/>
</g>
<!-- Node8 -->
<g id="node8" class="node">
<title>Node8</title>
<g id="a_node8"><a xlink:href="_global_macros_8h.html" target="_top" xlink:title="The GlobalMacros specification defines simple macros (e.g. for parameter modes).">
<polygon fill="white" stroke="black" points="441,-0.5 441,-20.5 533,-20.5 533,-0.5 441,-0.5"/>
<text text-anchor="middle" x="487" y="-7.7" font-family="Helvetica,sans-Serif" font-size="11.00">GlobalMacros.h</text>
</a>
</g>
</g>
<!-- Node6&#45;&gt;Node8 -->
<g id="edge7" class="edge">
<title>Node6&#45;&gt;Node8</title>
<path fill="none" stroke="midnightblue" d="M451.1,-57.42C457.16,-49.66 466.06,-38.29 473.47,-28.8"/>
<polygon fill="midnightblue" stroke="midnightblue" points="476.34,-30.81 479.75,-20.78 470.83,-26.5 476.34,-30.81"/>
</g>
<!-- Node9&#45;&gt;Node6 -->
<g id="edge13" class="edge">
<title>Node9&#45;&gt;Node6</title>
<path fill="none" stroke="midnightblue" d="M383.66,-228.43C396.97,-220.63 414.5,-208.09 424,-192 443.34,-159.23 445.57,-113.48 445.06,-87.86"/>
<polygon fill="midnightblue" stroke="midnightblue" points="448.55,-87.49 444.68,-77.62 441.55,-87.75 448.55,-87.49"/>
</g>
<!-- Node10 -->
<g id="node10" class="node">
<title>Node10</title>
<g id="a_node10"><a xlink:title=" ">
<polygon fill="white" stroke="#bfbfbf" points="247.5,-171.5 247.5,-191.5 294.5,-191.5 294.5,-171.5 247.5,-171.5"/>
<text text-anchor="middle" x="271" y="-178.7" font-family="Helvetica,sans-Serif" font-size="11.00">cmath</text>
</a>
</g>
</g>
<!-- Node9&#45;&gt;Node10 -->
<g id="edge9" class="edge">
<title>Node9&#45;&gt;Node10</title>
<path fill="none" stroke="midnightblue" d="M350.31,-228.42C335.46,-219.82 312.93,-206.78 295.67,-196.78"/>
<polygon fill="midnightblue" stroke="midnightblue" points="297.12,-193.58 286.71,-191.6 293.61,-199.64 297.12,-193.58"/>
</g>
<!-- Node11 -->
<g id="node11" class="node">
<title>Node11</title>
<g id="a_node11"><a xlink:href="_generic_number_8h.html" target="_top" xlink:title="The GenericNumber specification and body defines a template for wrapper objects for elementary numeri...">
<polygon fill="white" stroke="black" points="312.5,-171.5 312.5,-191.5 415.5,-191.5 415.5,-171.5 312.5,-171.5"/>
<text text-anchor="middle" x="364" y="-178.7" font-family="Helvetica,sans-Serif" font-size="11.00">GenericNumber.h</text>
</a>
</g>
</g>
<!-- Node9&#45;&gt;Node11 -->
<g id="edge10" class="edge">
<title>Node9&#45;&gt;Node11</title>
<path fill="none" stroke="midnightblue" d="M365.67,-228.42C365.41,-221.22 365.03,-210.9 364.7,-201.86"/>
<polygon fill="midnightblue" stroke="midnightblue" points="368.2,-201.65 364.34,-191.78 361.2,-201.9 368.2,-201.65"/>
</g>
<!-- Node11&#45;&gt;Node5 -->
<g id="edge12" class="edge">
<title>Node11&#45;&gt;Node5</title>
<path fill="none" stroke="midnightblue" d="M354.75,-171.42C346.61,-163.42 334.56,-151.59 324.74,-141.94"/>
<polygon fill="midnightblue" stroke="midnightblue" points="327.04,-139.29 317.45,-134.78 322.13,-144.28 327.04,-139.29"/>
</g>
<!-- Node12 -->
<g id="node12" class="node">
<title>Node12</title>
<g id="a_node12"><a xlink:title=" ">
<polygon fill="white" stroke="#bfbfbf" points="359,-114.5 359,-134.5 401,-134.5 401,-114.5 359,-114.5"/>
<text text-anchor="middle" x="380" y="-121.7" font-family="Helvetica,sans-Serif" font-size="11.00">limits</text>
</a>
</g>
</g>
<!-- Node11&#45;&gt;Node12 -->
<g id="edge11" class="edge">
<title>Node11&#45;&gt;Node12</title>
<path fill="none" stroke="midnightblue" d="M366.64,-171.42C368.76,-164.14 371.81,-153.67 374.45,-144.57"/>
<polygon fill="midnightblue" stroke="midnightblue" points="377.87,-145.36 377.3,-134.78 371.15,-143.4 377.87,-145.36"/>
</g>
<!-- Node13&#45;&gt;Node5 -->
<g id="edge15" class="edge">
<title>Node13&#45;&gt;Node5</title>
<path fill="none" stroke="midnightblue" d="M249.43,-457.96C246.24,-457.29 243.06,-456.63 240,-456 157.51,-439.11 126.22,-463.29 54,-420 21.34,-400.43 0,-391.57 0,-353.5 0,-353.5 0,-353.5 0,-237.5 0,-181.72 180.68,-145.68 265.27,-131.87"/>
<polygon fill="midnightblue" stroke="midnightblue" points="266.01,-135.29 275.33,-130.26 264.9,-128.38 266.01,-135.29"/>
</g>
<!-- Node14 -->
<g id="node14" class="node">
<title>Node14</title>
<g id="a_node14"><a xlink:href="_byte_8h.html" target="_top" xlink:title="The Byte specification and body provides a value object type for byte values.">
<polygon fill="white" stroke="black" points="339.5,-285.5 339.5,-305.5 386.5,-305.5 386.5,-285.5 339.5,-285.5"/>
<text text-anchor="middle" x="363" y="-292.7" font-family="Helvetica,sans-Serif" font-size="11.00">Byte.h</text>
</a>
</g>
</g>
<!-- Node13&#45;&gt;Node14 -->
<g id="edge16" class="edge">
<title>Node13&#45;&gt;Node14</title>
<path fill="none" stroke="midnightblue" d="M288.25,-456.41C300.73,-429.71 337.49,-351.07 354.36,-314.98"/>
<polygon fill="midnightblue" stroke="midnightblue" points="357.67,-316.17 358.73,-305.63 351.33,-313.21 357.67,-316.17"/>
</g>
<!-- Node15 -->
<g id="node15" class="node">
<title>Node15</title>
<g id="a_node15"><a xlink:href="_character_8h.html" target="_top" xlink:title="The Character specification and body provides a value object type for character values.">
<polygon fill="white" stroke="black" points="247,-285.5 247,-305.5 321,-305.5 321,-285.5 247,-285.5"/>
<text text-anchor="middle" x="284" y="-292.7" font-family="Helvetica,sans-Serif" font-size="11.00">Character.h</text>
</a>
</g>
</g>
<!-- Node13&#45;&gt;Node15 -->
<g id="edge19" class="edge">
<title>Node13&#45;&gt;Node15</title>
<path fill="none" stroke="midnightblue" d="M284,-456.41C284,-429.94 284,-352.42 284,-315.92"/>
<polygon fill="midnightblue" stroke="midnightblue" points="287.5,-315.63 284,-305.63 280.5,-315.63 287.5,-315.63"/>
</g>
<!-- Node16 -->
<g id="node16" class="node">
<title>Node16</title>
<g id="a_node16"><a xlink:href="_percentage_8h.html" target="_top" xlink:title="The Percentage specification and body provides a simple percentage type.">
<polygon fill="white" stroke="black" points="63,-399.5 63,-419.5 145,-419.5 145,-399.5 63,-399.5"/>
<text text-anchor="middle" x="104" y="-406.7" font-family="Helvetica,sans-Serif" font-size="11.00">Percentage.h</text>
</a>
</g>
</g>
<!-- Node13&#45;&gt;Node16 -->
<g id="edge22" class="edge">
<title>Node13&#45;&gt;Node16</title>
<path fill="none" stroke="midnightblue" d="M254.28,-456.42C223.96,-447.15 176.76,-432.73 143.36,-422.53"/>
<polygon fill="midnightblue" stroke="midnightblue" points="144.05,-419.08 133.47,-419.5 142.01,-425.77 144.05,-419.08"/>
</g>
<!-- Node20 -->
<g id="node20" class="node">
<title>Node20</title>
<g id="a_node20"><a xlink:href="_string_list_8h.html" target="_top" xlink:title="The StringList specification defines sequences of string values with zero&#45;based arbitrary indexed acc...">
<polygon fill="white" stroke="black" points="177.5,-399.5 177.5,-419.5 248.5,-419.5 248.5,-399.5 177.5,-399.5"/>
<text text-anchor="middle" x="213" y="-406.7" font-family="Helvetica,sans-Serif" font-size="11.00">StringList.h</text>
</a>
</g>
</g>
<!-- Node13&#45;&gt;Node20 -->
<g id="edge29" class="edge">
<title>Node13&#45;&gt;Node20</title>
<path fill="none" stroke="midnightblue" d="M272.28,-456.42C261.65,-448.19 245.77,-435.88 233.12,-426.08"/>
<polygon fill="midnightblue" stroke="midnightblue" points="235.03,-423.14 224.98,-419.78 230.74,-428.67 235.03,-423.14"/>
</g>
<!-- Node14&#45;&gt;Node9 -->
<g id="edge18" class="edge">
<title>Node14&#45;&gt;Node9</title>
<path fill="none" stroke="midnightblue" d="M363.5,-285.42C363.89,-278.22 364.45,-267.9 364.94,-258.86"/>
<polygon fill="midnightblue" stroke="midnightblue" points="368.44,-258.96 365.49,-248.78 361.45,-258.57 368.44,-258.96"/>
</g>
<!-- Node14&#45;&gt;Node10 -->
<g id="edge17" class="edge">
<title>Node14&#45;&gt;Node10</title>
<path fill="none" stroke="midnightblue" d="M355.47,-285.33C340.11,-266.63 304.92,-223.8 285.15,-199.73"/>
<polygon fill="midnightblue" stroke="midnightblue" points="287.68,-197.3 278.63,-191.79 282.28,-201.74 287.68,-197.3"/>
</g>
<!-- Node15&#45;&gt;Node9 -->
<g id="edge21" class="edge">
<title>Node15&#45;&gt;Node9</title>
<path fill="none" stroke="midnightblue" d="M297.54,-285.42C310.12,-276.98 329.09,-264.26 343.87,-254.34"/>
<polygon fill="midnightblue" stroke="midnightblue" points="346.08,-257.07 352.44,-248.6 342.18,-251.26 346.08,-257.07"/>
</g>
<!-- Node15&#45;&gt;Node10 -->
<g id="edge20" class="edge">
<title>Node15&#45;&gt;Node10</title>
<path fill="none" stroke="midnightblue" d="M282.94,-285.33C280.83,-267.2 276.1,-226.41 273.26,-202"/>
<polygon fill="midnightblue" stroke="midnightblue" points="276.71,-201.32 272.08,-191.79 269.75,-202.13 276.71,-201.32"/>
</g>
<!-- Node17 -->
<g id="node17" class="node">
<title>Node17</title>
<g id="a_node17"><a xlink:href="_real_8h.html" target="_top" xlink:title="The Real specification defines a value object type for real values.">
<polygon fill="white" stroke="black" points="72,-342.5 72,-362.5 120,-362.5 120,-342.5 72,-342.5"/>
<text text-anchor="middle" x="96" y="-349.7" font-family="Helvetica,sans-Serif" font-size="11.00">Real.h</text>
</a>
</g>
</g>
<!-- Node16&#45;&gt;Node17 -->
<g id="edge23" class="edge">
<title>Node16&#45;&gt;Node17</title>
<path fill="none" stroke="midnightblue" d="M102.68,-399.42C101.63,-392.22 100.13,-381.9 98.82,-372.86"/>
<polygon fill="midnightblue" stroke="midnightblue" points="102.25,-372.17 97.35,-362.78 95.33,-373.18 102.25,-372.17"/>
</g>
<!-- Node17&#45;&gt;Node10 -->
<g id="edge24" class="edge">
<title>Node17&#45;&gt;Node10</title>
<path fill="none" stroke="midnightblue" d="M84.64,-342.42C75.21,-334.09 62.49,-320.83 57,-306 44.97,-273.49 35.18,-254.94 57,-228 79.3,-200.46 182.75,-188.9 237.23,-184.65"/>
<polygon fill="midnightblue" stroke="midnightblue" points="237.72,-188.12 247.43,-183.89 237.2,-181.14 237.72,-188.12"/>
</g>
<!-- Node18 -->
<g id="node18" class="node">
<title>Node18</title>
<g id="a_node18"><a xlink:href="_integer_8h.html" target="_top" xlink:title="The Integer specification and body provides a value object type for ints.">
<polygon fill="white" stroke="black" points="66.5,-285.5 66.5,-305.5 125.5,-305.5 125.5,-285.5 66.5,-285.5"/>
<text text-anchor="middle" x="96" y="-292.7" font-family="Helvetica,sans-Serif" font-size="11.00">Integer.h</text>
</a>
</g>
</g>
<!-- Node17&#45;&gt;Node18 -->
<g id="edge25" class="edge">
<title>Node17&#45;&gt;Node18</title>
<path fill="none" stroke="midnightblue" d="M96,-342.42C96,-335.22 96,-324.9 96,-315.86"/>
<polygon fill="midnightblue" stroke="midnightblue" points="99.5,-315.78 96,-305.78 92.5,-315.78 99.5,-315.78"/>
</g>
<!-- Node18&#45;&gt;Node9 -->
<g id="edge28" class="edge">
<title>Node18&#45;&gt;Node9</title>
<path fill="none" stroke="midnightblue" d="M125.84,-286.89C128.59,-286.23 131.35,-285.59 134,-285 201.04,-270.06 279.57,-255.21 325.92,-246.71"/>
<polygon fill="midnightblue" stroke="midnightblue" points="326.66,-250.14 335.87,-244.9 325.4,-243.25 326.66,-250.14"/>
</g>
<!-- Node18&#45;&gt;Node10 -->
<g id="edge26" class="edge">
<title>Node18&#45;&gt;Node10</title>
<path fill="none" stroke="midnightblue" d="M110.32,-285.33C140.57,-265.97 211.21,-220.76 247.92,-197.27"/>
<polygon fill="midnightblue" stroke="midnightblue" points="249.95,-200.13 256.48,-191.79 246.17,-194.23 249.95,-200.13"/>
</g>
<!-- Node19 -->
<g id="node19" class="node">
<title>Node19</title>
<g id="a_node19"><a xlink:title=" ">
<polygon fill="white" stroke="#bfbfbf" points="66,-228.5 66,-248.5 130,-248.5 130,-228.5 66,-228.5"/>
<text text-anchor="middle" x="98" y="-235.7" font-family="Helvetica,sans-Serif" font-size="11.00">stdexcept</text>
</a>
</g>
</g>
<!-- Node18&#45;&gt;Node19 -->
<g id="edge27" class="edge">
<title>Node18&#45;&gt;Node19</title>
<path fill="none" stroke="midnightblue" d="M96.33,-285.42C96.59,-278.22 96.97,-267.9 97.3,-258.86"/>
<polygon fill="midnightblue" stroke="midnightblue" points="100.8,-258.9 97.66,-248.78 93.8,-258.65 100.8,-258.9"/>
</g>
<!-- Node21 -->
<g id="node21" class="node">
<title>Node21</title>
<g id="a_node21"><a xlink:href="_generic_sequence_8h.html" target="_top" xlink:title="The GenericSequence specification and body defines a generic sequence type of values with zero&#45;based ...">
<polygon fill="white" stroke="black" points="140.5,-342.5 140.5,-362.5 253.5,-362.5 253.5,-342.5 140.5,-342.5"/>
<text text-anchor="middle" x="197" y="-349.7" font-family="Helvetica,sans-Serif" font-size="11.00">GenericSequence.h</text>
</a>
</g>
</g>
<!-- Node20&#45;&gt;Node21 -->
<g id="edge30" class="edge">
<title>Node20&#45;&gt;Node21</title>
<path fill="none" stroke="midnightblue" d="M210.36,-399.42C208.24,-392.14 205.19,-381.67 202.55,-372.57"/>
<polygon fill="midnightblue" stroke="midnightblue" points="205.85,-371.4 199.7,-362.78 199.13,-373.36 205.85,-371.4"/>
</g>
<!-- Node21&#45;&gt;Node5 -->
<g id="edge32" class="edge">
<title>Node21&#45;&gt;Node5</title>
<path fill="none" stroke="midnightblue" d="M198.18,-342.2C202.46,-309.41 218.06,-199.6 238,-171 247.5,-157.38 262.51,-146.84 276.21,-139.35"/>
<polygon fill="midnightblue" stroke="midnightblue" points="278.08,-142.32 285.39,-134.65 274.89,-136.09 278.08,-142.32"/>
</g>
<!-- Node21&#45;&gt;Node18 -->
<g id="edge33" class="edge">
<title>Node21&#45;&gt;Node18</title>
<path fill="none" stroke="midnightblue" d="M180.32,-342.42C164.39,-333.74 140.13,-320.53 121.72,-310.51"/>
<polygon fill="midnightblue" stroke="midnightblue" points="123.16,-307.3 112.7,-305.6 119.81,-313.45 123.16,-307.3"/>
</g>
<!-- Node22 -->
<g id="node22" class="node">
<title>Node22</title>
<g id="a_node22"><a xlink:title=" ">
<polygon fill="white" stroke="#bfbfbf" points="143.5,-285.5 143.5,-305.5 190.5,-305.5 190.5,-285.5 143.5,-285.5"/>
<text text-anchor="middle" x="167" y="-292.7" font-family="Helvetica,sans-Serif" font-size="11.00">vector</text>
</a>
</g>
</g>
<!-- Node21&#45;&gt;Node22 -->
<g id="edge31" class="edge">
<title>Node21&#45;&gt;Node22</title>
<path fill="none" stroke="midnightblue" d="M192.05,-342.42C187.95,-334.9 181.99,-323.98 176.92,-314.68"/>
<polygon fill="midnightblue" stroke="midnightblue" points="179.92,-312.88 172.06,-305.78 173.78,-316.23 179.92,-312.88"/>
</g>
<!-- Node23&#45;&gt;Node13 -->
<g id="edge36" class="edge">
<title>Node23&#45;&gt;Node13</title>
<path fill="none" stroke="midnightblue" d="M284,-513.42C284,-506.22 284,-495.9 284,-486.86"/>
<polygon fill="midnightblue" stroke="midnightblue" points="287.5,-486.78 284,-476.78 280.5,-486.78 287.5,-486.78"/>
</g>
<!-- Node24 -->
<g id="node24" class="node">
<title>Node24</title>
<g id="a_node24"><a xlink:title=" ">
<polygon fill="white" stroke="#bfbfbf" points="193,-456.5 193,-476.5 231,-476.5 231,-456.5 193,-456.5"/>
<text text-anchor="middle" x="212" y="-463.7" font-family="Helvetica,sans-Serif" font-size="11.00">map</text>
</a>
</g>
</g>
<!-- Node23&#45;&gt;Node24 -->
<g id="edge35" class="edge">
<title>Node23&#45;&gt;Node24</title>
<path fill="none" stroke="midnightblue" d="M272.11,-513.42C261.34,-505.19 245.23,-492.88 232.4,-483.08"/>
<polygon fill="midnightblue" stroke="midnightblue" points="234.22,-480.07 224.15,-476.78 229.97,-485.63 234.22,-480.07"/>
</g>
<!-- Node25&#45;&gt;Node9 -->
<g id="edge38" class="edge">
<title>Node25&#45;&gt;Node9</title>
<path fill="none" stroke="midnightblue" d="M529.83,-513.22C531.48,-494.04 535,-448.67 535,-410.5 535,-410.5 535,-410.5 535,-351.5 535,-320.76 537.56,-306.91 516,-285 487.11,-255.64 439.96,-245.09 406.23,-241.38"/>
<polygon fill="midnightblue" stroke="midnightblue" points="406.51,-237.89 396.23,-240.43 405.85,-244.86 406.51,-237.89"/>
</g>
<!-- Node26 -->
<g id="node26" class="node">
<title>Node26</title>
<g id="a_node26"><a xlink:href="_object_8h.html" target="_top" xlink:title="The Object specification and body provides the root object type.">
<polygon fill="white" stroke="black" points="563,-456.5 563,-476.5 621,-476.5 621,-456.5 563,-456.5"/>
<text text-anchor="middle" x="592" y="-463.7" font-family="Helvetica,sans-Serif" font-size="11.00">Object.h</text>
</a>
</g>
</g>
<!-- Node25&#45;&gt;Node26 -->
<g id="edge39" class="edge">
<title>Node25&#45;&gt;Node26</title>
<path fill="none" stroke="midnightblue" d="M539.4,-513.42C548.74,-505.27 562.65,-493.12 573.83,-483.37"/>
<polygon fill="midnightblue" stroke="midnightblue" points="576.14,-485.99 581.37,-476.78 571.54,-480.72 576.14,-485.99"/>
</g>
<!-- Node27 -->
<g id="node27" class="node">
<title>Node27</title>
<g id="a_node27"><a xlink:title=" ">
<polygon fill="white" stroke="#bfbfbf" points="576,-399.5 576,-419.5 608,-419.5 608,-399.5 576,-399.5"/>
<text text-anchor="middle" x="592" y="-406.7" font-family="Helvetica,sans-Serif" font-size="11.00">set</text>
</a>
</g>
</g>
<!-- Node26&#45;&gt;Node27 -->
<g id="edge40" class="edge">
<title>Node26&#45;&gt;Node27</title>
<path fill="none" stroke="midnightblue" d="M592,-456.42C592,-449.22 592,-438.9 592,-429.86"/>
<polygon fill="midnightblue" stroke="midnightblue" points="595.5,-429.78 592,-419.78 588.5,-429.78 595.5,-429.78"/>
</g>
<!-- Node28&#45;&gt;Node6 -->
<g id="edge43" class="edge">
<title>Node28&#45;&gt;Node6</title>
<path fill="none" stroke="midnightblue" d="M638.67,-513.24C641.97,-494.12 649,-448.83 649,-410.5 649,-410.5 649,-410.5 649,-180.5 649,-107.85 548.62,-82.03 488.34,-73.08"/>
<polygon fill="midnightblue" stroke="midnightblue" points="488.7,-69.59 478.31,-71.69 487.74,-76.53 488.7,-69.59"/>
</g>
<!-- Node28&#45;&gt;Node26 -->
<g id="edge42" class="edge">
<title>Node28&#45;&gt;Node26</title>
<path fill="none" stroke="midnightblue" d="M629.57,-513.42C623.22,-505.66 613.92,-494.29 606.16,-484.8"/>
<polygon fill="midnightblue" stroke="midnightblue" points="608.63,-482.3 599.59,-476.78 603.22,-486.74 608.63,-482.3"/>
</g>
</g>
</svg>
