<?xml version="1.0" encoding="UTF-8" standalone="no"?>
<!DOCTYPE svg PUBLIC "-//W3C//DTD SVG 1.1//EN"
 "http://www.w3.org/Graphics/SVG/1.1/DTD/svg11.dtd">
<!-- Generated by graphviz version 2.47.1 (20210417.1919)
 -->
<!-- Title: FluidSynthSoundFont.cpp Pages: 1 -->
<svg width="1029pt" height="577pt"
 viewBox="0.00 0.00 1029.00 577.00" xmlns="http://www.w3.org/2000/svg" xmlns:xlink="http://www.w3.org/1999/xlink">
<g id="graph0" class="graph" transform="scale(1 1) rotate(0) translate(4 573)">
<title>FluidSynthSoundFont.cpp</title>
<!-- Node1 -->
<g id="Node000001" class="node">
<title>Node1</title>
<g id="a_Node000001"><a xlink:title="The FluidSynthSoundFont class implements an object&#45;oriented wrapper around an underlying fluidsynth s...">
<polygon fill="#999999" stroke="#666666" points="450,-569 321,-569 321,-550 450,-550 450,-569"/>
<text text-anchor="middle" x="385.5" y="-557" font-family="Helvetica,sans-Serif" font-size="10.00">FluidSynthSoundFont.cpp</text>
</a>
</g>
</g>
<!-- Node2 -->
<g id="Node000002" class="node">
<title>Node2</title>
<g id="a_Node000002"><a xlink:href="_dynamic_library_8h.html" target="_top" xlink:title="The DynamicLibrary class specifies a very simple and crude wrapper around the dynamic library loading...">
<polygon fill="white" stroke="#666666" points="520.5,-349 428.5,-349 428.5,-330 520.5,-330 520.5,-349"/>
<text text-anchor="middle" x="474.5" y="-337" font-family="Helvetica,sans-Serif" font-size="10.00">DynamicLibrary.h</text>
</a>
</g>
</g>
<!-- Node1&#45;&gt;Node2 -->
<g id="edge1_Node000001_Node000002" class="edge">
<title>Node1&#45;&gt;Node2</title>
<g id="a_edge1_Node000001_Node000002"><a xlink:title=" ">
<path fill="none" stroke="#63b8ff" d="M388.99,-549.95C402.14,-517.74 448.89,-403.23 467.13,-358.55"/>
<polygon fill="#63b8ff" stroke="#63b8ff" points="470.4,-359.8 470.94,-349.22 463.92,-357.16 470.4,-359.8"/>
</a>
</g>
</g>
<!-- Node8 -->
<g id="Node000008" class="node">
<title>Node8</title>
<g id="a_Node000008"><a xlink:href="_fluid_synth_sound_font_8h.html" target="_top" xlink:title="The FluidSynthSoundFont class specifies an object&#45;oriented wrapper around an underlying fluidsynth so...">
<polygon fill="white" stroke="#666666" points="608,-514 489,-514 489,-495 608,-495 608,-514"/>
<text text-anchor="middle" x="548.5" y="-502" font-family="Helvetica,sans-Serif" font-size="10.00">FluidSynthSoundFont.h</text>
</a>
</g>
</g>
<!-- Node1&#45;&gt;Node8 -->
<g id="edge7_Node000001_Node000008" class="edge">
<title>Node1&#45;&gt;Node8</title>
<g id="a_edge7_Node000001_Node000008"><a xlink:title=" ">
<path fill="none" stroke="#63b8ff" d="M411.69,-549.98C438.94,-541.13 481.8,-527.19 512.28,-517.28"/>
<polygon fill="#63b8ff" stroke="#63b8ff" points="513.68,-520.5 522.11,-514.08 511.51,-513.85 513.68,-520.5"/>
</a>
</g>
</g>
<!-- Node29 -->
<g id="Node000029" class="node">
<title>Node29</title>
<g id="a_Node000029"><a xlink:href="_logging_8h.html" target="_top" xlink:title="The Logging specification defines macros for entry&#45;, exit&#45; and intermediate logging of functions into...">
<polygon fill="white" stroke="#666666" points="370,-404 311,-404 311,-385 370,-385 370,-404"/>
<text text-anchor="middle" x="340.5" y="-392" font-family="Helvetica,sans-Serif" font-size="10.00">Logging.h</text>
</a>
</g>
</g>
<!-- Node1&#45;&gt;Node29 -->
<g id="edge38_Node000001_Node000029" class="edge">
<title>Node1&#45;&gt;Node29</title>
<g id="a_edge38_Node000001_Node000029"><a xlink:title=" ">
<path fill="none" stroke="#63b8ff" d="M383.08,-549.74C376.03,-524.2 355.39,-449.43 345.67,-414.23"/>
<polygon fill="#63b8ff" stroke="#63b8ff" points="348.97,-413.01 342.93,-404.31 342.22,-414.88 348.97,-413.01"/>
</a>
</g>
</g>
<!-- Node37 -->
<g id="Node000037" class="node">
<title>Node37</title>
<g id="a_Node000037"><a xlink:href="_operating_system_8h.html" target="_top" xlink:title="The OperatingSystem specification defines a class for several operating system related utility functi...">
<polygon fill="white" stroke="#666666" points="149,-349 48,-349 48,-330 149,-330 149,-349"/>
<text text-anchor="middle" x="98.5" y="-337" font-family="Helvetica,sans-Serif" font-size="10.00">OperatingSystem.h</text>
</a>
</g>
</g>
<!-- Node1&#45;&gt;Node37 -->
<g id="edge54_Node000001_Node000037" class="edge">
<title>Node1&#45;&gt;Node37</title>
<g id="a_edge54_Node000001_Node000037"><a xlink:title=" ">
<path fill="none" stroke="#63b8ff" d="M374.25,-549.95C330.77,-516.93 173.39,-397.38 117.97,-355.29"/>
<polygon fill="#63b8ff" stroke="#63b8ff" points="120.07,-352.49 109.98,-349.22 115.83,-358.06 120.07,-352.49"/>
</a>
</g>
</g>
<!-- Node3 -->
<g id="Node000003" class="node">
<title>Node3</title>
<g id="a_Node000003"><a xlink:href="_boolean_8h.html" target="_top" xlink:title="The Boolean specification and body provides a value object type for boolean values.">
<polygon fill="white" stroke="#666666" points="306.5,-294 246.5,-294 246.5,-275 306.5,-275 306.5,-294"/>
<text text-anchor="middle" x="276.5" y="-282" font-family="Helvetica,sans-Serif" font-size="10.00">Boolean.h</text>
</a>
</g>
</g>
<!-- Node2&#45;&gt;Node3 -->
<g id="edge2_Node000002_Node000003" class="edge">
<title>Node2&#45;&gt;Node3</title>
<g id="a_edge2_Node000002_Node000003"><a xlink:title=" ">
<path fill="none" stroke="#63b8ff" d="M442.69,-329.98C408.41,-320.81 353.8,-306.19 316.61,-296.24"/>
<polygon fill="#63b8ff" stroke="#63b8ff" points="317.18,-292.76 306.61,-293.56 315.37,-299.53 317.18,-292.76"/>
</a>
</g>
</g>
<!-- Node7 -->
<g id="Node000007" class="node">
<title>Node7</title>
<g id="a_Node000007"><a xlink:href="_object_8h.html" target="_top" xlink:title="The Object specification and body provides the root object type.">
<polygon fill="white" stroke="#666666" points="668,-294 615,-294 615,-275 668,-275 668,-294"/>
<text text-anchor="middle" x="641.5" y="-282" font-family="Helvetica,sans-Serif" font-size="10.00">Object.h</text>
</a>
</g>
</g>
<!-- Node2&#45;&gt;Node7 -->
<g id="edge6_Node000002_Node000007" class="edge">
<title>Node2&#45;&gt;Node7</title>
<g id="a_edge6_Node000002_Node000007"><a xlink:title=" ">
<path fill="none" stroke="#63b8ff" d="M501.33,-329.98C529.45,-321.06 573.81,-306.98 605.08,-297.06"/>
<polygon fill="#63b8ff" stroke="#63b8ff" points="606.26,-300.36 614.74,-293.99 604.14,-293.68 606.26,-300.36"/>
</a>
</g>
</g>
<!-- Node4 -->
<g id="Node000004" class="node">
<title>Node4</title>
<g id="a_Node000004"><a xlink:href="_my_string_8h.html" target="_top" xlink:title="The String specification defines a standard string type.">
<polygon fill="white" stroke="#666666" points="280.5,-74 216.5,-74 216.5,-55 280.5,-55 280.5,-74"/>
<text text-anchor="middle" x="248.5" y="-62" font-family="Helvetica,sans-Serif" font-size="10.00">MyString.h</text>
</a>
</g>
</g>
<!-- Node3&#45;&gt;Node4 -->
<g id="edge3_Node000003_Node000004" class="edge">
<title>Node3&#45;&gt;Node4</title>
<g id="a_edge3_Node000003_Node000004"><a xlink:title=" ">
<path fill="none" stroke="#63b8ff" d="M266.11,-274.88C256.58,-266.52 242.61,-253.07 233.5,-239 204.89,-194.79 199.46,-180.7 189.5,-129 187.9,-120.71 185.73,-117.56 189.5,-110 196.07,-96.82 208.6,-86.52 220.43,-79.16"/>
<polygon fill="#63b8ff" stroke="#63b8ff" points="222.3,-82.12 229.23,-74.1 218.82,-76.05 222.3,-82.12"/>
</a>
</g>
</g>
<!-- Node5 -->
<g id="Node000005" class="node">
<title>Node5</title>
<g id="a_Node000005"><a xlink:title=" ">
<polygon fill="#e0e0e0" stroke="#999999" points="382,-19 341,-19 341,0 382,0 382,-19"/>
<text text-anchor="middle" x="361.5" y="-7" font-family="Helvetica,sans-Serif" font-size="10.00">string</text>
</a>
</g>
</g>
<!-- Node4&#45;&gt;Node5 -->
<g id="edge4_Node000004_Node000005" class="edge">
<title>Node4&#45;&gt;Node5</title>
<g id="a_edge4_Node000004_Node000005"><a xlink:title=" ">
<path fill="none" stroke="#63b8ff" d="M266.66,-54.98C284.75,-46.5 312.78,-33.35 333.69,-23.54"/>
<polygon fill="#63b8ff" stroke="#63b8ff" points="335.45,-26.59 343.01,-19.17 332.47,-20.25 335.45,-26.59"/>
</a>
</g>
</g>
<!-- Node6 -->
<g id="Node000006" class="node">
<title>Node6</title>
<g id="a_Node000006"><a xlink:href="_global_macros_8h.html" target="_top" xlink:title="The GlobalMacros specification defines simple macros (e.g. for parameter modes).">
<polygon fill="white" stroke="#666666" points="291,-19 206,-19 206,0 291,0 291,-19"/>
<text text-anchor="middle" x="248.5" y="-7" font-family="Helvetica,sans-Serif" font-size="10.00">GlobalMacros.h</text>
</a>
</g>
</g>
<!-- Node4&#45;&gt;Node6 -->
<g id="edge5_Node000004_Node000006" class="edge">
<title>Node4&#45;&gt;Node6</title>
<g id="a_edge5_Node000004_Node000006"><a xlink:title=" ">
<path fill="none" stroke="#63b8ff" d="M248.5,-54.75C248.5,-47.8 248.5,-37.85 248.5,-29.13"/>
<polygon fill="#63b8ff" stroke="#63b8ff" points="252,-29.09 248.5,-19.09 245,-29.09 252,-29.09"/>
</a>
</g>
</g>
<!-- Node9 -->
<g id="Node000009" class="node">
<title>Node9</title>
<g id="a_Node000009"><a xlink:href="_fluid_synth_synthesizer_8h.html" target="_top" xlink:title="The FluidSynthSynthesizer class specifies an object&#45;oriented wrapper around an underlying fluidsynth ...">
<polygon fill="white" stroke="#666666" points="700,-459 577,-459 577,-440 700,-440 700,-459"/>
<text text-anchor="middle" x="638.5" y="-447" font-family="Helvetica,sans-Serif" font-size="10.00">FluidSynthSynthesizer.h</text>
</a>
</g>
</g>
<!-- Node8&#45;&gt;Node9 -->
<g id="edge8_Node000008_Node000009" class="edge">
<title>Node8&#45;&gt;Node9</title>
<g id="a_edge8_Node000008_Node000009"><a xlink:title=" ">
<path fill="none" stroke="#63b8ff" d="M562.96,-494.98C576.92,-486.77 598.29,-474.18 614.75,-464.49"/>
<polygon fill="#63b8ff" stroke="#63b8ff" points="616.94,-467.26 623.78,-459.17 613.38,-461.23 616.94,-467.26"/>
</a>
</g>
</g>
<!-- Node27 -->
<g id="Node000027" class="node">
<title>Node27</title>
<g id="a_Node000027"><a xlink:href="_string_list_8h.html" target="_top" xlink:title="The StringList specification defines lists of string values with zero&#45;based arbitrary indexed access ...">
<polygon fill="white" stroke="#666666" points="558.5,-294 492.5,-294 492.5,-275 558.5,-275 558.5,-294"/>
<text text-anchor="middle" x="525.5" y="-282" font-family="Helvetica,sans-Serif" font-size="10.00">StringList.h</text>
</a>
</g>
</g>
<!-- Node8&#45;&gt;Node27 -->
<g id="edge35_Node000008_Node000027" class="edge">
<title>Node8&#45;&gt;Node27</title>
<g id="a_edge35_Node000008_Node000027"><a xlink:title=" ">
<path fill="none" stroke="#63b8ff" d="M547.6,-494.95C544.22,-462.95 532.27,-349.68 527.49,-304.4"/>
<polygon fill="#63b8ff" stroke="#63b8ff" points="530.95,-303.8 526.42,-294.22 523.99,-304.54 530.95,-303.8"/>
</a>
</g>
</g>
<!-- Node9&#45;&gt;Node7 -->
<g id="edge30_Node000009_Node000007" class="edge">
<title>Node9&#45;&gt;Node7</title>
<g id="a_edge30_Node000009_Node000007"><a xlink:title=" ">
<path fill="none" stroke="#63b8ff" d="M638.66,-439.74C639.13,-414.31 640.5,-340.08 641.15,-304.69"/>
<polygon fill="#63b8ff" stroke="#63b8ff" points="644.65,-304.37 641.34,-294.31 637.65,-304.24 644.65,-304.37"/>
</a>
</g>
</g>
<!-- Node10 -->
<g id="Node000010" class="node">
<title>Node10</title>
<g id="a_Node000010"><a xlink:href="_audio_sample_list_vector_8h.html" target="_top" xlink:title="The AudioSampleListVector specification defines the communication buffer structure for the block proc...">
<polygon fill="white" stroke="#666666" points="905,-404 778,-404 778,-385 905,-385 905,-404"/>
<text text-anchor="middle" x="841.5" y="-392" font-family="Helvetica,sans-Serif" font-size="10.00">AudioSampleListVector.h</text>
</a>
</g>
</g>
<!-- Node9&#45;&gt;Node10 -->
<g id="edge9_Node000009_Node000010" class="edge">
<title>Node9&#45;&gt;Node10</title>
<g id="a_edge9_Node000009_Node000010"><a xlink:title=" ">
<path fill="none" stroke="#63b8ff" d="M671.12,-439.98C705.79,-430.93 760.76,-416.58 798.85,-406.64"/>
<polygon fill="#63b8ff" stroke="#63b8ff" points="799.84,-409.99 808.63,-404.08 798.07,-403.22 799.84,-409.99"/>
</a>
</g>
</g>
<!-- Node18 -->
<g id="Node000018" class="node">
<title>Node18</title>
<g id="a_Node000018"><a xlink:href="_natural_8h.html" target="_top" xlink:title="The Natural specification and body provides a value object type for naturals (positive integers with ...">
<polygon fill="white" stroke="#666666" points="421.5,-129 365.5,-129 365.5,-110 421.5,-110 421.5,-129"/>
<text text-anchor="middle" x="393.5" y="-117" font-family="Helvetica,sans-Serif" font-size="10.00">Natural.h</text>
</a>
</g>
</g>
<!-- Node9&#45;&gt;Node18 -->
<g id="edge29_Node000009_Node000018" class="edge">
<title>Node9&#45;&gt;Node18</title>
<g id="a_edge29_Node000009_Node000018"><a xlink:title=" ">
<path fill="none" stroke="#63b8ff" d="M637.25,-439.62C632.24,-406.93 611.02,-291.51 552.5,-220 518.1,-177.96 461.02,-148.46 425.42,-133.01"/>
<polygon fill="#63b8ff" stroke="#63b8ff" points="426.56,-129.69 415.99,-129.02 423.84,-136.14 426.56,-129.69"/>
</a>
</g>
</g>
<!-- Node25 -->
<g id="Node000025" class="node">
<title>Node25</title>
<g id="a_Node000025"><a xlink:href="_fluid_synth_settings_8h.html" target="_top" xlink:title="The FluidSynthSettings class specifies an object&#45;oriented wrapper around an underlying fluidsynth set...">
<polygon fill="white" stroke="#666666" points="760,-404 653,-404 653,-385 760,-385 760,-404"/>
<text text-anchor="middle" x="706.5" y="-392" font-family="Helvetica,sans-Serif" font-size="10.00">FluidSynthSettings.h</text>
</a>
</g>
</g>
<!-- Node9&#45;&gt;Node25 -->
<g id="edge31_Node000009_Node000025" class="edge">
<title>Node9&#45;&gt;Node25</title>
<g id="a_edge31_Node000009_Node000025"><a xlink:title=" ">
<path fill="none" stroke="#63b8ff" d="M649.43,-439.98C659.58,-432.07 674.92,-420.11 687.15,-410.58"/>
<polygon fill="#63b8ff" stroke="#63b8ff" points="689.64,-413.08 695.38,-404.17 685.34,-407.56 689.64,-413.08"/>
</a>
</g>
</g>
<!-- Node11 -->
<g id="Node000011" class="node">
<title>Node11</title>
<g id="a_Node000011"><a xlink:href="_audio_sample_list_8h.html" target="_top" xlink:title="The AudioSampleList specification defines lists of audio samples with zero&#45;based arbitrary indexed ac...">
<polygon fill="white" stroke="#666666" points="1011.5,-349 913.5,-349 913.5,-330 1011.5,-330 1011.5,-349"/>
<text text-anchor="middle" x="962.5" y="-337" font-family="Helvetica,sans-Serif" font-size="10.00">AudioSampleList.h</text>
</a>
</g>
</g>
<!-- Node10&#45;&gt;Node11 -->
<g id="edge10_Node000010_Node000011" class="edge">
<title>Node10&#45;&gt;Node11</title>
<g id="a_edge10_Node000010_Node000011"><a xlink:title=" ">
<path fill="none" stroke="#63b8ff" d="M860.94,-384.98C880.49,-376.42 910.88,-363.11 933.32,-353.28"/>
<polygon fill="#63b8ff" stroke="#63b8ff" points="934.95,-356.39 942.71,-349.17 932.14,-349.98 934.95,-356.39"/>
</a>
</g>
</g>
<!-- Node24 -->
<g id="Node000024" class="node">
<title>Node24</title>
<g id="a_Node000024"><a xlink:href="_audio_sample_list_vector_8cpp-inc.html" target="_top" xlink:title="The AudioSampleListVector body implements the communication buffer structure for the block processing...">
<polygon fill="white" stroke="#666666" points="895,-349 742,-349 742,-330 895,-330 895,-349"/>
<text text-anchor="middle" x="818.5" y="-337" font-family="Helvetica,sans-Serif" font-size="10.00">AudioSampleListVector.cpp&#45;inc</text>
</a>
</g>
</g>
<!-- Node10&#45;&gt;Node24 -->
<g id="edge28_Node000010_Node000024" class="edge">
<title>Node10&#45;&gt;Node24</title>
<g id="a_edge28_Node000010_Node000024"><a xlink:title=" ">
<path fill="none" stroke="#63b8ff" d="M837.7,-384.75C834.59,-377.57 830.08,-367.18 826.21,-358.27"/>
<polygon fill="#63b8ff" stroke="#63b8ff" points="829.42,-356.87 822.23,-349.09 823,-359.66 829.42,-356.87"/>
</a>
</g>
</g>
<!-- Node12 -->
<g id="Node000012" class="node">
<title>Node12</title>
<g id="a_Node000012"><a xlink:title=" ">
<polygon fill="#e0e0e0" stroke="#999999" points="674.5,-239 600.5,-239 600.5,-220 674.5,-220 674.5,-239"/>
<text text-anchor="middle" x="637.5" y="-227" font-family="Helvetica,sans-Serif" font-size="10.00">GenericList.h</text>
</a>
</g>
</g>
<!-- Node11&#45;&gt;Node12 -->
<g id="edge11_Node000011_Node000012" class="edge">
<title>Node11&#45;&gt;Node12</title>
<g id="a_edge11_Node000011_Node000012"><a xlink:title=" ">
<path fill="none" stroke="#63b8ff" d="M947.15,-329.97C922.56,-316.61 872.51,-290.66 827.5,-275 779.92,-258.44 723.5,-246.11 684.57,-238.67"/>
<polygon fill="#63b8ff" stroke="#63b8ff" points="685.05,-235.2 674.57,-236.8 683.76,-242.08 685.05,-235.2"/>
</a>
</g>
</g>
<!-- Node13 -->
<g id="Node000013" class="node">
<title>Node13</title>
<g id="a_Node000013"><a xlink:href="_audio_sample_8h.html" target="_top" xlink:title="The AudioSample specification and body provides the definition of the audio sample (a real value).">
<polygon fill="white" stroke="#666666" points="818,-294 735,-294 735,-275 818,-275 818,-294"/>
<text text-anchor="middle" x="776.5" y="-282" font-family="Helvetica,sans-Serif" font-size="10.00">AudioSample.h</text>
</a>
</g>
</g>
<!-- Node11&#45;&gt;Node13 -->
<g id="edge12_Node000011_Node000013" class="edge">
<title>Node11&#45;&gt;Node13</title>
<g id="a_edge12_Node000011_Node000013"><a xlink:title=" ">
<path fill="none" stroke="#63b8ff" d="M932.62,-329.98C901.12,-321.01 851.33,-306.82 816.47,-296.89"/>
<polygon fill="#63b8ff" stroke="#63b8ff" points="817.19,-293.46 806.62,-294.08 815.28,-300.19 817.19,-293.46"/>
</a>
</g>
</g>
<!-- Node21 -->
<g id="Node000021" class="node">
<title>Node21</title>
<g id="a_Node000021"><a xlink:href="_audio_sample_list_8cpp-inc.html" target="_top" xlink:title="The AudioSampleList body implements a simple list of audio samples (this is the effective code includ...">
<polygon fill="white" stroke="#666666" points="1021,-294 896,-294 896,-275 1021,-275 1021,-294"/>
<text text-anchor="middle" x="958.5" y="-282" font-family="Helvetica,sans-Serif" font-size="10.00">AudioSampleList.cpp&#45;inc</text>
</a>
</g>
</g>
<!-- Node11&#45;&gt;Node21 -->
<g id="edge24_Node000011_Node000021" class="edge">
<title>Node11&#45;&gt;Node21</title>
<g id="a_edge24_Node000011_Node000021"><a xlink:title=" ">
<path fill="none" stroke="#63b8ff" d="M961.84,-329.75C961.32,-322.8 960.56,-312.85 959.91,-304.13"/>
<polygon fill="#63b8ff" stroke="#63b8ff" points="963.39,-303.8 959.15,-294.09 956.41,-304.32 963.39,-303.8"/>
</a>
</g>
</g>
<!-- Node14 -->
<g id="Node000014" class="node">
<title>Node14</title>
<g id="a_Node000014"><a xlink:href="_real_8h.html" target="_top" xlink:title="The Real specification defines a value object type for real values.">
<polygon fill="white" stroke="#666666" points="452.5,-239 408.5,-239 408.5,-220 452.5,-220 452.5,-239"/>
<text text-anchor="middle" x="430.5" y="-227" font-family="Helvetica,sans-Serif" font-size="10.00">Real.h</text>
</a>
</g>
</g>
<!-- Node13&#45;&gt;Node14 -->
<g id="edge13_Node000013_Node000014" class="edge">
<title>Node13&#45;&gt;Node14</title>
<g id="a_edge13_Node000013_Node000014"><a xlink:title=" ">
<path fill="none" stroke="#63b8ff" d="M734.93,-279.33C676.28,-273.08 565.77,-259.94 462.72,-239.02"/>
<polygon fill="#63b8ff" stroke="#63b8ff" points="463.27,-235.56 452.77,-236.97 461.86,-242.42 463.27,-235.56"/>
</a>
</g>
</g>
<!-- Node15 -->
<g id="Node000015" class="node">
<title>Node15</title>
<g id="a_Node000015"><a xlink:href="_integer_8h.html" target="_top" xlink:title="The Integer specification and body provides a value object type for ints.">
<polygon fill="white" stroke="#666666" points="730.5,-184 676.5,-184 676.5,-165 730.5,-165 730.5,-184"/>
<text text-anchor="middle" x="703.5" y="-172" font-family="Helvetica,sans-Serif" font-size="10.00">Integer.h</text>
</a>
</g>
</g>
<!-- Node14&#45;&gt;Node15 -->
<g id="edge14_Node000014_Node000015" class="edge">
<title>Node14&#45;&gt;Node15</title>
<g id="a_edge14_Node000014_Node000015"><a xlink:title=" ">
<path fill="none" stroke="#63b8ff" d="M452.79,-222.14C455.71,-221.38 458.67,-220.65 461.5,-220 533.51,-203.54 618.66,-189.01 666.33,-181.32"/>
<polygon fill="#63b8ff" stroke="#63b8ff" points="667.17,-184.73 676.49,-179.69 666.06,-177.82 667.17,-184.73"/>
</a>
</g>
</g>
<!-- Node16 -->
<g id="Node000016" class="node">
<title>Node16</title>
<g id="a_Node000016"><a xlink:title=" ">
<polygon fill="#e0e0e0" stroke="#999999" points="342.5,-74 298.5,-74 298.5,-55 342.5,-55 342.5,-74"/>
<text text-anchor="middle" x="320.5" y="-62" font-family="Helvetica,sans-Serif" font-size="10.00">cmath</text>
</a>
</g>
</g>
<!-- Node15&#45;&gt;Node16 -->
<g id="edge15_Node000015_Node000016" class="edge">
<title>Node15&#45;&gt;Node16</title>
<g id="a_edge15_Node000015_Node000016"><a xlink:title=" ">
<path fill="none" stroke="#63b8ff" d="M676.26,-165.82C607.38,-146.4 426.49,-95.39 352.62,-74.56"/>
<polygon fill="#63b8ff" stroke="#63b8ff" points="353.5,-71.17 342.93,-71.82 351.6,-77.91 353.5,-71.17"/>
</a>
</g>
</g>
<!-- Node17 -->
<g id="Node000017" class="node">
<title>Node17</title>
<g id="a_Node000017"><a xlink:title=" ">
<polygon fill="#e0e0e0" stroke="#999999" points="526,-19 467,-19 467,0 526,0 526,-19"/>
<text text-anchor="middle" x="496.5" y="-7" font-family="Helvetica,sans-Serif" font-size="10.00">stdexcept</text>
</a>
</g>
</g>
<!-- Node15&#45;&gt;Node17 -->
<g id="edge16_Node000015_Node000017" class="edge">
<title>Node15&#45;&gt;Node17</title>
<g id="a_edge16_Node000015_Node000017"><a xlink:title=" ">
<path fill="none" stroke="#63b8ff" d="M692.66,-164.97C659.28,-138.68 557.69,-58.69 515.35,-25.34"/>
<polygon fill="#63b8ff" stroke="#63b8ff" points="517.5,-22.58 507.48,-19.15 513.17,-28.08 517.5,-22.58"/>
</a>
</g>
</g>
<!-- Node15&#45;&gt;Node18 -->
<g id="edge17_Node000015_Node000018" class="edge">
<title>Node15&#45;&gt;Node18</title>
<g id="a_edge17_Node000015_Node000018"><a xlink:title=" ">
<path fill="none" stroke="#63b8ff" d="M676.18,-167.68C671.62,-166.75 666.93,-165.83 662.5,-165 580.65,-149.75 484.29,-134.45 432,-126.37"/>
<polygon fill="#63b8ff" stroke="#63b8ff" points="432.25,-122.87 421.84,-124.8 431.19,-129.78 432.25,-122.87"/>
</a>
</g>
</g>
<!-- Node18&#45;&gt;Node4 -->
<g id="edge23_Node000018_Node000004" class="edge">
<title>Node18&#45;&gt;Node4</title>
<g id="a_edge23_Node000018_Node000004"><a xlink:title=" ">
<path fill="none" stroke="#63b8ff" d="M370.2,-109.98C346.25,-101.23 308.72,-87.51 281.67,-77.62"/>
<polygon fill="#63b8ff" stroke="#63b8ff" points="282.81,-74.32 272.22,-74.17 280.41,-80.89 282.81,-74.32"/>
</a>
</g>
</g>
<!-- Node18&#45;&gt;Node16 -->
<g id="edge18_Node000018_Node000016" class="edge">
<title>Node18&#45;&gt;Node16</title>
<g id="a_edge18_Node000018_Node000016"><a xlink:title=" ">
<path fill="none" stroke="#63b8ff" d="M381.77,-109.98C370.77,-102 354.08,-89.88 340.9,-80.31"/>
<polygon fill="#63b8ff" stroke="#63b8ff" points="342.59,-77.21 332.44,-74.17 338.48,-82.88 342.59,-77.21"/>
</a>
</g>
</g>
<!-- Node19 -->
<g id="Node000019" class="node">
<title>Node19</title>
<g id="a_Node000019"><a xlink:href="_assertion_8h.html" target="_top" xlink:title="The Assertion specification defines macros for pre&#45; and postconditions in functions or methods.">
<polygon fill="white" stroke="#666666" points="426.5,-74 360.5,-74 360.5,-55 426.5,-55 426.5,-74"/>
<text text-anchor="middle" x="393.5" y="-62" font-family="Helvetica,sans-Serif" font-size="10.00">Assertion.h</text>
</a>
</g>
</g>
<!-- Node18&#45;&gt;Node19 -->
<g id="edge19_Node000018_Node000019" class="edge">
<title>Node18&#45;&gt;Node19</title>
<g id="a_edge19_Node000018_Node000019"><a xlink:title=" ">
<path fill="none" stroke="#63b8ff" d="M393.5,-109.75C393.5,-102.8 393.5,-92.85 393.5,-84.13"/>
<polygon fill="#63b8ff" stroke="#63b8ff" points="397,-84.09 393.5,-74.09 390,-84.09 397,-84.09"/>
</a>
</g>
</g>
<!-- Node20 -->
<g id="Node000020" class="node">
<title>Node20</title>
<g id="a_Node000020"><a xlink:title=" ">
<polygon fill="#e0e0e0" stroke="#999999" points="536.5,-74 444.5,-74 444.5,-55 536.5,-55 536.5,-74"/>
<text text-anchor="middle" x="490.5" y="-62" font-family="Helvetica,sans-Serif" font-size="10.00">GenericNumber.h</text>
</a>
</g>
</g>
<!-- Node18&#45;&gt;Node20 -->
<g id="edge22_Node000018_Node000020" class="edge">
<title>Node18&#45;&gt;Node20</title>
<g id="a_edge22_Node000018_Node000020"><a xlink:title=" ">
<path fill="none" stroke="#63b8ff" d="M409.08,-109.98C424.27,-101.69 447.6,-88.94 465.4,-79.22"/>
<polygon fill="#63b8ff" stroke="#63b8ff" points="467.53,-82.04 474.63,-74.17 464.18,-75.89 467.53,-82.04"/>
</a>
</g>
</g>
<!-- Node19&#45;&gt;Node5 -->
<g id="edge21_Node000019_Node000005" class="edge">
<title>Node19&#45;&gt;Node5</title>
<g id="a_edge21_Node000019_Node000005"><a xlink:title=" ">
<path fill="none" stroke="#63b8ff" d="M388.22,-54.75C383.79,-47.42 377.34,-36.73 371.88,-27.7"/>
<polygon fill="#63b8ff" stroke="#63b8ff" points="374.85,-25.84 366.69,-19.09 368.86,-29.46 374.85,-25.84"/>
</a>
</g>
</g>
<!-- Node19&#45;&gt;Node17 -->
<g id="edge20_Node000019_Node000017" class="edge">
<title>Node19&#45;&gt;Node17</title>
<g id="a_edge20_Node000019_Node000017"><a xlink:title=" ">
<path fill="none" stroke="#63b8ff" d="M410.05,-54.98C426.39,-46.57 451.63,-33.59 470.63,-23.81"/>
<polygon fill="#63b8ff" stroke="#63b8ff" points="472.36,-26.86 479.65,-19.17 469.16,-20.63 472.36,-26.86"/>
</a>
</g>
</g>
<!-- Node22 -->
<g id="Node000022" class="node">
<title>Node22</title>
<g id="a_Node000022"><a xlink:href="_my_array_8h.html" target="_top" xlink:title="The MyArray specification and body defines a generic array type for stack allocated arrays represente...">
<polygon fill="white" stroke="#666666" points="897.5,-239 835.5,-239 835.5,-220 897.5,-220 897.5,-239"/>
<text text-anchor="middle" x="866.5" y="-227" font-family="Helvetica,sans-Serif" font-size="10.00">MyArray.h</text>
</a>
</g>
</g>
<!-- Node21&#45;&gt;Node22 -->
<g id="edge25_Node000021_Node000022" class="edge">
<title>Node21&#45;&gt;Node22</title>
<g id="a_edge25_Node000021_Node000022"><a xlink:title=" ">
<path fill="none" stroke="#63b8ff" d="M943.72,-274.98C929.32,-266.69 907.19,-253.94 890.31,-244.22"/>
<polygon fill="#63b8ff" stroke="#63b8ff" points="891.96,-241.13 881.55,-239.17 888.47,-247.19 891.96,-241.13"/>
</a>
</g>
</g>
<!-- Node22&#45;&gt;Node18 -->
<g id="edge27_Node000022_Node000018" class="edge">
<title>Node22&#45;&gt;Node18</title>
<g id="a_edge27_Node000022_Node000018"><a xlink:title=" ">
<path fill="none" stroke="#63b8ff" d="M835.31,-223.48C795.69,-216.66 725.51,-203.1 667.5,-184 647.65,-177.47 644.44,-171.24 624.5,-165 558.32,-144.3 478.32,-131.48 431.94,-125.2"/>
<polygon fill="#63b8ff" stroke="#63b8ff" points="432.11,-121.69 421.74,-123.85 431.19,-128.63 432.11,-121.69"/>
</a>
</g>
</g>
<!-- Node23 -->
<g id="Node000023" class="node">
<title>Node23</title>
<g id="a_Node000023"><a xlink:title=" ">
<polygon fill="#e0e0e0" stroke="#999999" points="889.5,-184 843.5,-184 843.5,-165 889.5,-165 889.5,-184"/>
<text text-anchor="middle" x="866.5" y="-172" font-family="Helvetica,sans-Serif" font-size="10.00">cstring</text>
</a>
</g>
</g>
<!-- Node22&#45;&gt;Node23 -->
<g id="edge26_Node000022_Node000023" class="edge">
<title>Node22&#45;&gt;Node23</title>
<g id="a_edge26_Node000022_Node000023"><a xlink:title=" ">
<path fill="none" stroke="#63b8ff" d="M866.5,-219.75C866.5,-212.8 866.5,-202.85 866.5,-194.13"/>
<polygon fill="#63b8ff" stroke="#63b8ff" points="870,-194.09 866.5,-184.09 863,-194.09 870,-194.09"/>
</a>
</g>
</g>
<!-- Node26 -->
<g id="Node000026" class="node">
<title>Node26</title>
<g id="a_Node000026"><a xlink:href="_fluid_synth_8h.html" target="_top" xlink:title="The FluidSynth class specifies an object&#45;oriented wrapper around the fluidsynth library and also allo...">
<polygon fill="white" stroke="#666666" points="724,-349 653,-349 653,-330 724,-330 724,-349"/>
<text text-anchor="middle" x="688.5" y="-337" font-family="Helvetica,sans-Serif" font-size="10.00">FluidSynth.h</text>
</a>
</g>
</g>
<!-- Node25&#45;&gt;Node26 -->
<g id="edge32_Node000025_Node000026" class="edge">
<title>Node25&#45;&gt;Node26</title>
<g id="a_edge32_Node000025_Node000026"><a xlink:title=" ">
<path fill="none" stroke="#63b8ff" d="M703.53,-384.75C701.14,-377.72 697.71,-367.62 694.73,-358.84"/>
<polygon fill="#63b8ff" stroke="#63b8ff" points="697.95,-357.43 691.42,-349.09 691.32,-359.68 697.95,-357.43"/>
</a>
</g>
</g>
<!-- Node26&#45;&gt;Node7 -->
<g id="edge34_Node000026_Node000007" class="edge">
<title>Node26&#45;&gt;Node7</title>
<g id="a_edge34_Node000026_Node000007"><a xlink:title=" ">
<path fill="none" stroke="#63b8ff" d="M680.74,-329.75C674.03,-322.18 664.16,-311.05 655.99,-301.84"/>
<polygon fill="#63b8ff" stroke="#63b8ff" points="658.37,-299.25 649.12,-294.09 653.13,-303.89 658.37,-299.25"/>
</a>
</g>
</g>
<!-- Node26&#45;&gt;Node18 -->
<g id="edge33_Node000026_Node000018" class="edge">
<title>Node26&#45;&gt;Node18</title>
<g id="a_edge33_Node000026_Node000018"><a xlink:title=" ">
<path fill="none" stroke="#63b8ff" d="M690.75,-329.95C695.67,-309.28 705.3,-255.67 683.5,-220 680.27,-214.71 592.27,-167.25 586.5,-165 534.73,-144.85 471.43,-132.41 431.78,-125.97"/>
<polygon fill="#63b8ff" stroke="#63b8ff" points="432.16,-122.49 421.74,-124.39 431.07,-129.4 432.16,-122.49"/>
</a>
</g>
</g>
<!-- Node27&#45;&gt;Node12 -->
<g id="edge37_Node000027_Node000012" class="edge">
<title>Node27&#45;&gt;Node12</title>
<g id="a_edge37_Node000027_Node000012"><a xlink:title=" ">
<path fill="none" stroke="#63b8ff" d="M543.49,-274.98C561.43,-266.5 589.22,-253.35 609.93,-243.54"/>
<polygon fill="#63b8ff" stroke="#63b8ff" points="611.64,-246.61 619.18,-239.17 608.64,-240.28 611.64,-246.61"/>
</a>
</g>
</g>
<!-- Node28 -->
<g id="Node000028" class="node">
<title>Node28</title>
<g id="a_Node000028"><a xlink:title=" ">
<polygon fill="#e0e0e0" stroke="#999999" points="544,-239 471,-239 471,-220 544,-220 544,-239"/>
<text text-anchor="middle" x="507.5" y="-227" font-family="Helvetica,sans-Serif" font-size="10.00">initializer_list</text>
</a>
</g>
</g>
<!-- Node27&#45;&gt;Node28 -->
<g id="edge36_Node000027_Node000028" class="edge">
<title>Node27&#45;&gt;Node28</title>
<g id="a_edge36_Node000027_Node000028"><a xlink:title=" ">
<path fill="none" stroke="#63b8ff" d="M522.53,-274.75C520.14,-267.72 516.71,-257.62 513.73,-248.84"/>
<polygon fill="#63b8ff" stroke="#63b8ff" points="516.95,-247.43 510.42,-239.09 510.32,-249.68 516.95,-247.43"/>
</a>
</g>
</g>
<!-- Node30 -->
<g id="Node000030" class="node">
<title>Node30</title>
<g id="a_Node000030"><a xlink:title=" ">
<polygon fill="#e0e0e0" stroke="#999999" points="327,-349 278,-349 278,-330 327,-330 327,-349"/>
<text text-anchor="middle" x="302.5" y="-337" font-family="Helvetica,sans-Serif" font-size="10.00">cstdarg</text>
</a>
</g>
</g>
<!-- Node29&#45;&gt;Node30 -->
<g id="edge39_Node000029_Node000030" class="edge">
<title>Node29&#45;&gt;Node30</title>
<g id="a_edge39_Node000029_Node000030"><a xlink:title=" ">
<path fill="none" stroke="#63b8ff" d="M334.23,-384.75C328.91,-377.34 321.14,-366.5 314.62,-357.41"/>
<polygon fill="#63b8ff" stroke="#63b8ff" points="317.33,-355.18 308.66,-349.09 311.64,-359.26 317.33,-355.18"/>
</a>
</g>
</g>
<!-- Node31 -->
<g id="Node000031" class="node">
<title>Node31</title>
<g id="a_Node000031"><a xlink:href="_logging_support_8h.html" target="_top" xlink:title="The LoggingSupport specification defines a class for simple entry/exit logging to a file or via an ar...">
<polygon fill="white" stroke="#666666" points="259.5,-349 167.5,-349 167.5,-330 259.5,-330 259.5,-349"/>
<text text-anchor="middle" x="213.5" y="-337" font-family="Helvetica,sans-Serif" font-size="10.00">LoggingSupport.h</text>
</a>
</g>
</g>
<!-- Node29&#45;&gt;Node31 -->
<g id="edge40_Node000029_Node000031" class="edge">
<title>Node29&#45;&gt;Node31</title>
<g id="a_edge40_Node000029_Node000031"><a xlink:title=" ">
<path fill="none" stroke="#63b8ff" d="M320.1,-384.98C299.48,-376.38 267.39,-362.99 243.81,-353.15"/>
<polygon fill="#63b8ff" stroke="#63b8ff" points="244.85,-349.79 234.28,-349.17 242.16,-356.25 244.85,-349.79"/>
</a>
</g>
</g>
<!-- Node32 -->
<g id="Node000032" class="node">
<title>Node32</title>
<g id="a_Node000032"><a xlink:href="_string_util_8h.html" target="_top" xlink:title="The StringUtil specification defines several string routines not included in the standard C++ library...">
<polygon fill="white" stroke="#666666" points="410,-349 345,-349 345,-330 410,-330 410,-349"/>
<text text-anchor="middle" x="377.5" y="-337" font-family="Helvetica,sans-Serif" font-size="10.00">StringUtil.h</text>
</a>
</g>
</g>
<!-- Node29&#45;&gt;Node32 -->
<g id="edge43_Node000029_Node000032" class="edge">
<title>Node29&#45;&gt;Node32</title>
<g id="a_edge43_Node000029_Node000032"><a xlink:title=" ">
<path fill="none" stroke="#63b8ff" d="M346.61,-384.75C351.78,-377.34 359.35,-366.5 365.69,-357.41"/>
<polygon fill="#63b8ff" stroke="#63b8ff" points="368.65,-359.29 371.5,-349.09 362.91,-355.29 368.65,-359.29"/>
</a>
</g>
</g>
<!-- Node31&#45;&gt;Node3 -->
<g id="edge41_Node000031_Node000003" class="edge">
<title>Node31&#45;&gt;Node3</title>
<g id="a_edge41_Node000031_Node000003"><a xlink:title=" ">
<path fill="none" stroke="#63b8ff" d="M223.62,-329.98C232.94,-322.15 246.97,-310.34 258.24,-300.86"/>
<polygon fill="#63b8ff" stroke="#63b8ff" points="260.79,-303.29 266.19,-294.17 256.29,-297.93 260.79,-303.29"/>
</a>
</g>
</g>
<!-- Node31&#45;&gt;Node18 -->
<g id="edge42_Node000031_Node000018" class="edge">
<title>Node31&#45;&gt;Node18</title>
<g id="a_edge42_Node000031_Node000018"><a xlink:title=" ">
<path fill="none" stroke="#63b8ff" d="M245.02,-329.89C266.58,-322.84 294.87,-311.2 315.5,-294 364.48,-253.16 383.95,-175.22 390.56,-139.38"/>
<polygon fill="#63b8ff" stroke="#63b8ff" points="394.04,-139.77 392.27,-129.32 387.14,-138.59 394.04,-139.77"/>
</a>
</g>
</g>
<!-- Node32&#45;&gt;Node3 -->
<g id="edge44_Node000032_Node000003" class="edge">
<title>Node32&#45;&gt;Node3</title>
<g id="a_edge44_Node000032_Node000003"><a xlink:title=" ">
<path fill="none" stroke="#63b8ff" d="M361.27,-329.98C345.32,-321.61 320.72,-308.7 302.12,-298.95"/>
<polygon fill="#63b8ff" stroke="#63b8ff" points="303.5,-295.72 293.02,-294.17 300.25,-301.92 303.5,-295.72"/>
</a>
</g>
</g>
<!-- Node32&#45;&gt;Node27 -->
<g id="edge53_Node000032_Node000027" class="edge">
<title>Node32&#45;&gt;Node27</title>
<g id="a_edge53_Node000032_Node000027"><a xlink:title=" ">
<path fill="none" stroke="#63b8ff" d="M401.28,-329.98C425.73,-321.23 464.03,-307.51 491.65,-297.62"/>
<polygon fill="#63b8ff" stroke="#63b8ff" points="493.05,-300.84 501.29,-294.17 490.69,-294.25 493.05,-300.84"/>
</a>
</g>
</g>
<!-- Node33 -->
<g id="Node000033" class="node">
<title>Node33</title>
<g id="a_Node000033"><a xlink:href="_character_8h.html" target="_top" xlink:title="The Character specification and body provides a value object type for character values.">
<polygon fill="white" stroke="#666666" points="310,-239 243,-239 243,-220 310,-220 310,-239"/>
<text text-anchor="middle" x="276.5" y="-227" font-family="Helvetica,sans-Serif" font-size="10.00">Character.h</text>
</a>
</g>
</g>
<!-- Node32&#45;&gt;Node33 -->
<g id="edge45_Node000032_Node000033" class="edge">
<title>Node32&#45;&gt;Node33</title>
<g id="a_edge45_Node000032_Node000033"><a xlink:title=" ">
<path fill="none" stroke="#63b8ff" d="M369.23,-329.66C352.21,-311.46 313.02,-269.55 291.43,-246.47"/>
<polygon fill="#63b8ff" stroke="#63b8ff" points="293.98,-244.07 284.6,-239.16 288.87,-248.85 293.98,-244.07"/>
</a>
</g>
</g>
<!-- Node36 -->
<g id="Node000036" class="node">
<title>Node36</title>
<g id="a_Node000036"><a xlink:href="_percentage_8h.html" target="_top" xlink:title="The Percentage specification and body provides a simple percentage type.">
<polygon fill="white" stroke="#666666" points="474.5,-294 400.5,-294 400.5,-275 474.5,-275 474.5,-294"/>
<text text-anchor="middle" x="437.5" y="-282" font-family="Helvetica,sans-Serif" font-size="10.00">Percentage.h</text>
</a>
</g>
</g>
<!-- Node32&#45;&gt;Node36 -->
<g id="edge51_Node000032_Node000036" class="edge">
<title>Node32&#45;&gt;Node36</title>
<g id="a_edge51_Node000032_Node000036"><a xlink:title=" ">
<path fill="none" stroke="#63b8ff" d="M387.14,-329.98C396.01,-322.15 409.37,-310.34 420.11,-300.86"/>
<polygon fill="#63b8ff" stroke="#63b8ff" points="422.51,-303.41 427.68,-294.17 417.87,-298.17 422.51,-303.41"/>
</a>
</g>
</g>
<!-- Node33&#45;&gt;Node16 -->
<g id="edge46_Node000033_Node000016" class="edge">
<title>Node33&#45;&gt;Node16</title>
<g id="a_edge46_Node000033_Node000016"><a xlink:title=" ">
<path fill="none" stroke="#63b8ff" d="M278.87,-219.74C285.76,-194.2 305.94,-119.43 315.44,-84.23"/>
<polygon fill="#63b8ff" stroke="#63b8ff" points="318.9,-84.87 318.12,-74.31 312.14,-83.05 318.9,-84.87"/>
</a>
</g>
</g>
<!-- Node34 -->
<g id="Node000034" class="node">
<title>Node34</title>
<g id="a_Node000034"><a xlink:href="_byte_8h.html" target="_top" xlink:title="The Byte specification and body provides a value object type for byte values.">
<polygon fill="white" stroke="#666666" points="272,-184 227,-184 227,-165 272,-165 272,-184"/>
<text text-anchor="middle" x="249.5" y="-172" font-family="Helvetica,sans-Serif" font-size="10.00">Byte.h</text>
</a>
</g>
</g>
<!-- Node33&#45;&gt;Node34 -->
<g id="edge47_Node000033_Node000034" class="edge">
<title>Node33&#45;&gt;Node34</title>
<g id="a_edge47_Node000033_Node000034"><a xlink:title=" ">
<path fill="none" stroke="#63b8ff" d="M272.04,-219.75C268.38,-212.57 263.09,-202.18 258.55,-193.27"/>
<polygon fill="#63b8ff" stroke="#63b8ff" points="261.53,-191.41 253.88,-184.09 255.3,-194.59 261.53,-191.41"/>
</a>
</g>
</g>
<!-- Node34&#45;&gt;Node16 -->
<g id="edge48_Node000034_Node000016" class="edge">
<title>Node34&#45;&gt;Node16</title>
<g id="a_edge48_Node000034_Node000016"><a xlink:title=" ">
<path fill="none" stroke="#63b8ff" d="M255.31,-164.66C267.07,-146.77 293.87,-106 309.2,-82.69"/>
<polygon fill="#63b8ff" stroke="#63b8ff" points="312.24,-84.44 314.81,-74.16 306.39,-80.59 312.24,-84.44"/>
</a>
</g>
</g>
<!-- Node34&#45;&gt;Node18 -->
<g id="edge50_Node000034_Node000018" class="edge">
<title>Node34&#45;&gt;Node18</title>
<g id="a_edge50_Node000034_Node000018"><a xlink:title=" ">
<path fill="none" stroke="#63b8ff" d="M272.32,-165.1C296.19,-156.32 333.88,-142.44 360.89,-132.5"/>
<polygon fill="#63b8ff" stroke="#63b8ff" points="362.14,-135.77 370.31,-129.03 359.72,-129.2 362.14,-135.77"/>
</a>
</g>
</g>
<!-- Node35 -->
<g id="Node000035" class="node">
<title>Node35</title>
<g id="a_Node000035"><a xlink:title=" ">
<polygon fill="#e0e0e0" stroke="#999999" points="244.5,-129 198.5,-129 198.5,-110 244.5,-110 244.5,-129"/>
<text text-anchor="middle" x="221.5" y="-117" font-family="Helvetica,sans-Serif" font-size="10.00">cstdint</text>
</a>
</g>
</g>
<!-- Node34&#45;&gt;Node35 -->
<g id="edge49_Node000034_Node000035" class="edge">
<title>Node34&#45;&gt;Node35</title>
<g id="a_edge49_Node000034_Node000035"><a xlink:title=" ">
<path fill="none" stroke="#63b8ff" d="M244.88,-164.75C241.04,-157.49 235.48,-146.95 230.74,-137.98"/>
<polygon fill="#63b8ff" stroke="#63b8ff" points="233.8,-136.3 226.04,-129.09 227.61,-139.57 233.8,-136.3"/>
</a>
</g>
</g>
<!-- Node36&#45;&gt;Node14 -->
<g id="edge52_Node000036_Node000014" class="edge">
<title>Node36&#45;&gt;Node14</title>
<g id="a_edge52_Node000036_Node000014"><a xlink:title=" ">
<path fill="none" stroke="#63b8ff" d="M436.34,-274.75C435.43,-267.8 434.11,-257.85 432.96,-249.13"/>
<polygon fill="#63b8ff" stroke="#63b8ff" points="436.41,-248.54 431.63,-239.09 429.47,-249.46 436.41,-248.54"/>
</a>
</g>
</g>
<!-- Node37&#45;&gt;Node3 -->
<g id="edge55_Node000037_Node000003" class="edge">
<title>Node37&#45;&gt;Node3</title>
<g id="a_edge55_Node000037_Node000003"><a xlink:title=" ">
<path fill="none" stroke="#63b8ff" d="M127.1,-329.98C157.11,-321.05 204.48,-306.94 237.82,-297.02"/>
<polygon fill="#63b8ff" stroke="#63b8ff" points="239.09,-300.29 247.68,-294.08 237.09,-293.58 239.09,-300.29"/>
</a>
</g>
</g>
<!-- Node37&#45;&gt;Node18 -->
<g id="edge58_Node000037_Node000018" class="edge">
<title>Node37&#45;&gt;Node18</title>
<g id="a_edge58_Node000037_Node000018"><a xlink:title=" ">
<path fill="none" stroke="#63b8ff" d="M98.72,-329.58C99.58,-315.69 103.37,-289.01 119.5,-275 187.36,-216.06 243.95,-289.21 318.5,-239 355.06,-214.37 377.42,-165.31 387.38,-138.69"/>
<polygon fill="#63b8ff" stroke="#63b8ff" points="390.74,-139.68 390.8,-129.09 384.15,-137.34 390.74,-139.68"/>
</a>
</g>
</g>
<!-- Node38 -->
<g id="Node000038" class="node">
<title>Node38</title>
<g id="a_Node000038"><a xlink:href="_dictionary_8h.html" target="_top" xlink:title="The Dictionary specification defines maps from string keys to string values.">
<polygon fill="white" stroke="#666666" points="72.5,-294 4.5,-294 4.5,-275 72.5,-275 72.5,-294"/>
<text text-anchor="middle" x="38.5" y="-282" font-family="Helvetica,sans-Serif" font-size="10.00">Dictionary.h</text>
</a>
</g>
</g>
<!-- Node37&#45;&gt;Node38 -->
<g id="edge56_Node000037_Node000038" class="edge">
<title>Node37&#45;&gt;Node38</title>
<g id="a_edge56_Node000037_Node000038"><a xlink:title=" ">
<path fill="none" stroke="#63b8ff" d="M88.86,-329.98C79.99,-322.15 66.63,-310.34 55.89,-300.86"/>
<polygon fill="#63b8ff" stroke="#63b8ff" points="58.13,-298.17 48.32,-294.17 53.49,-303.41 58.13,-298.17"/>
</a>
</g>
</g>
<!-- Node40 -->
<g id="Node000040" class="node">
<title>Node40</title>
<g id="a_Node000040"><a xlink:href="_time_and_duration_8h.html" target="_top" xlink:title="The TimeAndDuration specification and body provides types for time and duration.">
<polygon fill="white" stroke="#666666" points="228,-294 129,-294 129,-275 228,-275 228,-294"/>
<text text-anchor="middle" x="178.5" y="-282" font-family="Helvetica,sans-Serif" font-size="10.00">TimeAndDuration.h</text>
</a>
</g>
</g>
<!-- Node37&#45;&gt;Node40 -->
<g id="edge59_Node000037_Node000040" class="edge">
<title>Node37&#45;&gt;Node40</title>
<g id="a_edge59_Node000037_Node000040"><a xlink:title=" ">
<path fill="none" stroke="#63b8ff" d="M111.35,-329.98C123.64,-321.84 142.41,-309.41 156.98,-299.76"/>
<polygon fill="#63b8ff" stroke="#63b8ff" points="159.01,-302.61 165.41,-294.17 155.14,-296.78 159.01,-302.61"/>
</a>
</g>
</g>
<!-- Node39 -->
<g id="Node000039" class="node">
<title>Node39</title>
<g id="a_Node000039"><a xlink:title=" ">
<polygon fill="#e0e0e0" stroke="#999999" points="77,-239 0,-239 0,-220 77,-220 77,-239"/>
<text text-anchor="middle" x="38.5" y="-227" font-family="Helvetica,sans-Serif" font-size="10.00">GenericMap.h</text>
</a>
</g>
</g>
<!-- Node38&#45;&gt;Node39 -->
<g id="edge57_Node000038_Node000039" class="edge">
<title>Node38&#45;&gt;Node39</title>
<g id="a_edge57_Node000038_Node000039"><a xlink:title=" ">
<path fill="none" stroke="#63b8ff" d="M38.5,-274.75C38.5,-267.8 38.5,-257.85 38.5,-249.13"/>
<polygon fill="#63b8ff" stroke="#63b8ff" points="42,-249.09 38.5,-239.09 35,-249.09 42,-249.09"/>
</a>
</g>
</g>
<!-- Node40&#45;&gt;Node14 -->
<g id="edge60_Node000040_Node000014" class="edge">
<title>Node40&#45;&gt;Node14</title>
<g id="a_edge60_Node000040_Node000014"><a xlink:title=" ">
<path fill="none" stroke="#63b8ff" d="M218.99,-274.98C268.94,-264.48 352.84,-246.83 398.52,-237.23"/>
<polygon fill="#63b8ff" stroke="#63b8ff" points="399.4,-240.62 408.46,-235.13 397.96,-233.77 399.4,-240.62"/>
</a>
</g>
</g>
</g>
</svg>
