<?xml version="1.0" encoding="UTF-8" standalone="no"?>
<!DOCTYPE svg PUBLIC "-//W3C//DTD SVG 1.1//EN"
 "http://www.w3.org/Graphics/SVG/1.1/DTD/svg11.dtd">
<!-- Generated by graphviz version 2.47.1 (20210417.1919)
 -->
<!-- Title: FluidSynthPlugin_EditorSupport.h Pages: 1 -->
<svg width="350pt" height="308pt"
 viewBox="0.00 0.00 350.16 308.00" xmlns="http://www.w3.org/2000/svg" xmlns:xlink="http://www.w3.org/1999/xlink">
<g id="graph0" class="graph" transform="scale(1 1) rotate(0) translate(4 304)">
<title>FluidSynthPlugin_EditorSupport.h</title>
<polygon fill="white" stroke="transparent" points="-4,4 -4,-304 346.16,-304 346.16,4 -4,4"/>
<!-- Node1 -->
<g id="node1" class="node">
<title>Node1</title>
<g id="a_node1"><a xlink:title="The FluidSynthPlugin_EditorSupport specification defines support services for the editor of the Fluid...">
<polygon fill="#bfbfbf" stroke="black" points="125,-280.5 125,-299.5 288,-299.5 288,-280.5 125,-280.5"/>
<text text-anchor="middle" x="206.5" y="-287.5" font-family="Helvetica,sans-Serif" font-size="10.00">FluidSynthPlugin_EditorSupport.h</text>
</a>
</g>
</g>
<!-- Node2 -->
<g id="node2" class="node">
<title>Node2</title>
<g id="a_node2"><a xlink:href="_boolean_8h.html" target="_top" xlink:title="The Boolean specification and body provides a value object type for boolean values.">
<polygon fill="white" stroke="black" points="131.5,-168.5 131.5,-187.5 191.5,-187.5 191.5,-168.5 131.5,-168.5"/>
<text text-anchor="middle" x="161.5" y="-175.5" font-family="Helvetica,sans-Serif" font-size="10.00">Boolean.h</text>
</a>
</g>
</g>
<!-- Node1&#45;&gt;Node2 -->
<g id="edge1" class="edge">
<title>Node1&#45;&gt;Node2</title>
<path fill="none" stroke="midnightblue" d="M200.95,-280.31C195.47,-271.44 187.11,-257.16 181.5,-244 174.99,-228.73 169.6,-210.62 166.06,-197.4"/>
<polygon fill="midnightblue" stroke="midnightblue" points="169.42,-196.43 163.54,-187.62 162.64,-198.17 169.42,-196.43"/>
</g>
<!-- Node6 -->
<g id="node6" class="node">
<title>Node6</title>
<g id="a_node6"><a xlink:href="_midi_preset_identification_8h.html" target="_top" xlink:title="The MidiPresetIdentification specification defines the identification of a MIDI preset as a tuple of ...">
<polygon fill="white" stroke="black" points="190,-224.5 190,-243.5 315,-243.5 315,-224.5 190,-224.5"/>
<text text-anchor="middle" x="252.5" y="-231.5" font-family="Helvetica,sans-Serif" font-size="10.00">MidiPresetIdentification.h</text>
</a>
</g>
</g>
<!-- Node1&#45;&gt;Node6 -->
<g id="edge5" class="edge">
<title>Node1&#45;&gt;Node6</title>
<path fill="none" stroke="midnightblue" d="M214.1,-280.08C220.73,-272.3 230.52,-260.8 238.56,-251.37"/>
<polygon fill="midnightblue" stroke="midnightblue" points="241.23,-253.63 245.05,-243.75 235.9,-249.09 241.23,-253.63"/>
</g>
<!-- Node3 -->
<g id="node3" class="node">
<title>Node3</title>
<g id="a_node3"><a xlink:href="_my_string_8h.html" target="_top" xlink:title="The String specification defines a standard string type.">
<polygon fill="white" stroke="black" points="10.5,-56.5 10.5,-75.5 74.5,-75.5 74.5,-56.5 10.5,-56.5"/>
<text text-anchor="middle" x="42.5" y="-63.5" font-family="Helvetica,sans-Serif" font-size="10.00">MyString.h</text>
</a>
</g>
</g>
<!-- Node2&#45;&gt;Node3 -->
<g id="edge2" class="edge">
<title>Node2&#45;&gt;Node3</title>
<path fill="none" stroke="midnightblue" d="M152.16,-168.37C132.09,-149.81 84.6,-105.91 59.2,-82.44"/>
<polygon fill="midnightblue" stroke="midnightblue" points="61.51,-79.81 51.79,-75.59 56.76,-84.95 61.51,-79.81"/>
</g>
<!-- Node4 -->
<g id="node4" class="node">
<title>Node4</title>
<g id="a_node4"><a xlink:title=" ">
<polygon fill="white" stroke="#bfbfbf" points="104,-0.5 104,-19.5 145,-19.5 145,-0.5 104,-0.5"/>
<text text-anchor="middle" x="124.5" y="-7.5" font-family="Helvetica,sans-Serif" font-size="10.00">string</text>
</a>
</g>
</g>
<!-- Node3&#45;&gt;Node4 -->
<g id="edge3" class="edge">
<title>Node3&#45;&gt;Node4</title>
<path fill="none" stroke="midnightblue" d="M55.67,-56.32C68.35,-47.98 87.73,-35.21 102.71,-25.35"/>
<polygon fill="midnightblue" stroke="midnightblue" points="104.93,-28.08 111.36,-19.65 101.08,-22.23 104.93,-28.08"/>
</g>
<!-- Node5 -->
<g id="node5" class="node">
<title>Node5</title>
<g id="a_node5"><a xlink:href="_global_macros_8h.html" target="_top" xlink:title="The GlobalMacros specification defines simple macros (e.g. for parameter modes).">
<polygon fill="white" stroke="black" points="0,-0.5 0,-19.5 85,-19.5 85,-0.5 0,-0.5"/>
<text text-anchor="middle" x="42.5" y="-7.5" font-family="Helvetica,sans-Serif" font-size="10.00">GlobalMacros.h</text>
</a>
</g>
</g>
<!-- Node3&#45;&gt;Node5 -->
<g id="edge4" class="edge">
<title>Node3&#45;&gt;Node5</title>
<path fill="none" stroke="midnightblue" d="M42.5,-56.08C42.5,-49.01 42.5,-38.86 42.5,-29.99"/>
<polygon fill="midnightblue" stroke="midnightblue" points="46,-29.75 42.5,-19.75 39,-29.75 46,-29.75"/>
</g>
<!-- Node6&#45;&gt;Node2 -->
<g id="edge6" class="edge">
<title>Node6&#45;&gt;Node2</title>
<path fill="none" stroke="midnightblue" d="M237.88,-224.32C223.55,-215.82 201.49,-202.73 184.75,-192.8"/>
<polygon fill="midnightblue" stroke="midnightblue" points="186.47,-189.75 176.08,-187.65 182.9,-195.77 186.47,-189.75"/>
</g>
<!-- Node7 -->
<g id="node7" class="node">
<title>Node7</title>
<g id="a_node7"><a xlink:href="_integer_8h.html" target="_top" xlink:title="The Integer specification and body provides a value object type for ints.">
<polygon fill="white" stroke="black" points="245.5,-168.5 245.5,-187.5 299.5,-187.5 299.5,-168.5 245.5,-168.5"/>
<text text-anchor="middle" x="272.5" y="-175.5" font-family="Helvetica,sans-Serif" font-size="10.00">Integer.h</text>
</a>
</g>
</g>
<!-- Node6&#45;&gt;Node7 -->
<g id="edge7" class="edge">
<title>Node6&#45;&gt;Node7</title>
<path fill="none" stroke="midnightblue" d="M255.8,-224.08C258.48,-216.85 262.35,-206.41 265.69,-197.4"/>
<polygon fill="midnightblue" stroke="midnightblue" points="269.07,-198.34 269.26,-187.75 262.5,-195.91 269.07,-198.34"/>
</g>
<!-- Node8 -->
<g id="node8" class="node">
<title>Node8</title>
<g id="a_node8"><a xlink:title=" ">
<polygon fill="white" stroke="#bfbfbf" points="286.5,-56.5 286.5,-75.5 330.5,-75.5 330.5,-56.5 286.5,-56.5"/>
<text text-anchor="middle" x="308.5" y="-63.5" font-family="Helvetica,sans-Serif" font-size="10.00">cmath</text>
</a>
</g>
</g>
<!-- Node7&#45;&gt;Node8 -->
<g id="edge8" class="edge">
<title>Node7&#45;&gt;Node8</title>
<path fill="none" stroke="midnightblue" d="M275.32,-168.37C281.16,-150.54 294.66,-109.3 302.52,-85.27"/>
<polygon fill="midnightblue" stroke="midnightblue" points="305.9,-86.18 305.69,-75.59 299.25,-84.01 305.9,-86.18"/>
</g>
<!-- Node9 -->
<g id="node9" class="node">
<title>Node9</title>
<g id="a_node9"><a xlink:title=" ">
<polygon fill="white" stroke="#bfbfbf" points="246,-0.5 246,-19.5 305,-19.5 305,-0.5 246,-0.5"/>
<text text-anchor="middle" x="275.5" y="-7.5" font-family="Helvetica,sans-Serif" font-size="10.00">stdexcept</text>
</a>
</g>
</g>
<!-- Node7&#45;&gt;Node9 -->
<g id="edge9" class="edge">
<title>Node7&#45;&gt;Node9</title>
<path fill="none" stroke="midnightblue" d="M281.12,-168.24C296.58,-151.84 328.42,-114.63 339.5,-76 341.95,-67.46 343.6,-63.89 339.5,-56 332.35,-42.23 318.83,-31.78 306.05,-24.44"/>
<polygon fill="midnightblue" stroke="midnightblue" points="307.46,-21.23 296.98,-19.64 304.18,-27.41 307.46,-21.23"/>
</g>
<!-- Node10 -->
<g id="node10" class="node">
<title>Node10</title>
<g id="a_node10"><a xlink:href="_natural_8h.html" target="_top" xlink:title="The Natural specification and body provides a value object type for naturals (positive integers with ...">
<polygon fill="white" stroke="black" points="194.5,-112.5 194.5,-131.5 250.5,-131.5 250.5,-112.5 194.5,-112.5"/>
<text text-anchor="middle" x="222.5" y="-119.5" font-family="Helvetica,sans-Serif" font-size="10.00">Natural.h</text>
</a>
</g>
</g>
<!-- Node7&#45;&gt;Node10 -->
<g id="edge10" class="edge">
<title>Node7&#45;&gt;Node10</title>
<path fill="none" stroke="midnightblue" d="M264.24,-168.08C257.04,-160.3 246.39,-148.8 237.65,-139.37"/>
<polygon fill="midnightblue" stroke="midnightblue" points="239.97,-136.71 230.6,-131.75 234.83,-141.47 239.97,-136.71"/>
</g>
<!-- Node10&#45;&gt;Node3 -->
<g id="edge16" class="edge">
<title>Node10&#45;&gt;Node3</title>
<path fill="none" stroke="midnightblue" d="M194.38,-112.56C163.78,-103.38 114.69,-88.66 80.63,-78.44"/>
<polygon fill="midnightblue" stroke="midnightblue" points="81.61,-75.08 71.02,-75.56 79.59,-81.78 81.61,-75.08"/>
</g>
<!-- Node10&#45;&gt;Node8 -->
<g id="edge11" class="edge">
<title>Node10&#45;&gt;Node8</title>
<path fill="none" stroke="midnightblue" d="M236.32,-112.32C249.73,-103.9 270.32,-90.97 286.09,-81.07"/>
<polygon fill="midnightblue" stroke="midnightblue" points="288.11,-83.94 294.72,-75.65 284.39,-78.01 288.11,-83.94"/>
</g>
<!-- Node11 -->
<g id="node11" class="node">
<title>Node11</title>
<g id="a_node11"><a xlink:href="_assertion_8h.html" target="_top" xlink:title="The Assertion specification defines macros for pre&#45; and postconditions in functions or methods.">
<polygon fill="white" stroke="black" points="92.5,-56.5 92.5,-75.5 158.5,-75.5 158.5,-56.5 92.5,-56.5"/>
<text text-anchor="middle" x="125.5" y="-63.5" font-family="Helvetica,sans-Serif" font-size="10.00">Assertion.h</text>
</a>
</g>
</g>
<!-- Node10&#45;&gt;Node11 -->
<g id="edge12" class="edge">
<title>Node10&#45;&gt;Node11</title>
<path fill="none" stroke="midnightblue" d="M206.92,-112.32C191.5,-103.74 167.69,-90.49 149.79,-80.52"/>
<polygon fill="midnightblue" stroke="midnightblue" points="151.49,-77.46 141.05,-75.65 148.08,-83.58 151.49,-77.46"/>
</g>
<!-- Node12 -->
<g id="node12" class="node">
<title>Node12</title>
<g id="a_node12"><a xlink:title=" ">
<polygon fill="white" stroke="#bfbfbf" points="176.5,-56.5 176.5,-75.5 268.5,-75.5 268.5,-56.5 176.5,-56.5"/>
<text text-anchor="middle" x="222.5" y="-63.5" font-family="Helvetica,sans-Serif" font-size="10.00">GenericNumber.h</text>
</a>
</g>
</g>
<!-- Node10&#45;&gt;Node12 -->
<g id="edge15" class="edge">
<title>Node10&#45;&gt;Node12</title>
<path fill="none" stroke="midnightblue" d="M222.5,-112.08C222.5,-105.01 222.5,-94.86 222.5,-85.99"/>
<polygon fill="midnightblue" stroke="midnightblue" points="226,-85.75 222.5,-75.75 219,-85.75 226,-85.75"/>
</g>
<!-- Node11&#45;&gt;Node4 -->
<g id="edge14" class="edge">
<title>Node11&#45;&gt;Node4</title>
<path fill="none" stroke="midnightblue" d="M125.33,-56.08C125.2,-49.01 125.02,-38.86 124.85,-29.99"/>
<polygon fill="midnightblue" stroke="midnightblue" points="128.35,-29.68 124.66,-19.75 121.35,-29.81 128.35,-29.68"/>
</g>
<!-- Node11&#45;&gt;Node9 -->
<g id="edge13" class="edge">
<title>Node11&#45;&gt;Node9</title>
<path fill="none" stroke="midnightblue" d="M149.27,-56.44C174.39,-47.4 214.21,-33.06 242.4,-22.92"/>
<polygon fill="midnightblue" stroke="midnightblue" points="243.62,-26.2 251.84,-19.52 241.25,-19.61 243.62,-26.2"/>
</g>
</g>
</svg>
