<?xml version="1.0" encoding="UTF-8" standalone="no"?>
<!DOCTYPE svg PUBLIC "-//W3C//DTD SVG 1.1//EN"
 "http://www.w3.org/Graphics/SVG/1.1/DTD/svg11.dtd">
<!-- Generated by graphviz version 2.47.1 (20210417.1919)
 -->
<!-- Title: FluidSynthSynthesizer.h Pages: 1 -->
<svg width="304pt" height="86pt"
 viewBox="0.00 0.00 304.00 86.00" xmlns="http://www.w3.org/2000/svg" xmlns:xlink="http://www.w3.org/1999/xlink">
<g id="graph0" class="graph" transform="scale(1 1) rotate(0) translate(4 82)">
<title>FluidSynthSynthesizer.h</title>
<polygon fill="white" stroke="transparent" points="-4,4 -4,-82 300,-82 300,4 -4,4"/>
<!-- Node1 -->
<g id="node1" class="node">
<title>Node1</title>
<g id="a_node1"><a xlink:title="The FluidSynthSynthesizer class specifies an object&#45;oriented wrapper around an underlying fluidsynth ...">
<polygon fill="#bfbfbf" stroke="black" points="84,-57.5 84,-77.5 218,-77.5 218,-57.5 84,-57.5"/>
<text text-anchor="middle" x="151" y="-64.7" font-family="Helvetica,sans-Serif" font-size="11.00">FluidSynthSynthesizer.h</text>
</a>
</g>
</g>
<!-- Node2 -->
<g id="node2" class="node">
<title>Node2</title>
<g id="a_node2"><a xlink:href="_fluid_synth_synthesizer_8cpp.html" target="_top" xlink:title="The FluidSynthSynthesizer class implements an object&#45;oriented wrapper around an underlying fluidsynth...">
<polygon fill="white" stroke="black" points="0,-0.5 0,-20.5 146,-20.5 146,-0.5 0,-0.5"/>
<text text-anchor="middle" x="73" y="-7.7" font-family="Helvetica,sans-Serif" font-size="11.00">FluidSynthSynthesizer.cpp</text>
</a>
</g>
</g>
<!-- Node1&#45;&gt;Node2 -->
<g id="edge1" class="edge">
<title>Node1&#45;&gt;Node2</title>
<path fill="none" stroke="midnightblue" d="M129.57,-51.39C115.58,-41.52 97.76,-28.96 85.9,-20.6"/>
<polygon fill="midnightblue" stroke="midnightblue" points="127.93,-54.52 138.12,-57.42 131.96,-48.79 127.93,-54.52"/>
</g>
<!-- Node3 -->
<g id="node3" class="node">
<title>Node3</title>
<g id="a_node3"><a xlink:href="_midi_event_converter_8cpp.html" target="_top" xlink:title="The MidiEventConverter module implements the handling of MIDI events by feeding them to an underlying...">
<polygon fill="white" stroke="black" points="164,-0.5 164,-20.5 296,-20.5 296,-0.5 164,-0.5"/>
<text text-anchor="middle" x="230" y="-7.7" font-family="Helvetica,sans-Serif" font-size="11.00">MidiEventConverter.cpp</text>
</a>
</g>
</g>
<!-- Node1&#45;&gt;Node3 -->
<g id="edge2" class="edge">
<title>Node1&#45;&gt;Node3</title>
<path fill="none" stroke="midnightblue" d="M172.3,-51.67C186.53,-41.76 204.81,-29.04 216.94,-20.6"/>
<polygon fill="midnightblue" stroke="midnightblue" points="170.25,-48.83 164.05,-57.42 174.25,-54.58 170.25,-48.83"/>
</g>
</g>
</svg>
