<?xml version="1.0" encoding="UTF-8" standalone="no"?>
<!DOCTYPE svg PUBLIC "-//W3C//DTD SVG 1.1//EN"
 "http://www.w3.org/Graphics/SVG/1.1/DTD/svg11.dtd">
<!-- Generated by graphviz version 2.47.1 (20210417.1919)
 -->
<!-- Title: FluidSynthSettings.cpp Pages: 1 -->
<svg width="739pt" height="485pt"
 viewBox="0.00 0.00 739.00 485.00" xmlns="http://www.w3.org/2000/svg" xmlns:xlink="http://www.w3.org/1999/xlink">
<g id="graph0" class="graph" transform="scale(1 1) rotate(0) translate(4 481)">
<title>FluidSynthSettings.cpp</title>
<polygon fill="white" stroke="transparent" points="-4,4 -4,-481 735,-481 735,4 -4,4"/>
<!-- Node1 -->
<g id="node1" class="node">
<title>Node1</title>
<g id="a_node1"><a xlink:title="The FluidSynthSettings class implements an object&#45;oriented wrapper around an underlying fluidsynth se...">
<polygon fill="#bfbfbf" stroke="black" points="462,-456.5 462,-476.5 590,-476.5 590,-456.5 462,-456.5"/>
<text text-anchor="middle" x="526" y="-463.7" font-family="Helvetica,sans-Serif" font-size="11.00">FluidSynthSettings.cpp</text>
</a>
</g>
</g>
<!-- Node2 -->
<g id="node2" class="node">
<title>Node2</title>
<g id="a_node2"><a xlink:href="_logging_8h.html" target="_top" xlink:title="The Logging specification defines macros for entry&#45;, exit&#45; and intermediate logging of functions into...">
<polygon fill="white" stroke="black" points="278,-399.5 278,-419.5 342,-419.5 342,-399.5 278,-399.5"/>
<text text-anchor="middle" x="310" y="-406.7" font-family="Helvetica,sans-Serif" font-size="11.00">Logging.h</text>
</a>
</g>
</g>
<!-- Node1&#45;&gt;Node2 -->
<g id="edge1" class="edge">
<title>Node1&#45;&gt;Node2</title>
<path fill="none" stroke="midnightblue" d="M490.33,-456.42C452.33,-446.74 392.22,-431.44 351.97,-421.19"/>
<polygon fill="midnightblue" stroke="midnightblue" points="352.75,-417.77 342.19,-418.7 351.02,-424.56 352.75,-417.77"/>
</g>
<!-- Node24 -->
<g id="node24" class="node">
<title>Node24</title>
<g id="a_node24"><a xlink:href="_dictionary_8h.html" target="_top" xlink:title="The Dictionary specification defines maps from string keys to string values.">
<polygon fill="white" stroke="black" points="651,-399.5 651,-419.5 725,-419.5 725,-399.5 651,-399.5"/>
<text text-anchor="middle" x="688" y="-406.7" font-family="Helvetica,sans-Serif" font-size="11.00">Dictionary.h</text>
</a>
</g>
</g>
<!-- Node1&#45;&gt;Node24 -->
<g id="edge31" class="edge">
<title>Node1&#45;&gt;Node24</title>
<path fill="none" stroke="midnightblue" d="M552.75,-456.42C579.8,-447.23 621.78,-432.98 651.8,-422.79"/>
<polygon fill="midnightblue" stroke="midnightblue" points="653.13,-426.03 661.48,-419.5 650.88,-419.4 653.13,-426.03"/>
</g>
<!-- Node26 -->
<g id="node26" class="node">
<title>Node26</title>
<g id="a_node26"><a xlink:href="_dynamic_library_8h.html" target="_top" xlink:title="The DynamicLibrary class specifies a very simple and crude wrapper around the dynamic library loading...">
<polygon fill="white" stroke="black" points="431,-342.5 431,-362.5 533,-362.5 533,-342.5 431,-342.5"/>
<text text-anchor="middle" x="482" y="-349.7" font-family="Helvetica,sans-Serif" font-size="11.00">DynamicLibrary.h</text>
</a>
</g>
</g>
<!-- Node1&#45;&gt;Node26 -->
<g id="edge33" class="edge">
<title>Node1&#45;&gt;Node26</title>
<path fill="none" stroke="midnightblue" d="M521.68,-456.17C517.49,-447.02 511.06,-432.66 506,-420 499.6,-403.99 493,-385.53 488.34,-372.13"/>
<polygon fill="midnightblue" stroke="midnightblue" points="491.63,-370.93 485.07,-362.61 485.01,-373.2 491.63,-370.93"/>
</g>
<!-- Node28 -->
<g id="node28" class="node">
<title>Node28</title>
<g id="a_node28"><a xlink:href="_fluid_synth_settings_8h.html" target="_top" xlink:title="The FluidSynthSettings class specifies an object&#45;oriented wrapper around an underlying fluidsynth set...">
<polygon fill="white" stroke="black" points="515,-399.5 515,-419.5 631,-419.5 631,-399.5 515,-399.5"/>
<text text-anchor="middle" x="573" y="-406.7" font-family="Helvetica,sans-Serif" font-size="11.00">FluidSynthSettings.h</text>
</a>
</g>
</g>
<!-- Node1&#45;&gt;Node28 -->
<g id="edge36" class="edge">
<title>Node1&#45;&gt;Node28</title>
<path fill="none" stroke="midnightblue" d="M533.76,-456.42C540.46,-448.58 550.31,-437.06 558.46,-427.51"/>
<polygon fill="midnightblue" stroke="midnightblue" points="561.23,-429.66 565.07,-419.78 555.91,-425.11 561.23,-429.66"/>
</g>
<!-- Node3 -->
<g id="node3" class="node">
<title>Node3</title>
<g id="a_node3"><a xlink:title=" ">
<polygon fill="white" stroke="#bfbfbf" points="152.5,-342.5 152.5,-362.5 205.5,-362.5 205.5,-342.5 152.5,-342.5"/>
<text text-anchor="middle" x="179" y="-349.7" font-family="Helvetica,sans-Serif" font-size="11.00">cstdarg</text>
</a>
</g>
</g>
<!-- Node2&#45;&gt;Node3 -->
<g id="edge2" class="edge">
<title>Node2&#45;&gt;Node3</title>
<path fill="none" stroke="midnightblue" d="M288.37,-399.42C267.04,-390.46 234.21,-376.68 210.09,-366.55"/>
<polygon fill="midnightblue" stroke="midnightblue" points="211.24,-363.24 200.66,-362.6 208.53,-369.69 211.24,-363.24"/>
</g>
<!-- Node4 -->
<g id="node4" class="node">
<title>Node4</title>
<g id="a_node4"><a xlink:href="_logging_support_8h.html" target="_top" xlink:title="The LoggingSupport specification defines a class for simple entry/exit logging to a file; this loggin...">
<polygon fill="white" stroke="black" points="311,-342.5 311,-362.5 413,-362.5 413,-342.5 311,-342.5"/>
<text text-anchor="middle" x="362" y="-349.7" font-family="Helvetica,sans-Serif" font-size="11.00">LoggingSupport.h</text>
</a>
</g>
</g>
<!-- Node2&#45;&gt;Node4 -->
<g id="edge3" class="edge">
<title>Node2&#45;&gt;Node4</title>
<path fill="none" stroke="midnightblue" d="M318.59,-399.42C326.07,-391.5 337.11,-379.82 346.19,-370.23"/>
<polygon fill="midnightblue" stroke="midnightblue" points="348.9,-372.45 353.23,-362.78 343.81,-367.64 348.9,-372.45"/>
</g>
<!-- Node14 -->
<g id="node14" class="node">
<title>Node14</title>
<g id="a_node14"><a xlink:href="_string_util_8h.html" target="_top" xlink:title="The StringUtil specification defines several string routines not included in the standard C++ library...">
<polygon fill="white" stroke="black" points="223.5,-342.5 223.5,-362.5 292.5,-362.5 292.5,-342.5 223.5,-342.5"/>
<text text-anchor="middle" x="258" y="-349.7" font-family="Helvetica,sans-Serif" font-size="11.00">StringUtil.h</text>
</a>
</g>
</g>
<!-- Node2&#45;&gt;Node14 -->
<g id="edge14" class="edge">
<title>Node2&#45;&gt;Node14</title>
<path fill="none" stroke="midnightblue" d="M301.41,-399.42C293.93,-391.5 282.89,-379.82 273.81,-370.23"/>
<polygon fill="midnightblue" stroke="midnightblue" points="276.19,-367.64 266.77,-362.78 271.1,-372.45 276.19,-367.64"/>
</g>
<!-- Node5 -->
<g id="node5" class="node">
<title>Node5</title>
<g id="a_node5"><a xlink:href="_boolean_8h.html" target="_top" xlink:title="The Boolean specification and body provides a value object type for boolean values.">
<polygon fill="white" stroke="black" points="407.5,-285.5 407.5,-305.5 472.5,-305.5 472.5,-285.5 407.5,-285.5"/>
<text text-anchor="middle" x="440" y="-292.7" font-family="Helvetica,sans-Serif" font-size="11.00">Boolean.h</text>
</a>
</g>
</g>
<!-- Node4&#45;&gt;Node5 -->
<g id="edge4" class="edge">
<title>Node4&#45;&gt;Node5</title>
<path fill="none" stroke="midnightblue" d="M374.88,-342.42C386.74,-334.06 404.55,-321.5 418.55,-311.62"/>
<polygon fill="midnightblue" stroke="midnightblue" points="420.95,-314.22 427.1,-305.6 416.91,-308.5 420.95,-314.22"/>
</g>
<!-- Node9 -->
<g id="node9" class="node">
<title>Node9</title>
<g id="a_node9"><a xlink:href="_natural_8h.html" target="_top" xlink:title="The Natural specification and body provides a value object type for naturals (positive integers with ...">
<polygon fill="white" stroke="black" points="331,-114.5 331,-134.5 391,-134.5 391,-114.5 331,-114.5"/>
<text text-anchor="middle" x="361" y="-121.7" font-family="Helvetica,sans-Serif" font-size="11.00">Natural.h</text>
</a>
</g>
</g>
<!-- Node4&#45;&gt;Node9 -->
<g id="edge8" class="edge">
<title>Node4&#45;&gt;Node9</title>
<path fill="none" stroke="midnightblue" d="M361.96,-342.36C361.81,-308.71 361.29,-191.27 361.09,-144.72"/>
<polygon fill="midnightblue" stroke="midnightblue" points="364.58,-144.49 361.04,-134.51 357.58,-144.52 364.58,-144.49"/>
</g>
<!-- Node6 -->
<g id="node6" class="node">
<title>Node6</title>
<g id="a_node6"><a xlink:href="_my_string_8h.html" target="_top" xlink:title="The String specification defines a standard string type.">
<polygon fill="white" stroke="black" points="439,-57.5 439,-77.5 507,-77.5 507,-57.5 439,-57.5"/>
<text text-anchor="middle" x="473" y="-64.7" font-family="Helvetica,sans-Serif" font-size="11.00">MyString.h</text>
</a>
</g>
</g>
<!-- Node5&#45;&gt;Node6 -->
<g id="edge5" class="edge">
<title>Node5&#45;&gt;Node6</title>
<path fill="none" stroke="midnightblue" d="M441.33,-285.36C446.26,-251.64 463.47,-133.77 470.24,-87.42"/>
<polygon fill="midnightblue" stroke="midnightblue" points="473.7,-87.91 471.69,-77.51 466.78,-86.89 473.7,-87.91"/>
</g>
<!-- Node7 -->
<g id="node7" class="node">
<title>Node7</title>
<g id="a_node7"><a xlink:title=" ">
<polygon fill="white" stroke="#bfbfbf" points="494,-0.5 494,-20.5 538,-20.5 538,-0.5 494,-0.5"/>
<text text-anchor="middle" x="516" y="-7.7" font-family="Helvetica,sans-Serif" font-size="11.00">string</text>
</a>
</g>
</g>
<!-- Node6&#45;&gt;Node7 -->
<g id="edge6" class="edge">
<title>Node6&#45;&gt;Node7</title>
<path fill="none" stroke="midnightblue" d="M480.1,-57.42C486.16,-49.66 495.06,-38.29 502.47,-28.8"/>
<polygon fill="midnightblue" stroke="midnightblue" points="505.34,-30.81 508.75,-20.78 499.83,-26.5 505.34,-30.81"/>
</g>
<!-- Node8 -->
<g id="node8" class="node">
<title>Node8</title>
<g id="a_node8"><a xlink:href="_global_macros_8h.html" target="_top" xlink:title="The GlobalMacros specification defines simple macros (e.g. for parameter modes).">
<polygon fill="white" stroke="black" points="384,-0.5 384,-20.5 476,-20.5 476,-0.5 384,-0.5"/>
<text text-anchor="middle" x="430" y="-7.7" font-family="Helvetica,sans-Serif" font-size="11.00">GlobalMacros.h</text>
</a>
</g>
</g>
<!-- Node6&#45;&gt;Node8 -->
<g id="edge7" class="edge">
<title>Node6&#45;&gt;Node8</title>
<path fill="none" stroke="midnightblue" d="M465.9,-57.42C459.84,-49.66 450.94,-38.29 443.53,-28.8"/>
<polygon fill="midnightblue" stroke="midnightblue" points="446.17,-26.5 437.25,-20.78 440.66,-30.81 446.17,-26.5"/>
</g>
<!-- Node9&#45;&gt;Node6 -->
<g id="edge13" class="edge">
<title>Node9&#45;&gt;Node6</title>
<path fill="none" stroke="midnightblue" d="M379.49,-114.42C397.41,-105.62 424.8,-92.17 445.31,-82.1"/>
<polygon fill="midnightblue" stroke="midnightblue" points="447.04,-85.15 454.48,-77.6 443.96,-78.86 447.04,-85.15"/>
</g>
<!-- Node10 -->
<g id="node10" class="node">
<title>Node10</title>
<g id="a_node10"><a xlink:title=" ">
<polygon fill="white" stroke="#bfbfbf" points="163.5,-57.5 163.5,-77.5 210.5,-77.5 210.5,-57.5 163.5,-57.5"/>
<text text-anchor="middle" x="187" y="-64.7" font-family="Helvetica,sans-Serif" font-size="11.00">cmath</text>
</a>
</g>
</g>
<!-- Node9&#45;&gt;Node10 -->
<g id="edge9" class="edge">
<title>Node9&#45;&gt;Node10</title>
<path fill="none" stroke="midnightblue" d="M332.27,-114.42C301.61,-104.73 253.08,-89.39 220.66,-79.14"/>
<polygon fill="midnightblue" stroke="midnightblue" points="221.33,-75.68 210.74,-76 219.22,-82.35 221.33,-75.68"/>
</g>
<!-- Node11 -->
<g id="node11" class="node">
<title>Node11</title>
<g id="a_node11"><a xlink:href="_assertion_8h.html" target="_top" xlink:title="The Assertion specification defines macros for pre&#45; and postconditions in functions or methods.">
<polygon fill="white" stroke="black" points="228.5,-57.5 228.5,-77.5 299.5,-77.5 299.5,-57.5 228.5,-57.5"/>
<text text-anchor="middle" x="264" y="-64.7" font-family="Helvetica,sans-Serif" font-size="11.00">Assertion.h</text>
</a>
</g>
</g>
<!-- Node9&#45;&gt;Node11 -->
<g id="edge10" class="edge">
<title>Node9&#45;&gt;Node11</title>
<path fill="none" stroke="midnightblue" d="M344.98,-114.42C329.82,-105.82 306.81,-92.78 289.19,-82.78"/>
<polygon fill="midnightblue" stroke="midnightblue" points="290.47,-79.48 280.04,-77.6 287.01,-85.57 290.47,-79.48"/>
</g>
<!-- Node13 -->
<g id="node13" class="node">
<title>Node13</title>
<g id="a_node13"><a xlink:title=" ">
<polygon fill="white" stroke="#bfbfbf" points="317.5,-57.5 317.5,-77.5 420.5,-77.5 420.5,-57.5 317.5,-57.5"/>
<text text-anchor="middle" x="369" y="-64.7" font-family="Helvetica,sans-Serif" font-size="11.00">GenericNumber.h</text>
</a>
</g>
</g>
<!-- Node9&#45;&gt;Node13 -->
<g id="edge12" class="edge">
<title>Node9&#45;&gt;Node13</title>
<path fill="none" stroke="midnightblue" d="M362.32,-114.42C363.37,-107.22 364.87,-96.9 366.18,-87.86"/>
<polygon fill="midnightblue" stroke="midnightblue" points="369.67,-88.18 367.65,-77.78 362.75,-87.17 369.67,-88.18"/>
</g>
<!-- Node12 -->
<g id="node12" class="node">
<title>Node12</title>
<g id="a_node12"><a xlink:title=" ">
<polygon fill="white" stroke="#bfbfbf" points="237.5,-0.5 237.5,-20.5 290.5,-20.5 290.5,-0.5 237.5,-0.5"/>
<text text-anchor="middle" x="264" y="-7.7" font-family="Helvetica,sans-Serif" font-size="11.00">cassert</text>
</a>
</g>
</g>
<!-- Node11&#45;&gt;Node12 -->
<g id="edge11" class="edge">
<title>Node11&#45;&gt;Node12</title>
<path fill="none" stroke="midnightblue" d="M264,-57.42C264,-50.22 264,-39.9 264,-30.86"/>
<polygon fill="midnightblue" stroke="midnightblue" points="267.5,-30.78 264,-20.78 260.5,-30.78 267.5,-30.78"/>
</g>
<!-- Node14&#45;&gt;Node5 -->
<g id="edge15" class="edge">
<title>Node14&#45;&gt;Node5</title>
<path fill="none" stroke="midnightblue" d="M288.05,-342.42C318.71,-333.15 366.43,-318.73 400.2,-308.53"/>
<polygon fill="midnightblue" stroke="midnightblue" points="401.64,-311.75 410.2,-305.5 399.62,-305.05 401.64,-311.75"/>
</g>
<!-- Node15 -->
<g id="node15" class="node">
<title>Node15</title>
<g id="a_node15"><a xlink:href="_character_8h.html" target="_top" xlink:title="The Character specification and body provides a value object type for character values.">
<polygon fill="white" stroke="black" points="262,-228.5 262,-248.5 336,-248.5 336,-228.5 262,-228.5"/>
<text text-anchor="middle" x="299" y="-235.7" font-family="Helvetica,sans-Serif" font-size="11.00">Character.h</text>
</a>
</g>
</g>
<!-- Node14&#45;&gt;Node15 -->
<g id="edge16" class="edge">
<title>Node14&#45;&gt;Node15</title>
<path fill="none" stroke="midnightblue" d="M261.36,-342.33C268.05,-324.04 283.2,-282.67 292.1,-258.34"/>
<polygon fill="midnightblue" stroke="midnightblue" points="295.45,-259.39 295.6,-248.79 288.87,-256.98 295.45,-259.39"/>
</g>
<!-- Node17 -->
<g id="node17" class="node">
<title>Node17</title>
<g id="a_node17"><a xlink:href="_percentage_8h.html" target="_top" xlink:title="The Percentage specification and body provides a simple percentage type.">
<polygon fill="white" stroke="black" points="26,-285.5 26,-305.5 108,-305.5 108,-285.5 26,-285.5"/>
<text text-anchor="middle" x="67" y="-292.7" font-family="Helvetica,sans-Serif" font-size="11.00">Percentage.h</text>
</a>
</g>
</g>
<!-- Node14&#45;&gt;Node17 -->
<g id="edge21" class="edge">
<title>Node14&#45;&gt;Node17</title>
<path fill="none" stroke="midnightblue" d="M226.46,-342.42C194.15,-333.12 143.78,-318.61 108.31,-308.39"/>
<polygon fill="midnightblue" stroke="midnightblue" points="108.85,-304.91 98.27,-305.5 106.91,-311.63 108.85,-304.91"/>
</g>
<!-- Node21 -->
<g id="node21" class="node">
<title>Node21</title>
<g id="a_node21"><a xlink:href="_string_list_8h.html" target="_top" xlink:title="The StringList specification defines lists of string values with zero&#45;based arbitrary indexed access ...">
<polygon fill="white" stroke="black" points="169.5,-285.5 169.5,-305.5 240.5,-305.5 240.5,-285.5 169.5,-285.5"/>
<text text-anchor="middle" x="205" y="-292.7" font-family="Helvetica,sans-Serif" font-size="11.00">StringList.h</text>
</a>
</g>
</g>
<!-- Node14&#45;&gt;Node21 -->
<g id="edge28" class="edge">
<title>Node14&#45;&gt;Node21</title>
<path fill="none" stroke="midnightblue" d="M249.25,-342.42C241.62,-334.5 230.37,-322.82 221.12,-313.23"/>
<polygon fill="midnightblue" stroke="midnightblue" points="223.4,-310.55 213.94,-305.78 218.36,-315.41 223.4,-310.55"/>
</g>
<!-- Node15&#45;&gt;Node10 -->
<g id="edge17" class="edge">
<title>Node15&#45;&gt;Node10</title>
<path fill="none" stroke="midnightblue" d="M297.49,-228.44C295.02,-215.21 289.33,-190.09 279,-171 260.01,-135.91 226.69,-103.02 205.79,-84.37"/>
<polygon fill="midnightblue" stroke="midnightblue" points="208.02,-81.67 198.19,-77.72 203.41,-86.94 208.02,-81.67"/>
</g>
<!-- Node16 -->
<g id="node16" class="node">
<title>Node16</title>
<g id="a_node16"><a xlink:href="_byte_8h.html" target="_top" xlink:title="The Byte specification and body provides a value object type for byte values.">
<polygon fill="white" stroke="black" points="223.5,-171.5 223.5,-191.5 270.5,-191.5 270.5,-171.5 223.5,-171.5"/>
<text text-anchor="middle" x="247" y="-178.7" font-family="Helvetica,sans-Serif" font-size="11.00">Byte.h</text>
</a>
</g>
</g>
<!-- Node15&#45;&gt;Node16 -->
<g id="edge18" class="edge">
<title>Node15&#45;&gt;Node16</title>
<path fill="none" stroke="midnightblue" d="M290.41,-228.42C282.93,-220.5 271.89,-208.82 262.81,-199.23"/>
<polygon fill="midnightblue" stroke="midnightblue" points="265.19,-196.64 255.77,-191.78 260.1,-201.45 265.19,-196.64"/>
</g>
<!-- Node16&#45;&gt;Node9 -->
<g id="edge20" class="edge">
<title>Node16&#45;&gt;Node9</title>
<path fill="none" stroke="midnightblue" d="M265.82,-171.42C284.14,-162.58 312.19,-149.05 333.1,-138.96"/>
<polygon fill="midnightblue" stroke="midnightblue" points="334.66,-142.09 342.15,-134.6 331.62,-135.79 334.66,-142.09"/>
</g>
<!-- Node16&#45;&gt;Node10 -->
<g id="edge19" class="edge">
<title>Node16&#45;&gt;Node10</title>
<path fill="none" stroke="midnightblue" d="M242.09,-171.33C232.2,-152.88 209.73,-110.92 196.75,-86.69"/>
<polygon fill="midnightblue" stroke="midnightblue" points="199.79,-84.95 191.98,-77.79 193.61,-88.26 199.79,-84.95"/>
</g>
<!-- Node18 -->
<g id="node18" class="node">
<title>Node18</title>
<g id="a_node18"><a xlink:href="_real_8h.html" target="_top" xlink:title="The Real specification defines a value object type for real values.">
<polygon fill="white" stroke="black" points="0,-228.5 0,-248.5 48,-248.5 48,-228.5 0,-228.5"/>
<text text-anchor="middle" x="24" y="-235.7" font-family="Helvetica,sans-Serif" font-size="11.00">Real.h</text>
</a>
</g>
</g>
<!-- Node17&#45;&gt;Node18 -->
<g id="edge22" class="edge">
<title>Node17&#45;&gt;Node18</title>
<path fill="none" stroke="midnightblue" d="M59.9,-285.42C53.84,-277.66 44.94,-266.29 37.53,-256.8"/>
<polygon fill="midnightblue" stroke="midnightblue" points="40.17,-254.5 31.25,-248.78 34.66,-258.81 40.17,-254.5"/>
</g>
<!-- Node18&#45;&gt;Node10 -->
<g id="edge23" class="edge">
<title>Node18&#45;&gt;Node10</title>
<path fill="none" stroke="midnightblue" d="M48.15,-229.65C76.56,-220.08 121.58,-203.71 135,-192 166.44,-164.56 179.35,-114.94 184.26,-87.7"/>
<polygon fill="midnightblue" stroke="midnightblue" points="187.77,-87.95 185.91,-77.52 180.86,-86.83 187.77,-87.95"/>
</g>
<!-- Node19 -->
<g id="node19" class="node">
<title>Node19</title>
<g id="a_node19"><a xlink:href="_integer_8h.html" target="_top" xlink:title="The Integer specification and body provides a value object type for ints.">
<polygon fill="white" stroke="black" points="67.5,-171.5 67.5,-191.5 126.5,-191.5 126.5,-171.5 67.5,-171.5"/>
<text text-anchor="middle" x="97" y="-178.7" font-family="Helvetica,sans-Serif" font-size="11.00">Integer.h</text>
</a>
</g>
</g>
<!-- Node18&#45;&gt;Node19 -->
<g id="edge24" class="edge">
<title>Node18&#45;&gt;Node19</title>
<path fill="none" stroke="midnightblue" d="M36.05,-228.42C47.08,-220.11 63.62,-207.65 76.69,-197.8"/>
<polygon fill="midnightblue" stroke="midnightblue" points="78.8,-200.59 84.68,-191.78 74.59,-195 78.8,-200.59"/>
</g>
<!-- Node19&#45;&gt;Node9 -->
<g id="edge27" class="edge">
<title>Node19&#45;&gt;Node9</title>
<path fill="none" stroke="midnightblue" d="M126.52,-174.35C174.04,-164.45 267.6,-144.96 321.05,-133.82"/>
<polygon fill="midnightblue" stroke="midnightblue" points="321.79,-137.24 330.86,-131.78 320.36,-130.39 321.79,-137.24"/>
</g>
<!-- Node19&#45;&gt;Node10 -->
<g id="edge25" class="edge">
<title>Node19&#45;&gt;Node10</title>
<path fill="none" stroke="midnightblue" d="M91.64,-171.07C84.65,-157.38 74.57,-131.69 86,-114 100.82,-91.07 130.27,-79.58 153.56,-73.89"/>
<polygon fill="midnightblue" stroke="midnightblue" points="154.41,-77.29 163.43,-71.73 152.92,-70.45 154.41,-77.29"/>
</g>
<!-- Node20 -->
<g id="node20" class="node">
<title>Node20</title>
<g id="a_node20"><a xlink:title=" ">
<polygon fill="white" stroke="#bfbfbf" points="95,-114.5 95,-134.5 159,-134.5 159,-114.5 95,-114.5"/>
<text text-anchor="middle" x="127" y="-121.7" font-family="Helvetica,sans-Serif" font-size="11.00">stdexcept</text>
</a>
</g>
</g>
<!-- Node19&#45;&gt;Node20 -->
<g id="edge26" class="edge">
<title>Node19&#45;&gt;Node20</title>
<path fill="none" stroke="midnightblue" d="M101.95,-171.42C106.05,-163.9 112.01,-152.98 117.08,-143.68"/>
<polygon fill="midnightblue" stroke="midnightblue" points="120.22,-145.23 121.94,-134.78 114.08,-141.88 120.22,-145.23"/>
</g>
<!-- Node22 -->
<g id="node22" class="node">
<title>Node22</title>
<g id="a_node22"><a xlink:title=" ">
<polygon fill="white" stroke="#bfbfbf" points="166,-228.5 166,-248.5 244,-248.5 244,-228.5 166,-228.5"/>
<text text-anchor="middle" x="205" y="-235.7" font-family="Helvetica,sans-Serif" font-size="11.00">initializer_list</text>
</a>
</g>
</g>
<!-- Node21&#45;&gt;Node22 -->
<g id="edge29" class="edge">
<title>Node21&#45;&gt;Node22</title>
<path fill="none" stroke="midnightblue" d="M205,-285.42C205,-278.22 205,-267.9 205,-258.86"/>
<polygon fill="midnightblue" stroke="midnightblue" points="208.5,-258.78 205,-248.78 201.5,-258.78 208.5,-258.78"/>
</g>
<!-- Node23 -->
<g id="node23" class="node">
<title>Node23</title>
<g id="a_node23"><a xlink:title=" ">
<polygon fill="white" stroke="#bfbfbf" points="66.5,-228.5 66.5,-248.5 147.5,-248.5 147.5,-228.5 66.5,-228.5"/>
<text text-anchor="middle" x="107" y="-235.7" font-family="Helvetica,sans-Serif" font-size="11.00">GenericList.h</text>
</a>
</g>
</g>
<!-- Node21&#45;&gt;Node23 -->
<g id="edge30" class="edge">
<title>Node21&#45;&gt;Node23</title>
<path fill="none" stroke="midnightblue" d="M188.82,-285.42C173.35,-276.74 149.82,-263.53 131.96,-253.51"/>
<polygon fill="midnightblue" stroke="midnightblue" points="133.64,-250.44 123.21,-248.6 130.21,-256.54 133.64,-250.44"/>
</g>
<!-- Node25 -->
<g id="node25" class="node">
<title>Node25</title>
<g id="a_node25"><a xlink:title=" ">
<polygon fill="white" stroke="#bfbfbf" points="647,-342.5 647,-362.5 731,-362.5 731,-342.5 647,-342.5"/>
<text text-anchor="middle" x="689" y="-349.7" font-family="Helvetica,sans-Serif" font-size="11.00">GenericMap.h</text>
</a>
</g>
</g>
<!-- Node24&#45;&gt;Node25 -->
<g id="edge32" class="edge">
<title>Node24&#45;&gt;Node25</title>
<path fill="none" stroke="midnightblue" d="M688.17,-399.42C688.3,-392.22 688.48,-381.9 688.65,-372.86"/>
<polygon fill="midnightblue" stroke="midnightblue" points="692.15,-372.84 688.83,-362.78 685.15,-372.71 692.15,-372.84"/>
</g>
<!-- Node26&#45;&gt;Node5 -->
<g id="edge34" class="edge">
<title>Node26&#45;&gt;Node5</title>
<path fill="none" stroke="midnightblue" d="M475.06,-342.42C469.14,-334.66 460.46,-323.29 453.21,-313.8"/>
<polygon fill="midnightblue" stroke="midnightblue" points="455.94,-311.6 447.09,-305.78 450.37,-315.85 455.94,-311.6"/>
</g>
<!-- Node27 -->
<g id="node27" class="node">
<title>Node27</title>
<g id="a_node27"><a xlink:href="_object_8h.html" target="_top" xlink:title="The Object specification and body provides the root object type.">
<polygon fill="white" stroke="black" points="498,-285.5 498,-305.5 556,-305.5 556,-285.5 498,-285.5"/>
<text text-anchor="middle" x="527" y="-292.7" font-family="Helvetica,sans-Serif" font-size="11.00">Object.h</text>
</a>
</g>
</g>
<!-- Node26&#45;&gt;Node27 -->
<g id="edge35" class="edge">
<title>Node26&#45;&gt;Node27</title>
<path fill="none" stroke="midnightblue" d="M489.43,-342.42C495.78,-334.66 505.08,-323.29 512.84,-313.8"/>
<polygon fill="midnightblue" stroke="midnightblue" points="515.78,-315.74 519.41,-305.78 510.37,-311.3 515.78,-315.74"/>
</g>
<!-- Node29 -->
<g id="node29" class="node">
<title>Node29</title>
<g id="a_node29"><a xlink:href="_fluid_synth_8h.html" target="_top" xlink:title="The FluidSynth class specifies an object&#45;oriented wrapper around the fluidsynth library and also allo...">
<polygon fill="white" stroke="black" points="551.5,-342.5 551.5,-362.5 628.5,-362.5 628.5,-342.5 551.5,-342.5"/>
<text text-anchor="middle" x="590" y="-349.7" font-family="Helvetica,sans-Serif" font-size="11.00">FluidSynth.h</text>
</a>
</g>
</g>
<!-- Node28&#45;&gt;Node29 -->
<g id="edge37" class="edge">
<title>Node28&#45;&gt;Node29</title>
<path fill="none" stroke="midnightblue" d="M575.81,-399.42C578.06,-392.14 581.29,-381.67 584.11,-372.57"/>
<polygon fill="midnightblue" stroke="midnightblue" points="587.52,-373.37 587.13,-362.78 580.83,-371.3 587.52,-373.37"/>
</g>
<!-- Node29&#45;&gt;Node9 -->
<g id="edge38" class="edge">
<title>Node29&#45;&gt;Node9</title>
<path fill="none" stroke="midnightblue" d="M588.17,-342.13C585.16,-328.5 578.14,-302.89 565,-285 515.52,-217.62 430.3,-163.98 387.36,-139.66"/>
<polygon fill="midnightblue" stroke="midnightblue" points="388.81,-136.47 378.37,-134.65 385.41,-142.58 388.81,-136.47"/>
</g>
<!-- Node29&#45;&gt;Node27 -->
<g id="edge39" class="edge">
<title>Node29&#45;&gt;Node27</title>
<path fill="none" stroke="midnightblue" d="M579.6,-342.42C570.26,-334.27 556.35,-322.12 545.17,-312.37"/>
<polygon fill="midnightblue" stroke="midnightblue" points="547.46,-309.72 537.63,-305.78 542.86,-314.99 547.46,-309.72"/>
</g>
</g>
</svg>
