<?xml version="1.0" encoding="UTF-8" standalone="no"?>
<!DOCTYPE svg PUBLIC "-//W3C//DTD SVG 1.1//EN"
 "http://www.w3.org/Graphics/SVG/1.1/DTD/svg11.dtd">
<!-- Generated by graphviz version 2.47.1 (20210417.1919)
 -->
<!-- Title: FluidSynth.cpp Pages: 1 -->
<!--zoomable 485 -->
<svg id="main" version="1.1" xmlns="http://www.w3.org/2000/svg" xmlns:xlink="http://www.w3.org/1999/xlink" xml:space="preserve" onload="init(evt)">
<style type="text/css"><![CDATA[
.edge:hover path { stroke: red; }
.edge:hover polygon { stroke: red; fill: red; }
]]></style>
<script type="text/javascript"><![CDATA[
var edges = document.getElementsByTagName('g');
if (edges && edges.length) {
  for (var i=0;i<edges.length;i++) {
    if (edges[i].id.substr(0,4)=='edge') {
      edges[i].setAttribute('class','edge');
    }
  }
}
]]></script>
        <defs>
                <circle id="rim" cx="0" cy="0" r="7"/>
                <circle id="rim2" cx="0" cy="0" r="3.5"/>
                <g id="zoomPlus">
                        <use xlink:href="#rim" fill="#404040">
                                <set attributeName="fill" to="#808080" begin="zoomplus.mouseover" end="zoomplus.mouseout"/>
                        </use>
                        <path d="M-4,0h8M0,-4v8" fill="none" stroke="white" stroke-width="1.5" pointer-events="none"/>
                </g>
                <g id="zoomMin">
                        <use xlink:href="#rim" fill="#404040">
                                <set attributeName="fill" to="#808080" begin="zoomminus.mouseover" end="zoomminus.mouseout"/>
                        </use>
                        <path d="M-4,0h8" fill="none" stroke="white" stroke-width="1.5" pointer-events="none"/>
                </g>
                <g id="dirArrow">
                        <path fill="none" stroke="white" stroke-width="1.5" d="M0,-3.0v7 M-2.5,-0.5L0,-3.0L2.5,-0.5"/>
                </g>
               <g id="resetDef">
                       <use xlink:href="#rim2" fill="#404040">
                               <set attributeName="fill" to="#808080" begin="reset.mouseover" end="reset.mouseout"/>
                       </use>
               </g>
        </defs>

<script type="text/javascript">
var viewWidth = 664;
var viewHeight = 485;
var sectionId = 'dynsection-0';
</script>
<script xlink:href="svgpan.js"/>
<svg id="graph" class="graph">
<g id="viewport">
<title>FluidSynth.cpp</title>
<polygon fill="white" stroke="transparent" points="-4,4 -4,-481 660,-481 660,4 -4,4"/>
<!-- Node1 -->
<g id="node1" class="node">
<title>Node1</title>
<g id="a_node1"><a xlink:title="The FluidSynth class implements the access to the fluidsynth library via a dynamic loading of it.">
<polygon fill="#bfbfbf" stroke="black" points="405.5,-456.5 405.5,-476.5 494.5,-476.5 494.5,-456.5 405.5,-456.5"/>
<text text-anchor="middle" x="450" y="-463.7" font-family="Helvetica,sans-Serif" font-size="11.00">FluidSynth.cpp</text>
</a>
</g>
</g>
<!-- Node2 -->
<g id="node2" class="node">
<title>Node2</title>
<g id="a_node2"><a xlink:href="_logging_8h.html" target="_top" xlink:title="The Logging specification defines macros for entry&#45;, exit&#45; and intermediate logging of functions into...">
<polygon fill="white" stroke="black" points="233,-399.5 233,-419.5 297,-419.5 297,-399.5 233,-399.5"/>
<text text-anchor="middle" x="265" y="-406.7" font-family="Helvetica,sans-Serif" font-size="11.00">Logging.h</text>
</a>
</g>
</g>
<!-- Node1&#45;&gt;Node2 -->
<g id="edge1" class="edge">
<title>Node1&#45;&gt;Node2</title>
<path fill="none" stroke="midnightblue" d="M419.45,-456.42C388.16,-447.12 339.36,-432.61 305.01,-422.39"/>
<polygon fill="midnightblue" stroke="midnightblue" points="305.87,-419 295.29,-419.5 303.87,-425.71 305.87,-419"/>
</g>
<!-- Node24 -->
<g id="node24" class="node">
<title>Node24</title>
<g id="a_node24"><a xlink:href="_dictionary_8h.html" target="_top" xlink:title="The Dictionary specification defines maps from string keys to string values.">
<polygon fill="white" stroke="black" points="366,-399.5 366,-419.5 440,-419.5 440,-399.5 366,-399.5"/>
<text text-anchor="middle" x="403" y="-406.7" font-family="Helvetica,sans-Serif" font-size="11.00">Dictionary.h</text>
</a>
</g>
</g>
<!-- Node1&#45;&gt;Node24 -->
<g id="edge32" class="edge">
<title>Node1&#45;&gt;Node24</title>
<path fill="none" stroke="midnightblue" d="M442.24,-456.42C435.54,-448.58 425.69,-437.06 417.54,-427.51"/>
<polygon fill="midnightblue" stroke="midnightblue" points="420.09,-425.11 410.93,-419.78 414.77,-429.66 420.09,-425.11"/>
</g>
<!-- Node26 -->
<g id="node26" class="node">
<title>Node26</title>
<g id="a_node26"><a xlink:href="_fluid_synth_8h.html" target="_top" xlink:title="The FluidSynth class specifies an object&#45;oriented wrapper around the fluidsynth library and also allo...">
<polygon fill="white" stroke="black" points="458.5,-399.5 458.5,-419.5 535.5,-419.5 535.5,-399.5 458.5,-399.5"/>
<text text-anchor="middle" x="497" y="-406.7" font-family="Helvetica,sans-Serif" font-size="11.00">FluidSynth.h</text>
</a>
</g>
</g>
<!-- Node1&#45;&gt;Node26 -->
<g id="edge34" class="edge">
<title>Node1&#45;&gt;Node26</title>
<path fill="none" stroke="midnightblue" d="M457.76,-456.42C464.46,-448.58 474.31,-437.06 482.46,-427.51"/>
<polygon fill="midnightblue" stroke="midnightblue" points="485.23,-429.66 489.07,-419.78 479.91,-425.11 485.23,-429.66"/>
</g>
<!-- Node28 -->
<g id="node28" class="node">
<title>Node28</title>
<g id="a_node28"><a xlink:href="_dynamic_library_8h.html" target="_top" xlink:title="The DynamicLibrary class specifies a very simple and crude wrapper around the dynamic library loading...">
<polygon fill="white" stroke="black" points="554,-399.5 554,-419.5 656,-419.5 656,-399.5 554,-399.5"/>
<text text-anchor="middle" x="605" y="-406.7" font-family="Helvetica,sans-Serif" font-size="11.00">DynamicLibrary.h</text>
</a>
</g>
</g>
<!-- Node1&#45;&gt;Node28 -->
<g id="edge37" class="edge">
<title>Node1&#45;&gt;Node28</title>
<path fill="none" stroke="midnightblue" d="M475.6,-456.42C501.36,-447.27 541.3,-433.1 569.99,-422.92"/>
<polygon fill="midnightblue" stroke="midnightblue" points="571.37,-426.15 579.62,-419.5 569.03,-419.55 571.37,-426.15"/>
</g>
<!-- Node3 -->
<g id="node3" class="node">
<title>Node3</title>
<g id="a_node3"><a xlink:title=" ">
<polygon fill="white" stroke="#bfbfbf" points="190.5,-342.5 190.5,-362.5 243.5,-362.5 243.5,-342.5 190.5,-342.5"/>
<text text-anchor="middle" x="217" y="-349.7" font-family="Helvetica,sans-Serif" font-size="11.00">cstdarg</text>
</a>
</g>
</g>
<!-- Node2&#45;&gt;Node3 -->
<g id="edge2" class="edge">
<title>Node2&#45;&gt;Node3</title>
<path fill="none" stroke="midnightblue" d="M257.07,-399.42C250.24,-391.58 240.18,-380.06 231.85,-370.51"/>
<polygon fill="midnightblue" stroke="midnightblue" points="234.31,-368.01 225.1,-362.78 229.04,-372.62 234.31,-368.01"/>
</g>
<!-- Node4 -->
<g id="node4" class="node">
<title>Node4</title>
<g id="a_node4"><a xlink:href="_logging_support_8h.html" target="_top" xlink:title="The LoggingSupport specification defines a class for simple entry/exit logging to a file; this loggin...">
<polygon fill="white" stroke="black" points="262,-342.5 262,-362.5 364,-362.5 364,-342.5 262,-342.5"/>
<text text-anchor="middle" x="313" y="-349.7" font-family="Helvetica,sans-Serif" font-size="11.00">LoggingSupport.h</text>
</a>
</g>
</g>
<!-- Node2&#45;&gt;Node4 -->
<g id="edge3" class="edge">
<title>Node2&#45;&gt;Node4</title>
<path fill="none" stroke="midnightblue" d="M272.93,-399.42C279.76,-391.58 289.82,-380.06 298.15,-370.51"/>
<polygon fill="midnightblue" stroke="midnightblue" points="300.96,-372.62 304.9,-362.78 295.69,-368.01 300.96,-372.62"/>
</g>
<!-- Node14 -->
<g id="node14" class="node">
<title>Node14</title>
<g id="a_node14"><a xlink:href="_string_util_8h.html" target="_top" xlink:title="The StringUtil specification defines several string routines not included in the standard C++ library...">
<polygon fill="white" stroke="black" points="103.5,-342.5 103.5,-362.5 172.5,-362.5 172.5,-342.5 103.5,-342.5"/>
<text text-anchor="middle" x="138" y="-349.7" font-family="Helvetica,sans-Serif" font-size="11.00">StringUtil.h</text>
</a>
</g>
</g>
<!-- Node2&#45;&gt;Node14 -->
<g id="edge14" class="edge">
<title>Node2&#45;&gt;Node14</title>
<path fill="none" stroke="midnightblue" d="M244.03,-399.42C223.44,-390.5 191.81,-376.8 168.45,-366.69"/>
<polygon fill="midnightblue" stroke="midnightblue" points="169.57,-363.36 159,-362.6 166.79,-369.78 169.57,-363.36"/>
</g>
<!-- Node5 -->
<g id="node5" class="node">
<title>Node5</title>
<g id="a_node5"><a xlink:href="_boolean_8h.html" target="_top" xlink:title="The Boolean specification and body provides a value object type for boolean values.">
<polygon fill="white" stroke="black" points="280.5,-285.5 280.5,-305.5 345.5,-305.5 345.5,-285.5 280.5,-285.5"/>
<text text-anchor="middle" x="313" y="-292.7" font-family="Helvetica,sans-Serif" font-size="11.00">Boolean.h</text>
</a>
</g>
</g>
<!-- Node4&#45;&gt;Node5 -->
<g id="edge4" class="edge">
<title>Node4&#45;&gt;Node5</title>
<path fill="none" stroke="midnightblue" d="M313,-342.42C313,-335.22 313,-324.9 313,-315.86"/>
<polygon fill="midnightblue" stroke="midnightblue" points="316.5,-315.78 313,-305.78 309.5,-315.78 316.5,-315.78"/>
</g>
<!-- Node9 -->
<g id="node9" class="node">
<title>Node9</title>
<g id="a_node9"><a xlink:href="_natural_8h.html" target="_top" xlink:title="The Natural specification and body provides a value object type for naturals (positive integers with ...">
<polygon fill="white" stroke="black" points="235,-114.5 235,-134.5 295,-134.5 295,-114.5 235,-114.5"/>
<text text-anchor="middle" x="265" y="-121.7" font-family="Helvetica,sans-Serif" font-size="11.00">Natural.h</text>
</a>
</g>
</g>
<!-- Node4&#45;&gt;Node9 -->
<g id="edge8" class="edge">
<title>Node4&#45;&gt;Node9</title>
<path fill="none" stroke="midnightblue" d="M324.36,-342.3C333.89,-333.89 347.04,-320.59 354,-306 369.02,-274.5 375.99,-260.39 363,-228 347.73,-189.94 310.85,-158.02 286.94,-140.36"/>
<polygon fill="midnightblue" stroke="midnightblue" points="288.95,-137.49 278.78,-134.51 284.87,-143.18 288.95,-137.49"/>
</g>
<!-- Node6 -->
<g id="node6" class="node">
<title>Node6</title>
<g id="a_node6"><a xlink:href="_my_string_8h.html" target="_top" xlink:title="The String specification defines a standard string type.">
<polygon fill="white" stroke="black" points="402,-57.5 402,-77.5 470,-77.5 470,-57.5 402,-57.5"/>
<text text-anchor="middle" x="436" y="-64.7" font-family="Helvetica,sans-Serif" font-size="11.00">MyString.h</text>
</a>
</g>
</g>
<!-- Node5&#45;&gt;Node6 -->
<g id="edge5" class="edge">
<title>Node5&#45;&gt;Node6</title>
<path fill="none" stroke="midnightblue" d="M326,-285.32C337.09,-276.93 352.8,-263.64 363,-249 399.78,-196.19 422.23,-122.09 431.32,-87.58"/>
<polygon fill="midnightblue" stroke="midnightblue" points="434.73,-88.4 433.8,-77.85 427.94,-86.67 434.73,-88.4"/>
</g>
<!-- Node7 -->
<g id="node7" class="node">
<title>Node7</title>
<g id="a_node7"><a xlink:title=" ">
<polygon fill="white" stroke="#bfbfbf" points="457,-0.5 457,-20.5 501,-20.5 501,-0.5 457,-0.5"/>
<text text-anchor="middle" x="479" y="-7.7" font-family="Helvetica,sans-Serif" font-size="11.00">string</text>
</a>
</g>
</g>
<!-- Node6&#45;&gt;Node7 -->
<g id="edge6" class="edge">
<title>Node6&#45;&gt;Node7</title>
<path fill="none" stroke="midnightblue" d="M443.1,-57.42C449.16,-49.66 458.06,-38.29 465.47,-28.8"/>
<polygon fill="midnightblue" stroke="midnightblue" points="468.34,-30.81 471.75,-20.78 462.83,-26.5 468.34,-30.81"/>
</g>
<!-- Node8 -->
<g id="node8" class="node">
<title>Node8</title>
<g id="a_node8"><a xlink:href="_global_macros_8h.html" target="_top" xlink:title="The GlobalMacros specification defines simple macros (e.g. for parameter modes).">
<polygon fill="white" stroke="black" points="347,-0.5 347,-20.5 439,-20.5 439,-0.5 347,-0.5"/>
<text text-anchor="middle" x="393" y="-7.7" font-family="Helvetica,sans-Serif" font-size="11.00">GlobalMacros.h</text>
</a>
</g>
</g>
<!-- Node6&#45;&gt;Node8 -->
<g id="edge7" class="edge">
<title>Node6&#45;&gt;Node8</title>
<path fill="none" stroke="midnightblue" d="M428.9,-57.42C422.84,-49.66 413.94,-38.29 406.53,-28.8"/>
<polygon fill="midnightblue" stroke="midnightblue" points="409.17,-26.5 400.25,-20.78 403.66,-30.81 409.17,-26.5"/>
</g>
<!-- Node9&#45;&gt;Node6 -->
<g id="edge13" class="edge">
<title>Node9&#45;&gt;Node6</title>
<path fill="none" stroke="midnightblue" d="M293.24,-114.42C321.91,-105.19 366.49,-90.86 398.2,-80.66"/>
<polygon fill="midnightblue" stroke="midnightblue" points="399.56,-83.9 408.01,-77.5 397.41,-77.23 399.56,-83.9"/>
</g>
<!-- Node10 -->
<g id="node10" class="node">
<title>Node10</title>
<g id="a_node10"><a xlink:title=" ">
<polygon fill="white" stroke="#bfbfbf" points="126.5,-57.5 126.5,-77.5 173.5,-77.5 173.5,-57.5 126.5,-57.5"/>
<text text-anchor="middle" x="150" y="-64.7" font-family="Helvetica,sans-Serif" font-size="11.00">cmath</text>
</a>
</g>
</g>
<!-- Node9&#45;&gt;Node10 -->
<g id="edge9" class="edge">
<title>Node9&#45;&gt;Node10</title>
<path fill="none" stroke="midnightblue" d="M246.01,-114.42C227.53,-105.58 199.24,-92.05 178.14,-81.96"/>
<polygon fill="midnightblue" stroke="midnightblue" points="179.55,-78.75 169.02,-77.6 176.53,-85.07 179.55,-78.75"/>
</g>
<!-- Node11 -->
<g id="node11" class="node">
<title>Node11</title>
<g id="a_node11"><a xlink:href="_assertion_8h.html" target="_top" xlink:title="The Assertion specification defines macros for pre&#45; and postconditions in functions or methods.">
<polygon fill="white" stroke="black" points="191.5,-57.5 191.5,-77.5 262.5,-77.5 262.5,-57.5 191.5,-57.5"/>
<text text-anchor="middle" x="227" y="-64.7" font-family="Helvetica,sans-Serif" font-size="11.00">Assertion.h</text>
</a>
</g>
</g>
<!-- Node9&#45;&gt;Node11 -->
<g id="edge10" class="edge">
<title>Node9&#45;&gt;Node11</title>
<path fill="none" stroke="midnightblue" d="M258.73,-114.42C253.42,-106.74 245.67,-95.52 239.16,-86.09"/>
<polygon fill="midnightblue" stroke="midnightblue" points="241.98,-84.02 233.41,-77.78 236.22,-88 241.98,-84.02"/>
</g>
<!-- Node13 -->
<g id="node13" class="node">
<title>Node13</title>
<g id="a_node13"><a xlink:title=" ">
<polygon fill="white" stroke="#bfbfbf" points="280.5,-57.5 280.5,-77.5 383.5,-77.5 383.5,-57.5 280.5,-57.5"/>
<text text-anchor="middle" x="332" y="-64.7" font-family="Helvetica,sans-Serif" font-size="11.00">GenericNumber.h</text>
</a>
</g>
</g>
<!-- Node9&#45;&gt;Node13 -->
<g id="edge12" class="edge">
<title>Node9&#45;&gt;Node13</title>
<path fill="none" stroke="midnightblue" d="M276.06,-114.42C285.99,-106.27 300.79,-94.12 312.67,-84.37"/>
<polygon fill="midnightblue" stroke="midnightblue" points="315.19,-86.83 320.7,-77.78 310.75,-81.42 315.19,-86.83"/>
</g>
<!-- Node12 -->
<g id="node12" class="node">
<title>Node12</title>
<g id="a_node12"><a xlink:title=" ">
<polygon fill="white" stroke="#bfbfbf" points="200.5,-0.5 200.5,-20.5 253.5,-20.5 253.5,-0.5 200.5,-0.5"/>
<text text-anchor="middle" x="227" y="-7.7" font-family="Helvetica,sans-Serif" font-size="11.00">cassert</text>
</a>
</g>
</g>
<!-- Node11&#45;&gt;Node12 -->
<g id="edge11" class="edge">
<title>Node11&#45;&gt;Node12</title>
<path fill="none" stroke="midnightblue" d="M227,-57.42C227,-50.22 227,-39.9 227,-30.86"/>
<polygon fill="midnightblue" stroke="midnightblue" points="230.5,-30.78 227,-20.78 223.5,-30.78 230.5,-30.78"/>
</g>
<!-- Node14&#45;&gt;Node5 -->
<g id="edge15" class="edge">
<title>Node14&#45;&gt;Node5</title>
<path fill="none" stroke="midnightblue" d="M166.9,-342.42C196.37,-333.15 242.26,-318.73 274.74,-308.53"/>
<polygon fill="midnightblue" stroke="midnightblue" points="275.86,-311.84 284.35,-305.5 273.76,-305.16 275.86,-311.84"/>
</g>
<!-- Node15 -->
<g id="node15" class="node">
<title>Node15</title>
<g id="a_node15"><a xlink:href="_byte_8h.html" target="_top" xlink:title="The Byte specification and body provides a value object type for byte values.">
<polygon fill="white" stroke="black" points="132.5,-171.5 132.5,-191.5 179.5,-191.5 179.5,-171.5 132.5,-171.5"/>
<text text-anchor="middle" x="156" y="-178.7" font-family="Helvetica,sans-Serif" font-size="11.00">Byte.h</text>
</a>
</g>
</g>
<!-- Node14&#45;&gt;Node15 -->
<g id="edge16" class="edge">
<title>Node14&#45;&gt;Node15</title>
<path fill="none" stroke="midnightblue" d="M136.13,-342.36C132.25,-321.68 124.42,-269.82 134,-228 136.17,-218.51 140.59,-208.71 144.9,-200.64"/>
<polygon fill="midnightblue" stroke="midnightblue" points="148.03,-202.22 149.95,-191.8 141.95,-198.75 148.03,-202.22"/>
</g>
<!-- Node16 -->
<g id="node16" class="node">
<title>Node16</title>
<g id="a_node16"><a xlink:href="_character_8h.html" target="_top" xlink:title="The Character specification and body provides a value object type for character values.">
<polygon fill="white" stroke="black" points="198,-171.5 198,-191.5 272,-191.5 272,-171.5 198,-171.5"/>
<text text-anchor="middle" x="235" y="-178.7" font-family="Helvetica,sans-Serif" font-size="11.00">Character.h</text>
</a>
</g>
</g>
<!-- Node14&#45;&gt;Node16 -->
<g id="edge19" class="edge">
<title>Node14&#45;&gt;Node16</title>
<path fill="none" stroke="midnightblue" d="M137.94,-342.21C138.26,-320.32 141.66,-264.57 167,-228 176.4,-214.43 191.27,-203.81 204.72,-196.25"/>
<polygon fill="midnightblue" stroke="midnightblue" points="206.5,-199.27 213.71,-191.51 203.23,-193.08 206.5,-199.27"/>
</g>
<!-- Node17 -->
<g id="node17" class="node">
<title>Node17</title>
<g id="a_node17"><a xlink:href="_percentage_8h.html" target="_top" xlink:title="The Percentage specification and body provides a simple percentage type.">
<polygon fill="white" stroke="black" points="0,-285.5 0,-305.5 82,-305.5 82,-285.5 0,-285.5"/>
<text text-anchor="middle" x="41" y="-292.7" font-family="Helvetica,sans-Serif" font-size="11.00">Percentage.h</text>
</a>
</g>
</g>
<!-- Node14&#45;&gt;Node17 -->
<g id="edge22" class="edge">
<title>Node14&#45;&gt;Node17</title>
<path fill="none" stroke="midnightblue" d="M121.98,-342.42C106.82,-333.82 83.81,-320.78 66.19,-310.78"/>
<polygon fill="midnightblue" stroke="midnightblue" points="67.47,-307.48 57.04,-305.6 64.01,-313.57 67.47,-307.48"/>
</g>
<!-- Node21 -->
<g id="node21" class="node">
<title>Node21</title>
<g id="a_node21"><a xlink:href="_string_list_8h.html" target="_top" xlink:title="The StringList specification defines lists of string values with zero&#45;based arbitrary indexed access ...">
<polygon fill="white" stroke="black" points="181.5,-285.5 181.5,-305.5 252.5,-305.5 252.5,-285.5 181.5,-285.5"/>
<text text-anchor="middle" x="217" y="-292.7" font-family="Helvetica,sans-Serif" font-size="11.00">StringList.h</text>
</a>
</g>
</g>
<!-- Node14&#45;&gt;Node21 -->
<g id="edge29" class="edge">
<title>Node14&#45;&gt;Node21</title>
<path fill="none" stroke="midnightblue" d="M151.05,-342.42C163.17,-333.98 181.44,-321.26 195.68,-311.34"/>
<polygon fill="midnightblue" stroke="midnightblue" points="197.73,-314.18 203.94,-305.6 193.73,-308.44 197.73,-314.18"/>
</g>
<!-- Node15&#45;&gt;Node9 -->
<g id="edge18" class="edge">
<title>Node15&#45;&gt;Node9</title>
<path fill="none" stroke="midnightblue" d="M174,-171.42C191.36,-162.66 217.85,-149.29 237.78,-139.23"/>
<polygon fill="midnightblue" stroke="midnightblue" points="239.62,-142.23 246.97,-134.6 236.47,-135.98 239.62,-142.23"/>
</g>
<!-- Node15&#45;&gt;Node10 -->
<g id="edge17" class="edge">
<title>Node15&#45;&gt;Node10</title>
<path fill="none" stroke="midnightblue" d="M155.51,-171.33C154.54,-153.2 152.35,-112.41 151.04,-88"/>
<polygon fill="midnightblue" stroke="midnightblue" points="154.53,-87.59 150.5,-77.79 147.54,-87.97 154.53,-87.59"/>
</g>
<!-- Node16&#45;&gt;Node9 -->
<g id="edge21" class="edge">
<title>Node16&#45;&gt;Node9</title>
<path fill="none" stroke="midnightblue" d="M239.95,-171.42C244.05,-163.9 250.01,-152.98 255.08,-143.68"/>
<polygon fill="midnightblue" stroke="midnightblue" points="258.22,-145.23 259.94,-134.78 252.08,-141.88 258.22,-145.23"/>
</g>
<!-- Node16&#45;&gt;Node10 -->
<g id="edge20" class="edge">
<title>Node16&#45;&gt;Node10</title>
<path fill="none" stroke="midnightblue" d="M228.04,-171.33C213.91,-152.71 181.63,-110.17 163.32,-86.05"/>
<polygon fill="midnightblue" stroke="midnightblue" points="165.89,-83.64 157.05,-77.79 160.31,-87.87 165.89,-83.64"/>
</g>
<!-- Node18 -->
<g id="node18" class="node">
<title>Node18</title>
<g id="a_node18"><a xlink:href="_real_8h.html" target="_top" xlink:title="The Real specification defines a value object type for real values.">
<polygon fill="white" stroke="black" points="17,-228.5 17,-248.5 65,-248.5 65,-228.5 17,-228.5"/>
<text text-anchor="middle" x="41" y="-235.7" font-family="Helvetica,sans-Serif" font-size="11.00">Real.h</text>
</a>
</g>
</g>
<!-- Node17&#45;&gt;Node18 -->
<g id="edge23" class="edge">
<title>Node17&#45;&gt;Node18</title>
<path fill="none" stroke="midnightblue" d="M41,-285.42C41,-278.22 41,-267.9 41,-258.86"/>
<polygon fill="midnightblue" stroke="midnightblue" points="44.5,-258.78 41,-248.78 37.5,-258.78 44.5,-258.78"/>
</g>
<!-- Node18&#45;&gt;Node10 -->
<g id="edge24" class="edge">
<title>Node18&#45;&gt;Node10</title>
<path fill="none" stroke="midnightblue" d="M36.59,-228.44C26.64,-206.55 5.18,-149.96 30,-114 49.19,-86.2 87.75,-75.37 116,-71.16"/>
<polygon fill="midnightblue" stroke="midnightblue" points="116.78,-74.59 126.26,-69.85 115.89,-67.64 116.78,-74.59"/>
</g>
<!-- Node19 -->
<g id="node19" class="node">
<title>Node19</title>
<g id="a_node19"><a xlink:href="_integer_8h.html" target="_top" xlink:title="The Integer specification and body provides a value object type for ints.">
<polygon fill="white" stroke="black" points="48.5,-171.5 48.5,-191.5 107.5,-191.5 107.5,-171.5 48.5,-171.5"/>
<text text-anchor="middle" x="78" y="-178.7" font-family="Helvetica,sans-Serif" font-size="11.00">Integer.h</text>
</a>
</g>
</g>
<!-- Node18&#45;&gt;Node19 -->
<g id="edge25" class="edge">
<title>Node18&#45;&gt;Node19</title>
<path fill="none" stroke="midnightblue" d="M47.11,-228.42C52.27,-220.74 59.82,-209.52 66.16,-200.09"/>
<polygon fill="midnightblue" stroke="midnightblue" points="69.08,-202.03 71.76,-191.78 63.27,-198.12 69.08,-202.03"/>
</g>
<!-- Node19&#45;&gt;Node9 -->
<g id="edge28" class="edge">
<title>Node19&#45;&gt;Node9</title>
<path fill="none" stroke="midnightblue" d="M107.63,-171.79C139.31,-162.47 189.74,-147.64 224.94,-137.28"/>
<polygon fill="midnightblue" stroke="midnightblue" points="226.28,-140.54 234.89,-134.36 224.31,-133.82 226.28,-140.54"/>
</g>
<!-- Node19&#45;&gt;Node10 -->
<g id="edge26" class="edge">
<title>Node19&#45;&gt;Node10</title>
<path fill="none" stroke="midnightblue" d="M85.38,-171.33C92.51,-162.31 103.46,-148.03 112,-135 122.44,-119.07 133.1,-100.15 140.46,-86.57"/>
<polygon fill="midnightblue" stroke="midnightblue" points="143.55,-88.21 145.18,-77.75 137.38,-84.91 143.55,-88.21"/>
</g>
<!-- Node20 -->
<g id="node20" class="node">
<title>Node20</title>
<g id="a_node20"><a xlink:title=" ">
<polygon fill="white" stroke="#bfbfbf" points="39,-114.5 39,-134.5 103,-134.5 103,-114.5 39,-114.5"/>
<text text-anchor="middle" x="71" y="-121.7" font-family="Helvetica,sans-Serif" font-size="11.00">stdexcept</text>
</a>
</g>
</g>
<!-- Node19&#45;&gt;Node20 -->
<g id="edge27" class="edge">
<title>Node19&#45;&gt;Node20</title>
<path fill="none" stroke="midnightblue" d="M76.84,-171.42C75.93,-164.22 74.61,-153.9 73.46,-144.86"/>
<polygon fill="midnightblue" stroke="midnightblue" points="76.92,-144.26 72.18,-134.78 69.97,-145.14 76.92,-144.26"/>
</g>
<!-- Node22 -->
<g id="node22" class="node">
<title>Node22</title>
<g id="a_node22"><a xlink:title=" ">
<polygon fill="white" stroke="#bfbfbf" points="276,-228.5 276,-248.5 354,-248.5 354,-228.5 276,-228.5"/>
<text text-anchor="middle" x="315" y="-235.7" font-family="Helvetica,sans-Serif" font-size="11.00">initializer_list</text>
</a>
</g>
</g>
<!-- Node21&#45;&gt;Node22 -->
<g id="edge30" class="edge">
<title>Node21&#45;&gt;Node22</title>
<path fill="none" stroke="midnightblue" d="M233.18,-285.42C248.65,-276.74 272.18,-263.53 290.04,-253.51"/>
<polygon fill="midnightblue" stroke="midnightblue" points="291.79,-256.54 298.79,-248.6 288.36,-250.44 291.79,-256.54"/>
</g>
<!-- Node23 -->
<g id="node23" class="node">
<title>Node23</title>
<g id="a_node23"><a xlink:title=" ">
<polygon fill="white" stroke="#bfbfbf" points="176.5,-228.5 176.5,-248.5 257.5,-248.5 257.5,-228.5 176.5,-228.5"/>
<text text-anchor="middle" x="217" y="-235.7" font-family="Helvetica,sans-Serif" font-size="11.00">GenericList.h</text>
</a>
</g>
</g>
<!-- Node21&#45;&gt;Node23 -->
<g id="edge31" class="edge">
<title>Node21&#45;&gt;Node23</title>
<path fill="none" stroke="midnightblue" d="M217,-285.42C217,-278.22 217,-267.9 217,-258.86"/>
<polygon fill="midnightblue" stroke="midnightblue" points="220.5,-258.78 217,-248.78 213.5,-258.78 220.5,-258.78"/>
</g>
<!-- Node25 -->
<g id="node25" class="node">
<title>Node25</title>
<g id="a_node25"><a xlink:title=" ">
<polygon fill="white" stroke="#bfbfbf" points="382,-342.5 382,-362.5 466,-362.5 466,-342.5 382,-342.5"/>
<text text-anchor="middle" x="424" y="-349.7" font-family="Helvetica,sans-Serif" font-size="11.00">GenericMap.h</text>
</a>
</g>
</g>
<!-- Node24&#45;&gt;Node25 -->
<g id="edge33" class="edge">
<title>Node24&#45;&gt;Node25</title>
<path fill="none" stroke="midnightblue" d="M406.47,-399.42C409.28,-392.06 413.33,-381.44 416.83,-372.27"/>
<polygon fill="midnightblue" stroke="midnightblue" points="420.16,-373.37 420.46,-362.78 413.62,-370.87 420.16,-373.37"/>
</g>
<!-- Node26&#45;&gt;Node9 -->
<g id="edge35" class="edge">
<title>Node26&#45;&gt;Node9</title>
<path fill="none" stroke="midnightblue" d="M496.58,-399.21C495.76,-380.02 494,-334.62 494,-296.5 494,-296.5 494,-296.5 494,-237.5 494,-154.53 371.19,-133.02 305.44,-127.44"/>
<polygon fill="midnightblue" stroke="midnightblue" points="305.65,-123.95 295.41,-126.68 305.11,-130.93 305.65,-123.95"/>
</g>
<!-- Node27 -->
<g id="node27" class="node">
<title>Node27</title>
<g id="a_node27"><a xlink:href="_object_8h.html" target="_top" xlink:title="The Object specification and body provides the root object type.">
<polygon fill="white" stroke="black" points="522,-342.5 522,-362.5 580,-362.5 580,-342.5 522,-342.5"/>
<text text-anchor="middle" x="551" y="-349.7" font-family="Helvetica,sans-Serif" font-size="11.00">Object.h</text>
</a>
</g>
</g>
<!-- Node26&#45;&gt;Node27 -->
<g id="edge36" class="edge">
<title>Node26&#45;&gt;Node27</title>
<path fill="none" stroke="midnightblue" d="M505.92,-399.42C513.76,-391.42 525.38,-379.59 534.86,-369.94"/>
<polygon fill="midnightblue" stroke="midnightblue" points="537.38,-372.37 541.89,-362.78 532.39,-367.46 537.38,-372.37"/>
</g>
<!-- Node28&#45;&gt;Node6 -->
<g id="edge39" class="edge">
<title>Node28&#45;&gt;Node6</title>
<path fill="none" stroke="midnightblue" d="M605.42,-399.21C606.24,-380.02 608,-334.62 608,-296.5 608,-296.5 608,-296.5 608,-180.5 608,-119.53 531.17,-90.03 480.21,-77.17"/>
<polygon fill="midnightblue" stroke="midnightblue" points="480.93,-73.74 470.39,-74.81 479.3,-80.55 480.93,-73.74"/>
</g>
<!-- Node28&#45;&gt;Node27 -->
<g id="edge38" class="edge">
<title>Node28&#45;&gt;Node27</title>
<path fill="none" stroke="midnightblue" d="M596.08,-399.42C588.24,-391.42 576.62,-379.59 567.14,-369.94"/>
<polygon fill="midnightblue" stroke="midnightblue" points="569.61,-367.46 560.11,-362.78 564.62,-372.37 569.61,-367.46"/>
</g>
</g>
</svg>
        <g id="navigator" transform="translate(0 0)" fill="#404254">
                <rect fill="#f2f5e9" fill-opacity="0.5" stroke="#606060" stroke-width=".5" x="0" y="0" width="60" height="60"/>
                <use id="zoomplus" xlink:href="#zoomPlus" x="17" y="9" onmousedown="handleZoom(evt,'in')"/>
                <use id="zoomminus" xlink:href="#zoomMin" x="42" y="9" onmousedown="handleZoom(evt,'out')"/>
                <use id="reset" xlink:href="#resetDef" x="30" y="36" onmousedown="handleReset()"/>
                <g id="arrowUp" xlink:href="#dirArrow" transform="translate(30 24)" onmousedown="handlePan(0,-1)">
                  <use xlink:href="#rim" fill="#404040">
                        <set attributeName="fill" to="#808080" begin="arrowUp.mouseover" end="arrowUp.mouseout"/>
                  </use>
                  <path fill="none" stroke="white" stroke-width="1.5" d="M0,-3.0v7 M-2.5,-0.5L0,-3.0L2.5,-0.5"/>
                </g>
                <g id="arrowRight" xlink:href="#dirArrow" transform="rotate(90) translate(36 -43)" onmousedown="handlePan(1,0)">
                  <use xlink:href="#rim" fill="#404040">
                        <set attributeName="fill" to="#808080" begin="arrowRight.mouseover" end="arrowRight.mouseout"/>
                  </use>
                  <path fill="none" stroke="white" stroke-width="1.5" d="M0,-3.0v7 M-2.5,-0.5L0,-3.0L2.5,-0.5"/>
                </g>
                <g id="arrowDown" xlink:href="#dirArrow" transform="rotate(180) translate(-30 -48)" onmousedown="handlePan(0,1)">
                  <use xlink:href="#rim" fill="#404040">
                        <set attributeName="fill" to="#808080" begin="arrowDown.mouseover" end="arrowDown.mouseout"/>
                  </use>
                  <path fill="none" stroke="white" stroke-width="1.5" d="M0,-3.0v7 M-2.5,-0.5L0,-3.0L2.5,-0.5"/>
                </g>
                <g id="arrowLeft" xlink:href="#dirArrow" transform="rotate(270) translate(-36 17)" onmousedown="handlePan(-1,0)">
                  <use xlink:href="#rim" fill="#404040">
                        <set attributeName="fill" to="#808080" begin="arrowLeft.mouseover" end="arrowLeft.mouseout"/>
                  </use>
                  <path fill="none" stroke="white" stroke-width="1.5" d="M0,-3.0v7 M-2.5,-0.5L0,-3.0L2.5,-0.5"/>
                </g>
        </g>
        <svg viewBox="0 0 15 15" width="100%" height="30px" preserveAspectRatio="xMaxYMin meet">
         <g id="arrow_out" transform="scale(0.3 0.3)">
          <a xlink:href="_fluid_synth_8cpp__incl_org.svg" target="_base">
           <rect id="button" ry="5" rx="5" y="6" x="6" height="38" width="38"
                fill="#f2f5e9" fill-opacity="0.5" stroke="#606060" stroke-width="1.0"/>
           <path id="arrow"
             d="M 11.500037,31.436501 C 11.940474,20.09759 22.043105,11.32322 32.158766,21.979434 L 37.068811,17.246167 C 37.068811,17.246167 37.088388,32 37.088388,32 L 22.160133,31.978069 C 22.160133,31.978069 26.997745,27.140456 26.997745,27.140456 C 18.528582,18.264221 13.291696,25.230495 11.500037,31.436501 z"
             style="fill:#404040;"/>
          </a>
         </g>
        </svg>
</svg>
