<?xml version="1.0" encoding="UTF-8" standalone="no"?>
<!DOCTYPE svg PUBLIC "-//W3C//DTD SVG 1.1//EN"
 "http://www.w3.org/Graphics/SVG/1.1/DTD/svg11.dtd">
<!-- Generated by graphviz version 2.47.1 (20210417.1919)
 -->
<!-- Title: FluidSynthPlugin_Editor.cpp Pages: 1 -->
<svg width="1967pt" height="478pt"
 viewBox="0.00 0.00 1966.85 478.00" xmlns="http://www.w3.org/2000/svg" xmlns:xlink="http://www.w3.org/1999/xlink">
<g id="graph0" class="graph" transform="scale(1 1) rotate(0) translate(4 474)">
<title>FluidSynthPlugin_Editor.cpp</title>
<!-- Node1 -->
<g id="Node000001" class="node">
<title>Node1</title>
<g id="a_Node000001"><a xlink:title="The FluidSynthPlugin_Editor module implements the editor for the processor of MIDI events from the DA...">
<polygon fill="#999999" stroke="#666666" points="343.35,-470 203.35,-470 203.35,-451 343.35,-451 343.35,-470"/>
<text text-anchor="middle" x="273.35" y="-458" font-family="Helvetica,sans-Serif" font-size="10.00">FluidSynthPlugin_Editor.cpp</text>
</a>
</g>
</g>
<!-- Node2 -->
<g id="Node000002" class="node">
<title>Node2</title>
<g id="a_Node000002"><a xlink:href="_assertion_8h.html" target="_top" xlink:title="The Assertion specification defines macros for pre&#45; and postconditions in functions or methods.">
<polygon fill="white" stroke="#666666" points="260.35,-74 194.35,-74 194.35,-55 260.35,-55 260.35,-74"/>
<text text-anchor="middle" x="227.35" y="-62" font-family="Helvetica,sans-Serif" font-size="10.00">Assertion.h</text>
</a>
</g>
</g>
<!-- Node1&#45;&gt;Node2 -->
<g id="edge1_Node000001_Node000002" class="edge">
<title>Node1&#45;&gt;Node2</title>
<g id="a_edge1_Node000001_Node000002"><a xlink:title=" ">
<path fill="none" stroke="#63b8ff" d="M226.42,-450.95C148.37,-435.39 0.35,-399.54 0.35,-351.5 0.35,-351.5 0.35,-351.5 0.35,-234 0.35,-202.19 -1.06,-189.4 19.35,-165 62.07,-113.94 137.06,-87.23 184.37,-74.78"/>
<polygon fill="#63b8ff" stroke="#63b8ff" points="185.47,-78.11 194.31,-72.27 183.76,-71.33 185.47,-78.11"/>
</a>
</g>
</g>
<!-- Node5 -->
<g id="Node000005" class="node">
<title>Node5</title>
<g id="a_Node000005"><a xlink:href="_environment_8h.html" target="_top" xlink:title="The Environment specification defines operating system services related to environment variables.">
<polygon fill="white" stroke="#666666" points="142.35,-305 64.35,-305 64.35,-286 142.35,-286 142.35,-305"/>
<text text-anchor="middle" x="103.35" y="-293" font-family="Helvetica,sans-Serif" font-size="10.00">Environment.h</text>
</a>
</g>
</g>
<!-- Node1&#45;&gt;Node5 -->
<g id="edge4_Node000001_Node000005" class="edge">
<title>Node1&#45;&gt;Node5</title>
<g id="a_edge4_Node000001_Node000005"><a xlink:title=" ">
<path fill="none" stroke="#63b8ff" d="M264.21,-450.74C236.89,-424.53 155.51,-346.51 120.11,-312.57"/>
<polygon fill="#63b8ff" stroke="#63b8ff" points="122.18,-309.7 112.54,-305.31 117.33,-314.75 122.18,-309.7"/>
</a>
</g>
</g>
<!-- Node14 -->
<g id="Node000014" class="node">
<title>Node14</title>
<g id="a_Node000014"><a xlink:href="_logging_8h.html" target="_top" xlink:title="The Logging specification defines macros for entry&#45;, exit&#45; and intermediate logging of functions into...">
<polygon fill="white" stroke="#666666" points="302.85,-415 243.85,-415 243.85,-396 302.85,-396 302.85,-415"/>
<text text-anchor="middle" x="273.35" y="-403" font-family="Helvetica,sans-Serif" font-size="10.00">Logging.h</text>
</a>
</g>
</g>
<!-- Node1&#45;&gt;Node14 -->
<g id="edge16_Node000001_Node000014" class="edge">
<title>Node1&#45;&gt;Node14</title>
<g id="a_edge16_Node000001_Node000014"><a xlink:title=" ">
<path fill="none" stroke="#63b8ff" d="M273.35,-450.75C273.35,-443.8 273.35,-433.85 273.35,-425.13"/>
<polygon fill="#63b8ff" stroke="#63b8ff" points="276.85,-425.09 273.35,-415.09 269.85,-425.09 276.85,-425.09"/>
</a>
</g>
</g>
<!-- Node28 -->
<g id="Node000028" class="node">
<title>Node28</title>
<g id="a_Node000028"><a xlink:href="_fluid_synth_plugin___editor_8h.html" target="_top" xlink:title="The FluidSynthPlugin_Editor specification implements the editor for the processor of MIDI events from...">
<polygon fill="white" stroke="#666666" points="630.85,-415 501.85,-415 501.85,-396 630.85,-396 630.85,-415"/>
<text text-anchor="middle" x="566.35" y="-403" font-family="Helvetica,sans-Serif" font-size="10.00">FluidSynthPlugin_Editor.h</text>
</a>
</g>
</g>
<!-- Node1&#45;&gt;Node28 -->
<g id="edge39_Node000001_Node000028" class="edge">
<title>Node1&#45;&gt;Node28</title>
<g id="a_edge39_Node000001_Node000028"><a xlink:title=" ">
<path fill="none" stroke="#63b8ff" d="M320.43,-450.98C371.75,-441.7 453.89,-426.84 508.96,-416.88"/>
<polygon fill="#63b8ff" stroke="#63b8ff" points="509.69,-420.31 518.91,-415.08 508.44,-413.42 509.69,-420.31"/>
</a>
</g>
</g>
<!-- Node42 -->
<g id="Node000042" class="node">
<title>Node42</title>
<g id="a_Node000042"><a xlink:href="_fluid_synth_plugin___editor_support_8h.html" target="_top" xlink:title="The FluidSynthPlugin_EditorSupport specification defines support services for the editor of the Fluid...">
<polygon fill="white" stroke="#666666" points="483.85,-415 320.85,-415 320.85,-396 483.85,-396 483.85,-415"/>
<text text-anchor="middle" x="402.35" y="-403" font-family="Helvetica,sans-Serif" font-size="10.00">FluidSynthPlugin_EditorSupport.h</text>
</a>
</g>
</g>
<!-- Node1&#45;&gt;Node42 -->
<g id="edge56_Node000001_Node000042" class="edge">
<title>Node1&#45;&gt;Node42</title>
<g id="a_edge56_Node000001_Node000042"><a xlink:title=" ">
<path fill="none" stroke="#63b8ff" d="M294.08,-450.98C315.11,-442.34 347.9,-428.87 371.89,-419.02"/>
<polygon fill="#63b8ff" stroke="#63b8ff" points="373.33,-422.21 381.25,-415.17 370.67,-415.73 373.33,-422.21"/>
</a>
</g>
</g>
<!-- Node3 -->
<g id="Node000003" class="node">
<title>Node3</title>
<g id="a_Node000003"><a xlink:title=" ">
<polygon fill="#e0e0e0" stroke="#999999" points="375.85,-19 316.85,-19 316.85,0 375.85,0 375.85,-19"/>
<text text-anchor="middle" x="346.35" y="-7" font-family="Helvetica,sans-Serif" font-size="10.00">stdexcept</text>
</a>
</g>
</g>
<!-- Node2&#45;&gt;Node3 -->
<g id="edge2_Node000002_Node000003" class="edge">
<title>Node2&#45;&gt;Node3</title>
<g id="a_edge2_Node000002_Node000003"><a xlink:title=" ">
<path fill="none" stroke="#63b8ff" d="M246.47,-54.98C265.7,-46.42 295.59,-33.11 317.66,-23.28"/>
<polygon fill="#63b8ff" stroke="#63b8ff" points="319.17,-26.44 326.89,-19.17 316.33,-20.04 319.17,-26.44"/>
</a>
</g>
</g>
<!-- Node4 -->
<g id="Node000004" class="node">
<title>Node4</title>
<g id="a_Node000004"><a xlink:title=" ">
<polygon fill="#e0e0e0" stroke="#999999" points="246.85,-19 205.85,-19 205.85,0 246.85,0 246.85,-19"/>
<text text-anchor="middle" x="226.35" y="-7" font-family="Helvetica,sans-Serif" font-size="10.00">string</text>
</a>
</g>
</g>
<!-- Node2&#45;&gt;Node4 -->
<g id="edge3_Node000002_Node000004" class="edge">
<title>Node2&#45;&gt;Node4</title>
<g id="a_edge3_Node000002_Node000004"><a xlink:title=" ">
<path fill="none" stroke="#63b8ff" d="M227.19,-54.75C227.06,-47.8 226.87,-37.85 226.7,-29.13"/>
<polygon fill="#63b8ff" stroke="#63b8ff" points="230.2,-29.02 226.51,-19.09 223.2,-29.15 230.2,-29.02"/>
</a>
</g>
</g>
<!-- Node6 -->
<g id="Node000006" class="node">
<title>Node6</title>
<g id="a_Node000006"><a xlink:href="_boolean_8h.html" target="_top" xlink:title="The Boolean specification and body provides a value object type for boolean values.">
<polygon fill="white" stroke="#666666" points="214.35,-244.5 154.35,-244.5 154.35,-225.5 214.35,-225.5 214.35,-244.5"/>
<text text-anchor="middle" x="184.35" y="-232.5" font-family="Helvetica,sans-Serif" font-size="10.00">Boolean.h</text>
</a>
</g>
</g>
<!-- Node5&#45;&gt;Node6 -->
<g id="edge5_Node000005_Node000006" class="edge">
<title>Node5&#45;&gt;Node6</title>
<g id="a_edge5_Node000005_Node000006"><a xlink:title=" ">
<path fill="none" stroke="#63b8ff" d="M115.3,-285.87C128.11,-276.62 148.65,-261.78 164.01,-250.69"/>
<polygon fill="#63b8ff" stroke="#63b8ff" points="166.29,-253.36 172.35,-244.67 162.2,-247.68 166.29,-253.36"/>
</a>
</g>
</g>
<!-- Node9 -->
<g id="Node000009" class="node">
<title>Node9</title>
<g id="a_Node000009"><a xlink:href="_dictionary_8h.html" target="_top" xlink:title="The Dictionary specification defines maps from string keys to string values.">
<polygon fill="white" stroke="#666666" points="98.35,-244.5 30.35,-244.5 30.35,-225.5 98.35,-225.5 98.35,-244.5"/>
<text text-anchor="middle" x="64.35" y="-232.5" font-family="Helvetica,sans-Serif" font-size="10.00">Dictionary.h</text>
</a>
</g>
</g>
<!-- Node5&#45;&gt;Node9 -->
<g id="edge9_Node000005_Node000009" class="edge">
<title>Node5&#45;&gt;Node9</title>
<g id="a_edge9_Node000005_Node000009"><a xlink:title=" ">
<path fill="none" stroke="#63b8ff" d="M97.6,-285.87C91.89,-277.31 83,-263.97 75.85,-253.24"/>
<polygon fill="#63b8ff" stroke="#63b8ff" points="78.59,-251.05 70.13,-244.67 72.77,-254.93 78.59,-251.05"/>
</a>
</g>
</g>
<!-- Node11 -->
<g id="Node000011" class="node">
<title>Node11</title>
<g id="a_Node000011"><a xlink:href="_natural_8h.html" target="_top" xlink:title="The Natural specification and body provides a value object type for naturals (positive integers with ...">
<polygon fill="white" stroke="#666666" points="311.35,-129 255.35,-129 255.35,-110 311.35,-110 311.35,-129"/>
<text text-anchor="middle" x="283.35" y="-117" font-family="Helvetica,sans-Serif" font-size="10.00">Natural.h</text>
</a>
</g>
</g>
<!-- Node5&#45;&gt;Node11 -->
<g id="edge11_Node000005_Node000011" class="edge">
<title>Node5&#45;&gt;Node11</title>
<g id="a_edge11_Node000005_Node000011"><a xlink:title=" ">
<path fill="none" stroke="#63b8ff" d="M106.73,-285.93C112.82,-271.23 126.74,-240.81 145.35,-220 178.76,-182.65 228.49,-151.11 258.24,-134.08"/>
<polygon fill="#63b8ff" stroke="#63b8ff" points="260.15,-137.02 267.15,-129.07 256.72,-130.92 260.15,-137.02"/>
</a>
</g>
</g>
<!-- Node7 -->
<g id="Node000007" class="node">
<title>Node7</title>
<g id="a_Node000007"><a xlink:href="_my_string_8h.html" target="_top" xlink:title="The String specification defines a standard string type.">
<polygon fill="white" stroke="#666666" points="176.35,-74 112.35,-74 112.35,-55 176.35,-55 176.35,-74"/>
<text text-anchor="middle" x="144.35" y="-62" font-family="Helvetica,sans-Serif" font-size="10.00">MyString.h</text>
</a>
</g>
</g>
<!-- Node6&#45;&gt;Node7 -->
<g id="edge6_Node000006_Node000007" class="edge">
<title>Node6&#45;&gt;Node7</title>
<g id="a_edge6_Node000006_Node000007"><a xlink:title=" ">
<path fill="none" stroke="#63b8ff" d="M182.31,-225.41C176.11,-199.28 157.36,-120.29 148.75,-84.04"/>
<polygon fill="#63b8ff" stroke="#63b8ff" points="152.15,-83.19 146.43,-74.27 145.34,-84.81 152.15,-83.19"/>
</a>
</g>
</g>
<!-- Node7&#45;&gt;Node4 -->
<g id="edge7_Node000007_Node000004" class="edge">
<title>Node7&#45;&gt;Node4</title>
<g id="a_edge7_Node000007_Node000004"><a xlink:title=" ">
<path fill="none" stroke="#63b8ff" d="M157.53,-54.98C170.12,-46.84 189.36,-34.41 204.29,-24.76"/>
<polygon fill="#63b8ff" stroke="#63b8ff" points="206.44,-27.54 212.94,-19.17 202.64,-21.66 206.44,-27.54"/>
</a>
</g>
</g>
<!-- Node8 -->
<g id="Node000008" class="node">
<title>Node8</title>
<g id="a_Node000008"><a xlink:href="_global_macros_8h.html" target="_top" xlink:title="The GlobalMacros specification defines simple macros (e.g. for parameter modes).">
<polygon fill="white" stroke="#666666" points="186.85,-19 101.85,-19 101.85,0 186.85,0 186.85,-19"/>
<text text-anchor="middle" x="144.35" y="-7" font-family="Helvetica,sans-Serif" font-size="10.00">GlobalMacros.h</text>
</a>
</g>
</g>
<!-- Node7&#45;&gt;Node8 -->
<g id="edge8_Node000007_Node000008" class="edge">
<title>Node7&#45;&gt;Node8</title>
<g id="a_edge8_Node000007_Node000008"><a xlink:title=" ">
<path fill="none" stroke="#63b8ff" d="M144.35,-54.75C144.35,-47.8 144.35,-37.85 144.35,-29.13"/>
<polygon fill="#63b8ff" stroke="#63b8ff" points="147.85,-29.09 144.35,-19.09 140.85,-29.09 147.85,-29.09"/>
</a>
</g>
</g>
<!-- Node10 -->
<g id="Node000010" class="node">
<title>Node10</title>
<g id="a_Node000010"><a xlink:title=" ">
<polygon fill="#e0e0e0" stroke="#999999" points="105.85,-184 28.85,-184 28.85,-165 105.85,-165 105.85,-184"/>
<text text-anchor="middle" x="67.35" y="-172" font-family="Helvetica,sans-Serif" font-size="10.00">GenericMap.h</text>
</a>
</g>
</g>
<!-- Node9&#45;&gt;Node10 -->
<g id="edge10_Node000009_Node000010" class="edge">
<title>Node9&#45;&gt;Node10</title>
<g id="a_edge10_Node000009_Node000010"><a xlink:title=" ">
<path fill="none" stroke="#63b8ff" d="M64.8,-225.37C65.21,-217.25 65.85,-204.81 66.38,-194.39"/>
<polygon fill="#63b8ff" stroke="#63b8ff" points="69.89,-194.33 66.91,-184.17 62.9,-193.97 69.89,-194.33"/>
</a>
</g>
</g>
<!-- Node11&#45;&gt;Node2 -->
<g id="edge13_Node000011_Node000002" class="edge">
<title>Node11&#45;&gt;Node2</title>
<g id="a_edge13_Node000011_Node000002"><a xlink:title=" ">
<path fill="none" stroke="#63b8ff" d="M274.36,-109.98C266.16,-102.23 253.85,-90.58 243.88,-81.14"/>
<polygon fill="#63b8ff" stroke="#63b8ff" points="246.18,-78.5 236.51,-74.17 241.37,-83.59 246.18,-78.5"/>
</a>
</g>
</g>
<!-- Node11&#45;&gt;Node7 -->
<g id="edge15_Node000011_Node000007" class="edge">
<title>Node11&#45;&gt;Node7</title>
<g id="a_edge15_Node000011_Node000007"><a xlink:title=" ">
<path fill="none" stroke="#63b8ff" d="M261.02,-109.98C238.16,-101.27 202.4,-87.63 176.49,-77.75"/>
<polygon fill="#63b8ff" stroke="#63b8ff" points="177.68,-74.46 167.09,-74.17 175.19,-81 177.68,-74.46"/>
</a>
</g>
</g>
<!-- Node12 -->
<g id="Node000012" class="node">
<title>Node12</title>
<g id="a_Node000012"><a xlink:title=" ">
<polygon fill="#e0e0e0" stroke="#999999" points="520.35,-74 476.35,-74 476.35,-55 520.35,-55 520.35,-74"/>
<text text-anchor="middle" x="498.35" y="-62" font-family="Helvetica,sans-Serif" font-size="10.00">cmath</text>
</a>
</g>
</g>
<!-- Node11&#45;&gt;Node12 -->
<g id="edge12_Node000011_Node000012" class="edge">
<title>Node11&#45;&gt;Node12</title>
<g id="a_edge12_Node000011_Node000012"><a xlink:title=" ">
<path fill="none" stroke="#63b8ff" d="M311.46,-111.57C351.42,-101.72 424.44,-83.72 466.41,-73.38"/>
<polygon fill="#63b8ff" stroke="#63b8ff" points="467.24,-76.77 476.12,-70.98 465.57,-69.98 467.24,-76.77"/>
</a>
</g>
</g>
<!-- Node13 -->
<g id="Node000013" class="node">
<title>Node13</title>
<g id="a_Node000013"><a xlink:title=" ">
<polygon fill="#e0e0e0" stroke="#999999" points="370.35,-74 278.35,-74 278.35,-55 370.35,-55 370.35,-74"/>
<text text-anchor="middle" x="324.35" y="-62" font-family="Helvetica,sans-Serif" font-size="10.00">GenericNumber.h</text>
</a>
</g>
</g>
<!-- Node11&#45;&gt;Node13 -->
<g id="edge14_Node000011_Node000013" class="edge">
<title>Node11&#45;&gt;Node13</title>
<g id="a_edge14_Node000011_Node000013"><a xlink:title=" ">
<path fill="none" stroke="#63b8ff" d="M290.12,-109.75C295.91,-102.26 304.41,-91.28 311.49,-82.13"/>
<polygon fill="#63b8ff" stroke="#63b8ff" points="314.36,-84.14 317.71,-74.09 308.82,-79.86 314.36,-84.14"/>
</a>
</g>
</g>
<!-- Node15 -->
<g id="Node000015" class="node">
<title>Node15</title>
<g id="a_Node000015"><a xlink:title=" ">
<polygon fill="#e0e0e0" stroke="#999999" points="440.85,-360 391.85,-360 391.85,-341 440.85,-341 440.85,-360"/>
<text text-anchor="middle" x="416.35" y="-348" font-family="Helvetica,sans-Serif" font-size="10.00">cstdarg</text>
</a>
</g>
</g>
<!-- Node14&#45;&gt;Node15 -->
<g id="edge17_Node000014_Node000015" class="edge">
<title>Node14&#45;&gt;Node15</title>
<g id="a_edge17_Node000014_Node000015"><a xlink:title=" ">
<path fill="none" stroke="#63b8ff" d="M296.33,-395.98C319.85,-387.27 356.64,-373.63 383.29,-363.75"/>
<polygon fill="#63b8ff" stroke="#63b8ff" points="384.8,-366.93 392.96,-360.17 382.37,-360.36 384.8,-366.93"/>
</a>
</g>
</g>
<!-- Node16 -->
<g id="Node000016" class="node">
<title>Node16</title>
<g id="a_Node000016"><a xlink:href="_logging_support_8h.html" target="_top" xlink:title="The LoggingSupport specification defines a class for simple entry/exit logging to a file or via an ar...">
<polygon fill="white" stroke="#666666" points="252.35,-305 160.35,-305 160.35,-286 252.35,-286 252.35,-305"/>
<text text-anchor="middle" x="206.35" y="-293" font-family="Helvetica,sans-Serif" font-size="10.00">LoggingSupport.h</text>
</a>
</g>
</g>
<!-- Node14&#45;&gt;Node16 -->
<g id="edge18_Node000014_Node000016" class="edge">
<title>Node14&#45;&gt;Node16</title>
<g id="a_edge18_Node000014_Node000016"><a xlink:title=" ">
<path fill="none" stroke="#63b8ff" d="M267.87,-395.66C256.77,-377.77 231.48,-337 217.02,-313.69"/>
<polygon fill="#63b8ff" stroke="#63b8ff" points="219.97,-311.81 211.72,-305.16 214.02,-315.5 219.97,-311.81"/>
</a>
</g>
</g>
<!-- Node17 -->
<g id="Node000017" class="node">
<title>Node17</title>
<g id="a_Node000017"><a xlink:href="_string_util_8h.html" target="_top" xlink:title="The StringUtil specification defines several string routines not included in the standard C++ library...">
<polygon fill="white" stroke="#666666" points="373.85,-360 308.85,-360 308.85,-341 373.85,-341 373.85,-360"/>
<text text-anchor="middle" x="341.35" y="-348" font-family="Helvetica,sans-Serif" font-size="10.00">StringUtil.h</text>
</a>
</g>
</g>
<!-- Node14&#45;&gt;Node17 -->
<g id="edge21_Node000014_Node000017" class="edge">
<title>Node14&#45;&gt;Node17</title>
<g id="a_edge21_Node000014_Node000017"><a xlink:title=" ">
<path fill="none" stroke="#63b8ff" d="M284.28,-395.98C294.43,-388.07 309.77,-376.11 322,-366.58"/>
<polygon fill="#63b8ff" stroke="#63b8ff" points="324.49,-369.08 330.23,-360.17 320.19,-363.56 324.49,-369.08"/>
</a>
</g>
</g>
<!-- Node16&#45;&gt;Node6 -->
<g id="edge19_Node000016_Node000006" class="edge">
<title>Node16&#45;&gt;Node6</title>
<g id="a_edge19_Node000016_Node000006"><a xlink:title=" ">
<path fill="none" stroke="#63b8ff" d="M203.11,-285.87C199.99,-277.57 195.17,-264.78 191.21,-254.22"/>
<polygon fill="#63b8ff" stroke="#63b8ff" points="194.41,-252.8 187.61,-244.67 187.86,-255.26 194.41,-252.8"/>
</a>
</g>
</g>
<!-- Node16&#45;&gt;Node11 -->
<g id="edge20_Node000016_Node000011" class="edge">
<title>Node16&#45;&gt;Node11</title>
<g id="a_edge20_Node000016_Node000011"><a xlink:title=" ">
<path fill="none" stroke="#63b8ff" d="M210.28,-285.63C222.33,-258.4 258.96,-175.61 275.32,-138.65"/>
<polygon fill="#63b8ff" stroke="#63b8ff" points="278.68,-139.7 279.53,-129.14 272.28,-136.87 278.68,-139.7"/>
</a>
</g>
</g>
<!-- Node17&#45;&gt;Node6 -->
<g id="edge22_Node000017_Node000006" class="edge">
<title>Node17&#45;&gt;Node6</title>
<g id="a_edge22_Node000017_Node000006"><a xlink:title=" ">
<path fill="none" stroke="#63b8ff" d="M331.24,-340.96C316.29,-328.46 287.27,-304.63 261.35,-286 243.67,-273.28 222.93,-259.9 207.43,-250.18"/>
<polygon fill="#63b8ff" stroke="#63b8ff" points="208.87,-246.95 198.53,-244.64 205.17,-252.9 208.87,-246.95"/>
</a>
</g>
</g>
<!-- Node18 -->
<g id="Node000018" class="node">
<title>Node18</title>
<g id="a_Node000018"><a xlink:href="_character_8h.html" target="_top" xlink:title="The Character specification and body provides a value object type for character values.">
<polygon fill="white" stroke="#666666" points="621.85,-244.5 554.85,-244.5 554.85,-225.5 621.85,-225.5 621.85,-244.5"/>
<text text-anchor="middle" x="588.35" y="-232.5" font-family="Helvetica,sans-Serif" font-size="10.00">Character.h</text>
</a>
</g>
</g>
<!-- Node17&#45;&gt;Node18 -->
<g id="edge23_Node000017_Node000018" class="edge">
<title>Node17&#45;&gt;Node18</title>
<g id="a_edge23_Node000017_Node000018"><a xlink:title=" ">
<path fill="none" stroke="#63b8ff" d="M373.82,-340.97C401.46,-333.18 441.89,-320.53 475.35,-305 509.44,-289.18 546.07,-265.43 568.1,-250.33"/>
<polygon fill="#63b8ff" stroke="#63b8ff" points="570.1,-253.19 576.33,-244.62 566.11,-247.44 570.1,-253.19"/>
</a>
</g>
</g>
<!-- Node21 -->
<g id="Node000021" class="node">
<title>Node21</title>
<g id="a_Node000021"><a xlink:href="_object_8h.html" target="_top" xlink:title="The Object specification and body provides the root object type.">
<polygon fill="white" stroke="#666666" points="575.85,-305 522.85,-305 522.85,-286 575.85,-286 575.85,-305"/>
<text text-anchor="middle" x="549.35" y="-293" font-family="Helvetica,sans-Serif" font-size="10.00">Object.h</text>
</a>
</g>
</g>
<!-- Node17&#45;&gt;Node21 -->
<g id="edge29_Node000017_Node000021" class="edge">
<title>Node17&#45;&gt;Node21</title>
<g id="a_edge29_Node000017_Node000021"><a xlink:title=" ">
<path fill="none" stroke="#63b8ff" d="M374.31,-341.1C412.06,-331.48 473.73,-315.77 512.89,-305.79"/>
<polygon fill="#63b8ff" stroke="#63b8ff" points="513.99,-309.12 522.82,-303.26 512.26,-302.34 513.99,-309.12"/>
</a>
</g>
</g>
<!-- Node22 -->
<g id="Node000022" class="node">
<title>Node22</title>
<g id="a_Node000022"><a xlink:href="_percentage_8h.html" target="_top" xlink:title="The Percentage specification and body provides a simple percentage type.">
<polygon fill="white" stroke="#666666" points="466.35,-305 392.35,-305 392.35,-286 466.35,-286 466.35,-305"/>
<text text-anchor="middle" x="429.35" y="-293" font-family="Helvetica,sans-Serif" font-size="10.00">Percentage.h</text>
</a>
</g>
</g>
<!-- Node17&#45;&gt;Node22 -->
<g id="edge30_Node000017_Node000022" class="edge">
<title>Node17&#45;&gt;Node22</title>
<g id="a_edge30_Node000017_Node000022"><a xlink:title=" ">
<path fill="none" stroke="#63b8ff" d="M355.49,-340.98C369.14,-332.77 390.04,-320.18 406.13,-310.49"/>
<polygon fill="#63b8ff" stroke="#63b8ff" points="408.2,-313.33 414.96,-305.17 404.58,-307.33 408.2,-313.33"/>
</a>
</g>
</g>
<!-- Node25 -->
<g id="Node000025" class="node">
<title>Node25</title>
<g id="a_Node000025"><a xlink:href="_string_list_8h.html" target="_top" xlink:title="The StringList specification defines lists of string values with zero&#45;based arbitrary indexed access ...">
<polygon fill="white" stroke="#666666" points="374.35,-305 308.35,-305 308.35,-286 374.35,-286 374.35,-305"/>
<text text-anchor="middle" x="341.35" y="-293" font-family="Helvetica,sans-Serif" font-size="10.00">StringList.h</text>
</a>
</g>
</g>
<!-- Node17&#45;&gt;Node25 -->
<g id="edge36_Node000017_Node000025" class="edge">
<title>Node17&#45;&gt;Node25</title>
<g id="a_edge36_Node000017_Node000025"><a xlink:title=" ">
<path fill="none" stroke="#63b8ff" d="M341.35,-340.75C341.35,-333.8 341.35,-323.85 341.35,-315.13"/>
<polygon fill="#63b8ff" stroke="#63b8ff" points="344.85,-315.09 341.35,-305.09 337.85,-315.09 344.85,-315.09"/>
</a>
</g>
</g>
<!-- Node18&#45;&gt;Node12 -->
<g id="edge24_Node000018_Node000012" class="edge">
<title>Node18&#45;&gt;Node12</title>
<g id="a_edge24_Node000018_Node000012"><a xlink:title=" ">
<path fill="none" stroke="#63b8ff" d="M586.36,-225.33C581.27,-204.31 566.39,-149.47 541.35,-110 534.55,-99.28 524.86,-88.97 516.4,-80.98"/>
<polygon fill="#63b8ff" stroke="#63b8ff" points="518.56,-78.21 508.8,-74.09 513.86,-83.4 518.56,-78.21"/>
</a>
</g>
</g>
<!-- Node19 -->
<g id="Node000019" class="node">
<title>Node19</title>
<g id="a_Node000019"><a xlink:href="_byte_8h.html" target="_top" xlink:title="The Byte specification and body provides a value object type for byte values.">
<polygon fill="white" stroke="#666666" points="544.85,-184 499.85,-184 499.85,-165 544.85,-165 544.85,-184"/>
<text text-anchor="middle" x="522.35" y="-172" font-family="Helvetica,sans-Serif" font-size="10.00">Byte.h</text>
</a>
</g>
</g>
<!-- Node18&#45;&gt;Node19 -->
<g id="edge25_Node000018_Node000019" class="edge">
<title>Node18&#45;&gt;Node19</title>
<g id="a_edge25_Node000018_Node000019"><a xlink:title=" ">
<path fill="none" stroke="#63b8ff" d="M578.61,-225.37C568.38,-216.3 552.07,-201.84 539.64,-190.82"/>
<polygon fill="#63b8ff" stroke="#63b8ff" points="541.94,-188.18 532.13,-184.17 537.29,-193.42 541.94,-188.18"/>
</a>
</g>
</g>
<!-- Node19&#45;&gt;Node11 -->
<g id="edge28_Node000019_Node000011" class="edge">
<title>Node19&#45;&gt;Node11</title>
<g id="a_edge28_Node000019_Node000011"><a xlink:title=" ">
<path fill="none" stroke="#63b8ff" d="M499.44,-168.42C458.34,-159.3 371.71,-140.09 321.52,-128.96"/>
<polygon fill="#63b8ff" stroke="#63b8ff" points="322.21,-125.53 311.69,-126.78 320.7,-132.37 322.21,-125.53"/>
</a>
</g>
</g>
<!-- Node19&#45;&gt;Node12 -->
<g id="edge26_Node000019_Node000012" class="edge">
<title>Node19&#45;&gt;Node12</title>
<g id="a_edge26_Node000019_Node000012"><a xlink:title=" ">
<path fill="none" stroke="#63b8ff" d="M524.76,-164.67C527.74,-152.21 531.8,-128.89 526.35,-110 523.49,-100.06 517.67,-90.2 512.08,-82.29"/>
<polygon fill="#63b8ff" stroke="#63b8ff" points="514.85,-80.16 506.03,-74.3 509.27,-84.39 514.85,-80.16"/>
</a>
</g>
</g>
<!-- Node20 -->
<g id="Node000020" class="node">
<title>Node20</title>
<g id="a_Node000020"><a xlink:title=" ">
<polygon fill="#e0e0e0" stroke="#999999" points="517.35,-129 471.35,-129 471.35,-110 517.35,-110 517.35,-129"/>
<text text-anchor="middle" x="494.35" y="-117" font-family="Helvetica,sans-Serif" font-size="10.00">cstdint</text>
</a>
</g>
</g>
<!-- Node19&#45;&gt;Node20 -->
<g id="edge27_Node000019_Node000020" class="edge">
<title>Node19&#45;&gt;Node20</title>
<g id="a_edge27_Node000019_Node000020"><a xlink:title=" ">
<path fill="none" stroke="#63b8ff" d="M517.73,-164.75C513.9,-157.49 508.33,-146.95 503.59,-137.98"/>
<polygon fill="#63b8ff" stroke="#63b8ff" points="506.66,-136.3 498.89,-129.09 500.47,-139.57 506.66,-136.3"/>
</a>
</g>
</g>
<!-- Node23 -->
<g id="Node000023" class="node">
<title>Node23</title>
<g id="a_Node000023"><a xlink:href="_real_8h.html" target="_top" xlink:title="The Real specification defines a value object type for real values.">
<polygon fill="white" stroke="#666666" points="498.35,-244.5 454.35,-244.5 454.35,-225.5 498.35,-225.5 498.35,-244.5"/>
<text text-anchor="middle" x="476.35" y="-232.5" font-family="Helvetica,sans-Serif" font-size="10.00">Real.h</text>
</a>
</g>
</g>
<!-- Node22&#45;&gt;Node23 -->
<g id="edge31_Node000022_Node000023" class="edge">
<title>Node22&#45;&gt;Node23</title>
<g id="a_edge31_Node000022_Node000023"><a xlink:title=" ">
<path fill="none" stroke="#63b8ff" d="M436.29,-285.87C443.3,-277.14 454.31,-263.43 463.02,-252.59"/>
<polygon fill="#63b8ff" stroke="#63b8ff" points="465.85,-254.66 469.39,-244.67 460.4,-250.27 465.85,-254.66"/>
</a>
</g>
</g>
<!-- Node24 -->
<g id="Node000024" class="node">
<title>Node24</title>
<g id="a_Node000024"><a xlink:href="_integer_8h.html" target="_top" xlink:title="The Integer specification and body provides a value object type for ints.">
<polygon fill="white" stroke="#666666" points="470.35,-184 416.35,-184 416.35,-165 470.35,-165 470.35,-184"/>
<text text-anchor="middle" x="443.35" y="-172" font-family="Helvetica,sans-Serif" font-size="10.00">Integer.h</text>
</a>
</g>
</g>
<!-- Node23&#45;&gt;Node24 -->
<g id="edge32_Node000023_Node000024" class="edge">
<title>Node23&#45;&gt;Node24</title>
<g id="a_edge32_Node000023_Node000024"><a xlink:title=" ">
<path fill="none" stroke="#63b8ff" d="M471.48,-225.37C466.71,-216.9 459.28,-203.74 453.26,-193.07"/>
<polygon fill="#63b8ff" stroke="#63b8ff" points="456.2,-191.16 448.24,-184.17 450.11,-194.6 456.2,-191.16"/>
</a>
</g>
</g>
<!-- Node24&#45;&gt;Node3 -->
<g id="edge34_Node000024_Node000003" class="edge">
<title>Node24&#45;&gt;Node3</title>
<g id="a_edge34_Node000024_Node000003"><a xlink:title=" ">
<path fill="none" stroke="#63b8ff" d="M439.25,-164.93C429.65,-145.09 404.58,-94.65 379.35,-55 373.29,-45.46 365.84,-35.31 359.55,-27.11"/>
<polygon fill="#63b8ff" stroke="#63b8ff" points="362.22,-24.84 353.31,-19.1 356.7,-29.14 362.22,-24.84"/>
</a>
</g>
</g>
<!-- Node24&#45;&gt;Node11 -->
<g id="edge35_Node000024_Node000011" class="edge">
<title>Node24&#45;&gt;Node11</title>
<g id="a_edge35_Node000024_Node000011"><a xlink:title=" ">
<path fill="none" stroke="#63b8ff" d="M417.65,-164.98C390.9,-156.13 348.82,-142.19 318.9,-132.28"/>
<polygon fill="#63b8ff" stroke="#63b8ff" points="319.85,-128.9 309.26,-129.08 317.65,-135.55 319.85,-128.9"/>
</a>
</g>
</g>
<!-- Node24&#45;&gt;Node12 -->
<g id="edge33_Node000024_Node000012" class="edge">
<title>Node24&#45;&gt;Node12</title>
<g id="a_edge33_Node000024_Node000012"><a xlink:title=" ">
<path fill="none" stroke="#63b8ff" d="M444.83,-164.88C447.22,-152.27 452.69,-128.32 462.35,-110 467.72,-99.82 475.6,-89.75 482.61,-81.77"/>
<polygon fill="#63b8ff" stroke="#63b8ff" points="485.29,-84.02 489.48,-74.29 480.14,-79.29 485.29,-84.02"/>
</a>
</g>
</g>
<!-- Node26 -->
<g id="Node000026" class="node">
<title>Node26</title>
<g id="a_Node000026"><a xlink:title=" ">
<polygon fill="#e0e0e0" stroke="#999999" points="435.85,-244.5 362.85,-244.5 362.85,-225.5 435.85,-225.5 435.85,-244.5"/>
<text text-anchor="middle" x="399.35" y="-232.5" font-family="Helvetica,sans-Serif" font-size="10.00">initializer_list</text>
</a>
</g>
</g>
<!-- Node25&#45;&gt;Node26 -->
<g id="edge37_Node000025_Node000026" class="edge">
<title>Node25&#45;&gt;Node26</title>
<g id="a_edge37_Node000025_Node000026"><a xlink:title=" ">
<path fill="none" stroke="#63b8ff" d="M349.91,-285.87C358.73,-276.97 372.7,-262.89 383.54,-251.95"/>
<polygon fill="#63b8ff" stroke="#63b8ff" points="386.2,-254.23 390.76,-244.67 381.23,-249.3 386.2,-254.23"/>
</a>
</g>
</g>
<!-- Node27 -->
<g id="Node000027" class="node">
<title>Node27</title>
<g id="a_Node000027"><a xlink:title=" ">
<polygon fill="#e0e0e0" stroke="#999999" points="344.35,-244.5 270.35,-244.5 270.35,-225.5 344.35,-225.5 344.35,-244.5"/>
<text text-anchor="middle" x="307.35" y="-232.5" font-family="Helvetica,sans-Serif" font-size="10.00">GenericList.h</text>
</a>
</g>
</g>
<!-- Node25&#45;&gt;Node27 -->
<g id="edge38_Node000025_Node000027" class="edge">
<title>Node25&#45;&gt;Node27</title>
<g id="a_edge38_Node000025_Node000027"><a xlink:title=" ">
<path fill="none" stroke="#63b8ff" d="M336.34,-285.87C331.41,-277.4 323.77,-264.24 317.56,-253.57"/>
<polygon fill="#63b8ff" stroke="#63b8ff" points="320.44,-251.55 312.39,-244.67 314.39,-255.07 320.44,-251.55"/>
</a>
</g>
</g>
<!-- Node29 -->
<g id="Node000029" class="node">
<title>Node29</title>
<g id="a_Node000029"><a xlink:href="_fluid_synth_plugin___event_processor_8h.html" target="_top" xlink:title="The FluidSynthPlugin_Processor specification defines the handling of MIDI events from the DAW via JUC...">
<polygon fill="white" stroke="#666666" points="652.35,-360 480.35,-360 480.35,-341 652.35,-341 652.35,-360"/>
<text text-anchor="middle" x="566.35" y="-348" font-family="Helvetica,sans-Serif" font-size="10.00">FluidSynthPlugin_EventProcessor.h</text>
</a>
</g>
</g>
<!-- Node28&#45;&gt;Node29 -->
<g id="edge40_Node000028_Node000029" class="edge">
<title>Node28&#45;&gt;Node29</title>
<g id="a_edge40_Node000028_Node000029"><a xlink:title=" ">
<path fill="none" stroke="#63b8ff" d="M566.35,-395.75C566.35,-388.8 566.35,-378.85 566.35,-370.13"/>
<polygon fill="#63b8ff" stroke="#63b8ff" points="569.85,-370.09 566.35,-360.09 562.85,-370.09 569.85,-370.09"/>
</a>
</g>
</g>
<!-- Node29&#45;&gt;Node21 -->
<g id="edge52_Node000029_Node000021" class="edge">
<title>Node29&#45;&gt;Node21</title>
<g id="a_edge52_Node000029_Node000021"><a xlink:title=" ">
<path fill="none" stroke="#63b8ff" d="M563.55,-340.75C561.29,-333.72 558.05,-323.62 555.24,-314.84"/>
<polygon fill="#63b8ff" stroke="#63b8ff" points="558.49,-313.54 552.11,-305.09 551.83,-315.68 558.49,-313.54"/>
</a>
</g>
</g>
<!-- Node30 -->
<g id="Node000030" class="node">
<title>Node30</title>
<g id="a_Node000030"><a xlink:href="_juce_headers_8h_source.html" target="_top" xlink:title=" ">
<polygon fill="white" stroke="#666666" points="1296.85,-305 1215.85,-305 1215.85,-286 1296.85,-286 1296.85,-305"/>
<text text-anchor="middle" x="1256.35" y="-293" font-family="Helvetica,sans-Serif" font-size="10.00">JuceHeaders.h</text>
</a>
</g>
</g>
<!-- Node29&#45;&gt;Node30 -->
<g id="edge41_Node000029_Node000030" class="edge">
<title>Node29&#45;&gt;Node30</title>
<g id="a_edge41_Node000029_Node000030"><a xlink:title=" ">
<path fill="none" stroke="#63b8ff" d="M652.69,-342.87C798.37,-331.68 1088.51,-309.39 1205.6,-300.4"/>
<polygon fill="#63b8ff" stroke="#63b8ff" points="1206.02,-303.88 1215.72,-299.62 1205.48,-296.9 1206.02,-303.88"/>
</a>
</g>
</g>
<!-- Node41 -->
<g id="Node000041" class="node">
<title>Node41</title>
<g id="a_Node000041"><a xlink:href="_midi_preset_identification_8h.html" target="_top" xlink:title="The MidiPresetIdentification specification defines the identification of a MIDI preset as a tuple of ...">
<polygon fill="white" stroke="#666666" points="718.85,-305 593.85,-305 593.85,-286 718.85,-286 718.85,-305"/>
<text text-anchor="middle" x="656.35" y="-293" font-family="Helvetica,sans-Serif" font-size="10.00">MidiPresetIdentification.h</text>
</a>
</g>
</g>
<!-- Node29&#45;&gt;Node41 -->
<g id="edge53_Node000029_Node000041" class="edge">
<title>Node29&#45;&gt;Node41</title>
<g id="a_edge53_Node000029_Node000041"><a xlink:title=" ">
<path fill="none" stroke="#63b8ff" d="M580.81,-340.98C594.77,-332.77 616.15,-320.18 632.6,-310.49"/>
<polygon fill="#63b8ff" stroke="#63b8ff" points="634.79,-313.26 641.63,-305.17 631.24,-307.23 634.79,-313.26"/>
</a>
</g>
</g>
<!-- Node31 -->
<g id="Node000031" class="node">
<title>Node31</title>
<g id="a_Node000031"><a xlink:title=" ">
<polygon fill="#e0e0e0" stroke="#999999" points="758.35,-250 640.35,-250 640.35,-220 758.35,-220 758.35,-250"/>
<text text-anchor="start" x="648.35" y="-238" font-family="Helvetica,sans-Serif" font-size="10.00">juce_audio_basics/juce</text>
<text text-anchor="middle" x="699.35" y="-227" font-family="Helvetica,sans-Serif" font-size="10.00">_audio_basics.h</text>
</a>
</g>
</g>
<!-- Node30&#45;&gt;Node31 -->
<g id="edge42_Node000030_Node000031" class="edge">
<title>Node30&#45;&gt;Node31</title>
<g id="a_edge42_Node000030_Node000031"><a xlink:title=" ">
<path fill="none" stroke="#63b8ff" d="M1215.6,-292.34C1133.07,-287.64 940.17,-274.95 768.59,-250.07"/>
<polygon fill="#63b8ff" stroke="#63b8ff" points="769.02,-246.6 758.62,-248.61 768.01,-253.53 769.02,-246.6"/>
</a>
</g>
</g>
<!-- Node32 -->
<g id="Node000032" class="node">
<title>Node32</title>
<g id="a_Node000032"><a xlink:title=" ">
<polygon fill="#e0e0e0" stroke="#999999" points="910.35,-250 776.35,-250 776.35,-220 910.35,-220 910.35,-250"/>
<text text-anchor="start" x="784.35" y="-238" font-family="Helvetica,sans-Serif" font-size="10.00">juce_audio_plugin_client</text>
<text text-anchor="middle" x="843.35" y="-227" font-family="Helvetica,sans-Serif" font-size="10.00">/juce_audio_plugin_client.h</text>
</a>
</g>
</g>
<!-- Node30&#45;&gt;Node32 -->
<g id="edge43_Node000030_Node000032" class="edge">
<title>Node30&#45;&gt;Node32</title>
<g id="a_edge43_Node000030_Node000032"><a xlink:title=" ">
<path fill="none" stroke="#63b8ff" d="M1215.79,-289.82C1154.25,-282.57 1033.38,-267.76 920.64,-250.15"/>
<polygon fill="#63b8ff" stroke="#63b8ff" points="920.88,-246.65 910.46,-248.55 919.79,-253.56 920.88,-246.65"/>
</a>
</g>
</g>
<!-- Node33 -->
<g id="Node000033" class="node">
<title>Node33</title>
<g id="a_Node000033"><a xlink:title=" ">
<polygon fill="#e0e0e0" stroke="#999999" points="1056.35,-250 928.35,-250 928.35,-220 1056.35,-220 1056.35,-250"/>
<text text-anchor="start" x="936.35" y="-238" font-family="Helvetica,sans-Serif" font-size="10.00">juce_audio_processors</text>
<text text-anchor="middle" x="992.35" y="-227" font-family="Helvetica,sans-Serif" font-size="10.00">/juce_audio_processors.h</text>
</a>
</g>
</g>
<!-- Node30&#45;&gt;Node33 -->
<g id="edge44_Node000030_Node000033" class="edge">
<title>Node30&#45;&gt;Node33</title>
<g id="a_edge44_Node000030_Node000033"><a xlink:title=" ">
<path fill="none" stroke="#63b8ff" d="M1217.96,-285.99C1178.16,-277.17 1114.96,-263.17 1065.57,-252.22"/>
<polygon fill="#63b8ff" stroke="#63b8ff" points="1066.09,-248.75 1055.57,-250.01 1064.57,-255.59 1066.09,-248.75"/>
</a>
</g>
</g>
<!-- Node34 -->
<g id="Node000034" class="node">
<title>Node34</title>
<g id="a_Node000034"><a xlink:title=" ">
<polygon fill="#e0e0e0" stroke="#999999" points="1181.85,-250 1074.85,-250 1074.85,-220 1181.85,-220 1181.85,-250"/>
<text text-anchor="start" x="1082.85" y="-238" font-family="Helvetica,sans-Serif" font-size="10.00">juce_audio_utils/juce</text>
<text text-anchor="middle" x="1128.35" y="-227" font-family="Helvetica,sans-Serif" font-size="10.00">_audio_utils.h</text>
</a>
</g>
</g>
<!-- Node30&#45;&gt;Node34 -->
<g id="edge45_Node000030_Node000034" class="edge">
<title>Node30&#45;&gt;Node34</title>
<g id="a_edge45_Node000030_Node000034"><a xlink:title=" ">
<path fill="none" stroke="#63b8ff" d="M1237.74,-285.99C1219.7,-277.75 1191.75,-264.98 1168.62,-254.4"/>
<polygon fill="#63b8ff" stroke="#63b8ff" points="1169.92,-251.15 1159.37,-250.18 1167.01,-257.52 1169.92,-251.15"/>
</a>
</g>
</g>
<!-- Node35 -->
<g id="Node000035" class="node">
<title>Node35</title>
<g id="a_Node000035"><a xlink:title=" ">
<polygon fill="#e0e0e0" stroke="#999999" points="1312.35,-244.5 1200.35,-244.5 1200.35,-225.5 1312.35,-225.5 1312.35,-244.5"/>
<text text-anchor="middle" x="1256.35" y="-232.5" font-family="Helvetica,sans-Serif" font-size="10.00">juce_core/juce_core.h</text>
</a>
</g>
</g>
<!-- Node30&#45;&gt;Node35 -->
<g id="edge46_Node000030_Node000035" class="edge">
<title>Node30&#45;&gt;Node35</title>
<g id="a_edge46_Node000030_Node000035"><a xlink:title=" ">
<path fill="none" stroke="#63b8ff" d="M1256.35,-285.87C1256.35,-277.75 1256.35,-265.31 1256.35,-254.89"/>
<polygon fill="#63b8ff" stroke="#63b8ff" points="1259.85,-254.67 1256.35,-244.67 1252.85,-254.67 1259.85,-254.67"/>
</a>
</g>
</g>
<!-- Node36 -->
<g id="Node000036" class="node">
<title>Node36</title>
<g id="a_Node000036"><a xlink:title=" ">
<polygon fill="#e0e0e0" stroke="#999999" points="1449.85,-250 1330.85,-250 1330.85,-220 1449.85,-220 1449.85,-250"/>
<text text-anchor="start" x="1338.85" y="-238" font-family="Helvetica,sans-Serif" font-size="10.00">juce_data_structures</text>
<text text-anchor="middle" x="1390.35" y="-227" font-family="Helvetica,sans-Serif" font-size="10.00">/juce_data_structures.h</text>
</a>
</g>
</g>
<!-- Node30&#45;&gt;Node36 -->
<g id="edge47_Node000030_Node000036" class="edge">
<title>Node30&#45;&gt;Node36</title>
<g id="a_edge47_Node000030_Node000036"><a xlink:title=" ">
<path fill="none" stroke="#63b8ff" d="M1275.84,-285.99C1294.87,-277.68 1324.44,-264.78 1348.76,-254.16"/>
<polygon fill="#63b8ff" stroke="#63b8ff" points="1350.37,-257.27 1358.14,-250.06 1347.57,-250.86 1350.37,-257.27"/>
</a>
</g>
</g>
<!-- Node37 -->
<g id="Node000037" class="node">
<title>Node37</title>
<g id="a_Node000037"><a xlink:title=" ">
<polygon fill="#e0e0e0" stroke="#999999" points="1598.35,-244.5 1468.35,-244.5 1468.35,-225.5 1598.35,-225.5 1598.35,-244.5"/>
<text text-anchor="middle" x="1533.35" y="-232.5" font-family="Helvetica,sans-Serif" font-size="10.00">juce_events/juce_events.h</text>
</a>
</g>
</g>
<!-- Node30&#45;&gt;Node37 -->
<g id="edge48_Node000030_Node000037" class="edge">
<title>Node30&#45;&gt;Node37</title>
<g id="a_edge48_Node000030_Node000037"><a xlink:title=" ">
<path fill="none" stroke="#63b8ff" d="M1296.63,-285.99C1345.97,-275.57 1429.57,-257.92 1483.07,-246.62"/>
<polygon fill="#63b8ff" stroke="#63b8ff" points="1483.96,-250.01 1493.03,-244.52 1482.52,-243.16 1483.96,-250.01"/>
</a>
</g>
</g>
<!-- Node38 -->
<g id="Node000038" class="node">
<title>Node38</title>
<g id="a_Node000038"><a xlink:title=" ">
<polygon fill="#e0e0e0" stroke="#999999" points="1714.35,-250 1616.35,-250 1616.35,-220 1714.35,-220 1714.35,-250"/>
<text text-anchor="start" x="1624.35" y="-238" font-family="Helvetica,sans-Serif" font-size="10.00">juce_graphics/juce</text>
<text text-anchor="middle" x="1665.35" y="-227" font-family="Helvetica,sans-Serif" font-size="10.00">_graphics.h</text>
</a>
</g>
</g>
<!-- Node30&#45;&gt;Node38 -->
<g id="edge49_Node000030_Node000038" class="edge">
<title>Node30&#45;&gt;Node38</title>
<g id="a_edge49_Node000030_Node000038"><a xlink:title=" ">
<path fill="none" stroke="#63b8ff" d="M1297.11,-290.81C1360.98,-284.71 1488.65,-271.22 1606.18,-250.09"/>
<polygon fill="#63b8ff" stroke="#63b8ff" points="1606.86,-253.52 1616.07,-248.29 1605.61,-246.64 1606.86,-253.52"/>
</a>
</g>
</g>
<!-- Node39 -->
<g id="Node000039" class="node">
<title>Node39</title>
<g id="a_Node000039"><a xlink:title=" ">
<polygon fill="#e0e0e0" stroke="#999999" points="1839.85,-250 1732.85,-250 1732.85,-220 1839.85,-220 1839.85,-250"/>
<text text-anchor="start" x="1740.85" y="-238" font-family="Helvetica,sans-Serif" font-size="10.00">juce_gui_basics/juce</text>
<text text-anchor="middle" x="1786.35" y="-227" font-family="Helvetica,sans-Serif" font-size="10.00">_gui_basics.h</text>
</a>
</g>
</g>
<!-- Node30&#45;&gt;Node39 -->
<g id="edge50_Node000030_Node000039" class="edge">
<title>Node30&#45;&gt;Node39</title>
<g id="a_edge50_Node000030_Node000039"><a xlink:title=" ">
<path fill="none" stroke="#63b8ff" d="M1296.86,-292.33C1376.45,-287.71 1559,-275.3 1722.57,-249.98"/>
<polygon fill="#63b8ff" stroke="#63b8ff" points="1723.49,-253.38 1732.82,-248.37 1722.4,-246.46 1723.49,-253.38"/>
</a>
</g>
</g>
<!-- Node40 -->
<g id="Node000040" class="node">
<title>Node40</title>
<g id="a_Node000040"><a xlink:title=" ">
<polygon fill="#e0e0e0" stroke="#999999" points="1958.85,-250 1857.85,-250 1857.85,-220 1958.85,-220 1958.85,-250"/>
<text text-anchor="start" x="1865.85" y="-238" font-family="Helvetica,sans-Serif" font-size="10.00">juce_gui_extra/juce</text>
<text text-anchor="middle" x="1908.35" y="-227" font-family="Helvetica,sans-Serif" font-size="10.00">_gui_extra.h</text>
</a>
</g>
</g>
<!-- Node30&#45;&gt;Node40 -->
<g id="edge51_Node000030_Node000040" class="edge">
<title>Node30&#45;&gt;Node40</title>
<g id="a_edge51_Node000030_Node000040"><a xlink:title=" ">
<path fill="none" stroke="#63b8ff" d="M1296.87,-293.66C1391.69,-291.24 1635.49,-282.26 1847.53,-250.13"/>
<polygon fill="#63b8ff" stroke="#63b8ff" points="1848.25,-253.56 1857.6,-248.58 1847.19,-246.64 1848.25,-253.56"/>
</a>
</g>
</g>
<!-- Node41&#45;&gt;Node6 -->
<g id="edge54_Node000041_Node000006" class="edge">
<title>Node41&#45;&gt;Node6</title>
<g id="a_edge54_Node000041_Node000006"><a xlink:title=" ">
<path fill="none" stroke="#63b8ff" d="M593.64,-286.96C590.84,-286.64 588.07,-286.31 585.35,-286 441.42,-269.39 404.71,-270.97 261.35,-250 249.39,-248.25 236.45,-246.03 224.65,-243.87"/>
<polygon fill="#63b8ff" stroke="#63b8ff" points="225.1,-240.39 214.63,-242 223.82,-247.27 225.1,-240.39"/>
</a>
</g>
</g>
<!-- Node41&#45;&gt;Node24 -->
<g id="edge55_Node000041_Node000024" class="edge">
<title>Node41&#45;&gt;Node24</title>
<g id="a_edge55_Node000041_Node000024"><a xlink:title=" ">
<path fill="none" stroke="#63b8ff" d="M629.64,-285.98C606.77,-278.16 573.35,-265.46 546.35,-250 527.38,-239.13 525,-232.91 507.35,-220 493.29,-209.71 477.18,-198.52 464.65,-189.93"/>
<polygon fill="#63b8ff" stroke="#63b8ff" points="466.46,-186.93 456.23,-184.19 462.52,-192.71 466.46,-186.93"/>
</a>
</g>
</g>
<!-- Node42&#45;&gt;Node29 -->
<g id="edge57_Node000042_Node000029" class="edge">
<title>Node42&#45;&gt;Node29</title>
<g id="a_edge57_Node000042_Node000029"><a xlink:title=" ">
<path fill="none" stroke="#63b8ff" d="M428.7,-395.98C456.12,-387.13 499.24,-373.19 529.91,-363.28"/>
<polygon fill="#63b8ff" stroke="#63b8ff" points="531.36,-366.49 539.8,-360.08 529.2,-359.83 531.36,-366.49"/>
</a>
</g>
</g>
</g>
</svg>
