<?xml version="1.0" encoding="UTF-8" standalone="no"?>
<!DOCTYPE svg PUBLIC "-//W3C//DTD SVG 1.1//EN"
 "http://www.w3.org/Graphics/SVG/1.1/DTD/svg11.dtd">
<!-- Generated by graphviz version 2.47.1 (20210417.1919)
 -->
<!-- Title: FluidSynthSettings.cpp Pages: 1 -->
<svg width="626pt" height="476pt"
 viewBox="0.00 0.00 626.12 476.00" xmlns="http://www.w3.org/2000/svg" xmlns:xlink="http://www.w3.org/1999/xlink">
<g id="graph0" class="graph" transform="scale(1 1) rotate(0) translate(4 472)">
<title>FluidSynthSettings.cpp</title>
<polygon fill="white" stroke="transparent" points="-4,4 -4,-472 622.12,-472 622.12,4 -4,4"/>
<!-- Node1 -->
<g id="node1" class="node">
<title>Node1</title>
<g id="a_node1"><a xlink:title="The FluidSynthSettings class implements an object&#45;oriented wrapper around an underlying fluidsynth se...">
<polygon fill="#bfbfbf" stroke="black" points="369.62,-448.5 369.62,-467.5 487.62,-467.5 487.62,-448.5 369.62,-448.5"/>
<text text-anchor="middle" x="428.62" y="-455.5" font-family="Helvetica,sans-Serif" font-size="10.00">FluidSynthSettings.cpp</text>
</a>
</g>
</g>
<!-- Node2 -->
<g id="node2" class="node">
<title>Node2</title>
<g id="a_node2"><a xlink:href="_logging_8h.html" target="_top" xlink:title="The Logging specification defines macros for entry&#45;, exit&#45; and intermediate logging of functions into...">
<polygon fill="white" stroke="black" points="213.12,-392.5 213.12,-411.5 272.12,-411.5 272.12,-392.5 213.12,-392.5"/>
<text text-anchor="middle" x="242.62" y="-399.5" font-family="Helvetica,sans-Serif" font-size="10.00">Logging.h</text>
</a>
</g>
</g>
<!-- Node1&#45;&gt;Node2 -->
<g id="edge1" class="edge">
<title>Node1&#45;&gt;Node2</title>
<path fill="none" stroke="midnightblue" d="M399.15,-448.44C367.45,-439.24 316.89,-424.56 281.85,-414.39"/>
<polygon fill="midnightblue" stroke="midnightblue" points="282.54,-410.94 271.96,-411.52 280.58,-417.67 282.54,-410.94"/>
</g>
<!-- Node24 -->
<g id="node24" class="node">
<title>Node24</title>
<g id="a_node24"><a xlink:href="_dictionary_8h.html" target="_top" xlink:title="The Dictionary specification defines maps from string keys to string values.">
<polygon fill="white" stroke="black" points="544.62,-392.5 544.62,-411.5 612.62,-411.5 612.62,-392.5 544.62,-392.5"/>
<text text-anchor="middle" x="578.62" y="-399.5" font-family="Helvetica,sans-Serif" font-size="10.00">Dictionary.h</text>
</a>
</g>
</g>
<!-- Node1&#45;&gt;Node24 -->
<g id="edge32" class="edge">
<title>Node1&#45;&gt;Node24</title>
<path fill="none" stroke="midnightblue" d="M452.39,-448.44C477.52,-439.4 517.33,-425.06 545.52,-414.92"/>
<polygon fill="midnightblue" stroke="midnightblue" points="546.74,-418.2 554.97,-411.52 544.37,-411.61 546.74,-418.2"/>
</g>
<!-- Node26 -->
<g id="node26" class="node">
<title>Node26</title>
<g id="a_node26"><a xlink:href="_dynamic_library_8h.html" target="_top" xlink:title="The DynamicLibrary class specifies a very simple and crude wrapper around the dynamic library loading...">
<polygon fill="white" stroke="black" points="341.62,-336.5 341.62,-355.5 433.62,-355.5 433.62,-336.5 341.62,-336.5"/>
<text text-anchor="middle" x="387.62" y="-343.5" font-family="Helvetica,sans-Serif" font-size="10.00">DynamicLibrary.h</text>
</a>
</g>
</g>
<!-- Node1&#45;&gt;Node26 -->
<g id="edge34" class="edge">
<title>Node1&#45;&gt;Node26</title>
<path fill="none" stroke="midnightblue" d="M424.51,-448.49C420.27,-439.52 413.57,-424.94 408.62,-412 402.66,-396.42 396.92,-378.35 392.94,-365.22"/>
<polygon fill="midnightblue" stroke="midnightblue" points="396.26,-364.1 390.06,-355.51 389.55,-366.1 396.26,-364.1"/>
</g>
<!-- Node28 -->
<g id="node28" class="node">
<title>Node28</title>
<g id="a_node28"><a xlink:href="_fluid_synth_settings_8h.html" target="_top" xlink:title="The FluidSynthSettings class specifies an object&#45;oriented wrapper around an underlying fluidsynth set...">
<polygon fill="white" stroke="black" points="418.12,-392.5 418.12,-411.5 525.12,-411.5 525.12,-392.5 418.12,-392.5"/>
<text text-anchor="middle" x="471.62" y="-399.5" font-family="Helvetica,sans-Serif" font-size="10.00">FluidSynthSettings.h</text>
</a>
</g>
</g>
<!-- Node1&#45;&gt;Node28 -->
<g id="edge37" class="edge">
<title>Node1&#45;&gt;Node28</title>
<path fill="none" stroke="midnightblue" d="M435.72,-448.08C441.86,-440.38 450.89,-429.03 458.36,-419.65"/>
<polygon fill="midnightblue" stroke="midnightblue" points="461.16,-421.75 464.65,-411.75 455.69,-417.39 461.16,-421.75"/>
</g>
<!-- Node3 -->
<g id="node3" class="node">
<title>Node3</title>
<g id="a_node3"><a xlink:title=" ">
<polygon fill="white" stroke="#bfbfbf" points="80.12,-336.5 80.12,-355.5 129.12,-355.5 129.12,-336.5 80.12,-336.5"/>
<text text-anchor="middle" x="104.62" y="-343.5" font-family="Helvetica,sans-Serif" font-size="10.00">cstdarg</text>
</a>
</g>
</g>
<!-- Node2&#45;&gt;Node3 -->
<g id="edge2" class="edge">
<title>Node2&#45;&gt;Node3</title>
<path fill="none" stroke="midnightblue" d="M220.76,-392.44C197.84,-383.48 161.65,-369.31 135.76,-359.18"/>
<polygon fill="midnightblue" stroke="midnightblue" points="136.97,-355.9 126.39,-355.52 134.42,-362.42 136.97,-355.9"/>
</g>
<!-- Node4 -->
<g id="node4" class="node">
<title>Node4</title>
<g id="a_node4"><a xlink:href="_logging_support_8h.html" target="_top" xlink:title="The LoggingSupport specification defines a class for simple entry/exit logging to a file or via an ar...">
<polygon fill="white" stroke="black" points="147.62,-336.5 147.62,-355.5 239.62,-355.5 239.62,-336.5 147.62,-336.5"/>
<text text-anchor="middle" x="193.62" y="-343.5" font-family="Helvetica,sans-Serif" font-size="10.00">LoggingSupport.h</text>
</a>
</g>
</g>
<!-- Node2&#45;&gt;Node4 -->
<g id="edge3" class="edge">
<title>Node2&#45;&gt;Node4</title>
<path fill="none" stroke="midnightblue" d="M234.53,-392.08C227.47,-384.3 217.03,-372.8 208.47,-363.37"/>
<polygon fill="midnightblue" stroke="midnightblue" points="210.88,-360.8 201.56,-355.75 205.69,-365.51 210.88,-360.8"/>
</g>
<!-- Node14 -->
<g id="node14" class="node">
<title>Node14</title>
<g id="a_node14"><a xlink:href="_string_util_8h.html" target="_top" xlink:title="The StringUtil specification defines several string routines not included in the standard C++ library...">
<polygon fill="white" stroke="black" points="258.12,-336.5 258.12,-355.5 323.12,-355.5 323.12,-336.5 258.12,-336.5"/>
<text text-anchor="middle" x="290.62" y="-343.5" font-family="Helvetica,sans-Serif" font-size="10.00">StringUtil.h</text>
</a>
</g>
</g>
<!-- Node2&#45;&gt;Node14 -->
<g id="edge15" class="edge">
<title>Node2&#45;&gt;Node14</title>
<path fill="none" stroke="midnightblue" d="M250.55,-392.08C257.47,-384.3 267.69,-372.8 276.07,-363.37"/>
<polygon fill="midnightblue" stroke="midnightblue" points="278.82,-365.55 282.84,-355.75 273.58,-360.9 278.82,-365.55"/>
</g>
<!-- Node5 -->
<g id="node5" class="node">
<title>Node5</title>
<g id="a_node5"><a xlink:href="_boolean_8h.html" target="_top" xlink:title="The Boolean specification and body provides a value object type for boolean values.">
<polygon fill="white" stroke="black" points="193.62,-280.5 193.62,-299.5 253.62,-299.5 253.62,-280.5 193.62,-280.5"/>
<text text-anchor="middle" x="223.62" y="-287.5" font-family="Helvetica,sans-Serif" font-size="10.00">Boolean.h</text>
</a>
</g>
</g>
<!-- Node4&#45;&gt;Node5 -->
<g id="edge4" class="edge">
<title>Node4&#45;&gt;Node5</title>
<path fill="none" stroke="midnightblue" d="M198.58,-336.08C202.73,-328.61 208.78,-317.72 213.89,-308.52"/>
<polygon fill="midnightblue" stroke="midnightblue" points="216.96,-310.19 218.76,-299.75 210.84,-306.79 216.96,-310.19"/>
</g>
<!-- Node9 -->
<g id="node9" class="node">
<title>Node9</title>
<g id="a_node9"><a xlink:href="_natural_8h.html" target="_top" xlink:title="The Natural specification and body provides a value object type for naturals (positive integers with ...">
<polygon fill="white" stroke="black" points="211.62,-112.5 211.62,-131.5 267.62,-131.5 267.62,-112.5 211.62,-112.5"/>
<text text-anchor="middle" x="239.62" y="-119.5" font-family="Helvetica,sans-Serif" font-size="10.00">Natural.h</text>
</a>
</g>
</g>
<!-- Node4&#45;&gt;Node9 -->
<g id="edge8" class="edge">
<title>Node4&#45;&gt;Node9</title>
<path fill="none" stroke="midnightblue" d="M191.11,-336.33C185.68,-316.22 174.17,-265.03 184.62,-224 192.79,-191.91 213.46,-159 227.01,-139.81"/>
<polygon fill="midnightblue" stroke="midnightblue" points="229.96,-141.7 233,-131.56 224.29,-137.59 229.96,-141.7"/>
</g>
<!-- Node6 -->
<g id="node6" class="node">
<title>Node6</title>
<g id="a_node6"><a xlink:href="_my_string_8h.html" target="_top" xlink:title="The String specification defines a standard string type.">
<polygon fill="white" stroke="black" points="129.62,-56.5 129.62,-75.5 193.62,-75.5 193.62,-56.5 129.62,-56.5"/>
<text text-anchor="middle" x="161.62" y="-63.5" font-family="Helvetica,sans-Serif" font-size="10.00">MyString.h</text>
</a>
</g>
</g>
<!-- Node5&#45;&gt;Node6 -->
<g id="edge5" class="edge">
<title>Node5&#45;&gt;Node6</title>
<path fill="none" stroke="midnightblue" d="M213.09,-280.18C203.93,-271.86 191.14,-258.53 184.62,-244 160.57,-190.38 159.53,-119.07 160.61,-85.71"/>
<polygon fill="midnightblue" stroke="midnightblue" points="164.11,-85.72 161.04,-75.58 157.12,-85.42 164.11,-85.72"/>
</g>
<!-- Node7 -->
<g id="node7" class="node">
<title>Node7</title>
<g id="a_node7"><a xlink:title=" ">
<polygon fill="white" stroke="#bfbfbf" points="274.12,-0.5 274.12,-19.5 315.12,-19.5 315.12,-0.5 274.12,-0.5"/>
<text text-anchor="middle" x="294.62" y="-7.5" font-family="Helvetica,sans-Serif" font-size="10.00">string</text>
</a>
</g>
</g>
<!-- Node6&#45;&gt;Node7 -->
<g id="edge6" class="edge">
<title>Node6&#45;&gt;Node7</title>
<path fill="none" stroke="midnightblue" d="M182.7,-56.44C204.81,-47.46 239.77,-33.27 264.73,-23.14"/>
<polygon fill="midnightblue" stroke="midnightblue" points="266.14,-26.34 274.08,-19.34 263.5,-19.86 266.14,-26.34"/>
</g>
<!-- Node8 -->
<g id="node8" class="node">
<title>Node8</title>
<g id="a_node8"><a xlink:href="_global_macros_8h.html" target="_top" xlink:title="The GlobalMacros specification defines simple macros (e.g. for parameter modes).">
<polygon fill="white" stroke="black" points="119.12,-0.5 119.12,-19.5 204.12,-19.5 204.12,-0.5 119.12,-0.5"/>
<text text-anchor="middle" x="161.62" y="-7.5" font-family="Helvetica,sans-Serif" font-size="10.00">GlobalMacros.h</text>
</a>
</g>
</g>
<!-- Node6&#45;&gt;Node8 -->
<g id="edge7" class="edge">
<title>Node6&#45;&gt;Node8</title>
<path fill="none" stroke="midnightblue" d="M161.62,-56.08C161.62,-49.01 161.62,-38.86 161.62,-29.99"/>
<polygon fill="midnightblue" stroke="midnightblue" points="165.12,-29.75 161.62,-19.75 158.12,-29.75 165.12,-29.75"/>
</g>
<!-- Node9&#45;&gt;Node6 -->
<g id="edge14" class="edge">
<title>Node9&#45;&gt;Node6</title>
<path fill="none" stroke="midnightblue" d="M227.09,-112.32C215.04,-103.98 196.6,-91.21 182.35,-81.35"/>
<polygon fill="midnightblue" stroke="midnightblue" points="184.34,-78.47 174.12,-75.65 180.35,-84.22 184.34,-78.47"/>
</g>
<!-- Node10 -->
<g id="node10" class="node">
<title>Node10</title>
<g id="a_node10"><a xlink:title=" ">
<polygon fill="white" stroke="#bfbfbf" points="67.62,-56.5 67.62,-75.5 111.62,-75.5 111.62,-56.5 67.62,-56.5"/>
<text text-anchor="middle" x="89.62" y="-63.5" font-family="Helvetica,sans-Serif" font-size="10.00">cmath</text>
</a>
</g>
</g>
<!-- Node9&#45;&gt;Node10 -->
<g id="edge9" class="edge">
<title>Node9&#45;&gt;Node10</title>
<path fill="none" stroke="midnightblue" d="M215.85,-112.44C190.29,-103.24 149.5,-88.56 121.24,-78.38"/>
<polygon fill="midnightblue" stroke="midnightblue" points="122.41,-75.08 111.81,-74.99 120.04,-81.67 122.41,-75.08"/>
</g>
<!-- Node11 -->
<g id="node11" class="node">
<title>Node11</title>
<g id="a_node11"><a xlink:href="_assertion_8h.html" target="_top" xlink:title="The Assertion specification defines macros for pre&#45; and postconditions in functions or methods.">
<polygon fill="white" stroke="black" points="321.62,-56.5 321.62,-75.5 387.62,-75.5 387.62,-56.5 321.62,-56.5"/>
<text text-anchor="middle" x="354.62" y="-63.5" font-family="Helvetica,sans-Serif" font-size="10.00">Assertion.h</text>
</a>
</g>
</g>
<!-- Node9&#45;&gt;Node11 -->
<g id="edge10" class="edge">
<title>Node9&#45;&gt;Node11</title>
<path fill="none" stroke="midnightblue" d="M257.84,-112.44C276.52,-103.68 305.78,-89.94 327.24,-79.86"/>
<polygon fill="midnightblue" stroke="midnightblue" points="328.92,-82.93 336.49,-75.52 325.95,-76.6 328.92,-82.93"/>
</g>
<!-- Node13 -->
<g id="node13" class="node">
<title>Node13</title>
<g id="a_node13"><a xlink:title=" ">
<polygon fill="white" stroke="#bfbfbf" points="211.62,-56.5 211.62,-75.5 303.62,-75.5 303.62,-56.5 211.62,-56.5"/>
<text text-anchor="middle" x="257.62" y="-63.5" font-family="Helvetica,sans-Serif" font-size="10.00">GenericNumber.h</text>
</a>
</g>
</g>
<!-- Node9&#45;&gt;Node13 -->
<g id="edge13" class="edge">
<title>Node9&#45;&gt;Node13</title>
<path fill="none" stroke="midnightblue" d="M242.59,-112.08C245.01,-104.85 248.49,-94.41 251.49,-85.4"/>
<polygon fill="midnightblue" stroke="midnightblue" points="254.86,-86.34 254.71,-75.75 248.22,-84.13 254.86,-86.34"/>
</g>
<!-- Node11&#45;&gt;Node7 -->
<g id="edge12" class="edge">
<title>Node11&#45;&gt;Node7</title>
<path fill="none" stroke="midnightblue" d="M344.98,-56.32C336.11,-48.34 322.75,-36.31 312.01,-26.65"/>
<polygon fill="midnightblue" stroke="midnightblue" points="314.21,-23.92 304.44,-19.83 309.53,-29.13 314.21,-23.92"/>
</g>
<!-- Node12 -->
<g id="node12" class="node">
<title>Node12</title>
<g id="a_node12"><a xlink:title=" ">
<polygon fill="white" stroke="#bfbfbf" points="355.12,-0.5 355.12,-19.5 414.12,-19.5 414.12,-0.5 355.12,-0.5"/>
<text text-anchor="middle" x="384.62" y="-7.5" font-family="Helvetica,sans-Serif" font-size="10.00">stdexcept</text>
</a>
</g>
</g>
<!-- Node11&#45;&gt;Node12 -->
<g id="edge11" class="edge">
<title>Node11&#45;&gt;Node12</title>
<path fill="none" stroke="midnightblue" d="M359.58,-56.08C363.73,-48.61 369.78,-37.72 374.89,-28.52"/>
<polygon fill="midnightblue" stroke="midnightblue" points="377.96,-30.19 379.76,-19.75 371.84,-26.79 377.96,-30.19"/>
</g>
<!-- Node14&#45;&gt;Node5 -->
<g id="edge16" class="edge">
<title>Node14&#45;&gt;Node5</title>
<path fill="none" stroke="midnightblue" d="M279.86,-336.32C269.86,-328.26 254.74,-316.08 242.69,-306.37"/>
<polygon fill="midnightblue" stroke="midnightblue" points="244.57,-303.38 234.58,-299.83 240.17,-308.83 244.57,-303.38"/>
</g>
<!-- Node15 -->
<g id="node15" class="node">
<title>Node15</title>
<g id="a_node15"><a xlink:href="_character_8h.html" target="_top" xlink:title="The Character specification and body provides a value object type for character values.">
<polygon fill="white" stroke="black" points="32.12,-224.5 32.12,-243.5 99.12,-243.5 99.12,-224.5 32.12,-224.5"/>
<text text-anchor="middle" x="65.62" y="-231.5" font-family="Helvetica,sans-Serif" font-size="10.00">Character.h</text>
</a>
</g>
</g>
<!-- Node14&#45;&gt;Node15 -->
<g id="edge17" class="edge">
<title>Node14&#45;&gt;Node15</title>
<path fill="none" stroke="midnightblue" d="M268.82,-336.48C247.2,-327.85 213.24,-313.85 184.62,-300 150.76,-283.61 112.81,-262.36 89.07,-248.7"/>
<polygon fill="midnightblue" stroke="midnightblue" points="90.81,-245.67 80.4,-243.69 87.31,-251.73 90.81,-245.67"/>
</g>
<!-- Node18 -->
<g id="node18" class="node">
<title>Node18</title>
<g id="a_node18"><a xlink:href="_percentage_8h.html" target="_top" xlink:title="The Percentage specification and body provides a simple percentage type.">
<polygon fill="white" stroke="black" points="355.62,-280.5 355.62,-299.5 429.62,-299.5 429.62,-280.5 355.62,-280.5"/>
<text text-anchor="middle" x="392.62" y="-287.5" font-family="Helvetica,sans-Serif" font-size="10.00">Percentage.h</text>
</a>
</g>
</g>
<!-- Node14&#45;&gt;Node18 -->
<g id="edge23" class="edge">
<title>Node14&#45;&gt;Node18</title>
<path fill="none" stroke="midnightblue" d="M307.01,-336.32C323.29,-327.7 348.49,-314.36 367.34,-304.39"/>
<polygon fill="midnightblue" stroke="midnightblue" points="369.07,-307.43 376.28,-299.65 365.8,-301.24 369.07,-307.43"/>
</g>
<!-- Node21 -->
<g id="node21" class="node">
<title>Node21</title>
<g id="a_node21"><a xlink:href="_string_list_8h.html" target="_top" xlink:title="The StringList specification defines lists of string values with zero&#45;based arbitrary indexed access ...">
<polygon fill="white" stroke="black" points="271.62,-280.5 271.62,-299.5 337.62,-299.5 337.62,-280.5 271.62,-280.5"/>
<text text-anchor="middle" x="304.62" y="-287.5" font-family="Helvetica,sans-Serif" font-size="10.00">StringList.h</text>
</a>
</g>
</g>
<!-- Node14&#45;&gt;Node21 -->
<g id="edge29" class="edge">
<title>Node14&#45;&gt;Node21</title>
<path fill="none" stroke="midnightblue" d="M292.93,-336.08C294.79,-328.93 297.46,-318.64 299.78,-309.69"/>
<polygon fill="midnightblue" stroke="midnightblue" points="303.23,-310.31 302.35,-299.75 296.46,-308.55 303.23,-310.31"/>
</g>
<!-- Node15&#45;&gt;Node10 -->
<g id="edge18" class="edge">
<title>Node15&#45;&gt;Node10</title>
<path fill="none" stroke="midnightblue" d="M55.3,-224.23C32.67,-203.94 -17.41,-152.36 6.62,-112 17.71,-93.38 39.49,-81.99 57.96,-75.32"/>
<polygon fill="midnightblue" stroke="midnightblue" points="59.11,-78.63 67.51,-72.18 56.92,-71.98 59.11,-78.63"/>
</g>
<!-- Node16 -->
<g id="node16" class="node">
<title>Node16</title>
<g id="a_node16"><a xlink:href="_byte_8h.html" target="_top" xlink:title="The Byte specification and body provides a value object type for byte values.">
<polygon fill="white" stroke="black" points="55.12,-168.5 55.12,-187.5 100.12,-187.5 100.12,-168.5 55.12,-168.5"/>
<text text-anchor="middle" x="77.62" y="-175.5" font-family="Helvetica,sans-Serif" font-size="10.00">Byte.h</text>
</a>
</g>
</g>
<!-- Node15&#45;&gt;Node16 -->
<g id="edge19" class="edge">
<title>Node15&#45;&gt;Node16</title>
<path fill="none" stroke="midnightblue" d="M67.6,-224.08C69.19,-216.93 71.48,-206.64 73.47,-197.69"/>
<polygon fill="midnightblue" stroke="midnightblue" points="76.93,-198.27 75.68,-187.75 70.09,-196.75 76.93,-198.27"/>
</g>
<!-- Node16&#45;&gt;Node9 -->
<g id="edge22" class="edge">
<title>Node16&#45;&gt;Node9</title>
<path fill="none" stroke="midnightblue" d="M100.15,-169.49C127.13,-160.5 172.66,-145.32 204.33,-134.76"/>
<polygon fill="midnightblue" stroke="midnightblue" points="205.71,-137.99 214.09,-131.51 203.49,-131.35 205.71,-137.99"/>
</g>
<!-- Node16&#45;&gt;Node10 -->
<g id="edge20" class="edge">
<title>Node16&#45;&gt;Node10</title>
<path fill="none" stroke="midnightblue" d="M78.56,-168.37C80.5,-150.62 84.97,-109.67 87.59,-85.6"/>
<polygon fill="midnightblue" stroke="midnightblue" points="91.08,-85.91 88.69,-75.59 84.12,-85.15 91.08,-85.91"/>
</g>
<!-- Node17 -->
<g id="node17" class="node">
<title>Node17</title>
<g id="a_node17"><a xlink:title=" ">
<polygon fill="white" stroke="#bfbfbf" points="15.62,-112.5 15.62,-131.5 61.62,-131.5 61.62,-112.5 15.62,-112.5"/>
<text text-anchor="middle" x="38.62" y="-119.5" font-family="Helvetica,sans-Serif" font-size="10.00">cstdint</text>
</a>
</g>
</g>
<!-- Node16&#45;&gt;Node17 -->
<g id="edge21" class="edge">
<title>Node16&#45;&gt;Node17</title>
<path fill="none" stroke="midnightblue" d="M71.18,-168.08C65.67,-160.46 57.59,-149.26 50.86,-139.94"/>
<polygon fill="midnightblue" stroke="midnightblue" points="53.64,-137.81 44.94,-131.75 47.96,-141.91 53.64,-137.81"/>
</g>
<!-- Node19 -->
<g id="node19" class="node">
<title>Node19</title>
<g id="a_node19"><a xlink:href="_real_8h.html" target="_top" xlink:title="The Real specification defines a value object type for real values.">
<polygon fill="white" stroke="black" points="377.62,-224.5 377.62,-243.5 421.62,-243.5 421.62,-224.5 377.62,-224.5"/>
<text text-anchor="middle" x="399.62" y="-231.5" font-family="Helvetica,sans-Serif" font-size="10.00">Real.h</text>
</a>
</g>
</g>
<!-- Node18&#45;&gt;Node19 -->
<g id="edge24" class="edge">
<title>Node18&#45;&gt;Node19</title>
<path fill="none" stroke="midnightblue" d="M393.78,-280.08C394.71,-272.93 396.04,-262.64 397.2,-253.69"/>
<polygon fill="midnightblue" stroke="midnightblue" points="400.67,-254.12 398.49,-243.75 393.73,-253.22 400.67,-254.12"/>
</g>
<!-- Node20 -->
<g id="node20" class="node">
<title>Node20</title>
<g id="a_node20"><a xlink:href="_integer_8h.html" target="_top" xlink:title="The Integer specification and body provides a value object type for ints.">
<polygon fill="white" stroke="black" points="301.62,-168.5 301.62,-187.5 355.62,-187.5 355.62,-168.5 301.62,-168.5"/>
<text text-anchor="middle" x="328.62" y="-175.5" font-family="Helvetica,sans-Serif" font-size="10.00">Integer.h</text>
</a>
</g>
</g>
<!-- Node19&#45;&gt;Node20 -->
<g id="edge25" class="edge">
<title>Node19&#45;&gt;Node20</title>
<path fill="none" stroke="midnightblue" d="M388.22,-224.32C377.51,-216.18 361.28,-203.84 348.46,-194.09"/>
<polygon fill="midnightblue" stroke="midnightblue" points="350.32,-191.1 340.24,-187.83 346.08,-196.67 350.32,-191.1"/>
</g>
<!-- Node20&#45;&gt;Node9 -->
<g id="edge28" class="edge">
<title>Node20&#45;&gt;Node9</title>
<path fill="none" stroke="midnightblue" d="M314.32,-168.32C300.44,-159.9 279.13,-146.97 262.82,-137.07"/>
<polygon fill="midnightblue" stroke="midnightblue" points="264.25,-133.85 253.89,-131.65 260.62,-139.83 264.25,-133.85"/>
</g>
<!-- Node20&#45;&gt;Node10 -->
<g id="edge26" class="edge">
<title>Node20&#45;&gt;Node10</title>
<path fill="none" stroke="midnightblue" d="M301.52,-168.87C275.62,-160.75 235.73,-147.29 202.62,-132 169.72,-116.81 133.77,-95.19 111.45,-81.13"/>
<polygon fill="midnightblue" stroke="midnightblue" points="113.09,-78.02 102.77,-75.61 109.33,-83.93 113.09,-78.02"/>
</g>
<!-- Node20&#45;&gt;Node12 -->
<g id="edge27" class="edge">
<title>Node20&#45;&gt;Node12</title>
<path fill="none" stroke="midnightblue" d="M337.03,-168.5C352.45,-152.22 384.77,-114.82 396.62,-76 401.38,-60.41 397.17,-42.11 392.47,-28.91"/>
<polygon fill="midnightblue" stroke="midnightblue" points="395.7,-27.57 388.76,-19.56 389.2,-30.15 395.7,-27.57"/>
</g>
<!-- Node22 -->
<g id="node22" class="node">
<title>Node22</title>
<g id="a_node22"><a xlink:title=" ">
<polygon fill="white" stroke="#bfbfbf" points="286.12,-224.5 286.12,-243.5 359.12,-243.5 359.12,-224.5 286.12,-224.5"/>
<text text-anchor="middle" x="322.62" y="-231.5" font-family="Helvetica,sans-Serif" font-size="10.00">initializer_list</text>
</a>
</g>
</g>
<!-- Node21&#45;&gt;Node22 -->
<g id="edge30" class="edge">
<title>Node21&#45;&gt;Node22</title>
<path fill="none" stroke="midnightblue" d="M307.59,-280.08C310.01,-272.85 313.49,-262.41 316.49,-253.4"/>
<polygon fill="midnightblue" stroke="midnightblue" points="319.86,-254.34 319.71,-243.75 313.22,-252.13 319.86,-254.34"/>
</g>
<!-- Node23 -->
<g id="node23" class="node">
<title>Node23</title>
<g id="a_node23"><a xlink:title=" ">
<polygon fill="white" stroke="#bfbfbf" points="193.62,-224.5 193.62,-243.5 267.62,-243.5 267.62,-224.5 193.62,-224.5"/>
<text text-anchor="middle" x="230.62" y="-231.5" font-family="Helvetica,sans-Serif" font-size="10.00">GenericList.h</text>
</a>
</g>
</g>
<!-- Node21&#45;&gt;Node23 -->
<g id="edge31" class="edge">
<title>Node21&#45;&gt;Node23</title>
<path fill="none" stroke="midnightblue" d="M292.73,-280.32C281.47,-272.11 264.34,-259.6 250.91,-249.81"/>
<polygon fill="midnightblue" stroke="midnightblue" points="252.87,-246.9 242.73,-243.83 248.74,-252.56 252.87,-246.9"/>
</g>
<!-- Node25 -->
<g id="node25" class="node">
<title>Node25</title>
<g id="a_node25"><a xlink:title=" ">
<polygon fill="white" stroke="#bfbfbf" points="541.12,-336.5 541.12,-355.5 618.12,-355.5 618.12,-336.5 541.12,-336.5"/>
<text text-anchor="middle" x="579.62" y="-343.5" font-family="Helvetica,sans-Serif" font-size="10.00">GenericMap.h</text>
</a>
</g>
</g>
<!-- Node24&#45;&gt;Node25 -->
<g id="edge33" class="edge">
<title>Node24&#45;&gt;Node25</title>
<path fill="none" stroke="midnightblue" d="M578.79,-392.08C578.92,-385.01 579.11,-374.86 579.27,-365.99"/>
<polygon fill="midnightblue" stroke="midnightblue" points="582.77,-365.81 579.46,-355.75 575.78,-365.68 582.77,-365.81"/>
</g>
<!-- Node26&#45;&gt;Node5 -->
<g id="edge35" class="edge">
<title>Node26&#45;&gt;Node5</title>
<path fill="none" stroke="midnightblue" d="M361.64,-336.44C333.93,-327.32 289.87,-312.81 259.01,-302.65"/>
<polygon fill="midnightblue" stroke="midnightblue" points="260.08,-299.32 249.49,-299.52 257.89,-305.97 260.08,-299.32"/>
</g>
<!-- Node27 -->
<g id="node27" class="node">
<title>Node27</title>
<g id="a_node27"><a xlink:href="_object_8h.html" target="_top" xlink:title="The Object specification and body provides the root object type.">
<polygon fill="white" stroke="black" points="448.12,-280.5 448.12,-299.5 501.12,-299.5 501.12,-280.5 448.12,-280.5"/>
<text text-anchor="middle" x="474.62" y="-287.5" font-family="Helvetica,sans-Serif" font-size="10.00">Object.h</text>
</a>
</g>
</g>
<!-- Node26&#45;&gt;Node27 -->
<g id="edge36" class="edge">
<title>Node26&#45;&gt;Node27</title>
<path fill="none" stroke="midnightblue" d="M401.6,-336.32C415.17,-327.9 436,-314.97 451.95,-305.07"/>
<polygon fill="midnightblue" stroke="midnightblue" points="454.03,-307.9 460.68,-299.65 450.34,-301.95 454.03,-307.9"/>
</g>
<!-- Node29 -->
<g id="node29" class="node">
<title>Node29</title>
<g id="a_node29"><a xlink:href="_fluid_synth_8h.html" target="_top" xlink:title="The FluidSynth class specifies an object&#45;oriented wrapper around the fluidsynth library and also allo...">
<polygon fill="white" stroke="black" points="452.12,-336.5 452.12,-355.5 523.12,-355.5 523.12,-336.5 452.12,-336.5"/>
<text text-anchor="middle" x="487.62" y="-343.5" font-family="Helvetica,sans-Serif" font-size="10.00">FluidSynth.h</text>
</a>
</g>
</g>
<!-- Node28&#45;&gt;Node29 -->
<g id="edge38" class="edge">
<title>Node28&#45;&gt;Node29</title>
<path fill="none" stroke="midnightblue" d="M474.26,-392.08C476.41,-384.85 479.5,-374.41 482.17,-365.4"/>
<polygon fill="midnightblue" stroke="midnightblue" points="485.54,-366.33 485.03,-355.75 478.83,-364.34 485.54,-366.33"/>
</g>
<!-- Node29&#45;&gt;Node9 -->
<g id="edge39" class="edge">
<title>Node29&#45;&gt;Node9</title>
<path fill="none" stroke="midnightblue" d="M495.02,-336.32C504.91,-323.61 520.15,-299.32 510.62,-280 465.51,-188.54 341.03,-146.82 277.7,-131.05"/>
<polygon fill="midnightblue" stroke="midnightblue" points="278.26,-127.59 267.72,-128.66 276.62,-134.39 278.26,-127.59"/>
</g>
<!-- Node29&#45;&gt;Node27 -->
<g id="edge40" class="edge">
<title>Node29&#45;&gt;Node27</title>
<path fill="none" stroke="midnightblue" d="M485.48,-336.08C483.75,-328.93 481.28,-318.64 479.12,-309.69"/>
<polygon fill="midnightblue" stroke="midnightblue" points="482.47,-308.65 476.73,-299.75 475.67,-310.29 482.47,-308.65"/>
</g>
</g>
</svg>
