<?xml version="1.0" encoding="UTF-8" standalone="no"?>
<!DOCTYPE svg PUBLIC "-//W3C//DTD SVG 1.1//EN"
 "http://www.w3.org/Graphics/SVG/1.1/DTD/svg11.dtd">
<!-- Generated by graphviz version 2.47.1 (20210417.1919)
 -->
<!-- Title: FluidSynthPlugin_Editor.h Pages: 1 -->
<svg width="2048pt" height="212pt"
 viewBox="0.00 0.00 2047.50 212.00" xmlns="http://www.w3.org/2000/svg" xmlns:xlink="http://www.w3.org/1999/xlink">
<g id="graph0" class="graph" transform="scale(1 1) rotate(0) translate(4 208)">
<title>FluidSynthPlugin_Editor.h</title>
<polygon fill="white" stroke="transparent" points="-4,4 -4,-208 2043.5,-208 2043.5,4 -4,4"/>
<!-- Node1 -->
<g id="node1" class="node">
<title>Node1</title>
<g id="a_node1"><a xlink:title="The FluidSynthPlugin_AudioProcessor module handles MIDI events from the DAW via JUCE and have them pr...">
<polygon fill="#bfbfbf" stroke="black" points="1008,-183.5 1008,-203.5 1149,-203.5 1149,-183.5 1008,-183.5"/>
<text text-anchor="middle" x="1078.5" y="-190.7" font-family="Helvetica,sans-Serif" font-size="11.00">FluidSynthPlugin_Editor.h</text>
</a>
</g>
</g>
<!-- Node2 -->
<g id="node2" class="node">
<title>Node2</title>
<g id="a_node2"><a xlink:href="_fluid_synth_plugin___event_processor_8h.html" target="_top" xlink:title="The FluidSynthPlugin_Processor specification defines the handling of MIDI events from the DAW via JUC...">
<polygon fill="white" stroke="black" points="983,-126.5 983,-146.5 1174,-146.5 1174,-126.5 983,-126.5"/>
<text text-anchor="middle" x="1078.5" y="-133.7" font-family="Helvetica,sans-Serif" font-size="11.00">FluidSynthPlugin_EventProcessor.h</text>
</a>
</g>
</g>
<!-- Node1&#45;&gt;Node2 -->
<g id="edge1" class="edge">
<title>Node1&#45;&gt;Node2</title>
<path fill="none" stroke="midnightblue" d="M1078.5,-183.42C1078.5,-176.22 1078.5,-165.9 1078.5,-156.86"/>
<polygon fill="midnightblue" stroke="midnightblue" points="1082,-156.78 1078.5,-146.78 1075,-156.78 1082,-156.78"/>
</g>
<!-- Node3 -->
<g id="node3" class="node">
<title>Node3</title>
<g id="a_node3"><a xlink:href="_juce_headers_8h_source.html" target="_top" xlink:title=" ">
<polygon fill="white" stroke="black" points="987.5,-69.5 987.5,-89.5 1077.5,-89.5 1077.5,-69.5 987.5,-69.5"/>
<text text-anchor="middle" x="1032.5" y="-76.7" font-family="Helvetica,sans-Serif" font-size="11.00">JuceHeaders.h</text>
</a>
</g>
</g>
<!-- Node2&#45;&gt;Node3 -->
<g id="edge2" class="edge">
<title>Node2&#45;&gt;Node3</title>
<path fill="none" stroke="midnightblue" d="M1070.9,-126.42C1064.35,-118.58 1054.71,-107.06 1046.73,-97.51"/>
<polygon fill="midnightblue" stroke="midnightblue" points="1049.36,-95.2 1040.26,-89.78 1043.99,-99.7 1049.36,-95.2"/>
</g>
<!-- Node18 -->
<g id="node18" class="node">
<title>Node18</title>
<g id="a_node18"><a xlink:href="_object_8h.html" target="_top" xlink:title="The Object specification and body provides the root object type.">
<polygon fill="white" stroke="black" points="1095.5,-69.5 1095.5,-89.5 1153.5,-89.5 1153.5,-69.5 1095.5,-69.5"/>
<text text-anchor="middle" x="1124.5" y="-76.7" font-family="Helvetica,sans-Serif" font-size="11.00">Object.h</text>
</a>
</g>
</g>
<!-- Node2&#45;&gt;Node18 -->
<g id="edge17" class="edge">
<title>Node2&#45;&gt;Node18</title>
<path fill="none" stroke="midnightblue" d="M1086.1,-126.42C1092.65,-118.58 1102.29,-107.06 1110.27,-97.51"/>
<polygon fill="midnightblue" stroke="midnightblue" points="1113.01,-99.7 1116.74,-89.78 1107.64,-95.2 1113.01,-99.7"/>
</g>
<!-- Node4 -->
<g id="node4" class="node">
<title>Node4</title>
<g id="a_node4"><a xlink:title=" ">
<polygon fill="white" stroke="#bfbfbf" points="0,-0.5 0,-32.5 131,-32.5 131,-0.5 0,-0.5"/>
<text text-anchor="start" x="8" y="-19.7" font-family="Helvetica,sans-Serif" font-size="11.00">juce_audio_basics/juce</text>
<text text-anchor="middle" x="65.5" y="-7.7" font-family="Helvetica,sans-Serif" font-size="11.00">_audio_basics.h</text>
</a>
</g>
</g>
<!-- Node3&#45;&gt;Node4 -->
<g id="edge3" class="edge">
<title>Node3&#45;&gt;Node4</title>
<path fill="none" stroke="midnightblue" d="M987.21,-78.67C857.01,-78.64 470.45,-74.87 141.39,-33.12"/>
<polygon fill="midnightblue" stroke="midnightblue" points="141.54,-29.61 131.18,-31.81 140.65,-36.55 141.54,-29.61"/>
</g>
<!-- Node5 -->
<g id="node5" class="node">
<title>Node5</title>
<g id="a_node5"><a xlink:title=" ">
<polygon fill="white" stroke="#bfbfbf" points="149,-0.5 149,-32.5 274,-32.5 274,-0.5 149,-0.5"/>
<text text-anchor="start" x="157" y="-19.7" font-family="Helvetica,sans-Serif" font-size="11.00">juce_audio_devices</text>
<text text-anchor="middle" x="211.5" y="-7.7" font-family="Helvetica,sans-Serif" font-size="11.00">/juce_audio_devices.h</text>
</a>
</g>
</g>
<!-- Node3&#45;&gt;Node5 -->
<g id="edge4" class="edge">
<title>Node3&#45;&gt;Node5</title>
<path fill="none" stroke="midnightblue" d="M987.46,-78.18C871.97,-76.86 555.87,-69.98 284.18,-33.1"/>
<polygon fill="midnightblue" stroke="midnightblue" points="284.51,-29.61 274.13,-31.72 283.56,-36.55 284.51,-29.61"/>
</g>
<!-- Node6 -->
<g id="node6" class="node">
<title>Node6</title>
<g id="a_node6"><a xlink:title=" ">
<polygon fill="white" stroke="#bfbfbf" points="292,-0.5 292,-32.5 417,-32.5 417,-0.5 292,-0.5"/>
<text text-anchor="start" x="300" y="-19.7" font-family="Helvetica,sans-Serif" font-size="11.00">juce_audio_formats</text>
<text text-anchor="middle" x="354.5" y="-7.7" font-family="Helvetica,sans-Serif" font-size="11.00">/juce_audio_formats.h</text>
</a>
</g>
</g>
<!-- Node3&#45;&gt;Node6 -->
<g id="edge5" class="edge">
<title>Node3&#45;&gt;Node6</title>
<path fill="none" stroke="midnightblue" d="M987.34,-77.28C887.8,-74.12 641.96,-63.77 427.33,-33.15"/>
<polygon fill="midnightblue" stroke="midnightblue" points="427.53,-29.64 417.13,-31.67 426.53,-36.57 427.53,-29.64"/>
</g>
<!-- Node7 -->
<g id="node7" class="node">
<title>Node7</title>
<g id="a_node7"><a xlink:title=" ">
<polygon fill="white" stroke="#bfbfbf" points="435,-0.5 435,-32.5 582,-32.5 582,-0.5 435,-0.5"/>
<text text-anchor="start" x="443" y="-19.7" font-family="Helvetica,sans-Serif" font-size="11.00">juce_audio_plugin_client</text>
<text text-anchor="middle" x="508.5" y="-7.7" font-family="Helvetica,sans-Serif" font-size="11.00">/juce_audio_plugin_client.h</text>
</a>
</g>
</g>
<!-- Node3&#45;&gt;Node7 -->
<g id="edge6" class="edge">
<title>Node3&#45;&gt;Node7</title>
<path fill="none" stroke="midnightblue" d="M987.49,-75.13C909.19,-68.98 742.66,-54.71 592.53,-33.23"/>
<polygon fill="midnightblue" stroke="midnightblue" points="592.61,-29.7 582.21,-31.74 591.6,-36.63 592.61,-29.7"/>
</g>
<!-- Node8 -->
<g id="node8" class="node">
<title>Node8</title>
<g id="a_node8"><a xlink:title=" ">
<polygon fill="white" stroke="#bfbfbf" points="600,-0.5 600,-32.5 743,-32.5 743,-0.5 600,-0.5"/>
<text text-anchor="start" x="608" y="-19.7" font-family="Helvetica,sans-Serif" font-size="11.00">juce_audio_processors</text>
<text text-anchor="middle" x="671.5" y="-7.7" font-family="Helvetica,sans-Serif" font-size="11.00">/juce_audio_processors.h</text>
</a>
</g>
</g>
<!-- Node3&#45;&gt;Node8 -->
<g id="edge7" class="edge">
<title>Node3&#45;&gt;Node8</title>
<path fill="none" stroke="midnightblue" d="M987.33,-71.56C933.93,-63.26 842.12,-48.73 753.04,-33.07"/>
<polygon fill="midnightblue" stroke="midnightblue" points="753.49,-29.59 743.03,-31.3 752.27,-36.49 753.49,-29.59"/>
</g>
<!-- Node9 -->
<g id="node9" class="node">
<title>Node9</title>
<g id="a_node9"><a xlink:title=" ">
<polygon fill="white" stroke="#bfbfbf" points="761.5,-0.5 761.5,-32.5 879.5,-32.5 879.5,-0.5 761.5,-0.5"/>
<text text-anchor="start" x="769.5" y="-19.7" font-family="Helvetica,sans-Serif" font-size="11.00">juce_audio_utils/juce</text>
<text text-anchor="middle" x="820.5" y="-7.7" font-family="Helvetica,sans-Serif" font-size="11.00">_audio_utils.h</text>
</a>
</g>
</g>
<!-- Node3&#45;&gt;Node9 -->
<g id="edge8" class="edge">
<title>Node3&#45;&gt;Node9</title>
<path fill="none" stroke="midnightblue" d="M1001.22,-69.5C970.11,-60.55 921.53,-46.57 882.56,-35.36"/>
<polygon fill="midnightblue" stroke="midnightblue" points="883.46,-31.97 872.88,-32.57 881.53,-38.7 883.46,-31.97"/>
</g>
<!-- Node10 -->
<g id="node10" class="node">
<title>Node10</title>
<g id="a_node10"><a xlink:title=" ">
<polygon fill="white" stroke="#bfbfbf" points="898,-6.5 898,-26.5 1023,-26.5 1023,-6.5 898,-6.5"/>
<text text-anchor="middle" x="960.5" y="-13.7" font-family="Helvetica,sans-Serif" font-size="11.00">juce_core/juce_core.h</text>
</a>
</g>
</g>
<!-- Node3&#45;&gt;Node10 -->
<g id="edge9" class="edge">
<title>Node3&#45;&gt;Node10</title>
<path fill="none" stroke="midnightblue" d="M1021.88,-69.5C1010.6,-59.95 992.58,-44.67 978.97,-33.15"/>
<polygon fill="midnightblue" stroke="midnightblue" points="981.06,-30.33 971.17,-26.54 976.53,-35.67 981.06,-30.33"/>
</g>
<!-- Node11 -->
<g id="node11" class="node">
<title>Node11</title>
<g id="a_node11"><a xlink:title=" ">
<polygon fill="white" stroke="#bfbfbf" points="1041,-0.5 1041,-32.5 1170,-32.5 1170,-0.5 1041,-0.5"/>
<text text-anchor="start" x="1049" y="-19.7" font-family="Helvetica,sans-Serif" font-size="11.00">juce_cryptography/juce</text>
<text text-anchor="middle" x="1105.5" y="-7.7" font-family="Helvetica,sans-Serif" font-size="11.00">_cryptography.h</text>
</a>
</g>
</g>
<!-- Node3&#45;&gt;Node11 -->
<g id="edge10" class="edge">
<title>Node3&#45;&gt;Node11</title>
<path fill="none" stroke="midnightblue" d="M1043.27,-69.5C1052.77,-61.56 1067,-49.67 1079.46,-39.26"/>
<polygon fill="midnightblue" stroke="midnightblue" points="1081.89,-41.79 1087.32,-32.69 1077.4,-36.42 1081.89,-41.79"/>
</g>
<!-- Node12 -->
<g id="node12" class="node">
<title>Node12</title>
<g id="a_node12"><a xlink:title=" ">
<polygon fill="white" stroke="#bfbfbf" points="1188,-0.5 1188,-32.5 1319,-32.5 1319,-0.5 1188,-0.5"/>
<text text-anchor="start" x="1196" y="-19.7" font-family="Helvetica,sans-Serif" font-size="11.00">juce_data_structures</text>
<text text-anchor="middle" x="1253.5" y="-7.7" font-family="Helvetica,sans-Serif" font-size="11.00">/juce_data_structures.h</text>
</a>
</g>
</g>
<!-- Node3&#45;&gt;Node12 -->
<g id="edge11" class="edge">
<title>Node3&#45;&gt;Node12</title>
<path fill="none" stroke="midnightblue" d="M1065.11,-69.5C1097.61,-60.53 1148.4,-46.51 1189.06,-35.29"/>
<polygon fill="midnightblue" stroke="midnightblue" points="1190.18,-38.61 1198.89,-32.57 1188.32,-31.86 1190.18,-38.61"/>
</g>
<!-- Node13 -->
<g id="node13" class="node">
<title>Node13</title>
<g id="a_node13"><a xlink:title=" ">
<polygon fill="white" stroke="#bfbfbf" points="1337.5,-6.5 1337.5,-26.5 1483.5,-26.5 1483.5,-6.5 1337.5,-6.5"/>
<text text-anchor="middle" x="1410.5" y="-13.7" font-family="Helvetica,sans-Serif" font-size="11.00">juce_events/juce_events.h</text>
</a>
</g>
</g>
<!-- Node3&#45;&gt;Node13 -->
<g id="edge12" class="edge">
<title>Node3&#45;&gt;Node13</title>
<path fill="none" stroke="midnightblue" d="M1077.57,-70.48C1080.59,-69.97 1083.59,-69.47 1086.5,-69 1193.83,-51.58 1221.28,-51.1 1328.5,-33 1336.92,-31.58 1345.81,-29.99 1354.51,-28.39"/>
<polygon fill="midnightblue" stroke="midnightblue" points="1355.4,-31.78 1364.59,-26.51 1354.11,-24.9 1355.4,-31.78"/>
</g>
<!-- Node14 -->
<g id="node14" class="node">
<title>Node14</title>
<g id="a_node14"><a xlink:title=" ">
<polygon fill="white" stroke="#bfbfbf" points="1501.5,-0.5 1501.5,-32.5 1609.5,-32.5 1609.5,-0.5 1501.5,-0.5"/>
<text text-anchor="start" x="1509.5" y="-19.7" font-family="Helvetica,sans-Serif" font-size="11.00">juce_graphics/juce</text>
<text text-anchor="middle" x="1555.5" y="-7.7" font-family="Helvetica,sans-Serif" font-size="11.00">_graphics.h</text>
</a>
</g>
</g>
<!-- Node3&#45;&gt;Node14 -->
<g id="edge13" class="edge">
<title>Node3&#45;&gt;Node14</title>
<path fill="none" stroke="midnightblue" d="M1077.54,-70.28C1080.57,-69.82 1083.57,-69.39 1086.5,-69 1262.85,-45.71 1312.04,-62.11 1491.29,-33.04"/>
<polygon fill="midnightblue" stroke="midnightblue" points="1492.01,-36.47 1501.31,-31.39 1490.88,-29.56 1492.01,-36.47"/>
</g>
<!-- Node15 -->
<g id="node15" class="node">
<title>Node15</title>
<g id="a_node15"><a xlink:title=" ">
<polygon fill="white" stroke="#bfbfbf" points="1628,-0.5 1628,-32.5 1747,-32.5 1747,-0.5 1628,-0.5"/>
<text text-anchor="start" x="1636" y="-19.7" font-family="Helvetica,sans-Serif" font-size="11.00">juce_gui_basics/juce</text>
<text text-anchor="middle" x="1687.5" y="-7.7" font-family="Helvetica,sans-Serif" font-size="11.00">_gui_basics.h</text>
</a>
</g>
</g>
<!-- Node3&#45;&gt;Node15 -->
<g id="edge14" class="edge">
<title>Node3&#45;&gt;Node15</title>
<path fill="none" stroke="midnightblue" d="M1077.53,-70.21C1080.56,-69.76 1083.57,-69.36 1086.5,-69 1318.54,-40.82 1382.24,-66.35 1617.87,-32.93"/>
<polygon fill="midnightblue" stroke="midnightblue" points="1618.37,-36.4 1627.77,-31.51 1617.37,-29.47 1618.37,-36.4"/>
</g>
<!-- Node16 -->
<g id="node16" class="node">
<title>Node16</title>
<g id="a_node16"><a xlink:title=" ">
<polygon fill="white" stroke="#bfbfbf" points="1765.5,-0.5 1765.5,-32.5 1875.5,-32.5 1875.5,-0.5 1765.5,-0.5"/>
<text text-anchor="start" x="1773.5" y="-19.7" font-family="Helvetica,sans-Serif" font-size="11.00">juce_gui_extra/juce</text>
<text text-anchor="middle" x="1820.5" y="-7.7" font-family="Helvetica,sans-Serif" font-size="11.00">_gui_extra.h</text>
</a>
</g>
</g>
<!-- Node3&#45;&gt;Node16 -->
<g id="edge15" class="edge">
<title>Node3&#45;&gt;Node16</title>
<path fill="none" stroke="midnightblue" d="M1077.52,-70.16C1080.55,-69.73 1083.57,-69.34 1086.5,-69 1379.45,-35.48 1459.66,-75.36 1755.31,-32.98"/>
<polygon fill="midnightblue" stroke="midnightblue" points="1756.08,-36.41 1765.47,-31.51 1755.07,-29.48 1756.08,-36.41"/>
</g>
<!-- Node17 -->
<g id="node17" class="node">
<title>Node17</title>
<g id="a_node17"><a xlink:title=" ">
<polygon fill="white" stroke="#bfbfbf" points="1893.5,-6.5 1893.5,-26.5 2039.5,-26.5 2039.5,-6.5 1893.5,-6.5"/>
<text text-anchor="middle" x="1966.5" y="-13.7" font-family="Helvetica,sans-Serif" font-size="11.00">juce_opengl/juce_opengl.h</text>
</a>
</g>
</g>
<!-- Node3&#45;&gt;Node17 -->
<g id="edge16" class="edge">
<title>Node3&#45;&gt;Node17</title>
<path fill="none" stroke="midnightblue" d="M1077.52,-70.13C1080.55,-69.71 1083.57,-69.32 1086.5,-69 1439.4,-30.16 1531.86,-74.07 1884.5,-33 1894.43,-31.84 1904.96,-30.18 1915.06,-28.38"/>
<polygon fill="midnightblue" stroke="midnightblue" points="1915.77,-31.8 1924.96,-26.53 1914.49,-24.92 1915.77,-31.8"/>
</g>
</g>
</svg>
