<?xml version="1.0" encoding="UTF-8" standalone="no"?>
<!DOCTYPE svg PUBLIC "-//W3C//DTD SVG 1.1//EN"
 "http://www.w3.org/Graphics/SVG/1.1/DTD/svg11.dtd">
<!-- Generated by graphviz version 2.47.1 (20210417.1919)
 -->
<!-- Title: FluidSynthPlugin_Editor.h Pages: 1 -->
<svg width="1567pt" height="368pt"
 viewBox="0.00 0.00 1566.62 368.00" xmlns="http://www.w3.org/2000/svg" xmlns:xlink="http://www.w3.org/1999/xlink">
<g id="graph0" class="graph" transform="scale(1 1) rotate(0) translate(4 364)">
<title>FluidSynthPlugin_Editor.h</title>
<!-- Node1 -->
<g id="Node000001" class="node">
<title>Node1</title>
<g id="a_Node000001"><a xlink:title="The FluidSynthPlugin_Editor specification implements the editor for the processor of MIDI events from...">
<polygon fill="#999999" stroke="#666666" points="1095.5,-360 966.5,-360 966.5,-341 1095.5,-341 1095.5,-360"/>
<text text-anchor="middle" x="1031" y="-348" font-family="Helvetica,sans-Serif" font-size="10.00">FluidSynthPlugin_Editor.h</text>
</a>
</g>
</g>
<!-- Node2 -->
<g id="Node000002" class="node">
<title>Node2</title>
<g id="a_Node000002"><a xlink:href="_fluid_synth_plugin___event_processor_8h.html" target="_top" xlink:title="The FluidSynthPlugin_Processor specification defines the handling of MIDI events from the DAW via JUC...">
<polygon fill="white" stroke="#666666" points="1117,-305 945,-305 945,-286 1117,-286 1117,-305"/>
<text text-anchor="middle" x="1031" y="-293" font-family="Helvetica,sans-Serif" font-size="10.00">FluidSynthPlugin_EventProcessor.h</text>
</a>
</g>
</g>
<!-- Node1&#45;&gt;Node2 -->
<g id="edge1_Node000001_Node000002" class="edge">
<title>Node1&#45;&gt;Node2</title>
<g id="a_edge1_Node000001_Node000002"><a xlink:title=" ">
<path fill="none" stroke="#63b8ff" d="M1031,-340.75C1031,-333.8 1031,-323.85 1031,-315.13"/>
<polygon fill="#63b8ff" stroke="#63b8ff" points="1034.5,-315.09 1031,-305.09 1027.5,-315.09 1034.5,-315.09"/>
</a>
</g>
</g>
<!-- Node3 -->
<g id="Node000003" class="node">
<title>Node3</title>
<g id="a_Node000003"><a xlink:href="_juce_headers_8h_source.html" target="_top" xlink:title=" ">
<polygon fill="white" stroke="#666666" points="777.5,-250 696.5,-250 696.5,-231 777.5,-231 777.5,-250"/>
<text text-anchor="middle" x="737" y="-238" font-family="Helvetica,sans-Serif" font-size="10.00">JuceHeaders.h</text>
</a>
</g>
</g>
<!-- Node2&#45;&gt;Node3 -->
<g id="edge2_Node000002_Node000003" class="edge">
<title>Node2&#45;&gt;Node3</title>
<g id="a_edge2_Node000002_Node000003"><a xlink:title=" ">
<path fill="none" stroke="#63b8ff" d="M983.76,-285.98C930.13,-276.32 842.94,-260.6 787.85,-250.67"/>
<polygon fill="#63b8ff" stroke="#63b8ff" points="788.42,-247.21 777.95,-248.88 787.17,-254.1 788.42,-247.21"/>
</a>
</g>
</g>
<!-- Node14 -->
<g id="Node000014" class="node">
<title>Node14</title>
<g id="a_Node000014"><a xlink:href="_object_8h.html" target="_top" xlink:title="The Object specification and body provides the root object type.">
<polygon fill="white" stroke="#666666" points="1057.5,-250 1004.5,-250 1004.5,-231 1057.5,-231 1057.5,-250"/>
<text text-anchor="middle" x="1031" y="-238" font-family="Helvetica,sans-Serif" font-size="10.00">Object.h</text>
</a>
</g>
</g>
<!-- Node2&#45;&gt;Node14 -->
<g id="edge13_Node000002_Node000014" class="edge">
<title>Node2&#45;&gt;Node14</title>
<g id="a_edge13_Node000002_Node000014"><a xlink:title=" ">
<path fill="none" stroke="#63b8ff" d="M1031,-285.75C1031,-278.8 1031,-268.85 1031,-260.13"/>
<polygon fill="#63b8ff" stroke="#63b8ff" points="1034.5,-260.09 1031,-250.09 1027.5,-260.09 1034.5,-260.09"/>
</a>
</g>
</g>
<!-- Node15 -->
<g id="Node000015" class="node">
<title>Node15</title>
<g id="a_Node000015"><a xlink:href="_midi_preset_identification_8h.html" target="_top" xlink:title="The MidiPresetIdentification specification defines the identification of a MIDI preset as a tuple of ...">
<polygon fill="white" stroke="#666666" points="1409.5,-250 1284.5,-250 1284.5,-231 1409.5,-231 1409.5,-250"/>
<text text-anchor="middle" x="1347" y="-238" font-family="Helvetica,sans-Serif" font-size="10.00">MidiPresetIdentification.h</text>
</a>
</g>
</g>
<!-- Node2&#45;&gt;Node15 -->
<g id="edge14_Node000002_Node000015" class="edge">
<title>Node2&#45;&gt;Node15</title>
<g id="a_edge14_Node000002_Node000015"><a xlink:title=" ">
<path fill="none" stroke="#63b8ff" d="M1081.77,-285.98C1137.43,-276.65 1226.71,-261.67 1286.1,-251.71"/>
<polygon fill="#63b8ff" stroke="#63b8ff" points="1286.81,-255.14 1296.09,-250.04 1285.65,-248.24 1286.81,-255.14"/>
</a>
</g>
</g>
<!-- Node4 -->
<g id="Node000004" class="node">
<title>Node4</title>
<g id="a_Node000004"><a xlink:title=" ">
<polygon fill="#e0e0e0" stroke="#999999" points="1167,-195 1049,-195 1049,-165 1167,-165 1167,-195"/>
<text text-anchor="start" x="1057" y="-183" font-family="Helvetica,sans-Serif" font-size="10.00">juce_audio_basics/juce</text>
<text text-anchor="middle" x="1108" y="-172" font-family="Helvetica,sans-Serif" font-size="10.00">_audio_basics.h</text>
</a>
</g>
</g>
<!-- Node3&#45;&gt;Node4 -->
<g id="edge3_Node000003_Node000004" class="edge">
<title>Node3&#45;&gt;Node4</title>
<g id="a_edge3_Node000003_Node000004"><a xlink:title=" ">
<path fill="none" stroke="#63b8ff" d="M777.66,-234.22C835.75,-226.51 945.82,-211.31 1039,-195 1039.1,-194.98 1039.2,-194.96 1039.31,-194.95"/>
<polygon fill="#63b8ff" stroke="#63b8ff" points="1039.73,-198.43 1048.94,-193.2 1038.48,-191.54 1039.73,-198.43"/>
</a>
</g>
</g>
<!-- Node5 -->
<g id="Node000005" class="node">
<title>Node5</title>
<g id="a_Node000005"><a xlink:title=" ">
<polygon fill="#e0e0e0" stroke="#999999" points="1319,-195 1185,-195 1185,-165 1319,-165 1319,-195"/>
<text text-anchor="start" x="1193" y="-183" font-family="Helvetica,sans-Serif" font-size="10.00">juce_audio_plugin_client</text>
<text text-anchor="middle" x="1252" y="-172" font-family="Helvetica,sans-Serif" font-size="10.00">/juce_audio_plugin_client.h</text>
</a>
</g>
</g>
<!-- Node3&#45;&gt;Node5 -->
<g id="edge4_Node000003_Node000005" class="edge">
<title>Node3&#45;&gt;Node5</title>
<g id="a_edge4_Node000003_Node000005"><a xlink:title=" ">
<path fill="none" stroke="#63b8ff" d="M777.68,-236.49C853.68,-230.61 1022.55,-216.44 1174.9,-195.08"/>
<polygon fill="#63b8ff" stroke="#63b8ff" points="1175.5,-198.53 1184.91,-193.66 1174.52,-191.6 1175.5,-198.53"/>
</a>
</g>
</g>
<!-- Node6 -->
<g id="Node000006" class="node">
<title>Node6</title>
<g id="a_Node000006"><a xlink:title=" ">
<polygon fill="#e0e0e0" stroke="#999999" points="128,-195 0,-195 0,-165 128,-165 128,-195"/>
<text text-anchor="start" x="8" y="-183" font-family="Helvetica,sans-Serif" font-size="10.00">juce_audio_processors</text>
<text text-anchor="middle" x="64" y="-172" font-family="Helvetica,sans-Serif" font-size="10.00">/juce_audio_processors.h</text>
</a>
</g>
</g>
<!-- Node3&#45;&gt;Node6 -->
<g id="edge5_Node000003_Node000006" class="edge">
<title>Node3&#45;&gt;Node6</title>
<g id="a_edge5_Node000003_Node000006"><a xlink:title=" ">
<path fill="none" stroke="#63b8ff" d="M696.45,-238.11C600.91,-234.49 354.05,-223.11 137.97,-195.02"/>
<polygon fill="#63b8ff" stroke="#63b8ff" points="138.4,-191.55 128.03,-193.71 137.48,-198.49 138.4,-191.55"/>
</a>
</g>
</g>
<!-- Node7 -->
<g id="Node000007" class="node">
<title>Node7</title>
<g id="a_Node000007"><a xlink:title=" ">
<polygon fill="#e0e0e0" stroke="#999999" points="253.5,-195 146.5,-195 146.5,-165 253.5,-165 253.5,-195"/>
<text text-anchor="start" x="154.5" y="-183" font-family="Helvetica,sans-Serif" font-size="10.00">juce_audio_utils/juce</text>
<text text-anchor="middle" x="200" y="-172" font-family="Helvetica,sans-Serif" font-size="10.00">_audio_utils.h</text>
</a>
</g>
</g>
<!-- Node3&#45;&gt;Node7 -->
<g id="edge6_Node000003_Node000007" class="edge">
<title>Node3&#45;&gt;Node7</title>
<g id="a_edge6_Node000003_Node000007"><a xlink:title=" ">
<path fill="none" stroke="#63b8ff" d="M696.21,-237.39C615.51,-232.85 429.66,-220.56 263.44,-194.92"/>
<polygon fill="#63b8ff" stroke="#63b8ff" points="263.95,-191.46 253.53,-193.37 262.87,-198.37 263.95,-191.46"/>
</a>
</g>
</g>
<!-- Node8 -->
<g id="Node000008" class="node">
<title>Node8</title>
<g id="a_Node000008"><a xlink:title=" ">
<polygon fill="#e0e0e0" stroke="#999999" points="384,-189.5 272,-189.5 272,-170.5 384,-170.5 384,-189.5"/>
<text text-anchor="middle" x="328" y="-177.5" font-family="Helvetica,sans-Serif" font-size="10.00">juce_core/juce_core.h</text>
</a>
</g>
</g>
<!-- Node3&#45;&gt;Node8 -->
<g id="edge7_Node000003_Node000008" class="edge">
<title>Node3&#45;&gt;Node8</title>
<g id="a_edge7_Node000003_Node000008"><a xlink:title=" ">
<path fill="none" stroke="#63b8ff" d="M696.32,-235.35C631.78,-228.52 502.05,-213.76 393,-195 387.17,-194 381.07,-192.83 375.04,-191.62"/>
<polygon fill="#63b8ff" stroke="#63b8ff" points="375.52,-188.14 365.02,-189.53 374.1,-195 375.52,-188.14"/>
</a>
</g>
</g>
<!-- Node9 -->
<g id="Node000009" class="node">
<title>Node9</title>
<g id="a_Node000009"><a xlink:title=" ">
<polygon fill="#e0e0e0" stroke="#999999" points="521.5,-195 402.5,-195 402.5,-165 521.5,-165 521.5,-195"/>
<text text-anchor="start" x="410.5" y="-183" font-family="Helvetica,sans-Serif" font-size="10.00">juce_data_structures</text>
<text text-anchor="middle" x="462" y="-172" font-family="Helvetica,sans-Serif" font-size="10.00">/juce_data_structures.h</text>
</a>
</g>
</g>
<!-- Node3&#45;&gt;Node9 -->
<g id="edge8_Node000003_Node000009" class="edge">
<title>Node3&#45;&gt;Node9</title>
<g id="a_edge8_Node000003_Node000009"><a xlink:title=" ">
<path fill="none" stroke="#63b8ff" d="M697.01,-230.99C653.7,-221.78 583.79,-206.91 531.46,-195.78"/>
<polygon fill="#63b8ff" stroke="#63b8ff" points="532.08,-192.33 521.57,-193.67 530.62,-199.18 532.08,-192.33"/>
</a>
</g>
</g>
<!-- Node10 -->
<g id="Node000010" class="node">
<title>Node10</title>
<g id="a_Node000010"><a xlink:title=" ">
<polygon fill="#e0e0e0" stroke="#999999" points="670,-189.5 540,-189.5 540,-170.5 670,-170.5 670,-189.5"/>
<text text-anchor="middle" x="605" y="-177.5" font-family="Helvetica,sans-Serif" font-size="10.00">juce_events/juce_events.h</text>
</a>
</g>
</g>
<!-- Node3&#45;&gt;Node10 -->
<g id="edge9_Node000003_Node000010" class="edge">
<title>Node3&#45;&gt;Node10</title>
<g id="a_edge9_Node000003_Node000010"><a xlink:title=" ">
<path fill="none" stroke="#63b8ff" d="M717.81,-230.99C695.61,-221.16 658.88,-204.88 633.38,-193.58"/>
<polygon fill="#63b8ff" stroke="#63b8ff" points="634.78,-190.37 624.22,-189.52 631.94,-196.77 634.78,-190.37"/>
</a>
</g>
</g>
<!-- Node11 -->
<g id="Node000011" class="node">
<title>Node11</title>
<g id="a_Node000011"><a xlink:title=" ">
<polygon fill="#e0e0e0" stroke="#999999" points="786,-195 688,-195 688,-165 786,-165 786,-195"/>
<text text-anchor="start" x="696" y="-183" font-family="Helvetica,sans-Serif" font-size="10.00">juce_graphics/juce</text>
<text text-anchor="middle" x="737" y="-172" font-family="Helvetica,sans-Serif" font-size="10.00">_graphics.h</text>
</a>
</g>
</g>
<!-- Node3&#45;&gt;Node11 -->
<g id="edge10_Node000003_Node000011" class="edge">
<title>Node3&#45;&gt;Node11</title>
<g id="a_edge10_Node000003_Node000011"><a xlink:title=" ">
<path fill="none" stroke="#63b8ff" d="M737,-230.87C737,-224.11 737,-214.35 737,-205.26"/>
<polygon fill="#63b8ff" stroke="#63b8ff" points="740.5,-205.11 737,-195.11 733.5,-205.11 740.5,-205.11"/>
</a>
</g>
</g>
<!-- Node12 -->
<g id="Node000012" class="node">
<title>Node12</title>
<g id="a_Node000012"><a xlink:title=" ">
<polygon fill="#e0e0e0" stroke="#999999" points="911.5,-195 804.5,-195 804.5,-165 911.5,-165 911.5,-195"/>
<text text-anchor="start" x="812.5" y="-183" font-family="Helvetica,sans-Serif" font-size="10.00">juce_gui_basics/juce</text>
<text text-anchor="middle" x="858" y="-172" font-family="Helvetica,sans-Serif" font-size="10.00">_gui_basics.h</text>
</a>
</g>
</g>
<!-- Node3&#45;&gt;Node12 -->
<g id="edge11_Node000003_Node000012" class="edge">
<title>Node3&#45;&gt;Node12</title>
<g id="a_edge11_Node000003_Node000012"><a xlink:title=" ">
<path fill="none" stroke="#63b8ff" d="M754.59,-230.99C771.57,-222.79 797.83,-210.09 819.64,-199.55"/>
<polygon fill="#63b8ff" stroke="#63b8ff" points="821.2,-202.68 828.68,-195.18 818.15,-196.38 821.2,-202.68"/>
</a>
</g>
</g>
<!-- Node13 -->
<g id="Node000013" class="node">
<title>Node13</title>
<g id="a_Node000013"><a xlink:title=" ">
<polygon fill="#e0e0e0" stroke="#999999" points="1030.5,-195 929.5,-195 929.5,-165 1030.5,-165 1030.5,-195"/>
<text text-anchor="start" x="937.5" y="-183" font-family="Helvetica,sans-Serif" font-size="10.00">juce_gui_extra/juce</text>
<text text-anchor="middle" x="980" y="-172" font-family="Helvetica,sans-Serif" font-size="10.00">_gui_extra.h</text>
</a>
</g>
</g>
<!-- Node3&#45;&gt;Node13 -->
<g id="edge12_Node000003_Node000013" class="edge">
<title>Node3&#45;&gt;Node13</title>
<g id="a_edge12_Node000003_Node000013"><a xlink:title=" ">
<path fill="none" stroke="#63b8ff" d="M772.33,-230.99C810.84,-221.72 873.14,-206.73 919.47,-195.57"/>
<polygon fill="#63b8ff" stroke="#63b8ff" points="920.49,-198.93 929.39,-193.18 918.85,-192.12 920.49,-198.93"/>
</a>
</g>
</g>
<!-- Node16 -->
<g id="Node000016" class="node">
<title>Node16</title>
<g id="a_Node000016"><a xlink:href="_boolean_8h.html" target="_top" xlink:title="The Boolean specification and body provides a value object type for boolean values.">
<polygon fill="white" stroke="#666666" points="1341,-129 1281,-129 1281,-110 1341,-110 1341,-129"/>
<text text-anchor="middle" x="1311" y="-117" font-family="Helvetica,sans-Serif" font-size="10.00">Boolean.h</text>
</a>
</g>
</g>
<!-- Node15&#45;&gt;Node16 -->
<g id="edge15_Node000015_Node000016" class="edge">
<title>Node15&#45;&gt;Node16</title>
<g id="a_edge15_Node000015_Node000016"><a xlink:title=" ">
<path fill="none" stroke="#63b8ff" d="M1345.1,-230.69C1341.99,-216.65 1335.43,-188.41 1328,-165 1325.22,-156.23 1321.64,-146.68 1318.49,-138.68"/>
<polygon fill="#63b8ff" stroke="#63b8ff" points="1321.68,-137.22 1314.69,-129.26 1315.18,-139.84 1321.68,-137.22"/>
</a>
</g>
</g>
<!-- Node20 -->
<g id="Node000020" class="node">
<title>Node20</title>
<g id="a_Node000020"><a xlink:href="_integer_8h.html" target="_top" xlink:title="The Integer specification and body provides a value object type for ints.">
<polygon fill="white" stroke="#666666" points="1501,-189.5 1447,-189.5 1447,-170.5 1501,-170.5 1501,-189.5"/>
<text text-anchor="middle" x="1474" y="-177.5" font-family="Helvetica,sans-Serif" font-size="10.00">Integer.h</text>
</a>
</g>
</g>
<!-- Node15&#45;&gt;Node20 -->
<g id="edge19_Node000015_Node000020" class="edge">
<title>Node15&#45;&gt;Node20</title>
<g id="a_edge19_Node000015_Node000020"><a xlink:title=" ">
<path fill="none" stroke="#63b8ff" d="M1365.47,-230.99C1386.72,-221.2 1421.85,-205.02 1446.37,-193.73"/>
<polygon fill="#63b8ff" stroke="#63b8ff" points="1447.89,-196.88 1455.51,-189.52 1444.96,-190.52 1447.89,-196.88"/>
</a>
</g>
</g>
<!-- Node17 -->
<g id="Node000017" class="node">
<title>Node17</title>
<g id="a_Node000017"><a xlink:href="_my_string_8h.html" target="_top" xlink:title="The String specification defines a standard string type.">
<polygon fill="white" stroke="#666666" points="1291,-74 1227,-74 1227,-55 1291,-55 1291,-74"/>
<text text-anchor="middle" x="1259" y="-62" font-family="Helvetica,sans-Serif" font-size="10.00">MyString.h</text>
</a>
</g>
</g>
<!-- Node16&#45;&gt;Node17 -->
<g id="edge16_Node000016_Node000017" class="edge">
<title>Node16&#45;&gt;Node17</title>
<g id="a_edge16_Node000016_Node000017"><a xlink:title=" ">
<path fill="none" stroke="#63b8ff" d="M1302.41,-109.75C1294.84,-102.03 1283.62,-90.6 1274.49,-81.28"/>
<polygon fill="#63b8ff" stroke="#63b8ff" points="1276.93,-78.78 1267.43,-74.09 1271.93,-83.68 1276.93,-78.78"/>
</a>
</g>
</g>
<!-- Node18 -->
<g id="Node000018" class="node">
<title>Node18</title>
<g id="a_Node000018"><a xlink:title=" ">
<polygon fill="#e0e0e0" stroke="#999999" points="1361.5,-19 1320.5,-19 1320.5,0 1361.5,0 1361.5,-19"/>
<text text-anchor="middle" x="1341" y="-7" font-family="Helvetica,sans-Serif" font-size="10.00">string</text>
</a>
</g>
</g>
<!-- Node17&#45;&gt;Node18 -->
<g id="edge17_Node000017_Node000018" class="edge">
<title>Node17&#45;&gt;Node18</title>
<g id="a_edge17_Node000017_Node000018"><a xlink:title=" ">
<path fill="none" stroke="#63b8ff" d="M1272.17,-54.98C1284.77,-46.84 1304,-34.41 1318.94,-24.76"/>
<polygon fill="#63b8ff" stroke="#63b8ff" points="1321.09,-27.54 1327.59,-19.17 1317.29,-21.66 1321.09,-27.54"/>
</a>
</g>
</g>
<!-- Node19 -->
<g id="Node000019" class="node">
<title>Node19</title>
<g id="a_Node000019"><a xlink:href="_global_macros_8h.html" target="_top" xlink:title="The GlobalMacros specification defines simple macros (e.g. for parameter modes).">
<polygon fill="white" stroke="#666666" points="1301.5,-19 1216.5,-19 1216.5,0 1301.5,0 1301.5,-19"/>
<text text-anchor="middle" x="1259" y="-7" font-family="Helvetica,sans-Serif" font-size="10.00">GlobalMacros.h</text>
</a>
</g>
</g>
<!-- Node17&#45;&gt;Node19 -->
<g id="edge18_Node000017_Node000019" class="edge">
<title>Node17&#45;&gt;Node19</title>
<g id="a_edge18_Node000017_Node000019"><a xlink:title=" ">
<path fill="none" stroke="#63b8ff" d="M1259,-54.75C1259,-47.8 1259,-37.85 1259,-29.13"/>
<polygon fill="#63b8ff" stroke="#63b8ff" points="1262.5,-29.09 1259,-19.09 1255.5,-29.09 1262.5,-29.09"/>
</a>
</g>
</g>
<!-- Node21 -->
<g id="Node000021" class="node">
<title>Node21</title>
<g id="a_Node000021"><a xlink:title=" ">
<polygon fill="#e0e0e0" stroke="#999999" points="1547,-74 1503,-74 1503,-55 1547,-55 1547,-74"/>
<text text-anchor="middle" x="1525" y="-62" font-family="Helvetica,sans-Serif" font-size="10.00">cmath</text>
</a>
</g>
</g>
<!-- Node20&#45;&gt;Node21 -->
<g id="edge20_Node000020_Node000021" class="edge">
<title>Node20&#45;&gt;Node21</title>
<g id="a_edge20_Node000020_Node000021"><a xlink:title=" ">
<path fill="none" stroke="#63b8ff" d="M1477.83,-170.47C1486.1,-152.06 1505.77,-108.29 1516.92,-83.48"/>
<polygon fill="#63b8ff" stroke="#63b8ff" points="1520.22,-84.69 1521.12,-74.13 1513.83,-81.82 1520.22,-84.69"/>
</a>
</g>
</g>
<!-- Node22 -->
<g id="Node000022" class="node">
<title>Node22</title>
<g id="a_Node000022"><a xlink:title=" ">
<polygon fill="#e0e0e0" stroke="#999999" points="1521.5,-19 1462.5,-19 1462.5,0 1521.5,0 1521.5,-19"/>
<text text-anchor="middle" x="1492" y="-7" font-family="Helvetica,sans-Serif" font-size="10.00">stdexcept</text>
</a>
</g>
</g>
<!-- Node20&#45;&gt;Node22 -->
<g id="edge21_Node000020_Node000022" class="edge">
<title>Node20&#45;&gt;Node22</title>
<g id="a_edge21_Node000020_Node000022"><a xlink:title=" ">
<path fill="none" stroke="#63b8ff" d="M1484.19,-170.5C1502.88,-154.14 1542.02,-116.15 1556,-74 1558.66,-65.99 1559.91,-62.48 1556,-55 1548.89,-41.39 1535.51,-31.1 1522.81,-23.87"/>
<polygon fill="#63b8ff" stroke="#63b8ff" points="1524.27,-20.68 1513.79,-19.13 1521.02,-26.88 1524.27,-20.68"/>
</a>
</g>
</g>
<!-- Node23 -->
<g id="Node000023" class="node">
<title>Node23</title>
<g id="a_Node000023"><a xlink:href="_natural_8h.html" target="_top" xlink:title="The Natural specification and body provides a value object type for naturals (positive integers with ...">
<polygon fill="white" stroke="#666666" points="1467,-129 1411,-129 1411,-110 1467,-110 1467,-129"/>
<text text-anchor="middle" x="1439" y="-117" font-family="Helvetica,sans-Serif" font-size="10.00">Natural.h</text>
</a>
</g>
</g>
<!-- Node20&#45;&gt;Node23 -->
<g id="edge22_Node000020_Node000023" class="edge">
<title>Node20&#45;&gt;Node23</title>
<g id="a_edge22_Node000020_Node000023"><a xlink:title=" ">
<path fill="none" stroke="#63b8ff" d="M1468.84,-170.37C1463.77,-161.9 1455.9,-148.74 1449.51,-138.07"/>
<polygon fill="#63b8ff" stroke="#63b8ff" points="1452.32,-135.95 1444.19,-129.17 1446.32,-139.55 1452.32,-135.95"/>
</a>
</g>
</g>
<!-- Node23&#45;&gt;Node17 -->
<g id="edge28_Node000023_Node000017" class="edge">
<title>Node23&#45;&gt;Node17</title>
<g id="a_edge28_Node000023_Node000017"><a xlink:title=" ">
<path fill="none" stroke="#63b8ff" d="M1410.88,-110.22C1380.46,-101.26 1331.76,-86.92 1297.74,-76.91"/>
<polygon fill="#63b8ff" stroke="#63b8ff" points="1298.7,-73.54 1288.12,-74.07 1296.72,-80.26 1298.7,-73.54"/>
</a>
</g>
</g>
<!-- Node23&#45;&gt;Node21 -->
<g id="edge23_Node000023_Node000021" class="edge">
<title>Node23&#45;&gt;Node21</title>
<g id="a_edge23_Node000023_Node000021"><a xlink:title=" ">
<path fill="none" stroke="#63b8ff" d="M1452.82,-109.98C1466.15,-101.77 1486.58,-89.18 1502.31,-79.49"/>
<polygon fill="#63b8ff" stroke="#63b8ff" points="1504.25,-82.4 1510.93,-74.17 1500.58,-76.44 1504.25,-82.4"/>
</a>
</g>
</g>
<!-- Node24 -->
<g id="Node000024" class="node">
<title>Node24</title>
<g id="a_Node000024"><a xlink:href="_assertion_8h.html" target="_top" xlink:title="The Assertion specification defines macros for pre&#45; and postconditions in functions or methods.">
<polygon fill="white" stroke="#666666" points="1375,-74 1309,-74 1309,-55 1375,-55 1375,-74"/>
<text text-anchor="middle" x="1342" y="-62" font-family="Helvetica,sans-Serif" font-size="10.00">Assertion.h</text>
</a>
</g>
</g>
<!-- Node23&#45;&gt;Node24 -->
<g id="edge24_Node000023_Node000024" class="edge">
<title>Node23&#45;&gt;Node24</title>
<g id="a_edge24_Node000023_Node000024"><a xlink:title=" ">
<path fill="none" stroke="#63b8ff" d="M1423.42,-109.98C1408.23,-101.69 1384.9,-88.94 1367.1,-79.22"/>
<polygon fill="#63b8ff" stroke="#63b8ff" points="1368.32,-75.89 1357.87,-74.17 1364.97,-82.04 1368.32,-75.89"/>
</a>
</g>
</g>
<!-- Node25 -->
<g id="Node000025" class="node">
<title>Node25</title>
<g id="a_Node000025"><a xlink:title=" ">
<polygon fill="#e0e0e0" stroke="#999999" points="1485,-74 1393,-74 1393,-55 1485,-55 1485,-74"/>
<text text-anchor="middle" x="1439" y="-62" font-family="Helvetica,sans-Serif" font-size="10.00">GenericNumber.h</text>
</a>
</g>
</g>
<!-- Node23&#45;&gt;Node25 -->
<g id="edge27_Node000023_Node000025" class="edge">
<title>Node23&#45;&gt;Node25</title>
<g id="a_edge27_Node000023_Node000025"><a xlink:title=" ">
<path fill="none" stroke="#63b8ff" d="M1439,-109.75C1439,-102.8 1439,-92.85 1439,-84.13"/>
<polygon fill="#63b8ff" stroke="#63b8ff" points="1442.5,-84.09 1439,-74.09 1435.5,-84.09 1442.5,-84.09"/>
</a>
</g>
</g>
<!-- Node24&#45;&gt;Node18 -->
<g id="edge26_Node000024_Node000018" class="edge">
<title>Node24&#45;&gt;Node18</title>
<g id="a_edge26_Node000024_Node000018"><a xlink:title=" ">
<path fill="none" stroke="#63b8ff" d="M1341.83,-54.75C1341.7,-47.8 1341.52,-37.85 1341.35,-29.13"/>
<polygon fill="#63b8ff" stroke="#63b8ff" points="1344.85,-29.02 1341.16,-19.09 1337.85,-29.15 1344.85,-29.02"/>
</a>
</g>
</g>
<!-- Node24&#45;&gt;Node22 -->
<g id="edge25_Node000024_Node000022" class="edge">
<title>Node24&#45;&gt;Node22</title>
<g id="a_edge25_Node000024_Node000022"><a xlink:title=" ">
<path fill="none" stroke="#63b8ff" d="M1366.1,-54.98C1390.88,-46.23 1429.7,-32.51 1457.69,-22.62"/>
<polygon fill="#63b8ff" stroke="#63b8ff" points="1459.2,-25.8 1467.46,-19.17 1456.87,-19.2 1459.2,-25.8"/>
</a>
</g>
</g>
</g>
</svg>
