<?xml version="1.0" encoding="UTF-8" standalone="no"?>
<!DOCTYPE svg PUBLIC "-//W3C//DTD SVG 1.1//EN"
 "http://www.w3.org/Graphics/SVG/1.1/DTD/svg11.dtd">
<!-- Generated by graphviz version 2.47.1 (20210417.1919)
 -->
<!-- Title: FluidSynthPlugin_Editor.cpp Pages: 1 -->
<!--zoomable 487 -->
<svg id="main" version="1.1" xmlns="http://www.w3.org/2000/svg" xmlns:xlink="http://www.w3.org/1999/xlink" xml:space="preserve" onload="init(evt)">
<style type="text/css"><![CDATA[
.edge:hover path { stroke: red; }
.edge:hover polygon { stroke: red; fill: red; }
]]></style>
<script type="text/javascript"><![CDATA[
var edges = document.getElementsByTagName('g');
if (edges && edges.length) {
  for (var i=0;i<edges.length;i++) {
    if (edges[i].id.substr(0,4)=='edge') {
      edges[i].setAttribute('class','edge');
    }
  }
}
]]></script>
        <defs>
                <circle id="rim" cx="0" cy="0" r="7"/>
                <circle id="rim2" cx="0" cy="0" r="3.5"/>
                <g id="zoomPlus">
                        <use xlink:href="#rim" fill="#404040">
                                <set attributeName="fill" to="#808080" begin="zoomplus.mouseover" end="zoomplus.mouseout"/>
                        </use>
                        <path d="M-4,0h8M0,-4v8" fill="none" stroke="white" stroke-width="1.5" pointer-events="none"/>
                </g>
                <g id="zoomMin">
                        <use xlink:href="#rim" fill="#404040">
                                <set attributeName="fill" to="#808080" begin="zoomminus.mouseover" end="zoomminus.mouseout"/>
                        </use>
                        <path d="M-4,0h8" fill="none" stroke="white" stroke-width="1.5" pointer-events="none"/>
                </g>
                <g id="dirArrow">
                        <path fill="none" stroke="white" stroke-width="1.5" d="M0,-3.0v7 M-2.5,-0.5L0,-3.0L2.5,-0.5"/>
                </g>
               <g id="resetDef">
                       <use xlink:href="#rim2" fill="#404040">
                               <set attributeName="fill" to="#808080" begin="reset.mouseover" end="reset.mouseout"/>
                       </use>
               </g>
        </defs>

<script type="text/javascript">
var viewWidth = 2479;
var viewHeight = 487;
var sectionId = 'dynsection-0';
</script>
<script xlink:href="svgpan.js"/>
<svg id="graph" class="graph">
<g id="viewport">
<title>FluidSynthPlugin_Editor.cpp</title>
<polygon fill="white" stroke="transparent" points="-4,4 -4,-483 2475.3,-483 2475.3,4 -4,4"/>
<!-- Node1 -->
<g id="node1" class="node">
<title>Node1</title>
<g id="a_node1"><a xlink:title="The FluidSynthPlugin_Editor module implements the editor for the processor of MIDI events from the DA...">
<polygon fill="#bfbfbf" stroke="black" points="364.3,-459.5 364.3,-478.5 504.3,-478.5 504.3,-459.5 364.3,-459.5"/>
<text text-anchor="middle" x="434.3" y="-466.5" font-family="Helvetica,sans-Serif" font-size="10.00">FluidSynthPlugin_Editor.cpp</text>
</a>
</g>
</g>
<!-- Node2 -->
<g id="node2" class="node">
<title>Node2</title>
<g id="a_node2"><a xlink:href="_assertion_8h.html" target="_top" xlink:title="The Assertion specification defines macros for pre&#45; and postconditions in functions or methods.">
<polygon fill="white" stroke="black" points="98.3,-56.5 98.3,-75.5 164.3,-75.5 164.3,-56.5 98.3,-56.5"/>
<text text-anchor="middle" x="131.3" y="-63.5" font-family="Helvetica,sans-Serif" font-size="10.00">Assertion.h</text>
</a>
</g>
</g>
<!-- Node1&#45;&gt;Node2 -->
<g id="edge1" class="edge">
<title>Node1&#45;&gt;Node2</title>
<path fill="none" stroke="midnightblue" d="M364.09,-464.65C241.26,-456.86 0.3,-432.13 0.3,-358 0.3,-358 0.3,-358 0.3,-177 0.3,-146.9 -0.91,-134.3 19.3,-112 37.23,-92.24 65.02,-81 88.44,-74.7"/>
<polygon fill="midnightblue" stroke="midnightblue" points="89.3,-78.09 98.17,-72.29 87.62,-71.3 89.3,-78.09"/>
</g>
<!-- Node5 -->
<g id="node5" class="node">
<title>Node5</title>
<g id="a_node5"><a xlink:href="_environment_8h.html" target="_top" xlink:title="The Environment specification defines operating system services related to environment variables.">
<polygon fill="white" stroke="black" points="541.3,-347.5 541.3,-366.5 619.3,-366.5 619.3,-347.5 541.3,-347.5"/>
<text text-anchor="middle" x="580.3" y="-354.5" font-family="Helvetica,sans-Serif" font-size="10.00">Environment.h</text>
</a>
</g>
</g>
<!-- Node1&#45;&gt;Node5 -->
<g id="edge4" class="edge">
<title>Node1&#45;&gt;Node5</title>
<path fill="none" stroke="midnightblue" d="M457.57,-459.37C476.65,-451.61 503.77,-438.99 524.3,-423 542.04,-409.19 558.33,-389.07 568.71,-374.88"/>
<polygon fill="midnightblue" stroke="midnightblue" points="571.7,-376.72 574.64,-366.54 565.99,-372.66 571.7,-376.72"/>
</g>
<!-- Node14 -->
<g id="node14" class="node">
<title>Node14</title>
<g id="a_node14"><a xlink:href="_logging_8h.html" target="_top" xlink:title="The Logging specification defines macros for entry&#45;, exit&#45; and intermediate logging of functions into...">
<polygon fill="white" stroke="black" points="243.8,-403.5 243.8,-422.5 302.8,-422.5 302.8,-403.5 243.8,-403.5"/>
<text text-anchor="middle" x="273.3" y="-410.5" font-family="Helvetica,sans-Serif" font-size="10.00">Logging.h</text>
</a>
</g>
</g>
<!-- Node1&#45;&gt;Node14 -->
<g id="edge16" class="edge">
<title>Node1&#45;&gt;Node14</title>
<path fill="none" stroke="midnightblue" d="M408.79,-459.44C381.71,-450.36 338.71,-435.94 308.44,-425.78"/>
<polygon fill="midnightblue" stroke="midnightblue" points="309.29,-422.38 298.7,-422.52 307.06,-429.01 309.29,-422.38"/>
</g>
<!-- Node27 -->
<g id="node27" class="node">
<title>Node27</title>
<g id="a_node27"><a xlink:href="_fluid_synth_plugin___editor_8h.html" target="_top" xlink:title="The FluidSynthPlugin_Editor specification implements the editor for the processor of MIDI events from...">
<polygon fill="white" stroke="black" points="972.8,-403.5 972.8,-422.5 1101.8,-422.5 1101.8,-403.5 972.8,-403.5"/>
<text text-anchor="middle" x="1037.3" y="-410.5" font-family="Helvetica,sans-Serif" font-size="10.00">FluidSynthPlugin_Editor.h</text>
</a>
</g>
</g>
<!-- Node1&#45;&gt;Node27 -->
<g id="edge39" class="edge">
<title>Node1&#45;&gt;Node27</title>
<path fill="none" stroke="midnightblue" d="M504.36,-461.73C618.8,-451.48 844.84,-431.24 962.37,-420.71"/>
<polygon fill="midnightblue" stroke="midnightblue" points="962.72,-424.19 972.36,-419.82 962.09,-417.22 962.72,-424.19"/>
</g>
<!-- Node45 -->
<g id="node45" class="node">
<title>Node45</title>
<g id="a_node45"><a xlink:href="_fluid_synth_plugin___editor_support_8h.html" target="_top" xlink:title="The FluidSynthPlugin_EditorSupport specification defines support services for the editor of the Fluid...">
<polygon fill="white" stroke="black" points="352.8,-403.5 352.8,-422.5 515.8,-422.5 515.8,-403.5 352.8,-403.5"/>
<text text-anchor="middle" x="434.3" y="-410.5" font-family="Helvetica,sans-Serif" font-size="10.00">FluidSynthPlugin_EditorSupport.h</text>
</a>
</g>
</g>
<!-- Node1&#45;&gt;Node45 -->
<g id="edge57" class="edge">
<title>Node1&#45;&gt;Node45</title>
<path fill="none" stroke="midnightblue" d="M434.3,-459.08C434.3,-452.01 434.3,-441.86 434.3,-432.99"/>
<polygon fill="midnightblue" stroke="midnightblue" points="437.8,-432.75 434.3,-422.75 430.8,-432.75 437.8,-432.75"/>
</g>
<!-- Node3 -->
<g id="node3" class="node">
<title>Node3</title>
<g id="a_node3"><a xlink:title=" ">
<polygon fill="white" stroke="#bfbfbf" points="163.8,-0.5 163.8,-19.5 222.8,-19.5 222.8,-0.5 163.8,-0.5"/>
<text text-anchor="middle" x="193.3" y="-7.5" font-family="Helvetica,sans-Serif" font-size="10.00">stdexcept</text>
</a>
</g>
</g>
<!-- Node2&#45;&gt;Node3 -->
<g id="edge2" class="edge">
<title>Node2&#45;&gt;Node3</title>
<path fill="none" stroke="midnightblue" d="M141.27,-56.32C150.43,-48.34 164.24,-36.31 175.33,-26.65"/>
<polygon fill="midnightblue" stroke="midnightblue" points="177.92,-29.04 183.16,-19.83 173.32,-23.76 177.92,-29.04"/>
</g>
<!-- Node4 -->
<g id="node4" class="node">
<title>Node4</title>
<g id="a_node4"><a xlink:title=" ">
<polygon fill="white" stroke="#bfbfbf" points="281.8,-0.5 281.8,-19.5 322.8,-19.5 322.8,-0.5 281.8,-0.5"/>
<text text-anchor="middle" x="302.3" y="-7.5" font-family="Helvetica,sans-Serif" font-size="10.00">string</text>
</a>
</g>
</g>
<!-- Node2&#45;&gt;Node4 -->
<g id="edge3" class="edge">
<title>Node2&#45;&gt;Node4</title>
<path fill="none" stroke="midnightblue" d="M158.4,-56.44C189.33,-46.68 239.8,-30.74 272.01,-20.57"/>
<polygon fill="midnightblue" stroke="midnightblue" points="273.29,-23.83 281.78,-17.48 271.19,-17.16 273.29,-23.83"/>
</g>
<!-- Node6 -->
<g id="node6" class="node">
<title>Node6</title>
<g id="a_node6"><a xlink:href="_boolean_8h.html" target="_top" xlink:title="The Boolean specification and body provides a value object type for boolean values.">
<polygon fill="white" stroke="black" points="400.3,-291.5 400.3,-310.5 460.3,-310.5 460.3,-291.5 400.3,-291.5"/>
<text text-anchor="middle" x="430.3" y="-298.5" font-family="Helvetica,sans-Serif" font-size="10.00">Boolean.h</text>
</a>
</g>
</g>
<!-- Node5&#45;&gt;Node6 -->
<g id="edge5" class="edge">
<title>Node5&#45;&gt;Node6</title>
<path fill="none" stroke="midnightblue" d="M556.54,-347.44C531.41,-338.4 491.59,-324.06 463.4,-313.92"/>
<polygon fill="midnightblue" stroke="midnightblue" points="464.56,-310.61 453.96,-310.52 462.18,-317.2 464.56,-310.61"/>
</g>
<!-- Node9 -->
<g id="node9" class="node">
<title>Node9</title>
<g id="a_node9"><a xlink:href="_dictionary_8h.html" target="_top" xlink:title="The Dictionary specification defines maps from string keys to string values.">
<polygon fill="white" stroke="black" points="482.3,-291.5 482.3,-310.5 550.3,-310.5 550.3,-291.5 482.3,-291.5"/>
<text text-anchor="middle" x="516.3" y="-298.5" font-family="Helvetica,sans-Serif" font-size="10.00">Dictionary.h</text>
</a>
</g>
</g>
<!-- Node5&#45;&gt;Node9 -->
<g id="edge9" class="edge">
<title>Node5&#45;&gt;Node9</title>
<path fill="none" stroke="midnightblue" d="M570.02,-347.32C560.47,-339.26 546.02,-327.08 534.52,-317.37"/>
<polygon fill="midnightblue" stroke="midnightblue" points="536.67,-314.61 526.77,-310.83 532.16,-319.96 536.67,-314.61"/>
</g>
<!-- Node11 -->
<g id="node11" class="node">
<title>Node11</title>
<g id="a_node11"><a xlink:href="_natural_8h.html" target="_top" xlink:title="The Natural specification and body provides a value object type for naturals (positive integers with ...">
<polygon fill="white" stroke="black" points="291.3,-112.5 291.3,-131.5 347.3,-131.5 347.3,-112.5 291.3,-112.5"/>
<text text-anchor="middle" x="319.3" y="-119.5" font-family="Helvetica,sans-Serif" font-size="10.00">Natural.h</text>
</a>
</g>
</g>
<!-- Node5&#45;&gt;Node11 -->
<g id="edge11" class="edge">
<title>Node5&#45;&gt;Node11</title>
<path fill="none" stroke="midnightblue" d="M581.67,-347.17C584.72,-324.18 589.66,-261.66 560.3,-224 510.13,-159.63 411.45,-135.85 357.23,-127.4"/>
<polygon fill="midnightblue" stroke="midnightblue" points="357.72,-123.94 347.32,-125.96 356.71,-130.87 357.72,-123.94"/>
</g>
<!-- Node7 -->
<g id="node7" class="node">
<title>Node7</title>
<g id="a_node7"><a xlink:href="_my_string_8h.html" target="_top" xlink:title="The String specification defines a standard string type.">
<polygon fill="white" stroke="black" points="392.3,-56.5 392.3,-75.5 456.3,-75.5 456.3,-56.5 392.3,-56.5"/>
<text text-anchor="middle" x="424.3" y="-63.5" font-family="Helvetica,sans-Serif" font-size="10.00">MyString.h</text>
</a>
</g>
</g>
<!-- Node6&#45;&gt;Node7 -->
<g id="edge6" class="edge">
<title>Node6&#45;&gt;Node7</title>
<path fill="none" stroke="midnightblue" d="M430.08,-291.43C429.22,-257.75 426.03,-133.99 424.8,-86.1"/>
<polygon fill="midnightblue" stroke="midnightblue" points="428.29,-85.8 424.53,-75.9 421.29,-85.98 428.29,-85.8"/>
</g>
<!-- Node7&#45;&gt;Node4 -->
<g id="edge7" class="edge">
<title>Node7&#45;&gt;Node4</title>
<path fill="none" stroke="midnightblue" d="M404.97,-56.44C384.98,-47.6 353.56,-33.69 330.74,-23.59"/>
<polygon fill="midnightblue" stroke="midnightblue" points="332.11,-20.36 321.55,-19.52 329.27,-26.76 332.11,-20.36"/>
</g>
<!-- Node8 -->
<g id="node8" class="node">
<title>Node8</title>
<g id="a_node8"><a xlink:href="_global_macros_8h.html" target="_top" xlink:title="The GlobalMacros specification defines simple macros (e.g. for parameter modes).">
<polygon fill="white" stroke="black" points="381.8,-0.5 381.8,-19.5 466.8,-19.5 466.8,-0.5 381.8,-0.5"/>
<text text-anchor="middle" x="424.3" y="-7.5" font-family="Helvetica,sans-Serif" font-size="10.00">GlobalMacros.h</text>
</a>
</g>
</g>
<!-- Node7&#45;&gt;Node8 -->
<g id="edge8" class="edge">
<title>Node7&#45;&gt;Node8</title>
<path fill="none" stroke="midnightblue" d="M424.3,-56.08C424.3,-49.01 424.3,-38.86 424.3,-29.99"/>
<polygon fill="midnightblue" stroke="midnightblue" points="427.8,-29.75 424.3,-19.75 420.8,-29.75 427.8,-29.75"/>
</g>
<!-- Node10 -->
<g id="node10" class="node">
<title>Node10</title>
<g id="a_node10"><a xlink:title=" ">
<polygon fill="white" stroke="#bfbfbf" points="474.8,-230 474.8,-249 551.8,-249 551.8,-230 474.8,-230"/>
<text text-anchor="middle" x="513.3" y="-237" font-family="Helvetica,sans-Serif" font-size="10.00">GenericMap.h</text>
</a>
</g>
</g>
<!-- Node9&#45;&gt;Node10 -->
<g id="edge10" class="edge">
<title>Node9&#45;&gt;Node10</title>
<path fill="none" stroke="midnightblue" d="M515.87,-291.48C515.45,-283.08 514.79,-269.98 514.25,-259.16"/>
<polygon fill="midnightblue" stroke="midnightblue" points="517.73,-258.82 513.73,-249.01 510.74,-259.17 517.73,-258.82"/>
</g>
<!-- Node11&#45;&gt;Node2 -->
<g id="edge13" class="edge">
<title>Node11&#45;&gt;Node2</title>
<path fill="none" stroke="midnightblue" d="M291.16,-112.92C259.23,-103.74 206.93,-88.72 170.9,-78.37"/>
<polygon fill="midnightblue" stroke="midnightblue" points="171.78,-74.98 161.2,-75.59 169.84,-81.71 171.78,-74.98"/>
</g>
<!-- Node11&#45;&gt;Node7 -->
<g id="edge15" class="edge">
<title>Node11&#45;&gt;Node7</title>
<path fill="none" stroke="midnightblue" d="M336.17,-112.32C353.01,-103.66 379.11,-90.24 398.54,-80.25"/>
<polygon fill="midnightblue" stroke="midnightblue" points="400.18,-83.34 407.48,-75.65 396.98,-77.12 400.18,-83.34"/>
</g>
<!-- Node12 -->
<g id="node12" class="node">
<title>Node12</title>
<g id="a_node12"><a xlink:title=" ">
<polygon fill="white" stroke="#bfbfbf" points="182.3,-56.5 182.3,-75.5 226.3,-75.5 226.3,-56.5 182.3,-56.5"/>
<text text-anchor="middle" x="204.3" y="-63.5" font-family="Helvetica,sans-Serif" font-size="10.00">cmath</text>
</a>
</g>
</g>
<!-- Node11&#45;&gt;Node12 -->
<g id="edge12" class="edge">
<title>Node11&#45;&gt;Node12</title>
<path fill="none" stroke="midnightblue" d="M301.08,-112.44C282.41,-103.68 253.15,-89.94 231.69,-79.86"/>
<polygon fill="midnightblue" stroke="midnightblue" points="232.98,-76.6 222.44,-75.52 230.01,-82.93 232.98,-76.6"/>
</g>
<!-- Node13 -->
<g id="node13" class="node">
<title>Node13</title>
<g id="a_node13"><a xlink:title=" ">
<polygon fill="white" stroke="#bfbfbf" points="282.3,-56.5 282.3,-75.5 374.3,-75.5 374.3,-56.5 282.3,-56.5"/>
<text text-anchor="middle" x="328.3" y="-63.5" font-family="Helvetica,sans-Serif" font-size="10.00">GenericNumber.h</text>
</a>
</g>
</g>
<!-- Node11&#45;&gt;Node13 -->
<g id="edge14" class="edge">
<title>Node11&#45;&gt;Node13</title>
<path fill="none" stroke="midnightblue" d="M320.79,-112.08C321.98,-104.93 323.7,-94.64 325.19,-85.69"/>
<polygon fill="midnightblue" stroke="midnightblue" points="328.65,-86.19 326.85,-75.75 321.75,-85.04 328.65,-86.19"/>
</g>
<!-- Node15 -->
<g id="node15" class="node">
<title>Node15</title>
<g id="a_node15"><a xlink:title=" ">
<polygon fill="white" stroke="#bfbfbf" points="292.8,-347.5 292.8,-366.5 341.8,-366.5 341.8,-347.5 292.8,-347.5"/>
<text text-anchor="middle" x="317.3" y="-354.5" font-family="Helvetica,sans-Serif" font-size="10.00">cstdarg</text>
</a>
</g>
</g>
<!-- Node14&#45;&gt;Node15 -->
<g id="edge17" class="edge">
<title>Node14&#45;&gt;Node15</title>
<path fill="none" stroke="midnightblue" d="M280.57,-403.08C286.85,-395.38 296.09,-384.03 303.74,-374.65"/>
<polygon fill="midnightblue" stroke="midnightblue" points="306.57,-376.71 310.17,-366.75 301.14,-372.29 306.57,-376.71"/>
</g>
<!-- Node16 -->
<g id="node16" class="node">
<title>Node16</title>
<g id="a_node16"><a xlink:href="_logging_support_8h.html" target="_top" xlink:title="The LoggingSupport specification defines a class for simple entry/exit logging to a file or via an ar...">
<polygon fill="white" stroke="black" points="182.3,-347.5 182.3,-366.5 274.3,-366.5 274.3,-347.5 182.3,-347.5"/>
<text text-anchor="middle" x="228.3" y="-354.5" font-family="Helvetica,sans-Serif" font-size="10.00">LoggingSupport.h</text>
</a>
</g>
</g>
<!-- Node14&#45;&gt;Node16 -->
<g id="edge18" class="edge">
<title>Node14&#45;&gt;Node16</title>
<path fill="none" stroke="midnightblue" d="M265.87,-403.08C259.45,-395.38 250,-384.03 242.18,-374.65"/>
<polygon fill="midnightblue" stroke="midnightblue" points="244.69,-372.19 235.6,-366.75 239.31,-376.67 244.69,-372.19"/>
</g>
<!-- Node17 -->
<g id="node17" class="node">
<title>Node17</title>
<g id="a_node17"><a xlink:href="_string_util_8h.html" target="_top" xlink:title="The StringUtil specification defines several string routines not included in the standard C++ library...">
<polygon fill="white" stroke="black" points="98.8,-347.5 98.8,-366.5 163.8,-366.5 163.8,-347.5 98.8,-347.5"/>
<text text-anchor="middle" x="131.3" y="-354.5" font-family="Helvetica,sans-Serif" font-size="10.00">StringUtil.h</text>
</a>
</g>
</g>
<!-- Node14&#45;&gt;Node17 -->
<g id="edge21" class="edge">
<title>Node14&#45;&gt;Node17</title>
<path fill="none" stroke="midnightblue" d="M250.8,-403.44C227.23,-394.48 189.98,-380.31 163.34,-370.18"/>
<polygon fill="midnightblue" stroke="midnightblue" points="164.29,-366.8 153.7,-366.52 161.8,-373.34 164.29,-366.8"/>
</g>
<!-- Node16&#45;&gt;Node6 -->
<g id="edge19" class="edge">
<title>Node16&#45;&gt;Node6</title>
<path fill="none" stroke="midnightblue" d="M260.31,-347.44C295.54,-338.03 352.23,-322.87 390.35,-312.68"/>
<polygon fill="midnightblue" stroke="midnightblue" points="391.34,-316.04 400.1,-310.08 389.53,-309.28 391.34,-316.04"/>
</g>
<!-- Node16&#45;&gt;Node11 -->
<g id="edge20" class="edge">
<title>Node16&#45;&gt;Node11</title>
<path fill="none" stroke="midnightblue" d="M246.72,-347.39C275.17,-332.93 328.77,-300.78 350.3,-255 368.43,-216.47 345.46,-166.48 330.42,-140.47"/>
<polygon fill="midnightblue" stroke="midnightblue" points="333.32,-138.49 325.15,-131.75 327.33,-142.12 333.32,-138.49"/>
</g>
<!-- Node17&#45;&gt;Node6 -->
<g id="edge22" class="edge">
<title>Node17&#45;&gt;Node6</title>
<path fill="none" stroke="midnightblue" d="M163.84,-348.9C167.03,-348.24 170.23,-347.6 173.3,-347 249.84,-332.1 339.65,-316.89 390.28,-308.53"/>
<polygon fill="midnightblue" stroke="midnightblue" points="390.87,-311.98 400.17,-306.9 389.73,-305.07 390.87,-311.98"/>
</g>
<!-- Node18 -->
<g id="node18" class="node">
<title>Node18</title>
<g id="a_node18"><a xlink:href="_character_8h.html" target="_top" xlink:title="The Character specification and body provides a value object type for character values.">
<polygon fill="white" stroke="black" points="28.8,-230 28.8,-249 95.8,-249 95.8,-230 28.8,-230"/>
<text text-anchor="middle" x="62.3" y="-237" font-family="Helvetica,sans-Serif" font-size="10.00">Character.h</text>
</a>
</g>
</g>
<!-- Node17&#45;&gt;Node18 -->
<g id="edge23" class="edge">
<title>Node17&#45;&gt;Node18</title>
<path fill="none" stroke="midnightblue" d="M119.54,-347.22C109.19,-338.93 94.38,-325.61 85.3,-311 75.34,-294.96 69.25,-274.17 65.86,-259.33"/>
<polygon fill="midnightblue" stroke="midnightblue" points="69.24,-258.39 63.77,-249.32 62.38,-259.82 69.24,-258.39"/>
</g>
<!-- Node21 -->
<g id="node21" class="node">
<title>Node21</title>
<g id="a_node21"><a xlink:href="_percentage_8h.html" target="_top" xlink:title="The Percentage specification and body provides a simple percentage type.">
<polygon fill="white" stroke="black" points="94.3,-291.5 94.3,-310.5 168.3,-310.5 168.3,-291.5 94.3,-291.5"/>
<text text-anchor="middle" x="131.3" y="-298.5" font-family="Helvetica,sans-Serif" font-size="10.00">Percentage.h</text>
</a>
</g>
</g>
<!-- Node17&#45;&gt;Node21 -->
<g id="edge29" class="edge">
<title>Node17&#45;&gt;Node21</title>
<path fill="none" stroke="midnightblue" d="M131.3,-347.08C131.3,-340.01 131.3,-329.86 131.3,-320.99"/>
<polygon fill="midnightblue" stroke="midnightblue" points="134.8,-320.75 131.3,-310.75 127.8,-320.75 134.8,-320.75"/>
</g>
<!-- Node24 -->
<g id="node24" class="node">
<title>Node24</title>
<g id="a_node24"><a xlink:href="_string_list_8h.html" target="_top" xlink:title="The StringList specification defines lists of string values with zero&#45;based arbitrary indexed access ...">
<polygon fill="white" stroke="black" points="186.3,-291.5 186.3,-310.5 252.3,-310.5 252.3,-291.5 186.3,-291.5"/>
<text text-anchor="middle" x="219.3" y="-298.5" font-family="Helvetica,sans-Serif" font-size="10.00">StringList.h</text>
</a>
</g>
</g>
<!-- Node17&#45;&gt;Node24 -->
<g id="edge36" class="edge">
<title>Node17&#45;&gt;Node24</title>
<path fill="none" stroke="midnightblue" d="M145.44,-347.32C159.17,-338.9 180.24,-325.97 196.37,-316.07"/>
<polygon fill="midnightblue" stroke="midnightblue" points="198.51,-318.87 205.2,-310.65 194.85,-312.9 198.51,-318.87"/>
</g>
<!-- Node18&#45;&gt;Node12 -->
<g id="edge24" class="edge">
<title>Node18&#45;&gt;Node12</title>
<path fill="none" stroke="midnightblue" d="M70.41,-229.68C79.53,-219.7 94.72,-202.89 107.3,-188 138.28,-151.35 173.14,-107.08 191.47,-83.57"/>
<polygon fill="midnightblue" stroke="midnightblue" points="194.26,-85.68 197.63,-75.63 188.73,-81.38 194.26,-85.68"/>
</g>
<!-- Node19 -->
<g id="node19" class="node">
<title>Node19</title>
<g id="a_node19"><a xlink:href="_byte_8h.html" target="_top" xlink:title="The Byte specification and body provides a value object type for byte values.">
<polygon fill="white" stroke="black" points="53.8,-168.5 53.8,-187.5 98.8,-187.5 98.8,-168.5 53.8,-168.5"/>
<text text-anchor="middle" x="76.3" y="-175.5" font-family="Helvetica,sans-Serif" font-size="10.00">Byte.h</text>
</a>
</g>
</g>
<!-- Node18&#45;&gt;Node19 -->
<g id="edge25" class="edge">
<title>Node18&#45;&gt;Node19</title>
<path fill="none" stroke="midnightblue" d="M64.31,-229.98C66.31,-221.49 69.43,-208.2 71.99,-197.32"/>
<polygon fill="midnightblue" stroke="midnightblue" points="75.42,-198.04 74.3,-187.51 68.6,-196.44 75.42,-198.04"/>
</g>
<!-- Node19&#45;&gt;Node11 -->
<g id="edge28" class="edge">
<title>Node19&#45;&gt;Node11</title>
<path fill="none" stroke="midnightblue" d="M99.17,-171.92C140.95,-162.64 230.03,-142.84 281.14,-131.48"/>
<polygon fill="midnightblue" stroke="midnightblue" points="282.14,-134.85 291.14,-129.26 280.62,-128.01 282.14,-134.85"/>
</g>
<!-- Node19&#45;&gt;Node12 -->
<g id="edge26" class="edge">
<title>Node19&#45;&gt;Node12</title>
<path fill="none" stroke="midnightblue" d="M81.54,-168.13C89.76,-154.72 106.81,-129.07 126.3,-112 141.01,-99.12 159.96,-88.09 175.5,-80.17"/>
<polygon fill="midnightblue" stroke="midnightblue" points="177.24,-83.21 184.67,-75.65 174.15,-76.93 177.24,-83.21"/>
</g>
<!-- Node20 -->
<g id="node20" class="node">
<title>Node20</title>
<g id="a_node20"><a xlink:title=" ">
<polygon fill="white" stroke="#bfbfbf" points="28.3,-112.5 28.3,-131.5 74.3,-131.5 74.3,-112.5 28.3,-112.5"/>
<text text-anchor="middle" x="51.3" y="-119.5" font-family="Helvetica,sans-Serif" font-size="10.00">cstdint</text>
</a>
</g>
</g>
<!-- Node19&#45;&gt;Node20 -->
<g id="edge27" class="edge">
<title>Node19&#45;&gt;Node20</title>
<path fill="none" stroke="midnightblue" d="M72.18,-168.08C68.79,-160.77 63.89,-150.18 59.69,-141.1"/>
<polygon fill="midnightblue" stroke="midnightblue" points="62.73,-139.36 55.36,-131.75 56.38,-142.3 62.73,-139.36"/>
</g>
<!-- Node22 -->
<g id="node22" class="node">
<title>Node22</title>
<g id="a_node22"><a xlink:href="_real_8h.html" target="_top" xlink:title="The Real specification defines a value object type for real values.">
<polygon fill="white" stroke="black" points="114.3,-230 114.3,-249 158.3,-249 158.3,-230 114.3,-230"/>
<text text-anchor="middle" x="136.3" y="-237" font-family="Helvetica,sans-Serif" font-size="10.00">Real.h</text>
</a>
</g>
</g>
<!-- Node21&#45;&gt;Node22 -->
<g id="edge30" class="edge">
<title>Node21&#45;&gt;Node22</title>
<path fill="none" stroke="midnightblue" d="M132.02,-291.48C132.73,-283.08 133.83,-269.98 134.74,-259.16"/>
<polygon fill="midnightblue" stroke="midnightblue" points="138.24,-259.27 135.59,-249.01 131.26,-258.68 138.24,-259.27"/>
</g>
<!-- Node22&#45;&gt;Node12 -->
<g id="edge31" class="edge">
<title>Node22&#45;&gt;Node12</title>
<path fill="none" stroke="midnightblue" d="M139.77,-229.76C150.41,-202.92 182.77,-121.32 197.21,-84.89"/>
<polygon fill="midnightblue" stroke="midnightblue" points="200.49,-86.11 200.93,-75.52 193.99,-83.53 200.49,-86.11"/>
</g>
<!-- Node23 -->
<g id="node23" class="node">
<title>Node23</title>
<g id="a_node23"><a xlink:href="_integer_8h.html" target="_top" xlink:title="The Integer specification and body provides a value object type for ints.">
<polygon fill="white" stroke="black" points="227.3,-168.5 227.3,-187.5 281.3,-187.5 281.3,-168.5 227.3,-168.5"/>
<text text-anchor="middle" x="254.3" y="-175.5" font-family="Helvetica,sans-Serif" font-size="10.00">Integer.h</text>
</a>
</g>
</g>
<!-- Node22&#45;&gt;Node23 -->
<g id="edge32" class="edge">
<title>Node22&#45;&gt;Node23</title>
<path fill="none" stroke="midnightblue" d="M153.21,-229.98C172.84,-220.08 205.44,-203.64 228.29,-192.12"/>
<polygon fill="midnightblue" stroke="midnightblue" points="230.08,-195.14 237.43,-187.51 226.92,-188.89 230.08,-195.14"/>
</g>
<!-- Node23&#45;&gt;Node3 -->
<g id="edge34" class="edge">
<title>Node23&#45;&gt;Node3</title>
<path fill="none" stroke="midnightblue" d="M254.64,-168.27C255.07,-147.63 254.12,-94.62 235.3,-56 229.84,-44.79 220.63,-34.45 212.23,-26.51"/>
<polygon fill="midnightblue" stroke="midnightblue" points="214.36,-23.73 204.56,-19.69 209.71,-28.95 214.36,-23.73"/>
</g>
<!-- Node23&#45;&gt;Node11 -->
<g id="edge35" class="edge">
<title>Node23&#45;&gt;Node11</title>
<path fill="none" stroke="midnightblue" d="M264.75,-168.32C274.45,-160.26 289.12,-148.08 300.8,-138.37"/>
<polygon fill="midnightblue" stroke="midnightblue" points="303.22,-140.92 308.67,-131.83 298.74,-135.53 303.22,-140.92"/>
</g>
<!-- Node23&#45;&gt;Node12 -->
<g id="edge33" class="edge">
<title>Node23&#45;&gt;Node12</title>
<path fill="none" stroke="midnightblue" d="M250.38,-168.37C242.24,-150.46 223.36,-108.92 212.46,-84.95"/>
<polygon fill="midnightblue" stroke="midnightblue" points="215.53,-83.25 208.21,-75.59 209.16,-86.14 215.53,-83.25"/>
</g>
<!-- Node25 -->
<g id="node25" class="node">
<title>Node25</title>
<g id="a_node25"><a xlink:title=" ">
<polygon fill="white" stroke="#bfbfbf" points="268.8,-230 268.8,-249 341.8,-249 341.8,-230 268.8,-230"/>
<text text-anchor="middle" x="305.3" y="-237" font-family="Helvetica,sans-Serif" font-size="10.00">initializer_list</text>
</a>
</g>
</g>
<!-- Node24&#45;&gt;Node25 -->
<g id="edge37" class="edge">
<title>Node24&#45;&gt;Node25</title>
<path fill="none" stroke="midnightblue" d="M231.63,-291.48C245.42,-281.93 268,-266.31 284.54,-254.87"/>
<polygon fill="midnightblue" stroke="midnightblue" points="286.77,-257.58 293.01,-249.01 282.79,-251.82 286.77,-257.58"/>
</g>
<!-- Node26 -->
<g id="node26" class="node">
<title>Node26</title>
<g id="a_node26"><a xlink:title=" ">
<polygon fill="white" stroke="#bfbfbf" points="176.3,-230 176.3,-249 250.3,-249 250.3,-230 176.3,-230"/>
<text text-anchor="middle" x="213.3" y="-237" font-family="Helvetica,sans-Serif" font-size="10.00">GenericList.h</text>
</a>
</g>
</g>
<!-- Node24&#45;&gt;Node26 -->
<g id="edge38" class="edge">
<title>Node24&#45;&gt;Node26</title>
<path fill="none" stroke="midnightblue" d="M218.44,-291.48C217.6,-283.08 216.28,-269.98 215.19,-259.16"/>
<polygon fill="midnightblue" stroke="midnightblue" points="218.65,-258.61 214.16,-249.01 211.68,-259.31 218.65,-258.61"/>
</g>
<!-- Node28 -->
<g id="node28" class="node">
<title>Node28</title>
<g id="a_node28"><a xlink:href="_fluid_synth_plugin___event_processor_8h.html" target="_top" xlink:title="The FluidSynthPlugin_Processor specification defines the handling of MIDI events from the DAW via JUC...">
<polygon fill="white" stroke="black" points="1128.3,-347.5 1128.3,-366.5 1300.3,-366.5 1300.3,-347.5 1128.3,-347.5"/>
<text text-anchor="middle" x="1214.3" y="-354.5" font-family="Helvetica,sans-Serif" font-size="10.00">FluidSynthPlugin_EventProcessor.h</text>
</a>
</g>
</g>
<!-- Node27&#45;&gt;Node28 -->
<g id="edge40" class="edge">
<title>Node27&#45;&gt;Node28</title>
<path fill="none" stroke="midnightblue" d="M1065.35,-403.44C1095.39,-394.28 1143.22,-379.69 1176.55,-369.52"/>
<polygon fill="midnightblue" stroke="midnightblue" points="1177.85,-372.78 1186.39,-366.52 1175.8,-366.09 1177.85,-372.78"/>
</g>
<!-- Node29 -->
<g id="node29" class="node">
<title>Node29</title>
<g id="a_node29"><a xlink:href="_juce_headers_8h_source.html" target="_top" xlink:title=" ">
<polygon fill="white" stroke="black" points="1446.8,-291.5 1446.8,-310.5 1527.8,-310.5 1527.8,-291.5 1446.8,-291.5"/>
<text text-anchor="middle" x="1487.3" y="-298.5" font-family="Helvetica,sans-Serif" font-size="10.00">JuceHeaders.h</text>
</a>
</g>
</g>
<!-- Node28&#45;&gt;Node29 -->
<g id="edge41" class="edge">
<title>Node28&#45;&gt;Node29</title>
<path fill="none" stroke="midnightblue" d="M1257.56,-347.44C1306.19,-337.82 1385.06,-322.22 1436.56,-312.04"/>
<polygon fill="midnightblue" stroke="midnightblue" points="1437.35,-315.45 1446.48,-310.08 1435.99,-308.58 1437.35,-315.45"/>
</g>
<!-- Node44 -->
<g id="node44" class="node">
<title>Node44</title>
<g id="a_node44"><a xlink:href="_object_8h.html" target="_top" xlink:title="The Object specification and body provides the root object type.">
<polygon fill="white" stroke="black" points="1187.8,-291.5 1187.8,-310.5 1240.8,-310.5 1240.8,-291.5 1187.8,-291.5"/>
<text text-anchor="middle" x="1214.3" y="-298.5" font-family="Helvetica,sans-Serif" font-size="10.00">Object.h</text>
</a>
</g>
</g>
<!-- Node28&#45;&gt;Node44 -->
<g id="edge56" class="edge">
<title>Node28&#45;&gt;Node44</title>
<path fill="none" stroke="midnightblue" d="M1214.3,-347.08C1214.3,-340.01 1214.3,-329.86 1214.3,-320.99"/>
<polygon fill="midnightblue" stroke="midnightblue" points="1217.8,-320.75 1214.3,-310.75 1210.8,-320.75 1217.8,-320.75"/>
</g>
<!-- Node30 -->
<g id="node30" class="node">
<title>Node30</title>
<g id="a_node30"><a xlink:title=" ">
<polygon fill="white" stroke="#bfbfbf" points="2223.3,-224.5 2223.3,-254.5 2341.3,-254.5 2341.3,-224.5 2223.3,-224.5"/>
<text text-anchor="start" x="2231.3" y="-242.5" font-family="Helvetica,sans-Serif" font-size="10.00">juce_audio_basics/juce</text>
<text text-anchor="middle" x="2282.3" y="-231.5" font-family="Helvetica,sans-Serif" font-size="10.00">_audio_basics.h</text>
</a>
</g>
</g>
<!-- Node29&#45;&gt;Node30 -->
<g id="edge42" class="edge">
<title>Node29&#45;&gt;Node30</title>
<path fill="none" stroke="midnightblue" d="M1528.11,-299.59C1637.52,-298.04 1946.66,-290.71 2212.81,-255.06"/>
<polygon fill="midnightblue" stroke="midnightblue" points="2213.62,-258.49 2223.06,-253.67 2212.68,-251.55 2213.62,-258.49"/>
</g>
<!-- Node31 -->
<g id="node31" class="node">
<title>Node31</title>
<g id="a_node31"><a xlink:title=" ">
<polygon fill="white" stroke="#bfbfbf" points="2359.3,-224.5 2359.3,-254.5 2471.3,-254.5 2471.3,-224.5 2359.3,-224.5"/>
<text text-anchor="start" x="2367.3" y="-242.5" font-family="Helvetica,sans-Serif" font-size="10.00">juce_audio_devices</text>
<text text-anchor="middle" x="2415.3" y="-231.5" font-family="Helvetica,sans-Serif" font-size="10.00">/juce_audio_devices.h</text>
</a>
</g>
</g>
<!-- Node29&#45;&gt;Node31 -->
<g id="edge43" class="edge">
<title>Node29&#45;&gt;Node31</title>
<path fill="none" stroke="midnightblue" d="M1527.97,-300.29C1650.68,-300.65 2028.07,-298.01 2349.08,-255.01"/>
<polygon fill="midnightblue" stroke="midnightblue" points="2349.6,-258.47 2359.04,-253.66 2348.66,-251.53 2349.6,-258.47"/>
</g>
<!-- Node32 -->
<g id="node32" class="node">
<title>Node32</title>
<g id="a_node32"><a xlink:title=" ">
<polygon fill="white" stroke="#bfbfbf" points="608.3,-224.5 608.3,-254.5 720.3,-254.5 720.3,-224.5 608.3,-224.5"/>
<text text-anchor="start" x="616.3" y="-242.5" font-family="Helvetica,sans-Serif" font-size="10.00">juce_audio_formats</text>
<text text-anchor="middle" x="664.3" y="-231.5" font-family="Helvetica,sans-Serif" font-size="10.00">/juce_audio_formats.h</text>
</a>
</g>
</g>
<!-- Node29&#45;&gt;Node32 -->
<g id="edge44" class="edge">
<title>Node29&#45;&gt;Node32</title>
<path fill="none" stroke="midnightblue" d="M1446.48,-298.44C1312.86,-293.2 888.58,-275.5 730.59,-254.99"/>
<polygon fill="midnightblue" stroke="midnightblue" points="730.95,-251.5 720.57,-253.63 730.01,-258.44 730.95,-251.5"/>
</g>
<!-- Node33 -->
<g id="node33" class="node">
<title>Node33</title>
<g id="a_node33"><a xlink:title=" ">
<polygon fill="white" stroke="#bfbfbf" points="738.3,-224.5 738.3,-254.5 872.3,-254.5 872.3,-224.5 738.3,-224.5"/>
<text text-anchor="start" x="746.3" y="-242.5" font-family="Helvetica,sans-Serif" font-size="10.00">juce_audio_plugin_client</text>
<text text-anchor="middle" x="805.3" y="-231.5" font-family="Helvetica,sans-Serif" font-size="10.00">/juce_audio_plugin_client.h</text>
</a>
</g>
</g>
<!-- Node29&#45;&gt;Node33 -->
<g id="edge45" class="edge">
<title>Node29&#45;&gt;Node33</title>
<path fill="none" stroke="midnightblue" d="M1446.72,-298.59C1350.48,-294.91 1100.81,-283.33 882.42,-255.04"/>
<polygon fill="midnightblue" stroke="midnightblue" points="882.74,-251.56 872.37,-253.73 881.83,-258.5 882.74,-251.56"/>
</g>
<!-- Node34 -->
<g id="node34" class="node">
<title>Node34</title>
<g id="a_node34"><a xlink:title=" ">
<polygon fill="white" stroke="#bfbfbf" points="890.3,-224.5 890.3,-254.5 1018.3,-254.5 1018.3,-224.5 890.3,-224.5"/>
<text text-anchor="start" x="898.3" y="-242.5" font-family="Helvetica,sans-Serif" font-size="10.00">juce_audio_processors</text>
<text text-anchor="middle" x="954.3" y="-231.5" font-family="Helvetica,sans-Serif" font-size="10.00">/juce_audio_processors.h</text>
</a>
</g>
</g>
<!-- Node29&#45;&gt;Node34 -->
<g id="edge46" class="edge">
<title>Node29&#45;&gt;Node34</title>
<path fill="none" stroke="midnightblue" d="M1446.53,-297.37C1367.72,-291.98 1188.83,-278.34 1028.39,-255.06"/>
<polygon fill="midnightblue" stroke="midnightblue" points="1028.74,-251.58 1018.34,-253.59 1027.72,-258.5 1028.74,-251.58"/>
</g>
<!-- Node35 -->
<g id="node35" class="node">
<title>Node35</title>
<g id="a_node35"><a xlink:title=" ">
<polygon fill="white" stroke="#bfbfbf" points="1036.8,-224.5 1036.8,-254.5 1143.8,-254.5 1143.8,-224.5 1036.8,-224.5"/>
<text text-anchor="start" x="1044.8" y="-242.5" font-family="Helvetica,sans-Serif" font-size="10.00">juce_audio_utils/juce</text>
<text text-anchor="middle" x="1090.3" y="-231.5" font-family="Helvetica,sans-Serif" font-size="10.00">_audio_utils.h</text>
</a>
</g>
</g>
<!-- Node29&#45;&gt;Node35 -->
<g id="edge47" class="edge">
<title>Node29&#45;&gt;Node35</title>
<path fill="none" stroke="midnightblue" d="M1446.76,-295.76C1385.56,-289.09 1265.79,-275.01 1153.95,-255.01"/>
<polygon fill="midnightblue" stroke="midnightblue" points="1154.31,-251.51 1143.85,-253.18 1153.07,-258.4 1154.31,-251.51"/>
</g>
<!-- Node36 -->
<g id="node36" class="node">
<title>Node36</title>
<g id="a_node36"><a xlink:title=" ">
<polygon fill="white" stroke="#bfbfbf" points="1162.3,-230 1162.3,-249 1274.3,-249 1274.3,-230 1162.3,-230"/>
<text text-anchor="middle" x="1218.3" y="-237" font-family="Helvetica,sans-Serif" font-size="10.00">juce_core/juce_core.h</text>
</a>
</g>
</g>
<!-- Node29&#45;&gt;Node36 -->
<g id="edge48" class="edge">
<title>Node29&#45;&gt;Node36</title>
<path fill="none" stroke="midnightblue" d="M1448.57,-291.48C1407.53,-282.46 1340.84,-267.76 1283.3,-255 1277.87,-253.79 1272.19,-252.53 1266.53,-251.27"/>
<polygon fill="midnightblue" stroke="midnightblue" points="1266.97,-247.78 1256.45,-249.03 1265.45,-254.62 1266.97,-247.78"/>
</g>
<!-- Node37 -->
<g id="node37" class="node">
<title>Node37</title>
<g id="a_node37"><a xlink:title=" ">
<polygon fill="white" stroke="#bfbfbf" points="1292.8,-224.5 1292.8,-254.5 1409.8,-254.5 1409.8,-224.5 1292.8,-224.5"/>
<text text-anchor="start" x="1300.8" y="-242.5" font-family="Helvetica,sans-Serif" font-size="10.00">juce_cryptography/juce</text>
<text text-anchor="middle" x="1351.3" y="-231.5" font-family="Helvetica,sans-Serif" font-size="10.00">_cryptography.h</text>
</a>
</g>
</g>
<!-- Node29&#45;&gt;Node37 -->
<g id="edge49" class="edge">
<title>Node29&#45;&gt;Node37</title>
<path fill="none" stroke="midnightblue" d="M1467.82,-291.48C1448.28,-282.93 1417.59,-269.5 1392.62,-258.57"/>
<polygon fill="midnightblue" stroke="midnightblue" points="1393.92,-255.32 1383.36,-254.52 1391.12,-261.74 1393.92,-255.32"/>
</g>
<!-- Node38 -->
<g id="node38" class="node">
<title>Node38</title>
<g id="a_node38"><a xlink:title=" ">
<polygon fill="white" stroke="#bfbfbf" points="1427.8,-224.5 1427.8,-254.5 1546.8,-254.5 1546.8,-224.5 1427.8,-224.5"/>
<text text-anchor="start" x="1435.8" y="-242.5" font-family="Helvetica,sans-Serif" font-size="10.00">juce_data_structures</text>
<text text-anchor="middle" x="1487.3" y="-231.5" font-family="Helvetica,sans-Serif" font-size="10.00">/juce_data_structures.h</text>
</a>
</g>
</g>
<!-- Node29&#45;&gt;Node38 -->
<g id="edge50" class="edge">
<title>Node29&#45;&gt;Node38</title>
<path fill="none" stroke="midnightblue" d="M1487.3,-291.48C1487.3,-284.47 1487.3,-274.19 1487.3,-264.7"/>
<polygon fill="midnightblue" stroke="midnightblue" points="1490.8,-264.52 1487.3,-254.52 1483.8,-264.52 1490.8,-264.52"/>
</g>
<!-- Node39 -->
<g id="node39" class="node">
<title>Node39</title>
<g id="a_node39"><a xlink:title=" ">
<polygon fill="white" stroke="#bfbfbf" points="1565.3,-230 1565.3,-249 1695.3,-249 1695.3,-230 1565.3,-230"/>
<text text-anchor="middle" x="1630.3" y="-237" font-family="Helvetica,sans-Serif" font-size="10.00">juce_events/juce_events.h</text>
</a>
</g>
</g>
<!-- Node29&#45;&gt;Node39 -->
<g id="edge51" class="edge">
<title>Node29&#45;&gt;Node39</title>
<path fill="none" stroke="midnightblue" d="M1507.79,-291.48C1532.11,-281.36 1572.85,-264.4 1600.62,-252.85"/>
<polygon fill="midnightblue" stroke="midnightblue" points="1601.97,-256.08 1609.85,-249.01 1599.28,-249.62 1601.97,-256.08"/>
</g>
<!-- Node40 -->
<g id="node40" class="node">
<title>Node40</title>
<g id="a_node40"><a xlink:title=" ">
<polygon fill="white" stroke="#bfbfbf" points="1713.3,-224.5 1713.3,-254.5 1811.3,-254.5 1811.3,-224.5 1713.3,-224.5"/>
<text text-anchor="start" x="1721.3" y="-242.5" font-family="Helvetica,sans-Serif" font-size="10.00">juce_graphics/juce</text>
<text text-anchor="middle" x="1762.3" y="-231.5" font-family="Helvetica,sans-Serif" font-size="10.00">_graphics.h</text>
</a>
</g>
</g>
<!-- Node29&#45;&gt;Node40 -->
<g id="edge52" class="edge">
<title>Node29&#45;&gt;Node40</title>
<path fill="none" stroke="midnightblue" d="M1527.8,-292.11C1569.43,-283.89 1636.34,-270.36 1703.4,-255.16"/>
<polygon fill="midnightblue" stroke="midnightblue" points="1704.32,-258.54 1713.29,-252.9 1702.76,-251.71 1704.32,-258.54"/>
</g>
<!-- Node41 -->
<g id="node41" class="node">
<title>Node41</title>
<g id="a_node41"><a xlink:title=" ">
<polygon fill="white" stroke="#bfbfbf" points="1829.8,-224.5 1829.8,-254.5 1936.8,-254.5 1936.8,-224.5 1829.8,-224.5"/>
<text text-anchor="start" x="1837.8" y="-242.5" font-family="Helvetica,sans-Serif" font-size="10.00">juce_gui_basics/juce</text>
<text text-anchor="middle" x="1883.3" y="-231.5" font-family="Helvetica,sans-Serif" font-size="10.00">_gui_basics.h</text>
</a>
</g>
</g>
<!-- Node29&#45;&gt;Node41 -->
<g id="edge53" class="edge">
<title>Node29&#45;&gt;Node41</title>
<path fill="none" stroke="midnightblue" d="M1527.99,-295.72C1589.08,-289.03 1708.31,-274.95 1819.7,-255"/>
<polygon fill="midnightblue" stroke="midnightblue" points="1820.54,-258.4 1829.76,-253.18 1819.29,-251.51 1820.54,-258.4"/>
</g>
<!-- Node42 -->
<g id="node42" class="node">
<title>Node42</title>
<g id="a_node42"><a xlink:title=" ">
<polygon fill="white" stroke="#bfbfbf" points="1954.8,-224.5 1954.8,-254.5 2055.8,-254.5 2055.8,-224.5 1954.8,-224.5"/>
<text text-anchor="start" x="1962.8" y="-242.5" font-family="Helvetica,sans-Serif" font-size="10.00">juce_gui_extra/juce</text>
<text text-anchor="middle" x="2005.3" y="-231.5" font-family="Helvetica,sans-Serif" font-size="10.00">_gui_extra.h</text>
</a>
</g>
</g>
<!-- Node29&#45;&gt;Node42 -->
<g id="edge54" class="edge">
<title>Node29&#45;&gt;Node42</title>
<path fill="none" stroke="midnightblue" d="M1528.09,-297.97C1606.9,-293.62 1785.66,-281.68 1944.6,-255.15"/>
<polygon fill="midnightblue" stroke="midnightblue" points="1945.28,-258.58 1954.55,-253.46 1944.11,-251.68 1945.28,-258.58"/>
</g>
<!-- Node43 -->
<g id="node43" class="node">
<title>Node43</title>
<g id="a_node43"><a xlink:title=" ">
<polygon fill="white" stroke="#bfbfbf" points="2073.8,-230 2073.8,-249 2204.8,-249 2204.8,-230 2073.8,-230"/>
<text text-anchor="middle" x="2139.3" y="-237" font-family="Helvetica,sans-Serif" font-size="10.00">juce_opengl/juce_opengl.h</text>
</a>
</g>
</g>
<!-- Node29&#45;&gt;Node43 -->
<g id="edge55" class="edge">
<title>Node29&#45;&gt;Node43</title>
<path fill="none" stroke="midnightblue" d="M1528.12,-298.45C1622.85,-294.49 1864.85,-282.35 2065.3,-255 2073.42,-253.89 2081.99,-252.46 2090.3,-250.93"/>
<polygon fill="midnightblue" stroke="midnightblue" points="2091.11,-254.34 2100.27,-249.03 2089.79,-247.46 2091.11,-254.34"/>
</g>
<!-- Node45&#45;&gt;Node6 -->
<g id="edge58" class="edge">
<title>Node45&#45;&gt;Node6</title>
<path fill="none" stroke="midnightblue" d="M452.69,-403.33C474.18,-391.89 505.37,-370.44 493.3,-347 486.23,-333.25 472.78,-322.77 460.13,-315.39"/>
<polygon fill="midnightblue" stroke="midnightblue" points="461.62,-312.22 451.15,-310.57 458.31,-318.39 461.62,-312.22"/>
</g>
<!-- Node46 -->
<g id="node46" class="node">
<title>Node46</title>
<g id="a_node46"><a xlink:href="_midi_preset_identification_8h.html" target="_top" xlink:title="The MidiPresetIdentification specification defines the identification of a MIDI preset as a tuple of ...">
<polygon fill="white" stroke="black" points="359.8,-347.5 359.8,-366.5 484.8,-366.5 484.8,-347.5 359.8,-347.5"/>
<text text-anchor="middle" x="422.3" y="-354.5" font-family="Helvetica,sans-Serif" font-size="10.00">MidiPresetIdentification.h</text>
</a>
</g>
</g>
<!-- Node45&#45;&gt;Node46 -->
<g id="edge59" class="edge">
<title>Node45&#45;&gt;Node46</title>
<path fill="none" stroke="midnightblue" d="M432.32,-403.08C430.73,-395.93 428.45,-385.64 426.46,-376.69"/>
<polygon fill="midnightblue" stroke="midnightblue" points="429.84,-375.75 424.25,-366.75 423,-377.27 429.84,-375.75"/>
</g>
<!-- Node46&#45;&gt;Node6 -->
<g id="edge60" class="edge">
<title>Node46&#45;&gt;Node6</title>
<path fill="none" stroke="midnightblue" d="M423.63,-347.08C424.69,-339.93 426.21,-329.64 427.54,-320.69"/>
<polygon fill="midnightblue" stroke="midnightblue" points="431,-321.16 429.01,-310.75 424.08,-320.13 431,-321.16"/>
</g>
<!-- Node46&#45;&gt;Node23 -->
<g id="edge61" class="edge">
<title>Node46&#45;&gt;Node23</title>
<path fill="none" stroke="midnightblue" d="M415.69,-347.31C409.09,-338.45 398.87,-324.16 391.3,-311 370,-273.94 380.56,-254.19 350.3,-224 334.03,-207.76 310.79,-196.66 291.25,-189.54"/>
<polygon fill="midnightblue" stroke="midnightblue" points="292.3,-186.2 281.71,-186.27 290.03,-192.83 292.3,-186.2"/>
</g>
</g>
</svg>
        <g id="navigator" transform="translate(0 0)" fill="#404254">
                <rect fill="#f2f5e9" fill-opacity="0.5" stroke="#606060" stroke-width=".5" x="0" y="0" width="60" height="60"/>
                <use id="zoomplus" xlink:href="#zoomPlus" x="17" y="9" onmousedown="handleZoom(evt,'in')"/>
                <use id="zoomminus" xlink:href="#zoomMin" x="42" y="9" onmousedown="handleZoom(evt,'out')"/>
                <use id="reset" xlink:href="#resetDef" x="30" y="36" onmousedown="handleReset()"/>
                <g id="arrowUp" xlink:href="#dirArrow" transform="translate(30 24)" onmousedown="handlePan(0,-1)">
                  <use xlink:href="#rim" fill="#404040">
                        <set attributeName="fill" to="#808080" begin="arrowUp.mouseover" end="arrowUp.mouseout"/>
                  </use>
                  <path fill="none" stroke="white" stroke-width="1.5" d="M0,-3.0v7 M-2.5,-0.5L0,-3.0L2.5,-0.5"/>
                </g>
                <g id="arrowRight" xlink:href="#dirArrow" transform="rotate(90) translate(36 -43)" onmousedown="handlePan(1,0)">
                  <use xlink:href="#rim" fill="#404040">
                        <set attributeName="fill" to="#808080" begin="arrowRight.mouseover" end="arrowRight.mouseout"/>
                  </use>
                  <path fill="none" stroke="white" stroke-width="1.5" d="M0,-3.0v7 M-2.5,-0.5L0,-3.0L2.5,-0.5"/>
                </g>
                <g id="arrowDown" xlink:href="#dirArrow" transform="rotate(180) translate(-30 -48)" onmousedown="handlePan(0,1)">
                  <use xlink:href="#rim" fill="#404040">
                        <set attributeName="fill" to="#808080" begin="arrowDown.mouseover" end="arrowDown.mouseout"/>
                  </use>
                  <path fill="none" stroke="white" stroke-width="1.5" d="M0,-3.0v7 M-2.5,-0.5L0,-3.0L2.5,-0.5"/>
                </g>
                <g id="arrowLeft" xlink:href="#dirArrow" transform="rotate(270) translate(-36 17)" onmousedown="handlePan(-1,0)">
                  <use xlink:href="#rim" fill="#404040">
                        <set attributeName="fill" to="#808080" begin="arrowLeft.mouseover" end="arrowLeft.mouseout"/>
                  </use>
                  <path fill="none" stroke="white" stroke-width="1.5" d="M0,-3.0v7 M-2.5,-0.5L0,-3.0L2.5,-0.5"/>
                </g>
        </g>
        <svg viewBox="0 0 15 15" width="100%" height="30px" preserveAspectRatio="xMaxYMin meet">
         <g id="arrow_out" transform="scale(0.3 0.3)">
          <a xlink:href="_fluid_synth_plugin___editor_8cpp__incl_org.svg" target="_base">
           <rect id="button" ry="5" rx="5" y="6" x="6" height="38" width="38"
                fill="#f2f5e9" fill-opacity="0.5" stroke="#606060" stroke-width="1.0"/>
           <path id="arrow"
             d="M 11.500037,31.436501 C 11.940474,20.09759 22.043105,11.32322 32.158766,21.979434 L 37.068811,17.246167 C 37.068811,17.246167 37.088388,32 37.088388,32 L 22.160133,31.978069 C 22.160133,31.978069 26.997745,27.140456 26.997745,27.140456 C 18.528582,18.264221 13.291696,25.230495 11.500037,31.436501 z"
             style="fill:#404040;"/>
          </a>
         </g>
        </svg>
</svg>
