<?xml version="1.0" encoding="UTF-8" standalone="no"?>
<!DOCTYPE svg PUBLIC "-//W3C//DTD SVG 1.1//EN"
 "http://www.w3.org/Graphics/SVG/1.1/DTD/svg11.dtd">
<!-- Generated by graphviz version 2.47.1 (20210417.1919)
 -->
<!-- Title: GenericTuple.h Pages: 1 -->
<svg width="303pt" height="371pt"
 viewBox="0.00 0.00 302.50 371.00" xmlns="http://www.w3.org/2000/svg" xmlns:xlink="http://www.w3.org/1999/xlink">
<g id="graph0" class="graph" transform="scale(1 1) rotate(0) translate(4 367)">
<title>GenericTuple.h</title>
<polygon fill="white" stroke="transparent" points="-4,4 -4,-367 298.5,-367 298.5,4 -4,4"/>
<!-- Node1 -->
<g id="node1" class="node">
<title>Node1</title>
<g id="a_node1"><a xlink:title="The GenericTuple specification and body defines a generic tuple type of values with zero&#45;based arbitr...">
<polygon fill="#bfbfbf" stroke="black" points="9,-342.5 9,-362.5 100,-362.5 100,-342.5 9,-342.5"/>
<text text-anchor="middle" x="54.5" y="-349.7" font-family="Helvetica,sans-Serif" font-size="11.00">GenericTuple.h</text>
</a>
</g>
</g>
<!-- Node2 -->
<g id="node2" class="node">
<title>Node2</title>
<g id="a_node2"><a xlink:title=" ">
<polygon fill="white" stroke="#bfbfbf" points="0,-285.5 0,-305.5 41,-305.5 41,-285.5 0,-285.5"/>
<text text-anchor="middle" x="20.5" y="-292.7" font-family="Helvetica,sans-Serif" font-size="11.00">array</text>
</a>
</g>
</g>
<!-- Node1&#45;&gt;Node2 -->
<g id="edge1" class="edge">
<title>Node1&#45;&gt;Node2</title>
<path fill="none" stroke="midnightblue" d="M48.89,-342.42C44.19,-334.82 37.35,-323.75 31.56,-314.39"/>
<polygon fill="midnightblue" stroke="midnightblue" points="34.47,-312.45 26.24,-305.78 28.52,-316.13 34.47,-312.45"/>
</g>
<!-- Node3 -->
<g id="node3" class="node">
<title>Node3</title>
<g id="a_node3"><a xlink:href="_integer_8h.html" target="_top" xlink:title="The Integer specification and body provides a value object type for ints.">
<polygon fill="white" stroke="black" points="59,-285.5 59,-305.5 118,-305.5 118,-285.5 59,-285.5"/>
<text text-anchor="middle" x="88.5" y="-292.7" font-family="Helvetica,sans-Serif" font-size="11.00">Integer.h</text>
</a>
</g>
</g>
<!-- Node1&#45;&gt;Node3 -->
<g id="edge2" class="edge">
<title>Node1&#45;&gt;Node3</title>
<path fill="none" stroke="midnightblue" d="M60.11,-342.42C64.81,-334.82 71.65,-323.75 77.44,-314.39"/>
<polygon fill="midnightblue" stroke="midnightblue" points="80.48,-316.13 82.76,-305.78 74.53,-312.45 80.48,-316.13"/>
</g>
<!-- Node4 -->
<g id="node4" class="node">
<title>Node4</title>
<g id="a_node4"><a xlink:title=" ">
<polygon fill="white" stroke="#bfbfbf" points="28,-171.5 28,-191.5 75,-191.5 75,-171.5 28,-171.5"/>
<text text-anchor="middle" x="51.5" y="-178.7" font-family="Helvetica,sans-Serif" font-size="11.00">cmath</text>
</a>
</g>
</g>
<!-- Node3&#45;&gt;Node4 -->
<g id="edge3" class="edge">
<title>Node3&#45;&gt;Node4</title>
<path fill="none" stroke="midnightblue" d="M76.17,-285.22C66.31,-276.95 53.22,-263.89 47.5,-249 41.68,-233.84 43.45,-215.29 46.23,-201.64"/>
<polygon fill="midnightblue" stroke="midnightblue" points="49.64,-202.45 48.56,-191.91 42.83,-200.82 49.64,-202.45"/>
</g>
<!-- Node5 -->
<g id="node5" class="node">
<title>Node5</title>
<g id="a_node5"><a xlink:title=" ">
<polygon fill="white" stroke="#bfbfbf" points="56.5,-228.5 56.5,-248.5 120.5,-248.5 120.5,-228.5 56.5,-228.5"/>
<text text-anchor="middle" x="88.5" y="-235.7" font-family="Helvetica,sans-Serif" font-size="11.00">stdexcept</text>
</a>
</g>
</g>
<!-- Node3&#45;&gt;Node5 -->
<g id="edge4" class="edge">
<title>Node3&#45;&gt;Node5</title>
<path fill="none" stroke="midnightblue" d="M88.5,-285.42C88.5,-278.22 88.5,-267.9 88.5,-258.86"/>
<polygon fill="midnightblue" stroke="midnightblue" points="92,-258.78 88.5,-248.78 85,-258.78 92,-258.78"/>
</g>
<!-- Node6 -->
<g id="node6" class="node">
<title>Node6</title>
<g id="a_node6"><a xlink:href="_natural_8h.html" target="_top" xlink:title="The Natural specification and body provides a value object type for naturals (positive integers with ...">
<polygon fill="white" stroke="black" points="138.5,-228.5 138.5,-248.5 198.5,-248.5 198.5,-228.5 138.5,-228.5"/>
<text text-anchor="middle" x="168.5" y="-235.7" font-family="Helvetica,sans-Serif" font-size="11.00">Natural.h</text>
</a>
</g>
</g>
<!-- Node3&#45;&gt;Node6 -->
<g id="edge5" class="edge">
<title>Node3&#45;&gt;Node6</title>
<path fill="none" stroke="midnightblue" d="M101.71,-285.42C113.99,-276.98 132.49,-264.26 146.91,-254.34"/>
<polygon fill="midnightblue" stroke="midnightblue" points="149.01,-257.15 155.27,-248.6 145.05,-251.38 149.01,-257.15"/>
</g>
<!-- Node6&#45;&gt;Node4 -->
<g id="edge6" class="edge">
<title>Node6&#45;&gt;Node4</title>
<path fill="none" stroke="midnightblue" d="M149.18,-228.42C130.38,-219.58 101.59,-206.05 80.13,-195.96"/>
<polygon fill="midnightblue" stroke="midnightblue" points="81.39,-192.68 70.85,-191.6 78.41,-199.02 81.39,-192.68"/>
</g>
<!-- Node7 -->
<g id="node7" class="node">
<title>Node7</title>
<g id="a_node7"><a xlink:href="_generic_number_8h.html" target="_top" xlink:title="The GenericNumber specification and body defines a template for wrapper objects for elementary numeri...">
<polygon fill="white" stroke="black" points="105,-171.5 105,-191.5 208,-191.5 208,-171.5 105,-171.5"/>
<text text-anchor="middle" x="156.5" y="-178.7" font-family="Helvetica,sans-Serif" font-size="11.00">GenericNumber.h</text>
</a>
</g>
</g>
<!-- Node6&#45;&gt;Node7 -->
<g id="edge7" class="edge">
<title>Node6&#45;&gt;Node7</title>
<path fill="none" stroke="midnightblue" d="M166.52,-228.42C164.93,-221.14 162.65,-210.67 160.66,-201.57"/>
<polygon fill="midnightblue" stroke="midnightblue" points="164.08,-200.8 158.52,-191.78 157.24,-202.3 164.08,-200.8"/>
</g>
<!-- Node10 -->
<g id="node10" class="node">
<title>Node10</title>
<g id="a_node10"><a xlink:href="_my_string_8h.html" target="_top" xlink:title="The String specification defines a standard string type.">
<polygon fill="white" stroke="black" points="171.5,-57.5 171.5,-77.5 239.5,-77.5 239.5,-57.5 171.5,-57.5"/>
<text text-anchor="middle" x="205.5" y="-64.7" font-family="Helvetica,sans-Serif" font-size="11.00">MyString.h</text>
</a>
</g>
</g>
<!-- Node6&#45;&gt;Node10 -->
<g id="edge13" class="edge">
<title>Node6&#45;&gt;Node10</title>
<path fill="none" stroke="midnightblue" d="M183.64,-228.45C195.33,-220.5 210.63,-207.75 217.5,-192 232.58,-157.43 221.42,-112.37 212.86,-87.35"/>
<polygon fill="midnightblue" stroke="midnightblue" points="216.04,-85.85 209.32,-77.66 209.46,-88.25 216.04,-85.85"/>
</g>
<!-- Node8 -->
<g id="node8" class="node">
<title>Node8</title>
<g id="a_node8"><a xlink:title=" ">
<polygon fill="white" stroke="#bfbfbf" points="82.5,-114.5 82.5,-134.5 124.5,-134.5 124.5,-114.5 82.5,-114.5"/>
<text text-anchor="middle" x="103.5" y="-121.7" font-family="Helvetica,sans-Serif" font-size="11.00">limits</text>
</a>
</g>
</g>
<!-- Node7&#45;&gt;Node8 -->
<g id="edge8" class="edge">
<title>Node7&#45;&gt;Node8</title>
<path fill="none" stroke="midnightblue" d="M147.75,-171.42C140.12,-163.5 128.87,-151.82 119.62,-142.23"/>
<polygon fill="midnightblue" stroke="midnightblue" points="121.9,-139.55 112.44,-134.78 116.86,-144.41 121.9,-139.55"/>
</g>
<!-- Node9 -->
<g id="node9" class="node">
<title>Node9</title>
<g id="a_node9"><a xlink:href="_boolean_8h.html" target="_top" xlink:title="The Boolean specification and body provides a value object type for boolean values.">
<polygon fill="white" stroke="black" points="143,-114.5 143,-134.5 208,-134.5 208,-114.5 143,-114.5"/>
<text text-anchor="middle" x="175.5" y="-121.7" font-family="Helvetica,sans-Serif" font-size="11.00">Boolean.h</text>
</a>
</g>
</g>
<!-- Node7&#45;&gt;Node9 -->
<g id="edge9" class="edge">
<title>Node7&#45;&gt;Node9</title>
<path fill="none" stroke="midnightblue" d="M159.64,-171.42C162.18,-164.06 165.85,-153.44 169.02,-144.27"/>
<polygon fill="midnightblue" stroke="midnightblue" points="172.34,-145.37 172.29,-134.78 165.72,-143.09 172.34,-145.37"/>
</g>
<!-- Node9&#45;&gt;Node10 -->
<g id="edge10" class="edge">
<title>Node9&#45;&gt;Node10</title>
<path fill="none" stroke="midnightblue" d="M180.45,-114.42C184.55,-106.9 190.51,-95.98 195.58,-86.68"/>
<polygon fill="midnightblue" stroke="midnightblue" points="198.72,-88.23 200.44,-77.78 192.58,-84.88 198.72,-88.23"/>
</g>
<!-- Node11 -->
<g id="node11" class="node">
<title>Node11</title>
<g id="a_node11"><a xlink:title=" ">
<polygon fill="white" stroke="#bfbfbf" points="140.5,-0.5 140.5,-20.5 184.5,-20.5 184.5,-0.5 140.5,-0.5"/>
<text text-anchor="middle" x="162.5" y="-7.7" font-family="Helvetica,sans-Serif" font-size="11.00">string</text>
</a>
</g>
</g>
<!-- Node10&#45;&gt;Node11 -->
<g id="edge11" class="edge">
<title>Node10&#45;&gt;Node11</title>
<path fill="none" stroke="midnightblue" d="M198.4,-57.42C192.34,-49.66 183.44,-38.29 176.03,-28.8"/>
<polygon fill="midnightblue" stroke="midnightblue" points="178.67,-26.5 169.75,-20.78 173.16,-30.81 178.67,-26.5"/>
</g>
<!-- Node12 -->
<g id="node12" class="node">
<title>Node12</title>
<g id="a_node12"><a xlink:href="_global_macros_8h.html" target="_top" xlink:title="The GlobalMacros specification defines simple macros (e.g. for parameter modes).">
<polygon fill="white" stroke="black" points="202.5,-0.5 202.5,-20.5 294.5,-20.5 294.5,-0.5 202.5,-0.5"/>
<text text-anchor="middle" x="248.5" y="-7.7" font-family="Helvetica,sans-Serif" font-size="11.00">GlobalMacros.h</text>
</a>
</g>
</g>
<!-- Node10&#45;&gt;Node12 -->
<g id="edge12" class="edge">
<title>Node10&#45;&gt;Node12</title>
<path fill="none" stroke="midnightblue" d="M212.6,-57.42C218.66,-49.66 227.56,-38.29 234.97,-28.8"/>
<polygon fill="midnightblue" stroke="midnightblue" points="237.84,-30.81 241.25,-20.78 232.33,-26.5 237.84,-30.81"/>
</g>
</g>
</svg>
