<?xml version="1.0" encoding="UTF-8" standalone="no"?>
<!DOCTYPE svg PUBLIC "-//W3C//DTD SVG 1.1//EN"
 "http://www.w3.org/Graphics/SVG/1.1/DTD/svg11.dtd">
<!-- Generated by graphviz version 2.47.1 (20210417.1919)
 -->
<!-- Title: IntegerList.cpp Pages: 1 -->
<!--zoomable 485 -->
<svg id="main" version="1.1" xmlns="http://www.w3.org/2000/svg" xmlns:xlink="http://www.w3.org/1999/xlink" xml:space="preserve" onload="init(evt)">
<style type="text/css"><![CDATA[
.edge:hover path { stroke: red; }
.edge:hover polygon { stroke: red; fill: red; }
]]></style>
<script type="text/javascript"><![CDATA[
var edges = document.getElementsByTagName('g');
if (edges && edges.length) {
  for (var i=0;i<edges.length;i++) {
    if (edges[i].id.substr(0,4)=='edge') {
      edges[i].setAttribute('class','edge');
    }
  }
}
]]></script>
        <defs>
                <circle id="rim" cx="0" cy="0" r="7"/>
                <circle id="rim2" cx="0" cy="0" r="3.5"/>
                <g id="zoomPlus">
                        <use xlink:href="#rim" fill="#404040">
                                <set attributeName="fill" to="#808080" begin="zoomplus.mouseover" end="zoomplus.mouseout"/>
                        </use>
                        <path d="M-4,0h8M0,-4v8" fill="none" stroke="white" stroke-width="1.5" pointer-events="none"/>
                </g>
                <g id="zoomMin">
                        <use xlink:href="#rim" fill="#404040">
                                <set attributeName="fill" to="#808080" begin="zoomminus.mouseover" end="zoomminus.mouseout"/>
                        </use>
                        <path d="M-4,0h8" fill="none" stroke="white" stroke-width="1.5" pointer-events="none"/>
                </g>
                <g id="dirArrow">
                        <path fill="none" stroke="white" stroke-width="1.5" d="M0,-3.0v7 M-2.5,-0.5L0,-3.0L2.5,-0.5"/>
                </g>
               <g id="resetDef">
                       <use xlink:href="#rim2" fill="#404040">
                               <set attributeName="fill" to="#808080" begin="reset.mouseover" end="reset.mouseout"/>
                       </use>
               </g>
        </defs>

<script type="text/javascript">
var viewWidth = 410;
var viewHeight = 485;
var sectionId = 'dynsection-0';
</script>
<script xlink:href="svgpan.js"/>
<svg id="graph" class="graph">
<g id="viewport">
<title>IntegerList.cpp</title>
<polygon fill="white" stroke="transparent" points="-4,4 -4,-481 406,-481 406,4 -4,4"/>
<!-- Node1 -->
<g id="node1" class="node">
<title>Node1</title>
<g id="a_node1"><a xlink:title="The IntegerList body implements sequences of integer values with zero&#45;based arbitrary indexed access ...">
<polygon fill="#bfbfbf" stroke="black" points="23.5,-456.5 23.5,-476.5 111.5,-476.5 111.5,-456.5 23.5,-456.5"/>
<text text-anchor="middle" x="67.5" y="-463.7" font-family="Helvetica,sans-Serif" font-size="11.00">IntegerList.cpp</text>
</a>
</g>
</g>
<!-- Node2 -->
<g id="node2" class="node">
<title>Node2</title>
<g id="a_node2"><a xlink:title=" ">
<polygon fill="white" stroke="#bfbfbf" points="0,-399.5 0,-419.5 53,-419.5 53,-399.5 0,-399.5"/>
<text text-anchor="middle" x="26.5" y="-406.7" font-family="Helvetica,sans-Serif" font-size="11.00">cstdarg</text>
</a>
</g>
</g>
<!-- Node1&#45;&gt;Node2 -->
<g id="edge1" class="edge">
<title>Node1&#45;&gt;Node2</title>
<path fill="none" stroke="midnightblue" d="M60.73,-456.42C54.95,-448.66 46.47,-437.29 39.4,-427.8"/>
<polygon fill="midnightblue" stroke="midnightblue" points="42.2,-425.71 33.42,-419.78 36.59,-429.89 42.2,-425.71"/>
</g>
<!-- Node3 -->
<g id="node3" class="node">
<title>Node3</title>
<g id="a_node3"><a xlink:href="_integer_list_8h.html" target="_top" xlink:title="The IntegerList specification defines sequences of integer values with zero&#45;based arbitrary indexed a...">
<polygon fill="white" stroke="black" points="71.5,-399.5 71.5,-419.5 147.5,-419.5 147.5,-399.5 71.5,-399.5"/>
<text text-anchor="middle" x="109.5" y="-406.7" font-family="Helvetica,sans-Serif" font-size="11.00">IntegerList.h</text>
</a>
</g>
</g>
<!-- Node1&#45;&gt;Node3 -->
<g id="edge2" class="edge">
<title>Node1&#45;&gt;Node3</title>
<path fill="none" stroke="midnightblue" d="M74.44,-456.42C80.36,-448.66 89.04,-437.29 96.29,-427.8"/>
<polygon fill="midnightblue" stroke="midnightblue" points="99.13,-429.85 102.41,-419.78 93.56,-425.6 99.13,-429.85"/>
</g>
<!-- Node4 -->
<g id="node4" class="node">
<title>Node4</title>
<g id="a_node4"><a xlink:title=" ">
<polygon fill="white" stroke="#bfbfbf" points="13.5,-342.5 13.5,-362.5 91.5,-362.5 91.5,-342.5 13.5,-342.5"/>
<text text-anchor="middle" x="52.5" y="-349.7" font-family="Helvetica,sans-Serif" font-size="11.00">initializer_list</text>
</a>
</g>
</g>
<!-- Node3&#45;&gt;Node4 -->
<g id="edge3" class="edge">
<title>Node3&#45;&gt;Node4</title>
<path fill="none" stroke="midnightblue" d="M100.09,-399.42C91.8,-391.42 79.54,-379.59 69.54,-369.94"/>
<polygon fill="midnightblue" stroke="midnightblue" points="71.74,-367.2 62.12,-362.78 66.88,-372.24 71.74,-367.2"/>
</g>
<!-- Node5 -->
<g id="node5" class="node">
<title>Node5</title>
<g id="a_node5"><a xlink:href="_generic_sequence_8h.html" target="_top" xlink:title="The GenericSequence specification and body defines a generic sequence type of values with zero&#45;based ...">
<polygon fill="white" stroke="black" points="110,-342.5 110,-362.5 223,-362.5 223,-342.5 110,-342.5"/>
<text text-anchor="middle" x="166.5" y="-349.7" font-family="Helvetica,sans-Serif" font-size="11.00">GenericSequence.h</text>
</a>
</g>
</g>
<!-- Node3&#45;&gt;Node5 -->
<g id="edge4" class="edge">
<title>Node3&#45;&gt;Node5</title>
<path fill="none" stroke="midnightblue" d="M118.91,-399.42C127.2,-391.42 139.46,-379.59 149.46,-369.94"/>
<polygon fill="midnightblue" stroke="midnightblue" points="152.12,-372.24 156.88,-362.78 147.26,-367.2 152.12,-372.24"/>
</g>
<!-- Node6 -->
<g id="node6" class="node">
<title>Node6</title>
<g id="a_node6"><a xlink:title=" ">
<polygon fill="white" stroke="#bfbfbf" points="91,-285.5 91,-305.5 138,-305.5 138,-285.5 91,-285.5"/>
<text text-anchor="middle" x="114.5" y="-292.7" font-family="Helvetica,sans-Serif" font-size="11.00">vector</text>
</a>
</g>
</g>
<!-- Node5&#45;&gt;Node6 -->
<g id="edge5" class="edge">
<title>Node5&#45;&gt;Node6</title>
<path fill="none" stroke="midnightblue" d="M157.91,-342.42C150.43,-334.5 139.39,-322.82 130.31,-313.23"/>
<polygon fill="midnightblue" stroke="midnightblue" points="132.69,-310.64 123.27,-305.78 127.6,-315.45 132.69,-310.64"/>
</g>
<!-- Node7 -->
<g id="node7" class="node">
<title>Node7</title>
<g id="a_node7"><a xlink:href="_boolean_8h.html" target="_top" xlink:title="The Boolean specification and body provides a value object type for boolean values.">
<polygon fill="white" stroke="black" points="157,-114.5 157,-134.5 222,-134.5 222,-114.5 157,-114.5"/>
<text text-anchor="middle" x="189.5" y="-121.7" font-family="Helvetica,sans-Serif" font-size="11.00">Boolean.h</text>
</a>
</g>
</g>
<!-- Node5&#45;&gt;Node7 -->
<g id="edge6" class="edge">
<title>Node5&#45;&gt;Node7</title>
<path fill="none" stroke="midnightblue" d="M167.43,-342.36C170.85,-308.71 182.81,-191.27 187.54,-144.72"/>
<polygon fill="midnightblue" stroke="midnightblue" points="191.05,-144.81 188.58,-134.51 184.09,-144.1 191.05,-144.81"/>
</g>
<!-- Node11 -->
<g id="node11" class="node">
<title>Node11</title>
<g id="a_node11"><a xlink:href="_integer_8h.html" target="_top" xlink:title="The Integer specification and body provides a value object type for ints.">
<polygon fill="white" stroke="black" points="251,-285.5 251,-305.5 310,-305.5 310,-285.5 251,-285.5"/>
<text text-anchor="middle" x="280.5" y="-292.7" font-family="Helvetica,sans-Serif" font-size="11.00">Integer.h</text>
</a>
</g>
</g>
<!-- Node5&#45;&gt;Node11 -->
<g id="edge10" class="edge">
<title>Node5&#45;&gt;Node11</title>
<path fill="none" stroke="midnightblue" d="M185.32,-342.42C203.64,-333.58 231.69,-320.05 252.6,-309.96"/>
<polygon fill="midnightblue" stroke="midnightblue" points="254.16,-313.09 261.65,-305.6 251.12,-306.79 254.16,-313.09"/>
</g>
<!-- Node8 -->
<g id="node8" class="node">
<title>Node8</title>
<g id="a_node8"><a xlink:href="_my_string_8h.html" target="_top" xlink:title="The String specification defines a standard string type.">
<polygon fill="white" stroke="black" points="231.5,-57.5 231.5,-77.5 299.5,-77.5 299.5,-57.5 231.5,-57.5"/>
<text text-anchor="middle" x="265.5" y="-64.7" font-family="Helvetica,sans-Serif" font-size="11.00">MyString.h</text>
</a>
</g>
</g>
<!-- Node7&#45;&gt;Node8 -->
<g id="edge7" class="edge">
<title>Node7&#45;&gt;Node8</title>
<path fill="none" stroke="midnightblue" d="M202.05,-114.42C213.6,-106.06 230.96,-93.5 244.6,-83.62"/>
<polygon fill="midnightblue" stroke="midnightblue" points="246.88,-86.29 252.93,-77.6 242.78,-80.62 246.88,-86.29"/>
</g>
<!-- Node9 -->
<g id="node9" class="node">
<title>Node9</title>
<g id="a_node9"><a xlink:title=" ">
<polygon fill="white" stroke="#bfbfbf" points="200.5,-0.5 200.5,-20.5 244.5,-20.5 244.5,-0.5 200.5,-0.5"/>
<text text-anchor="middle" x="222.5" y="-7.7" font-family="Helvetica,sans-Serif" font-size="11.00">string</text>
</a>
</g>
</g>
<!-- Node8&#45;&gt;Node9 -->
<g id="edge8" class="edge">
<title>Node8&#45;&gt;Node9</title>
<path fill="none" stroke="midnightblue" d="M258.4,-57.42C252.34,-49.66 243.44,-38.29 236.03,-28.8"/>
<polygon fill="midnightblue" stroke="midnightblue" points="238.67,-26.5 229.75,-20.78 233.16,-30.81 238.67,-26.5"/>
</g>
<!-- Node10 -->
<g id="node10" class="node">
<title>Node10</title>
<g id="a_node10"><a xlink:href="_global_macros_8h.html" target="_top" xlink:title="The GlobalMacros specification defines simple macros (e.g. for parameter modes).">
<polygon fill="white" stroke="black" points="262.5,-0.5 262.5,-20.5 354.5,-20.5 354.5,-0.5 262.5,-0.5"/>
<text text-anchor="middle" x="308.5" y="-7.7" font-family="Helvetica,sans-Serif" font-size="11.00">GlobalMacros.h</text>
</a>
</g>
</g>
<!-- Node8&#45;&gt;Node10 -->
<g id="edge9" class="edge">
<title>Node8&#45;&gt;Node10</title>
<path fill="none" stroke="midnightblue" d="M272.6,-57.42C278.66,-49.66 287.56,-38.29 294.97,-28.8"/>
<polygon fill="midnightblue" stroke="midnightblue" points="297.84,-30.81 301.25,-20.78 292.33,-26.5 297.84,-30.81"/>
</g>
<!-- Node12 -->
<g id="node12" class="node">
<title>Node12</title>
<g id="a_node12"><a xlink:title=" ">
<polygon fill="white" stroke="#bfbfbf" points="355,-171.5 355,-191.5 402,-191.5 402,-171.5 355,-171.5"/>
<text text-anchor="middle" x="378.5" y="-178.7" font-family="Helvetica,sans-Serif" font-size="11.00">cmath</text>
</a>
</g>
</g>
<!-- Node11&#45;&gt;Node12 -->
<g id="edge11" class="edge">
<title>Node11&#45;&gt;Node12</title>
<path fill="none" stroke="midnightblue" d="M306.81,-285.38C324.15,-278.09 346.05,-266.21 359.5,-249 370.12,-235.41 374.8,-216.14 376.87,-201.84"/>
<polygon fill="midnightblue" stroke="midnightblue" points="380.38,-201.97 378.03,-191.64 373.42,-201.18 380.38,-201.97"/>
</g>
<!-- Node13 -->
<g id="node13" class="node">
<title>Node13</title>
<g id="a_node13"><a xlink:title=" ">
<polygon fill="white" stroke="#bfbfbf" points="208.5,-228.5 208.5,-248.5 272.5,-248.5 272.5,-228.5 208.5,-228.5"/>
<text text-anchor="middle" x="240.5" y="-235.7" font-family="Helvetica,sans-Serif" font-size="11.00">stdexcept</text>
</a>
</g>
</g>
<!-- Node11&#45;&gt;Node13 -->
<g id="edge12" class="edge">
<title>Node11&#45;&gt;Node13</title>
<path fill="none" stroke="midnightblue" d="M273.89,-285.42C268.31,-277.74 260.15,-266.52 253.3,-257.09"/>
<polygon fill="midnightblue" stroke="midnightblue" points="255.96,-254.81 247.25,-248.78 250.3,-258.93 255.96,-254.81"/>
</g>
<!-- Node14 -->
<g id="node14" class="node">
<title>Node14</title>
<g id="a_node14"><a xlink:href="_natural_8h.html" target="_top" xlink:title="The Natural specification and body provides a value object type for naturals (positive integers with ...">
<polygon fill="white" stroke="black" points="290.5,-228.5 290.5,-248.5 350.5,-248.5 350.5,-228.5 290.5,-228.5"/>
<text text-anchor="middle" x="320.5" y="-235.7" font-family="Helvetica,sans-Serif" font-size="11.00">Natural.h</text>
</a>
</g>
</g>
<!-- Node11&#45;&gt;Node14 -->
<g id="edge13" class="edge">
<title>Node11&#45;&gt;Node14</title>
<path fill="none" stroke="midnightblue" d="M287.11,-285.42C292.69,-277.74 300.85,-266.52 307.7,-257.09"/>
<polygon fill="midnightblue" stroke="midnightblue" points="310.7,-258.93 313.75,-248.78 305.04,-254.81 310.7,-258.93"/>
</g>
<!-- Node14&#45;&gt;Node8 -->
<g id="edge18" class="edge">
<title>Node14&#45;&gt;Node8</title>
<path fill="none" stroke="midnightblue" d="M319.39,-228.19C316.64,-207.16 308.51,-154.63 291.5,-114 287.51,-104.47 281.94,-94.44 276.99,-86.23"/>
<polygon fill="midnightblue" stroke="midnightblue" points="279.84,-84.2 271.57,-77.57 273.9,-87.9 279.84,-84.2"/>
</g>
<!-- Node14&#45;&gt;Node12 -->
<g id="edge14" class="edge">
<title>Node14&#45;&gt;Node12</title>
<path fill="none" stroke="midnightblue" d="M330.08,-228.42C338.51,-220.42 350.99,-208.59 361.17,-198.94"/>
<polygon fill="midnightblue" stroke="midnightblue" points="363.87,-201.2 368.71,-191.78 359.05,-196.12 363.87,-201.2"/>
</g>
<!-- Node15 -->
<g id="node15" class="node">
<title>Node15</title>
<g id="a_node15"><a xlink:href="_generic_number_8h.html" target="_top" xlink:title="The GenericNumber specification and body defines a template for wrapper objects for elementary numeri...">
<polygon fill="white" stroke="black" points="195,-171.5 195,-191.5 298,-191.5 298,-171.5 195,-171.5"/>
<text text-anchor="middle" x="246.5" y="-178.7" font-family="Helvetica,sans-Serif" font-size="11.00">GenericNumber.h</text>
</a>
</g>
</g>
<!-- Node14&#45;&gt;Node15 -->
<g id="edge15" class="edge">
<title>Node14&#45;&gt;Node15</title>
<path fill="none" stroke="midnightblue" d="M308.28,-228.42C297.03,-220.06 280.13,-207.5 266.85,-197.62"/>
<polygon fill="midnightblue" stroke="midnightblue" points="268.85,-194.75 258.74,-191.6 264.68,-200.37 268.85,-194.75"/>
</g>
<!-- Node15&#45;&gt;Node7 -->
<g id="edge17" class="edge">
<title>Node15&#45;&gt;Node7</title>
<path fill="none" stroke="midnightblue" d="M237.09,-171.42C228.8,-163.42 216.54,-151.59 206.54,-141.94"/>
<polygon fill="midnightblue" stroke="midnightblue" points="208.74,-139.2 199.12,-134.78 203.88,-144.24 208.74,-139.2"/>
</g>
<!-- Node16 -->
<g id="node16" class="node">
<title>Node16</title>
<g id="a_node16"><a xlink:title=" ">
<polygon fill="white" stroke="#bfbfbf" points="240.5,-114.5 240.5,-134.5 282.5,-134.5 282.5,-114.5 240.5,-114.5"/>
<text text-anchor="middle" x="261.5" y="-121.7" font-family="Helvetica,sans-Serif" font-size="11.00">limits</text>
</a>
</g>
</g>
<!-- Node15&#45;&gt;Node16 -->
<g id="edge16" class="edge">
<title>Node15&#45;&gt;Node16</title>
<path fill="none" stroke="midnightblue" d="M248.98,-171.42C250.96,-164.14 253.82,-153.67 256.3,-144.57"/>
<polygon fill="midnightblue" stroke="midnightblue" points="259.71,-145.35 258.97,-134.78 252.96,-143.51 259.71,-145.35"/>
</g>
</g>
</svg>
        <g id="navigator" transform="translate(0 0)" fill="#404254">
                <rect fill="#f2f5e9" fill-opacity="0.5" stroke="#606060" stroke-width=".5" x="0" y="0" width="60" height="60"/>
                <use id="zoomplus" xlink:href="#zoomPlus" x="17" y="9" onmousedown="handleZoom(evt,'in')"/>
                <use id="zoomminus" xlink:href="#zoomMin" x="42" y="9" onmousedown="handleZoom(evt,'out')"/>
                <use id="reset" xlink:href="#resetDef" x="30" y="36" onmousedown="handleReset()"/>
                <g id="arrowUp" xlink:href="#dirArrow" transform="translate(30 24)" onmousedown="handlePan(0,-1)">
                  <use xlink:href="#rim" fill="#404040">
                        <set attributeName="fill" to="#808080" begin="arrowUp.mouseover" end="arrowUp.mouseout"/>
                  </use>
                  <path fill="none" stroke="white" stroke-width="1.5" d="M0,-3.0v7 M-2.5,-0.5L0,-3.0L2.5,-0.5"/>
                </g>
                <g id="arrowRight" xlink:href="#dirArrow" transform="rotate(90) translate(36 -43)" onmousedown="handlePan(1,0)">
                  <use xlink:href="#rim" fill="#404040">
                        <set attributeName="fill" to="#808080" begin="arrowRight.mouseover" end="arrowRight.mouseout"/>
                  </use>
                  <path fill="none" stroke="white" stroke-width="1.5" d="M0,-3.0v7 M-2.5,-0.5L0,-3.0L2.5,-0.5"/>
                </g>
                <g id="arrowDown" xlink:href="#dirArrow" transform="rotate(180) translate(-30 -48)" onmousedown="handlePan(0,1)">
                  <use xlink:href="#rim" fill="#404040">
                        <set attributeName="fill" to="#808080" begin="arrowDown.mouseover" end="arrowDown.mouseout"/>
                  </use>
                  <path fill="none" stroke="white" stroke-width="1.5" d="M0,-3.0v7 M-2.5,-0.5L0,-3.0L2.5,-0.5"/>
                </g>
                <g id="arrowLeft" xlink:href="#dirArrow" transform="rotate(270) translate(-36 17)" onmousedown="handlePan(-1,0)">
                  <use xlink:href="#rim" fill="#404040">
                        <set attributeName="fill" to="#808080" begin="arrowLeft.mouseover" end="arrowLeft.mouseout"/>
                  </use>
                  <path fill="none" stroke="white" stroke-width="1.5" d="M0,-3.0v7 M-2.5,-0.5L0,-3.0L2.5,-0.5"/>
                </g>
        </g>
        <svg viewBox="0 0 15 15" width="100%" height="30px" preserveAspectRatio="xMaxYMin meet">
         <g id="arrow_out" transform="scale(0.3 0.3)">
          <a xlink:href="_integer_list_8cpp__incl_org.svg" target="_base">
           <rect id="button" ry="5" rx="5" y="6" x="6" height="38" width="38"
                fill="#f2f5e9" fill-opacity="0.5" stroke="#606060" stroke-width="1.0"/>
           <path id="arrow"
             d="M 11.500037,31.436501 C 11.940474,20.09759 22.043105,11.32322 32.158766,21.979434 L 37.068811,17.246167 C 37.068811,17.246167 37.088388,32 37.088388,32 L 22.160133,31.978069 C 22.160133,31.978069 26.997745,27.140456 26.997745,27.140456 C 18.528582,18.264221 13.291696,25.230495 11.500037,31.436501 z"
             style="fill:#404040;"/>
          </a>
         </g>
        </svg>
</svg>
