<?xml version="1.0" encoding="UTF-8" standalone="no"?>
<!DOCTYPE svg PUBLIC "-//W3C//DTD SVG 1.1//EN"
 "http://www.w3.org/Graphics/SVG/1.1/DTD/svg11.dtd">
<!-- Generated by graphviz version 2.47.1 (20210417.1919)
 -->
<!-- Title: IntegerList.cpp Pages: 1 -->
<svg width="194pt" height="140pt"
 viewBox="0.00 0.00 193.50 140.00" xmlns="http://www.w3.org/2000/svg" xmlns:xlink="http://www.w3.org/1999/xlink">
<g id="graph0" class="graph" transform="scale(1 1) rotate(0) translate(4 136)">
<title>IntegerList.cpp</title>
<polygon fill="white" stroke="transparent" points="-4,4 -4,-136 189.5,-136 189.5,4 -4,4"/>
<!-- Node1 -->
<g id="node1" class="node">
<title>Node1</title>
<g id="a_node1"><a xlink:title="The IntegerList body implements lists of integer values with zero&#45;based arbitrary indexed access to p...">
<polygon fill="#bfbfbf" stroke="black" points="23.5,-112.5 23.5,-131.5 103.5,-131.5 103.5,-112.5 23.5,-112.5"/>
<text text-anchor="middle" x="63.5" y="-119.5" font-family="Helvetica,sans-Serif" font-size="10.00">IntegerList.cpp</text>
</a>
</g>
</g>
<!-- Node2 -->
<g id="node2" class="node">
<title>Node2</title>
<g id="a_node2"><a xlink:title=" ">
<polygon fill="white" stroke="#bfbfbf" points="0,-56.5 0,-75.5 49,-75.5 49,-56.5 0,-56.5"/>
<text text-anchor="middle" x="24.5" y="-63.5" font-family="Helvetica,sans-Serif" font-size="10.00">cstdarg</text>
</a>
</g>
</g>
<!-- Node1&#45;&gt;Node2 -->
<g id="edge1" class="edge">
<title>Node1&#45;&gt;Node2</title>
<path fill="none" stroke="midnightblue" d="M57.06,-112.08C51.55,-104.46 43.47,-93.26 36.74,-83.94"/>
<polygon fill="midnightblue" stroke="midnightblue" points="39.51,-81.81 30.82,-75.75 33.84,-85.91 39.51,-81.81"/>
</g>
<!-- Node3 -->
<g id="node3" class="node">
<title>Node3</title>
<g id="a_node3"><a xlink:href="_integer_list_8h.html" target="_top" xlink:title="The IntegerList specification defines sequences of integer values with zero&#45;based arbitrary indexed a...">
<polygon fill="white" stroke="black" points="67.5,-56.5 67.5,-75.5 137.5,-75.5 137.5,-56.5 67.5,-56.5"/>
<text text-anchor="middle" x="102.5" y="-63.5" font-family="Helvetica,sans-Serif" font-size="10.00">IntegerList.h</text>
</a>
</g>
</g>
<!-- Node1&#45;&gt;Node3 -->
<g id="edge2" class="edge">
<title>Node1&#45;&gt;Node3</title>
<path fill="none" stroke="midnightblue" d="M69.94,-112.08C75.45,-104.46 83.53,-93.26 90.26,-83.94"/>
<polygon fill="midnightblue" stroke="midnightblue" points="93.16,-85.91 96.18,-75.75 87.49,-81.81 93.16,-85.91"/>
</g>
<!-- Node4 -->
<g id="node4" class="node">
<title>Node4</title>
<g id="a_node4"><a xlink:title=" ">
<polygon fill="white" stroke="#bfbfbf" points="20,-0.5 20,-19.5 93,-19.5 93,-0.5 20,-0.5"/>
<text text-anchor="middle" x="56.5" y="-7.5" font-family="Helvetica,sans-Serif" font-size="10.00">initializer_list</text>
</a>
</g>
</g>
<!-- Node3&#45;&gt;Node4 -->
<g id="edge3" class="edge">
<title>Node3&#45;&gt;Node4</title>
<path fill="none" stroke="midnightblue" d="M94.9,-56.08C88.27,-48.3 78.48,-36.8 70.44,-27.37"/>
<polygon fill="midnightblue" stroke="midnightblue" points="73.1,-25.09 63.95,-19.75 67.77,-29.63 73.1,-25.09"/>
</g>
<!-- Node5 -->
<g id="node5" class="node">
<title>Node5</title>
<g id="a_node5"><a xlink:title=" ">
<polygon fill="white" stroke="#bfbfbf" points="111.5,-0.5 111.5,-19.5 185.5,-19.5 185.5,-0.5 111.5,-0.5"/>
<text text-anchor="middle" x="148.5" y="-7.5" font-family="Helvetica,sans-Serif" font-size="10.00">GenericList.h</text>
</a>
</g>
</g>
<!-- Node3&#45;&gt;Node5 -->
<g id="edge4" class="edge">
<title>Node3&#45;&gt;Node5</title>
<path fill="none" stroke="midnightblue" d="M110.1,-56.08C116.73,-48.3 126.52,-36.8 134.56,-27.37"/>
<polygon fill="midnightblue" stroke="midnightblue" points="137.23,-29.63 141.05,-19.75 131.9,-25.09 137.23,-29.63"/>
</g>
</g>
</svg>
