<?xml version="1.0" encoding="UTF-8" standalone="no"?>
<!DOCTYPE svg PUBLIC "-//W3C//DTD SVG 1.1//EN"
 "http://www.w3.org/Graphics/SVG/1.1/DTD/svg11.dtd">
<!-- Generated by graphviz version 2.47.1 (20210417.1919)
 -->
<!-- Title: JucePlugin&#45;util.cpp Pages: 1 -->
<svg width="268pt" height="95pt"
 viewBox="0.00 0.00 267.50 95.00" xmlns="http://www.w3.org/2000/svg" xmlns:xlink="http://www.w3.org/1999/xlink">
<g id="graph0" class="graph" transform="scale(1 1) rotate(0) translate(4 91)">
<title>JucePlugin&#45;util.cpp</title>
<polygon fill="white" stroke="transparent" points="-4,4 -4,-91 263.5,-91 263.5,4 -4,4"/>
<!-- Node1 -->
<g id="node1" class="node">
<title>Node1</title>
<g id="a_node1"><a xlink:title="The JucePlugin&#45;util connects to the JUCE framework utilities for a plugin.">
<polygon fill="#bfbfbf" stroke="black" points="72,-67.5 72,-86.5 170,-86.5 170,-67.5 72,-67.5"/>
<text text-anchor="middle" x="121" y="-74.5" font-family="Helvetica,sans-Serif" font-size="10.00">JucePlugin&#45;util.cpp</text>
</a>
</g>
</g>
<!-- Node2 -->
<g id="node2" class="node">
<title>Node2</title>
<g id="a_node2"><a xlink:href="_juce_plugin_defines_8h.html" target="_top" xlink:title="The JucePluginDefines sets up effect parameters for the JUCE framework.">
<polygon fill="white" stroke="black" points="0,-6 0,-25 104,-25 104,-6 0,-6"/>
<text text-anchor="middle" x="52" y="-13" font-family="Helvetica,sans-Serif" font-size="10.00">JucePluginDefines.h</text>
</a>
</g>
</g>
<!-- Node1&#45;&gt;Node2 -->
<g id="edge1" class="edge">
<title>Node1&#45;&gt;Node2</title>
<path fill="none" stroke="midnightblue" d="M111.11,-67.48C100.35,-58.2 82.93,-43.17 69.78,-31.83"/>
<polygon fill="midnightblue" stroke="midnightblue" points="71.73,-28.89 61.87,-25.01 67.16,-34.19 71.73,-28.89"/>
</g>
<!-- Node3 -->
<g id="node3" class="node">
<title>Node3</title>
<g id="a_node3"><a xlink:title=" ">
<polygon fill="white" stroke="#bfbfbf" points="122.5,-0.5 122.5,-30.5 259.5,-30.5 259.5,-0.5 122.5,-0.5"/>
<text text-anchor="start" x="130.5" y="-18.5" font-family="Helvetica,sans-Serif" font-size="10.00">juce_audio_plugin_client</text>
<text text-anchor="middle" x="191" y="-7.5" font-family="Helvetica,sans-Serif" font-size="10.00">/detail/juce_PluginUtilities.h</text>
</a>
</g>
</g>
<!-- Node1&#45;&gt;Node3 -->
<g id="edge2" class="edge">
<title>Node1&#45;&gt;Node3</title>
<path fill="none" stroke="midnightblue" d="M131.03,-67.48C140.33,-59.57 154.55,-47.48 166.8,-37.07"/>
<polygon fill="midnightblue" stroke="midnightblue" points="169.15,-39.67 174.5,-30.52 164.62,-34.33 169.15,-39.67"/>
</g>
</g>
</svg>
