<?xml version="1.0" encoding="UTF-8" standalone="no"?>
<!DOCTYPE svg PUBLIC "-//W3C//DTD SVG 1.1//EN"
 "http://www.w3.org/Graphics/SVG/1.1/DTD/svg11.dtd">
<!-- Generated by graphviz version 2.47.1 (20210417.1919)
 -->
<!-- Title: JucePluginDefines.h Pages: 1 -->
<svg width="525pt" height="84pt"
 viewBox="0.00 0.00 524.50 84.00" xmlns="http://www.w3.org/2000/svg" xmlns:xlink="http://www.w3.org/1999/xlink">
<g id="graph0" class="graph" transform="scale(1 1) rotate(0) translate(4 80)">
<title>JucePluginDefines.h</title>
<polygon fill="white" stroke="transparent" points="-4,4 -4,-80 520.5,-80 520.5,4 -4,4"/>
<!-- Node1 -->
<g id="node1" class="node">
<title>Node1</title>
<g id="a_node1"><a xlink:title="The JucePluginDefines sets up effect parameters for the JUCE framework.">
<polygon fill="#bfbfbf" stroke="black" points="211,-56.5 211,-75.5 315,-75.5 315,-56.5 211,-56.5"/>
<text text-anchor="middle" x="263" y="-63.5" font-family="Helvetica,sans-Serif" font-size="10.00">JucePluginDefines.h</text>
</a>
</g>
</g>
<!-- Node2 -->
<g id="node2" class="node">
<title>Node2</title>
<g id="a_node2"><a xlink:href="_juce_plugin-_standalone_8cpp.html" target="_top" xlink:title="The JucePlugin&#45;Standalone connects to the JUCE framework client functions for standalone applications...">
<polygon fill="white" stroke="black" points="0,-0.5 0,-19.5 134,-19.5 134,-0.5 0,-0.5"/>
<text text-anchor="middle" x="67" y="-7.5" font-family="Helvetica,sans-Serif" font-size="10.00">JucePlugin&#45;Standalone.cpp</text>
</a>
</g>
</g>
<!-- Node1&#45;&gt;Node2 -->
<g id="edge1" class="edge">
<title>Node1&#45;&gt;Node2</title>
<path fill="none" stroke="midnightblue" d="M221.98,-53.7C184.99,-43.51 131.4,-28.74 97.91,-19.52"/>
<polygon fill="midnightblue" stroke="midnightblue" points="221.37,-57.16 231.94,-56.44 223.23,-50.41 221.37,-57.16"/>
</g>
<!-- Node3 -->
<g id="node3" class="node">
<title>Node3</title>
<g id="a_node3"><a xlink:href="_juce_plugin-util_8cpp.html" target="_top" xlink:title="The JucePlugin&#45;util connects to the JUCE framework utilities for a plugin.">
<polygon fill="white" stroke="black" points="152,-0.5 152,-19.5 250,-19.5 250,-0.5 152,-0.5"/>
<text text-anchor="middle" x="201" y="-7.5" font-family="Helvetica,sans-Serif" font-size="10.00">JucePlugin&#45;util.cpp</text>
</a>
</g>
</g>
<!-- Node1&#45;&gt;Node3 -->
<g id="edge2" class="edge">
<title>Node1&#45;&gt;Node3</title>
<path fill="none" stroke="midnightblue" d="M245.25,-49.54C234.19,-39.91 220.37,-27.87 211.14,-19.83"/>
<polygon fill="midnightblue" stroke="midnightblue" points="243.2,-52.4 253.04,-56.32 247.8,-47.12 243.2,-52.4"/>
</g>
<!-- Node4 -->
<g id="node4" class="node">
<title>Node4</title>
<g id="a_node4"><a xlink:href="_juce_plugin-_v_s_t__1_8cpp.html" target="_top" xlink:title="The JucePlugin&#45;VST_1 connects to the JUCE framework client functions for a VST3 plugin.">
<polygon fill="white" stroke="black" points="268.5,-0.5 268.5,-19.5 383.5,-19.5 383.5,-0.5 268.5,-0.5"/>
<text text-anchor="middle" x="326" y="-7.5" font-family="Helvetica,sans-Serif" font-size="10.00">JucePlugin&#45;VST_1.cpp</text>
</a>
</g>
</g>
<!-- Node1&#45;&gt;Node4 -->
<g id="edge3" class="edge">
<title>Node1&#45;&gt;Node4</title>
<path fill="none" stroke="midnightblue" d="M281.04,-49.54C292.27,-39.91 306.32,-27.87 315.69,-19.83"/>
<polygon fill="midnightblue" stroke="midnightblue" points="278.44,-47.16 273.12,-56.32 282.99,-52.47 278.44,-47.16"/>
</g>
<!-- Node5 -->
<g id="node5" class="node">
<title>Node5</title>
<g id="a_node5"><a xlink:href="_juce_plugin-_v_s_t__2_8cpp.html" target="_top" xlink:title="The JucePlugin&#45;VST_2 connects to the JUCE framework client functions for a VST3 plugin.">
<polygon fill="white" stroke="black" points="401.5,-0.5 401.5,-19.5 516.5,-19.5 516.5,-0.5 401.5,-0.5"/>
<text text-anchor="middle" x="459" y="-7.5" font-family="Helvetica,sans-Serif" font-size="10.00">JucePlugin&#45;VST_2.cpp</text>
</a>
</g>
</g>
<!-- Node1&#45;&gt;Node5 -->
<g id="edge4" class="edge">
<title>Node1&#45;&gt;Node5</title>
<path fill="none" stroke="midnightblue" d="M304.02,-53.7C341.01,-43.51 394.6,-28.74 428.09,-19.52"/>
<polygon fill="midnightblue" stroke="midnightblue" points="302.77,-50.41 294.06,-56.44 304.63,-57.16 302.77,-50.41"/>
</g>
</g>
</svg>
