<?xml version="1.0" encoding="UTF-8" standalone="no"?>
<!DOCTYPE svg PUBLIC "-//W3C//DTD SVG 1.1//EN"
 "http://www.w3.org/Graphics/SVG/1.1/DTD/svg11.dtd">
<!-- Generated by graphviz version 2.47.1 (20210417.1919)
 -->
<!-- Title: JucePlugin&#45;VST_1.cpp Pages: 1 -->
<svg width="316pt" height="98pt"
 viewBox="0.00 0.00 315.50 98.00" xmlns="http://www.w3.org/2000/svg" xmlns:xlink="http://www.w3.org/1999/xlink">
<g id="graph0" class="graph" transform="scale(1 1) rotate(0) translate(4 94)">
<title>JucePlugin&#45;VST_1.cpp</title>
<polygon fill="white" stroke="transparent" points="-4,4 -4,-94 311.5,-94 311.5,4 -4,4"/>
<!-- Node1 -->
<g id="node1" class="node">
<title>Node1</title>
<g id="a_node1"><a xlink:title="The JucePlugin&#45;VST_1 connects to the JUCE framework client functions for a VST3 plugin.">
<polygon fill="#bfbfbf" stroke="black" points="75,-69.5 75,-89.5 203,-89.5 203,-69.5 75,-69.5"/>
<text text-anchor="middle" x="139" y="-76.7" font-family="Helvetica,sans-Serif" font-size="11.00">JucePlugin&#45;VST_1.cpp</text>
</a>
</g>
</g>
<!-- Node2 -->
<g id="node2" class="node">
<title>Node2</title>
<g id="a_node2"><a xlink:href="_juce_plugin_defines_8h.html" target="_top" xlink:title="The JucePluginDefines sets up effect parameters for the JUCE framework.">
<polygon fill="white" stroke="black" points="0,-6.5 0,-26.5 116,-26.5 116,-6.5 0,-6.5"/>
<text text-anchor="middle" x="58" y="-13.7" font-family="Helvetica,sans-Serif" font-size="11.00">JucePluginDefines.h</text>
</a>
</g>
</g>
<!-- Node1&#45;&gt;Node2 -->
<g id="edge1" class="edge">
<title>Node1&#45;&gt;Node2</title>
<path fill="none" stroke="midnightblue" d="M127.05,-69.5C114.25,-59.86 93.7,-44.39 78.35,-32.82"/>
<polygon fill="midnightblue" stroke="midnightblue" points="80.09,-29.76 70,-26.54 75.88,-35.35 80.09,-29.76"/>
</g>
<!-- Node3 -->
<g id="node3" class="node">
<title>Node3</title>
<g id="a_node3"><a xlink:title=" ">
<polygon fill="white" stroke="#bfbfbf" points="134.5,-0.5 134.5,-32.5 307.5,-32.5 307.5,-0.5 134.5,-0.5"/>
<text text-anchor="start" x="142.5" y="-19.7" font-family="Helvetica,sans-Serif" font-size="11.00">juce_audio_plugin_client</text>
<text text-anchor="middle" x="221" y="-7.7" font-family="Helvetica,sans-Serif" font-size="11.00">/VST3/juce_VST3_Wrapper.cpp</text>
</a>
</g>
</g>
<!-- Node1&#45;&gt;Node3 -->
<g id="edge2" class="edge">
<title>Node1&#45;&gt;Node3</title>
<path fill="none" stroke="midnightblue" d="M151.1,-69.5C161.97,-61.41 178.37,-49.21 192.55,-38.67"/>
<polygon fill="midnightblue" stroke="midnightblue" points="194.64,-41.47 200.58,-32.69 190.47,-35.85 194.64,-41.47"/>
</g>
</g>
</svg>
