<?xml version="1.0" encoding="UTF-8" standalone="no"?>
<!DOCTYPE svg PUBLIC "-//W3C//DTD SVG 1.1//EN"
 "http://www.w3.org/Graphics/SVG/1.1/DTD/svg11.dtd">
<!-- Generated by graphviz version 2.47.1 (20210417.1919)
 -->
<!-- Title: Logging.h Pages: 1 -->
<svg width="543pt" height="420pt"
 viewBox="0.00 0.00 542.50 420.00" xmlns="http://www.w3.org/2000/svg" xmlns:xlink="http://www.w3.org/1999/xlink">
<g id="graph0" class="graph" transform="scale(1 1) rotate(0) translate(4 416)">
<title>Logging.h</title>
<polygon fill="white" stroke="transparent" points="-4,4 -4,-416 538.5,-416 538.5,4 -4,4"/>
<!-- Node1 -->
<g id="node1" class="node">
<title>Node1</title>
<g id="a_node1"><a xlink:title="The Logging specification defines macros for entry&#45;, exit&#45; and intermediate logging of functions into...">
<polygon fill="#bfbfbf" stroke="black" points="84,-392.5 84,-411.5 143,-411.5 143,-392.5 84,-392.5"/>
<text text-anchor="middle" x="113.5" y="-399.5" font-family="Helvetica,sans-Serif" font-size="10.00">Logging.h</text>
</a>
</g>
</g>
<!-- Node2 -->
<g id="node2" class="node">
<title>Node2</title>
<g id="a_node2"><a xlink:title=" ">
<polygon fill="white" stroke="#bfbfbf" points="0,-336.5 0,-355.5 49,-355.5 49,-336.5 0,-336.5"/>
<text text-anchor="middle" x="24.5" y="-343.5" font-family="Helvetica,sans-Serif" font-size="10.00">cstdarg</text>
</a>
</g>
</g>
<!-- Node1&#45;&gt;Node2 -->
<g id="edge1" class="edge">
<title>Node1&#45;&gt;Node2</title>
<path fill="none" stroke="midnightblue" d="M99.2,-392.32C85.32,-383.9 64.01,-370.97 47.7,-361.07"/>
<polygon fill="midnightblue" stroke="midnightblue" points="49.13,-357.85 38.76,-355.65 45.5,-363.83 49.13,-357.85"/>
</g>
<!-- Node3 -->
<g id="node3" class="node">
<title>Node3</title>
<g id="a_node3"><a xlink:href="_logging_support_8h.html" target="_top" xlink:title="The LoggingSupport specification defines a class for simple entry/exit logging to a file or via an ar...">
<polygon fill="white" stroke="black" points="67.5,-336.5 67.5,-355.5 159.5,-355.5 159.5,-336.5 67.5,-336.5"/>
<text text-anchor="middle" x="113.5" y="-343.5" font-family="Helvetica,sans-Serif" font-size="10.00">LoggingSupport.h</text>
</a>
</g>
</g>
<!-- Node1&#45;&gt;Node3 -->
<g id="edge2" class="edge">
<title>Node1&#45;&gt;Node3</title>
<path fill="none" stroke="midnightblue" d="M113.5,-392.08C113.5,-385.01 113.5,-374.86 113.5,-365.99"/>
<polygon fill="midnightblue" stroke="midnightblue" points="117,-365.75 113.5,-355.75 110,-365.75 117,-365.75"/>
</g>
<!-- Node13 -->
<g id="node13" class="node">
<title>Node13</title>
<g id="a_node13"><a xlink:href="_string_util_8h.html" target="_top" xlink:title="The StringUtil specification defines several string routines not included in the standard C++ library...">
<polygon fill="white" stroke="black" points="182,-336.5 182,-355.5 247,-355.5 247,-336.5 182,-336.5"/>
<text text-anchor="middle" x="214.5" y="-343.5" font-family="Helvetica,sans-Serif" font-size="10.00">StringUtil.h</text>
</a>
</g>
</g>
<!-- Node1&#45;&gt;Node13 -->
<g id="edge14" class="edge">
<title>Node1&#45;&gt;Node13</title>
<path fill="none" stroke="midnightblue" d="M129.73,-392.32C145.85,-383.7 170.8,-370.36 189.46,-360.39"/>
<polygon fill="midnightblue" stroke="midnightblue" points="191.14,-363.46 198.31,-355.65 187.84,-357.28 191.14,-363.46"/>
</g>
<!-- Node4 -->
<g id="node4" class="node">
<title>Node4</title>
<g id="a_node4"><a xlink:href="_boolean_8h.html" target="_top" xlink:title="The Boolean specification and body provides a value object type for boolean values.">
<polygon fill="white" stroke="black" points="83.5,-280.5 83.5,-299.5 143.5,-299.5 143.5,-280.5 83.5,-280.5"/>
<text text-anchor="middle" x="113.5" y="-287.5" font-family="Helvetica,sans-Serif" font-size="10.00">Boolean.h</text>
</a>
</g>
</g>
<!-- Node3&#45;&gt;Node4 -->
<g id="edge3" class="edge">
<title>Node3&#45;&gt;Node4</title>
<path fill="none" stroke="midnightblue" d="M113.5,-336.08C113.5,-329.01 113.5,-318.86 113.5,-309.99"/>
<polygon fill="midnightblue" stroke="midnightblue" points="117,-309.75 113.5,-299.75 110,-309.75 117,-309.75"/>
</g>
<!-- Node8 -->
<g id="node8" class="node">
<title>Node8</title>
<g id="a_node8"><a xlink:href="_natural_8h.html" target="_top" xlink:title="The Natural specification and body provides a value object type for naturals (positive integers with ...">
<polygon fill="white" stroke="black" points="108.5,-112.5 108.5,-131.5 164.5,-131.5 164.5,-112.5 108.5,-112.5"/>
<text text-anchor="middle" x="136.5" y="-119.5" font-family="Helvetica,sans-Serif" font-size="10.00">Natural.h</text>
</a>
</g>
</g>
<!-- Node3&#45;&gt;Node8 -->
<g id="edge7" class="edge">
<title>Node3&#45;&gt;Node8</title>
<path fill="none" stroke="midnightblue" d="M102.51,-336.37C93.05,-328.17 80.06,-314.92 74.5,-300 71.39,-291.67 72.84,-288.73 74.5,-280 84.6,-226.93 112.31,-168.87 127.02,-140.53"/>
<polygon fill="midnightblue" stroke="midnightblue" points="130.22,-141.98 131.8,-131.5 124.03,-138.71 130.22,-141.98"/>
</g>
<!-- Node5 -->
<g id="node5" class="node">
<title>Node5</title>
<g id="a_node5"><a xlink:href="_my_string_8h.html" target="_top" xlink:title="The String specification defines a standard string type.">
<polygon fill="white" stroke="black" points="21.5,-56.5 21.5,-75.5 85.5,-75.5 85.5,-56.5 21.5,-56.5"/>
<text text-anchor="middle" x="53.5" y="-63.5" font-family="Helvetica,sans-Serif" font-size="10.00">MyString.h</text>
</a>
</g>
</g>
<!-- Node4&#45;&gt;Node5 -->
<g id="edge4" class="edge">
<title>Node4&#45;&gt;Node5</title>
<path fill="none" stroke="midnightblue" d="M111.15,-280.3C102.3,-247.56 70.9,-131.38 58.54,-85.67"/>
<polygon fill="midnightblue" stroke="midnightblue" points="61.89,-84.62 55.9,-75.88 55.13,-86.45 61.89,-84.62"/>
</g>
<!-- Node6 -->
<g id="node6" class="node">
<title>Node6</title>
<g id="a_node6"><a xlink:title=" ">
<polygon fill="white" stroke="#bfbfbf" points="181,-0.5 181,-19.5 222,-19.5 222,-0.5 181,-0.5"/>
<text text-anchor="middle" x="201.5" y="-7.5" font-family="Helvetica,sans-Serif" font-size="10.00">string</text>
</a>
</g>
</g>
<!-- Node5&#45;&gt;Node6 -->
<g id="edge5" class="edge">
<title>Node5&#45;&gt;Node6</title>
<path fill="none" stroke="midnightblue" d="M76.95,-56.44C102.36,-47.17 142.99,-32.35 170.9,-22.17"/>
<polygon fill="midnightblue" stroke="midnightblue" points="172.36,-25.36 180.55,-18.64 169.96,-18.78 172.36,-25.36"/>
</g>
<!-- Node7 -->
<g id="node7" class="node">
<title>Node7</title>
<g id="a_node7"><a xlink:href="_global_macros_8h.html" target="_top" xlink:title="The GlobalMacros specification defines simple macros (e.g. for parameter modes).">
<polygon fill="white" stroke="black" points="11,-0.5 11,-19.5 96,-19.5 96,-0.5 11,-0.5"/>
<text text-anchor="middle" x="53.5" y="-7.5" font-family="Helvetica,sans-Serif" font-size="10.00">GlobalMacros.h</text>
</a>
</g>
</g>
<!-- Node5&#45;&gt;Node7 -->
<g id="edge6" class="edge">
<title>Node5&#45;&gt;Node7</title>
<path fill="none" stroke="midnightblue" d="M53.5,-56.08C53.5,-49.01 53.5,-38.86 53.5,-29.99"/>
<polygon fill="midnightblue" stroke="midnightblue" points="57,-29.75 53.5,-19.75 50,-29.75 57,-29.75"/>
</g>
<!-- Node8&#45;&gt;Node5 -->
<g id="edge13" class="edge">
<title>Node8&#45;&gt;Node5</title>
<path fill="none" stroke="midnightblue" d="M123.16,-112.32C110.34,-103.98 90.72,-91.21 75.56,-81.35"/>
<polygon fill="midnightblue" stroke="midnightblue" points="77.09,-78.17 66.8,-75.65 73.28,-84.04 77.09,-78.17"/>
</g>
<!-- Node9 -->
<g id="node9" class="node">
<title>Node9</title>
<g id="a_node9"><a xlink:title=" ">
<polygon fill="white" stroke="#bfbfbf" points="297.5,-56.5 297.5,-75.5 341.5,-75.5 341.5,-56.5 297.5,-56.5"/>
<text text-anchor="middle" x="319.5" y="-63.5" font-family="Helvetica,sans-Serif" font-size="10.00">cmath</text>
</a>
</g>
</g>
<!-- Node8&#45;&gt;Node9 -->
<g id="edge8" class="edge">
<title>Node8&#45;&gt;Node9</title>
<path fill="none" stroke="midnightblue" d="M164.69,-112.68C197.91,-102.88 252.96,-86.64 287.67,-76.39"/>
<polygon fill="midnightblue" stroke="midnightblue" points="288.72,-79.73 297.32,-73.54 286.74,-73.02 288.72,-79.73"/>
</g>
<!-- Node10 -->
<g id="node10" class="node">
<title>Node10</title>
<g id="a_node10"><a xlink:href="_assertion_8h.html" target="_top" xlink:title="The Assertion specification defines macros for pre&#45; and postconditions in functions or methods.">
<polygon fill="white" stroke="black" points="213.5,-56.5 213.5,-75.5 279.5,-75.5 279.5,-56.5 213.5,-56.5"/>
<text text-anchor="middle" x="246.5" y="-63.5" font-family="Helvetica,sans-Serif" font-size="10.00">Assertion.h</text>
</a>
</g>
</g>
<!-- Node8&#45;&gt;Node10 -->
<g id="edge9" class="edge">
<title>Node8&#45;&gt;Node10</title>
<path fill="none" stroke="midnightblue" d="M154.17,-112.32C171.89,-103.62 199.4,-90.12 219.79,-80.11"/>
<polygon fill="midnightblue" stroke="midnightblue" points="221.44,-83.2 228.87,-75.65 218.35,-76.92 221.44,-83.2"/>
</g>
<!-- Node12 -->
<g id="node12" class="node">
<title>Node12</title>
<g id="a_node12"><a xlink:title=" ">
<polygon fill="white" stroke="#bfbfbf" points="103.5,-56.5 103.5,-75.5 195.5,-75.5 195.5,-56.5 103.5,-56.5"/>
<text text-anchor="middle" x="149.5" y="-63.5" font-family="Helvetica,sans-Serif" font-size="10.00">GenericNumber.h</text>
</a>
</g>
</g>
<!-- Node8&#45;&gt;Node12 -->
<g id="edge12" class="edge">
<title>Node8&#45;&gt;Node12</title>
<path fill="none" stroke="midnightblue" d="M138.65,-112.08C140.37,-104.93 142.85,-94.64 145,-85.69"/>
<polygon fill="midnightblue" stroke="midnightblue" points="148.46,-86.29 147.39,-75.75 141.65,-84.65 148.46,-86.29"/>
</g>
<!-- Node10&#45;&gt;Node6 -->
<g id="edge11" class="edge">
<title>Node10&#45;&gt;Node6</title>
<path fill="none" stroke="midnightblue" d="M239.07,-56.08C232.65,-48.38 223.19,-37.03 215.38,-27.65"/>
<polygon fill="midnightblue" stroke="midnightblue" points="217.88,-25.19 208.79,-19.75 212.51,-29.67 217.88,-25.19"/>
</g>
<!-- Node11 -->
<g id="node11" class="node">
<title>Node11</title>
<g id="a_node11"><a xlink:title=" ">
<polygon fill="white" stroke="#bfbfbf" points="262,-0.5 262,-19.5 321,-19.5 321,-0.5 262,-0.5"/>
<text text-anchor="middle" x="291.5" y="-7.5" font-family="Helvetica,sans-Serif" font-size="10.00">stdexcept</text>
</a>
</g>
</g>
<!-- Node10&#45;&gt;Node11 -->
<g id="edge10" class="edge">
<title>Node10&#45;&gt;Node11</title>
<path fill="none" stroke="midnightblue" d="M253.93,-56.08C260.35,-48.38 269.81,-37.03 277.62,-27.65"/>
<polygon fill="midnightblue" stroke="midnightblue" points="280.49,-29.67 284.21,-19.75 275.12,-25.19 280.49,-29.67"/>
</g>
<!-- Node13&#45;&gt;Node4 -->
<g id="edge15" class="edge">
<title>Node13&#45;&gt;Node4</title>
<path fill="none" stroke="midnightblue" d="M198.27,-336.32C182.15,-327.7 157.2,-314.36 138.54,-304.39"/>
<polygon fill="midnightblue" stroke="midnightblue" points="140.16,-301.28 129.69,-299.65 136.86,-307.46 140.16,-301.28"/>
</g>
<!-- Node14 -->
<g id="node14" class="node">
<title>Node14</title>
<g id="a_node14"><a xlink:href="_character_8h.html" target="_top" xlink:title="The Character specification and body provides a value object type for character values.">
<polygon fill="white" stroke="black" points="181,-224.5 181,-243.5 248,-243.5 248,-224.5 181,-224.5"/>
<text text-anchor="middle" x="214.5" y="-231.5" font-family="Helvetica,sans-Serif" font-size="10.00">Character.h</text>
</a>
</g>
</g>
<!-- Node13&#45;&gt;Node14 -->
<g id="edge16" class="edge">
<title>Node13&#45;&gt;Node14</title>
<path fill="none" stroke="midnightblue" d="M214.5,-336.37C214.5,-318.62 214.5,-277.67 214.5,-253.6"/>
<polygon fill="midnightblue" stroke="midnightblue" points="218,-253.59 214.5,-243.59 211,-253.59 218,-253.59"/>
</g>
<!-- Node17 -->
<g id="node17" class="node">
<title>Node17</title>
<g id="a_node17"><a xlink:href="_percentage_8h.html" target="_top" xlink:title="The Percentage specification and body provides a simple percentage type.">
<polygon fill="white" stroke="black" points="267.5,-280.5 267.5,-299.5 341.5,-299.5 341.5,-280.5 267.5,-280.5"/>
<text text-anchor="middle" x="304.5" y="-287.5" font-family="Helvetica,sans-Serif" font-size="10.00">Percentage.h</text>
</a>
</g>
</g>
<!-- Node13&#45;&gt;Node17 -->
<g id="edge22" class="edge">
<title>Node13&#45;&gt;Node17</title>
<path fill="none" stroke="midnightblue" d="M228.96,-336.32C243,-327.9 264.55,-314.97 281.04,-305.07"/>
<polygon fill="midnightblue" stroke="midnightblue" points="283.3,-307.8 290.08,-299.65 279.7,-301.8 283.3,-307.8"/>
</g>
<!-- Node20 -->
<g id="node20" class="node">
<title>Node20</title>
<g id="a_node20"><a xlink:href="_string_list_8h.html" target="_top" xlink:title="The StringList specification defines lists of string values with zero&#45;based arbitrary indexed access ...">
<polygon fill="white" stroke="black" points="372.5,-280.5 372.5,-299.5 438.5,-299.5 438.5,-280.5 372.5,-280.5"/>
<text text-anchor="middle" x="405.5" y="-287.5" font-family="Helvetica,sans-Serif" font-size="10.00">StringList.h</text>
</a>
</g>
</g>
<!-- Node13&#45;&gt;Node20 -->
<g id="edge29" class="edge">
<title>Node13&#45;&gt;Node20</title>
<path fill="none" stroke="midnightblue" d="M244.76,-336.44C277.46,-327.2 329.68,-312.44 365.68,-302.26"/>
<polygon fill="midnightblue" stroke="midnightblue" points="366.71,-305.61 375.38,-299.52 364.8,-298.87 366.71,-305.61"/>
</g>
<!-- Node14&#45;&gt;Node9 -->
<g id="edge17" class="edge">
<title>Node14&#45;&gt;Node9</title>
<path fill="none" stroke="midnightblue" d="M219.99,-224.36C231.06,-206.91 256.87,-166.22 278.5,-132 288.71,-115.85 300.33,-97.42 308.59,-84.32"/>
<polygon fill="midnightblue" stroke="midnightblue" points="311.57,-86.16 313.94,-75.84 305.64,-82.43 311.57,-86.16"/>
</g>
<!-- Node15 -->
<g id="node15" class="node">
<title>Node15</title>
<g id="a_node15"><a xlink:href="_byte_8h.html" target="_top" xlink:title="The Byte specification and body provides a value object type for byte values.">
<polygon fill="white" stroke="black" points="186,-168.5 186,-187.5 231,-187.5 231,-168.5 186,-168.5"/>
<text text-anchor="middle" x="208.5" y="-175.5" font-family="Helvetica,sans-Serif" font-size="10.00">Byte.h</text>
</a>
</g>
</g>
<!-- Node14&#45;&gt;Node15 -->
<g id="edge18" class="edge">
<title>Node14&#45;&gt;Node15</title>
<path fill="none" stroke="midnightblue" d="M213.51,-224.08C212.71,-216.93 211.57,-206.64 210.58,-197.69"/>
<polygon fill="midnightblue" stroke="midnightblue" points="214.06,-197.3 209.47,-187.75 207.1,-198.08 214.06,-197.3"/>
</g>
<!-- Node15&#45;&gt;Node8 -->
<g id="edge21" class="edge">
<title>Node15&#45;&gt;Node8</title>
<path fill="none" stroke="midnightblue" d="M196.93,-168.32C186.08,-160.18 169.62,-147.84 156.62,-138.09"/>
<polygon fill="midnightblue" stroke="midnightblue" points="158.38,-135.03 148.28,-131.83 154.18,-140.63 158.38,-135.03"/>
</g>
<!-- Node15&#45;&gt;Node9 -->
<g id="edge19" class="edge">
<title>Node15&#45;&gt;Node9</title>
<path fill="none" stroke="midnightblue" d="M217.21,-168.37C235.85,-149.89 279.85,-106.29 303.61,-82.74"/>
<polygon fill="midnightblue" stroke="midnightblue" points="306.19,-85.12 310.83,-75.59 301.26,-80.14 306.19,-85.12"/>
</g>
<!-- Node16 -->
<g id="node16" class="node">
<title>Node16</title>
<g id="a_node16"><a xlink:title=" ">
<polygon fill="white" stroke="#bfbfbf" points="182.5,-112.5 182.5,-131.5 228.5,-131.5 228.5,-112.5 182.5,-112.5"/>
<text text-anchor="middle" x="205.5" y="-119.5" font-family="Helvetica,sans-Serif" font-size="10.00">cstdint</text>
</a>
</g>
</g>
<!-- Node15&#45;&gt;Node16 -->
<g id="edge20" class="edge">
<title>Node15&#45;&gt;Node16</title>
<path fill="none" stroke="midnightblue" d="M208,-168.08C207.61,-161.01 207.05,-150.86 206.55,-141.99"/>
<polygon fill="midnightblue" stroke="midnightblue" points="210.04,-141.54 205.99,-131.75 203.05,-141.93 210.04,-141.54"/>
</g>
<!-- Node18 -->
<g id="node18" class="node">
<title>Node18</title>
<g id="a_node18"><a xlink:href="_real_8h.html" target="_top" xlink:title="The Real specification defines a value object type for real values.">
<polygon fill="white" stroke="black" points="306.5,-224.5 306.5,-243.5 350.5,-243.5 350.5,-224.5 306.5,-224.5"/>
<text text-anchor="middle" x="328.5" y="-231.5" font-family="Helvetica,sans-Serif" font-size="10.00">Real.h</text>
</a>
</g>
</g>
<!-- Node17&#45;&gt;Node18 -->
<g id="edge23" class="edge">
<title>Node17&#45;&gt;Node18</title>
<path fill="none" stroke="midnightblue" d="M308.46,-280.08C311.71,-272.77 316.42,-262.18 320.45,-253.1"/>
<polygon fill="midnightblue" stroke="midnightblue" points="323.75,-254.31 324.61,-243.75 317.35,-251.47 323.75,-254.31"/>
</g>
<!-- Node18&#45;&gt;Node9 -->
<g id="edge24" class="edge">
<title>Node18&#45;&gt;Node9</title>
<path fill="none" stroke="midnightblue" d="M328.02,-224.08C326.6,-197.95 322.44,-121.21 320.51,-85.58"/>
<polygon fill="midnightblue" stroke="midnightblue" points="324,-85.36 319.96,-75.57 317.01,-85.74 324,-85.36"/>
</g>
<!-- Node19 -->
<g id="node19" class="node">
<title>Node19</title>
<g id="a_node19"><a xlink:href="_integer_8h.html" target="_top" xlink:title="The Integer specification and body provides a value object type for ints.">
<polygon fill="white" stroke="black" points="360.5,-168.5 360.5,-187.5 414.5,-187.5 414.5,-168.5 360.5,-168.5"/>
<text text-anchor="middle" x="387.5" y="-175.5" font-family="Helvetica,sans-Serif" font-size="10.00">Integer.h</text>
</a>
</g>
</g>
<!-- Node18&#45;&gt;Node19 -->
<g id="edge25" class="edge">
<title>Node18&#45;&gt;Node19</title>
<path fill="none" stroke="midnightblue" d="M337.98,-224.32C346.7,-216.34 359.84,-204.31 370.4,-194.65"/>
<polygon fill="midnightblue" stroke="midnightblue" points="372.83,-197.17 377.85,-187.83 368.11,-192 372.83,-197.17"/>
</g>
<!-- Node19&#45;&gt;Node8 -->
<g id="edge28" class="edge">
<title>Node19&#45;&gt;Node8</title>
<path fill="none" stroke="midnightblue" d="M360.42,-171.59C321.49,-163.75 247.25,-148.57 174.54,-132.18"/>
<polygon fill="midnightblue" stroke="midnightblue" points="175.29,-128.76 164.76,-129.97 173.74,-135.59 175.29,-128.76"/>
</g>
<!-- Node19&#45;&gt;Node9 -->
<g id="edge26" class="edge">
<title>Node19&#45;&gt;Node9</title>
<path fill="none" stroke="midnightblue" d="M382.16,-168.37C370.99,-150.3 344.95,-108.18 330.2,-84.31"/>
<polygon fill="midnightblue" stroke="midnightblue" points="333.05,-82.26 324.81,-75.59 327.09,-85.94 333.05,-82.26"/>
</g>
<!-- Node19&#45;&gt;Node11 -->
<g id="edge27" class="edge">
<title>Node19&#45;&gt;Node11</title>
<path fill="none" stroke="midnightblue" d="M386.67,-168.3C384.31,-147.24 375.97,-92.6 350.5,-56 341.7,-43.36 328.26,-32.71 316.42,-24.95"/>
<polygon fill="midnightblue" stroke="midnightblue" points="318.13,-21.9 307.79,-19.6 314.44,-27.84 318.13,-21.9"/>
</g>
<!-- Node21 -->
<g id="node21" class="node">
<title>Node21</title>
<g id="a_node21"><a xlink:title=" ">
<polygon fill="white" stroke="#bfbfbf" points="369,-224.5 369,-243.5 442,-243.5 442,-224.5 369,-224.5"/>
<text text-anchor="middle" x="405.5" y="-231.5" font-family="Helvetica,sans-Serif" font-size="10.00">initializer_list</text>
</a>
</g>
</g>
<!-- Node20&#45;&gt;Node21 -->
<g id="edge30" class="edge">
<title>Node20&#45;&gt;Node21</title>
<path fill="none" stroke="midnightblue" d="M405.5,-280.08C405.5,-273.01 405.5,-262.86 405.5,-253.99"/>
<polygon fill="midnightblue" stroke="midnightblue" points="409,-253.75 405.5,-243.75 402,-253.75 409,-253.75"/>
</g>
<!-- Node22 -->
<g id="node22" class="node">
<title>Node22</title>
<g id="a_node22"><a xlink:title=" ">
<polygon fill="white" stroke="#bfbfbf" points="460.5,-224.5 460.5,-243.5 534.5,-243.5 534.5,-224.5 460.5,-224.5"/>
<text text-anchor="middle" x="497.5" y="-231.5" font-family="Helvetica,sans-Serif" font-size="10.00">GenericList.h</text>
</a>
</g>
</g>
<!-- Node20&#45;&gt;Node22 -->
<g id="edge31" class="edge">
<title>Node20&#45;&gt;Node22</title>
<path fill="none" stroke="midnightblue" d="M420.28,-280.32C434.77,-271.82 457.07,-258.73 473.99,-248.8"/>
<polygon fill="midnightblue" stroke="midnightblue" points="475.9,-251.74 482.76,-243.65 472.36,-245.7 475.9,-251.74"/>
</g>
</g>
</svg>
