<?xml version="1.0" encoding="UTF-8" standalone="no"?>
<!DOCTYPE svg PUBLIC "-//W3C//DTD SVG 1.1//EN"
 "http://www.w3.org/Graphics/SVG/1.1/DTD/svg11.dtd">
<!-- Generated by graphviz version 2.47.1 (20210417.1919)
 -->
<!-- Title: LoggingSupport.cpp Pages: 1 -->
<svg width="839pt" height="412pt"
 viewBox="0.00 0.00 838.50 412.00" xmlns="http://www.w3.org/2000/svg" xmlns:xlink="http://www.w3.org/1999/xlink">
<g id="graph0" class="graph" transform="scale(1 1) rotate(0) translate(4 408)">
<title>LoggingSupport.cpp</title>
<!-- Node1 -->
<g id="Node000001" class="node">
<title>Node1</title>
<g id="a_Node000001"><a xlink:title="The LoggingSupport body implements a class for simple entry/exit logging to a file or via a callback ...">
<polygon fill="#999999" stroke="#666666" points="354.5,-404 251.5,-404 251.5,-385 354.5,-385 354.5,-404"/>
<text text-anchor="middle" x="303" y="-392" font-family="Helvetica,sans-Serif" font-size="10.00">LoggingSupport.cpp</text>
</a>
</g>
</g>
<!-- Node2 -->
<g id="Node000002" class="node">
<title>Node2</title>
<g id="a_Node000002"><a xlink:title=" ">
<polygon fill="#e0e0e0" stroke="#999999" points="46,-349 0,-349 0,-330 46,-330 46,-349"/>
<text text-anchor="middle" x="23" y="-337" font-family="Helvetica,sans-Serif" font-size="10.00">chrono</text>
</a>
</g>
</g>
<!-- Node1&#45;&gt;Node2 -->
<g id="edge1_Node000001_Node000002" class="edge">
<title>Node1&#45;&gt;Node2</title>
<g id="a_edge1_Node000001_Node000002"><a xlink:title=" ">
<path fill="none" stroke="#63b8ff" d="M252.61,-384.95C203.38,-376.43 126.37,-362.69 60,-349 58.73,-348.74 57.43,-348.47 56.13,-348.19"/>
<polygon fill="#63b8ff" stroke="#63b8ff" points="56.58,-344.7 46.06,-345.96 55.07,-351.54 56.58,-344.7"/>
</a>
</g>
</g>
<!-- Node3 -->
<g id="Node000003" class="node">
<title>Node3</title>
<g id="a_Node000003"><a xlink:title=" ">
<polygon fill="#e0e0e0" stroke="#999999" points="253,-184 207,-184 207,-165 253,-165 253,-184"/>
<text text-anchor="middle" x="230" y="-172" font-family="Helvetica,sans-Serif" font-size="10.00">cstdint</text>
</a>
</g>
</g>
<!-- Node1&#45;&gt;Node3 -->
<g id="edge2_Node000001_Node000003" class="edge">
<title>Node1&#45;&gt;Node3</title>
<g id="a_edge2_Node000001_Node000003"><a xlink:title=" ">
<path fill="none" stroke="#63b8ff" d="M251.36,-389.85C195.74,-384.71 112.56,-373.14 93,-349 45.12,-289.91 153.46,-218.34 204.85,-189.02"/>
<polygon fill="#63b8ff" stroke="#63b8ff" points="206.72,-191.98 213.73,-184.05 203.3,-185.87 206.72,-191.98"/>
</a>
</g>
</g>
<!-- Node4 -->
<g id="Node000004" class="node">
<title>Node4</title>
<g id="a_Node000004"><a xlink:title=" ">
<polygon fill="#e0e0e0" stroke="#999999" points="146,-349 102,-349 102,-330 146,-330 146,-349"/>
<text text-anchor="middle" x="124" y="-337" font-family="Helvetica,sans-Serif" font-size="10.00">mutex</text>
</a>
</g>
</g>
<!-- Node1&#45;&gt;Node4 -->
<g id="edge3_Node000001_Node000004" class="edge">
<title>Node1&#45;&gt;Node4</title>
<g id="a_edge3_Node000001_Node000004"><a xlink:title=" ">
<path fill="none" stroke="#63b8ff" d="M274.24,-384.98C241.91,-375.41 189.55,-359.91 155.96,-349.96"/>
<polygon fill="#63b8ff" stroke="#63b8ff" points="156.77,-346.55 146.19,-347.07 154.78,-353.26 156.77,-346.55"/>
</a>
</g>
</g>
<!-- Node5 -->
<g id="Node000005" class="node">
<title>Node5</title>
<g id="a_Node000005"><a xlink:title=" ">
<polygon fill="#e0e0e0" stroke="#999999" points="216,-349 164,-349 164,-330 216,-330 216,-349"/>
<text text-anchor="middle" x="190" y="-337" font-family="Helvetica,sans-Serif" font-size="10.00">sstream</text>
</a>
</g>
</g>
<!-- Node1&#45;&gt;Node5 -->
<g id="edge4_Node000001_Node000005" class="edge">
<title>Node1&#45;&gt;Node5</title>
<g id="a_edge4_Node000001_Node000005"><a xlink:title=" ">
<path fill="none" stroke="#63b8ff" d="M284.84,-384.98C266.75,-376.5 238.72,-363.35 217.81,-353.54"/>
<polygon fill="#63b8ff" stroke="#63b8ff" points="219.03,-350.25 208.49,-349.17 216.05,-356.59 219.03,-350.25"/>
</a>
</g>
</g>
<!-- Node6 -->
<g id="Node000006" class="node">
<title>Node6</title>
<g id="a_Node000006"><a xlink:title=" ">
<polygon fill="#e0e0e0" stroke="#999999" points="300,-349 234,-349 234,-330 300,-330 300,-349"/>
<text text-anchor="middle" x="267" y="-337" font-family="Helvetica,sans-Serif" font-size="10.00">MyStdLib.h</text>
</a>
</g>
</g>
<!-- Node1&#45;&gt;Node6 -->
<g id="edge5_Node000001_Node000006" class="edge">
<title>Node1&#45;&gt;Node6</title>
<g id="a_edge5_Node000001_Node000006"><a xlink:title=" ">
<path fill="none" stroke="#63b8ff" d="M297.06,-384.75C292.02,-377.34 284.66,-366.5 278.49,-357.41"/>
<polygon fill="#63b8ff" stroke="#63b8ff" points="281.35,-355.39 272.83,-349.09 275.56,-359.33 281.35,-355.39"/>
</a>
</g>
</g>
<!-- Node7 -->
<g id="Node000007" class="node">
<title>Node7</title>
<g id="a_Node000007"><a xlink:title=" ">
<polygon fill="#e0e0e0" stroke="#999999" points="362,-349 318,-349 318,-330 362,-330 362,-349"/>
<text text-anchor="middle" x="340" y="-337" font-family="Helvetica,sans-Serif" font-size="10.00">thread</text>
</a>
</g>
</g>
<!-- Node1&#45;&gt;Node7 -->
<g id="edge6_Node000001_Node000007" class="edge">
<title>Node1&#45;&gt;Node7</title>
<g id="a_edge6_Node000001_Node000007"><a xlink:title=" ">
<path fill="none" stroke="#63b8ff" d="M309.11,-384.75C314.28,-377.34 321.85,-366.5 328.19,-357.41"/>
<polygon fill="#63b8ff" stroke="#63b8ff" points="331.15,-359.29 334,-349.09 325.41,-355.29 331.15,-359.29"/>
</a>
</g>
</g>
<!-- Node8 -->
<g id="Node000008" class="node">
<title>Node8</title>
<g id="a_Node000008"><a xlink:href="_assertion_8h.html" target="_top" xlink:title="The Assertion specification defines macros for pre&#45; and postconditions in functions or methods.">
<polygon fill="white" stroke="#666666" points="472,-74 406,-74 406,-55 472,-55 472,-74"/>
<text text-anchor="middle" x="439" y="-62" font-family="Helvetica,sans-Serif" font-size="10.00">Assertion.h</text>
</a>
</g>
</g>
<!-- Node1&#45;&gt;Node8 -->
<g id="edge7_Node000001_Node000008" class="edge">
<title>Node1&#45;&gt;Node8</title>
<g id="a_edge7_Node000001_Node000008"><a xlink:title=" ">
<path fill="none" stroke="#63b8ff" d="M325.63,-384.87C349.58,-374.27 382.43,-354.61 371,-330 369.68,-327.15 199.32,-186.85 198,-184 194.44,-176.34 193.3,-172.02 198,-165 221.01,-130.61 334.07,-94.59 396.82,-76.81"/>
<polygon fill="#63b8ff" stroke="#63b8ff" points="398.12,-80.08 406.81,-74.02 396.24,-73.34 398.12,-80.08"/>
</a>
</g>
</g>
<!-- Node11 -->
<g id="Node000011" class="node">
<title>Node11</title>
<g id="a_Node000011"><a xlink:href="_file_8h.html" target="_top" xlink:title="The File specification defines a class for simple file handling based on C stdio.">
<polygon fill="white" stroke="#666666" points="459.5,-349 418.5,-349 418.5,-330 459.5,-330 459.5,-349"/>
<text text-anchor="middle" x="439" y="-337" font-family="Helvetica,sans-Serif" font-size="10.00">File.h</text>
</a>
</g>
</g>
<!-- Node1&#45;&gt;Node11 -->
<g id="edge10_Node000001_Node000011" class="edge">
<title>Node1&#45;&gt;Node11</title>
<g id="a_edge10_Node000001_Node000011"><a xlink:title=" ">
<path fill="none" stroke="#63b8ff" d="M324.85,-384.98C347.52,-376.15 383.15,-362.27 408.57,-352.36"/>
<polygon fill="#63b8ff" stroke="#63b8ff" points="410.05,-355.54 418.1,-348.65 407.51,-349.02 410.05,-355.54"/>
</a>
</g>
</g>
<!-- Node24 -->
<g id="Node000024" class="node">
<title>Node24</title>
<g id="a_Node000024"><a xlink:href="_logging_support_8h.html" target="_top" xlink:title="The LoggingSupport specification defines a class for simple entry/exit logging to a file or via an ar...">
<polygon fill="white" stroke="#666666" points="570,-349 478,-349 478,-330 570,-330 570,-349"/>
<text text-anchor="middle" x="524" y="-337" font-family="Helvetica,sans-Serif" font-size="10.00">LoggingSupport.h</text>
</a>
</g>
</g>
<!-- Node1&#45;&gt;Node24 -->
<g id="edge28_Node000001_Node000024" class="edge">
<title>Node1&#45;&gt;Node24</title>
<g id="a_edge28_Node000001_Node000024"><a xlink:title=" ">
<path fill="none" stroke="#63b8ff" d="M338.51,-384.98C376.49,-375.87 436.87,-361.4 478.36,-351.45"/>
<polygon fill="#63b8ff" stroke="#63b8ff" points="479.31,-354.82 488.21,-349.08 477.67,-348.01 479.31,-354.82"/>
</a>
</g>
</g>
<!-- Node25 -->
<g id="Node000025" class="node">
<title>Node25</title>
<g id="a_Node000025"><a xlink:href="_operating_system_8h.html" target="_top" xlink:title="The OperatingSystem specification defines a class for several operating system related utility functi...">
<polygon fill="white" stroke="#666666" points="689.5,-349 588.5,-349 588.5,-330 689.5,-330 689.5,-349"/>
<text text-anchor="middle" x="639" y="-337" font-family="Helvetica,sans-Serif" font-size="10.00">OperatingSystem.h</text>
</a>
</g>
</g>
<!-- Node1&#45;&gt;Node25 -->
<g id="edge31_Node000001_Node000025" class="edge">
<title>Node1&#45;&gt;Node25</title>
<g id="a_edge31_Node000001_Node000025"><a xlink:title=" ">
<path fill="none" stroke="#63b8ff" d="M354.76,-385.33C415.05,-375.83 514.5,-360.14 578.35,-350.07"/>
<polygon fill="#63b8ff" stroke="#63b8ff" points="578.95,-353.52 588.28,-348.5 577.85,-346.6 578.95,-353.52"/>
</a>
</g>
</g>
<!-- Node9 -->
<g id="Node000009" class="node">
<title>Node9</title>
<g id="a_Node000009"><a xlink:title=" ">
<polygon fill="#e0e0e0" stroke="#999999" points="618.5,-19 559.5,-19 559.5,0 618.5,0 618.5,-19"/>
<text text-anchor="middle" x="589" y="-7" font-family="Helvetica,sans-Serif" font-size="10.00">stdexcept</text>
</a>
</g>
</g>
<!-- Node8&#45;&gt;Node9 -->
<g id="edge8_Node000008_Node000009" class="edge">
<title>Node8&#45;&gt;Node9</title>
<g id="a_edge8_Node000008_Node000009"><a xlink:title=" ">
<path fill="none" stroke="#63b8ff" d="M463.1,-54.98C487.88,-46.23 526.7,-32.51 554.69,-22.62"/>
<polygon fill="#63b8ff" stroke="#63b8ff" points="556.2,-25.8 564.46,-19.17 553.87,-19.2 556.2,-25.8"/>
</a>
</g>
</g>
<!-- Node10 -->
<g id="Node000010" class="node">
<title>Node10</title>
<g id="a_Node000010"><a xlink:title=" ">
<polygon fill="#e0e0e0" stroke="#999999" points="458.5,-19 417.5,-19 417.5,0 458.5,0 458.5,-19"/>
<text text-anchor="middle" x="438" y="-7" font-family="Helvetica,sans-Serif" font-size="10.00">string</text>
</a>
</g>
</g>
<!-- Node8&#45;&gt;Node10 -->
<g id="edge9_Node000008_Node000010" class="edge">
<title>Node8&#45;&gt;Node10</title>
<g id="a_edge9_Node000008_Node000010"><a xlink:title=" ">
<path fill="none" stroke="#63b8ff" d="M438.83,-54.75C438.7,-47.8 438.52,-37.85 438.35,-29.13"/>
<polygon fill="#63b8ff" stroke="#63b8ff" points="441.85,-29.02 438.16,-19.09 434.85,-29.15 441.85,-29.02"/>
</a>
</g>
</g>
<!-- Node12 -->
<g id="Node000012" class="node">
<title>Node12</title>
<g id="a_Node000012"><a xlink:href="_boolean_8h.html" target="_top" xlink:title="The Boolean specification and body provides a value object type for boolean values.">
<polygon fill="white" stroke="#666666" points="551,-294 491,-294 491,-275 551,-275 551,-294"/>
<text text-anchor="middle" x="521" y="-282" font-family="Helvetica,sans-Serif" font-size="10.00">Boolean.h</text>
</a>
</g>
</g>
<!-- Node11&#45;&gt;Node12 -->
<g id="edge11_Node000011_Node000012" class="edge">
<title>Node11&#45;&gt;Node12</title>
<g id="a_edge11_Node000011_Node000012"><a xlink:title=" ">
<path fill="none" stroke="#63b8ff" d="M452.17,-329.98C464.77,-321.84 484,-309.41 498.94,-299.76"/>
<polygon fill="#63b8ff" stroke="#63b8ff" points="501.09,-302.54 507.59,-294.17 497.29,-296.66 501.09,-302.54"/>
</a>
</g>
</g>
<!-- Node15 -->
<g id="Node000015" class="node">
<title>Node15</title>
<g id="a_Node000015"><a xlink:href="_byte_list_8h.html" target="_top" xlink:title="The ByteList specification defines lists of byte values with zero&#45;based arbitrary indexed access to p...">
<polygon fill="white" stroke="#666666" points="469.5,-294 408.5,-294 408.5,-275 469.5,-275 469.5,-294"/>
<text text-anchor="middle" x="439" y="-282" font-family="Helvetica,sans-Serif" font-size="10.00">ByteList.h</text>
</a>
</g>
</g>
<!-- Node11&#45;&gt;Node15 -->
<g id="edge15_Node000011_Node000015" class="edge">
<title>Node11&#45;&gt;Node15</title>
<g id="a_edge15_Node000011_Node000015"><a xlink:title=" ">
<path fill="none" stroke="#63b8ff" d="M439,-329.75C439,-322.8 439,-312.85 439,-304.13"/>
<polygon fill="#63b8ff" stroke="#63b8ff" points="442.5,-304.09 439,-294.09 435.5,-304.09 442.5,-304.09"/>
</a>
</g>
</g>
<!-- Node23 -->
<g id="Node000023" class="node">
<title>Node23</title>
<g id="a_Node000023"><a xlink:href="_object_8h.html" target="_top" xlink:title="The Object specification and body provides the root object type.">
<polygon fill="white" stroke="#666666" points="390.5,-294 337.5,-294 337.5,-275 390.5,-275 390.5,-294"/>
<text text-anchor="middle" x="364" y="-282" font-family="Helvetica,sans-Serif" font-size="10.00">Object.h</text>
</a>
</g>
</g>
<!-- Node11&#45;&gt;Node23 -->
<g id="edge27_Node000011_Node000023" class="edge">
<title>Node11&#45;&gt;Node23</title>
<g id="a_edge27_Node000011_Node000023"><a xlink:title=" ">
<path fill="none" stroke="#63b8ff" d="M426.95,-329.98C415.54,-321.92 398.17,-309.65 384.57,-300.03"/>
<polygon fill="#63b8ff" stroke="#63b8ff" points="386.46,-297.08 376.27,-294.17 382.42,-302.8 386.46,-297.08"/>
</a>
</g>
</g>
<!-- Node13 -->
<g id="Node000013" class="node">
<title>Node13</title>
<g id="a_Node000013"><a xlink:href="_my_string_8h.html" target="_top" xlink:title="The String specification defines a standard string type.">
<polygon fill="white" stroke="#666666" points="388,-74 324,-74 324,-55 388,-55 388,-74"/>
<text text-anchor="middle" x="356" y="-62" font-family="Helvetica,sans-Serif" font-size="10.00">MyString.h</text>
</a>
</g>
</g>
<!-- Node12&#45;&gt;Node13 -->
<g id="edge12_Node000012_Node000013" class="edge">
<title>Node12&#45;&gt;Node13</title>
<g id="a_edge12_Node000012_Node000013"><a xlink:title=" ">
<path fill="none" stroke="#63b8ff" d="M523.85,-274.73C530.02,-254.04 542.48,-201.16 522,-165 495.51,-118.24 437.32,-91.07 397.39,-77.26"/>
<polygon fill="#63b8ff" stroke="#63b8ff" points="398.25,-73.86 387.66,-74.04 396.05,-80.51 398.25,-73.86"/>
</a>
</g>
</g>
<!-- Node13&#45;&gt;Node10 -->
<g id="edge13_Node000013_Node000010" class="edge">
<title>Node13&#45;&gt;Node10</title>
<g id="a_edge13_Node000013_Node000010"><a xlink:title=" ">
<path fill="none" stroke="#63b8ff" d="M369.17,-54.98C381.77,-46.84 401,-34.41 415.94,-24.76"/>
<polygon fill="#63b8ff" stroke="#63b8ff" points="418.09,-27.54 424.59,-19.17 414.29,-21.66 418.09,-27.54"/>
</a>
</g>
</g>
<!-- Node14 -->
<g id="Node000014" class="node">
<title>Node14</title>
<g id="a_Node000014"><a xlink:href="_global_macros_8h.html" target="_top" xlink:title="The GlobalMacros specification defines simple macros (e.g. for parameter modes).">
<polygon fill="white" stroke="#666666" points="398.5,-19 313.5,-19 313.5,0 398.5,0 398.5,-19"/>
<text text-anchor="middle" x="356" y="-7" font-family="Helvetica,sans-Serif" font-size="10.00">GlobalMacros.h</text>
</a>
</g>
</g>
<!-- Node13&#45;&gt;Node14 -->
<g id="edge14_Node000013_Node000014" class="edge">
<title>Node13&#45;&gt;Node14</title>
<g id="a_edge14_Node000013_Node000014"><a xlink:title=" ">
<path fill="none" stroke="#63b8ff" d="M356,-54.75C356,-47.8 356,-37.85 356,-29.13"/>
<polygon fill="#63b8ff" stroke="#63b8ff" points="359.5,-29.09 356,-19.09 352.5,-29.09 359.5,-29.09"/>
</a>
</g>
</g>
<!-- Node16 -->
<g id="Node000016" class="node">
<title>Node16</title>
<g id="a_Node000016"><a xlink:href="_byte_8h.html" target="_top" xlink:title="The Byte specification and body provides a value object type for byte values.">
<polygon fill="white" stroke="#666666" points="322.5,-239 277.5,-239 277.5,-220 322.5,-220 322.5,-239"/>
<text text-anchor="middle" x="300" y="-227" font-family="Helvetica,sans-Serif" font-size="10.00">Byte.h</text>
</a>
</g>
</g>
<!-- Node15&#45;&gt;Node16 -->
<g id="edge16_Node000015_Node000016" class="edge">
<title>Node15&#45;&gt;Node16</title>
<g id="a_edge16_Node000015_Node000016"><a xlink:title=" ">
<path fill="none" stroke="#63b8ff" d="M416.67,-274.98C393.8,-266.27 358.04,-252.63 332.14,-242.75"/>
<polygon fill="#63b8ff" stroke="#63b8ff" points="333.33,-239.46 322.74,-239.17 330.84,-246 333.33,-239.46"/>
</a>
</g>
</g>
<!-- Node20 -->
<g id="Node000020" class="node">
<title>Node20</title>
<g id="a_Node000020"><a xlink:href="_string_list_8h.html" target="_top" xlink:title="The StringList specification defines lists of string values with zero&#45;based arbitrary indexed access ...">
<polygon fill="white" stroke="#666666" points="472,-239 406,-239 406,-220 472,-220 472,-239"/>
<text text-anchor="middle" x="439" y="-227" font-family="Helvetica,sans-Serif" font-size="10.00">StringList.h</text>
</a>
</g>
</g>
<!-- Node15&#45;&gt;Node20 -->
<g id="edge24_Node000015_Node000020" class="edge">
<title>Node15&#45;&gt;Node20</title>
<g id="a_edge24_Node000015_Node000020"><a xlink:title=" ">
<path fill="none" stroke="#63b8ff" d="M439,-274.75C439,-267.8 439,-257.85 439,-249.13"/>
<polygon fill="#63b8ff" stroke="#63b8ff" points="442.5,-249.09 439,-239.09 435.5,-249.09 442.5,-249.09"/>
</a>
</g>
</g>
<!-- Node16&#45;&gt;Node3 -->
<g id="edge18_Node000016_Node000003" class="edge">
<title>Node16&#45;&gt;Node3</title>
<g id="a_edge18_Node000016_Node000003"><a xlink:title=" ">
<path fill="none" stroke="#63b8ff" d="M288.75,-219.98C278.2,-212 262.2,-199.88 249.56,-190.31"/>
<polygon fill="#63b8ff" stroke="#63b8ff" points="251.54,-187.42 241.45,-184.17 247.31,-193 251.54,-187.42"/>
</a>
</g>
</g>
<!-- Node17 -->
<g id="Node000017" class="node">
<title>Node17</title>
<g id="a_Node000017"><a xlink:title=" ">
<polygon fill="#e0e0e0" stroke="#999999" points="644,-74 600,-74 600,-55 644,-55 644,-74"/>
<text text-anchor="middle" x="622" y="-62" font-family="Helvetica,sans-Serif" font-size="10.00">cmath</text>
</a>
</g>
</g>
<!-- Node16&#45;&gt;Node17 -->
<g id="edge17_Node000016_Node000017" class="edge">
<title>Node16&#45;&gt;Node17</title>
<g id="a_edge17_Node000016_Node000017"><a xlink:title=" ">
<path fill="none" stroke="#63b8ff" d="M299.7,-219.88C299.7,-206.4 301.72,-180.28 316,-165 325.7,-154.62 513.22,-97.91 589.82,-75.05"/>
<polygon fill="#63b8ff" stroke="#63b8ff" points="591.28,-78.27 599.86,-72.06 589.28,-71.56 591.28,-78.27"/>
</a>
</g>
</g>
<!-- Node18 -->
<g id="Node000018" class="node">
<title>Node18</title>
<g id="a_Node000018"><a xlink:href="_natural_8h.html" target="_top" xlink:title="The Natural specification and body provides a value object type for naturals (positive integers with ...">
<polygon fill="white" stroke="#666666" points="579,-129 523,-129 523,-110 579,-110 579,-129"/>
<text text-anchor="middle" x="551" y="-117" font-family="Helvetica,sans-Serif" font-size="10.00">Natural.h</text>
</a>
</g>
</g>
<!-- Node16&#45;&gt;Node18 -->
<g id="edge19_Node000016_Node000018" class="edge">
<title>Node16&#45;&gt;Node18</title>
<g id="a_edge19_Node000016_Node000018"><a xlink:title=" ">
<path fill="none" stroke="#63b8ff" d="M302.6,-219.96C307.29,-206.1 318.53,-178.86 338,-165 390.25,-127.8 466.88,-120.37 512.57,-119.58"/>
<polygon fill="#63b8ff" stroke="#63b8ff" points="512.68,-123.08 522.66,-119.51 512.63,-116.08 512.68,-123.08"/>
</a>
</g>
</g>
<!-- Node18&#45;&gt;Node8 -->
<g id="edge21_Node000018_Node000008" class="edge">
<title>Node18&#45;&gt;Node8</title>
<g id="a_edge21_Node000018_Node000008"><a xlink:title=" ">
<path fill="none" stroke="#63b8ff" d="M533.01,-109.98C515.07,-101.5 487.28,-88.35 466.57,-78.54"/>
<polygon fill="#63b8ff" stroke="#63b8ff" points="467.86,-75.28 457.32,-74.17 464.86,-81.61 467.86,-75.28"/>
</a>
</g>
</g>
<!-- Node18&#45;&gt;Node13 -->
<g id="edge23_Node000018_Node000013" class="edge">
<title>Node18&#45;&gt;Node13</title>
<g id="a_edge23_Node000018_Node000013"><a xlink:title=" ">
<path fill="none" stroke="#63b8ff" d="M522.65,-110.79C489.58,-101.81 434.66,-86.88 396.96,-76.63"/>
<polygon fill="#63b8ff" stroke="#63b8ff" points="397.86,-73.25 387.3,-74.01 396.03,-80.01 397.86,-73.25"/>
</a>
</g>
</g>
<!-- Node18&#45;&gt;Node17 -->
<g id="edge20_Node000018_Node000017" class="edge">
<title>Node18&#45;&gt;Node17</title>
<g id="a_edge20_Node000018_Node000017"><a xlink:title=" ">
<path fill="none" stroke="#63b8ff" d="M562.41,-109.98C573.11,-102 589.34,-89.88 602.16,-80.31"/>
<polygon fill="#63b8ff" stroke="#63b8ff" points="604.47,-82.96 610.39,-74.17 600.28,-77.35 604.47,-82.96"/>
</a>
</g>
</g>
<!-- Node19 -->
<g id="Node000019" class="node">
<title>Node19</title>
<g id="a_Node000019"><a xlink:title=" ">
<polygon fill="#e0e0e0" stroke="#999999" points="582,-74 490,-74 490,-55 582,-55 582,-74"/>
<text text-anchor="middle" x="536" y="-62" font-family="Helvetica,sans-Serif" font-size="10.00">GenericNumber.h</text>
</a>
</g>
</g>
<!-- Node18&#45;&gt;Node19 -->
<g id="edge22_Node000018_Node000019" class="edge">
<title>Node18&#45;&gt;Node19</title>
<g id="a_edge22_Node000018_Node000019"><a xlink:title=" ">
<path fill="none" stroke="#63b8ff" d="M548.52,-109.75C546.54,-102.72 543.68,-92.62 541.19,-83.84"/>
<polygon fill="#63b8ff" stroke="#63b8ff" points="544.52,-82.76 538.43,-74.09 537.79,-84.66 544.52,-82.76"/>
</a>
</g>
</g>
<!-- Node21 -->
<g id="Node000021" class="node">
<title>Node21</title>
<g id="a_Node000021"><a xlink:title=" ">
<polygon fill="#e0e0e0" stroke="#999999" points="512.5,-184 439.5,-184 439.5,-165 512.5,-165 512.5,-184"/>
<text text-anchor="middle" x="476" y="-172" font-family="Helvetica,sans-Serif" font-size="10.00">initializer_list</text>
</a>
</g>
</g>
<!-- Node20&#45;&gt;Node21 -->
<g id="edge25_Node000020_Node000021" class="edge">
<title>Node20&#45;&gt;Node21</title>
<g id="a_edge25_Node000020_Node000021"><a xlink:title=" ">
<path fill="none" stroke="#63b8ff" d="M445.11,-219.75C450.28,-212.34 457.85,-201.5 464.19,-192.41"/>
<polygon fill="#63b8ff" stroke="#63b8ff" points="467.15,-194.29 470,-184.09 461.41,-190.29 467.15,-194.29"/>
</a>
</g>
</g>
<!-- Node22 -->
<g id="Node000022" class="node">
<title>Node22</title>
<g id="a_Node000022"><a xlink:title=" ">
<polygon fill="#e0e0e0" stroke="#999999" points="421,-184 347,-184 347,-165 421,-165 421,-184"/>
<text text-anchor="middle" x="384" y="-172" font-family="Helvetica,sans-Serif" font-size="10.00">GenericList.h</text>
</a>
</g>
</g>
<!-- Node20&#45;&gt;Node22 -->
<g id="edge26_Node000020_Node000022" class="edge">
<title>Node20&#45;&gt;Node22</title>
<g id="a_edge26_Node000020_Node000022"><a xlink:title=" ">
<path fill="none" stroke="#63b8ff" d="M429.92,-219.75C421.91,-212.03 410.04,-200.6 400.38,-191.28"/>
<polygon fill="#63b8ff" stroke="#63b8ff" points="402.54,-188.51 392.91,-184.09 397.69,-193.55 402.54,-188.51"/>
</a>
</g>
</g>
<!-- Node24&#45;&gt;Node12 -->
<g id="edge29_Node000024_Node000012" class="edge">
<title>Node24&#45;&gt;Node12</title>
<g id="a_edge29_Node000024_Node000012"><a xlink:title=" ">
<path fill="none" stroke="#63b8ff" d="M523.5,-329.75C523.11,-322.8 522.55,-312.85 522.05,-304.13"/>
<polygon fill="#63b8ff" stroke="#63b8ff" points="525.55,-303.88 521.49,-294.09 518.56,-304.27 525.55,-303.88"/>
</a>
</g>
</g>
<!-- Node24&#45;&gt;Node18 -->
<g id="edge30_Node000024_Node000018" class="edge">
<title>Node24&#45;&gt;Node18</title>
<g id="a_edge30_Node000024_Node000018"><a xlink:title=" ">
<path fill="none" stroke="#63b8ff" d="M534.16,-329.81C542.9,-321.6 554.9,-308.43 560,-294 578.99,-240.33 565.09,-171.49 556.47,-139.02"/>
<polygon fill="#63b8ff" stroke="#63b8ff" points="559.77,-137.82 553.7,-129.14 553.03,-139.71 559.77,-137.82"/>
</a>
</g>
</g>
<!-- Node25&#45;&gt;Node12 -->
<g id="edge32_Node000025_Node000012" class="edge">
<title>Node25&#45;&gt;Node12</title>
<g id="a_edge32_Node000025_Node000012"><a xlink:title=" ">
<path fill="none" stroke="#63b8ff" d="M620.04,-329.98C600.97,-321.42 571.34,-308.11 549.45,-298.28"/>
<polygon fill="#63b8ff" stroke="#63b8ff" points="550.86,-295.07 540.3,-294.17 547.99,-301.46 550.86,-295.07"/>
</a>
</g>
</g>
<!-- Node25&#45;&gt;Node18 -->
<g id="edge35_Node000025_Node000018" class="edge">
<title>Node25&#45;&gt;Node18</title>
<g id="a_edge35_Node000025_Node000018"><a xlink:title=" ">
<path fill="none" stroke="#63b8ff" d="M636.68,-329.95C629.56,-304.28 606.8,-225.9 578,-165 573.56,-155.61 567.66,-145.67 562.51,-137.58"/>
<polygon fill="#63b8ff" stroke="#63b8ff" points="565.34,-135.52 556.94,-129.07 559.48,-139.35 565.34,-135.52"/>
</a>
</g>
</g>
<!-- Node26 -->
<g id="Node000026" class="node">
<title>Node26</title>
<g id="a_Node000026"><a xlink:href="_dictionary_8h.html" target="_top" xlink:title="The Dictionary specification defines maps from string keys to string values.">
<polygon fill="white" stroke="#666666" points="713,-294 645,-294 645,-275 713,-275 713,-294"/>
<text text-anchor="middle" x="679" y="-282" font-family="Helvetica,sans-Serif" font-size="10.00">Dictionary.h</text>
</a>
</g>
</g>
<!-- Node25&#45;&gt;Node26 -->
<g id="edge33_Node000025_Node000026" class="edge">
<title>Node25&#45;&gt;Node26</title>
<g id="a_edge33_Node000025_Node000026"><a xlink:title=" ">
<path fill="none" stroke="#63b8ff" d="M645.61,-329.75C651.26,-322.26 659.54,-311.28 666.45,-302.13"/>
<polygon fill="#63b8ff" stroke="#63b8ff" points="669.29,-304.18 672.52,-294.09 663.7,-299.96 669.29,-304.18"/>
</a>
</g>
</g>
<!-- Node28 -->
<g id="Node000028" class="node">
<title>Node28</title>
<g id="a_Node000028"><a xlink:href="_time_and_duration_8h.html" target="_top" xlink:title="The TimeAndDuration specification and body provides types for time and duration.">
<polygon fill="white" stroke="#666666" points="830.5,-294 731.5,-294 731.5,-275 830.5,-275 830.5,-294"/>
<text text-anchor="middle" x="781" y="-282" font-family="Helvetica,sans-Serif" font-size="10.00">TimeAndDuration.h</text>
</a>
</g>
</g>
<!-- Node25&#45;&gt;Node28 -->
<g id="edge36_Node000025_Node000028" class="edge">
<title>Node25&#45;&gt;Node28</title>
<g id="a_edge36_Node000025_Node000028"><a xlink:title=" ">
<path fill="none" stroke="#63b8ff" d="M661.81,-329.98C685.17,-321.27 721.7,-307.63 748.17,-297.75"/>
<polygon fill="#63b8ff" stroke="#63b8ff" points="749.63,-300.95 757.77,-294.17 747.18,-294.39 749.63,-300.95"/>
</a>
</g>
</g>
<!-- Node27 -->
<g id="Node000027" class="node">
<title>Node27</title>
<g id="a_Node000027"><a xlink:title=" ">
<polygon fill="#e0e0e0" stroke="#999999" points="722.5,-239 645.5,-239 645.5,-220 722.5,-220 722.5,-239"/>
<text text-anchor="middle" x="684" y="-227" font-family="Helvetica,sans-Serif" font-size="10.00">GenericMap.h</text>
</a>
</g>
</g>
<!-- Node26&#45;&gt;Node27 -->
<g id="edge34_Node000026_Node000027" class="edge">
<title>Node26&#45;&gt;Node27</title>
<g id="a_edge34_Node000026_Node000027"><a xlink:title=" ">
<path fill="none" stroke="#63b8ff" d="M679.83,-274.75C680.48,-267.8 681.42,-257.85 682.24,-249.13"/>
<polygon fill="#63b8ff" stroke="#63b8ff" points="685.73,-249.37 683.19,-239.09 678.77,-248.72 685.73,-249.37"/>
</a>
</g>
</g>
<!-- Node29 -->
<g id="Node000029" class="node">
<title>Node29</title>
<g id="a_Node000029"><a xlink:href="_real_8h.html" target="_top" xlink:title="The Real specification defines a value object type for real values.">
<polygon fill="white" stroke="#666666" points="794,-239 750,-239 750,-220 794,-220 794,-239"/>
<text text-anchor="middle" x="772" y="-227" font-family="Helvetica,sans-Serif" font-size="10.00">Real.h</text>
</a>
</g>
</g>
<!-- Node28&#45;&gt;Node29 -->
<g id="edge37_Node000028_Node000029" class="edge">
<title>Node28&#45;&gt;Node29</title>
<g id="a_edge37_Node000028_Node000029"><a xlink:title=" ">
<path fill="none" stroke="#63b8ff" d="M779.51,-274.75C778.33,-267.8 776.64,-257.85 775.16,-249.13"/>
<polygon fill="#63b8ff" stroke="#63b8ff" points="778.58,-248.36 773.46,-239.09 771.68,-249.53 778.58,-248.36"/>
</a>
</g>
</g>
<!-- Node30 -->
<g id="Node000030" class="node">
<title>Node30</title>
<g id="a_Node000030"><a xlink:href="_integer_8h.html" target="_top" xlink:title="The Integer specification and body provides a value object type for ints.">
<polygon fill="white" stroke="#666666" points="699,-184 645,-184 645,-165 699,-165 699,-184"/>
<text text-anchor="middle" x="672" y="-172" font-family="Helvetica,sans-Serif" font-size="10.00">Integer.h</text>
</a>
</g>
</g>
<!-- Node29&#45;&gt;Node30 -->
<g id="edge38_Node000029_Node000030" class="edge">
<title>Node29&#45;&gt;Node30</title>
<g id="a_edge38_Node000029_Node000030"><a xlink:title=" ">
<path fill="none" stroke="#63b8ff" d="M755.93,-219.98C740.14,-211.61 715.78,-198.7 697.37,-188.95"/>
<polygon fill="#63b8ff" stroke="#63b8ff" points="698.83,-185.76 688.36,-184.17 695.56,-191.95 698.83,-185.76"/>
</a>
</g>
</g>
<!-- Node30&#45;&gt;Node9 -->
<g id="edge40_Node000030_Node000009" class="edge">
<title>Node30&#45;&gt;Node9</title>
<g id="a_edge40_Node000030_Node000009"><a xlink:title=" ">
<path fill="none" stroke="#63b8ff" d="M672.79,-164.97C674.27,-144.34 675.51,-90.81 653,-55 644.66,-41.72 630.75,-31.35 618.03,-23.97"/>
<polygon fill="#63b8ff" stroke="#63b8ff" points="619.54,-20.8 609.08,-19.13 616.21,-26.96 619.54,-20.8"/>
</a>
</g>
</g>
<!-- Node30&#45;&gt;Node17 -->
<g id="edge39_Node000030_Node000017" class="edge">
<title>Node30&#45;&gt;Node17</title>
<g id="a_edge39_Node000030_Node000017"><a xlink:title=" ">
<path fill="none" stroke="#63b8ff" d="M667.91,-164.66C659.7,-146.93 641.09,-106.73 630.25,-83.32"/>
<polygon fill="#63b8ff" stroke="#63b8ff" points="633.39,-81.76 626.01,-74.16 627.03,-84.7 633.39,-81.76"/>
</a>
</g>
</g>
<!-- Node30&#45;&gt;Node18 -->
<g id="edge41_Node000030_Node000018" class="edge">
<title>Node30&#45;&gt;Node18</title>
<g id="a_edge41_Node000030_Node000018"><a xlink:title=" ">
<path fill="none" stroke="#63b8ff" d="M652.56,-164.98C633.01,-156.42 602.62,-143.11 580.18,-133.28"/>
<polygon fill="#63b8ff" stroke="#63b8ff" points="581.36,-129.98 570.79,-129.17 578.55,-136.39 581.36,-129.98"/>
</a>
</g>
</g>
</g>
</svg>
