<?xml version="1.0" encoding="UTF-8" standalone="no"?>
<!DOCTYPE svg PUBLIC "-//W3C//DTD SVG 1.1//EN"
 "http://www.w3.org/Graphics/SVG/1.1/DTD/svg11.dtd">
<!-- Generated by graphviz version 2.47.1 (20210417.1919)
 -->
<!-- Title: LoggingSupport.h Pages: 1 -->
<svg width="2403pt" height="308pt"
 viewBox="0.00 0.00 2403.00 308.00" xmlns="http://www.w3.org/2000/svg" xmlns:xlink="http://www.w3.org/1999/xlink">
<g id="graph0" class="graph" transform="scale(1 1) rotate(0) translate(4 304)">
<title>LoggingSupport.h</title>
<polygon fill="white" stroke="transparent" points="-4,4 -4,-304 2399,-304 2399,4 -4,4"/>
<!-- Node1 -->
<g id="node1" class="node">
<title>Node1</title>
<g id="a_node1"><a xlink:title="The LoggingSupport specification defines a class for simple entry/exit logging to a file or via an ar...">
<polygon fill="#bfbfbf" stroke="black" points="1091,-280.5 1091,-299.5 1183,-299.5 1183,-280.5 1091,-280.5"/>
<text text-anchor="middle" x="1137" y="-287.5" font-family="Helvetica,sans-Serif" font-size="10.00">LoggingSupport.h</text>
</a>
</g>
</g>
<!-- Node2 -->
<g id="node2" class="node">
<title>Node2</title>
<g id="a_node2"><a xlink:href="_logging_8h.html" target="_top" xlink:title="The Logging specification defines macros for entry&#45;, exit&#45; and intermediate logging of functions into...">
<polygon fill="white" stroke="black" points="1058.5,-224.5 1058.5,-243.5 1117.5,-243.5 1117.5,-224.5 1058.5,-224.5"/>
<text text-anchor="middle" x="1088" y="-231.5" font-family="Helvetica,sans-Serif" font-size="10.00">Logging.h</text>
</a>
</g>
</g>
<!-- Node1&#45;&gt;Node2 -->
<g id="edge1" class="edge">
<title>Node1&#45;&gt;Node2</title>
<path fill="none" stroke="midnightblue" d="M1121.97,-272.43C1113.38,-262.97 1102.96,-251.48 1095.94,-243.75"/>
<polygon fill="midnightblue" stroke="midnightblue" points="1119.6,-275.03 1128.91,-280.08 1124.78,-270.33 1119.6,-275.03"/>
</g>
<!-- Node26 -->
<g id="node26" class="node">
<title>Node26</title>
<g id="a_node26"><a xlink:href="_logging_support_8cpp.html" target="_top" xlink:title="The LoggingSupport body implements a class for simple entry/exit logging to a file or via a callback ...">
<polygon fill="white" stroke="black" points="1135.5,-224.5 1135.5,-243.5 1238.5,-243.5 1238.5,-224.5 1135.5,-224.5"/>
<text text-anchor="middle" x="1187" y="-231.5" font-family="Helvetica,sans-Serif" font-size="10.00">LoggingSupport.cpp</text>
</a>
</g>
</g>
<!-- Node1&#45;&gt;Node26 -->
<g id="edge27" class="edge">
<title>Node1&#45;&gt;Node26</title>
<path fill="none" stroke="midnightblue" d="M1152.08,-272.72C1160.89,-263.2 1171.67,-251.56 1178.9,-243.75"/>
<polygon fill="midnightblue" stroke="midnightblue" points="1149.48,-270.37 1145.26,-280.08 1154.62,-275.12 1149.48,-270.37"/>
</g>
<!-- Node3 -->
<g id="node3" class="node">
<title>Node3</title>
<g id="a_node3"><a xlink:href="_audio_sample_fifo_queue_8cpp-inc.html" target="_top" xlink:title="The AudioSampleFifoQueue body implements a fifo queue for audio samples with popping off access to th...">
<polygon fill="white" stroke="black" points="84.5,-168.5 84.5,-187.5 237.5,-187.5 237.5,-168.5 84.5,-168.5"/>
<text text-anchor="middle" x="161" y="-175.5" font-family="Helvetica,sans-Serif" font-size="10.00">AudioSampleFifoQueue.cpp&#45;inc</text>
</a>
</g>
</g>
<!-- Node2&#45;&gt;Node3 -->
<g id="edge2" class="edge">
<title>Node2&#45;&gt;Node3</title>
<path fill="none" stroke="midnightblue" d="M1048.15,-231.49C927.88,-226.79 557.98,-211.35 252,-188 247.41,-187.65 242.69,-187.26 237.93,-186.85"/>
<polygon fill="midnightblue" stroke="midnightblue" points="1048.22,-234.99 1058.35,-231.89 1048.49,-228 1048.22,-234.99"/>
</g>
<!-- Node8 -->
<g id="node8" class="node">
<title>Node8</title>
<g id="a_node8"><a xlink:href="_fluid_synth_plugin___event_processor_8cpp.html" target="_top" xlink:title="The FluidSynthPlugin_Processor module implements the handling of MIDI events from the DAW via JUCE ha...">
<polygon fill="white" stroke="black" points="0,-0.5 0,-19.5 182,-19.5 182,-0.5 0,-0.5"/>
<text text-anchor="middle" x="91" y="-7.5" font-family="Helvetica,sans-Serif" font-size="10.00">FluidSynthPlugin_EventProcessor.cpp</text>
</a>
</g>
</g>
<!-- Node2&#45;&gt;Node8 -->
<g id="edge21" class="edge">
<title>Node2&#45;&gt;Node8</title>
<path fill="none" stroke="midnightblue" d="M1048.26,-232.75C865.03,-231.42 109.21,-223.76 75,-188 29.36,-140.29 71.2,-48.66 86.16,-19.88"/>
<polygon fill="midnightblue" stroke="midnightblue" points="1048.25,-236.25 1058.27,-232.82 1048.3,-229.25 1048.25,-236.25"/>
</g>
<!-- Node9 -->
<g id="node9" class="node">
<title>Node9</title>
<g id="a_node9"><a xlink:href="_audio_sample_fifo_queue_vector_8cpp-inc.html" target="_top" xlink:title="The AudioSampleFifoQueueVector body implements a list of fifo queues for audio samples (this is the e...">
<polygon fill="white" stroke="black" points="235,-112.5 235,-131.5 417,-131.5 417,-112.5 235,-112.5"/>
<text text-anchor="middle" x="326" y="-119.5" font-family="Helvetica,sans-Serif" font-size="10.00">AudioSampleFifoQueueVector.cpp&#45;inc</text>
</a>
</g>
</g>
<!-- Node2&#45;&gt;Node9 -->
<g id="edge8" class="edge">
<title>Node2&#45;&gt;Node9</title>
<path fill="none" stroke="midnightblue" d="M1047.87,-232.26C889.01,-229.16 311.46,-215.99 285,-188 268.23,-170.26 296.38,-144.67 313.81,-131.51"/>
<polygon fill="midnightblue" stroke="midnightblue" points="1048.08,-235.77 1058.15,-232.46 1048.22,-228.77 1048.08,-235.77"/>
</g>
<!-- Node10 -->
<g id="node10" class="node">
<title>Node10</title>
<g id="a_node10"><a xlink:href="_wave_file_8cpp.html" target="_top" xlink:title="The WaveFile specification defines an object for accessing a RIFF wave file with several channels.">
<polygon fill="white" stroke="black" points="294.5,-168.5 294.5,-187.5 369.5,-187.5 369.5,-168.5 294.5,-168.5"/>
<text text-anchor="middle" x="332" y="-175.5" font-family="Helvetica,sans-Serif" font-size="10.00">WaveFile.cpp</text>
</a>
</g>
</g>
<!-- Node2&#45;&gt;Node10 -->
<g id="edge10" class="edge">
<title>Node2&#45;&gt;Node10</title>
<path fill="none" stroke="midnightblue" d="M1048.4,-232.23C940.54,-229.76 632.7,-220.21 379,-188 375.95,-187.61 372.8,-187.15 369.64,-186.64"/>
<polygon fill="midnightblue" stroke="midnightblue" points="1048.42,-235.73 1058.5,-232.46 1048.58,-228.74 1048.42,-235.73"/>
</g>
<!-- Node11 -->
<g id="node11" class="node">
<title>Node11</title>
<g id="a_node11"><a xlink:href="_command_line_arguments_8cpp.html" target="_top" xlink:title="The CommandLineArguments body implements a handler for command&#45;line arguments converting them to a li...">
<polygon fill="white" stroke="black" points="387.5,-168.5 387.5,-187.5 532.5,-187.5 532.5,-168.5 387.5,-168.5"/>
<text text-anchor="middle" x="460" y="-175.5" font-family="Helvetica,sans-Serif" font-size="10.00">CommandLineArguments.cpp</text>
</a>
</g>
</g>
<!-- Node2&#45;&gt;Node11 -->
<g id="edge11" class="edge">
<title>Node2&#45;&gt;Node11</title>
<path fill="none" stroke="midnightblue" d="M1048.34,-230.1C958.27,-223.44 731.43,-206.2 542,-188 539.01,-187.71 535.95,-187.41 532.87,-187.1"/>
<polygon fill="midnightblue" stroke="midnightblue" points="1048.15,-233.6 1058.38,-230.84 1048.67,-226.62 1048.15,-233.6"/>
</g>
<!-- Node12 -->
<g id="node12" class="node">
<title>Node12</title>
<g id="a_node12"><a xlink:href="_environment_8cpp.html" target="_top" xlink:title="The Environment body implements operating system services related to environment variables.">
<polygon fill="white" stroke="black" points="550.5,-168.5 550.5,-187.5 639.5,-187.5 639.5,-168.5 550.5,-168.5"/>
<text text-anchor="middle" x="595" y="-175.5" font-family="Helvetica,sans-Serif" font-size="10.00">Environment.cpp</text>
</a>
</g>
</g>
<!-- Node2&#45;&gt;Node12 -->
<g id="edge12" class="edge">
<title>Node2&#45;&gt;Node12</title>
<path fill="none" stroke="midnightblue" d="M1048.15,-229.76C970.94,-223.3 795.67,-207.72 649,-188 645.99,-187.59 642.88,-187.15 639.76,-186.68"/>
<polygon fill="midnightblue" stroke="midnightblue" points="1048.12,-233.27 1058.38,-230.61 1048.7,-226.3 1048.12,-233.27"/>
</g>
<!-- Node13 -->
<g id="node13" class="node">
<title>Node13</title>
<g id="a_node13"><a xlink:href="_operating_system_8cpp.html" target="_top" xlink:title="The OperatingSystem body implements a class for several operating system related utility functions (l...">
<polygon fill="white" stroke="black" points="657.5,-168.5 657.5,-187.5 768.5,-187.5 768.5,-168.5 657.5,-168.5"/>
<text text-anchor="middle" x="713" y="-175.5" font-family="Helvetica,sans-Serif" font-size="10.00">OperatingSystem.cpp</text>
</a>
</g>
</g>
<!-- Node2&#45;&gt;Node13 -->
<g id="edge13" class="edge">
<title>Node2&#45;&gt;Node13</title>
<path fill="none" stroke="midnightblue" d="M1048.09,-227.25C980.95,-217.58 845.23,-198.04 768.72,-187.02"/>
<polygon fill="midnightblue" stroke="midnightblue" points="1047.86,-230.76 1058.26,-228.72 1048.86,-223.83 1047.86,-230.76"/>
</g>
<!-- Node14 -->
<g id="node14" class="node">
<title>Node14</title>
<g id="a_node14"><a xlink:href="_fluid_synth_8cpp.html" target="_top" xlink:title="The FluidSynth class implements the access to the fluidsynth library via a dynamic loading of it.">
<polygon fill="white" stroke="black" points="787,-168.5 787,-187.5 869,-187.5 869,-168.5 787,-168.5"/>
<text text-anchor="middle" x="828" y="-175.5" font-family="Helvetica,sans-Serif" font-size="10.00">FluidSynth.cpp</text>
</a>
</g>
</g>
<!-- Node2&#45;&gt;Node14 -->
<g id="edge14" class="edge">
<title>Node2&#45;&gt;Node14</title>
<path fill="none" stroke="midnightblue" d="M1048.62,-224.82C1000.16,-214.76 918.29,-197.75 869.07,-187.53"/>
<polygon fill="midnightblue" stroke="midnightblue" points="1047.93,-228.25 1058.43,-226.86 1049.35,-221.4 1047.93,-228.25"/>
</g>
<!-- Node15 -->
<g id="node15" class="node">
<title>Node15</title>
<g id="a_node15"><a xlink:href="_fluid_synth_settings_8cpp.html" target="_top" xlink:title="The FluidSynthSettings class implements an object&#45;oriented wrapper around an underlying fluidsynth se...">
<polygon fill="white" stroke="black" points="887,-168.5 887,-187.5 1005,-187.5 1005,-168.5 887,-168.5"/>
<text text-anchor="middle" x="946" y="-175.5" font-family="Helvetica,sans-Serif" font-size="10.00">FluidSynthSettings.cpp</text>
</a>
</g>
</g>
<!-- Node2&#45;&gt;Node15 -->
<g id="edge15" class="edge">
<title>Node2&#45;&gt;Node15</title>
<path fill="none" stroke="midnightblue" d="M1055.84,-220.77C1029.17,-210.63 991.93,-196.47 968.4,-187.52"/>
<polygon fill="midnightblue" stroke="midnightblue" points="1054.91,-224.16 1065.5,-224.44 1057.4,-217.62 1054.91,-224.16"/>
</g>
<!-- Node16 -->
<g id="node16" class="node">
<title>Node16</title>
<g id="a_node16"><a xlink:href="_fluid_synth_sound_font_8cpp.html" target="_top" xlink:title="The FluidSynthSoundFont class implements an object&#45;oriented wrapper around an underlying fluidsynth s...">
<polygon fill="white" stroke="black" points="1023.5,-168.5 1023.5,-187.5 1152.5,-187.5 1152.5,-168.5 1023.5,-168.5"/>
<text text-anchor="middle" x="1088" y="-175.5" font-family="Helvetica,sans-Serif" font-size="10.00">FluidSynthSoundFont.cpp</text>
</a>
</g>
</g>
<!-- Node2&#45;&gt;Node16 -->
<g id="edge16" class="edge">
<title>Node2&#45;&gt;Node16</title>
<path fill="none" stroke="midnightblue" d="M1088,-213.8C1088,-204.91 1088,-194.78 1088,-187.75"/>
<polygon fill="midnightblue" stroke="midnightblue" points="1084.5,-214.08 1088,-224.08 1091.5,-214.08 1084.5,-214.08"/>
</g>
<!-- Node17 -->
<g id="node17" class="node">
<title>Node17</title>
<g id="a_node17"><a xlink:href="_fluid_synth_synthesizer_8cpp.html" target="_top" xlink:title="The FluidSynthSynthesizer class implements an object&#45;oriented wrapper around an underlying fluidsynth...">
<polygon fill="white" stroke="black" points="1171,-168.5 1171,-187.5 1305,-187.5 1305,-168.5 1171,-168.5"/>
<text text-anchor="middle" x="1238" y="-175.5" font-family="Helvetica,sans-Serif" font-size="10.00">FluidSynthSynthesizer.cpp</text>
</a>
</g>
</g>
<!-- Node2&#45;&gt;Node17 -->
<g id="edge17" class="edge">
<title>Node2&#45;&gt;Node17</title>
<path fill="none" stroke="midnightblue" d="M1121.22,-221.04C1149.45,-210.88 1189.26,-196.55 1214.34,-187.52"/>
<polygon fill="midnightblue" stroke="midnightblue" points="1119.99,-217.76 1111.77,-224.44 1122.36,-224.35 1119.99,-217.76"/>
</g>
<!-- Node18 -->
<g id="node18" class="node">
<title>Node18</title>
<g id="a_node18"><a xlink:href="_fluid_synth_file_converter_8cpp.html" target="_top" xlink:title="The FluidSynthFileConverter module implements a conversion from a MIDI file into a wave file using th...">
<polygon fill="white" stroke="black" points="1323,-168.5 1323,-187.5 1461,-187.5 1461,-168.5 1323,-168.5"/>
<text text-anchor="middle" x="1392" y="-175.5" font-family="Helvetica,sans-Serif" font-size="10.00">FluidSynthFileConverter.cpp</text>
</a>
</g>
</g>
<!-- Node2&#45;&gt;Node18 -->
<g id="edge18" class="edge">
<title>Node2&#45;&gt;Node18</title>
<path fill="none" stroke="midnightblue" d="M1127.76,-223.95C1205.63,-208.51 1284.44,-195.61 1335.99,-187.53"/>
<polygon fill="midnightblue" stroke="midnightblue" points="1126.89,-220.55 1117.77,-225.94 1128.26,-227.41 1126.89,-220.55"/>
</g>
<!-- Node19 -->
<g id="node19" class="node">
<title>Node19</title>
<g id="a_node19"><a xlink:href="_fluid_synth_plugin___editor_8cpp.html" target="_top" xlink:title="The FluidSynthPlugin_Editor module implements the editor for the processor of MIDI events from the DA...">
<polygon fill="white" stroke="black" points="1479,-168.5 1479,-187.5 1619,-187.5 1619,-168.5 1479,-168.5"/>
<text text-anchor="middle" x="1549" y="-175.5" font-family="Helvetica,sans-Serif" font-size="10.00">FluidSynthPlugin_Editor.cpp</text>
</a>
</g>
</g>
<!-- Node2&#45;&gt;Node19 -->
<g id="edge19" class="edge">
<title>Node2&#45;&gt;Node19</title>
<path fill="none" stroke="midnightblue" d="M1127.91,-224.05C1279.93,-198.96 1320.9,-204.32 1470,-188 1472.88,-187.68 1475.82,-187.36 1478.79,-187.03"/>
<polygon fill="midnightblue" stroke="midnightblue" points="1127.02,-220.65 1117.74,-225.74 1128.18,-227.55 1127.02,-220.65"/>
</g>
<!-- Node20 -->
<g id="node20" class="node">
<title>Node20</title>
<g id="a_node20"><a xlink:href="_fluid_synth_plugin___editor_support_8cpp.html" target="_top" xlink:title="The FluidSynthPlugin_EditorSupport module implements support services for the editor of the FluidSynt...">
<polygon fill="white" stroke="black" points="1637.5,-168.5 1637.5,-187.5 1810.5,-187.5 1810.5,-168.5 1637.5,-168.5"/>
<text text-anchor="middle" x="1724" y="-175.5" font-family="Helvetica,sans-Serif" font-size="10.00">FluidSynthPlugin_EditorSupport.cpp</text>
</a>
</g>
</g>
<!-- Node2&#45;&gt;Node20 -->
<g id="edge20" class="edge">
<title>Node2&#45;&gt;Node20</title>
<path fill="none" stroke="midnightblue" d="M1127.72,-224.14C1349.49,-191.25 1408.78,-206.15 1628,-188 1631.09,-187.74 1634.23,-187.48 1637.4,-187.21"/>
<polygon fill="midnightblue" stroke="midnightblue" points="1127.09,-220.7 1117.72,-225.64 1128.13,-227.62 1127.09,-220.7"/>
</g>
<!-- Node21 -->
<g id="node21" class="node">
<title>Node21</title>
<g id="a_node21"><a xlink:href="_midi_event_8cpp.html" target="_top" xlink:title="The MidiEvent implementation defines the services of a single MIDI event.">
<polygon fill="white" stroke="black" points="1828.5,-168.5 1828.5,-187.5 1905.5,-187.5 1905.5,-168.5 1828.5,-168.5"/>
<text text-anchor="middle" x="1867" y="-175.5" font-family="Helvetica,sans-Serif" font-size="10.00">MidiEvent.cpp</text>
</a>
</g>
</g>
<!-- Node2&#45;&gt;Node21 -->
<g id="edge22" class="edge">
<title>Node2&#45;&gt;Node21</title>
<path fill="none" stroke="midnightblue" d="M1127.77,-224.18C1434.2,-182.1 1517.11,-224.69 1820,-188 1822.72,-187.67 1825.52,-187.28 1828.34,-186.84"/>
<polygon fill="midnightblue" stroke="midnightblue" points="1127.13,-220.73 1117.71,-225.58 1128.1,-227.67 1127.13,-220.73"/>
</g>
<!-- Node22 -->
<g id="node22" class="node">
<title>Node22</title>
<g id="a_node22"><a xlink:href="_midi_event_converter_8cpp.html" target="_top" xlink:title="The MidiEventConverter module implements the handling of MIDI events by feeding them to an underlying...">
<polygon fill="white" stroke="black" points="1924,-168.5 1924,-187.5 2042,-187.5 2042,-168.5 1924,-168.5"/>
<text text-anchor="middle" x="1983" y="-175.5" font-family="Helvetica,sans-Serif" font-size="10.00">MidiEventConverter.cpp</text>
</a>
</g>
</g>
<!-- Node2&#45;&gt;Node22 -->
<g id="edge23" class="edge">
<title>Node2&#45;&gt;Node22</title>
<path fill="none" stroke="midnightblue" d="M1127.82,-224.18C1476.1,-177.19 1569.11,-218.73 1915,-188 1917.85,-187.75 1920.76,-187.46 1923.7,-187.15"/>
<polygon fill="midnightblue" stroke="midnightblue" points="1127.14,-220.74 1117.71,-225.56 1128.09,-227.68 1127.14,-220.74"/>
</g>
<!-- Node23 -->
<g id="node23" class="node">
<title>Node23</title>
<g id="a_node23"><a xlink:href="_midi_event_list_8cpp.html" target="_top" xlink:title="The MIDIEventList body implements sequences of integer values with zero&#45;based arbitrary indexed acces...">
<polygon fill="white" stroke="black" points="2060.5,-168.5 2060.5,-187.5 2153.5,-187.5 2153.5,-168.5 2060.5,-168.5"/>
<text text-anchor="middle" x="2107" y="-175.5" font-family="Helvetica,sans-Serif" font-size="10.00">MidiEventList.cpp</text>
</a>
</g>
</g>
<!-- Node2&#45;&gt;Node23 -->
<g id="edge24" class="edge">
<title>Node2&#45;&gt;Node23</title>
<path fill="none" stroke="midnightblue" d="M1127.72,-224.21C1536.11,-170.5 1645.33,-228.35 2051,-188 2054.04,-187.7 2057.16,-187.34 2060.3,-186.94"/>
<polygon fill="midnightblue" stroke="midnightblue" points="1127.16,-220.75 1117.7,-225.54 1128.08,-227.69 1127.16,-220.75"/>
</g>
<!-- Node24 -->
<g id="node24" class="node">
<title>Node24</title>
<g id="a_node24"><a xlink:href="_midi_file_8cpp.html" target="_top" xlink:title="The MidiFile implementation implements the services of a MIDI file; currently only file reading is su...">
<polygon fill="white" stroke="black" points="2171.5,-168.5 2171.5,-187.5 2240.5,-187.5 2240.5,-168.5 2171.5,-168.5"/>
<text text-anchor="middle" x="2206" y="-175.5" font-family="Helvetica,sans-Serif" font-size="10.00">MidiFile.cpp</text>
</a>
</g>
</g>
<!-- Node2&#45;&gt;Node24 -->
<g id="edge25" class="edge">
<title>Node2&#45;&gt;Node24</title>
<path fill="none" stroke="midnightblue" d="M1127.89,-224.2C1585.59,-165.08 1708.97,-242.99 2163,-188 2165.73,-187.67 2168.54,-187.25 2171.35,-186.78"/>
<polygon fill="midnightblue" stroke="midnightblue" points="1127.17,-220.76 1117.7,-225.53 1128.07,-227.7 1127.17,-220.76"/>
</g>
<!-- Node25 -->
<g id="node25" class="node">
<title>Node25</title>
<g id="a_node25"><a xlink:href="_midi_preset_identification_8cpp.html" target="_top" xlink:title="The MidiPresetIdentification body implements the identification of a MIDI preset as a tuple of bank a...">
<polygon fill="white" stroke="black" points="2259,-168.5 2259,-187.5 2395,-187.5 2395,-168.5 2259,-168.5"/>
<text text-anchor="middle" x="2327" y="-175.5" font-family="Helvetica,sans-Serif" font-size="10.00">MidiPresetIdentification.cpp</text>
</a>
</g>
</g>
<!-- Node2&#45;&gt;Node25 -->
<g id="edge26" class="edge">
<title>Node2&#45;&gt;Node25</title>
<path fill="none" stroke="midnightblue" d="M1127.63,-224.23C1623.92,-160.41 1755.29,-224.78 2250,-188 2252.82,-187.79 2255.69,-187.55 2258.59,-187.3"/>
<polygon fill="midnightblue" stroke="midnightblue" points="1127.17,-220.76 1117.7,-225.52 1128.07,-227.7 1127.17,-220.76"/>
</g>
<!-- Node4 -->
<g id="node4" class="node">
<title>Node4</title>
<g id="a_node4"><a xlink:href="_audio_sample_fifo_queue_8h.html" target="_top" xlink:title="The AudioSampleFifoQueue specification defines a fifo queue for audio samples with popping off access...">
<polygon fill="white" stroke="black" points="89.5,-112.5 89.5,-131.5 216.5,-131.5 216.5,-112.5 89.5,-112.5"/>
<text text-anchor="middle" x="153" y="-119.5" font-family="Helvetica,sans-Serif" font-size="10.00">AudioSampleFifoQueue.h</text>
</a>
</g>
</g>
<!-- Node3&#45;&gt;Node4 -->
<g id="edge3" class="edge">
<title>Node3&#45;&gt;Node4</title>
<path fill="none" stroke="midnightblue" d="M158.2,-158.1C156.87,-149.14 155.35,-138.86 154.3,-131.75"/>
<polygon fill="midnightblue" stroke="midnightblue" points="154.75,-158.7 159.68,-168.08 161.68,-157.68 154.75,-158.7"/>
</g>
<!-- Node5 -->
<g id="node5" class="node">
<title>Node5</title>
<g id="a_node5"><a xlink:href="_audio_sample_fifo_queue_8cpp.html" target="_top" xlink:title="The AudioSampleFifoQueue body implements a fifo queue for audio samples with popping off access to th...">
<polygon fill="white" stroke="black" points="84.5,-56.5 84.5,-75.5 221.5,-75.5 221.5,-56.5 84.5,-56.5"/>
<text text-anchor="middle" x="153" y="-63.5" font-family="Helvetica,sans-Serif" font-size="10.00">AudioSampleFifoQueue.cpp</text>
</a>
</g>
</g>
<!-- Node4&#45;&gt;Node5 -->
<g id="edge4" class="edge">
<title>Node4&#45;&gt;Node5</title>
<path fill="none" stroke="midnightblue" d="M153,-101.8C153,-92.91 153,-82.78 153,-75.75"/>
<polygon fill="midnightblue" stroke="midnightblue" points="149.5,-102.08 153,-112.08 156.5,-102.08 149.5,-102.08"/>
</g>
<!-- Node6 -->
<g id="node6" class="node">
<title>Node6</title>
<g id="a_node6"><a xlink:href="_audio_sample_fifo_queue_vector_8h.html" target="_top" xlink:title="The AudioSampleFifoQueueVector specification defines a list of fifo queues for audio samples.">
<polygon fill="white" stroke="black" points="239.5,-56.5 239.5,-75.5 394.5,-75.5 394.5,-56.5 239.5,-56.5"/>
<text text-anchor="middle" x="317" y="-63.5" font-family="Helvetica,sans-Serif" font-size="10.00">AudioSampleFifoQueueVector.h</text>
</a>
</g>
</g>
<!-- Node4&#45;&gt;Node6 -->
<g id="edge5" class="edge">
<title>Node4&#45;&gt;Node6</title>
<path fill="none" stroke="midnightblue" d="M188.52,-109.3C219.42,-99.13 263.47,-84.62 291.14,-75.52"/>
<polygon fill="midnightblue" stroke="midnightblue" points="187.39,-105.99 178.99,-112.44 189.58,-112.64 187.39,-105.99"/>
</g>
<!-- Node7 -->
<g id="node7" class="node">
<title>Node7</title>
<g id="a_node7"><a xlink:href="_audio_sample_fifo_queue_vector_8cpp.html" target="_top" xlink:title="The AudioSampleFifoQueueVector body implements a list of fifo queues for audio samples (this is the f...">
<polygon fill="white" stroke="black" points="234,-0.5 234,-19.5 400,-19.5 400,-0.5 234,-0.5"/>
<text text-anchor="middle" x="317" y="-7.5" font-family="Helvetica,sans-Serif" font-size="10.00">AudioSampleFifoQueueVector.cpp</text>
</a>
</g>
</g>
<!-- Node6&#45;&gt;Node7 -->
<g id="edge6" class="edge">
<title>Node6&#45;&gt;Node7</title>
<path fill="none" stroke="midnightblue" d="M317,-45.8C317,-36.91 317,-26.78 317,-19.75"/>
<polygon fill="midnightblue" stroke="midnightblue" points="313.5,-46.08 317,-56.08 320.5,-46.08 313.5,-46.08"/>
</g>
<!-- Node6&#45;&gt;Node8 -->
<g id="edge7" class="edge">
<title>Node6&#45;&gt;Node8</title>
<path fill="none" stroke="midnightblue" d="M271.33,-54.09C228.64,-43.89 165.75,-28.86 126.64,-19.52"/>
<polygon fill="midnightblue" stroke="midnightblue" points="270.65,-57.52 281.19,-56.44 272.28,-50.72 270.65,-57.52"/>
</g>
<!-- Node9&#45;&gt;Node6 -->
<g id="edge9" class="edge">
<title>Node9&#45;&gt;Node6</title>
<path fill="none" stroke="midnightblue" d="M322.85,-102.1C321.36,-93.14 319.64,-82.86 318.46,-75.75"/>
<polygon fill="midnightblue" stroke="midnightblue" points="319.42,-102.79 324.51,-112.08 326.32,-101.64 319.42,-102.79"/>
</g>
</g>
</svg>
