<?xml version="1.0" encoding="UTF-8" standalone="no"?>
<!DOCTYPE svg PUBLIC "-//W3C//DTD SVG 1.1//EN"
 "http://www.w3.org/Graphics/SVG/1.1/DTD/svg11.dtd">
<!-- Generated by graphviz version 2.47.1 (20210417.1919)
 -->
<!-- Title: Logging.h Pages: 1 -->
<!--zoomable 420 -->
<svg id="main" version="1.1" xmlns="http://www.w3.org/2000/svg" xmlns:xlink="http://www.w3.org/1999/xlink" xml:space="preserve" onload="init(evt)">
<style type="text/css"><![CDATA[
.edge:hover path { stroke: red; }
.edge:hover polygon { stroke: red; fill: red; }
]]></style>
<script type="text/javascript"><![CDATA[
var edges = document.getElementsByTagName('g');
if (edges && edges.length) {
  for (var i=0;i<edges.length;i++) {
    if (edges[i].id.substr(0,4)=='edge') {
      edges[i].setAttribute('class','edge');
    }
  }
}
]]></script>
        <defs>
                <circle id="rim" cx="0" cy="0" r="7"/>
                <circle id="rim2" cx="0" cy="0" r="3.5"/>
                <g id="zoomPlus">
                        <use xlink:href="#rim" fill="#404040">
                                <set attributeName="fill" to="#808080" begin="zoomplus.mouseover" end="zoomplus.mouseout"/>
                        </use>
                        <path d="M-4,0h8M0,-4v8" fill="none" stroke="white" stroke-width="1.5" pointer-events="none"/>
                </g>
                <g id="zoomMin">
                        <use xlink:href="#rim" fill="#404040">
                                <set attributeName="fill" to="#808080" begin="zoomminus.mouseover" end="zoomminus.mouseout"/>
                        </use>
                        <path d="M-4,0h8" fill="none" stroke="white" stroke-width="1.5" pointer-events="none"/>
                </g>
                <g id="dirArrow">
                        <path fill="none" stroke="white" stroke-width="1.5" d="M0,-3.0v7 M-2.5,-0.5L0,-3.0L2.5,-0.5"/>
                </g>
               <g id="resetDef">
                       <use xlink:href="#rim2" fill="#404040">
                               <set attributeName="fill" to="#808080" begin="reset.mouseover" end="reset.mouseout"/>
                       </use>
               </g>
        </defs>

<script type="text/javascript">
var viewWidth = 510;
var viewHeight = 420;
var sectionId = 'dynsection-0';
</script>
<script xlink:href="svgpan.js"/>
<svg id="graph" class="graph">
<g id="viewport">
<title>Logging.h</title>
<polygon fill="white" stroke="transparent" points="-4,4 -4,-416 505.5,-416 505.5,4 -4,4"/>
<!-- Node1 -->
<g id="node1" class="node">
<title>Node1</title>
<g id="a_node1"><a xlink:title="The Logging specification defines macros for entry&#45;, exit&#45; and intermediate logging of functions into...">
<polygon fill="#bfbfbf" stroke="black" points="96,-392.5 96,-411.5 155,-411.5 155,-392.5 96,-392.5"/>
<text text-anchor="middle" x="125.5" y="-399.5" font-family="Helvetica,sans-Serif" font-size="10.00">Logging.h</text>
</a>
</g>
</g>
<!-- Node2 -->
<g id="node2" class="node">
<title>Node2</title>
<g id="a_node2"><a xlink:title=" ">
<polygon fill="white" stroke="#bfbfbf" points="12,-336.5 12,-355.5 61,-355.5 61,-336.5 12,-336.5"/>
<text text-anchor="middle" x="36.5" y="-343.5" font-family="Helvetica,sans-Serif" font-size="10.00">cstdarg</text>
</a>
</g>
</g>
<!-- Node1&#45;&gt;Node2 -->
<g id="edge1" class="edge">
<title>Node1&#45;&gt;Node2</title>
<path fill="none" stroke="midnightblue" d="M111.2,-392.32C97.32,-383.9 76.01,-370.97 59.7,-361.07"/>
<polygon fill="midnightblue" stroke="midnightblue" points="61.13,-357.85 50.76,-355.65 57.5,-363.83 61.13,-357.85"/>
</g>
<!-- Node3 -->
<g id="node3" class="node">
<title>Node3</title>
<g id="a_node3"><a xlink:href="_logging_support_8h.html" target="_top" xlink:title="The LoggingSupport specification defines a class for simple entry/exit logging to a file or via an ar...">
<polygon fill="white" stroke="black" points="79.5,-336.5 79.5,-355.5 171.5,-355.5 171.5,-336.5 79.5,-336.5"/>
<text text-anchor="middle" x="125.5" y="-343.5" font-family="Helvetica,sans-Serif" font-size="10.00">LoggingSupport.h</text>
</a>
</g>
</g>
<!-- Node1&#45;&gt;Node3 -->
<g id="edge2" class="edge">
<title>Node1&#45;&gt;Node3</title>
<path fill="none" stroke="midnightblue" d="M125.5,-392.08C125.5,-385.01 125.5,-374.86 125.5,-365.99"/>
<polygon fill="midnightblue" stroke="midnightblue" points="129,-365.75 125.5,-355.75 122,-365.75 129,-365.75"/>
</g>
<!-- Node13 -->
<g id="node13" class="node">
<title>Node13</title>
<g id="a_node13"><a xlink:href="_string_util_8h.html" target="_top" xlink:title="The StringUtil specification defines several string routines not included in the standard C++ library...">
<polygon fill="white" stroke="black" points="190,-336.5 190,-355.5 255,-355.5 255,-336.5 190,-336.5"/>
<text text-anchor="middle" x="222.5" y="-343.5" font-family="Helvetica,sans-Serif" font-size="10.00">StringUtil.h</text>
</a>
</g>
</g>
<!-- Node1&#45;&gt;Node13 -->
<g id="edge14" class="edge">
<title>Node1&#45;&gt;Node13</title>
<path fill="none" stroke="midnightblue" d="M141.08,-392.32C156.5,-383.74 180.31,-370.49 198.21,-360.52"/>
<polygon fill="midnightblue" stroke="midnightblue" points="199.92,-363.58 206.95,-355.65 196.51,-357.46 199.92,-363.58"/>
</g>
<!-- Node4 -->
<g id="node4" class="node">
<title>Node4</title>
<g id="a_node4"><a xlink:href="_boolean_8h.html" target="_top" xlink:title="The Boolean specification and body provides a value object type for boolean values.">
<polygon fill="white" stroke="black" points="97.5,-280.5 97.5,-299.5 157.5,-299.5 157.5,-280.5 97.5,-280.5"/>
<text text-anchor="middle" x="127.5" y="-287.5" font-family="Helvetica,sans-Serif" font-size="10.00">Boolean.h</text>
</a>
</g>
</g>
<!-- Node3&#45;&gt;Node4 -->
<g id="edge3" class="edge">
<title>Node3&#45;&gt;Node4</title>
<path fill="none" stroke="midnightblue" d="M125.83,-336.08C126.09,-329.01 126.47,-318.86 126.8,-309.99"/>
<polygon fill="midnightblue" stroke="midnightblue" points="130.3,-309.87 127.18,-299.75 123.31,-309.61 130.3,-309.87"/>
</g>
<!-- Node8 -->
<g id="node8" class="node">
<title>Node8</title>
<g id="a_node8"><a xlink:href="_natural_8h.html" target="_top" xlink:title="The Natural specification and body provides a value object type for naturals (positive integers with ...">
<polygon fill="white" stroke="black" points="135.5,-112.5 135.5,-131.5 191.5,-131.5 191.5,-112.5 135.5,-112.5"/>
<text text-anchor="middle" x="163.5" y="-119.5" font-family="Helvetica,sans-Serif" font-size="10.00">Natural.h</text>
</a>
</g>
</g>
<!-- Node3&#45;&gt;Node8 -->
<g id="edge7" class="edge">
<title>Node3&#45;&gt;Node8</title>
<path fill="none" stroke="midnightblue" d="M115.06,-336.24C106.08,-327.97 93.75,-314.66 88.5,-300 85.5,-291.63 86.54,-288.67 88.5,-280 100.8,-225.71 134.25,-168.23 152.03,-140.28"/>
<polygon fill="midnightblue" stroke="midnightblue" points="155.11,-141.98 157.61,-131.68 149.23,-138.17 155.11,-141.98"/>
</g>
<!-- Node5 -->
<g id="node5" class="node">
<title>Node5</title>
<g id="a_node5"><a xlink:href="_my_string_8h.html" target="_top" xlink:title="The String specification defines a standard string type.">
<polygon fill="white" stroke="black" points="10.5,-56.5 10.5,-75.5 74.5,-75.5 74.5,-56.5 10.5,-56.5"/>
<text text-anchor="middle" x="42.5" y="-63.5" font-family="Helvetica,sans-Serif" font-size="10.00">MyString.h</text>
</a>
</g>
</g>
<!-- Node4&#45;&gt;Node5 -->
<g id="edge4" class="edge">
<title>Node4&#45;&gt;Node5</title>
<path fill="none" stroke="midnightblue" d="M124.17,-280.3C111.61,-247.49 66.96,-130.88 49.54,-85.38"/>
<polygon fill="midnightblue" stroke="midnightblue" points="52.75,-83.97 45.9,-75.88 46.21,-86.47 52.75,-83.97"/>
</g>
<!-- Node6 -->
<g id="node6" class="node">
<title>Node6</title>
<g id="a_node6"><a xlink:title=" ">
<polygon fill="white" stroke="#bfbfbf" points="170,-0.5 170,-19.5 211,-19.5 211,-0.5 170,-0.5"/>
<text text-anchor="middle" x="190.5" y="-7.5" font-family="Helvetica,sans-Serif" font-size="10.00">string</text>
</a>
</g>
</g>
<!-- Node5&#45;&gt;Node6 -->
<g id="edge5" class="edge">
<title>Node5&#45;&gt;Node6</title>
<path fill="none" stroke="midnightblue" d="M65.95,-56.44C91.36,-47.17 131.99,-32.35 159.9,-22.17"/>
<polygon fill="midnightblue" stroke="midnightblue" points="161.36,-25.36 169.55,-18.64 158.96,-18.78 161.36,-25.36"/>
</g>
<!-- Node7 -->
<g id="node7" class="node">
<title>Node7</title>
<g id="a_node7"><a xlink:href="_global_macros_8h.html" target="_top" xlink:title="The GlobalMacros specification defines simple macros (e.g. for parameter modes).">
<polygon fill="white" stroke="black" points="0,-0.5 0,-19.5 85,-19.5 85,-0.5 0,-0.5"/>
<text text-anchor="middle" x="42.5" y="-7.5" font-family="Helvetica,sans-Serif" font-size="10.00">GlobalMacros.h</text>
</a>
</g>
</g>
<!-- Node5&#45;&gt;Node7 -->
<g id="edge6" class="edge">
<title>Node5&#45;&gt;Node7</title>
<path fill="none" stroke="midnightblue" d="M42.5,-56.08C42.5,-49.01 42.5,-38.86 42.5,-29.99"/>
<polygon fill="midnightblue" stroke="midnightblue" points="46,-29.75 42.5,-19.75 39,-29.75 46,-29.75"/>
</g>
<!-- Node8&#45;&gt;Node5 -->
<g id="edge13" class="edge">
<title>Node8&#45;&gt;Node5</title>
<path fill="none" stroke="midnightblue" d="M144.33,-112.44C124.59,-103.64 93.61,-89.81 71.01,-79.72"/>
<polygon fill="midnightblue" stroke="midnightblue" points="72.14,-76.4 61.58,-75.52 69.29,-82.79 72.14,-76.4"/>
</g>
<!-- Node9 -->
<g id="node9" class="node">
<title>Node9</title>
<g id="a_node9"><a xlink:title=" ">
<polygon fill="white" stroke="#bfbfbf" points="286.5,-56.5 286.5,-75.5 330.5,-75.5 330.5,-56.5 286.5,-56.5"/>
<text text-anchor="middle" x="308.5" y="-63.5" font-family="Helvetica,sans-Serif" font-size="10.00">cmath</text>
</a>
</g>
</g>
<!-- Node8&#45;&gt;Node9 -->
<g id="edge8" class="edge">
<title>Node8&#45;&gt;Node9</title>
<path fill="none" stroke="midnightblue" d="M186.48,-112.44C210.8,-103.39 249.37,-89.02 276.63,-78.87"/>
<polygon fill="midnightblue" stroke="midnightblue" points="277.96,-82.11 286.11,-75.34 275.52,-75.55 277.96,-82.11"/>
</g>
<!-- Node10 -->
<g id="node10" class="node">
<title>Node10</title>
<g id="a_node10"><a xlink:href="_assertion_8h.html" target="_top" xlink:title="The Assertion specification defines macros for pre&#45; and postconditions in functions or methods.">
<polygon fill="white" stroke="black" points="202.5,-56.5 202.5,-75.5 268.5,-75.5 268.5,-56.5 202.5,-56.5"/>
<text text-anchor="middle" x="235.5" y="-63.5" font-family="Helvetica,sans-Serif" font-size="10.00">Assertion.h</text>
</a>
</g>
</g>
<!-- Node8&#45;&gt;Node10 -->
<g id="edge9" class="edge">
<title>Node8&#45;&gt;Node10</title>
<path fill="none" stroke="midnightblue" d="M175.07,-112.32C185.92,-104.18 202.38,-91.84 215.38,-82.09"/>
<polygon fill="midnightblue" stroke="midnightblue" points="217.82,-84.63 223.72,-75.83 213.62,-79.03 217.82,-84.63"/>
</g>
<!-- Node12 -->
<g id="node12" class="node">
<title>Node12</title>
<g id="a_node12"><a xlink:title=" ">
<polygon fill="white" stroke="#bfbfbf" points="92.5,-56.5 92.5,-75.5 184.5,-75.5 184.5,-56.5 92.5,-56.5"/>
<text text-anchor="middle" x="138.5" y="-63.5" font-family="Helvetica,sans-Serif" font-size="10.00">GenericNumber.h</text>
</a>
</g>
</g>
<!-- Node8&#45;&gt;Node12 -->
<g id="edge12" class="edge">
<title>Node8&#45;&gt;Node12</title>
<path fill="none" stroke="midnightblue" d="M159.37,-112.08C155.99,-104.77 151.08,-94.18 146.88,-85.1"/>
<polygon fill="midnightblue" stroke="midnightblue" points="149.93,-83.36 142.55,-75.75 143.58,-86.3 149.93,-83.36"/>
</g>
<!-- Node10&#45;&gt;Node6 -->
<g id="edge11" class="edge">
<title>Node10&#45;&gt;Node6</title>
<path fill="none" stroke="midnightblue" d="M228.07,-56.08C221.65,-48.38 212.19,-37.03 204.38,-27.65"/>
<polygon fill="midnightblue" stroke="midnightblue" points="206.88,-25.19 197.79,-19.75 201.51,-29.67 206.88,-25.19"/>
</g>
<!-- Node11 -->
<g id="node11" class="node">
<title>Node11</title>
<g id="a_node11"><a xlink:title=" ">
<polygon fill="white" stroke="#bfbfbf" points="251,-0.5 251,-19.5 310,-19.5 310,-0.5 251,-0.5"/>
<text text-anchor="middle" x="280.5" y="-7.5" font-family="Helvetica,sans-Serif" font-size="10.00">stdexcept</text>
</a>
</g>
</g>
<!-- Node10&#45;&gt;Node11 -->
<g id="edge10" class="edge">
<title>Node10&#45;&gt;Node11</title>
<path fill="none" stroke="midnightblue" d="M242.93,-56.08C249.35,-48.38 258.81,-37.03 266.62,-27.65"/>
<polygon fill="midnightblue" stroke="midnightblue" points="269.49,-29.67 273.21,-19.75 264.12,-25.19 269.49,-29.67"/>
</g>
<!-- Node13&#45;&gt;Node4 -->
<g id="edge15" class="edge">
<title>Node13&#45;&gt;Node4</title>
<path fill="none" stroke="midnightblue" d="M207.24,-336.32C192.28,-327.82 169.25,-314.73 151.77,-304.8"/>
<polygon fill="midnightblue" stroke="midnightblue" points="153.15,-301.55 142.73,-299.65 149.69,-307.64 153.15,-301.55"/>
</g>
<!-- Node14 -->
<g id="node14" class="node">
<title>Node14</title>
<g id="a_node14"><a xlink:href="_character_8h.html" target="_top" xlink:title="The Character specification and body provides a value object type for character values.">
<polygon fill="white" stroke="black" points="187,-224.5 187,-243.5 254,-243.5 254,-224.5 187,-224.5"/>
<text text-anchor="middle" x="220.5" y="-231.5" font-family="Helvetica,sans-Serif" font-size="10.00">Character.h</text>
</a>
</g>
</g>
<!-- Node13&#45;&gt;Node14 -->
<g id="edge16" class="edge">
<title>Node13&#45;&gt;Node14</title>
<path fill="none" stroke="midnightblue" d="M222.34,-336.37C222.02,-318.62 221.28,-277.67 220.84,-253.6"/>
<polygon fill="midnightblue" stroke="midnightblue" points="224.34,-253.53 220.66,-243.59 217.34,-253.65 224.34,-253.53"/>
</g>
<!-- Node16 -->
<g id="node16" class="node">
<title>Node16</title>
<g id="a_node16"><a xlink:href="_percentage_8h.html" target="_top" xlink:title="The Percentage specification and body provides a simple percentage type.">
<polygon fill="white" stroke="black" points="248.5,-280.5 248.5,-299.5 322.5,-299.5 322.5,-280.5 248.5,-280.5"/>
<text text-anchor="middle" x="285.5" y="-287.5" font-family="Helvetica,sans-Serif" font-size="10.00">Percentage.h</text>
</a>
</g>
</g>
<!-- Node13&#45;&gt;Node16 -->
<g id="edge21" class="edge">
<title>Node13&#45;&gt;Node16</title>
<path fill="none" stroke="midnightblue" d="M232.62,-336.32C242.03,-328.26 256.24,-316.08 267.57,-306.37"/>
<polygon fill="midnightblue" stroke="midnightblue" points="269.88,-309 275.19,-299.83 265.32,-303.68 269.88,-309"/>
</g>
<!-- Node19 -->
<g id="node19" class="node">
<title>Node19</title>
<g id="a_node19"><a xlink:href="_string_list_8h.html" target="_top" xlink:title="The StringList specification defines lists of string values with zero&#45;based arbitrary indexed access ...">
<polygon fill="white" stroke="black" points="340.5,-280.5 340.5,-299.5 406.5,-299.5 406.5,-280.5 340.5,-280.5"/>
<text text-anchor="middle" x="373.5" y="-287.5" font-family="Helvetica,sans-Serif" font-size="10.00">StringList.h</text>
</a>
</g>
</g>
<!-- Node13&#45;&gt;Node19 -->
<g id="edge28" class="edge">
<title>Node13&#45;&gt;Node19</title>
<path fill="none" stroke="midnightblue" d="M246.43,-336.44C271.72,-327.4 311.8,-313.06 340.18,-302.92"/>
<polygon fill="midnightblue" stroke="midnightblue" points="341.45,-306.18 349.69,-299.52 339.09,-299.59 341.45,-306.18"/>
</g>
<!-- Node14&#45;&gt;Node9 -->
<g id="edge17" class="edge">
<title>Node14&#45;&gt;Node9</title>
<path fill="none" stroke="midnightblue" d="M225.23,-224.08C239.2,-197.72 280.47,-119.88 299.14,-84.66"/>
<polygon fill="midnightblue" stroke="midnightblue" points="302.37,-86.04 303.96,-75.57 296.18,-82.76 302.37,-86.04"/>
</g>
<!-- Node15 -->
<g id="node15" class="node">
<title>Node15</title>
<g id="a_node15"><a xlink:href="_byte_8h.html" target="_top" xlink:title="The Byte specification and body provides a value object type for byte values.">
<polygon fill="white" stroke="black" points="184,-168.5 184,-187.5 229,-187.5 229,-168.5 184,-168.5"/>
<text text-anchor="middle" x="206.5" y="-175.5" font-family="Helvetica,sans-Serif" font-size="10.00">Byte.h</text>
</a>
</g>
</g>
<!-- Node14&#45;&gt;Node15 -->
<g id="edge18" class="edge">
<title>Node14&#45;&gt;Node15</title>
<path fill="none" stroke="midnightblue" d="M218.19,-224.08C216.33,-216.93 213.66,-206.64 211.35,-197.69"/>
<polygon fill="midnightblue" stroke="midnightblue" points="214.67,-196.55 208.77,-187.75 207.89,-198.31 214.67,-196.55"/>
</g>
<!-- Node15&#45;&gt;Node8 -->
<g id="edge20" class="edge">
<title>Node15&#45;&gt;Node8</title>
<path fill="none" stroke="midnightblue" d="M199.4,-168.08C193.26,-160.38 184.23,-149.03 176.76,-139.65"/>
<polygon fill="midnightblue" stroke="midnightblue" points="179.44,-137.39 170.47,-131.75 173.96,-141.75 179.44,-137.39"/>
</g>
<!-- Node15&#45;&gt;Node9 -->
<g id="edge19" class="edge">
<title>Node15&#45;&gt;Node9</title>
<path fill="none" stroke="midnightblue" d="M209.99,-168.22C215.57,-154.93 227.54,-129.43 243.5,-112 254.84,-99.62 270.18,-88.8 283.11,-80.87"/>
<polygon fill="midnightblue" stroke="midnightblue" points="285.17,-83.72 292.01,-75.63 281.62,-77.69 285.17,-83.72"/>
</g>
<!-- Node17 -->
<g id="node17" class="node">
<title>Node17</title>
<g id="a_node17"><a xlink:href="_real_8h.html" target="_top" xlink:title="The Real specification defines a value object type for real values.">
<polygon fill="white" stroke="black" points="273.5,-224.5 273.5,-243.5 317.5,-243.5 317.5,-224.5 273.5,-224.5"/>
<text text-anchor="middle" x="295.5" y="-231.5" font-family="Helvetica,sans-Serif" font-size="10.00">Real.h</text>
</a>
</g>
</g>
<!-- Node16&#45;&gt;Node17 -->
<g id="edge22" class="edge">
<title>Node16&#45;&gt;Node17</title>
<path fill="none" stroke="midnightblue" d="M287.15,-280.08C288.48,-272.93 290.38,-262.64 292.04,-253.69"/>
<polygon fill="midnightblue" stroke="midnightblue" points="295.5,-254.22 293.88,-243.75 288.62,-252.95 295.5,-254.22"/>
</g>
<!-- Node17&#45;&gt;Node9 -->
<g id="edge23" class="edge">
<title>Node17&#45;&gt;Node9</title>
<path fill="none" stroke="midnightblue" d="M296.2,-224.08C298.25,-197.95 304.25,-121.21 307.05,-85.58"/>
<polygon fill="midnightblue" stroke="midnightblue" points="310.54,-85.81 307.83,-75.57 303.56,-85.26 310.54,-85.81"/>
</g>
<!-- Node18 -->
<g id="node18" class="node">
<title>Node18</title>
<g id="a_node18"><a xlink:href="_integer_8h.html" target="_top" xlink:title="The Integer specification and body provides a value object type for ints.">
<polygon fill="white" stroke="black" points="323.5,-168.5 323.5,-187.5 377.5,-187.5 377.5,-168.5 323.5,-168.5"/>
<text text-anchor="middle" x="350.5" y="-175.5" font-family="Helvetica,sans-Serif" font-size="10.00">Integer.h</text>
</a>
</g>
</g>
<!-- Node17&#45;&gt;Node18 -->
<g id="edge24" class="edge">
<title>Node17&#45;&gt;Node18</title>
<path fill="none" stroke="midnightblue" d="M304.58,-224.08C312.67,-216.14 324.7,-204.34 334.41,-194.8"/>
<polygon fill="midnightblue" stroke="midnightblue" points="336.9,-197.25 341.59,-187.75 332,-192.26 336.9,-197.25"/>
</g>
<!-- Node18&#45;&gt;Node8 -->
<g id="edge27" class="edge">
<title>Node18&#45;&gt;Node8</title>
<path fill="none" stroke="midnightblue" d="M323.31,-169.15C291.18,-159.87 237.53,-144.38 201.35,-133.93"/>
<polygon fill="midnightblue" stroke="midnightblue" points="202.22,-130.54 191.64,-131.13 200.28,-137.26 202.22,-130.54"/>
</g>
<!-- Node18&#45;&gt;Node9 -->
<g id="edge25" class="edge">
<title>Node18&#45;&gt;Node9</title>
<path fill="none" stroke="midnightblue" d="M347.2,-168.37C340.37,-150.46 324.51,-108.92 315.35,-84.95"/>
<polygon fill="midnightblue" stroke="midnightblue" points="318.62,-83.69 311.78,-75.59 312.08,-86.18 318.62,-83.69"/>
</g>
<!-- Node18&#45;&gt;Node11 -->
<g id="edge26" class="edge">
<title>Node18&#45;&gt;Node11</title>
<path fill="none" stroke="midnightblue" d="M351.94,-168.41C354.99,-147.6 360.21,-93.48 339.5,-56 332.2,-42.79 319.23,-32.25 307.3,-24.7"/>
<polygon fill="midnightblue" stroke="midnightblue" points="308.89,-21.57 298.5,-19.51 305.34,-27.6 308.89,-21.57"/>
</g>
<!-- Node20 -->
<g id="node20" class="node">
<title>Node20</title>
<g id="a_node20"><a xlink:title=" ">
<polygon fill="white" stroke="#bfbfbf" points="336,-224.5 336,-243.5 409,-243.5 409,-224.5 336,-224.5"/>
<text text-anchor="middle" x="372.5" y="-231.5" font-family="Helvetica,sans-Serif" font-size="10.00">initializer_list</text>
</a>
</g>
</g>
<!-- Node19&#45;&gt;Node20 -->
<g id="edge29" class="edge">
<title>Node19&#45;&gt;Node20</title>
<path fill="none" stroke="midnightblue" d="M373.33,-280.08C373.2,-273.01 373.02,-262.86 372.85,-253.99"/>
<polygon fill="midnightblue" stroke="midnightblue" points="376.35,-253.68 372.66,-243.75 369.35,-253.81 376.35,-253.68"/>
</g>
<!-- Node21 -->
<g id="node21" class="node">
<title>Node21</title>
<g id="a_node21"><a xlink:title=" ">
<polygon fill="white" stroke="#bfbfbf" points="427.5,-224.5 427.5,-243.5 501.5,-243.5 501.5,-224.5 427.5,-224.5"/>
<text text-anchor="middle" x="464.5" y="-231.5" font-family="Helvetica,sans-Serif" font-size="10.00">GenericList.h</text>
</a>
</g>
</g>
<!-- Node19&#45;&gt;Node21 -->
<g id="edge30" class="edge">
<title>Node19&#45;&gt;Node21</title>
<path fill="none" stroke="midnightblue" d="M388.12,-280.32C402.45,-271.82 424.51,-258.73 441.25,-248.8"/>
<polygon fill="midnightblue" stroke="midnightblue" points="443.1,-251.77 449.92,-243.65 439.53,-245.75 443.1,-251.77"/>
</g>
</g>
</svg>
        <g id="navigator" transform="translate(0 0)" fill="#404254">
                <rect fill="#f2f5e9" fill-opacity="0.5" stroke="#606060" stroke-width=".5" x="0" y="0" width="60" height="60"/>
                <use id="zoomplus" xlink:href="#zoomPlus" x="17" y="9" onmousedown="handleZoom(evt,'in')"/>
                <use id="zoomminus" xlink:href="#zoomMin" x="42" y="9" onmousedown="handleZoom(evt,'out')"/>
                <use id="reset" xlink:href="#resetDef" x="30" y="36" onmousedown="handleReset()"/>
                <g id="arrowUp" xlink:href="#dirArrow" transform="translate(30 24)" onmousedown="handlePan(0,-1)">
                  <use xlink:href="#rim" fill="#404040">
                        <set attributeName="fill" to="#808080" begin="arrowUp.mouseover" end="arrowUp.mouseout"/>
                  </use>
                  <path fill="none" stroke="white" stroke-width="1.5" d="M0,-3.0v7 M-2.5,-0.5L0,-3.0L2.5,-0.5"/>
                </g>
                <g id="arrowRight" xlink:href="#dirArrow" transform="rotate(90) translate(36 -43)" onmousedown="handlePan(1,0)">
                  <use xlink:href="#rim" fill="#404040">
                        <set attributeName="fill" to="#808080" begin="arrowRight.mouseover" end="arrowRight.mouseout"/>
                  </use>
                  <path fill="none" stroke="white" stroke-width="1.5" d="M0,-3.0v7 M-2.5,-0.5L0,-3.0L2.5,-0.5"/>
                </g>
                <g id="arrowDown" xlink:href="#dirArrow" transform="rotate(180) translate(-30 -48)" onmousedown="handlePan(0,1)">
                  <use xlink:href="#rim" fill="#404040">
                        <set attributeName="fill" to="#808080" begin="arrowDown.mouseover" end="arrowDown.mouseout"/>
                  </use>
                  <path fill="none" stroke="white" stroke-width="1.5" d="M0,-3.0v7 M-2.5,-0.5L0,-3.0L2.5,-0.5"/>
                </g>
                <g id="arrowLeft" xlink:href="#dirArrow" transform="rotate(270) translate(-36 17)" onmousedown="handlePan(-1,0)">
                  <use xlink:href="#rim" fill="#404040">
                        <set attributeName="fill" to="#808080" begin="arrowLeft.mouseover" end="arrowLeft.mouseout"/>
                  </use>
                  <path fill="none" stroke="white" stroke-width="1.5" d="M0,-3.0v7 M-2.5,-0.5L0,-3.0L2.5,-0.5"/>
                </g>
        </g>
        <svg viewBox="0 0 15 15" width="100%" height="30px" preserveAspectRatio="xMaxYMin meet">
         <g id="arrow_out" transform="scale(0.3 0.3)">
          <a xlink:href="_logging_8h__incl_org.svg" target="_base">
           <rect id="button" ry="5" rx="5" y="6" x="6" height="38" width="38"
                fill="#f2f5e9" fill-opacity="0.5" stroke="#606060" stroke-width="1.0"/>
           <path id="arrow"
             d="M 11.500037,31.436501 C 11.940474,20.09759 22.043105,11.32322 32.158766,21.979434 L 37.068811,17.246167 C 37.068811,17.246167 37.088388,32 37.088388,32 L 22.160133,31.978069 C 22.160133,31.978069 26.997745,27.140456 26.997745,27.140456 C 18.528582,18.264221 13.291696,25.230495 11.500037,31.436501 z"
             style="fill:#404040;"/>
          </a>
         </g>
        </svg>
</svg>
