<?xml version="1.0" encoding="UTF-8" standalone="no"?>
<!DOCTYPE svg PUBLIC "-//W3C//DTD SVG 1.1//EN"
 "http://www.w3.org/Graphics/SVG/1.1/DTD/svg11.dtd">
<!-- Generated by graphviz version 2.47.1 (20210417.1919)
 -->
<!-- Title: Logging.h Pages: 1 -->
<svg width="1803pt" height="252pt"
 viewBox="0.00 0.00 1802.50 252.00" xmlns="http://www.w3.org/2000/svg" xmlns:xlink="http://www.w3.org/1999/xlink">
<g id="graph0" class="graph" transform="scale(1 1) rotate(0) translate(4 248)">
<title>Logging.h</title>
<polygon fill="white" stroke="transparent" points="-4,4 -4,-248 1798.5,-248 1798.5,4 -4,4"/>
<!-- Node1 -->
<g id="node1" class="node">
<title>Node1</title>
<g id="a_node1"><a xlink:title="The Logging specification defines macros for entry&#45;, exit&#45; and intermediate logging of functions into...">
<polygon fill="#bfbfbf" stroke="black" points="809.5,-224.5 809.5,-243.5 868.5,-243.5 868.5,-224.5 809.5,-224.5"/>
<text text-anchor="middle" x="839" y="-231.5" font-family="Helvetica,sans-Serif" font-size="10.00">Logging.h</text>
</a>
</g>
</g>
<!-- Node2 -->
<g id="node2" class="node">
<title>Node2</title>
<g id="a_node2"><a xlink:href="_audio_sample_fifo_queue_8cpp-inc.html" target="_top" xlink:title="The AudioSampleFifoQueue body implements a fifo queue for audio samples with popping off access to th...">
<polygon fill="white" stroke="black" points="84.5,-168.5 84.5,-187.5 237.5,-187.5 237.5,-168.5 84.5,-168.5"/>
<text text-anchor="middle" x="161" y="-175.5" font-family="Helvetica,sans-Serif" font-size="10.00">AudioSampleFifoQueue.cpp&#45;inc</text>
</a>
</g>
</g>
<!-- Node1&#45;&gt;Node2 -->
<g id="edge1" class="edge">
<title>Node1&#45;&gt;Node2</title>
<path fill="none" stroke="midnightblue" d="M799.36,-230.26C704.66,-223.66 457.85,-206.07 252,-188 247.41,-187.6 242.7,-187.17 237.94,-186.73"/>
<polygon fill="midnightblue" stroke="midnightblue" points="799.14,-233.76 809.36,-230.96 799.62,-226.77 799.14,-233.76"/>
</g>
<!-- Node7 -->
<g id="node7" class="node">
<title>Node7</title>
<g id="a_node7"><a xlink:href="_fluid_synth_plugin___event_processor_8cpp.html" target="_top" xlink:title="The FluidSynthPlugin_Processor module implements the handling of MIDI events from the DAW via JUCE ha...">
<polygon fill="white" stroke="black" points="0,-0.5 0,-19.5 182,-19.5 182,-0.5 0,-0.5"/>
<text text-anchor="middle" x="91" y="-7.5" font-family="Helvetica,sans-Serif" font-size="10.00">FluidSynthPlugin_EventProcessor.cpp</text>
</a>
</g>
</g>
<!-- Node1&#45;&gt;Node7 -->
<g id="edge17" class="edge">
<title>Node1&#45;&gt;Node7</title>
<path fill="none" stroke="midnightblue" d="M798.84,-232.14C644.93,-228.68 100.03,-214.55 75,-188 29.7,-139.96 71.32,-48.55 86.19,-19.85"/>
<polygon fill="midnightblue" stroke="midnightblue" points="799.16,-235.65 809.23,-232.38 799.31,-228.65 799.16,-235.65"/>
</g>
<!-- Node8 -->
<g id="node8" class="node">
<title>Node8</title>
<g id="a_node8"><a xlink:href="_audio_sample_fifo_queue_vector_8cpp-inc.html" target="_top" xlink:title="The AudioSampleFifoQueueVector body implements a list of fifo queues for audio samples (this is the e...">
<polygon fill="white" stroke="black" points="235,-112.5 235,-131.5 417,-131.5 417,-112.5 235,-112.5"/>
<text text-anchor="middle" x="326" y="-119.5" font-family="Helvetica,sans-Serif" font-size="10.00">AudioSampleFifoQueueVector.cpp&#45;inc</text>
</a>
</g>
</g>
<!-- Node1&#45;&gt;Node8 -->
<g id="edge7" class="edge">
<title>Node1&#45;&gt;Node8</title>
<path fill="none" stroke="midnightblue" d="M799.19,-232.81C678,-231.81 319.72,-225.66 285,-188 268.54,-170.15 296.21,-144.83 313.58,-131.68"/>
<polygon fill="midnightblue" stroke="midnightblue" points="799.47,-236.31 809.5,-232.88 799.52,-229.31 799.47,-236.31"/>
</g>
<!-- Node9 -->
<g id="node9" class="node">
<title>Node9</title>
<g id="a_node9"><a xlink:href="_wave_file_8cpp.html" target="_top" xlink:title="The WaveFile specification defines an object for accessing a RIFF wave file with several channels.">
<polygon fill="white" stroke="black" points="294.5,-168.5 294.5,-187.5 369.5,-187.5 369.5,-168.5 294.5,-168.5"/>
<text text-anchor="middle" x="332" y="-175.5" font-family="Helvetica,sans-Serif" font-size="10.00">WaveFile.cpp</text>
</a>
</g>
</g>
<!-- Node1&#45;&gt;Node9 -->
<g id="edge9" class="edge">
<title>Node1&#45;&gt;Node9</title>
<path fill="none" stroke="midnightblue" d="M799.17,-230.34C719.24,-224.73 533.67,-210.33 379,-188 375.96,-187.56 372.81,-187.06 369.66,-186.53"/>
<polygon fill="midnightblue" stroke="midnightblue" points="799.07,-233.84 809.29,-231.04 799.55,-226.86 799.07,-233.84"/>
</g>
<!-- Node10 -->
<g id="node10" class="node">
<title>Node10</title>
<g id="a_node10"><a xlink:href="_command_line_arguments_8cpp.html" target="_top" xlink:title="The CommandLineArguments body implements a handler for command&#45;line arguments converting them to a li...">
<polygon fill="white" stroke="black" points="387.5,-168.5 387.5,-187.5 532.5,-187.5 532.5,-168.5 387.5,-168.5"/>
<text text-anchor="middle" x="460" y="-175.5" font-family="Helvetica,sans-Serif" font-size="10.00">CommandLineArguments.cpp</text>
</a>
</g>
</g>
<!-- Node1&#45;&gt;Node10 -->
<g id="edge10" class="edge">
<title>Node1&#45;&gt;Node10</title>
<path fill="none" stroke="midnightblue" d="M799.16,-227.32C732.49,-217.83 597.97,-198.66 519.86,-187.53"/>
<polygon fill="midnightblue" stroke="midnightblue" points="798.87,-230.82 809.26,-228.76 799.85,-223.89 798.87,-230.82"/>
</g>
<!-- Node11 -->
<g id="node11" class="node">
<title>Node11</title>
<g id="a_node11"><a xlink:href="_operating_system_8cpp.html" target="_top" xlink:title="The OperatingSystem body implements a class for several operating system related utility functions (l...">
<polygon fill="white" stroke="black" points="550.5,-168.5 550.5,-187.5 661.5,-187.5 661.5,-168.5 550.5,-168.5"/>
<text text-anchor="middle" x="606" y="-175.5" font-family="Helvetica,sans-Serif" font-size="10.00">OperatingSystem.cpp</text>
</a>
</g>
</g>
<!-- Node1&#45;&gt;Node11 -->
<g id="edge11" class="edge">
<title>Node1&#45;&gt;Node11</title>
<path fill="none" stroke="midnightblue" d="M799.49,-223.84C755.71,-213.7 685.66,-197.46 642.94,-187.56"/>
<polygon fill="midnightblue" stroke="midnightblue" points="798.96,-227.31 809.49,-226.16 800.54,-220.49 798.96,-227.31"/>
</g>
<!-- Node12 -->
<g id="node12" class="node">
<title>Node12</title>
<g id="a_node12"><a xlink:href="_fluid_synth_8cpp.html" target="_top" xlink:title="The FluidSynth class implements the access to the fluidsynth library via a dynamic loading of it.">
<polygon fill="white" stroke="black" points="680,-168.5 680,-187.5 762,-187.5 762,-168.5 680,-168.5"/>
<text text-anchor="middle" x="721" y="-175.5" font-family="Helvetica,sans-Serif" font-size="10.00">FluidSynth.cpp</text>
</a>
</g>
</g>
<!-- Node1&#45;&gt;Node12 -->
<g id="edge12" class="edge">
<title>Node1&#45;&gt;Node12</title>
<path fill="none" stroke="midnightblue" d="M811.1,-220.23C789.03,-210.13 758.82,-196.31 739.61,-187.52"/>
<polygon fill="midnightblue" stroke="midnightblue" points="809.75,-223.46 820.3,-224.44 812.67,-217.1 809.75,-223.46"/>
</g>
<!-- Node13 -->
<g id="node13" class="node">
<title>Node13</title>
<g id="a_node13"><a xlink:href="_fluid_synth_settings_8cpp.html" target="_top" xlink:title="The FluidSynthSettings class implements an object&#45;oriented wrapper around an underlying fluidsynth se...">
<polygon fill="white" stroke="black" points="780,-168.5 780,-187.5 898,-187.5 898,-168.5 780,-168.5"/>
<text text-anchor="middle" x="839" y="-175.5" font-family="Helvetica,sans-Serif" font-size="10.00">FluidSynthSettings.cpp</text>
</a>
</g>
</g>
<!-- Node1&#45;&gt;Node13 -->
<g id="edge13" class="edge">
<title>Node1&#45;&gt;Node13</title>
<path fill="none" stroke="midnightblue" d="M839,-213.8C839,-204.91 839,-194.78 839,-187.75"/>
<polygon fill="midnightblue" stroke="midnightblue" points="835.5,-214.08 839,-224.08 842.5,-214.08 835.5,-214.08"/>
</g>
<!-- Node14 -->
<g id="node14" class="node">
<title>Node14</title>
<g id="a_node14"><a xlink:href="_fluid_synth_synthesizer_8cpp.html" target="_top" xlink:title="The FluidSynthSynthesizer class implements an object&#45;oriented wrapper around an underlying fluidsynth...">
<polygon fill="white" stroke="black" points="916,-168.5 916,-187.5 1050,-187.5 1050,-168.5 916,-168.5"/>
<text text-anchor="middle" x="983" y="-175.5" font-family="Helvetica,sans-Serif" font-size="10.00">FluidSynthSynthesizer.cpp</text>
</a>
</g>
</g>
<!-- Node1&#45;&gt;Node14 -->
<g id="edge14" class="edge">
<title>Node1&#45;&gt;Node14</title>
<path fill="none" stroke="midnightblue" d="M871.25,-220.91C898.32,-210.75 936.32,-196.51 960.29,-187.52"/>
<polygon fill="midnightblue" stroke="midnightblue" points="869.95,-217.66 861.82,-224.44 872.41,-224.21 869.95,-217.66"/>
</g>
<!-- Node15 -->
<g id="node15" class="node">
<title>Node15</title>
<g id="a_node15"><a xlink:href="_fluid_synth_file_converter_8cpp.html" target="_top" xlink:title="The FluidSynthFileConverter module implements a conversion from a MIDI file into a wave file using th...">
<polygon fill="white" stroke="black" points="1068,-168.5 1068,-187.5 1206,-187.5 1206,-168.5 1068,-168.5"/>
<text text-anchor="middle" x="1137" y="-175.5" font-family="Helvetica,sans-Serif" font-size="10.00">FluidSynthFileConverter.cpp</text>
</a>
</g>
</g>
<!-- Node1&#45;&gt;Node15 -->
<g id="edge15" class="edge">
<title>Node1&#45;&gt;Node15</title>
<path fill="none" stroke="midnightblue" d="M878.66,-225.81C933.32,-215.91 1031.64,-198.09 1089.95,-187.53"/>
<polygon fill="midnightblue" stroke="midnightblue" points="877.88,-222.4 868.66,-227.62 879.13,-229.29 877.88,-222.4"/>
</g>
<!-- Node16 -->
<g id="node16" class="node">
<title>Node16</title>
<g id="a_node16"><a xlink:href="_fluid_synth_plugin___editor_8cpp.html" target="_top" xlink:title="The FluidSynthPlugin_Editor module implements the editor for the processor of MIDI events from the DA...">
<polygon fill="white" stroke="black" points="1224,-168.5 1224,-187.5 1364,-187.5 1364,-168.5 1224,-168.5"/>
<text text-anchor="middle" x="1294" y="-175.5" font-family="Helvetica,sans-Serif" font-size="10.00">FluidSynthPlugin_Editor.cpp</text>
</a>
</g>
</g>
<!-- Node1&#45;&gt;Node16 -->
<g id="edge16" class="edge">
<title>Node1&#45;&gt;Node16</title>
<path fill="none" stroke="midnightblue" d="M878.76,-228.28C955.95,-219.12 1127.02,-198.82 1223.77,-187.33"/>
<polygon fill="midnightblue" stroke="midnightblue" points="878.02,-224.84 868.5,-229.5 878.85,-231.8 878.02,-224.84"/>
</g>
<!-- Node17 -->
<g id="node17" class="node">
<title>Node17</title>
<g id="a_node17"><a xlink:href="_midi_event_8cpp.html" target="_top" xlink:title="The MidiEvent implementation defines the services of a single MIDI event.">
<polygon fill="white" stroke="black" points="1382.5,-168.5 1382.5,-187.5 1459.5,-187.5 1459.5,-168.5 1382.5,-168.5"/>
<text text-anchor="middle" x="1421" y="-175.5" font-family="Helvetica,sans-Serif" font-size="10.00">MidiEvent.cpp</text>
</a>
</g>
</g>
<!-- Node1&#45;&gt;Node17 -->
<g id="edge18" class="edge">
<title>Node1&#45;&gt;Node17</title>
<path fill="none" stroke="midnightblue" d="M878.82,-231.03C967.75,-226.32 1189.17,-212.91 1373,-188 1376.02,-187.59 1379.15,-187.12 1382.28,-186.61"/>
<polygon fill="midnightblue" stroke="midnightblue" points="878.44,-227.54 868.64,-231.56 878.81,-234.53 878.44,-227.54"/>
</g>
<!-- Node18 -->
<g id="node18" class="node">
<title>Node18</title>
<g id="a_node18"><a xlink:href="_midi_event_converter_8cpp.html" target="_top" xlink:title="The MidiEventConverter module implements the handling of MIDI events by feeding them to an underlying...">
<polygon fill="white" stroke="black" points="1478,-168.5 1478,-187.5 1596,-187.5 1596,-168.5 1478,-168.5"/>
<text text-anchor="middle" x="1537" y="-175.5" font-family="Helvetica,sans-Serif" font-size="10.00">MidiEventConverter.cpp</text>
</a>
</g>
</g>
<!-- Node1&#45;&gt;Node18 -->
<g id="edge19" class="edge">
<title>Node1&#45;&gt;Node18</title>
<path fill="none" stroke="midnightblue" d="M878.78,-230.99C978.37,-225.79 1246.39,-210.66 1469,-188 1471.84,-187.71 1474.75,-187.4 1477.69,-187.06"/>
<polygon fill="midnightblue" stroke="midnightblue" points="878.38,-227.51 868.58,-231.52 878.74,-234.5 878.38,-227.51"/>
</g>
<!-- Node19 -->
<g id="node19" class="node">
<title>Node19</title>
<g id="a_node19"><a xlink:href="_midi_event_list_8cpp.html" target="_top" xlink:title="The MIDIEventList body implements sequences of integer values with zero&#45;based arbitrary indexed acces...">
<polygon fill="white" stroke="black" points="1614.5,-168.5 1614.5,-187.5 1707.5,-187.5 1707.5,-168.5 1614.5,-168.5"/>
<text text-anchor="middle" x="1661" y="-175.5" font-family="Helvetica,sans-Serif" font-size="10.00">MidiEventList.cpp</text>
</a>
</g>
</g>
<!-- Node1&#45;&gt;Node19 -->
<g id="edge20" class="edge">
<title>Node1&#45;&gt;Node19</title>
<path fill="none" stroke="midnightblue" d="M878.98,-232.07C992.8,-229.12 1328.22,-218.29 1605,-188 1608.03,-187.67 1611.16,-187.28 1614.3,-186.87"/>
<polygon fill="midnightblue" stroke="midnightblue" points="878.57,-228.58 868.66,-232.33 878.75,-235.58 878.57,-228.58"/>
</g>
<!-- Node20 -->
<g id="node20" class="node">
<title>Node20</title>
<g id="a_node20"><a xlink:href="_midi_file_8cpp.html" target="_top" xlink:title="The MidiFile implementation implements the services of a MIDI file; currently only file reading is su...">
<polygon fill="white" stroke="black" points="1725.5,-168.5 1725.5,-187.5 1794.5,-187.5 1794.5,-168.5 1725.5,-168.5"/>
<text text-anchor="middle" x="1760" y="-175.5" font-family="Helvetica,sans-Serif" font-size="10.00">MidiFile.cpp</text>
</a>
</g>
</g>
<!-- Node1&#45;&gt;Node20 -->
<g id="edge21" class="edge">
<title>Node1&#45;&gt;Node20</title>
<path fill="none" stroke="midnightblue" d="M878.91,-233.15C1003.41,-233.15 1395.63,-229.61 1717,-188 1719.72,-187.65 1722.53,-187.22 1725.34,-186.73"/>
<polygon fill="midnightblue" stroke="midnightblue" points="878.71,-229.65 868.71,-233.14 878.71,-236.65 878.71,-229.65"/>
</g>
<!-- Node3 -->
<g id="node3" class="node">
<title>Node3</title>
<g id="a_node3"><a xlink:href="_audio_sample_fifo_queue_8h.html" target="_top" xlink:title="The AudioSampleFifoQueue specification defines a fifo queue for audio samples with popping off access...">
<polygon fill="white" stroke="black" points="89.5,-112.5 89.5,-131.5 216.5,-131.5 216.5,-112.5 89.5,-112.5"/>
<text text-anchor="middle" x="153" y="-119.5" font-family="Helvetica,sans-Serif" font-size="10.00">AudioSampleFifoQueue.h</text>
</a>
</g>
</g>
<!-- Node2&#45;&gt;Node3 -->
<g id="edge2" class="edge">
<title>Node2&#45;&gt;Node3</title>
<path fill="none" stroke="midnightblue" d="M158.2,-158.1C156.87,-149.14 155.35,-138.86 154.3,-131.75"/>
<polygon fill="midnightblue" stroke="midnightblue" points="154.75,-158.7 159.68,-168.08 161.68,-157.68 154.75,-158.7"/>
</g>
<!-- Node4 -->
<g id="node4" class="node">
<title>Node4</title>
<g id="a_node4"><a xlink:href="_audio_sample_fifo_queue_8cpp.html" target="_top" xlink:title="The AudioSampleFifoQueue body implements a fifo queue for audio samples with popping off access to th...">
<polygon fill="white" stroke="black" points="84.5,-56.5 84.5,-75.5 221.5,-75.5 221.5,-56.5 84.5,-56.5"/>
<text text-anchor="middle" x="153" y="-63.5" font-family="Helvetica,sans-Serif" font-size="10.00">AudioSampleFifoQueue.cpp</text>
</a>
</g>
</g>
<!-- Node3&#45;&gt;Node4 -->
<g id="edge3" class="edge">
<title>Node3&#45;&gt;Node4</title>
<path fill="none" stroke="midnightblue" d="M153,-101.8C153,-92.91 153,-82.78 153,-75.75"/>
<polygon fill="midnightblue" stroke="midnightblue" points="149.5,-102.08 153,-112.08 156.5,-102.08 149.5,-102.08"/>
</g>
<!-- Node5 -->
<g id="node5" class="node">
<title>Node5</title>
<g id="a_node5"><a xlink:href="_audio_sample_fifo_queue_vector_8h.html" target="_top" xlink:title="The AudioSampleFifoQueueVector specification defines a list of fifo queues for audio samples.">
<polygon fill="white" stroke="black" points="239.5,-56.5 239.5,-75.5 394.5,-75.5 394.5,-56.5 239.5,-56.5"/>
<text text-anchor="middle" x="317" y="-63.5" font-family="Helvetica,sans-Serif" font-size="10.00">AudioSampleFifoQueueVector.h</text>
</a>
</g>
</g>
<!-- Node3&#45;&gt;Node5 -->
<g id="edge4" class="edge">
<title>Node3&#45;&gt;Node5</title>
<path fill="none" stroke="midnightblue" d="M188.52,-109.3C219.42,-99.13 263.47,-84.62 291.14,-75.52"/>
<polygon fill="midnightblue" stroke="midnightblue" points="187.39,-105.99 178.99,-112.44 189.58,-112.64 187.39,-105.99"/>
</g>
<!-- Node6 -->
<g id="node6" class="node">
<title>Node6</title>
<g id="a_node6"><a xlink:href="_audio_sample_fifo_queue_vector_8cpp.html" target="_top" xlink:title="The AudioSampleFifoQueueVector body implements a list of fifo queues for audio samples (this is the f...">
<polygon fill="white" stroke="black" points="234,-0.5 234,-19.5 400,-19.5 400,-0.5 234,-0.5"/>
<text text-anchor="middle" x="317" y="-7.5" font-family="Helvetica,sans-Serif" font-size="10.00">AudioSampleFifoQueueVector.cpp</text>
</a>
</g>
</g>
<!-- Node5&#45;&gt;Node6 -->
<g id="edge5" class="edge">
<title>Node5&#45;&gt;Node6</title>
<path fill="none" stroke="midnightblue" d="M317,-45.8C317,-36.91 317,-26.78 317,-19.75"/>
<polygon fill="midnightblue" stroke="midnightblue" points="313.5,-46.08 317,-56.08 320.5,-46.08 313.5,-46.08"/>
</g>
<!-- Node5&#45;&gt;Node7 -->
<g id="edge6" class="edge">
<title>Node5&#45;&gt;Node7</title>
<path fill="none" stroke="midnightblue" d="M271.33,-54.09C228.64,-43.89 165.75,-28.86 126.64,-19.52"/>
<polygon fill="midnightblue" stroke="midnightblue" points="270.65,-57.52 281.19,-56.44 272.28,-50.72 270.65,-57.52"/>
</g>
<!-- Node8&#45;&gt;Node5 -->
<g id="edge8" class="edge">
<title>Node8&#45;&gt;Node5</title>
<path fill="none" stroke="midnightblue" d="M322.85,-102.1C321.36,-93.14 319.64,-82.86 318.46,-75.75"/>
<polygon fill="midnightblue" stroke="midnightblue" points="319.42,-102.79 324.51,-112.08 326.32,-101.64 319.42,-102.79"/>
</g>
</g>
</svg>
