<?xml version="1.0" encoding="UTF-8" standalone="no"?>
<!DOCTYPE svg PUBLIC "-//W3C//DTD SVG 1.1//EN"
 "http://www.w3.org/Graphics/SVG/1.1/DTD/svg11.dtd">
<!-- Generated by graphviz version 2.47.1 (20210417.1919)
 -->
<!-- Title: Logging.h Pages: 1 -->
<svg width="445pt" height="412pt"
 viewBox="0.00 0.00 445.00 412.00" xmlns="http://www.w3.org/2000/svg" xmlns:xlink="http://www.w3.org/1999/xlink">

<svg id="main" version="1.1" xmlns="http://www.w3.org/2000/svg" xmlns:xlink="http://www.w3.org/1999/xlink" xml:space="preserve">

<style type="text/css"><![CDATA[
.node, .edge {opacity: 0.7;}
.node.selected, .edge.selected {opacity: 1;}
.edge:hover path { stroke: red; }
.edge:hover polygon { stroke: red; fill: red; }
]]></style>
<script type="application/ecmascript" xlink:href="svg.min.js"/>
<svg id="graph" class="graph">
<g id="graph0" class="graph" transform="scale(1 1) rotate(0) translate(4 408)">
<title>Logging.h</title>
<!-- Node1 -->
<g id="Node000001" class="node">
<title>Node1</title>
<g id="a_Node000001"><a xlink:title="The Logging specification defines macros for entry&#45;, exit&#45; and intermediate logging of functions into...">
<polygon fill="#999999" stroke="#666666" points="143,-404 84,-404 84,-385 143,-385 143,-404"/>
<text text-anchor="middle" x="113.5" y="-392" font-family="Helvetica,sans-Serif" font-size="10.00">Logging.h</text>
</a>
</g>
</g>
<!-- Node2 -->
<g id="Node000002" class="node">
<title>Node2</title>
<g id="a_Node000002"><a xlink:title=" ">
<polygon fill="#e0e0e0" stroke="#999999" points="49,-349 0,-349 0,-330 49,-330 49,-349"/>
<text text-anchor="middle" x="24.5" y="-337" font-family="Helvetica,sans-Serif" font-size="10.00">cstdarg</text>
</a>
</g>
</g>
<!-- Node1&#45;&gt;Node2 -->
<g id="edge1_Node000001_Node000002" class="edge">
<title>Node1&#45;&gt;Node2</title>
<g id="a_edge1_Node000001_Node000002"><a xlink:title=" ">
<path fill="none" stroke="#63b8ff" d="M99.2,-384.98C85.4,-376.77 64.26,-364.18 47.99,-354.49"/>
<polygon fill="#63b8ff" stroke="#63b8ff" points="49.44,-351.28 39.06,-349.17 45.86,-357.29 49.44,-351.28"/>
</a>
</g>
</g>
<!-- Node3 -->
<g id="Node000003" class="node">
<title>Node3</title>
<g id="a_Node000003"><a xlink:href="_logging_support_8h.html" target="_top" xlink:title="The LoggingSupport specification defines a class for simple entry/exit logging to a file or via an ar...">
<polygon fill="white" stroke="#666666" points="159.5,-349 67.5,-349 67.5,-330 159.5,-330 159.5,-349"/>
<text text-anchor="middle" x="113.5" y="-337" font-family="Helvetica,sans-Serif" font-size="10.00">LoggingSupport.h</text>
</a>
</g>
</g>
<!-- Node1&#45;&gt;Node3 -->
<g id="edge2_Node000001_Node000003" class="edge">
<title>Node1&#45;&gt;Node3</title>
<g id="a_edge2_Node000001_Node000003"><a xlink:title=" ">
<path fill="none" stroke="#63b8ff" d="M113.5,-384.75C113.5,-377.8 113.5,-367.85 113.5,-359.13"/>
<polygon fill="#63b8ff" stroke="#63b8ff" points="117,-359.09 113.5,-349.09 110,-359.09 117,-359.09"/>
</a>
</g>
</g>
<!-- Node13 -->
<g id="Node000013" class="node">
<title>Node13</title>
<g id="a_Node000013"><a xlink:href="_string_util_8h.html" target="_top" xlink:title="The StringUtil specification defines several string routines not included in the standard C++ library...">
<polygon fill="white" stroke="#666666" points="269,-349 204,-349 204,-330 269,-330 269,-349"/>
<text text-anchor="middle" x="236.5" y="-337" font-family="Helvetica,sans-Serif" font-size="10.00">StringUtil.h</text>
</a>
</g>
</g>
<!-- Node1&#45;&gt;Node13 -->
<g id="edge14_Node000001_Node000013" class="edge">
<title>Node1&#45;&gt;Node13</title>
<g id="a_edge14_Node000001_Node000013"><a xlink:title=" ">
<path fill="none" stroke="#63b8ff" d="M133.26,-384.98C153.23,-376.38 184.3,-362.99 207.15,-353.15"/>
<polygon fill="#63b8ff" stroke="#63b8ff" points="208.58,-356.34 216.38,-349.17 205.81,-349.91 208.58,-356.34"/>
</a>
</g>
</g>
<!-- Node4 -->
<g id="Node000004" class="node">
<title>Node4</title>
<g id="a_Node000004"><a xlink:href="_boolean_8h.html" target="_top" xlink:title="The Boolean specification and body provides a value object type for boolean values.">
<polygon fill="white" stroke="#666666" points="143.5,-294 83.5,-294 83.5,-275 143.5,-275 143.5,-294"/>
<text text-anchor="middle" x="113.5" y="-282" font-family="Helvetica,sans-Serif" font-size="10.00">Boolean.h</text>
</a>
</g>
</g>
<!-- Node3&#45;&gt;Node4 -->
<g id="edge3_Node000003_Node000004" class="edge">
<title>Node3&#45;&gt;Node4</title>
<g id="a_edge3_Node000003_Node000004"><a xlink:title=" ">
<path fill="none" stroke="#63b8ff" d="M113.5,-329.75C113.5,-322.8 113.5,-312.85 113.5,-304.13"/>
<polygon fill="#63b8ff" stroke="#63b8ff" points="117,-304.09 113.5,-294.09 110,-304.09 117,-304.09"/>
</a>
</g>
</g>
<!-- Node8 -->
<g id="Node000008" class="node">
<title>Node8</title>
<g id="a_Node000008"><a xlink:href="_natural_8h.html" target="_top" xlink:title="The Natural specification and body provides a value object type for naturals (positive integers with ...">
<polygon fill="white" stroke="#666666" points="249.5,-129 193.5,-129 193.5,-110 249.5,-110 249.5,-129"/>
<text text-anchor="middle" x="221.5" y="-117" font-family="Helvetica,sans-Serif" font-size="10.00">Natural.h</text>
</a>
</g>
</g>
<!-- Node3&#45;&gt;Node8 -->
<g id="edge7_Node000003_Node000008" class="edge">
<title>Node3&#45;&gt;Node8</title>
<g id="a_edge7_Node000003_Node000008"><a xlink:title=" ">
<path fill="none" stroke="#63b8ff" d="M102.51,-329.99C93.05,-321.9 80.07,-308.81 74.5,-294 67.33,-274.95 78.25,-229.93 84.5,-220 110.45,-178.73 160.27,-149.17 192.15,-133.47"/>
<polygon fill="#63b8ff" stroke="#63b8ff" points="193.9,-136.51 201.42,-129.05 190.89,-130.2 193.9,-136.51"/>
</a>
</g>
</g>
<!-- Node5 -->
<g id="Node000005" class="node">
<title>Node5</title>
<g id="a_Node000005"><a xlink:href="_my_string_8h.html" target="_top" xlink:title="The String specification defines a standard string type.">
<polygon fill="white" stroke="#666666" points="97.5,-74 33.5,-74 33.5,-55 97.5,-55 97.5,-74"/>
<text text-anchor="middle" x="65.5" y="-62" font-family="Helvetica,sans-Serif" font-size="10.00">MyString.h</text>
</a>
</g>
</g>
<!-- Node4&#45;&gt;Node5 -->
<g id="edge4_Node000004_Node000005" class="edge">
<title>Node4&#45;&gt;Node5</title>
<g id="a_edge4_Node000004_Node000005"><a xlink:title=" ">
<path fill="none" stroke="#63b8ff" d="M106.16,-274.96C99.3,-266.46 89.4,-252.72 84.5,-239 65.33,-185.38 64.07,-116.99 64.75,-84.41"/>
<polygon fill="#63b8ff" stroke="#63b8ff" points="68.26,-84.22 65.06,-74.12 61.26,-84.01 68.26,-84.22"/>
</a>
</g>
</g>
<!-- Node6 -->
<g id="Node000006" class="node">
<title>Node6</title>
<g id="a_Node000006"><a xlink:title=" ">
<polygon fill="#e0e0e0" stroke="#999999" points="234,-19 193,-19 193,0 234,0 234,-19"/>
<text text-anchor="middle" x="213.5" y="-7" font-family="Helvetica,sans-Serif" font-size="10.00">string</text>
</a>
</g>
</g>
<!-- Node5&#45;&gt;Node6 -->
<g id="edge5_Node000005_Node000006" class="edge">
<title>Node5&#45;&gt;Node6</title>
<g id="a_edge5_Node000005_Node000006"><a xlink:title=" ">
<path fill="none" stroke="#63b8ff" d="M89.28,-54.98C114.75,-45.86 155.25,-31.36 183.04,-21.41"/>
<polygon fill="#63b8ff" stroke="#63b8ff" points="184.42,-24.63 192.65,-17.97 182.06,-18.04 184.42,-24.63"/>
</a>
</g>
</g>
<!-- Node7 -->
<g id="Node000007" class="node">
<title>Node7</title>
<g id="a_Node000007"><a xlink:href="_global_macros_8h.html" target="_top" xlink:title="The GlobalMacros specification defines simple macros (e.g. for parameter modes).">
<polygon fill="white" stroke="#666666" points="108,-19 23,-19 23,0 108,0 108,-19"/>
<text text-anchor="middle" x="65.5" y="-7" font-family="Helvetica,sans-Serif" font-size="10.00">GlobalMacros.h</text>
</a>
</g>
</g>
<!-- Node5&#45;&gt;Node7 -->
<g id="edge6_Node000005_Node000007" class="edge">
<title>Node5&#45;&gt;Node7</title>
<g id="a_edge6_Node000005_Node000007"><a xlink:title=" ">
<path fill="none" stroke="#63b8ff" d="M65.5,-54.75C65.5,-47.8 65.5,-37.85 65.5,-29.13"/>
<polygon fill="#63b8ff" stroke="#63b8ff" points="69,-29.09 65.5,-19.09 62,-29.09 69,-29.09"/>
</a>
</g>
</g>
<!-- Node8&#45;&gt;Node5 -->
<g id="edge13_Node000008_Node000005" class="edge">
<title>Node8&#45;&gt;Node5</title>
<g id="a_edge13_Node000008_Node000005"><a xlink:title=" ">
<path fill="none" stroke="#63b8ff" d="M196.44,-109.98C170.47,-101.16 129.69,-87.31 100.54,-77.41"/>
<polygon fill="#63b8ff" stroke="#63b8ff" points="101.35,-73.99 90.76,-74.08 99.1,-80.61 101.35,-73.99"/>
</a>
</g>
</g>
<!-- Node9 -->
<g id="Node000009" class="node">
<title>Node9</title>
<g id="a_Node000009"><a xlink:title=" ">
<polygon fill="#e0e0e0" stroke="#999999" points="353.5,-74 309.5,-74 309.5,-55 353.5,-55 353.5,-74"/>
<text text-anchor="middle" x="331.5" y="-62" font-family="Helvetica,sans-Serif" font-size="10.00">cmath</text>
</a>
</g>
</g>
<!-- Node8&#45;&gt;Node9 -->
<g id="edge8_Node000008_Node000009" class="edge">
<title>Node8&#45;&gt;Node9</title>
<g id="a_edge8_Node000008_Node000009"><a xlink:title=" ">
<path fill="none" stroke="#63b8ff" d="M239.17,-109.98C256.79,-101.5 284.08,-88.35 304.43,-78.54"/>
<polygon fill="#63b8ff" stroke="#63b8ff" points="306.02,-81.66 313.51,-74.17 302.98,-75.36 306.02,-81.66"/>
</a>
</g>
</g>
<!-- Node10 -->
<g id="Node000010" class="node">
<title>Node10</title>
<g id="a_Node000010"><a xlink:href="_assertion_8h.html" target="_top" xlink:title="The Assertion specification defines macros for pre&#45; and postconditions in functions or methods.">
<polygon fill="white" stroke="#666666" points="291.5,-74 225.5,-74 225.5,-55 291.5,-55 291.5,-74"/>
<text text-anchor="middle" x="258.5" y="-62" font-family="Helvetica,sans-Serif" font-size="10.00">Assertion.h</text>
</a>
</g>
</g>
<!-- Node8&#45;&gt;Node10 -->
<g id="edge9_Node000008_Node000010" class="edge">
<title>Node8&#45;&gt;Node10</title>
<g id="a_edge9_Node000008_Node000010"><a xlink:title=" ">
<path fill="none" stroke="#63b8ff" d="M227.61,-109.75C232.78,-102.34 240.35,-91.5 246.69,-82.41"/>
<polygon fill="#63b8ff" stroke="#63b8ff" points="249.65,-84.29 252.5,-74.09 243.91,-80.29 249.65,-84.29"/>
</a>
</g>
</g>
<!-- Node12 -->
<g id="Node000012" class="node">
<title>Node12</title>
<g id="a_Node000012"><a xlink:title=" ">
<polygon fill="#e0e0e0" stroke="#999999" points="207.5,-74 115.5,-74 115.5,-55 207.5,-55 207.5,-74"/>
<text text-anchor="middle" x="161.5" y="-62" font-family="Helvetica,sans-Serif" font-size="10.00">GenericNumber.h</text>
</a>
</g>
</g>
<!-- Node8&#45;&gt;Node12 -->
<g id="edge12_Node000008_Node000012" class="edge">
<title>Node8&#45;&gt;Node12</title>
<g id="a_edge12_Node000008_Node000012"><a xlink:title=" ">
<path fill="none" stroke="#63b8ff" d="M211.86,-109.98C202.99,-102.15 189.63,-90.34 178.89,-80.86"/>
<polygon fill="#63b8ff" stroke="#63b8ff" points="181.13,-78.17 171.32,-74.17 176.49,-83.41 181.13,-78.17"/>
</a>
</g>
</g>
<!-- Node10&#45;&gt;Node6 -->
<g id="edge11_Node000010_Node000006" class="edge">
<title>Node10&#45;&gt;Node6</title>
<g id="a_edge11_Node000010_Node000006"><a xlink:title=" ">
<path fill="none" stroke="#63b8ff" d="M251.07,-54.75C244.65,-47.18 235.19,-36.05 227.38,-26.84"/>
<polygon fill="#63b8ff" stroke="#63b8ff" points="229.93,-24.45 220.79,-19.09 224.6,-28.98 229.93,-24.45"/>
</a>
</g>
</g>
<!-- Node11 -->
<g id="Node000011" class="node">
<title>Node11</title>
<g id="a_Node000011"><a xlink:title=" ">
<polygon fill="#e0e0e0" stroke="#999999" points="333,-19 274,-19 274,0 333,0 333,-19"/>
<text text-anchor="middle" x="303.5" y="-7" font-family="Helvetica,sans-Serif" font-size="10.00">stdexcept</text>
</a>
</g>
</g>
<!-- Node10&#45;&gt;Node11 -->
<g id="edge10_Node000010_Node000011" class="edge">
<title>Node10&#45;&gt;Node11</title>
<g id="a_edge10_Node000010_Node000011"><a xlink:title=" ">
<path fill="none" stroke="#63b8ff" d="M265.93,-54.75C272.35,-47.18 281.81,-36.05 289.62,-26.84"/>
<polygon fill="#63b8ff" stroke="#63b8ff" points="292.4,-28.98 296.21,-19.09 287.07,-24.45 292.4,-28.98"/>
</a>
</g>
</g>
<!-- Node13&#45;&gt;Node4 -->
<g id="edge15_Node000013_Node000004" class="edge">
<title>Node13&#45;&gt;Node4</title>
<g id="a_edge15_Node000013_Node000004"><a xlink:title=" ">
<path fill="none" stroke="#63b8ff" d="M216.74,-329.98C196.77,-321.38 165.7,-307.99 142.85,-298.15"/>
<polygon fill="#63b8ff" stroke="#63b8ff" points="144.19,-294.91 133.62,-294.17 141.42,-301.34 144.19,-294.91"/>
</a>
</g>
</g>
<!-- Node14 -->
<g id="Node000014" class="node">
<title>Node14</title>
<g id="a_Node000014"><a xlink:href="_character_8h.html" target="_top" xlink:title="The Character specification and body provides a value object type for character values.">
<polygon fill="white" stroke="#666666" points="344,-239 277,-239 277,-220 344,-220 344,-239"/>
<text text-anchor="middle" x="310.5" y="-227" font-family="Helvetica,sans-Serif" font-size="10.00">Character.h</text>
</a>
</g>
</g>
<!-- Node13&#45;&gt;Node14 -->
<g id="edge16_Node000013_Node000014" class="edge">
<title>Node13&#45;&gt;Node14</title>
<g id="a_edge16_Node000013_Node000014"><a xlink:title=" ">
<path fill="none" stroke="#63b8ff" d="M242.56,-329.66C254.81,-311.77 282.75,-271 298.72,-247.69"/>
<polygon fill="#63b8ff" stroke="#63b8ff" points="301.8,-249.39 304.57,-239.16 296.03,-245.43 301.8,-249.39"/>
</a>
</g>
</g>
<!-- Node17 -->
<g id="Node000017" class="node">
<title>Node17</title>
<g id="a_Node000017"><a xlink:href="_object_8h.html" target="_top" xlink:title="The Object specification and body provides the root object type.">
<polygon fill="white" stroke="#666666" points="437,-294 384,-294 384,-275 437,-275 437,-294"/>
<text text-anchor="middle" x="410.5" y="-282" font-family="Helvetica,sans-Serif" font-size="10.00">Object.h</text>
</a>
</g>
</g>
<!-- Node13&#45;&gt;Node17 -->
<g id="edge22_Node000013_Node000017" class="edge">
<title>Node13&#45;&gt;Node17</title>
<g id="a_edge22_Node000013_Node000017"><a xlink:title=" ">
<path fill="none" stroke="#63b8ff" d="M264.46,-329.98C294.23,-320.92 341.47,-306.53 374.13,-296.58"/>
<polygon fill="#63b8ff" stroke="#63b8ff" points="375.21,-299.91 383.76,-293.65 373.17,-293.21 375.21,-299.91"/>
</a>
</g>
</g>
<!-- Node18 -->
<g id="Node000018" class="node">
<title>Node18</title>
<g id="a_Node000018"><a xlink:href="_percentage_8h.html" target="_top" xlink:title="The Percentage specification and body provides a simple percentage type.">
<polygon fill="white" stroke="#666666" points="365.5,-294 291.5,-294 291.5,-275 365.5,-275 365.5,-294"/>
<text text-anchor="middle" x="328.5" y="-282" font-family="Helvetica,sans-Serif" font-size="10.00">Percentage.h</text>
</a>
</g>
</g>
<!-- Node13&#45;&gt;Node18 -->
<g id="edge23_Node000013_Node000018" class="edge">
<title>Node13&#45;&gt;Node18</title>
<g id="a_edge23_Node000013_Node000018"><a xlink:title=" ">
<path fill="none" stroke="#63b8ff" d="M251.28,-329.98C265.68,-321.69 287.81,-308.94 304.69,-299.22"/>
<polygon fill="#63b8ff" stroke="#63b8ff" points="306.53,-302.19 313.45,-294.17 303.04,-296.13 306.53,-302.19"/>
</a>
</g>
</g>
<!-- Node21 -->
<g id="Node000021" class="node">
<title>Node21</title>
<g id="a_Node000021"><a xlink:href="_string_list_8h.html" target="_top" xlink:title="The StringList specification defines lists of string values with zero&#45;based arbitrary indexed access ...">
<polygon fill="white" stroke="#666666" points="235.5,-294 169.5,-294 169.5,-275 235.5,-275 235.5,-294"/>
<text text-anchor="middle" x="202.5" y="-282" font-family="Helvetica,sans-Serif" font-size="10.00">StringList.h</text>
</a>
</g>
</g>
<!-- Node13&#45;&gt;Node21 -->
<g id="edge29_Node000013_Node000021" class="edge">
<title>Node13&#45;&gt;Node21</title>
<g id="a_edge29_Node000013_Node000021"><a xlink:title=" ">
<path fill="none" stroke="#63b8ff" d="M230.89,-329.75C226.18,-322.42 219.33,-311.73 213.53,-302.7"/>
<polygon fill="#63b8ff" stroke="#63b8ff" points="216.36,-300.62 208.01,-294.09 210.46,-304.4 216.36,-300.62"/>
</a>
</g>
</g>
<!-- Node14&#45;&gt;Node9 -->
<g id="edge17_Node000014_Node000009" class="edge">
<title>Node14&#45;&gt;Node9</title>
<g id="a_edge17_Node000014_Node000009"><a xlink:title=" ">
<path fill="none" stroke="#63b8ff" d="M311.63,-219.74C314.92,-194.2 324.55,-119.43 329.09,-84.23"/>
<polygon fill="#63b8ff" stroke="#63b8ff" points="332.56,-84.67 330.37,-74.31 325.62,-83.78 332.56,-84.67"/>
</a>
</g>
</g>
<!-- Node15 -->
<g id="Node000015" class="node">
<title>Node15</title>
<g id="a_Node000015"><a xlink:href="_byte_8h.html" target="_top" xlink:title="The Byte specification and body provides a value object type for byte values.">
<polygon fill="white" stroke="#666666" points="265,-184 220,-184 220,-165 265,-165 265,-184"/>
<text text-anchor="middle" x="242.5" y="-172" font-family="Helvetica,sans-Serif" font-size="10.00">Byte.h</text>
</a>
</g>
</g>
<!-- Node14&#45;&gt;Node15 -->
<g id="edge18_Node000014_Node000015" class="edge">
<title>Node14&#45;&gt;Node15</title>
<g id="a_edge18_Node000014_Node000015"><a xlink:title=" ">
<path fill="none" stroke="#63b8ff" d="M299.57,-219.98C289.42,-212.07 274.08,-200.11 261.85,-190.58"/>
<polygon fill="#63b8ff" stroke="#63b8ff" points="263.66,-187.56 253.62,-184.17 259.36,-193.08 263.66,-187.56"/>
</a>
</g>
</g>
<!-- Node15&#45;&gt;Node8 -->
<g id="edge21_Node000015_Node000008" class="edge">
<title>Node15&#45;&gt;Node8</title>
<g id="a_edge21_Node000015_Node000008"><a xlink:title=" ">
<path fill="none" stroke="#63b8ff" d="M239.03,-164.75C236.22,-157.65 232.16,-147.4 228.65,-138.56"/>
<polygon fill="#63b8ff" stroke="#63b8ff" points="231.84,-137.1 224.9,-129.09 225.33,-139.68 231.84,-137.1"/>
</a>
</g>
</g>
<!-- Node15&#45;&gt;Node9 -->
<g id="edge19_Node000015_Node000009" class="edge">
<title>Node15&#45;&gt;Node9</title>
<g id="a_edge19_Node000015_Node000009"><a xlink:title=" ">
<path fill="none" stroke="#63b8ff" d="M249.78,-164.66C264.66,-146.61 298.72,-105.28 317.84,-82.08"/>
<polygon fill="#63b8ff" stroke="#63b8ff" points="320.71,-84.1 324.36,-74.16 315.3,-79.65 320.71,-84.1"/>
</a>
</g>
</g>
<!-- Node16 -->
<g id="Node000016" class="node">
<title>Node16</title>
<g id="a_Node000016"><a xlink:title=" ">
<polygon fill="#e0e0e0" stroke="#999999" points="175.5,-129 129.5,-129 129.5,-110 175.5,-110 175.5,-129"/>
<text text-anchor="middle" x="152.5" y="-117" font-family="Helvetica,sans-Serif" font-size="10.00">cstdint</text>
</a>
</g>
</g>
<!-- Node15&#45;&gt;Node16 -->
<g id="edge20_Node000015_Node000016" class="edge">
<title>Node15&#45;&gt;Node16</title>
<g id="a_edge20_Node000015_Node000016"><a xlink:title=" ">
<path fill="none" stroke="#63b8ff" d="M228.04,-164.98C214.08,-156.77 192.71,-144.18 176.25,-134.49"/>
<polygon fill="#63b8ff" stroke="#63b8ff" points="177.62,-131.23 167.22,-129.17 174.06,-137.26 177.62,-131.23"/>
</a>
</g>
</g>
<!-- Node19 -->
<g id="Node000019" class="node">
<title>Node19</title>
<g id="a_Node000019"><a xlink:href="_real_8h.html" target="_top" xlink:title="The Real specification defines a value object type for real values.">
<polygon fill="white" stroke="#666666" points="406.5,-239 362.5,-239 362.5,-220 406.5,-220 406.5,-239"/>
<text text-anchor="middle" x="384.5" y="-227" font-family="Helvetica,sans-Serif" font-size="10.00">Real.h</text>
</a>
</g>
</g>
<!-- Node18&#45;&gt;Node19 -->
<g id="edge24_Node000018_Node000019" class="edge">
<title>Node18&#45;&gt;Node19</title>
<g id="a_edge24_Node000018_Node000019"><a xlink:title=" ">
<path fill="none" stroke="#63b8ff" d="M337.5,-274.98C345.69,-267.23 358.01,-255.58 367.97,-246.14"/>
<polygon fill="#63b8ff" stroke="#63b8ff" points="370.48,-248.59 375.34,-239.17 365.67,-243.5 370.48,-248.59"/>
</a>
</g>
</g>
<!-- Node20 -->
<g id="Node000020" class="node">
<title>Node20</title>
<g id="a_Node000020"><a xlink:href="_integer_8h.html" target="_top" xlink:title="The Integer specification and body provides a value object type for ints.">
<polygon fill="white" stroke="#666666" points="406.5,-184 352.5,-184 352.5,-165 406.5,-165 406.5,-184"/>
<text text-anchor="middle" x="379.5" y="-172" font-family="Helvetica,sans-Serif" font-size="10.00">Integer.h</text>
</a>
</g>
</g>
<!-- Node19&#45;&gt;Node20 -->
<g id="edge25_Node000019_Node000020" class="edge">
<title>Node19&#45;&gt;Node20</title>
<g id="a_edge25_Node000019_Node000020"><a xlink:title=" ">
<path fill="none" stroke="#63b8ff" d="M383.67,-219.75C383.02,-212.8 382.08,-202.85 381.26,-194.13"/>
<polygon fill="#63b8ff" stroke="#63b8ff" points="384.73,-193.72 380.31,-184.09 377.77,-194.37 384.73,-193.72"/>
</a>
</g>
</g>
<!-- Node20&#45;&gt;Node8 -->
<g id="edge28_Node000020_Node000008" class="edge">
<title>Node20&#45;&gt;Node8</title>
<g id="a_edge28_Node000020_Node000008"><a xlink:title=" ">
<path fill="none" stroke="#63b8ff" d="M354.11,-164.98C327.7,-156.13 286.15,-142.19 256.61,-132.28"/>
<polygon fill="#63b8ff" stroke="#63b8ff" points="257.68,-128.94 247.08,-129.08 255.45,-135.58 257.68,-128.94"/>
</a>
</g>
</g>
<!-- Node20&#45;&gt;Node9 -->
<g id="edge26_Node000020_Node000009" class="edge">
<title>Node20&#45;&gt;Node9</title>
<g id="a_edge26_Node000020_Node000009"><a xlink:title=" ">
<path fill="none" stroke="#63b8ff" d="M375.57,-164.66C367.69,-146.93 349.82,-106.73 339.42,-83.32"/>
<polygon fill="#63b8ff" stroke="#63b8ff" points="342.61,-81.87 335.35,-74.16 336.21,-84.72 342.61,-81.87"/>
</a>
</g>
</g>
<!-- Node20&#45;&gt;Node11 -->
<g id="edge27_Node000020_Node000011" class="edge">
<title>Node20&#45;&gt;Node11</title>
<g id="a_edge27_Node000020_Node000011"><a xlink:title=" ">
<path fill="none" stroke="#63b8ff" d="M380.4,-164.73C382.09,-144.03 383.85,-91.15 362.5,-55 354.86,-42.06 341.85,-31.64 330,-24.15"/>
<polygon fill="#63b8ff" stroke="#63b8ff" points="331.65,-21.07 321.26,-19 328.1,-27.1 331.65,-21.07"/>
</a>
</g>
</g>
<!-- Node22 -->
<g id="Node000022" class="node">
<title>Node22</title>
<g id="a_Node000022"><a xlink:title=" ">
<polygon fill="#e0e0e0" stroke="#999999" points="259,-239 186,-239 186,-220 259,-220 259,-239"/>
<text text-anchor="middle" x="222.5" y="-227" font-family="Helvetica,sans-Serif" font-size="10.00">initializer_list</text>
</a>
</g>
</g>
<!-- Node21&#45;&gt;Node22 -->
<g id="edge30_Node000021_Node000022" class="edge">
<title>Node21&#45;&gt;Node22</title>
<g id="a_edge30_Node000021_Node000022"><a xlink:title=" ">
<path fill="none" stroke="#63b8ff" d="M205.8,-274.75C208.48,-267.65 212.35,-257.4 215.69,-248.56"/>
<polygon fill="#63b8ff" stroke="#63b8ff" points="219,-249.68 219.26,-239.09 212.45,-247.21 219,-249.68"/>
</a>
</g>
</g>
<!-- Node23 -->
<g id="Node000023" class="node">
<title>Node23</title>
<g id="a_Node000023"><a xlink:title=" ">
<polygon fill="#e0e0e0" stroke="#999999" points="167.5,-239 93.5,-239 93.5,-220 167.5,-220 167.5,-239"/>
<text text-anchor="middle" x="130.5" y="-227" font-family="Helvetica,sans-Serif" font-size="10.00">GenericList.h</text>
</a>
</g>
</g>
<!-- Node21&#45;&gt;Node23 -->
<g id="edge31_Node000021_Node000023" class="edge">
<title>Node21&#45;&gt;Node23</title>
<g id="a_edge31_Node000021_Node000023"><a xlink:title=" ">
<path fill="none" stroke="#63b8ff" d="M190.93,-274.98C180.08,-267 163.62,-254.88 150.62,-245.31"/>
<polygon fill="#63b8ff" stroke="#63b8ff" points="152.41,-242.28 142.28,-239.17 148.26,-247.92 152.41,-242.28"/>
</a>
</g>
</g>
</g>
</svg>
</svg>

<style type='text/css'>
<![CDATA[
[data-mouse-over-selected='false'] { opacity: 0.7; }
[data-mouse-over-selected='true']  { opacity: 1.0; }
]]>
</style>
<script type="application/ecmascript"><![CDATA[
document.addEventListener('DOMContentLoaded', (event) => {
  highlightEdges();
  highlightAdjacentNodes();
});
]]></script>
</svg>
