<?xml version="1.0" encoding="UTF-8" standalone="no"?>
<!DOCTYPE svg PUBLIC "-//W3C//DTD SVG 1.1//EN"
 "http://www.w3.org/Graphics/SVG/1.1/DTD/svg11.dtd">
<!-- Generated by graphviz version 2.47.1 (20210417.1919)
 -->
<!-- Title: MidiFile.h Pages: 1 -->
<!--zoomable 428 -->
<svg id="main" version="1.1" xmlns="http://www.w3.org/2000/svg" xmlns:xlink="http://www.w3.org/1999/xlink" xml:space="preserve" onload="init(evt)">
<style type="text/css"><![CDATA[
.edge:hover path { stroke: red; }
.edge:hover polygon { stroke: red; fill: red; }
]]></style>
<script type="text/javascript"><![CDATA[
var edges = document.getElementsByTagName('g');
if (edges && edges.length) {
  for (var i=0;i<edges.length;i++) {
    if (edges[i].id.substr(0,4)=='edge') {
      edges[i].setAttribute('class','edge');
    }
  }
}
]]></script>
        <defs>
                <circle id="rim" cx="0" cy="0" r="7"/>
                <circle id="rim2" cx="0" cy="0" r="3.5"/>
                <g id="zoomPlus">
                        <use xlink:href="#rim" fill="#404040">
                                <set attributeName="fill" to="#808080" begin="zoomplus.mouseover" end="zoomplus.mouseout"/>
                        </use>
                        <path d="M-4,0h8M0,-4v8" fill="none" stroke="white" stroke-width="1.5" pointer-events="none"/>
                </g>
                <g id="zoomMin">
                        <use xlink:href="#rim" fill="#404040">
                                <set attributeName="fill" to="#808080" begin="zoomminus.mouseover" end="zoomminus.mouseout"/>
                        </use>
                        <path d="M-4,0h8" fill="none" stroke="white" stroke-width="1.5" pointer-events="none"/>
                </g>
                <g id="dirArrow">
                        <path fill="none" stroke="white" stroke-width="1.5" d="M0,-3.0v7 M-2.5,-0.5L0,-3.0L2.5,-0.5"/>
                </g>
               <g id="resetDef">
                       <use xlink:href="#rim2" fill="#404040">
                               <set attributeName="fill" to="#808080" begin="reset.mouseover" end="reset.mouseout"/>
                       </use>
               </g>
        </defs>

<script type="text/javascript">
var viewWidth = 627;
var viewHeight = 428;
var sectionId = 'dynsection-0';
</script>
<script xlink:href="svgpan.js"/>
<svg id="graph" class="graph">
<g id="viewport">
<title>MidiFile.h</title>
<polygon fill="white" stroke="transparent" points="-4,4 -4,-424 623,-424 623,4 -4,4"/>
<!-- Node1 -->
<g id="node1" class="node">
<title>Node1</title>
<g id="a_node1"><a xlink:title="The MidiFile specification defines the services of a MIDI file; currently only file reading is suppor...">
<polygon fill="#bfbfbf" stroke="black" points="242,-399.5 242,-419.5 304,-419.5 304,-399.5 242,-399.5"/>
<text text-anchor="middle" x="273" y="-406.7" font-family="Helvetica,sans-Serif" font-size="11.00">MidiFile.h</text>
</a>
</g>
</g>
<!-- Node2 -->
<g id="node2" class="node">
<title>Node2</title>
<g id="a_node2"><a xlink:href="_natural_8h.html" target="_top" xlink:title="The Natural specification and body provides a value object type for naturals (positive integers with ...">
<polygon fill="white" stroke="black" points="209,-114.5 209,-134.5 269,-134.5 269,-114.5 209,-114.5"/>
<text text-anchor="middle" x="239" y="-121.7" font-family="Helvetica,sans-Serif" font-size="11.00">Natural.h</text>
</a>
</g>
</g>
<!-- Node1&#45;&gt;Node2 -->
<g id="edge1" class="edge">
<title>Node1&#45;&gt;Node2</title>
<path fill="none" stroke="midnightblue" d="M264.59,-399.42C248.73,-381.32 216,-338.83 216,-296.5 216,-296.5 216,-296.5 216,-237.5 216,-204.22 225.87,-166.49 232.68,-144.41"/>
<polygon fill="midnightblue" stroke="midnightblue" points="236.08,-145.25 235.8,-134.66 229.42,-143.12 236.08,-145.25"/>
</g>
<!-- Node10 -->
<g id="node10" class="node">
<title>Node10</title>
<g id="a_node10"><a xlink:href="_midi_event_list_8h.html" target="_top" xlink:title="The MidiEventList specification defines lists of MIDI events with zero&#45;based arbitrary indexed access...">
<polygon fill="white" stroke="black" points="346.5,-342.5 346.5,-362.5 435.5,-362.5 435.5,-342.5 346.5,-342.5"/>
<text text-anchor="middle" x="391" y="-349.7" font-family="Helvetica,sans-Serif" font-size="11.00">MidiEventList.h</text>
</a>
</g>
</g>
<!-- Node1&#45;&gt;Node10 -->
<g id="edge10" class="edge">
<title>Node1&#45;&gt;Node10</title>
<path fill="none" stroke="midnightblue" d="M292.49,-399.42C311.53,-390.54 340.74,-376.93 362.42,-366.82"/>
<polygon fill="midnightblue" stroke="midnightblue" points="363.9,-369.99 371.49,-362.6 360.94,-363.65 363.9,-369.99"/>
</g>
<!-- Node3 -->
<g id="node3" class="node">
<title>Node3</title>
<g id="a_node3"><a xlink:title=" ">
<polygon fill="white" stroke="#bfbfbf" points="308.5,-57.5 308.5,-77.5 355.5,-77.5 355.5,-57.5 308.5,-57.5"/>
<text text-anchor="middle" x="332" y="-64.7" font-family="Helvetica,sans-Serif" font-size="11.00">cmath</text>
</a>
</g>
</g>
<!-- Node2&#45;&gt;Node3 -->
<g id="edge2" class="edge">
<title>Node2&#45;&gt;Node3</title>
<path fill="none" stroke="midnightblue" d="M254.36,-114.42C268.9,-105.82 290.95,-92.78 307.85,-82.78"/>
<polygon fill="midnightblue" stroke="midnightblue" points="309.79,-85.7 316.62,-77.6 306.23,-79.67 309.79,-85.7"/>
</g>
<!-- Node4 -->
<g id="node4" class="node">
<title>Node4</title>
<g id="a_node4"><a xlink:href="_assertion_8h.html" target="_top" xlink:title="The Assertion specification defines macros for pre&#45; and postconditions in functions or methods.">
<polygon fill="white" stroke="black" points="98.5,-57.5 98.5,-77.5 169.5,-77.5 169.5,-57.5 98.5,-57.5"/>
<text text-anchor="middle" x="134" y="-64.7" font-family="Helvetica,sans-Serif" font-size="11.00">Assertion.h</text>
</a>
</g>
</g>
<!-- Node2&#45;&gt;Node4 -->
<g id="edge3" class="edge">
<title>Node2&#45;&gt;Node4</title>
<path fill="none" stroke="midnightblue" d="M221.66,-114.42C205.02,-105.7 179.65,-92.41 160.48,-82.37"/>
<polygon fill="midnightblue" stroke="midnightblue" points="161.85,-79.14 151.36,-77.6 158.6,-85.34 161.85,-79.14"/>
</g>
<!-- Node7 -->
<g id="node7" class="node">
<title>Node7</title>
<g id="a_node7"><a xlink:title=" ">
<polygon fill="white" stroke="#bfbfbf" points="187.5,-57.5 187.5,-77.5 290.5,-77.5 290.5,-57.5 187.5,-57.5"/>
<text text-anchor="middle" x="239" y="-64.7" font-family="Helvetica,sans-Serif" font-size="11.00">GenericNumber.h</text>
</a>
</g>
</g>
<!-- Node2&#45;&gt;Node7 -->
<g id="edge6" class="edge">
<title>Node2&#45;&gt;Node7</title>
<path fill="none" stroke="midnightblue" d="M239,-114.42C239,-107.22 239,-96.9 239,-87.86"/>
<polygon fill="midnightblue" stroke="midnightblue" points="242.5,-87.78 239,-77.78 235.5,-87.78 242.5,-87.78"/>
</g>
<!-- Node8 -->
<g id="node8" class="node">
<title>Node8</title>
<g id="a_node8"><a xlink:href="_my_string_8h.html" target="_top" xlink:title="The String specification defines a standard string type.">
<polygon fill="white" stroke="black" points="12,-57.5 12,-77.5 80,-77.5 80,-57.5 12,-57.5"/>
<text text-anchor="middle" x="46" y="-64.7" font-family="Helvetica,sans-Serif" font-size="11.00">MyString.h</text>
</a>
</g>
</g>
<!-- Node2&#45;&gt;Node8 -->
<g id="edge7" class="edge">
<title>Node2&#45;&gt;Node8</title>
<path fill="none" stroke="midnightblue" d="M208.84,-114.91C176.28,-105.63 124.19,-90.78 87.71,-80.39"/>
<polygon fill="midnightblue" stroke="midnightblue" points="88.45,-76.96 77.87,-77.58 86.53,-83.69 88.45,-76.96"/>
</g>
<!-- Node5 -->
<g id="node5" class="node">
<title>Node5</title>
<g id="a_node5"><a xlink:title=" ">
<polygon fill="white" stroke="#bfbfbf" points="262,-0.5 262,-20.5 326,-20.5 326,-0.5 262,-0.5"/>
<text text-anchor="middle" x="294" y="-7.7" font-family="Helvetica,sans-Serif" font-size="11.00">stdexcept</text>
</a>
</g>
</g>
<!-- Node4&#45;&gt;Node5 -->
<g id="edge4" class="edge">
<title>Node4&#45;&gt;Node5</title>
<path fill="none" stroke="midnightblue" d="M160.42,-57.42C187.14,-48.23 228.6,-33.98 258.24,-23.79"/>
<polygon fill="midnightblue" stroke="midnightblue" points="259.49,-27.06 267.81,-20.5 257.21,-20.45 259.49,-27.06"/>
</g>
<!-- Node6 -->
<g id="node6" class="node">
<title>Node6</title>
<g id="a_node6"><a xlink:title=" ">
<polygon fill="white" stroke="#bfbfbf" points="111,-0.5 111,-20.5 155,-20.5 155,-0.5 111,-0.5"/>
<text text-anchor="middle" x="133" y="-7.7" font-family="Helvetica,sans-Serif" font-size="11.00">string</text>
</a>
</g>
</g>
<!-- Node4&#45;&gt;Node6 -->
<g id="edge5" class="edge">
<title>Node4&#45;&gt;Node6</title>
<path fill="none" stroke="midnightblue" d="M133.83,-57.42C133.7,-50.22 133.52,-39.9 133.35,-30.86"/>
<polygon fill="midnightblue" stroke="midnightblue" points="136.85,-30.71 133.17,-20.78 129.85,-30.84 136.85,-30.71"/>
</g>
<!-- Node8&#45;&gt;Node6 -->
<g id="edge8" class="edge">
<title>Node8&#45;&gt;Node6</title>
<path fill="none" stroke="midnightblue" d="M60.37,-57.42C73.84,-48.9 94.22,-36.02 109.96,-26.06"/>
<polygon fill="midnightblue" stroke="midnightblue" points="112.03,-28.9 118.61,-20.6 108.29,-22.98 112.03,-28.9"/>
</g>
<!-- Node9 -->
<g id="node9" class="node">
<title>Node9</title>
<g id="a_node9"><a xlink:href="_global_macros_8h.html" target="_top" xlink:title="The GlobalMacros specification defines simple macros (e.g. for parameter modes).">
<polygon fill="white" stroke="black" points="0,-0.5 0,-20.5 92,-20.5 92,-0.5 0,-0.5"/>
<text text-anchor="middle" x="46" y="-7.7" font-family="Helvetica,sans-Serif" font-size="11.00">GlobalMacros.h</text>
</a>
</g>
</g>
<!-- Node8&#45;&gt;Node9 -->
<g id="edge9" class="edge">
<title>Node8&#45;&gt;Node9</title>
<path fill="none" stroke="midnightblue" d="M46,-57.42C46,-50.22 46,-39.9 46,-30.86"/>
<polygon fill="midnightblue" stroke="midnightblue" points="49.5,-30.78 46,-20.78 42.5,-30.78 49.5,-30.78"/>
</g>
<!-- Node11 -->
<g id="node11" class="node">
<title>Node11</title>
<g id="a_node11"><a xlink:title=" ">
<polygon fill="white" stroke="#bfbfbf" points="541,-114.5 541,-134.5 619,-134.5 619,-114.5 541,-114.5"/>
<text text-anchor="middle" x="580" y="-121.7" font-family="Helvetica,sans-Serif" font-size="11.00">initializer_list</text>
</a>
</g>
</g>
<!-- Node10&#45;&gt;Node11 -->
<g id="edge11" class="edge">
<title>Node10&#45;&gt;Node11</title>
<path fill="none" stroke="midnightblue" d="M410.6,-342.4C451.49,-322.17 545.06,-269.09 581,-192 587.93,-177.14 586.86,-158.3 584.54,-144.47"/>
<polygon fill="midnightblue" stroke="midnightblue" points="587.96,-143.72 582.53,-134.62 581.1,-145.12 587.96,-143.72"/>
</g>
<!-- Node12 -->
<g id="node12" class="node">
<title>Node12</title>
<g id="a_node12"><a xlink:title=" ">
<polygon fill="white" stroke="#bfbfbf" points="412.5,-114.5 412.5,-134.5 493.5,-134.5 493.5,-114.5 412.5,-114.5"/>
<text text-anchor="middle" x="453" y="-121.7" font-family="Helvetica,sans-Serif" font-size="11.00">GenericList.h</text>
</a>
</g>
</g>
<!-- Node10&#45;&gt;Node12 -->
<g id="edge12" class="edge">
<title>Node10&#45;&gt;Node12</title>
<path fill="none" stroke="midnightblue" d="M395.55,-342.42C404.17,-324.84 422.93,-284.72 433,-249 443.17,-212.9 448.72,-169.32 451.26,-144.77"/>
<polygon fill="midnightblue" stroke="midnightblue" points="454.76,-144.93 452.24,-134.64 447.79,-144.26 454.76,-144.93"/>
</g>
<!-- Node13 -->
<g id="node13" class="node">
<title>Node13</title>
<g id="a_node13"><a xlink:href="_midi_event_8h.html" target="_top" xlink:title="The MidiEvent specification defines a single MIDI event and the MIDI event kind enumeration.">
<polygon fill="white" stroke="black" points="294,-285.5 294,-305.5 366,-305.5 366,-285.5 294,-285.5"/>
<text text-anchor="middle" x="330" y="-292.7" font-family="Helvetica,sans-Serif" font-size="11.00">MidiEvent.h</text>
</a>
</g>
</g>
<!-- Node10&#45;&gt;Node13 -->
<g id="edge13" class="edge">
<title>Node10&#45;&gt;Node13</title>
<path fill="none" stroke="midnightblue" d="M380.93,-342.42C371.97,-334.35 358.68,-322.36 347.91,-312.65"/>
<polygon fill="midnightblue" stroke="midnightblue" points="350.06,-309.88 340.29,-305.78 345.37,-315.08 350.06,-309.88"/>
</g>
<!-- Node14 -->
<g id="node14" class="node">
<title>Node14</title>
<g id="a_node14"><a xlink:href="_boolean_8h.html" target="_top" xlink:title="The Boolean specification and body provides a value object type for boolean values.">
<polygon fill="white" stroke="black" points="94.5,-228.5 94.5,-248.5 159.5,-248.5 159.5,-228.5 94.5,-228.5"/>
<text text-anchor="middle" x="127" y="-235.7" font-family="Helvetica,sans-Serif" font-size="11.00">Boolean.h</text>
</a>
</g>
</g>
<!-- Node13&#45;&gt;Node14 -->
<g id="edge14" class="edge">
<title>Node13&#45;&gt;Node14</title>
<path fill="none" stroke="midnightblue" d="M296.48,-285.42C261.64,-275.98 207.03,-261.18 169.26,-250.95"/>
<polygon fill="midnightblue" stroke="midnightblue" points="170.13,-247.56 159.56,-248.32 168.3,-254.32 170.13,-247.56"/>
</g>
<!-- Node15 -->
<g id="node15" class="node">
<title>Node15</title>
<g id="a_node15"><a xlink:href="_integer_8h.html" target="_top" xlink:title="The Integer specification and body provides a value object type for ints.">
<polygon fill="white" stroke="black" points="309.5,-171.5 309.5,-191.5 368.5,-191.5 368.5,-171.5 309.5,-171.5"/>
<text text-anchor="middle" x="339" y="-178.7" font-family="Helvetica,sans-Serif" font-size="11.00">Integer.h</text>
</a>
</g>
</g>
<!-- Node13&#45;&gt;Node15 -->
<g id="edge16" class="edge">
<title>Node13&#45;&gt;Node15</title>
<path fill="none" stroke="midnightblue" d="M330.74,-285.33C332.19,-267.2 335.47,-226.41 337.43,-202"/>
<polygon fill="midnightblue" stroke="midnightblue" points="340.94,-202.04 338.25,-191.79 333.96,-201.48 340.94,-202.04"/>
</g>
<!-- Node16 -->
<g id="node16" class="node">
<title>Node16</title>
<g id="a_node16"><a xlink:href="_byte_list_8h.html" target="_top" xlink:title="The ByteList specification defines lists of byte values with zero&#45;based arbitrary indexed access to p...">
<polygon fill="white" stroke="black" points="358.5,-228.5 358.5,-248.5 423.5,-248.5 423.5,-228.5 358.5,-228.5"/>
<text text-anchor="middle" x="391" y="-235.7" font-family="Helvetica,sans-Serif" font-size="11.00">ByteList.h</text>
</a>
</g>
</g>
<!-- Node13&#45;&gt;Node16 -->
<g id="edge20" class="edge">
<title>Node13&#45;&gt;Node16</title>
<path fill="none" stroke="midnightblue" d="M340.07,-285.42C349.03,-277.35 362.32,-265.36 373.09,-255.65"/>
<polygon fill="midnightblue" stroke="midnightblue" points="375.63,-258.08 380.71,-248.78 370.94,-252.88 375.63,-258.08"/>
</g>
<!-- Node19 -->
<g id="node19" class="node">
<title>Node19</title>
<g id="a_node19"><a xlink:href="_object_8h.html" target="_top" xlink:title="The Object specification and body provides the root object type.">
<polygon fill="white" stroke="black" points="244,-228.5 244,-248.5 302,-248.5 302,-228.5 244,-228.5"/>
<text text-anchor="middle" x="273" y="-235.7" font-family="Helvetica,sans-Serif" font-size="11.00">Object.h</text>
</a>
</g>
</g>
<!-- Node13&#45;&gt;Node19 -->
<g id="edge29" class="edge">
<title>Node13&#45;&gt;Node19</title>
<path fill="none" stroke="midnightblue" d="M320.59,-285.42C312.3,-277.42 300.04,-265.59 290.04,-255.94"/>
<polygon fill="midnightblue" stroke="midnightblue" points="292.24,-253.2 282.62,-248.78 287.38,-258.24 292.24,-253.2"/>
</g>
<!-- Node14&#45;&gt;Node8 -->
<g id="edge15" class="edge">
<title>Node14&#45;&gt;Node8</title>
<path fill="none" stroke="midnightblue" d="M122.65,-228.41C109.84,-201.71 72.15,-123.07 54.86,-86.98"/>
<polygon fill="midnightblue" stroke="midnightblue" points="57.85,-85.14 50.38,-77.63 51.54,-88.16 57.85,-85.14"/>
</g>
<!-- Node15&#45;&gt;Node2 -->
<g id="edge19" class="edge">
<title>Node15&#45;&gt;Node2</title>
<path fill="none" stroke="midnightblue" d="M322.49,-171.42C306.71,-162.74 282.7,-149.53 264.47,-139.51"/>
<polygon fill="midnightblue" stroke="midnightblue" points="265.99,-136.35 255.54,-134.6 262.61,-142.48 265.99,-136.35"/>
</g>
<!-- Node15&#45;&gt;Node3 -->
<g id="edge17" class="edge">
<title>Node15&#45;&gt;Node3</title>
<path fill="none" stroke="midnightblue" d="M338.43,-171.33C337.29,-153.2 334.74,-112.41 333.22,-88"/>
<polygon fill="midnightblue" stroke="midnightblue" points="336.7,-87.55 332.58,-77.79 329.71,-87.99 336.7,-87.55"/>
</g>
<!-- Node15&#45;&gt;Node5 -->
<g id="edge18" class="edge">
<title>Node15&#45;&gt;Node5</title>
<path fill="none" stroke="midnightblue" d="M345.01,-171.2C358.05,-149.74 386.13,-95.64 365,-57 357.24,-42.81 342.95,-32.39 329.21,-25.13"/>
<polygon fill="midnightblue" stroke="midnightblue" points="330.4,-21.82 319.88,-20.6 327.35,-28.12 330.4,-21.82"/>
</g>
<!-- Node16&#45;&gt;Node11 -->
<g id="edge21" class="edge">
<title>Node16&#45;&gt;Node11</title>
<path fill="none" stroke="midnightblue" d="M423.8,-237.85C461.89,-236.44 524.18,-228.2 561,-192 573.55,-179.66 577.96,-159.64 579.43,-144.78"/>
<polygon fill="midnightblue" stroke="midnightblue" points="582.94,-144.85 580.07,-134.65 575.95,-144.4 582.94,-144.85"/>
</g>
<!-- Node16&#45;&gt;Node12 -->
<g id="edge25" class="edge">
<title>Node16&#45;&gt;Node12</title>
<path fill="none" stroke="midnightblue" d="M396.07,-228.33C406.29,-209.88 429.52,-167.92 442.93,-143.69"/>
<polygon fill="midnightblue" stroke="midnightblue" points="446.08,-145.24 447.86,-134.79 439.95,-141.85 446.08,-145.24"/>
</g>
<!-- Node17 -->
<g id="node17" class="node">
<title>Node17</title>
<g id="a_node17"><a xlink:href="_byte_8h.html" target="_top" xlink:title="The Byte specification and body provides a value object type for byte values.">
<polygon fill="white" stroke="black" points="244.5,-171.5 244.5,-191.5 291.5,-191.5 291.5,-171.5 244.5,-171.5"/>
<text text-anchor="middle" x="268" y="-178.7" font-family="Helvetica,sans-Serif" font-size="11.00">Byte.h</text>
</a>
</g>
</g>
<!-- Node16&#45;&gt;Node17 -->
<g id="edge22" class="edge">
<title>Node16&#45;&gt;Node17</title>
<path fill="none" stroke="midnightblue" d="M370.69,-228.42C350.75,-219.5 320.11,-205.8 297.49,-195.69"/>
<polygon fill="midnightblue" stroke="midnightblue" points="298.9,-192.48 288.34,-191.6 296.04,-198.87 298.9,-192.48"/>
</g>
<!-- Node18 -->
<g id="node18" class="node">
<title>Node18</title>
<g id="a_node18"><a xlink:href="_string_list_8h.html" target="_top" xlink:title="The StringList specification defines lists of string values with zero&#45;based arbitrary indexed access ...">
<polygon fill="white" stroke="black" points="480.5,-171.5 480.5,-191.5 551.5,-191.5 551.5,-171.5 480.5,-171.5"/>
<text text-anchor="middle" x="516" y="-178.7" font-family="Helvetica,sans-Serif" font-size="11.00">StringList.h</text>
</a>
</g>
</g>
<!-- Node16&#45;&gt;Node18 -->
<g id="edge26" class="edge">
<title>Node16&#45;&gt;Node18</title>
<path fill="none" stroke="midnightblue" d="M411.64,-228.42C431.91,-219.5 463.04,-205.8 486.03,-195.69"/>
<polygon fill="midnightblue" stroke="midnightblue" points="487.58,-198.83 495.33,-191.6 484.77,-192.42 487.58,-198.83"/>
</g>
<!-- Node17&#45;&gt;Node2 -->
<g id="edge24" class="edge">
<title>Node17&#45;&gt;Node2</title>
<path fill="none" stroke="midnightblue" d="M263.21,-171.42C259.25,-163.9 253.49,-152.98 248.59,-143.68"/>
<polygon fill="midnightblue" stroke="midnightblue" points="251.65,-141.99 243.89,-134.78 245.46,-145.26 251.65,-141.99"/>
</g>
<!-- Node17&#45;&gt;Node3 -->
<g id="edge23" class="edge">
<title>Node17&#45;&gt;Node3</title>
<path fill="none" stroke="midnightblue" d="M273.24,-171.33C283.79,-152.88 307.76,-110.92 321.61,-86.69"/>
<polygon fill="midnightblue" stroke="midnightblue" points="324.77,-88.21 326.69,-77.79 318.69,-84.74 324.77,-88.21"/>
</g>
<!-- Node18&#45;&gt;Node11 -->
<g id="edge27" class="edge">
<title>Node18&#45;&gt;Node11</title>
<path fill="none" stroke="midnightblue" d="M526.57,-171.42C536.05,-163.27 550.19,-151.12 561.54,-141.37"/>
<polygon fill="midnightblue" stroke="midnightblue" points="563.9,-143.95 569.2,-134.78 559.34,-138.64 563.9,-143.95"/>
</g>
<!-- Node18&#45;&gt;Node12 -->
<g id="edge28" class="edge">
<title>Node18&#45;&gt;Node12</title>
<path fill="none" stroke="midnightblue" d="M505.6,-171.42C496.26,-163.27 482.35,-151.12 471.17,-141.37"/>
<polygon fill="midnightblue" stroke="midnightblue" points="473.46,-138.72 463.63,-134.78 468.86,-143.99 473.46,-138.72"/>
</g>
</g>
</svg>
        <g id="navigator" transform="translate(0 0)" fill="#404254">
                <rect fill="#f2f5e9" fill-opacity="0.5" stroke="#606060" stroke-width=".5" x="0" y="0" width="60" height="60"/>
                <use id="zoomplus" xlink:href="#zoomPlus" x="17" y="9" onmousedown="handleZoom(evt,'in')"/>
                <use id="zoomminus" xlink:href="#zoomMin" x="42" y="9" onmousedown="handleZoom(evt,'out')"/>
                <use id="reset" xlink:href="#resetDef" x="30" y="36" onmousedown="handleReset()"/>
                <g id="arrowUp" xlink:href="#dirArrow" transform="translate(30 24)" onmousedown="handlePan(0,-1)">
                  <use xlink:href="#rim" fill="#404040">
                        <set attributeName="fill" to="#808080" begin="arrowUp.mouseover" end="arrowUp.mouseout"/>
                  </use>
                  <path fill="none" stroke="white" stroke-width="1.5" d="M0,-3.0v7 M-2.5,-0.5L0,-3.0L2.5,-0.5"/>
                </g>
                <g id="arrowRight" xlink:href="#dirArrow" transform="rotate(90) translate(36 -43)" onmousedown="handlePan(1,0)">
                  <use xlink:href="#rim" fill="#404040">
                        <set attributeName="fill" to="#808080" begin="arrowRight.mouseover" end="arrowRight.mouseout"/>
                  </use>
                  <path fill="none" stroke="white" stroke-width="1.5" d="M0,-3.0v7 M-2.5,-0.5L0,-3.0L2.5,-0.5"/>
                </g>
                <g id="arrowDown" xlink:href="#dirArrow" transform="rotate(180) translate(-30 -48)" onmousedown="handlePan(0,1)">
                  <use xlink:href="#rim" fill="#404040">
                        <set attributeName="fill" to="#808080" begin="arrowDown.mouseover" end="arrowDown.mouseout"/>
                  </use>
                  <path fill="none" stroke="white" stroke-width="1.5" d="M0,-3.0v7 M-2.5,-0.5L0,-3.0L2.5,-0.5"/>
                </g>
                <g id="arrowLeft" xlink:href="#dirArrow" transform="rotate(270) translate(-36 17)" onmousedown="handlePan(-1,0)">
                  <use xlink:href="#rim" fill="#404040">
                        <set attributeName="fill" to="#808080" begin="arrowLeft.mouseover" end="arrowLeft.mouseout"/>
                  </use>
                  <path fill="none" stroke="white" stroke-width="1.5" d="M0,-3.0v7 M-2.5,-0.5L0,-3.0L2.5,-0.5"/>
                </g>
        </g>
        <svg viewBox="0 0 15 15" width="100%" height="30px" preserveAspectRatio="xMaxYMin meet">
         <g id="arrow_out" transform="scale(0.3 0.3)">
          <a xlink:href="_midi_file_8h__incl_org.svg" target="_base">
           <rect id="button" ry="5" rx="5" y="6" x="6" height="38" width="38"
                fill="#f2f5e9" fill-opacity="0.5" stroke="#606060" stroke-width="1.0"/>
           <path id="arrow"
             d="M 11.500037,31.436501 C 11.940474,20.09759 22.043105,11.32322 32.158766,21.979434 L 37.068811,17.246167 C 37.068811,17.246167 37.088388,32 37.088388,32 L 22.160133,31.978069 C 22.160133,31.978069 26.997745,27.140456 26.997745,27.140456 C 18.528582,18.264221 13.291696,25.230495 11.500037,31.436501 z"
             style="fill:#404040;"/>
          </a>
         </g>
        </svg>
</svg>
