<?xml version="1.0" encoding="UTF-8" standalone="no"?>
<!DOCTYPE svg PUBLIC "-//W3C//DTD SVG 1.1//EN"
 "http://www.w3.org/Graphics/SVG/1.1/DTD/svg11.dtd">
<!-- Generated by graphviz version 2.47.1 (20210417.1919)
 -->
<!-- Title: MidiEventList.h Pages: 1 -->
<svg width="450pt" height="357pt"
 viewBox="0.00 0.00 450.24 357.00" xmlns="http://www.w3.org/2000/svg" xmlns:xlink="http://www.w3.org/1999/xlink">
<g id="graph0" class="graph" transform="scale(1 1) rotate(0) translate(4 353)">
<title>MidiEventList.h</title>
<!-- Node1 -->
<g id="Node000001" class="node">
<title>Node1</title>
<g id="a_Node000001"><a xlink:title="The MidiEventList specification defines lists of MIDI events with zero&#45;based arbitrary indexed access...">
<polygon fill="#999999" stroke="#666666" points="115,-349 32,-349 32,-330 115,-330 115,-349"/>
<text text-anchor="middle" x="73.5" y="-337" font-family="Helvetica,sans-Serif" font-size="10.00">MidiEventList.h</text>
</a>
</g>
</g>
<!-- Node2 -->
<g id="Node000002" class="node">
<title>Node2</title>
<g id="a_Node000002"><a xlink:title=" ">
<polygon fill="#e0e0e0" stroke="#999999" points="73,-129 0,-129 0,-110 73,-110 73,-129"/>
<text text-anchor="middle" x="36.5" y="-117" font-family="Helvetica,sans-Serif" font-size="10.00">initializer_list</text>
</a>
</g>
</g>
<!-- Node1&#45;&gt;Node2 -->
<g id="edge1_Node000001_Node000002" class="edge">
<title>Node1&#45;&gt;Node2</title>
<g id="a_edge1_Node000001_Node000002"><a xlink:title=" ">
<path fill="none" stroke="#63b8ff" d="M70.25,-329.76C67.07,-320.87 62.31,-306.65 59.5,-294 47.19,-238.52 40.59,-171.5 37.93,-139.41"/>
<polygon fill="#63b8ff" stroke="#63b8ff" points="41.4,-138.95 37.12,-129.26 34.43,-139.5 41.4,-138.95"/>
</a>
</g>
</g>
<!-- Node3 -->
<g id="Node000003" class="node">
<title>Node3</title>
<g id="a_Node000003"><a xlink:title=" ">
<polygon fill="#e0e0e0" stroke="#999999" points="166.5,-129 92.5,-129 92.5,-110 166.5,-110 166.5,-129"/>
<text text-anchor="middle" x="129.5" y="-117" font-family="Helvetica,sans-Serif" font-size="10.00">GenericList.h</text>
</a>
</g>
</g>
<!-- Node1&#45;&gt;Node3 -->
<g id="edge2_Node000001_Node000003" class="edge">
<title>Node1&#45;&gt;Node3</title>
<g id="a_edge2_Node000001_Node000003"><a xlink:title=" ">
<path fill="none" stroke="#63b8ff" d="M72.74,-329.76C70.81,-303.56 67.52,-223.86 92.5,-165 96.99,-154.43 104.84,-144.43 112.16,-136.59"/>
<polygon fill="#63b8ff" stroke="#63b8ff" points="114.87,-138.84 119.44,-129.28 109.9,-133.9 114.87,-138.84"/>
</a>
</g>
</g>
<!-- Node4 -->
<g id="Node000004" class="node">
<title>Node4</title>
<g id="a_Node000004"><a xlink:href="_midi_event_8h.html" target="_top" xlink:title="The MidiEvent specification defines a single MIDI event and the MIDI event kind enumeration.">
<polygon fill="white" stroke="#666666" points="243,-294 176,-294 176,-275 243,-275 243,-294"/>
<text text-anchor="middle" x="209.5" y="-282" font-family="Helvetica,sans-Serif" font-size="10.00">MidiEvent.h</text>
</a>
</g>
</g>
<!-- Node1&#45;&gt;Node4 -->
<g id="edge3_Node000001_Node000004" class="edge">
<title>Node1&#45;&gt;Node4</title>
<g id="a_edge3_Node000001_Node000004"><a xlink:title=" ">
<path fill="none" stroke="#63b8ff" d="M95.35,-329.98C117.62,-321.3 152.4,-307.75 177.72,-297.88"/>
<polygon fill="#63b8ff" stroke="#63b8ff" points="179.21,-301.06 187.25,-294.17 176.66,-294.54 179.21,-301.06"/>
</a>
</g>
</g>
<!-- Node5 -->
<g id="Node000005" class="node">
<title>Node5</title>
<g id="a_Node000005"><a xlink:href="_boolean_8h.html" target="_top" xlink:title="The Boolean specification and body provides a value object type for boolean values.">
<polygon fill="white" stroke="#666666" points="314.5,-239 254.5,-239 254.5,-220 314.5,-220 314.5,-239"/>
<text text-anchor="middle" x="284.5" y="-227" font-family="Helvetica,sans-Serif" font-size="10.00">Boolean.h</text>
</a>
</g>
</g>
<!-- Node4&#45;&gt;Node5 -->
<g id="edge4_Node000004_Node000005" class="edge">
<title>Node4&#45;&gt;Node5</title>
<g id="a_edge4_Node000004_Node000005"><a xlink:title=" ">
<path fill="none" stroke="#63b8ff" d="M221.55,-274.98C232.96,-266.92 250.33,-254.65 263.93,-245.03"/>
<polygon fill="#63b8ff" stroke="#63b8ff" points="266.08,-247.8 272.23,-239.17 262.04,-242.08 266.08,-247.8"/>
</a>
</g>
</g>
<!-- Node9 -->
<g id="Node000009" class="node">
<title>Node9</title>
<g id="a_Node000009"><a xlink:href="_integer_8h.html" target="_top" xlink:title="The Integer specification and body provides a value object type for ints.">
<polygon fill="white" stroke="#666666" points="411.5,-184 357.5,-184 357.5,-165 411.5,-165 411.5,-184"/>
<text text-anchor="middle" x="384.5" y="-172" font-family="Helvetica,sans-Serif" font-size="10.00">Integer.h</text>
</a>
</g>
</g>
<!-- Node4&#45;&gt;Node9 -->
<g id="edge8_Node000004_Node000009" class="edge">
<title>Node4&#45;&gt;Node9</title>
<g id="a_edge8_Node000004_Node000009"><a xlink:title=" ">
<path fill="none" stroke="#63b8ff" d="M242.01,-274.93C265.85,-267.7 298.32,-255.81 323.5,-239 342.87,-226.06 360.79,-206.03 372.13,-191.93"/>
<polygon fill="#63b8ff" stroke="#63b8ff" points="374.9,-194.07 378.29,-184.04 369.38,-189.77 374.9,-194.07"/>
</a>
</g>
</g>
<!-- Node15 -->
<g id="Node000015" class="node">
<title>Node15</title>
<g id="a_Node000015"><a xlink:href="_byte_list_8h.html" target="_top" xlink:title="The ByteList specification defines lists of byte values with zero&#45;based arbitrary indexed access to p...">
<polygon fill="white" stroke="#666666" points="165,-239 104,-239 104,-220 165,-220 165,-239"/>
<text text-anchor="middle" x="134.5" y="-227" font-family="Helvetica,sans-Serif" font-size="10.00">ByteList.h</text>
</a>
</g>
</g>
<!-- Node4&#45;&gt;Node15 -->
<g id="edge18_Node000004_Node000015" class="edge">
<title>Node4&#45;&gt;Node15</title>
<g id="a_edge18_Node000004_Node000015"><a xlink:title=" ">
<path fill="none" stroke="#63b8ff" d="M197.45,-274.98C186.04,-266.92 168.67,-254.65 155.07,-245.03"/>
<polygon fill="#63b8ff" stroke="#63b8ff" points="156.96,-242.08 146.77,-239.17 152.92,-247.8 156.96,-242.08"/>
</a>
</g>
</g>
<!-- Node19 -->
<g id="Node000019" class="node">
<title>Node19</title>
<g id="a_Node000019"><a xlink:href="_object_8h.html" target="_top" xlink:title="The Object specification and body provides the root object type.">
<polygon fill="white" stroke="#666666" points="236,-239 183,-239 183,-220 236,-220 236,-239"/>
<text text-anchor="middle" x="209.5" y="-227" font-family="Helvetica,sans-Serif" font-size="10.00">Object.h</text>
</a>
</g>
</g>
<!-- Node4&#45;&gt;Node19 -->
<g id="edge26_Node000004_Node000019" class="edge">
<title>Node4&#45;&gt;Node19</title>
<g id="a_edge26_Node000004_Node000019"><a xlink:title=" ">
<path fill="none" stroke="#63b8ff" d="M209.5,-274.75C209.5,-267.8 209.5,-257.85 209.5,-249.13"/>
<polygon fill="#63b8ff" stroke="#63b8ff" points="213,-249.09 209.5,-239.09 206,-249.09 213,-249.09"/>
</a>
</g>
</g>
<!-- Node6 -->
<g id="Node000006" class="node">
<title>Node6</title>
<g id="a_Node000006"><a xlink:href="_my_string_8h.html" target="_top" xlink:title="The String specification defines a standard string type.">
<polygon fill="white" stroke="#666666" points="171.5,-74 107.5,-74 107.5,-55 171.5,-55 171.5,-74"/>
<text text-anchor="middle" x="139.5" y="-62" font-family="Helvetica,sans-Serif" font-size="10.00">MyString.h</text>
</a>
</g>
</g>
<!-- Node5&#45;&gt;Node6 -->
<g id="edge5_Node000005_Node000006" class="edge">
<title>Node5&#45;&gt;Node6</title>
<g id="a_edge5_Node000005_Node000006"><a xlink:title=" ">
<path fill="none" stroke="#63b8ff" d="M276.7,-219.74C253.49,-193.65 184.58,-116.17 154.18,-82"/>
<polygon fill="#63b8ff" stroke="#63b8ff" points="156.6,-79.45 147.33,-74.31 151.37,-84.1 156.6,-79.45"/>
</a>
</g>
</g>
<!-- Node7 -->
<g id="Node000007" class="node">
<title>Node7</title>
<g id="a_Node000007"><a xlink:title=" ">
<polygon fill="#e0e0e0" stroke="#999999" points="242,-19 201,-19 201,0 242,0 242,-19"/>
<text text-anchor="middle" x="221.5" y="-7" font-family="Helvetica,sans-Serif" font-size="10.00">string</text>
</a>
</g>
</g>
<!-- Node6&#45;&gt;Node7 -->
<g id="edge6_Node000006_Node000007" class="edge">
<title>Node6&#45;&gt;Node7</title>
<g id="a_edge6_Node000006_Node000007"><a xlink:title=" ">
<path fill="none" stroke="#63b8ff" d="M152.67,-54.98C165.27,-46.84 184.5,-34.41 199.44,-24.76"/>
<polygon fill="#63b8ff" stroke="#63b8ff" points="201.59,-27.54 208.09,-19.17 197.79,-21.66 201.59,-27.54"/>
</a>
</g>
</g>
<!-- Node8 -->
<g id="Node000008" class="node">
<title>Node8</title>
<g id="a_Node000008"><a xlink:href="_global_macros_8h.html" target="_top" xlink:title="The GlobalMacros specification defines simple macros (e.g. for parameter modes).">
<polygon fill="white" stroke="#666666" points="182,-19 97,-19 97,0 182,0 182,-19"/>
<text text-anchor="middle" x="139.5" y="-7" font-family="Helvetica,sans-Serif" font-size="10.00">GlobalMacros.h</text>
</a>
</g>
</g>
<!-- Node6&#45;&gt;Node8 -->
<g id="edge7_Node000006_Node000008" class="edge">
<title>Node6&#45;&gt;Node8</title>
<g id="a_edge7_Node000006_Node000008"><a xlink:title=" ">
<path fill="none" stroke="#63b8ff" d="M139.5,-54.75C139.5,-47.8 139.5,-37.85 139.5,-29.13"/>
<polygon fill="#63b8ff" stroke="#63b8ff" points="143,-29.09 139.5,-19.09 136,-29.09 143,-29.09"/>
</a>
</g>
</g>
<!-- Node10 -->
<g id="Node000010" class="node">
<title>Node10</title>
<g id="a_Node000010"><a xlink:title=" ">
<polygon fill="#e0e0e0" stroke="#999999" points="427.5,-74 383.5,-74 383.5,-55 427.5,-55 427.5,-74"/>
<text text-anchor="middle" x="405.5" y="-62" font-family="Helvetica,sans-Serif" font-size="10.00">cmath</text>
</a>
</g>
</g>
<!-- Node9&#45;&gt;Node10 -->
<g id="edge9_Node000009_Node000010" class="edge">
<title>Node9&#45;&gt;Node10</title>
<g id="a_edge9_Node000009_Node000010"><a xlink:title=" ">
<path fill="none" stroke="#63b8ff" d="M386.22,-164.66C389.62,-147.17 397.27,-107.8 401.85,-84.27"/>
<polygon fill="#63b8ff" stroke="#63b8ff" points="405.34,-84.64 403.82,-74.16 398.47,-83.31 405.34,-84.64"/>
</a>
</g>
</g>
<!-- Node11 -->
<g id="Node000011" class="node">
<title>Node11</title>
<g id="a_Node000011"><a xlink:title=" ">
<polygon fill="#e0e0e0" stroke="#999999" points="402,-19 343,-19 343,0 402,0 402,-19"/>
<text text-anchor="middle" x="372.5" y="-7" font-family="Helvetica,sans-Serif" font-size="10.00">stdexcept</text>
</a>
</g>
</g>
<!-- Node9&#45;&gt;Node11 -->
<g id="edge10_Node000009_Node000011" class="edge">
<title>Node9&#45;&gt;Node11</title>
<g id="a_edge10_Node000009_Node000011"><a xlink:title=" ">
<path fill="none" stroke="#63b8ff" d="M393.57,-164.98C413.43,-145.25 457.42,-95.02 436.5,-55 429.39,-41.39 416.01,-31.1 403.31,-23.87"/>
<polygon fill="#63b8ff" stroke="#63b8ff" points="404.77,-20.68 394.29,-19.13 401.52,-26.88 404.77,-20.68"/>
</a>
</g>
</g>
<!-- Node12 -->
<g id="Node000012" class="node">
<title>Node12</title>
<g id="a_Node000012"><a xlink:href="_natural_8h.html" target="_top" xlink:title="The Natural specification and body provides a value object type for naturals (positive integers with ...">
<polygon fill="white" stroke="#666666" points="343.5,-129 287.5,-129 287.5,-110 343.5,-110 343.5,-129"/>
<text text-anchor="middle" x="315.5" y="-117" font-family="Helvetica,sans-Serif" font-size="10.00">Natural.h</text>
</a>
</g>
</g>
<!-- Node9&#45;&gt;Node12 -->
<g id="edge11_Node000009_Node000012" class="edge">
<title>Node9&#45;&gt;Node12</title>
<g id="a_edge11_Node000009_Node000012"><a xlink:title=" ">
<path fill="none" stroke="#63b8ff" d="M373.41,-164.98C363.01,-157 347.24,-144.88 334.78,-135.31"/>
<polygon fill="#63b8ff" stroke="#63b8ff" points="336.85,-132.49 326.79,-129.17 332.59,-138.04 336.85,-132.49"/>
</a>
</g>
</g>
<!-- Node12&#45;&gt;Node6 -->
<g id="edge17_Node000012_Node000006" class="edge">
<title>Node12&#45;&gt;Node6</title>
<g id="a_edge17_Node000012_Node000006"><a xlink:title=" ">
<path fill="none" stroke="#63b8ff" d="M287.22,-109.98C257.55,-101.05 210.71,-86.94 177.75,-77.02"/>
<polygon fill="#63b8ff" stroke="#63b8ff" points="178.58,-73.61 168,-74.08 176.57,-80.32 178.58,-73.61"/>
</a>
</g>
</g>
<!-- Node12&#45;&gt;Node10 -->
<g id="edge12_Node000012_Node000010" class="edge">
<title>Node12&#45;&gt;Node10</title>
<g id="a_edge12_Node000012_Node000010"><a xlink:title=" ">
<path fill="none" stroke="#63b8ff" d="M329.96,-109.98C343.92,-101.77 365.29,-89.18 381.75,-79.49"/>
<polygon fill="#63b8ff" stroke="#63b8ff" points="383.94,-82.26 390.78,-74.17 380.38,-76.23 383.94,-82.26"/>
</a>
</g>
</g>
<!-- Node13 -->
<g id="Node000013" class="node">
<title>Node13</title>
<g id="a_Node000013"><a xlink:href="_assertion_8h.html" target="_top" xlink:title="The Assertion specification defines macros for pre&#45; and postconditions in functions or methods.">
<polygon fill="white" stroke="#666666" points="255.5,-74 189.5,-74 189.5,-55 255.5,-55 255.5,-74"/>
<text text-anchor="middle" x="222.5" y="-62" font-family="Helvetica,sans-Serif" font-size="10.00">Assertion.h</text>
</a>
</g>
</g>
<!-- Node12&#45;&gt;Node13 -->
<g id="edge13_Node000012_Node000013" class="edge">
<title>Node12&#45;&gt;Node13</title>
<g id="a_edge13_Node000012_Node000013"><a xlink:title=" ">
<path fill="none" stroke="#63b8ff" d="M300.56,-109.98C286,-101.69 263.63,-88.94 246.57,-79.22"/>
<polygon fill="#63b8ff" stroke="#63b8ff" points="248.14,-76.08 237.71,-74.17 244.67,-82.16 248.14,-76.08"/>
</a>
</g>
</g>
<!-- Node14 -->
<g id="Node000014" class="node">
<title>Node14</title>
<g id="a_Node000014"><a xlink:title=" ">
<polygon fill="#e0e0e0" stroke="#999999" points="365.5,-74 273.5,-74 273.5,-55 365.5,-55 365.5,-74"/>
<text text-anchor="middle" x="319.5" y="-62" font-family="Helvetica,sans-Serif" font-size="10.00">GenericNumber.h</text>
</a>
</g>
</g>
<!-- Node12&#45;&gt;Node14 -->
<g id="edge16_Node000012_Node000014" class="edge">
<title>Node12&#45;&gt;Node14</title>
<g id="a_edge16_Node000012_Node000014"><a xlink:title=" ">
<path fill="none" stroke="#63b8ff" d="M316.16,-109.75C316.68,-102.8 317.44,-92.85 318.09,-84.13"/>
<polygon fill="#63b8ff" stroke="#63b8ff" points="321.59,-84.32 318.85,-74.09 314.61,-83.8 321.59,-84.32"/>
</a>
</g>
</g>
<!-- Node13&#45;&gt;Node7 -->
<g id="edge15_Node000013_Node000007" class="edge">
<title>Node13&#45;&gt;Node7</title>
<g id="a_edge15_Node000013_Node000007"><a xlink:title=" ">
<path fill="none" stroke="#63b8ff" d="M222.33,-54.75C222.2,-47.8 222.02,-37.85 221.85,-29.13"/>
<polygon fill="#63b8ff" stroke="#63b8ff" points="225.35,-29.02 221.66,-19.09 218.35,-29.15 225.35,-29.02"/>
</a>
</g>
</g>
<!-- Node13&#45;&gt;Node11 -->
<g id="edge14_Node000013_Node000011" class="edge">
<title>Node13&#45;&gt;Node11</title>
<g id="a_edge14_Node000013_Node000011"><a xlink:title=" ">
<path fill="none" stroke="#63b8ff" d="M246.6,-54.98C271.38,-46.23 310.2,-32.51 338.19,-22.62"/>
<polygon fill="#63b8ff" stroke="#63b8ff" points="339.7,-25.8 347.96,-19.17 337.37,-19.2 339.7,-25.8"/>
</a>
</g>
</g>
<!-- Node16 -->
<g id="Node000016" class="node">
<title>Node16</title>
<g id="a_Node000016"><a xlink:href="_byte_8h.html" target="_top" xlink:title="The Byte specification and body provides a value object type for byte values.">
<polygon fill="white" stroke="#666666" points="315,-184 270,-184 270,-165 315,-165 315,-184"/>
<text text-anchor="middle" x="292.5" y="-172" font-family="Helvetica,sans-Serif" font-size="10.00">Byte.h</text>
</a>
</g>
</g>
<!-- Node15&#45;&gt;Node16 -->
<g id="edge19_Node000015_Node000016" class="edge">
<title>Node15&#45;&gt;Node16</title>
<g id="a_edge19_Node000015_Node000016"><a xlink:title=" ">
<path fill="none" stroke="#63b8ff" d="M159.89,-219.98C187.24,-210.81 230.82,-196.19 260.5,-186.23"/>
<polygon fill="#63b8ff" stroke="#63b8ff" points="261.62,-189.55 269.99,-183.05 259.4,-182.91 261.62,-189.55"/>
</a>
</g>
</g>
<!-- Node18 -->
<g id="Node000018" class="node">
<title>Node18</title>
<g id="a_Node000018"><a xlink:href="_string_list_8h.html" target="_top" xlink:title="The StringList specification defines lists of string values with zero&#45;based arbitrary indexed access ...">
<polygon fill="white" stroke="#666666" points="167.5,-184 101.5,-184 101.5,-165 167.5,-165 167.5,-184"/>
<text text-anchor="middle" x="134.5" y="-172" font-family="Helvetica,sans-Serif" font-size="10.00">StringList.h</text>
</a>
</g>
</g>
<!-- Node15&#45;&gt;Node18 -->
<g id="edge23_Node000015_Node000018" class="edge">
<title>Node15&#45;&gt;Node18</title>
<g id="a_edge23_Node000015_Node000018"><a xlink:title=" ">
<path fill="none" stroke="#63b8ff" d="M134.5,-219.75C134.5,-212.8 134.5,-202.85 134.5,-194.13"/>
<polygon fill="#63b8ff" stroke="#63b8ff" points="138,-194.09 134.5,-184.09 131,-194.09 138,-194.09"/>
</a>
</g>
</g>
<!-- Node16&#45;&gt;Node10 -->
<g id="edge20_Node000016_Node000010" class="edge">
<title>Node16&#45;&gt;Node10</title>
<g id="a_edge20_Node000016_Node000010"><a xlink:title=" ">
<path fill="none" stroke="#63b8ff" d="M306.08,-164.79C318.73,-156.38 337.79,-142.89 352.5,-129 367.77,-114.58 382.89,-95.91 393.05,-82.56"/>
<polygon fill="#63b8ff" stroke="#63b8ff" points="396.05,-84.38 399.23,-74.27 390.44,-80.2 396.05,-84.38"/>
</a>
</g>
</g>
<!-- Node16&#45;&gt;Node12 -->
<g id="edge22_Node000016_Node000012" class="edge">
<title>Node16&#45;&gt;Node12</title>
<g id="a_edge22_Node000016_Node000012"><a xlink:title=" ">
<path fill="none" stroke="#63b8ff" d="M296.3,-164.75C299.41,-157.57 303.92,-147.18 307.79,-138.27"/>
<polygon fill="#63b8ff" stroke="#63b8ff" points="311,-139.66 311.77,-129.09 304.58,-136.87 311,-139.66"/>
</a>
</g>
</g>
<!-- Node17 -->
<g id="Node000017" class="node">
<title>Node17</title>
<g id="a_Node000017"><a xlink:title=" ">
<polygon fill="#e0e0e0" stroke="#999999" points="269.5,-129 223.5,-129 223.5,-110 269.5,-110 269.5,-129"/>
<text text-anchor="middle" x="246.5" y="-117" font-family="Helvetica,sans-Serif" font-size="10.00">cstdint</text>
</a>
</g>
</g>
<!-- Node16&#45;&gt;Node17 -->
<g id="edge21_Node000016_Node000017" class="edge">
<title>Node16&#45;&gt;Node17</title>
<g id="a_edge21_Node000016_Node000017"><a xlink:title=" ">
<path fill="none" stroke="#63b8ff" d="M284.9,-164.75C278.34,-157.18 268.68,-146.05 260.69,-136.84"/>
<polygon fill="#63b8ff" stroke="#63b8ff" points="263.15,-134.35 253.95,-129.09 257.87,-138.94 263.15,-134.35"/>
</a>
</g>
</g>
<!-- Node18&#45;&gt;Node2 -->
<g id="edge24_Node000018_Node000002" class="edge">
<title>Node18&#45;&gt;Node2</title>
<g id="a_edge24_Node000018_Node000002"><a xlink:title=" ">
<path fill="none" stroke="#63b8ff" d="M118.75,-164.98C103.27,-156.61 79.41,-143.7 61.36,-133.95"/>
<polygon fill="#63b8ff" stroke="#63b8ff" points="62.99,-130.85 52.53,-129.17 59.66,-137.01 62.99,-130.85"/>
</a>
</g>
</g>
<!-- Node18&#45;&gt;Node3 -->
<g id="edge25_Node000018_Node000003" class="edge">
<title>Node18&#45;&gt;Node3</title>
<g id="a_edge25_Node000018_Node000003"><a xlink:title=" ">
<path fill="none" stroke="#63b8ff" d="M133.67,-164.75C133.02,-157.8 132.08,-147.85 131.26,-139.13"/>
<polygon fill="#63b8ff" stroke="#63b8ff" points="134.73,-138.72 130.31,-129.09 127.77,-139.37 134.73,-138.72"/>
</a>
</g>
</g>
</g>
</svg>
