<?xml version="1.0" encoding="UTF-8" standalone="no"?>
<!DOCTYPE svg PUBLIC "-//W3C//DTD SVG 1.1//EN"
 "http://www.w3.org/Graphics/SVG/1.1/DTD/svg11.dtd">
<!-- Generated by graphviz version 2.47.1 (20210417.1919)
 -->
<!-- Title: MidiEventList.cpp Pages: 1 -->
<!--zoomable 485 -->
<svg id="main" version="1.1" xmlns="http://www.w3.org/2000/svg" xmlns:xlink="http://www.w3.org/1999/xlink" xml:space="preserve" onload="init(evt)">
<style type="text/css"><![CDATA[
.edge:hover path { stroke: red; }
.edge:hover polygon { stroke: red; fill: red; }
]]></style>
<script type="text/javascript"><![CDATA[
var edges = document.getElementsByTagName('g');
if (edges && edges.length) {
  for (var i=0;i<edges.length;i++) {
    if (edges[i].id.substr(0,4)=='edge') {
      edges[i].setAttribute('class','edge');
    }
  }
}
]]></script>
        <defs>
                <circle id="rim" cx="0" cy="0" r="7"/>
                <circle id="rim2" cx="0" cy="0" r="3.5"/>
                <g id="zoomPlus">
                        <use xlink:href="#rim" fill="#404040">
                                <set attributeName="fill" to="#808080" begin="zoomplus.mouseover" end="zoomplus.mouseout"/>
                        </use>
                        <path d="M-4,0h8M0,-4v8" fill="none" stroke="white" stroke-width="1.5" pointer-events="none"/>
                </g>
                <g id="zoomMin">
                        <use xlink:href="#rim" fill="#404040">
                                <set attributeName="fill" to="#808080" begin="zoomminus.mouseover" end="zoomminus.mouseout"/>
                        </use>
                        <path d="M-4,0h8" fill="none" stroke="white" stroke-width="1.5" pointer-events="none"/>
                </g>
                <g id="dirArrow">
                        <path fill="none" stroke="white" stroke-width="1.5" d="M0,-3.0v7 M-2.5,-0.5L0,-3.0L2.5,-0.5"/>
                </g>
               <g id="resetDef">
                       <use xlink:href="#rim2" fill="#404040">
                               <set attributeName="fill" to="#808080" begin="reset.mouseover" end="reset.mouseout"/>
                       </use>
               </g>
        </defs>

<script type="text/javascript">
var viewWidth = 801;
var viewHeight = 485;
var sectionId = 'dynsection-0';
</script>
<script xlink:href="svgpan.js"/>
<svg id="graph" class="graph">
<g id="viewport">
<title>MidiEventList.cpp</title>
<polygon fill="white" stroke="transparent" points="-4,4 -4,-481 797,-481 797,4 -4,4"/>
<!-- Node1 -->
<g id="node1" class="node">
<title>Node1</title>
<g id="a_node1"><a xlink:title="The MIDIEventList body implements sequences of integer values with zero&#45;based arbitrary indexed acces...">
<polygon fill="#bfbfbf" stroke="black" points="390.5,-456.5 390.5,-476.5 491.5,-476.5 491.5,-456.5 390.5,-456.5"/>
<text text-anchor="middle" x="441" y="-463.7" font-family="Helvetica,sans-Serif" font-size="11.00">MidiEventList.cpp</text>
</a>
</g>
</g>
<!-- Node2 -->
<g id="node2" class="node">
<title>Node2</title>
<g id="a_node2"><a xlink:title=" ">
<polygon fill="white" stroke="#bfbfbf" points="149.5,-342.5 149.5,-362.5 202.5,-362.5 202.5,-342.5 149.5,-342.5"/>
<text text-anchor="middle" x="176" y="-349.7" font-family="Helvetica,sans-Serif" font-size="11.00">cstdarg</text>
</a>
</g>
</g>
<!-- Node1&#45;&gt;Node2 -->
<g id="edge1" class="edge">
<title>Node1&#45;&gt;Node2</title>
<path fill="none" stroke="midnightblue" d="M397.63,-456.42C365.23,-448.83 320.3,-436.58 283,-420 251.14,-405.84 217.47,-383.53 196.6,-368.71"/>
<polygon fill="midnightblue" stroke="midnightblue" points="198.38,-365.68 188.22,-362.67 194.28,-371.36 198.38,-365.68"/>
</g>
<!-- Node3 -->
<g id="node3" class="node">
<title>Node3</title>
<g id="a_node3"><a xlink:href="_logging_8h.html" target="_top" xlink:title="The Logging specification defines macros for entry&#45;, exit&#45; and intermediate logging of functions into...">
<polygon fill="white" stroke="black" points="292,-399.5 292,-419.5 356,-419.5 356,-399.5 292,-399.5"/>
<text text-anchor="middle" x="324" y="-406.7" font-family="Helvetica,sans-Serif" font-size="11.00">Logging.h</text>
</a>
</g>
</g>
<!-- Node1&#45;&gt;Node3 -->
<g id="edge2" class="edge">
<title>Node1&#45;&gt;Node3</title>
<path fill="none" stroke="midnightblue" d="M421.68,-456.42C402.88,-447.58 374.09,-434.05 352.63,-423.96"/>
<polygon fill="midnightblue" stroke="midnightblue" points="353.89,-420.68 343.35,-419.6 350.91,-427.02 353.89,-420.68"/>
</g>
<!-- Node24 -->
<g id="node24" class="node">
<title>Node24</title>
<g id="a_node24"><a xlink:href="_midi_event_list_8h.html" target="_top" xlink:title="The MidiEventList specification defines lists of MIDI events with zero&#45;based arbitrary indexed access...">
<polygon fill="white" stroke="black" points="549.5,-399.5 549.5,-419.5 638.5,-419.5 638.5,-399.5 549.5,-399.5"/>
<text text-anchor="middle" x="594" y="-406.7" font-family="Helvetica,sans-Serif" font-size="11.00">MidiEventList.h</text>
</a>
</g>
</g>
<!-- Node1&#45;&gt;Node24 -->
<g id="edge32" class="edge">
<title>Node1&#45;&gt;Node24</title>
<path fill="none" stroke="midnightblue" d="M466.26,-456.42C491.7,-447.27 531.12,-433.1 559.44,-422.92"/>
<polygon fill="midnightblue" stroke="midnightblue" points="560.73,-426.18 568.95,-419.5 558.36,-419.59 560.73,-426.18"/>
</g>
<!-- Node27 -->
<g id="node27" class="node">
<title>Node27</title>
<g id="a_node27"><a xlink:href="_object_8h.html" target="_top" xlink:title="The Object specification and body provides the root object type.">
<polygon fill="white" stroke="black" points="735,-285.5 735,-305.5 793,-305.5 793,-285.5 735,-285.5"/>
<text text-anchor="middle" x="764" y="-292.7" font-family="Helvetica,sans-Serif" font-size="11.00">Object.h</text>
</a>
</g>
</g>
<!-- Node1&#45;&gt;Node27 -->
<g id="edge43" class="edge">
<title>Node1&#45;&gt;Node27</title>
<path fill="none" stroke="midnightblue" d="M491.65,-462.75C535.51,-458.48 599.37,-447.62 648,-420 694.9,-393.36 734.13,-341.52 752.62,-314.24"/>
<polygon fill="midnightblue" stroke="midnightblue" points="755.67,-315.98 758.27,-305.71 749.83,-312.11 755.67,-315.98"/>
</g>
<!-- Node3&#45;&gt;Node2 -->
<g id="edge3" class="edge">
<title>Node3&#45;&gt;Node2</title>
<path fill="none" stroke="midnightblue" d="M299.56,-399.42C275.14,-390.34 237.39,-376.31 210.04,-366.15"/>
<polygon fill="midnightblue" stroke="midnightblue" points="211.07,-362.8 200.48,-362.6 208.63,-369.36 211.07,-362.8"/>
</g>
<!-- Node4 -->
<g id="node4" class="node">
<title>Node4</title>
<g id="a_node4"><a xlink:href="_logging_support_8h.html" target="_top" xlink:title="The LoggingSupport specification defines a class for simple entry/exit logging to a file; this loggin...">
<polygon fill="white" stroke="black" points="221,-342.5 221,-362.5 323,-362.5 323,-342.5 221,-342.5"/>
<text text-anchor="middle" x="272" y="-349.7" font-family="Helvetica,sans-Serif" font-size="11.00">LoggingSupport.h</text>
</a>
</g>
</g>
<!-- Node3&#45;&gt;Node4 -->
<g id="edge4" class="edge">
<title>Node3&#45;&gt;Node4</title>
<path fill="none" stroke="midnightblue" d="M315.41,-399.42C307.93,-391.5 296.89,-379.82 287.81,-370.23"/>
<polygon fill="midnightblue" stroke="midnightblue" points="290.19,-367.64 280.77,-362.78 285.1,-372.45 290.19,-367.64"/>
</g>
<!-- Node14 -->
<g id="node14" class="node">
<title>Node14</title>
<g id="a_node14"><a xlink:href="_string_util_8h.html" target="_top" xlink:title="The StringUtil specification defines several string routines not included in the standard C++ library...">
<polygon fill="white" stroke="black" points="341.5,-342.5 341.5,-362.5 410.5,-362.5 410.5,-342.5 341.5,-342.5"/>
<text text-anchor="middle" x="376" y="-349.7" font-family="Helvetica,sans-Serif" font-size="11.00">StringUtil.h</text>
</a>
</g>
</g>
<!-- Node3&#45;&gt;Node14 -->
<g id="edge15" class="edge">
<title>Node3&#45;&gt;Node14</title>
<path fill="none" stroke="midnightblue" d="M332.59,-399.42C340.07,-391.5 351.11,-379.82 360.19,-370.23"/>
<polygon fill="midnightblue" stroke="midnightblue" points="362.9,-372.45 367.23,-362.78 357.81,-367.64 362.9,-372.45"/>
</g>
<!-- Node5 -->
<g id="node5" class="node">
<title>Node5</title>
<g id="a_node5"><a xlink:href="_boolean_8h.html" target="_top" xlink:title="The Boolean specification and body provides a value object type for boolean values.">
<polygon fill="white" stroke="black" points="226.5,-285.5 226.5,-305.5 291.5,-305.5 291.5,-285.5 226.5,-285.5"/>
<text text-anchor="middle" x="259" y="-292.7" font-family="Helvetica,sans-Serif" font-size="11.00">Boolean.h</text>
</a>
</g>
</g>
<!-- Node4&#45;&gt;Node5 -->
<g id="edge5" class="edge">
<title>Node4&#45;&gt;Node5</title>
<path fill="none" stroke="midnightblue" d="M269.85,-342.42C268.13,-335.14 265.66,-324.67 263.51,-315.57"/>
<polygon fill="midnightblue" stroke="midnightblue" points="266.9,-314.71 261.19,-305.78 260.09,-316.32 266.9,-314.71"/>
</g>
<!-- Node9 -->
<g id="node9" class="node">
<title>Node9</title>
<g id="a_node9"><a xlink:href="_natural_8h.html" target="_top" xlink:title="The Natural specification and body provides a value object type for naturals (positive integers with ...">
<polygon fill="white" stroke="black" points="230,-114.5 230,-134.5 290,-134.5 290,-114.5 230,-114.5"/>
<text text-anchor="middle" x="260" y="-121.7" font-family="Helvetica,sans-Serif" font-size="11.00">Natural.h</text>
</a>
</g>
</g>
<!-- Node4&#45;&gt;Node9 -->
<g id="edge9" class="edge">
<title>Node4&#45;&gt;Node9</title>
<path fill="none" stroke="midnightblue" d="M254.58,-342.35C241.82,-334.57 225.5,-322.12 218,-306 191.94,-249.97 228.62,-176.43 248.57,-143.18"/>
<polygon fill="midnightblue" stroke="midnightblue" points="251.61,-144.91 253.91,-134.57 245.66,-141.22 251.61,-144.91"/>
</g>
<!-- Node6 -->
<g id="node6" class="node">
<title>Node6</title>
<g id="a_node6"><a xlink:href="_my_string_8h.html" target="_top" xlink:title="The String specification defines a standard string type.">
<polygon fill="white" stroke="black" points="74,-57.5 74,-77.5 142,-77.5 142,-57.5 74,-57.5"/>
<text text-anchor="middle" x="108" y="-64.7" font-family="Helvetica,sans-Serif" font-size="11.00">MyString.h</text>
</a>
</g>
</g>
<!-- Node5&#45;&gt;Node6 -->
<g id="edge6" class="edge">
<title>Node5&#45;&gt;Node6</title>
<path fill="none" stroke="midnightblue" d="M252.89,-285.36C230.13,-251.28 149.94,-131.27 119.68,-85.98"/>
<polygon fill="midnightblue" stroke="midnightblue" points="122.48,-83.88 114.02,-77.51 116.66,-87.76 122.48,-83.88"/>
</g>
<!-- Node7 -->
<g id="node7" class="node">
<title>Node7</title>
<g id="a_node7"><a xlink:title=" ">
<polygon fill="white" stroke="#bfbfbf" points="0,-0.5 0,-20.5 44,-20.5 44,-0.5 0,-0.5"/>
<text text-anchor="middle" x="22" y="-7.7" font-family="Helvetica,sans-Serif" font-size="11.00">string</text>
</a>
</g>
</g>
<!-- Node6&#45;&gt;Node7 -->
<g id="edge7" class="edge">
<title>Node6&#45;&gt;Node7</title>
<path fill="none" stroke="midnightblue" d="M93.8,-57.42C80.48,-48.9 60.33,-36.02 44.77,-26.06"/>
<polygon fill="midnightblue" stroke="midnightblue" points="46.53,-23.03 36.22,-20.6 42.76,-28.93 46.53,-23.03"/>
</g>
<!-- Node8 -->
<g id="node8" class="node">
<title>Node8</title>
<g id="a_node8"><a xlink:href="_global_macros_8h.html" target="_top" xlink:title="The GlobalMacros specification defines simple macros (e.g. for parameter modes).">
<polygon fill="white" stroke="black" points="62,-0.5 62,-20.5 154,-20.5 154,-0.5 62,-0.5"/>
<text text-anchor="middle" x="108" y="-7.7" font-family="Helvetica,sans-Serif" font-size="11.00">GlobalMacros.h</text>
</a>
</g>
</g>
<!-- Node6&#45;&gt;Node8 -->
<g id="edge8" class="edge">
<title>Node6&#45;&gt;Node8</title>
<path fill="none" stroke="midnightblue" d="M108,-57.42C108,-50.22 108,-39.9 108,-30.86"/>
<polygon fill="midnightblue" stroke="midnightblue" points="111.5,-30.78 108,-20.78 104.5,-30.78 111.5,-30.78"/>
</g>
<!-- Node9&#45;&gt;Node6 -->
<g id="edge14" class="edge">
<title>Node9&#45;&gt;Node6</title>
<path fill="none" stroke="midnightblue" d="M234.9,-114.42C209.63,-105.27 170.47,-91.1 142.34,-80.92"/>
<polygon fill="midnightblue" stroke="midnightblue" points="143.48,-77.62 132.88,-77.5 141.1,-84.2 143.48,-77.62"/>
</g>
<!-- Node10 -->
<g id="node10" class="node">
<title>Node10</title>
<g id="a_node10"><a xlink:title=" ">
<polygon fill="white" stroke="#bfbfbf" points="370.5,-57.5 370.5,-77.5 417.5,-77.5 417.5,-57.5 370.5,-57.5"/>
<text text-anchor="middle" x="394" y="-64.7" font-family="Helvetica,sans-Serif" font-size="11.00">cmath</text>
</a>
</g>
</g>
<!-- Node9&#45;&gt;Node10 -->
<g id="edge10" class="edge">
<title>Node9&#45;&gt;Node10</title>
<path fill="none" stroke="midnightblue" d="M282.13,-114.42C304.05,-105.42 337.82,-91.56 362.53,-81.42"/>
<polygon fill="midnightblue" stroke="midnightblue" points="363.92,-84.63 371.84,-77.6 361.26,-78.15 363.92,-84.63"/>
</g>
<!-- Node11 -->
<g id="node11" class="node">
<title>Node11</title>
<g id="a_node11"><a xlink:href="_assertion_8h.html" target="_top" xlink:title="The Assertion specification defines macros for pre&#45; and postconditions in functions or methods.">
<polygon fill="white" stroke="black" points="160.5,-57.5 160.5,-77.5 231.5,-77.5 231.5,-57.5 160.5,-57.5"/>
<text text-anchor="middle" x="196" y="-64.7" font-family="Helvetica,sans-Serif" font-size="11.00">Assertion.h</text>
</a>
</g>
</g>
<!-- Node9&#45;&gt;Node11 -->
<g id="edge11" class="edge">
<title>Node9&#45;&gt;Node11</title>
<path fill="none" stroke="midnightblue" d="M249.43,-114.42C239.95,-106.27 225.81,-94.12 214.46,-84.37"/>
<polygon fill="midnightblue" stroke="midnightblue" points="216.66,-81.64 206.8,-77.78 212.1,-86.95 216.66,-81.64"/>
</g>
<!-- Node13 -->
<g id="node13" class="node">
<title>Node13</title>
<g id="a_node13"><a xlink:title=" ">
<polygon fill="white" stroke="#bfbfbf" points="249.5,-57.5 249.5,-77.5 352.5,-77.5 352.5,-57.5 249.5,-57.5"/>
<text text-anchor="middle" x="301" y="-64.7" font-family="Helvetica,sans-Serif" font-size="11.00">GenericNumber.h</text>
</a>
</g>
</g>
<!-- Node9&#45;&gt;Node13 -->
<g id="edge13" class="edge">
<title>Node9&#45;&gt;Node13</title>
<path fill="none" stroke="midnightblue" d="M266.77,-114.42C272.55,-106.66 281.03,-95.29 288.1,-85.8"/>
<polygon fill="midnightblue" stroke="midnightblue" points="290.91,-87.89 294.08,-77.78 285.3,-83.71 290.91,-87.89"/>
</g>
<!-- Node12 -->
<g id="node12" class="node">
<title>Node12</title>
<g id="a_node12"><a xlink:title=" ">
<polygon fill="white" stroke="#bfbfbf" points="172.5,-0.5 172.5,-20.5 225.5,-20.5 225.5,-0.5 172.5,-0.5"/>
<text text-anchor="middle" x="199" y="-7.7" font-family="Helvetica,sans-Serif" font-size="11.00">cassert</text>
</a>
</g>
</g>
<!-- Node11&#45;&gt;Node12 -->
<g id="edge12" class="edge">
<title>Node11&#45;&gt;Node12</title>
<path fill="none" stroke="midnightblue" d="M196.5,-57.42C196.89,-50.22 197.45,-39.9 197.94,-30.86"/>
<polygon fill="midnightblue" stroke="midnightblue" points="201.44,-30.96 198.49,-20.78 194.45,-30.57 201.44,-30.96"/>
</g>
<!-- Node14&#45;&gt;Node5 -->
<g id="edge16" class="edge">
<title>Node14&#45;&gt;Node5</title>
<path fill="none" stroke="midnightblue" d="M356.68,-342.42C337.88,-333.58 309.09,-320.05 287.63,-309.96"/>
<polygon fill="midnightblue" stroke="midnightblue" points="288.89,-306.68 278.35,-305.6 285.91,-313.02 288.89,-306.68"/>
</g>
<!-- Node15 -->
<g id="node15" class="node">
<title>Node15</title>
<g id="a_node15"><a xlink:href="_character_8h.html" target="_top" xlink:title="The Character specification and body provides a value object type for character values.">
<polygon fill="white" stroke="black" points="252,-228.5 252,-248.5 326,-248.5 326,-228.5 252,-228.5"/>
<text text-anchor="middle" x="289" y="-235.7" font-family="Helvetica,sans-Serif" font-size="11.00">Character.h</text>
</a>
</g>
</g>
<!-- Node14&#45;&gt;Node15 -->
<g id="edge17" class="edge">
<title>Node14&#45;&gt;Node15</title>
<path fill="none" stroke="midnightblue" d="M368.24,-342.17C360.68,-333.03 348.91,-318.67 339,-306 326.13,-289.54 311.84,-270.46 301.85,-256.96"/>
<polygon fill="midnightblue" stroke="midnightblue" points="304.44,-254.58 295.69,-248.62 298.81,-258.74 304.44,-254.58"/>
</g>
<!-- Node17 -->
<g id="node17" class="node">
<title>Node17</title>
<g id="a_node17"><a xlink:href="_percentage_8h.html" target="_top" xlink:title="The Percentage specification and body provides a simple percentage type.">
<polygon fill="white" stroke="black" points="348,-285.5 348,-305.5 430,-305.5 430,-285.5 348,-285.5"/>
<text text-anchor="middle" x="389" y="-292.7" font-family="Helvetica,sans-Serif" font-size="11.00">Percentage.h</text>
</a>
</g>
</g>
<!-- Node14&#45;&gt;Node17 -->
<g id="edge22" class="edge">
<title>Node14&#45;&gt;Node17</title>
<path fill="none" stroke="midnightblue" d="M378.15,-342.42C379.87,-335.14 382.34,-324.67 384.49,-315.57"/>
<polygon fill="midnightblue" stroke="midnightblue" points="387.91,-316.32 386.81,-305.78 381.1,-314.71 387.91,-316.32"/>
</g>
<!-- Node21 -->
<g id="node21" class="node">
<title>Node21</title>
<g id="a_node21"><a xlink:href="_string_list_8h.html" target="_top" xlink:title="The StringList specification defines lists of string values with zero&#45;based arbitrary indexed access ...">
<polygon fill="white" stroke="black" points="569.5,-285.5 569.5,-305.5 640.5,-305.5 640.5,-285.5 569.5,-285.5"/>
<text text-anchor="middle" x="605" y="-292.7" font-family="Helvetica,sans-Serif" font-size="11.00">StringList.h</text>
</a>
</g>
</g>
<!-- Node14&#45;&gt;Node21 -->
<g id="edge29" class="edge">
<title>Node14&#45;&gt;Node21</title>
<path fill="none" stroke="midnightblue" d="M410.78,-343.15C450.48,-333.61 515.56,-317.98 559.32,-307.47"/>
<polygon fill="midnightblue" stroke="midnightblue" points="560.23,-310.85 569.14,-305.11 558.6,-304.05 560.23,-310.85"/>
</g>
<!-- Node15&#45;&gt;Node10 -->
<g id="edge18" class="edge">
<title>Node15&#45;&gt;Node10</title>
<path fill="none" stroke="midnightblue" d="M297.74,-228.18C305.84,-219.27 317.98,-205.28 327,-192 351.1,-156.51 373.71,-111.49 385.5,-86.79"/>
<polygon fill="midnightblue" stroke="midnightblue" points="388.77,-88.07 389.86,-77.53 382.43,-85.09 388.77,-88.07"/>
</g>
<!-- Node16 -->
<g id="node16" class="node">
<title>Node16</title>
<g id="a_node16"><a xlink:href="_byte_8h.html" target="_top" xlink:title="The Byte specification and body provides a value object type for byte values.">
<polygon fill="white" stroke="black" points="270.5,-171.5 270.5,-191.5 317.5,-191.5 317.5,-171.5 270.5,-171.5"/>
<text text-anchor="middle" x="294" y="-178.7" font-family="Helvetica,sans-Serif" font-size="11.00">Byte.h</text>
</a>
</g>
</g>
<!-- Node15&#45;&gt;Node16 -->
<g id="edge19" class="edge">
<title>Node15&#45;&gt;Node16</title>
<path fill="none" stroke="midnightblue" d="M289.83,-228.42C290.48,-221.22 291.42,-210.9 292.24,-201.86"/>
<polygon fill="midnightblue" stroke="midnightblue" points="295.74,-202.06 293.16,-191.78 288.77,-201.42 295.74,-202.06"/>
</g>
<!-- Node16&#45;&gt;Node9 -->
<g id="edge21" class="edge">
<title>Node16&#45;&gt;Node9</title>
<path fill="none" stroke="midnightblue" d="M288.39,-171.42C283.69,-163.82 276.85,-152.75 271.06,-143.39"/>
<polygon fill="midnightblue" stroke="midnightblue" points="273.97,-141.45 265.74,-134.78 268.02,-145.13 273.97,-141.45"/>
</g>
<!-- Node16&#45;&gt;Node10 -->
<g id="edge20" class="edge">
<title>Node16&#45;&gt;Node10</title>
<path fill="none" stroke="midnightblue" d="M299.62,-171.41C308.02,-158.13 324.75,-132.95 342,-114 351.84,-103.19 364.1,-92.36 374.24,-83.98"/>
<polygon fill="midnightblue" stroke="midnightblue" points="376.59,-86.58 382.16,-77.57 372.19,-81.14 376.59,-86.58"/>
</g>
<!-- Node18 -->
<g id="node18" class="node">
<title>Node18</title>
<g id="a_node18"><a xlink:href="_real_8h.html" target="_top" xlink:title="The Real specification defines a value object type for real values.">
<polygon fill="white" stroke="black" points="382,-228.5 382,-248.5 430,-248.5 430,-228.5 382,-228.5"/>
<text text-anchor="middle" x="406" y="-235.7" font-family="Helvetica,sans-Serif" font-size="11.00">Real.h</text>
</a>
</g>
</g>
<!-- Node17&#45;&gt;Node18 -->
<g id="edge23" class="edge">
<title>Node17&#45;&gt;Node18</title>
<path fill="none" stroke="midnightblue" d="M391.81,-285.42C394.06,-278.14 397.29,-267.67 400.11,-258.57"/>
<polygon fill="midnightblue" stroke="midnightblue" points="403.52,-259.37 403.13,-248.78 396.83,-257.3 403.52,-259.37"/>
</g>
<!-- Node18&#45;&gt;Node10 -->
<g id="edge24" class="edge">
<title>Node18&#45;&gt;Node10</title>
<path fill="none" stroke="midnightblue" d="M405.35,-228.41C403.47,-201.94 397.97,-124.42 395.38,-87.92"/>
<polygon fill="midnightblue" stroke="midnightblue" points="398.85,-87.36 394.65,-77.63 391.87,-87.85 398.85,-87.36"/>
</g>
<!-- Node19 -->
<g id="node19" class="node">
<title>Node19</title>
<g id="a_node19"><a xlink:href="_integer_8h.html" target="_top" xlink:title="The Integer specification and body provides a value object type for ints.">
<polygon fill="white" stroke="black" points="422.5,-171.5 422.5,-191.5 481.5,-191.5 481.5,-171.5 422.5,-171.5"/>
<text text-anchor="middle" x="452" y="-178.7" font-family="Helvetica,sans-Serif" font-size="11.00">Integer.h</text>
</a>
</g>
</g>
<!-- Node18&#45;&gt;Node19 -->
<g id="edge25" class="edge">
<title>Node18&#45;&gt;Node19</title>
<path fill="none" stroke="midnightblue" d="M413.6,-228.42C420.15,-220.58 429.79,-209.06 437.77,-199.51"/>
<polygon fill="midnightblue" stroke="midnightblue" points="440.51,-201.7 444.24,-191.78 435.14,-197.2 440.51,-201.7"/>
</g>
<!-- Node19&#45;&gt;Node9 -->
<g id="edge28" class="edge">
<title>Node19&#45;&gt;Node9</title>
<path fill="none" stroke="midnightblue" d="M422.42,-172.03C389.63,-162.63 336.57,-147.43 300.07,-136.98"/>
<polygon fill="midnightblue" stroke="midnightblue" points="300.82,-133.55 290.25,-134.16 298.9,-140.28 300.82,-133.55"/>
</g>
<!-- Node19&#45;&gt;Node10 -->
<g id="edge26" class="edge">
<title>Node19&#45;&gt;Node10</title>
<path fill="none" stroke="midnightblue" d="M447.25,-171.33C437.69,-152.88 415.97,-110.92 403.42,-86.69"/>
<polygon fill="midnightblue" stroke="midnightblue" points="406.52,-85.06 398.81,-77.79 400.3,-88.28 406.52,-85.06"/>
</g>
<!-- Node20 -->
<g id="node20" class="node">
<title>Node20</title>
<g id="a_node20"><a xlink:title=" ">
<polygon fill="white" stroke="#bfbfbf" points="460,-114.5 460,-134.5 524,-134.5 524,-114.5 460,-114.5"/>
<text text-anchor="middle" x="492" y="-121.7" font-family="Helvetica,sans-Serif" font-size="11.00">stdexcept</text>
</a>
</g>
</g>
<!-- Node19&#45;&gt;Node20 -->
<g id="edge27" class="edge">
<title>Node19&#45;&gt;Node20</title>
<path fill="none" stroke="midnightblue" d="M458.61,-171.42C464.19,-163.74 472.35,-152.52 479.2,-143.09"/>
<polygon fill="midnightblue" stroke="midnightblue" points="482.2,-144.93 485.25,-134.78 476.54,-140.81 482.2,-144.93"/>
</g>
<!-- Node22 -->
<g id="node22" class="node">
<title>Node22</title>
<g id="a_node22"><a xlink:title=" ">
<polygon fill="white" stroke="#bfbfbf" points="526,-228.5 526,-248.5 604,-248.5 604,-228.5 526,-228.5"/>
<text text-anchor="middle" x="565" y="-235.7" font-family="Helvetica,sans-Serif" font-size="11.00">initializer_list</text>
</a>
</g>
</g>
<!-- Node21&#45;&gt;Node22 -->
<g id="edge30" class="edge">
<title>Node21&#45;&gt;Node22</title>
<path fill="none" stroke="midnightblue" d="M598.39,-285.42C592.81,-277.74 584.65,-266.52 577.8,-257.09"/>
<polygon fill="midnightblue" stroke="midnightblue" points="580.46,-254.81 571.75,-248.78 574.8,-258.93 580.46,-254.81"/>
</g>
<!-- Node23 -->
<g id="node23" class="node">
<title>Node23</title>
<g id="a_node23"><a xlink:title=" ">
<polygon fill="white" stroke="#bfbfbf" points="622.5,-228.5 622.5,-248.5 703.5,-248.5 703.5,-228.5 622.5,-228.5"/>
<text text-anchor="middle" x="663" y="-235.7" font-family="Helvetica,sans-Serif" font-size="11.00">GenericList.h</text>
</a>
</g>
</g>
<!-- Node21&#45;&gt;Node23 -->
<g id="edge31" class="edge">
<title>Node21&#45;&gt;Node23</title>
<path fill="none" stroke="midnightblue" d="M614.58,-285.42C623.01,-277.42 635.49,-265.59 645.67,-255.94"/>
<polygon fill="midnightblue" stroke="midnightblue" points="648.37,-258.2 653.21,-248.78 643.55,-253.12 648.37,-258.2"/>
</g>
<!-- Node24&#45;&gt;Node22 -->
<g id="edge33" class="edge">
<title>Node24&#45;&gt;Node22</title>
<path fill="none" stroke="midnightblue" d="M604.01,-399.47C625.93,-378.58 674.31,-325.6 650,-285 640.95,-269.9 624.99,-259.53 609.33,-252.54"/>
<polygon fill="midnightblue" stroke="midnightblue" points="610.26,-249.14 599.68,-248.62 607.63,-255.63 610.26,-249.14"/>
</g>
<!-- Node24&#45;&gt;Node23 -->
<g id="edge34" class="edge">
<title>Node24&#45;&gt;Node23</title>
<path fill="none" stroke="midnightblue" d="M613.02,-399.48C627.13,-391.78 645.65,-379.36 656,-363 676.21,-331.07 671.94,-284.69 667.3,-258.8"/>
<polygon fill="midnightblue" stroke="midnightblue" points="670.69,-257.89 665.29,-248.77 663.82,-259.27 670.69,-257.89"/>
</g>
<!-- Node25 -->
<g id="node25" class="node">
<title>Node25</title>
<g id="a_node25"><a xlink:href="_midi_event_8h.html" target="_top" xlink:title="The MidiEvent specification defines a single MIDI event and the MIDI event kind enumeration.">
<polygon fill="white" stroke="black" points="483,-342.5 483,-362.5 555,-362.5 555,-342.5 483,-342.5"/>
<text text-anchor="middle" x="519" y="-349.7" font-family="Helvetica,sans-Serif" font-size="11.00">MidiEvent.h</text>
</a>
</g>
</g>
<!-- Node24&#45;&gt;Node25 -->
<g id="edge35" class="edge">
<title>Node24&#45;&gt;Node25</title>
<path fill="none" stroke="midnightblue" d="M581.62,-399.42C570.22,-391.06 553.09,-378.5 539.62,-368.62"/>
<polygon fill="midnightblue" stroke="midnightblue" points="541.54,-365.69 531.4,-362.6 537.4,-371.33 541.54,-365.69"/>
</g>
<!-- Node25&#45;&gt;Node5 -->
<g id="edge36" class="edge">
<title>Node25&#45;&gt;Node5</title>
<path fill="none" stroke="midnightblue" d="M482.85,-343.85C435.33,-333.8 352,-316.17 301.51,-305.49"/>
<polygon fill="midnightblue" stroke="midnightblue" points="302.08,-302.03 291.57,-303.39 300.63,-308.88 302.08,-302.03"/>
</g>
<!-- Node25&#45;&gt;Node19 -->
<g id="edge37" class="edge">
<title>Node25&#45;&gt;Node19</title>
<path fill="none" stroke="midnightblue" d="M507.83,-342.21C498.41,-333.75 485.33,-320.41 478,-306 460.69,-271.96 454.9,-227.02 452.96,-201.8"/>
<polygon fill="midnightblue" stroke="midnightblue" points="456.45,-201.47 452.32,-191.72 449.46,-201.92 456.45,-201.47"/>
</g>
<!-- Node26 -->
<g id="node26" class="node">
<title>Node26</title>
<g id="a_node26"><a xlink:href="_byte_list_8h.html" target="_top" xlink:title="The ByteList specification defines lists of byte values with zero&#45;based arbitrary indexed access to p...">
<polygon fill="white" stroke="black" points="486.5,-285.5 486.5,-305.5 551.5,-305.5 551.5,-285.5 486.5,-285.5"/>
<text text-anchor="middle" x="519" y="-292.7" font-family="Helvetica,sans-Serif" font-size="11.00">ByteList.h</text>
</a>
</g>
</g>
<!-- Node25&#45;&gt;Node26 -->
<g id="edge38" class="edge">
<title>Node25&#45;&gt;Node26</title>
<path fill="none" stroke="midnightblue" d="M519,-342.42C519,-335.22 519,-324.9 519,-315.86"/>
<polygon fill="midnightblue" stroke="midnightblue" points="522.5,-315.78 519,-305.78 515.5,-315.78 522.5,-315.78"/>
</g>
<!-- Node25&#45;&gt;Node27 -->
<g id="edge42" class="edge">
<title>Node25&#45;&gt;Node27</title>
<path fill="none" stroke="midnightblue" d="M555.15,-343.38C600.57,-333.19 678.2,-315.76 724.94,-305.27"/>
<polygon fill="midnightblue" stroke="midnightblue" points="726,-308.62 734.99,-303.01 724.47,-301.79 726,-308.62"/>
</g>
<!-- Node26&#45;&gt;Node16 -->
<g id="edge40" class="edge">
<title>Node26&#45;&gt;Node16</title>
<path fill="none" stroke="midnightblue" d="M486.5,-288.27C455.89,-281.51 409.45,-268.95 373,-249 348.59,-235.63 324.73,-214.02 309.73,-199.08"/>
<polygon fill="midnightblue" stroke="midnightblue" points="311.86,-196.26 302.37,-191.56 306.86,-201.16 311.86,-196.26"/>
</g>
<!-- Node26&#45;&gt;Node22 -->
<g id="edge39" class="edge">
<title>Node26&#45;&gt;Node22</title>
<path fill="none" stroke="midnightblue" d="M526.6,-285.42C533.15,-277.58 542.79,-266.06 550.77,-256.51"/>
<polygon fill="midnightblue" stroke="midnightblue" points="553.51,-258.7 557.24,-248.78 548.14,-254.2 553.51,-258.7"/>
</g>
<!-- Node26&#45;&gt;Node23 -->
<g id="edge41" class="edge">
<title>Node26&#45;&gt;Node23</title>
<path fill="none" stroke="midnightblue" d="M542.78,-285.42C566.44,-276.38 602.95,-262.44 629.53,-252.28"/>
<polygon fill="midnightblue" stroke="midnightblue" points="631.09,-255.43 639.19,-248.6 628.6,-248.89 631.09,-255.43"/>
</g>
</g>
</svg>
        <g id="navigator" transform="translate(0 0)" fill="#404254">
                <rect fill="#f2f5e9" fill-opacity="0.5" stroke="#606060" stroke-width=".5" x="0" y="0" width="60" height="60"/>
                <use id="zoomplus" xlink:href="#zoomPlus" x="17" y="9" onmousedown="handleZoom(evt,'in')"/>
                <use id="zoomminus" xlink:href="#zoomMin" x="42" y="9" onmousedown="handleZoom(evt,'out')"/>
                <use id="reset" xlink:href="#resetDef" x="30" y="36" onmousedown="handleReset()"/>
                <g id="arrowUp" xlink:href="#dirArrow" transform="translate(30 24)" onmousedown="handlePan(0,-1)">
                  <use xlink:href="#rim" fill="#404040">
                        <set attributeName="fill" to="#808080" begin="arrowUp.mouseover" end="arrowUp.mouseout"/>
                  </use>
                  <path fill="none" stroke="white" stroke-width="1.5" d="M0,-3.0v7 M-2.5,-0.5L0,-3.0L2.5,-0.5"/>
                </g>
                <g id="arrowRight" xlink:href="#dirArrow" transform="rotate(90) translate(36 -43)" onmousedown="handlePan(1,0)">
                  <use xlink:href="#rim" fill="#404040">
                        <set attributeName="fill" to="#808080" begin="arrowRight.mouseover" end="arrowRight.mouseout"/>
                  </use>
                  <path fill="none" stroke="white" stroke-width="1.5" d="M0,-3.0v7 M-2.5,-0.5L0,-3.0L2.5,-0.5"/>
                </g>
                <g id="arrowDown" xlink:href="#dirArrow" transform="rotate(180) translate(-30 -48)" onmousedown="handlePan(0,1)">
                  <use xlink:href="#rim" fill="#404040">
                        <set attributeName="fill" to="#808080" begin="arrowDown.mouseover" end="arrowDown.mouseout"/>
                  </use>
                  <path fill="none" stroke="white" stroke-width="1.5" d="M0,-3.0v7 M-2.5,-0.5L0,-3.0L2.5,-0.5"/>
                </g>
                <g id="arrowLeft" xlink:href="#dirArrow" transform="rotate(270) translate(-36 17)" onmousedown="handlePan(-1,0)">
                  <use xlink:href="#rim" fill="#404040">
                        <set attributeName="fill" to="#808080" begin="arrowLeft.mouseover" end="arrowLeft.mouseout"/>
                  </use>
                  <path fill="none" stroke="white" stroke-width="1.5" d="M0,-3.0v7 M-2.5,-0.5L0,-3.0L2.5,-0.5"/>
                </g>
        </g>
        <svg viewBox="0 0 15 15" width="100%" height="30px" preserveAspectRatio="xMaxYMin meet">
         <g id="arrow_out" transform="scale(0.3 0.3)">
          <a xlink:href="_midi_event_list_8cpp__incl_org.svg" target="_base">
           <rect id="button" ry="5" rx="5" y="6" x="6" height="38" width="38"
                fill="#f2f5e9" fill-opacity="0.5" stroke="#606060" stroke-width="1.0"/>
           <path id="arrow"
             d="M 11.500037,31.436501 C 11.940474,20.09759 22.043105,11.32322 32.158766,21.979434 L 37.068811,17.246167 C 37.068811,17.246167 37.088388,32 37.088388,32 L 22.160133,31.978069 C 22.160133,31.978069 26.997745,27.140456 26.997745,27.140456 C 18.528582,18.264221 13.291696,25.230495 11.500037,31.436501 z"
             style="fill:#404040;"/>
          </a>
         </g>
        </svg>
</svg>
