<?xml version="1.0" encoding="UTF-8" standalone="no"?>
<!DOCTYPE svg PUBLIC "-//W3C//DTD SVG 1.1//EN"
 "http://www.w3.org/Graphics/SVG/1.1/DTD/svg11.dtd">
<!-- Generated by graphviz version 2.47.1 (20210417.1919)
 -->
<!-- Title: MidiFile.cpp Pages: 1 -->
<svg width="933pt" height="485pt"
 viewBox="0.00 0.00 932.50 485.00" xmlns="http://www.w3.org/2000/svg" xmlns:xlink="http://www.w3.org/1999/xlink">
<g id="graph0" class="graph" transform="scale(1 1) rotate(0) translate(4 481)">
<title>MidiFile.cpp</title>
<polygon fill="white" stroke="transparent" points="-4,4 -4,-481 928.5,-481 928.5,4 -4,4"/>
<!-- Node1 -->
<g id="node1" class="node">
<title>Node1</title>
<g id="a_node1"><a xlink:title="The MidiFile implementation implements the services of a MIDI file; currently only file reading is su...">
<polygon fill="#bfbfbf" stroke="black" points="372,-456.5 372,-476.5 446,-476.5 446,-456.5 372,-456.5"/>
<text text-anchor="middle" x="409" y="-463.7" font-family="Helvetica,sans-Serif" font-size="11.00">MidiFile.cpp</text>
</a>
</g>
</g>
<!-- Node2 -->
<g id="node2" class="node">
<title>Node2</title>
<g id="a_node2"><a xlink:href="_assertion_8h.html" target="_top" xlink:title="The Assertion specification defines macros for pre&#45; and postconditions in functions or methods.">
<polygon fill="white" stroke="black" points="195.5,-57.5 195.5,-77.5 266.5,-77.5 266.5,-57.5 195.5,-57.5"/>
<text text-anchor="middle" x="231" y="-64.7" font-family="Helvetica,sans-Serif" font-size="11.00">Assertion.h</text>
</a>
</g>
</g>
<!-- Node1&#45;&gt;Node2 -->
<g id="edge1" class="edge">
<title>Node1&#45;&gt;Node2</title>
<path fill="none" stroke="midnightblue" d="M371.98,-463.29C271.3,-456.27 0,-430.25 0,-353.5 0,-353.5 0,-353.5 0,-180.5 0,-99.06 117.69,-76.82 185.06,-70.76"/>
<polygon fill="midnightblue" stroke="midnightblue" points="185.73,-74.22 195.41,-69.92 185.16,-67.24 185.73,-74.22"/>
</g>
<!-- Node4 -->
<g id="node4" class="node">
<title>Node4</title>
<g id="a_node4"><a xlink:href="_file_8h.html" target="_top" xlink:title="The File specification defines a class for simple file handling based on C stdio.">
<polygon fill="white" stroke="black" points="417.5,-285.5 417.5,-305.5 460.5,-305.5 460.5,-285.5 417.5,-285.5"/>
<text text-anchor="middle" x="439" y="-292.7" font-family="Helvetica,sans-Serif" font-size="11.00">File.h</text>
</a>
</g>
</g>
<!-- Node1&#45;&gt;Node4 -->
<g id="edge3" class="edge">
<title>Node1&#45;&gt;Node4</title>
<path fill="none" stroke="midnightblue" d="M411.42,-456.49C413.81,-447.34 417.48,-432.76 420,-420 427.25,-383.25 433.37,-339.9 436.58,-315.56"/>
<polygon fill="midnightblue" stroke="midnightblue" points="440.06,-315.9 437.88,-305.53 433.12,-315 440.06,-315.9"/>
</g>
<!-- Node17 -->
<g id="node17" class="node">
<title>Node17</title>
<g id="a_node17"><a xlink:href="_logging_8h.html" target="_top" xlink:title="The Logging specification defines macros for entry&#45;, exit&#45; and intermediate logging of functions into...">
<polygon fill="white" stroke="black" points="614,-399.5 614,-419.5 678,-419.5 678,-399.5 614,-399.5"/>
<text text-anchor="middle" x="646" y="-406.7" font-family="Helvetica,sans-Serif" font-size="11.00">Logging.h</text>
</a>
</g>
</g>
<!-- Node1&#45;&gt;Node17 -->
<g id="edge19" class="edge">
<title>Node1&#45;&gt;Node17</title>
<path fill="none" stroke="midnightblue" d="M446.03,-456.91C488.79,-446.98 558.97,-430.7 603.8,-420.29"/>
<polygon fill="midnightblue" stroke="midnightblue" points="604.84,-423.64 613.79,-417.97 603.26,-416.83 604.84,-423.64"/>
</g>
<!-- Node27 -->
<g id="node27" class="node">
<title>Node27</title>
<g id="a_node27"><a xlink:href="_midi_file_8h.html" target="_top" xlink:title="The MidiFile specification defines the services of a MIDI file; currently only file reading is suppor...">
<polygon fill="white" stroke="black" points="349,-399.5 349,-419.5 411,-419.5 411,-399.5 349,-399.5"/>
<text text-anchor="middle" x="380" y="-406.7" font-family="Helvetica,sans-Serif" font-size="11.00">MidiFile.h</text>
</a>
</g>
</g>
<!-- Node1&#45;&gt;Node27 -->
<g id="edge39" class="edge">
<title>Node1&#45;&gt;Node27</title>
<path fill="none" stroke="midnightblue" d="M404.21,-456.42C400.25,-448.9 394.49,-437.98 389.59,-428.68"/>
<polygon fill="midnightblue" stroke="midnightblue" points="392.65,-426.99 384.89,-419.78 386.46,-430.26 392.65,-426.99"/>
</g>
<!-- Node30 -->
<g id="node30" class="node">
<title>Node30</title>
<g id="a_node30"><a xlink:href="_natural_list_8h.html" target="_top" xlink:title="The NaturalList specification defines lists of non&#45;negative integer values with zero&#45;based arbitrary ...">
<polygon fill="white" stroke="black" points="66.5,-228.5 66.5,-248.5 143.5,-248.5 143.5,-228.5 66.5,-228.5"/>
<text text-anchor="middle" x="105" y="-235.7" font-family="Helvetica,sans-Serif" font-size="11.00">NaturalList.h</text>
</a>
</g>
</g>
<!-- Node1&#45;&gt;Node30 -->
<g id="edge49" class="edge">
<title>Node1&#45;&gt;Node30</title>
<path fill="none" stroke="midnightblue" d="M389.31,-456.44C355.04,-440.22 282.94,-404.05 229,-363 185.12,-329.61 141.14,-281.49 119.25,-256.31"/>
<polygon fill="midnightblue" stroke="midnightblue" points="121.88,-254 112.7,-248.71 116.57,-258.57 121.88,-254"/>
</g>
<!-- Node31 -->
<g id="node31" class="node">
<title>Node31</title>
<g id="a_node31"><a xlink:href="_operating_system_8h.html" target="_top" xlink:title="The OperatingSystem specification defines a class for several operating system related utility functi...">
<polygon fill="white" stroke="black" points="813.5,-285.5 813.5,-305.5 924.5,-305.5 924.5,-285.5 813.5,-285.5"/>
<text text-anchor="middle" x="869" y="-292.7" font-family="Helvetica,sans-Serif" font-size="11.00">OperatingSystem.h</text>
</a>
</g>
</g>
<!-- Node1&#45;&gt;Node31 -->
<g id="edge52" class="edge">
<title>Node1&#45;&gt;Node31</title>
<path fill="none" stroke="midnightblue" d="M446.37,-463.31C500.65,-459.26 603.89,-448.26 687,-420 737.64,-402.78 749.04,-393.47 793,-363 814.88,-347.83 837.55,-327.26 852.37,-313.03"/>
<polygon fill="midnightblue" stroke="midnightblue" points="855.02,-315.33 859.74,-305.85 850.13,-310.32 855.02,-315.33"/>
</g>
<!-- Node3 -->
<g id="node3" class="node">
<title>Node3</title>
<g id="a_node3"><a xlink:title=" ">
<polygon fill="white" stroke="#bfbfbf" points="204.5,-0.5 204.5,-20.5 257.5,-20.5 257.5,-0.5 204.5,-0.5"/>
<text text-anchor="middle" x="231" y="-7.7" font-family="Helvetica,sans-Serif" font-size="11.00">cassert</text>
</a>
</g>
</g>
<!-- Node2&#45;&gt;Node3 -->
<g id="edge2" class="edge">
<title>Node2&#45;&gt;Node3</title>
<path fill="none" stroke="midnightblue" d="M231,-57.42C231,-50.22 231,-39.9 231,-30.86"/>
<polygon fill="midnightblue" stroke="midnightblue" points="234.5,-30.78 231,-20.78 227.5,-30.78 234.5,-30.78"/>
</g>
<!-- Node5 -->
<g id="node5" class="node">
<title>Node5</title>
<g id="a_node5"><a xlink:href="_boolean_8h.html" target="_top" xlink:title="The Boolean specification and body provides a value object type for boolean values.">
<polygon fill="white" stroke="black" points="646.5,-228.5 646.5,-248.5 711.5,-248.5 711.5,-228.5 646.5,-228.5"/>
<text text-anchor="middle" x="679" y="-235.7" font-family="Helvetica,sans-Serif" font-size="11.00">Boolean.h</text>
</a>
</g>
</g>
<!-- Node4&#45;&gt;Node5 -->
<g id="edge4" class="edge">
<title>Node4&#45;&gt;Node5</title>
<path fill="none" stroke="midnightblue" d="M460.61,-287.62C463.75,-286.7 466.95,-285.79 470,-285 540.46,-266.64 561.18,-265.45 636.48,-249.08"/>
<polygon fill="midnightblue" stroke="midnightblue" points="637.43,-252.46 646.45,-246.9 635.93,-245.62 637.43,-252.46"/>
</g>
<!-- Node9 -->
<g id="node9" class="node">
<title>Node9</title>
<g id="a_node9"><a xlink:href="_byte_list_8h.html" target="_top" xlink:title="The ByteList specification defines lists of byte values with zero&#45;based arbitrary indexed access to p...">
<polygon fill="white" stroke="black" points="328.5,-228.5 328.5,-248.5 393.5,-248.5 393.5,-228.5 328.5,-228.5"/>
<text text-anchor="middle" x="361" y="-235.7" font-family="Helvetica,sans-Serif" font-size="11.00">ByteList.h</text>
</a>
</g>
</g>
<!-- Node4&#45;&gt;Node9 -->
<g id="edge8" class="edge">
<title>Node4&#45;&gt;Node9</title>
<path fill="none" stroke="midnightblue" d="M426.12,-285.42C414.26,-277.06 396.45,-264.5 382.45,-254.62"/>
<polygon fill="midnightblue" stroke="midnightblue" points="384.09,-251.5 373.9,-248.6 380.05,-257.22 384.09,-251.5"/>
</g>
<!-- Node16 -->
<g id="node16" class="node">
<title>Node16</title>
<g id="a_node16"><a xlink:href="_object_8h.html" target="_top" xlink:title="The Object specification and body provides the root object type.">
<polygon fill="white" stroke="black" points="412,-228.5 412,-248.5 470,-248.5 470,-228.5 412,-228.5"/>
<text text-anchor="middle" x="441" y="-235.7" font-family="Helvetica,sans-Serif" font-size="11.00">Object.h</text>
</a>
</g>
</g>
<!-- Node4&#45;&gt;Node16 -->
<g id="edge18" class="edge">
<title>Node4&#45;&gt;Node16</title>
<path fill="none" stroke="midnightblue" d="M439.33,-285.42C439.59,-278.22 439.97,-267.9 440.3,-258.86"/>
<polygon fill="midnightblue" stroke="midnightblue" points="443.8,-258.9 440.66,-248.78 436.8,-258.65 443.8,-258.9"/>
</g>
<!-- Node6 -->
<g id="node6" class="node">
<title>Node6</title>
<g id="a_node6"><a xlink:href="_my_string_8h.html" target="_top" xlink:title="The String specification defines a standard string type.">
<polygon fill="white" stroke="black" points="685,-57.5 685,-77.5 753,-77.5 753,-57.5 685,-57.5"/>
<text text-anchor="middle" x="719" y="-64.7" font-family="Helvetica,sans-Serif" font-size="11.00">MyString.h</text>
</a>
</g>
</g>
<!-- Node5&#45;&gt;Node6 -->
<g id="edge5" class="edge">
<title>Node5&#45;&gt;Node6</title>
<path fill="none" stroke="midnightblue" d="M681.15,-228.41C687.44,-201.82 705.92,-123.74 714.51,-87.45"/>
<polygon fill="midnightblue" stroke="midnightblue" points="717.94,-88.17 716.84,-77.63 711.13,-86.56 717.94,-88.17"/>
</g>
<!-- Node7 -->
<g id="node7" class="node">
<title>Node7</title>
<g id="a_node7"><a xlink:title=" ">
<polygon fill="white" stroke="#bfbfbf" points="740,-0.5 740,-20.5 784,-20.5 784,-0.5 740,-0.5"/>
<text text-anchor="middle" x="762" y="-7.7" font-family="Helvetica,sans-Serif" font-size="11.00">string</text>
</a>
</g>
</g>
<!-- Node6&#45;&gt;Node7 -->
<g id="edge6" class="edge">
<title>Node6&#45;&gt;Node7</title>
<path fill="none" stroke="midnightblue" d="M726.1,-57.42C732.16,-49.66 741.06,-38.29 748.47,-28.8"/>
<polygon fill="midnightblue" stroke="midnightblue" points="751.34,-30.81 754.75,-20.78 745.83,-26.5 751.34,-30.81"/>
</g>
<!-- Node8 -->
<g id="node8" class="node">
<title>Node8</title>
<g id="a_node8"><a xlink:href="_global_macros_8h.html" target="_top" xlink:title="The GlobalMacros specification defines simple macros (e.g. for parameter modes).">
<polygon fill="white" stroke="black" points="630,-0.5 630,-20.5 722,-20.5 722,-0.5 630,-0.5"/>
<text text-anchor="middle" x="676" y="-7.7" font-family="Helvetica,sans-Serif" font-size="11.00">GlobalMacros.h</text>
</a>
</g>
</g>
<!-- Node6&#45;&gt;Node8 -->
<g id="edge7" class="edge">
<title>Node6&#45;&gt;Node8</title>
<path fill="none" stroke="midnightblue" d="M711.9,-57.42C705.84,-49.66 696.94,-38.29 689.53,-28.8"/>
<polygon fill="midnightblue" stroke="midnightblue" points="692.17,-26.5 683.25,-20.78 686.66,-30.81 692.17,-26.5"/>
</g>
<!-- Node10 -->
<g id="node10" class="node">
<title>Node10</title>
<g id="a_node10"><a xlink:title=" ">
<polygon fill="white" stroke="#bfbfbf" points="74,-171.5 74,-191.5 152,-191.5 152,-171.5 74,-171.5"/>
<text text-anchor="middle" x="113" y="-178.7" font-family="Helvetica,sans-Serif" font-size="11.00">initializer_list</text>
</a>
</g>
</g>
<!-- Node9&#45;&gt;Node10 -->
<g id="edge9" class="edge">
<title>Node9&#45;&gt;Node10</title>
<path fill="none" stroke="midnightblue" d="M328.32,-230.25C285.87,-220.84 211.37,-204.32 162.1,-193.39"/>
<polygon fill="midnightblue" stroke="midnightblue" points="162.82,-189.96 152.3,-191.22 161.3,-196.8 162.82,-189.96"/>
</g>
<!-- Node11 -->
<g id="node11" class="node">
<title>Node11</title>
<g id="a_node11"><a xlink:href="_byte_8h.html" target="_top" xlink:title="The Byte specification and body provides a value object type for byte values.">
<polygon fill="white" stroke="black" points="515.5,-171.5 515.5,-191.5 562.5,-191.5 562.5,-171.5 515.5,-171.5"/>
<text text-anchor="middle" x="539" y="-178.7" font-family="Helvetica,sans-Serif" font-size="11.00">Byte.h</text>
</a>
</g>
</g>
<!-- Node9&#45;&gt;Node11 -->
<g id="edge10" class="edge">
<title>Node9&#45;&gt;Node11</title>
<path fill="none" stroke="midnightblue" d="M390.39,-228.42C422.07,-218.63 472.4,-203.08 505.56,-192.83"/>
<polygon fill="midnightblue" stroke="midnightblue" points="506.74,-196.13 515.27,-189.83 504.68,-189.44 506.74,-196.13"/>
</g>
<!-- Node15 -->
<g id="node15" class="node">
<title>Node15</title>
<g id="a_node15"><a xlink:title=" ">
<polygon fill="white" stroke="#bfbfbf" points="179.5,-171.5 179.5,-191.5 260.5,-191.5 260.5,-171.5 179.5,-171.5"/>
<text text-anchor="middle" x="220" y="-178.7" font-family="Helvetica,sans-Serif" font-size="11.00">GenericList.h</text>
</a>
</g>
</g>
<!-- Node9&#45;&gt;Node15 -->
<g id="edge17" class="edge">
<title>Node9&#45;&gt;Node15</title>
<path fill="none" stroke="midnightblue" d="M337.72,-228.42C314.55,-219.38 278.8,-205.44 252.77,-195.28"/>
<polygon fill="midnightblue" stroke="midnightblue" points="253.91,-191.97 243.32,-191.6 251.36,-198.49 253.91,-191.97"/>
</g>
<!-- Node12 -->
<g id="node12" class="node">
<title>Node12</title>
<g id="a_node12"><a xlink:title=" ">
<polygon fill="white" stroke="#bfbfbf" points="498.5,-57.5 498.5,-77.5 545.5,-77.5 545.5,-57.5 498.5,-57.5"/>
<text text-anchor="middle" x="522" y="-64.7" font-family="Helvetica,sans-Serif" font-size="11.00">cmath</text>
</a>
</g>
</g>
<!-- Node11&#45;&gt;Node12 -->
<g id="edge11" class="edge">
<title>Node11&#45;&gt;Node12</title>
<path fill="none" stroke="midnightblue" d="M537.61,-171.33C534.86,-153.2 528.66,-112.41 524.96,-88"/>
<polygon fill="midnightblue" stroke="midnightblue" points="528.37,-87.15 523.41,-77.79 521.45,-88.2 528.37,-87.15"/>
</g>
<!-- Node13 -->
<g id="node13" class="node">
<title>Node13</title>
<g id="a_node13"><a xlink:href="_natural_8h.html" target="_top" xlink:title="The Natural specification and body provides a value object type for naturals (positive integers with ...">
<polygon fill="white" stroke="black" points="614,-114.5 614,-134.5 674,-134.5 674,-114.5 614,-114.5"/>
<text text-anchor="middle" x="644" y="-121.7" font-family="Helvetica,sans-Serif" font-size="11.00">Natural.h</text>
</a>
</g>
</g>
<!-- Node11&#45;&gt;Node13 -->
<g id="edge12" class="edge">
<title>Node11&#45;&gt;Node13</title>
<path fill="none" stroke="midnightblue" d="M556.34,-171.42C572.98,-162.7 598.35,-149.41 617.52,-139.37"/>
<polygon fill="midnightblue" stroke="midnightblue" points="619.4,-142.34 626.64,-134.6 616.15,-136.14 619.4,-142.34"/>
</g>
<!-- Node13&#45;&gt;Node2 -->
<g id="edge14" class="edge">
<title>Node13&#45;&gt;Node2</title>
<path fill="none" stroke="midnightblue" d="M613.97,-119.5C542.51,-109.98 362.02,-85.95 276.84,-74.61"/>
<polygon fill="midnightblue" stroke="midnightblue" points="277.07,-71.1 266.7,-73.25 276.15,-78.04 277.07,-71.1"/>
</g>
<!-- Node13&#45;&gt;Node6 -->
<g id="edge16" class="edge">
<title>Node13&#45;&gt;Node6</title>
<path fill="none" stroke="midnightblue" d="M656.38,-114.42C667.78,-106.06 684.91,-93.5 698.38,-83.62"/>
<polygon fill="midnightblue" stroke="midnightblue" points="700.6,-86.33 706.6,-77.6 696.46,-80.69 700.6,-86.33"/>
</g>
<!-- Node13&#45;&gt;Node12 -->
<g id="edge13" class="edge">
<title>Node13&#45;&gt;Node12</title>
<path fill="none" stroke="midnightblue" d="M623.85,-114.42C604.16,-105.54 573.96,-91.93 551.55,-81.82"/>
<polygon fill="midnightblue" stroke="midnightblue" points="552.73,-78.51 542.18,-77.6 549.85,-84.9 552.73,-78.51"/>
</g>
<!-- Node14 -->
<g id="node14" class="node">
<title>Node14</title>
<g id="a_node14"><a xlink:title=" ">
<polygon fill="white" stroke="#bfbfbf" points="563.5,-57.5 563.5,-77.5 666.5,-77.5 666.5,-57.5 563.5,-57.5"/>
<text text-anchor="middle" x="615" y="-64.7" font-family="Helvetica,sans-Serif" font-size="11.00">GenericNumber.h</text>
</a>
</g>
</g>
<!-- Node13&#45;&gt;Node14 -->
<g id="edge15" class="edge">
<title>Node13&#45;&gt;Node14</title>
<path fill="none" stroke="midnightblue" d="M639.21,-114.42C635.25,-106.9 629.49,-95.98 624.59,-86.68"/>
<polygon fill="midnightblue" stroke="midnightblue" points="627.65,-84.99 619.89,-77.78 621.46,-88.26 627.65,-84.99"/>
</g>
<!-- Node18 -->
<g id="node18" class="node">
<title>Node18</title>
<g id="a_node18"><a xlink:title=" ">
<polygon fill="white" stroke="#bfbfbf" points="731.5,-342.5 731.5,-362.5 784.5,-362.5 784.5,-342.5 731.5,-342.5"/>
<text text-anchor="middle" x="758" y="-349.7" font-family="Helvetica,sans-Serif" font-size="11.00">cstdarg</text>
</a>
</g>
</g>
<!-- Node17&#45;&gt;Node18 -->
<g id="edge20" class="edge">
<title>Node17&#45;&gt;Node18</title>
<path fill="none" stroke="midnightblue" d="M664.49,-399.42C682.41,-390.62 709.8,-377.17 730.31,-367.1"/>
<polygon fill="midnightblue" stroke="midnightblue" points="732.04,-370.15 739.48,-362.6 728.96,-363.86 732.04,-370.15"/>
</g>
<!-- Node19 -->
<g id="node19" class="node">
<title>Node19</title>
<g id="a_node19"><a xlink:href="_logging_support_8h.html" target="_top" xlink:title="The LoggingSupport specification defines a class for simple entry/exit logging to a file; this loggin...">
<polygon fill="white" stroke="black" points="693,-285.5 693,-305.5 795,-305.5 795,-285.5 693,-285.5"/>
<text text-anchor="middle" x="744" y="-292.7" font-family="Helvetica,sans-Serif" font-size="11.00">LoggingSupport.h</text>
</a>
</g>
</g>
<!-- Node17&#45;&gt;Node19 -->
<g id="edge21" class="edge">
<title>Node17&#45;&gt;Node19</title>
<path fill="none" stroke="midnightblue" d="M654.02,-399.33C670.46,-380.55 708.19,-337.42 729.2,-313.42"/>
<polygon fill="midnightblue" stroke="midnightblue" points="731.92,-315.62 735.87,-305.79 726.65,-311.01 731.92,-315.62"/>
</g>
<!-- Node20 -->
<g id="node20" class="node">
<title>Node20</title>
<g id="a_node20"><a xlink:href="_string_util_8h.html" target="_top" xlink:title="The StringUtil specification defines several string routines not included in the standard C++ library...">
<polygon fill="white" stroke="black" points="554.5,-342.5 554.5,-362.5 623.5,-362.5 623.5,-342.5 554.5,-342.5"/>
<text text-anchor="middle" x="589" y="-349.7" font-family="Helvetica,sans-Serif" font-size="11.00">StringUtil.h</text>
</a>
</g>
</g>
<!-- Node17&#45;&gt;Node20 -->
<g id="edge24" class="edge">
<title>Node17&#45;&gt;Node20</title>
<path fill="none" stroke="midnightblue" d="M636.59,-399.42C628.3,-391.42 616.04,-379.59 606.04,-369.94"/>
<polygon fill="midnightblue" stroke="midnightblue" points="608.24,-367.2 598.62,-362.78 603.38,-372.24 608.24,-367.2"/>
</g>
<!-- Node19&#45;&gt;Node5 -->
<g id="edge22" class="edge">
<title>Node19&#45;&gt;Node5</title>
<path fill="none" stroke="midnightblue" d="M733.27,-285.42C723.63,-277.27 709.28,-265.12 697.75,-255.37"/>
<polygon fill="midnightblue" stroke="midnightblue" points="699.86,-252.57 689.97,-248.78 695.34,-257.91 699.86,-252.57"/>
</g>
<!-- Node19&#45;&gt;Node13 -->
<g id="edge23" class="edge">
<title>Node19&#45;&gt;Node13</title>
<path fill="none" stroke="midnightblue" d="M748.23,-285.48C757.76,-263.69 778.27,-207.3 754,-171 738.45,-147.75 708.6,-136.36 683.91,-130.8"/>
<polygon fill="midnightblue" stroke="midnightblue" points="684.54,-127.35 674.05,-128.81 683.16,-134.22 684.54,-127.35"/>
</g>
<!-- Node20&#45;&gt;Node5 -->
<g id="edge25" class="edge">
<title>Node20&#45;&gt;Node5</title>
<path fill="none" stroke="midnightblue" d="M596.37,-342.33C611.4,-323.63 645.81,-280.8 665.15,-256.73"/>
<polygon fill="midnightblue" stroke="midnightblue" points="668,-258.78 671.53,-248.79 662.54,-254.39 668,-258.78"/>
</g>
<!-- Node21 -->
<g id="node21" class="node">
<title>Node21</title>
<g id="a_node21"><a xlink:href="_character_8h.html" target="_top" xlink:title="The Character specification and body provides a value object type for character values.">
<polygon fill="white" stroke="black" points="554,-228.5 554,-248.5 628,-248.5 628,-228.5 554,-228.5"/>
<text text-anchor="middle" x="591" y="-235.7" font-family="Helvetica,sans-Serif" font-size="11.00">Character.h</text>
</a>
</g>
</g>
<!-- Node20&#45;&gt;Node21 -->
<g id="edge26" class="edge">
<title>Node20&#45;&gt;Node21</title>
<path fill="none" stroke="midnightblue" d="M589.16,-342.33C589.49,-324.2 590.22,-283.41 590.65,-259"/>
<polygon fill="midnightblue" stroke="midnightblue" points="594.15,-258.85 590.83,-248.79 587.16,-258.73 594.15,-258.85"/>
</g>
<!-- Node22 -->
<g id="node22" class="node">
<title>Node22</title>
<g id="a_node22"><a xlink:href="_percentage_8h.html" target="_top" xlink:title="The Percentage specification and body provides a simple percentage type.">
<polygon fill="white" stroke="black" points="479,-285.5 479,-305.5 561,-305.5 561,-285.5 479,-285.5"/>
<text text-anchor="middle" x="520" y="-292.7" font-family="Helvetica,sans-Serif" font-size="11.00">Percentage.h</text>
</a>
</g>
</g>
<!-- Node20&#45;&gt;Node22 -->
<g id="edge29" class="edge">
<title>Node20&#45;&gt;Node22</title>
<path fill="none" stroke="midnightblue" d="M577.61,-342.42C567.28,-334.19 551.85,-321.88 539.55,-312.08"/>
<polygon fill="midnightblue" stroke="midnightblue" points="541.64,-309.28 531.64,-305.78 537.28,-314.75 541.64,-309.28"/>
</g>
<!-- Node26 -->
<g id="node26" class="node">
<title>Node26</title>
<g id="a_node26"><a xlink:href="_string_list_8h.html" target="_top" xlink:title="The StringList specification defines lists of string values with zero&#45;based arbitrary indexed access ...">
<polygon fill="white" stroke="black" points="200.5,-228.5 200.5,-248.5 271.5,-248.5 271.5,-228.5 200.5,-228.5"/>
<text text-anchor="middle" x="236" y="-235.7" font-family="Helvetica,sans-Serif" font-size="11.00">StringList.h</text>
</a>
</g>
</g>
<!-- Node20&#45;&gt;Node26 -->
<g id="edge36" class="edge">
<title>Node20&#45;&gt;Node26</title>
<path fill="none" stroke="midnightblue" d="M554.13,-351.43C500.53,-350.08 395.73,-342.5 316,-306 289.99,-294.09 265.54,-271.46 250.68,-255.94"/>
<polygon fill="midnightblue" stroke="midnightblue" points="253.19,-253.5 243.82,-248.56 248.07,-258.27 253.19,-253.5"/>
</g>
<!-- Node21&#45;&gt;Node11 -->
<g id="edge28" class="edge">
<title>Node21&#45;&gt;Node11</title>
<path fill="none" stroke="midnightblue" d="M582.41,-228.42C574.93,-220.5 563.89,-208.82 554.81,-199.23"/>
<polygon fill="midnightblue" stroke="midnightblue" points="557.19,-196.64 547.77,-191.78 552.1,-201.45 557.19,-196.64"/>
</g>
<!-- Node21&#45;&gt;Node12 -->
<g id="edge27" class="edge">
<title>Node21&#45;&gt;Node12</title>
<path fill="none" stroke="midnightblue" d="M588.67,-228.33C585.28,-215.39 578.56,-191.08 571,-171 561.19,-144.94 557.06,-139.1 545,-114 540.64,-104.93 535.61,-94.93 531.37,-86.63"/>
<polygon fill="midnightblue" stroke="midnightblue" points="534.37,-84.81 526.69,-77.51 528.15,-88.01 534.37,-84.81"/>
</g>
<!-- Node23 -->
<g id="node23" class="node">
<title>Node23</title>
<g id="a_node23"><a xlink:href="_real_8h.html" target="_top" xlink:title="The Real specification defines a value object type for real values.">
<polygon fill="white" stroke="black" points="488,-228.5 488,-248.5 536,-248.5 536,-228.5 488,-228.5"/>
<text text-anchor="middle" x="512" y="-235.7" font-family="Helvetica,sans-Serif" font-size="11.00">Real.h</text>
</a>
</g>
</g>
<!-- Node22&#45;&gt;Node23 -->
<g id="edge30" class="edge">
<title>Node22&#45;&gt;Node23</title>
<path fill="none" stroke="midnightblue" d="M518.68,-285.42C517.63,-278.22 516.13,-267.9 514.82,-258.86"/>
<polygon fill="midnightblue" stroke="midnightblue" points="518.25,-258.17 513.35,-248.78 511.33,-259.18 518.25,-258.17"/>
</g>
<!-- Node23&#45;&gt;Node12 -->
<g id="edge31" class="edge">
<title>Node23&#45;&gt;Node12</title>
<path fill="none" stroke="midnightblue" d="M510.45,-228.47C508.97,-219.31 506.84,-204.72 506,-192 503.57,-154.94 511.6,-112 517.16,-87.77"/>
<polygon fill="midnightblue" stroke="midnightblue" points="520.63,-88.3 519.55,-77.76 513.82,-86.67 520.63,-88.3"/>
</g>
<!-- Node24 -->
<g id="node24" class="node">
<title>Node24</title>
<g id="a_node24"><a xlink:href="_integer_8h.html" target="_top" xlink:title="The Integer specification and body provides a value object type for ints.">
<polygon fill="white" stroke="black" points="399.5,-171.5 399.5,-191.5 458.5,-191.5 458.5,-171.5 399.5,-171.5"/>
<text text-anchor="middle" x="429" y="-178.7" font-family="Helvetica,sans-Serif" font-size="11.00">Integer.h</text>
</a>
</g>
</g>
<!-- Node23&#45;&gt;Node24 -->
<g id="edge32" class="edge">
<title>Node23&#45;&gt;Node24</title>
<path fill="none" stroke="midnightblue" d="M498.29,-228.42C485.56,-219.98 466.36,-207.26 451.4,-197.34"/>
<polygon fill="midnightblue" stroke="midnightblue" points="453,-194.2 442.73,-191.6 449.13,-200.04 453,-194.2"/>
</g>
<!-- Node24&#45;&gt;Node12 -->
<g id="edge33" class="edge">
<title>Node24&#45;&gt;Node12</title>
<path fill="none" stroke="midnightblue" d="M434.07,-171.42C441.68,-158.16 456.88,-133 473,-114 482.06,-103.32 493.47,-92.6 502.99,-84.25"/>
<polygon fill="midnightblue" stroke="midnightblue" points="505.46,-86.75 510.77,-77.58 500.9,-81.43 505.46,-86.75"/>
</g>
<!-- Node24&#45;&gt;Node13 -->
<g id="edge35" class="edge">
<title>Node24&#45;&gt;Node13</title>
<path fill="none" stroke="midnightblue" d="M458.89,-172.85C496.63,-163.2 561.68,-146.56 603.76,-135.8"/>
<polygon fill="midnightblue" stroke="midnightblue" points="604.85,-139.13 613.67,-133.26 603.11,-132.35 604.85,-139.13"/>
</g>
<!-- Node25 -->
<g id="node25" class="node">
<title>Node25</title>
<g id="a_node25"><a xlink:title=" ">
<polygon fill="white" stroke="#bfbfbf" points="357,-114.5 357,-134.5 421,-134.5 421,-114.5 357,-114.5"/>
<text text-anchor="middle" x="389" y="-121.7" font-family="Helvetica,sans-Serif" font-size="11.00">stdexcept</text>
</a>
</g>
</g>
<!-- Node24&#45;&gt;Node25 -->
<g id="edge34" class="edge">
<title>Node24&#45;&gt;Node25</title>
<path fill="none" stroke="midnightblue" d="M422.39,-171.42C416.81,-163.74 408.65,-152.52 401.8,-143.09"/>
<polygon fill="midnightblue" stroke="midnightblue" points="404.46,-140.81 395.75,-134.78 398.8,-144.93 404.46,-140.81"/>
</g>
<!-- Node26&#45;&gt;Node10 -->
<g id="edge37" class="edge">
<title>Node26&#45;&gt;Node10</title>
<path fill="none" stroke="midnightblue" d="M215.69,-228.42C195.75,-219.5 165.11,-205.8 142.49,-195.69"/>
<polygon fill="midnightblue" stroke="midnightblue" points="143.9,-192.48 133.34,-191.6 141.04,-198.87 143.9,-192.48"/>
</g>
<!-- Node26&#45;&gt;Node15 -->
<g id="edge38" class="edge">
<title>Node26&#45;&gt;Node15</title>
<path fill="none" stroke="midnightblue" d="M233.36,-228.42C231.24,-221.14 228.19,-210.67 225.55,-201.57"/>
<polygon fill="midnightblue" stroke="midnightblue" points="228.85,-200.4 222.7,-191.78 222.13,-202.36 228.85,-200.4"/>
</g>
<!-- Node27&#45;&gt;Node13 -->
<g id="edge40" class="edge">
<title>Node27&#45;&gt;Node13</title>
<path fill="none" stroke="midnightblue" d="M411.3,-405.91C470.47,-400.52 596.04,-386.6 632,-363 666.83,-340.14 657.59,-317.22 684,-285 698.35,-267.5 711.34,-269.91 720,-249 723.57,-240.38 722.93,-236.86 720,-228 708.51,-193.21 680.15,-160.6 661.51,-141.86"/>
<polygon fill="midnightblue" stroke="midnightblue" points="663.79,-139.2 654.19,-134.72 658.9,-144.21 663.79,-139.2"/>
</g>
<!-- Node28 -->
<g id="node28" class="node">
<title>Node28</title>
<g id="a_node28"><a xlink:href="_midi_event_list_8h.html" target="_top" xlink:title="The MidiEventList specification defines lists of MIDI events with zero&#45;based arbitrary indexed access...">
<polygon fill="white" stroke="black" points="238.5,-342.5 238.5,-362.5 327.5,-362.5 327.5,-342.5 238.5,-342.5"/>
<text text-anchor="middle" x="283" y="-349.7" font-family="Helvetica,sans-Serif" font-size="11.00">MidiEventList.h</text>
</a>
</g>
</g>
<!-- Node27&#45;&gt;Node28 -->
<g id="edge41" class="edge">
<title>Node27&#45;&gt;Node28</title>
<path fill="none" stroke="midnightblue" d="M363.98,-399.42C348.82,-390.82 325.81,-377.78 308.19,-367.78"/>
<polygon fill="midnightblue" stroke="midnightblue" points="309.47,-364.48 299.04,-362.6 306.01,-370.57 309.47,-364.48"/>
</g>
<!-- Node28&#45;&gt;Node10 -->
<g id="edge42" class="edge">
<title>Node28&#45;&gt;Node10</title>
<path fill="none" stroke="midnightblue" d="M238.47,-345.67C184.85,-336 97.03,-311.11 57,-249 44.54,-229.66 66.77,-209.77 86.8,-196.85"/>
<polygon fill="midnightblue" stroke="midnightblue" points="88.71,-199.78 95.43,-191.59 85.07,-193.81 88.71,-199.78"/>
</g>
<!-- Node28&#45;&gt;Node15 -->
<g id="edge43" class="edge">
<title>Node28&#45;&gt;Node15</title>
<path fill="none" stroke="midnightblue" d="M270.04,-342.28C248.71,-326.2 206.99,-290.76 191,-249 184.5,-232.02 194.55,-213.04 204.56,-199.72"/>
<polygon fill="midnightblue" stroke="midnightblue" points="207.36,-201.82 210.95,-191.86 201.93,-197.41 207.36,-201.82"/>
</g>
<!-- Node29 -->
<g id="node29" class="node">
<title>Node29</title>
<g id="a_node29"><a xlink:href="_midi_event_8h.html" target="_top" xlink:title="The MidiEvent specification defines a single MIDI event and the MIDI event kind enumeration.">
<polygon fill="white" stroke="black" points="325,-285.5 325,-305.5 397,-305.5 397,-285.5 325,-285.5"/>
<text text-anchor="middle" x="361" y="-292.7" font-family="Helvetica,sans-Serif" font-size="11.00">MidiEvent.h</text>
</a>
</g>
</g>
<!-- Node28&#45;&gt;Node29 -->
<g id="edge44" class="edge">
<title>Node28&#45;&gt;Node29</title>
<path fill="none" stroke="midnightblue" d="M295.88,-342.42C307.74,-334.06 325.55,-321.5 339.55,-311.62"/>
<polygon fill="midnightblue" stroke="midnightblue" points="341.95,-314.22 348.1,-305.6 337.91,-308.5 341.95,-314.22"/>
</g>
<!-- Node29&#45;&gt;Node5 -->
<g id="edge45" class="edge">
<title>Node29&#45;&gt;Node5</title>
<path fill="none" stroke="midnightblue" d="M397.15,-287.03C400.81,-286.32 404.48,-285.63 408,-285 506.34,-267.34 534.14,-268.3 636.66,-248.95"/>
<polygon fill="midnightblue" stroke="midnightblue" points="637.32,-252.39 646.49,-247.08 636.01,-245.51 637.32,-252.39"/>
</g>
<!-- Node29&#45;&gt;Node9 -->
<g id="edge47" class="edge">
<title>Node29&#45;&gt;Node9</title>
<path fill="none" stroke="midnightblue" d="M361,-285.42C361,-278.22 361,-267.9 361,-258.86"/>
<polygon fill="midnightblue" stroke="midnightblue" points="364.5,-258.78 361,-248.78 357.5,-258.78 364.5,-258.78"/>
</g>
<!-- Node29&#45;&gt;Node16 -->
<g id="edge48" class="edge">
<title>Node29&#45;&gt;Node16</title>
<path fill="none" stroke="midnightblue" d="M374.21,-285.42C386.49,-276.98 404.99,-264.26 419.41,-254.34"/>
<polygon fill="midnightblue" stroke="midnightblue" points="421.51,-257.15 427.77,-248.6 417.55,-251.38 421.51,-257.15"/>
</g>
<!-- Node29&#45;&gt;Node24 -->
<g id="edge46" class="edge">
<title>Node29&#45;&gt;Node24</title>
<path fill="none" stroke="midnightblue" d="M347.92,-285.37C331.07,-272.46 305.49,-248.21 319,-228 334.65,-204.59 364.79,-193.21 389.57,-187.69"/>
<polygon fill="midnightblue" stroke="midnightblue" points="390.33,-191.11 399.46,-185.72 388.97,-184.24 390.33,-191.11"/>
</g>
<!-- Node30&#45;&gt;Node10 -->
<g id="edge50" class="edge">
<title>Node30&#45;&gt;Node10</title>
<path fill="none" stroke="midnightblue" d="M106.32,-228.42C107.37,-221.22 108.87,-210.9 110.18,-201.86"/>
<polygon fill="midnightblue" stroke="midnightblue" points="113.67,-202.18 111.65,-191.78 106.75,-201.17 113.67,-202.18"/>
</g>
<!-- Node30&#45;&gt;Node15 -->
<g id="edge51" class="edge">
<title>Node30&#45;&gt;Node15</title>
<path fill="none" stroke="midnightblue" d="M123.99,-228.42C142.47,-219.58 170.76,-206.05 191.86,-195.96"/>
<polygon fill="midnightblue" stroke="midnightblue" points="193.47,-199.07 200.98,-191.6 190.45,-192.75 193.47,-199.07"/>
</g>
<!-- Node31&#45;&gt;Node5 -->
<g id="edge53" class="edge">
<title>Node31&#45;&gt;Node5</title>
<path fill="none" stroke="midnightblue" d="M837.63,-285.42C805.49,-276.12 755.37,-261.61 720.09,-251.39"/>
<polygon fill="midnightblue" stroke="midnightblue" points="720.68,-247.92 710.11,-248.5 718.74,-254.65 720.68,-247.92"/>
</g>
<!-- Node31&#45;&gt;Node13 -->
<g id="edge54" class="edge">
<title>Node31&#45;&gt;Node13</title>
<path fill="none" stroke="midnightblue" d="M864.29,-285.29C852.22,-262.58 817.94,-203.39 773,-171 746.44,-151.85 711.06,-140.13 684.08,-133.39"/>
<polygon fill="midnightblue" stroke="midnightblue" points="684.72,-129.95 674.18,-131.05 683.11,-136.76 684.72,-129.95"/>
</g>
</g>
</svg>
