<?xml version="1.0" encoding="UTF-8" standalone="no"?>
<!DOCTYPE svg PUBLIC "-//W3C//DTD SVG 1.1//EN"
 "http://www.w3.org/Graphics/SVG/1.1/DTD/svg11.dtd">
<!-- Generated by graphviz version 2.47.1 (20210417.1919)
 -->
<!-- Title: MidiEvent.h Pages: 1 -->
<svg width="626pt" height="200pt"
 viewBox="0.00 0.00 625.50 200.00" xmlns="http://www.w3.org/2000/svg" xmlns:xlink="http://www.w3.org/1999/xlink">
<g id="graph0" class="graph" transform="scale(1 1) rotate(0) translate(4 196)">
<title>MidiEvent.h</title>
<polygon fill="white" stroke="transparent" points="-4,4 -4,-196 621.5,-196 621.5,4 -4,4"/>
<!-- Node1 -->
<g id="node1" class="node">
<title>Node1</title>
<g id="a_node1"><a xlink:title="The MidiEvent specification defines a single MIDI event and the MIDI event kind enumeration.">
<polygon fill="#bfbfbf" stroke="black" points="327.5,-171.5 327.5,-191.5 399.5,-191.5 399.5,-171.5 327.5,-171.5"/>
<text text-anchor="middle" x="363.5" y="-178.7" font-family="Helvetica,sans-Serif" font-size="11.00">MidiEvent.h</text>
</a>
</g>
</g>
<!-- Node2 -->
<g id="node2" class="node">
<title>Node2</title>
<g id="a_node2"><a xlink:href="_midi_event_8cpp.html" target="_top" xlink:title="The MidiEvent implementation defines the services of a single MIDI event.">
<polygon fill="white" stroke="black" points="269.5,-114.5 269.5,-134.5 353.5,-134.5 353.5,-114.5 269.5,-114.5"/>
<text text-anchor="middle" x="311.5" y="-121.7" font-family="Helvetica,sans-Serif" font-size="11.00">MidiEvent.cpp</text>
</a>
</g>
</g>
<!-- Node1&#45;&gt;Node2 -->
<g id="edge1" class="edge">
<title>Node1&#45;&gt;Node2</title>
<path fill="none" stroke="midnightblue" d="M347.91,-164.01C338.87,-154.45 327.81,-142.76 320.27,-134.78"/>
<polygon fill="midnightblue" stroke="midnightblue" points="345.5,-166.56 354.91,-171.42 350.59,-161.75 345.5,-166.56"/>
</g>
<!-- Node3 -->
<g id="node3" class="node">
<title>Node3</title>
<g id="a_node3"><a xlink:href="_midi_event_list_8h.html" target="_top" xlink:title="The MidiEventList specification defines sequences of MIDI events with zero&#45;based arbitrary indexed ac...">
<polygon fill="white" stroke="black" points="372,-114.5 372,-134.5 461,-134.5 461,-114.5 372,-114.5"/>
<text text-anchor="middle" x="416.5" y="-121.7" font-family="Helvetica,sans-Serif" font-size="11.00">MidiEventList.h</text>
</a>
</g>
</g>
<!-- Node1&#45;&gt;Node3 -->
<g id="edge2" class="edge">
<title>Node1&#45;&gt;Node3</title>
<path fill="none" stroke="midnightblue" d="M379.39,-164.01C388.6,-154.45 399.87,-142.76 407.56,-134.78"/>
<polygon fill="midnightblue" stroke="midnightblue" points="376.67,-161.79 372.25,-171.42 381.71,-166.65 376.67,-161.79"/>
</g>
<!-- Node4 -->
<g id="node4" class="node">
<title>Node4</title>
<g id="a_node4"><a xlink:href="_midi_event_converter_8h.html" target="_top" xlink:title="The MidiEventConverter specification defines the handling of MIDI events by feeding them to an underl...">
<polygon fill="white" stroke="black" points="227.5,-57.5 227.5,-77.5 347.5,-77.5 347.5,-57.5 227.5,-57.5"/>
<text text-anchor="middle" x="287.5" y="-64.7" font-family="Helvetica,sans-Serif" font-size="11.00">MidiEventConverter.h</text>
</a>
</g>
</g>
<!-- Node3&#45;&gt;Node4 -->
<g id="edge3" class="edge">
<title>Node3&#45;&gt;Node4</title>
<path fill="none" stroke="midnightblue" d="M385.92,-110.46C362.18,-100.34 329.85,-86.56 308.83,-77.6"/>
<polygon fill="midnightblue" stroke="midnightblue" points="384.63,-113.72 395.2,-114.42 387.37,-107.28 384.63,-113.72"/>
</g>
<!-- Node8 -->
<g id="node8" class="node">
<title>Node8</title>
<g id="a_node8"><a xlink:href="_midi_event_list_8cpp.html" target="_top" xlink:title="The MIDIEventList body implements sequences of integer values with zero&#45;based arbitrary indexed acces...">
<polygon fill="white" stroke="black" points="366,-57.5 366,-77.5 467,-77.5 467,-57.5 366,-57.5"/>
<text text-anchor="middle" x="416.5" y="-64.7" font-family="Helvetica,sans-Serif" font-size="11.00">MidiEventList.cpp</text>
</a>
</g>
</g>
<!-- Node3&#45;&gt;Node8 -->
<g id="edge7" class="edge">
<title>Node3&#45;&gt;Node8</title>
<path fill="none" stroke="midnightblue" d="M416.5,-104.38C416.5,-95.37 416.5,-85.04 416.5,-77.78"/>
<polygon fill="midnightblue" stroke="midnightblue" points="413,-104.42 416.5,-114.42 420,-104.42 413,-104.42"/>
</g>
<!-- Node9 -->
<g id="node9" class="node">
<title>Node9</title>
<g id="a_node9"><a xlink:href="_midi_file_8h.html" target="_top" xlink:title="The MidiFile specification defines the services of a MIDI file; currently only file reading is suppor...">
<polygon fill="white" stroke="black" points="485.5,-57.5 485.5,-77.5 547.5,-77.5 547.5,-57.5 485.5,-57.5"/>
<text text-anchor="middle" x="516.5" y="-64.7" font-family="Helvetica,sans-Serif" font-size="11.00">MidiFile.h</text>
</a>
</g>
</g>
<!-- Node3&#45;&gt;Node9 -->
<g id="edge8" class="edge">
<title>Node3&#45;&gt;Node9</title>
<path fill="none" stroke="midnightblue" d="M441.94,-109.51C460.16,-99.49 484.18,-86.28 499.96,-77.6"/>
<polygon fill="midnightblue" stroke="midnightblue" points="440.09,-106.53 433.01,-114.42 443.46,-112.67 440.09,-106.53"/>
</g>
<!-- Node5 -->
<g id="node5" class="node">
<title>Node5</title>
<g id="a_node5"><a xlink:href="_fluid_synth_file_converter_8cpp.html" target="_top" xlink:title="The FluidSynthFileConverter module implements a conversion from a MIDI file into a wave file using th...">
<polygon fill="white" stroke="black" points="371.5,-0.5 371.5,-20.5 525.5,-20.5 525.5,-0.5 371.5,-0.5"/>
<text text-anchor="middle" x="448.5" y="-7.7" font-family="Helvetica,sans-Serif" font-size="11.00">FluidSynthFileConverter.cpp</text>
</a>
</g>
</g>
<!-- Node4&#45;&gt;Node5 -->
<g id="edge4" class="edge">
<title>Node4&#45;&gt;Node5</title>
<path fill="none" stroke="midnightblue" d="M323.73,-54.12C353.63,-43.91 395.35,-29.66 422.14,-20.5"/>
<polygon fill="midnightblue" stroke="midnightblue" points="322.42,-50.87 314.09,-57.42 324.68,-57.5 322.42,-50.87"/>
</g>
<!-- Node6 -->
<g id="node6" class="node">
<title>Node6</title>
<g id="a_node6"><a xlink:href="_fluid_synth_plugin___event_processor_8cpp.html" target="_top" xlink:title="The FluidSynthPlugin_Processor module implements the handling of MIDI events from the DAW via JUCE ha...">
<polygon fill="white" stroke="black" points="0,-0.5 0,-20.5 203,-20.5 203,-0.5 0,-0.5"/>
<text text-anchor="middle" x="101.5" y="-7.7" font-family="Helvetica,sans-Serif" font-size="11.00">FluidSynthPlugin_EventProcessor.cpp</text>
</a>
</g>
</g>
<!-- Node4&#45;&gt;Node6 -->
<g id="edge5" class="edge">
<title>Node4&#45;&gt;Node6</title>
<path fill="none" stroke="midnightblue" d="M246.99,-54.52C212.36,-44.28 163.31,-29.78 131.95,-20.5"/>
<polygon fill="midnightblue" stroke="midnightblue" points="246.2,-57.94 256.79,-57.42 248.19,-51.23 246.2,-57.94"/>
</g>
<!-- Node7 -->
<g id="node7" class="node">
<title>Node7</title>
<g id="a_node7"><a xlink:href="_midi_event_converter_8cpp.html" target="_top" xlink:title="The MidiEventConverter module implements the handling of MIDI events by feeding them to an underlying...">
<polygon fill="white" stroke="black" points="221.5,-0.5 221.5,-20.5 353.5,-20.5 353.5,-0.5 221.5,-0.5"/>
<text text-anchor="middle" x="287.5" y="-7.7" font-family="Helvetica,sans-Serif" font-size="11.00">MidiEventConverter.cpp</text>
</a>
</g>
</g>
<!-- Node4&#45;&gt;Node7 -->
<g id="edge6" class="edge">
<title>Node4&#45;&gt;Node7</title>
<path fill="none" stroke="midnightblue" d="M287.5,-47.38C287.5,-38.37 287.5,-28.04 287.5,-20.78"/>
<polygon fill="midnightblue" stroke="midnightblue" points="284,-47.42 287.5,-57.42 291,-47.42 284,-47.42"/>
</g>
<!-- Node9&#45;&gt;Node5 -->
<g id="edge9" class="edge">
<title>Node9&#45;&gt;Node5</title>
<path fill="none" stroke="midnightblue" d="M497.17,-50.87C485.16,-41.15 470.13,-28.99 459.97,-20.78"/>
<polygon fill="midnightblue" stroke="midnightblue" points="495.29,-53.85 505.27,-57.42 499.7,-48.41 495.29,-53.85"/>
</g>
<!-- Node10 -->
<g id="node10" class="node">
<title>Node10</title>
<g id="a_node10"><a xlink:href="_midi_file_8cpp.html" target="_top" xlink:title="The MidiFile implementation implements the services of a MIDI file; currently only file reading is su...">
<polygon fill="white" stroke="black" points="543.5,-0.5 543.5,-20.5 617.5,-20.5 617.5,-0.5 543.5,-0.5"/>
<text text-anchor="middle" x="580.5" y="-7.7" font-family="Helvetica,sans-Serif" font-size="11.00">MidiFile.cpp</text>
</a>
</g>
</g>
<!-- Node9&#45;&gt;Node10 -->
<g id="edge10" class="edge">
<title>Node9&#45;&gt;Node10</title>
<path fill="none" stroke="midnightblue" d="M534.69,-50.87C545.99,-41.15 560.14,-28.99 569.7,-20.78"/>
<polygon fill="midnightblue" stroke="midnightblue" points="532.37,-48.25 527.07,-57.42 536.93,-53.55 532.37,-48.25"/>
</g>
</g>
</svg>
