<?xml version="1.0" encoding="UTF-8" standalone="no"?>
<!DOCTYPE svg PUBLIC "-//W3C//DTD SVG 1.1//EN"
 "http://www.w3.org/Graphics/SVG/1.1/DTD/svg11.dtd">
<!-- Generated by graphviz version 2.47.1 (20210417.1919)
 -->
<!-- Title: MidiEventList.cpp Pages: 1 -->
<!--zoomable 467 -->

<svg id="main" version="1.1" xmlns="http://www.w3.org/2000/svg" xmlns:xlink="http://www.w3.org/1999/xlink" xml:space="preserve" onload="init(evt)">

<style type="text/css"><![CDATA[
.node, .edge {opacity: 0.7;}
.node.selected, .edge.selected {opacity: 1;}
.edge:hover path { stroke: red; }
.edge:hover polygon { stroke: red; fill: red; }
]]></style>

<defs>
  <circle id="rim" cx="0" cy="0" r="7"/>
  <circle id="rim2" cx="0" cy="0" r="3.5"/>
  <g id="zoomPlus">
    <use xlink:href="#rim" fill="#404040"><set attributeName="fill" to="#808080" begin="zoomplus.mouseover" end="zoomplus.mouseout"/></use>
    <path d="M-4,0h8M0,-4v8" fill="none" stroke="white" stroke-width="1.5" pointer-events="none"/>
  </g>
  <g id="zoomMin">
    <use xlink:href="#rim" fill="#404040"><set attributeName="fill" to="#808080" begin="zoomminus.mouseover" end="zoomminus.mouseout"/></use>
    <path d="M-4,0h8" fill="none" stroke="white" stroke-width="1.5" pointer-events="none"/>
  </g>
  <g id="arrowUp" transform="translate(30 24)">
    <use xlink:href="#rim"/>
    <path pointer-events="none" fill="none" stroke="white" stroke-width="1.5" d="M0,-3.0v7 M-2.5,-0.5L0,-3.0L2.5,-0.5"/>
  </g>
  <g id="arrowRight" transform="rotate(90) translate(36 -43)">
    <use xlink:href="#rim"/>
    <path pointer-events="none" fill="none" stroke="white" stroke-width="1.5" d="M0,-3.0v7 M-2.5,-0.5L0,-3.0L2.5,-0.5"/>
  </g>
  <g id="arrowDown" transform="rotate(180) translate(-30 -48)">
    <use xlink:href="#rim"/>
    <path pointer-events="none" fill="none" stroke="white" stroke-width="1.5" d="M0,-3.0v7 M-2.5,-0.5L0,-3.0L2.5,-0.5"/>
  </g>
  <g id="arrowLeft" transform="rotate(270) translate(-36 17)">
    <use xlink:href="#rim"/>
    <path pointer-events="none" fill="none" stroke="white" stroke-width="1.5" d="M0,-3.0v7 M-2.5,-0.5L0,-3.0L2.5,-0.5"/>
  </g>
  <g id="resetDef">
    <use xlink:href="#rim2" fill="#404040"><set attributeName="fill" to="#808080" begin="reset.mouseover" end="reset.mouseout"/></use>
  </g>
</defs>
<script type="application/ecmascript">
var viewWidth = 638;
var viewHeight = 467;
var sectionId = 'dynsection-0';
</script>
<script type="application/ecmascript" xlink:href="svg.min.js"/>
<svg id="graph" class="graph">
<g id="viewport">
<title>MidiEventList.cpp</title>
<!-- Node1 -->
<g id="Node000001" class="node">
<title>Node1</title>
<g id="a_Node000001"><a xlink:title="The MIDIEventList body implements sequences of integer values with zero&#45;based arbitrary indexed acces...">
<polygon fill="#999999" stroke="#666666" points="360,-459 267,-459 267,-440 360,-440 360,-459"/>
<text text-anchor="middle" x="313.5" y="-447" font-family="Helvetica,sans-Serif" font-size="10.00">MidiEventList.cpp</text>
</a>
</g>
</g>
<!-- Node2 -->
<g id="Node000002" class="node">
<title>Node2</title>
<g id="a_Node000002"><a xlink:title=" ">
<polygon fill="#e0e0e0" stroke="#999999" points="127,-349 78,-349 78,-330 127,-330 127,-349"/>
<text text-anchor="middle" x="102.5" y="-337" font-family="Helvetica,sans-Serif" font-size="10.00">cstdarg</text>
</a>
</g>
</g>
<!-- Node1&#45;&gt;Node2 -->
<g id="edge1_Node000001_Node000002" class="edge">
<title>Node1&#45;&gt;Node2</title>
<g id="a_edge1_Node000001_Node000002"><a xlink:title=" ">
<path fill="none" stroke="#63b8ff" d="M285.78,-439.97C261.57,-432.05 225.82,-419.22 196.5,-404 169.16,-389.81 140.14,-369.26 121.7,-355.41"/>
<polygon fill="#63b8ff" stroke="#63b8ff" points="123.63,-352.48 113.55,-349.21 119.39,-358.05 123.63,-352.48"/>
</a>
</g>
</g>
<!-- Node3 -->
<g id="Node000003" class="node">
<title>Node3</title>
<g id="a_Node000003"><a xlink:href="_logging_8h.html" target="_top" xlink:title="The Logging specification defines macros for entry&#45;, exit&#45; and intermediate logging of functions into...">
<polygon fill="white" stroke="#666666" points="264,-404 205,-404 205,-385 264,-385 264,-404"/>
<text text-anchor="middle" x="234.5" y="-392" font-family="Helvetica,sans-Serif" font-size="10.00">Logging.h</text>
</a>
</g>
</g>
<!-- Node1&#45;&gt;Node3 -->
<g id="edge2_Node000001_Node000003" class="edge">
<title>Node1&#45;&gt;Node3</title>
<g id="a_edge2_Node000001_Node000003"><a xlink:title=" ">
<path fill="none" stroke="#63b8ff" d="M300.81,-439.98C288.67,-431.84 270.14,-419.41 255.75,-409.76"/>
<polygon fill="#63b8ff" stroke="#63b8ff" points="257.68,-406.84 247.42,-404.17 253.78,-412.65 257.68,-406.84"/>
</a>
</g>
</g>
<!-- Node18 -->
<g id="Node000018" class="node">
<title>Node18</title>
<g id="a_Node000018"><a xlink:href="_object_8h.html" target="_top" xlink:title="The Object specification and body provides the root object type.">
<polygon fill="white" stroke="#666666" points="408,-294 355,-294 355,-275 408,-275 408,-294"/>
<text text-anchor="middle" x="381.5" y="-282" font-family="Helvetica,sans-Serif" font-size="10.00">Object.h</text>
</a>
</g>
</g>
<!-- Node1&#45;&gt;Node18 -->
<g id="edge44_Node000001_Node000018" class="edge">
<title>Node1&#45;&gt;Node18</title>
<g id="a_edge44_Node000001_Node000018"><a xlink:title=" ">
<path fill="none" stroke="#63b8ff" d="M317.16,-439.74C327.86,-414.09 359.27,-338.78 373.88,-303.78"/>
<polygon fill="#63b8ff" stroke="#63b8ff" points="377.21,-304.88 377.83,-294.31 370.75,-302.19 377.21,-304.88"/>
</a>
</g>
</g>
<!-- Node25 -->
<g id="Node000025" class="node">
<title>Node25</title>
<g id="a_Node000025"><a xlink:href="_midi_event_list_8h.html" target="_top" xlink:title="The MidiEventList specification defines lists of MIDI events with zero&#45;based arbitrary indexed access...">
<polygon fill="white" stroke="#666666" points="538,-404 455,-404 455,-385 538,-385 538,-404"/>
<text text-anchor="middle" x="496.5" y="-392" font-family="Helvetica,sans-Serif" font-size="10.00">MidiEventList.h</text>
</a>
</g>
</g>
<!-- Node1&#45;&gt;Node25 -->
<g id="edge34_Node000001_Node000025" class="edge">
<title>Node1&#45;&gt;Node25</title>
<g id="a_edge34_Node000001_Node000025"><a xlink:title=" ">
<path fill="none" stroke="#63b8ff" d="M342.9,-439.98C373.89,-431.01 422.88,-416.82 457.17,-406.89"/>
<polygon fill="#63b8ff" stroke="#63b8ff" points="458.24,-410.23 466.87,-404.08 456.29,-403.5 458.24,-410.23"/>
</a>
</g>
</g>
<!-- Node3&#45;&gt;Node2 -->
<g id="edge3_Node000003_Node000002" class="edge">
<title>Node3&#45;&gt;Node2</title>
<g id="a_edge3_Node000003_Node000002"><a xlink:title=" ">
<path fill="none" stroke="#63b8ff" d="M213.29,-384.98C191.77,-376.34 158.22,-362.87 133.67,-353.02"/>
<polygon fill="#63b8ff" stroke="#63b8ff" points="134.68,-349.65 124.09,-349.17 132.07,-356.14 134.68,-349.65"/>
</a>
</g>
</g>
<!-- Node4 -->
<g id="Node000004" class="node">
<title>Node4</title>
<g id="a_Node000004"><a xlink:href="_logging_support_8h.html" target="_top" xlink:title="The LoggingSupport specification defines a class for simple entry/exit logging to a file or via an ar...">
<polygon fill="white" stroke="#666666" points="237.5,-349 145.5,-349 145.5,-330 237.5,-330 237.5,-349"/>
<text text-anchor="middle" x="191.5" y="-337" font-family="Helvetica,sans-Serif" font-size="10.00">LoggingSupport.h</text>
</a>
</g>
</g>
<!-- Node3&#45;&gt;Node4 -->
<g id="edge4_Node000003_Node000004" class="edge">
<title>Node3&#45;&gt;Node4</title>
<g id="a_edge4_Node000003_Node000004"><a xlink:title=" ">
<path fill="none" stroke="#63b8ff" d="M227.4,-384.75C221.33,-377.26 212.41,-366.28 204.99,-357.13"/>
<polygon fill="#63b8ff" stroke="#63b8ff" points="207.49,-354.65 198.47,-349.09 202.05,-359.06 207.49,-354.65"/>
</a>
</g>
</g>
<!-- Node14 -->
<g id="Node000014" class="node">
<title>Node14</title>
<g id="a_Node000014"><a xlink:href="_string_util_8h.html" target="_top" xlink:title="The StringUtil specification defines several string routines not included in the standard C++ library...">
<polygon fill="white" stroke="#666666" points="321,-349 256,-349 256,-330 321,-330 321,-349"/>
<text text-anchor="middle" x="288.5" y="-337" font-family="Helvetica,sans-Serif" font-size="10.00">StringUtil.h</text>
</a>
</g>
</g>
<!-- Node3&#45;&gt;Node14 -->
<g id="edge16_Node000003_Node000014" class="edge">
<title>Node3&#45;&gt;Node14</title>
<g id="a_edge16_Node000003_Node000014"><a xlink:title=" ">
<path fill="none" stroke="#63b8ff" d="M243.42,-384.75C251.28,-377.03 262.93,-365.6 272.42,-356.28"/>
<polygon fill="#63b8ff" stroke="#63b8ff" points="275.06,-358.59 279.75,-349.09 270.16,-353.6 275.06,-358.59"/>
</a>
</g>
</g>
<!-- Node5 -->
<g id="Node000005" class="node">
<title>Node5</title>
<g id="a_Node000005"><a xlink:href="_boolean_8h.html" target="_top" xlink:title="The Boolean specification and body provides a value object type for boolean values.">
<polygon fill="white" stroke="#666666" points="168.5,-294 108.5,-294 108.5,-275 168.5,-275 168.5,-294"/>
<text text-anchor="middle" x="138.5" y="-282" font-family="Helvetica,sans-Serif" font-size="10.00">Boolean.h</text>
</a>
</g>
</g>
<!-- Node4&#45;&gt;Node5 -->
<g id="edge5_Node000004_Node000005" class="edge">
<title>Node4&#45;&gt;Node5</title>
<g id="a_edge5_Node000004_Node000005"><a xlink:title=" ">
<path fill="none" stroke="#63b8ff" d="M182.75,-329.75C175.03,-322.03 163.6,-310.6 154.28,-301.28"/>
<polygon fill="#63b8ff" stroke="#63b8ff" points="156.64,-298.69 147.09,-294.09 151.69,-303.64 156.64,-298.69"/>
</a>
</g>
</g>
<!-- Node9 -->
<g id="Node000009" class="node">
<title>Node9</title>
<g id="a_Node000009"><a xlink:href="_natural_8h.html" target="_top" xlink:title="The Natural specification and body provides a value object type for naturals (positive integers with ...">
<polygon fill="white" stroke="#666666" points="250.5,-129 194.5,-129 194.5,-110 250.5,-110 250.5,-129"/>
<text text-anchor="middle" x="222.5" y="-117" font-family="Helvetica,sans-Serif" font-size="10.00">Natural.h</text>
</a>
</g>
</g>
<!-- Node4&#45;&gt;Node9 -->
<g id="edge9_Node000004_Node000009" class="edge">
<title>Node4&#45;&gt;Node9</title>
<g id="a_edge9_Node000004_Node000009"><a xlink:title=" ">
<path fill="none" stroke="#63b8ff" d="M152.19,-329.92C132.79,-323.48 111.09,-312.49 99.5,-294 95.01,-286.85 96.71,-282.97 99.5,-275 120.4,-215.2 175.2,-161.24 204.08,-135.84"/>
<polygon fill="#63b8ff" stroke="#63b8ff" points="206.53,-138.35 211.82,-129.18 201.96,-133.05 206.53,-138.35"/>
</a>
</g>
</g>
<!-- Node6 -->
<g id="Node000006" class="node">
<title>Node6</title>
<g id="a_Node000006"><a xlink:href="_my_string_8h.html" target="_top" xlink:title="The String specification defines a standard string type.">
<polygon fill="white" stroke="#666666" points="74.5,-74 10.5,-74 10.5,-55 74.5,-55 74.5,-74"/>
<text text-anchor="middle" x="42.5" y="-62" font-family="Helvetica,sans-Serif" font-size="10.00">MyString.h</text>
</a>
</g>
</g>
<!-- Node5&#45;&gt;Node6 -->
<g id="edge6_Node000005_Node000006" class="edge">
<title>Node5&#45;&gt;Node6</title>
<g id="a_edge6_Node000005_Node000006"><a xlink:title=" ">
<path fill="none" stroke="#63b8ff" d="M134.74,-274.95C120.55,-242.74 70.13,-128.23 50.45,-83.55"/>
<polygon fill="#63b8ff" stroke="#63b8ff" points="53.58,-81.97 46.34,-74.22 47.17,-84.79 53.58,-81.97"/>
</a>
</g>
</g>
<!-- Node7 -->
<g id="Node000007" class="node">
<title>Node7</title>
<g id="a_Node000007"><a xlink:title=" ">
<polygon fill="#e0e0e0" stroke="#999999" points="145,-19 104,-19 104,0 145,0 145,-19"/>
<text text-anchor="middle" x="124.5" y="-7" font-family="Helvetica,sans-Serif" font-size="10.00">string</text>
</a>
</g>
</g>
<!-- Node6&#45;&gt;Node7 -->
<g id="edge7_Node000006_Node000007" class="edge">
<title>Node6&#45;&gt;Node7</title>
<g id="a_edge7_Node000006_Node000007"><a xlink:title=" ">
<path fill="none" stroke="#63b8ff" d="M55.67,-54.98C68.27,-46.84 87.5,-34.41 102.44,-24.76"/>
<polygon fill="#63b8ff" stroke="#63b8ff" points="104.59,-27.54 111.09,-19.17 100.79,-21.66 104.59,-27.54"/>
</a>
</g>
</g>
<!-- Node8 -->
<g id="Node000008" class="node">
<title>Node8</title>
<g id="a_Node000008"><a xlink:href="_global_macros_8h.html" target="_top" xlink:title="The GlobalMacros specification defines simple macros (e.g. for parameter modes).">
<polygon fill="white" stroke="#666666" points="85,-19 0,-19 0,0 85,0 85,-19"/>
<text text-anchor="middle" x="42.5" y="-7" font-family="Helvetica,sans-Serif" font-size="10.00">GlobalMacros.h</text>
</a>
</g>
</g>
<!-- Node6&#45;&gt;Node8 -->
<g id="edge8_Node000006_Node000008" class="edge">
<title>Node6&#45;&gt;Node8</title>
<g id="a_edge8_Node000006_Node000008"><a xlink:title=" ">
<path fill="none" stroke="#63b8ff" d="M42.5,-54.75C42.5,-47.8 42.5,-37.85 42.5,-29.13"/>
<polygon fill="#63b8ff" stroke="#63b8ff" points="46,-29.09 42.5,-19.09 39,-29.09 46,-29.09"/>
</a>
</g>
</g>
<!-- Node9&#45;&gt;Node6 -->
<g id="edge15_Node000009_Node000006" class="edge">
<title>Node9&#45;&gt;Node6</title>
<g id="a_edge15_Node000009_Node000006"><a xlink:title=" ">
<path fill="none" stroke="#63b8ff" d="M194.38,-110.22C163.96,-101.26 115.26,-86.92 81.24,-76.91"/>
<polygon fill="#63b8ff" stroke="#63b8ff" points="82.2,-73.54 71.62,-74.07 80.22,-80.26 82.2,-73.54"/>
</a>
</g>
</g>
<!-- Node10 -->
<g id="Node000010" class="node">
<title>Node10</title>
<g id="a_Node000010"><a xlink:title=" ">
<polygon fill="#e0e0e0" stroke="#999999" points="381.5,-74 337.5,-74 337.5,-55 381.5,-55 381.5,-74"/>
<text text-anchor="middle" x="359.5" y="-62" font-family="Helvetica,sans-Serif" font-size="10.00">cmath</text>
</a>
</g>
</g>
<!-- Node9&#45;&gt;Node10 -->
<g id="edge10_Node000009_Node000010" class="edge">
<title>Node9&#45;&gt;Node10</title>
<g id="a_edge10_Node000009_Node000010"><a xlink:title=" ">
<path fill="none" stroke="#63b8ff" d="M244.51,-109.98C266.95,-101.3 301.98,-87.75 327.49,-77.88"/>
<polygon fill="#63b8ff" stroke="#63b8ff" points="329.02,-81.04 337.09,-74.17 326.5,-74.51 329.02,-81.04"/>
</a>
</g>
</g>
<!-- Node11 -->
<g id="Node000011" class="node">
<title>Node11</title>
<g id="a_Node000011"><a xlink:href="_assertion_8h.html" target="_top" xlink:title="The Assertion specification defines macros for pre&#45; and postconditions in functions or methods.">
<polygon fill="white" stroke="#666666" points="158.5,-74 92.5,-74 92.5,-55 158.5,-55 158.5,-74"/>
<text text-anchor="middle" x="125.5" y="-62" font-family="Helvetica,sans-Serif" font-size="10.00">Assertion.h</text>
</a>
</g>
</g>
<!-- Node9&#45;&gt;Node11 -->
<g id="edge11_Node000009_Node000011" class="edge">
<title>Node9&#45;&gt;Node11</title>
<g id="a_edge11_Node000009_Node000011"><a xlink:title=" ">
<path fill="none" stroke="#63b8ff" d="M206.92,-109.98C191.73,-101.69 168.4,-88.94 150.6,-79.22"/>
<polygon fill="#63b8ff" stroke="#63b8ff" points="151.82,-75.89 141.37,-74.17 148.47,-82.04 151.82,-75.89"/>
</a>
</g>
</g>
<!-- Node13 -->
<g id="Node000013" class="node">
<title>Node13</title>
<g id="a_Node000013"><a xlink:title=" ">
<polygon fill="#e0e0e0" stroke="#999999" points="268.5,-74 176.5,-74 176.5,-55 268.5,-55 268.5,-74"/>
<text text-anchor="middle" x="222.5" y="-62" font-family="Helvetica,sans-Serif" font-size="10.00">GenericNumber.h</text>
</a>
</g>
</g>
<!-- Node9&#45;&gt;Node13 -->
<g id="edge14_Node000009_Node000013" class="edge">
<title>Node9&#45;&gt;Node13</title>
<g id="a_edge14_Node000009_Node000013"><a xlink:title=" ">
<path fill="none" stroke="#63b8ff" d="M222.5,-109.75C222.5,-102.8 222.5,-92.85 222.5,-84.13"/>
<polygon fill="#63b8ff" stroke="#63b8ff" points="226,-84.09 222.5,-74.09 219,-84.09 226,-84.09"/>
</a>
</g>
</g>
<!-- Node11&#45;&gt;Node7 -->
<g id="edge13_Node000011_Node000007" class="edge">
<title>Node11&#45;&gt;Node7</title>
<g id="a_edge13_Node000011_Node000007"><a xlink:title=" ">
<path fill="none" stroke="#63b8ff" d="M125.33,-54.75C125.2,-47.8 125.02,-37.85 124.85,-29.13"/>
<polygon fill="#63b8ff" stroke="#63b8ff" points="128.35,-29.02 124.66,-19.09 121.35,-29.15 128.35,-29.02"/>
</a>
</g>
</g>
<!-- Node12 -->
<g id="Node000012" class="node">
<title>Node12</title>
<g id="a_Node000012"><a xlink:title=" ">
<polygon fill="#e0e0e0" stroke="#999999" points="274,-19 215,-19 215,0 274,0 274,-19"/>
<text text-anchor="middle" x="244.5" y="-7" font-family="Helvetica,sans-Serif" font-size="10.00">stdexcept</text>
</a>
</g>
</g>
<!-- Node11&#45;&gt;Node12 -->
<g id="edge12_Node000011_Node000012" class="edge">
<title>Node11&#45;&gt;Node12</title>
<g id="a_edge12_Node000011_Node000012"><a xlink:title=" ">
<path fill="none" stroke="#63b8ff" d="M144.62,-54.98C163.85,-46.42 193.73,-33.11 215.81,-23.28"/>
<polygon fill="#63b8ff" stroke="#63b8ff" points="217.32,-26.44 225.03,-19.17 214.47,-20.04 217.32,-26.44"/>
</a>
</g>
</g>
<!-- Node14&#45;&gt;Node5 -->
<g id="edge17_Node000014_Node000005" class="edge">
<title>Node14&#45;&gt;Node5</title>
<g id="a_edge17_Node000014_Node000005"><a xlink:title=" ">
<path fill="none" stroke="#63b8ff" d="M264.4,-329.98C239.62,-321.23 200.8,-307.51 172.81,-297.62"/>
<polygon fill="#63b8ff" stroke="#63b8ff" points="173.63,-294.2 163.04,-294.17 171.3,-300.8 173.63,-294.2"/>
</a>
</g>
</g>
<!-- Node15 -->
<g id="Node000015" class="node">
<title>Node15</title>
<g id="a_Node000015"><a xlink:href="_character_8h.html" target="_top" xlink:title="The Character specification and body provides a value object type for character values.">
<polygon fill="white" stroke="#666666" points="406,-239 339,-239 339,-220 406,-220 406,-239"/>
<text text-anchor="middle" x="372.5" y="-227" font-family="Helvetica,sans-Serif" font-size="10.00">Character.h</text>
</a>
</g>
</g>
<!-- Node14&#45;&gt;Node15 -->
<g id="edge18_Node000014_Node000015" class="edge">
<title>Node14&#45;&gt;Node15</title>
<g id="a_edge18_Node000014_Node000015"><a xlink:title=" ">
<path fill="none" stroke="#63b8ff" d="M290.12,-329.94C292.89,-316.99 299.57,-292.11 312.5,-275 321.84,-262.63 335.54,-252.11 347.49,-244.41"/>
<polygon fill="#63b8ff" stroke="#63b8ff" points="349.49,-247.29 356.19,-239.09 345.83,-241.32 349.49,-247.29"/>
</a>
</g>
</g>
<!-- Node14&#45;&gt;Node18 -->
<g id="edge24_Node000014_Node000018" class="edge">
<title>Node14&#45;&gt;Node18</title>
<g id="a_edge24_Node000014_Node000018"><a xlink:title=" ">
<path fill="none" stroke="#63b8ff" d="M303.44,-329.98C318,-321.69 340.37,-308.94 357.43,-299.22"/>
<polygon fill="#63b8ff" stroke="#63b8ff" points="359.33,-302.16 366.29,-294.17 355.86,-296.08 359.33,-302.16"/>
</a>
</g>
</g>
<!-- Node19 -->
<g id="Node000019" class="node">
<title>Node19</title>
<g id="a_Node000019"><a xlink:href="_percentage_8h.html" target="_top" xlink:title="The Percentage specification and body provides a simple percentage type.">
<polygon fill="white" stroke="#666666" points="260.5,-294 186.5,-294 186.5,-275 260.5,-275 260.5,-294"/>
<text text-anchor="middle" x="223.5" y="-282" font-family="Helvetica,sans-Serif" font-size="10.00">Percentage.h</text>
</a>
</g>
</g>
<!-- Node14&#45;&gt;Node19 -->
<g id="edge25_Node000014_Node000019" class="edge">
<title>Node14&#45;&gt;Node19</title>
<g id="a_edge25_Node000014_Node000019"><a xlink:title=" ">
<path fill="none" stroke="#63b8ff" d="M278.06,-329.98C268.35,-322.07 253.68,-310.11 242,-300.58"/>
<polygon fill="#63b8ff" stroke="#63b8ff" points="244.1,-297.78 234.13,-294.17 239.67,-303.2 244.1,-297.78"/>
</a>
</g>
</g>
<!-- Node22 -->
<g id="Node000022" class="node">
<title>Node22</title>
<g id="a_Node000022"><a xlink:href="_string_list_8h.html" target="_top" xlink:title="The StringList specification defines lists of string values with zero&#45;based arbitrary indexed access ...">
<polygon fill="white" stroke="#666666" points="528.5,-239 462.5,-239 462.5,-220 528.5,-220 528.5,-239"/>
<text text-anchor="middle" x="495.5" y="-227" font-family="Helvetica,sans-Serif" font-size="10.00">StringList.h</text>
</a>
</g>
</g>
<!-- Node14&#45;&gt;Node22 -->
<g id="edge31_Node000014_Node000022" class="edge">
<title>Node14&#45;&gt;Node22</title>
<g id="a_edge31_Node000014_Node000022"><a xlink:title=" ">
<path fill="none" stroke="#63b8ff" d="M294.16,-329.72C303.45,-316.02 323.23,-289.6 346.5,-275 378.86,-254.69 420.97,-243.24 452.16,-237.06"/>
<polygon fill="#63b8ff" stroke="#63b8ff" points="453.11,-240.44 462.29,-235.16 451.82,-233.56 453.11,-240.44"/>
</a>
</g>
</g>
<!-- Node15&#45;&gt;Node10 -->
<g id="edge19_Node000015_Node000010" class="edge">
<title>Node15&#45;&gt;Node10</title>
<g id="a_edge19_Node000015_Node000010"><a xlink:title=" ">
<path fill="none" stroke="#63b8ff" d="M371.8,-219.74C369.77,-194.31 363.85,-120.08 361.03,-84.69"/>
<polygon fill="#63b8ff" stroke="#63b8ff" points="364.49,-84 360.2,-74.31 357.51,-84.55 364.49,-84"/>
</a>
</g>
</g>
<!-- Node16 -->
<g id="Node000016" class="node">
<title>Node16</title>
<g id="a_Node000016"><a xlink:href="_byte_8h.html" target="_top" xlink:title="The Byte specification and body provides a value object type for byte values.">
<polygon fill="white" stroke="#666666" points="446,-184 401,-184 401,-165 446,-165 446,-184"/>
<text text-anchor="middle" x="423.5" y="-172" font-family="Helvetica,sans-Serif" font-size="10.00">Byte.h</text>
</a>
</g>
</g>
<!-- Node15&#45;&gt;Node16 -->
<g id="edge20_Node000015_Node000016" class="edge">
<title>Node15&#45;&gt;Node16</title>
<g id="a_edge20_Node000015_Node000016"><a xlink:title=" ">
<path fill="none" stroke="#63b8ff" d="M380.92,-219.75C388.27,-212.11 399.13,-200.82 408.04,-191.56"/>
<polygon fill="#63b8ff" stroke="#63b8ff" points="410.82,-193.72 415.24,-184.09 405.78,-188.87 410.82,-193.72"/>
</a>
</g>
</g>
<!-- Node16&#45;&gt;Node9 -->
<g id="edge23_Node000016_Node000009" class="edge">
<title>Node16&#45;&gt;Node9</title>
<g id="a_edge23_Node000016_Node000009"><a xlink:title=" ">
<path fill="none" stroke="#63b8ff" d="M400.83,-167.52C366.69,-158.52 301.66,-141.37 260.27,-130.46"/>
<polygon fill="#63b8ff" stroke="#63b8ff" points="261.11,-127.06 250.55,-127.9 259.32,-133.83 261.11,-127.06"/>
</a>
</g>
</g>
<!-- Node16&#45;&gt;Node10 -->
<g id="edge21_Node000016_Node000010" class="edge">
<title>Node16&#45;&gt;Node10</title>
<g id="a_edge21_Node000016_Node000010"><a xlink:title=" ">
<path fill="none" stroke="#63b8ff" d="M418.52,-164.84C411.46,-152.6 398.11,-129.52 386.5,-110 381.12,-100.96 375.05,-90.93 370.03,-82.69"/>
<polygon fill="#63b8ff" stroke="#63b8ff" points="372.92,-80.71 364.72,-74 366.95,-84.36 372.92,-80.71"/>
</a>
</g>
</g>
<!-- Node17 -->
<g id="Node000017" class="node">
<title>Node17</title>
<g id="a_Node000017"><a xlink:title=" ">
<polygon fill="#e0e0e0" stroke="#999999" points="484.5,-129 438.5,-129 438.5,-110 484.5,-110 484.5,-129"/>
<text text-anchor="middle" x="461.5" y="-117" font-family="Helvetica,sans-Serif" font-size="10.00">cstdint</text>
</a>
</g>
</g>
<!-- Node16&#45;&gt;Node17 -->
<g id="edge22_Node000016_Node000017" class="edge">
<title>Node16&#45;&gt;Node17</title>
<g id="a_edge22_Node000016_Node000017"><a xlink:title=" ">
<path fill="none" stroke="#63b8ff" d="M429.77,-164.75C435.09,-157.34 442.86,-146.5 449.38,-137.41"/>
<polygon fill="#63b8ff" stroke="#63b8ff" points="452.36,-139.26 455.34,-129.09 446.67,-135.18 452.36,-139.26"/>
</a>
</g>
</g>
<!-- Node20 -->
<g id="Node000020" class="node">
<title>Node20</title>
<g id="a_Node000020"><a xlink:href="_real_8h.html" target="_top" xlink:title="The Real specification defines a value object type for real values.">
<polygon fill="white" stroke="#666666" points="263.5,-239 219.5,-239 219.5,-220 263.5,-220 263.5,-239"/>
<text text-anchor="middle" x="241.5" y="-227" font-family="Helvetica,sans-Serif" font-size="10.00">Real.h</text>
</a>
</g>
</g>
<!-- Node19&#45;&gt;Node20 -->
<g id="edge26_Node000019_Node000020" class="edge">
<title>Node19&#45;&gt;Node20</title>
<g id="a_edge26_Node000019_Node000020"><a xlink:title=" ">
<path fill="none" stroke="#63b8ff" d="M226.47,-274.75C228.86,-267.72 232.29,-257.62 235.27,-248.84"/>
<polygon fill="#63b8ff" stroke="#63b8ff" points="238.68,-249.68 238.58,-239.09 232.05,-247.43 238.68,-249.68"/>
</a>
</g>
</g>
<!-- Node21 -->
<g id="Node000021" class="node">
<title>Node21</title>
<g id="a_Node000021"><a xlink:href="_integer_8h.html" target="_top" xlink:title="The Integer specification and body provides a value object type for ints.">
<polygon fill="white" stroke="#666666" points="323.5,-184 269.5,-184 269.5,-165 323.5,-165 323.5,-184"/>
<text text-anchor="middle" x="296.5" y="-172" font-family="Helvetica,sans-Serif" font-size="10.00">Integer.h</text>
</a>
</g>
</g>
<!-- Node20&#45;&gt;Node21 -->
<g id="edge27_Node000020_Node000021" class="edge">
<title>Node20&#45;&gt;Node21</title>
<g id="a_edge27_Node000020_Node000021"><a xlink:title=" ">
<path fill="none" stroke="#63b8ff" d="M250.58,-219.75C258.59,-212.03 270.46,-200.6 280.12,-191.28"/>
<polygon fill="#63b8ff" stroke="#63b8ff" points="282.81,-193.55 287.59,-184.09 277.96,-188.51 282.81,-193.55"/>
</a>
</g>
</g>
<!-- Node21&#45;&gt;Node9 -->
<g id="edge30_Node000021_Node000009" class="edge">
<title>Node21&#45;&gt;Node9</title>
<g id="a_edge30_Node000021_Node000009"><a xlink:title=" ">
<path fill="none" stroke="#63b8ff" d="M284.61,-164.98C273.35,-156.92 256.21,-144.65 242.79,-135.03"/>
<polygon fill="#63b8ff" stroke="#63b8ff" points="244.77,-132.15 234.61,-129.17 240.7,-137.84 244.77,-132.15"/>
</a>
</g>
</g>
<!-- Node21&#45;&gt;Node10 -->
<g id="edge28_Node000021_Node000010" class="edge">
<title>Node21&#45;&gt;Node10</title>
<g id="a_edge28_Node000021_Node000010"><a xlink:title=" ">
<path fill="none" stroke="#63b8ff" d="M301.66,-164.66C312.04,-146.85 335.66,-106.37 349.29,-83.01"/>
<polygon fill="#63b8ff" stroke="#63b8ff" points="352.43,-84.56 354.45,-74.16 346.39,-81.03 352.43,-84.56"/>
</a>
</g>
</g>
<!-- Node21&#45;&gt;Node12 -->
<g id="edge29_Node000021_Node000012" class="edge">
<title>Node21&#45;&gt;Node12</title>
<g id="a_edge29_Node000021_Node000012"><a xlink:title=" ">
<path fill="none" stroke="#63b8ff" d="M296.5,-164.79C296.2,-144.64 293.75,-93.6 277.5,-55 273.22,-44.84 266.17,-34.87 259.67,-26.94"/>
<polygon fill="#63b8ff" stroke="#63b8ff" points="262.2,-24.51 253.01,-19.24 256.9,-29.09 262.2,-24.51"/>
</a>
</g>
</g>
<!-- Node23 -->
<g id="Node000023" class="node">
<title>Node23</title>
<g id="a_Node000023"><a xlink:title=" ">
<polygon fill="#e0e0e0" stroke="#999999" points="630,-184 557,-184 557,-165 630,-165 630,-184"/>
<text text-anchor="middle" x="593.5" y="-172" font-family="Helvetica,sans-Serif" font-size="10.00">initializer_list</text>
</a>
</g>
</g>
<!-- Node22&#45;&gt;Node23 -->
<g id="edge32_Node000022_Node000023" class="edge">
<title>Node22&#45;&gt;Node23</title>
<g id="a_edge32_Node000022_Node000023"><a xlink:title=" ">
<path fill="none" stroke="#63b8ff" d="M511.25,-219.98C526.73,-211.61 550.59,-198.7 568.64,-188.95"/>
<polygon fill="#63b8ff" stroke="#63b8ff" points="570.34,-192.01 577.47,-184.17 567.01,-185.85 570.34,-192.01"/>
</a>
</g>
</g>
<!-- Node24 -->
<g id="Node000024" class="node">
<title>Node24</title>
<g id="a_Node000024"><a xlink:title=" ">
<polygon fill="#e0e0e0" stroke="#999999" points="538.5,-184 464.5,-184 464.5,-165 538.5,-165 538.5,-184"/>
<text text-anchor="middle" x="501.5" y="-172" font-family="Helvetica,sans-Serif" font-size="10.00">GenericList.h</text>
</a>
</g>
</g>
<!-- Node22&#45;&gt;Node24 -->
<g id="edge33_Node000022_Node000024" class="edge">
<title>Node22&#45;&gt;Node24</title>
<g id="a_edge33_Node000022_Node000024"><a xlink:title=" ">
<path fill="none" stroke="#63b8ff" d="M496.49,-219.75C497.28,-212.8 498.4,-202.85 499.39,-194.13"/>
<polygon fill="#63b8ff" stroke="#63b8ff" points="502.88,-194.42 500.53,-184.09 495.92,-193.63 502.88,-194.42"/>
</a>
</g>
</g>
<!-- Node25&#45;&gt;Node23 -->
<g id="edge35_Node000025_Node000023" class="edge">
<title>Node25&#45;&gt;Node23</title>
<g id="a_edge35_Node000025_Node000023"><a xlink:title=" ">
<path fill="none" stroke="#63b8ff" d="M506.87,-384.97C516.34,-376.68 530.1,-363.28 538.5,-349 568.74,-297.59 584.29,-227.68 590.37,-194.49"/>
<polygon fill="#63b8ff" stroke="#63b8ff" points="593.86,-194.82 592.13,-184.37 586.97,-193.62 593.86,-194.82"/>
</a>
</g>
</g>
<!-- Node25&#45;&gt;Node24 -->
<g id="edge36_Node000025_Node000024" class="edge">
<title>Node25&#45;&gt;Node24</title>
<g id="a_edge36_Node000025_Node000024"><a xlink:title=" ">
<path fill="none" stroke="#63b8ff" d="M502.1,-384.64C517.7,-358.77 559.18,-281.27 537.5,-220 533.75,-209.41 526.29,-199.49 519.13,-191.71"/>
<polygon fill="#63b8ff" stroke="#63b8ff" points="521.19,-188.82 511.66,-184.19 516.22,-193.76 521.19,-188.82"/>
</a>
</g>
</g>
<!-- Node26 -->
<g id="Node000026" class="node">
<title>Node26</title>
<g id="a_Node000026"><a xlink:href="_midi_event_8h.html" target="_top" xlink:title="The MidiEvent specification defines a single MIDI event and the MIDI event kind enumeration.">
<polygon fill="white" stroke="#666666" points="470,-349 403,-349 403,-330 470,-330 470,-349"/>
<text text-anchor="middle" x="436.5" y="-337" font-family="Helvetica,sans-Serif" font-size="10.00">MidiEvent.h</text>
</a>
</g>
</g>
<!-- Node25&#45;&gt;Node26 -->
<g id="edge37_Node000025_Node000026" class="edge">
<title>Node25&#45;&gt;Node26</title>
<g id="a_edge37_Node000025_Node000026"><a xlink:title=" ">
<path fill="none" stroke="#63b8ff" d="M486.86,-384.98C477.99,-377.15 464.63,-365.34 453.89,-355.86"/>
<polygon fill="#63b8ff" stroke="#63b8ff" points="456.13,-353.17 446.32,-349.17 451.49,-358.41 456.13,-353.17"/>
</a>
</g>
</g>
<!-- Node26&#45;&gt;Node5 -->
<g id="edge38_Node000026_Node000005" class="edge">
<title>Node26&#45;&gt;Node5</title>
<g id="a_edge38_Node000026_Node000005"><a xlink:title=" ">
<path fill="none" stroke="#63b8ff" d="M402.89,-333.21C355.24,-325.62 265.12,-310.85 178.68,-294.16"/>
<polygon fill="#63b8ff" stroke="#63b8ff" points="179.19,-290.69 168.71,-292.22 177.86,-297.57 179.19,-290.69"/>
</a>
</g>
</g>
<!-- Node26&#45;&gt;Node18 -->
<g id="edge43_Node000026_Node000018" class="edge">
<title>Node26&#45;&gt;Node18</title>
<g id="a_edge43_Node000026_Node000018"><a xlink:title=" ">
<path fill="none" stroke="#63b8ff" d="M427.42,-329.75C419.41,-322.03 407.54,-310.6 397.88,-301.28"/>
<polygon fill="#63b8ff" stroke="#63b8ff" points="400.04,-298.51 390.41,-294.09 395.19,-303.55 400.04,-298.51"/>
</a>
</g>
</g>
<!-- Node26&#45;&gt;Node21 -->
<g id="edge39_Node000026_Node000021" class="edge">
<title>Node26&#45;&gt;Node21</title>
<g id="a_edge39_Node000026_Node000021"><a xlink:title=" ">
<path fill="none" stroke="#63b8ff" d="M436.2,-329.99C435.3,-316.64 431.69,-290.71 417.5,-275 389.45,-243.95 361.52,-267.09 330.5,-239 316.91,-226.69 307.73,-207.65 302.37,-193.63"/>
<polygon fill="#63b8ff" stroke="#63b8ff" points="305.63,-192.35 299.01,-184.08 299.03,-194.67 305.63,-192.35"/>
</a>
</g>
</g>
<!-- Node27 -->
<g id="Node000027" class="node">
<title>Node27</title>
<g id="a_Node000027"><a xlink:href="_byte_list_8h.html" target="_top" xlink:title="The ByteList specification defines lists of byte values with zero&#45;based arbitrary indexed access to p...">
<polygon fill="white" stroke="#666666" points="526,-294 465,-294 465,-275 526,-275 526,-294"/>
<text text-anchor="middle" x="495.5" y="-282" font-family="Helvetica,sans-Serif" font-size="10.00">ByteList.h</text>
</a>
</g>
</g>
<!-- Node26&#45;&gt;Node27 -->
<g id="edge40_Node000026_Node000027" class="edge">
<title>Node26&#45;&gt;Node27</title>
<g id="a_edge40_Node000026_Node000027"><a xlink:title=" ">
<path fill="none" stroke="#63b8ff" d="M445.98,-329.98C454.7,-322.15 467.84,-310.34 478.4,-300.86"/>
<polygon fill="#63b8ff" stroke="#63b8ff" points="480.75,-303.46 485.85,-294.17 476.07,-298.25 480.75,-303.46"/>
</a>
</g>
</g>
<!-- Node27&#45;&gt;Node16 -->
<g id="edge41_Node000027_Node000016" class="edge">
<title>Node27&#45;&gt;Node16</title>
<g id="a_edge41_Node000027_Node000016"><a xlink:title=" ">
<path fill="none" stroke="#63b8ff" d="M485.56,-274.7C476.4,-266.22 462.84,-252.69 453.5,-239 443.74,-224.7 435.57,-206.72 430.24,-193.55"/>
<polygon fill="#63b8ff" stroke="#63b8ff" points="433.48,-192.22 426.59,-184.17 426.96,-194.76 433.48,-192.22"/>
</a>
</g>
</g>
<!-- Node27&#45;&gt;Node22 -->
<g id="edge42_Node000027_Node000022" class="edge">
<title>Node27&#45;&gt;Node22</title>
<g id="a_edge42_Node000027_Node000022"><a xlink:title=" ">
<path fill="none" stroke="#63b8ff" d="M495.5,-274.75C495.5,-267.8 495.5,-257.85 495.5,-249.13"/>
<polygon fill="#63b8ff" stroke="#63b8ff" points="499,-249.09 495.5,-239.09 492,-249.09 499,-249.09"/>
</a>
</g>
</g>
</g>
</svg>

<g id="navigator" transform="translate(0 0)" fill="#404254">
  <rect fill="#f2f5e9" fill-opacity="0.5" stroke="#606060" stroke-width=".5" x="0" y="0" width="60" height="60"/>
  <use id="zoomplus" xlink:href="#zoomPlus" x="17" y="9" onmousedown="handleZoom(evt,'in')"/>
  <use id="zoomminus" xlink:href="#zoomMin" x="42" y="9" onmousedown="handleZoom(evt,'out')"/>
  <use id="reset" xlink:href="#resetDef" x="30" y="36" onmousedown="handleReset()"/>
   <use id="arrowup" xlink:href="#arrowUp" x="0" y="0" onmousedown="handlePan(0,-1)"/>
  <use id="arrowright" xlink:href="#arrowRight" x="0" y="0" onmousedown="handlePan(1,0)"/>
  <use id="arrowdown" xlink:href="#arrowDown" x="0" y="0" onmousedown="handlePan(0,1)"/>
  <use id="arrowleft" xlink:href="#arrowLeft" x="0" y="0" onmousedown="handlePan(-1,0)"/>
</g>
<svg viewBox="0 0 15 15" width="100%" height="30px" preserveAspectRatio="xMaxYMin meet">
 <g id="arrow_out" transform="scale(0.3 0.3)">
  <a xlink:href="_midi_event_list_8cpp__incl_org.svg" target="_base">
   <rect id="button" ry="5" rx="5" y="6" x="6" height="38" width="38"
        fill="#f2f5e9" fill-opacity="0.5" stroke="#606060" stroke-width="1.0"/>
   <path id="arrow"
     d="M 11.500037,31.436501 C 11.940474,20.09759 22.043105,11.32322 32.158766,21.979434 L 37.068811,17.246167 C 37.068811,17.246167 37.088388,32 37.088388,32 L 22.160133,31.978069 C 22.160133,31.978069 26.997745,27.140456 26.997745,27.140456 C 18.528582,18.264221 13.291696,25.230495 11.500037,31.436501 z"
     style="fill:#404040;"/>
  </a>
 </g>
</svg>

<style type='text/css'>
<![CDATA[
[data-mouse-over-selected='false'] { opacity: 0.7; }
[data-mouse-over-selected='true']  { opacity: 1.0; }
]]>
</style>
<script type="application/ecmascript"><![CDATA[
document.addEventListener('DOMContentLoaded', (event) => {
  highlightEdges();
  highlightAdjacentNodes();
});
]]></script>
</svg>
