<?xml version="1.0" encoding="UTF-8" standalone="no"?>
<!DOCTYPE svg PUBLIC "-//W3C//DTD SVG 1.1//EN"
 "http://www.w3.org/Graphics/SVG/1.1/DTD/svg11.dtd">
<!-- Generated by graphviz version 2.47.1 (20210417.1919)
 -->
<!-- Title: MidiEventList.cpp Pages: 1 -->
<svg width="589pt" height="476pt"
 viewBox="0.00 0.00 588.50 476.00" xmlns="http://www.w3.org/2000/svg" xmlns:xlink="http://www.w3.org/1999/xlink">
<g id="graph0" class="graph" transform="scale(1 1) rotate(0) translate(4 472)">
<title>MidiEventList.cpp</title>
<polygon fill="white" stroke="transparent" points="-4,4 -4,-472 584.5,-472 584.5,4 -4,4"/>
<!-- Node1 -->
<g id="node1" class="node">
<title>Node1</title>
<g id="a_node1"><a xlink:title="The MIDIEventList body implements sequences of integer values with zero&#45;based arbitrary indexed acces...">
<polygon fill="#bfbfbf" stroke="black" points="250,-448.5 250,-467.5 343,-467.5 343,-448.5 250,-448.5"/>
<text text-anchor="middle" x="296.5" y="-455.5" font-family="Helvetica,sans-Serif" font-size="10.00">MidiEventList.cpp</text>
</a>
</g>
</g>
<!-- Node2 -->
<g id="node2" class="node">
<title>Node2</title>
<g id="a_node2"><a xlink:title=" ">
<polygon fill="white" stroke="#bfbfbf" points="14,-336.5 14,-355.5 63,-355.5 63,-336.5 14,-336.5"/>
<text text-anchor="middle" x="38.5" y="-343.5" font-family="Helvetica,sans-Serif" font-size="10.00">cstdarg</text>
</a>
</g>
</g>
<!-- Node1&#45;&gt;Node2 -->
<g id="edge1" class="edge">
<title>Node1&#45;&gt;Node2</title>
<path fill="none" stroke="midnightblue" d="M253.07,-448.47C220.37,-441.17 174.95,-429.1 137.5,-412 107.63,-398.36 76.5,-376.44 57.31,-361.88"/>
<polygon fill="midnightblue" stroke="midnightblue" points="59.19,-358.92 49.14,-355.58 54.92,-364.46 59.19,-358.92"/>
</g>
<!-- Node3 -->
<g id="node3" class="node">
<title>Node3</title>
<g id="a_node3"><a xlink:href="_logging_8h.html" target="_top" xlink:title="The Logging specification defines macros for entry&#45;, exit&#45; and intermediate logging of functions into...">
<polygon fill="white" stroke="black" points="146,-392.5 146,-411.5 205,-411.5 205,-392.5 146,-392.5"/>
<text text-anchor="middle" x="175.5" y="-399.5" font-family="Helvetica,sans-Serif" font-size="10.00">Logging.h</text>
</a>
</g>
</g>
<!-- Node1&#45;&gt;Node3 -->
<g id="edge2" class="edge">
<title>Node1&#45;&gt;Node3</title>
<path fill="none" stroke="midnightblue" d="M277.33,-448.44C257.59,-439.64 226.61,-425.81 204.01,-415.72"/>
<polygon fill="midnightblue" stroke="midnightblue" points="205.14,-412.4 194.58,-411.52 202.29,-418.79 205.14,-412.4"/>
</g>
<!-- Node23 -->
<g id="node23" class="node">
<title>Node23</title>
<g id="a_node23"><a xlink:href="_midi_event_list_8h.html" target="_top" xlink:title="The MidiEventList specification defines lists of MIDI events with zero&#45;based arbitrary indexed access...">
<polygon fill="white" stroke="black" points="459,-392.5 459,-411.5 542,-411.5 542,-392.5 459,-392.5"/>
<text text-anchor="middle" x="500.5" y="-399.5" font-family="Helvetica,sans-Serif" font-size="10.00">MidiEventList.h</text>
</a>
</g>
</g>
<!-- Node1&#45;&gt;Node23 -->
<g id="edge33" class="edge">
<title>Node1&#45;&gt;Node23</title>
<path fill="none" stroke="midnightblue" d="M328.82,-448.44C363.89,-439.16 420,-424.31 458.46,-414.13"/>
<polygon fill="midnightblue" stroke="midnightblue" points="459.56,-417.46 468.33,-411.52 457.76,-410.69 459.56,-417.46"/>
</g>
<!-- Node26 -->
<g id="node26" class="node">
<title>Node26</title>
<g id="a_node26"><a xlink:href="_object_8h.html" target="_top" xlink:title="The Object specification and body provides the root object type.">
<polygon fill="white" stroke="black" points="429,-280.5 429,-299.5 482,-299.5 482,-280.5 429,-280.5"/>
<text text-anchor="middle" x="455.5" y="-287.5" font-family="Helvetica,sans-Serif" font-size="10.00">Object.h</text>
</a>
</g>
</g>
<!-- Node1&#45;&gt;Node26 -->
<g id="edge43" class="edge">
<title>Node1&#45;&gt;Node26</title>
<path fill="none" stroke="midnightblue" d="M305.05,-448.08C330.73,-421.27 407.43,-341.19 440.28,-306.89"/>
<polygon fill="midnightblue" stroke="midnightblue" points="442.9,-309.21 447.29,-299.57 437.85,-304.37 442.9,-309.21"/>
</g>
<!-- Node3&#45;&gt;Node2 -->
<g id="edge3" class="edge">
<title>Node3&#45;&gt;Node2</title>
<path fill="none" stroke="midnightblue" d="M153.79,-392.44C131.15,-383.52 95.43,-369.44 69.75,-359.32"/>
<polygon fill="midnightblue" stroke="midnightblue" points="70.69,-355.93 60.11,-355.52 68.13,-362.44 70.69,-355.93"/>
</g>
<!-- Node4 -->
<g id="node4" class="node">
<title>Node4</title>
<g id="a_node4"><a xlink:href="_logging_support_8h.html" target="_top" xlink:title="The LoggingSupport specification defines a class for simple entry/exit logging to a file or via an ar...">
<polygon fill="white" stroke="black" points="81.5,-336.5 81.5,-355.5 173.5,-355.5 173.5,-336.5 81.5,-336.5"/>
<text text-anchor="middle" x="127.5" y="-343.5" font-family="Helvetica,sans-Serif" font-size="10.00">LoggingSupport.h</text>
</a>
</g>
</g>
<!-- Node3&#45;&gt;Node4 -->
<g id="edge4" class="edge">
<title>Node3&#45;&gt;Node4</title>
<path fill="none" stroke="midnightblue" d="M167.57,-392.08C160.65,-384.3 150.43,-372.8 142.05,-363.37"/>
<polygon fill="midnightblue" stroke="midnightblue" points="144.54,-360.9 135.28,-355.75 139.31,-365.55 144.54,-360.9"/>
</g>
<!-- Node14 -->
<g id="node14" class="node">
<title>Node14</title>
<g id="a_node14"><a xlink:href="_string_util_8h.html" target="_top" xlink:title="The StringUtil specification defines several string routines not included in the standard C++ library...">
<polygon fill="white" stroke="black" points="192,-336.5 192,-355.5 257,-355.5 257,-336.5 192,-336.5"/>
<text text-anchor="middle" x="224.5" y="-343.5" font-family="Helvetica,sans-Serif" font-size="10.00">StringUtil.h</text>
</a>
</g>
</g>
<!-- Node3&#45;&gt;Node14 -->
<g id="edge16" class="edge">
<title>Node3&#45;&gt;Node14</title>
<path fill="none" stroke="midnightblue" d="M183.59,-392.08C190.66,-384.3 201.09,-372.8 209.65,-363.37"/>
<polygon fill="midnightblue" stroke="midnightblue" points="212.43,-365.51 216.56,-355.75 207.25,-360.8 212.43,-365.51"/>
</g>
<!-- Node5 -->
<g id="node5" class="node">
<title>Node5</title>
<g id="a_node5"><a xlink:href="_boolean_8h.html" target="_top" xlink:title="The Boolean specification and body provides a value object type for boolean values.">
<polygon fill="white" stroke="black" points="64.5,-280.5 64.5,-299.5 124.5,-299.5 124.5,-280.5 64.5,-280.5"/>
<text text-anchor="middle" x="94.5" y="-287.5" font-family="Helvetica,sans-Serif" font-size="10.00">Boolean.h</text>
</a>
</g>
</g>
<!-- Node4&#45;&gt;Node5 -->
<g id="edge5" class="edge">
<title>Node4&#45;&gt;Node5</title>
<path fill="none" stroke="midnightblue" d="M122.05,-336.08C117.49,-328.61 110.83,-317.72 105.21,-308.52"/>
<polygon fill="midnightblue" stroke="midnightblue" points="108.05,-306.46 99.85,-299.75 102.08,-310.11 108.05,-306.46"/>
</g>
<!-- Node9 -->
<g id="node9" class="node">
<title>Node9</title>
<g id="a_node9"><a xlink:href="_natural_8h.html" target="_top" xlink:title="The Natural specification and body provides a value object type for naturals (positive integers with ...">
<polygon fill="white" stroke="black" points="105.5,-112.5 105.5,-131.5 161.5,-131.5 161.5,-112.5 105.5,-112.5"/>
<text text-anchor="middle" x="133.5" y="-119.5" font-family="Helvetica,sans-Serif" font-size="10.00">Natural.h</text>
</a>
</g>
</g>
<!-- Node4&#45;&gt;Node9 -->
<g id="edge9" class="edge">
<title>Node4&#45;&gt;Node9</title>
<path fill="none" stroke="midnightblue" d="M102,-336.47C85.51,-329.48 65.36,-317.79 55.5,-300 51.19,-292.23 53.47,-288.65 55.5,-280 68.32,-225.4 103.1,-168.06 121.58,-140.21"/>
<polygon fill="midnightblue" stroke="midnightblue" points="124.67,-141.89 127.38,-131.64 118.87,-137.96 124.67,-141.89"/>
</g>
<!-- Node6 -->
<g id="node6" class="node">
<title>Node6</title>
<g id="a_node6"><a xlink:href="_my_string_8h.html" target="_top" xlink:title="The String specification defines a standard string type.">
<polygon fill="white" stroke="black" points="10.5,-56.5 10.5,-75.5 74.5,-75.5 74.5,-56.5 10.5,-56.5"/>
<text text-anchor="middle" x="42.5" y="-63.5" font-family="Helvetica,sans-Serif" font-size="10.00">MyString.h</text>
</a>
</g>
</g>
<!-- Node5&#45;&gt;Node6 -->
<g id="edge6" class="edge">
<title>Node5&#45;&gt;Node6</title>
<path fill="none" stroke="midnightblue" d="M92.46,-280.3C84.79,-247.56 57.58,-131.38 46.87,-85.67"/>
<polygon fill="midnightblue" stroke="midnightblue" points="50.27,-84.82 44.58,-75.88 43.45,-86.42 50.27,-84.82"/>
</g>
<!-- Node7 -->
<g id="node7" class="node">
<title>Node7</title>
<g id="a_node7"><a xlink:title=" ">
<polygon fill="white" stroke="#bfbfbf" points="104,-0.5 104,-19.5 145,-19.5 145,-0.5 104,-0.5"/>
<text text-anchor="middle" x="124.5" y="-7.5" font-family="Helvetica,sans-Serif" font-size="10.00">string</text>
</a>
</g>
</g>
<!-- Node6&#45;&gt;Node7 -->
<g id="edge7" class="edge">
<title>Node6&#45;&gt;Node7</title>
<path fill="none" stroke="midnightblue" d="M55.67,-56.32C68.35,-47.98 87.73,-35.21 102.71,-25.35"/>
<polygon fill="midnightblue" stroke="midnightblue" points="104.93,-28.08 111.36,-19.65 101.08,-22.23 104.93,-28.08"/>
</g>
<!-- Node8 -->
<g id="node8" class="node">
<title>Node8</title>
<g id="a_node8"><a xlink:href="_global_macros_8h.html" target="_top" xlink:title="The GlobalMacros specification defines simple macros (e.g. for parameter modes).">
<polygon fill="white" stroke="black" points="0,-0.5 0,-19.5 85,-19.5 85,-0.5 0,-0.5"/>
<text text-anchor="middle" x="42.5" y="-7.5" font-family="Helvetica,sans-Serif" font-size="10.00">GlobalMacros.h</text>
</a>
</g>
</g>
<!-- Node6&#45;&gt;Node8 -->
<g id="edge8" class="edge">
<title>Node6&#45;&gt;Node8</title>
<path fill="none" stroke="midnightblue" d="M42.5,-56.08C42.5,-49.01 42.5,-38.86 42.5,-29.99"/>
<polygon fill="midnightblue" stroke="midnightblue" points="46,-29.75 42.5,-19.75 39,-29.75 46,-29.75"/>
</g>
<!-- Node9&#45;&gt;Node6 -->
<g id="edge15" class="edge">
<title>Node9&#45;&gt;Node6</title>
<path fill="none" stroke="midnightblue" d="M118.88,-112.32C104.55,-103.82 82.49,-90.73 65.75,-80.8"/>
<polygon fill="midnightblue" stroke="midnightblue" points="67.47,-77.75 57.08,-75.65 63.9,-83.77 67.47,-77.75"/>
</g>
<!-- Node10 -->
<g id="node10" class="node">
<title>Node10</title>
<g id="a_node10"><a xlink:title=" ">
<polygon fill="white" stroke="#bfbfbf" points="286.5,-56.5 286.5,-75.5 330.5,-75.5 330.5,-56.5 286.5,-56.5"/>
<text text-anchor="middle" x="308.5" y="-63.5" font-family="Helvetica,sans-Serif" font-size="10.00">cmath</text>
</a>
</g>
</g>
<!-- Node9&#45;&gt;Node10 -->
<g id="edge10" class="edge">
<title>Node9&#45;&gt;Node10</title>
<path fill="none" stroke="midnightblue" d="M161.23,-112.44C192.67,-102.74 243.84,-86.95 276.83,-76.77"/>
<polygon fill="midnightblue" stroke="midnightblue" points="277.92,-80.1 286.44,-73.81 275.85,-73.41 277.92,-80.1"/>
</g>
<!-- Node11 -->
<g id="node11" class="node">
<title>Node11</title>
<g id="a_node11"><a xlink:href="_assertion_8h.html" target="_top" xlink:title="The Assertion specification defines macros for pre&#45; and postconditions in functions or methods.">
<polygon fill="white" stroke="black" points="92.5,-56.5 92.5,-75.5 158.5,-75.5 158.5,-56.5 92.5,-56.5"/>
<text text-anchor="middle" x="125.5" y="-63.5" font-family="Helvetica,sans-Serif" font-size="10.00">Assertion.h</text>
</a>
</g>
</g>
<!-- Node9&#45;&gt;Node11 -->
<g id="edge11" class="edge">
<title>Node9&#45;&gt;Node11</title>
<path fill="none" stroke="midnightblue" d="M132.18,-112.08C131.12,-104.93 129.59,-94.64 128.27,-85.69"/>
<polygon fill="midnightblue" stroke="midnightblue" points="131.72,-85.13 126.8,-75.75 124.8,-86.16 131.72,-85.13"/>
</g>
<!-- Node13 -->
<g id="node13" class="node">
<title>Node13</title>
<g id="a_node13"><a xlink:title=" ">
<polygon fill="white" stroke="#bfbfbf" points="176.5,-56.5 176.5,-75.5 268.5,-75.5 268.5,-56.5 176.5,-56.5"/>
<text text-anchor="middle" x="222.5" y="-63.5" font-family="Helvetica,sans-Serif" font-size="10.00">GenericNumber.h</text>
</a>
</g>
</g>
<!-- Node9&#45;&gt;Node13 -->
<g id="edge14" class="edge">
<title>Node9&#45;&gt;Node13</title>
<path fill="none" stroke="midnightblue" d="M147.8,-112.32C161.68,-103.9 182.99,-90.97 199.3,-81.07"/>
<polygon fill="midnightblue" stroke="midnightblue" points="201.5,-83.83 208.24,-75.65 197.87,-77.85 201.5,-83.83"/>
</g>
<!-- Node11&#45;&gt;Node7 -->
<g id="edge13" class="edge">
<title>Node11&#45;&gt;Node7</title>
<path fill="none" stroke="midnightblue" d="M125.33,-56.08C125.2,-49.01 125.02,-38.86 124.85,-29.99"/>
<polygon fill="midnightblue" stroke="midnightblue" points="128.35,-29.68 124.66,-19.75 121.35,-29.81 128.35,-29.68"/>
</g>
<!-- Node12 -->
<g id="node12" class="node">
<title>Node12</title>
<g id="a_node12"><a xlink:title=" ">
<polygon fill="white" stroke="#bfbfbf" points="250,-0.5 250,-19.5 309,-19.5 309,-0.5 250,-0.5"/>
<text text-anchor="middle" x="279.5" y="-7.5" font-family="Helvetica,sans-Serif" font-size="10.00">stdexcept</text>
</a>
</g>
</g>
<!-- Node11&#45;&gt;Node12 -->
<g id="edge12" class="edge">
<title>Node11&#45;&gt;Node12</title>
<path fill="none" stroke="midnightblue" d="M149.9,-56.44C175.7,-47.4 216.58,-33.06 245.52,-22.92"/>
<polygon fill="midnightblue" stroke="midnightblue" points="246.93,-26.13 255.21,-19.52 244.62,-19.52 246.93,-26.13"/>
</g>
<!-- Node14&#45;&gt;Node5 -->
<g id="edge17" class="edge">
<title>Node14&#45;&gt;Node5</title>
<path fill="none" stroke="midnightblue" d="M203.9,-336.44C182.51,-327.56 148.82,-313.56 124.48,-303.45"/>
<polygon fill="midnightblue" stroke="midnightblue" points="125.58,-300.12 115,-299.52 122.89,-306.58 125.58,-300.12"/>
</g>
<!-- Node15 -->
<g id="node15" class="node">
<title>Node15</title>
<g id="a_node15"><a xlink:href="_character_8h.html" target="_top" xlink:title="The Character specification and body provides a value object type for character values.">
<polygon fill="white" stroke="black" points="273,-224.5 273,-243.5 340,-243.5 340,-224.5 273,-224.5"/>
<text text-anchor="middle" x="306.5" y="-231.5" font-family="Helvetica,sans-Serif" font-size="10.00">Character.h</text>
</a>
</g>
</g>
<!-- Node14&#45;&gt;Node15 -->
<g id="edge18" class="edge">
<title>Node14&#45;&gt;Node15</title>
<path fill="none" stroke="midnightblue" d="M230.93,-336.37C244.53,-318.14 276.36,-275.43 294.07,-251.68"/>
<polygon fill="midnightblue" stroke="midnightblue" points="296.92,-253.7 300.1,-243.59 291.31,-249.52 296.92,-253.7"/>
</g>
<!-- Node17 -->
<g id="node17" class="node">
<title>Node17</title>
<g id="a_node17"><a xlink:href="_percentage_8h.html" target="_top" xlink:title="The Percentage specification and body provides a simple percentage type.">
<polygon fill="white" stroke="black" points="142.5,-280.5 142.5,-299.5 216.5,-299.5 216.5,-280.5 142.5,-280.5"/>
<text text-anchor="middle" x="179.5" y="-287.5" font-family="Helvetica,sans-Serif" font-size="10.00">Percentage.h</text>
</a>
</g>
</g>
<!-- Node14&#45;&gt;Node17 -->
<g id="edge23" class="edge">
<title>Node14&#45;&gt;Node17</title>
<path fill="none" stroke="midnightblue" d="M217.07,-336.08C210.65,-328.38 201.19,-317.03 193.38,-307.65"/>
<polygon fill="midnightblue" stroke="midnightblue" points="195.88,-305.19 186.79,-299.75 190.51,-309.67 195.88,-305.19"/>
</g>
<!-- Node20 -->
<g id="node20" class="node">
<title>Node20</title>
<g id="a_node20"><a xlink:href="_string_list_8h.html" target="_top" xlink:title="The StringList specification defines lists of string values with zero&#45;based arbitrary indexed access ...">
<polygon fill="white" stroke="black" points="406.5,-224.5 406.5,-243.5 472.5,-243.5 472.5,-224.5 406.5,-224.5"/>
<text text-anchor="middle" x="439.5" y="-231.5" font-family="Helvetica,sans-Serif" font-size="10.00">StringList.h</text>
</a>
</g>
</g>
<!-- Node14&#45;&gt;Node20 -->
<g id="edge30" class="edge">
<title>Node14&#45;&gt;Node20</title>
<path fill="none" stroke="midnightblue" d="M257.03,-341.09C290.39,-335.89 342.72,-324.35 381.5,-300 401.04,-287.73 417.89,-267 428.32,-252.25"/>
<polygon fill="midnightblue" stroke="midnightblue" points="431.49,-253.81 434.21,-243.57 425.7,-249.88 431.49,-253.81"/>
</g>
<!-- Node15&#45;&gt;Node10 -->
<g id="edge19" class="edge">
<title>Node15&#45;&gt;Node10</title>
<path fill="none" stroke="midnightblue" d="M306.61,-224.08C306.92,-197.95 307.85,-121.21 308.28,-85.58"/>
<polygon fill="midnightblue" stroke="midnightblue" points="311.78,-85.61 308.4,-75.57 304.78,-85.53 311.78,-85.61"/>
</g>
<!-- Node16 -->
<g id="node16" class="node">
<title>Node16</title>
<g id="a_node16"><a xlink:href="_byte_8h.html" target="_top" xlink:title="The Byte specification and body provides a value object type for byte values.">
<polygon fill="white" stroke="black" points="328,-168.5 328,-187.5 373,-187.5 373,-168.5 328,-168.5"/>
<text text-anchor="middle" x="350.5" y="-175.5" font-family="Helvetica,sans-Serif" font-size="10.00">Byte.h</text>
</a>
</g>
</g>
<!-- Node15&#45;&gt;Node16 -->
<g id="edge20" class="edge">
<title>Node15&#45;&gt;Node16</title>
<path fill="none" stroke="midnightblue" d="M313.77,-224.08C320.04,-216.38 329.29,-205.03 336.93,-195.65"/>
<polygon fill="midnightblue" stroke="midnightblue" points="339.77,-197.71 343.37,-187.75 334.34,-193.29 339.77,-197.71"/>
</g>
<!-- Node16&#45;&gt;Node9 -->
<g id="edge22" class="edge">
<title>Node16&#45;&gt;Node9</title>
<path fill="none" stroke="midnightblue" d="M327.69,-171.32C290.56,-162.08 216.68,-143.7 171.52,-132.46"/>
<polygon fill="midnightblue" stroke="midnightblue" points="172.34,-129.06 161.79,-130.04 170.65,-135.85 172.34,-129.06"/>
</g>
<!-- Node16&#45;&gt;Node10 -->
<g id="edge21" class="edge">
<title>Node16&#45;&gt;Node10</title>
<path fill="none" stroke="midnightblue" d="M347.2,-168.37C340.37,-150.46 324.51,-108.92 315.35,-84.95"/>
<polygon fill="midnightblue" stroke="midnightblue" points="318.62,-83.69 311.78,-75.59 312.08,-86.18 318.62,-83.69"/>
</g>
<!-- Node18 -->
<g id="node18" class="node">
<title>Node18</title>
<g id="a_node18"><a xlink:href="_real_8h.html" target="_top" xlink:title="The Real specification defines a value object type for real values.">
<polygon fill="white" stroke="black" points="167.5,-224.5 167.5,-243.5 211.5,-243.5 211.5,-224.5 167.5,-224.5"/>
<text text-anchor="middle" x="189.5" y="-231.5" font-family="Helvetica,sans-Serif" font-size="10.00">Real.h</text>
</a>
</g>
</g>
<!-- Node17&#45;&gt;Node18 -->
<g id="edge24" class="edge">
<title>Node17&#45;&gt;Node18</title>
<path fill="none" stroke="midnightblue" d="M181.15,-280.08C182.48,-272.93 184.38,-262.64 186.04,-253.69"/>
<polygon fill="midnightblue" stroke="midnightblue" points="189.5,-254.22 187.88,-243.75 182.62,-252.95 189.5,-254.22"/>
</g>
<!-- Node18&#45;&gt;Node10 -->
<g id="edge25" class="edge">
<title>Node18&#45;&gt;Node10</title>
<path fill="none" stroke="midnightblue" d="M190.62,-224.47C192.62,-211.51 197.64,-186.44 208.5,-168 229.6,-132.18 266.24,-99.76 288.83,-81.78"/>
<polygon fill="midnightblue" stroke="midnightblue" points="291,-84.53 296.73,-75.62 286.69,-79.01 291,-84.53"/>
</g>
<!-- Node19 -->
<g id="node19" class="node">
<title>Node19</title>
<g id="a_node19"><a xlink:href="_integer_8h.html" target="_top" xlink:title="The Integer specification and body provides a value object type for ints.">
<polygon fill="white" stroke="black" points="217.5,-168.5 217.5,-187.5 271.5,-187.5 271.5,-168.5 217.5,-168.5"/>
<text text-anchor="middle" x="244.5" y="-175.5" font-family="Helvetica,sans-Serif" font-size="10.00">Integer.h</text>
</a>
</g>
</g>
<!-- Node18&#45;&gt;Node19 -->
<g id="edge26" class="edge">
<title>Node18&#45;&gt;Node19</title>
<path fill="none" stroke="midnightblue" d="M198.58,-224.08C206.67,-216.14 218.7,-204.34 228.41,-194.8"/>
<polygon fill="midnightblue" stroke="midnightblue" points="230.9,-197.25 235.59,-187.75 226,-192.26 230.9,-197.25"/>
</g>
<!-- Node19&#45;&gt;Node9 -->
<g id="edge29" class="edge">
<title>Node19&#45;&gt;Node9</title>
<path fill="none" stroke="midnightblue" d="M226.67,-168.32C208.78,-159.62 181.02,-146.12 160.45,-136.11"/>
<polygon fill="midnightblue" stroke="midnightblue" points="161.81,-132.88 151.29,-131.65 158.75,-139.18 161.81,-132.88"/>
</g>
<!-- Node19&#45;&gt;Node10 -->
<g id="edge27" class="edge">
<title>Node19&#45;&gt;Node10</title>
<path fill="none" stroke="midnightblue" d="M249.52,-168.37C260.04,-150.3 284.54,-108.18 298.43,-84.31"/>
<polygon fill="midnightblue" stroke="midnightblue" points="301.5,-86 303.5,-75.59 295.45,-82.47 301.5,-86"/>
</g>
<!-- Node19&#45;&gt;Node12 -->
<g id="edge28" class="edge">
<title>Node19&#45;&gt;Node12</title>
<path fill="none" stroke="midnightblue" d="M257.68,-168.37C279.81,-152.98 323.58,-118.36 339.5,-76 342.63,-67.68 343.48,-63.95 339.5,-56 332.77,-42.54 319.89,-32.07 307.79,-24.62"/>
<polygon fill="midnightblue" stroke="midnightblue" points="309.22,-21.41 298.8,-19.52 305.77,-27.5 309.22,-21.41"/>
</g>
<!-- Node21 -->
<g id="node21" class="node">
<title>Node21</title>
<g id="a_node21"><a xlink:title=" ">
<polygon fill="white" stroke="#bfbfbf" points="407,-168.5 407,-187.5 480,-187.5 480,-168.5 407,-168.5"/>
<text text-anchor="middle" x="443.5" y="-175.5" font-family="Helvetica,sans-Serif" font-size="10.00">initializer_list</text>
</a>
</g>
</g>
<!-- Node20&#45;&gt;Node21 -->
<g id="edge31" class="edge">
<title>Node20&#45;&gt;Node21</title>
<path fill="none" stroke="midnightblue" d="M440.16,-224.08C440.68,-217.01 441.44,-206.86 442.09,-197.99"/>
<polygon fill="midnightblue" stroke="midnightblue" points="445.6,-197.98 442.85,-187.75 438.62,-197.47 445.6,-197.98"/>
</g>
<!-- Node22 -->
<g id="node22" class="node">
<title>Node22</title>
<g id="a_node22"><a xlink:title=" ">
<polygon fill="white" stroke="#bfbfbf" points="506.5,-168.5 506.5,-187.5 580.5,-187.5 580.5,-168.5 506.5,-168.5"/>
<text text-anchor="middle" x="543.5" y="-175.5" font-family="Helvetica,sans-Serif" font-size="10.00">GenericList.h</text>
</a>
</g>
</g>
<!-- Node20&#45;&gt;Node22 -->
<g id="edge32" class="edge">
<title>Node20&#45;&gt;Node22</title>
<path fill="none" stroke="midnightblue" d="M456.21,-224.32C472.81,-215.7 498.5,-202.36 517.72,-192.39"/>
<polygon fill="midnightblue" stroke="midnightblue" points="519.57,-195.37 526.83,-187.65 516.34,-189.16 519.57,-195.37"/>
</g>
<!-- Node23&#45;&gt;Node21 -->
<g id="edge34" class="edge">
<title>Node23&#45;&gt;Node21</title>
<path fill="none" stroke="midnightblue" d="M501.48,-392.37C504.1,-365.77 509.35,-283.31 481.5,-224 476.42,-213.17 468.04,-202.84 460.45,-194.82"/>
<polygon fill="midnightblue" stroke="midnightblue" points="462.81,-192.23 453.26,-187.63 457.85,-197.17 462.81,-192.23"/>
</g>
<!-- Node23&#45;&gt;Node22 -->
<g id="edge35" class="edge">
<title>Node23&#45;&gt;Node22</title>
<path fill="none" stroke="midnightblue" d="M506.34,-392.47C512,-383.73 520.33,-369.54 524.5,-356 541.58,-300.49 543.82,-231.1 543.81,-198.12"/>
<polygon fill="midnightblue" stroke="midnightblue" points="547.3,-197.68 543.72,-187.71 540.3,-197.73 547.3,-197.68"/>
</g>
<!-- Node24 -->
<g id="node24" class="node">
<title>Node24</title>
<g id="a_node24"><a xlink:href="_midi_event_8h.html" target="_top" xlink:title="The MidiEvent specification defines a single MIDI event and the MIDI event kind enumeration.">
<polygon fill="white" stroke="black" points="308,-336.5 308,-355.5 375,-355.5 375,-336.5 308,-336.5"/>
<text text-anchor="middle" x="341.5" y="-343.5" font-family="Helvetica,sans-Serif" font-size="10.00">MidiEvent.h</text>
</a>
</g>
</g>
<!-- Node23&#45;&gt;Node24 -->
<g id="edge36" class="edge">
<title>Node23&#45;&gt;Node24</title>
<path fill="none" stroke="midnightblue" d="M475.31,-392.44C448.56,-383.36 406.1,-368.94 376.19,-358.78"/>
<polygon fill="midnightblue" stroke="midnightblue" points="377.17,-355.42 366.58,-355.52 374.92,-362.05 377.17,-355.42"/>
</g>
<!-- Node24&#45;&gt;Node5 -->
<g id="edge37" class="edge">
<title>Node24&#45;&gt;Node5</title>
<path fill="none" stroke="midnightblue" d="M307.97,-337.89C268.76,-329.55 201.65,-315.17 134.61,-300.23"/>
<polygon fill="midnightblue" stroke="midnightblue" points="135.25,-296.78 124.72,-298.02 133.72,-303.61 135.25,-296.78"/>
</g>
<!-- Node24&#45;&gt;Node19 -->
<g id="edge38" class="edge">
<title>Node24&#45;&gt;Node19</title>
<path fill="none" stroke="midnightblue" d="M332.9,-336.38C316.97,-319.9 282.81,-282.17 264.5,-244 257.32,-229.03 251.99,-210.89 248.65,-197.59"/>
<polygon fill="midnightblue" stroke="midnightblue" points="252.02,-196.64 246.31,-187.72 245.21,-198.26 252.02,-196.64"/>
</g>
<!-- Node25 -->
<g id="node25" class="node">
<title>Node25</title>
<g id="a_node25"><a xlink:href="_byte_list_8h.html" target="_top" xlink:title="The ByteList specification defines lists of byte values with zero&#45;based arbitrary indexed access to p...">
<polygon fill="white" stroke="black" points="311,-280.5 311,-299.5 372,-299.5 372,-280.5 311,-280.5"/>
<text text-anchor="middle" x="341.5" y="-287.5" font-family="Helvetica,sans-Serif" font-size="10.00">ByteList.h</text>
</a>
</g>
</g>
<!-- Node24&#45;&gt;Node25 -->
<g id="edge39" class="edge">
<title>Node24&#45;&gt;Node25</title>
<path fill="none" stroke="midnightblue" d="M341.5,-336.08C341.5,-329.01 341.5,-318.86 341.5,-309.99"/>
<polygon fill="midnightblue" stroke="midnightblue" points="345,-309.75 341.5,-299.75 338,-309.75 345,-309.75"/>
</g>
<!-- Node24&#45;&gt;Node26 -->
<g id="edge42" class="edge">
<title>Node24&#45;&gt;Node26</title>
<path fill="none" stroke="midnightblue" d="M359.56,-336.44C378.07,-327.68 407.08,-313.94 428.36,-303.86"/>
<polygon fill="midnightblue" stroke="midnightblue" points="429.98,-306.96 437.52,-299.52 426.99,-300.63 429.98,-306.96"/>
</g>
<!-- Node25&#45;&gt;Node16 -->
<g id="edge40" class="edge">
<title>Node25&#45;&gt;Node16</title>
<path fill="none" stroke="midnightblue" d="M343.45,-280.43C345.39,-271.42 348.27,-256.8 349.5,-244 350.98,-228.53 351.16,-210.9 351.01,-197.91"/>
<polygon fill="midnightblue" stroke="midnightblue" points="354.51,-197.79 350.81,-187.86 347.51,-197.92 354.51,-197.79"/>
</g>
<!-- Node25&#45;&gt;Node20 -->
<g id="edge41" class="edge">
<title>Node25&#45;&gt;Node20</title>
<path fill="none" stroke="midnightblue" d="M357.25,-280.32C372.82,-271.74 396.88,-258.49 414.96,-248.52"/>
<polygon fill="midnightblue" stroke="midnightblue" points="416.72,-251.55 423.79,-243.65 413.35,-245.42 416.72,-251.55"/>
</g>
</g>
</svg>
