<?xml version="1.0" encoding="UTF-8" standalone="no"?>
<!DOCTYPE svg PUBLIC "-//W3C//DTD SVG 1.1//EN"
 "http://www.w3.org/Graphics/SVG/1.1/DTD/svg11.dtd">
<!-- Generated by graphviz version 2.47.1 (20210417.1919)
 -->
<!-- Title: MidiEventConverter.h Pages: 1 -->
<svg width="716pt" height="476pt"
 viewBox="0.00 0.00 715.50 476.00" xmlns="http://www.w3.org/2000/svg" xmlns:xlink="http://www.w3.org/1999/xlink">
<g id="graph0" class="graph" transform="scale(1 1) rotate(0) translate(4 472)">
<title>MidiEventConverter.h</title>
<polygon fill="white" stroke="transparent" points="-4,4 -4,-472 711.5,-472 711.5,4 -4,4"/>
<!-- Node1 -->
<g id="node1" class="node">
<title>Node1</title>
<g id="a_node1"><a xlink:title="The MidiEventConverter specification defines the handling of MIDI events by feeding them to an underl...">
<polygon fill="#bfbfbf" stroke="black" points="391.5,-448.5 391.5,-467.5 498.5,-467.5 498.5,-448.5 391.5,-448.5"/>
<text text-anchor="middle" x="445" y="-455.5" font-family="Helvetica,sans-Serif" font-size="10.00">MidiEventConverter.h</text>
</a>
</g>
</g>
<!-- Node2 -->
<g id="node2" class="node">
<title>Node2</title>
<g id="a_node2"><a xlink:href="_audio_sample_list_vector_8h.html" target="_top" xlink:title="The AudioSampleListVector specification defines the communication buffer structure for the block proc...">
<polygon fill="white" stroke="black" points="381.5,-392.5 381.5,-411.5 508.5,-411.5 508.5,-392.5 381.5,-392.5"/>
<text text-anchor="middle" x="445" y="-399.5" font-family="Helvetica,sans-Serif" font-size="10.00">AudioSampleListVector.h</text>
</a>
</g>
</g>
<!-- Node1&#45;&gt;Node2 -->
<g id="edge1" class="edge">
<title>Node1&#45;&gt;Node2</title>
<path fill="none" stroke="midnightblue" d="M445,-448.08C445,-441.01 445,-430.86 445,-421.99"/>
<polygon fill="midnightblue" stroke="midnightblue" points="448.5,-421.75 445,-411.75 441.5,-421.75 448.5,-421.75"/>
</g>
<!-- Node6 -->
<g id="node6" class="node">
<title>Node6</title>
<g id="a_node6"><a xlink:href="_real_8h.html" target="_top" xlink:title="The Real specification defines a value object type for real values.">
<polygon fill="white" stroke="black" points="503,-224.5 503,-243.5 547,-243.5 547,-224.5 503,-224.5"/>
<text text-anchor="middle" x="525" y="-231.5" font-family="Helvetica,sans-Serif" font-size="10.00">Real.h</text>
</a>
</g>
</g>
<!-- Node1&#45;&gt;Node6 -->
<g id="edge26" class="edge">
<title>Node1&#45;&gt;Node6</title>
<path fill="none" stroke="midnightblue" d="M468.38,-448.43C501.55,-434.78 560.73,-404.58 583,-356 590.16,-340.39 585.76,-298.48 576,-280 569.54,-267.77 558.3,-257.3 548.02,-249.55"/>
<polygon fill="midnightblue" stroke="midnightblue" points="549.92,-246.61 539.73,-243.7 545.88,-252.33 549.92,-246.61"/>
</g>
<!-- Node10 -->
<g id="node10" class="node">
<title>Node10</title>
<g id="a_node10"><a xlink:href="_natural_8h.html" target="_top" xlink:title="The Natural specification and body provides a value object type for naturals (positive integers with ...">
<polygon fill="white" stroke="black" points="305,-112.5 305,-131.5 361,-131.5 361,-112.5 305,-112.5"/>
<text text-anchor="middle" x="333" y="-119.5" font-family="Helvetica,sans-Serif" font-size="10.00">Natural.h</text>
</a>
</g>
</g>
<!-- Node1&#45;&gt;Node10 -->
<g id="edge27" class="edge">
<title>Node1&#45;&gt;Node10</title>
<path fill="none" stroke="midnightblue" d="M418.77,-448.45C382.97,-435.18 320.36,-405.8 295,-356 257.62,-282.6 302.35,-180.85 323.31,-140.5"/>
<polygon fill="midnightblue" stroke="midnightblue" points="326.43,-142.08 328.06,-131.61 320.25,-138.78 326.43,-142.08"/>
</g>
<!-- Node20 -->
<g id="node20" class="node">
<title>Node20</title>
<g id="a_node20"><a xlink:href="_dictionary_8h.html" target="_top" xlink:title="The Dictionary specification defines maps from string keys to string values.">
<polygon fill="white" stroke="black" points="632,-392.5 632,-411.5 700,-411.5 700,-392.5 632,-392.5"/>
<text text-anchor="middle" x="666" y="-399.5" font-family="Helvetica,sans-Serif" font-size="10.00">Dictionary.h</text>
</a>
</g>
</g>
<!-- Node1&#45;&gt;Node20 -->
<g id="edge24" class="edge">
<title>Node1&#45;&gt;Node20</title>
<path fill="none" stroke="midnightblue" d="M480.02,-448.44C518.47,-439.05 580.29,-423.94 621.99,-413.75"/>
<polygon fill="midnightblue" stroke="midnightblue" points="622.99,-417.11 631.87,-411.34 621.33,-410.31 622.99,-417.11"/>
</g>
<!-- Node22 -->
<g id="node22" class="node">
<title>Node22</title>
<g id="a_node22"><a xlink:href="_midi_event_list_8h.html" target="_top" xlink:title="The MidiEventList specification defines lists of MIDI events with zero&#45;based arbitrary indexed access...">
<polygon fill="white" stroke="black" points="148.5,-336.5 148.5,-355.5 231.5,-355.5 231.5,-336.5 148.5,-336.5"/>
<text text-anchor="middle" x="190" y="-343.5" font-family="Helvetica,sans-Serif" font-size="10.00">MidiEventList.h</text>
</a>
</g>
</g>
<!-- Node1&#45;&gt;Node22 -->
<g id="edge28" class="edge">
<title>Node1&#45;&gt;Node22</title>
<path fill="none" stroke="midnightblue" d="M391.25,-450.88C353.4,-444.91 302.46,-433.46 262,-412 238.87,-399.73 217.28,-378.39 203.89,-363.52"/>
<polygon fill="midnightblue" stroke="midnightblue" points="206.21,-360.86 197,-355.63 200.94,-365.46 206.21,-360.86"/>
</g>
<!-- Node3 -->
<g id="node3" class="node">
<title>Node3</title>
<g id="a_node3"><a xlink:href="_audio_sample_list_8h.html" target="_top" xlink:title="The AudioSampleList specification defines lists of audio samples with zero&#45;based arbitrary indexed ac...">
<polygon fill="white" stroke="black" points="476,-336.5 476,-355.5 574,-355.5 574,-336.5 476,-336.5"/>
<text text-anchor="middle" x="525" y="-343.5" font-family="Helvetica,sans-Serif" font-size="10.00">AudioSampleList.h</text>
</a>
</g>
</g>
<!-- Node2&#45;&gt;Node3 -->
<g id="edge2" class="edge">
<title>Node2&#45;&gt;Node3</title>
<path fill="none" stroke="midnightblue" d="M457.85,-392.32C470.22,-383.98 489.13,-371.21 503.74,-361.35"/>
<polygon fill="midnightblue" stroke="midnightblue" points="505.85,-364.15 512.18,-355.65 501.93,-358.35 505.85,-364.15"/>
</g>
<!-- Node19 -->
<g id="node19" class="node">
<title>Node19</title>
<g id="a_node19"><a xlink:href="_audio_sample_list_vector_8cpp-inc.html" target="_top" xlink:title="The AudioSampleListVector body implements the communication buffer structure for the block processing...">
<polygon fill="white" stroke="black" points="304.5,-336.5 304.5,-355.5 457.5,-355.5 457.5,-336.5 304.5,-336.5"/>
<text text-anchor="middle" x="381" y="-343.5" font-family="Helvetica,sans-Serif" font-size="10.00">AudioSampleListVector.cpp&#45;inc</text>
</a>
</g>
</g>
<!-- Node2&#45;&gt;Node19 -->
<g id="edge23" class="edge">
<title>Node2&#45;&gt;Node19</title>
<path fill="none" stroke="midnightblue" d="M434.72,-392.32C425.16,-384.26 410.72,-372.08 399.22,-362.37"/>
<polygon fill="midnightblue" stroke="midnightblue" points="401.37,-359.61 391.47,-355.83 396.86,-364.96 401.37,-359.61"/>
</g>
<!-- Node4 -->
<g id="node4" class="node">
<title>Node4</title>
<g id="a_node4"><a xlink:title=" ">
<polygon fill="white" stroke="#bfbfbf" points="213,-112.5 213,-131.5 287,-131.5 287,-112.5 213,-112.5"/>
<text text-anchor="middle" x="250" y="-119.5" font-family="Helvetica,sans-Serif" font-size="10.00">GenericList.h</text>
</a>
</g>
</g>
<!-- Node3&#45;&gt;Node4 -->
<g id="edge3" class="edge">
<title>Node3&#45;&gt;Node4</title>
<path fill="none" stroke="midnightblue" d="M478.36,-336.41C424.68,-326.19 342.42,-309.32 331,-300 304.74,-278.56 269.9,-182.03 256.05,-141.26"/>
<polygon fill="midnightblue" stroke="midnightblue" points="259.29,-139.92 252.79,-131.56 252.65,-142.15 259.29,-139.92"/>
</g>
<!-- Node5 -->
<g id="node5" class="node">
<title>Node5</title>
<g id="a_node5"><a xlink:href="_audio_sample_8h.html" target="_top" xlink:title="The AudioSample specification and body provides the definition of the audio sample (a real value).">
<polygon fill="white" stroke="black" points="483.5,-280.5 483.5,-299.5 566.5,-299.5 566.5,-280.5 483.5,-280.5"/>
<text text-anchor="middle" x="525" y="-287.5" font-family="Helvetica,sans-Serif" font-size="10.00">AudioSample.h</text>
</a>
</g>
</g>
<!-- Node3&#45;&gt;Node5 -->
<g id="edge4" class="edge">
<title>Node3&#45;&gt;Node5</title>
<path fill="none" stroke="midnightblue" d="M525,-336.08C525,-329.01 525,-318.86 525,-309.99"/>
<polygon fill="midnightblue" stroke="midnightblue" points="528.5,-309.75 525,-299.75 521.5,-309.75 528.5,-309.75"/>
</g>
<!-- Node16 -->
<g id="node16" class="node">
<title>Node16</title>
<g id="a_node16"><a xlink:href="_audio_sample_list_8cpp-inc.html" target="_top" xlink:title="The AudioSampleList body implements a simple list of audio samples (this is the effective code includ...">
<polygon fill="white" stroke="black" points="340.5,-280.5 340.5,-299.5 465.5,-299.5 465.5,-280.5 340.5,-280.5"/>
<text text-anchor="middle" x="403" y="-287.5" font-family="Helvetica,sans-Serif" font-size="10.00">AudioSampleList.cpp&#45;inc</text>
</a>
</g>
</g>
<!-- Node3&#45;&gt;Node16 -->
<g id="edge19" class="edge">
<title>Node3&#45;&gt;Node16</title>
<path fill="none" stroke="midnightblue" d="M505.67,-336.44C485.68,-327.6 454.26,-313.69 431.44,-303.59"/>
<polygon fill="midnightblue" stroke="midnightblue" points="432.8,-300.36 422.24,-299.52 429.97,-306.76 432.8,-300.36"/>
</g>
<!-- Node5&#45;&gt;Node6 -->
<g id="edge5" class="edge">
<title>Node5&#45;&gt;Node6</title>
<path fill="none" stroke="midnightblue" d="M525,-280.08C525,-273.01 525,-262.86 525,-253.99"/>
<polygon fill="midnightblue" stroke="midnightblue" points="528.5,-253.75 525,-243.75 521.5,-253.75 528.5,-253.75"/>
</g>
<!-- Node7 -->
<g id="node7" class="node">
<title>Node7</title>
<g id="a_node7"><a xlink:title=" ">
<polygon fill="white" stroke="#bfbfbf" points="397,-56.5 397,-75.5 441,-75.5 441,-56.5 397,-56.5"/>
<text text-anchor="middle" x="419" y="-63.5" font-family="Helvetica,sans-Serif" font-size="10.00">cmath</text>
</a>
</g>
</g>
<!-- Node6&#45;&gt;Node7 -->
<g id="edge6" class="edge">
<title>Node6&#45;&gt;Node7</title>
<path fill="none" stroke="midnightblue" d="M523.46,-224.14C520.96,-211.2 515.22,-186.63 505,-168 486.39,-134.08 455.17,-101.18 435.9,-82.57"/>
<polygon fill="midnightblue" stroke="midnightblue" points="438.11,-79.85 428.45,-75.51 433.3,-84.93 438.11,-79.85"/>
</g>
<!-- Node8 -->
<g id="node8" class="node">
<title>Node8</title>
<g id="a_node8"><a xlink:href="_integer_8h.html" target="_top" xlink:title="The Integer specification and body provides a value object type for ints.">
<polygon fill="white" stroke="black" points="442,-168.5 442,-187.5 496,-187.5 496,-168.5 442,-168.5"/>
<text text-anchor="middle" x="469" y="-175.5" font-family="Helvetica,sans-Serif" font-size="10.00">Integer.h</text>
</a>
</g>
</g>
<!-- Node6&#45;&gt;Node8 -->
<g id="edge7" class="edge">
<title>Node6&#45;&gt;Node8</title>
<path fill="none" stroke="midnightblue" d="M516,-224.32C507.81,-216.42 495.49,-204.55 485.53,-194.94"/>
<polygon fill="midnightblue" stroke="midnightblue" points="487.79,-192.26 478.16,-187.83 482.93,-197.29 487.79,-192.26"/>
</g>
<!-- Node8&#45;&gt;Node7 -->
<g id="edge8" class="edge">
<title>Node8&#45;&gt;Node7</title>
<path fill="none" stroke="midnightblue" d="M465.08,-168.37C456.93,-150.46 438.06,-108.92 427.16,-84.95"/>
<polygon fill="midnightblue" stroke="midnightblue" points="430.23,-83.25 422.91,-75.59 423.86,-86.14 430.23,-83.25"/>
</g>
<!-- Node9 -->
<g id="node9" class="node">
<title>Node9</title>
<g id="a_node9"><a xlink:title=" ">
<polygon fill="white" stroke="#bfbfbf" points="356.5,-0.5 356.5,-19.5 415.5,-19.5 415.5,-0.5 356.5,-0.5"/>
<text text-anchor="middle" x="386" y="-7.5" font-family="Helvetica,sans-Serif" font-size="10.00">stdexcept</text>
</a>
</g>
</g>
<!-- Node8&#45;&gt;Node9 -->
<g id="edge9" class="edge">
<title>Node8&#45;&gt;Node9</title>
<path fill="none" stroke="midnightblue" d="M469.83,-168.3C471.39,-147.26 472.81,-92.64 450,-56 441.62,-42.55 427.59,-32.01 414.79,-24.52"/>
<polygon fill="midnightblue" stroke="midnightblue" points="416.25,-21.33 405.79,-19.61 412.89,-27.48 416.25,-21.33"/>
</g>
<!-- Node8&#45;&gt;Node10 -->
<g id="edge10" class="edge">
<title>Node8&#45;&gt;Node10</title>
<path fill="none" stroke="midnightblue" d="M447.45,-168.44C424.97,-159.52 389.51,-145.44 364.02,-135.32"/>
<polygon fill="midnightblue" stroke="midnightblue" points="365.03,-131.95 354.45,-131.52 362.45,-138.46 365.03,-131.95"/>
</g>
<!-- Node10&#45;&gt;Node7 -->
<g id="edge11" class="edge">
<title>Node10&#45;&gt;Node7</title>
<path fill="none" stroke="midnightblue" d="M346.82,-112.32C360.23,-103.9 380.82,-90.97 396.59,-81.07"/>
<polygon fill="midnightblue" stroke="midnightblue" points="398.61,-83.94 405.22,-75.65 394.89,-78.01 398.61,-83.94"/>
</g>
<!-- Node11 -->
<g id="node11" class="node">
<title>Node11</title>
<g id="a_node11"><a xlink:href="_assertion_8h.html" target="_top" xlink:title="The Assertion specification defines macros for pre&#45; and postconditions in functions or methods.">
<polygon fill="white" stroke="black" points="203,-56.5 203,-75.5 269,-75.5 269,-56.5 203,-56.5"/>
<text text-anchor="middle" x="236" y="-63.5" font-family="Helvetica,sans-Serif" font-size="10.00">Assertion.h</text>
</a>
</g>
</g>
<!-- Node10&#45;&gt;Node11 -->
<g id="edge12" class="edge">
<title>Node10&#45;&gt;Node11</title>
<path fill="none" stroke="midnightblue" d="M317.42,-112.32C302,-103.74 278.19,-90.49 260.29,-80.52"/>
<polygon fill="midnightblue" stroke="midnightblue" points="261.99,-77.46 251.55,-75.65 258.58,-83.58 261.99,-77.46"/>
</g>
<!-- Node13 -->
<g id="node13" class="node">
<title>Node13</title>
<g id="a_node13"><a xlink:title=" ">
<polygon fill="white" stroke="#bfbfbf" points="287,-56.5 287,-75.5 379,-75.5 379,-56.5 287,-56.5"/>
<text text-anchor="middle" x="333" y="-63.5" font-family="Helvetica,sans-Serif" font-size="10.00">GenericNumber.h</text>
</a>
</g>
</g>
<!-- Node10&#45;&gt;Node13 -->
<g id="edge15" class="edge">
<title>Node10&#45;&gt;Node13</title>
<path fill="none" stroke="midnightblue" d="M333,-112.08C333,-105.01 333,-94.86 333,-85.99"/>
<polygon fill="midnightblue" stroke="midnightblue" points="336.5,-85.75 333,-75.75 329.5,-85.75 336.5,-85.75"/>
</g>
<!-- Node14 -->
<g id="node14" class="node">
<title>Node14</title>
<g id="a_node14"><a xlink:href="_my_string_8h.html" target="_top" xlink:title="The String specification defines a standard string type.">
<polygon fill="white" stroke="black" points="121,-56.5 121,-75.5 185,-75.5 185,-56.5 121,-56.5"/>
<text text-anchor="middle" x="153" y="-63.5" font-family="Helvetica,sans-Serif" font-size="10.00">MyString.h</text>
</a>
</g>
</g>
<!-- Node10&#45;&gt;Node14 -->
<g id="edge16" class="edge">
<title>Node10&#45;&gt;Node14</title>
<path fill="none" stroke="midnightblue" d="M304.88,-112.56C274.28,-103.38 225.19,-88.66 191.13,-78.44"/>
<polygon fill="midnightblue" stroke="midnightblue" points="192.11,-75.08 181.52,-75.56 190.09,-81.78 192.11,-75.08"/>
</g>
<!-- Node11&#45;&gt;Node9 -->
<g id="edge13" class="edge">
<title>Node11&#45;&gt;Node9</title>
<path fill="none" stroke="midnightblue" d="M259.77,-56.44C284.89,-47.4 324.71,-33.06 352.9,-22.92"/>
<polygon fill="midnightblue" stroke="midnightblue" points="354.12,-26.2 362.34,-19.52 351.75,-19.61 354.12,-26.2"/>
</g>
<!-- Node12 -->
<g id="node12" class="node">
<title>Node12</title>
<g id="a_node12"><a xlink:title=" ">
<polygon fill="white" stroke="#bfbfbf" points="214.5,-0.5 214.5,-19.5 255.5,-19.5 255.5,-0.5 214.5,-0.5"/>
<text text-anchor="middle" x="235" y="-7.5" font-family="Helvetica,sans-Serif" font-size="10.00">string</text>
</a>
</g>
</g>
<!-- Node11&#45;&gt;Node12 -->
<g id="edge14" class="edge">
<title>Node11&#45;&gt;Node12</title>
<path fill="none" stroke="midnightblue" d="M235.83,-56.08C235.7,-49.01 235.52,-38.86 235.35,-29.99"/>
<polygon fill="midnightblue" stroke="midnightblue" points="238.85,-29.68 235.16,-19.75 231.85,-29.81 238.85,-29.68"/>
</g>
<!-- Node14&#45;&gt;Node12 -->
<g id="edge17" class="edge">
<title>Node14&#45;&gt;Node12</title>
<path fill="none" stroke="midnightblue" d="M166.17,-56.32C178.85,-47.98 198.23,-35.21 213.21,-25.35"/>
<polygon fill="midnightblue" stroke="midnightblue" points="215.43,-28.08 221.86,-19.65 211.58,-22.23 215.43,-28.08"/>
</g>
<!-- Node15 -->
<g id="node15" class="node">
<title>Node15</title>
<g id="a_node15"><a xlink:href="_global_macros_8h.html" target="_top" xlink:title="The GlobalMacros specification defines simple macros (e.g. for parameter modes).">
<polygon fill="white" stroke="black" points="110.5,-0.5 110.5,-19.5 195.5,-19.5 195.5,-0.5 110.5,-0.5"/>
<text text-anchor="middle" x="153" y="-7.5" font-family="Helvetica,sans-Serif" font-size="10.00">GlobalMacros.h</text>
</a>
</g>
</g>
<!-- Node14&#45;&gt;Node15 -->
<g id="edge18" class="edge">
<title>Node14&#45;&gt;Node15</title>
<path fill="none" stroke="midnightblue" d="M153,-56.08C153,-49.01 153,-38.86 153,-29.99"/>
<polygon fill="midnightblue" stroke="midnightblue" points="156.5,-29.75 153,-19.75 149.5,-29.75 156.5,-29.75"/>
</g>
<!-- Node17 -->
<g id="node17" class="node">
<title>Node17</title>
<g id="a_node17"><a xlink:href="_my_array_8h.html" target="_top" xlink:title="The MyArray specification and body defines a generic array type for stack allocated arrays represente...">
<polygon fill="white" stroke="black" points="370,-224.5 370,-243.5 432,-243.5 432,-224.5 370,-224.5"/>
<text text-anchor="middle" x="401" y="-231.5" font-family="Helvetica,sans-Serif" font-size="10.00">MyArray.h</text>
</a>
</g>
</g>
<!-- Node16&#45;&gt;Node17 -->
<g id="edge20" class="edge">
<title>Node16&#45;&gt;Node17</title>
<path fill="none" stroke="midnightblue" d="M402.67,-280.08C402.41,-273.01 402.03,-262.86 401.7,-253.99"/>
<polygon fill="midnightblue" stroke="midnightblue" points="405.19,-253.61 401.32,-243.75 398.2,-253.87 405.19,-253.61"/>
</g>
<!-- Node17&#45;&gt;Node10 -->
<g id="edge22" class="edge">
<title>Node17&#45;&gt;Node10</title>
<path fill="none" stroke="midnightblue" d="M394.32,-224.24C387.63,-215.31 377.17,-200.98 369,-188 359.14,-172.34 349.03,-153.82 342.04,-140.57"/>
<polygon fill="midnightblue" stroke="midnightblue" points="345.09,-138.84 337.36,-131.59 338.88,-142.08 345.09,-138.84"/>
</g>
<!-- Node18 -->
<g id="node18" class="node">
<title>Node18</title>
<g id="a_node18"><a xlink:title=" ">
<polygon fill="white" stroke="#bfbfbf" points="378,-168.5 378,-187.5 424,-187.5 424,-168.5 378,-168.5"/>
<text text-anchor="middle" x="401" y="-175.5" font-family="Helvetica,sans-Serif" font-size="10.00">cstring</text>
</a>
</g>
</g>
<!-- Node17&#45;&gt;Node18 -->
<g id="edge21" class="edge">
<title>Node17&#45;&gt;Node18</title>
<path fill="none" stroke="midnightblue" d="M401,-224.08C401,-217.01 401,-206.86 401,-197.99"/>
<polygon fill="midnightblue" stroke="midnightblue" points="404.5,-197.75 401,-187.75 397.5,-197.75 404.5,-197.75"/>
</g>
<!-- Node21 -->
<g id="node21" class="node">
<title>Node21</title>
<g id="a_node21"><a xlink:title=" ">
<polygon fill="white" stroke="#bfbfbf" points="630.5,-336.5 630.5,-355.5 707.5,-355.5 707.5,-336.5 630.5,-336.5"/>
<text text-anchor="middle" x="669" y="-343.5" font-family="Helvetica,sans-Serif" font-size="10.00">GenericMap.h</text>
</a>
</g>
</g>
<!-- Node20&#45;&gt;Node21 -->
<g id="edge25" class="edge">
<title>Node20&#45;&gt;Node21</title>
<path fill="none" stroke="midnightblue" d="M666.5,-392.08C666.89,-385.01 667.45,-374.86 667.95,-365.99"/>
<polygon fill="midnightblue" stroke="midnightblue" points="671.45,-365.93 668.51,-355.75 664.46,-365.54 671.45,-365.93"/>
</g>
<!-- Node22&#45;&gt;Node4 -->
<g id="edge30" class="edge">
<title>Node22&#45;&gt;Node4</title>
<path fill="none" stroke="midnightblue" d="M196.1,-336.47C202.06,-327.72 210.96,-313.53 216,-300 236.63,-244.66 245.32,-174.71 248.46,-141.77"/>
<polygon fill="midnightblue" stroke="midnightblue" points="251.96,-142.02 249.36,-131.75 244.98,-141.4 251.96,-142.02"/>
</g>
<!-- Node23 -->
<g id="node23" class="node">
<title>Node23</title>
<g id="a_node23"><a xlink:title=" ">
<polygon fill="white" stroke="#bfbfbf" points="78.5,-112.5 78.5,-131.5 151.5,-131.5 151.5,-112.5 78.5,-112.5"/>
<text text-anchor="middle" x="115" y="-119.5" font-family="Helvetica,sans-Serif" font-size="10.00">initializer_list</text>
</a>
</g>
</g>
<!-- Node22&#45;&gt;Node23 -->
<g id="edge29" class="edge">
<title>Node22&#45;&gt;Node23</title>
<path fill="none" stroke="midnightblue" d="M170.67,-336.31C141.44,-321.95 87.17,-290.19 66,-244 60.23,-231.42 57.3,-193.84 69,-168 74.41,-156.03 84.56,-145.57 93.94,-137.75"/>
<polygon fill="midnightblue" stroke="midnightblue" points="96.12,-140.49 101.86,-131.59 91.82,-134.97 96.12,-140.49"/>
</g>
<!-- Node24 -->
<g id="node24" class="node">
<title>Node24</title>
<g id="a_node24"><a xlink:href="_midi_event_8h.html" target="_top" xlink:title="The MidiEvent specification defines a single MIDI event and the MIDI event kind enumeration.">
<polygon fill="white" stroke="black" points="140.5,-280.5 140.5,-299.5 207.5,-299.5 207.5,-280.5 140.5,-280.5"/>
<text text-anchor="middle" x="174" y="-287.5" font-family="Helvetica,sans-Serif" font-size="10.00">MidiEvent.h</text>
</a>
</g>
</g>
<!-- Node22&#45;&gt;Node24 -->
<g id="edge31" class="edge">
<title>Node22&#45;&gt;Node24</title>
<path fill="none" stroke="midnightblue" d="M187.36,-336.08C185.21,-328.85 182.12,-318.41 179.45,-309.4"/>
<polygon fill="midnightblue" stroke="midnightblue" points="182.79,-308.34 176.59,-299.75 176.08,-310.33 182.79,-308.34"/>
</g>
<!-- Node24&#45;&gt;Node8 -->
<g id="edge34" class="edge">
<title>Node24&#45;&gt;Node8</title>
<path fill="none" stroke="midnightblue" d="M207.58,-287.28C270.99,-283.42 405.23,-272.08 441,-244 455.33,-232.75 462.45,-212.74 465.91,-197.88"/>
<polygon fill="midnightblue" stroke="midnightblue" points="469.4,-198.24 467.9,-187.76 462.53,-196.89 469.4,-198.24"/>
</g>
<!-- Node25 -->
<g id="node25" class="node">
<title>Node25</title>
<g id="a_node25"><a xlink:href="_boolean_8h.html" target="_top" xlink:title="The Boolean specification and body provides a value object type for boolean values.">
<polygon fill="white" stroke="black" points="0,-112.5 0,-131.5 60,-131.5 60,-112.5 0,-112.5"/>
<text text-anchor="middle" x="30" y="-119.5" font-family="Helvetica,sans-Serif" font-size="10.00">Boolean.h</text>
</a>
</g>
</g>
<!-- Node24&#45;&gt;Node25 -->
<g id="edge32" class="edge">
<title>Node24&#45;&gt;Node25</title>
<path fill="none" stroke="midnightblue" d="M140.3,-282.93C116.41,-276.94 85.29,-265.44 66,-244 39.82,-214.9 32.65,-167.52 30.7,-141.52"/>
<polygon fill="midnightblue" stroke="midnightblue" points="34.2,-141.3 30.14,-131.52 27.21,-141.7 34.2,-141.3"/>
</g>
<!-- Node26 -->
<g id="node26" class="node">
<title>Node26</title>
<g id="a_node26"><a xlink:href="_byte_list_8h.html" target="_top" xlink:title="The ByteList specification defines lists of byte values with zero&#45;based arbitrary indexed access to p...">
<polygon fill="white" stroke="black" points="146.5,-224.5 146.5,-243.5 207.5,-243.5 207.5,-224.5 146.5,-224.5"/>
<text text-anchor="middle" x="177" y="-231.5" font-family="Helvetica,sans-Serif" font-size="10.00">ByteList.h</text>
</a>
</g>
</g>
<!-- Node24&#45;&gt;Node26 -->
<g id="edge35" class="edge">
<title>Node24&#45;&gt;Node26</title>
<path fill="none" stroke="midnightblue" d="M174.5,-280.08C174.89,-273.01 175.45,-262.86 175.95,-253.99"/>
<polygon fill="midnightblue" stroke="midnightblue" points="179.45,-253.93 176.51,-243.75 172.46,-253.54 179.45,-253.93"/>
</g>
<!-- Node29 -->
<g id="node29" class="node">
<title>Node29</title>
<g id="a_node29"><a xlink:href="_object_8h.html" target="_top" xlink:title="The Object specification and body provides the root object type.">
<polygon fill="white" stroke="black" points="75.5,-224.5 75.5,-243.5 128.5,-243.5 128.5,-224.5 75.5,-224.5"/>
<text text-anchor="middle" x="102" y="-231.5" font-family="Helvetica,sans-Serif" font-size="10.00">Object.h</text>
</a>
</g>
</g>
<!-- Node24&#45;&gt;Node29 -->
<g id="edge42" class="edge">
<title>Node24&#45;&gt;Node29</title>
<path fill="none" stroke="midnightblue" d="M162.43,-280.32C151.58,-272.18 135.12,-259.84 122.12,-250.09"/>
<polygon fill="midnightblue" stroke="midnightblue" points="123.88,-247.03 113.78,-243.83 119.68,-252.63 123.88,-247.03"/>
</g>
<!-- Node25&#45;&gt;Node14 -->
<g id="edge33" class="edge">
<title>Node25&#45;&gt;Node14</title>
<path fill="none" stroke="midnightblue" d="M49.49,-112.44C69.64,-103.6 101.32,-89.69 124.33,-79.59"/>
<polygon fill="midnightblue" stroke="midnightblue" points="125.85,-82.74 133.6,-75.52 123.04,-76.33 125.85,-82.74"/>
</g>
<!-- Node27 -->
<g id="node27" class="node">
<title>Node27</title>
<g id="a_node27"><a xlink:href="_byte_8h.html" target="_top" xlink:title="The Byte specification and body provides a value object type for byte values.">
<polygon fill="white" stroke="black" points="162.5,-168.5 162.5,-187.5 207.5,-187.5 207.5,-168.5 162.5,-168.5"/>
<text text-anchor="middle" x="185" y="-175.5" font-family="Helvetica,sans-Serif" font-size="10.00">Byte.h</text>
</a>
</g>
</g>
<!-- Node26&#45;&gt;Node27 -->
<g id="edge36" class="edge">
<title>Node26&#45;&gt;Node27</title>
<path fill="none" stroke="midnightblue" d="M178.32,-224.08C179.38,-216.93 180.91,-206.64 182.23,-197.69"/>
<polygon fill="midnightblue" stroke="midnightblue" points="185.7,-198.16 183.7,-187.75 178.78,-197.13 185.7,-198.16"/>
</g>
<!-- Node28 -->
<g id="node28" class="node">
<title>Node28</title>
<g id="a_node28"><a xlink:href="_string_list_8h.html" target="_top" xlink:title="The StringList specification defines lists of string values with zero&#45;based arbitrary indexed access ...">
<polygon fill="white" stroke="black" points="78,-168.5 78,-187.5 144,-187.5 144,-168.5 78,-168.5"/>
<text text-anchor="middle" x="111" y="-175.5" font-family="Helvetica,sans-Serif" font-size="10.00">StringList.h</text>
</a>
</g>
</g>
<!-- Node26&#45;&gt;Node28 -->
<g id="edge39" class="edge">
<title>Node26&#45;&gt;Node28</title>
<path fill="none" stroke="midnightblue" d="M166.4,-224.32C156.54,-216.26 141.65,-204.08 129.78,-194.37"/>
<polygon fill="midnightblue" stroke="midnightblue" points="131.75,-191.46 121.8,-187.83 127.32,-196.88 131.75,-191.46"/>
</g>
<!-- Node27&#45;&gt;Node7 -->
<g id="edge37" class="edge">
<title>Node27&#45;&gt;Node7</title>
<path fill="none" stroke="midnightblue" d="M184.86,-168.38C185.14,-154.38 187.85,-126.74 204,-112 263.26,-57.91 303.91,-92.81 386.92,-75.92"/>
<polygon fill="midnightblue" stroke="midnightblue" points="387.72,-79.33 396.71,-73.73 386.19,-72.5 387.72,-79.33"/>
</g>
<!-- Node27&#45;&gt;Node10 -->
<g id="edge38" class="edge">
<title>Node27&#45;&gt;Node10</title>
<path fill="none" stroke="midnightblue" d="M207.8,-168.68C232.46,-159.68 272,-145.26 300.04,-135.02"/>
<polygon fill="midnightblue" stroke="midnightblue" points="301.24,-138.31 309.44,-131.6 298.85,-131.74 301.24,-138.31"/>
</g>
<!-- Node28&#45;&gt;Node4 -->
<g id="edge41" class="edge">
<title>Node28&#45;&gt;Node4</title>
<path fill="none" stroke="midnightblue" d="M133.02,-168.44C156.1,-159.48 192.56,-145.31 218.64,-135.18"/>
<polygon fill="midnightblue" stroke="midnightblue" points="220.02,-138.4 228.08,-131.52 217.49,-131.88 220.02,-138.4"/>
</g>
<!-- Node28&#45;&gt;Node23 -->
<g id="edge40" class="edge">
<title>Node28&#45;&gt;Node23</title>
<path fill="none" stroke="midnightblue" d="M111.66,-168.08C112.18,-161.01 112.94,-150.86 113.59,-141.99"/>
<polygon fill="midnightblue" stroke="midnightblue" points="117.1,-141.98 114.35,-131.75 110.12,-141.47 117.1,-141.98"/>
</g>
</g>
</svg>
