<?xml version="1.0" encoding="UTF-8" standalone="no"?>
<!DOCTYPE svg PUBLIC "-//W3C//DTD SVG 1.1//EN"
 "http://www.w3.org/Graphics/SVG/1.1/DTD/svg11.dtd">
<!-- Generated by graphviz version 2.47.1 (20210417.1919)
 -->
<!-- Title: MidiEventList.cpp Pages: 1 -->
<svg width="738pt" height="599pt"
 viewBox="0.00 0.00 738.00 599.00" xmlns="http://www.w3.org/2000/svg" xmlns:xlink="http://www.w3.org/1999/xlink">
<g id="graph0" class="graph" transform="scale(1 1) rotate(0) translate(4 595)">
<title>MidiEventList.cpp</title>
<polygon fill="white" stroke="transparent" points="-4,4 -4,-595 734,-595 734,4 -4,4"/>
<!-- Node1 -->
<g id="node1" class="node">
<title>Node1</title>
<g id="a_node1"><a xlink:title="The MIDIEventList body implements sequences of integer values with zero&#45;based arbitrary indexed acces...">
<polygon fill="#bfbfbf" stroke="black" points="270.5,-570.5 270.5,-590.5 371.5,-590.5 371.5,-570.5 270.5,-570.5"/>
<text text-anchor="middle" x="321" y="-577.7" font-family="Helvetica,sans-Serif" font-size="11.00">MidiEventList.cpp</text>
</a>
</g>
</g>
<!-- Node2 -->
<g id="node2" class="node">
<title>Node2</title>
<g id="a_node2"><a xlink:title=" ">
<polygon fill="white" stroke="#bfbfbf" points="10.5,-456.5 10.5,-476.5 63.5,-476.5 63.5,-456.5 10.5,-456.5"/>
<text text-anchor="middle" x="37" y="-463.7" font-family="Helvetica,sans-Serif" font-size="11.00">cstdarg</text>
</a>
</g>
</g>
<!-- Node1&#45;&gt;Node2 -->
<g id="edge1" class="edge">
<title>Node1&#45;&gt;Node2</title>
<path fill="none" stroke="midnightblue" d="M270.18,-575.86C226.05,-571.02 161.48,-559.82 111,-534 87.13,-521.79 64.99,-499.93 51.27,-484.62"/>
<polygon fill="midnightblue" stroke="midnightblue" points="53.75,-482.14 44.55,-476.89 48.47,-486.73 53.75,-482.14"/>
</g>
<!-- Node3 -->
<g id="node3" class="node">
<title>Node3</title>
<g id="a_node3"><a xlink:href="_logging_8h.html" target="_top" xlink:title="The Logging specification defines macros for entry&#45;, exit&#45; and intermediate logging of functions into...">
<polygon fill="white" stroke="black" points="120,-513.5 120,-533.5 184,-533.5 184,-513.5 120,-513.5"/>
<text text-anchor="middle" x="152" y="-520.7" font-family="Helvetica,sans-Serif" font-size="11.00">Logging.h</text>
</a>
</g>
</g>
<!-- Node1&#45;&gt;Node3 -->
<g id="edge2" class="edge">
<title>Node1&#45;&gt;Node3</title>
<path fill="none" stroke="midnightblue" d="M293.09,-570.42C264.75,-561.19 220.7,-546.86 189.36,-536.66"/>
<polygon fill="midnightblue" stroke="midnightblue" points="190.26,-533.27 179.67,-533.5 188.09,-539.93 190.26,-533.27"/>
</g>
<!-- Node23 -->
<g id="node23" class="node">
<title>Node23</title>
<g id="a_node23"><a xlink:href="_midi_event_list_8h.html" target="_top" xlink:title="The MidiEventList specification defines sequences of MIDI events with zero&#45;based arbitrary indexed ac...">
<polygon fill="white" stroke="black" points="408.5,-513.5 408.5,-533.5 497.5,-533.5 497.5,-513.5 408.5,-513.5"/>
<text text-anchor="middle" x="453" y="-520.7" font-family="Helvetica,sans-Serif" font-size="11.00">MidiEventList.h</text>
</a>
</g>
</g>
<!-- Node1&#45;&gt;Node23 -->
<g id="edge35" class="edge">
<title>Node1&#45;&gt;Node23</title>
<path fill="none" stroke="midnightblue" d="M342.8,-570.42C364.29,-561.46 397.37,-547.68 421.68,-537.55"/>
<polygon fill="midnightblue" stroke="midnightblue" points="423.29,-540.67 431.17,-533.6 420.59,-534.21 423.29,-540.67"/>
</g>
<!-- Node27 -->
<g id="node27" class="node">
<title>Node27</title>
<g id="a_node27"><a xlink:href="_object_8h.html" target="_top" xlink:title="The Object specification and body provides the root object type.">
<polygon fill="white" stroke="black" points="672,-399.5 672,-419.5 730,-419.5 730,-399.5 672,-399.5"/>
<text text-anchor="middle" x="701" y="-406.7" font-family="Helvetica,sans-Serif" font-size="11.00">Object.h</text>
</a>
</g>
</g>
<!-- Node1&#45;&gt;Node27 -->
<g id="edge46" class="edge">
<title>Node1&#45;&gt;Node27</title>
<path fill="none" stroke="midnightblue" d="M371.76,-574.64C441.13,-565.74 566.56,-541.39 651,-477 668.15,-463.92 682.3,-443.48 691.12,-428.71"/>
<polygon fill="midnightblue" stroke="midnightblue" points="694.2,-430.38 696.12,-419.96 688.12,-426.91 694.2,-430.38"/>
</g>
<!-- Node3&#45;&gt;Node2 -->
<g id="edge3" class="edge">
<title>Node3&#45;&gt;Node2</title>
<path fill="none" stroke="midnightblue" d="M133.01,-513.42C114.53,-504.58 86.24,-491.05 65.14,-480.96"/>
<polygon fill="midnightblue" stroke="midnightblue" points="66.55,-477.75 56.02,-476.6 63.53,-484.07 66.55,-477.75"/>
</g>
<!-- Node4 -->
<g id="node4" class="node">
<title>Node4</title>
<g id="a_node4"><a xlink:href="_logging_support_8h.html" target="_top" xlink:title="The LoggingSupport specification defines a class for simple entry/exit logging to a file; this loggin...">
<polygon fill="white" stroke="black" points="0,-285.5 0,-305.5 102,-305.5 102,-285.5 0,-285.5"/>
<text text-anchor="middle" x="51" y="-292.7" font-family="Helvetica,sans-Serif" font-size="11.00">LoggingSupport.h</text>
</a>
</g>
</g>
<!-- Node3&#45;&gt;Node4 -->
<g id="edge4" class="edge">
<title>Node3&#45;&gt;Node4</title>
<path fill="none" stroke="midnightblue" d="M147.92,-513.36C132.78,-479.5 79.72,-360.77 59.2,-314.84"/>
<polygon fill="midnightblue" stroke="midnightblue" points="62.3,-313.21 55.02,-305.51 55.91,-316.06 62.3,-313.21"/>
</g>
<!-- Node13 -->
<g id="node13" class="node">
<title>Node13</title>
<g id="a_node13"><a xlink:href="_string_util_8h.html" target="_top" xlink:title="The StringUtil specification defines several string routines not included in the standard C++ library...">
<polygon fill="white" stroke="black" points="152.5,-456.5 152.5,-476.5 221.5,-476.5 221.5,-456.5 152.5,-456.5"/>
<text text-anchor="middle" x="187" y="-463.7" font-family="Helvetica,sans-Serif" font-size="11.00">StringUtil.h</text>
</a>
</g>
</g>
<!-- Node3&#45;&gt;Node13 -->
<g id="edge15" class="edge">
<title>Node3&#45;&gt;Node13</title>
<path fill="none" stroke="midnightblue" d="M157.78,-513.42C162.61,-505.82 169.66,-494.75 175.62,-485.39"/>
<polygon fill="midnightblue" stroke="midnightblue" points="178.68,-487.1 181.09,-476.78 172.77,-483.34 178.68,-487.1"/>
</g>
<!-- Node5 -->
<g id="node5" class="node">
<title>Node5</title>
<g id="a_node5"><a xlink:href="_boolean_8h.html" target="_top" xlink:title="The Boolean specification and body provides a value object type for boolean values.">
<polygon fill="white" stroke="black" points="204.5,-114.5 204.5,-134.5 269.5,-134.5 269.5,-114.5 204.5,-114.5"/>
<text text-anchor="middle" x="237" y="-121.7" font-family="Helvetica,sans-Serif" font-size="11.00">Boolean.h</text>
</a>
</g>
</g>
<!-- Node4&#45;&gt;Node5 -->
<g id="edge5" class="edge">
<title>Node4&#45;&gt;Node5</title>
<path fill="none" stroke="midnightblue" d="M52.01,-285.28C54.99,-262.55 65.79,-203.31 100,-171 113.85,-157.92 159.55,-144.33 194.39,-135.45"/>
<polygon fill="midnightblue" stroke="midnightblue" points="195.5,-138.78 204.35,-132.96 193.8,-131.99 195.5,-138.78"/>
</g>
<!-- Node9 -->
<g id="node9" class="node">
<title>Node9</title>
<g id="a_node9"><a xlink:href="_natural_8h.html" target="_top" xlink:title="The Natural specification and body provides a value object type for naturals (positive integers with ...">
<polygon fill="white" stroke="black" points="158,-228.5 158,-248.5 218,-248.5 218,-228.5 158,-228.5"/>
<text text-anchor="middle" x="188" y="-235.7" font-family="Helvetica,sans-Serif" font-size="11.00">Natural.h</text>
</a>
</g>
</g>
<!-- Node4&#45;&gt;Node9 -->
<g id="edge9" class="edge">
<title>Node4&#45;&gt;Node9</title>
<path fill="none" stroke="midnightblue" d="M73.62,-285.42C96.03,-276.42 130.56,-262.56 155.82,-252.42"/>
<polygon fill="midnightblue" stroke="midnightblue" points="157.37,-255.57 165.34,-248.6 154.76,-249.07 157.37,-255.57"/>
</g>
<!-- Node6 -->
<g id="node6" class="node">
<title>Node6</title>
<g id="a_node6"><a xlink:href="_my_string_8h.html" target="_top" xlink:title="The String specification defines a standard string type.">
<polygon fill="white" stroke="black" points="123,-57.5 123,-77.5 191,-77.5 191,-57.5 123,-57.5"/>
<text text-anchor="middle" x="157" y="-64.7" font-family="Helvetica,sans-Serif" font-size="11.00">MyString.h</text>
</a>
</g>
</g>
<!-- Node5&#45;&gt;Node6 -->
<g id="edge6" class="edge">
<title>Node5&#45;&gt;Node6</title>
<path fill="none" stroke="midnightblue" d="M223.79,-114.42C211.51,-105.98 193.01,-93.26 178.59,-83.34"/>
<polygon fill="midnightblue" stroke="midnightblue" points="180.45,-80.38 170.23,-77.6 176.49,-86.15 180.45,-80.38"/>
</g>
<!-- Node7 -->
<g id="node7" class="node">
<title>Node7</title>
<g id="a_node7"><a xlink:title=" ">
<polygon fill="white" stroke="#bfbfbf" points="92,-0.5 92,-20.5 136,-20.5 136,-0.5 92,-0.5"/>
<text text-anchor="middle" x="114" y="-7.7" font-family="Helvetica,sans-Serif" font-size="11.00">string</text>
</a>
</g>
</g>
<!-- Node6&#45;&gt;Node7 -->
<g id="edge7" class="edge">
<title>Node6&#45;&gt;Node7</title>
<path fill="none" stroke="midnightblue" d="M149.9,-57.42C143.84,-49.66 134.94,-38.29 127.53,-28.8"/>
<polygon fill="midnightblue" stroke="midnightblue" points="130.17,-26.5 121.25,-20.78 124.66,-30.81 130.17,-26.5"/>
</g>
<!-- Node8 -->
<g id="node8" class="node">
<title>Node8</title>
<g id="a_node8"><a xlink:href="_global_macros_8h.html" target="_top" xlink:title="The GlobalMacros specification defines simple macros (e.g. for parameter modes).">
<polygon fill="white" stroke="black" points="154,-0.5 154,-20.5 246,-20.5 246,-0.5 154,-0.5"/>
<text text-anchor="middle" x="200" y="-7.7" font-family="Helvetica,sans-Serif" font-size="11.00">GlobalMacros.h</text>
</a>
</g>
</g>
<!-- Node6&#45;&gt;Node8 -->
<g id="edge8" class="edge">
<title>Node6&#45;&gt;Node8</title>
<path fill="none" stroke="midnightblue" d="M164.1,-57.42C170.16,-49.66 179.06,-38.29 186.47,-28.8"/>
<polygon fill="midnightblue" stroke="midnightblue" points="189.34,-30.81 192.75,-20.78 183.83,-26.5 189.34,-30.81"/>
</g>
<!-- Node9&#45;&gt;Node6 -->
<g id="edge14" class="edge">
<title>Node9&#45;&gt;Node6</title>
<path fill="none" stroke="midnightblue" d="M157.88,-230.61C137.66,-224.25 112.52,-212.57 100,-192 77.73,-155.42 115.63,-108.68 139.61,-84.54"/>
<polygon fill="midnightblue" stroke="midnightblue" points="142.09,-87.02 146.82,-77.54 137.21,-82 142.09,-87.02"/>
</g>
<!-- Node10 -->
<g id="node10" class="node">
<title>Node10</title>
<g id="a_node10"><a xlink:title=" ">
<polygon fill="white" stroke="#bfbfbf" points="269.5,-171.5 269.5,-191.5 316.5,-191.5 316.5,-171.5 269.5,-171.5"/>
<text text-anchor="middle" x="293" y="-178.7" font-family="Helvetica,sans-Serif" font-size="11.00">cmath</text>
</a>
</g>
</g>
<!-- Node9&#45;&gt;Node10 -->
<g id="edge10" class="edge">
<title>Node9&#45;&gt;Node10</title>
<path fill="none" stroke="midnightblue" d="M205.34,-228.42C221.98,-219.7 247.35,-206.41 266.52,-196.37"/>
<polygon fill="midnightblue" stroke="midnightblue" points="268.4,-199.34 275.64,-191.6 265.15,-193.14 268.4,-199.34"/>
</g>
<!-- Node11 -->
<g id="node11" class="node">
<title>Node11</title>
<g id="a_node11"><a xlink:href="_generic_number_8h.html" target="_top" xlink:title="The GenericNumber specification and body defines a template for wrapper objects for elementary numeri...">
<polygon fill="white" stroke="black" points="109.5,-171.5 109.5,-191.5 212.5,-191.5 212.5,-171.5 109.5,-171.5"/>
<text text-anchor="middle" x="161" y="-178.7" font-family="Helvetica,sans-Serif" font-size="11.00">GenericNumber.h</text>
</a>
</g>
</g>
<!-- Node9&#45;&gt;Node11 -->
<g id="edge11" class="edge">
<title>Node9&#45;&gt;Node11</title>
<path fill="none" stroke="midnightblue" d="M183.54,-228.42C179.89,-220.98 174.6,-210.21 170.07,-200.97"/>
<polygon fill="midnightblue" stroke="midnightblue" points="173.1,-199.21 165.56,-191.78 166.82,-202.3 173.1,-199.21"/>
</g>
<!-- Node11&#45;&gt;Node5 -->
<g id="edge13" class="edge">
<title>Node11&#45;&gt;Node5</title>
<path fill="none" stroke="midnightblue" d="M173.55,-171.42C185.1,-163.06 202.46,-150.5 216.1,-140.62"/>
<polygon fill="midnightblue" stroke="midnightblue" points="218.38,-143.29 224.43,-134.6 214.28,-137.62 218.38,-143.29"/>
</g>
<!-- Node12 -->
<g id="node12" class="node">
<title>Node12</title>
<g id="a_node12"><a xlink:title=" ">
<polygon fill="white" stroke="#bfbfbf" points="140,-114.5 140,-134.5 182,-134.5 182,-114.5 140,-114.5"/>
<text text-anchor="middle" x="161" y="-121.7" font-family="Helvetica,sans-Serif" font-size="11.00">limits</text>
</a>
</g>
</g>
<!-- Node11&#45;&gt;Node12 -->
<g id="edge12" class="edge">
<title>Node11&#45;&gt;Node12</title>
<path fill="none" stroke="midnightblue" d="M161,-171.42C161,-164.22 161,-153.9 161,-144.86"/>
<polygon fill="midnightblue" stroke="midnightblue" points="164.5,-144.78 161,-134.78 157.5,-144.78 164.5,-144.78"/>
</g>
<!-- Node13&#45;&gt;Node5 -->
<g id="edge16" class="edge">
<title>Node13&#45;&gt;Node5</title>
<path fill="none" stroke="midnightblue" d="M178.59,-456.42C162.73,-438.32 130,-395.83 130,-353.5 130,-353.5 130,-353.5 130,-294.5 130,-263.76 129.3,-251.6 149,-228 172.18,-200.23 199.61,-220.42 222,-192 232.52,-178.65 235.96,-159.35 236.95,-144.98"/>
<polygon fill="midnightblue" stroke="midnightblue" points="240.45,-144.83 237.31,-134.72 233.46,-144.59 240.45,-144.83"/>
</g>
<!-- Node14 -->
<g id="node14" class="node">
<title>Node14</title>
<g id="a_node14"><a xlink:href="_byte_8h.html" target="_top" xlink:title="The Byte specification and body provides a value object type for byte values.">
<polygon fill="white" stroke="black" points="158.5,-285.5 158.5,-305.5 205.5,-305.5 205.5,-285.5 158.5,-285.5"/>
<text text-anchor="middle" x="182" y="-292.7" font-family="Helvetica,sans-Serif" font-size="11.00">Byte.h</text>
</a>
</g>
</g>
<!-- Node13&#45;&gt;Node14 -->
<g id="edge17" class="edge">
<title>Node13&#45;&gt;Node14</title>
<path fill="none" stroke="midnightblue" d="M186.73,-456.41C185.95,-429.94 183.65,-352.42 182.57,-315.92"/>
<polygon fill="midnightblue" stroke="midnightblue" points="186.06,-315.52 182.27,-305.63 179.07,-315.73 186.06,-315.52"/>
</g>
<!-- Node15 -->
<g id="node15" class="node">
<title>Node15</title>
<g id="a_node15"><a xlink:href="_character_8h.html" target="_top" xlink:title="The Character specification and body provides a value object type for character values.">
<polygon fill="white" stroke="black" points="224,-285.5 224,-305.5 298,-305.5 298,-285.5 224,-285.5"/>
<text text-anchor="middle" x="261" y="-292.7" font-family="Helvetica,sans-Serif" font-size="11.00">Character.h</text>
</a>
</g>
</g>
<!-- Node13&#45;&gt;Node15 -->
<g id="edge20" class="edge">
<title>Node13&#45;&gt;Node15</title>
<path fill="none" stroke="midnightblue" d="M190.98,-456.41C202.67,-429.71 237.11,-351.07 252.91,-314.98"/>
<polygon fill="midnightblue" stroke="midnightblue" points="256.2,-316.2 257,-305.63 249.78,-313.39 256.2,-316.2"/>
</g>
<!-- Node16 -->
<g id="node16" class="node">
<title>Node16</title>
<g id="a_node16"><a xlink:href="_percentage_8h.html" target="_top" xlink:title="The Percentage specification and body provides a simple percentage type.">
<polygon fill="white" stroke="black" points="234,-399.5 234,-419.5 316,-419.5 316,-399.5 234,-399.5"/>
<text text-anchor="middle" x="275" y="-406.7" font-family="Helvetica,sans-Serif" font-size="11.00">Percentage.h</text>
</a>
</g>
</g>
<!-- Node13&#45;&gt;Node16 -->
<g id="edge23" class="edge">
<title>Node13&#45;&gt;Node16</title>
<path fill="none" stroke="midnightblue" d="M201.53,-456.42C215.16,-447.9 235.77,-435.02 251.7,-425.06"/>
<polygon fill="midnightblue" stroke="midnightblue" points="253.82,-427.86 260.45,-419.6 250.11,-421.93 253.82,-427.86"/>
</g>
<!-- Node20 -->
<g id="node20" class="node">
<title>Node20</title>
<g id="a_node20"><a xlink:href="_string_list_8h.html" target="_top" xlink:title="The StringList specification defines sequences of string values with zero&#45;based arbitrary indexed acc...">
<polygon fill="white" stroke="black" points="334.5,-399.5 334.5,-419.5 405.5,-419.5 405.5,-399.5 334.5,-399.5"/>
<text text-anchor="middle" x="370" y="-406.7" font-family="Helvetica,sans-Serif" font-size="11.00">StringList.h</text>
</a>
</g>
</g>
<!-- Node13&#45;&gt;Node20 -->
<g id="edge30" class="edge">
<title>Node13&#45;&gt;Node20</title>
<path fill="none" stroke="midnightblue" d="M217.22,-456.42C248.17,-447.12 296.44,-432.61 330.42,-422.39"/>
<polygon fill="midnightblue" stroke="midnightblue" points="331.47,-425.73 340.04,-419.5 329.46,-419.03 331.47,-425.73"/>
</g>
<!-- Node14&#45;&gt;Node9 -->
<g id="edge19" class="edge">
<title>Node14&#45;&gt;Node9</title>
<path fill="none" stroke="midnightblue" d="M182.99,-285.42C183.78,-278.22 184.9,-267.9 185.89,-258.86"/>
<polygon fill="midnightblue" stroke="midnightblue" points="189.38,-259.1 186.99,-248.78 182.42,-258.34 189.38,-259.1"/>
</g>
<!-- Node14&#45;&gt;Node10 -->
<g id="edge18" class="edge">
<title>Node14&#45;&gt;Node10</title>
<path fill="none" stroke="midnightblue" d="M191.08,-285.33C209.78,-266.47 252.82,-223.05 276.55,-199.1"/>
<polygon fill="midnightblue" stroke="midnightblue" points="279.24,-201.36 283.79,-191.79 274.27,-196.43 279.24,-201.36"/>
</g>
<!-- Node15&#45;&gt;Node9 -->
<g id="edge22" class="edge">
<title>Node15&#45;&gt;Node9</title>
<path fill="none" stroke="midnightblue" d="M248.95,-285.42C237.92,-277.11 221.38,-264.65 208.31,-254.8"/>
<polygon fill="midnightblue" stroke="midnightblue" points="210.41,-252 200.32,-248.78 206.2,-257.59 210.41,-252"/>
</g>
<!-- Node15&#45;&gt;Node10 -->
<g id="edge21" class="edge">
<title>Node15&#45;&gt;Node10</title>
<path fill="none" stroke="midnightblue" d="M263.62,-285.33C268.82,-267.12 280.56,-226.04 287.52,-201.67"/>
<polygon fill="midnightblue" stroke="midnightblue" points="290.96,-202.37 290.35,-191.79 284.23,-200.45 290.96,-202.37"/>
</g>
<!-- Node17 -->
<g id="node17" class="node">
<title>Node17</title>
<g id="a_node17"><a xlink:href="_real_8h.html" target="_top" xlink:title="The Real specification defines a value object type for real values.">
<polygon fill="white" stroke="black" points="302,-342.5 302,-362.5 350,-362.5 350,-342.5 302,-342.5"/>
<text text-anchor="middle" x="326" y="-349.7" font-family="Helvetica,sans-Serif" font-size="11.00">Real.h</text>
</a>
</g>
</g>
<!-- Node16&#45;&gt;Node17 -->
<g id="edge24" class="edge">
<title>Node16&#45;&gt;Node17</title>
<path fill="none" stroke="midnightblue" d="M283.42,-399.42C290.76,-391.5 301.59,-379.82 310.49,-370.23"/>
<polygon fill="midnightblue" stroke="midnightblue" points="313.16,-372.49 317.4,-362.78 308.03,-367.73 313.16,-372.49"/>
</g>
<!-- Node17&#45;&gt;Node10 -->
<g id="edge25" class="edge">
<title>Node17&#45;&gt;Node10</title>
<path fill="none" stroke="midnightblue" d="M324.23,-342.41C319.03,-315.82 303.79,-237.74 296.7,-201.45"/>
<polygon fill="midnightblue" stroke="midnightblue" points="300.13,-200.77 294.78,-191.63 293.26,-202.12 300.13,-200.77"/>
</g>
<!-- Node18 -->
<g id="node18" class="node">
<title>Node18</title>
<g id="a_node18"><a xlink:href="_integer_8h.html" target="_top" xlink:title="The Integer specification and body provides a value object type for ints.">
<polygon fill="white" stroke="black" points="372.5,-285.5 372.5,-305.5 431.5,-305.5 431.5,-285.5 372.5,-285.5"/>
<text text-anchor="middle" x="402" y="-292.7" font-family="Helvetica,sans-Serif" font-size="11.00">Integer.h</text>
</a>
</g>
</g>
<!-- Node17&#45;&gt;Node18 -->
<g id="edge26" class="edge">
<title>Node17&#45;&gt;Node18</title>
<path fill="none" stroke="midnightblue" d="M338.55,-342.42C350.1,-334.06 367.46,-321.5 381.1,-311.62"/>
<polygon fill="midnightblue" stroke="midnightblue" points="383.38,-314.29 389.43,-305.6 379.28,-308.62 383.38,-314.29"/>
</g>
<!-- Node18&#45;&gt;Node9 -->
<g id="edge29" class="edge">
<title>Node18&#45;&gt;Node9</title>
<path fill="none" stroke="midnightblue" d="M372.24,-286.85C334.69,-277.2 269.94,-260.56 228.06,-249.8"/>
<polygon fill="midnightblue" stroke="midnightblue" points="228.75,-246.36 218.19,-247.26 227.01,-253.14 228.75,-246.36"/>
</g>
<!-- Node18&#45;&gt;Node10 -->
<g id="edge27" class="edge">
<title>Node18&#45;&gt;Node10</title>
<path fill="none" stroke="midnightblue" d="M393.08,-285.33C374.72,-266.47 332.46,-223.05 309.16,-199.1"/>
<polygon fill="midnightblue" stroke="midnightblue" points="311.53,-196.52 302.04,-191.79 306.51,-201.4 311.53,-196.52"/>
</g>
<!-- Node19 -->
<g id="node19" class="node">
<title>Node19</title>
<g id="a_node19"><a xlink:title=" ">
<polygon fill="white" stroke="#bfbfbf" points="388,-228.5 388,-248.5 452,-248.5 452,-228.5 388,-228.5"/>
<text text-anchor="middle" x="420" y="-235.7" font-family="Helvetica,sans-Serif" font-size="11.00">stdexcept</text>
</a>
</g>
</g>
<!-- Node18&#45;&gt;Node19 -->
<g id="edge28" class="edge">
<title>Node18&#45;&gt;Node19</title>
<path fill="none" stroke="midnightblue" d="M404.97,-285.42C407.36,-278.14 410.78,-267.67 413.76,-258.57"/>
<polygon fill="midnightblue" stroke="midnightblue" points="417.18,-259.37 416.96,-248.78 410.53,-257.19 417.18,-259.37"/>
</g>
<!-- Node21 -->
<g id="node21" class="node">
<title>Node21</title>
<g id="a_node21"><a xlink:href="_generic_sequence_8h.html" target="_top" xlink:title="The GenericSequence specification and body defines a generic sequence type of values with zero&#45;based ...">
<polygon fill="white" stroke="black" points="368.5,-342.5 368.5,-362.5 481.5,-362.5 481.5,-342.5 368.5,-342.5"/>
<text text-anchor="middle" x="425" y="-349.7" font-family="Helvetica,sans-Serif" font-size="11.00">GenericSequence.h</text>
</a>
</g>
</g>
<!-- Node20&#45;&gt;Node21 -->
<g id="edge31" class="edge">
<title>Node20&#45;&gt;Node21</title>
<path fill="none" stroke="midnightblue" d="M379.08,-399.42C387.08,-391.42 398.91,-379.59 408.56,-369.94"/>
<polygon fill="midnightblue" stroke="midnightblue" points="411.12,-372.33 415.72,-362.78 406.17,-367.38 411.12,-372.33"/>
</g>
<!-- Node21&#45;&gt;Node5 -->
<g id="edge33" class="edge">
<title>Node21&#45;&gt;Node5</title>
<path fill="none" stroke="midnightblue" d="M432.38,-342.4C448.87,-320.91 485.38,-265.96 461,-228 421.03,-165.75 332.81,-140.83 279.79,-131.21"/>
<polygon fill="midnightblue" stroke="midnightblue" points="280.13,-127.72 269.68,-129.48 278.95,-134.62 280.13,-127.72"/>
</g>
<!-- Node21&#45;&gt;Node18 -->
<g id="edge34" class="edge">
<title>Node21&#45;&gt;Node18</title>
<path fill="none" stroke="midnightblue" d="M421.2,-342.42C418.12,-335.06 413.68,-324.44 409.85,-315.27"/>
<polygon fill="midnightblue" stroke="midnightblue" points="412.97,-313.65 405.88,-305.78 406.51,-316.36 412.97,-313.65"/>
</g>
<!-- Node22 -->
<g id="node22" class="node">
<title>Node22</title>
<g id="a_node22"><a xlink:title=" ">
<polygon fill="white" stroke="#bfbfbf" points="508.5,-285.5 508.5,-305.5 555.5,-305.5 555.5,-285.5 508.5,-285.5"/>
<text text-anchor="middle" x="532" y="-292.7" font-family="Helvetica,sans-Serif" font-size="11.00">vector</text>
</a>
</g>
</g>
<!-- Node21&#45;&gt;Node22 -->
<g id="edge32" class="edge">
<title>Node21&#45;&gt;Node22</title>
<path fill="none" stroke="midnightblue" d="M442.67,-342.42C459.71,-333.66 485.72,-320.29 505.28,-310.23"/>
<polygon fill="midnightblue" stroke="midnightblue" points="507.01,-313.28 514.3,-305.6 503.81,-307.05 507.01,-313.28"/>
</g>
<!-- Node23&#45;&gt;Node21 -->
<g id="edge37" class="edge">
<title>Node23&#45;&gt;Node21</title>
<path fill="none" stroke="midnightblue" d="M451.49,-513.41C447.11,-486.94 434.26,-409.42 428.22,-372.92"/>
<polygon fill="midnightblue" stroke="midnightblue" points="431.6,-371.92 426.51,-362.63 424.69,-373.07 431.6,-371.92"/>
</g>
<!-- Node24 -->
<g id="node24" class="node">
<title>Node24</title>
<g id="a_node24"><a xlink:title=" ">
<polygon fill="white" stroke="#bfbfbf" points="500,-342.5 500,-362.5 578,-362.5 578,-342.5 500,-342.5"/>
<text text-anchor="middle" x="539" y="-349.7" font-family="Helvetica,sans-Serif" font-size="11.00">initializer_list</text>
</a>
</g>
</g>
<!-- Node23&#45;&gt;Node24 -->
<g id="edge36" class="edge">
<title>Node23&#45;&gt;Node24</title>
<path fill="none" stroke="midnightblue" d="M454.29,-513.49C457.64,-492.19 468.12,-437.63 492,-399 499.02,-387.64 509.51,-377.12 518.79,-369.06"/>
<polygon fill="midnightblue" stroke="midnightblue" points="521.06,-371.73 526.53,-362.66 516.59,-366.34 521.06,-371.73"/>
</g>
<!-- Node25 -->
<g id="node25" class="node">
<title>Node25</title>
<g id="a_node25"><a xlink:href="_midi_event_8h.html" target="_top" xlink:title="The MidiEvent specification defines a single MIDI event and the MIDI event kind enumeration.">
<polygon fill="white" stroke="black" points="570,-456.5 570,-476.5 642,-476.5 642,-456.5 570,-456.5"/>
<text text-anchor="middle" x="606" y="-463.7" font-family="Helvetica,sans-Serif" font-size="11.00">MidiEvent.h</text>
</a>
</g>
</g>
<!-- Node23&#45;&gt;Node25 -->
<g id="edge38" class="edge">
<title>Node23&#45;&gt;Node25</title>
<path fill="none" stroke="midnightblue" d="M478.26,-513.42C503.7,-504.27 543.12,-490.1 571.44,-479.92"/>
<polygon fill="midnightblue" stroke="midnightblue" points="572.73,-483.18 580.95,-476.5 570.36,-476.59 572.73,-483.18"/>
</g>
<!-- Node25&#45;&gt;Node5 -->
<g id="edge39" class="edge">
<title>Node25&#45;&gt;Node5</title>
<path fill="none" stroke="midnightblue" d="M606,-456.5C606,-437.48 606,-391.81 606,-353.5 606,-353.5 606,-353.5 606,-237.5 606,-170 377.04,-139.35 279.83,-129.37"/>
<polygon fill="midnightblue" stroke="midnightblue" points="280.04,-125.88 269.75,-128.36 279.35,-132.84 280.04,-125.88"/>
</g>
<!-- Node25&#45;&gt;Node18 -->
<g id="edge40" class="edge">
<title>Node25&#45;&gt;Node18</title>
<path fill="none" stroke="midnightblue" d="M607.66,-456.32C611.2,-433.69 616.88,-374.65 587,-342 567.7,-320.92 490.15,-307.56 441.79,-301.11"/>
<polygon fill="midnightblue" stroke="midnightblue" points="442.02,-297.61 431.65,-299.8 441.12,-304.55 442.02,-297.61"/>
</g>
<!-- Node26 -->
<g id="node26" class="node">
<title>Node26</title>
<g id="a_node26"><a xlink:href="_natural_list_8h.html" target="_top" xlink:title="The NaturalList specification defines sequences of non&#45;negative integer values with zero&#45;based arbitr...">
<polygon fill="white" stroke="black" points="500.5,-399.5 500.5,-419.5 577.5,-419.5 577.5,-399.5 500.5,-399.5"/>
<text text-anchor="middle" x="539" y="-406.7" font-family="Helvetica,sans-Serif" font-size="11.00">NaturalList.h</text>
</a>
</g>
</g>
<!-- Node25&#45;&gt;Node26 -->
<g id="edge41" class="edge">
<title>Node25&#45;&gt;Node26</title>
<path fill="none" stroke="midnightblue" d="M594.94,-456.42C585.01,-448.27 570.21,-436.12 558.33,-426.37"/>
<polygon fill="midnightblue" stroke="midnightblue" points="560.25,-423.42 550.3,-419.78 555.81,-428.83 560.25,-423.42"/>
</g>
<!-- Node25&#45;&gt;Node27 -->
<g id="edge44" class="edge">
<title>Node25&#45;&gt;Node27</title>
<path fill="none" stroke="midnightblue" d="M621.69,-456.42C636.54,-447.82 659.07,-434.78 676.33,-424.78"/>
<polygon fill="midnightblue" stroke="midnightblue" points="678.39,-427.64 685.29,-419.6 674.88,-421.58 678.39,-427.64"/>
</g>
<!-- Node26&#45;&gt;Node21 -->
<g id="edge43" class="edge">
<title>Node26&#45;&gt;Node21</title>
<path fill="none" stroke="midnightblue" d="M520.18,-399.42C501.86,-390.58 473.81,-377.05 452.9,-366.96"/>
<polygon fill="midnightblue" stroke="midnightblue" points="454.38,-363.79 443.85,-362.6 451.34,-370.09 454.38,-363.79"/>
</g>
<!-- Node26&#45;&gt;Node24 -->
<g id="edge42" class="edge">
<title>Node26&#45;&gt;Node24</title>
<path fill="none" stroke="midnightblue" d="M539,-399.42C539,-392.22 539,-381.9 539,-372.86"/>
<polygon fill="midnightblue" stroke="midnightblue" points="542.5,-372.78 539,-362.78 535.5,-372.78 542.5,-372.78"/>
</g>
<!-- Node28 -->
<g id="node28" class="node">
<title>Node28</title>
<g id="a_node28"><a xlink:title=" ">
<polygon fill="white" stroke="#bfbfbf" points="685,-342.5 685,-362.5 717,-362.5 717,-342.5 685,-342.5"/>
<text text-anchor="middle" x="701" y="-349.7" font-family="Helvetica,sans-Serif" font-size="11.00">set</text>
</a>
</g>
</g>
<!-- Node27&#45;&gt;Node28 -->
<g id="edge45" class="edge">
<title>Node27&#45;&gt;Node28</title>
<path fill="none" stroke="midnightblue" d="M701,-399.42C701,-392.22 701,-381.9 701,-372.86"/>
<polygon fill="midnightblue" stroke="midnightblue" points="704.5,-372.78 701,-362.78 697.5,-372.78 704.5,-372.78"/>
</g>
</g>
</svg>
