<?xml version="1.0" encoding="UTF-8" standalone="no"?>
<!DOCTYPE svg PUBLIC "-//W3C//DTD SVG 1.1//EN"
 "http://www.w3.org/Graphics/SVG/1.1/DTD/svg11.dtd">
<!-- Generated by graphviz version 2.47.1 (20210417.1919)
 -->
<!-- Title: MidiEventConverter.cpp Pages: 1 -->
<!--zoomable 588 -->
<svg id="main" version="1.1" xmlns="http://www.w3.org/2000/svg" xmlns:xlink="http://www.w3.org/1999/xlink" xml:space="preserve" onload="init(evt)">
<style type="text/css"><![CDATA[
.edge:hover path { stroke: red; }
.edge:hover polygon { stroke: red; fill: red; }
]]></style>
<script type="text/javascript"><![CDATA[
var edges = document.getElementsByTagName('g');
if (edges && edges.length) {
  for (var i=0;i<edges.length;i++) {
    if (edges[i].id.substr(0,4)=='edge') {
      edges[i].setAttribute('class','edge');
    }
  }
}
]]></script>
        <defs>
                <circle id="rim" cx="0" cy="0" r="7"/>
                <circle id="rim2" cx="0" cy="0" r="3.5"/>
                <g id="zoomPlus">
                        <use xlink:href="#rim" fill="#404040">
                                <set attributeName="fill" to="#808080" begin="zoomplus.mouseover" end="zoomplus.mouseout"/>
                        </use>
                        <path d="M-4,0h8M0,-4v8" fill="none" stroke="white" stroke-width="1.5" pointer-events="none"/>
                </g>
                <g id="zoomMin">
                        <use xlink:href="#rim" fill="#404040">
                                <set attributeName="fill" to="#808080" begin="zoomminus.mouseover" end="zoomminus.mouseout"/>
                        </use>
                        <path d="M-4,0h8" fill="none" stroke="white" stroke-width="1.5" pointer-events="none"/>
                </g>
                <g id="dirArrow">
                        <path fill="none" stroke="white" stroke-width="1.5" d="M0,-3.0v7 M-2.5,-0.5L0,-3.0L2.5,-0.5"/>
                </g>
               <g id="resetDef">
                       <use xlink:href="#rim2" fill="#404040">
                               <set attributeName="fill" to="#808080" begin="reset.mouseover" end="reset.mouseout"/>
                       </use>
               </g>
        </defs>

<script type="text/javascript">
var viewWidth = 1363;
var viewHeight = 588;
var sectionId = 'dynsection-0';
</script>
<script xlink:href="svgpan.js"/>
<svg id="graph" class="graph">
<g id="viewport">
<title>MidiEventConverter.cpp</title>
<polygon fill="white" stroke="transparent" points="-4,4 -4,-584 1358.53,-584 1358.53,4 -4,4"/>
<!-- Node1 -->
<g id="node1" class="node">
<title>Node1</title>
<g id="a_node1"><a xlink:title="The MidiEventConverter module implements the handling of MIDI events by feeding them to an underlying...">
<polygon fill="#bfbfbf" stroke="black" points="391,-560.5 391,-579.5 509,-579.5 509,-560.5 391,-560.5"/>
<text text-anchor="middle" x="450" y="-567.5" font-family="Helvetica,sans-Serif" font-size="10.00">MidiEventConverter.cpp</text>
</a>
</g>
</g>
<!-- Node2 -->
<g id="node2" class="node">
<title>Node2</title>
<g id="a_node2"><a xlink:href="_logging_8h.html" target="_top" xlink:title="The Logging specification defines macros for entry&#45;, exit&#45; and intermediate logging of functions into...">
<polygon fill="white" stroke="black" points="163.5,-392.5 163.5,-411.5 222.5,-411.5 222.5,-392.5 163.5,-392.5"/>
<text text-anchor="middle" x="193" y="-399.5" font-family="Helvetica,sans-Serif" font-size="10.00">Logging.h</text>
</a>
</g>
</g>
<!-- Node1&#45;&gt;Node2 -->
<g id="edge1" class="edge">
<title>Node1&#45;&gt;Node2</title>
<path fill="none" stroke="midnightblue" d="M390.95,-560.52C360.18,-554.07 323.04,-542.94 294,-524 252.14,-496.69 218.59,-446.75 202.81,-420.38"/>
<polygon fill="midnightblue" stroke="midnightblue" points="205.71,-418.4 197.65,-411.52 199.66,-421.92 205.71,-418.4"/>
</g>
<!-- Node24 -->
<g id="node24" class="node">
<title>Node24</title>
<g id="a_node24"><a xlink:href="_fluid_synth_sound_font_8h.html" target="_top" xlink:title="The FluidSynthSoundFont class specifies an object&#45;oriented wrapper around an underlying fluidsynth so...">
<polygon fill="white" stroke="black" points="813.5,-504.5 813.5,-523.5 932.5,-523.5 932.5,-504.5 813.5,-504.5"/>
<text text-anchor="middle" x="873" y="-511.5" font-family="Helvetica,sans-Serif" font-size="10.00">FluidSynthSoundFont.h</text>
</a>
</g>
</g>
<!-- Node1&#45;&gt;Node24 -->
<g id="edge32" class="edge">
<title>Node1&#45;&gt;Node24</title>
<path fill="none" stroke="midnightblue" d="M509.26,-561.43C586.53,-551.57 721.47,-534.34 803.48,-523.87"/>
<polygon fill="midnightblue" stroke="midnightblue" points="803.98,-527.34 813.46,-522.6 803.09,-520.4 803.98,-527.34"/>
</g>
<!-- Node36 -->
<g id="node36" class="node">
<title>Node36</title>
<g id="a_node36"><a xlink:href="_midi_event_converter_8h.html" target="_top" xlink:title="The MidiEventConverter specification defines the handling of MIDI events by feeding them to an underl...">
<polygon fill="white" stroke="black" points="606.5,-448.5 606.5,-467.5 713.5,-467.5 713.5,-448.5 606.5,-448.5"/>
<text text-anchor="middle" x="660" y="-455.5" font-family="Helvetica,sans-Serif" font-size="10.00">MidiEventConverter.h</text>
</a>
</g>
</g>
<!-- Node1&#45;&gt;Node36 -->
<g id="edge51" class="edge">
<title>Node1&#45;&gt;Node36</title>
<path fill="none" stroke="midnightblue" d="M466.48,-560.37C502.97,-541.25 590.84,-495.23 634.49,-472.36"/>
<polygon fill="midnightblue" stroke="midnightblue" points="636.36,-475.33 643.6,-467.59 633.12,-469.13 636.36,-475.33"/>
</g>
<!-- Node42 -->
<g id="node42" class="node">
<title>Node42</title>
<g id="a_node42"><a xlink:href="_midi_preset_identification_8h.html" target="_top" xlink:title="The MidiPresetIdentification specification defines the identification of a MIDI preset as a tuple of ...">
<polygon fill="white" stroke="black" points="177.5,-336.5 177.5,-355.5 302.5,-355.5 302.5,-336.5 177.5,-336.5"/>
<text text-anchor="middle" x="240" y="-343.5" font-family="Helvetica,sans-Serif" font-size="10.00">MidiPresetIdentification.h</text>
</a>
</g>
</g>
<!-- Node1&#45;&gt;Node42 -->
<g id="edge68" class="edge">
<title>Node1&#45;&gt;Node42</title>
<path fill="none" stroke="midnightblue" d="M441.77,-560.3C410.28,-527.01 297.16,-407.42 255.52,-363.41"/>
<polygon fill="midnightblue" stroke="midnightblue" points="257.82,-360.74 248.4,-355.88 252.73,-365.55 257.82,-360.74"/>
</g>
<!-- Node3 -->
<g id="node3" class="node">
<title>Node3</title>
<g id="a_node3"><a xlink:title=" ">
<polygon fill="white" stroke="#bfbfbf" points="110.5,-336.5 110.5,-355.5 159.5,-355.5 159.5,-336.5 110.5,-336.5"/>
<text text-anchor="middle" x="135" y="-343.5" font-family="Helvetica,sans-Serif" font-size="10.00">cstdarg</text>
</a>
</g>
</g>
<!-- Node2&#45;&gt;Node3 -->
<g id="edge2" class="edge">
<title>Node2&#45;&gt;Node3</title>
<path fill="none" stroke="midnightblue" d="M183.68,-392.32C175.11,-384.34 162.19,-372.31 151.81,-362.65"/>
<polygon fill="midnightblue" stroke="midnightblue" points="154.19,-360.09 144.49,-355.83 149.42,-365.21 154.19,-360.09"/>
</g>
<!-- Node4 -->
<g id="node4" class="node">
<title>Node4</title>
<g id="a_node4"><a xlink:href="_logging_support_8h.html" target="_top" xlink:title="The LoggingSupport specification defines a class for simple entry/exit logging to a file or via an ar...">
<polygon fill="white" stroke="black" points="0,-336.5 0,-355.5 92,-355.5 92,-336.5 0,-336.5"/>
<text text-anchor="middle" x="46" y="-343.5" font-family="Helvetica,sans-Serif" font-size="10.00">LoggingSupport.h</text>
</a>
</g>
</g>
<!-- Node2&#45;&gt;Node4 -->
<g id="edge3" class="edge">
<title>Node2&#45;&gt;Node4</title>
<path fill="none" stroke="midnightblue" d="M169.71,-392.44C145.19,-383.44 106.4,-369.19 78.8,-359.05"/>
<polygon fill="midnightblue" stroke="midnightblue" points="79.78,-355.68 69.18,-355.52 77.36,-362.25 79.78,-355.68"/>
</g>
<!-- Node14 -->
<g id="node14" class="node">
<title>Node14</title>
<g id="a_node14"><a xlink:href="_string_util_8h.html" target="_top" xlink:title="The StringUtil specification defines several string routines not included in the standard C++ library...">
<polygon fill="white" stroke="black" points="320.5,-336.5 320.5,-355.5 385.5,-355.5 385.5,-336.5 320.5,-336.5"/>
<text text-anchor="middle" x="353" y="-343.5" font-family="Helvetica,sans-Serif" font-size="10.00">StringUtil.h</text>
</a>
</g>
</g>
<!-- Node2&#45;&gt;Node14 -->
<g id="edge15" class="edge">
<title>Node2&#45;&gt;Node14</title>
<path fill="none" stroke="midnightblue" d="M218.35,-392.44C245.27,-383.36 288,-368.94 318.09,-358.78"/>
<polygon fill="midnightblue" stroke="midnightblue" points="319.41,-362.03 327.77,-355.52 317.17,-355.4 319.41,-362.03"/>
</g>
<!-- Node5 -->
<g id="node5" class="node">
<title>Node5</title>
<g id="a_node5"><a xlink:href="_boolean_8h.html" target="_top" xlink:title="The Boolean specification and body provides a value object type for boolean values.">
<polygon fill="white" stroke="black" points="210,-280.5 210,-299.5 270,-299.5 270,-280.5 210,-280.5"/>
<text text-anchor="middle" x="240" y="-287.5" font-family="Helvetica,sans-Serif" font-size="10.00">Boolean.h</text>
</a>
</g>
</g>
<!-- Node4&#45;&gt;Node5 -->
<g id="edge4" class="edge">
<title>Node4&#45;&gt;Node5</title>
<path fill="none" stroke="midnightblue" d="M76.74,-336.44C110.04,-327.17 163.3,-312.35 199.88,-302.17"/>
<polygon fill="midnightblue" stroke="midnightblue" points="201.03,-305.48 209.72,-299.43 199.15,-298.74 201.03,-305.48"/>
</g>
<!-- Node9 -->
<g id="node9" class="node">
<title>Node9</title>
<g id="a_node9"><a xlink:href="_natural_8h.html" target="_top" xlink:title="The Natural specification and body provides a value object type for naturals (positive integers with ...">
<polygon fill="white" stroke="black" points="364,-112.5 364,-131.5 420,-131.5 420,-112.5 364,-112.5"/>
<text text-anchor="middle" x="392" y="-119.5" font-family="Helvetica,sans-Serif" font-size="10.00">Natural.h</text>
</a>
</g>
</g>
<!-- Node4&#45;&gt;Node9 -->
<g id="edge8" class="edge">
<title>Node4&#45;&gt;Node9</title>
<path fill="none" stroke="midnightblue" d="M64.99,-336.49C92.96,-323.98 146.9,-299.95 193,-280 230.65,-263.7 247.25,-271.15 278,-244 307.26,-218.17 295.05,-196.23 322,-168 334.24,-155.18 350.82,-144.31 364.78,-136.47"/>
<polygon fill="midnightblue" stroke="midnightblue" points="366.79,-139.36 373.93,-131.54 363.47,-133.2 366.79,-139.36"/>
</g>
<!-- Node6 -->
<g id="node6" class="node">
<title>Node6</title>
<g id="a_node6"><a xlink:href="_my_string_8h.html" target="_top" xlink:title="The String specification defines a standard string type.">
<polygon fill="white" stroke="black" points="130,-56.5 130,-75.5 194,-75.5 194,-56.5 130,-56.5"/>
<text text-anchor="middle" x="162" y="-63.5" font-family="Helvetica,sans-Serif" font-size="10.00">MyString.h</text>
</a>
</g>
</g>
<!-- Node5&#45;&gt;Node6 -->
<g id="edge5" class="edge">
<title>Node5&#45;&gt;Node6</title>
<path fill="none" stroke="midnightblue" d="M227.03,-280.25C216.14,-272.17 201.09,-259.15 193,-244 165.14,-191.81 161.55,-119.81 161.55,-85.99"/>
<polygon fill="midnightblue" stroke="midnightblue" points="165.06,-85.76 161.67,-75.72 158.06,-85.68 165.06,-85.76"/>
</g>
<!-- Node7 -->
<g id="node7" class="node">
<title>Node7</title>
<g id="a_node7"><a xlink:title=" ">
<polygon fill="white" stroke="#bfbfbf" points="305.5,-0.5 305.5,-19.5 346.5,-19.5 346.5,-0.5 305.5,-0.5"/>
<text text-anchor="middle" x="326" y="-7.5" font-family="Helvetica,sans-Serif" font-size="10.00">string</text>
</a>
</g>
</g>
<!-- Node6&#45;&gt;Node7 -->
<g id="edge6" class="edge">
<title>Node6&#45;&gt;Node7</title>
<path fill="none" stroke="midnightblue" d="M187.99,-56.44C217.2,-46.82 264.58,-31.22 295.52,-21.04"/>
<polygon fill="midnightblue" stroke="midnightblue" points="296.92,-24.26 305.33,-17.81 294.73,-17.61 296.92,-24.26"/>
</g>
<!-- Node8 -->
<g id="node8" class="node">
<title>Node8</title>
<g id="a_node8"><a xlink:href="_global_macros_8h.html" target="_top" xlink:title="The GlobalMacros specification defines simple macros (e.g. for parameter modes).">
<polygon fill="white" stroke="black" points="119.5,-0.5 119.5,-19.5 204.5,-19.5 204.5,-0.5 119.5,-0.5"/>
<text text-anchor="middle" x="162" y="-7.5" font-family="Helvetica,sans-Serif" font-size="10.00">GlobalMacros.h</text>
</a>
</g>
</g>
<!-- Node6&#45;&gt;Node8 -->
<g id="edge7" class="edge">
<title>Node6&#45;&gt;Node8</title>
<path fill="none" stroke="midnightblue" d="M162,-56.08C162,-49.01 162,-38.86 162,-29.99"/>
<polygon fill="midnightblue" stroke="midnightblue" points="165.5,-29.75 162,-19.75 158.5,-29.75 165.5,-29.75"/>
</g>
<!-- Node9&#45;&gt;Node6 -->
<g id="edge14" class="edge">
<title>Node9&#45;&gt;Node6</title>
<path fill="none" stroke="midnightblue" d="M363.8,-114.38C323.79,-104.99 250.27,-87.72 203.88,-76.83"/>
<polygon fill="midnightblue" stroke="midnightblue" points="204.67,-73.42 194.13,-74.54 203.07,-80.24 204.67,-73.42"/>
</g>
<!-- Node10 -->
<g id="node10" class="node">
<title>Node10</title>
<g id="a_node10"><a xlink:title=" ">
<polygon fill="white" stroke="#bfbfbf" points="212,-56.5 212,-75.5 256,-75.5 256,-56.5 212,-56.5"/>
<text text-anchor="middle" x="234" y="-63.5" font-family="Helvetica,sans-Serif" font-size="10.00">cmath</text>
</a>
</g>
</g>
<!-- Node9&#45;&gt;Node10 -->
<g id="edge9" class="edge">
<title>Node9&#45;&gt;Node10</title>
<path fill="none" stroke="midnightblue" d="M366.96,-112.44C339.52,-103.07 295.44,-88 265.63,-77.81"/>
<polygon fill="midnightblue" stroke="midnightblue" points="266.71,-74.48 256.11,-74.56 264.44,-81.1 266.71,-74.48"/>
</g>
<!-- Node11 -->
<g id="node11" class="node">
<title>Node11</title>
<g id="a_node11"><a xlink:href="_assertion_8h.html" target="_top" xlink:title="The Assertion specification defines macros for pre&#45; and postconditions in functions or methods.">
<polygon fill="white" stroke="black" points="384,-56.5 384,-75.5 450,-75.5 450,-56.5 384,-56.5"/>
<text text-anchor="middle" x="417" y="-63.5" font-family="Helvetica,sans-Serif" font-size="10.00">Assertion.h</text>
</a>
</g>
</g>
<!-- Node9&#45;&gt;Node11 -->
<g id="edge10" class="edge">
<title>Node9&#45;&gt;Node11</title>
<path fill="none" stroke="midnightblue" d="M396.13,-112.08C399.51,-104.77 404.42,-94.18 408.62,-85.1"/>
<polygon fill="midnightblue" stroke="midnightblue" points="411.92,-86.3 412.95,-75.75 405.57,-83.36 411.92,-86.3"/>
</g>
<!-- Node13 -->
<g id="node13" class="node">
<title>Node13</title>
<g id="a_node13"><a xlink:title=" ">
<polygon fill="white" stroke="#bfbfbf" points="274,-56.5 274,-75.5 366,-75.5 366,-56.5 274,-56.5"/>
<text text-anchor="middle" x="320" y="-63.5" font-family="Helvetica,sans-Serif" font-size="10.00">GenericNumber.h</text>
</a>
</g>
</g>
<!-- Node9&#45;&gt;Node13 -->
<g id="edge13" class="edge">
<title>Node9&#45;&gt;Node13</title>
<path fill="none" stroke="midnightblue" d="M380.43,-112.32C369.58,-104.18 353.12,-91.84 340.12,-82.09"/>
<polygon fill="midnightblue" stroke="midnightblue" points="341.88,-79.03 331.78,-75.83 337.68,-84.63 341.88,-79.03"/>
</g>
<!-- Node11&#45;&gt;Node7 -->
<g id="edge12" class="edge">
<title>Node11&#45;&gt;Node7</title>
<path fill="none" stroke="midnightblue" d="M402.38,-56.32C388.05,-47.82 365.99,-34.73 349.25,-24.8"/>
<polygon fill="midnightblue" stroke="midnightblue" points="350.97,-21.75 340.58,-19.65 347.4,-27.77 350.97,-21.75"/>
</g>
<!-- Node12 -->
<g id="node12" class="node">
<title>Node12</title>
<g id="a_node12"><a xlink:title=" ">
<polygon fill="white" stroke="#bfbfbf" points="417.5,-0.5 417.5,-19.5 476.5,-19.5 476.5,-0.5 417.5,-0.5"/>
<text text-anchor="middle" x="447" y="-7.5" font-family="Helvetica,sans-Serif" font-size="10.00">stdexcept</text>
</a>
</g>
</g>
<!-- Node11&#45;&gt;Node12 -->
<g id="edge11" class="edge">
<title>Node11&#45;&gt;Node12</title>
<path fill="none" stroke="midnightblue" d="M421.95,-56.08C426.1,-48.61 432.15,-37.72 437.27,-28.52"/>
<polygon fill="midnightblue" stroke="midnightblue" points="440.34,-30.19 442.14,-19.75 434.22,-26.79 440.34,-30.19"/>
</g>
<!-- Node14&#45;&gt;Node5 -->
<g id="edge16" class="edge">
<title>Node14&#45;&gt;Node5</title>
<path fill="none" stroke="midnightblue" d="M335.09,-336.44C316.75,-327.68 287.99,-313.94 266.91,-303.86"/>
<polygon fill="midnightblue" stroke="midnightblue" points="268.35,-300.67 257.82,-299.52 265.33,-306.99 268.35,-300.67"/>
</g>
<!-- Node15 -->
<g id="node15" class="node">
<title>Node15</title>
<g id="a_node15"><a xlink:href="_character_8h.html" target="_top" xlink:title="The Character specification and body provides a value object type for character values.">
<polygon fill="white" stroke="black" points="202.5,-224.5 202.5,-243.5 269.5,-243.5 269.5,-224.5 202.5,-224.5"/>
<text text-anchor="middle" x="236" y="-231.5" font-family="Helvetica,sans-Serif" font-size="10.00">Character.h</text>
</a>
</g>
</g>
<!-- Node14&#45;&gt;Node15 -->
<g id="edge17" class="edge">
<title>Node14&#45;&gt;Node15</title>
<path fill="none" stroke="midnightblue" d="M343.82,-336.37C324.17,-317.89 277.79,-274.29 252.75,-250.74"/>
<polygon fill="midnightblue" stroke="midnightblue" points="254.82,-247.89 245.14,-243.59 250.03,-252.99 254.82,-247.89"/>
</g>
<!-- Node18 -->
<g id="node18" class="node">
<title>Node18</title>
<g id="a_node18"><a xlink:href="_percentage_8h.html" target="_top" xlink:title="The Percentage specification and body provides a simple percentage type.">
<polygon fill="white" stroke="black" points="364,-280.5 364,-299.5 438,-299.5 438,-280.5 364,-280.5"/>
<text text-anchor="middle" x="401" y="-287.5" font-family="Helvetica,sans-Serif" font-size="10.00">Percentage.h</text>
</a>
</g>
</g>
<!-- Node14&#45;&gt;Node18 -->
<g id="edge23" class="edge">
<title>Node14&#45;&gt;Node18</title>
<path fill="none" stroke="midnightblue" d="M360.93,-336.08C367.85,-328.3 378.07,-316.8 386.45,-307.37"/>
<polygon fill="midnightblue" stroke="midnightblue" points="389.19,-309.55 393.22,-299.75 383.96,-304.9 389.19,-309.55"/>
</g>
<!-- Node21 -->
<g id="node21" class="node">
<title>Node21</title>
<g id="a_node21"><a xlink:href="_string_list_8h.html" target="_top" xlink:title="The StringList specification defines lists of string values with zero&#45;based arbitrary indexed access ...">
<polygon fill="white" stroke="black" points="688,-224.5 688,-243.5 754,-243.5 754,-224.5 688,-224.5"/>
<text text-anchor="middle" x="721" y="-231.5" font-family="Helvetica,sans-Serif" font-size="10.00">StringList.h</text>
</a>
</g>
</g>
<!-- Node14&#45;&gt;Node21 -->
<g id="edge29" class="edge">
<title>Node14&#45;&gt;Node21</title>
<path fill="none" stroke="midnightblue" d="M385.81,-339.98C427.89,-333.1 502.85,-319.36 565,-300 611.76,-285.43 663.87,-262.23 694.47,-247.84"/>
<polygon fill="midnightblue" stroke="midnightblue" points="696.08,-250.95 703.62,-243.5 693.08,-244.63 696.08,-250.95"/>
</g>
<!-- Node15&#45;&gt;Node10 -->
<g id="edge18" class="edge">
<title>Node15&#45;&gt;Node10</title>
<path fill="none" stroke="midnightblue" d="M230.62,-224.44C225.44,-215.68 217.99,-201.47 215,-188 206.97,-151.82 218.68,-108.81 226.98,-85.05"/>
<polygon fill="midnightblue" stroke="midnightblue" points="230.29,-86.17 230.46,-75.58 223.72,-83.75 230.29,-86.17"/>
</g>
<!-- Node16 -->
<g id="node16" class="node">
<title>Node16</title>
<g id="a_node16"><a xlink:href="_byte_8h.html" target="_top" xlink:title="The Byte specification and body provides a value object type for byte values.">
<polygon fill="white" stroke="black" points="224.5,-168.5 224.5,-187.5 269.5,-187.5 269.5,-168.5 224.5,-168.5"/>
<text text-anchor="middle" x="247" y="-175.5" font-family="Helvetica,sans-Serif" font-size="10.00">Byte.h</text>
</a>
</g>
</g>
<!-- Node15&#45;&gt;Node16 -->
<g id="edge19" class="edge">
<title>Node15&#45;&gt;Node16</title>
<path fill="none" stroke="midnightblue" d="M237.82,-224.08C239.27,-216.93 241.37,-206.64 243.19,-197.69"/>
<polygon fill="midnightblue" stroke="midnightblue" points="246.65,-198.25 245.22,-187.75 239.79,-196.85 246.65,-198.25"/>
</g>
<!-- Node16&#45;&gt;Node9 -->
<g id="edge22" class="edge">
<title>Node16&#45;&gt;Node9</title>
<path fill="none" stroke="midnightblue" d="M269.66,-168.56C293.78,-159.58 332.16,-145.29 359.5,-135.1"/>
<polygon fill="midnightblue" stroke="midnightblue" points="360.87,-138.33 369.02,-131.56 358.43,-131.77 360.87,-138.33"/>
</g>
<!-- Node16&#45;&gt;Node10 -->
<g id="edge20" class="edge">
<title>Node16&#45;&gt;Node10</title>
<path fill="none" stroke="midnightblue" d="M245.98,-168.37C243.88,-150.62 239.04,-109.67 236.2,-85.6"/>
<polygon fill="midnightblue" stroke="midnightblue" points="239.66,-85.11 235.02,-75.59 232.71,-85.93 239.66,-85.11"/>
</g>
<!-- Node17 -->
<g id="node17" class="node">
<title>Node17</title>
<g id="a_node17"><a xlink:title=" ">
<polygon fill="white" stroke="#bfbfbf" points="262,-112.5 262,-131.5 308,-131.5 308,-112.5 262,-112.5"/>
<text text-anchor="middle" x="285" y="-119.5" font-family="Helvetica,sans-Serif" font-size="10.00">cstdint</text>
</a>
</g>
</g>
<!-- Node16&#45;&gt;Node17 -->
<g id="edge21" class="edge">
<title>Node16&#45;&gt;Node17</title>
<path fill="none" stroke="midnightblue" d="M253.27,-168.08C258.64,-160.46 266.52,-149.26 273.08,-139.94"/>
<polygon fill="midnightblue" stroke="midnightblue" points="275.95,-141.94 278.84,-131.75 270.22,-137.91 275.95,-141.94"/>
</g>
<!-- Node19 -->
<g id="node19" class="node">
<title>Node19</title>
<g id="a_node19"><a xlink:href="_real_8h.html" target="_top" xlink:title="The Real specification defines a value object type for real values.">
<polygon fill="white" stroke="black" points="442,-224.5 442,-243.5 486,-243.5 486,-224.5 442,-224.5"/>
<text text-anchor="middle" x="464" y="-231.5" font-family="Helvetica,sans-Serif" font-size="10.00">Real.h</text>
</a>
</g>
</g>
<!-- Node18&#45;&gt;Node19 -->
<g id="edge24" class="edge">
<title>Node18&#45;&gt;Node19</title>
<path fill="none" stroke="midnightblue" d="M411.12,-280.32C420.53,-272.26 434.74,-260.08 446.07,-250.37"/>
<polygon fill="midnightblue" stroke="midnightblue" points="448.38,-253 453.69,-243.83 443.82,-247.68 448.38,-253"/>
</g>
<!-- Node20 -->
<g id="node20" class="node">
<title>Node20</title>
<g id="a_node20"><a xlink:href="_integer_8h.html" target="_top" xlink:title="The Integer specification and body provides a value object type for ints.">
<polygon fill="white" stroke="black" points="411,-168.5 411,-187.5 465,-187.5 465,-168.5 411,-168.5"/>
<text text-anchor="middle" x="438" y="-175.5" font-family="Helvetica,sans-Serif" font-size="10.00">Integer.h</text>
</a>
</g>
</g>
<!-- Node19&#45;&gt;Node20 -->
<g id="edge25" class="edge">
<title>Node19&#45;&gt;Node20</title>
<path fill="none" stroke="midnightblue" d="M459.71,-224.08C456.15,-216.69 450.98,-205.95 446.58,-196.81"/>
<polygon fill="midnightblue" stroke="midnightblue" points="449.71,-195.24 442.21,-187.75 443.4,-198.28 449.71,-195.24"/>
</g>
<!-- Node20&#45;&gt;Node9 -->
<g id="edge28" class="edge">
<title>Node20&#45;&gt;Node9</title>
<path fill="none" stroke="midnightblue" d="M430.4,-168.08C423.77,-160.3 413.98,-148.8 405.94,-139.37"/>
<polygon fill="midnightblue" stroke="midnightblue" points="408.6,-137.09 399.45,-131.75 403.27,-141.63 408.6,-137.09"/>
</g>
<!-- Node20&#45;&gt;Node10 -->
<g id="edge26" class="edge">
<title>Node20&#45;&gt;Node10</title>
<path fill="none" stroke="midnightblue" d="M421.99,-168.37C386.54,-149.25 301.19,-103.23 258.78,-80.36"/>
<polygon fill="midnightblue" stroke="midnightblue" points="260.4,-77.26 249.93,-75.59 257.07,-83.42 260.4,-77.26"/>
</g>
<!-- Node20&#45;&gt;Node12 -->
<g id="edge27" class="edge">
<title>Node20&#45;&gt;Node12</title>
<path fill="none" stroke="midnightblue" d="M441.37,-168.23C448.61,-148.35 464.54,-98.28 459,-56 457.84,-47.18 455.47,-37.63 453.13,-29.61"/>
<polygon fill="midnightblue" stroke="midnightblue" points="456.4,-28.34 450.09,-19.83 449.71,-30.42 456.4,-28.34"/>
</g>
<!-- Node22 -->
<g id="node22" class="node">
<title>Node22</title>
<g id="a_node22"><a xlink:title=" ">
<polygon fill="white" stroke="#bfbfbf" points="638.5,-168.5 638.5,-187.5 711.5,-187.5 711.5,-168.5 638.5,-168.5"/>
<text text-anchor="middle" x="675" y="-175.5" font-family="Helvetica,sans-Serif" font-size="10.00">initializer_list</text>
</a>
</g>
</g>
<!-- Node21&#45;&gt;Node22 -->
<g id="edge30" class="edge">
<title>Node21&#45;&gt;Node22</title>
<path fill="none" stroke="midnightblue" d="M713.4,-224.08C706.77,-216.3 696.98,-204.8 688.94,-195.37"/>
<polygon fill="midnightblue" stroke="midnightblue" points="691.6,-193.09 682.45,-187.75 686.27,-197.63 691.6,-193.09"/>
</g>
<!-- Node23 -->
<g id="node23" class="node">
<title>Node23</title>
<g id="a_node23"><a xlink:title=" ">
<polygon fill="white" stroke="#bfbfbf" points="745,-168.5 745,-187.5 819,-187.5 819,-168.5 745,-168.5"/>
<text text-anchor="middle" x="782" y="-175.5" font-family="Helvetica,sans-Serif" font-size="10.00">GenericList.h</text>
</a>
</g>
</g>
<!-- Node21&#45;&gt;Node23 -->
<g id="edge31" class="edge">
<title>Node21&#45;&gt;Node23</title>
<path fill="none" stroke="midnightblue" d="M730.8,-224.32C739.82,-216.34 753.41,-204.31 764.32,-194.65"/>
<polygon fill="midnightblue" stroke="midnightblue" points="766.85,-197.08 772.02,-187.83 762.21,-191.84 766.85,-197.08"/>
</g>
<!-- Node24&#45;&gt;Node21 -->
<g id="edge50" class="edge">
<title>Node24&#45;&gt;Node21</title>
<path fill="none" stroke="midnightblue" d="M874.62,-504.33C880.42,-470.34 896.65,-344.94 834,-280 815.34,-260.65 787.29,-249.42 763.81,-243.01"/>
<polygon fill="midnightblue" stroke="midnightblue" points="764.61,-239.61 754.06,-240.55 762.9,-246.4 764.61,-239.61"/>
</g>
<!-- Node25 -->
<g id="node25" class="node">
<title>Node25</title>
<g id="a_node25"><a xlink:href="_fluid_synth_synthesizer_8h.html" target="_top" xlink:title="The FluidSynthSynthesizer class specifies an object&#45;oriented wrapper around an underlying fluidsynth ...">
<polygon fill="white" stroke="black" points="1128.5,-448.5 1128.5,-467.5 1251.5,-467.5 1251.5,-448.5 1128.5,-448.5"/>
<text text-anchor="middle" x="1190" y="-455.5" font-family="Helvetica,sans-Serif" font-size="10.00">FluidSynthSynthesizer.h</text>
</a>
</g>
</g>
<!-- Node24&#45;&gt;Node25 -->
<g id="edge33" class="edge">
<title>Node24&#45;&gt;Node25</title>
<path fill="none" stroke="midnightblue" d="M923.23,-504.44C979.34,-494.89 1070.13,-479.42 1129.95,-469.23"/>
<polygon fill="midnightblue" stroke="midnightblue" points="1130.74,-472.65 1140.01,-467.52 1129.56,-465.75 1130.74,-472.65"/>
</g>
<!-- Node25&#45;&gt;Node9 -->
<g id="edge44" class="edge">
<title>Node25&#45;&gt;Node9</title>
<path fill="none" stroke="midnightblue" d="M1251.6,-451.27C1280.4,-445.56 1313.1,-434.27 1335,-412 1356.11,-390.54 1354,-377.1 1354,-347 1354,-347 1354,-347 1354,-233 1354,-138.33 609.07,-125.09 430.25,-123.28"/>
<polygon fill="midnightblue" stroke="midnightblue" points="430.04,-119.78 420.01,-123.18 429.98,-126.78 430.04,-119.78"/>
</g>
<!-- Node26 -->
<g id="node26" class="node">
<title>Node26</title>
<g id="a_node26"><a xlink:href="_audio_sample_list_vector_8h.html" target="_top" xlink:title="The AudioSampleListVector specification defines the communication buffer structure for the block proc...">
<polygon fill="white" stroke="black" points="972.5,-392.5 972.5,-411.5 1099.5,-411.5 1099.5,-392.5 972.5,-392.5"/>
<text text-anchor="middle" x="1036" y="-399.5" font-family="Helvetica,sans-Serif" font-size="10.00">AudioSampleListVector.h</text>
</a>
</g>
</g>
<!-- Node25&#45;&gt;Node26 -->
<g id="edge34" class="edge">
<title>Node25&#45;&gt;Node26</title>
<path fill="none" stroke="midnightblue" d="M1165.6,-448.44C1139.8,-439.4 1098.92,-425.06 1069.98,-414.92"/>
<polygon fill="midnightblue" stroke="midnightblue" points="1070.88,-411.52 1060.29,-411.52 1068.57,-418.13 1070.88,-411.52"/>
</g>
<!-- Node33 -->
<g id="node33" class="node">
<title>Node33</title>
<g id="a_node33"><a xlink:href="_object_8h.html" target="_top" xlink:title="The Object specification and body provides the root object type.">
<polygon fill="white" stroke="black" points="1172.5,-280.5 1172.5,-299.5 1225.5,-299.5 1225.5,-280.5 1172.5,-280.5"/>
<text text-anchor="middle" x="1199" y="-287.5" font-family="Helvetica,sans-Serif" font-size="10.00">Object.h</text>
</a>
</g>
</g>
<!-- Node25&#45;&gt;Node33 -->
<g id="edge45" class="edge">
<title>Node25&#45;&gt;Node33</title>
<path fill="none" stroke="midnightblue" d="M1190.48,-448.08C1191.9,-421.95 1196.06,-345.21 1197.99,-309.58"/>
<polygon fill="midnightblue" stroke="midnightblue" points="1201.49,-309.74 1198.54,-299.57 1194.5,-309.36 1201.49,-309.74"/>
</g>
<!-- Node34 -->
<g id="node34" class="node">
<title>Node34</title>
<g id="a_node34"><a xlink:href="_fluid_synth_settings_8h.html" target="_top" xlink:title="The FluidSynthSettings class specifies an object&#45;oriented wrapper around an underlying fluidsynth set...">
<polygon fill="white" stroke="black" points="1218.5,-392.5 1218.5,-411.5 1325.5,-411.5 1325.5,-392.5 1218.5,-392.5"/>
<text text-anchor="middle" x="1272" y="-399.5" font-family="Helvetica,sans-Serif" font-size="10.00">FluidSynthSettings.h</text>
</a>
</g>
</g>
<!-- Node25&#45;&gt;Node34 -->
<g id="edge46" class="edge">
<title>Node25&#45;&gt;Node34</title>
<path fill="none" stroke="midnightblue" d="M1203.17,-448.32C1215.85,-439.98 1235.23,-427.21 1250.21,-417.35"/>
<polygon fill="midnightblue" stroke="midnightblue" points="1252.43,-420.08 1258.86,-411.65 1248.58,-414.23 1252.43,-420.08"/>
</g>
<!-- Node27 -->
<g id="node27" class="node">
<title>Node27</title>
<g id="a_node27"><a xlink:href="_audio_sample_list_8h.html" target="_top" xlink:title="The AudioSampleList specification defines lists of audio samples with zero&#45;based arbitrary indexed ac...">
<polygon fill="white" stroke="black" points="901,-336.5 901,-355.5 999,-355.5 999,-336.5 901,-336.5"/>
<text text-anchor="middle" x="950" y="-343.5" font-family="Helvetica,sans-Serif" font-size="10.00">AudioSampleList.h</text>
</a>
</g>
</g>
<!-- Node26&#45;&gt;Node27 -->
<g id="edge35" class="edge">
<title>Node26&#45;&gt;Node27</title>
<path fill="none" stroke="midnightblue" d="M1022.18,-392.32C1008.77,-383.9 988.18,-370.97 972.41,-361.07"/>
<polygon fill="midnightblue" stroke="midnightblue" points="974.11,-358.01 963.78,-355.65 970.39,-363.94 974.11,-358.01"/>
</g>
<!-- Node32 -->
<g id="node32" class="node">
<title>Node32</title>
<g id="a_node32"><a xlink:href="_audio_sample_list_vector_8cpp-inc.html" target="_top" xlink:title="The AudioSampleListVector body implements the communication buffer structure for the block processing...">
<polygon fill="white" stroke="black" points="1017.5,-336.5 1017.5,-355.5 1170.5,-355.5 1170.5,-336.5 1017.5,-336.5"/>
<text text-anchor="middle" x="1094" y="-343.5" font-family="Helvetica,sans-Serif" font-size="10.00">AudioSampleListVector.cpp&#45;inc</text>
</a>
</g>
</g>
<!-- Node26&#45;&gt;Node32 -->
<g id="edge43" class="edge">
<title>Node26&#45;&gt;Node32</title>
<path fill="none" stroke="midnightblue" d="M1045.32,-392.32C1053.89,-384.34 1066.81,-372.31 1077.19,-362.65"/>
<polygon fill="midnightblue" stroke="midnightblue" points="1079.58,-365.21 1084.51,-355.83 1074.81,-360.09 1079.58,-365.21"/>
</g>
<!-- Node27&#45;&gt;Node23 -->
<g id="edge36" class="edge">
<title>Node27&#45;&gt;Node23</title>
<path fill="none" stroke="midnightblue" d="M942.43,-336.4C931.23,-323.78 909.48,-299.61 890,-280 859.01,-248.81 821.15,-214.15 799.48,-194.62"/>
<polygon fill="midnightblue" stroke="midnightblue" points="801.54,-191.76 791.76,-187.69 796.86,-196.97 801.54,-191.76"/>
</g>
<!-- Node28 -->
<g id="node28" class="node">
<title>Node28</title>
<g id="a_node28"><a xlink:href="_audio_sample_8h.html" target="_top" xlink:title="The AudioSample specification and body provides the definition of the audio sample (a real value).">
<polygon fill="white" stroke="black" points="726.5,-280.5 726.5,-299.5 809.5,-299.5 809.5,-280.5 726.5,-280.5"/>
<text text-anchor="middle" x="768" y="-287.5" font-family="Helvetica,sans-Serif" font-size="10.00">AudioSample.h</text>
</a>
</g>
</g>
<!-- Node27&#45;&gt;Node28 -->
<g id="edge37" class="edge">
<title>Node27&#45;&gt;Node28</title>
<path fill="none" stroke="midnightblue" d="M921.16,-336.44C890.14,-327.24 840.67,-312.56 806.38,-302.39"/>
<polygon fill="midnightblue" stroke="midnightblue" points="807.29,-299.01 796.7,-299.52 805.29,-305.72 807.29,-299.01"/>
</g>
<!-- Node29 -->
<g id="node29" class="node">
<title>Node29</title>
<g id="a_node29"><a xlink:href="_audio_sample_list_8cpp-inc.html" target="_top" xlink:title="The AudioSampleList body implements a simple list of audio samples (this is the effective code includ...">
<polygon fill="white" stroke="black" points="942.5,-280.5 942.5,-299.5 1067.5,-299.5 1067.5,-280.5 942.5,-280.5"/>
<text text-anchor="middle" x="1005" y="-287.5" font-family="Helvetica,sans-Serif" font-size="10.00">AudioSampleList.cpp&#45;inc</text>
</a>
</g>
</g>
<!-- Node27&#45;&gt;Node29 -->
<g id="edge39" class="edge">
<title>Node27&#45;&gt;Node29</title>
<path fill="none" stroke="midnightblue" d="M959.08,-336.08C967.17,-328.14 979.2,-316.34 988.91,-306.8"/>
<polygon fill="midnightblue" stroke="midnightblue" points="991.4,-309.25 996.09,-299.75 986.5,-304.26 991.4,-309.25"/>
</g>
<!-- Node28&#45;&gt;Node19 -->
<g id="edge38" class="edge">
<title>Node28&#45;&gt;Node19</title>
<path fill="none" stroke="midnightblue" d="M726.37,-281.6C664.95,-270.7 551.39,-250.52 496.03,-240.69"/>
<polygon fill="midnightblue" stroke="midnightblue" points="496.53,-237.22 486.08,-238.92 495.31,-244.12 496.53,-237.22"/>
</g>
<!-- Node30 -->
<g id="node30" class="node">
<title>Node30</title>
<g id="a_node30"><a xlink:href="_my_array_8h.html" target="_top" xlink:title="The MyArray specification and body defines a generic array type for stack allocated arrays represente...">
<polygon fill="white" stroke="black" points="958,-224.5 958,-243.5 1020,-243.5 1020,-224.5 958,-224.5"/>
<text text-anchor="middle" x="989" y="-231.5" font-family="Helvetica,sans-Serif" font-size="10.00">MyArray.h</text>
</a>
</g>
</g>
<!-- Node29&#45;&gt;Node30 -->
<g id="edge40" class="edge">
<title>Node29&#45;&gt;Node30</title>
<path fill="none" stroke="midnightblue" d="M1002.36,-280.08C1000.21,-272.85 997.12,-262.41 994.45,-253.4"/>
<polygon fill="midnightblue" stroke="midnightblue" points="997.79,-252.34 991.59,-243.75 991.08,-254.33 997.79,-252.34"/>
</g>
<!-- Node30&#45;&gt;Node9 -->
<g id="edge42" class="edge">
<title>Node30&#45;&gt;Node9</title>
<path fill="none" stroke="midnightblue" d="M972.14,-224.34C943.4,-210 882.71,-181.58 828,-168 684.1,-132.29 506.69,-124.87 430.13,-123.36"/>
<polygon fill="midnightblue" stroke="midnightblue" points="430.07,-119.86 420.01,-123.19 429.95,-126.86 430.07,-119.86"/>
</g>
<!-- Node31 -->
<g id="node31" class="node">
<title>Node31</title>
<g id="a_node31"><a xlink:title=" ">
<polygon fill="white" stroke="#bfbfbf" points="966,-168.5 966,-187.5 1012,-187.5 1012,-168.5 966,-168.5"/>
<text text-anchor="middle" x="989" y="-175.5" font-family="Helvetica,sans-Serif" font-size="10.00">cstring</text>
</a>
</g>
</g>
<!-- Node30&#45;&gt;Node31 -->
<g id="edge41" class="edge">
<title>Node30&#45;&gt;Node31</title>
<path fill="none" stroke="midnightblue" d="M989,-224.08C989,-217.01 989,-206.86 989,-197.99"/>
<polygon fill="midnightblue" stroke="midnightblue" points="992.5,-197.75 989,-187.75 985.5,-197.75 992.5,-197.75"/>
</g>
<!-- Node35 -->
<g id="node35" class="node">
<title>Node35</title>
<g id="a_node35"><a xlink:href="_fluid_synth_8h.html" target="_top" xlink:title="The FluidSynth class specifies an object&#45;oriented wrapper around the fluidsynth library and also allo...">
<polygon fill="white" stroke="black" points="1227.5,-336.5 1227.5,-355.5 1298.5,-355.5 1298.5,-336.5 1227.5,-336.5"/>
<text text-anchor="middle" x="1263" y="-343.5" font-family="Helvetica,sans-Serif" font-size="10.00">FluidSynth.h</text>
</a>
</g>
</g>
<!-- Node34&#45;&gt;Node35 -->
<g id="edge47" class="edge">
<title>Node34&#45;&gt;Node35</title>
<path fill="none" stroke="midnightblue" d="M1270.51,-392.08C1269.32,-384.93 1267.61,-374.64 1266.12,-365.69"/>
<polygon fill="midnightblue" stroke="midnightblue" points="1269.55,-365.04 1264.46,-355.75 1262.65,-366.19 1269.55,-365.04"/>
</g>
<!-- Node35&#45;&gt;Node9 -->
<g id="edge48" class="edge">
<title>Node35&#45;&gt;Node9</title>
<path fill="none" stroke="midnightblue" d="M1261.25,-336.4C1258.11,-322.9 1250.37,-296.58 1235,-280 1162.01,-201.28 1124.26,-197.34 1021,-168 908.93,-136.16 548.47,-126.16 430.07,-123.69"/>
<polygon fill="midnightblue" stroke="midnightblue" points="430.1,-120.19 420.03,-123.49 429.96,-127.19 430.1,-120.19"/>
</g>
<!-- Node35&#45;&gt;Node33 -->
<g id="edge49" class="edge">
<title>Node35&#45;&gt;Node33</title>
<path fill="none" stroke="midnightblue" d="M1252.72,-336.32C1243.16,-328.26 1228.72,-316.08 1217.22,-306.37"/>
<polygon fill="midnightblue" stroke="midnightblue" points="1219.37,-303.61 1209.47,-299.83 1214.86,-308.96 1219.37,-303.61"/>
</g>
<!-- Node36&#45;&gt;Node9 -->
<g id="edge56" class="edge">
<title>Node36&#45;&gt;Node9</title>
<path fill="none" stroke="midnightblue" d="M640.31,-448.32C575.42,-419.52 371.52,-327.42 355,-300 323.73,-248.12 360.62,-173.89 380.68,-140.48"/>
<polygon fill="midnightblue" stroke="midnightblue" points="383.75,-142.18 386.05,-131.84 377.8,-138.48 383.75,-142.18"/>
</g>
<!-- Node36&#45;&gt;Node19 -->
<g id="edge55" class="edge">
<title>Node36&#45;&gt;Node19</title>
<path fill="none" stroke="midnightblue" d="M646.55,-448.47C614.19,-427.3 531.35,-369.03 486,-300 476.7,-285.84 470.94,-267.36 467.66,-253.72"/>
<polygon fill="midnightblue" stroke="midnightblue" points="471.01,-252.64 465.47,-243.61 464.17,-254.13 471.01,-252.64"/>
</g>
<!-- Node36&#45;&gt;Node21 -->
<g id="edge67" class="edge">
<title>Node36&#45;&gt;Node21</title>
<path fill="none" stroke="midnightblue" d="M671.8,-448.18C682.73,-439.67 699.05,-426.02 711,-412 736.91,-381.59 730.43,-363.92 759,-336 781.24,-314.26 803.68,-327.06 819,-300 834.27,-273.03 796.97,-255.19 764.08,-245.14"/>
<polygon fill="midnightblue" stroke="midnightblue" points="764.66,-241.66 754.08,-242.26 762.72,-248.39 764.66,-241.66"/>
</g>
<!-- Node36&#45;&gt;Node26 -->
<g id="edge52" class="edge">
<title>Node36&#45;&gt;Node26</title>
<path fill="none" stroke="midnightblue" d="M713.87,-449.26C780.39,-439.71 893.66,-423.44 966.63,-412.96"/>
<polygon fill="midnightblue" stroke="midnightblue" points="967.24,-416.41 976.65,-411.52 966.25,-409.48 967.24,-416.41"/>
</g>
<!-- Node37 -->
<g id="node37" class="node">
<title>Node37</title>
<g id="a_node37"><a xlink:href="_dictionary_8h.html" target="_top" xlink:title="The Dictionary specification defines maps from string keys to string values.">
<polygon fill="white" stroke="black" points="770,-392.5 770,-411.5 838,-411.5 838,-392.5 770,-392.5"/>
<text text-anchor="middle" x="804" y="-399.5" font-family="Helvetica,sans-Serif" font-size="10.00">Dictionary.h</text>
</a>
</g>
</g>
<!-- Node36&#45;&gt;Node37 -->
<g id="edge53" class="edge">
<title>Node36&#45;&gt;Node37</title>
<path fill="none" stroke="midnightblue" d="M682.82,-448.44C706.83,-439.44 744.83,-425.19 771.87,-415.05"/>
<polygon fill="midnightblue" stroke="midnightblue" points="773.16,-418.3 781.29,-411.52 770.7,-411.75 773.16,-418.3"/>
</g>
<!-- Node39 -->
<g id="node39" class="node">
<title>Node39</title>
<g id="a_node39"><a xlink:href="_midi_event_list_8h.html" target="_top" xlink:title="The MidiEventList specification defines lists of MIDI events with zero&#45;based arbitrary indexed access...">
<polygon fill="white" stroke="black" points="618.5,-392.5 618.5,-411.5 701.5,-411.5 701.5,-392.5 618.5,-392.5"/>
<text text-anchor="middle" x="660" y="-399.5" font-family="Helvetica,sans-Serif" font-size="10.00">MidiEventList.h</text>
</a>
</g>
</g>
<!-- Node36&#45;&gt;Node39 -->
<g id="edge57" class="edge">
<title>Node36&#45;&gt;Node39</title>
<path fill="none" stroke="midnightblue" d="M660,-448.08C660,-441.01 660,-430.86 660,-421.99"/>
<polygon fill="midnightblue" stroke="midnightblue" points="663.5,-421.75 660,-411.75 656.5,-421.75 663.5,-421.75"/>
</g>
<!-- Node38 -->
<g id="node38" class="node">
<title>Node38</title>
<g id="a_node38"><a xlink:title=" ">
<polygon fill="white" stroke="#bfbfbf" points="767.5,-336.5 767.5,-355.5 844.5,-355.5 844.5,-336.5 767.5,-336.5"/>
<text text-anchor="middle" x="806" y="-343.5" font-family="Helvetica,sans-Serif" font-size="10.00">GenericMap.h</text>
</a>
</g>
</g>
<!-- Node37&#45;&gt;Node38 -->
<g id="edge54" class="edge">
<title>Node37&#45;&gt;Node38</title>
<path fill="none" stroke="midnightblue" d="M804.33,-392.08C804.59,-385.01 804.97,-374.86 805.3,-365.99"/>
<polygon fill="midnightblue" stroke="midnightblue" points="808.8,-365.87 805.68,-355.75 801.81,-365.61 808.8,-365.87"/>
</g>
<!-- Node39&#45;&gt;Node22 -->
<g id="edge58" class="edge">
<title>Node39&#45;&gt;Node22</title>
<path fill="none" stroke="midnightblue" d="M660.59,-392.3C662.8,-359.63 670.62,-243.87 673.72,-197.96"/>
<polygon fill="midnightblue" stroke="midnightblue" points="677.22,-198.1 674.4,-187.88 670.23,-197.63 677.22,-198.1"/>
</g>
<!-- Node39&#45;&gt;Node23 -->
<g id="edge59" class="edge">
<title>Node39&#45;&gt;Node23</title>
<path fill="none" stroke="midnightblue" d="M663.62,-392.19C673.78,-367.65 702.85,-299.06 718,-280 733.94,-259.95 748.75,-265.28 763,-244 772.3,-230.11 777.13,-211.6 779.59,-197.88"/>
<polygon fill="midnightblue" stroke="midnightblue" points="783.1,-198.11 781.14,-187.7 776.18,-197.06 783.1,-198.11"/>
</g>
<!-- Node40 -->
<g id="node40" class="node">
<title>Node40</title>
<g id="a_node40"><a xlink:href="_midi_event_8h.html" target="_top" xlink:title="The MidiEvent specification defines a single MIDI event and the MIDI event kind enumeration.">
<polygon fill="white" stroke="black" points="564.5,-336.5 564.5,-355.5 631.5,-355.5 631.5,-336.5 564.5,-336.5"/>
<text text-anchor="middle" x="598" y="-343.5" font-family="Helvetica,sans-Serif" font-size="10.00">MidiEvent.h</text>
</a>
</g>
</g>
<!-- Node39&#45;&gt;Node40 -->
<g id="edge60" class="edge">
<title>Node39&#45;&gt;Node40</title>
<path fill="none" stroke="midnightblue" d="M650.04,-392.32C640.87,-384.34 627.06,-372.31 615.97,-362.65"/>
<polygon fill="midnightblue" stroke="midnightblue" points="617.98,-359.76 608.14,-355.83 613.38,-365.04 617.98,-359.76"/>
</g>
<!-- Node40&#45;&gt;Node5 -->
<g id="edge61" class="edge">
<title>Node40&#45;&gt;Node5</title>
<path fill="none" stroke="midnightblue" d="M564.32,-339.92C498.04,-329.92 350.97,-307.74 279.93,-297.02"/>
<polygon fill="midnightblue" stroke="midnightblue" points="280.43,-293.56 270.02,-295.53 279.39,-300.48 280.43,-293.56"/>
</g>
<!-- Node40&#45;&gt;Node20 -->
<g id="edge62" class="edge">
<title>Node40&#45;&gt;Node20</title>
<path fill="none" stroke="midnightblue" d="M594.97,-336.33C590.08,-323.18 579.54,-297.87 565,-280 534.81,-242.89 488.8,-210.57 461.23,-193.02"/>
<polygon fill="midnightblue" stroke="midnightblue" points="462.97,-189.98 452.64,-187.65 459.26,-195.92 462.97,-189.98"/>
</g>
<!-- Node40&#45;&gt;Node33 -->
<g id="edge66" class="edge">
<title>Node40&#45;&gt;Node33</title>
<path fill="none" stroke="midnightblue" d="M631.6,-341.98C735.91,-332.61 1053.65,-304.06 1162.2,-294.31"/>
<polygon fill="midnightblue" stroke="midnightblue" points="1162.68,-297.78 1172.33,-293.4 1162.06,-290.81 1162.68,-297.78"/>
</g>
<!-- Node41 -->
<g id="node41" class="node">
<title>Node41</title>
<g id="a_node41"><a xlink:href="_byte_list_8h.html" target="_top" xlink:title="The ByteList specification defines lists of byte values with zero&#45;based arbitrary indexed access to p...">
<polygon fill="white" stroke="black" points="494.5,-280.5 494.5,-299.5 555.5,-299.5 555.5,-280.5 494.5,-280.5"/>
<text text-anchor="middle" x="525" y="-287.5" font-family="Helvetica,sans-Serif" font-size="10.00">ByteList.h</text>
</a>
</g>
</g>
<!-- Node40&#45;&gt;Node41 -->
<g id="edge63" class="edge">
<title>Node40&#45;&gt;Node41</title>
<path fill="none" stroke="midnightblue" d="M586.27,-336.32C575.16,-328.11 558.26,-315.6 545.02,-305.81"/>
<polygon fill="midnightblue" stroke="midnightblue" points="547.06,-302.97 536.94,-299.83 542.9,-308.59 547.06,-302.97"/>
</g>
<!-- Node41&#45;&gt;Node16 -->
<g id="edge64" class="edge">
<title>Node41&#45;&gt;Node16</title>
<path fill="none" stroke="midnightblue" d="M503.19,-280.37C454.16,-260.97 335.12,-213.87 278.26,-191.37"/>
<polygon fill="midnightblue" stroke="midnightblue" points="279.3,-188.02 268.71,-187.59 276.72,-194.53 279.3,-188.02"/>
</g>
<!-- Node41&#45;&gt;Node21 -->
<g id="edge65" class="edge">
<title>Node41&#45;&gt;Node21</title>
<path fill="none" stroke="midnightblue" d="M555.62,-280.56C589.09,-271.34 642.86,-256.53 679.95,-246.31"/>
<polygon fill="midnightblue" stroke="midnightblue" points="681.23,-249.59 689.94,-243.56 679.37,-242.84 681.23,-249.59"/>
</g>
<!-- Node42&#45;&gt;Node5 -->
<g id="edge69" class="edge">
<title>Node42&#45;&gt;Node5</title>
<path fill="none" stroke="midnightblue" d="M240,-336.08C240,-329.01 240,-318.86 240,-309.99"/>
<polygon fill="midnightblue" stroke="midnightblue" points="243.5,-309.75 240,-299.75 236.5,-309.75 243.5,-309.75"/>
</g>
<!-- Node42&#45;&gt;Node20 -->
<g id="edge70" class="edge">
<title>Node42&#45;&gt;Node20</title>
<path fill="none" stroke="midnightblue" d="M228.31,-336.49C212.29,-323.78 186.99,-299.27 201,-280 231.5,-238.05 264.13,-263.95 312,-244 348.87,-228.63 389.62,-206.63 414.52,-192.58"/>
<polygon fill="midnightblue" stroke="midnightblue" points="416.29,-195.6 423.25,-187.61 412.83,-189.52 416.29,-195.6"/>
</g>
</g>
</svg>
        <g id="navigator" transform="translate(0 0)" fill="#404254">
                <rect fill="#f2f5e9" fill-opacity="0.5" stroke="#606060" stroke-width=".5" x="0" y="0" width="60" height="60"/>
                <use id="zoomplus" xlink:href="#zoomPlus" x="17" y="9" onmousedown="handleZoom(evt,'in')"/>
                <use id="zoomminus" xlink:href="#zoomMin" x="42" y="9" onmousedown="handleZoom(evt,'out')"/>
                <use id="reset" xlink:href="#resetDef" x="30" y="36" onmousedown="handleReset()"/>
                <g id="arrowUp" xlink:href="#dirArrow" transform="translate(30 24)" onmousedown="handlePan(0,-1)">
                  <use xlink:href="#rim" fill="#404040">
                        <set attributeName="fill" to="#808080" begin="arrowUp.mouseover" end="arrowUp.mouseout"/>
                  </use>
                  <path fill="none" stroke="white" stroke-width="1.5" d="M0,-3.0v7 M-2.5,-0.5L0,-3.0L2.5,-0.5"/>
                </g>
                <g id="arrowRight" xlink:href="#dirArrow" transform="rotate(90) translate(36 -43)" onmousedown="handlePan(1,0)">
                  <use xlink:href="#rim" fill="#404040">
                        <set attributeName="fill" to="#808080" begin="arrowRight.mouseover" end="arrowRight.mouseout"/>
                  </use>
                  <path fill="none" stroke="white" stroke-width="1.5" d="M0,-3.0v7 M-2.5,-0.5L0,-3.0L2.5,-0.5"/>
                </g>
                <g id="arrowDown" xlink:href="#dirArrow" transform="rotate(180) translate(-30 -48)" onmousedown="handlePan(0,1)">
                  <use xlink:href="#rim" fill="#404040">
                        <set attributeName="fill" to="#808080" begin="arrowDown.mouseover" end="arrowDown.mouseout"/>
                  </use>
                  <path fill="none" stroke="white" stroke-width="1.5" d="M0,-3.0v7 M-2.5,-0.5L0,-3.0L2.5,-0.5"/>
                </g>
                <g id="arrowLeft" xlink:href="#dirArrow" transform="rotate(270) translate(-36 17)" onmousedown="handlePan(-1,0)">
                  <use xlink:href="#rim" fill="#404040">
                        <set attributeName="fill" to="#808080" begin="arrowLeft.mouseover" end="arrowLeft.mouseout"/>
                  </use>
                  <path fill="none" stroke="white" stroke-width="1.5" d="M0,-3.0v7 M-2.5,-0.5L0,-3.0L2.5,-0.5"/>
                </g>
        </g>
        <svg viewBox="0 0 15 15" width="100%" height="30px" preserveAspectRatio="xMaxYMin meet">
         <g id="arrow_out" transform="scale(0.3 0.3)">
          <a xlink:href="_midi_event_converter_8cpp__incl_org.svg" target="_base">
           <rect id="button" ry="5" rx="5" y="6" x="6" height="38" width="38"
                fill="#f2f5e9" fill-opacity="0.5" stroke="#606060" stroke-width="1.0"/>
           <path id="arrow"
             d="M 11.500037,31.436501 C 11.940474,20.09759 22.043105,11.32322 32.158766,21.979434 L 37.068811,17.246167 C 37.068811,17.246167 37.088388,32 37.088388,32 L 22.160133,31.978069 C 22.160133,31.978069 26.997745,27.140456 26.997745,27.140456 C 18.528582,18.264221 13.291696,25.230495 11.500037,31.436501 z"
             style="fill:#404040;"/>
          </a>
         </g>
        </svg>
</svg>
