<?xml version="1.0" encoding="UTF-8" standalone="no"?>
<!DOCTYPE svg PUBLIC "-//W3C//DTD SVG 1.1//EN"
 "http://www.w3.org/Graphics/SVG/1.1/DTD/svg11.dtd">
<!-- Generated by graphviz version 2.47.1 (20210417.1919)
 -->
<!-- Title: MidiFile.cpp Pages: 1 -->
<svg width="932pt" height="467pt"
 viewBox="0.00 0.00 932.00 467.00" xmlns="http://www.w3.org/2000/svg" xmlns:xlink="http://www.w3.org/1999/xlink">
<g id="graph0" class="graph" transform="scale(1 1) rotate(0) translate(4 463)">
<title>MidiFile.cpp</title>
<!-- Node1 -->
<g id="Node000001" class="node">
<title>Node1</title>
<g id="a_Node000001"><a xlink:title="The MidiFile implementation implements the services of a MIDI file; currently only file reading is su...">
<polygon fill="#999999" stroke="#666666" points="335.5,-459 266.5,-459 266.5,-440 335.5,-440 335.5,-459"/>
<text text-anchor="middle" x="301" y="-447" font-family="Helvetica,sans-Serif" font-size="10.00">MidiFile.cpp</text>
</a>
</g>
</g>
<!-- Node2 -->
<g id="Node000002" class="node">
<title>Node2</title>
<g id="a_Node000002"><a xlink:href="_assertion_8h.html" target="_top" xlink:title="The Assertion specification defines macros for pre&#45; and postconditions in functions or methods.">
<polygon fill="white" stroke="#666666" points="187,-74 121,-74 121,-55 187,-55 187,-74"/>
<text text-anchor="middle" x="154" y="-62" font-family="Helvetica,sans-Serif" font-size="10.00">Assertion.h</text>
</a>
</g>
</g>
<!-- Node1&#45;&gt;Node2 -->
<g id="edge1_Node000001_Node000002" class="edge">
<title>Node1&#45;&gt;Node2</title>
<g id="a_edge1_Node000001_Node000002"><a xlink:title=" ">
<path fill="none" stroke="#63b8ff" d="M266.47,-443.6C187.41,-431.4 0,-396.57 0,-340.5 0,-340.5 0,-340.5 0,-228.5 0,-155.6 82.4,-102.13 126.65,-78.68"/>
<polygon fill="#63b8ff" stroke="#63b8ff" points="128.44,-81.69 135.73,-74 125.24,-75.47 128.44,-81.69"/>
</a>
</g>
</g>
<!-- Node5 -->
<g id="Node000005" class="node">
<title>Node5</title>
<g id="a_Node000005"><a xlink:href="_file_8h.html" target="_top" xlink:title="The File specification defines a class for simple file handling based on C stdio.">
<polygon fill="white" stroke="#666666" points="665.5,-294 624.5,-294 624.5,-275 665.5,-275 665.5,-294"/>
<text text-anchor="middle" x="645" y="-282" font-family="Helvetica,sans-Serif" font-size="10.00">File.h</text>
</a>
</g>
</g>
<!-- Node1&#45;&gt;Node5 -->
<g id="edge4_Node000001_Node000005" class="edge">
<title>Node1&#45;&gt;Node5</title>
<g id="a_edge4_Node000001_Node000005"><a xlink:title=" ">
<path fill="none" stroke="#63b8ff" d="M319.01,-439.97C375.54,-413.18 549.69,-330.66 617.54,-298.51"/>
<polygon fill="#63b8ff" stroke="#63b8ff" points="619.21,-301.59 626.75,-294.15 616.22,-295.27 619.21,-301.59"/>
</a>
</g>
</g>
<!-- Node19 -->
<g id="Node000019" class="node">
<title>Node19</title>
<g id="a_Node000019"><a xlink:href="_logging_8h.html" target="_top" xlink:title="The Logging specification defines macros for entry&#45;, exit&#45; and intermediate logging of functions into...">
<polygon fill="white" stroke="#666666" points="193.5,-404 134.5,-404 134.5,-385 193.5,-385 193.5,-404"/>
<text text-anchor="middle" x="164" y="-392" font-family="Helvetica,sans-Serif" font-size="10.00">Logging.h</text>
</a>
</g>
</g>
<!-- Node1&#45;&gt;Node19 -->
<g id="edge22_Node000001_Node000019" class="edge">
<title>Node1&#45;&gt;Node19</title>
<g id="a_edge22_Node000001_Node000019"><a xlink:title=" ">
<path fill="none" stroke="#63b8ff" d="M278.99,-439.98C256.55,-431.3 221.52,-417.75 196.01,-407.88"/>
<polygon fill="#63b8ff" stroke="#63b8ff" points="197,-404.51 186.41,-404.17 194.48,-411.04 197,-404.51"/>
</a>
</g>
</g>
<!-- Node27 -->
<g id="Node000027" class="node">
<title>Node27</title>
<g id="a_Node000027"><a xlink:href="_midi_file_8h.html" target="_top" xlink:title="The MidiFile specification defines the services of a MIDI file; currently only file reading is suppor...">
<polygon fill="white" stroke="#666666" points="359.5,-404 300.5,-404 300.5,-385 359.5,-385 359.5,-404"/>
<text text-anchor="middle" x="330" y="-392" font-family="Helvetica,sans-Serif" font-size="10.00">MidiFile.h</text>
</a>
</g>
</g>
<!-- Node1&#45;&gt;Node27 -->
<g id="edge39_Node000001_Node000027" class="edge">
<title>Node1&#45;&gt;Node27</title>
<g id="a_edge39_Node000001_Node000027"><a xlink:title=" ">
<path fill="none" stroke="#63b8ff" d="M305.79,-439.75C309.76,-432.49 315.53,-421.95 320.43,-412.98"/>
<polygon fill="#63b8ff" stroke="#63b8ff" points="323.57,-414.54 325.3,-404.09 317.43,-411.18 323.57,-414.54"/>
</a>
</g>
</g>
<!-- Node30 -->
<g id="Node000030" class="node">
<title>Node30</title>
<g id="a_Node000030"><a xlink:href="_natural_list_8h.html" target="_top" xlink:title="The NaturalList specification defines lists of non&#45;negative integer values with zero&#45;based arbitrary ...">
<polygon fill="white" stroke="#666666" points="847.5,-404 776.5,-404 776.5,-385 847.5,-385 847.5,-404"/>
<text text-anchor="middle" x="812" y="-392" font-family="Helvetica,sans-Serif" font-size="10.00">NaturalList.h</text>
</a>
</g>
</g>
<!-- Node1&#45;&gt;Node30 -->
<g id="edge49_Node000001_Node000030" class="edge">
<title>Node1&#45;&gt;Node30</title>
<g id="a_edge49_Node000001_Node000030"><a xlink:title=" ">
<path fill="none" stroke="#63b8ff" d="M335.72,-444.9C425.43,-435.59 664.97,-410.75 766.02,-400.27"/>
<polygon fill="#63b8ff" stroke="#63b8ff" points="766.63,-403.72 776.21,-399.21 765.91,-396.76 766.63,-403.72"/>
</a>
</g>
</g>
<!-- Node31 -->
<g id="Node000031" class="node">
<title>Node31</title>
<g id="a_Node000031"><a xlink:href="_operating_system_8h.html" target="_top" xlink:title="The OperatingSystem specification defines a class for several operating system related utility functi...">
<polygon fill="white" stroke="#666666" points="322.5,-349 221.5,-349 221.5,-330 322.5,-330 322.5,-349"/>
<text text-anchor="middle" x="272" y="-337" font-family="Helvetica,sans-Serif" font-size="10.00">OperatingSystem.h</text>
</a>
</g>
</g>
<!-- Node1&#45;&gt;Node31 -->
<g id="edge51_Node000001_Node000031" class="edge">
<title>Node1&#45;&gt;Node31</title>
<g id="a_edge51_Node000001_Node000031"><a xlink:title=" ">
<path fill="none" stroke="#63b8ff" d="M298.63,-439.66C293.91,-422.09 283.26,-382.45 276.96,-358.95"/>
<polygon fill="#63b8ff" stroke="#63b8ff" points="280.3,-357.91 274.32,-349.16 273.54,-359.72 280.3,-357.91"/>
</a>
</g>
</g>
<!-- Node3 -->
<g id="Node000003" class="node">
<title>Node3</title>
<g id="a_Node000003"><a xlink:title=" ">
<polygon fill="#e0e0e0" stroke="#999999" points="372.5,-19 313.5,-19 313.5,0 372.5,0 372.5,-19"/>
<text text-anchor="middle" x="343" y="-7" font-family="Helvetica,sans-Serif" font-size="10.00">stdexcept</text>
</a>
</g>
</g>
<!-- Node2&#45;&gt;Node3 -->
<g id="edge2_Node000002_Node000003" class="edge">
<title>Node2&#45;&gt;Node3</title>
<g id="a_edge2_Node000002_Node000003"><a xlink:title=" ">
<path fill="none" stroke="#63b8ff" d="M184.37,-54.98C216.66,-45.93 267.86,-31.57 303.32,-21.63"/>
<polygon fill="#63b8ff" stroke="#63b8ff" points="304.65,-24.89 313.33,-18.82 302.76,-18.15 304.65,-24.89"/>
</a>
</g>
</g>
<!-- Node4 -->
<g id="Node000004" class="node">
<title>Node4</title>
<g id="a_Node000004"><a xlink:title=" ">
<polygon fill="#e0e0e0" stroke="#999999" points="173.5,-19 132.5,-19 132.5,0 173.5,0 173.5,-19"/>
<text text-anchor="middle" x="153" y="-7" font-family="Helvetica,sans-Serif" font-size="10.00">string</text>
</a>
</g>
</g>
<!-- Node2&#45;&gt;Node4 -->
<g id="edge3_Node000002_Node000004" class="edge">
<title>Node2&#45;&gt;Node4</title>
<g id="a_edge3_Node000002_Node000004"><a xlink:title=" ">
<path fill="none" stroke="#63b8ff" d="M153.83,-54.75C153.7,-47.8 153.52,-37.85 153.35,-29.13"/>
<polygon fill="#63b8ff" stroke="#63b8ff" points="156.85,-29.02 153.16,-19.09 149.85,-29.15 156.85,-29.02"/>
</a>
</g>
</g>
<!-- Node6 -->
<g id="Node000006" class="node">
<title>Node6</title>
<g id="a_Node000006"><a xlink:href="_boolean_8h.html" target="_top" xlink:title="The Boolean specification and body provides a value object type for boolean values.">
<polygon fill="white" stroke="#666666" points="370,-239 310,-239 310,-220 370,-220 370,-239"/>
<text text-anchor="middle" x="340" y="-227" font-family="Helvetica,sans-Serif" font-size="10.00">Boolean.h</text>
</a>
</g>
</g>
<!-- Node5&#45;&gt;Node6 -->
<g id="edge5_Node000005_Node000006" class="edge">
<title>Node5&#45;&gt;Node6</title>
<g id="a_edge5_Node000005_Node000006"><a xlink:title=" ">
<path fill="none" stroke="#63b8ff" d="M624.43,-277.31C621.29,-276.47 618.07,-275.67 615,-275 514.45,-253.18 485.09,-257.98 380.24,-239.12"/>
<polygon fill="#63b8ff" stroke="#63b8ff" points="380.66,-235.64 370.2,-237.28 379.4,-242.52 380.66,-235.64"/>
</a>
</g>
</g>
<!-- Node9 -->
<g id="Node000009" class="node">
<title>Node9</title>
<g id="a_Node000009"><a xlink:href="_byte_list_8h.html" target="_top" xlink:title="The ByteList specification defines lists of byte values with zero&#45;based arbitrary indexed access to p...">
<polygon fill="white" stroke="#666666" points="626.5,-239 565.5,-239 565.5,-220 626.5,-220 626.5,-239"/>
<text text-anchor="middle" x="596" y="-227" font-family="Helvetica,sans-Serif" font-size="10.00">ByteList.h</text>
</a>
</g>
</g>
<!-- Node5&#45;&gt;Node9 -->
<g id="edge9_Node000005_Node000009" class="edge">
<title>Node5&#45;&gt;Node9</title>
<g id="a_edge9_Node000005_Node000009"><a xlink:title=" ">
<path fill="none" stroke="#63b8ff" d="M636.91,-274.75C629.84,-267.11 619.41,-255.82 610.85,-246.56"/>
<polygon fill="#63b8ff" stroke="#63b8ff" points="613.3,-244.06 603.94,-239.09 608.16,-248.81 613.3,-244.06"/>
</a>
</g>
</g>
<!-- Node18 -->
<g id="Node000018" class="node">
<title>Node18</title>
<g id="a_Node000018"><a xlink:href="_object_8h.html" target="_top" xlink:title="The Object specification and body provides the root object type.">
<polygon fill="white" stroke="#666666" points="697.5,-239 644.5,-239 644.5,-220 697.5,-220 697.5,-239"/>
<text text-anchor="middle" x="671" y="-227" font-family="Helvetica,sans-Serif" font-size="10.00">Object.h</text>
</a>
</g>
</g>
<!-- Node5&#45;&gt;Node18 -->
<g id="edge21_Node000005_Node000018" class="edge">
<title>Node5&#45;&gt;Node18</title>
<g id="a_edge21_Node000005_Node000018"><a xlink:title=" ">
<path fill="none" stroke="#63b8ff" d="M649.29,-274.75C652.81,-267.57 657.91,-257.18 662.28,-248.27"/>
<polygon fill="#63b8ff" stroke="#63b8ff" points="665.52,-249.61 666.79,-239.09 659.24,-246.53 665.52,-249.61"/>
</a>
</g>
</g>
<!-- Node7 -->
<g id="Node000007" class="node">
<title>Node7</title>
<g id="a_Node000007"><a xlink:href="_my_string_8h.html" target="_top" xlink:title="The String specification defines a standard string type.">
<polygon fill="white" stroke="#666666" points="103,-74 39,-74 39,-55 103,-55 103,-74"/>
<text text-anchor="middle" x="71" y="-62" font-family="Helvetica,sans-Serif" font-size="10.00">MyString.h</text>
</a>
</g>
</g>
<!-- Node6&#45;&gt;Node7 -->
<g id="edge6_Node000006_Node000007" class="edge">
<title>Node6&#45;&gt;Node7</title>
<g id="a_edge6_Node000006_Node000007"><a xlink:title=" ">
<path fill="none" stroke="#63b8ff" d="M320.57,-219.98C285.22,-204.13 208.51,-168.14 149,-129 126.84,-114.43 103.52,-94.8 88.22,-81.24"/>
<polygon fill="#63b8ff" stroke="#63b8ff" points="90.38,-78.47 80.6,-74.4 85.7,-83.68 90.38,-78.47"/>
</a>
</g>
</g>
<!-- Node7&#45;&gt;Node4 -->
<g id="edge7_Node000007_Node000004" class="edge">
<title>Node7&#45;&gt;Node4</title>
<g id="a_edge7_Node000007_Node000004"><a xlink:title=" ">
<path fill="none" stroke="#63b8ff" d="M84.17,-54.98C96.77,-46.84 116,-34.41 130.94,-24.76"/>
<polygon fill="#63b8ff" stroke="#63b8ff" points="133.09,-27.54 139.59,-19.17 129.29,-21.66 133.09,-27.54"/>
</a>
</g>
</g>
<!-- Node8 -->
<g id="Node000008" class="node">
<title>Node8</title>
<g id="a_Node000008"><a xlink:href="_global_macros_8h.html" target="_top" xlink:title="The GlobalMacros specification defines simple macros (e.g. for parameter modes).">
<polygon fill="white" stroke="#666666" points="113.5,-19 28.5,-19 28.5,0 113.5,0 113.5,-19"/>
<text text-anchor="middle" x="71" y="-7" font-family="Helvetica,sans-Serif" font-size="10.00">GlobalMacros.h</text>
</a>
</g>
</g>
<!-- Node7&#45;&gt;Node8 -->
<g id="edge8_Node000007_Node000008" class="edge">
<title>Node7&#45;&gt;Node8</title>
<g id="a_edge8_Node000007_Node000008"><a xlink:title=" ">
<path fill="none" stroke="#63b8ff" d="M71,-54.75C71,-47.8 71,-37.85 71,-29.13"/>
<polygon fill="#63b8ff" stroke="#63b8ff" points="74.5,-29.09 71,-19.09 67.5,-29.09 74.5,-29.09"/>
</a>
</g>
</g>
<!-- Node10 -->
<g id="Node000010" class="node">
<title>Node10</title>
<g id="a_Node000010"><a xlink:href="_byte_8h.html" target="_top" xlink:title="The Byte specification and body provides a value object type for byte values.">
<polygon fill="white" stroke="#666666" points="443.5,-184 398.5,-184 398.5,-165 443.5,-165 443.5,-184"/>
<text text-anchor="middle" x="421" y="-172" font-family="Helvetica,sans-Serif" font-size="10.00">Byte.h</text>
</a>
</g>
</g>
<!-- Node9&#45;&gt;Node10 -->
<g id="edge10_Node000009_Node000010" class="edge">
<title>Node9&#45;&gt;Node10</title>
<g id="a_edge10_Node000009_Node000010"><a xlink:title=" ">
<path fill="none" stroke="#63b8ff" d="M567.88,-219.98C536.62,-210.52 486.22,-195.25 453.35,-185.3"/>
<polygon fill="#63b8ff" stroke="#63b8ff" points="454.34,-181.94 443.75,-182.39 452.31,-188.64 454.34,-181.94"/>
</a>
</g>
</g>
<!-- Node15 -->
<g id="Node000015" class="node">
<title>Node15</title>
<g id="a_Node000015"><a xlink:href="_string_list_8h.html" target="_top" xlink:title="The StringList specification defines lists of string values with zero&#45;based arbitrary indexed access ...">
<polygon fill="white" stroke="#666666" points="867,-184 801,-184 801,-165 867,-165 867,-184"/>
<text text-anchor="middle" x="834" y="-172" font-family="Helvetica,sans-Serif" font-size="10.00">StringList.h</text>
</a>
</g>
</g>
<!-- Node9&#45;&gt;Node15 -->
<g id="edge18_Node000009_Node000015" class="edge">
<title>Node9&#45;&gt;Node15</title>
<g id="a_edge18_Node000009_Node000015"><a xlink:title=" ">
<path fill="none" stroke="#63b8ff" d="M626.63,-221.68C668.38,-212.38 743.4,-195.68 790.84,-185.11"/>
<polygon fill="#63b8ff" stroke="#63b8ff" points="791.81,-188.48 800.81,-182.89 790.29,-181.65 791.81,-188.48"/>
</a>
</g>
</g>
<!-- Node11 -->
<g id="Node000011" class="node">
<title>Node11</title>
<g id="a_Node000011"><a xlink:title=" ">
<polygon fill="#e0e0e0" stroke="#999999" points="401,-74 357,-74 357,-55 401,-55 401,-74"/>
<text text-anchor="middle" x="379" y="-62" font-family="Helvetica,sans-Serif" font-size="10.00">cmath</text>
</a>
</g>
</g>
<!-- Node10&#45;&gt;Node11 -->
<g id="edge11_Node000010_Node000011" class="edge">
<title>Node10&#45;&gt;Node11</title>
<g id="a_edge11_Node000010_Node000011"><a xlink:title=" ">
<path fill="none" stroke="#63b8ff" d="M418.92,-164.7C415.86,-152.27 409.67,-128.99 402,-110 398.3,-100.83 393.34,-91.02 388.98,-82.95"/>
<polygon fill="#63b8ff" stroke="#63b8ff" points="392,-81.18 384.08,-74.14 385.88,-84.58 392,-81.18"/>
</a>
</g>
</g>
<!-- Node12 -->
<g id="Node000012" class="node">
<title>Node12</title>
<g id="a_Node000012"><a xlink:title=" ">
<polygon fill="#e0e0e0" stroke="#999999" points="393,-129 347,-129 347,-110 393,-110 393,-129"/>
<text text-anchor="middle" x="370" y="-117" font-family="Helvetica,sans-Serif" font-size="10.00">cstdint</text>
</a>
</g>
</g>
<!-- Node10&#45;&gt;Node12 -->
<g id="edge12_Node000010_Node000012" class="edge">
<title>Node10&#45;&gt;Node12</title>
<g id="a_edge12_Node000010_Node000012"><a xlink:title=" ">
<path fill="none" stroke="#63b8ff" d="M412.58,-164.75C405.23,-157.11 394.37,-145.82 385.46,-136.56"/>
<polygon fill="#63b8ff" stroke="#63b8ff" points="387.72,-133.87 378.26,-129.09 382.68,-138.72 387.72,-133.87"/>
</a>
</g>
</g>
<!-- Node13 -->
<g id="Node000013" class="node">
<title>Node13</title>
<g id="a_Node000013"><a xlink:href="_natural_8h.html" target="_top" xlink:title="The Natural specification and body provides a value object type for naturals (positive integers with ...">
<polygon fill="white" stroke="#666666" points="214,-129 158,-129 158,-110 214,-110 214,-129"/>
<text text-anchor="middle" x="186" y="-117" font-family="Helvetica,sans-Serif" font-size="10.00">Natural.h</text>
</a>
</g>
</g>
<!-- Node10&#45;&gt;Node13 -->
<g id="edge13_Node000010_Node000013" class="edge">
<title>Node10&#45;&gt;Node13</title>
<g id="a_edge13_Node000010_Node000013"><a xlink:title=" ">
<path fill="none" stroke="#63b8ff" d="M398.47,-168.42C358.25,-159.35 273.69,-140.28 224.23,-129.12"/>
<polygon fill="#63b8ff" stroke="#63b8ff" points="224.77,-125.66 214.24,-126.87 223.23,-132.48 224.77,-125.66"/>
</a>
</g>
</g>
<!-- Node13&#45;&gt;Node2 -->
<g id="edge15_Node000013_Node000002" class="edge">
<title>Node13&#45;&gt;Node2</title>
<g id="a_edge15_Node000013_Node000002"><a xlink:title=" ">
<path fill="none" stroke="#63b8ff" d="M180.72,-109.75C176.29,-102.42 169.84,-91.73 164.38,-82.7"/>
<polygon fill="#63b8ff" stroke="#63b8ff" points="167.35,-80.84 159.19,-74.09 161.36,-84.46 167.35,-80.84"/>
</a>
</g>
</g>
<!-- Node13&#45;&gt;Node7 -->
<g id="edge17_Node000013_Node000007" class="edge">
<title>Node13&#45;&gt;Node7</title>
<g id="a_edge17_Node000013_Node000007"><a xlink:title=" ">
<path fill="none" stroke="#63b8ff" d="M167.52,-109.98C149.02,-101.46 120.32,-88.23 99.02,-78.41"/>
<polygon fill="#63b8ff" stroke="#63b8ff" points="100.36,-75.18 89.81,-74.17 97.43,-81.53 100.36,-75.18"/>
</a>
</g>
</g>
<!-- Node13&#45;&gt;Node11 -->
<g id="edge14_Node000013_Node000011" class="edge">
<title>Node13&#45;&gt;Node11</title>
<g id="a_edge14_Node000013_Node000011"><a xlink:title=" ">
<path fill="none" stroke="#63b8ff" d="M214.06,-110.79C249.42,-101.08 310.03,-84.44 347.11,-74.26"/>
<polygon fill="#63b8ff" stroke="#63b8ff" points="348.19,-77.59 356.9,-71.57 346.33,-70.84 348.19,-77.59"/>
</a>
</g>
</g>
<!-- Node14 -->
<g id="Node000014" class="node">
<title>Node14</title>
<g id="a_Node000014"><a xlink:title=" ">
<polygon fill="#e0e0e0" stroke="#999999" points="297,-74 205,-74 205,-55 297,-55 297,-74"/>
<text text-anchor="middle" x="251" y="-62" font-family="Helvetica,sans-Serif" font-size="10.00">GenericNumber.h</text>
</a>
</g>
</g>
<!-- Node13&#45;&gt;Node14 -->
<g id="edge16_Node000013_Node000014" class="edge">
<title>Node13&#45;&gt;Node14</title>
<g id="a_edge16_Node000013_Node000014"><a xlink:title=" ">
<path fill="none" stroke="#63b8ff" d="M196.44,-109.98C206.15,-102.07 220.82,-90.11 232.5,-80.58"/>
<polygon fill="#63b8ff" stroke="#63b8ff" points="234.83,-83.2 240.37,-74.17 230.4,-77.78 234.83,-83.2"/>
</a>
</g>
</g>
<!-- Node16 -->
<g id="Node000016" class="node">
<title>Node16</title>
<g id="a_Node000016"><a xlink:title=" ">
<polygon fill="#e0e0e0" stroke="#999999" points="816.5,-129 743.5,-129 743.5,-110 816.5,-110 816.5,-129"/>
<text text-anchor="middle" x="780" y="-117" font-family="Helvetica,sans-Serif" font-size="10.00">initializer_list</text>
</a>
</g>
</g>
<!-- Node15&#45;&gt;Node16 -->
<g id="edge19_Node000015_Node000016" class="edge">
<title>Node15&#45;&gt;Node16</title>
<g id="a_edge19_Node000015_Node000016"><a xlink:title=" ">
<path fill="none" stroke="#63b8ff" d="M825.08,-164.75C817.22,-157.03 805.57,-145.6 796.08,-136.28"/>
<polygon fill="#63b8ff" stroke="#63b8ff" points="798.34,-133.6 788.75,-129.09 793.44,-138.59 798.34,-133.6"/>
</a>
</g>
</g>
<!-- Node17 -->
<g id="Node000017" class="node">
<title>Node17</title>
<g id="a_Node000017"><a xlink:title=" ">
<polygon fill="#e0e0e0" stroke="#999999" points="924,-129 850,-129 850,-110 924,-110 924,-129"/>
<text text-anchor="middle" x="887" y="-117" font-family="Helvetica,sans-Serif" font-size="10.00">GenericList.h</text>
</a>
</g>
</g>
<!-- Node15&#45;&gt;Node17 -->
<g id="edge20_Node000015_Node000017" class="edge">
<title>Node15&#45;&gt;Node17</title>
<g id="a_edge20_Node000015_Node000017"><a xlink:title=" ">
<path fill="none" stroke="#63b8ff" d="M842.75,-164.75C850.47,-157.03 861.9,-145.6 871.22,-136.28"/>
<polygon fill="#63b8ff" stroke="#63b8ff" points="873.81,-138.64 878.41,-129.09 868.86,-133.69 873.81,-138.64"/>
</a>
</g>
</g>
<!-- Node20 -->
<g id="Node000020" class="node">
<title>Node20</title>
<g id="a_Node000020"><a xlink:title=" ">
<polygon fill="#e0e0e0" stroke="#999999" points="135.5,-349 86.5,-349 86.5,-330 135.5,-330 135.5,-349"/>
<text text-anchor="middle" x="111" y="-337" font-family="Helvetica,sans-Serif" font-size="10.00">cstdarg</text>
</a>
</g>
</g>
<!-- Node19&#45;&gt;Node20 -->
<g id="edge23_Node000019_Node000020" class="edge">
<title>Node19&#45;&gt;Node20</title>
<g id="a_edge23_Node000019_Node000020"><a xlink:title=" ">
<path fill="none" stroke="#63b8ff" d="M155.25,-384.75C147.53,-377.03 136.1,-365.6 126.78,-356.28"/>
<polygon fill="#63b8ff" stroke="#63b8ff" points="129.14,-353.69 119.59,-349.09 124.19,-358.64 129.14,-353.69"/>
</a>
</g>
</g>
<!-- Node21 -->
<g id="Node000021" class="node">
<title>Node21</title>
<g id="a_Node000021"><a xlink:href="_logging_support_8h.html" target="_top" xlink:title="The LoggingSupport specification defines a class for simple entry/exit logging to a file or via an ar...">
<polygon fill="white" stroke="#666666" points="120,-294 28,-294 28,-275 120,-275 120,-294"/>
<text text-anchor="middle" x="74" y="-282" font-family="Helvetica,sans-Serif" font-size="10.00">LoggingSupport.h</text>
</a>
</g>
</g>
<!-- Node19&#45;&gt;Node21 -->
<g id="edge24_Node000019_Node000021" class="edge">
<title>Node19&#45;&gt;Node21</title>
<g id="a_edge24_Node000019_Node000021"><a xlink:title=" ">
<path fill="none" stroke="#63b8ff" d="M134.1,-386.53C114.33,-380.24 89.78,-368.82 77,-349 68.5,-335.81 68.51,-317.68 70.21,-304.17"/>
<polygon fill="#63b8ff" stroke="#63b8ff" points="73.69,-304.56 71.88,-294.12 66.79,-303.41 73.69,-304.56"/>
</a>
</g>
</g>
<!-- Node22 -->
<g id="Node000022" class="node">
<title>Node22</title>
<g id="a_Node000022"><a xlink:href="_string_util_8h.html" target="_top" xlink:title="The StringUtil specification defines several string routines not included in the standard C++ library...">
<polygon fill="white" stroke="#666666" points="418.5,-349 353.5,-349 353.5,-330 418.5,-330 418.5,-349"/>
<text text-anchor="middle" x="386" y="-337" font-family="Helvetica,sans-Serif" font-size="10.00">StringUtil.h</text>
</a>
</g>
</g>
<!-- Node19&#45;&gt;Node22 -->
<g id="edge27_Node000019_Node000022" class="edge">
<title>Node19&#45;&gt;Node22</title>
<g id="a_edge27_Node000019_Node000022"><a xlink:title=" ">
<path fill="none" stroke="#63b8ff" d="M193.94,-386.35C232.48,-377.15 299.69,-361.11 343.5,-350.65"/>
<polygon fill="#63b8ff" stroke="#63b8ff" points="344.38,-354.03 353.29,-348.31 342.75,-347.23 344.38,-354.03"/>
</a>
</g>
</g>
<!-- Node21&#45;&gt;Node6 -->
<g id="edge25_Node000021_Node000006" class="edge">
<title>Node21&#45;&gt;Node6</title>
<g id="a_edge25_Node000021_Node000006"><a xlink:title=" ">
<path fill="none" stroke="#63b8ff" d="M118.21,-275C163.8,-266.18 236.92,-251.91 300,-239 300.1,-238.98 300.2,-238.96 300.3,-238.94"/>
<polygon fill="#63b8ff" stroke="#63b8ff" points="300.79,-242.41 309.87,-236.95 299.37,-235.56 300.79,-242.41"/>
</a>
</g>
</g>
<!-- Node21&#45;&gt;Node13 -->
<g id="edge26_Node000021_Node000013" class="edge">
<title>Node21&#45;&gt;Node13</title>
<g id="a_edge26_Node000021_Node000013"><a xlink:title=" ">
<path fill="none" stroke="#63b8ff" d="M77.04,-274.8C84.5,-254.23 105.23,-201.63 134,-165 142.83,-153.76 154.85,-143.25 165.1,-135.28"/>
<polygon fill="#63b8ff" stroke="#63b8ff" points="167.29,-138.01 173.2,-129.21 163.1,-132.41 167.29,-138.01"/>
</a>
</g>
</g>
<!-- Node22&#45;&gt;Node6 -->
<g id="edge28_Node000022_Node000006" class="edge">
<title>Node22&#45;&gt;Node6</title>
<g id="a_edge28_Node000022_Node000006"><a xlink:title=" ">
<path fill="none" stroke="#63b8ff" d="M382.24,-329.66C374.72,-312.01 357.71,-272.09 347.72,-248.64"/>
<polygon fill="#63b8ff" stroke="#63b8ff" points="350.83,-246.99 343.69,-239.16 344.39,-249.73 350.83,-246.99"/>
</a>
</g>
</g>
<!-- Node22&#45;&gt;Node15 -->
<g id="edge38_Node000022_Node000015" class="edge">
<title>Node22&#45;&gt;Node15</title>
<g id="a_edge38_Node000022_Node000015"><a xlink:title=" ">
<path fill="none" stroke="#63b8ff" d="M418.76,-338.17C499.13,-336.79 703.62,-329.78 760,-294 797.08,-270.47 818.72,-220.95 828.22,-193.97"/>
<polygon fill="#63b8ff" stroke="#63b8ff" points="831.62,-194.83 831.46,-184.23 824.98,-192.61 831.62,-194.83"/>
</a>
</g>
</g>
<!-- Node23 -->
<g id="Node000023" class="node">
<title>Node23</title>
<g id="a_Node000023"><a xlink:href="_character_8h.html" target="_top" xlink:title="The Character specification and body provides a value object type for character values.">
<polygon fill="white" stroke="#666666" points="455.5,-239 388.5,-239 388.5,-220 455.5,-220 455.5,-239"/>
<text text-anchor="middle" x="422" y="-227" font-family="Helvetica,sans-Serif" font-size="10.00">Character.h</text>
</a>
</g>
</g>
<!-- Node22&#45;&gt;Node23 -->
<g id="edge29_Node000022_Node000023" class="edge">
<title>Node22&#45;&gt;Node23</title>
<g id="a_edge29_Node000022_Node000023"><a xlink:title=" ">
<path fill="none" stroke="#63b8ff" d="M388.38,-329.81C391.8,-317.52 398.4,-294.39 405,-275 407.96,-266.29 411.56,-256.75 414.68,-248.74"/>
<polygon fill="#63b8ff" stroke="#63b8ff" points="417.99,-249.88 418.42,-239.29 411.48,-247.31 417.99,-249.88"/>
</a>
</g>
</g>
<!-- Node24 -->
<g id="Node000024" class="node">
<title>Node24</title>
<g id="a_Node000024"><a xlink:href="_percentage_8h.html" target="_top" xlink:title="The Percentage specification and body provides a simple percentage type.">
<polygon fill="white" stroke="#666666" points="606,-294 532,-294 532,-275 606,-275 606,-294"/>
<text text-anchor="middle" x="569" y="-282" font-family="Helvetica,sans-Serif" font-size="10.00">Percentage.h</text>
</a>
</g>
</g>
<!-- Node22&#45;&gt;Node24 -->
<g id="edge32_Node000022_Node000024" class="edge">
<title>Node22&#45;&gt;Node24</title>
<g id="a_edge32_Node000022_Node000024"><a xlink:title=" ">
<path fill="none" stroke="#63b8ff" d="M415.4,-329.98C446.39,-321.01 495.38,-306.82 529.67,-296.89"/>
<polygon fill="#63b8ff" stroke="#63b8ff" points="530.74,-300.23 539.37,-294.08 528.79,-293.5 530.74,-300.23"/>
</a>
</g>
</g>
<!-- Node23&#45;&gt;Node10 -->
<g id="edge31_Node000023_Node000010" class="edge">
<title>Node23&#45;&gt;Node10</title>
<g id="a_edge31_Node000023_Node000010"><a xlink:title=" ">
<path fill="none" stroke="#63b8ff" d="M421.83,-219.75C421.7,-212.8 421.52,-202.85 421.35,-194.13"/>
<polygon fill="#63b8ff" stroke="#63b8ff" points="424.85,-194.02 421.16,-184.09 417.85,-194.15 424.85,-194.02"/>
</a>
</g>
</g>
<!-- Node23&#45;&gt;Node11 -->
<g id="edge30_Node000023_Node000011" class="edge">
<title>Node23&#45;&gt;Node11</title>
<g id="a_edge30_Node000023_Node000011"><a xlink:title=" ">
<path fill="none" stroke="#63b8ff" d="M410.77,-219.87C391.47,-204.24 352.67,-169.13 338,-129 331.41,-110.97 345.74,-92.81 359.23,-80.56"/>
<polygon fill="#63b8ff" stroke="#63b8ff" points="361.53,-83.2 366.91,-74.07 357.02,-77.85 361.53,-83.2"/>
</a>
</g>
</g>
<!-- Node25 -->
<g id="Node000025" class="node">
<title>Node25</title>
<g id="a_Node000025"><a xlink:href="_real_8h.html" target="_top" xlink:title="The Real specification defines a value object type for real values.">
<polygon fill="white" stroke="#666666" points="519,-239 475,-239 475,-220 519,-220 519,-239"/>
<text text-anchor="middle" x="497" y="-227" font-family="Helvetica,sans-Serif" font-size="10.00">Real.h</text>
</a>
</g>
</g>
<!-- Node24&#45;&gt;Node25 -->
<g id="edge33_Node000024_Node000025" class="edge">
<title>Node24&#45;&gt;Node25</title>
<g id="a_edge33_Node000024_Node000025"><a xlink:title=" ">
<path fill="none" stroke="#63b8ff" d="M557.43,-274.98C546.58,-267 530.12,-254.88 517.12,-245.31"/>
<polygon fill="#63b8ff" stroke="#63b8ff" points="518.91,-242.28 508.78,-239.17 514.76,-247.92 518.91,-242.28"/>
</a>
</g>
</g>
<!-- Node26 -->
<g id="Node000026" class="node">
<title>Node26</title>
<g id="a_Node000026"><a xlink:href="_integer_8h.html" target="_top" xlink:title="The Integer specification and body provides a value object type for ints.">
<polygon fill="white" stroke="#666666" points="524,-184 470,-184 470,-165 524,-165 524,-184"/>
<text text-anchor="middle" x="497" y="-172" font-family="Helvetica,sans-Serif" font-size="10.00">Integer.h</text>
</a>
</g>
</g>
<!-- Node25&#45;&gt;Node26 -->
<g id="edge34_Node000025_Node000026" class="edge">
<title>Node25&#45;&gt;Node26</title>
<g id="a_edge34_Node000025_Node000026"><a xlink:title=" ">
<path fill="none" stroke="#63b8ff" d="M497,-219.75C497,-212.8 497,-202.85 497,-194.13"/>
<polygon fill="#63b8ff" stroke="#63b8ff" points="500.5,-194.09 497,-184.09 493.5,-194.09 500.5,-194.09"/>
</a>
</g>
</g>
<!-- Node26&#45;&gt;Node3 -->
<g id="edge36_Node000026_Node000003" class="edge">
<title>Node26&#45;&gt;Node3</title>
<g id="a_edge36_Node000026_Node000003"><a xlink:title=" ">
<path fill="none" stroke="#63b8ff" d="M492.22,-164.92C480.37,-144.17 447.82,-90.41 410,-55 397.24,-43.06 380.95,-32.16 367.63,-24.14"/>
<polygon fill="#63b8ff" stroke="#63b8ff" points="369.36,-21.09 358.96,-19.06 365.82,-27.14 369.36,-21.09"/>
</a>
</g>
</g>
<!-- Node26&#45;&gt;Node11 -->
<g id="edge35_Node000026_Node000011" class="edge">
<title>Node26&#45;&gt;Node11</title>
<g id="a_edge35_Node000026_Node000011"><a xlink:title=" ">
<path fill="none" stroke="#63b8ff" d="M487.34,-164.66C467.36,-146.38 421.26,-104.18 396.12,-81.17"/>
<polygon fill="#63b8ff" stroke="#63b8ff" points="398.2,-78.33 388.46,-74.16 393.47,-83.49 398.2,-78.33"/>
</a>
</g>
</g>
<!-- Node26&#45;&gt;Node13 -->
<g id="edge37_Node000026_Node000013" class="edge">
<title>Node26&#45;&gt;Node13</title>
<g id="a_edge37_Node000026_Node000013"><a xlink:title=" ">
<path fill="none" stroke="#63b8ff" d="M469.89,-168.28C464,-167.18 457.79,-166.03 452,-165 371.14,-150.6 276.2,-135.04 224.44,-126.67"/>
<polygon fill="#63b8ff" stroke="#63b8ff" points="224.81,-123.19 214.38,-125.05 223.69,-130.1 224.81,-123.19"/>
</a>
</g>
</g>
<!-- Node27&#45;&gt;Node13 -->
<g id="edge40_Node000027_Node000013" class="edge">
<title>Node27&#45;&gt;Node13</title>
<g id="a_edge40_Node000027_Node000013"><a xlink:title=" ">
<path fill="none" stroke="#63b8ff" d="M300.27,-389.41C273.83,-384.29 235.78,-373.06 212,-349 155.32,-291.65 171.89,-182.58 181.41,-139.08"/>
<polygon fill="#63b8ff" stroke="#63b8ff" points="184.88,-139.61 183.74,-129.08 178.06,-138.03 184.88,-139.61"/>
</a>
</g>
</g>
<!-- Node28 -->
<g id="Node000028" class="node">
<title>Node28</title>
<g id="a_Node000028"><a xlink:href="_midi_event_list_8h.html" target="_top" xlink:title="The MidiEventList specification defines lists of MIDI events with zero&#45;based arbitrary indexed access...">
<polygon fill="white" stroke="#666666" points="789.5,-349 706.5,-349 706.5,-330 789.5,-330 789.5,-349"/>
<text text-anchor="middle" x="748" y="-337" font-family="Helvetica,sans-Serif" font-size="10.00">MidiEventList.h</text>
</a>
</g>
</g>
<!-- Node27&#45;&gt;Node28 -->
<g id="edge41_Node000027_Node000028" class="edge">
<title>Node27&#45;&gt;Node28</title>
<g id="a_edge41_Node000027_Node000028"><a xlink:title=" ">
<path fill="none" stroke="#63b8ff" d="M359.73,-389.73C430.15,-380.8 607.84,-358.27 696.31,-347.05"/>
<polygon fill="#63b8ff" stroke="#63b8ff" points="696.9,-350.51 706.38,-345.78 696.02,-343.56 696.9,-350.51"/>
</a>
</g>
</g>
<!-- Node28&#45;&gt;Node16 -->
<g id="edge42_Node000028_Node000016" class="edge">
<title>Node28&#45;&gt;Node16</title>
<g id="a_edge42_Node000028_Node000016"><a xlink:title=" ">
<path fill="none" stroke="#63b8ff" d="M750.78,-329.72C753.51,-320.81 757.59,-306.57 760,-294 770.66,-238.3 776.42,-171.38 778.75,-139.37"/>
<polygon fill="#63b8ff" stroke="#63b8ff" points="782.25,-139.45 779.45,-129.23 775.27,-138.97 782.25,-139.45"/>
</a>
</g>
</g>
<!-- Node28&#45;&gt;Node17 -->
<g id="edge43_Node000028_Node000017" class="edge">
<title>Node28&#45;&gt;Node17</title>
<g id="a_edge43_Node000028_Node000017"><a xlink:title=" ">
<path fill="none" stroke="#63b8ff" d="M758.02,-329.95C782.64,-308.33 846.27,-248.54 876,-184 882.52,-169.85 885.2,-152.31 886.29,-139.25"/>
<polygon fill="#63b8ff" stroke="#63b8ff" points="889.79,-139.32 886.9,-129.13 882.8,-138.9 889.79,-139.32"/>
</a>
</g>
</g>
<!-- Node29 -->
<g id="Node000029" class="node">
<title>Node29</title>
<g id="a_Node000029"><a xlink:href="_midi_event_8h.html" target="_top" xlink:title="The MidiEvent specification defines a single MIDI event and the MIDI event kind enumeration.">
<polygon fill="white" stroke="#666666" points="750.5,-294 683.5,-294 683.5,-275 750.5,-275 750.5,-294"/>
<text text-anchor="middle" x="717" y="-282" font-family="Helvetica,sans-Serif" font-size="10.00">MidiEvent.h</text>
</a>
</g>
</g>
<!-- Node28&#45;&gt;Node29 -->
<g id="edge44_Node000028_Node000029" class="edge">
<title>Node28&#45;&gt;Node29</title>
<g id="a_edge44_Node000028_Node000029"><a xlink:title=" ">
<path fill="none" stroke="#63b8ff" d="M742.88,-329.75C738.64,-322.49 732.47,-311.95 727.22,-302.98"/>
<polygon fill="#63b8ff" stroke="#63b8ff" points="730.09,-300.95 722.02,-294.09 724.05,-304.49 730.09,-300.95"/>
</a>
</g>
</g>
<!-- Node29&#45;&gt;Node6 -->
<g id="edge45_Node000029_Node000006" class="edge">
<title>Node29&#45;&gt;Node6</title>
<g id="a_edge45_Node000029_Node000006"><a xlink:title=" ">
<path fill="none" stroke="#63b8ff" d="M683.24,-276.58C680.12,-276.02 677.01,-275.48 674,-275 546.75,-254.69 510.96,-260.77 380.18,-239.05"/>
<polygon fill="#63b8ff" stroke="#63b8ff" points="380.62,-235.58 370.18,-237.37 379.46,-242.48 380.62,-235.58"/>
</a>
</g>
</g>
<!-- Node29&#45;&gt;Node9 -->
<g id="edge47_Node000029_Node000009" class="edge">
<title>Node29&#45;&gt;Node9</title>
<g id="a_edge47_Node000029_Node000009"><a xlink:title=" ">
<path fill="none" stroke="#63b8ff" d="M697.56,-274.98C678.01,-266.42 647.62,-253.11 625.18,-243.28"/>
<polygon fill="#63b8ff" stroke="#63b8ff" points="626.36,-239.98 615.79,-239.17 623.55,-246.39 626.36,-239.98"/>
</a>
</g>
</g>
<!-- Node29&#45;&gt;Node18 -->
<g id="edge48_Node000029_Node000018" class="edge">
<title>Node29&#45;&gt;Node18</title>
<g id="a_edge48_Node000029_Node000018"><a xlink:title=" ">
<path fill="none" stroke="#63b8ff" d="M709.4,-274.75C702.84,-267.18 693.18,-256.05 685.19,-246.84"/>
<polygon fill="#63b8ff" stroke="#63b8ff" points="687.65,-244.35 678.45,-239.09 682.37,-248.94 687.65,-244.35"/>
</a>
</g>
</g>
<!-- Node29&#45;&gt;Node26 -->
<g id="edge46_Node000029_Node000026" class="edge">
<title>Node29&#45;&gt;Node26</title>
<g id="a_edge46_Node000029_Node000026"><a xlink:title=" ">
<path fill="none" stroke="#63b8ff" d="M718.43,-274.79C720.12,-261.18 721.13,-234.9 707,-220 683.73,-195.48 587.99,-183.36 534.17,-178.39"/>
<polygon fill="#63b8ff" stroke="#63b8ff" points="534.27,-174.88 524,-177.48 533.65,-181.85 534.27,-174.88"/>
</a>
</g>
</g>
<!-- Node30&#45;&gt;Node15 -->
<g id="edge50_Node000030_Node000015" class="edge">
<title>Node30&#45;&gt;Node15</title>
<g id="a_edge50_Node000030_Node000015"><a xlink:title=" ">
<path fill="none" stroke="#63b8ff" d="M812.86,-384.95C816.09,-352.95 827.52,-239.68 832.09,-194.4"/>
<polygon fill="#63b8ff" stroke="#63b8ff" points="835.6,-194.52 833.12,-184.22 828.63,-193.82 835.6,-194.52"/>
</a>
</g>
</g>
<!-- Node31&#45;&gt;Node6 -->
<g id="edge52_Node000031_Node000006" class="edge">
<title>Node31&#45;&gt;Node6</title>
<g id="a_edge52_Node000031_Node000006"><a xlink:title=" ">
<path fill="none" stroke="#63b8ff" d="M277.56,-329.66C288.83,-311.77 314.5,-271 329.17,-247.69"/>
<polygon fill="#63b8ff" stroke="#63b8ff" points="332.18,-249.49 334.55,-239.16 326.26,-245.76 332.18,-249.49"/>
</a>
</g>
</g>
<!-- Node31&#45;&gt;Node13 -->
<g id="edge55_Node000031_Node000013" class="edge">
<title>Node31&#45;&gt;Node13</title>
<g id="a_edge55_Node000031_Node000013"><a xlink:title=" ">
<path fill="none" stroke="#63b8ff" d="M250.11,-329.96C234.8,-322.78 215.31,-310.94 205,-294 175.12,-244.91 179.08,-173.34 183.15,-139.54"/>
<polygon fill="#63b8ff" stroke="#63b8ff" points="186.66,-139.63 184.53,-129.25 179.73,-138.69 186.66,-139.63"/>
</a>
</g>
</g>
<!-- Node32 -->
<g id="Node000032" class="node">
<title>Node32</title>
<g id="a_Node000032"><a xlink:href="_dictionary_8h.html" target="_top" xlink:title="The Dictionary specification defines maps from string keys to string values.">
<polygon fill="white" stroke="#666666" points="282,-294 214,-294 214,-275 282,-275 282,-294"/>
<text text-anchor="middle" x="248" y="-282" font-family="Helvetica,sans-Serif" font-size="10.00">Dictionary.h</text>
</a>
</g>
</g>
<!-- Node31&#45;&gt;Node32 -->
<g id="edge53_Node000031_Node000032" class="edge">
<title>Node31&#45;&gt;Node32</title>
<g id="a_edge53_Node000031_Node000032"><a xlink:title=" ">
<path fill="none" stroke="#63b8ff" d="M268.04,-329.75C264.79,-322.57 260.08,-312.18 256.05,-303.27"/>
<polygon fill="#63b8ff" stroke="#63b8ff" points="259.2,-301.75 251.89,-294.09 252.83,-304.64 259.2,-301.75"/>
</a>
</g>
</g>
<!-- Node34 -->
<g id="Node000034" class="node">
<title>Node34</title>
<g id="a_Node000034"><a xlink:href="_time_and_duration_8h.html" target="_top" xlink:title="The TimeAndDuration specification and body provides types for time and duration.">
<polygon fill="white" stroke="#666666" points="513.5,-294 414.5,-294 414.5,-275 513.5,-275 513.5,-294"/>
<text text-anchor="middle" x="464" y="-282" font-family="Helvetica,sans-Serif" font-size="10.00">TimeAndDuration.h</text>
</a>
</g>
</g>
<!-- Node31&#45;&gt;Node34 -->
<g id="edge56_Node000031_Node000034" class="edge">
<title>Node31&#45;&gt;Node34</title>
<g id="a_edge56_Node000031_Node000034"><a xlink:title=" ">
<path fill="none" stroke="#63b8ff" d="M302.85,-329.98C335.5,-320.97 387.2,-306.7 423.2,-296.76"/>
<polygon fill="#63b8ff" stroke="#63b8ff" points="424.2,-300.12 432.91,-294.08 422.34,-293.37 424.2,-300.12"/>
</a>
</g>
</g>
<!-- Node33 -->
<g id="Node000033" class="node">
<title>Node33</title>
<g id="a_Node000033"><a xlink:title=" ">
<polygon fill="#e0e0e0" stroke="#999999" points="291.5,-239 214.5,-239 214.5,-220 291.5,-220 291.5,-239"/>
<text text-anchor="middle" x="253" y="-227" font-family="Helvetica,sans-Serif" font-size="10.00">GenericMap.h</text>
</a>
</g>
</g>
<!-- Node32&#45;&gt;Node33 -->
<g id="edge54_Node000032_Node000033" class="edge">
<title>Node32&#45;&gt;Node33</title>
<g id="a_edge54_Node000032_Node000033"><a xlink:title=" ">
<path fill="none" stroke="#63b8ff" d="M248.83,-274.75C249.48,-267.8 250.42,-257.85 251.24,-249.13"/>
<polygon fill="#63b8ff" stroke="#63b8ff" points="254.73,-249.37 252.19,-239.09 247.77,-248.72 254.73,-249.37"/>
</a>
</g>
</g>
<!-- Node34&#45;&gt;Node25 -->
<g id="edge57_Node000034_Node000025" class="edge">
<title>Node34&#45;&gt;Node25</title>
<g id="a_edge57_Node000034_Node000025"><a xlink:title=" ">
<path fill="none" stroke="#63b8ff" d="M469.45,-274.75C474.01,-267.42 480.67,-256.73 486.29,-247.7"/>
<polygon fill="#63b8ff" stroke="#63b8ff" points="489.34,-249.43 491.65,-239.09 483.4,-245.73 489.34,-249.43"/>
</a>
</g>
</g>
</g>
</svg>
