<?xml version="1.0" encoding="UTF-8" standalone="no"?>
<!DOCTYPE svg PUBLIC "-//W3C//DTD SVG 1.1//EN"
 "http://www.w3.org/Graphics/SVG/1.1/DTD/svg11.dtd">
<!-- Generated by graphviz version 2.47.1 (20210417.1919)
 -->
<!-- Title: MidiEventConverter.h Pages: 1 -->
<svg width="534pt" height="86pt"
 viewBox="0.00 0.00 534.00 86.00" xmlns="http://www.w3.org/2000/svg" xmlns:xlink="http://www.w3.org/1999/xlink">
<g id="graph0" class="graph" transform="scale(1 1) rotate(0) translate(4 82)">
<title>MidiEventConverter.h</title>
<polygon fill="white" stroke="transparent" points="-4,4 -4,-82 530,-82 530,4 -4,4"/>
<!-- Node1 -->
<g id="node1" class="node">
<title>Node1</title>
<g id="a_node1"><a xlink:title="The MidiEventConverter specification defines the handling of MIDI events by feeding them to an underl...">
<polygon fill="#bfbfbf" stroke="black" points="214,-57.5 214,-77.5 334,-77.5 334,-57.5 214,-57.5"/>
<text text-anchor="middle" x="274" y="-64.7" font-family="Helvetica,sans-Serif" font-size="11.00">MidiEventConverter.h</text>
</a>
</g>
</g>
<!-- Node2 -->
<g id="node2" class="node">
<title>Node2</title>
<g id="a_node2"><a xlink:href="_fluid_synth_file_converter_8cpp.html" target="_top" xlink:title="The FluidSynthFileConverter module implements a conversion from a MIDI file into a wave file using th...">
<polygon fill="white" stroke="black" points="0,-0.5 0,-20.5 154,-20.5 154,-0.5 0,-0.5"/>
<text text-anchor="middle" x="77" y="-7.7" font-family="Helvetica,sans-Serif" font-size="11.00">FluidSynthFileConverter.cpp</text>
</a>
</g>
</g>
<!-- Node1&#45;&gt;Node2 -->
<g id="edge1" class="edge">
<title>Node1&#45;&gt;Node2</title>
<path fill="none" stroke="midnightblue" d="M231.56,-54.65C194.87,-44.41 142.61,-29.82 109.25,-20.5"/>
<polygon fill="midnightblue" stroke="midnightblue" points="230.9,-58.1 241.47,-57.42 232.78,-51.36 230.9,-58.1"/>
</g>
<!-- Node3 -->
<g id="node3" class="node">
<title>Node3</title>
<g id="a_node3"><a xlink:href="_fluid_synth_plugin___event_processor_8cpp.html" target="_top" xlink:title="The FluidSynthPlugin_Processor module implements the handling of MIDI events from the DAW via JUCE ha...">
<polygon fill="white" stroke="black" points="172.5,-0.5 172.5,-20.5 375.5,-20.5 375.5,-0.5 172.5,-0.5"/>
<text text-anchor="middle" x="274" y="-7.7" font-family="Helvetica,sans-Serif" font-size="11.00">FluidSynthPlugin_EventProcessor.cpp</text>
</a>
</g>
</g>
<!-- Node1&#45;&gt;Node3 -->
<g id="edge2" class="edge">
<title>Node1&#45;&gt;Node3</title>
<path fill="none" stroke="midnightblue" d="M274,-47.38C274,-38.37 274,-28.04 274,-20.78"/>
<polygon fill="midnightblue" stroke="midnightblue" points="270.5,-47.42 274,-57.42 277.5,-47.42 270.5,-47.42"/>
</g>
<!-- Node4 -->
<g id="node4" class="node">
<title>Node4</title>
<g id="a_node4"><a xlink:href="_midi_event_converter_8cpp.html" target="_top" xlink:title="The MidiEventConverter module implements the handling of MIDI events by feeding them to an underlying...">
<polygon fill="white" stroke="black" points="394,-0.5 394,-20.5 526,-20.5 526,-0.5 394,-0.5"/>
<text text-anchor="middle" x="460" y="-7.7" font-family="Helvetica,sans-Serif" font-size="11.00">MidiEventConverter.cpp</text>
</a>
</g>
</g>
<!-- Node1&#45;&gt;Node4 -->
<g id="edge3" class="edge">
<title>Node1&#45;&gt;Node4</title>
<path fill="none" stroke="midnightblue" d="M314.51,-54.52C349.14,-44.28 398.19,-29.78 429.55,-20.5"/>
<polygon fill="midnightblue" stroke="midnightblue" points="313.31,-51.23 304.71,-57.42 315.3,-57.94 313.31,-51.23"/>
</g>
</g>
</svg>
