<?xml version="1.0" encoding="UTF-8" standalone="no"?>
<!DOCTYPE svg PUBLIC "-//W3C//DTD SVG 1.1//EN"
 "http://www.w3.org/Graphics/SVG/1.1/DTD/svg11.dtd">
<!-- Generated by graphviz version 2.47.1 (20210417.1919)
 -->
<!-- Title: MidiPresetIdentification.cpp Pages: 1 -->
<!--zoomable 476 -->
<svg id="main" version="1.1" xmlns="http://www.w3.org/2000/svg" xmlns:xlink="http://www.w3.org/1999/xlink" xml:space="preserve" onload="init(evt)">
<style type="text/css"><![CDATA[
.edge:hover path { stroke: red; }
.edge:hover polygon { stroke: red; fill: red; }
]]></style>
<script type="text/javascript"><![CDATA[
var edges = document.getElementsByTagName('g');
if (edges && edges.length) {
  for (var i=0;i<edges.length;i++) {
    if (edges[i].id.substr(0,4)=='edge') {
      edges[i].setAttribute('class','edge');
    }
  }
}
]]></script>
        <defs>
                <circle id="rim" cx="0" cy="0" r="7"/>
                <circle id="rim2" cx="0" cy="0" r="3.5"/>
                <g id="zoomPlus">
                        <use xlink:href="#rim" fill="#404040">
                                <set attributeName="fill" to="#808080" begin="zoomplus.mouseover" end="zoomplus.mouseout"/>
                        </use>
                        <path d="M-4,0h8M0,-4v8" fill="none" stroke="white" stroke-width="1.5" pointer-events="none"/>
                </g>
                <g id="zoomMin">
                        <use xlink:href="#rim" fill="#404040">
                                <set attributeName="fill" to="#808080" begin="zoomminus.mouseover" end="zoomminus.mouseout"/>
                        </use>
                        <path d="M-4,0h8" fill="none" stroke="white" stroke-width="1.5" pointer-events="none"/>
                </g>
                <g id="dirArrow">
                        <path fill="none" stroke="white" stroke-width="1.5" d="M0,-3.0v7 M-2.5,-0.5L0,-3.0L2.5,-0.5"/>
                </g>
               <g id="resetDef">
                       <use xlink:href="#rim2" fill="#404040">
                               <set attributeName="fill" to="#808080" begin="reset.mouseover" end="reset.mouseout"/>
                       </use>
               </g>
        </defs>

<script type="text/javascript">
var viewWidth = 588;
var viewHeight = 476;
var sectionId = 'dynsection-0';
</script>
<script xlink:href="svgpan.js"/>
<svg id="graph" class="graph">
<g id="viewport">
<title>MidiPresetIdentification.cpp</title>
<polygon fill="white" stroke="transparent" points="-4,4 -4,-472 584,-472 584,4 -4,4"/>
<!-- Node1 -->
<g id="node1" class="node">
<title>Node1</title>
<g id="a_node1"><a xlink:title="The MidiPresetIdentification body implements the identification of a MIDI preset as a tuple of bank a...">
<polygon fill="#bfbfbf" stroke="black" points="172.5,-448.5 172.5,-467.5 308.5,-467.5 308.5,-448.5 172.5,-448.5"/>
<text text-anchor="middle" x="240.5" y="-455.5" font-family="Helvetica,sans-Serif" font-size="10.00">MidiPresetIdentification.cpp</text>
</a>
</g>
</g>
<!-- Node2 -->
<g id="node2" class="node">
<title>Node2</title>
<g id="a_node2"><a xlink:href="_logging_8h.html" target="_top" xlink:title="The Logging specification defines macros for entry&#45;, exit&#45; and intermediate logging of functions into...">
<polygon fill="white" stroke="black" points="119,-392.5 119,-411.5 178,-411.5 178,-392.5 119,-392.5"/>
<text text-anchor="middle" x="148.5" y="-399.5" font-family="Helvetica,sans-Serif" font-size="10.00">Logging.h</text>
</a>
</g>
</g>
<!-- Node1&#45;&gt;Node2 -->
<g id="edge1" class="edge">
<title>Node1&#45;&gt;Node2</title>
<path fill="none" stroke="midnightblue" d="M225.72,-448.32C211.23,-439.82 188.93,-426.73 172.01,-416.8"/>
<polygon fill="midnightblue" stroke="midnightblue" points="173.64,-413.7 163.24,-411.65 170.1,-419.74 173.64,-413.7"/>
</g>
<!-- Node14 -->
<g id="node14" class="node">
<title>Node14</title>
<g id="a_node14"><a xlink:href="_string_util_8h.html" target="_top" xlink:title="The StringUtil specification defines several string routines not included in the standard C++ library...">
<polygon fill="white" stroke="black" points="321,-336.5 321,-355.5 386,-355.5 386,-336.5 321,-336.5"/>
<text text-anchor="middle" x="353.5" y="-343.5" font-family="Helvetica,sans-Serif" font-size="10.00">StringUtil.h</text>
</a>
</g>
</g>
<!-- Node1&#45;&gt;Node14 -->
<g id="edge35" class="edge">
<title>Node1&#45;&gt;Node14</title>
<path fill="none" stroke="midnightblue" d="M249.37,-448.37C268.35,-429.89 313.14,-386.29 337.33,-362.74"/>
<polygon fill="midnightblue" stroke="midnightblue" points="339.95,-365.07 344.67,-355.59 335.07,-360.06 339.95,-365.07"/>
</g>
<!-- Node24 -->
<g id="node24" class="node">
<title>Node24</title>
<g id="a_node24"><a xlink:href="_midi_preset_identification_8h.html" target="_top" xlink:title="The MidiPresetIdentification specification defines the identification of a MIDI preset as a tuple of ...">
<polygon fill="white" stroke="black" points="178,-336.5 178,-355.5 303,-355.5 303,-336.5 178,-336.5"/>
<text text-anchor="middle" x="240.5" y="-343.5" font-family="Helvetica,sans-Serif" font-size="10.00">MidiPresetIdentification.h</text>
</a>
</g>
</g>
<!-- Node1&#45;&gt;Node24 -->
<g id="edge32" class="edge">
<title>Node1&#45;&gt;Node24</title>
<path fill="none" stroke="midnightblue" d="M240.5,-448.37C240.5,-430.62 240.5,-389.67 240.5,-365.6"/>
<polygon fill="midnightblue" stroke="midnightblue" points="244,-365.59 240.5,-355.59 237,-365.59 244,-365.59"/>
</g>
<!-- Node3 -->
<g id="node3" class="node">
<title>Node3</title>
<g id="a_node3"><a xlink:title=" ">
<polygon fill="white" stroke="#bfbfbf" points="0,-336.5 0,-355.5 49,-355.5 49,-336.5 0,-336.5"/>
<text text-anchor="middle" x="24.5" y="-343.5" font-family="Helvetica,sans-Serif" font-size="10.00">cstdarg</text>
</a>
</g>
</g>
<!-- Node2&#45;&gt;Node3 -->
<g id="edge2" class="edge">
<title>Node2&#45;&gt;Node3</title>
<path fill="none" stroke="midnightblue" d="M128.85,-392.44C108.54,-383.6 76.6,-369.69 53.4,-359.59"/>
<polygon fill="midnightblue" stroke="midnightblue" points="54.62,-356.3 44.06,-355.52 51.83,-362.72 54.62,-356.3"/>
</g>
<!-- Node4 -->
<g id="node4" class="node">
<title>Node4</title>
<g id="a_node4"><a xlink:href="_logging_support_8h.html" target="_top" xlink:title="The LoggingSupport specification defines a class for simple entry/exit logging to a file or via an ar...">
<polygon fill="white" stroke="black" points="67.5,-336.5 67.5,-355.5 159.5,-355.5 159.5,-336.5 67.5,-336.5"/>
<text text-anchor="middle" x="113.5" y="-343.5" font-family="Helvetica,sans-Serif" font-size="10.00">LoggingSupport.h</text>
</a>
</g>
</g>
<!-- Node2&#45;&gt;Node4 -->
<g id="edge3" class="edge">
<title>Node2&#45;&gt;Node4</title>
<path fill="none" stroke="midnightblue" d="M142.72,-392.08C137.83,-384.53 130.67,-373.49 124.67,-364.23"/>
<polygon fill="midnightblue" stroke="midnightblue" points="127.55,-362.24 119.17,-355.75 121.67,-366.05 127.55,-362.24"/>
</g>
<!-- Node2&#45;&gt;Node14 -->
<g id="edge15" class="edge">
<title>Node2&#45;&gt;Node14</title>
<path fill="none" stroke="midnightblue" d="M178.31,-393.15C213.25,-383.95 271.4,-368.63 311.04,-358.18"/>
<polygon fill="midnightblue" stroke="midnightblue" points="312.17,-361.51 320.94,-355.58 310.38,-354.74 312.17,-361.51"/>
</g>
<!-- Node5 -->
<g id="node5" class="node">
<title>Node5</title>
<g id="a_node5"><a xlink:href="_boolean_8h.html" target="_top" xlink:title="The Boolean specification and body provides a value object type for boolean values.">
<polygon fill="white" stroke="black" points="149.5,-280.5 149.5,-299.5 209.5,-299.5 209.5,-280.5 149.5,-280.5"/>
<text text-anchor="middle" x="179.5" y="-287.5" font-family="Helvetica,sans-Serif" font-size="10.00">Boolean.h</text>
</a>
</g>
</g>
<!-- Node4&#45;&gt;Node5 -->
<g id="edge4" class="edge">
<title>Node4&#45;&gt;Node5</title>
<path fill="none" stroke="midnightblue" d="M124.1,-336.32C133.96,-328.26 148.85,-316.08 160.72,-306.37"/>
<polygon fill="midnightblue" stroke="midnightblue" points="163.18,-308.88 168.7,-299.83 158.75,-303.46 163.18,-308.88"/>
</g>
<!-- Node9 -->
<g id="node9" class="node">
<title>Node9</title>
<g id="a_node9"><a xlink:href="_natural_8h.html" target="_top" xlink:title="The Natural specification and body provides a value object type for naturals (positive integers with ...">
<polygon fill="white" stroke="black" points="261.5,-112.5 261.5,-131.5 317.5,-131.5 317.5,-112.5 261.5,-112.5"/>
<text text-anchor="middle" x="289.5" y="-119.5" font-family="Helvetica,sans-Serif" font-size="10.00">Natural.h</text>
</a>
</g>
</g>
<!-- Node4&#45;&gt;Node9 -->
<g id="edge8" class="edge">
<title>Node4&#45;&gt;Node9</title>
<path fill="none" stroke="midnightblue" d="M116.06,-336.09C120.03,-323.08 128.51,-298.44 140.5,-280 178.88,-220.97 240.91,-164.24 271.4,-138.07"/>
<polygon fill="midnightblue" stroke="midnightblue" points="273.75,-140.66 279.12,-131.52 269.23,-135.32 273.75,-140.66"/>
</g>
<!-- Node6 -->
<g id="node6" class="node">
<title>Node6</title>
<g id="a_node6"><a xlink:href="_my_string_8h.html" target="_top" xlink:title="The String specification defines a standard string type.">
<polygon fill="white" stroke="black" points="78.5,-56.5 78.5,-75.5 142.5,-75.5 142.5,-56.5 78.5,-56.5"/>
<text text-anchor="middle" x="110.5" y="-63.5" font-family="Helvetica,sans-Serif" font-size="10.00">MyString.h</text>
</a>
</g>
</g>
<!-- Node5&#45;&gt;Node6 -->
<g id="edge5" class="edge">
<title>Node5&#45;&gt;Node6</title>
<path fill="none" stroke="midnightblue" d="M176.8,-280.3C166.62,-247.56 130.51,-131.38 116.3,-85.67"/>
<polygon fill="midnightblue" stroke="midnightblue" points="119.57,-84.39 113.26,-75.88 112.89,-86.47 119.57,-84.39"/>
</g>
<!-- Node7 -->
<g id="node7" class="node">
<title>Node7</title>
<g id="a_node7"><a xlink:title=" ">
<polygon fill="white" stroke="#bfbfbf" points="172,-0.5 172,-19.5 213,-19.5 213,-0.5 172,-0.5"/>
<text text-anchor="middle" x="192.5" y="-7.5" font-family="Helvetica,sans-Serif" font-size="10.00">string</text>
</a>
</g>
</g>
<!-- Node6&#45;&gt;Node7 -->
<g id="edge6" class="edge">
<title>Node6&#45;&gt;Node7</title>
<path fill="none" stroke="midnightblue" d="M123.67,-56.32C136.35,-47.98 155.73,-35.21 170.71,-25.35"/>
<polygon fill="midnightblue" stroke="midnightblue" points="172.93,-28.08 179.36,-19.65 169.08,-22.23 172.93,-28.08"/>
</g>
<!-- Node8 -->
<g id="node8" class="node">
<title>Node8</title>
<g id="a_node8"><a xlink:href="_global_macros_8h.html" target="_top" xlink:title="The GlobalMacros specification defines simple macros (e.g. for parameter modes).">
<polygon fill="white" stroke="black" points="68,-0.5 68,-19.5 153,-19.5 153,-0.5 68,-0.5"/>
<text text-anchor="middle" x="110.5" y="-7.5" font-family="Helvetica,sans-Serif" font-size="10.00">GlobalMacros.h</text>
</a>
</g>
</g>
<!-- Node6&#45;&gt;Node8 -->
<g id="edge7" class="edge">
<title>Node6&#45;&gt;Node8</title>
<path fill="none" stroke="midnightblue" d="M110.5,-56.08C110.5,-49.01 110.5,-38.86 110.5,-29.99"/>
<polygon fill="midnightblue" stroke="midnightblue" points="114,-29.75 110.5,-19.75 107,-29.75 114,-29.75"/>
</g>
<!-- Node9&#45;&gt;Node6 -->
<g id="edge14" class="edge">
<title>Node9&#45;&gt;Node6</title>
<path fill="none" stroke="midnightblue" d="M261.14,-112.44C230.76,-103.28 182.39,-88.69 148.68,-78.52"/>
<polygon fill="midnightblue" stroke="midnightblue" points="149.32,-75.05 138.73,-75.52 147.29,-81.76 149.32,-75.05"/>
</g>
<!-- Node10 -->
<g id="node10" class="node">
<title>Node10</title>
<g id="a_node10"><a xlink:title=" ">
<polygon fill="white" stroke="#bfbfbf" points="405.5,-56.5 405.5,-75.5 449.5,-75.5 449.5,-56.5 405.5,-56.5"/>
<text text-anchor="middle" x="427.5" y="-63.5" font-family="Helvetica,sans-Serif" font-size="10.00">cmath</text>
</a>
</g>
</g>
<!-- Node9&#45;&gt;Node10 -->
<g id="edge9" class="edge">
<title>Node9&#45;&gt;Node10</title>
<path fill="none" stroke="midnightblue" d="M311.37,-112.44C334.28,-103.48 370.48,-89.31 396.37,-79.18"/>
<polygon fill="midnightblue" stroke="midnightblue" points="397.7,-82.42 405.74,-75.52 395.15,-75.9 397.7,-82.42"/>
</g>
<!-- Node11 -->
<g id="node11" class="node">
<title>Node11</title>
<g id="a_node11"><a xlink:href="_assertion_8h.html" target="_top" xlink:title="The Assertion specification defines macros for pre&#45; and postconditions in functions or methods.">
<polygon fill="white" stroke="black" points="160.5,-56.5 160.5,-75.5 226.5,-75.5 226.5,-56.5 160.5,-56.5"/>
<text text-anchor="middle" x="193.5" y="-63.5" font-family="Helvetica,sans-Serif" font-size="10.00">Assertion.h</text>
</a>
</g>
</g>
<!-- Node9&#45;&gt;Node11 -->
<g id="edge10" class="edge">
<title>Node9&#45;&gt;Node11</title>
<path fill="none" stroke="midnightblue" d="M274.08,-112.32C258.96,-103.82 235.68,-90.73 218.03,-80.8"/>
<polygon fill="midnightblue" stroke="midnightblue" points="219.32,-77.51 208.89,-75.65 215.89,-83.61 219.32,-77.51"/>
</g>
<!-- Node13 -->
<g id="node13" class="node">
<title>Node13</title>
<g id="a_node13"><a xlink:title=" ">
<polygon fill="white" stroke="#bfbfbf" points="244.5,-56.5 244.5,-75.5 336.5,-75.5 336.5,-56.5 244.5,-56.5"/>
<text text-anchor="middle" x="290.5" y="-63.5" font-family="Helvetica,sans-Serif" font-size="10.00">GenericNumber.h</text>
</a>
</g>
</g>
<!-- Node9&#45;&gt;Node13 -->
<g id="edge13" class="edge">
<title>Node9&#45;&gt;Node13</title>
<path fill="none" stroke="midnightblue" d="M289.67,-112.08C289.8,-105.01 289.98,-94.86 290.15,-85.99"/>
<polygon fill="midnightblue" stroke="midnightblue" points="293.65,-85.81 290.34,-75.75 286.65,-85.68 293.65,-85.81"/>
</g>
<!-- Node11&#45;&gt;Node7 -->
<g id="edge12" class="edge">
<title>Node11&#45;&gt;Node7</title>
<path fill="none" stroke="midnightblue" d="M193.33,-56.08C193.2,-49.01 193.02,-38.86 192.85,-29.99"/>
<polygon fill="midnightblue" stroke="midnightblue" points="196.35,-29.68 192.66,-19.75 189.35,-29.81 196.35,-29.68"/>
</g>
<!-- Node12 -->
<g id="node12" class="node">
<title>Node12</title>
<g id="a_node12"><a xlink:title=" ">
<polygon fill="white" stroke="#bfbfbf" points="283,-0.5 283,-19.5 342,-19.5 342,-0.5 283,-0.5"/>
<text text-anchor="middle" x="312.5" y="-7.5" font-family="Helvetica,sans-Serif" font-size="10.00">stdexcept</text>
</a>
</g>
</g>
<!-- Node11&#45;&gt;Node12 -->
<g id="edge11" class="edge">
<title>Node11&#45;&gt;Node12</title>
<path fill="none" stroke="midnightblue" d="M212.36,-56.44C231.77,-47.64 262.23,-33.81 284.46,-23.72"/>
<polygon fill="midnightblue" stroke="midnightblue" points="286.07,-26.84 293.73,-19.52 283.18,-20.46 286.07,-26.84"/>
</g>
<!-- Node14&#45;&gt;Node5 -->
<g id="edge16" class="edge">
<title>Node14&#45;&gt;Node5</title>
<path fill="none" stroke="midnightblue" d="M325.93,-336.44C296.4,-327.28 249.38,-312.69 216.62,-302.52"/>
<polygon fill="midnightblue" stroke="midnightblue" points="217.53,-299.14 206.94,-299.52 215.46,-305.82 217.53,-299.14"/>
</g>
<!-- Node15 -->
<g id="node15" class="node">
<title>Node15</title>
<g id="a_node15"><a xlink:href="_character_8h.html" target="_top" xlink:title="The Character specification and body provides a value object type for character values.">
<polygon fill="white" stroke="black" points="513,-224.5 513,-243.5 580,-243.5 580,-224.5 513,-224.5"/>
<text text-anchor="middle" x="546.5" y="-231.5" font-family="Helvetica,sans-Serif" font-size="10.00">Character.h</text>
</a>
</g>
</g>
<!-- Node14&#45;&gt;Node15 -->
<g id="edge17" class="edge">
<title>Node14&#45;&gt;Node15</title>
<path fill="none" stroke="midnightblue" d="M368.86,-336.42C384.99,-327.39 411.06,-312.76 433.5,-300 464.45,-282.39 500.04,-261.88 522.87,-248.68"/>
<polygon fill="midnightblue" stroke="midnightblue" points="524.63,-251.7 531.54,-243.67 521.13,-245.64 524.63,-251.7"/>
</g>
<!-- Node18 -->
<g id="node18" class="node">
<title>Node18</title>
<g id="a_node18"><a xlink:href="_percentage_8h.html" target="_top" xlink:title="The Percentage specification and body provides a simple percentage type.">
<polygon fill="white" stroke="black" points="266.5,-280.5 266.5,-299.5 340.5,-299.5 340.5,-280.5 266.5,-280.5"/>
<text text-anchor="middle" x="303.5" y="-287.5" font-family="Helvetica,sans-Serif" font-size="10.00">Percentage.h</text>
</a>
</g>
</g>
<!-- Node14&#45;&gt;Node18 -->
<g id="edge23" class="edge">
<title>Node14&#45;&gt;Node18</title>
<path fill="none" stroke="midnightblue" d="M345.24,-336.08C338.04,-328.3 327.39,-316.8 318.65,-307.37"/>
<polygon fill="midnightblue" stroke="midnightblue" points="320.97,-304.71 311.6,-299.75 315.83,-309.47 320.97,-304.71"/>
</g>
<!-- Node21 -->
<g id="node21" class="node">
<title>Node21</title>
<g id="a_node21"><a xlink:href="_string_list_8h.html" target="_top" xlink:title="The StringList specification defines lists of string values with zero&#45;based arbitrary indexed access ...">
<polygon fill="white" stroke="black" points="358.5,-280.5 358.5,-299.5 424.5,-299.5 424.5,-280.5 358.5,-280.5"/>
<text text-anchor="middle" x="391.5" y="-287.5" font-family="Helvetica,sans-Serif" font-size="10.00">StringList.h</text>
</a>
</g>
</g>
<!-- Node14&#45;&gt;Node21 -->
<g id="edge29" class="edge">
<title>Node14&#45;&gt;Node21</title>
<path fill="none" stroke="midnightblue" d="M359.77,-336.08C365.14,-328.46 373.02,-317.26 379.58,-307.94"/>
<polygon fill="midnightblue" stroke="midnightblue" points="382.45,-309.94 385.34,-299.75 376.72,-305.91 382.45,-309.94"/>
</g>
<!-- Node15&#45;&gt;Node10 -->
<g id="edge18" class="edge">
<title>Node15&#45;&gt;Node10</title>
<path fill="none" stroke="midnightblue" d="M547.35,-224.32C548.97,-202.83 550.25,-146.46 523.5,-112 507.81,-91.79 480.86,-80.26 459.5,-73.94"/>
<polygon fill="midnightblue" stroke="midnightblue" points="460.41,-70.56 449.84,-71.32 458.57,-77.32 460.41,-70.56"/>
</g>
<!-- Node16 -->
<g id="node16" class="node">
<title>Node16</title>
<g id="a_node16"><a xlink:href="_byte_8h.html" target="_top" xlink:title="The Byte specification and body provides a value object type for byte values.">
<polygon fill="white" stroke="black" points="443,-168.5 443,-187.5 488,-187.5 488,-168.5 443,-168.5"/>
<text text-anchor="middle" x="465.5" y="-175.5" font-family="Helvetica,sans-Serif" font-size="10.00">Byte.h</text>
</a>
</g>
</g>
<!-- Node15&#45;&gt;Node16 -->
<g id="edge19" class="edge">
<title>Node15&#45;&gt;Node16</title>
<path fill="none" stroke="midnightblue" d="M533.49,-224.32C520.97,-215.98 501.82,-203.21 487.03,-193.35"/>
<polygon fill="midnightblue" stroke="midnightblue" points="488.74,-190.29 478.48,-187.65 484.86,-196.11 488.74,-190.29"/>
</g>
<!-- Node16&#45;&gt;Node9 -->
<g id="edge22" class="edge">
<title>Node16&#45;&gt;Node9</title>
<path fill="none" stroke="midnightblue" d="M442.85,-170.05C413.61,-161.08 362.33,-145.35 327.18,-134.56"/>
<polygon fill="midnightblue" stroke="midnightblue" points="327.86,-131.11 317.28,-131.52 325.81,-137.8 327.86,-131.11"/>
</g>
<!-- Node16&#45;&gt;Node10 -->
<g id="edge20" class="edge">
<title>Node16&#45;&gt;Node10</title>
<path fill="none" stroke="midnightblue" d="M462.52,-168.37C456.36,-150.54 442.11,-109.3 433.81,-85.27"/>
<polygon fill="midnightblue" stroke="midnightblue" points="437.04,-83.9 430.47,-75.59 430.43,-86.19 437.04,-83.9"/>
</g>
<!-- Node17 -->
<g id="node17" class="node">
<title>Node17</title>
<g id="a_node17"><a xlink:title=" ">
<polygon fill="white" stroke="#bfbfbf" points="468.5,-112.5 468.5,-131.5 514.5,-131.5 514.5,-112.5 468.5,-112.5"/>
<text text-anchor="middle" x="491.5" y="-119.5" font-family="Helvetica,sans-Serif" font-size="10.00">cstdint</text>
</a>
</g>
</g>
<!-- Node16&#45;&gt;Node17 -->
<g id="edge21" class="edge">
<title>Node16&#45;&gt;Node17</title>
<path fill="none" stroke="midnightblue" d="M469.79,-168.08C473.35,-160.69 478.52,-149.95 482.92,-140.81"/>
<polygon fill="midnightblue" stroke="midnightblue" points="486.1,-142.28 487.29,-131.75 479.79,-139.24 486.1,-142.28"/>
</g>
<!-- Node19 -->
<g id="node19" class="node">
<title>Node19</title>
<g id="a_node19"><a xlink:href="_real_8h.html" target="_top" xlink:title="The Real specification defines a value object type for real values.">
<polygon fill="white" stroke="black" points="266.5,-224.5 266.5,-243.5 310.5,-243.5 310.5,-224.5 266.5,-224.5"/>
<text text-anchor="middle" x="288.5" y="-231.5" font-family="Helvetica,sans-Serif" font-size="10.00">Real.h</text>
</a>
</g>
</g>
<!-- Node18&#45;&gt;Node19 -->
<g id="edge24" class="edge">
<title>Node18&#45;&gt;Node19</title>
<path fill="none" stroke="midnightblue" d="M301.02,-280.08C299.01,-272.85 296.11,-262.41 293.61,-253.4"/>
<polygon fill="midnightblue" stroke="midnightblue" points="296.98,-252.45 290.93,-243.75 290.24,-254.32 296.98,-252.45"/>
</g>
<!-- Node20 -->
<g id="node20" class="node">
<title>Node20</title>
<g id="a_node20"><a xlink:href="_integer_8h.html" target="_top" xlink:title="The Integer specification and body provides a value object type for ints.">
<polygon fill="white" stroke="black" points="262.5,-168.5 262.5,-187.5 316.5,-187.5 316.5,-168.5 262.5,-168.5"/>
<text text-anchor="middle" x="289.5" y="-175.5" font-family="Helvetica,sans-Serif" font-size="10.00">Integer.h</text>
</a>
</g>
</g>
<!-- Node19&#45;&gt;Node20 -->
<g id="edge25" class="edge">
<title>Node19&#45;&gt;Node20</title>
<path fill="none" stroke="midnightblue" d="M288.67,-224.08C288.8,-217.01 288.98,-206.86 289.15,-197.99"/>
<polygon fill="midnightblue" stroke="midnightblue" points="292.65,-197.81 289.34,-187.75 285.65,-197.68 292.65,-197.81"/>
</g>
<!-- Node20&#45;&gt;Node9 -->
<g id="edge28" class="edge">
<title>Node20&#45;&gt;Node9</title>
<path fill="none" stroke="midnightblue" d="M289.5,-168.08C289.5,-161.01 289.5,-150.86 289.5,-141.99"/>
<polygon fill="midnightblue" stroke="midnightblue" points="293,-141.75 289.5,-131.75 286,-141.75 293,-141.75"/>
</g>
<!-- Node20&#45;&gt;Node10 -->
<g id="edge26" class="edge">
<title>Node20&#45;&gt;Node10</title>
<path fill="none" stroke="midnightblue" d="M313.55,-168.35C332.53,-160.74 358.98,-148.33 378.5,-132 394.71,-118.45 408.7,-98.56 417.53,-84.35"/>
<polygon fill="midnightblue" stroke="midnightblue" points="420.65,-85.95 422.79,-75.57 414.65,-82.36 420.65,-85.95"/>
</g>
<!-- Node20&#45;&gt;Node12 -->
<g id="edge27" class="edge">
<title>Node20&#45;&gt;Node12</title>
<path fill="none" stroke="midnightblue" d="M298.2,-168.41C306.46,-159.83 318.73,-145.97 326.5,-132 339.28,-109.03 341.22,-101.93 345.5,-76 346.95,-67.23 348.27,-64.45 345.5,-56 342.01,-45.34 334.93,-35.12 328.21,-27.12"/>
<polygon fill="midnightblue" stroke="midnightblue" points="330.8,-24.76 321.52,-19.66 325.6,-29.44 330.8,-24.76"/>
</g>
<!-- Node22 -->
<g id="node22" class="node">
<title>Node22</title>
<g id="a_node22"><a xlink:title=" ">
<polygon fill="white" stroke="#bfbfbf" points="329,-224.5 329,-243.5 402,-243.5 402,-224.5 329,-224.5"/>
<text text-anchor="middle" x="365.5" y="-231.5" font-family="Helvetica,sans-Serif" font-size="10.00">initializer_list</text>
</a>
</g>
</g>
<!-- Node21&#45;&gt;Node22 -->
<g id="edge30" class="edge">
<title>Node21&#45;&gt;Node22</title>
<path fill="none" stroke="midnightblue" d="M387.21,-280.08C383.65,-272.69 378.48,-261.95 374.08,-252.81"/>
<polygon fill="midnightblue" stroke="midnightblue" points="377.21,-251.24 369.71,-243.75 370.9,-254.28 377.21,-251.24"/>
</g>
<!-- Node23 -->
<g id="node23" class="node">
<title>Node23</title>
<g id="a_node23"><a xlink:title=" ">
<polygon fill="white" stroke="#bfbfbf" points="420.5,-224.5 420.5,-243.5 494.5,-243.5 494.5,-224.5 420.5,-224.5"/>
<text text-anchor="middle" x="457.5" y="-231.5" font-family="Helvetica,sans-Serif" font-size="10.00">GenericList.h</text>
</a>
</g>
</g>
<!-- Node21&#45;&gt;Node23 -->
<g id="edge31" class="edge">
<title>Node21&#45;&gt;Node23</title>
<path fill="none" stroke="midnightblue" d="M402.1,-280.32C411.96,-272.26 426.85,-260.08 438.72,-250.37"/>
<polygon fill="midnightblue" stroke="midnightblue" points="441.18,-252.88 446.7,-243.83 436.75,-247.46 441.18,-252.88"/>
</g>
<!-- Node24&#45;&gt;Node5 -->
<g id="edge33" class="edge">
<title>Node24&#45;&gt;Node5</title>
<path fill="none" stroke="midnightblue" d="M230.7,-336.32C221.68,-328.34 208.09,-316.31 197.18,-306.65"/>
<polygon fill="midnightblue" stroke="midnightblue" points="199.29,-303.84 189.48,-299.83 194.65,-309.08 199.29,-303.84"/>
</g>
<!-- Node24&#45;&gt;Node20 -->
<g id="edge34" class="edge">
<title>Node24&#45;&gt;Node20</title>
<path fill="none" stroke="midnightblue" d="M240.33,-336.43C240.23,-316.13 241.65,-263.81 257.5,-224 261.61,-213.67 268.57,-203.45 274.95,-195.38"/>
<polygon fill="midnightblue" stroke="midnightblue" points="277.77,-197.47 281.48,-187.55 272.39,-192.98 277.77,-197.47"/>
</g>
</g>
</svg>
        <g id="navigator" transform="translate(0 0)" fill="#404254">
                <rect fill="#f2f5e9" fill-opacity="0.5" stroke="#606060" stroke-width=".5" x="0" y="0" width="60" height="60"/>
                <use id="zoomplus" xlink:href="#zoomPlus" x="17" y="9" onmousedown="handleZoom(evt,'in')"/>
                <use id="zoomminus" xlink:href="#zoomMin" x="42" y="9" onmousedown="handleZoom(evt,'out')"/>
                <use id="reset" xlink:href="#resetDef" x="30" y="36" onmousedown="handleReset()"/>
                <g id="arrowUp" xlink:href="#dirArrow" transform="translate(30 24)" onmousedown="handlePan(0,-1)">
                  <use xlink:href="#rim" fill="#404040">
                        <set attributeName="fill" to="#808080" begin="arrowUp.mouseover" end="arrowUp.mouseout"/>
                  </use>
                  <path fill="none" stroke="white" stroke-width="1.5" d="M0,-3.0v7 M-2.5,-0.5L0,-3.0L2.5,-0.5"/>
                </g>
                <g id="arrowRight" xlink:href="#dirArrow" transform="rotate(90) translate(36 -43)" onmousedown="handlePan(1,0)">
                  <use xlink:href="#rim" fill="#404040">
                        <set attributeName="fill" to="#808080" begin="arrowRight.mouseover" end="arrowRight.mouseout"/>
                  </use>
                  <path fill="none" stroke="white" stroke-width="1.5" d="M0,-3.0v7 M-2.5,-0.5L0,-3.0L2.5,-0.5"/>
                </g>
                <g id="arrowDown" xlink:href="#dirArrow" transform="rotate(180) translate(-30 -48)" onmousedown="handlePan(0,1)">
                  <use xlink:href="#rim" fill="#404040">
                        <set attributeName="fill" to="#808080" begin="arrowDown.mouseover" end="arrowDown.mouseout"/>
                  </use>
                  <path fill="none" stroke="white" stroke-width="1.5" d="M0,-3.0v7 M-2.5,-0.5L0,-3.0L2.5,-0.5"/>
                </g>
                <g id="arrowLeft" xlink:href="#dirArrow" transform="rotate(270) translate(-36 17)" onmousedown="handlePan(-1,0)">
                  <use xlink:href="#rim" fill="#404040">
                        <set attributeName="fill" to="#808080" begin="arrowLeft.mouseover" end="arrowLeft.mouseout"/>
                  </use>
                  <path fill="none" stroke="white" stroke-width="1.5" d="M0,-3.0v7 M-2.5,-0.5L0,-3.0L2.5,-0.5"/>
                </g>
        </g>
        <svg viewBox="0 0 15 15" width="100%" height="30px" preserveAspectRatio="xMaxYMin meet">
         <g id="arrow_out" transform="scale(0.3 0.3)">
          <a xlink:href="_midi_preset_identification_8cpp__incl_org.svg" target="_base">
           <rect id="button" ry="5" rx="5" y="6" x="6" height="38" width="38"
                fill="#f2f5e9" fill-opacity="0.5" stroke="#606060" stroke-width="1.0"/>
           <path id="arrow"
             d="M 11.500037,31.436501 C 11.940474,20.09759 22.043105,11.32322 32.158766,21.979434 L 37.068811,17.246167 C 37.068811,17.246167 37.088388,32 37.088388,32 L 22.160133,31.978069 C 22.160133,31.978069 26.997745,27.140456 26.997745,27.140456 C 18.528582,18.264221 13.291696,25.230495 11.500037,31.436501 z"
             style="fill:#404040;"/>
          </a>
         </g>
        </svg>
</svg>
