<?xml version="1.0" encoding="UTF-8" standalone="no"?>
<!DOCTYPE svg PUBLIC "-//W3C//DTD SVG 1.1//EN"
 "http://www.w3.org/Graphics/SVG/1.1/DTD/svg11.dtd">
<!-- Generated by graphviz version 2.47.1 (20210417.1919)
 -->
<!-- Title: MidiPresetIdentification.cpp Pages: 1 -->
<svg width="561pt" height="476pt"
 viewBox="0.00 0.00 561.00 476.00" xmlns="http://www.w3.org/2000/svg" xmlns:xlink="http://www.w3.org/1999/xlink">
<g id="graph0" class="graph" transform="scale(1 1) rotate(0) translate(4 472)">
<title>MidiPresetIdentification.cpp</title>
<polygon fill="white" stroke="transparent" points="-4,4 -4,-472 557,-472 557,4 -4,4"/>
<!-- Node1 -->
<g id="node1" class="node">
<title>Node1</title>
<g id="a_node1"><a xlink:title="The MidiPresetIdentification body implements the identification of a MIDI preset as a tuple of bank a...">
<polygon fill="#bfbfbf" stroke="black" points="172,-448.5 172,-467.5 308,-467.5 308,-448.5 172,-448.5"/>
<text text-anchor="middle" x="240" y="-455.5" font-family="Helvetica,sans-Serif" font-size="10.00">MidiPresetIdentification.cpp</text>
</a>
</g>
</g>
<!-- Node2 -->
<g id="node2" class="node">
<title>Node2</title>
<g id="a_node2"><a xlink:href="_logging_8h.html" target="_top" xlink:title="The Logging specification defines macros for entry&#45;, exit&#45; and intermediate logging of functions into...">
<polygon fill="white" stroke="black" points="129.5,-392.5 129.5,-411.5 188.5,-411.5 188.5,-392.5 129.5,-392.5"/>
<text text-anchor="middle" x="159" y="-399.5" font-family="Helvetica,sans-Serif" font-size="10.00">Logging.h</text>
</a>
</g>
</g>
<!-- Node1&#45;&gt;Node2 -->
<g id="edge1" class="edge">
<title>Node1&#45;&gt;Node2</title>
<path fill="none" stroke="midnightblue" d="M226.99,-448.32C214.47,-439.98 195.32,-427.21 180.53,-417.35"/>
<polygon fill="midnightblue" stroke="midnightblue" points="182.24,-414.29 171.98,-411.65 178.36,-420.11 182.24,-414.29"/>
</g>
<!-- Node14 -->
<g id="node14" class="node">
<title>Node14</title>
<g id="a_node14"><a xlink:href="_string_util_8h.html" target="_top" xlink:title="The StringUtil specification defines several string routines not included in the standard C++ library...">
<polygon fill="white" stroke="black" points="320.5,-336.5 320.5,-355.5 385.5,-355.5 385.5,-336.5 320.5,-336.5"/>
<text text-anchor="middle" x="353" y="-343.5" font-family="Helvetica,sans-Serif" font-size="10.00">StringUtil.h</text>
</a>
</g>
</g>
<!-- Node1&#45;&gt;Node14 -->
<g id="edge36" class="edge">
<title>Node1&#45;&gt;Node14</title>
<path fill="none" stroke="midnightblue" d="M248.87,-448.37C267.85,-429.89 312.64,-386.29 336.83,-362.74"/>
<polygon fill="midnightblue" stroke="midnightblue" points="339.45,-365.07 344.17,-355.59 334.57,-360.06 339.45,-365.07"/>
</g>
<!-- Node24 -->
<g id="node24" class="node">
<title>Node24</title>
<g id="a_node24"><a xlink:href="_midi_preset_identification_8h.html" target="_top" xlink:title="The MidiPresetIdentification specification defines the identification of a MIDI preset as a tuple of ...">
<polygon fill="white" stroke="black" points="177.5,-336.5 177.5,-355.5 302.5,-355.5 302.5,-336.5 177.5,-336.5"/>
<text text-anchor="middle" x="240" y="-343.5" font-family="Helvetica,sans-Serif" font-size="10.00">MidiPresetIdentification.h</text>
</a>
</g>
</g>
<!-- Node1&#45;&gt;Node24 -->
<g id="edge33" class="edge">
<title>Node1&#45;&gt;Node24</title>
<path fill="none" stroke="midnightblue" d="M240,-448.37C240,-430.62 240,-389.67 240,-365.6"/>
<polygon fill="midnightblue" stroke="midnightblue" points="243.5,-365.59 240,-355.59 236.5,-365.59 243.5,-365.59"/>
</g>
<!-- Node3 -->
<g id="node3" class="node">
<title>Node3</title>
<g id="a_node3"><a xlink:title=" ">
<polygon fill="white" stroke="#bfbfbf" points="110.5,-336.5 110.5,-355.5 159.5,-355.5 159.5,-336.5 110.5,-336.5"/>
<text text-anchor="middle" x="135" y="-343.5" font-family="Helvetica,sans-Serif" font-size="10.00">cstdarg</text>
</a>
</g>
</g>
<!-- Node2&#45;&gt;Node3 -->
<g id="edge2" class="edge">
<title>Node2&#45;&gt;Node3</title>
<path fill="none" stroke="midnightblue" d="M155.04,-392.08C151.79,-384.77 147.08,-374.18 143.05,-365.1"/>
<polygon fill="midnightblue" stroke="midnightblue" points="146.15,-363.47 138.89,-355.75 139.75,-366.31 146.15,-363.47"/>
</g>
<!-- Node4 -->
<g id="node4" class="node">
<title>Node4</title>
<g id="a_node4"><a xlink:href="_logging_support_8h.html" target="_top" xlink:title="The LoggingSupport specification defines a class for simple entry/exit logging to a file or via an ar...">
<polygon fill="white" stroke="black" points="0,-336.5 0,-355.5 92,-355.5 92,-336.5 0,-336.5"/>
<text text-anchor="middle" x="46" y="-343.5" font-family="Helvetica,sans-Serif" font-size="10.00">LoggingSupport.h</text>
</a>
</g>
</g>
<!-- Node2&#45;&gt;Node4 -->
<g id="edge3" class="edge">
<title>Node2&#45;&gt;Node4</title>
<path fill="none" stroke="midnightblue" d="M141.09,-392.44C122.75,-383.68 93.99,-369.94 72.91,-359.86"/>
<polygon fill="midnightblue" stroke="midnightblue" points="74.35,-356.67 63.82,-355.52 71.33,-362.99 74.35,-356.67"/>
</g>
<!-- Node2&#45;&gt;Node14 -->
<g id="edge15" class="edge">
<title>Node2&#45;&gt;Node14</title>
<path fill="none" stroke="midnightblue" d="M188.89,-392.68C222.02,-383.46 275.63,-368.54 312.51,-358.27"/>
<polygon fill="midnightblue" stroke="midnightblue" points="313.74,-361.56 322.44,-355.51 311.87,-354.82 313.74,-361.56"/>
</g>
<!-- Node5 -->
<g id="node5" class="node">
<title>Node5</title>
<g id="a_node5"><a xlink:href="_boolean_8h.html" target="_top" xlink:title="The Boolean specification and body provides a value object type for boolean values.">
<polygon fill="white" stroke="black" points="96,-280.5 96,-299.5 156,-299.5 156,-280.5 96,-280.5"/>
<text text-anchor="middle" x="126" y="-287.5" font-family="Helvetica,sans-Serif" font-size="10.00">Boolean.h</text>
</a>
</g>
</g>
<!-- Node4&#45;&gt;Node5 -->
<g id="edge4" class="edge">
<title>Node4&#45;&gt;Node5</title>
<path fill="none" stroke="midnightblue" d="M58.85,-336.32C71.22,-327.98 90.13,-315.21 104.74,-305.35"/>
<polygon fill="midnightblue" stroke="midnightblue" points="106.85,-308.15 113.18,-299.65 102.93,-302.35 106.85,-308.15"/>
</g>
<!-- Node9 -->
<g id="node9" class="node">
<title>Node9</title>
<g id="a_node9"><a xlink:href="_natural_8h.html" target="_top" xlink:title="The Natural specification and body provides a value object type for naturals (positive integers with ...">
<polygon fill="white" stroke="black" points="225,-112.5 225,-131.5 281,-131.5 281,-112.5 225,-112.5"/>
<text text-anchor="middle" x="253" y="-119.5" font-family="Helvetica,sans-Serif" font-size="10.00">Natural.h</text>
</a>
</g>
</g>
<!-- Node4&#45;&gt;Node9 -->
<g id="edge8" class="edge">
<title>Node4&#45;&gt;Node9</title>
<path fill="none" stroke="midnightblue" d="M50.66,-336.12C57.68,-323.15 71.75,-298.55 87,-280 134.4,-222.33 201.81,-164.61 234.2,-138.08"/>
<polygon fill="midnightblue" stroke="midnightblue" points="236.46,-140.75 242.01,-131.73 232.04,-135.32 236.46,-140.75"/>
</g>
<!-- Node6 -->
<g id="node6" class="node">
<title>Node6</title>
<g id="a_node6"><a xlink:href="_my_string_8h.html" target="_top" xlink:title="The String specification defines a standard string type.">
<polygon fill="white" stroke="black" points="41,-56.5 41,-75.5 105,-75.5 105,-56.5 41,-56.5"/>
<text text-anchor="middle" x="73" y="-63.5" font-family="Helvetica,sans-Serif" font-size="10.00">MyString.h</text>
</a>
</g>
</g>
<!-- Node5&#45;&gt;Node6 -->
<g id="edge5" class="edge">
<title>Node5&#45;&gt;Node6</title>
<path fill="none" stroke="midnightblue" d="M123.92,-280.3C116.11,-247.56 88.37,-131.38 77.46,-85.67"/>
<polygon fill="midnightblue" stroke="midnightblue" points="80.85,-84.8 75.12,-75.88 74.04,-86.42 80.85,-84.8"/>
</g>
<!-- Node7 -->
<g id="node7" class="node">
<title>Node7</title>
<g id="a_node7"><a xlink:title=" ">
<polygon fill="white" stroke="#bfbfbf" points="134.5,-0.5 134.5,-19.5 175.5,-19.5 175.5,-0.5 134.5,-0.5"/>
<text text-anchor="middle" x="155" y="-7.5" font-family="Helvetica,sans-Serif" font-size="10.00">string</text>
</a>
</g>
</g>
<!-- Node6&#45;&gt;Node7 -->
<g id="edge6" class="edge">
<title>Node6&#45;&gt;Node7</title>
<path fill="none" stroke="midnightblue" d="M86.17,-56.32C98.85,-47.98 118.23,-35.21 133.21,-25.35"/>
<polygon fill="midnightblue" stroke="midnightblue" points="135.43,-28.08 141.86,-19.65 131.58,-22.23 135.43,-28.08"/>
</g>
<!-- Node8 -->
<g id="node8" class="node">
<title>Node8</title>
<g id="a_node8"><a xlink:href="_global_macros_8h.html" target="_top" xlink:title="The GlobalMacros specification defines simple macros (e.g. for parameter modes).">
<polygon fill="white" stroke="black" points="30.5,-0.5 30.5,-19.5 115.5,-19.5 115.5,-0.5 30.5,-0.5"/>
<text text-anchor="middle" x="73" y="-7.5" font-family="Helvetica,sans-Serif" font-size="10.00">GlobalMacros.h</text>
</a>
</g>
</g>
<!-- Node6&#45;&gt;Node8 -->
<g id="edge7" class="edge">
<title>Node6&#45;&gt;Node8</title>
<path fill="none" stroke="midnightblue" d="M73,-56.08C73,-49.01 73,-38.86 73,-29.99"/>
<polygon fill="midnightblue" stroke="midnightblue" points="76.5,-29.75 73,-19.75 69.5,-29.75 76.5,-29.75"/>
</g>
<!-- Node9&#45;&gt;Node6 -->
<g id="edge14" class="edge">
<title>Node9&#45;&gt;Node6</title>
<path fill="none" stroke="midnightblue" d="M224.88,-112.56C194.28,-103.38 145.19,-88.66 111.13,-78.44"/>
<polygon fill="midnightblue" stroke="midnightblue" points="112.11,-75.08 101.52,-75.56 110.09,-81.78 112.11,-75.08"/>
</g>
<!-- Node10 -->
<g id="node10" class="node">
<title>Node10</title>
<g id="a_node10"><a xlink:title=" ">
<polygon fill="white" stroke="#bfbfbf" points="381,-56.5 381,-75.5 425,-75.5 425,-56.5 381,-56.5"/>
<text text-anchor="middle" x="403" y="-63.5" font-family="Helvetica,sans-Serif" font-size="10.00">cmath</text>
</a>
</g>
</g>
<!-- Node9&#45;&gt;Node10 -->
<g id="edge9" class="edge">
<title>Node9&#45;&gt;Node10</title>
<path fill="none" stroke="midnightblue" d="M276.77,-112.44C302.34,-103.24 343.12,-88.56 371.38,-78.38"/>
<polygon fill="midnightblue" stroke="midnightblue" points="372.59,-81.67 380.81,-74.99 370.22,-75.08 372.59,-81.67"/>
</g>
<!-- Node11 -->
<g id="node11" class="node">
<title>Node11</title>
<g id="a_node11"><a xlink:href="_assertion_8h.html" target="_top" xlink:title="The Assertion specification defines macros for pre&#45; and postconditions in functions or methods.">
<polygon fill="white" stroke="black" points="123,-56.5 123,-75.5 189,-75.5 189,-56.5 123,-56.5"/>
<text text-anchor="middle" x="156" y="-63.5" font-family="Helvetica,sans-Serif" font-size="10.00">Assertion.h</text>
</a>
</g>
</g>
<!-- Node9&#45;&gt;Node11 -->
<g id="edge10" class="edge">
<title>Node9&#45;&gt;Node11</title>
<path fill="none" stroke="midnightblue" d="M237.42,-112.32C222,-103.74 198.19,-90.49 180.29,-80.52"/>
<polygon fill="midnightblue" stroke="midnightblue" points="181.99,-77.46 171.55,-75.65 178.58,-83.58 181.99,-77.46"/>
</g>
<!-- Node13 -->
<g id="node13" class="node">
<title>Node13</title>
<g id="a_node13"><a xlink:title=" ">
<polygon fill="white" stroke="#bfbfbf" points="207,-56.5 207,-75.5 299,-75.5 299,-56.5 207,-56.5"/>
<text text-anchor="middle" x="253" y="-63.5" font-family="Helvetica,sans-Serif" font-size="10.00">GenericNumber.h</text>
</a>
</g>
</g>
<!-- Node9&#45;&gt;Node13 -->
<g id="edge13" class="edge">
<title>Node9&#45;&gt;Node13</title>
<path fill="none" stroke="midnightblue" d="M253,-112.08C253,-105.01 253,-94.86 253,-85.99"/>
<polygon fill="midnightblue" stroke="midnightblue" points="256.5,-85.75 253,-75.75 249.5,-85.75 256.5,-85.75"/>
</g>
<!-- Node11&#45;&gt;Node7 -->
<g id="edge12" class="edge">
<title>Node11&#45;&gt;Node7</title>
<path fill="none" stroke="midnightblue" d="M155.83,-56.08C155.7,-49.01 155.52,-38.86 155.35,-29.99"/>
<polygon fill="midnightblue" stroke="midnightblue" points="158.85,-29.68 155.16,-19.75 151.85,-29.81 158.85,-29.68"/>
</g>
<!-- Node12 -->
<g id="node12" class="node">
<title>Node12</title>
<g id="a_node12"><a xlink:title=" ">
<polygon fill="white" stroke="#bfbfbf" points="245.5,-0.5 245.5,-19.5 304.5,-19.5 304.5,-0.5 245.5,-0.5"/>
<text text-anchor="middle" x="275" y="-7.5" font-family="Helvetica,sans-Serif" font-size="10.00">stdexcept</text>
</a>
</g>
</g>
<!-- Node11&#45;&gt;Node12 -->
<g id="edge11" class="edge">
<title>Node11&#45;&gt;Node12</title>
<path fill="none" stroke="midnightblue" d="M174.86,-56.44C194.27,-47.64 224.73,-33.81 246.96,-23.72"/>
<polygon fill="midnightblue" stroke="midnightblue" points="248.57,-26.84 256.23,-19.52 245.68,-20.46 248.57,-26.84"/>
</g>
<!-- Node14&#45;&gt;Node5 -->
<g id="edge16" class="edge">
<title>Node14&#45;&gt;Node5</title>
<path fill="none" stroke="midnightblue" d="M320.48,-337.26C279.76,-327.58 210.03,-310.99 166.07,-300.53"/>
<polygon fill="midnightblue" stroke="midnightblue" points="166.83,-297.11 156.29,-298.2 165.21,-303.92 166.83,-297.11"/>
</g>
<!-- Node15 -->
<g id="node15" class="node">
<title>Node15</title>
<g id="a_node15"><a xlink:href="_character_8h.html" target="_top" xlink:title="The Character specification and body provides a value object type for character values.">
<polygon fill="white" stroke="black" points="458.5,-224.5 458.5,-243.5 525.5,-243.5 525.5,-224.5 458.5,-224.5"/>
<text text-anchor="middle" x="492" y="-231.5" font-family="Helvetica,sans-Serif" font-size="10.00">Character.h</text>
</a>
</g>
</g>
<!-- Node14&#45;&gt;Node15 -->
<g id="edge17" class="edge">
<title>Node14&#45;&gt;Node15</title>
<path fill="none" stroke="midnightblue" d="M385.61,-338.79C409.93,-332.64 442.52,-321.02 464,-300 476.88,-287.4 484.19,-267.91 488.09,-253.56"/>
<polygon fill="midnightblue" stroke="midnightblue" points="491.5,-254.32 490.44,-243.78 484.69,-252.68 491.5,-254.32"/>
</g>
<!-- Node18 -->
<g id="node18" class="node">
<title>Node18</title>
<g id="a_node18"><a xlink:href="_percentage_8h.html" target="_top" xlink:title="The Percentage specification and body provides a simple percentage type.">
<polygon fill="white" stroke="black" points="381,-280.5 381,-299.5 455,-299.5 455,-280.5 381,-280.5"/>
<text text-anchor="middle" x="418" y="-287.5" font-family="Helvetica,sans-Serif" font-size="10.00">Percentage.h</text>
</a>
</g>
</g>
<!-- Node14&#45;&gt;Node18 -->
<g id="edge23" class="edge">
<title>Node14&#45;&gt;Node18</title>
<path fill="none" stroke="midnightblue" d="M363.44,-336.32C373.15,-328.26 387.82,-316.08 399.5,-306.37"/>
<polygon fill="midnightblue" stroke="midnightblue" points="401.91,-308.92 407.37,-299.83 397.44,-303.53 401.91,-308.92"/>
</g>
<!-- Node21 -->
<g id="node21" class="node">
<title>Node21</title>
<g id="a_node21"><a xlink:href="_string_list_8h.html" target="_top" xlink:title="The StringList specification defines lists of string values with zero&#45;based arbitrary indexed access ...">
<polygon fill="white" stroke="black" points="297,-280.5 297,-299.5 363,-299.5 363,-280.5 297,-280.5"/>
<text text-anchor="middle" x="330" y="-287.5" font-family="Helvetica,sans-Serif" font-size="10.00">StringList.h</text>
</a>
</g>
</g>
<!-- Node14&#45;&gt;Node21 -->
<g id="edge30" class="edge">
<title>Node14&#45;&gt;Node21</title>
<path fill="none" stroke="midnightblue" d="M349.2,-336.08C346.09,-328.77 341.58,-318.18 337.71,-309.1"/>
<polygon fill="midnightblue" stroke="midnightblue" points="340.87,-307.58 333.73,-299.75 334.43,-310.32 340.87,-307.58"/>
</g>
<!-- Node15&#45;&gt;Node10 -->
<g id="edge18" class="edge">
<title>Node15&#45;&gt;Node10</title>
<path fill="none" stroke="midnightblue" d="M485.4,-224.3C478.82,-215.43 468.61,-201.13 461,-188 440.55,-152.71 420.94,-109.09 410.59,-85.04"/>
<polygon fill="midnightblue" stroke="midnightblue" points="413.77,-83.57 406.63,-75.75 407.33,-86.32 413.77,-83.57"/>
</g>
<!-- Node16 -->
<g id="node16" class="node">
<title>Node16</title>
<g id="a_node16"><a xlink:href="_byte_8h.html" target="_top" xlink:title="The Byte specification and body provides a value object type for byte values.">
<polygon fill="white" stroke="black" points="469.5,-168.5 469.5,-187.5 514.5,-187.5 514.5,-168.5 469.5,-168.5"/>
<text text-anchor="middle" x="492" y="-175.5" font-family="Helvetica,sans-Serif" font-size="10.00">Byte.h</text>
</a>
</g>
</g>
<!-- Node15&#45;&gt;Node16 -->
<g id="edge19" class="edge">
<title>Node15&#45;&gt;Node16</title>
<path fill="none" stroke="midnightblue" d="M492,-224.08C492,-217.01 492,-206.86 492,-197.99"/>
<polygon fill="midnightblue" stroke="midnightblue" points="495.5,-197.75 492,-187.75 488.5,-197.75 495.5,-197.75"/>
</g>
<!-- Node16&#45;&gt;Node9 -->
<g id="edge22" class="edge">
<title>Node16&#45;&gt;Node9</title>
<path fill="none" stroke="midnightblue" d="M469.08,-171.82C427.98,-162.54 341.36,-142.96 291.17,-131.62"/>
<polygon fill="midnightblue" stroke="midnightblue" points="291.87,-128.19 281.34,-129.4 290.32,-135.02 291.87,-128.19"/>
</g>
<!-- Node16&#45;&gt;Node10 -->
<g id="edge20" class="edge">
<title>Node16&#45;&gt;Node10</title>
<path fill="none" stroke="midnightblue" d="M488.27,-168.42C482.37,-155.41 470,-130.26 455,-112 445.77,-100.75 433.54,-90.02 423.26,-81.85"/>
<polygon fill="midnightblue" stroke="midnightblue" points="425.25,-78.97 415.19,-75.65 420.99,-84.52 425.25,-78.97"/>
</g>
<!-- Node17 -->
<g id="node17" class="node">
<title>Node17</title>
<g id="a_node17"><a xlink:title=" ">
<polygon fill="white" stroke="#bfbfbf" points="507,-112.5 507,-131.5 553,-131.5 553,-112.5 507,-112.5"/>
<text text-anchor="middle" x="530" y="-119.5" font-family="Helvetica,sans-Serif" font-size="10.00">cstdint</text>
</a>
</g>
</g>
<!-- Node16&#45;&gt;Node17 -->
<g id="edge21" class="edge">
<title>Node16&#45;&gt;Node17</title>
<path fill="none" stroke="midnightblue" d="M498.27,-168.08C503.64,-160.46 511.52,-149.26 518.08,-139.94"/>
<polygon fill="midnightblue" stroke="midnightblue" points="520.95,-141.94 523.84,-131.75 515.22,-137.91 520.95,-141.94"/>
</g>
<!-- Node19 -->
<g id="node19" class="node">
<title>Node19</title>
<g id="a_node19"><a xlink:href="_real_8h.html" target="_top" xlink:title="The Real specification defines a value object type for real values.">
<polygon fill="white" stroke="black" points="396,-224.5 396,-243.5 440,-243.5 440,-224.5 396,-224.5"/>
<text text-anchor="middle" x="418" y="-231.5" font-family="Helvetica,sans-Serif" font-size="10.00">Real.h</text>
</a>
</g>
</g>
<!-- Node18&#45;&gt;Node19 -->
<g id="edge24" class="edge">
<title>Node18&#45;&gt;Node19</title>
<path fill="none" stroke="midnightblue" d="M418,-280.08C418,-273.01 418,-262.86 418,-253.99"/>
<polygon fill="midnightblue" stroke="midnightblue" points="421.5,-253.75 418,-243.75 414.5,-253.75 421.5,-253.75"/>
</g>
<!-- Node19&#45;&gt;Node10 -->
<g id="edge25" class="edge">
<title>Node19&#45;&gt;Node10</title>
<path fill="none" stroke="midnightblue" d="M417.19,-224.08C414.83,-197.95 407.9,-121.21 404.68,-85.58"/>
<polygon fill="midnightblue" stroke="midnightblue" points="408.16,-85.21 403.77,-75.57 401.19,-85.84 408.16,-85.21"/>
</g>
<!-- Node20 -->
<g id="node20" class="node">
<title>Node20</title>
<g id="a_node20"><a xlink:href="_integer_8h.html" target="_top" xlink:title="The Integer specification and body provides a value object type for ints.">
<polygon fill="white" stroke="black" points="300,-168.5 300,-187.5 354,-187.5 354,-168.5 300,-168.5"/>
<text text-anchor="middle" x="327" y="-175.5" font-family="Helvetica,sans-Serif" font-size="10.00">Integer.h</text>
</a>
</g>
</g>
<!-- Node19&#45;&gt;Node20 -->
<g id="edge26" class="edge">
<title>Node19&#45;&gt;Node20</title>
<path fill="none" stroke="midnightblue" d="M403.38,-224.32C389.05,-215.82 366.99,-202.73 350.25,-192.8"/>
<polygon fill="midnightblue" stroke="midnightblue" points="351.97,-189.75 341.58,-187.65 348.4,-195.77 351.97,-189.75"/>
</g>
<!-- Node20&#45;&gt;Node9 -->
<g id="edge29" class="edge">
<title>Node20&#45;&gt;Node9</title>
<path fill="none" stroke="midnightblue" d="M315.11,-168.32C303.85,-160.11 286.71,-147.6 273.29,-137.81"/>
<polygon fill="midnightblue" stroke="midnightblue" points="275.25,-134.9 265.11,-131.83 271.12,-140.56 275.25,-134.9"/>
</g>
<!-- Node20&#45;&gt;Node10 -->
<g id="edge27" class="edge">
<title>Node20&#45;&gt;Node10</title>
<path fill="none" stroke="midnightblue" d="M332.96,-168.37C345.51,-150.22 374.81,-107.8 391.26,-83.99"/>
<polygon fill="midnightblue" stroke="midnightblue" points="394.26,-85.81 397.06,-75.59 388.5,-81.83 394.26,-85.81"/>
</g>
<!-- Node20&#45;&gt;Node12 -->
<g id="edge28" class="edge">
<title>Node20&#45;&gt;Node12</title>
<path fill="none" stroke="midnightblue" d="M327.02,-168.41C326.79,-148.07 324.5,-95.66 308,-56 303.68,-45.62 296.5,-35.41 289.94,-27.34"/>
<polygon fill="midnightblue" stroke="midnightblue" points="292.39,-24.83 283.22,-19.52 287.08,-29.39 292.39,-24.83"/>
</g>
<!-- Node22 -->
<g id="node22" class="node">
<title>Node22</title>
<g id="a_node22"><a xlink:title=" ">
<polygon fill="white" stroke="#bfbfbf" points="212.5,-224.5 212.5,-243.5 285.5,-243.5 285.5,-224.5 212.5,-224.5"/>
<text text-anchor="middle" x="249" y="-231.5" font-family="Helvetica,sans-Serif" font-size="10.00">initializer_list</text>
</a>
</g>
</g>
<!-- Node21&#45;&gt;Node22 -->
<g id="edge31" class="edge">
<title>Node21&#45;&gt;Node22</title>
<path fill="none" stroke="midnightblue" d="M316.99,-280.32C304.47,-271.98 285.32,-259.21 270.53,-249.35"/>
<polygon fill="midnightblue" stroke="midnightblue" points="272.24,-246.29 261.98,-243.65 268.36,-252.11 272.24,-246.29"/>
</g>
<!-- Node23 -->
<g id="node23" class="node">
<title>Node23</title>
<g id="a_node23"><a xlink:title=" ">
<polygon fill="white" stroke="#bfbfbf" points="304,-224.5 304,-243.5 378,-243.5 378,-224.5 304,-224.5"/>
<text text-anchor="middle" x="341" y="-231.5" font-family="Helvetica,sans-Serif" font-size="10.00">GenericList.h</text>
</a>
</g>
</g>
<!-- Node21&#45;&gt;Node23 -->
<g id="edge32" class="edge">
<title>Node21&#45;&gt;Node23</title>
<path fill="none" stroke="midnightblue" d="M331.82,-280.08C333.27,-272.93 335.37,-262.64 337.19,-253.69"/>
<polygon fill="midnightblue" stroke="midnightblue" points="340.65,-254.25 339.22,-243.75 333.79,-252.85 340.65,-254.25"/>
</g>
<!-- Node24&#45;&gt;Node5 -->
<g id="edge34" class="edge">
<title>Node24&#45;&gt;Node5</title>
<path fill="none" stroke="midnightblue" d="M221.94,-336.44C203.43,-327.68 174.42,-313.94 153.14,-303.86"/>
<polygon fill="midnightblue" stroke="midnightblue" points="154.51,-300.63 143.98,-299.52 151.52,-306.96 154.51,-300.63"/>
</g>
<!-- Node24&#45;&gt;Node20 -->
<g id="edge35" class="edge">
<title>Node24&#45;&gt;Node20</title>
<path fill="none" stroke="midnightblue" d="M232.61,-336.28C215.67,-315.2 177.41,-260.52 203,-224 222.43,-196.27 260.78,-185.56 289.71,-181.46"/>
<polygon fill="midnightblue" stroke="midnightblue" points="290.38,-184.91 299.89,-180.23 289.54,-177.96 290.38,-184.91"/>
</g>
</g>
</svg>
