<?xml version="1.0" encoding="UTF-8" standalone="no"?>
<!DOCTYPE svg PUBLIC "-//W3C//DTD SVG 1.1//EN"
 "http://www.w3.org/Graphics/SVG/1.1/DTD/svg11.dtd">
<!-- Generated by graphviz version 2.47.1 (20210417.1919)
 -->
<!-- Title: MidiEventConverter.h Pages: 1 -->
<svg width="787pt" height="485pt"
 viewBox="0.00 0.00 786.50 485.00" xmlns="http://www.w3.org/2000/svg" xmlns:xlink="http://www.w3.org/1999/xlink">
<g id="graph0" class="graph" transform="scale(1 1) rotate(0) translate(4 481)">
<title>MidiEventConverter.h</title>
<polygon fill="white" stroke="transparent" points="-4,4 -4,-481 782.5,-481 782.5,4 -4,4"/>
<!-- Node1 -->
<g id="node1" class="node">
<title>Node1</title>
<g id="a_node1"><a xlink:title="The MidiEventConverter specification defines the handling of MIDI events by feeding them to an underl...">
<polygon fill="#bfbfbf" stroke="black" points="423.5,-456.5 423.5,-476.5 543.5,-476.5 543.5,-456.5 423.5,-456.5"/>
<text text-anchor="middle" x="483.5" y="-463.7" font-family="Helvetica,sans-Serif" font-size="11.00">MidiEventConverter.h</text>
</a>
</g>
</g>
<!-- Node2 -->
<g id="node2" class="node">
<title>Node2</title>
<g id="a_node2"><a xlink:href="_audio_sample_list_vector_8h.html" target="_top" xlink:title="The AudioSampleListVector specification defines the communication buffer structure for the block proc...">
<polygon fill="white" stroke="black" points="414,-399.5 414,-419.5 553,-419.5 553,-399.5 414,-399.5"/>
<text text-anchor="middle" x="483.5" y="-406.7" font-family="Helvetica,sans-Serif" font-size="11.00">AudioSampleListVector.h</text>
</a>
</g>
</g>
<!-- Node1&#45;&gt;Node2 -->
<g id="edge1" class="edge">
<title>Node1&#45;&gt;Node2</title>
<path fill="none" stroke="midnightblue" d="M483.5,-456.42C483.5,-449.22 483.5,-438.9 483.5,-429.86"/>
<polygon fill="midnightblue" stroke="midnightblue" points="487,-429.78 483.5,-419.78 480,-429.78 487,-429.78"/>
</g>
<!-- Node6 -->
<g id="node6" class="node">
<title>Node6</title>
<g id="a_node6"><a xlink:href="_real_8h.html" target="_top" xlink:title="The Real specification defines a value object type for real values.">
<polygon fill="white" stroke="black" points="611.5,-228.5 611.5,-248.5 659.5,-248.5 659.5,-228.5 611.5,-228.5"/>
<text text-anchor="middle" x="635.5" y="-235.7" font-family="Helvetica,sans-Serif" font-size="11.00">Real.h</text>
</a>
</g>
</g>
<!-- Node1&#45;&gt;Node6 -->
<g id="edge26" class="edge">
<title>Node1&#45;&gt;Node6</title>
<path fill="none" stroke="midnightblue" d="M515.08,-456.44C554.5,-443.21 620.08,-414.4 647.5,-363 665.42,-329.41 652.88,-283.33 643.39,-258.02"/>
<polygon fill="midnightblue" stroke="midnightblue" points="646.57,-256.53 639.61,-248.54 640.06,-259.13 646.57,-256.53"/>
</g>
<!-- Node10 -->
<g id="node10" class="node">
<title>Node10</title>
<g id="a_node10"><a xlink:href="_natural_8h.html" target="_top" xlink:title="The Natural specification and body provides a value object type for naturals (positive integers with ...">
<polygon fill="white" stroke="black" points="390.5,-114.5 390.5,-134.5 450.5,-134.5 450.5,-114.5 390.5,-114.5"/>
<text text-anchor="middle" x="420.5" y="-121.7" font-family="Helvetica,sans-Serif" font-size="11.00">Natural.h</text>
</a>
</g>
</g>
<!-- Node1&#45;&gt;Node10 -->
<g id="edge27" class="edge">
<title>Node1&#45;&gt;Node10</title>
<path fill="none" stroke="midnightblue" d="M456.2,-456.47C420.1,-442.81 358.29,-413.05 334.5,-363 312.75,-317.24 314.62,-403.64 396.5,-192 402.72,-175.92 409.34,-157.47 414.05,-144.09"/>
<polygon fill="midnightblue" stroke="midnightblue" points="417.37,-145.18 417.37,-134.58 410.77,-142.87 417.37,-145.18"/>
</g>
<!-- Node20 -->
<g id="node20" class="node">
<title>Node20</title>
<g id="a_node20"><a xlink:href="_dictionary_8h.html" target="_top" xlink:title="The Dictionary specification defines maps from string keys to string values.">
<polygon fill="white" stroke="black" points="696.5,-399.5 696.5,-419.5 770.5,-419.5 770.5,-399.5 696.5,-399.5"/>
<text text-anchor="middle" x="733.5" y="-406.7" font-family="Helvetica,sans-Serif" font-size="11.00">Dictionary.h</text>
</a>
</g>
</g>
<!-- Node1&#45;&gt;Node20 -->
<g id="edge24" class="edge">
<title>Node1&#45;&gt;Node20</title>
<path fill="none" stroke="midnightblue" d="M524.5,-456.48C568.9,-446.71 639.6,-431.16 686.28,-420.89"/>
<polygon fill="midnightblue" stroke="midnightblue" points="687.14,-424.28 696.15,-418.72 685.63,-417.45 687.14,-424.28"/>
</g>
<!-- Node22 -->
<g id="node22" class="node">
<title>Node22</title>
<g id="a_node22"><a xlink:href="_midi_event_list_8h.html" target="_top" xlink:title="The MidiEventList specification defines lists of MIDI events with zero&#45;based arbitrary indexed access...">
<polygon fill="white" stroke="black" points="182,-342.5 182,-362.5 271,-362.5 271,-342.5 182,-342.5"/>
<text text-anchor="middle" x="226.5" y="-349.7" font-family="Helvetica,sans-Serif" font-size="11.00">MidiEventList.h</text>
</a>
</g>
</g>
<!-- Node1&#45;&gt;Node22 -->
<g id="edge28" class="edge">
<title>Node1&#45;&gt;Node22</title>
<path fill="none" stroke="midnightblue" d="M423.11,-457.86C386.37,-451.43 339.39,-439.97 301.5,-420 277.6,-407.4 255.11,-385.63 241.1,-370.44"/>
<polygon fill="midnightblue" stroke="midnightblue" points="243.52,-367.89 234.24,-362.78 238.3,-372.56 243.52,-367.89"/>
</g>
<!-- Node3 -->
<g id="node3" class="node">
<title>Node3</title>
<g id="a_node3"><a xlink:href="_audio_sample_list_8h.html" target="_top" xlink:title="The AudioSampleList specification defines lists of audio samples with zero&#45;based arbitrary indexed ac...">
<polygon fill="white" stroke="black" points="344,-342.5 344,-362.5 451,-362.5 451,-342.5 344,-342.5"/>
<text text-anchor="middle" x="397.5" y="-349.7" font-family="Helvetica,sans-Serif" font-size="11.00">AudioSampleList.h</text>
</a>
</g>
</g>
<!-- Node2&#45;&gt;Node3 -->
<g id="edge2" class="edge">
<title>Node2&#45;&gt;Node3</title>
<path fill="none" stroke="midnightblue" d="M469.3,-399.42C455.98,-390.9 435.83,-378.02 420.27,-368.06"/>
<polygon fill="midnightblue" stroke="midnightblue" points="422.03,-365.03 411.72,-362.6 418.26,-370.93 422.03,-365.03"/>
</g>
<!-- Node19 -->
<g id="node19" class="node">
<title>Node19</title>
<g id="a_node19"><a xlink:href="_audio_sample_list_vector_8cpp-inc.html" target="_top" xlink:title="The AudioSampleListVector body implements the communication buffer structure for the block processing...">
<polygon fill="white" stroke="black" points="469,-342.5 469,-362.5 638,-362.5 638,-342.5 469,-342.5"/>
<text text-anchor="middle" x="553.5" y="-349.7" font-family="Helvetica,sans-Serif" font-size="11.00">AudioSampleListVector.cpp&#45;inc</text>
</a>
</g>
</g>
<!-- Node2&#45;&gt;Node19 -->
<g id="edge23" class="edge">
<title>Node2&#45;&gt;Node19</title>
<path fill="none" stroke="midnightblue" d="M495.06,-399.42C505.53,-391.19 521.19,-378.88 533.67,-369.08"/>
<polygon fill="midnightblue" stroke="midnightblue" points="535.99,-371.71 541.69,-362.78 531.66,-366.21 535.99,-371.71"/>
</g>
<!-- Node4 -->
<g id="node4" class="node">
<title>Node4</title>
<g id="a_node4"><a xlink:title=" ">
<polygon fill="white" stroke="#bfbfbf" points="215,-114.5 215,-134.5 296,-134.5 296,-114.5 215,-114.5"/>
<text text-anchor="middle" x="255.5" y="-121.7" font-family="Helvetica,sans-Serif" font-size="11.00">GenericList.h</text>
</a>
</g>
</g>
<!-- Node3&#45;&gt;Node4 -->
<g id="edge3" class="edge">
<title>Node3&#45;&gt;Node4</title>
<path fill="none" stroke="midnightblue" d="M391.76,-342.36C370.35,-308.28 294.94,-188.27 266.48,-142.98"/>
<polygon fill="midnightblue" stroke="midnightblue" points="269.44,-141.11 261.16,-134.51 263.51,-144.83 269.44,-141.11"/>
</g>
<!-- Node5 -->
<g id="node5" class="node">
<title>Node5</title>
<g id="a_node5"><a xlink:href="_audio_sample_8h.html" target="_top" xlink:title="The AudioSample specification and body provides the definition of the audio sample (a real value).">
<polygon fill="white" stroke="black" points="545.5,-285.5 545.5,-305.5 635.5,-305.5 635.5,-285.5 545.5,-285.5"/>
<text text-anchor="middle" x="590.5" y="-292.7" font-family="Helvetica,sans-Serif" font-size="11.00">AudioSample.h</text>
</a>
</g>
</g>
<!-- Node3&#45;&gt;Node5 -->
<g id="edge4" class="edge">
<title>Node3&#45;&gt;Node5</title>
<path fill="none" stroke="midnightblue" d="M429.37,-342.42C462.15,-333.08 513.36,-318.48 549.22,-308.26"/>
<polygon fill="midnightblue" stroke="midnightblue" points="550.25,-311.61 558.9,-305.5 548.33,-304.88 550.25,-311.61"/>
</g>
<!-- Node16 -->
<g id="node16" class="node">
<title>Node16</title>
<g id="a_node16"><a xlink:href="_audio_sample_list_8cpp-inc.html" target="_top" xlink:title="The AudioSampleList body implements a simple list of audio samples (this is the effective code includ...">
<polygon fill="white" stroke="black" points="384,-285.5 384,-305.5 521,-305.5 521,-285.5 384,-285.5"/>
<text text-anchor="middle" x="452.5" y="-292.7" font-family="Helvetica,sans-Serif" font-size="11.00">AudioSampleList.cpp&#45;inc</text>
</a>
</g>
</g>
<!-- Node3&#45;&gt;Node16 -->
<g id="edge19" class="edge">
<title>Node3&#45;&gt;Node16</title>
<path fill="none" stroke="midnightblue" d="M406.58,-342.42C414.58,-334.42 426.41,-322.59 436.06,-312.94"/>
<polygon fill="midnightblue" stroke="midnightblue" points="438.62,-315.33 443.22,-305.78 433.67,-310.38 438.62,-315.33"/>
</g>
<!-- Node5&#45;&gt;Node6 -->
<g id="edge5" class="edge">
<title>Node5&#45;&gt;Node6</title>
<path fill="none" stroke="midnightblue" d="M597.93,-285.42C604.28,-277.66 613.58,-266.29 621.34,-256.8"/>
<polygon fill="midnightblue" stroke="midnightblue" points="624.28,-258.74 627.91,-248.78 618.87,-254.3 624.28,-258.74"/>
</g>
<!-- Node7 -->
<g id="node7" class="node">
<title>Node7</title>
<g id="a_node7"><a xlink:title=" ">
<polygon fill="white" stroke="#bfbfbf" points="505,-57.5 505,-77.5 552,-77.5 552,-57.5 505,-57.5"/>
<text text-anchor="middle" x="528.5" y="-64.7" font-family="Helvetica,sans-Serif" font-size="11.00">cmath</text>
</a>
</g>
</g>
<!-- Node6&#45;&gt;Node7 -->
<g id="edge6" class="edge">
<title>Node6&#45;&gt;Node7</title>
<path fill="none" stroke="midnightblue" d="M634.72,-228.41C633.28,-215.13 629.39,-189.95 619.5,-171 601.13,-135.8 568.05,-102.94 547.24,-84.33"/>
<polygon fill="midnightblue" stroke="midnightblue" points="549.49,-81.65 539.66,-77.69 544.88,-86.92 549.49,-81.65"/>
</g>
<!-- Node8 -->
<g id="node8" class="node">
<title>Node8</title>
<g id="a_node8"><a xlink:href="_integer_8h.html" target="_top" xlink:title="The Integer specification and body provides a value object type for ints.">
<polygon fill="white" stroke="black" points="551,-171.5 551,-191.5 610,-191.5 610,-171.5 551,-171.5"/>
<text text-anchor="middle" x="580.5" y="-178.7" font-family="Helvetica,sans-Serif" font-size="11.00">Integer.h</text>
</a>
</g>
</g>
<!-- Node6&#45;&gt;Node8 -->
<g id="edge7" class="edge">
<title>Node6&#45;&gt;Node8</title>
<path fill="none" stroke="midnightblue" d="M626.42,-228.42C618.42,-220.42 606.59,-208.59 596.94,-198.94"/>
<polygon fill="midnightblue" stroke="midnightblue" points="599.33,-196.38 589.78,-191.78 594.38,-201.33 599.33,-196.38"/>
</g>
<!-- Node8&#45;&gt;Node7 -->
<g id="edge8" class="edge">
<title>Node8&#45;&gt;Node7</title>
<path fill="none" stroke="midnightblue" d="M576.24,-171.33C567.71,-152.96 548.37,-111.29 537.1,-87.01"/>
<polygon fill="midnightblue" stroke="midnightblue" points="540.2,-85.39 532.81,-77.79 533.85,-88.34 540.2,-85.39"/>
</g>
<!-- Node9 -->
<g id="node9" class="node">
<title>Node9</title>
<g id="a_node9"><a xlink:title=" ">
<polygon fill="white" stroke="#bfbfbf" points="458.5,-0.5 458.5,-20.5 522.5,-20.5 522.5,-0.5 458.5,-0.5"/>
<text text-anchor="middle" x="490.5" y="-7.7" font-family="Helvetica,sans-Serif" font-size="11.00">stdexcept</text>
</a>
</g>
</g>
<!-- Node8&#45;&gt;Node9 -->
<g id="edge9" class="edge">
<title>Node8&#45;&gt;Node9</title>
<path fill="none" stroke="midnightblue" d="M581.51,-171.24C583.41,-149.39 585.4,-93.73 561.5,-57 552.48,-43.14 537.6,-32.65 523.79,-25.26"/>
<polygon fill="midnightblue" stroke="midnightblue" points="524.99,-21.95 514.48,-20.64 521.88,-28.22 524.99,-21.95"/>
</g>
<!-- Node8&#45;&gt;Node10 -->
<g id="edge10" class="edge">
<title>Node8&#45;&gt;Node10</title>
<path fill="none" stroke="midnightblue" d="M554.08,-171.42C527.36,-162.23 485.9,-147.98 456.26,-137.79"/>
<polygon fill="midnightblue" stroke="midnightblue" points="457.29,-134.45 446.69,-134.5 455.01,-141.06 457.29,-134.45"/>
</g>
<!-- Node10&#45;&gt;Node7 -->
<g id="edge11" class="edge">
<title>Node10&#45;&gt;Node7</title>
<path fill="none" stroke="midnightblue" d="M438.33,-114.42C455.53,-105.66 481.78,-92.29 501.53,-82.23"/>
<polygon fill="midnightblue" stroke="midnightblue" points="503.32,-85.25 510.64,-77.6 500.14,-79.01 503.32,-85.25"/>
</g>
<!-- Node11 -->
<g id="node11" class="node">
<title>Node11</title>
<g id="a_node11"><a xlink:href="_assertion_8h.html" target="_top" xlink:title="The Assertion specification defines macros for pre&#45; and postconditions in functions or methods.">
<polygon fill="white" stroke="black" points="295,-57.5 295,-77.5 366,-77.5 366,-57.5 295,-57.5"/>
<text text-anchor="middle" x="330.5" y="-64.7" font-family="Helvetica,sans-Serif" font-size="11.00">Assertion.h</text>
</a>
</g>
</g>
<!-- Node10&#45;&gt;Node11 -->
<g id="edge12" class="edge">
<title>Node10&#45;&gt;Node11</title>
<path fill="none" stroke="midnightblue" d="M405.64,-114.42C391.7,-105.9 370.62,-93.02 354.33,-83.06"/>
<polygon fill="midnightblue" stroke="midnightblue" points="355.74,-79.82 345.38,-77.6 352.09,-85.8 355.74,-79.82"/>
</g>
<!-- Node13 -->
<g id="node13" class="node">
<title>Node13</title>
<g id="a_node13"><a xlink:title=" ">
<polygon fill="white" stroke="#bfbfbf" points="384,-57.5 384,-77.5 487,-77.5 487,-57.5 384,-57.5"/>
<text text-anchor="middle" x="435.5" y="-64.7" font-family="Helvetica,sans-Serif" font-size="11.00">GenericNumber.h</text>
</a>
</g>
</g>
<!-- Node10&#45;&gt;Node13 -->
<g id="edge15" class="edge">
<title>Node10&#45;&gt;Node13</title>
<path fill="none" stroke="midnightblue" d="M422.98,-114.42C424.96,-107.14 427.82,-96.67 430.3,-87.57"/>
<polygon fill="midnightblue" stroke="midnightblue" points="433.71,-88.35 432.97,-77.78 426.96,-86.51 433.71,-88.35"/>
</g>
<!-- Node14 -->
<g id="node14" class="node">
<title>Node14</title>
<g id="a_node14"><a xlink:href="_my_string_8h.html" target="_top" xlink:title="The String specification defines a standard string type.">
<polygon fill="white" stroke="black" points="208.5,-57.5 208.5,-77.5 276.5,-77.5 276.5,-57.5 208.5,-57.5"/>
<text text-anchor="middle" x="242.5" y="-64.7" font-family="Helvetica,sans-Serif" font-size="11.00">MyString.h</text>
</a>
</g>
</g>
<!-- Node10&#45;&gt;Node14 -->
<g id="edge16" class="edge">
<title>Node10&#45;&gt;Node14</title>
<path fill="none" stroke="midnightblue" d="M391.11,-114.42C361.13,-105.15 314.45,-90.73 281.42,-80.53"/>
<polygon fill="midnightblue" stroke="midnightblue" points="282.23,-77.11 271.64,-77.5 280.16,-83.8 282.23,-77.11"/>
</g>
<!-- Node11&#45;&gt;Node9 -->
<g id="edge13" class="edge">
<title>Node11&#45;&gt;Node9</title>
<path fill="none" stroke="midnightblue" d="M356.92,-57.42C383.64,-48.23 425.1,-33.98 454.74,-23.79"/>
<polygon fill="midnightblue" stroke="midnightblue" points="455.99,-27.06 464.31,-20.5 453.71,-20.45 455.99,-27.06"/>
</g>
<!-- Node12 -->
<g id="node12" class="node">
<title>Node12</title>
<g id="a_node12"><a xlink:title=" ">
<polygon fill="white" stroke="#bfbfbf" points="307.5,-0.5 307.5,-20.5 351.5,-20.5 351.5,-0.5 307.5,-0.5"/>
<text text-anchor="middle" x="329.5" y="-7.7" font-family="Helvetica,sans-Serif" font-size="11.00">string</text>
</a>
</g>
</g>
<!-- Node11&#45;&gt;Node12 -->
<g id="edge14" class="edge">
<title>Node11&#45;&gt;Node12</title>
<path fill="none" stroke="midnightblue" d="M330.33,-57.42C330.2,-50.22 330.02,-39.9 329.85,-30.86"/>
<polygon fill="midnightblue" stroke="midnightblue" points="333.35,-30.71 329.67,-20.78 326.35,-30.84 333.35,-30.71"/>
</g>
<!-- Node14&#45;&gt;Node12 -->
<g id="edge17" class="edge">
<title>Node14&#45;&gt;Node12</title>
<path fill="none" stroke="midnightblue" d="M256.87,-57.42C270.34,-48.9 290.72,-36.02 306.46,-26.06"/>
<polygon fill="midnightblue" stroke="midnightblue" points="308.53,-28.9 315.11,-20.6 304.79,-22.98 308.53,-28.9"/>
</g>
<!-- Node15 -->
<g id="node15" class="node">
<title>Node15</title>
<g id="a_node15"><a xlink:href="_global_macros_8h.html" target="_top" xlink:title="The GlobalMacros specification defines simple macros (e.g. for parameter modes).">
<polygon fill="white" stroke="black" points="196.5,-0.5 196.5,-20.5 288.5,-20.5 288.5,-0.5 196.5,-0.5"/>
<text text-anchor="middle" x="242.5" y="-7.7" font-family="Helvetica,sans-Serif" font-size="11.00">GlobalMacros.h</text>
</a>
</g>
</g>
<!-- Node14&#45;&gt;Node15 -->
<g id="edge18" class="edge">
<title>Node14&#45;&gt;Node15</title>
<path fill="none" stroke="midnightblue" d="M242.5,-57.42C242.5,-50.22 242.5,-39.9 242.5,-30.86"/>
<polygon fill="midnightblue" stroke="midnightblue" points="246,-30.78 242.5,-20.78 239,-30.78 246,-30.78"/>
</g>
<!-- Node17 -->
<g id="node17" class="node">
<title>Node17</title>
<g id="a_node17"><a xlink:href="_my_array_8h.html" target="_top" xlink:title="The MyArray specification and body defines a generic array type for stack allocated arrays represente...">
<polygon fill="white" stroke="black" points="422,-228.5 422,-248.5 487,-248.5 487,-228.5 422,-228.5"/>
<text text-anchor="middle" x="454.5" y="-235.7" font-family="Helvetica,sans-Serif" font-size="11.00">MyArray.h</text>
</a>
</g>
</g>
<!-- Node16&#45;&gt;Node17 -->
<g id="edge20" class="edge">
<title>Node16&#45;&gt;Node17</title>
<path fill="none" stroke="midnightblue" d="M452.83,-285.42C453.09,-278.22 453.47,-267.9 453.8,-258.86"/>
<polygon fill="midnightblue" stroke="midnightblue" points="457.3,-258.9 454.16,-248.78 450.3,-258.65 457.3,-258.9"/>
</g>
<!-- Node17&#45;&gt;Node10 -->
<g id="edge22" class="edge">
<title>Node17&#45;&gt;Node10</title>
<path fill="none" stroke="midnightblue" d="M451.72,-228.33C446.19,-210.12 433.72,-169.04 426.32,-144.67"/>
<polygon fill="midnightblue" stroke="midnightblue" points="429.57,-143.34 423.32,-134.79 422.88,-145.38 429.57,-143.34"/>
</g>
<!-- Node18 -->
<g id="node18" class="node">
<title>Node18</title>
<g id="a_node18"><a xlink:title=" ">
<polygon fill="white" stroke="#bfbfbf" points="482.5,-171.5 482.5,-191.5 532.5,-191.5 532.5,-171.5 482.5,-171.5"/>
<text text-anchor="middle" x="507.5" y="-178.7" font-family="Helvetica,sans-Serif" font-size="11.00">cstring</text>
</a>
</g>
</g>
<!-- Node17&#45;&gt;Node18 -->
<g id="edge21" class="edge">
<title>Node17&#45;&gt;Node18</title>
<path fill="none" stroke="midnightblue" d="M463.25,-228.42C470.88,-220.5 482.13,-208.82 491.38,-199.23"/>
<polygon fill="midnightblue" stroke="midnightblue" points="494.14,-201.41 498.56,-191.78 489.1,-196.55 494.14,-201.41"/>
</g>
<!-- Node21 -->
<g id="node21" class="node">
<title>Node21</title>
<g id="a_node21"><a xlink:title=" ">
<polygon fill="white" stroke="#bfbfbf" points="694.5,-342.5 694.5,-362.5 778.5,-362.5 778.5,-342.5 694.5,-342.5"/>
<text text-anchor="middle" x="736.5" y="-349.7" font-family="Helvetica,sans-Serif" font-size="11.00">GenericMap.h</text>
</a>
</g>
</g>
<!-- Node20&#45;&gt;Node21 -->
<g id="edge25" class="edge">
<title>Node20&#45;&gt;Node21</title>
<path fill="none" stroke="midnightblue" d="M734,-399.42C734.39,-392.22 734.95,-381.9 735.44,-372.86"/>
<polygon fill="midnightblue" stroke="midnightblue" points="738.94,-372.96 735.99,-362.78 731.95,-372.57 738.94,-372.96"/>
</g>
<!-- Node22&#45;&gt;Node4 -->
<g id="edge30" class="edge">
<title>Node22&#45;&gt;Node4</title>
<path fill="none" stroke="midnightblue" d="M234.72,-342.18C241.79,-333.5 251.46,-319.85 255.5,-306 271.98,-249.49 264.27,-178.72 259,-145.05"/>
<polygon fill="midnightblue" stroke="midnightblue" points="262.39,-144.06 257.28,-134.77 255.48,-145.21 262.39,-144.06"/>
</g>
<!-- Node23 -->
<g id="node23" class="node">
<title>Node23</title>
<g id="a_node23"><a xlink:title=" ">
<polygon fill="white" stroke="#bfbfbf" points="83.5,-114.5 83.5,-134.5 161.5,-134.5 161.5,-114.5 83.5,-114.5"/>
<text text-anchor="middle" x="122.5" y="-121.7" font-family="Helvetica,sans-Serif" font-size="11.00">initializer_list</text>
</a>
</g>
</g>
<!-- Node22&#45;&gt;Node23 -->
<g id="edge29" class="edge">
<title>Node22&#45;&gt;Node23</title>
<path fill="none" stroke="midnightblue" d="M205.13,-342.42C174.13,-327.9 117.94,-296.21 95.5,-249 78.86,-213.98 98.04,-168.48 111.53,-143.64"/>
<polygon fill="midnightblue" stroke="midnightblue" points="114.76,-145.05 116.67,-134.63 108.68,-141.58 114.76,-145.05"/>
</g>
<!-- Node24 -->
<g id="node24" class="node">
<title>Node24</title>
<g id="a_node24"><a xlink:href="_midi_event_8h.html" target="_top" xlink:title="The MidiEvent specification defines a single MIDI event and the MIDI event kind enumeration.">
<polygon fill="white" stroke="black" points="174.5,-285.5 174.5,-305.5 246.5,-305.5 246.5,-285.5 174.5,-285.5"/>
<text text-anchor="middle" x="210.5" y="-292.7" font-family="Helvetica,sans-Serif" font-size="11.00">MidiEvent.h</text>
</a>
</g>
</g>
<!-- Node22&#45;&gt;Node24 -->
<g id="edge31" class="edge">
<title>Node22&#45;&gt;Node24</title>
<path fill="none" stroke="midnightblue" d="M223.86,-342.42C221.74,-335.14 218.69,-324.67 216.05,-315.57"/>
<polygon fill="midnightblue" stroke="midnightblue" points="219.35,-314.4 213.2,-305.78 212.63,-316.36 219.35,-314.4"/>
</g>
<!-- Node24&#45;&gt;Node8 -->
<g id="edge34" class="edge">
<title>Node24&#45;&gt;Node8</title>
<path fill="none" stroke="midnightblue" d="M246.91,-294.52C302.91,-293.3 412.48,-285.89 496.5,-249 523.48,-237.16 549.23,-214.51 564.94,-198.97"/>
<polygon fill="midnightblue" stroke="midnightblue" points="567.69,-201.16 572.2,-191.58 562.69,-196.26 567.69,-201.16"/>
</g>
<!-- Node25 -->
<g id="node25" class="node">
<title>Node25</title>
<g id="a_node25"><a xlink:href="_boolean_8h.html" target="_top" xlink:title="The Boolean specification and body provides a value object type for boolean values.">
<polygon fill="white" stroke="black" points="0,-114.5 0,-134.5 65,-134.5 65,-114.5 0,-114.5"/>
<text text-anchor="middle" x="32.5" y="-121.7" font-family="Helvetica,sans-Serif" font-size="11.00">Boolean.h</text>
</a>
</g>
</g>
<!-- Node24&#45;&gt;Node25 -->
<g id="edge32" class="edge">
<title>Node24&#45;&gt;Node25</title>
<path fill="none" stroke="midnightblue" d="M174.5,-287.33C149.82,-280.85 117.66,-269.15 95.5,-249 63.57,-219.97 45.46,-171.02 37.48,-144.3"/>
<polygon fill="midnightblue" stroke="midnightblue" points="40.83,-143.3 34.75,-134.63 34.1,-145.2 40.83,-143.3"/>
</g>
<!-- Node26 -->
<g id="node26" class="node">
<title>Node26</title>
<g id="a_node26"><a xlink:href="_byte_list_8h.html" target="_top" xlink:title="The ByteList specification defines lists of byte values with zero&#45;based arbitrary indexed access to p...">
<polygon fill="white" stroke="black" points="105,-228.5 105,-248.5 170,-248.5 170,-228.5 105,-228.5"/>
<text text-anchor="middle" x="137.5" y="-235.7" font-family="Helvetica,sans-Serif" font-size="11.00">ByteList.h</text>
</a>
</g>
</g>
<!-- Node24&#45;&gt;Node26 -->
<g id="edge35" class="edge">
<title>Node24&#45;&gt;Node26</title>
<path fill="none" stroke="midnightblue" d="M198.45,-285.42C187.42,-277.11 170.88,-264.65 157.81,-254.8"/>
<polygon fill="midnightblue" stroke="midnightblue" points="159.91,-252 149.82,-248.78 155.7,-257.59 159.91,-252"/>
</g>
<!-- Node29 -->
<g id="node29" class="node">
<title>Node29</title>
<g id="a_node29"><a xlink:href="_object_8h.html" target="_top" xlink:title="The Object specification and body provides the root object type.">
<polygon fill="white" stroke="black" points="188.5,-228.5 188.5,-248.5 246.5,-248.5 246.5,-228.5 188.5,-228.5"/>
<text text-anchor="middle" x="217.5" y="-235.7" font-family="Helvetica,sans-Serif" font-size="11.00">Object.h</text>
</a>
</g>
</g>
<!-- Node24&#45;&gt;Node29 -->
<g id="edge44" class="edge">
<title>Node24&#45;&gt;Node29</title>
<path fill="none" stroke="midnightblue" d="M211.66,-285.42C212.57,-278.22 213.89,-267.9 215.04,-258.86"/>
<polygon fill="midnightblue" stroke="midnightblue" points="218.53,-259.14 216.32,-248.78 211.58,-258.26 218.53,-259.14"/>
</g>
<!-- Node25&#45;&gt;Node14 -->
<g id="edge33" class="edge">
<title>Node25&#45;&gt;Node14</title>
<path fill="none" stroke="midnightblue" d="M65.31,-114.91C101.15,-105.52 158.73,-90.44 198.48,-80.03"/>
<polygon fill="midnightblue" stroke="midnightblue" points="199.39,-83.41 208.18,-77.49 197.61,-76.64 199.39,-83.41"/>
</g>
<!-- Node26&#45;&gt;Node4 -->
<g id="edge40" class="edge">
<title>Node26&#45;&gt;Node4</title>
<path fill="none" stroke="midnightblue" d="M159.99,-228.37C177.03,-220.61 200.21,-208.16 216.5,-192 230.41,-178.19 241.17,-158.42 247.83,-144.03"/>
<polygon fill="midnightblue" stroke="midnightblue" points="251.13,-145.22 251.94,-134.66 244.72,-142.41 251.13,-145.22"/>
</g>
<!-- Node26&#45;&gt;Node23 -->
<g id="edge36" class="edge">
<title>Node26&#45;&gt;Node23</title>
<path fill="none" stroke="midnightblue" d="M135.04,-228.16C132.73,-219.01 129.36,-204.64 127.5,-192 125.19,-176.23 123.91,-158.19 123.23,-144.88"/>
<polygon fill="midnightblue" stroke="midnightblue" points="126.72,-144.41 122.78,-134.58 119.72,-144.73 126.72,-144.41"/>
</g>
<!-- Node27 -->
<g id="node27" class="node">
<title>Node27</title>
<g id="a_node27"><a xlink:href="_byte_8h.html" target="_top" xlink:title="The Byte specification and body provides a value object type for byte values.">
<polygon fill="white" stroke="black" points="341,-171.5 341,-191.5 388,-191.5 388,-171.5 341,-171.5"/>
<text text-anchor="middle" x="364.5" y="-178.7" font-family="Helvetica,sans-Serif" font-size="11.00">Byte.h</text>
</a>
</g>
</g>
<!-- Node26&#45;&gt;Node27 -->
<g id="edge37" class="edge">
<title>Node26&#45;&gt;Node27</title>
<path fill="none" stroke="midnightblue" d="M170.02,-229.62C212.81,-219.25 287.63,-201.12 330.93,-190.63"/>
<polygon fill="midnightblue" stroke="midnightblue" points="331.81,-194.02 340.71,-188.26 330.16,-187.22 331.81,-194.02"/>
</g>
<!-- Node28 -->
<g id="node28" class="node">
<title>Node28</title>
<g id="a_node28"><a xlink:href="_string_list_8h.html" target="_top" xlink:title="The StringList specification defines lists of string values with zero&#45;based arbitrary indexed access ...">
<polygon fill="white" stroke="black" points="137,-171.5 137,-191.5 208,-191.5 208,-171.5 137,-171.5"/>
<text text-anchor="middle" x="172.5" y="-178.7" font-family="Helvetica,sans-Serif" font-size="11.00">StringList.h</text>
</a>
</g>
</g>
<!-- Node26&#45;&gt;Node28 -->
<g id="edge41" class="edge">
<title>Node26&#45;&gt;Node28</title>
<path fill="none" stroke="midnightblue" d="M143.28,-228.42C148.11,-220.82 155.16,-209.75 161.12,-200.39"/>
<polygon fill="midnightblue" stroke="midnightblue" points="164.18,-202.1 166.59,-191.78 158.27,-198.34 164.18,-202.1"/>
</g>
<!-- Node27&#45;&gt;Node7 -->
<g id="edge38" class="edge">
<title>Node27&#45;&gt;Node7</title>
<path fill="none" stroke="midnightblue" d="M388.28,-171.6C408.22,-163.57 436.97,-150.64 459.5,-135 480.29,-120.57 500.74,-99.8 513.91,-85.33"/>
<polygon fill="midnightblue" stroke="midnightblue" points="516.73,-87.42 520.77,-77.63 511.51,-82.77 516.73,-87.42"/>
</g>
<!-- Node27&#45;&gt;Node10 -->
<g id="edge39" class="edge">
<title>Node27&#45;&gt;Node10</title>
<path fill="none" stroke="midnightblue" d="M373.75,-171.42C381.89,-163.42 393.94,-151.59 403.76,-141.94"/>
<polygon fill="midnightblue" stroke="midnightblue" points="406.37,-144.28 411.05,-134.78 401.46,-139.29 406.37,-144.28"/>
</g>
<!-- Node28&#45;&gt;Node4 -->
<g id="edge43" class="edge">
<title>Node28&#45;&gt;Node4</title>
<path fill="none" stroke="midnightblue" d="M186.21,-171.42C198.94,-162.98 218.14,-150.26 233.1,-140.34"/>
<polygon fill="midnightblue" stroke="midnightblue" points="235.37,-143.04 241.77,-134.6 231.5,-137.2 235.37,-143.04"/>
</g>
<!-- Node28&#45;&gt;Node23 -->
<g id="edge42" class="edge">
<title>Node28&#45;&gt;Node23</title>
<path fill="none" stroke="midnightblue" d="M164.24,-171.42C157.05,-163.5 146.43,-151.82 137.7,-142.23"/>
<polygon fill="midnightblue" stroke="midnightblue" points="140.25,-139.82 130.94,-134.78 135.07,-144.53 140.25,-139.82"/>
</g>
</g>
</svg>
