<?xml version="1.0" encoding="UTF-8" standalone="no"?>
<!DOCTYPE svg PUBLIC "-//W3C//DTD SVG 1.1//EN"
 "http://www.w3.org/Graphics/SVG/1.1/DTD/svg11.dtd">
<!-- Generated by graphviz version 2.47.1 (20210417.1919)
 -->
<!-- Title: MidiFile.h Pages: 1 -->
<svg width="638pt" height="420pt"
 viewBox="0.00 0.00 638.00 420.00" xmlns="http://www.w3.org/2000/svg" xmlns:xlink="http://www.w3.org/1999/xlink">
<g id="graph0" class="graph" transform="scale(1 1) rotate(0) translate(4 416)">
<title>MidiFile.h</title>
<polygon fill="white" stroke="transparent" points="-4,4 -4,-416 634,-416 634,4 -4,4"/>
<!-- Node1 -->
<g id="node1" class="node">
<title>Node1</title>
<g id="a_node1"><a xlink:title="The MidiFile specification defines the services of a MIDI file; currently only file reading is suppor...">
<polygon fill="#bfbfbf" stroke="black" points="274,-392.5 274,-411.5 333,-411.5 333,-392.5 274,-392.5"/>
<text text-anchor="middle" x="303.5" y="-399.5" font-family="Helvetica,sans-Serif" font-size="10.00">MidiFile.h</text>
</a>
</g>
</g>
<!-- Node2 -->
<g id="node2" class="node">
<title>Node2</title>
<g id="a_node2"><a xlink:href="_natural_8h.html" target="_top" xlink:title="The Natural specification and body provides a value object type for naturals (positive integers with ...">
<polygon fill="white" stroke="black" points="370.5,-112.5 370.5,-131.5 426.5,-131.5 426.5,-112.5 370.5,-112.5"/>
<text text-anchor="middle" x="398.5" y="-119.5" font-family="Helvetica,sans-Serif" font-size="10.00">Natural.h</text>
</a>
</g>
</g>
<!-- Node1&#45;&gt;Node2 -->
<g id="edge1" class="edge">
<title>Node1&#45;&gt;Node2</title>
<path fill="none" stroke="midnightblue" d="M333.03,-397.48C386.19,-389.32 492.5,-363.89 492.5,-291 492.5,-291 492.5,-291 492.5,-233 492.5,-189.93 450.34,-155.21 422.49,-136.98"/>
<polygon fill="midnightblue" stroke="midnightblue" points="424.35,-134.01 414.02,-131.65 420.62,-139.94 424.35,-134.01"/>
</g>
<!-- Node10 -->
<g id="node10" class="node">
<title>Node10</title>
<g id="a_node10"><a xlink:href="_midi_event_list_8h.html" target="_top" xlink:title="The MidiEventList specification defines lists of MIDI events with zero&#45;based arbitrary indexed access...">
<polygon fill="white" stroke="black" points="168,-336.5 168,-355.5 251,-355.5 251,-336.5 168,-336.5"/>
<text text-anchor="middle" x="209.5" y="-343.5" font-family="Helvetica,sans-Serif" font-size="10.00">MidiEventList.h</text>
</a>
</g>
</g>
<!-- Node1&#45;&gt;Node10 -->
<g id="edge10" class="edge">
<title>Node1&#45;&gt;Node10</title>
<path fill="none" stroke="midnightblue" d="M288.4,-392.32C273.6,-383.82 250.81,-370.73 233.52,-360.8"/>
<polygon fill="midnightblue" stroke="midnightblue" points="234.98,-357.6 224.57,-355.65 231.49,-363.67 234.98,-357.6"/>
</g>
<!-- Node3 -->
<g id="node3" class="node">
<title>Node3</title>
<g id="a_node3"><a xlink:title=" ">
<polygon fill="white" stroke="#bfbfbf" points="261.5,-56.5 261.5,-75.5 305.5,-75.5 305.5,-56.5 261.5,-56.5"/>
<text text-anchor="middle" x="283.5" y="-63.5" font-family="Helvetica,sans-Serif" font-size="10.00">cmath</text>
</a>
</g>
</g>
<!-- Node2&#45;&gt;Node3 -->
<g id="edge2" class="edge">
<title>Node2&#45;&gt;Node3</title>
<path fill="none" stroke="midnightblue" d="M380.28,-112.44C361.6,-103.68 332.34,-89.94 310.88,-79.86"/>
<polygon fill="midnightblue" stroke="midnightblue" points="312.18,-76.6 301.64,-75.52 309.2,-82.93 312.18,-76.6"/>
</g>
<!-- Node4 -->
<g id="node4" class="node">
<title>Node4</title>
<g id="a_node4"><a xlink:href="_assertion_8h.html" target="_top" xlink:title="The Assertion specification defines macros for pre&#45; and postconditions in functions or methods.">
<polygon fill="white" stroke="black" points="471.5,-56.5 471.5,-75.5 537.5,-75.5 537.5,-56.5 471.5,-56.5"/>
<text text-anchor="middle" x="504.5" y="-63.5" font-family="Helvetica,sans-Serif" font-size="10.00">Assertion.h</text>
</a>
</g>
</g>
<!-- Node2&#45;&gt;Node4 -->
<g id="edge3" class="edge">
<title>Node2&#45;&gt;Node4</title>
<path fill="none" stroke="midnightblue" d="M415.53,-112.32C432.53,-103.66 458.88,-90.24 478.49,-80.25"/>
<polygon fill="midnightblue" stroke="midnightblue" points="480.19,-83.31 487.51,-75.65 477.01,-77.08 480.19,-83.31"/>
</g>
<!-- Node7 -->
<g id="node7" class="node">
<title>Node7</title>
<g id="a_node7"><a xlink:title=" ">
<polygon fill="white" stroke="#bfbfbf" points="361.5,-56.5 361.5,-75.5 453.5,-75.5 453.5,-56.5 361.5,-56.5"/>
<text text-anchor="middle" x="407.5" y="-63.5" font-family="Helvetica,sans-Serif" font-size="10.00">GenericNumber.h</text>
</a>
</g>
</g>
<!-- Node2&#45;&gt;Node7 -->
<g id="edge6" class="edge">
<title>Node2&#45;&gt;Node7</title>
<path fill="none" stroke="midnightblue" d="M399.99,-112.08C401.18,-104.93 402.89,-94.64 404.38,-85.69"/>
<polygon fill="midnightblue" stroke="midnightblue" points="407.85,-86.19 406.04,-75.75 400.95,-85.04 407.85,-86.19"/>
</g>
<!-- Node8 -->
<g id="node8" class="node">
<title>Node8</title>
<g id="a_node8"><a xlink:href="_my_string_8h.html" target="_top" xlink:title="The String specification defines a standard string type.">
<polygon fill="white" stroke="black" points="555.5,-56.5 555.5,-75.5 619.5,-75.5 619.5,-56.5 555.5,-56.5"/>
<text text-anchor="middle" x="587.5" y="-63.5" font-family="Helvetica,sans-Serif" font-size="10.00">MyString.h</text>
</a>
</g>
</g>
<!-- Node2&#45;&gt;Node8 -->
<g id="edge7" class="edge">
<title>Node2&#45;&gt;Node8</title>
<path fill="none" stroke="midnightblue" d="M426.8,-112.92C458.89,-103.74 511.47,-88.72 547.69,-78.37"/>
<polygon fill="midnightblue" stroke="midnightblue" points="548.79,-81.7 557.45,-75.59 546.87,-74.97 548.79,-81.7"/>
</g>
<!-- Node5 -->
<g id="node5" class="node">
<title>Node5</title>
<g id="a_node5"><a xlink:title=" ">
<polygon fill="white" stroke="#bfbfbf" points="357,-0.5 357,-19.5 416,-19.5 416,-0.5 357,-0.5"/>
<text text-anchor="middle" x="386.5" y="-7.5" font-family="Helvetica,sans-Serif" font-size="10.00">stdexcept</text>
</a>
</g>
</g>
<!-- Node4&#45;&gt;Node5 -->
<g id="edge4" class="edge">
<title>Node4&#45;&gt;Node5</title>
<path fill="none" stroke="midnightblue" d="M485.8,-56.44C466.56,-47.64 436.35,-33.81 414.3,-23.72"/>
<polygon fill="midnightblue" stroke="midnightblue" points="415.66,-20.5 405.11,-19.52 412.75,-26.86 415.66,-20.5"/>
</g>
<!-- Node6 -->
<g id="node6" class="node">
<title>Node6</title>
<g id="a_node6"><a xlink:title=" ">
<polygon fill="white" stroke="#bfbfbf" points="485,-0.5 485,-19.5 526,-19.5 526,-0.5 485,-0.5"/>
<text text-anchor="middle" x="505.5" y="-7.5" font-family="Helvetica,sans-Serif" font-size="10.00">string</text>
</a>
</g>
</g>
<!-- Node4&#45;&gt;Node6 -->
<g id="edge5" class="edge">
<title>Node4&#45;&gt;Node6</title>
<path fill="none" stroke="midnightblue" d="M504.67,-56.08C504.8,-49.01 504.98,-38.86 505.15,-29.99"/>
<polygon fill="midnightblue" stroke="midnightblue" points="508.65,-29.81 505.34,-19.75 501.65,-29.68 508.65,-29.81"/>
</g>
<!-- Node8&#45;&gt;Node6 -->
<g id="edge8" class="edge">
<title>Node8&#45;&gt;Node6</title>
<path fill="none" stroke="midnightblue" d="M574.33,-56.32C561.65,-47.98 542.27,-35.21 527.29,-25.35"/>
<polygon fill="midnightblue" stroke="midnightblue" points="528.92,-22.23 518.64,-19.65 525.07,-28.08 528.92,-22.23"/>
</g>
<!-- Node9 -->
<g id="node9" class="node">
<title>Node9</title>
<g id="a_node9"><a xlink:href="_global_macros_8h.html" target="_top" xlink:title="The GlobalMacros specification defines simple macros (e.g. for parameter modes).">
<polygon fill="white" stroke="black" points="545,-0.5 545,-19.5 630,-19.5 630,-0.5 545,-0.5"/>
<text text-anchor="middle" x="587.5" y="-7.5" font-family="Helvetica,sans-Serif" font-size="10.00">GlobalMacros.h</text>
</a>
</g>
</g>
<!-- Node8&#45;&gt;Node9 -->
<g id="edge9" class="edge">
<title>Node8&#45;&gt;Node9</title>
<path fill="none" stroke="midnightblue" d="M587.5,-56.08C587.5,-49.01 587.5,-38.86 587.5,-29.99"/>
<polygon fill="midnightblue" stroke="midnightblue" points="591,-29.75 587.5,-19.75 584,-29.75 591,-29.75"/>
</g>
<!-- Node11 -->
<g id="node11" class="node">
<title>Node11</title>
<g id="a_node11"><a xlink:title=" ">
<polygon fill="white" stroke="#bfbfbf" points="0,-112.5 0,-131.5 73,-131.5 73,-112.5 0,-112.5"/>
<text text-anchor="middle" x="36.5" y="-119.5" font-family="Helvetica,sans-Serif" font-size="10.00">initializer_list</text>
</a>
</g>
</g>
<!-- Node10&#45;&gt;Node11 -->
<g id="edge11" class="edge">
<title>Node10&#45;&gt;Node11</title>
<path fill="none" stroke="midnightblue" d="M202.56,-336.41C195.28,-327.37 183.52,-312.74 173.5,-300 127.35,-241.36 73.34,-171.09 49.24,-139.64"/>
<polygon fill="midnightblue" stroke="midnightblue" points="51.87,-137.32 43.01,-131.51 46.31,-141.58 51.87,-137.32"/>
</g>
<!-- Node12 -->
<g id="node12" class="node">
<title>Node12</title>
<g id="a_node12"><a xlink:title=" ">
<polygon fill="white" stroke="#bfbfbf" points="91.5,-112.5 91.5,-131.5 165.5,-131.5 165.5,-112.5 91.5,-112.5"/>
<text text-anchor="middle" x="128.5" y="-119.5" font-family="Helvetica,sans-Serif" font-size="10.00">GenericList.h</text>
</a>
</g>
</g>
<!-- Node10&#45;&gt;Node12 -->
<g id="edge12" class="edge">
<title>Node10&#45;&gt;Node12</title>
<path fill="none" stroke="midnightblue" d="M205,-336.4C192.98,-313.12 159.85,-246.68 141.5,-188 136.72,-172.71 133.29,-154.83 131.16,-141.69"/>
<polygon fill="midnightblue" stroke="midnightblue" points="134.59,-140.92 129.62,-131.56 127.66,-141.97 134.59,-140.92"/>
</g>
<!-- Node13 -->
<g id="node13" class="node">
<title>Node13</title>
<g id="a_node13"><a xlink:href="_midi_event_8h.html" target="_top" xlink:title="The MidiEvent specification defines a single MIDI event and the MIDI event kind enumeration.">
<polygon fill="white" stroke="black" points="271,-280.5 271,-299.5 338,-299.5 338,-280.5 271,-280.5"/>
<text text-anchor="middle" x="304.5" y="-287.5" font-family="Helvetica,sans-Serif" font-size="10.00">MidiEvent.h</text>
</a>
</g>
</g>
<!-- Node10&#45;&gt;Node13 -->
<g id="edge13" class="edge">
<title>Node10&#45;&gt;Node13</title>
<path fill="none" stroke="midnightblue" d="M224.76,-336.32C239.72,-327.82 262.75,-314.73 280.23,-304.8"/>
<polygon fill="midnightblue" stroke="midnightblue" points="282.31,-307.64 289.27,-299.65 278.85,-301.55 282.31,-307.64"/>
</g>
<!-- Node14 -->
<g id="node14" class="node">
<title>Node14</title>
<g id="a_node14"><a xlink:href="_boolean_8h.html" target="_top" xlink:title="The Boolean specification and body provides a value object type for boolean values.">
<polygon fill="white" stroke="black" points="404.5,-224.5 404.5,-243.5 464.5,-243.5 464.5,-224.5 404.5,-224.5"/>
<text text-anchor="middle" x="434.5" y="-231.5" font-family="Helvetica,sans-Serif" font-size="10.00">Boolean.h</text>
</a>
</g>
</g>
<!-- Node13&#45;&gt;Node14 -->
<g id="edge14" class="edge">
<title>Node13&#45;&gt;Node14</title>
<path fill="none" stroke="midnightblue" d="M325.1,-280.44C346.49,-271.56 380.18,-257.56 404.52,-247.45"/>
<polygon fill="midnightblue" stroke="midnightblue" points="406.11,-250.58 414,-243.52 403.42,-244.12 406.11,-250.58"/>
</g>
<!-- Node15 -->
<g id="node15" class="node">
<title>Node15</title>
<g id="a_node15"><a xlink:href="_integer_8h.html" target="_top" xlink:title="The Integer specification and body provides a value object type for ints.">
<polygon fill="white" stroke="black" points="302.5,-168.5 302.5,-187.5 356.5,-187.5 356.5,-168.5 302.5,-168.5"/>
<text text-anchor="middle" x="329.5" y="-175.5" font-family="Helvetica,sans-Serif" font-size="10.00">Integer.h</text>
</a>
</g>
</g>
<!-- Node13&#45;&gt;Node15 -->
<g id="edge16" class="edge">
<title>Node13&#45;&gt;Node15</title>
<path fill="none" stroke="midnightblue" d="M306.46,-280.37C310.5,-262.62 319.8,-221.67 325.27,-197.6"/>
<polygon fill="midnightblue" stroke="midnightblue" points="328.74,-198.12 327.55,-187.59 321.92,-196.57 328.74,-198.12"/>
</g>
<!-- Node16 -->
<g id="node16" class="node">
<title>Node16</title>
<g id="a_node16"><a xlink:href="_byte_list_8h.html" target="_top" xlink:title="The ByteList specification defines lists of byte values with zero&#45;based arbitrary indexed access to p...">
<polygon fill="white" stroke="black" points="215,-224.5 215,-243.5 276,-243.5 276,-224.5 215,-224.5"/>
<text text-anchor="middle" x="245.5" y="-231.5" font-family="Helvetica,sans-Serif" font-size="10.00">ByteList.h</text>
</a>
</g>
</g>
<!-- Node13&#45;&gt;Node16 -->
<g id="edge20" class="edge">
<title>Node13&#45;&gt;Node16</title>
<path fill="none" stroke="midnightblue" d="M295.02,-280.32C286.3,-272.34 273.16,-260.31 262.6,-250.65"/>
<polygon fill="midnightblue" stroke="midnightblue" points="264.89,-248 255.15,-243.83 260.17,-253.17 264.89,-248"/>
</g>
<!-- Node20 -->
<g id="node20" class="node">
<title>Node20</title>
<g id="a_node20"><a xlink:href="_object_8h.html" target="_top" xlink:title="The Object specification and body provides the root object type.">
<polygon fill="white" stroke="black" points="333,-224.5 333,-243.5 386,-243.5 386,-224.5 333,-224.5"/>
<text text-anchor="middle" x="359.5" y="-231.5" font-family="Helvetica,sans-Serif" font-size="10.00">Object.h</text>
</a>
</g>
</g>
<!-- Node13&#45;&gt;Node20 -->
<g id="edge28" class="edge">
<title>Node13&#45;&gt;Node20</title>
<path fill="none" stroke="midnightblue" d="M313.58,-280.08C321.67,-272.14 333.7,-260.34 343.41,-250.8"/>
<polygon fill="midnightblue" stroke="midnightblue" points="345.9,-253.25 350.59,-243.75 341,-248.26 345.9,-253.25"/>
</g>
<!-- Node14&#45;&gt;Node8 -->
<g id="edge15" class="edge">
<title>Node14&#45;&gt;Node8</title>
<path fill="none" stroke="midnightblue" d="M442.73,-224.08C467.33,-197.38 540.62,-117.87 572.46,-83.32"/>
<polygon fill="midnightblue" stroke="midnightblue" points="575.4,-85.29 579.6,-75.57 570.25,-80.55 575.4,-85.29"/>
</g>
<!-- Node15&#45;&gt;Node2 -->
<g id="edge19" class="edge">
<title>Node15&#45;&gt;Node2</title>
<path fill="none" stroke="midnightblue" d="M340.59,-168.32C350.99,-160.18 366.76,-147.84 379.22,-138.09"/>
<polygon fill="midnightblue" stroke="midnightblue" points="381.49,-140.75 387.21,-131.83 377.18,-135.24 381.49,-140.75"/>
</g>
<!-- Node15&#45;&gt;Node3 -->
<g id="edge17" class="edge">
<title>Node15&#45;&gt;Node3</title>
<path fill="none" stroke="midnightblue" d="M325.89,-168.37C318.4,-150.46 301.03,-108.92 291.01,-84.95"/>
<polygon fill="midnightblue" stroke="midnightblue" points="294.18,-83.47 287.09,-75.59 287.72,-86.17 294.18,-83.47"/>
</g>
<!-- Node15&#45;&gt;Node5 -->
<g id="edge18" class="edge">
<title>Node15&#45;&gt;Node5</title>
<path fill="none" stroke="midnightblue" d="M329.8,-168.39C330.79,-147.99 334.99,-95.48 352.5,-56 357.16,-45.5 364.68,-35.18 371.47,-27.08"/>
<polygon fill="midnightblue" stroke="midnightblue" points="374.14,-29.34 378.12,-19.52 368.89,-24.71 374.14,-29.34"/>
</g>
<!-- Node17 -->
<g id="node17" class="node">
<title>Node17</title>
<g id="a_node17"><a xlink:href="_byte_8h.html" target="_top" xlink:title="The Byte specification and body provides a value object type for byte values.">
<polygon fill="white" stroke="black" points="235,-168.5 235,-187.5 280,-187.5 280,-168.5 235,-168.5"/>
<text text-anchor="middle" x="257.5" y="-175.5" font-family="Helvetica,sans-Serif" font-size="10.00">Byte.h</text>
</a>
</g>
</g>
<!-- Node16&#45;&gt;Node17 -->
<g id="edge21" class="edge">
<title>Node16&#45;&gt;Node17</title>
<path fill="none" stroke="midnightblue" d="M247.48,-224.08C249.07,-216.93 251.36,-206.64 253.35,-197.69"/>
<polygon fill="midnightblue" stroke="midnightblue" points="256.8,-198.27 255.56,-187.75 249.97,-196.75 256.8,-198.27"/>
</g>
<!-- Node19 -->
<g id="node19" class="node">
<title>Node19</title>
<g id="a_node19"><a xlink:href="_string_list_8h.html" target="_top" xlink:title="The StringList specification defines lists of string values with zero&#45;based arbitrary indexed access ...">
<polygon fill="white" stroke="black" points="150.5,-168.5 150.5,-187.5 216.5,-187.5 216.5,-168.5 150.5,-168.5"/>
<text text-anchor="middle" x="183.5" y="-175.5" font-family="Helvetica,sans-Serif" font-size="10.00">StringList.h</text>
</a>
</g>
</g>
<!-- Node16&#45;&gt;Node19 -->
<g id="edge25" class="edge">
<title>Node16&#45;&gt;Node19</title>
<path fill="none" stroke="midnightblue" d="M235.54,-224.32C226.37,-216.34 212.56,-204.31 201.47,-194.65"/>
<polygon fill="midnightblue" stroke="midnightblue" points="203.48,-191.76 193.64,-187.83 198.88,-197.04 203.48,-191.76"/>
</g>
<!-- Node17&#45;&gt;Node2 -->
<g id="edge24" class="edge">
<title>Node17&#45;&gt;Node2</title>
<path fill="none" stroke="midnightblue" d="M279.84,-168.44C303.25,-159.48 340.24,-145.31 366.69,-135.18"/>
<polygon fill="midnightblue" stroke="midnightblue" points="368.18,-138.36 376.26,-131.52 365.67,-131.82 368.18,-138.36"/>
</g>
<!-- Node17&#45;&gt;Node3 -->
<g id="edge22" class="edge">
<title>Node17&#45;&gt;Node3</title>
<path fill="none" stroke="midnightblue" d="M259.54,-168.37C263.74,-150.62 273.42,-109.67 279.1,-85.6"/>
<polygon fill="midnightblue" stroke="midnightblue" points="282.58,-86.13 281.47,-75.59 275.76,-84.52 282.58,-86.13"/>
</g>
<!-- Node18 -->
<g id="node18" class="node">
<title>Node18</title>
<g id="a_node18"><a xlink:title=" ">
<polygon fill="white" stroke="#bfbfbf" points="183.5,-112.5 183.5,-131.5 229.5,-131.5 229.5,-112.5 183.5,-112.5"/>
<text text-anchor="middle" x="206.5" y="-119.5" font-family="Helvetica,sans-Serif" font-size="10.00">cstdint</text>
</a>
</g>
</g>
<!-- Node17&#45;&gt;Node18 -->
<g id="edge23" class="edge">
<title>Node17&#45;&gt;Node18</title>
<path fill="none" stroke="midnightblue" d="M249.08,-168.08C241.65,-160.22 230.65,-148.57 221.69,-139.08"/>
<polygon fill="midnightblue" stroke="midnightblue" points="224.18,-136.62 214.76,-131.75 219.09,-141.42 224.18,-136.62"/>
</g>
<!-- Node19&#45;&gt;Node11 -->
<g id="edge26" class="edge">
<title>Node19&#45;&gt;Node11</title>
<path fill="none" stroke="midnightblue" d="M160.21,-168.44C135.69,-159.44 96.9,-145.19 69.3,-135.05"/>
<polygon fill="midnightblue" stroke="midnightblue" points="70.28,-131.68 59.68,-131.52 67.86,-138.25 70.28,-131.68"/>
</g>
<!-- Node19&#45;&gt;Node12 -->
<g id="edge27" class="edge">
<title>Node19&#45;&gt;Node12</title>
<path fill="none" stroke="midnightblue" d="M174.42,-168.08C166.33,-160.14 154.3,-148.34 144.59,-138.8"/>
<polygon fill="midnightblue" stroke="midnightblue" points="147,-136.26 137.41,-131.75 142.1,-141.25 147,-136.26"/>
</g>
</g>
</svg>
