<?xml version="1.0" encoding="UTF-8" standalone="no"?>
<!DOCTYPE svg PUBLIC "-//W3C//DTD SVG 1.1//EN"
 "http://www.w3.org/Graphics/SVG/1.1/DTD/svg11.dtd">
<!-- Generated by graphviz version 2.47.1 (20210417.1919)
 -->
<!-- Title: MidiFile.h Pages: 1 -->
<svg width="362pt" height="599pt"
 viewBox="0.00 0.00 362.14 599.00" xmlns="http://www.w3.org/2000/svg" xmlns:xlink="http://www.w3.org/1999/xlink">
<g id="graph0" class="graph" transform="scale(1 1) rotate(0) translate(4 595)">
<title>MidiFile.h</title>
<polygon fill="white" stroke="transparent" points="-4,4 -4,-595 358.14,-595 358.14,4 -4,4"/>
<!-- Node1 -->
<g id="node1" class="node">
<title>Node1</title>
<g id="a_node1"><a xlink:title="The MidiFile specification defines the services of a MIDI file; currently only file reading is suppor...">
<polygon fill="#bfbfbf" stroke="black" points="17,-570.5 17,-590.5 79,-590.5 79,-570.5 17,-570.5"/>
<text text-anchor="middle" x="48" y="-577.7" font-family="Helvetica,sans-Serif" font-size="11.00">MidiFile.h</text>
</a>
</g>
</g>
<!-- Node2 -->
<g id="node2" class="node">
<title>Node2</title>
<g id="a_node2"><a xlink:href="_natural_8h.html" target="_top" xlink:title="The Natural specification and body provides a value object type for naturals (positive integers with ...">
<polygon fill="white" stroke="black" points="54,-228.5 54,-248.5 114,-248.5 114,-228.5 54,-228.5"/>
<text text-anchor="middle" x="84" y="-235.7" font-family="Helvetica,sans-Serif" font-size="11.00">Natural.h</text>
</a>
</g>
</g>
<!-- Node1&#45;&gt;Node2 -->
<g id="edge1" class="edge">
<title>Node1&#45;&gt;Node2</title>
<path fill="none" stroke="midnightblue" d="M41.12,-570.48C27.85,-552.14 0,-508.75 0,-467.5 0,-467.5 0,-467.5 0,-351.5 0,-309.97 37.42,-273.99 62.3,-254.65"/>
<polygon fill="midnightblue" stroke="midnightblue" points="64.59,-257.31 70.5,-248.52 60.4,-251.7 64.59,-257.31"/>
</g>
<!-- Node10 -->
<g id="node10" class="node">
<title>Node10</title>
<g id="a_node10"><a xlink:href="_midi_event_list_8h.html" target="_top" xlink:title="The MidiEventList specification defines sequences of MIDI events with zero&#45;based arbitrary indexed ac...">
<polygon fill="white" stroke="black" points="99.5,-513.5 99.5,-533.5 188.5,-533.5 188.5,-513.5 99.5,-513.5"/>
<text text-anchor="middle" x="144" y="-520.7" font-family="Helvetica,sans-Serif" font-size="11.00">MidiEventList.h</text>
</a>
</g>
</g>
<!-- Node1&#45;&gt;Node10 -->
<g id="edge10" class="edge">
<title>Node1&#45;&gt;Node10</title>
<path fill="none" stroke="midnightblue" d="M63.85,-570.42C78.86,-561.82 101.63,-548.78 119.07,-538.78"/>
<polygon fill="midnightblue" stroke="midnightblue" points="121.19,-541.6 128.12,-533.6 117.71,-535.53 121.19,-541.6"/>
</g>
<!-- Node3 -->
<g id="node3" class="node">
<title>Node3</title>
<g id="a_node3"><a xlink:title=" ">
<polygon fill="white" stroke="#bfbfbf" points="171.5,-171.5 171.5,-191.5 218.5,-191.5 218.5,-171.5 171.5,-171.5"/>
<text text-anchor="middle" x="195" y="-178.7" font-family="Helvetica,sans-Serif" font-size="11.00">cmath</text>
</a>
</g>
</g>
<!-- Node2&#45;&gt;Node3 -->
<g id="edge2" class="edge">
<title>Node2&#45;&gt;Node3</title>
<path fill="none" stroke="midnightblue" d="M102.33,-228.42C120.08,-219.62 147.23,-206.17 167.56,-196.1"/>
<polygon fill="midnightblue" stroke="midnightblue" points="169.24,-199.17 176.64,-191.6 166.13,-192.9 169.24,-199.17"/>
</g>
<!-- Node4 -->
<g id="node4" class="node">
<title>Node4</title>
<g id="a_node4"><a xlink:href="_generic_number_8h.html" target="_top" xlink:title="The GenericNumber specification and body defines a template for wrapper objects for elementary numeri...">
<polygon fill="white" stroke="black" points="50.5,-171.5 50.5,-191.5 153.5,-191.5 153.5,-171.5 50.5,-171.5"/>
<text text-anchor="middle" x="102" y="-178.7" font-family="Helvetica,sans-Serif" font-size="11.00">GenericNumber.h</text>
</a>
</g>
</g>
<!-- Node2&#45;&gt;Node4 -->
<g id="edge3" class="edge">
<title>Node2&#45;&gt;Node4</title>
<path fill="none" stroke="midnightblue" d="M86.97,-228.42C89.36,-221.14 92.78,-210.67 95.76,-201.57"/>
<polygon fill="midnightblue" stroke="midnightblue" points="99.18,-202.37 98.96,-191.78 92.53,-200.19 99.18,-202.37"/>
</g>
<!-- Node7 -->
<g id="node7" class="node">
<title>Node7</title>
<g id="a_node7"><a xlink:href="_my_string_8h.html" target="_top" xlink:title="The String specification defines a standard string type.">
<polygon fill="white" stroke="black" points="64,-57.5 64,-77.5 132,-77.5 132,-57.5 64,-57.5"/>
<text text-anchor="middle" x="98" y="-64.7" font-family="Helvetica,sans-Serif" font-size="11.00">MyString.h</text>
</a>
</g>
</g>
<!-- Node2&#45;&gt;Node7 -->
<g id="edge9" class="edge">
<title>Node2&#45;&gt;Node7</title>
<path fill="none" stroke="midnightblue" d="M71.09,-228.35C60.75,-220.17 47.03,-207.15 41,-192 37.55,-183.33 38.7,-180.05 41,-171 49.28,-138.46 70.54,-105.32 84.62,-85.84"/>
<polygon fill="midnightblue" stroke="midnightblue" points="87.54,-87.79 90.7,-77.68 81.92,-83.61 87.54,-87.79"/>
</g>
<!-- Node5 -->
<g id="node5" class="node">
<title>Node5</title>
<g id="a_node5"><a xlink:title=" ">
<polygon fill="white" stroke="#bfbfbf" points="81,-114.5 81,-134.5 123,-134.5 123,-114.5 81,-114.5"/>
<text text-anchor="middle" x="102" y="-121.7" font-family="Helvetica,sans-Serif" font-size="11.00">limits</text>
</a>
</g>
</g>
<!-- Node4&#45;&gt;Node5 -->
<g id="edge4" class="edge">
<title>Node4&#45;&gt;Node5</title>
<path fill="none" stroke="midnightblue" d="M102,-171.42C102,-164.22 102,-153.9 102,-144.86"/>
<polygon fill="midnightblue" stroke="midnightblue" points="105.5,-144.78 102,-134.78 98.5,-144.78 105.5,-144.78"/>
</g>
<!-- Node6 -->
<g id="node6" class="node">
<title>Node6</title>
<g id="a_node6"><a xlink:href="_boolean_8h.html" target="_top" xlink:title="The Boolean specification and body provides a value object type for boolean values.">
<polygon fill="white" stroke="black" points="186.5,-114.5 186.5,-134.5 251.5,-134.5 251.5,-114.5 186.5,-114.5"/>
<text text-anchor="middle" x="219" y="-121.7" font-family="Helvetica,sans-Serif" font-size="11.00">Boolean.h</text>
</a>
</g>
</g>
<!-- Node4&#45;&gt;Node6 -->
<g id="edge5" class="edge">
<title>Node4&#45;&gt;Node6</title>
<path fill="none" stroke="midnightblue" d="M121.32,-171.42C140.12,-162.58 168.91,-149.05 190.37,-138.96"/>
<polygon fill="midnightblue" stroke="midnightblue" points="192.09,-142.02 199.65,-134.6 189.11,-135.68 192.09,-142.02"/>
</g>
<!-- Node6&#45;&gt;Node7 -->
<g id="edge6" class="edge">
<title>Node6&#45;&gt;Node7</title>
<path fill="none" stroke="midnightblue" d="M199.02,-114.42C179.49,-105.54 149.54,-91.93 127.31,-81.82"/>
<polygon fill="midnightblue" stroke="midnightblue" points="128.56,-78.55 118.01,-77.6 125.67,-84.92 128.56,-78.55"/>
</g>
<!-- Node8 -->
<g id="node8" class="node">
<title>Node8</title>
<g id="a_node8"><a xlink:title=" ">
<polygon fill="white" stroke="#bfbfbf" points="33,-0.5 33,-20.5 77,-20.5 77,-0.5 33,-0.5"/>
<text text-anchor="middle" x="55" y="-7.7" font-family="Helvetica,sans-Serif" font-size="11.00">string</text>
</a>
</g>
</g>
<!-- Node7&#45;&gt;Node8 -->
<g id="edge7" class="edge">
<title>Node7&#45;&gt;Node8</title>
<path fill="none" stroke="midnightblue" d="M90.9,-57.42C84.84,-49.66 75.94,-38.29 68.53,-28.8"/>
<polygon fill="midnightblue" stroke="midnightblue" points="71.17,-26.5 62.25,-20.78 65.66,-30.81 71.17,-26.5"/>
</g>
<!-- Node9 -->
<g id="node9" class="node">
<title>Node9</title>
<g id="a_node9"><a xlink:href="_global_macros_8h.html" target="_top" xlink:title="The GlobalMacros specification defines simple macros (e.g. for parameter modes).">
<polygon fill="white" stroke="black" points="95,-0.5 95,-20.5 187,-20.5 187,-0.5 95,-0.5"/>
<text text-anchor="middle" x="141" y="-7.7" font-family="Helvetica,sans-Serif" font-size="11.00">GlobalMacros.h</text>
</a>
</g>
</g>
<!-- Node7&#45;&gt;Node9 -->
<g id="edge8" class="edge">
<title>Node7&#45;&gt;Node9</title>
<path fill="none" stroke="midnightblue" d="M105.1,-57.42C111.16,-49.66 120.06,-38.29 127.47,-28.8"/>
<polygon fill="midnightblue" stroke="midnightblue" points="130.34,-30.81 133.75,-20.78 124.83,-26.5 130.34,-30.81"/>
</g>
<!-- Node11 -->
<g id="node11" class="node">
<title>Node11</title>
<g id="a_node11"><a xlink:title=" ">
<polygon fill="white" stroke="#bfbfbf" points="28,-342.5 28,-362.5 106,-362.5 106,-342.5 28,-342.5"/>
<text text-anchor="middle" x="67" y="-349.7" font-family="Helvetica,sans-Serif" font-size="11.00">initializer_list</text>
</a>
</g>
</g>
<!-- Node10&#45;&gt;Node11 -->
<g id="edge11" class="edge">
<title>Node10&#45;&gt;Node11</title>
<path fill="none" stroke="midnightblue" d="M139.86,-513.41C127.69,-486.71 91.86,-408.07 75.42,-371.98"/>
<polygon fill="midnightblue" stroke="midnightblue" points="78.49,-370.28 71.16,-362.63 72.12,-373.18 78.49,-370.28"/>
</g>
<!-- Node12 -->
<g id="node12" class="node">
<title>Node12</title>
<g id="a_node12"><a xlink:href="_generic_sequence_8h.html" target="_top" xlink:title="The GenericSequence specification and body defines a generic sequence type of values with zero&#45;based ...">
<polygon fill="white" stroke="black" points="162.5,-342.5 162.5,-362.5 275.5,-362.5 275.5,-342.5 162.5,-342.5"/>
<text text-anchor="middle" x="219" y="-349.7" font-family="Helvetica,sans-Serif" font-size="11.00">GenericSequence.h</text>
</a>
</g>
</g>
<!-- Node10&#45;&gt;Node12 -->
<g id="edge12" class="edge">
<title>Node10&#45;&gt;Node12</title>
<path fill="none" stroke="midnightblue" d="M187.73,-513.48C233.98,-501.27 304.16,-474.42 333,-420 347.76,-392.15 313.74,-375.03 279.1,-365.15"/>
<polygon fill="midnightblue" stroke="midnightblue" points="279.92,-361.74 269.35,-362.55 278.11,-368.51 279.92,-361.74"/>
</g>
<!-- Node16 -->
<g id="node16" class="node">
<title>Node16</title>
<g id="a_node16"><a xlink:href="_midi_event_8h.html" target="_top" xlink:title="The MidiEvent specification defines a single MIDI event and the MIDI event kind enumeration.">
<polygon fill="white" stroke="black" points="168,-456.5 168,-476.5 240,-476.5 240,-456.5 168,-456.5"/>
<text text-anchor="middle" x="204" y="-463.7" font-family="Helvetica,sans-Serif" font-size="11.00">MidiEvent.h</text>
</a>
</g>
</g>
<!-- Node10&#45;&gt;Node16 -->
<g id="edge19" class="edge">
<title>Node10&#45;&gt;Node16</title>
<path fill="none" stroke="midnightblue" d="M153.91,-513.42C162.71,-505.35 175.79,-493.36 186.38,-483.65"/>
<polygon fill="midnightblue" stroke="midnightblue" points="188.87,-486.12 193.88,-476.78 184.14,-480.96 188.87,-486.12"/>
</g>
<!-- Node12&#45;&gt;Node6 -->
<g id="edge14" class="edge">
<title>Node12&#45;&gt;Node6</title>
<path fill="none" stroke="midnightblue" d="M225.86,-342.33C231.99,-333.54 240.5,-319.62 244,-306 258.84,-248.19 238.23,-177.55 226.36,-144.39"/>
<polygon fill="midnightblue" stroke="midnightblue" points="229.5,-142.81 222.73,-134.66 222.94,-145.25 229.5,-142.81"/>
</g>
<!-- Node13 -->
<g id="node13" class="node">
<title>Node13</title>
<g id="a_node13"><a xlink:title=" ">
<polygon fill="white" stroke="#bfbfbf" points="188.5,-285.5 188.5,-305.5 235.5,-305.5 235.5,-285.5 188.5,-285.5"/>
<text text-anchor="middle" x="212" y="-292.7" font-family="Helvetica,sans-Serif" font-size="11.00">vector</text>
</a>
</g>
</g>
<!-- Node12&#45;&gt;Node13 -->
<g id="edge13" class="edge">
<title>Node12&#45;&gt;Node13</title>
<path fill="none" stroke="midnightblue" d="M217.84,-342.42C216.93,-335.22 215.61,-324.9 214.46,-315.86"/>
<polygon fill="midnightblue" stroke="midnightblue" points="217.92,-315.26 213.18,-305.78 210.97,-316.14 217.92,-315.26"/>
</g>
<!-- Node14 -->
<g id="node14" class="node">
<title>Node14</title>
<g id="a_node14"><a xlink:href="_integer_8h.html" target="_top" xlink:title="The Integer specification and body provides a value object type for ints.">
<polygon fill="white" stroke="black" points="111.5,-285.5 111.5,-305.5 170.5,-305.5 170.5,-285.5 111.5,-285.5"/>
<text text-anchor="middle" x="141" y="-292.7" font-family="Helvetica,sans-Serif" font-size="11.00">Integer.h</text>
</a>
</g>
</g>
<!-- Node12&#45;&gt;Node14 -->
<g id="edge15" class="edge">
<title>Node12&#45;&gt;Node14</title>
<path fill="none" stroke="midnightblue" d="M206.12,-342.42C194.26,-334.06 176.45,-321.5 162.45,-311.62"/>
<polygon fill="midnightblue" stroke="midnightblue" points="164.09,-308.5 153.9,-305.6 160.05,-314.22 164.09,-308.5"/>
</g>
<!-- Node14&#45;&gt;Node2 -->
<g id="edge18" class="edge">
<title>Node14&#45;&gt;Node2</title>
<path fill="none" stroke="midnightblue" d="M131.59,-285.42C123.3,-277.42 111.04,-265.59 101.04,-255.94"/>
<polygon fill="midnightblue" stroke="midnightblue" points="103.24,-253.2 93.62,-248.78 98.38,-258.24 103.24,-253.2"/>
</g>
<!-- Node14&#45;&gt;Node3 -->
<g id="edge16" class="edge">
<title>Node14&#45;&gt;Node3</title>
<path fill="none" stroke="midnightblue" d="M142.75,-285.08C145.44,-271.83 151.34,-247.16 161,-228 166.14,-217.8 173.58,-207.52 180.2,-199.32"/>
<polygon fill="midnightblue" stroke="midnightblue" points="182.92,-201.53 186.66,-191.62 177.55,-197.03 182.92,-201.53"/>
</g>
<!-- Node15 -->
<g id="node15" class="node">
<title>Node15</title>
<g id="a_node15"><a xlink:title=" ">
<polygon fill="white" stroke="#bfbfbf" points="170,-228.5 170,-248.5 234,-248.5 234,-228.5 170,-228.5"/>
<text text-anchor="middle" x="202" y="-235.7" font-family="Helvetica,sans-Serif" font-size="11.00">stdexcept</text>
</a>
</g>
</g>
<!-- Node14&#45;&gt;Node15 -->
<g id="edge17" class="edge">
<title>Node14&#45;&gt;Node15</title>
<path fill="none" stroke="midnightblue" d="M151.07,-285.42C160.03,-277.35 173.32,-265.36 184.09,-255.65"/>
<polygon fill="midnightblue" stroke="midnightblue" points="186.63,-258.08 191.71,-248.78 181.94,-252.88 186.63,-258.08"/>
</g>
<!-- Node16&#45;&gt;Node6 -->
<g id="edge20" class="edge">
<title>Node16&#45;&gt;Node6</title>
<path fill="none" stroke="midnightblue" d="M240.17,-461.58C269,-456.6 308.48,-445.35 333,-420 354.55,-397.72 354,-384.49 354,-353.5 354,-353.5 354,-353.5 354,-237.5 354,-186.58 296.4,-154.39 256.45,-138.2"/>
<polygon fill="midnightblue" stroke="midnightblue" points="257.56,-134.87 246.97,-134.51 255.03,-141.4 257.56,-134.87"/>
</g>
<!-- Node16&#45;&gt;Node14 -->
<g id="edge21" class="edge">
<title>Node16&#45;&gt;Node14</title>
<path fill="none" stroke="midnightblue" d="M190.11,-456.47C178.89,-448.36 163.75,-435.38 156,-420 139.07,-386.38 138.24,-341.29 139.43,-315.93"/>
<polygon fill="midnightblue" stroke="midnightblue" points="142.94,-315.98 140.08,-305.78 135.95,-315.54 142.94,-315.98"/>
</g>
<!-- Node17 -->
<g id="node17" class="node">
<title>Node17</title>
<g id="a_node17"><a xlink:href="_natural_list_8h.html" target="_top" xlink:title="The NaturalList specification defines sequences of non&#45;negative integer values with zero&#45;based arbitr...">
<polygon fill="white" stroke="black" points="165.5,-399.5 165.5,-419.5 242.5,-419.5 242.5,-399.5 165.5,-399.5"/>
<text text-anchor="middle" x="204" y="-406.7" font-family="Helvetica,sans-Serif" font-size="11.00">NaturalList.h</text>
</a>
</g>
</g>
<!-- Node16&#45;&gt;Node17 -->
<g id="edge22" class="edge">
<title>Node16&#45;&gt;Node17</title>
<path fill="none" stroke="midnightblue" d="M204,-456.42C204,-449.22 204,-438.9 204,-429.86"/>
<polygon fill="midnightblue" stroke="midnightblue" points="207.5,-429.78 204,-419.78 200.5,-429.78 207.5,-429.78"/>
</g>
<!-- Node18 -->
<g id="node18" class="node">
<title>Node18</title>
<g id="a_node18"><a xlink:href="_object_8h.html" target="_top" xlink:title="The Object specification and body provides the root object type.">
<polygon fill="white" stroke="black" points="266,-399.5 266,-419.5 324,-419.5 324,-399.5 266,-399.5"/>
<text text-anchor="middle" x="295" y="-406.7" font-family="Helvetica,sans-Serif" font-size="11.00">Object.h</text>
</a>
</g>
</g>
<!-- Node16&#45;&gt;Node18 -->
<g id="edge25" class="edge">
<title>Node16&#45;&gt;Node18</title>
<path fill="none" stroke="midnightblue" d="M219.03,-456.42C233.25,-447.82 254.84,-434.78 271.37,-424.78"/>
<polygon fill="midnightblue" stroke="midnightblue" points="273.2,-427.76 279.95,-419.6 269.58,-421.77 273.2,-427.76"/>
</g>
<!-- Node17&#45;&gt;Node11 -->
<g id="edge23" class="edge">
<title>Node17&#45;&gt;Node11</title>
<path fill="none" stroke="midnightblue" d="M181.38,-399.42C158.97,-390.42 124.44,-376.56 99.18,-366.42"/>
<polygon fill="midnightblue" stroke="midnightblue" points="100.24,-363.07 89.66,-362.6 97.63,-369.57 100.24,-363.07"/>
</g>
<!-- Node17&#45;&gt;Node12 -->
<g id="edge24" class="edge">
<title>Node17&#45;&gt;Node12</title>
<path fill="none" stroke="midnightblue" d="M206.48,-399.42C208.46,-392.14 211.32,-381.67 213.8,-372.57"/>
<polygon fill="midnightblue" stroke="midnightblue" points="217.21,-373.35 216.47,-362.78 210.46,-371.51 217.21,-373.35"/>
</g>
<!-- Node19 -->
<g id="node19" class="node">
<title>Node19</title>
<g id="a_node19"><a xlink:title=" ">
<polygon fill="white" stroke="#bfbfbf" points="294,-342.5 294,-362.5 326,-362.5 326,-342.5 294,-342.5"/>
<text text-anchor="middle" x="310" y="-349.7" font-family="Helvetica,sans-Serif" font-size="11.00">set</text>
</a>
</g>
</g>
<!-- Node18&#45;&gt;Node19 -->
<g id="edge26" class="edge">
<title>Node18&#45;&gt;Node19</title>
<path fill="none" stroke="midnightblue" d="M297.48,-399.42C299.46,-392.14 302.32,-381.67 304.8,-372.57"/>
<polygon fill="midnightblue" stroke="midnightblue" points="308.21,-373.35 307.47,-362.78 301.46,-371.51 308.21,-373.35"/>
</g>
</g>
</svg>
