<?xml version="1.0" encoding="UTF-8" standalone="no"?>
<!DOCTYPE svg PUBLIC "-//W3C//DTD SVG 1.1//EN"
 "http://www.w3.org/Graphics/SVG/1.1/DTD/svg11.dtd">
<!-- Generated by graphviz version 2.47.1 (20210417.1919)
 -->
<!-- Title: MidiEvent.h Pages: 1 -->
<!--zoomable 485 -->
<svg id="main" version="1.1" xmlns="http://www.w3.org/2000/svg" xmlns:xlink="http://www.w3.org/1999/xlink" xml:space="preserve" onload="init(evt)">
<style type="text/css"><![CDATA[
.edge:hover path { stroke: red; }
.edge:hover polygon { stroke: red; fill: red; }
]]></style>
<script type="text/javascript"><![CDATA[
var edges = document.getElementsByTagName('g');
if (edges && edges.length) {
  for (var i=0;i<edges.length;i++) {
    if (edges[i].id.substr(0,4)=='edge') {
      edges[i].setAttribute('class','edge');
    }
  }
}
]]></script>
        <defs>
                <circle id="rim" cx="0" cy="0" r="7"/>
                <circle id="rim2" cx="0" cy="0" r="3.5"/>
                <g id="zoomPlus">
                        <use xlink:href="#rim" fill="#404040">
                                <set attributeName="fill" to="#808080" begin="zoomplus.mouseover" end="zoomplus.mouseout"/>
                        </use>
                        <path d="M-4,0h8M0,-4v8" fill="none" stroke="white" stroke-width="1.5" pointer-events="none"/>
                </g>
                <g id="zoomMin">
                        <use xlink:href="#rim" fill="#404040">
                                <set attributeName="fill" to="#808080" begin="zoomminus.mouseover" end="zoomminus.mouseout"/>
                        </use>
                        <path d="M-4,0h8" fill="none" stroke="white" stroke-width="1.5" pointer-events="none"/>
                </g>
                <g id="dirArrow">
                        <path fill="none" stroke="white" stroke-width="1.5" d="M0,-3.0v7 M-2.5,-0.5L0,-3.0L2.5,-0.5"/>
                </g>
               <g id="resetDef">
                       <use xlink:href="#rim2" fill="#404040">
                               <set attributeName="fill" to="#808080" begin="reset.mouseover" end="reset.mouseout"/>
                       </use>
               </g>
        </defs>

<script type="text/javascript">
var viewWidth = 476;
var viewHeight = 485;
var sectionId = 'dynsection-0';
</script>
<script xlink:href="svgpan.js"/>
<svg id="graph" class="graph">
<g id="viewport">
<title>MidiEvent.h</title>
<polygon fill="white" stroke="transparent" points="-4,4 -4,-481 471.5,-481 471.5,4 -4,4"/>
<!-- Node1 -->
<g id="node1" class="node">
<title>Node1</title>
<g id="a_node1"><a xlink:title="The MidiEvent specification defines a single MIDI event and the MIDI event kind enumeration.">
<polygon fill="#bfbfbf" stroke="black" points="311.5,-456.5 311.5,-476.5 383.5,-476.5 383.5,-456.5 311.5,-456.5"/>
<text text-anchor="middle" x="347.5" y="-463.7" font-family="Helvetica,sans-Serif" font-size="11.00">MidiEvent.h</text>
</a>
</g>
</g>
<!-- Node2 -->
<g id="node2" class="node">
<title>Node2</title>
<g id="a_node2"><a xlink:href="_boolean_8h.html" target="_top" xlink:title="The Boolean specification and body provides a value object type for boolean values.">
<polygon fill="white" stroke="black" points="199,-114.5 199,-134.5 264,-134.5 264,-114.5 199,-114.5"/>
<text text-anchor="middle" x="231.5" y="-121.7" font-family="Helvetica,sans-Serif" font-size="11.00">Boolean.h</text>
</a>
</g>
</g>
<!-- Node1&#45;&gt;Node2 -->
<g id="edge1" class="edge">
<title>Node1&#45;&gt;Node2</title>
<path fill="none" stroke="midnightblue" d="M352.23,-456.49C361.57,-437.82 381.5,-393.33 381.5,-353.5 381.5,-353.5 381.5,-353.5 381.5,-237.5 381.5,-183.42 318.11,-152.32 273.75,-137.18"/>
<polygon fill="midnightblue" stroke="midnightblue" points="274.64,-133.79 264.05,-134.01 272.47,-140.44 274.64,-133.79"/>
</g>
<!-- Node6 -->
<g id="node6" class="node">
<title>Node6</title>
<g id="a_node6"><a xlink:href="_integer_8h.html" target="_top" xlink:title="The Integer specification and body provides a value object type for ints.">
<polygon fill="white" stroke="black" points="86,-285.5 86,-305.5 145,-305.5 145,-285.5 86,-285.5"/>
<text text-anchor="middle" x="115.5" y="-292.7" font-family="Helvetica,sans-Serif" font-size="11.00">Integer.h</text>
</a>
</g>
</g>
<!-- Node1&#45;&gt;Node6 -->
<g id="edge5" class="edge">
<title>Node1&#45;&gt;Node6</title>
<path fill="none" stroke="midnightblue" d="M311.33,-457.8C263.79,-445.81 180.91,-418.07 134.5,-363 123.39,-349.81 118.76,-330.5 116.85,-316.07"/>
<polygon fill="midnightblue" stroke="midnightblue" points="120.29,-315.37 115.81,-305.77 113.33,-316.07 120.29,-315.37"/>
</g>
<!-- Node12 -->
<g id="node12" class="node">
<title>Node12</title>
<g id="a_node12"><a xlink:href="_natural_list_8h.html" target="_top" xlink:title="The NaturalList specification defines sequences of non&#45;negative integer values with zero&#45;based arbitr...">
<polygon fill="white" stroke="black" points="276,-399.5 276,-419.5 353,-419.5 353,-399.5 276,-399.5"/>
<text text-anchor="middle" x="314.5" y="-406.7" font-family="Helvetica,sans-Serif" font-size="11.00">NaturalList.h</text>
</a>
</g>
</g>
<!-- Node1&#45;&gt;Node12 -->
<g id="edge14" class="edge">
<title>Node1&#45;&gt;Node12</title>
<path fill="none" stroke="midnightblue" d="M342.05,-456.42C337.49,-448.82 330.85,-437.75 325.23,-428.39"/>
<polygon fill="midnightblue" stroke="midnightblue" points="328.21,-426.55 320.07,-419.78 322.21,-430.16 328.21,-426.55"/>
</g>
<!-- Node16 -->
<g id="node16" class="node">
<title>Node16</title>
<g id="a_node16"><a xlink:href="_object_8h.html" target="_top" xlink:title="The Object specification and body provides the root object type.">
<polygon fill="white" stroke="black" points="409.5,-399.5 409.5,-419.5 467.5,-419.5 467.5,-399.5 409.5,-399.5"/>
<text text-anchor="middle" x="438.5" y="-406.7" font-family="Helvetica,sans-Serif" font-size="11.00">Object.h</text>
</a>
</g>
</g>
<!-- Node1&#45;&gt;Node16 -->
<g id="edge20" class="edge">
<title>Node1&#45;&gt;Node16</title>
<path fill="none" stroke="midnightblue" d="M362.53,-456.42C376.75,-447.82 398.34,-434.78 414.87,-424.78"/>
<polygon fill="midnightblue" stroke="midnightblue" points="416.7,-427.76 423.45,-419.6 413.08,-421.77 416.7,-427.76"/>
</g>
<!-- Node3 -->
<g id="node3" class="node">
<title>Node3</title>
<g id="a_node3"><a xlink:href="_my_string_8h.html" target="_top" xlink:title="The String specification defines a standard string type.">
<polygon fill="white" stroke="black" points="117.5,-57.5 117.5,-77.5 185.5,-77.5 185.5,-57.5 117.5,-57.5"/>
<text text-anchor="middle" x="151.5" y="-64.7" font-family="Helvetica,sans-Serif" font-size="11.00">MyString.h</text>
</a>
</g>
</g>
<!-- Node2&#45;&gt;Node3 -->
<g id="edge2" class="edge">
<title>Node2&#45;&gt;Node3</title>
<path fill="none" stroke="midnightblue" d="M218.29,-114.42C206.01,-105.98 187.51,-93.26 173.09,-83.34"/>
<polygon fill="midnightblue" stroke="midnightblue" points="174.95,-80.38 164.73,-77.6 170.99,-86.15 174.95,-80.38"/>
</g>
<!-- Node4 -->
<g id="node4" class="node">
<title>Node4</title>
<g id="a_node4"><a xlink:title=" ">
<polygon fill="white" stroke="#bfbfbf" points="86.5,-0.5 86.5,-20.5 130.5,-20.5 130.5,-0.5 86.5,-0.5"/>
<text text-anchor="middle" x="108.5" y="-7.7" font-family="Helvetica,sans-Serif" font-size="11.00">string</text>
</a>
</g>
</g>
<!-- Node3&#45;&gt;Node4 -->
<g id="edge3" class="edge">
<title>Node3&#45;&gt;Node4</title>
<path fill="none" stroke="midnightblue" d="M144.4,-57.42C138.34,-49.66 129.44,-38.29 122.03,-28.8"/>
<polygon fill="midnightblue" stroke="midnightblue" points="124.67,-26.5 115.75,-20.78 119.16,-30.81 124.67,-26.5"/>
</g>
<!-- Node5 -->
<g id="node5" class="node">
<title>Node5</title>
<g id="a_node5"><a xlink:href="_global_macros_8h.html" target="_top" xlink:title="The GlobalMacros specification defines simple macros (e.g. for parameter modes).">
<polygon fill="white" stroke="black" points="148.5,-0.5 148.5,-20.5 240.5,-20.5 240.5,-0.5 148.5,-0.5"/>
<text text-anchor="middle" x="194.5" y="-7.7" font-family="Helvetica,sans-Serif" font-size="11.00">GlobalMacros.h</text>
</a>
</g>
</g>
<!-- Node3&#45;&gt;Node5 -->
<g id="edge4" class="edge">
<title>Node3&#45;&gt;Node5</title>
<path fill="none" stroke="midnightblue" d="M158.6,-57.42C164.66,-49.66 173.56,-38.29 180.97,-28.8"/>
<polygon fill="midnightblue" stroke="midnightblue" points="183.84,-30.81 187.25,-20.78 178.33,-26.5 183.84,-30.81"/>
</g>
<!-- Node7 -->
<g id="node7" class="node">
<title>Node7</title>
<g id="a_node7"><a xlink:title=" ">
<polygon fill="white" stroke="#bfbfbf" points="0,-171.5 0,-191.5 47,-191.5 47,-171.5 0,-171.5"/>
<text text-anchor="middle" x="23.5" y="-178.7" font-family="Helvetica,sans-Serif" font-size="11.00">cmath</text>
</a>
</g>
</g>
<!-- Node6&#45;&gt;Node7 -->
<g id="edge6" class="edge">
<title>Node6&#45;&gt;Node7</title>
<path fill="none" stroke="midnightblue" d="M92.21,-285.38C76.03,-277.91 55.17,-265.82 42.5,-249 32.12,-235.23 27.41,-215.98 25.27,-201.74"/>
<polygon fill="midnightblue" stroke="midnightblue" points="28.72,-201.09 24.05,-191.58 21.77,-201.93 28.72,-201.09"/>
</g>
<!-- Node8 -->
<g id="node8" class="node">
<title>Node8</title>
<g id="a_node8"><a xlink:title=" ">
<polygon fill="white" stroke="#bfbfbf" points="129.5,-228.5 129.5,-248.5 193.5,-248.5 193.5,-228.5 129.5,-228.5"/>
<text text-anchor="middle" x="161.5" y="-235.7" font-family="Helvetica,sans-Serif" font-size="11.00">stdexcept</text>
</a>
</g>
</g>
<!-- Node6&#45;&gt;Node8 -->
<g id="edge7" class="edge">
<title>Node6&#45;&gt;Node8</title>
<path fill="none" stroke="midnightblue" d="M123.1,-285.42C129.65,-277.58 139.29,-266.06 147.27,-256.51"/>
<polygon fill="midnightblue" stroke="midnightblue" points="150.01,-258.7 153.74,-248.78 144.64,-254.2 150.01,-258.7"/>
</g>
<!-- Node9 -->
<g id="node9" class="node">
<title>Node9</title>
<g id="a_node9"><a xlink:href="_natural_8h.html" target="_top" xlink:title="The Natural specification and body provides a value object type for naturals (positive integers with ...">
<polygon fill="white" stroke="black" points="51.5,-228.5 51.5,-248.5 111.5,-248.5 111.5,-228.5 51.5,-228.5"/>
<text text-anchor="middle" x="81.5" y="-235.7" font-family="Helvetica,sans-Serif" font-size="11.00">Natural.h</text>
</a>
</g>
</g>
<!-- Node6&#45;&gt;Node9 -->
<g id="edge8" class="edge">
<title>Node6&#45;&gt;Node9</title>
<path fill="none" stroke="midnightblue" d="M109.89,-285.42C105.19,-277.82 98.35,-266.75 92.56,-257.39"/>
<polygon fill="midnightblue" stroke="midnightblue" points="95.47,-255.45 87.24,-248.78 89.52,-259.13 95.47,-255.45"/>
</g>
<!-- Node9&#45;&gt;Node3 -->
<g id="edge13" class="edge">
<title>Node9&#45;&gt;Node3</title>
<path fill="none" stroke="midnightblue" d="M82.41,-228.23C83.89,-215.16 87.41,-190.7 94.5,-171 104.27,-143.87 111.46,-139.19 125.5,-114 130.6,-104.86 136.36,-94.75 141.16,-86.39"/>
<polygon fill="midnightblue" stroke="midnightblue" points="144.31,-87.94 146.26,-77.53 138.24,-84.45 144.31,-87.94"/>
</g>
<!-- Node9&#45;&gt;Node7 -->
<g id="edge9" class="edge">
<title>Node9&#45;&gt;Node7</title>
<path fill="none" stroke="midnightblue" d="M71.92,-228.42C63.49,-220.42 51.01,-208.59 40.83,-198.94"/>
<polygon fill="midnightblue" stroke="midnightblue" points="42.95,-196.12 33.29,-191.78 38.13,-201.2 42.95,-196.12"/>
</g>
<!-- Node10 -->
<g id="node10" class="node">
<title>Node10</title>
<g id="a_node10"><a xlink:href="_generic_number_8h.html" target="_top" xlink:title="The GenericNumber specification and body defines a template for wrapper objects for elementary numeri...">
<polygon fill="white" stroke="black" points="104,-171.5 104,-191.5 207,-191.5 207,-171.5 104,-171.5"/>
<text text-anchor="middle" x="155.5" y="-178.7" font-family="Helvetica,sans-Serif" font-size="11.00">GenericNumber.h</text>
</a>
</g>
</g>
<!-- Node9&#45;&gt;Node10 -->
<g id="edge10" class="edge">
<title>Node9&#45;&gt;Node10</title>
<path fill="none" stroke="midnightblue" d="M93.72,-228.42C104.97,-220.06 121.87,-207.5 135.15,-197.62"/>
<polygon fill="midnightblue" stroke="midnightblue" points="137.32,-200.37 143.26,-191.6 133.15,-194.75 137.32,-200.37"/>
</g>
<!-- Node10&#45;&gt;Node2 -->
<g id="edge12" class="edge">
<title>Node10&#45;&gt;Node2</title>
<path fill="none" stroke="midnightblue" d="M168.05,-171.42C179.6,-163.06 196.96,-150.5 210.6,-140.62"/>
<polygon fill="midnightblue" stroke="midnightblue" points="212.88,-143.29 218.93,-134.6 208.78,-137.62 212.88,-143.29"/>
</g>
<!-- Node11 -->
<g id="node11" class="node">
<title>Node11</title>
<g id="a_node11"><a xlink:title=" ">
<polygon fill="white" stroke="#bfbfbf" points="134.5,-114.5 134.5,-134.5 176.5,-134.5 176.5,-114.5 134.5,-114.5"/>
<text text-anchor="middle" x="155.5" y="-121.7" font-family="Helvetica,sans-Serif" font-size="11.00">limits</text>
</a>
</g>
</g>
<!-- Node10&#45;&gt;Node11 -->
<g id="edge11" class="edge">
<title>Node10&#45;&gt;Node11</title>
<path fill="none" stroke="midnightblue" d="M155.5,-171.42C155.5,-164.22 155.5,-153.9 155.5,-144.86"/>
<polygon fill="midnightblue" stroke="midnightblue" points="159,-144.78 155.5,-134.78 152,-144.78 159,-144.78"/>
</g>
<!-- Node13 -->
<g id="node13" class="node">
<title>Node13</title>
<g id="a_node13"><a xlink:title=" ">
<polygon fill="white" stroke="#bfbfbf" points="275.5,-342.5 275.5,-362.5 353.5,-362.5 353.5,-342.5 275.5,-342.5"/>
<text text-anchor="middle" x="314.5" y="-349.7" font-family="Helvetica,sans-Serif" font-size="11.00">initializer_list</text>
</a>
</g>
</g>
<!-- Node12&#45;&gt;Node13 -->
<g id="edge15" class="edge">
<title>Node12&#45;&gt;Node13</title>
<path fill="none" stroke="midnightblue" d="M314.5,-399.42C314.5,-392.22 314.5,-381.9 314.5,-372.86"/>
<polygon fill="midnightblue" stroke="midnightblue" points="318,-372.78 314.5,-362.78 311,-372.78 318,-372.78"/>
</g>
<!-- Node14 -->
<g id="node14" class="node">
<title>Node14</title>
<g id="a_node14"><a xlink:href="_generic_sequence_8h.html" target="_top" xlink:title="The GenericSequence specification and body defines a generic sequence type of values with zero&#45;based ...">
<polygon fill="white" stroke="black" points="144,-342.5 144,-362.5 257,-362.5 257,-342.5 144,-342.5"/>
<text text-anchor="middle" x="200.5" y="-349.7" font-family="Helvetica,sans-Serif" font-size="11.00">GenericSequence.h</text>
</a>
</g>
</g>
<!-- Node12&#45;&gt;Node14 -->
<g id="edge16" class="edge">
<title>Node12&#45;&gt;Node14</title>
<path fill="none" stroke="midnightblue" d="M295.68,-399.42C277.36,-390.58 249.31,-377.05 228.4,-366.96"/>
<polygon fill="midnightblue" stroke="midnightblue" points="229.88,-363.79 219.35,-362.6 226.84,-370.09 229.88,-363.79"/>
</g>
<!-- Node14&#45;&gt;Node2 -->
<g id="edge18" class="edge">
<title>Node14&#45;&gt;Node2</title>
<path fill="none" stroke="midnightblue" d="M201.75,-342.36C206.38,-308.64 222.55,-190.77 228.9,-144.42"/>
<polygon fill="midnightblue" stroke="midnightblue" points="232.37,-144.89 230.26,-134.51 225.44,-143.94 232.37,-144.89"/>
</g>
<!-- Node14&#45;&gt;Node6 -->
<g id="edge19" class="edge">
<title>Node14&#45;&gt;Node6</title>
<path fill="none" stroke="midnightblue" d="M186.46,-342.42C173.3,-333.9 153.39,-321.02 138.01,-311.06"/>
<polygon fill="midnightblue" stroke="midnightblue" points="139.85,-308.09 129.56,-305.6 136.05,-313.97 139.85,-308.09"/>
</g>
<!-- Node15 -->
<g id="node15" class="node">
<title>Node15</title>
<g id="a_node15"><a xlink:title=" ">
<polygon fill="white" stroke="#bfbfbf" points="264,-285.5 264,-305.5 311,-305.5 311,-285.5 264,-285.5"/>
<text text-anchor="middle" x="287.5" y="-292.7" font-family="Helvetica,sans-Serif" font-size="11.00">vector</text>
</a>
</g>
</g>
<!-- Node14&#45;&gt;Node15 -->
<g id="edge17" class="edge">
<title>Node14&#45;&gt;Node15</title>
<path fill="none" stroke="midnightblue" d="M214.87,-342.42C228.34,-333.9 248.72,-321.02 264.46,-311.06"/>
<polygon fill="midnightblue" stroke="midnightblue" points="266.53,-313.9 273.11,-305.6 262.79,-307.98 266.53,-313.9"/>
</g>
<!-- Node17 -->
<g id="node17" class="node">
<title>Node17</title>
<g id="a_node17"><a xlink:title=" ">
<polygon fill="white" stroke="#bfbfbf" points="422.5,-342.5 422.5,-362.5 454.5,-362.5 454.5,-342.5 422.5,-342.5"/>
<text text-anchor="middle" x="438.5" y="-349.7" font-family="Helvetica,sans-Serif" font-size="11.00">set</text>
</a>
</g>
</g>
<!-- Node16&#45;&gt;Node17 -->
<g id="edge21" class="edge">
<title>Node16&#45;&gt;Node17</title>
<path fill="none" stroke="midnightblue" d="M438.5,-399.42C438.5,-392.22 438.5,-381.9 438.5,-372.86"/>
<polygon fill="midnightblue" stroke="midnightblue" points="442,-372.78 438.5,-362.78 435,-372.78 442,-372.78"/>
</g>
</g>
</svg>
        <g id="navigator" transform="translate(0 0)" fill="#404254">
                <rect fill="#f2f5e9" fill-opacity="0.5" stroke="#606060" stroke-width=".5" x="0" y="0" width="60" height="60"/>
                <use id="zoomplus" xlink:href="#zoomPlus" x="17" y="9" onmousedown="handleZoom(evt,'in')"/>
                <use id="zoomminus" xlink:href="#zoomMin" x="42" y="9" onmousedown="handleZoom(evt,'out')"/>
                <use id="reset" xlink:href="#resetDef" x="30" y="36" onmousedown="handleReset()"/>
                <g id="arrowUp" xlink:href="#dirArrow" transform="translate(30 24)" onmousedown="handlePan(0,-1)">
                  <use xlink:href="#rim" fill="#404040">
                        <set attributeName="fill" to="#808080" begin="arrowUp.mouseover" end="arrowUp.mouseout"/>
                  </use>
                  <path fill="none" stroke="white" stroke-width="1.5" d="M0,-3.0v7 M-2.5,-0.5L0,-3.0L2.5,-0.5"/>
                </g>
                <g id="arrowRight" xlink:href="#dirArrow" transform="rotate(90) translate(36 -43)" onmousedown="handlePan(1,0)">
                  <use xlink:href="#rim" fill="#404040">
                        <set attributeName="fill" to="#808080" begin="arrowRight.mouseover" end="arrowRight.mouseout"/>
                  </use>
                  <path fill="none" stroke="white" stroke-width="1.5" d="M0,-3.0v7 M-2.5,-0.5L0,-3.0L2.5,-0.5"/>
                </g>
                <g id="arrowDown" xlink:href="#dirArrow" transform="rotate(180) translate(-30 -48)" onmousedown="handlePan(0,1)">
                  <use xlink:href="#rim" fill="#404040">
                        <set attributeName="fill" to="#808080" begin="arrowDown.mouseover" end="arrowDown.mouseout"/>
                  </use>
                  <path fill="none" stroke="white" stroke-width="1.5" d="M0,-3.0v7 M-2.5,-0.5L0,-3.0L2.5,-0.5"/>
                </g>
                <g id="arrowLeft" xlink:href="#dirArrow" transform="rotate(270) translate(-36 17)" onmousedown="handlePan(-1,0)">
                  <use xlink:href="#rim" fill="#404040">
                        <set attributeName="fill" to="#808080" begin="arrowLeft.mouseover" end="arrowLeft.mouseout"/>
                  </use>
                  <path fill="none" stroke="white" stroke-width="1.5" d="M0,-3.0v7 M-2.5,-0.5L0,-3.0L2.5,-0.5"/>
                </g>
        </g>
        <svg viewBox="0 0 15 15" width="100%" height="30px" preserveAspectRatio="xMaxYMin meet">
         <g id="arrow_out" transform="scale(0.3 0.3)">
          <a xlink:href="_midi_event_8h__incl_org.svg" target="_base">
           <rect id="button" ry="5" rx="5" y="6" x="6" height="38" width="38"
                fill="#f2f5e9" fill-opacity="0.5" stroke="#606060" stroke-width="1.0"/>
           <path id="arrow"
             d="M 11.500037,31.436501 C 11.940474,20.09759 22.043105,11.32322 32.158766,21.979434 L 37.068811,17.246167 C 37.068811,17.246167 37.088388,32 37.088388,32 L 22.160133,31.978069 C 22.160133,31.978069 26.997745,27.140456 26.997745,27.140456 C 18.528582,18.264221 13.291696,25.230495 11.500037,31.436501 z"
             style="fill:#404040;"/>
          </a>
         </g>
        </svg>
</svg>
