<?xml version="1.0" encoding="UTF-8" standalone="no"?>
<!DOCTYPE svg PUBLIC "-//W3C//DTD SVG 1.1//EN"
 "http://www.w3.org/Graphics/SVG/1.1/DTD/svg11.dtd">
<!-- Generated by graphviz version 2.47.1 (20210417.1919)
 -->
<!-- Title: MidiPresetIdentification.cpp Pages: 1 -->
<!--zoomable 467 -->

<svg id="main" version="1.1" xmlns="http://www.w3.org/2000/svg" xmlns:xlink="http://www.w3.org/1999/xlink" xml:space="preserve" onload="init(evt)">

<style type="text/css"><![CDATA[
.node, .edge {opacity: 0.7;}
.node.selected, .edge.selected {opacity: 1;}
.edge:hover path { stroke: red; }
.edge:hover polygon { stroke: red; fill: red; }
]]></style>

<defs>
  <circle id="rim" cx="0" cy="0" r="7"/>
  <circle id="rim2" cx="0" cy="0" r="3.5"/>
  <g id="zoomPlus">
    <use xlink:href="#rim" fill="#404040"><set attributeName="fill" to="#808080" begin="zoomplus.mouseover" end="zoomplus.mouseout"/></use>
    <path d="M-4,0h8M0,-4v8" fill="none" stroke="white" stroke-width="1.5" pointer-events="none"/>
  </g>
  <g id="zoomMin">
    <use xlink:href="#rim" fill="#404040"><set attributeName="fill" to="#808080" begin="zoomminus.mouseover" end="zoomminus.mouseout"/></use>
    <path d="M-4,0h8" fill="none" stroke="white" stroke-width="1.5" pointer-events="none"/>
  </g>
  <g id="arrowUp" transform="translate(30 24)">
    <use xlink:href="#rim"/>
    <path pointer-events="none" fill="none" stroke="white" stroke-width="1.5" d="M0,-3.0v7 M-2.5,-0.5L0,-3.0L2.5,-0.5"/>
  </g>
  <g id="arrowRight" transform="rotate(90) translate(36 -43)">
    <use xlink:href="#rim"/>
    <path pointer-events="none" fill="none" stroke="white" stroke-width="1.5" d="M0,-3.0v7 M-2.5,-0.5L0,-3.0L2.5,-0.5"/>
  </g>
  <g id="arrowDown" transform="rotate(180) translate(-30 -48)">
    <use xlink:href="#rim"/>
    <path pointer-events="none" fill="none" stroke="white" stroke-width="1.5" d="M0,-3.0v7 M-2.5,-0.5L0,-3.0L2.5,-0.5"/>
  </g>
  <g id="arrowLeft" transform="rotate(270) translate(-36 17)">
    <use xlink:href="#rim"/>
    <path pointer-events="none" fill="none" stroke="white" stroke-width="1.5" d="M0,-3.0v7 M-2.5,-0.5L0,-3.0L2.5,-0.5"/>
  </g>
  <g id="resetDef">
    <use xlink:href="#rim2" fill="#404040"><set attributeName="fill" to="#808080" begin="reset.mouseover" end="reset.mouseout"/></use>
  </g>
</defs>
<script type="application/ecmascript">
var viewWidth = 580;
var viewHeight = 467;
var sectionId = 'dynsection-0';
</script>
<script type="application/ecmascript" xlink:href="svg.min.js"/>
<svg id="graph" class="graph">
<g id="viewport">
<title>MidiPresetIdentification.cpp</title>
<!-- Node1 -->
<g id="Node000001" class="node">
<title>Node1</title>
<g id="a_Node000001"><a xlink:title="The MidiPresetIdentification body implements the identification of a MIDI preset as a tuple of bank a...">
<polygon fill="#999999" stroke="#666666" points="431.5,-459 295.5,-459 295.5,-440 431.5,-440 431.5,-459"/>
<text text-anchor="middle" x="363.5" y="-447" font-family="Helvetica,sans-Serif" font-size="10.00">MidiPresetIdentification.cpp</text>
</a>
</g>
</g>
<!-- Node2 -->
<g id="Node000002" class="node">
<title>Node2</title>
<g id="a_Node000002"><a xlink:href="_logging_8h.html" target="_top" xlink:title="The Logging specification defines macros for entry&#45;, exit&#45; and intermediate logging of functions into...">
<polygon fill="white" stroke="#666666" points="364,-404 305,-404 305,-385 364,-385 364,-404"/>
<text text-anchor="middle" x="334.5" y="-392" font-family="Helvetica,sans-Serif" font-size="10.00">Logging.h</text>
</a>
</g>
</g>
<!-- Node1&#45;&gt;Node2 -->
<g id="edge1_Node000001_Node000002" class="edge">
<title>Node1&#45;&gt;Node2</title>
<g id="a_edge1_Node000001_Node000002"><a xlink:title=" ">
<path fill="none" stroke="#63b8ff" d="M358.71,-439.75C354.74,-432.49 348.97,-421.95 344.07,-412.98"/>
<polygon fill="#63b8ff" stroke="#63b8ff" points="347.07,-411.18 339.2,-404.09 340.93,-414.54 347.07,-411.18"/>
</a>
</g>
</g>
<!-- Node25 -->
<g id="Node000025" class="node">
<title>Node25</title>
<g id="a_Node000025"><a xlink:href="_midi_preset_identification_8h.html" target="_top" xlink:title="The MidiPresetIdentification specification defines the identification of a MIDI preset as a tuple of ...">
<polygon fill="white" stroke="#666666" points="547,-349 422,-349 422,-330 547,-330 547,-349"/>
<text text-anchor="middle" x="484.5" y="-337" font-family="Helvetica,sans-Serif" font-size="10.00">MidiPresetIdentification.h</text>
</a>
</g>
</g>
<!-- Node1&#45;&gt;Node25 -->
<g id="edge33_Node000001_Node000025" class="edge">
<title>Node1&#45;&gt;Node25</title>
<g id="a_edge33_Node000001_Node000025"><a xlink:title=" ">
<path fill="none" stroke="#63b8ff" d="M373.4,-439.66C393.98,-421.3 441.57,-378.81 467.28,-355.87"/>
<polygon fill="#63b8ff" stroke="#63b8ff" points="469.67,-358.43 474.8,-349.16 465.01,-353.21 469.67,-358.43"/>
</a>
</g>
</g>
<!-- Node3 -->
<g id="Node000003" class="node">
<title>Node3</title>
<g id="a_Node000003"><a xlink:title=" ">
<polygon fill="#e0e0e0" stroke="#999999" points="404,-349 355,-349 355,-330 404,-330 404,-349"/>
<text text-anchor="middle" x="379.5" y="-337" font-family="Helvetica,sans-Serif" font-size="10.00">cstdarg</text>
</a>
</g>
</g>
<!-- Node2&#45;&gt;Node3 -->
<g id="edge2_Node000002_Node000003" class="edge">
<title>Node2&#45;&gt;Node3</title>
<g id="a_edge2_Node000002_Node000003"><a xlink:title=" ">
<path fill="none" stroke="#63b8ff" d="M341.93,-384.75C348.35,-377.18 357.81,-366.05 365.62,-356.84"/>
<polygon fill="#63b8ff" stroke="#63b8ff" points="368.4,-358.98 372.21,-349.09 363.07,-354.45 368.4,-358.98"/>
</a>
</g>
</g>
<!-- Node4 -->
<g id="Node000004" class="node">
<title>Node4</title>
<g id="a_Node000004"><a xlink:href="_logging_support_8h.html" target="_top" xlink:title="The LoggingSupport specification defines a class for simple entry/exit logging to a file or via an ar...">
<polygon fill="white" stroke="#666666" points="336.5,-349 244.5,-349 244.5,-330 336.5,-330 336.5,-349"/>
<text text-anchor="middle" x="290.5" y="-337" font-family="Helvetica,sans-Serif" font-size="10.00">LoggingSupport.h</text>
</a>
</g>
</g>
<!-- Node2&#45;&gt;Node4 -->
<g id="edge3_Node000002_Node000004" class="edge">
<title>Node2&#45;&gt;Node4</title>
<g id="a_edge3_Node000002_Node000004"><a xlink:title=" ">
<path fill="none" stroke="#63b8ff" d="M327.23,-384.75C320.96,-377.18 311.71,-366.05 304.07,-356.84"/>
<polygon fill="#63b8ff" stroke="#63b8ff" points="306.71,-354.55 297.63,-349.09 301.33,-359.02 306.71,-354.55"/>
</a>
</g>
</g>
<!-- Node14 -->
<g id="Node000014" class="node">
<title>Node14</title>
<g id="a_Node000014"><a xlink:href="_string_util_8h.html" target="_top" xlink:title="The StringUtil specification defines several string routines not included in the standard C++ library...">
<polygon fill="white" stroke="#666666" points="226,-349 161,-349 161,-330 226,-330 226,-349"/>
<text text-anchor="middle" x="193.5" y="-337" font-family="Helvetica,sans-Serif" font-size="10.00">StringUtil.h</text>
</a>
</g>
</g>
<!-- Node2&#45;&gt;Node14 -->
<g id="edge15_Node000002_Node000014" class="edge">
<title>Node2&#45;&gt;Node14</title>
<g id="a_edge15_Node000002_Node000014"><a xlink:title=" ">
<path fill="none" stroke="#63b8ff" d="M311.85,-384.98C288.65,-376.27 252.38,-362.63 226.1,-352.75"/>
<polygon fill="#63b8ff" stroke="#63b8ff" points="227.16,-349.41 216.57,-349.17 224.7,-355.97 227.16,-349.41"/>
</a>
</g>
</g>
<!-- Node5 -->
<g id="Node000005" class="node">
<title>Node5</title>
<g id="a_Node000005"><a xlink:href="_boolean_8h.html" target="_top" xlink:title="The Boolean specification and body provides a value object type for boolean values.">
<polygon fill="white" stroke="#666666" points="428.5,-294 368.5,-294 368.5,-275 428.5,-275 428.5,-294"/>
<text text-anchor="middle" x="398.5" y="-282" font-family="Helvetica,sans-Serif" font-size="10.00">Boolean.h</text>
</a>
</g>
</g>
<!-- Node4&#45;&gt;Node5 -->
<g id="edge4_Node000004_Node000005" class="edge">
<title>Node4&#45;&gt;Node5</title>
<g id="a_edge4_Node000004_Node000005"><a xlink:title=" ">
<path fill="none" stroke="#63b8ff" d="M307.85,-329.98C325.07,-321.54 351.7,-308.47 371.65,-298.68"/>
<polygon fill="#63b8ff" stroke="#63b8ff" points="373.4,-301.72 380.83,-294.17 370.31,-295.43 373.4,-301.72"/>
</a>
</g>
</g>
<!-- Node9 -->
<g id="Node000009" class="node">
<title>Node9</title>
<g id="a_Node000009"><a xlink:href="_natural_8h.html" target="_top" xlink:title="The Natural specification and body provides a value object type for naturals (positive integers with ...">
<polygon fill="white" stroke="#666666" points="368.5,-129 312.5,-129 312.5,-110 368.5,-110 368.5,-129"/>
<text text-anchor="middle" x="340.5" y="-117" font-family="Helvetica,sans-Serif" font-size="10.00">Natural.h</text>
</a>
</g>
</g>
<!-- Node4&#45;&gt;Node9 -->
<g id="edge8_Node000004_Node000009" class="edge">
<title>Node4&#45;&gt;Node9</title>
<g id="a_edge8_Node000004_Node000009"><a xlink:title=" ">
<path fill="none" stroke="#63b8ff" d="M298.63,-329.73C305.96,-321.27 316.34,-307.75 321.5,-294 341.49,-240.68 342.37,-172.15 341.43,-139.47"/>
<polygon fill="#63b8ff" stroke="#63b8ff" points="344.91,-139.01 341.03,-129.15 337.92,-139.28 344.91,-139.01"/>
</a>
</g>
</g>
<!-- Node6 -->
<g id="Node000006" class="node">
<title>Node6</title>
<g id="a_Node000006"><a xlink:href="_my_string_8h.html" target="_top" xlink:title="The String specification defines a standard string type.">
<polygon fill="white" stroke="#666666" points="430.5,-74 366.5,-74 366.5,-55 430.5,-55 430.5,-74"/>
<text text-anchor="middle" x="398.5" y="-62" font-family="Helvetica,sans-Serif" font-size="10.00">MyString.h</text>
</a>
</g>
</g>
<!-- Node5&#45;&gt;Node6 -->
<g id="edge5_Node000005_Node000006" class="edge">
<title>Node5&#45;&gt;Node6</title>
<g id="a_edge5_Node000005_Node000006"><a xlink:title=" ">
<path fill="none" stroke="#63b8ff" d="M402.38,-274.95C409.82,-258.02 425.87,-218.86 431.5,-184 437.4,-147.45 420.18,-106.07 408.44,-83.15"/>
<polygon fill="#63b8ff" stroke="#63b8ff" points="411.49,-81.43 403.69,-74.27 405.32,-84.74 411.49,-81.43"/>
</a>
</g>
</g>
<!-- Node7 -->
<g id="Node000007" class="node">
<title>Node7</title>
<g id="a_Node000007"><a xlink:title=" ">
<polygon fill="#e0e0e0" stroke="#999999" points="495,-19 454,-19 454,0 495,0 495,-19"/>
<text text-anchor="middle" x="474.5" y="-7" font-family="Helvetica,sans-Serif" font-size="10.00">string</text>
</a>
</g>
</g>
<!-- Node6&#45;&gt;Node7 -->
<g id="edge6_Node000006_Node000007" class="edge">
<title>Node6&#45;&gt;Node7</title>
<g id="a_edge6_Node000006_Node000007"><a xlink:title=" ">
<path fill="none" stroke="#63b8ff" d="M410.71,-54.98C422.28,-46.92 439.88,-34.65 453.66,-25.03"/>
<polygon fill="#63b8ff" stroke="#63b8ff" points="455.87,-27.76 462.07,-19.17 451.86,-22.02 455.87,-27.76"/>
</a>
</g>
</g>
<!-- Node8 -->
<g id="Node000008" class="node">
<title>Node8</title>
<g id="a_Node000008"><a xlink:href="_global_macros_8h.html" target="_top" xlink:title="The GlobalMacros specification defines simple macros (e.g. for parameter modes).">
<polygon fill="white" stroke="#666666" points="436,-19 351,-19 351,0 436,0 436,-19"/>
<text text-anchor="middle" x="393.5" y="-7" font-family="Helvetica,sans-Serif" font-size="10.00">GlobalMacros.h</text>
</a>
</g>
</g>
<!-- Node6&#45;&gt;Node8 -->
<g id="edge7_Node000006_Node000008" class="edge">
<title>Node6&#45;&gt;Node8</title>
<g id="a_edge7_Node000006_Node000008"><a xlink:title=" ">
<path fill="none" stroke="#63b8ff" d="M397.67,-54.75C397.02,-47.8 396.08,-37.85 395.26,-29.13"/>
<polygon fill="#63b8ff" stroke="#63b8ff" points="398.73,-28.72 394.31,-19.09 391.77,-29.37 398.73,-28.72"/>
</a>
</g>
</g>
<!-- Node9&#45;&gt;Node6 -->
<g id="edge14_Node000009_Node000006" class="edge">
<title>Node9&#45;&gt;Node6</title>
<g id="a_edge14_Node000009_Node000006"><a xlink:title=" ">
<path fill="none" stroke="#63b8ff" d="M349.82,-109.98C358.31,-102.23 371.06,-90.58 381.38,-81.14"/>
<polygon fill="#63b8ff" stroke="#63b8ff" points="383.99,-83.5 389.01,-74.17 379.27,-78.33 383.99,-83.5"/>
</a>
</g>
</g>
<!-- Node10 -->
<g id="Node000010" class="node">
<title>Node10</title>
<g id="a_Node000010"><a xlink:title=" ">
<polygon fill="#e0e0e0" stroke="#999999" points="238.5,-74 194.5,-74 194.5,-55 238.5,-55 238.5,-74"/>
<text text-anchor="middle" x="216.5" y="-62" font-family="Helvetica,sans-Serif" font-size="10.00">cmath</text>
</a>
</g>
</g>
<!-- Node9&#45;&gt;Node10 -->
<g id="edge9_Node000009_Node000010" class="edge">
<title>Node9&#45;&gt;Node10</title>
<g id="a_edge9_Node000009_Node000010"><a xlink:title=" ">
<path fill="none" stroke="#63b8ff" d="M320.58,-109.98C300.45,-101.38 269.12,-87.99 246.09,-78.15"/>
<polygon fill="#63b8ff" stroke="#63b8ff" points="247.36,-74.88 236.79,-74.17 244.6,-81.32 247.36,-74.88"/>
</a>
</g>
</g>
<!-- Node11 -->
<g id="Node000011" class="node">
<title>Node11</title>
<g id="a_Node000011"><a xlink:href="_assertion_8h.html" target="_top" xlink:title="The Assertion specification defines macros for pre&#45; and postconditions in functions or methods.">
<polygon fill="white" stroke="#666666" points="514.5,-74 448.5,-74 448.5,-55 514.5,-55 514.5,-74"/>
<text text-anchor="middle" x="481.5" y="-62" font-family="Helvetica,sans-Serif" font-size="10.00">Assertion.h</text>
</a>
</g>
</g>
<!-- Node9&#45;&gt;Node11 -->
<g id="edge10_Node000009_Node000011" class="edge">
<title>Node9&#45;&gt;Node11</title>
<g id="a_edge10_Node000009_Node000011"><a xlink:title=" ">
<path fill="none" stroke="#63b8ff" d="M363.15,-109.98C386.35,-101.27 422.62,-87.63 448.9,-77.75"/>
<polygon fill="#63b8ff" stroke="#63b8ff" points="450.3,-80.97 458.43,-74.17 447.84,-74.41 450.3,-80.97"/>
</a>
</g>
</g>
<!-- Node13 -->
<g id="Node000013" class="node">
<title>Node13</title>
<g id="a_Node000013"><a xlink:title=" ">
<polygon fill="#e0e0e0" stroke="#999999" points="348.5,-74 256.5,-74 256.5,-55 348.5,-55 348.5,-74"/>
<text text-anchor="middle" x="302.5" y="-62" font-family="Helvetica,sans-Serif" font-size="10.00">GenericNumber.h</text>
</a>
</g>
</g>
<!-- Node9&#45;&gt;Node13 -->
<g id="edge13_Node000009_Node000013" class="edge">
<title>Node9&#45;&gt;Node13</title>
<g id="a_edge13_Node000009_Node000013"><a xlink:title=" ">
<path fill="none" stroke="#63b8ff" d="M334.23,-109.75C328.91,-102.34 321.14,-91.5 314.62,-82.41"/>
<polygon fill="#63b8ff" stroke="#63b8ff" points="317.33,-80.18 308.66,-74.09 311.64,-84.26 317.33,-80.18"/>
</a>
</g>
</g>
<!-- Node11&#45;&gt;Node7 -->
<g id="edge12_Node000011_Node000007" class="edge">
<title>Node11&#45;&gt;Node7</title>
<g id="a_edge12_Node000011_Node000007"><a xlink:title=" ">
<path fill="none" stroke="#63b8ff" d="M480.34,-54.75C479.43,-47.8 478.11,-37.85 476.96,-29.13"/>
<polygon fill="#63b8ff" stroke="#63b8ff" points="480.41,-28.54 475.63,-19.09 473.47,-29.46 480.41,-28.54"/>
</a>
</g>
</g>
<!-- Node12 -->
<g id="Node000012" class="node">
<title>Node12</title>
<g id="a_Node000012"><a xlink:title=" ">
<polygon fill="#e0e0e0" stroke="#999999" points="572,-19 513,-19 513,0 572,0 572,-19"/>
<text text-anchor="middle" x="542.5" y="-7" font-family="Helvetica,sans-Serif" font-size="10.00">stdexcept</text>
</a>
</g>
</g>
<!-- Node11&#45;&gt;Node12 -->
<g id="edge11_Node000011_Node000012" class="edge">
<title>Node11&#45;&gt;Node12</title>
<g id="a_edge11_Node000011_Node000012"><a xlink:title=" ">
<path fill="none" stroke="#63b8ff" d="M491.3,-54.98C500.32,-47.15 513.91,-35.34 524.82,-25.86"/>
<polygon fill="#63b8ff" stroke="#63b8ff" points="527.27,-28.37 532.52,-19.17 522.68,-23.09 527.27,-28.37"/>
</a>
</g>
</g>
<!-- Node14&#45;&gt;Node5 -->
<g id="edge16_Node000014_Node000005" class="edge">
<title>Node14&#45;&gt;Node5</title>
<g id="a_edge16_Node000014_Node000005"><a xlink:title=" ">
<path fill="none" stroke="#63b8ff" d="M226.44,-329.98C262.39,-320.69 319.95,-305.81 358.47,-295.85"/>
<polygon fill="#63b8ff" stroke="#63b8ff" points="359.51,-299.2 368.32,-293.3 357.76,-292.42 359.51,-299.2"/>
</a>
</g>
</g>
<!-- Node15 -->
<g id="Node000015" class="node">
<title>Node15</title>
<g id="a_Node000015"><a xlink:href="_character_8h.html" target="_top" xlink:title="The Character specification and body provides a value object type for character values.">
<polygon fill="white" stroke="#666666" points="67,-239 0,-239 0,-220 67,-220 67,-239"/>
<text text-anchor="middle" x="33.5" y="-227" font-family="Helvetica,sans-Serif" font-size="10.00">Character.h</text>
</a>
</g>
</g>
<!-- Node14&#45;&gt;Node15 -->
<g id="edge17_Node000014_Node000015" class="edge">
<title>Node14&#45;&gt;Node15</title>
<g id="a_edge17_Node000014_Node000015"><a xlink:title=" ">
<path fill="none" stroke="#63b8ff" d="M160.82,-332.43C134.91,-326.28 98.95,-314.66 73.5,-294 58.52,-281.84 47.49,-262.51 40.85,-248.36"/>
<polygon fill="#63b8ff" stroke="#63b8ff" points="44.03,-246.9 36.8,-239.16 37.62,-249.72 44.03,-246.9"/>
</a>
</g>
</g>
<!-- Node18 -->
<g id="Node000018" class="node">
<title>Node18</title>
<g id="a_Node000018"><a xlink:href="_object_8h.html" target="_top" xlink:title="The Object specification and body provides the root object type.">
<polygon fill="white" stroke="#666666" points="220,-294 167,-294 167,-275 220,-275 220,-294"/>
<text text-anchor="middle" x="193.5" y="-282" font-family="Helvetica,sans-Serif" font-size="10.00">Object.h</text>
</a>
</g>
</g>
<!-- Node14&#45;&gt;Node18 -->
<g id="edge23_Node000014_Node000018" class="edge">
<title>Node14&#45;&gt;Node18</title>
<g id="a_edge23_Node000014_Node000018"><a xlink:title=" ">
<path fill="none" stroke="#63b8ff" d="M193.5,-329.75C193.5,-322.8 193.5,-312.85 193.5,-304.13"/>
<polygon fill="#63b8ff" stroke="#63b8ff" points="197,-304.09 193.5,-294.09 190,-304.09 197,-304.09"/>
</a>
</g>
</g>
<!-- Node19 -->
<g id="Node000019" class="node">
<title>Node19</title>
<g id="a_Node000019"><a xlink:href="_percentage_8h.html" target="_top" xlink:title="The Percentage specification and body provides a simple percentage type.">
<polygon fill="white" stroke="#666666" points="312.5,-294 238.5,-294 238.5,-275 312.5,-275 312.5,-294"/>
<text text-anchor="middle" x="275.5" y="-282" font-family="Helvetica,sans-Serif" font-size="10.00">Percentage.h</text>
</a>
</g>
</g>
<!-- Node14&#45;&gt;Node19 -->
<g id="edge24_Node000014_Node000019" class="edge">
<title>Node14&#45;&gt;Node19</title>
<g id="a_edge24_Node000014_Node000019"><a xlink:title=" ">
<path fill="none" stroke="#63b8ff" d="M206.67,-329.98C219.27,-321.84 238.5,-309.41 253.44,-299.76"/>
<polygon fill="#63b8ff" stroke="#63b8ff" points="255.59,-302.54 262.09,-294.17 251.79,-296.66 255.59,-302.54"/>
</a>
</g>
</g>
<!-- Node22 -->
<g id="Node000022" class="node">
<title>Node22</title>
<g id="a_Node000022"><a xlink:href="_string_list_8h.html" target="_top" xlink:title="The StringList specification defines lists of string values with zero&#45;based arbitrary indexed access ...">
<polygon fill="white" stroke="#666666" points="148.5,-294 82.5,-294 82.5,-275 148.5,-275 148.5,-294"/>
<text text-anchor="middle" x="115.5" y="-282" font-family="Helvetica,sans-Serif" font-size="10.00">StringList.h</text>
</a>
</g>
</g>
<!-- Node14&#45;&gt;Node22 -->
<g id="edge30_Node000014_Node000022" class="edge">
<title>Node14&#45;&gt;Node22</title>
<g id="a_edge30_Node000014_Node000022"><a xlink:title=" ">
<path fill="none" stroke="#63b8ff" d="M180.97,-329.98C169.1,-321.92 151.04,-309.65 136.89,-300.03"/>
<polygon fill="#63b8ff" stroke="#63b8ff" points="138.5,-296.9 128.26,-294.17 134.56,-302.69 138.5,-296.9"/>
</a>
</g>
</g>
<!-- Node15&#45;&gt;Node10 -->
<g id="edge18_Node000015_Node000010" class="edge">
<title>Node15&#45;&gt;Node10</title>
<g id="a_edge18_Node000015_Node000010"><a xlink:title=" ">
<path fill="none" stroke="#63b8ff" d="M67.29,-221.8C104.7,-213.75 161.82,-199.4 177.5,-184 205.1,-156.9 213.17,-109.95 215.53,-84.03"/>
<polygon fill="#63b8ff" stroke="#63b8ff" points="219.02,-84.26 216.25,-74.03 212.04,-83.76 219.02,-84.26"/>
</a>
</g>
</g>
<!-- Node16 -->
<g id="Node000016" class="node">
<title>Node16</title>
<g id="a_Node000016"><a xlink:href="_byte_8h.html" target="_top" xlink:title="The Byte specification and body provides a value object type for byte values.">
<polygon fill="white" stroke="#666666" points="169,-184 124,-184 124,-165 169,-165 169,-184"/>
<text text-anchor="middle" x="146.5" y="-172" font-family="Helvetica,sans-Serif" font-size="10.00">Byte.h</text>
</a>
</g>
</g>
<!-- Node15&#45;&gt;Node16 -->
<g id="edge19_Node000015_Node000016" class="edge">
<title>Node15&#45;&gt;Node16</title>
<g id="a_edge19_Node000015_Node000016"><a xlink:title=" ">
<path fill="none" stroke="#63b8ff" d="M51.66,-219.98C69.75,-211.5 97.78,-198.35 118.69,-188.54"/>
<polygon fill="#63b8ff" stroke="#63b8ff" points="120.45,-191.59 128.01,-184.17 117.47,-185.25 120.45,-191.59"/>
</a>
</g>
</g>
<!-- Node16&#45;&gt;Node9 -->
<g id="edge22_Node000016_Node000009" class="edge">
<title>Node16&#45;&gt;Node9</title>
<g id="a_edge22_Node000016_Node000009"><a xlink:title=" ">
<path fill="none" stroke="#63b8ff" d="M169.13,-167.32C201.87,-158.37 262.84,-141.72 302.53,-130.87"/>
<polygon fill="#63b8ff" stroke="#63b8ff" points="303.65,-134.19 312.38,-128.18 301.81,-127.44 303.65,-134.19"/>
</a>
</g>
</g>
<!-- Node16&#45;&gt;Node10 -->
<g id="edge20_Node000016_Node000010" class="edge">
<title>Node16&#45;&gt;Node10</title>
<g id="a_edge20_Node000016_Node000010"><a xlink:title=" ">
<path fill="none" stroke="#63b8ff" d="M152.23,-164.66C163.82,-146.77 190.25,-106 205.36,-82.69"/>
<polygon fill="#63b8ff" stroke="#63b8ff" points="208.39,-84.45 210.89,-74.16 202.51,-80.65 208.39,-84.45"/>
</a>
</g>
</g>
<!-- Node17 -->
<g id="Node000017" class="node">
<title>Node17</title>
<g id="a_Node000017"><a xlink:title=" ">
<polygon fill="#e0e0e0" stroke="#999999" points="150.5,-129 104.5,-129 104.5,-110 150.5,-110 150.5,-129"/>
<text text-anchor="middle" x="127.5" y="-117" font-family="Helvetica,sans-Serif" font-size="10.00">cstdint</text>
</a>
</g>
</g>
<!-- Node16&#45;&gt;Node17 -->
<g id="edge21_Node000016_Node000017" class="edge">
<title>Node16&#45;&gt;Node17</title>
<g id="a_edge21_Node000016_Node000017"><a xlink:title=" ">
<path fill="none" stroke="#63b8ff" d="M143.36,-164.75C140.82,-157.65 137.14,-147.4 133.97,-138.56"/>
<polygon fill="#63b8ff" stroke="#63b8ff" points="137.25,-137.32 130.58,-129.09 130.66,-139.68 137.25,-137.32"/>
</a>
</g>
</g>
<!-- Node20 -->
<g id="Node000020" class="node">
<title>Node20</title>
<g id="a_Node000020"><a xlink:href="_real_8h.html" target="_top" xlink:title="The Real specification defines a value object type for real values.">
<polygon fill="white" stroke="#666666" points="312.5,-239 268.5,-239 268.5,-220 312.5,-220 312.5,-239"/>
<text text-anchor="middle" x="290.5" y="-227" font-family="Helvetica,sans-Serif" font-size="10.00">Real.h</text>
</a>
</g>
</g>
<!-- Node19&#45;&gt;Node20 -->
<g id="edge25_Node000019_Node000020" class="edge">
<title>Node19&#45;&gt;Node20</title>
<g id="a_edge25_Node000019_Node000020"><a xlink:title=" ">
<path fill="none" stroke="#63b8ff" d="M277.98,-274.75C279.96,-267.72 282.82,-257.62 285.31,-248.84"/>
<polygon fill="#63b8ff" stroke="#63b8ff" points="288.71,-249.66 288.07,-239.09 281.98,-247.76 288.71,-249.66"/>
</a>
</g>
</g>
<!-- Node21 -->
<g id="Node000021" class="node">
<title>Node21</title>
<g id="a_Node000021"><a xlink:href="_integer_8h.html" target="_top" xlink:title="The Integer specification and body provides a value object type for ints.">
<polygon fill="white" stroke="#666666" points="422.5,-184 368.5,-184 368.5,-165 422.5,-165 422.5,-184"/>
<text text-anchor="middle" x="395.5" y="-172" font-family="Helvetica,sans-Serif" font-size="10.00">Integer.h</text>
</a>
</g>
</g>
<!-- Node20&#45;&gt;Node21 -->
<g id="edge26_Node000020_Node000021" class="edge">
<title>Node20&#45;&gt;Node21</title>
<g id="a_edge26_Node000020_Node000021"><a xlink:title=" ">
<path fill="none" stroke="#63b8ff" d="M307.37,-219.98C324.11,-211.54 350,-198.47 369.39,-188.68"/>
<polygon fill="#63b8ff" stroke="#63b8ff" points="370.97,-191.8 378.32,-184.17 367.82,-185.55 370.97,-191.8"/>
</a>
</g>
</g>
<!-- Node21&#45;&gt;Node9 -->
<g id="edge29_Node000021_Node000009" class="edge">
<title>Node21&#45;&gt;Node9</title>
<g id="a_edge29_Node000021_Node000009"><a xlink:title=" ">
<path fill="none" stroke="#63b8ff" d="M386.42,-164.75C378.41,-157.03 366.54,-145.6 356.88,-136.28"/>
<polygon fill="#63b8ff" stroke="#63b8ff" points="359.04,-133.51 349.41,-129.09 354.19,-138.55 359.04,-133.51"/>
</a>
</g>
</g>
<!-- Node21&#45;&gt;Node10 -->
<g id="edge27_Node000021_Node000010" class="edge">
<title>Node21&#45;&gt;Node10</title>
<g id="a_edge27_Node000021_Node000010"><a xlink:title=" ">
<path fill="none" stroke="#63b8ff" d="M375.22,-164.95C356.2,-156.65 327.23,-143.24 303.5,-129 278.79,-114.17 252.29,-94.18 235.12,-80.62"/>
<polygon fill="#63b8ff" stroke="#63b8ff" points="237.05,-77.68 227.05,-74.17 232.68,-83.15 237.05,-77.68"/>
</a>
</g>
</g>
<!-- Node21&#45;&gt;Node12 -->
<g id="edge28_Node000021_Node000012" class="edge">
<title>Node21&#45;&gt;Node12</title>
<g id="a_edge28_Node000021_Node000012"><a xlink:title=" ">
<path fill="none" stroke="#63b8ff" d="M412.34,-164.94C439.75,-150.15 493.92,-117.2 523.5,-74 532.74,-60.5 537.58,-42.41 540.05,-28.99"/>
<polygon fill="#63b8ff" stroke="#63b8ff" points="543.53,-29.44 541.62,-19.02 536.61,-28.35 543.53,-29.44"/>
</a>
</g>
</g>
<!-- Node23 -->
<g id="Node000023" class="node">
<title>Node23</title>
<g id="a_Node000023"><a xlink:title=" ">
<polygon fill="#e0e0e0" stroke="#999999" points="158,-239 85,-239 85,-220 158,-220 158,-239"/>
<text text-anchor="middle" x="121.5" y="-227" font-family="Helvetica,sans-Serif" font-size="10.00">initializer_list</text>
</a>
</g>
</g>
<!-- Node22&#45;&gt;Node23 -->
<g id="edge31_Node000022_Node000023" class="edge">
<title>Node22&#45;&gt;Node23</title>
<g id="a_edge31_Node000022_Node000023"><a xlink:title=" ">
<path fill="none" stroke="#63b8ff" d="M116.49,-274.75C117.28,-267.8 118.4,-257.85 119.39,-249.13"/>
<polygon fill="#63b8ff" stroke="#63b8ff" points="122.88,-249.42 120.53,-239.09 115.92,-248.63 122.88,-249.42"/>
</a>
</g>
</g>
<!-- Node24 -->
<g id="Node000024" class="node">
<title>Node24</title>
<g id="a_Node000024"><a xlink:title=" ">
<polygon fill="#e0e0e0" stroke="#999999" points="250.5,-239 176.5,-239 176.5,-220 250.5,-220 250.5,-239"/>
<text text-anchor="middle" x="213.5" y="-227" font-family="Helvetica,sans-Serif" font-size="10.00">GenericList.h</text>
</a>
</g>
</g>
<!-- Node22&#45;&gt;Node24 -->
<g id="edge32_Node000022_Node000024" class="edge">
<title>Node22&#45;&gt;Node24</title>
<g id="a_edge32_Node000022_Node000024"><a xlink:title=" ">
<path fill="none" stroke="#63b8ff" d="M131.25,-274.98C146.73,-266.61 170.59,-253.7 188.64,-243.95"/>
<polygon fill="#63b8ff" stroke="#63b8ff" points="190.34,-247.01 197.47,-239.17 187.01,-240.85 190.34,-247.01"/>
</a>
</g>
</g>
<!-- Node25&#45;&gt;Node5 -->
<g id="edge34_Node000025_Node000005" class="edge">
<title>Node25&#45;&gt;Node5</title>
<g id="a_edge34_Node000025_Node000005"><a xlink:title=" ">
<path fill="none" stroke="#63b8ff" d="M470.68,-329.98C457.35,-321.77 436.92,-309.18 421.19,-299.49"/>
<polygon fill="#63b8ff" stroke="#63b8ff" points="422.92,-296.44 412.57,-294.17 419.25,-302.4 422.92,-296.44"/>
</a>
</g>
</g>
<!-- Node25&#45;&gt;Node21 -->
<g id="edge35_Node000025_Node000021" class="edge">
<title>Node25&#45;&gt;Node21</title>
<g id="a_edge35_Node000025_Node000021"><a xlink:title=" ">
<path fill="none" stroke="#63b8ff" d="M479.71,-329.74C465.65,-303.98 424.24,-228.13 405.23,-193.33"/>
<polygon fill="#63b8ff" stroke="#63b8ff" points="408.17,-191.41 400.31,-184.31 402.03,-194.76 408.17,-191.41"/>
</a>
</g>
</g>
</g>
</svg>

<g id="navigator" transform="translate(0 0)" fill="#404254">
  <rect fill="#f2f5e9" fill-opacity="0.5" stroke="#606060" stroke-width=".5" x="0" y="0" width="60" height="60"/>
  <use id="zoomplus" xlink:href="#zoomPlus" x="17" y="9" onmousedown="handleZoom(evt,'in')"/>
  <use id="zoomminus" xlink:href="#zoomMin" x="42" y="9" onmousedown="handleZoom(evt,'out')"/>
  <use id="reset" xlink:href="#resetDef" x="30" y="36" onmousedown="handleReset()"/>
   <use id="arrowup" xlink:href="#arrowUp" x="0" y="0" onmousedown="handlePan(0,-1)"/>
  <use id="arrowright" xlink:href="#arrowRight" x="0" y="0" onmousedown="handlePan(1,0)"/>
  <use id="arrowdown" xlink:href="#arrowDown" x="0" y="0" onmousedown="handlePan(0,1)"/>
  <use id="arrowleft" xlink:href="#arrowLeft" x="0" y="0" onmousedown="handlePan(-1,0)"/>
</g>
<svg viewBox="0 0 15 15" width="100%" height="30px" preserveAspectRatio="xMaxYMin meet">
 <g id="arrow_out" transform="scale(0.3 0.3)">
  <a xlink:href="_midi_preset_identification_8cpp__incl_org.svg" target="_base">
   <rect id="button" ry="5" rx="5" y="6" x="6" height="38" width="38"
        fill="#f2f5e9" fill-opacity="0.5" stroke="#606060" stroke-width="1.0"/>
   <path id="arrow"
     d="M 11.500037,31.436501 C 11.940474,20.09759 22.043105,11.32322 32.158766,21.979434 L 37.068811,17.246167 C 37.068811,17.246167 37.088388,32 37.088388,32 L 22.160133,31.978069 C 22.160133,31.978069 26.997745,27.140456 26.997745,27.140456 C 18.528582,18.264221 13.291696,25.230495 11.500037,31.436501 z"
     style="fill:#404040;"/>
  </a>
 </g>
</svg>

<style type='text/css'>
<![CDATA[
[data-mouse-over-selected='false'] { opacity: 0.7; }
[data-mouse-over-selected='true']  { opacity: 1.0; }
]]>
</style>
<script type="application/ecmascript"><![CDATA[
document.addEventListener('DOMContentLoaded', (event) => {
  highlightEdges();
  highlightAdjacentNodes();
});
]]></script>
</svg>
