<?xml version="1.0" encoding="UTF-8" standalone="no"?>
<!DOCTYPE svg PUBLIC "-//W3C//DTD SVG 1.1//EN"
 "http://www.w3.org/Graphics/SVG/1.1/DTD/svg11.dtd">
<!-- Generated by graphviz version 2.47.1 (20210417.1919)
 -->
<!-- Title: MidiEvent.h Pages: 1 -->
<svg width="570pt" height="196pt"
 viewBox="0.00 0.00 569.50 196.00" xmlns="http://www.w3.org/2000/svg" xmlns:xlink="http://www.w3.org/1999/xlink">
<g id="graph0" class="graph" transform="scale(1 1) rotate(0) translate(4 192)">
<title>MidiEvent.h</title>
<polygon fill="white" stroke="transparent" points="-4,4 -4,-192 565.5,-192 565.5,4 -4,4"/>
<!-- Node1 -->
<g id="node1" class="node">
<title>Node1</title>
<g id="a_node1"><a xlink:title="The MidiEvent specification defines a single MIDI event and the MIDI event kind enumeration.">
<polygon fill="#bfbfbf" stroke="black" points="294.5,-168.5 294.5,-187.5 361.5,-187.5 361.5,-168.5 294.5,-168.5"/>
<text text-anchor="middle" x="328" y="-175.5" font-family="Helvetica,sans-Serif" font-size="10.00">MidiEvent.h</text>
</a>
</g>
</g>
<!-- Node2 -->
<g id="node2" class="node">
<title>Node2</title>
<g id="a_node2"><a xlink:href="_midi_event_8cpp.html" target="_top" xlink:title="The MidiEvent implementation defines the services of a single MIDI event.">
<polygon fill="white" stroke="black" points="240.5,-112.5 240.5,-131.5 317.5,-131.5 317.5,-112.5 240.5,-112.5"/>
<text text-anchor="middle" x="279" y="-119.5" font-family="Helvetica,sans-Serif" font-size="10.00">MidiEvent.cpp</text>
</a>
</g>
</g>
<!-- Node1&#45;&gt;Node2 -->
<g id="edge1" class="edge">
<title>Node1&#45;&gt;Node2</title>
<path fill="none" stroke="midnightblue" d="M312.97,-160.43C304.38,-150.97 293.96,-139.48 286.94,-131.75"/>
<polygon fill="midnightblue" stroke="midnightblue" points="310.6,-163.03 319.91,-168.08 315.78,-158.33 310.6,-163.03"/>
</g>
<!-- Node3 -->
<g id="node3" class="node">
<title>Node3</title>
<g id="a_node3"><a xlink:href="_midi_event_list_8h.html" target="_top" xlink:title="The MidiEventList specification defines lists of MIDI events with zero&#45;based arbitrary indexed access...">
<polygon fill="white" stroke="black" points="335.5,-112.5 335.5,-131.5 418.5,-131.5 418.5,-112.5 335.5,-112.5"/>
<text text-anchor="middle" x="377" y="-119.5" font-family="Helvetica,sans-Serif" font-size="10.00">MidiEventList.h</text>
</a>
</g>
</g>
<!-- Node1&#45;&gt;Node3 -->
<g id="edge2" class="edge">
<title>Node1&#45;&gt;Node3</title>
<path fill="none" stroke="midnightblue" d="M343.03,-160.43C351.62,-150.97 362.04,-139.48 369.06,-131.75"/>
<polygon fill="midnightblue" stroke="midnightblue" points="340.22,-158.33 336.09,-168.08 345.4,-163.03 340.22,-158.33"/>
</g>
<!-- Node4 -->
<g id="node4" class="node">
<title>Node4</title>
<g id="a_node4"><a xlink:href="_midi_event_converter_8h.html" target="_top" xlink:title="The MidiEventConverter specification defines the handling of MIDI events by feeding them to an underl...">
<polygon fill="white" stroke="black" points="205.5,-56.5 205.5,-75.5 312.5,-75.5 312.5,-56.5 205.5,-56.5"/>
<text text-anchor="middle" x="259" y="-63.5" font-family="Helvetica,sans-Serif" font-size="10.00">MidiEventConverter.h</text>
</a>
</g>
</g>
<!-- Node3&#45;&gt;Node4 -->
<g id="edge3" class="edge">
<title>Node3&#45;&gt;Node4</title>
<path fill="none" stroke="midnightblue" d="M349.1,-108.23C327.03,-98.13 296.82,-84.31 277.61,-75.52"/>
<polygon fill="midnightblue" stroke="midnightblue" points="347.75,-111.46 358.3,-112.44 350.67,-105.1 347.75,-111.46"/>
</g>
<!-- Node8 -->
<g id="node8" class="node">
<title>Node8</title>
<g id="a_node8"><a xlink:href="_midi_event_list_8cpp.html" target="_top" xlink:title="The MIDIEventList body implements sequences of integer values with zero&#45;based arbitrary indexed acces...">
<polygon fill="white" stroke="black" points="330.5,-56.5 330.5,-75.5 423.5,-75.5 423.5,-56.5 330.5,-56.5"/>
<text text-anchor="middle" x="377" y="-63.5" font-family="Helvetica,sans-Serif" font-size="10.00">MidiEventList.cpp</text>
</a>
</g>
</g>
<!-- Node3&#45;&gt;Node8 -->
<g id="edge7" class="edge">
<title>Node3&#45;&gt;Node8</title>
<path fill="none" stroke="midnightblue" d="M377,-101.8C377,-92.91 377,-82.78 377,-75.75"/>
<polygon fill="midnightblue" stroke="midnightblue" points="373.5,-102.08 377,-112.08 380.5,-102.08 373.5,-102.08"/>
</g>
<!-- Node9 -->
<g id="node9" class="node">
<title>Node9</title>
<g id="a_node9"><a xlink:href="_midi_file_8h.html" target="_top" xlink:title="The MidiFile specification defines the services of a MIDI file; currently only file reading is suppor...">
<polygon fill="white" stroke="black" points="441.5,-56.5 441.5,-75.5 500.5,-75.5 500.5,-56.5 441.5,-56.5"/>
<text text-anchor="middle" x="471" y="-63.5" font-family="Helvetica,sans-Serif" font-size="10.00">MidiFile.h</text>
</a>
</g>
</g>
<!-- Node3&#45;&gt;Node9 -->
<g id="edge8" class="edge">
<title>Node3&#45;&gt;Node9</title>
<path fill="none" stroke="midnightblue" d="M401.06,-107.18C418.36,-97.24 441.15,-84.15 455.93,-75.65"/>
<polygon fill="midnightblue" stroke="midnightblue" points="399.03,-104.31 392.1,-112.32 402.52,-110.38 399.03,-104.31"/>
</g>
<!-- Node5 -->
<g id="node5" class="node">
<title>Node5</title>
<g id="a_node5"><a xlink:href="_fluid_synth_file_converter_8cpp.html" target="_top" xlink:title="The FluidSynthFileConverter module implements a conversion from a MIDI file into a wave file using th...">
<polygon fill="white" stroke="black" points="336,-0.5 336,-19.5 474,-19.5 474,-0.5 336,-0.5"/>
<text text-anchor="middle" x="405" y="-7.5" font-family="Helvetica,sans-Serif" font-size="10.00">FluidSynthFileConverter.cpp</text>
</a>
</g>
</g>
<!-- Node4&#45;&gt;Node5 -->
<g id="edge4" class="edge">
<title>Node4&#45;&gt;Node5</title>
<path fill="none" stroke="midnightblue" d="M291.7,-52.91C319.15,-42.75 357.67,-28.51 381.97,-19.52"/>
<polygon fill="midnightblue" stroke="midnightblue" points="290.3,-49.69 282.13,-56.44 292.73,-56.26 290.3,-49.69"/>
</g>
<!-- Node6 -->
<g id="node6" class="node">
<title>Node6</title>
<g id="a_node6"><a xlink:href="_fluid_synth_plugin___event_processor_8cpp.html" target="_top" xlink:title="The FluidSynthPlugin_Processor module implements the handling of MIDI events from the DAW via JUCE ha...">
<polygon fill="white" stroke="black" points="0,-0.5 0,-19.5 182,-19.5 182,-0.5 0,-0.5"/>
<text text-anchor="middle" x="91" y="-7.5" font-family="Helvetica,sans-Serif" font-size="10.00">FluidSynthPlugin_EventProcessor.cpp</text>
</a>
</g>
</g>
<!-- Node4&#45;&gt;Node6 -->
<g id="edge5" class="edge">
<title>Node4&#45;&gt;Node6</title>
<path fill="none" stroke="midnightblue" d="M222.61,-53.3C190.96,-43.13 145.83,-28.62 117.5,-19.52"/>
<polygon fill="midnightblue" stroke="midnightblue" points="221.79,-56.72 232.38,-56.44 223.93,-50.05 221.79,-56.72"/>
</g>
<!-- Node7 -->
<g id="node7" class="node">
<title>Node7</title>
<g id="a_node7"><a xlink:href="_midi_event_converter_8cpp.html" target="_top" xlink:title="The MidiEventConverter module implements the handling of MIDI events by feeding them to an underlying...">
<polygon fill="white" stroke="black" points="200,-0.5 200,-19.5 318,-19.5 318,-0.5 200,-0.5"/>
<text text-anchor="middle" x="259" y="-7.5" font-family="Helvetica,sans-Serif" font-size="10.00">MidiEventConverter.cpp</text>
</a>
</g>
</g>
<!-- Node4&#45;&gt;Node7 -->
<g id="edge6" class="edge">
<title>Node4&#45;&gt;Node7</title>
<path fill="none" stroke="midnightblue" d="M259,-45.8C259,-36.91 259,-26.78 259,-19.75"/>
<polygon fill="midnightblue" stroke="midnightblue" points="255.5,-46.08 259,-56.08 262.5,-46.08 255.5,-46.08"/>
</g>
<!-- Node9&#45;&gt;Node5 -->
<g id="edge9" class="edge">
<title>Node9&#45;&gt;Node5</title>
<path fill="none" stroke="midnightblue" d="M452.45,-49.82C440.62,-40.15 425.71,-27.95 415.8,-19.83"/>
<polygon fill="midnightblue" stroke="midnightblue" points="450.44,-52.7 460.4,-56.32 454.87,-47.28 450.44,-52.7"/>
</g>
<!-- Node10 -->
<g id="node10" class="node">
<title>Node10</title>
<g id="a_node10"><a xlink:href="_midi_file_8cpp.html" target="_top" xlink:title="The MidiFile implementation implements the services of a MIDI file; currently only file reading is su...">
<polygon fill="white" stroke="black" points="492.5,-0.5 492.5,-19.5 561.5,-19.5 561.5,-0.5 492.5,-0.5"/>
<text text-anchor="middle" x="527" y="-7.5" font-family="Helvetica,sans-Serif" font-size="10.00">MidiFile.cpp</text>
</a>
</g>
</g>
<!-- Node9&#45;&gt;Node10 -->
<g id="edge10" class="edge">
<title>Node9&#45;&gt;Node10</title>
<path fill="none" stroke="midnightblue" d="M487.33,-49.25C497.26,-39.67 509.59,-27.79 517.84,-19.83"/>
<polygon fill="midnightblue" stroke="midnightblue" points="484.77,-46.86 480,-56.32 489.63,-51.9 484.77,-46.86"/>
</g>
</g>
</svg>
