<?xml version="1.0" encoding="UTF-8" standalone="no"?>
<!DOCTYPE svg PUBLIC "-//W3C//DTD SVG 1.1//EN"
 "http://www.w3.org/Graphics/SVG/1.1/DTD/svg11.dtd">
<!-- Generated by graphviz version 2.47.1 (20210417.1919)
 -->
<!-- Title: MidiFile.cpp Pages: 1 -->
<!--zoomable 476 -->
<svg id="main" version="1.1" xmlns="http://www.w3.org/2000/svg" xmlns:xlink="http://www.w3.org/1999/xlink" xml:space="preserve" onload="init(evt)">
<style type="text/css"><![CDATA[
.edge:hover path { stroke: red; }
.edge:hover polygon { stroke: red; fill: red; }
]]></style>
<script type="text/javascript"><![CDATA[
var edges = document.getElementsByTagName('g');
if (edges && edges.length) {
  for (var i=0;i<edges.length;i++) {
    if (edges[i].id.substr(0,4)=='edge') {
      edges[i].setAttribute('class','edge');
    }
  }
}
]]></script>
        <defs>
                <circle id="rim" cx="0" cy="0" r="7"/>
                <circle id="rim2" cx="0" cy="0" r="3.5"/>
                <g id="zoomPlus">
                        <use xlink:href="#rim" fill="#404040">
                                <set attributeName="fill" to="#808080" begin="zoomplus.mouseover" end="zoomplus.mouseout"/>
                        </use>
                        <path d="M-4,0h8M0,-4v8" fill="none" stroke="white" stroke-width="1.5" pointer-events="none"/>
                </g>
                <g id="zoomMin">
                        <use xlink:href="#rim" fill="#404040">
                                <set attributeName="fill" to="#808080" begin="zoomminus.mouseover" end="zoomminus.mouseout"/>
                        </use>
                        <path d="M-4,0h8" fill="none" stroke="white" stroke-width="1.5" pointer-events="none"/>
                </g>
                <g id="dirArrow">
                        <path fill="none" stroke="white" stroke-width="1.5" d="M0,-3.0v7 M-2.5,-0.5L0,-3.0L2.5,-0.5"/>
                </g>
               <g id="resetDef">
                       <use xlink:href="#rim2" fill="#404040">
                               <set attributeName="fill" to="#808080" begin="reset.mouseover" end="reset.mouseout"/>
                       </use>
               </g>
        </defs>

<script type="text/javascript">
var viewWidth = 834;
var viewHeight = 476;
var sectionId = 'dynsection-0';
</script>
<script xlink:href="svgpan.js"/>
<svg id="graph" class="graph">
<g id="viewport">
<title>MidiFile.cpp</title>
<polygon fill="white" stroke="transparent" points="-4,4 -4,-472 829.75,-472 829.75,4 -4,4"/>
<!-- Node1 -->
<g id="node1" class="node">
<title>Node1</title>
<g id="a_node1"><a xlink:title="The MidiFile implementation implements the services of a MIDI file; currently only file reading is su...">
<polygon fill="#bfbfbf" stroke="black" points="212.25,-448.5 212.25,-467.5 281.25,-467.5 281.25,-448.5 212.25,-448.5"/>
<text text-anchor="middle" x="246.75" y="-455.5" font-family="Helvetica,sans-Serif" font-size="10.00">MidiFile.cpp</text>
</a>
</g>
</g>
<!-- Node2 -->
<g id="node2" class="node">
<title>Node2</title>
<g id="a_node2"><a xlink:href="_assertion_8h.html" target="_top" xlink:title="The Assertion specification defines macros for pre&#45; and postconditions in functions or methods.">
<polygon fill="white" stroke="black" points="153.75,-56.5 153.75,-75.5 219.75,-75.5 219.75,-56.5 153.75,-56.5"/>
<text text-anchor="middle" x="186.75" y="-63.5" font-family="Helvetica,sans-Serif" font-size="10.00">Assertion.h</text>
</a>
</g>
</g>
<!-- Node1&#45;&gt;Node2 -->
<g id="edge1" class="edge">
<title>Node1&#45;&gt;Node2</title>
<path fill="none" stroke="midnightblue" d="M216.77,-448.43C162.39,-431.01 49.36,-385.65 8.75,-300 -35.56,-206.54 102.6,-114.66 161.49,-80.72"/>
<polygon fill="midnightblue" stroke="midnightblue" points="163.56,-83.57 170.54,-75.61 160.12,-77.48 163.56,-83.57"/>
</g>
<!-- Node5 -->
<g id="node5" class="node">
<title>Node5</title>
<g id="a_node5"><a xlink:href="_file_8h.html" target="_top" xlink:title="The File specification defines a class for simple file handling based on C stdio.">
<polygon fill="white" stroke="black" points="454.25,-280.5 454.25,-299.5 495.25,-299.5 495.25,-280.5 454.25,-280.5"/>
<text text-anchor="middle" x="474.75" y="-287.5" font-family="Helvetica,sans-Serif" font-size="10.00">File.h</text>
</a>
</g>
</g>
<!-- Node1&#45;&gt;Node5 -->
<g id="edge4" class="edge">
<title>Node1&#45;&gt;Node5</title>
<path fill="none" stroke="midnightblue" d="M262.56,-448.48C278.52,-439.75 303.73,-425.56 324.75,-412 360.61,-388.86 369.52,-382.78 402.75,-356 422.48,-340.1 443.89,-320.43 458.19,-306.92"/>
<polygon fill="midnightblue" stroke="midnightblue" points="460.89,-309.18 465.72,-299.75 456.06,-304.11 460.89,-309.18"/>
</g>
<!-- Node18 -->
<g id="node18" class="node">
<title>Node18</title>
<g id="a_node18"><a xlink:href="_logging_8h.html" target="_top" xlink:title="The Logging specification defines macros for entry&#45;, exit&#45; and intermediate logging of functions into...">
<polygon fill="white" stroke="black" points="179.25,-392.5 179.25,-411.5 238.25,-411.5 238.25,-392.5 179.25,-392.5"/>
<text text-anchor="middle" x="208.75" y="-399.5" font-family="Helvetica,sans-Serif" font-size="10.00">Logging.h</text>
</a>
</g>
</g>
<!-- Node1&#45;&gt;Node18 -->
<g id="edge21" class="edge">
<title>Node1&#45;&gt;Node18</title>
<path fill="none" stroke="midnightblue" d="M240.47,-448.08C235.11,-440.46 227.23,-429.26 220.67,-419.94"/>
<polygon fill="midnightblue" stroke="midnightblue" points="223.52,-417.91 214.91,-411.75 217.8,-421.94 223.52,-417.91"/>
</g>
<!-- Node26 -->
<g id="node26" class="node">
<title>Node26</title>
<g id="a_node26"><a xlink:href="_midi_file_8h.html" target="_top" xlink:title="The MidiFile specification defines the services of a MIDI file; currently only file reading is suppor...">
<polygon fill="white" stroke="black" points="256.25,-392.5 256.25,-411.5 315.25,-411.5 315.25,-392.5 256.25,-392.5"/>
<text text-anchor="middle" x="285.75" y="-399.5" font-family="Helvetica,sans-Serif" font-size="10.00">MidiFile.h</text>
</a>
</g>
</g>
<!-- Node1&#45;&gt;Node26 -->
<g id="edge39" class="edge">
<title>Node1&#45;&gt;Node26</title>
<path fill="none" stroke="midnightblue" d="M253.19,-448.08C258.7,-440.46 266.78,-429.26 273.51,-419.94"/>
<polygon fill="midnightblue" stroke="midnightblue" points="276.41,-421.91 279.43,-411.75 270.74,-417.81 276.41,-421.91"/>
</g>
<!-- Node29 -->
<g id="node29" class="node">
<title>Node29</title>
<g id="a_node29"><a xlink:href="_natural_list_8h.html" target="_top" xlink:title="The NaturalList specification defines lists of non&#45;negative integer values with zero&#45;based arbitrary ...">
<polygon fill="white" stroke="black" points="610.25,-392.5 610.25,-411.5 681.25,-411.5 681.25,-392.5 610.25,-392.5"/>
<text text-anchor="middle" x="645.75" y="-399.5" font-family="Helvetica,sans-Serif" font-size="10.00">NaturalList.h</text>
</a>
</g>
</g>
<!-- Node1&#45;&gt;Node29 -->
<g id="edge49" class="edge">
<title>Node1&#45;&gt;Node29</title>
<path fill="none" stroke="midnightblue" d="M281.46,-452.3C353.4,-442.57 518.81,-420.18 599.62,-409.24"/>
<polygon fill="midnightblue" stroke="midnightblue" points="600.53,-412.65 609.97,-407.84 599.6,-405.71 600.53,-412.65"/>
</g>
<!-- Node30 -->
<g id="node30" class="node">
<title>Node30</title>
<g id="a_node30"><a xlink:href="_operating_system_8h.html" target="_top" xlink:title="The OperatingSystem specification defines a class for several operating system related utility functi...">
<polygon fill="white" stroke="black" points="18.25,-280.5 18.25,-299.5 119.25,-299.5 119.25,-280.5 18.25,-280.5"/>
<text text-anchor="middle" x="68.75" y="-287.5" font-family="Helvetica,sans-Serif" font-size="10.00">OperatingSystem.h</text>
</a>
</g>
</g>
<!-- Node1&#45;&gt;Node30 -->
<g id="edge51" class="edge">
<title>Node1&#45;&gt;Node30</title>
<path fill="none" stroke="midnightblue" d="M228.78,-448.49C212.66,-440.38 188.83,-427.18 170.75,-412 132.87,-380.2 97.83,-333.3 80.36,-308.25"/>
<polygon fill="midnightblue" stroke="midnightblue" points="83.11,-306.06 74.56,-299.8 77.34,-310.03 83.11,-306.06"/>
</g>
<!-- Node3 -->
<g id="node3" class="node">
<title>Node3</title>
<g id="a_node3"><a xlink:title=" ">
<polygon fill="white" stroke="#bfbfbf" points="320.25,-0.5 320.25,-19.5 379.25,-19.5 379.25,-0.5 320.25,-0.5"/>
<text text-anchor="middle" x="349.75" y="-7.5" font-family="Helvetica,sans-Serif" font-size="10.00">stdexcept</text>
</a>
</g>
</g>
<!-- Node2&#45;&gt;Node3 -->
<g id="edge2" class="edge">
<title>Node2&#45;&gt;Node3</title>
<path fill="none" stroke="midnightblue" d="M212.58,-56.44C240,-47.36 283.53,-32.94 314.18,-22.78"/>
<polygon fill="midnightblue" stroke="midnightblue" points="315.65,-25.98 324.04,-19.52 313.45,-19.34 315.65,-25.98"/>
</g>
<!-- Node4 -->
<g id="node4" class="node">
<title>Node4</title>
<g id="a_node4"><a xlink:title=" ">
<polygon fill="white" stroke="#bfbfbf" points="165.25,-0.5 165.25,-19.5 206.25,-19.5 206.25,-0.5 165.25,-0.5"/>
<text text-anchor="middle" x="185.75" y="-7.5" font-family="Helvetica,sans-Serif" font-size="10.00">string</text>
</a>
</g>
</g>
<!-- Node2&#45;&gt;Node4 -->
<g id="edge3" class="edge">
<title>Node2&#45;&gt;Node4</title>
<path fill="none" stroke="midnightblue" d="M186.58,-56.08C186.45,-49.01 186.26,-38.86 186.1,-29.99"/>
<polygon fill="midnightblue" stroke="midnightblue" points="189.6,-29.68 185.91,-19.75 182.6,-29.81 189.6,-29.68"/>
</g>
<!-- Node6 -->
<g id="node6" class="node">
<title>Node6</title>
<g id="a_node6"><a xlink:href="_boolean_8h.html" target="_top" xlink:title="The Boolean specification and body provides a value object type for boolean values.">
<polygon fill="white" stroke="black" points="216.75,-224.5 216.75,-243.5 276.75,-243.5 276.75,-224.5 216.75,-224.5"/>
<text text-anchor="middle" x="246.75" y="-231.5" font-family="Helvetica,sans-Serif" font-size="10.00">Boolean.h</text>
</a>
</g>
</g>
<!-- Node5&#45;&gt;Node6 -->
<g id="edge5" class="edge">
<title>Node5&#45;&gt;Node6</title>
<path fill="none" stroke="midnightblue" d="M454.11,-284.11C416.35,-275.17 335.53,-256.03 286.68,-244.46"/>
<polygon fill="midnightblue" stroke="midnightblue" points="287.31,-241.01 276.77,-242.11 285.7,-247.82 287.31,-241.01"/>
</g>
<!-- Node9 -->
<g id="node9" class="node">
<title>Node9</title>
<g id="a_node9"><a xlink:href="_byte_list_8h.html" target="_top" xlink:title="The ByteList specification defines lists of byte values with zero&#45;based arbitrary indexed access to p...">
<polygon fill="white" stroke="black" points="442.25,-224.5 442.25,-243.5 503.25,-243.5 503.25,-224.5 442.25,-224.5"/>
<text text-anchor="middle" x="472.75" y="-231.5" font-family="Helvetica,sans-Serif" font-size="10.00">ByteList.h</text>
</a>
</g>
</g>
<!-- Node5&#45;&gt;Node9 -->
<g id="edge9" class="edge">
<title>Node5&#45;&gt;Node9</title>
<path fill="none" stroke="midnightblue" d="M474.42,-280.08C474.16,-273.01 473.78,-262.86 473.45,-253.99"/>
<polygon fill="midnightblue" stroke="midnightblue" points="476.94,-253.61 473.07,-243.75 469.95,-253.87 476.94,-253.61"/>
</g>
<!-- Node17 -->
<g id="node17" class="node">
<title>Node17</title>
<g id="a_node17"><a xlink:href="_object_8h.html" target="_top" xlink:title="The Object specification and body provides the root object type.">
<polygon fill="white" stroke="black" points="521.25,-224.5 521.25,-243.5 574.25,-243.5 574.25,-224.5 521.25,-224.5"/>
<text text-anchor="middle" x="547.75" y="-231.5" font-family="Helvetica,sans-Serif" font-size="10.00">Object.h</text>
</a>
</g>
</g>
<!-- Node5&#45;&gt;Node17 -->
<g id="edge20" class="edge">
<title>Node5&#45;&gt;Node17</title>
<path fill="none" stroke="midnightblue" d="M486.48,-280.32C497.59,-272.11 514.49,-259.6 527.73,-249.81"/>
<polygon fill="midnightblue" stroke="midnightblue" points="529.85,-252.59 535.81,-243.83 525.69,-246.97 529.85,-252.59"/>
</g>
<!-- Node7 -->
<g id="node7" class="node">
<title>Node7</title>
<g id="a_node7"><a xlink:href="_my_string_8h.html" target="_top" xlink:title="The String specification defines a standard string type.">
<polygon fill="white" stroke="black" points="71.75,-56.5 71.75,-75.5 135.75,-75.5 135.75,-56.5 71.75,-56.5"/>
<text text-anchor="middle" x="103.75" y="-63.5" font-family="Helvetica,sans-Serif" font-size="10.00">MyString.h</text>
</a>
</g>
</g>
<!-- Node6&#45;&gt;Node7 -->
<g id="edge6" class="edge">
<title>Node6&#45;&gt;Node7</title>
<path fill="none" stroke="midnightblue" d="M239.06,-224.08C216.06,-197.38 147.57,-117.87 117.81,-83.32"/>
<polygon fill="midnightblue" stroke="midnightblue" points="120.31,-80.86 111.13,-75.57 115,-85.43 120.31,-80.86"/>
</g>
<!-- Node7&#45;&gt;Node4 -->
<g id="edge7" class="edge">
<title>Node7&#45;&gt;Node4</title>
<path fill="none" stroke="midnightblue" d="M116.92,-56.32C129.6,-47.98 148.98,-35.21 163.95,-25.35"/>
<polygon fill="midnightblue" stroke="midnightblue" points="166.18,-28.08 172.61,-19.65 162.33,-22.23 166.18,-28.08"/>
</g>
<!-- Node8 -->
<g id="node8" class="node">
<title>Node8</title>
<g id="a_node8"><a xlink:href="_global_macros_8h.html" target="_top" xlink:title="The GlobalMacros specification defines simple macros (e.g. for parameter modes).">
<polygon fill="white" stroke="black" points="61.25,-0.5 61.25,-19.5 146.25,-19.5 146.25,-0.5 61.25,-0.5"/>
<text text-anchor="middle" x="103.75" y="-7.5" font-family="Helvetica,sans-Serif" font-size="10.00">GlobalMacros.h</text>
</a>
</g>
</g>
<!-- Node7&#45;&gt;Node8 -->
<g id="edge8" class="edge">
<title>Node7&#45;&gt;Node8</title>
<path fill="none" stroke="midnightblue" d="M103.75,-56.08C103.75,-49.01 103.75,-38.86 103.75,-29.99"/>
<polygon fill="midnightblue" stroke="midnightblue" points="107.25,-29.75 103.75,-19.75 100.25,-29.75 107.25,-29.75"/>
</g>
<!-- Node10 -->
<g id="node10" class="node">
<title>Node10</title>
<g id="a_node10"><a xlink:href="_byte_8h.html" target="_top" xlink:title="The Byte specification and body provides a value object type for byte values.">
<polygon fill="white" stroke="black" points="368.25,-168.5 368.25,-187.5 413.25,-187.5 413.25,-168.5 368.25,-168.5"/>
<text text-anchor="middle" x="390.75" y="-175.5" font-family="Helvetica,sans-Serif" font-size="10.00">Byte.h</text>
</a>
</g>
</g>
<!-- Node9&#45;&gt;Node10 -->
<g id="edge10" class="edge">
<title>Node9&#45;&gt;Node10</title>
<path fill="none" stroke="midnightblue" d="M459.57,-224.32C446.9,-215.98 427.52,-203.21 412.54,-193.35"/>
<polygon fill="midnightblue" stroke="midnightblue" points="414.17,-190.23 403.89,-187.65 410.32,-196.08 414.17,-190.23"/>
</g>
<!-- Node14 -->
<g id="node14" class="node">
<title>Node14</title>
<g id="a_node14"><a xlink:href="_string_list_8h.html" target="_top" xlink:title="The StringList specification defines lists of string values with zero&#45;based arbitrary indexed access ...">
<polygon fill="white" stroke="black" points="702.75,-168.5 702.75,-187.5 768.75,-187.5 768.75,-168.5 702.75,-168.5"/>
<text text-anchor="middle" x="735.75" y="-175.5" font-family="Helvetica,sans-Serif" font-size="10.00">StringList.h</text>
</a>
</g>
</g>
<!-- Node9&#45;&gt;Node14 -->
<g id="edge17" class="edge">
<title>Node9&#45;&gt;Node14</title>
<path fill="none" stroke="midnightblue" d="M503.31,-226.05C506.49,-225.35 509.69,-224.65 512.75,-224 575.1,-210.7 647.49,-196.28 692.46,-187.44"/>
<polygon fill="midnightblue" stroke="midnightblue" points="693.31,-190.84 702.45,-185.48 691.97,-183.97 693.31,-190.84"/>
</g>
<!-- Node11 -->
<g id="node11" class="node">
<title>Node11</title>
<g id="a_node11"><a xlink:title=" ">
<polygon fill="white" stroke="#bfbfbf" points="347.75,-56.5 347.75,-75.5 391.75,-75.5 391.75,-56.5 347.75,-56.5"/>
<text text-anchor="middle" x="369.75" y="-63.5" font-family="Helvetica,sans-Serif" font-size="10.00">cmath</text>
</a>
</g>
</g>
<!-- Node10&#45;&gt;Node11 -->
<g id="edge11" class="edge">
<title>Node10&#45;&gt;Node11</title>
<path fill="none" stroke="midnightblue" d="M389.1,-168.37C385.71,-150.62 377.89,-109.67 373.3,-85.6"/>
<polygon fill="midnightblue" stroke="midnightblue" points="376.7,-84.76 371.39,-75.59 369.83,-86.07 376.7,-84.76"/>
</g>
<!-- Node12 -->
<g id="node12" class="node">
<title>Node12</title>
<g id="a_node12"><a xlink:href="_natural_8h.html" target="_top" xlink:title="The Natural specification and body provides a value object type for naturals (positive integers with ...">
<polygon fill="white" stroke="black" points="169.75,-112.5 169.75,-131.5 225.75,-131.5 225.75,-112.5 169.75,-112.5"/>
<text text-anchor="middle" x="197.75" y="-119.5" font-family="Helvetica,sans-Serif" font-size="10.00">Natural.h</text>
</a>
</g>
</g>
<!-- Node10&#45;&gt;Node12 -->
<g id="edge12" class="edge">
<title>Node10&#45;&gt;Node12</title>
<path fill="none" stroke="midnightblue" d="M368.23,-170.7C335.76,-161.61 275.35,-144.71 235.86,-133.66"/>
<polygon fill="midnightblue" stroke="midnightblue" points="236.62,-130.24 226.05,-130.92 234.74,-136.98 236.62,-130.24"/>
</g>
<!-- Node12&#45;&gt;Node2 -->
<g id="edge14" class="edge">
<title>Node12&#45;&gt;Node2</title>
<path fill="none" stroke="midnightblue" d="M195.93,-112.08C194.47,-104.93 192.38,-94.64 190.56,-85.69"/>
<polygon fill="midnightblue" stroke="midnightblue" points="193.96,-84.85 188.53,-75.75 187.1,-86.25 193.96,-84.85"/>
</g>
<!-- Node12&#45;&gt;Node7 -->
<g id="edge16" class="edge">
<title>Node12&#45;&gt;Node7</title>
<path fill="none" stroke="midnightblue" d="M182.65,-112.32C167.85,-103.82 145.05,-90.73 127.77,-80.8"/>
<polygon fill="midnightblue" stroke="midnightblue" points="129.23,-77.6 118.81,-75.65 125.74,-83.67 129.23,-77.6"/>
</g>
<!-- Node12&#45;&gt;Node11 -->
<g id="edge13" class="edge">
<title>Node12&#45;&gt;Node11</title>
<path fill="none" stroke="midnightblue" d="M225,-112.44C255.6,-102.84 305.21,-87.26 337.66,-77.07"/>
<polygon fill="midnightblue" stroke="midnightblue" points="339.05,-80.31 347.54,-73.97 336.96,-73.63 339.05,-80.31"/>
</g>
<!-- Node13 -->
<g id="node13" class="node">
<title>Node13</title>
<g id="a_node13"><a xlink:title=" ">
<polygon fill="white" stroke="#bfbfbf" points="237.75,-56.5 237.75,-75.5 329.75,-75.5 329.75,-56.5 237.75,-56.5"/>
<text text-anchor="middle" x="283.75" y="-63.5" font-family="Helvetica,sans-Serif" font-size="10.00">GenericNumber.h</text>
</a>
</g>
</g>
<!-- Node12&#45;&gt;Node13 -->
<g id="edge15" class="edge">
<title>Node12&#45;&gt;Node13</title>
<path fill="none" stroke="midnightblue" d="M211.57,-112.32C224.98,-103.9 245.57,-90.97 261.33,-81.07"/>
<polygon fill="midnightblue" stroke="midnightblue" points="263.36,-83.94 269.97,-75.65 259.64,-78.01 263.36,-83.94"/>
</g>
<!-- Node15 -->
<g id="node15" class="node">
<title>Node15</title>
<g id="a_node15"><a xlink:title=" ">
<polygon fill="white" stroke="#bfbfbf" points="645.25,-112.5 645.25,-131.5 718.25,-131.5 718.25,-112.5 645.25,-112.5"/>
<text text-anchor="middle" x="681.75" y="-119.5" font-family="Helvetica,sans-Serif" font-size="10.00">initializer_list</text>
</a>
</g>
</g>
<!-- Node14&#45;&gt;Node15 -->
<g id="edge18" class="edge">
<title>Node14&#45;&gt;Node15</title>
<path fill="none" stroke="midnightblue" d="M726.83,-168.08C718.97,-160.22 707.32,-148.57 697.83,-139.08"/>
<polygon fill="midnightblue" stroke="midnightblue" points="700.05,-136.35 690.5,-131.75 695.1,-141.3 700.05,-136.35"/>
</g>
<!-- Node16 -->
<g id="node16" class="node">
<title>Node16</title>
<g id="a_node16"><a xlink:title=" ">
<polygon fill="white" stroke="#bfbfbf" points="751.75,-112.5 751.75,-131.5 825.75,-131.5 825.75,-112.5 751.75,-112.5"/>
<text text-anchor="middle" x="788.75" y="-119.5" font-family="Helvetica,sans-Serif" font-size="10.00">GenericList.h</text>
</a>
</g>
</g>
<!-- Node14&#45;&gt;Node16 -->
<g id="edge19" class="edge">
<title>Node14&#45;&gt;Node16</title>
<path fill="none" stroke="midnightblue" d="M744.5,-168.08C752.22,-160.22 763.65,-148.57 772.97,-139.08"/>
<polygon fill="midnightblue" stroke="midnightblue" points="775.65,-141.34 780.16,-131.75 770.66,-136.44 775.65,-141.34"/>
</g>
<!-- Node19 -->
<g id="node19" class="node">
<title>Node19</title>
<g id="a_node19"><a xlink:title=" ">
<polygon fill="white" stroke="#bfbfbf" points="131.25,-336.5 131.25,-355.5 180.25,-355.5 180.25,-336.5 131.25,-336.5"/>
<text text-anchor="middle" x="155.75" y="-343.5" font-family="Helvetica,sans-Serif" font-size="10.00">cstdarg</text>
</a>
</g>
</g>
<!-- Node18&#45;&gt;Node19 -->
<g id="edge22" class="edge">
<title>Node18&#45;&gt;Node19</title>
<path fill="none" stroke="midnightblue" d="M200,-392.08C192.28,-384.22 180.84,-372.57 171.53,-363.08"/>
<polygon fill="midnightblue" stroke="midnightblue" points="173.84,-360.44 164.34,-355.75 168.84,-365.34 173.84,-360.44"/>
</g>
<!-- Node20 -->
<g id="node20" class="node">
<title>Node20</title>
<g id="a_node20"><a xlink:href="_logging_support_8h.html" target="_top" xlink:title="The LoggingSupport specification defines a class for simple entry/exit logging to a file or via an ar...">
<polygon fill="white" stroke="black" points="137.75,-280.5 137.75,-299.5 229.75,-299.5 229.75,-280.5 137.75,-280.5"/>
<text text-anchor="middle" x="183.75" y="-287.5" font-family="Helvetica,sans-Serif" font-size="10.00">LoggingSupport.h</text>
</a>
</g>
</g>
<!-- Node18&#45;&gt;Node20 -->
<g id="edge23" class="edge">
<title>Node18&#45;&gt;Node20</title>
<path fill="none" stroke="midnightblue" d="M206.79,-392.37C202.75,-374.62 193.45,-333.67 187.98,-309.6"/>
<polygon fill="midnightblue" stroke="midnightblue" points="191.33,-308.57 185.7,-299.59 184.5,-310.12 191.33,-308.57"/>
</g>
<!-- Node21 -->
<g id="node21" class="node">
<title>Node21</title>
<g id="a_node21"><a xlink:href="_string_util_8h.html" target="_top" xlink:title="The StringUtil specification defines several string routines not included in the standard C++ library...">
<polygon fill="white" stroke="black" points="328.25,-336.5 328.25,-355.5 393.25,-355.5 393.25,-336.5 328.25,-336.5"/>
<text text-anchor="middle" x="360.75" y="-343.5" font-family="Helvetica,sans-Serif" font-size="10.00">StringUtil.h</text>
</a>
</g>
</g>
<!-- Node18&#45;&gt;Node21 -->
<g id="edge26" class="edge">
<title>Node18&#45;&gt;Node21</title>
<path fill="none" stroke="midnightblue" d="M232.83,-392.44C258.29,-383.4 298.64,-369.06 327.21,-358.92"/>
<polygon fill="midnightblue" stroke="midnightblue" points="328.52,-362.16 336.78,-355.52 326.18,-355.57 328.52,-362.16"/>
</g>
<!-- Node20&#45;&gt;Node6 -->
<g id="edge24" class="edge">
<title>Node20&#45;&gt;Node6</title>
<path fill="none" stroke="midnightblue" d="M193.87,-280.32C203.27,-272.26 217.49,-260.08 228.82,-250.37"/>
<polygon fill="midnightblue" stroke="midnightblue" points="231.13,-253 236.44,-243.83 226.57,-247.68 231.13,-253"/>
</g>
<!-- Node20&#45;&gt;Node12 -->
<g id="edge25" class="edge">
<title>Node20&#45;&gt;Node12</title>
<path fill="none" stroke="midnightblue" d="M181.31,-280.34C176.04,-260.28 164.84,-209.16 174.75,-168 177.06,-158.42 181.77,-148.58 186.33,-140.56"/>
<polygon fill="midnightblue" stroke="midnightblue" points="189.44,-142.17 191.64,-131.81 183.46,-138.54 189.44,-142.17"/>
</g>
<!-- Node21&#45;&gt;Node6 -->
<g id="edge27" class="edge">
<title>Node21&#45;&gt;Node6</title>
<path fill="none" stroke="midnightblue" d="M351.8,-336.37C332.66,-317.89 287.47,-274.29 263.06,-250.74"/>
<polygon fill="midnightblue" stroke="midnightblue" points="265.28,-248.02 255.65,-243.59 260.42,-253.05 265.28,-248.02"/>
</g>
<!-- Node21&#45;&gt;Node14 -->
<g id="edge38" class="edge">
<title>Node21&#45;&gt;Node14</title>
<path fill="none" stroke="midnightblue" d="M393.58,-343.68C439.7,-340.73 525.36,-331.13 590.75,-300 645.78,-273.8 697.34,-221.86 721.46,-195.36"/>
<polygon fill="midnightblue" stroke="midnightblue" points="724.24,-197.51 728.29,-187.72 719.02,-192.84 724.24,-197.51"/>
</g>
<!-- Node22 -->
<g id="node22" class="node">
<title>Node22</title>
<g id="a_node22"><a xlink:href="_character_8h.html" target="_top" xlink:title="The Character specification and body provides a value object type for character values.">
<polygon fill="white" stroke="black" points="357.25,-224.5 357.25,-243.5 424.25,-243.5 424.25,-224.5 357.25,-224.5"/>
<text text-anchor="middle" x="390.75" y="-231.5" font-family="Helvetica,sans-Serif" font-size="10.00">Character.h</text>
</a>
</g>
</g>
<!-- Node21&#45;&gt;Node22 -->
<g id="edge28" class="edge">
<title>Node21&#45;&gt;Node22</title>
<path fill="none" stroke="midnightblue" d="M374.53,-336.19C385.57,-328.24 400.25,-315.45 406.75,-300 413.21,-284.63 407.41,-266.08 401.06,-252.74"/>
<polygon fill="midnightblue" stroke="midnightblue" points="404.05,-250.9 396.29,-243.69 397.85,-254.16 404.05,-250.9"/>
</g>
<!-- Node23 -->
<g id="node23" class="node">
<title>Node23</title>
<g id="a_node23"><a xlink:href="_percentage_8h.html" target="_top" xlink:title="The Percentage specification and body provides a simple percentage type.">
<polygon fill="white" stroke="black" points="323.75,-280.5 323.75,-299.5 397.75,-299.5 397.75,-280.5 323.75,-280.5"/>
<text text-anchor="middle" x="360.75" y="-287.5" font-family="Helvetica,sans-Serif" font-size="10.00">Percentage.h</text>
</a>
</g>
</g>
<!-- Node21&#45;&gt;Node23 -->
<g id="edge31" class="edge">
<title>Node21&#45;&gt;Node23</title>
<path fill="none" stroke="midnightblue" d="M360.75,-336.08C360.75,-329.01 360.75,-318.86 360.75,-309.99"/>
<polygon fill="midnightblue" stroke="midnightblue" points="364.25,-309.75 360.75,-299.75 357.25,-309.75 364.25,-309.75"/>
</g>
<!-- Node22&#45;&gt;Node10 -->
<g id="edge30" class="edge">
<title>Node22&#45;&gt;Node10</title>
<path fill="none" stroke="midnightblue" d="M390.75,-224.08C390.75,-217.01 390.75,-206.86 390.75,-197.99"/>
<polygon fill="midnightblue" stroke="midnightblue" points="394.25,-197.75 390.75,-187.75 387.25,-197.75 394.25,-197.75"/>
</g>
<!-- Node22&#45;&gt;Node11 -->
<g id="edge29" class="edge">
<title>Node22&#45;&gt;Node11</title>
<path fill="none" stroke="midnightblue" d="M382.27,-224.23C374.69,-215.75 364.14,-202.13 359.75,-188 348.83,-152.92 357.42,-109.51 364.01,-85.38"/>
<polygon fill="midnightblue" stroke="midnightblue" points="367.38,-86.33 366.82,-75.75 360.66,-84.37 367.38,-86.33"/>
</g>
<!-- Node24 -->
<g id="node24" class="node">
<title>Node24</title>
<g id="a_node24"><a xlink:href="_real_8h.html" target="_top" xlink:title="The Real specification defines a value object type for real values.">
<polygon fill="white" stroke="black" points="294.75,-224.5 294.75,-243.5 338.75,-243.5 338.75,-224.5 294.75,-224.5"/>
<text text-anchor="middle" x="316.75" y="-231.5" font-family="Helvetica,sans-Serif" font-size="10.00">Real.h</text>
</a>
</g>
</g>
<!-- Node23&#45;&gt;Node24 -->
<g id="edge32" class="edge">
<title>Node23&#45;&gt;Node24</title>
<path fill="none" stroke="midnightblue" d="M353.48,-280.08C347.2,-272.38 337.96,-261.03 330.32,-251.65"/>
<polygon fill="midnightblue" stroke="midnightblue" points="332.91,-249.29 323.88,-243.75 327.48,-253.71 332.91,-249.29"/>
</g>
<!-- Node24&#45;&gt;Node11 -->
<g id="edge33" class="edge">
<title>Node24&#45;&gt;Node11</title>
<path fill="none" stroke="midnightblue" d="M318.78,-224.38C323.56,-204.38 336.26,-153.4 350.75,-112 353.94,-102.88 358.05,-92.97 361.64,-84.77"/>
<polygon fill="midnightblue" stroke="midnightblue" points="364.9,-86.06 365.78,-75.5 358.5,-83.2 364.9,-86.06"/>
</g>
<!-- Node25 -->
<g id="node25" class="node">
<title>Node25</title>
<g id="a_node25"><a xlink:href="_integer_8h.html" target="_top" xlink:title="The Integer specification and body provides a value object type for ints.">
<polygon fill="white" stroke="black" points="431.75,-168.5 431.75,-187.5 485.75,-187.5 485.75,-168.5 431.75,-168.5"/>
<text text-anchor="middle" x="458.75" y="-175.5" font-family="Helvetica,sans-Serif" font-size="10.00">Integer.h</text>
</a>
</g>
</g>
<!-- Node24&#45;&gt;Node25 -->
<g id="edge34" class="edge">
<title>Node24&#45;&gt;Node25</title>
<path fill="none" stroke="midnightblue" d="M338.94,-224.56C362.45,-215.62 399.82,-201.41 426.57,-191.24"/>
<polygon fill="midnightblue" stroke="midnightblue" points="428.15,-194.38 436.25,-187.56 425.66,-187.84 428.15,-194.38"/>
</g>
<!-- Node25&#45;&gt;Node3 -->
<g id="edge36" class="edge">
<title>Node25&#45;&gt;Node3</title>
<path fill="none" stroke="midnightblue" d="M455.99,-168.43C449.05,-147.69 429.31,-93.69 400.75,-56 392.06,-44.53 380.08,-33.78 369.92,-25.67"/>
<polygon fill="midnightblue" stroke="midnightblue" points="371.98,-22.84 361.92,-19.51 367.71,-28.39 371.98,-22.84"/>
</g>
<!-- Node25&#45;&gt;Node11 -->
<g id="edge35" class="edge">
<title>Node25&#45;&gt;Node11</title>
<path fill="none" stroke="midnightblue" d="M451.76,-168.37C437.01,-150.14 402.46,-107.43 383.24,-83.68"/>
<polygon fill="midnightblue" stroke="midnightblue" points="385.71,-81.16 376.7,-75.59 380.27,-85.57 385.71,-81.16"/>
</g>
<!-- Node25&#45;&gt;Node12 -->
<g id="edge37" class="edge">
<title>Node25&#45;&gt;Node12</title>
<path fill="none" stroke="midnightblue" d="M431.65,-170.08C428.65,-169.36 425.64,-168.65 422.75,-168 357.31,-153.28 280.61,-138.46 235.78,-130.03"/>
<polygon fill="midnightblue" stroke="midnightblue" points="236.37,-126.58 225.9,-128.18 235.09,-133.47 236.37,-126.58"/>
</g>
<!-- Node26&#45;&gt;Node12 -->
<g id="edge40" class="edge">
<title>Node26&#45;&gt;Node12</title>
<path fill="none" stroke="midnightblue" d="M283.48,-392.33C277.9,-371.8 262.18,-319.03 238.75,-280 227.88,-261.9 215.91,-263.48 207.75,-244 193.55,-210.1 194.05,-166.24 195.82,-141.72"/>
<polygon fill="midnightblue" stroke="midnightblue" points="199.32,-141.9 196.7,-131.64 192.34,-141.3 199.32,-141.9"/>
</g>
<!-- Node27 -->
<g id="node27" class="node">
<title>Node27</title>
<g id="a_node27"><a xlink:href="_midi_event_list_8h.html" target="_top" xlink:title="The MidiEventList specification defines lists of MIDI events with zero&#45;based arbitrary indexed access...">
<polygon fill="white" stroke="black" points="572.25,-336.5 572.25,-355.5 655.25,-355.5 655.25,-336.5 572.25,-336.5"/>
<text text-anchor="middle" x="613.75" y="-343.5" font-family="Helvetica,sans-Serif" font-size="10.00">MidiEventList.h</text>
</a>
</g>
</g>
<!-- Node26&#45;&gt;Node27 -->
<g id="edge41" class="edge">
<title>Node26&#45;&gt;Node27</title>
<path fill="none" stroke="midnightblue" d="M315.43,-396.11C371.23,-386.93 492.38,-366.98 561.91,-355.53"/>
<polygon fill="midnightblue" stroke="midnightblue" points="562.89,-358.92 572.19,-353.84 561.76,-352.01 562.89,-358.92"/>
</g>
<!-- Node27&#45;&gt;Node15 -->
<g id="edge42" class="edge">
<title>Node27&#45;&gt;Node15</title>
<path fill="none" stroke="midnightblue" d="M616.41,-336.3C626.44,-303.56 662.03,-187.38 676.03,-141.67"/>
<polygon fill="midnightblue" stroke="midnightblue" points="679.45,-142.47 679.03,-131.88 672.75,-140.42 679.45,-142.47"/>
</g>
<!-- Node27&#45;&gt;Node16 -->
<g id="edge43" class="edge">
<title>Node27&#45;&gt;Node16</title>
<path fill="none" stroke="midnightblue" d="M627.58,-336.38C659.91,-315.43 740.46,-258.35 777.75,-188 785.37,-173.62 787.92,-155.16 788.68,-141.59"/>
<polygon fill="midnightblue" stroke="midnightblue" points="792.18,-141.64 788.97,-131.54 785.18,-141.44 792.18,-141.64"/>
</g>
<!-- Node28 -->
<g id="node28" class="node">
<title>Node28</title>
<g id="a_node28"><a xlink:href="_midi_event_8h.html" target="_top" xlink:title="The MidiEvent specification defines a single MIDI event and the MIDI event kind enumeration.">
<polygon fill="white" stroke="black" points="514.25,-280.5 514.25,-299.5 581.25,-299.5 581.25,-280.5 514.25,-280.5"/>
<text text-anchor="middle" x="547.75" y="-287.5" font-family="Helvetica,sans-Serif" font-size="10.00">MidiEvent.h</text>
</a>
</g>
</g>
<!-- Node27&#45;&gt;Node28 -->
<g id="edge44" class="edge">
<title>Node27&#45;&gt;Node28</title>
<path fill="none" stroke="midnightblue" d="M603.14,-336.32C593.29,-328.26 578.4,-316.08 566.53,-306.37"/>
<polygon fill="midnightblue" stroke="midnightblue" points="568.5,-303.46 558.55,-299.83 564.07,-308.88 568.5,-303.46"/>
</g>
<!-- Node28&#45;&gt;Node6 -->
<g id="edge45" class="edge">
<title>Node28&#45;&gt;Node6</title>
<path fill="none" stroke="midnightblue" d="M513.97,-281.79C510.86,-281.16 507.75,-280.56 504.75,-280 410.91,-262.48 384.22,-263.04 286.9,-244.12"/>
<polygon fill="midnightblue" stroke="midnightblue" points="287.43,-240.66 276.94,-242.17 286.08,-247.53 287.43,-240.66"/>
</g>
<!-- Node28&#45;&gt;Node9 -->
<g id="edge47" class="edge">
<title>Node28&#45;&gt;Node9</title>
<path fill="none" stroke="midnightblue" d="M535.7,-280.32C524.29,-272.11 506.92,-259.6 493.31,-249.81"/>
<polygon fill="midnightblue" stroke="midnightblue" points="495.18,-246.84 485.02,-243.83 491.09,-252.52 495.18,-246.84"/>
</g>
<!-- Node28&#45;&gt;Node17 -->
<g id="edge48" class="edge">
<title>Node28&#45;&gt;Node17</title>
<path fill="none" stroke="midnightblue" d="M547.75,-280.08C547.75,-273.01 547.75,-262.86 547.75,-253.99"/>
<polygon fill="midnightblue" stroke="midnightblue" points="551.25,-253.75 547.75,-243.75 544.25,-253.75 551.25,-253.75"/>
</g>
<!-- Node28&#45;&gt;Node25 -->
<g id="edge46" class="edge">
<title>Node28&#45;&gt;Node25</title>
<path fill="none" stroke="midnightblue" d="M558.91,-280.24C573.88,-267.41 597.1,-243 583.75,-224 564.08,-196.02 525.26,-185.35 496.07,-181.33"/>
<polygon fill="midnightblue" stroke="midnightblue" points="496.14,-177.82 485.8,-180.13 495.33,-184.77 496.14,-177.82"/>
</g>
<!-- Node29&#45;&gt;Node14 -->
<g id="edge50" class="edge">
<title>Node29&#45;&gt;Node14</title>
<path fill="none" stroke="midnightblue" d="M649.44,-392.39C653.3,-383.35 659.52,-368.7 664.75,-356 688.53,-298.23 715.82,-229.47 728.53,-197.3"/>
<polygon fill="midnightblue" stroke="midnightblue" points="731.84,-198.45 732.26,-187.86 725.33,-195.88 731.84,-198.45"/>
</g>
<!-- Node30&#45;&gt;Node6 -->
<g id="edge52" class="edge">
<title>Node30&#45;&gt;Node6</title>
<path fill="none" stroke="midnightblue" d="M96.95,-280.44C127.16,-271.28 175.26,-256.69 208.78,-246.52"/>
<polygon fill="midnightblue" stroke="midnightblue" points="210.12,-249.77 218.68,-243.52 208.09,-243.07 210.12,-249.77"/>
</g>
<!-- Node30&#45;&gt;Node12 -->
<g id="edge53" class="edge">
<title>Node30&#45;&gt;Node12</title>
<path fill="none" stroke="midnightblue" d="M75.68,-280.08C96.34,-253.49 157.7,-174.54 184.72,-139.76"/>
<polygon fill="midnightblue" stroke="midnightblue" points="187.72,-141.61 191.09,-131.57 182.19,-137.32 187.72,-141.61"/>
</g>
</g>
</svg>
        <g id="navigator" transform="translate(0 0)" fill="#404254">
                <rect fill="#f2f5e9" fill-opacity="0.5" stroke="#606060" stroke-width=".5" x="0" y="0" width="60" height="60"/>
                <use id="zoomplus" xlink:href="#zoomPlus" x="17" y="9" onmousedown="handleZoom(evt,'in')"/>
                <use id="zoomminus" xlink:href="#zoomMin" x="42" y="9" onmousedown="handleZoom(evt,'out')"/>
                <use id="reset" xlink:href="#resetDef" x="30" y="36" onmousedown="handleReset()"/>
                <g id="arrowUp" xlink:href="#dirArrow" transform="translate(30 24)" onmousedown="handlePan(0,-1)">
                  <use xlink:href="#rim" fill="#404040">
                        <set attributeName="fill" to="#808080" begin="arrowUp.mouseover" end="arrowUp.mouseout"/>
                  </use>
                  <path fill="none" stroke="white" stroke-width="1.5" d="M0,-3.0v7 M-2.5,-0.5L0,-3.0L2.5,-0.5"/>
                </g>
                <g id="arrowRight" xlink:href="#dirArrow" transform="rotate(90) translate(36 -43)" onmousedown="handlePan(1,0)">
                  <use xlink:href="#rim" fill="#404040">
                        <set attributeName="fill" to="#808080" begin="arrowRight.mouseover" end="arrowRight.mouseout"/>
                  </use>
                  <path fill="none" stroke="white" stroke-width="1.5" d="M0,-3.0v7 M-2.5,-0.5L0,-3.0L2.5,-0.5"/>
                </g>
                <g id="arrowDown" xlink:href="#dirArrow" transform="rotate(180) translate(-30 -48)" onmousedown="handlePan(0,1)">
                  <use xlink:href="#rim" fill="#404040">
                        <set attributeName="fill" to="#808080" begin="arrowDown.mouseover" end="arrowDown.mouseout"/>
                  </use>
                  <path fill="none" stroke="white" stroke-width="1.5" d="M0,-3.0v7 M-2.5,-0.5L0,-3.0L2.5,-0.5"/>
                </g>
                <g id="arrowLeft" xlink:href="#dirArrow" transform="rotate(270) translate(-36 17)" onmousedown="handlePan(-1,0)">
                  <use xlink:href="#rim" fill="#404040">
                        <set attributeName="fill" to="#808080" begin="arrowLeft.mouseover" end="arrowLeft.mouseout"/>
                  </use>
                  <path fill="none" stroke="white" stroke-width="1.5" d="M0,-3.0v7 M-2.5,-0.5L0,-3.0L2.5,-0.5"/>
                </g>
        </g>
        <svg viewBox="0 0 15 15" width="100%" height="30px" preserveAspectRatio="xMaxYMin meet">
         <g id="arrow_out" transform="scale(0.3 0.3)">
          <a xlink:href="_midi_file_8cpp__incl_org.svg" target="_base">
           <rect id="button" ry="5" rx="5" y="6" x="6" height="38" width="38"
                fill="#f2f5e9" fill-opacity="0.5" stroke="#606060" stroke-width="1.0"/>
           <path id="arrow"
             d="M 11.500037,31.436501 C 11.940474,20.09759 22.043105,11.32322 32.158766,21.979434 L 37.068811,17.246167 C 37.068811,17.246167 37.088388,32 37.088388,32 L 22.160133,31.978069 C 22.160133,31.978069 26.997745,27.140456 26.997745,27.140456 C 18.528582,18.264221 13.291696,25.230495 11.500037,31.436501 z"
             style="fill:#404040;"/>
          </a>
         </g>
        </svg>
</svg>
