<?xml version="1.0" encoding="UTF-8" standalone="no"?>
<!DOCTYPE svg PUBLIC "-//W3C//DTD SVG 1.1//EN"
 "http://www.w3.org/Graphics/SVG/1.1/DTD/svg11.dtd">
<!-- Generated by graphviz version 2.47.1 (20210417.1919)
 -->
<!-- Title: MidiFile.h Pages: 1 -->
<svg width="638pt" height="412pt"
 viewBox="0.00 0.00 638.00 412.00" xmlns="http://www.w3.org/2000/svg" xmlns:xlink="http://www.w3.org/1999/xlink">
<g id="graph0" class="graph" transform="scale(1 1) rotate(0) translate(4 408)">
<title>MidiFile.h</title>
<!-- Node1 -->
<g id="Node000001" class="node">
<title>Node1</title>
<g id="a_Node000001"><a xlink:title="The MidiFile specification defines the services of a MIDI file; currently only file reading is suppor...">
<polygon fill="#999999" stroke="#666666" points="333,-404 274,-404 274,-385 333,-385 333,-404"/>
<text text-anchor="middle" x="303.5" y="-392" font-family="Helvetica,sans-Serif" font-size="10.00">MidiFile.h</text>
</a>
</g>
</g>
<!-- Node2 -->
<g id="Node000002" class="node">
<title>Node2</title>
<g id="a_Node000002"><a xlink:href="_natural_8h.html" target="_top" xlink:title="The Natural specification and body provides a value object type for naturals (positive integers with ...">
<polygon fill="white" stroke="#666666" points="426.5,-129 370.5,-129 370.5,-110 426.5,-110 426.5,-129"/>
<text text-anchor="middle" x="398.5" y="-117" font-family="Helvetica,sans-Serif" font-size="10.00">Natural.h</text>
</a>
</g>
</g>
<!-- Node1&#45;&gt;Node2 -->
<g id="edge1_Node000001_Node000002" class="edge">
<title>Node1&#45;&gt;Node2</title>
<g id="a_edge1_Node000001_Node000002"><a xlink:title=" ">
<path fill="none" stroke="#63b8ff" d="M333.03,-390.23C386.19,-382.53 492.5,-358.06 492.5,-285.5 492.5,-285.5 492.5,-285.5 492.5,-228.5 492.5,-186.29 451.14,-152.56 423.29,-134.63"/>
<polygon fill="#63b8ff" stroke="#63b8ff" points="424.79,-131.44 414.45,-129.17 421.12,-137.4 424.79,-131.44"/>
</a>
</g>
</g>
<!-- Node10 -->
<g id="Node000010" class="node">
<title>Node10</title>
<g id="a_Node000010"><a xlink:href="_midi_event_list_8h.html" target="_top" xlink:title="The MidiEventList specification defines lists of MIDI events with zero&#45;based arbitrary indexed access...">
<polygon fill="white" stroke="#666666" points="251,-349 168,-349 168,-330 251,-330 251,-349"/>
<text text-anchor="middle" x="209.5" y="-337" font-family="Helvetica,sans-Serif" font-size="10.00">MidiEventList.h</text>
</a>
</g>
</g>
<!-- Node1&#45;&gt;Node10 -->
<g id="edge10_Node000001_Node000010" class="edge">
<title>Node1&#45;&gt;Node10</title>
<g id="a_edge10_Node000001_Node000010"><a xlink:title=" ">
<path fill="none" stroke="#63b8ff" d="M288.4,-384.98C273.68,-376.69 251.08,-363.94 233.83,-354.22"/>
<polygon fill="#63b8ff" stroke="#63b8ff" points="235.31,-351.03 224.88,-349.17 231.87,-357.13 235.31,-351.03"/>
</a>
</g>
</g>
<!-- Node3 -->
<g id="Node000003" class="node">
<title>Node3</title>
<g id="a_Node000003"><a xlink:title=" ">
<polygon fill="#e0e0e0" stroke="#999999" points="305.5,-74 261.5,-74 261.5,-55 305.5,-55 305.5,-74"/>
<text text-anchor="middle" x="283.5" y="-62" font-family="Helvetica,sans-Serif" font-size="10.00">cmath</text>
</a>
</g>
</g>
<!-- Node2&#45;&gt;Node3 -->
<g id="edge2_Node000002_Node000003" class="edge">
<title>Node2&#45;&gt;Node3</title>
<g id="a_edge2_Node000002_Node000003"><a xlink:title=" ">
<path fill="none" stroke="#63b8ff" d="M380.02,-109.98C361.52,-101.46 332.82,-88.23 311.52,-78.41"/>
<polygon fill="#63b8ff" stroke="#63b8ff" points="312.86,-75.18 302.31,-74.17 309.93,-81.53 312.86,-75.18"/>
</a>
</g>
</g>
<!-- Node4 -->
<g id="Node000004" class="node">
<title>Node4</title>
<g id="a_Node000004"><a xlink:href="_assertion_8h.html" target="_top" xlink:title="The Assertion specification defines macros for pre&#45; and postconditions in functions or methods.">
<polygon fill="white" stroke="#666666" points="537.5,-74 471.5,-74 471.5,-55 537.5,-55 537.5,-74"/>
<text text-anchor="middle" x="504.5" y="-62" font-family="Helvetica,sans-Serif" font-size="10.00">Assertion.h</text>
</a>
</g>
</g>
<!-- Node2&#45;&gt;Node4 -->
<g id="edge3_Node000002_Node000004" class="edge">
<title>Node2&#45;&gt;Node4</title>
<g id="a_edge3_Node000002_Node000004"><a xlink:title=" ">
<path fill="none" stroke="#63b8ff" d="M415.53,-109.98C432.43,-101.54 458.56,-88.47 478.14,-78.68"/>
<polygon fill="#63b8ff" stroke="#63b8ff" points="479.78,-81.77 487.16,-74.17 476.65,-75.51 479.78,-81.77"/>
</a>
</g>
</g>
<!-- Node7 -->
<g id="Node000007" class="node">
<title>Node7</title>
<g id="a_Node000007"><a xlink:title=" ">
<polygon fill="#e0e0e0" stroke="#999999" points="453.5,-74 361.5,-74 361.5,-55 453.5,-55 453.5,-74"/>
<text text-anchor="middle" x="407.5" y="-62" font-family="Helvetica,sans-Serif" font-size="10.00">GenericNumber.h</text>
</a>
</g>
</g>
<!-- Node2&#45;&gt;Node7 -->
<g id="edge6_Node000002_Node000007" class="edge">
<title>Node2&#45;&gt;Node7</title>
<g id="a_edge6_Node000002_Node000007"><a xlink:title=" ">
<path fill="none" stroke="#63b8ff" d="M399.99,-109.75C401.17,-102.8 402.86,-92.85 404.34,-84.13"/>
<polygon fill="#63b8ff" stroke="#63b8ff" points="407.82,-84.53 406.04,-74.09 400.92,-83.36 407.82,-84.53"/>
</a>
</g>
</g>
<!-- Node8 -->
<g id="Node000008" class="node">
<title>Node8</title>
<g id="a_Node000008"><a xlink:href="_my_string_8h.html" target="_top" xlink:title="The String specification defines a standard string type.">
<polygon fill="white" stroke="#666666" points="619.5,-74 555.5,-74 555.5,-55 619.5,-55 619.5,-74"/>
<text text-anchor="middle" x="587.5" y="-62" font-family="Helvetica,sans-Serif" font-size="10.00">MyString.h</text>
</a>
</g>
</g>
<!-- Node2&#45;&gt;Node8 -->
<g id="edge7_Node000002_Node000008" class="edge">
<title>Node2&#45;&gt;Node8</title>
<g id="a_edge7_Node000002_Node000008"><a xlink:title=" ">
<path fill="none" stroke="#63b8ff" d="M426.8,-110.57C458.8,-101.59 511.16,-86.91 547.37,-76.75"/>
<polygon fill="#63b8ff" stroke="#63b8ff" points="548.45,-80.09 557.13,-74.02 546.56,-73.35 548.45,-80.09"/>
</a>
</g>
</g>
<!-- Node5 -->
<g id="Node000005" class="node">
<title>Node5</title>
<g id="a_Node000005"><a xlink:title=" ">
<polygon fill="#e0e0e0" stroke="#999999" points="416,-19 357,-19 357,0 416,0 416,-19"/>
<text text-anchor="middle" x="386.5" y="-7" font-family="Helvetica,sans-Serif" font-size="10.00">stdexcept</text>
</a>
</g>
</g>
<!-- Node4&#45;&gt;Node5 -->
<g id="edge4_Node000004_Node000005" class="edge">
<title>Node4&#45;&gt;Node5</title>
<g id="a_edge4_Node000004_Node000005"><a xlink:title=" ">
<path fill="none" stroke="#63b8ff" d="M485.54,-54.98C466.47,-46.42 436.84,-33.11 414.95,-23.28"/>
<polygon fill="#63b8ff" stroke="#63b8ff" points="416.36,-20.07 405.8,-19.17 413.49,-26.46 416.36,-20.07"/>
</a>
</g>
</g>
<!-- Node6 -->
<g id="Node000006" class="node">
<title>Node6</title>
<g id="a_Node000006"><a xlink:title=" ">
<polygon fill="#e0e0e0" stroke="#999999" points="526,-19 485,-19 485,0 526,0 526,-19"/>
<text text-anchor="middle" x="505.5" y="-7" font-family="Helvetica,sans-Serif" font-size="10.00">string</text>
</a>
</g>
</g>
<!-- Node4&#45;&gt;Node6 -->
<g id="edge5_Node000004_Node000006" class="edge">
<title>Node4&#45;&gt;Node6</title>
<g id="a_edge5_Node000004_Node000006"><a xlink:title=" ">
<path fill="none" stroke="#63b8ff" d="M504.67,-54.75C504.8,-47.8 504.98,-37.85 505.15,-29.13"/>
<polygon fill="#63b8ff" stroke="#63b8ff" points="508.65,-29.15 505.34,-19.09 501.65,-29.02 508.65,-29.15"/>
</a>
</g>
</g>
<!-- Node8&#45;&gt;Node6 -->
<g id="edge8_Node000008_Node000006" class="edge">
<title>Node8&#45;&gt;Node6</title>
<g id="a_edge8_Node000008_Node000006"><a xlink:title=" ">
<path fill="none" stroke="#63b8ff" d="M574.33,-54.98C561.73,-46.84 542.5,-34.41 527.56,-24.76"/>
<polygon fill="#63b8ff" stroke="#63b8ff" points="529.21,-21.66 518.91,-19.17 525.41,-27.54 529.21,-21.66"/>
</a>
</g>
</g>
<!-- Node9 -->
<g id="Node000009" class="node">
<title>Node9</title>
<g id="a_Node000009"><a xlink:href="_global_macros_8h.html" target="_top" xlink:title="The GlobalMacros specification defines simple macros (e.g. for parameter modes).">
<polygon fill="white" stroke="#666666" points="630,-19 545,-19 545,0 630,0 630,-19"/>
<text text-anchor="middle" x="587.5" y="-7" font-family="Helvetica,sans-Serif" font-size="10.00">GlobalMacros.h</text>
</a>
</g>
</g>
<!-- Node8&#45;&gt;Node9 -->
<g id="edge9_Node000008_Node000009" class="edge">
<title>Node8&#45;&gt;Node9</title>
<g id="a_edge9_Node000008_Node000009"><a xlink:title=" ">
<path fill="none" stroke="#63b8ff" d="M587.5,-54.75C587.5,-47.8 587.5,-37.85 587.5,-29.13"/>
<polygon fill="#63b8ff" stroke="#63b8ff" points="591,-29.09 587.5,-19.09 584,-29.09 591,-29.09"/>
</a>
</g>
</g>
<!-- Node11 -->
<g id="Node000011" class="node">
<title>Node11</title>
<g id="a_Node000011"><a xlink:title=" ">
<polygon fill="#e0e0e0" stroke="#999999" points="73,-129 0,-129 0,-110 73,-110 73,-129"/>
<text text-anchor="middle" x="36.5" y="-117" font-family="Helvetica,sans-Serif" font-size="10.00">initializer_list</text>
</a>
</g>
</g>
<!-- Node10&#45;&gt;Node11 -->
<g id="edge11_Node000010_Node000011" class="edge">
<title>Node10&#45;&gt;Node11</title>
<g id="a_edge11_Node000010_Node000011"><a xlink:title=" ">
<path fill="none" stroke="#63b8ff" d="M202.57,-329.99C195.3,-321.06 183.55,-306.58 173.5,-294 127.7,-236.7 73.92,-168.25 49.61,-137.24"/>
<polygon fill="#63b8ff" stroke="#63b8ff" points="52.23,-134.91 43.31,-129.19 46.72,-139.22 52.23,-134.91"/>
</a>
</g>
</g>
<!-- Node12 -->
<g id="Node000012" class="node">
<title>Node12</title>
<g id="a_Node000012"><a xlink:title=" ">
<polygon fill="#e0e0e0" stroke="#999999" points="165.5,-129 91.5,-129 91.5,-110 165.5,-110 165.5,-129"/>
<text text-anchor="middle" x="128.5" y="-117" font-family="Helvetica,sans-Serif" font-size="10.00">GenericList.h</text>
</a>
</g>
</g>
<!-- Node10&#45;&gt;Node12 -->
<g id="edge12_Node000010_Node000012" class="edge">
<title>Node10&#45;&gt;Node12</title>
<g id="a_edge12_Node000010_Node000012"><a xlink:title=" ">
<path fill="none" stroke="#63b8ff" d="M204.83,-329.7C192.69,-306.51 159.82,-241.52 141.5,-184 136.8,-169.24 133.39,-151.99 131.25,-139.2"/>
<polygon fill="#63b8ff" stroke="#63b8ff" points="134.7,-138.61 129.69,-129.28 127.79,-139.7 134.7,-138.61"/>
</a>
</g>
</g>
<!-- Node13 -->
<g id="Node000013" class="node">
<title>Node13</title>
<g id="a_Node000013"><a xlink:href="_midi_event_8h.html" target="_top" xlink:title="The MidiEvent specification defines a single MIDI event and the MIDI event kind enumeration.">
<polygon fill="white" stroke="#666666" points="338,-294 271,-294 271,-275 338,-275 338,-294"/>
<text text-anchor="middle" x="304.5" y="-282" font-family="Helvetica,sans-Serif" font-size="10.00">MidiEvent.h</text>
</a>
</g>
</g>
<!-- Node10&#45;&gt;Node13 -->
<g id="edge13_Node000010_Node000013" class="edge">
<title>Node10&#45;&gt;Node13</title>
<g id="a_edge13_Node000010_Node000013"><a xlink:title=" ">
<path fill="none" stroke="#63b8ff" d="M224.76,-329.98C239.63,-321.69 262.48,-308.94 279.92,-299.22"/>
<polygon fill="#63b8ff" stroke="#63b8ff" points="281.93,-302.1 288.96,-294.17 278.52,-295.99 281.93,-302.1"/>
</a>
</g>
</g>
<!-- Node14 -->
<g id="Node000014" class="node">
<title>Node14</title>
<g id="a_Node000014"><a xlink:href="_boolean_8h.html" target="_top" xlink:title="The Boolean specification and body provides a value object type for boolean values.">
<polygon fill="white" stroke="#666666" points="464.5,-239 404.5,-239 404.5,-220 464.5,-220 464.5,-239"/>
<text text-anchor="middle" x="434.5" y="-227" font-family="Helvetica,sans-Serif" font-size="10.00">Boolean.h</text>
</a>
</g>
</g>
<!-- Node13&#45;&gt;Node14 -->
<g id="edge14_Node000013_Node000014" class="edge">
<title>Node13&#45;&gt;Node14</title>
<g id="a_edge14_Node000013_Node000014"><a xlink:title=" ">
<path fill="none" stroke="#63b8ff" d="M325.39,-274.98C346.58,-266.34 379.63,-252.87 403.8,-243.02"/>
<polygon fill="#63b8ff" stroke="#63b8ff" points="405.29,-246.19 413.23,-239.17 402.65,-239.7 405.29,-246.19"/>
</a>
</g>
</g>
<!-- Node15 -->
<g id="Node000015" class="node">
<title>Node15</title>
<g id="a_Node000015"><a xlink:href="_integer_8h.html" target="_top" xlink:title="The Integer specification and body provides a value object type for ints.">
<polygon fill="white" stroke="#666666" points="356.5,-184 302.5,-184 302.5,-165 356.5,-165 356.5,-184"/>
<text text-anchor="middle" x="329.5" y="-172" font-family="Helvetica,sans-Serif" font-size="10.00">Integer.h</text>
</a>
</g>
</g>
<!-- Node13&#45;&gt;Node15 -->
<g id="edge16_Node000013_Node000015" class="edge">
<title>Node13&#45;&gt;Node15</title>
<g id="a_edge16_Node000013_Node000015"><a xlink:title=" ">
<path fill="none" stroke="#63b8ff" d="M306.55,-274.66C310.61,-257.09 319.79,-217.45 325.23,-193.95"/>
<polygon fill="#63b8ff" stroke="#63b8ff" points="328.65,-194.69 327.5,-184.16 321.83,-193.11 328.65,-194.69"/>
</a>
</g>
</g>
<!-- Node16 -->
<g id="Node000016" class="node">
<title>Node16</title>
<g id="a_Node000016"><a xlink:href="_byte_list_8h.html" target="_top" xlink:title="The ByteList specification defines lists of byte values with zero&#45;based arbitrary indexed access to p...">
<polygon fill="white" stroke="#666666" points="276,-239 215,-239 215,-220 276,-220 276,-239"/>
<text text-anchor="middle" x="245.5" y="-227" font-family="Helvetica,sans-Serif" font-size="10.00">ByteList.h</text>
</a>
</g>
</g>
<!-- Node13&#45;&gt;Node16 -->
<g id="edge20_Node000013_Node000016" class="edge">
<title>Node13&#45;&gt;Node16</title>
<g id="a_edge20_Node000013_Node000016"><a xlink:title=" ">
<path fill="none" stroke="#63b8ff" d="M295.02,-274.98C286.3,-267.15 273.16,-255.34 262.6,-245.86"/>
<polygon fill="#63b8ff" stroke="#63b8ff" points="264.93,-243.25 255.15,-239.17 260.25,-248.46 264.93,-243.25"/>
</a>
</g>
</g>
<!-- Node20 -->
<g id="Node000020" class="node">
<title>Node20</title>
<g id="a_Node000020"><a xlink:href="_object_8h.html" target="_top" xlink:title="The Object specification and body provides the root object type.">
<polygon fill="white" stroke="#666666" points="386,-239 333,-239 333,-220 386,-220 386,-239"/>
<text text-anchor="middle" x="359.5" y="-227" font-family="Helvetica,sans-Serif" font-size="10.00">Object.h</text>
</a>
</g>
</g>
<!-- Node13&#45;&gt;Node20 -->
<g id="edge28_Node000013_Node000020" class="edge">
<title>Node13&#45;&gt;Node20</title>
<g id="a_edge28_Node000013_Node000020"><a xlink:title=" ">
<path fill="none" stroke="#63b8ff" d="M313.58,-274.75C321.59,-267.03 333.46,-255.6 343.12,-246.28"/>
<polygon fill="#63b8ff" stroke="#63b8ff" points="345.81,-248.55 350.59,-239.09 340.96,-243.51 345.81,-248.55"/>
</a>
</g>
</g>
<!-- Node14&#45;&gt;Node8 -->
<g id="edge15_Node000014_Node000008" class="edge">
<title>Node14&#45;&gt;Node8</title>
<g id="a_edge15_Node000014_Node000008"><a xlink:title=" ">
<path fill="none" stroke="#63b8ff" d="M442.73,-219.74C467.22,-193.65 539.94,-116.17 572.01,-82"/>
<polygon fill="#63b8ff" stroke="#63b8ff" points="574.94,-83.99 579.23,-74.31 569.84,-79.2 574.94,-83.99"/>
</a>
</g>
</g>
<!-- Node15&#45;&gt;Node2 -->
<g id="edge19_Node000015_Node000002" class="edge">
<title>Node15&#45;&gt;Node2</title>
<g id="a_edge19_Node000015_Node000002"><a xlink:title=" ">
<path fill="none" stroke="#63b8ff" d="M340.59,-164.98C350.99,-157 366.76,-144.88 379.22,-135.31"/>
<polygon fill="#63b8ff" stroke="#63b8ff" points="381.41,-138.04 387.21,-129.17 377.15,-132.49 381.41,-138.04"/>
</a>
</g>
</g>
<!-- Node15&#45;&gt;Node3 -->
<g id="edge17_Node000015_Node000003" class="edge">
<title>Node15&#45;&gt;Node3</title>
<g id="a_edge17_Node000015_Node000003"><a xlink:title=" ">
<path fill="none" stroke="#63b8ff" d="M325.74,-164.66C318.22,-147.01 301.21,-107.09 291.22,-83.64"/>
<polygon fill="#63b8ff" stroke="#63b8ff" points="294.33,-81.99 287.19,-74.16 287.89,-84.73 294.33,-81.99"/>
</a>
</g>
</g>
<!-- Node15&#45;&gt;Node5 -->
<g id="edge18_Node000015_Node000005" class="edge">
<title>Node15&#45;&gt;Node5</title>
<g id="a_edge18_Node000015_Node000005"><a xlink:title=" ">
<path fill="none" stroke="#63b8ff" d="M329.84,-164.76C330.91,-144.56 335.24,-93.43 352.5,-55 357.06,-44.84 364.35,-34.86 371.01,-26.94"/>
<polygon fill="#63b8ff" stroke="#63b8ff" points="373.82,-29.04 377.83,-19.23 368.58,-24.4 373.82,-29.04"/>
</a>
</g>
</g>
<!-- Node17 -->
<g id="Node000017" class="node">
<title>Node17</title>
<g id="a_Node000017"><a xlink:href="_byte_8h.html" target="_top" xlink:title="The Byte specification and body provides a value object type for byte values.">
<polygon fill="white" stroke="#666666" points="280,-184 235,-184 235,-165 280,-165 280,-184"/>
<text text-anchor="middle" x="257.5" y="-172" font-family="Helvetica,sans-Serif" font-size="10.00">Byte.h</text>
</a>
</g>
</g>
<!-- Node16&#45;&gt;Node17 -->
<g id="edge21_Node000016_Node000017" class="edge">
<title>Node16&#45;&gt;Node17</title>
<g id="a_edge21_Node000016_Node000017"><a xlink:title=" ">
<path fill="none" stroke="#63b8ff" d="M247.48,-219.75C249.07,-212.72 251.36,-202.62 253.35,-193.84"/>
<polygon fill="#63b8ff" stroke="#63b8ff" points="256.76,-194.62 255.56,-184.09 249.93,-193.07 256.76,-194.62"/>
</a>
</g>
</g>
<!-- Node19 -->
<g id="Node000019" class="node">
<title>Node19</title>
<g id="a_Node000019"><a xlink:href="_string_list_8h.html" target="_top" xlink:title="The StringList specification defines lists of string values with zero&#45;based arbitrary indexed access ...">
<polygon fill="white" stroke="#666666" points="216.5,-184 150.5,-184 150.5,-165 216.5,-165 216.5,-184"/>
<text text-anchor="middle" x="183.5" y="-172" font-family="Helvetica,sans-Serif" font-size="10.00">StringList.h</text>
</a>
</g>
</g>
<!-- Node16&#45;&gt;Node19 -->
<g id="edge25_Node000016_Node000019" class="edge">
<title>Node16&#45;&gt;Node19</title>
<g id="a_edge25_Node000016_Node000019"><a xlink:title=" ">
<path fill="none" stroke="#63b8ff" d="M235.54,-219.98C226.37,-212.15 212.56,-200.34 201.47,-190.86"/>
<polygon fill="#63b8ff" stroke="#63b8ff" points="203.52,-188.01 193.64,-184.17 198.97,-193.33 203.52,-188.01"/>
</a>
</g>
</g>
<!-- Node17&#45;&gt;Node2 -->
<g id="edge24_Node000017_Node000002" class="edge">
<title>Node17&#45;&gt;Node2</title>
<g id="a_edge24_Node000017_Node000002"><a xlink:title=" ">
<path fill="none" stroke="#63b8ff" d="M280.15,-164.98C303.35,-156.27 339.62,-142.63 365.9,-132.75"/>
<polygon fill="#63b8ff" stroke="#63b8ff" points="367.3,-135.97 375.43,-129.17 364.84,-129.41 367.3,-135.97"/>
</a>
</g>
</g>
<!-- Node17&#45;&gt;Node3 -->
<g id="edge22_Node000017_Node000003" class="edge">
<title>Node17&#45;&gt;Node3</title>
<g id="a_edge22_Node000017_Node000003"><a xlink:title=" ">
<path fill="none" stroke="#63b8ff" d="M259.63,-164.66C263.86,-147.09 273.4,-107.45 279.06,-83.95"/>
<polygon fill="#63b8ff" stroke="#63b8ff" points="282.48,-84.7 281.42,-74.16 275.67,-83.06 282.48,-84.7"/>
</a>
</g>
</g>
<!-- Node18 -->
<g id="Node000018" class="node">
<title>Node18</title>
<g id="a_Node000018"><a xlink:title=" ">
<polygon fill="#e0e0e0" stroke="#999999" points="229.5,-129 183.5,-129 183.5,-110 229.5,-110 229.5,-129"/>
<text text-anchor="middle" x="206.5" y="-117" font-family="Helvetica,sans-Serif" font-size="10.00">cstdint</text>
</a>
</g>
</g>
<!-- Node17&#45;&gt;Node18 -->
<g id="edge23_Node000017_Node000018" class="edge">
<title>Node17&#45;&gt;Node18</title>
<g id="a_edge23_Node000017_Node000018"><a xlink:title=" ">
<path fill="none" stroke="#63b8ff" d="M249.08,-164.75C241.73,-157.11 230.87,-145.82 221.96,-136.56"/>
<polygon fill="#63b8ff" stroke="#63b8ff" points="224.22,-133.87 214.76,-129.09 219.18,-138.72 224.22,-133.87"/>
</a>
</g>
</g>
<!-- Node19&#45;&gt;Node11 -->
<g id="edge26_Node000019_Node000011" class="edge">
<title>Node19&#45;&gt;Node11</title>
<g id="a_edge26_Node000019_Node000011"><a xlink:title=" ">
<path fill="none" stroke="#63b8ff" d="M159.88,-164.98C135.6,-156.23 97.55,-142.51 70.13,-132.62"/>
<polygon fill="#63b8ff" stroke="#63b8ff" points="71.14,-129.27 60.55,-129.17 68.77,-135.85 71.14,-129.27"/>
</a>
</g>
</g>
<!-- Node19&#45;&gt;Node12 -->
<g id="edge27_Node000019_Node000012" class="edge">
<title>Node19&#45;&gt;Node12</title>
<g id="a_edge27_Node000019_Node000012"><a xlink:title=" ">
<path fill="none" stroke="#63b8ff" d="M174.42,-164.75C166.41,-157.03 154.54,-145.6 144.88,-136.28"/>
<polygon fill="#63b8ff" stroke="#63b8ff" points="147.04,-133.51 137.41,-129.09 142.19,-138.55 147.04,-133.51"/>
</a>
</g>
</g>
</g>
</svg>
