<?xml version="1.0" encoding="UTF-8" standalone="no"?>
<!DOCTYPE svg PUBLIC "-//W3C//DTD SVG 1.1//EN"
 "http://www.w3.org/Graphics/SVG/1.1/DTD/svg11.dtd">
<!-- Generated by graphviz version 2.47.1 (20210417.1919)
 -->
<!-- Title: MidiEventConverter.cpp Pages: 1 -->
<!--zoomable 542 -->
<svg id="main" version="1.1" xmlns="http://www.w3.org/2000/svg" xmlns:xlink="http://www.w3.org/1999/xlink" xml:space="preserve" onload="init(evt)">
<style type="text/css"><![CDATA[
.edge:hover path { stroke: red; }
.edge:hover polygon { stroke: red; fill: red; }
]]></style>
<script type="text/javascript"><![CDATA[
var edges = document.getElementsByTagName('g');
if (edges && edges.length) {
  for (var i=0;i<edges.length;i++) {
    if (edges[i].id.substr(0,4)=='edge') {
      edges[i].setAttribute('class','edge');
    }
  }
}
]]></script>
        <defs>
                <circle id="rim" cx="0" cy="0" r="7"/>
                <circle id="rim2" cx="0" cy="0" r="3.5"/>
                <g id="zoomPlus">
                        <use xlink:href="#rim" fill="#404040">
                                <set attributeName="fill" to="#808080" begin="zoomplus.mouseover" end="zoomplus.mouseout"/>
                        </use>
                        <path d="M-4,0h8M0,-4v8" fill="none" stroke="white" stroke-width="1.5" pointer-events="none"/>
                </g>
                <g id="zoomMin">
                        <use xlink:href="#rim" fill="#404040">
                                <set attributeName="fill" to="#808080" begin="zoomminus.mouseover" end="zoomminus.mouseout"/>
                        </use>
                        <path d="M-4,0h8" fill="none" stroke="white" stroke-width="1.5" pointer-events="none"/>
                </g>
                <g id="dirArrow">
                        <path fill="none" stroke="white" stroke-width="1.5" d="M0,-3.0v7 M-2.5,-0.5L0,-3.0L2.5,-0.5"/>
                </g>
               <g id="resetDef">
                       <use xlink:href="#rim2" fill="#404040">
                               <set attributeName="fill" to="#808080" begin="reset.mouseover" end="reset.mouseout"/>
                       </use>
               </g>
        </defs>

<script type="text/javascript">
var viewWidth = 1176;
var viewHeight = 542;
var sectionId = 'dynsection-0';
</script>
<script xlink:href="svgpan.js"/>
<svg id="graph" class="graph">
<g id="viewport">
<title>MidiEventConverter.cpp</title>
<polygon fill="white" stroke="transparent" points="-4,4 -4,-538 1171.5,-538 1171.5,4 -4,4"/>
<!-- Node1 -->
<g id="node1" class="node">
<title>Node1</title>
<g id="a_node1"><a xlink:title="The MidiEventConverter module implements the handling of MIDI events by feeding them to an underlying...">
<polygon fill="#bfbfbf" stroke="black" points="321.5,-513.5 321.5,-533.5 453.5,-533.5 453.5,-513.5 321.5,-513.5"/>
<text text-anchor="middle" x="387.5" y="-520.7" font-family="Helvetica,sans-Serif" font-size="11.00">MidiEventConverter.cpp</text>
</a>
</g>
</g>
<!-- Node2 -->
<g id="node2" class="node">
<title>Node2</title>
<g id="a_node2"><a xlink:href="_boolean_8h.html" target="_top" xlink:title="The Boolean specification and body provides a value object type for boolean values.">
<polygon fill="white" stroke="black" points="196,-285.5 196,-305.5 261,-305.5 261,-285.5 196,-285.5"/>
<text text-anchor="middle" x="228.5" y="-292.7" font-family="Helvetica,sans-Serif" font-size="11.00">Boolean.h</text>
</a>
</g>
</g>
<!-- Node1&#45;&gt;Node2 -->
<g id="edge1" class="edge">
<title>Node1&#45;&gt;Node2</title>
<path fill="none" stroke="midnightblue" d="M339.69,-513.49C270.96,-497.43 148.91,-456.35 116.5,-363 113.44,-354.18 111.29,-349.74 116.5,-342 124.78,-329.7 158.06,-317.11 186.2,-308.3"/>
<polygon fill="midnightblue" stroke="midnightblue" points="187.35,-311.61 195.9,-305.35 185.31,-304.92 187.35,-311.61"/>
</g>
<!-- Node6 -->
<g id="node6" class="node">
<title>Node6</title>
<g id="a_node6"><a xlink:href="_logging_8h.html" target="_top" xlink:title="The Logging specification defines macros for entry&#45;, exit&#45; and intermediate logging of functions into...">
<polygon fill="white" stroke="black" points="170.5,-399.5 170.5,-419.5 234.5,-419.5 234.5,-399.5 170.5,-399.5"/>
<text text-anchor="middle" x="202.5" y="-406.7" font-family="Helvetica,sans-Serif" font-size="11.00">Logging.h</text>
</a>
</g>
</g>
<!-- Node1&#45;&gt;Node6 -->
<g id="edge5" class="edge">
<title>Node1&#45;&gt;Node6</title>
<path fill="none" stroke="midnightblue" d="M372.36,-513.33C340.3,-493.93 265.33,-448.54 226.61,-425.09"/>
<polygon fill="midnightblue" stroke="midnightblue" points="227.96,-421.82 217.59,-419.63 224.33,-427.81 227.96,-421.82"/>
</g>
<!-- Node23 -->
<g id="node23" class="node">
<title>Node23</title>
<g id="a_node23"><a xlink:href="_fluid_synth_synthesizer_8h.html" target="_top" xlink:title="The FluidSynthSynthesizer class specifies an object&#45;oriented wrapper around an underlying fluidsynth ...">
<polygon fill="white" stroke="black" points="918.5,-456.5 918.5,-476.5 1052.5,-476.5 1052.5,-456.5 918.5,-456.5"/>
<text text-anchor="middle" x="985.5" y="-463.7" font-family="Helvetica,sans-Serif" font-size="11.00">FluidSynthSynthesizer.h</text>
</a>
</g>
</g>
<!-- Node1&#45;&gt;Node23 -->
<g id="edge33" class="edge">
<title>Node1&#45;&gt;Node23</title>
<path fill="none" stroke="midnightblue" d="M453.78,-516.4C565.33,-506.14 789.96,-485.48 908.39,-474.59"/>
<polygon fill="midnightblue" stroke="midnightblue" points="908.83,-478.07 918.46,-473.67 908.19,-471.1 908.83,-478.07"/>
</g>
<!-- Node34 -->
<g id="node34" class="node">
<title>Node34</title>
<g id="a_node34"><a xlink:href="_midi_event_converter_8h.html" target="_top" xlink:title="The MidiEventConverter specification defines the handling of MIDI events by feeding them to an underl...">
<polygon fill="white" stroke="black" points="431.5,-456.5 431.5,-476.5 551.5,-476.5 551.5,-456.5 431.5,-456.5"/>
<text text-anchor="middle" x="491.5" y="-463.7" font-family="Helvetica,sans-Serif" font-size="11.00">MidiEventConverter.h</text>
</a>
</g>
</g>
<!-- Node1&#45;&gt;Node34 -->
<g id="edge50" class="edge">
<title>Node1&#45;&gt;Node34</title>
<path fill="none" stroke="midnightblue" d="M404.67,-513.42C421.16,-504.7 446.28,-491.41 465.27,-481.37"/>
<polygon fill="midnightblue" stroke="midnightblue" points="467.1,-484.36 474.3,-476.6 463.82,-478.18 467.1,-484.36"/>
</g>
<!-- Node3 -->
<g id="node3" class="node">
<title>Node3</title>
<g id="a_node3"><a xlink:href="_my_string_8h.html" target="_top" xlink:title="The String specification defines a standard string type.">
<polygon fill="white" stroke="black" points="303.5,-57.5 303.5,-77.5 371.5,-77.5 371.5,-57.5 303.5,-57.5"/>
<text text-anchor="middle" x="337.5" y="-64.7" font-family="Helvetica,sans-Serif" font-size="11.00">MyString.h</text>
</a>
</g>
</g>
<!-- Node2&#45;&gt;Node3 -->
<g id="edge2" class="edge">
<title>Node2&#45;&gt;Node3</title>
<path fill="none" stroke="midnightblue" d="M229.48,-285.19C231.08,-272.07 234.86,-247.56 242.5,-228 264.1,-172.71 303.79,-114.42 324.36,-86.06"/>
<polygon fill="midnightblue" stroke="midnightblue" points="327.45,-87.77 330.55,-77.64 321.81,-83.62 327.45,-87.77"/>
</g>
<!-- Node4 -->
<g id="node4" class="node">
<title>Node4</title>
<g id="a_node4"><a xlink:title=" ">
<polygon fill="white" stroke="#bfbfbf" points="369.5,-0.5 369.5,-20.5 413.5,-20.5 413.5,-0.5 369.5,-0.5"/>
<text text-anchor="middle" x="391.5" y="-7.7" font-family="Helvetica,sans-Serif" font-size="11.00">string</text>
</a>
</g>
</g>
<!-- Node3&#45;&gt;Node4 -->
<g id="edge3" class="edge">
<title>Node3&#45;&gt;Node4</title>
<path fill="none" stroke="midnightblue" d="M346.42,-57.42C354.26,-49.42 365.88,-37.59 375.36,-27.94"/>
<polygon fill="midnightblue" stroke="midnightblue" points="377.88,-30.37 382.39,-20.78 372.89,-25.46 377.88,-30.37"/>
</g>
<!-- Node5 -->
<g id="node5" class="node">
<title>Node5</title>
<g id="a_node5"><a xlink:href="_global_macros_8h.html" target="_top" xlink:title="The GlobalMacros specification defines simple macros (e.g. for parameter modes).">
<polygon fill="white" stroke="black" points="259.5,-0.5 259.5,-20.5 351.5,-20.5 351.5,-0.5 259.5,-0.5"/>
<text text-anchor="middle" x="305.5" y="-7.7" font-family="Helvetica,sans-Serif" font-size="11.00">GlobalMacros.h</text>
</a>
</g>
</g>
<!-- Node3&#45;&gt;Node5 -->
<g id="edge4" class="edge">
<title>Node3&#45;&gt;Node5</title>
<path fill="none" stroke="midnightblue" d="M332.22,-57.42C327.84,-49.9 321.49,-38.98 316.08,-29.68"/>
<polygon fill="midnightblue" stroke="midnightblue" points="318.95,-27.66 310.9,-20.78 312.9,-31.18 318.95,-27.66"/>
</g>
<!-- Node7 -->
<g id="node7" class="node">
<title>Node7</title>
<g id="a_node7"><a xlink:title=" ">
<polygon fill="white" stroke="#bfbfbf" points="126,-342.5 126,-362.5 179,-362.5 179,-342.5 126,-342.5"/>
<text text-anchor="middle" x="152.5" y="-349.7" font-family="Helvetica,sans-Serif" font-size="11.00">cstdarg</text>
</a>
</g>
</g>
<!-- Node6&#45;&gt;Node7 -->
<g id="edge6" class="edge">
<title>Node6&#45;&gt;Node7</title>
<path fill="none" stroke="midnightblue" d="M194.24,-399.42C187.05,-391.5 176.43,-379.82 167.7,-370.23"/>
<polygon fill="midnightblue" stroke="midnightblue" points="170.25,-367.82 160.94,-362.78 165.07,-372.53 170.25,-367.82"/>
</g>
<!-- Node8 -->
<g id="node8" class="node">
<title>Node8</title>
<g id="a_node8"><a xlink:href="_logging_support_8h.html" target="_top" xlink:title="The LoggingSupport specification defines a class for simple entry/exit logging to a file or via an ar...">
<polygon fill="white" stroke="black" points="197.5,-342.5 197.5,-362.5 299.5,-362.5 299.5,-342.5 197.5,-342.5"/>
<text text-anchor="middle" x="248.5" y="-349.7" font-family="Helvetica,sans-Serif" font-size="11.00">LoggingSupport.h</text>
</a>
</g>
</g>
<!-- Node6&#45;&gt;Node8 -->
<g id="edge7" class="edge">
<title>Node6&#45;&gt;Node8</title>
<path fill="none" stroke="midnightblue" d="M210.1,-399.42C216.65,-391.58 226.29,-380.06 234.27,-370.51"/>
<polygon fill="midnightblue" stroke="midnightblue" points="237.01,-372.7 240.74,-362.78 231.64,-368.2 237.01,-372.7"/>
</g>
<!-- Node14 -->
<g id="node14" class="node">
<title>Node14</title>
<g id="a_node14"><a xlink:href="_string_util_8h.html" target="_top" xlink:title="The StringUtil specification defines several string routines not included in the standard C++ library...">
<polygon fill="white" stroke="black" points="0,-342.5 0,-362.5 69,-362.5 69,-342.5 0,-342.5"/>
<text text-anchor="middle" x="34.5" y="-349.7" font-family="Helvetica,sans-Serif" font-size="11.00">StringUtil.h</text>
</a>
</g>
</g>
<!-- Node6&#45;&gt;Node14 -->
<g id="edge16" class="edge">
<title>Node6&#45;&gt;Node14</title>
<path fill="none" stroke="midnightblue" d="M174.76,-399.42C146.59,-390.19 102.79,-375.86 71.64,-365.66"/>
<polygon fill="midnightblue" stroke="midnightblue" points="72.6,-362.29 62,-362.5 70.42,-368.94 72.6,-362.29"/>
</g>
<!-- Node8&#45;&gt;Node2 -->
<g id="edge8" class="edge">
<title>Node8&#45;&gt;Node2</title>
<path fill="none" stroke="midnightblue" d="M245.2,-342.42C242.52,-335.06 238.66,-324.44 235.33,-315.27"/>
<polygon fill="midnightblue" stroke="midnightblue" points="238.58,-313.98 231.87,-305.78 232,-316.37 238.58,-313.98"/>
</g>
<!-- Node9 -->
<g id="node9" class="node">
<title>Node9</title>
<g id="a_node9"><a xlink:href="_natural_8h.html" target="_top" xlink:title="The Natural specification and body provides a value object type for naturals (positive integers with ...">
<polygon fill="white" stroke="black" points="433.5,-114.5 433.5,-134.5 493.5,-134.5 493.5,-114.5 433.5,-114.5"/>
<text text-anchor="middle" x="463.5" y="-121.7" font-family="Helvetica,sans-Serif" font-size="11.00">Natural.h</text>
</a>
</g>
</g>
<!-- Node8&#45;&gt;Node9 -->
<g id="edge9" class="edge">
<title>Node8&#45;&gt;Node9</title>
<path fill="none" stroke="midnightblue" d="M260.53,-342.41C290.37,-319.46 369.24,-256.44 422.5,-192 435.02,-176.86 446.49,-157.56 454.1,-143.66"/>
<polygon fill="midnightblue" stroke="midnightblue" points="457.3,-145.1 458.92,-134.63 451.12,-141.8 457.3,-145.1"/>
</g>
<!-- Node9&#45;&gt;Node3 -->
<g id="edge15" class="edge">
<title>Node9&#45;&gt;Node3</title>
<path fill="none" stroke="midnightblue" d="M442.69,-114.42C422.27,-105.5 390.89,-91.8 367.71,-81.69"/>
<polygon fill="midnightblue" stroke="midnightblue" points="368.9,-78.39 358.34,-77.6 366.1,-84.8 368.9,-78.39"/>
</g>
<!-- Node10 -->
<g id="node10" class="node">
<title>Node10</title>
<g id="a_node10"><a xlink:title=" ">
<polygon fill="white" stroke="#bfbfbf" points="238,-57.5 238,-77.5 285,-77.5 285,-57.5 238,-57.5"/>
<text text-anchor="middle" x="261.5" y="-64.7" font-family="Helvetica,sans-Serif" font-size="11.00">cmath</text>
</a>
</g>
</g>
<!-- Node9&#45;&gt;Node10 -->
<g id="edge10" class="edge">
<title>Node9&#45;&gt;Node10</title>
<path fill="none" stroke="midnightblue" d="M433.23,-115.52C401.3,-107.06 349.26,-93.18 295.06,-78.12"/>
<polygon fill="midnightblue" stroke="midnightblue" points="295.85,-74.71 285.28,-75.4 293.97,-81.45 295.85,-74.71"/>
</g>
<!-- Node11 -->
<g id="node11" class="node">
<title>Node11</title>
<g id="a_node11"><a xlink:href="_assertion_8h.html" target="_top" xlink:title="The Assertion specification defines macros for pre&#45; and postconditions in functions or methods.">
<polygon fill="white" stroke="black" points="428,-57.5 428,-77.5 499,-77.5 499,-57.5 428,-57.5"/>
<text text-anchor="middle" x="463.5" y="-64.7" font-family="Helvetica,sans-Serif" font-size="11.00">Assertion.h</text>
</a>
</g>
</g>
<!-- Node9&#45;&gt;Node11 -->
<g id="edge11" class="edge">
<title>Node9&#45;&gt;Node11</title>
<path fill="none" stroke="midnightblue" d="M463.5,-114.42C463.5,-107.22 463.5,-96.9 463.5,-87.86"/>
<polygon fill="midnightblue" stroke="midnightblue" points="467,-87.78 463.5,-77.78 460,-87.78 467,-87.78"/>
</g>
<!-- Node13 -->
<g id="node13" class="node">
<title>Node13</title>
<g id="a_node13"><a xlink:title=" ">
<polygon fill="white" stroke="#bfbfbf" points="517,-57.5 517,-77.5 620,-77.5 620,-57.5 517,-57.5"/>
<text text-anchor="middle" x="568.5" y="-64.7" font-family="Helvetica,sans-Serif" font-size="11.00">GenericNumber.h</text>
</a>
</g>
</g>
<!-- Node9&#45;&gt;Node13 -->
<g id="edge14" class="edge">
<title>Node9&#45;&gt;Node13</title>
<path fill="none" stroke="midnightblue" d="M480.84,-114.42C497.48,-105.7 522.85,-92.41 542.02,-82.37"/>
<polygon fill="midnightblue" stroke="midnightblue" points="543.9,-85.34 551.14,-77.6 540.65,-79.14 543.9,-85.34"/>
</g>
<!-- Node11&#45;&gt;Node4 -->
<g id="edge13" class="edge">
<title>Node11&#45;&gt;Node4</title>
<path fill="none" stroke="midnightblue" d="M451.61,-57.42C440.84,-49.19 424.73,-36.88 411.9,-27.08"/>
<polygon fill="midnightblue" stroke="midnightblue" points="413.72,-24.07 403.65,-20.78 409.47,-29.63 413.72,-24.07"/>
</g>
<!-- Node12 -->
<g id="node12" class="node">
<title>Node12</title>
<g id="a_node12"><a xlink:title=" ">
<polygon fill="white" stroke="#bfbfbf" points="431.5,-0.5 431.5,-20.5 495.5,-20.5 495.5,-0.5 431.5,-0.5"/>
<text text-anchor="middle" x="463.5" y="-7.7" font-family="Helvetica,sans-Serif" font-size="11.00">stdexcept</text>
</a>
</g>
</g>
<!-- Node11&#45;&gt;Node12 -->
<g id="edge12" class="edge">
<title>Node11&#45;&gt;Node12</title>
<path fill="none" stroke="midnightblue" d="M463.5,-57.42C463.5,-50.22 463.5,-39.9 463.5,-30.86"/>
<polygon fill="midnightblue" stroke="midnightblue" points="467,-30.78 463.5,-20.78 460,-30.78 467,-30.78"/>
</g>
<!-- Node14&#45;&gt;Node2 -->
<g id="edge17" class="edge">
<title>Node14&#45;&gt;Node2</title>
<path fill="none" stroke="midnightblue" d="M66.54,-342.42C99.49,-333.08 150.96,-318.48 187.01,-308.26"/>
<polygon fill="midnightblue" stroke="midnightblue" points="188.07,-311.6 196.74,-305.5 186.16,-304.86 188.07,-311.6"/>
</g>
<!-- Node15 -->
<g id="node15" class="node">
<title>Node15</title>
<g id="a_node15"><a xlink:href="_character_8h.html" target="_top" xlink:title="The Character specification and body provides a value object type for character values.">
<polygon fill="white" stroke="black" points="121.5,-228.5 121.5,-248.5 195.5,-248.5 195.5,-228.5 121.5,-228.5"/>
<text text-anchor="middle" x="158.5" y="-235.7" font-family="Helvetica,sans-Serif" font-size="11.00">Character.h</text>
</a>
</g>
</g>
<!-- Node14&#45;&gt;Node15 -->
<g id="edge18" class="edge">
<title>Node14&#45;&gt;Node15</title>
<path fill="none" stroke="midnightblue" d="M33.89,-342.18C33.49,-328.16 34.78,-301.52 48.5,-285 64.24,-266.04 89.19,-254.87 111.34,-248.35"/>
<polygon fill="midnightblue" stroke="midnightblue" points="112.54,-251.65 121.28,-245.67 110.72,-244.89 112.54,-251.65"/>
</g>
<!-- Node17 -->
<g id="node17" class="node">
<title>Node17</title>
<g id="a_node17"><a xlink:href="_percentage_8h.html" target="_top" xlink:title="The Percentage specification and body provides a simple percentage type.">
<polygon fill="white" stroke="black" points="57.5,-285.5 57.5,-305.5 139.5,-305.5 139.5,-285.5 57.5,-285.5"/>
<text text-anchor="middle" x="98.5" y="-292.7" font-family="Helvetica,sans-Serif" font-size="11.00">Percentage.h</text>
</a>
</g>
</g>
<!-- Node14&#45;&gt;Node17 -->
<g id="edge23" class="edge">
<title>Node14&#45;&gt;Node17</title>
<path fill="none" stroke="midnightblue" d="M45.07,-342.42C54.55,-334.27 68.69,-322.12 80.04,-312.37"/>
<polygon fill="midnightblue" stroke="midnightblue" points="82.4,-314.95 87.7,-305.78 77.84,-309.64 82.4,-314.95"/>
</g>
<!-- Node20 -->
<g id="node20" class="node">
<title>Node20</title>
<g id="a_node20"><a xlink:href="_string_list_8h.html" target="_top" xlink:title="The StringList specification defines lists of string values with zero&#45;based arbitrary indexed access ...">
<polygon fill="white" stroke="black" points="470,-228.5 470,-248.5 541,-248.5 541,-228.5 470,-228.5"/>
<text text-anchor="middle" x="505.5" y="-235.7" font-family="Helvetica,sans-Serif" font-size="11.00">StringList.h</text>
</a>
</g>
</g>
<!-- Node14&#45;&gt;Node20 -->
<g id="edge30" class="edge">
<title>Node14&#45;&gt;Node20</title>
<path fill="none" stroke="midnightblue" d="M59.79,-342.44C83.15,-333.84 118.65,-320.14 148.5,-306 165.94,-297.74 168.2,-291.13 186.5,-285 280.21,-253.6 396.5,-243.87 459.58,-240.86"/>
<polygon fill="midnightblue" stroke="midnightblue" points="459.77,-244.35 469.61,-240.41 459.46,-237.36 459.77,-244.35"/>
</g>
<!-- Node15&#45;&gt;Node10 -->
<g id="edge19" class="edge">
<title>Node15&#45;&gt;Node10</title>
<path fill="none" stroke="midnightblue" d="M160.71,-228.42C166.23,-206.96 182.21,-152.09 209.5,-114 217.8,-102.42 229.59,-91.79 239.84,-83.73"/>
<polygon fill="midnightblue" stroke="midnightblue" points="242.11,-86.4 247.99,-77.59 237.89,-80.81 242.11,-86.4"/>
</g>
<!-- Node16 -->
<g id="node16" class="node">
<title>Node16</title>
<g id="a_node16"><a xlink:href="_byte_8h.html" target="_top" xlink:title="The Byte specification and body provides a value object type for byte values.">
<polygon fill="white" stroke="black" points="290,-171.5 290,-191.5 337,-191.5 337,-171.5 290,-171.5"/>
<text text-anchor="middle" x="313.5" y="-178.7" font-family="Helvetica,sans-Serif" font-size="11.00">Byte.h</text>
</a>
</g>
</g>
<!-- Node15&#45;&gt;Node16 -->
<g id="edge20" class="edge">
<title>Node15&#45;&gt;Node16</title>
<path fill="none" stroke="midnightblue" d="M184.1,-228.42C210.4,-219.08 251.47,-204.51 280.27,-194.29"/>
<polygon fill="midnightblue" stroke="midnightblue" points="281.65,-197.52 289.9,-190.87 279.31,-190.92 281.65,-197.52"/>
</g>
<!-- Node16&#45;&gt;Node9 -->
<g id="edge22" class="edge">
<title>Node16&#45;&gt;Node9</title>
<path fill="none" stroke="midnightblue" d="M337.27,-171.79C362.1,-162.68 401.28,-148.32 429.4,-138"/>
<polygon fill="midnightblue" stroke="midnightblue" points="430.66,-141.27 438.85,-134.54 428.25,-134.7 430.66,-141.27"/>
</g>
<!-- Node16&#45;&gt;Node10 -->
<g id="edge21" class="edge">
<title>Node16&#45;&gt;Node10</title>
<path fill="none" stroke="midnightblue" d="M309.24,-171.33C300.71,-152.96 281.37,-111.29 270.1,-87.01"/>
<polygon fill="midnightblue" stroke="midnightblue" points="273.2,-85.39 265.81,-77.79 266.85,-88.34 273.2,-85.39"/>
</g>
<!-- Node18 -->
<g id="node18" class="node">
<title>Node18</title>
<g id="a_node18"><a xlink:href="_real_8h.html" target="_top" xlink:title="The Real specification defines a value object type for real values.">
<polygon fill="white" stroke="black" points="251.5,-228.5 251.5,-248.5 299.5,-248.5 299.5,-228.5 251.5,-228.5"/>
<text text-anchor="middle" x="275.5" y="-235.7" font-family="Helvetica,sans-Serif" font-size="11.00">Real.h</text>
</a>
</g>
</g>
<!-- Node17&#45;&gt;Node18 -->
<g id="edge24" class="edge">
<title>Node17&#45;&gt;Node18</title>
<path fill="none" stroke="midnightblue" d="M127.73,-285.42C159.05,-275.68 208.71,-260.26 241.69,-250.01"/>
<polygon fill="midnightblue" stroke="midnightblue" points="242.84,-253.31 251.35,-247 240.76,-246.63 242.84,-253.31"/>
</g>
<!-- Node18&#45;&gt;Node10 -->
<g id="edge25" class="edge">
<title>Node18&#45;&gt;Node10</title>
<path fill="none" stroke="midnightblue" d="M274.75,-228.41C272.55,-201.94 266.13,-124.42 263.11,-87.92"/>
<polygon fill="midnightblue" stroke="midnightblue" points="266.57,-87.31 262.26,-77.63 259.59,-87.89 266.57,-87.31"/>
</g>
<!-- Node19 -->
<g id="node19" class="node">
<title>Node19</title>
<g id="a_node19"><a xlink:href="_integer_8h.html" target="_top" xlink:title="The Integer specification and body provides a value object type for ints.">
<polygon fill="white" stroke="black" points="355,-171.5 355,-191.5 414,-191.5 414,-171.5 355,-171.5"/>
<text text-anchor="middle" x="384.5" y="-178.7" font-family="Helvetica,sans-Serif" font-size="11.00">Integer.h</text>
</a>
</g>
</g>
<!-- Node18&#45;&gt;Node19 -->
<g id="edge26" class="edge">
<title>Node18&#45;&gt;Node19</title>
<path fill="none" stroke="midnightblue" d="M293.5,-228.42C310.86,-219.66 337.35,-206.29 357.28,-196.23"/>
<polygon fill="midnightblue" stroke="midnightblue" points="359.12,-199.23 366.47,-191.6 355.97,-192.98 359.12,-199.23"/>
</g>
<!-- Node19&#45;&gt;Node9 -->
<g id="edge29" class="edge">
<title>Node19&#45;&gt;Node9</title>
<path fill="none" stroke="midnightblue" d="M397.55,-171.42C409.67,-162.98 427.94,-150.26 442.18,-140.34"/>
<polygon fill="midnightblue" stroke="midnightblue" points="444.23,-143.18 450.44,-134.6 440.23,-137.44 444.23,-143.18"/>
</g>
<!-- Node19&#45;&gt;Node10 -->
<g id="edge27" class="edge">
<title>Node19&#45;&gt;Node10</title>
<path fill="none" stroke="midnightblue" d="M374.43,-171.33C353.62,-152.38 305.61,-108.67 279.39,-84.79"/>
<polygon fill="midnightblue" stroke="midnightblue" points="281.46,-81.94 271.7,-77.79 276.74,-87.11 281.46,-81.94"/>
</g>
<!-- Node19&#45;&gt;Node12 -->
<g id="edge28" class="edge">
<title>Node19&#45;&gt;Node12</title>
<path fill="none" stroke="midnightblue" d="M385.44,-171.21C387.93,-149.76 396.12,-95.7 418.5,-57 424.97,-45.81 434.86,-35.39 443.72,-27.35"/>
<polygon fill="midnightblue" stroke="midnightblue" points="446.16,-29.87 451.44,-20.69 441.58,-24.57 446.16,-29.87"/>
</g>
<!-- Node21 -->
<g id="node21" class="node">
<title>Node21</title>
<g id="a_node21"><a xlink:title=" ">
<polygon fill="white" stroke="#bfbfbf" points="470.5,-171.5 470.5,-191.5 548.5,-191.5 548.5,-171.5 470.5,-171.5"/>
<text text-anchor="middle" x="509.5" y="-178.7" font-family="Helvetica,sans-Serif" font-size="11.00">initializer_list</text>
</a>
</g>
</g>
<!-- Node20&#45;&gt;Node21 -->
<g id="edge31" class="edge">
<title>Node20&#45;&gt;Node21</title>
<path fill="none" stroke="midnightblue" d="M506.16,-228.42C506.68,-221.22 507.43,-210.9 508.09,-201.86"/>
<polygon fill="midnightblue" stroke="midnightblue" points="511.59,-202.01 508.83,-191.78 504.61,-201.5 511.59,-202.01"/>
</g>
<!-- Node22 -->
<g id="node22" class="node">
<title>Node22</title>
<g id="a_node22"><a xlink:title=" ">
<polygon fill="white" stroke="#bfbfbf" points="586,-171.5 586,-191.5 667,-191.5 667,-171.5 586,-171.5"/>
<text text-anchor="middle" x="626.5" y="-178.7" font-family="Helvetica,sans-Serif" font-size="11.00">GenericList.h</text>
</a>
</g>
</g>
<!-- Node20&#45;&gt;Node22 -->
<g id="edge32" class="edge">
<title>Node20&#45;&gt;Node22</title>
<path fill="none" stroke="midnightblue" d="M525.48,-228.42C545.01,-219.54 574.96,-205.93 597.19,-195.82"/>
<polygon fill="midnightblue" stroke="midnightblue" points="598.83,-198.92 606.49,-191.6 595.94,-192.55 598.83,-198.92"/>
</g>
<!-- Node23&#45;&gt;Node9 -->
<g id="edge44" class="edge">
<title>Node23&#45;&gt;Node9</title>
<path fill="none" stroke="midnightblue" d="M985.5,-456.5C985.5,-437.48 985.5,-391.81 985.5,-353.5 985.5,-353.5 985.5,-353.5 985.5,-237.5 985.5,-139.11 626.46,-126.88 503.92,-125.58"/>
<polygon fill="midnightblue" stroke="midnightblue" points="503.85,-122.07 493.82,-125.49 503.79,-129.07 503.85,-122.07"/>
</g>
<!-- Node24 -->
<g id="node24" class="node">
<title>Node24</title>
<g id="a_node24"><a xlink:href="_audio_sample_list_vector_8h.html" target="_top" xlink:title="The AudioSampleListVector specification defines the communication buffer structure for the block proc...">
<polygon fill="white" stroke="black" points="796,-399.5 796,-419.5 935,-419.5 935,-399.5 796,-399.5"/>
<text text-anchor="middle" x="865.5" y="-406.7" font-family="Helvetica,sans-Serif" font-size="11.00">AudioSampleListVector.h</text>
</a>
</g>
</g>
<!-- Node23&#45;&gt;Node24 -->
<g id="edge34" class="edge">
<title>Node23&#45;&gt;Node24</title>
<path fill="none" stroke="midnightblue" d="M965.68,-456.42C946.32,-447.54 916.61,-433.93 894.57,-423.82"/>
<polygon fill="midnightblue" stroke="midnightblue" points="895.89,-420.58 885.34,-419.6 892.98,-426.94 895.89,-420.58"/>
</g>
<!-- Node31 -->
<g id="node31" class="node">
<title>Node31</title>
<g id="a_node31"><a xlink:href="_object_8h.html" target="_top" xlink:title="The Object specification and body provides the root object type.">
<polygon fill="white" stroke="black" points="1013.5,-285.5 1013.5,-305.5 1071.5,-305.5 1071.5,-285.5 1013.5,-285.5"/>
<text text-anchor="middle" x="1042.5" y="-292.7" font-family="Helvetica,sans-Serif" font-size="11.00">Object.h</text>
</a>
</g>
</g>
<!-- Node23&#45;&gt;Node31 -->
<g id="edge45" class="edge">
<title>Node23&#45;&gt;Node31</title>
<path fill="none" stroke="midnightblue" d="M988.56,-456.41C997.53,-429.82 1023.87,-351.74 1036.11,-315.45"/>
<polygon fill="midnightblue" stroke="midnightblue" points="1039.54,-316.23 1039.42,-305.63 1032.91,-313.99 1039.54,-316.23"/>
</g>
<!-- Node32 -->
<g id="node32" class="node">
<title>Node32</title>
<g id="a_node32"><a xlink:href="_fluid_synth_settings_8h.html" target="_top" xlink:title="The FluidSynthSettings class specifies an object&#45;oriented wrapper around an underlying fluidsynth set...">
<polygon fill="white" stroke="black" points="1051.5,-399.5 1051.5,-419.5 1167.5,-419.5 1167.5,-399.5 1051.5,-399.5"/>
<text text-anchor="middle" x="1109.5" y="-406.7" font-family="Helvetica,sans-Serif" font-size="11.00">FluidSynthSettings.h</text>
</a>
</g>
</g>
<!-- Node23&#45;&gt;Node32 -->
<g id="edge46" class="edge">
<title>Node23&#45;&gt;Node32</title>
<path fill="none" stroke="midnightblue" d="M1005.98,-456.42C1026.08,-447.5 1056.96,-433.8 1079.77,-423.69"/>
<polygon fill="midnightblue" stroke="midnightblue" points="1081.27,-426.85 1088.99,-419.6 1078.43,-420.45 1081.27,-426.85"/>
</g>
<!-- Node25 -->
<g id="node25" class="node">
<title>Node25</title>
<g id="a_node25"><a xlink:href="_audio_sample_list_8h.html" target="_top" xlink:title="The AudioSampleList specification defines lists of audio samples with zero&#45;based arbitrary indexed ac...">
<polygon fill="white" stroke="black" points="624,-342.5 624,-362.5 731,-362.5 731,-342.5 624,-342.5"/>
<text text-anchor="middle" x="677.5" y="-349.7" font-family="Helvetica,sans-Serif" font-size="11.00">AudioSampleList.h</text>
</a>
</g>
</g>
<!-- Node24&#45;&gt;Node25 -->
<g id="edge35" class="edge">
<title>Node24&#45;&gt;Node25</title>
<path fill="none" stroke="midnightblue" d="M834.46,-399.42C802.66,-390.12 753.07,-375.61 718.16,-365.39"/>
<polygon fill="midnightblue" stroke="midnightblue" points="718.86,-361.95 708.28,-362.5 716.89,-368.67 718.86,-361.95"/>
</g>
<!-- Node30 -->
<g id="node30" class="node">
<title>Node30</title>
<g id="a_node30"><a xlink:href="_audio_sample_list_vector_8cpp-inc.html" target="_top" xlink:title="The AudioSampleListVector body implements the communication buffer structure for the block processing...">
<polygon fill="white" stroke="black" points="788,-342.5 788,-362.5 957,-362.5 957,-342.5 788,-342.5"/>
<text text-anchor="middle" x="872.5" y="-349.7" font-family="Helvetica,sans-Serif" font-size="11.00">AudioSampleListVector.cpp&#45;inc</text>
</a>
</g>
</g>
<!-- Node24&#45;&gt;Node30 -->
<g id="edge43" class="edge">
<title>Node24&#45;&gt;Node30</title>
<path fill="none" stroke="midnightblue" d="M866.66,-399.42C867.57,-392.22 868.89,-381.9 870.04,-372.86"/>
<polygon fill="midnightblue" stroke="midnightblue" points="873.53,-373.14 871.32,-362.78 866.58,-372.26 873.53,-373.14"/>
</g>
<!-- Node25&#45;&gt;Node22 -->
<g id="edge36" class="edge">
<title>Node25&#45;&gt;Node22</title>
<path fill="none" stroke="midnightblue" d="M677.64,-342.43C677.64,-321.47 675.9,-268.35 659.5,-228 655.34,-217.78 648.42,-207.71 641.98,-199.65"/>
<polygon fill="midnightblue" stroke="midnightblue" points="644.47,-197.17 635.35,-191.78 639.12,-201.68 644.47,-197.17"/>
</g>
<!-- Node26 -->
<g id="node26" class="node">
<title>Node26</title>
<g id="a_node26"><a xlink:href="_audio_sample_8h.html" target="_top" xlink:title="The AudioSample specification and body provides the definition of the audio sample (a real value).">
<polygon fill="white" stroke="black" points="393.5,-285.5 393.5,-305.5 483.5,-305.5 483.5,-285.5 393.5,-285.5"/>
<text text-anchor="middle" x="438.5" y="-292.7" font-family="Helvetica,sans-Serif" font-size="11.00">AudioSample.h</text>
</a>
</g>
</g>
<!-- Node25&#45;&gt;Node26 -->
<g id="edge37" class="edge">
<title>Node25&#45;&gt;Node26</title>
<path fill="none" stroke="midnightblue" d="M638.3,-342.48C597.06,-332.99 532.06,-318.03 487.47,-307.77"/>
<polygon fill="midnightblue" stroke="midnightblue" points="488.25,-304.36 477.72,-305.53 486.68,-311.18 488.25,-304.36"/>
</g>
<!-- Node27 -->
<g id="node27" class="node">
<title>Node27</title>
<g id="a_node27"><a xlink:href="_audio_sample_list_8cpp-inc.html" target="_top" xlink:title="The AudioSampleList body implements a simple list of audio samples (this is the effective code includ...">
<polygon fill="white" stroke="black" points="788,-285.5 788,-305.5 925,-305.5 925,-285.5 788,-285.5"/>
<text text-anchor="middle" x="856.5" y="-292.7" font-family="Helvetica,sans-Serif" font-size="11.00">AudioSampleList.cpp&#45;inc</text>
</a>
</g>
</g>
<!-- Node25&#45;&gt;Node27 -->
<g id="edge39" class="edge">
<title>Node25&#45;&gt;Node27</title>
<path fill="none" stroke="midnightblue" d="M707.06,-342.42C737.2,-333.15 784.14,-318.73 817.36,-308.53"/>
<polygon fill="midnightblue" stroke="midnightblue" points="818.66,-311.79 827.2,-305.5 816.61,-305.1 818.66,-311.79"/>
</g>
<!-- Node26&#45;&gt;Node18 -->
<g id="edge38" class="edge">
<title>Node26&#45;&gt;Node18</title>
<path fill="none" stroke="midnightblue" d="M411.58,-285.42C383.56,-275.96 339.59,-261.13 309.25,-250.89"/>
<polygon fill="midnightblue" stroke="midnightblue" points="310.13,-247.49 299.53,-247.61 307.89,-254.12 310.13,-247.49"/>
</g>
<!-- Node28 -->
<g id="node28" class="node">
<title>Node28</title>
<g id="a_node28"><a xlink:href="_my_array_8h.html" target="_top" xlink:title="The MyArray specification and body defines a generic array type for stack allocated arrays represente...">
<polygon fill="white" stroke="black" points="821,-228.5 821,-248.5 886,-248.5 886,-228.5 821,-228.5"/>
<text text-anchor="middle" x="853.5" y="-235.7" font-family="Helvetica,sans-Serif" font-size="11.00">MyArray.h</text>
</a>
</g>
</g>
<!-- Node27&#45;&gt;Node28 -->
<g id="edge40" class="edge">
<title>Node27&#45;&gt;Node28</title>
<path fill="none" stroke="midnightblue" d="M856,-285.42C855.61,-278.22 855.05,-267.9 854.56,-258.86"/>
<polygon fill="midnightblue" stroke="midnightblue" points="858.05,-258.57 854.01,-248.78 851.06,-258.96 858.05,-258.57"/>
</g>
<!-- Node28&#45;&gt;Node9 -->
<g id="edge42" class="edge">
<title>Node28&#45;&gt;Node9</title>
<path fill="none" stroke="midnightblue" d="M845.71,-228.37C832.51,-213.59 804.18,-184.69 773.5,-171 683.29,-130.76 565.07,-124.71 503.98,-124.6"/>
<polygon fill="midnightblue" stroke="midnightblue" points="503.59,-121.1 493.61,-124.64 503.62,-128.1 503.59,-121.1"/>
</g>
<!-- Node29 -->
<g id="node29" class="node">
<title>Node29</title>
<g id="a_node29"><a xlink:title=" ">
<polygon fill="white" stroke="#bfbfbf" points="828.5,-171.5 828.5,-191.5 878.5,-191.5 878.5,-171.5 828.5,-171.5"/>
<text text-anchor="middle" x="853.5" y="-178.7" font-family="Helvetica,sans-Serif" font-size="11.00">cstring</text>
</a>
</g>
</g>
<!-- Node28&#45;&gt;Node29 -->
<g id="edge41" class="edge">
<title>Node28&#45;&gt;Node29</title>
<path fill="none" stroke="midnightblue" d="M853.5,-228.42C853.5,-221.22 853.5,-210.9 853.5,-201.86"/>
<polygon fill="midnightblue" stroke="midnightblue" points="857,-201.78 853.5,-191.78 850,-201.78 857,-201.78"/>
</g>
<!-- Node33 -->
<g id="node33" class="node">
<title>Node33</title>
<g id="a_node33"><a xlink:href="_fluid_synth_8h.html" target="_top" xlink:title="The FluidSynth class specifies an object&#45;oriented wrapper around the fluidsynth library and also allo...">
<polygon fill="white" stroke="black" points="1061,-342.5 1061,-362.5 1138,-362.5 1138,-342.5 1061,-342.5"/>
<text text-anchor="middle" x="1099.5" y="-349.7" font-family="Helvetica,sans-Serif" font-size="11.00">FluidSynth.h</text>
</a>
</g>
</g>
<!-- Node32&#45;&gt;Node33 -->
<g id="edge47" class="edge">
<title>Node32&#45;&gt;Node33</title>
<path fill="none" stroke="midnightblue" d="M1107.85,-399.42C1106.54,-392.22 1104.66,-381.9 1103.02,-372.86"/>
<polygon fill="midnightblue" stroke="midnightblue" points="1106.42,-371.99 1101.19,-362.78 1099.53,-373.24 1106.42,-371.99"/>
</g>
<!-- Node33&#45;&gt;Node9 -->
<g id="edge48" class="edge">
<title>Node33&#45;&gt;Node9</title>
<path fill="none" stroke="midnightblue" d="M1097.86,-342.47C1091.69,-311.49 1066.7,-209.37 999.5,-171 956.79,-146.61 621.38,-131.55 503.94,-126.98"/>
<polygon fill="midnightblue" stroke="midnightblue" points="503.72,-123.47 493.6,-126.58 503.46,-130.46 503.72,-123.47"/>
</g>
<!-- Node33&#45;&gt;Node31 -->
<g id="edge49" class="edge">
<title>Node33&#45;&gt;Node31</title>
<path fill="none" stroke="midnightblue" d="M1090.09,-342.42C1081.8,-334.42 1069.54,-322.59 1059.54,-312.94"/>
<polygon fill="midnightblue" stroke="midnightblue" points="1061.74,-310.2 1052.12,-305.78 1056.88,-315.24 1061.74,-310.2"/>
</g>
<!-- Node34&#45;&gt;Node9 -->
<g id="edge55" class="edge">
<title>Node34&#45;&gt;Node9</title>
<path fill="none" stroke="midnightblue" d="M551.64,-465.61C630.66,-462.24 759.5,-443.01 759.5,-353.5 759.5,-353.5 759.5,-353.5 759.5,-237.5 759.5,-190.23 719.21,-191.26 676.5,-171 620.2,-144.29 548.12,-133.11 503.91,-128.54"/>
<polygon fill="midnightblue" stroke="midnightblue" points="504.13,-125.05 493.84,-127.56 503.45,-132.01 504.13,-125.05"/>
</g>
<!-- Node34&#45;&gt;Node18 -->
<g id="edge54" class="edge">
<title>Node34&#45;&gt;Node18</title>
<path fill="none" stroke="midnightblue" d="M455.07,-456.45C432.5,-449.42 404.01,-437.81 383.5,-420 330.28,-373.78 295.91,-294.64 282.23,-258.5"/>
<polygon fill="midnightblue" stroke="midnightblue" points="285.38,-256.93 278.65,-248.75 278.81,-259.34 285.38,-256.93"/>
</g>
<!-- Node34&#45;&gt;Node24 -->
<g id="edge51" class="edge">
<title>Node34&#45;&gt;Node24</title>
<path fill="none" stroke="midnightblue" d="M551.59,-456.66C617.62,-446.95 723.62,-431.37 793.9,-421.03"/>
<polygon fill="midnightblue" stroke="midnightblue" points="794.62,-424.46 804.01,-419.54 793.6,-417.54 794.62,-424.46"/>
</g>
<!-- Node35 -->
<g id="node35" class="node">
<title>Node35</title>
<g id="a_node35"><a xlink:href="_dictionary_8h.html" target="_top" xlink:title="The Dictionary specification defines maps from string keys to string values.">
<polygon fill="white" stroke="black" points="509.5,-399.5 509.5,-419.5 583.5,-419.5 583.5,-399.5 509.5,-399.5"/>
<text text-anchor="middle" x="546.5" y="-406.7" font-family="Helvetica,sans-Serif" font-size="11.00">Dictionary.h</text>
</a>
</g>
</g>
<!-- Node34&#45;&gt;Node35 -->
<g id="edge52" class="edge">
<title>Node34&#45;&gt;Node35</title>
<path fill="none" stroke="midnightblue" d="M500.58,-456.42C508.58,-448.42 520.41,-436.59 530.06,-426.94"/>
<polygon fill="midnightblue" stroke="midnightblue" points="532.62,-429.33 537.22,-419.78 527.67,-424.38 532.62,-429.33"/>
</g>
<!-- Node37 -->
<g id="node37" class="node">
<title>Node37</title>
<g id="a_node37"><a xlink:href="_midi_event_list_8h.html" target="_top" xlink:title="The MidiEventList specification defines lists of MIDI events with zero&#45;based arbitrary indexed access...">
<polygon fill="white" stroke="black" points="393,-399.5 393,-419.5 482,-419.5 482,-399.5 393,-399.5"/>
<text text-anchor="middle" x="437.5" y="-406.7" font-family="Helvetica,sans-Serif" font-size="11.00">MidiEventList.h</text>
</a>
</g>
</g>
<!-- Node34&#45;&gt;Node37 -->
<g id="edge56" class="edge">
<title>Node34&#45;&gt;Node37</title>
<path fill="none" stroke="midnightblue" d="M482.58,-456.42C474.74,-448.42 463.12,-436.59 453.64,-426.94"/>
<polygon fill="midnightblue" stroke="midnightblue" points="456.11,-424.46 446.61,-419.78 451.12,-429.37 456.11,-424.46"/>
</g>
<!-- Node36 -->
<g id="node36" class="node">
<title>Node36</title>
<g id="a_node36"><a xlink:title=" ">
<polygon fill="white" stroke="#bfbfbf" points="521.5,-342.5 521.5,-362.5 605.5,-362.5 605.5,-342.5 521.5,-342.5"/>
<text text-anchor="middle" x="563.5" y="-349.7" font-family="Helvetica,sans-Serif" font-size="11.00">GenericMap.h</text>
</a>
</g>
</g>
<!-- Node35&#45;&gt;Node36 -->
<g id="edge53" class="edge">
<title>Node35&#45;&gt;Node36</title>
<path fill="none" stroke="midnightblue" d="M549.31,-399.42C551.56,-392.14 554.79,-381.67 557.61,-372.57"/>
<polygon fill="midnightblue" stroke="midnightblue" points="561.02,-373.37 560.63,-362.78 554.33,-371.3 561.02,-373.37"/>
</g>
<!-- Node37&#45;&gt;Node21 -->
<g id="edge57" class="edge">
<title>Node37&#45;&gt;Node21</title>
<path fill="none" stroke="midnightblue" d="M420.65,-399.43C408.09,-391.63 391.89,-379.09 384.5,-363 370.03,-331.5 369.67,-316.34 384.5,-285 404.21,-243.34 450.08,-212.95 480.43,-196.51"/>
<polygon fill="midnightblue" stroke="midnightblue" points="482.44,-199.41 489.68,-191.67 479.2,-193.2 482.44,-199.41"/>
</g>
<!-- Node37&#45;&gt;Node22 -->
<g id="edge58" class="edge">
<title>Node37&#45;&gt;Node22</title>
<path fill="none" stroke="midnightblue" d="M445.84,-399.07C458.82,-384.9 485.21,-358.08 512.5,-342 553.92,-317.6 584.87,-343.85 614.5,-306 638.09,-275.87 634.72,-228.1 630.45,-201.67"/>
<polygon fill="midnightblue" stroke="midnightblue" points="633.88,-200.97 628.64,-191.76 626.99,-202.23 633.88,-200.97"/>
</g>
<!-- Node38 -->
<g id="node38" class="node">
<title>Node38</title>
<g id="a_node38"><a xlink:href="_midi_event_8h.html" target="_top" xlink:title="The MidiEvent specification defines a single MIDI event and the MIDI event kind enumeration.">
<polygon fill="white" stroke="black" points="393.5,-342.5 393.5,-362.5 465.5,-362.5 465.5,-342.5 393.5,-342.5"/>
<text text-anchor="middle" x="429.5" y="-349.7" font-family="Helvetica,sans-Serif" font-size="11.00">MidiEvent.h</text>
</a>
</g>
</g>
<!-- Node37&#45;&gt;Node38 -->
<g id="edge59" class="edge">
<title>Node37&#45;&gt;Node38</title>
<path fill="none" stroke="midnightblue" d="M436.18,-399.42C435.13,-392.22 433.63,-381.9 432.32,-372.86"/>
<polygon fill="midnightblue" stroke="midnightblue" points="435.75,-372.17 430.85,-362.78 428.83,-373.18 435.75,-372.17"/>
</g>
<!-- Node38&#45;&gt;Node2 -->
<g id="edge60" class="edge">
<title>Node38&#45;&gt;Node2</title>
<path fill="none" stroke="midnightblue" d="M396.31,-342.42C362.06,-333.05 308.52,-318.4 271.15,-308.17"/>
<polygon fill="midnightblue" stroke="midnightblue" points="271.64,-304.68 261.07,-305.41 269.8,-311.43 271.64,-304.68"/>
</g>
<!-- Node38&#45;&gt;Node19 -->
<g id="edge61" class="edge">
<title>Node38&#45;&gt;Node19</title>
<path fill="none" stroke="midnightblue" d="M450.97,-342.46C465.61,-335.02 483.84,-322.94 492.5,-306 496.75,-297.69 496.18,-293.58 492.5,-285 487.72,-273.87 432.07,-224.12 402.59,-198.25"/>
<polygon fill="midnightblue" stroke="midnightblue" points="404.86,-195.58 395.03,-191.63 400.25,-200.85 404.86,-195.58"/>
</g>
<!-- Node38&#45;&gt;Node31 -->
<g id="edge67" class="edge">
<title>Node38&#45;&gt;Node31</title>
<path fill="none" stroke="midnightblue" d="M465.84,-347.11C480.34,-345.42 497.2,-343.53 512.5,-342 699.81,-323.3 746.97,-322.25 934.5,-306 957.18,-304.04 982.53,-301.81 1002.96,-300"/>
<polygon fill="midnightblue" stroke="midnightblue" points="1003.51,-303.47 1013.17,-299.1 1002.9,-296.5 1003.51,-303.47"/>
</g>
<!-- Node39 -->
<g id="node39" class="node">
<title>Node39</title>
<g id="a_node39"><a xlink:href="_byte_list_8h.html" target="_top" xlink:title="The ByteList specification defines lists of byte values with zero&#45;based arbitrary indexed access to p...">
<polygon fill="white" stroke="black" points="540,-285.5 540,-305.5 605,-305.5 605,-285.5 540,-285.5"/>
<text text-anchor="middle" x="572.5" y="-292.7" font-family="Helvetica,sans-Serif" font-size="11.00">ByteList.h</text>
</a>
</g>
</g>
<!-- Node38&#45;&gt;Node39 -->
<g id="edge62" class="edge">
<title>Node38&#45;&gt;Node39</title>
<path fill="none" stroke="midnightblue" d="M453.11,-342.42C476.61,-333.38 512.87,-319.44 539.26,-309.28"/>
<polygon fill="midnightblue" stroke="midnightblue" points="540.77,-312.45 548.85,-305.6 538.26,-305.92 540.77,-312.45"/>
</g>
<!-- Node39&#45;&gt;Node16 -->
<g id="edge64" class="edge">
<title>Node39&#45;&gt;Node16</title>
<path fill="none" stroke="midnightblue" d="M549.22,-285.35C526.49,-276.34 490.97,-262.08 460.5,-249 419.1,-231.24 371.71,-209.55 342.18,-195.88"/>
<polygon fill="midnightblue" stroke="midnightblue" points="343.44,-192.6 332.89,-191.56 340.49,-198.95 343.44,-192.6"/>
</g>
<!-- Node39&#45;&gt;Node20 -->
<g id="edge66" class="edge">
<title>Node39&#45;&gt;Node20</title>
<path fill="none" stroke="midnightblue" d="M561.44,-285.42C551.51,-277.27 536.71,-265.12 524.83,-255.37"/>
<polygon fill="midnightblue" stroke="midnightblue" points="526.75,-252.42 516.8,-248.78 522.31,-257.83 526.75,-252.42"/>
</g>
<!-- Node39&#45;&gt;Node21 -->
<g id="edge63" class="edge">
<title>Node39&#45;&gt;Node21</title>
<path fill="none" stroke="midnightblue" d="M570.55,-285.42C567.44,-272.16 560.56,-247 549.5,-228 543.39,-217.5 534.65,-207.21 526.9,-199.08"/>
<polygon fill="midnightblue" stroke="midnightblue" points="529.14,-196.37 519.61,-191.75 524.17,-201.31 529.14,-196.37"/>
</g>
<!-- Node39&#45;&gt;Node22 -->
<g id="edge65" class="edge">
<title>Node39&#45;&gt;Node22</title>
<path fill="none" stroke="midnightblue" d="M576.92,-285.33C585.78,-266.96 605.87,-225.29 617.57,-201.01"/>
<polygon fill="midnightblue" stroke="midnightblue" points="620.83,-202.32 622.02,-191.79 614.52,-199.28 620.83,-202.32"/>
</g>
</g>
</svg>
        <g id="navigator" transform="translate(0 0)" fill="#404254">
                <rect fill="#f2f5e9" fill-opacity="0.5" stroke="#606060" stroke-width=".5" x="0" y="0" width="60" height="60"/>
                <use id="zoomplus" xlink:href="#zoomPlus" x="17" y="9" onmousedown="handleZoom(evt,'in')"/>
                <use id="zoomminus" xlink:href="#zoomMin" x="42" y="9" onmousedown="handleZoom(evt,'out')"/>
                <use id="reset" xlink:href="#resetDef" x="30" y="36" onmousedown="handleReset()"/>
                <g id="arrowUp" xlink:href="#dirArrow" transform="translate(30 24)" onmousedown="handlePan(0,-1)">
                  <use xlink:href="#rim" fill="#404040">
                        <set attributeName="fill" to="#808080" begin="arrowUp.mouseover" end="arrowUp.mouseout"/>
                  </use>
                  <path fill="none" stroke="white" stroke-width="1.5" d="M0,-3.0v7 M-2.5,-0.5L0,-3.0L2.5,-0.5"/>
                </g>
                <g id="arrowRight" xlink:href="#dirArrow" transform="rotate(90) translate(36 -43)" onmousedown="handlePan(1,0)">
                  <use xlink:href="#rim" fill="#404040">
                        <set attributeName="fill" to="#808080" begin="arrowRight.mouseover" end="arrowRight.mouseout"/>
                  </use>
                  <path fill="none" stroke="white" stroke-width="1.5" d="M0,-3.0v7 M-2.5,-0.5L0,-3.0L2.5,-0.5"/>
                </g>
                <g id="arrowDown" xlink:href="#dirArrow" transform="rotate(180) translate(-30 -48)" onmousedown="handlePan(0,1)">
                  <use xlink:href="#rim" fill="#404040">
                        <set attributeName="fill" to="#808080" begin="arrowDown.mouseover" end="arrowDown.mouseout"/>
                  </use>
                  <path fill="none" stroke="white" stroke-width="1.5" d="M0,-3.0v7 M-2.5,-0.5L0,-3.0L2.5,-0.5"/>
                </g>
                <g id="arrowLeft" xlink:href="#dirArrow" transform="rotate(270) translate(-36 17)" onmousedown="handlePan(-1,0)">
                  <use xlink:href="#rim" fill="#404040">
                        <set attributeName="fill" to="#808080" begin="arrowLeft.mouseover" end="arrowLeft.mouseout"/>
                  </use>
                  <path fill="none" stroke="white" stroke-width="1.5" d="M0,-3.0v7 M-2.5,-0.5L0,-3.0L2.5,-0.5"/>
                </g>
        </g>
        <svg viewBox="0 0 15 15" width="100%" height="30px" preserveAspectRatio="xMaxYMin meet">
         <g id="arrow_out" transform="scale(0.3 0.3)">
          <a xlink:href="_midi_event_converter_8cpp__incl_org.svg" target="_base">
           <rect id="button" ry="5" rx="5" y="6" x="6" height="38" width="38"
                fill="#f2f5e9" fill-opacity="0.5" stroke="#606060" stroke-width="1.0"/>
           <path id="arrow"
             d="M 11.500037,31.436501 C 11.940474,20.09759 22.043105,11.32322 32.158766,21.979434 L 37.068811,17.246167 C 37.068811,17.246167 37.088388,32 37.088388,32 L 22.160133,31.978069 C 22.160133,31.978069 26.997745,27.140456 26.997745,27.140456 C 18.528582,18.264221 13.291696,25.230495 11.500037,31.436501 z"
             style="fill:#404040;"/>
          </a>
         </g>
        </svg>
</svg>
