<?xml version="1.0" encoding="UTF-8" standalone="no"?>
<!DOCTYPE svg PUBLIC "-//W3C//DTD SVG 1.1//EN"
 "http://www.w3.org/Graphics/SVG/1.1/DTD/svg11.dtd">
<!-- Generated by graphviz version 2.47.1 (20210417.1919)
 -->
<!-- Title: MyString.cpp Pages: 1 -->
<svg width="449pt" height="412pt"
 viewBox="0.00 0.00 449.00 412.00" xmlns="http://www.w3.org/2000/svg" xmlns:xlink="http://www.w3.org/1999/xlink">

<svg id="main" version="1.1" xmlns="http://www.w3.org/2000/svg" xmlns:xlink="http://www.w3.org/1999/xlink" xml:space="preserve">

<style type="text/css"><![CDATA[
.node, .edge {opacity: 0.7;}
.node.selected, .edge.selected {opacity: 1;}
.edge:hover path { stroke: red; }
.edge:hover polygon { stroke: red; fill: red; }
]]></style>
<script type="application/ecmascript" xlink:href="svg.min.js"/>
<svg id="graph" class="graph">
<g id="graph0" class="graph" transform="scale(1 1) rotate(0) translate(4 408)">
<title>MyString.cpp</title>
<!-- Node1 -->
<g id="Node000001" class="node">
<title>Node1</title>
<g id="a_Node000001"><a xlink:title="The String body implements a standard string type.">
<polygon fill="#999999" stroke="#666666" points="349.5,-404 275.5,-404 275.5,-385 349.5,-385 349.5,-404"/>
<text text-anchor="middle" x="312.5" y="-392" font-family="Helvetica,sans-Serif" font-size="10.00">MyString.cpp</text>
</a>
</g>
</g>
<!-- Node2 -->
<g id="Node000002" class="node">
<title>Node2</title>
<g id="a_Node000002"><a xlink:href="_my_string_8h.html" target="_top" xlink:title="The String specification defines a standard string type.">
<polygon fill="white" stroke="#666666" points="402.5,-74 338.5,-74 338.5,-55 402.5,-55 402.5,-74"/>
<text text-anchor="middle" x="370.5" y="-62" font-family="Helvetica,sans-Serif" font-size="10.00">MyString.h</text>
</a>
</g>
</g>
<!-- Node1&#45;&gt;Node2 -->
<g id="edge1_Node000001_Node000002" class="edge">
<title>Node1&#45;&gt;Node2</title>
<g id="a_edge1_Node000001_Node000002"><a xlink:title=" ">
<path fill="none" stroke="#63b8ff" d="M324.84,-384.99C347.06,-368.55 391.5,-330.1 391.5,-285.5 391.5,-285.5 391.5,-285.5 391.5,-173.5 391.5,-141.46 382.48,-105.03 376.27,-83.73"/>
<polygon fill="#63b8ff" stroke="#63b8ff" points="379.59,-82.62 373.33,-74.07 372.89,-84.65 379.59,-82.62"/>
</a>
</g>
</g>
<!-- Node5 -->
<g id="Node000005" class="node">
<title>Node5</title>
<g id="a_Node000005"><a xlink:href="_string_util_8h.html" target="_top" xlink:title="The StringUtil specification defines several string routines not included in the standard C++ library...">
<polygon fill="white" stroke="#666666" points="272,-349 207,-349 207,-330 272,-330 272,-349"/>
<text text-anchor="middle" x="239.5" y="-337" font-family="Helvetica,sans-Serif" font-size="10.00">StringUtil.h</text>
</a>
</g>
</g>
<!-- Node1&#45;&gt;Node5 -->
<g id="edge4_Node000001_Node000005" class="edge">
<title>Node1&#45;&gt;Node5</title>
<g id="a_edge4_Node000001_Node000005"><a xlink:title=" ">
<path fill="none" stroke="#63b8ff" d="M300.77,-384.98C289.77,-377 273.08,-364.88 259.9,-355.31"/>
<polygon fill="#63b8ff" stroke="#63b8ff" points="261.59,-352.21 251.44,-349.17 257.48,-357.88 261.59,-352.21"/>
</a>
</g>
</g>
<!-- Node3 -->
<g id="Node000003" class="node">
<title>Node3</title>
<g id="a_Node000003"><a xlink:title=" ">
<polygon fill="#e0e0e0" stroke="#999999" points="338,-19 297,-19 297,0 338,0 338,-19"/>
<text text-anchor="middle" x="317.5" y="-7" font-family="Helvetica,sans-Serif" font-size="10.00">string</text>
</a>
</g>
</g>
<!-- Node2&#45;&gt;Node3 -->
<g id="edge2_Node000002_Node000003" class="edge">
<title>Node2&#45;&gt;Node3</title>
<g id="a_edge2_Node000002_Node000003"><a xlink:title=" ">
<path fill="none" stroke="#63b8ff" d="M361.75,-54.75C354.03,-47.03 342.6,-35.6 333.28,-26.28"/>
<polygon fill="#63b8ff" stroke="#63b8ff" points="335.64,-23.69 326.09,-19.09 330.69,-28.64 335.64,-23.69"/>
</a>
</g>
</g>
<!-- Node4 -->
<g id="Node000004" class="node">
<title>Node4</title>
<g id="a_Node000004"><a xlink:href="_global_macros_8h.html" target="_top" xlink:title="The GlobalMacros specification defines simple macros (e.g. for parameter modes).">
<polygon fill="white" stroke="#666666" points="441,-19 356,-19 356,0 441,0 441,-19"/>
<text text-anchor="middle" x="398.5" y="-7" font-family="Helvetica,sans-Serif" font-size="10.00">GlobalMacros.h</text>
</a>
</g>
</g>
<!-- Node2&#45;&gt;Node4 -->
<g id="edge3_Node000002_Node000004" class="edge">
<title>Node2&#45;&gt;Node4</title>
<g id="a_edge3_Node000002_Node000004"><a xlink:title=" ">
<path fill="none" stroke="#63b8ff" d="M375.12,-54.75C378.96,-47.49 384.52,-36.95 389.26,-27.98"/>
<polygon fill="#63b8ff" stroke="#63b8ff" points="392.39,-29.57 393.96,-19.09 386.2,-26.3 392.39,-29.57"/>
</a>
</g>
</g>
<!-- Node6 -->
<g id="Node000006" class="node">
<title>Node6</title>
<g id="a_Node000006"><a xlink:href="_boolean_8h.html" target="_top" xlink:title="The Boolean specification and body provides a value object type for boolean values.">
<polygon fill="white" stroke="#666666" points="363.5,-184 303.5,-184 303.5,-165 363.5,-165 363.5,-184"/>
<text text-anchor="middle" x="333.5" y="-172" font-family="Helvetica,sans-Serif" font-size="10.00">Boolean.h</text>
</a>
</g>
</g>
<!-- Node5&#45;&gt;Node6 -->
<g id="edge5_Node000005_Node000006" class="edge">
<title>Node5&#45;&gt;Node6</title>
<g id="a_edge5_Node000005_Node000006"><a xlink:title=" ">
<path fill="none" stroke="#63b8ff" d="M272.27,-331.33C292.42,-325.07 316.75,-313.78 329.5,-294 349.14,-263.54 343.66,-218.94 338.32,-194.05"/>
<polygon fill="#63b8ff" stroke="#63b8ff" points="341.68,-193.04 335.97,-184.12 334.87,-194.66 341.68,-193.04"/>
</a>
</g>
</g>
<!-- Node7 -->
<g id="Node000007" class="node">
<title>Node7</title>
<g id="a_Node000007"><a xlink:href="_character_8h.html" target="_top" xlink:title="The Character specification and body provides a value object type for character values.">
<polygon fill="white" stroke="#666666" points="67,-239 0,-239 0,-220 67,-220 67,-239"/>
<text text-anchor="middle" x="33.5" y="-227" font-family="Helvetica,sans-Serif" font-size="10.00">Character.h</text>
</a>
</g>
</g>
<!-- Node5&#45;&gt;Node7 -->
<g id="edge7_Node000005_Node000007" class="edge">
<title>Node5&#45;&gt;Node7</title>
<g id="a_edge7_Node000005_Node000007"><a xlink:title=" ">
<path fill="none" stroke="#63b8ff" d="M206.97,-335.48C173.1,-331 119.75,-320.11 81.5,-294 64.44,-282.35 50.93,-262.65 42.65,-248.28"/>
<polygon fill="#63b8ff" stroke="#63b8ff" points="45.64,-246.44 37.77,-239.34 39.49,-249.8 45.64,-246.44"/>
</a>
</g>
</g>
<!-- Node15 -->
<g id="Node000015" class="node">
<title>Node15</title>
<g id="a_Node000015"><a xlink:href="_object_8h.html" target="_top" xlink:title="The Object specification and body provides the root object type.">
<polygon fill="white" stroke="#666666" points="144,-294 91,-294 91,-275 144,-275 144,-294"/>
<text text-anchor="middle" x="117.5" y="-282" font-family="Helvetica,sans-Serif" font-size="10.00">Object.h</text>
</a>
</g>
</g>
<!-- Node5&#45;&gt;Node15 -->
<g id="edge19_Node000005_Node000015" class="edge">
<title>Node5&#45;&gt;Node15</title>
<g id="a_edge19_Node000005_Node000015"><a xlink:title=" ">
<path fill="none" stroke="#63b8ff" d="M219.9,-329.98C200.18,-321.42 169.55,-308.11 146.92,-298.28"/>
<polygon fill="#63b8ff" stroke="#63b8ff" points="148.02,-294.94 137.46,-294.17 145.24,-301.37 148.02,-294.94"/>
</a>
</g>
</g>
<!-- Node16 -->
<g id="Node000016" class="node">
<title>Node16</title>
<g id="a_Node000016"><a xlink:href="_percentage_8h.html" target="_top" xlink:title="The Percentage specification and body provides a simple percentage type.">
<polygon fill="white" stroke="#666666" points="320.5,-294 246.5,-294 246.5,-275 320.5,-275 320.5,-294"/>
<text text-anchor="middle" x="283.5" y="-282" font-family="Helvetica,sans-Serif" font-size="10.00">Percentage.h</text>
</a>
</g>
</g>
<!-- Node5&#45;&gt;Node16 -->
<g id="edge20_Node000005_Node000016" class="edge">
<title>Node5&#45;&gt;Node16</title>
<g id="a_edge20_Node000005_Node000016"><a xlink:title=" ">
<path fill="none" stroke="#63b8ff" d="M246.77,-329.75C253.04,-322.18 262.29,-311.05 269.93,-301.84"/>
<polygon fill="#63b8ff" stroke="#63b8ff" points="272.67,-304.02 276.37,-294.09 267.29,-299.55 272.67,-304.02"/>
</a>
</g>
</g>
<!-- Node19 -->
<g id="Node000019" class="node">
<title>Node19</title>
<g id="a_Node000019"><a xlink:href="_string_list_8h.html" target="_top" xlink:title="The StringList specification defines lists of string values with zero&#45;based arbitrary indexed access ...">
<polygon fill="white" stroke="#666666" points="228.5,-294 162.5,-294 162.5,-275 228.5,-275 228.5,-294"/>
<text text-anchor="middle" x="195.5" y="-282" font-family="Helvetica,sans-Serif" font-size="10.00">StringList.h</text>
</a>
</g>
</g>
<!-- Node5&#45;&gt;Node19 -->
<g id="edge26_Node000005_Node000019" class="edge">
<title>Node5&#45;&gt;Node19</title>
<g id="a_edge26_Node000005_Node000019"><a xlink:title=" ">
<path fill="none" stroke="#63b8ff" d="M232.23,-329.75C225.96,-322.18 216.71,-311.05 209.07,-301.84"/>
<polygon fill="#63b8ff" stroke="#63b8ff" points="211.71,-299.55 202.63,-294.09 206.33,-304.02 211.71,-299.55"/>
</a>
</g>
</g>
<!-- Node6&#45;&gt;Node2 -->
<g id="edge6_Node000006_Node000002" class="edge">
<title>Node6&#45;&gt;Node2</title>
<g id="a_edge6_Node000006_Node000002"><a xlink:title=" ">
<path fill="none" stroke="#63b8ff" d="M336.53,-164.66C342.57,-147.01 356.25,-107.09 364.29,-83.64"/>
<polygon fill="#63b8ff" stroke="#63b8ff" points="367.6,-84.75 367.53,-74.16 360.98,-82.48 367.6,-84.75"/>
</a>
</g>
</g>
<!-- Node8 -->
<g id="Node000008" class="node">
<title>Node8</title>
<g id="a_Node000008"><a xlink:title=" ">
<polygon fill="#e0e0e0" stroke="#999999" points="88.5,-74 44.5,-74 44.5,-55 88.5,-55 88.5,-74"/>
<text text-anchor="middle" x="66.5" y="-62" font-family="Helvetica,sans-Serif" font-size="10.00">cmath</text>
</a>
</g>
</g>
<!-- Node7&#45;&gt;Node8 -->
<g id="edge8_Node000007_Node000008" class="edge">
<title>Node7&#45;&gt;Node8</title>
<g id="a_edge8_Node000007_Node000008"><a xlink:title=" ">
<path fill="none" stroke="#63b8ff" d="M35.27,-219.74C40.44,-194.2 55.58,-119.43 62.71,-84.23"/>
<polygon fill="#63b8ff" stroke="#63b8ff" points="66.16,-84.8 64.72,-74.31 59.3,-83.41 66.16,-84.8"/>
</a>
</g>
</g>
<!-- Node9 -->
<g id="Node000009" class="node">
<title>Node9</title>
<g id="a_Node000009"><a xlink:href="_byte_8h.html" target="_top" xlink:title="The Byte specification and body provides a value object type for byte values.">
<polygon fill="white" stroke="#666666" points="126,-184 81,-184 81,-165 126,-165 126,-184"/>
<text text-anchor="middle" x="103.5" y="-172" font-family="Helvetica,sans-Serif" font-size="10.00">Byte.h</text>
</a>
</g>
</g>
<!-- Node7&#45;&gt;Node9 -->
<g id="edge9_Node000007_Node000009" class="edge">
<title>Node7&#45;&gt;Node9</title>
<g id="a_edge9_Node000007_Node000009"><a xlink:title=" ">
<path fill="none" stroke="#63b8ff" d="M44.75,-219.98C55.3,-212 71.3,-199.88 83.94,-190.31"/>
<polygon fill="#63b8ff" stroke="#63b8ff" points="86.19,-193 92.05,-184.17 81.96,-187.42 86.19,-193"/>
</a>
</g>
</g>
<!-- Node9&#45;&gt;Node8 -->
<g id="edge10_Node000009_Node000008" class="edge">
<title>Node9&#45;&gt;Node8</title>
<g id="a_edge10_Node000009_Node000008"><a xlink:title=" ">
<path fill="none" stroke="#63b8ff" d="M100.47,-164.66C94.43,-147.01 80.75,-107.09 72.71,-83.64"/>
<polygon fill="#63b8ff" stroke="#63b8ff" points="76.02,-82.48 69.47,-74.16 69.4,-84.75 76.02,-82.48"/>
</a>
</g>
</g>
<!-- Node10 -->
<g id="Node000010" class="node">
<title>Node10</title>
<g id="a_Node000010"><a xlink:title=" ">
<polygon fill="#e0e0e0" stroke="#999999" points="145.5,-129 99.5,-129 99.5,-110 145.5,-110 145.5,-129"/>
<text text-anchor="middle" x="122.5" y="-117" font-family="Helvetica,sans-Serif" font-size="10.00">cstdint</text>
</a>
</g>
</g>
<!-- Node9&#45;&gt;Node10 -->
<g id="edge11_Node000009_Node000010" class="edge">
<title>Node9&#45;&gt;Node10</title>
<g id="a_edge11_Node000009_Node000010"><a xlink:title=" ">
<path fill="none" stroke="#63b8ff" d="M106.64,-164.75C109.18,-157.65 112.86,-147.4 116.03,-138.56"/>
<polygon fill="#63b8ff" stroke="#63b8ff" points="119.34,-139.68 119.42,-129.09 112.75,-137.32 119.34,-139.68"/>
</a>
</g>
</g>
<!-- Node11 -->
<g id="Node000011" class="node">
<title>Node11</title>
<g id="a_Node000011"><a xlink:href="_natural_8h.html" target="_top" xlink:title="The Natural specification and body provides a value object type for naturals (positive integers with ...">
<polygon fill="white" stroke="#666666" points="270.5,-129 214.5,-129 214.5,-110 270.5,-110 270.5,-129"/>
<text text-anchor="middle" x="242.5" y="-117" font-family="Helvetica,sans-Serif" font-size="10.00">Natural.h</text>
</a>
</g>
</g>
<!-- Node9&#45;&gt;Node11 -->
<g id="edge12_Node000009_Node000011" class="edge">
<title>Node9&#45;&gt;Node11</title>
<g id="a_edge12_Node000009_Node000011"><a xlink:title=" ">
<path fill="none" stroke="#63b8ff" d="M125.83,-164.98C148.7,-156.27 184.46,-142.63 210.36,-132.75"/>
<polygon fill="#63b8ff" stroke="#63b8ff" points="211.66,-136 219.76,-129.17 209.17,-129.46 211.66,-136"/>
</a>
</g>
</g>
<!-- Node11&#45;&gt;Node2 -->
<g id="edge18_Node000011_Node000002" class="edge">
<title>Node11&#45;&gt;Node2</title>
<g id="a_edge18_Node000011_Node000002"><a xlink:title=" ">
<path fill="none" stroke="#63b8ff" d="M263.07,-109.98C283.93,-101.34 316.47,-87.87 340.27,-78.02"/>
<polygon fill="#63b8ff" stroke="#63b8ff" points="341.66,-81.23 349.56,-74.17 338.98,-74.76 341.66,-81.23"/>
</a>
</g>
</g>
<!-- Node11&#45;&gt;Node8 -->
<g id="edge13_Node000011_Node000008" class="edge">
<title>Node11&#45;&gt;Node8</title>
<g id="a_edge13_Node000011_Node000008"><a xlink:title=" ">
<path fill="none" stroke="#63b8ff" d="M214.22,-109.98C182.52,-100.44 131.24,-85 98.2,-75.05"/>
<polygon fill="#63b8ff" stroke="#63b8ff" points="99.16,-71.68 88.58,-72.15 97.14,-78.38 99.16,-71.68"/>
</a>
</g>
</g>
<!-- Node12 -->
<g id="Node000012" class="node">
<title>Node12</title>
<g id="a_Node000012"><a xlink:href="_assertion_8h.html" target="_top" xlink:title="The Assertion specification defines macros for pre&#45; and postconditions in functions or methods.">
<polygon fill="white" stroke="#666666" points="282.5,-74 216.5,-74 216.5,-55 282.5,-55 282.5,-74"/>
<text text-anchor="middle" x="249.5" y="-62" font-family="Helvetica,sans-Serif" font-size="10.00">Assertion.h</text>
</a>
</g>
</g>
<!-- Node11&#45;&gt;Node12 -->
<g id="edge14_Node000011_Node000012" class="edge">
<title>Node11&#45;&gt;Node12</title>
<g id="a_edge14_Node000011_Node000012"><a xlink:title=" ">
<path fill="none" stroke="#63b8ff" d="M243.66,-109.75C244.57,-102.8 245.89,-92.85 247.04,-84.13"/>
<polygon fill="#63b8ff" stroke="#63b8ff" points="250.53,-84.46 248.37,-74.09 243.59,-83.54 250.53,-84.46"/>
</a>
</g>
</g>
<!-- Node14 -->
<g id="Node000014" class="node">
<title>Node14</title>
<g id="a_Node000014"><a xlink:title=" ">
<polygon fill="#e0e0e0" stroke="#999999" points="198.5,-74 106.5,-74 106.5,-55 198.5,-55 198.5,-74"/>
<text text-anchor="middle" x="152.5" y="-62" font-family="Helvetica,sans-Serif" font-size="10.00">GenericNumber.h</text>
</a>
</g>
</g>
<!-- Node11&#45;&gt;Node14 -->
<g id="edge17_Node000011_Node000014" class="edge">
<title>Node11&#45;&gt;Node14</title>
<g id="a_edge17_Node000011_Node000014"><a xlink:title=" ">
<path fill="none" stroke="#63b8ff" d="M228.04,-109.98C214.08,-101.77 192.71,-89.18 176.25,-79.49"/>
<polygon fill="#63b8ff" stroke="#63b8ff" points="177.62,-76.23 167.22,-74.17 174.06,-82.26 177.62,-76.23"/>
</a>
</g>
</g>
<!-- Node12&#45;&gt;Node3 -->
<g id="edge16_Node000012_Node000003" class="edge">
<title>Node12&#45;&gt;Node3</title>
<g id="a_edge16_Node000012_Node000003"><a xlink:title=" ">
<path fill="none" stroke="#63b8ff" d="M260.43,-54.98C270.58,-47.07 285.92,-35.11 298.15,-25.58"/>
<polygon fill="#63b8ff" stroke="#63b8ff" points="300.64,-28.08 306.38,-19.17 296.34,-22.56 300.64,-28.08"/>
</a>
</g>
</g>
<!-- Node13 -->
<g id="Node000013" class="node">
<title>Node13</title>
<g id="a_Node000013"><a xlink:title=" ">
<polygon fill="#e0e0e0" stroke="#999999" points="279,-19 220,-19 220,0 279,0 279,-19"/>
<text text-anchor="middle" x="249.5" y="-7" font-family="Helvetica,sans-Serif" font-size="10.00">stdexcept</text>
</a>
</g>
</g>
<!-- Node12&#45;&gt;Node13 -->
<g id="edge15_Node000012_Node000013" class="edge">
<title>Node12&#45;&gt;Node13</title>
<g id="a_edge15_Node000012_Node000013"><a xlink:title=" ">
<path fill="none" stroke="#63b8ff" d="M249.5,-54.75C249.5,-47.8 249.5,-37.85 249.5,-29.13"/>
<polygon fill="#63b8ff" stroke="#63b8ff" points="253,-29.09 249.5,-19.09 246,-29.09 253,-29.09"/>
</a>
</g>
</g>
<!-- Node17 -->
<g id="Node000017" class="node">
<title>Node17</title>
<g id="a_Node000017"><a xlink:href="_real_8h.html" target="_top" xlink:title="The Real specification defines a value object type for real values.">
<polygon fill="white" stroke="#666666" points="313.5,-239 269.5,-239 269.5,-220 313.5,-220 313.5,-239"/>
<text text-anchor="middle" x="291.5" y="-227" font-family="Helvetica,sans-Serif" font-size="10.00">Real.h</text>
</a>
</g>
</g>
<!-- Node16&#45;&gt;Node17 -->
<g id="edge21_Node000016_Node000017" class="edge">
<title>Node16&#45;&gt;Node17</title>
<g id="a_edge21_Node000016_Node000017"><a xlink:title=" ">
<path fill="none" stroke="#63b8ff" d="M284.82,-274.75C285.87,-267.8 287.37,-257.85 288.69,-249.13"/>
<polygon fill="#63b8ff" stroke="#63b8ff" points="292.17,-249.5 290.2,-239.09 285.25,-248.45 292.17,-249.5"/>
</a>
</g>
</g>
<!-- Node18 -->
<g id="Node000018" class="node">
<title>Node18</title>
<g id="a_Node000018"><a xlink:href="_integer_8h.html" target="_top" xlink:title="The Integer specification and body provides a value object type for ints.">
<polygon fill="white" stroke="#666666" points="273.5,-184 219.5,-184 219.5,-165 273.5,-165 273.5,-184"/>
<text text-anchor="middle" x="246.5" y="-172" font-family="Helvetica,sans-Serif" font-size="10.00">Integer.h</text>
</a>
</g>
</g>
<!-- Node17&#45;&gt;Node18 -->
<g id="edge22_Node000017_Node000018" class="edge">
<title>Node17&#45;&gt;Node18</title>
<g id="a_edge22_Node000017_Node000018"><a xlink:title=" ">
<path fill="none" stroke="#63b8ff" d="M284.07,-219.75C277.65,-212.18 268.19,-201.05 260.38,-191.84"/>
<polygon fill="#63b8ff" stroke="#63b8ff" points="262.93,-189.45 253.79,-184.09 257.6,-193.98 262.93,-189.45"/>
</a>
</g>
</g>
<!-- Node18&#45;&gt;Node8 -->
<g id="edge23_Node000018_Node000008" class="edge">
<title>Node18&#45;&gt;Node8</title>
<g id="a_edge23_Node000018_Node000008"><a xlink:title=" ">
<path fill="none" stroke="#63b8ff" d="M235.21,-164.96C218.18,-152.26 184.7,-127.94 154.5,-110 135,-98.41 112.12,-86.9 94.58,-78.49"/>
<polygon fill="#63b8ff" stroke="#63b8ff" points="95.97,-75.28 85.44,-74.16 92.97,-81.6 95.97,-75.28"/>
</a>
</g>
</g>
<!-- Node18&#45;&gt;Node11 -->
<g id="edge25_Node000018_Node000011" class="edge">
<title>Node18&#45;&gt;Node11</title>
<g id="a_edge25_Node000018_Node000011"><a xlink:title=" ">
<path fill="none" stroke="#63b8ff" d="M245.84,-164.75C245.32,-157.8 244.56,-147.85 243.91,-139.13"/>
<polygon fill="#63b8ff" stroke="#63b8ff" points="247.39,-138.8 243.15,-129.09 240.41,-139.32 247.39,-138.8"/>
</a>
</g>
</g>
<!-- Node18&#45;&gt;Node13 -->
<g id="edge24_Node000018_Node000013" class="edge">
<title>Node18&#45;&gt;Node13</title>
<g id="a_edge24_Node000018_Node000013"><a xlink:title=" ">
<path fill="none" stroke="#63b8ff" d="M254.83,-164.69C262.4,-156.2 273.29,-142.66 279.5,-129 289.85,-106.22 288.82,-98.88 291.5,-74 292.41,-65.6 294.62,-62.85 291.5,-55 286.98,-43.63 278.03,-33.48 269.54,-25.76"/>
<polygon fill="#63b8ff" stroke="#63b8ff" points="271.61,-22.92 261.71,-19.14 267.09,-28.27 271.61,-22.92"/>
</a>
</g>
</g>
<!-- Node20 -->
<g id="Node000020" class="node">
<title>Node20</title>
<g id="a_Node000020"><a xlink:title=" ">
<polygon fill="#e0e0e0" stroke="#999999" points="251,-239 178,-239 178,-220 251,-220 251,-239"/>
<text text-anchor="middle" x="214.5" y="-227" font-family="Helvetica,sans-Serif" font-size="10.00">initializer_list</text>
</a>
</g>
</g>
<!-- Node19&#45;&gt;Node20 -->
<g id="edge27_Node000019_Node000020" class="edge">
<title>Node19&#45;&gt;Node20</title>
<g id="a_edge27_Node000019_Node000020"><a xlink:title=" ">
<path fill="none" stroke="#63b8ff" d="M198.64,-274.75C201.18,-267.65 204.86,-257.4 208.03,-248.56"/>
<polygon fill="#63b8ff" stroke="#63b8ff" points="211.34,-249.68 211.42,-239.09 204.75,-247.32 211.34,-249.68"/>
</a>
</g>
</g>
<!-- Node21 -->
<g id="Node000021" class="node">
<title>Node21</title>
<g id="a_Node000021"><a xlink:title=" ">
<polygon fill="#e0e0e0" stroke="#999999" points="159.5,-239 85.5,-239 85.5,-220 159.5,-220 159.5,-239"/>
<text text-anchor="middle" x="122.5" y="-227" font-family="Helvetica,sans-Serif" font-size="10.00">GenericList.h</text>
</a>
</g>
</g>
<!-- Node19&#45;&gt;Node21 -->
<g id="edge28_Node000019_Node000021" class="edge">
<title>Node19&#45;&gt;Node21</title>
<g id="a_edge28_Node000019_Node000021"><a xlink:title=" ">
<path fill="none" stroke="#63b8ff" d="M183.77,-274.98C172.77,-267 156.08,-254.88 142.9,-245.31"/>
<polygon fill="#63b8ff" stroke="#63b8ff" points="144.59,-242.21 134.44,-239.17 140.48,-247.88 144.59,-242.21"/>
</a>
</g>
</g>
</g>
</svg>
</svg>

<style type='text/css'>
<![CDATA[
[data-mouse-over-selected='false'] { opacity: 0.7; }
[data-mouse-over-selected='true']  { opacity: 1.0; }
]]>
</style>
<script type="application/ecmascript"><![CDATA[
document.addEventListener('DOMContentLoaded', (event) => {
  highlightEdges();
  highlightAdjacentNodes();
});
]]></script>
</svg>
