<?xml version="1.0" encoding="UTF-8" standalone="no"?>
<!DOCTYPE svg PUBLIC "-//W3C//DTD SVG 1.1//EN"
 "http://www.w3.org/Graphics/SVG/1.1/DTD/svg11.dtd">
<!-- Generated by graphviz version 2.47.1 (20210417.1919)
 -->
<!-- Title: MyArray.h Pages: 1 -->
<!--zoomable 314 -->
<svg id="main" version="1.1" xmlns="http://www.w3.org/2000/svg" xmlns:xlink="http://www.w3.org/1999/xlink" xml:space="preserve" onload="init(evt)">
<style type="text/css"><![CDATA[
.edge:hover path { stroke: red; }
.edge:hover polygon { stroke: red; fill: red; }
]]></style>
<script type="text/javascript"><![CDATA[
var edges = document.getElementsByTagName('g');
if (edges && edges.length) {
  for (var i=0;i<edges.length;i++) {
    if (edges[i].id.substr(0,4)=='edge') {
      edges[i].setAttribute('class','edge');
    }
  }
}
]]></script>
        <defs>
                <circle id="rim" cx="0" cy="0" r="7"/>
                <circle id="rim2" cx="0" cy="0" r="3.5"/>
                <g id="zoomPlus">
                        <use xlink:href="#rim" fill="#404040">
                                <set attributeName="fill" to="#808080" begin="zoomplus.mouseover" end="zoomplus.mouseout"/>
                        </use>
                        <path d="M-4,0h8M0,-4v8" fill="none" stroke="white" stroke-width="1.5" pointer-events="none"/>
                </g>
                <g id="zoomMin">
                        <use xlink:href="#rim" fill="#404040">
                                <set attributeName="fill" to="#808080" begin="zoomminus.mouseover" end="zoomminus.mouseout"/>
                        </use>
                        <path d="M-4,0h8" fill="none" stroke="white" stroke-width="1.5" pointer-events="none"/>
                </g>
                <g id="dirArrow">
                        <path fill="none" stroke="white" stroke-width="1.5" d="M0,-3.0v7 M-2.5,-0.5L0,-3.0L2.5,-0.5"/>
                </g>
               <g id="resetDef">
                       <use xlink:href="#rim2" fill="#404040">
                               <set attributeName="fill" to="#808080" begin="reset.mouseover" end="reset.mouseout"/>
                       </use>
               </g>
        </defs>

<script type="text/javascript">
var viewWidth = 1070;
var viewHeight = 314;
var sectionId = 'dynsection-1';
</script>
<script xlink:href="svgpan.js"/>
<svg id="graph" class="graph">
<g id="viewport">
<title>MyArray.h</title>
<polygon fill="white" stroke="transparent" points="-4,4 -4,-310 1065.5,-310 1065.5,4 -4,4"/>
<!-- Node1 -->
<g id="node1" class="node">
<title>Node1</title>
<g id="a_node1"><a xlink:title="The MyArray specification and body defines a generic array type for stack allocated arrays represente...">
<polygon fill="#bfbfbf" stroke="black" points="392,-285.5 392,-305.5 457,-305.5 457,-285.5 392,-285.5"/>
<text text-anchor="middle" x="424.5" y="-292.7" font-family="Helvetica,sans-Serif" font-size="11.00">MyArray.h</text>
</a>
</g>
</g>
<!-- Node2 -->
<g id="node2" class="node">
<title>Node2</title>
<g id="a_node2"><a xlink:href="_audio_sample_fifo_queue_8cpp-inc.html" target="_top" xlink:title="The AudioSampleFifoQueue body implements a fifo queue for audio samples with popping off access to th...">
<polygon fill="white" stroke="black" points="173,-171.5 173,-191.5 344,-191.5 344,-171.5 173,-171.5"/>
<text text-anchor="middle" x="258.5" y="-178.7" font-family="Helvetica,sans-Serif" font-size="11.00">AudioSampleFifoQueue.cpp&#45;inc</text>
</a>
</g>
</g>
<!-- Node1&#45;&gt;Node2 -->
<g id="edge1" class="edge">
<title>Node1&#45;&gt;Node2</title>
<path fill="none" stroke="midnightblue" d="M402.39,-279.59C367.59,-256.1 301.01,-211.18 272.27,-191.79"/>
<polygon fill="midnightblue" stroke="midnightblue" points="400.67,-282.64 410.92,-285.33 404.58,-276.84 400.67,-282.64"/>
</g>
<!-- Node7 -->
<g id="node7" class="node">
<title>Node7</title>
<g id="a_node7"><a xlink:href="_fluid_synth_plugin___event_processor_8cpp.html" target="_top" xlink:title="The FluidSynthPlugin_Processor module implements the handling of MIDI events from the DAW via JUCE ha...">
<polygon fill="white" stroke="black" points="271,-0.5 271,-20.5 474,-20.5 474,-0.5 271,-0.5"/>
<text text-anchor="middle" x="372.5" y="-7.7" font-family="Helvetica,sans-Serif" font-size="11.00">FluidSynthPlugin_EventProcessor.cpp</text>
</a>
</g>
</g>
<!-- Node1&#45;&gt;Node7 -->
<g id="edge25" class="edge">
<title>Node1&#45;&gt;Node7</title>
<path fill="none" stroke="midnightblue" d="M410.77,-277.32C395.36,-256.27 372.5,-218.89 372.5,-182.5 372.5,-182.5 372.5,-182.5 372.5,-123.5 372.5,-85.19 372.5,-39.52 372.5,-20.5"/>
<polygon fill="midnightblue" stroke="midnightblue" points="407.99,-279.45 416.83,-285.29 413.56,-275.21 407.99,-279.45"/>
</g>
<!-- Node8 -->
<g id="node8" class="node">
<title>Node8</title>
<g id="a_node8"><a xlink:href="_audio_sample_list_8cpp-inc.html" target="_top" xlink:title="The AudioSampleList body implements a simple list of audio samples (this is the effective code includ...">
<polygon fill="white" stroke="black" points="403,-228.5 403,-248.5 540,-248.5 540,-228.5 403,-228.5"/>
<text text-anchor="middle" x="471.5" y="-235.7" font-family="Helvetica,sans-Serif" font-size="11.00">AudioSampleList.cpp&#45;inc</text>
</a>
</g>
</g>
<!-- Node1&#45;&gt;Node8 -->
<g id="edge7" class="edge">
<title>Node1&#45;&gt;Node8</title>
<path fill="none" stroke="midnightblue" d="M438.83,-277.73C446.96,-268.22 456.82,-256.68 463.57,-248.78"/>
<polygon fill="midnightblue" stroke="midnightblue" points="436.1,-275.54 432.26,-285.42 441.42,-280.09 436.1,-275.54"/>
</g>
<!-- Node17 -->
<g id="node17" class="node">
<title>Node17</title>
<g id="a_node17"><a xlink:href="_fluid_synth_synthesizer_8cpp.html" target="_top" xlink:title="The FluidSynthSynthesizer class implements an object&#45;oriented wrapper around an underlying fluidsynth...">
<polygon fill="white" stroke="black" points="915.5,-0.5 915.5,-20.5 1061.5,-20.5 1061.5,-0.5 915.5,-0.5"/>
<text text-anchor="middle" x="988.5" y="-7.7" font-family="Helvetica,sans-Serif" font-size="11.00">FluidSynthSynthesizer.cpp</text>
</a>
</g>
</g>
<!-- Node1&#45;&gt;Node17 -->
<g id="edge24" class="edge">
<title>Node1&#45;&gt;Node17</title>
<path fill="none" stroke="midnightblue" d="M467.51,-294.85C596.86,-294.76 973.5,-285.63 973.5,-182.5 973.5,-182.5 973.5,-182.5 973.5,-123.5 973.5,-85.05 982.29,-39.82 986.41,-20.74"/>
<polygon fill="midnightblue" stroke="midnightblue" points="467.2,-291.35 457.2,-294.84 467.19,-298.35 467.2,-291.35"/>
</g>
<!-- Node3 -->
<g id="node3" class="node">
<title>Node3</title>
<g id="a_node3"><a xlink:href="_audio_sample_fifo_queue_8h.html" target="_top" xlink:title="The AudioSampleFifoQueue specification defines a fifo queue for audio samples with popping off access...">
<polygon fill="white" stroke="black" points="188,-114.5 188,-134.5 329,-134.5 329,-114.5 188,-114.5"/>
<text text-anchor="middle" x="258.5" y="-121.7" font-family="Helvetica,sans-Serif" font-size="11.00">AudioSampleFifoQueue.h</text>
</a>
</g>
</g>
<!-- Node2&#45;&gt;Node3 -->
<g id="edge2" class="edge">
<title>Node2&#45;&gt;Node3</title>
<path fill="none" stroke="midnightblue" d="M258.5,-161.38C258.5,-152.37 258.5,-142.04 258.5,-134.78"/>
<polygon fill="midnightblue" stroke="midnightblue" points="255,-161.42 258.5,-171.42 262,-161.42 255,-161.42"/>
</g>
<!-- Node4 -->
<g id="node4" class="node">
<title>Node4</title>
<g id="a_node4"><a xlink:href="_audio_sample_fifo_queue_8cpp.html" target="_top" xlink:title="The AudioSampleFifoQueue body implements a fifo queue for audio samples with popping off access to th...">
<polygon fill="white" stroke="black" points="0,-57.5 0,-77.5 153,-77.5 153,-57.5 0,-57.5"/>
<text text-anchor="middle" x="76.5" y="-64.7" font-family="Helvetica,sans-Serif" font-size="11.00">AudioSampleFifoQueue.cpp</text>
</a>
</g>
</g>
<!-- Node3&#45;&gt;Node4 -->
<g id="edge3" class="edge">
<title>Node3&#45;&gt;Node4</title>
<path fill="none" stroke="midnightblue" d="M218.86,-111.52C184.98,-101.28 136.98,-86.78 106.3,-77.5"/>
<polygon fill="midnightblue" stroke="midnightblue" points="217.86,-114.88 228.45,-114.42 219.89,-108.17 217.86,-114.88"/>
</g>
<!-- Node5 -->
<g id="node5" class="node">
<title>Node5</title>
<g id="a_node5"><a xlink:href="_audio_sample_fifo_queue_vector_8h.html" target="_top" xlink:title="The AudioSampleFifoQueueVector specification defines a list of fifo queues for audio samples.">
<polygon fill="white" stroke="black" points="171,-57.5 171,-77.5 344,-77.5 344,-57.5 171,-57.5"/>
<text text-anchor="middle" x="257.5" y="-64.7" font-family="Helvetica,sans-Serif" font-size="11.00">AudioSampleFifoQueueVector.h</text>
</a>
</g>
</g>
<!-- Node3&#45;&gt;Node5 -->
<g id="edge4" class="edge">
<title>Node3&#45;&gt;Node5</title>
<path fill="none" stroke="midnightblue" d="M258.15,-104.38C257.99,-95.37 257.8,-85.04 257.67,-77.78"/>
<polygon fill="midnightblue" stroke="midnightblue" points="254.65,-104.48 258.33,-114.42 261.65,-104.36 254.65,-104.48"/>
</g>
<!-- Node6 -->
<g id="node6" class="node">
<title>Node6</title>
<g id="a_node6"><a xlink:href="_audio_sample_fifo_queue_vector_8cpp.html" target="_top" xlink:title="The AudioSampleFifoQueueVector body implements a list of fifo queues for audio samples (this is the f...">
<polygon fill="white" stroke="black" points="68,-0.5 68,-20.5 253,-20.5 253,-0.5 68,-0.5"/>
<text text-anchor="middle" x="160.5" y="-7.7" font-family="Helvetica,sans-Serif" font-size="11.00">AudioSampleFifoQueueVector.cpp</text>
</a>
</g>
</g>
<!-- Node5&#45;&gt;Node6 -->
<g id="edge5" class="edge">
<title>Node5&#45;&gt;Node6</title>
<path fill="none" stroke="midnightblue" d="M232.34,-52.23C214.72,-42.24 191.71,-29.2 176.54,-20.6"/>
<polygon fill="midnightblue" stroke="midnightblue" points="231.06,-55.53 241.48,-57.42 234.51,-49.44 231.06,-55.53"/>
</g>
<!-- Node5&#45;&gt;Node7 -->
<g id="edge6" class="edge">
<title>Node5&#45;&gt;Node7</title>
<path fill="none" stroke="midnightblue" d="M285.61,-53.06C306.7,-42.97 334.99,-29.44 353.48,-20.6"/>
<polygon fill="midnightblue" stroke="midnightblue" points="284,-49.95 276.49,-57.42 287.02,-56.26 284,-49.95"/>
</g>
<!-- Node9 -->
<g id="node9" class="node">
<title>Node9</title>
<g id="a_node9"><a xlink:href="_audio_sample_list_8h.html" target="_top" xlink:title="The AudioSampleList specification defines sequences of audio samples with zero&#45;based arbitrary indexe...">
<polygon fill="white" stroke="black" points="420,-171.5 420,-191.5 527,-191.5 527,-171.5 420,-171.5"/>
<text text-anchor="middle" x="473.5" y="-178.7" font-family="Helvetica,sans-Serif" font-size="11.00">AudioSampleList.h</text>
</a>
</g>
</g>
<!-- Node8&#45;&gt;Node9 -->
<g id="edge8" class="edge">
<title>Node8&#45;&gt;Node9</title>
<path fill="none" stroke="midnightblue" d="M472.2,-218.38C472.52,-209.37 472.9,-199.04 473.16,-191.78"/>
<polygon fill="midnightblue" stroke="midnightblue" points="468.7,-218.3 471.83,-228.42 475.69,-218.55 468.7,-218.3"/>
</g>
<!-- Node9&#45;&gt;Node3 -->
<g id="edge9" class="edge">
<title>Node9&#45;&gt;Node3</title>
<path fill="none" stroke="midnightblue" d="M428.21,-168.91C388.11,-158.66 330.42,-143.9 293.7,-134.5"/>
<polygon fill="midnightblue" stroke="midnightblue" points="427.44,-172.33 438,-171.42 429.18,-165.55 427.44,-172.33"/>
</g>
<!-- Node10 -->
<g id="node10" class="node">
<title>Node10</title>
<g id="a_node10"><a xlink:href="_audio_sample_list_8cpp.html" target="_top" xlink:title="The AudioSampleList body implements a simple list of audio samples (this is the formal CPP file used ...">
<polygon fill="white" stroke="black" points="564,-114.5 564,-134.5 683,-134.5 683,-114.5 564,-114.5"/>
<text text-anchor="middle" x="623.5" y="-121.7" font-family="Helvetica,sans-Serif" font-size="11.00">AudioSampleList.cpp</text>
</a>
</g>
</g>
<!-- Node9&#45;&gt;Node10 -->
<g id="edge10" class="edge">
<title>Node9&#45;&gt;Node10</title>
<path fill="none" stroke="midnightblue" d="M507.99,-167.86C535.79,-157.66 574.19,-143.58 598.94,-134.5"/>
<polygon fill="midnightblue" stroke="midnightblue" points="506.45,-164.69 498.27,-171.42 508.86,-171.26 506.45,-164.69"/>
</g>
<!-- Node11 -->
<g id="node11" class="node">
<title>Node11</title>
<g id="a_node11"><a xlink:href="_audio_sample_list_vector_8h.html" target="_top" xlink:title="The AudioSampleListVector specification defines the communication buffer structure for the block proc...">
<polygon fill="white" stroke="black" points="407,-114.5 407,-134.5 546,-134.5 546,-114.5 407,-114.5"/>
<text text-anchor="middle" x="476.5" y="-121.7" font-family="Helvetica,sans-Serif" font-size="11.00">AudioSampleListVector.h</text>
</a>
</g>
</g>
<!-- Node9&#45;&gt;Node11 -->
<g id="edge11" class="edge">
<title>Node9&#45;&gt;Node11</title>
<path fill="none" stroke="midnightblue" d="M474.54,-161.38C475.03,-152.37 475.6,-142.04 475.99,-134.78"/>
<polygon fill="midnightblue" stroke="midnightblue" points="471.05,-161.24 474,-171.42 478.03,-161.62 471.05,-161.24"/>
</g>
<!-- Node11&#45;&gt;Node5 -->
<g id="edge12" class="edge">
<title>Node11&#45;&gt;Node5</title>
<path fill="none" stroke="midnightblue" d="M430.62,-111.98C389.77,-101.72 330.83,-86.92 293.35,-77.5"/>
<polygon fill="midnightblue" stroke="midnightblue" points="429.79,-115.38 440.34,-114.42 431.49,-108.59 429.79,-115.38"/>
</g>
<!-- Node12 -->
<g id="node12" class="node">
<title>Node12</title>
<g id="a_node12"><a xlink:href="_audio_sample_list_vector_8cpp.html" target="_top" xlink:title="The AudioSampleListVector body implements the communication buffer structure for the block processing...">
<polygon fill="white" stroke="black" points="401,-57.5 401,-77.5 552,-77.5 552,-57.5 401,-57.5"/>
<text text-anchor="middle" x="476.5" y="-64.7" font-family="Helvetica,sans-Serif" font-size="11.00">AudioSampleListVector.cpp</text>
</a>
</g>
</g>
<!-- Node11&#45;&gt;Node12 -->
<g id="edge13" class="edge">
<title>Node11&#45;&gt;Node12</title>
<path fill="none" stroke="midnightblue" d="M476.5,-104.38C476.5,-95.37 476.5,-85.04 476.5,-77.78"/>
<polygon fill="midnightblue" stroke="midnightblue" points="473,-104.42 476.5,-114.42 480,-104.42 473,-104.42"/>
</g>
<!-- Node13 -->
<g id="node13" class="node">
<title>Node13</title>
<g id="a_node13"><a xlink:href="_wave_file_8h.html" target="_top" xlink:title="The WaveFile specification defines an object for accessing a RIFF wave file with several channels.">
<polygon fill="white" stroke="black" points="570,-57.5 570,-77.5 641,-77.5 641,-57.5 570,-57.5"/>
<text text-anchor="middle" x="605.5" y="-64.7" font-family="Helvetica,sans-Serif" font-size="11.00">WaveFile.h</text>
</a>
</g>
</g>
<!-- Node11&#45;&gt;Node13 -->
<g id="edge14" class="edge">
<title>Node11&#45;&gt;Node13</title>
<path fill="none" stroke="midnightblue" d="M507.08,-110.46C530.82,-100.34 563.15,-86.56 584.17,-77.6"/>
<polygon fill="midnightblue" stroke="midnightblue" points="505.63,-107.28 497.8,-114.42 508.37,-113.72 505.63,-107.28"/>
</g>
<!-- Node16 -->
<g id="node16" class="node">
<title>Node16</title>
<g id="a_node16"><a xlink:href="_fluid_synth_synthesizer_8h.html" target="_top" xlink:title="The FluidSynthSynthesizer class specifies an object&#45;oriented wrapper around an underlying fluidsynth ...">
<polygon fill="white" stroke="black" points="797.5,-57.5 797.5,-77.5 931.5,-77.5 931.5,-57.5 797.5,-57.5"/>
<text text-anchor="middle" x="864.5" y="-64.7" font-family="Helvetica,sans-Serif" font-size="11.00">FluidSynthSynthesizer.h</text>
</a>
</g>
</g>
<!-- Node11&#45;&gt;Node16 -->
<g id="edge17" class="edge">
<title>Node11&#45;&gt;Node16</title>
<path fill="none" stroke="midnightblue" d="M550.1,-113.07C622.55,-102.8 732.03,-87.28 800.83,-77.53"/>
<polygon fill="midnightblue" stroke="midnightblue" points="549.55,-109.61 540.14,-114.48 550.53,-116.54 549.55,-109.61"/>
</g>
<!-- Node19 -->
<g id="node19" class="node">
<title>Node19</title>
<g id="a_node19"><a xlink:href="_midi_event_converter_8h.html" target="_top" xlink:title="The MidiEventConverter specification defines the handling of MIDI events by feeding them to an underl...">
<polygon fill="white" stroke="black" points="659.5,-57.5 659.5,-77.5 779.5,-77.5 779.5,-57.5 659.5,-57.5"/>
<text text-anchor="middle" x="719.5" y="-64.7" font-family="Helvetica,sans-Serif" font-size="11.00">MidiEventConverter.h</text>
</a>
</g>
</g>
<!-- Node11&#45;&gt;Node19 -->
<g id="edge20" class="edge">
<title>Node11&#45;&gt;Node19</title>
<path fill="none" stroke="midnightblue" d="M526.26,-112.24C571.59,-101.98 637.68,-87.02 679.62,-77.53"/>
<polygon fill="midnightblue" stroke="midnightblue" points="525.34,-108.86 516.35,-114.48 526.88,-115.69 525.34,-108.86"/>
</g>
<!-- Node14 -->
<g id="node14" class="node">
<title>Node14</title>
<g id="a_node14"><a xlink:href="_wave_file_8cpp.html" target="_top" xlink:title="The WaveFile specification defines an object for accessing a RIFF wave file with several channels.">
<polygon fill="white" stroke="black" points="492,-0.5 492,-20.5 575,-20.5 575,-0.5 492,-0.5"/>
<text text-anchor="middle" x="533.5" y="-7.7" font-family="Helvetica,sans-Serif" font-size="11.00">WaveFile.cpp</text>
</a>
</g>
</g>
<!-- Node13&#45;&gt;Node14 -->
<g id="edge15" class="edge">
<title>Node13&#45;&gt;Node14</title>
<path fill="none" stroke="midnightblue" d="M585.41,-51.15C572.63,-41.39 556.51,-29.07 545.65,-20.78"/>
<polygon fill="midnightblue" stroke="midnightblue" points="583.54,-54.13 593.61,-57.42 587.79,-48.57 583.54,-54.13"/>
</g>
<!-- Node15 -->
<g id="node15" class="node">
<title>Node15</title>
<g id="a_node15"><a xlink:href="_fluid_synth_file_converter_8cpp.html" target="_top" xlink:title="The FluidSynthFileConverter module implements a conversion from a MIDI file into a wave file using th...">
<polygon fill="white" stroke="black" points="593.5,-0.5 593.5,-20.5 747.5,-20.5 747.5,-0.5 593.5,-0.5"/>
<text text-anchor="middle" x="670.5" y="-7.7" font-family="Helvetica,sans-Serif" font-size="11.00">FluidSynthFileConverter.cpp</text>
</a>
</g>
</g>
<!-- Node13&#45;&gt;Node15 -->
<g id="edge16" class="edge">
<title>Node13&#45;&gt;Node15</title>
<path fill="none" stroke="midnightblue" d="M623.97,-50.87C635.45,-41.15 649.82,-28.99 659.53,-20.78"/>
<polygon fill="midnightblue" stroke="midnightblue" points="621.61,-48.29 616.23,-57.42 626.13,-53.63 621.61,-48.29"/>
</g>
<!-- Node16&#45;&gt;Node17 -->
<g id="edge18" class="edge">
<title>Node16&#45;&gt;Node17</title>
<path fill="none" stroke="midnightblue" d="M894.2,-53.33C917,-43.22 947.88,-29.52 967.99,-20.6"/>
<polygon fill="midnightblue" stroke="midnightblue" points="892.7,-50.16 884.98,-57.42 895.54,-56.56 892.7,-50.16"/>
</g>
<!-- Node18 -->
<g id="node18" class="node">
<title>Node18</title>
<g id="a_node18"><a xlink:href="_midi_event_converter_8cpp.html" target="_top" xlink:title="The MidiEventConverter module implements the handling of MIDI events by feeding them to an underlying...">
<polygon fill="white" stroke="black" points="765.5,-0.5 765.5,-20.5 897.5,-20.5 897.5,-0.5 765.5,-0.5"/>
<text text-anchor="middle" x="831.5" y="-7.7" font-family="Helvetica,sans-Serif" font-size="11.00">MidiEventConverter.cpp</text>
</a>
</g>
</g>
<!-- Node16&#45;&gt;Node18 -->
<g id="edge19" class="edge">
<title>Node16&#45;&gt;Node18</title>
<path fill="none" stroke="midnightblue" d="M853.74,-48.56C848.17,-39.29 841.61,-28.36 837.07,-20.78"/>
<polygon fill="midnightblue" stroke="midnightblue" points="850.9,-50.64 859.05,-57.42 856.91,-47.04 850.9,-50.64"/>
</g>
<!-- Node19&#45;&gt;Node7 -->
<g id="edge22" class="edge">
<title>Node19&#45;&gt;Node7</title>
<path fill="none" stroke="midnightblue" d="M652.48,-55.88C587.69,-45.61 490.59,-30.22 429.44,-20.53"/>
<polygon fill="midnightblue" stroke="midnightblue" points="652.16,-59.37 662.59,-57.48 653.26,-52.46 652.16,-59.37"/>
</g>
<!-- Node19&#45;&gt;Node15 -->
<g id="edge21" class="edge">
<title>Node19&#45;&gt;Node15</title>
<path fill="none" stroke="midnightblue" d="M704.56,-49.73C696.08,-40.22 685.8,-28.68 678.77,-20.78"/>
<polygon fill="midnightblue" stroke="midnightblue" points="702.14,-52.28 711.41,-57.42 707.37,-47.62 702.14,-52.28"/>
</g>
<!-- Node19&#45;&gt;Node18 -->
<g id="edge23" class="edge">
<title>Node19&#45;&gt;Node18</title>
<path fill="none" stroke="midnightblue" d="M747.15,-52.92C767.66,-42.85 795.05,-29.4 812.98,-20.6"/>
<polygon fill="midnightblue" stroke="midnightblue" points="745.43,-49.87 737.99,-57.42 748.51,-56.15 745.43,-49.87"/>
</g>
</g>
</svg>
        <g id="navigator" transform="translate(0 0)" fill="#404254">
                <rect fill="#f2f5e9" fill-opacity="0.5" stroke="#606060" stroke-width=".5" x="0" y="0" width="60" height="60"/>
                <use id="zoomplus" xlink:href="#zoomPlus" x="17" y="9" onmousedown="handleZoom(evt,'in')"/>
                <use id="zoomminus" xlink:href="#zoomMin" x="42" y="9" onmousedown="handleZoom(evt,'out')"/>
                <use id="reset" xlink:href="#resetDef" x="30" y="36" onmousedown="handleReset()"/>
                <g id="arrowUp" xlink:href="#dirArrow" transform="translate(30 24)" onmousedown="handlePan(0,-1)">
                  <use xlink:href="#rim" fill="#404040">
                        <set attributeName="fill" to="#808080" begin="arrowUp.mouseover" end="arrowUp.mouseout"/>
                  </use>
                  <path fill="none" stroke="white" stroke-width="1.5" d="M0,-3.0v7 M-2.5,-0.5L0,-3.0L2.5,-0.5"/>
                </g>
                <g id="arrowRight" xlink:href="#dirArrow" transform="rotate(90) translate(36 -43)" onmousedown="handlePan(1,0)">
                  <use xlink:href="#rim" fill="#404040">
                        <set attributeName="fill" to="#808080" begin="arrowRight.mouseover" end="arrowRight.mouseout"/>
                  </use>
                  <path fill="none" stroke="white" stroke-width="1.5" d="M0,-3.0v7 M-2.5,-0.5L0,-3.0L2.5,-0.5"/>
                </g>
                <g id="arrowDown" xlink:href="#dirArrow" transform="rotate(180) translate(-30 -48)" onmousedown="handlePan(0,1)">
                  <use xlink:href="#rim" fill="#404040">
                        <set attributeName="fill" to="#808080" begin="arrowDown.mouseover" end="arrowDown.mouseout"/>
                  </use>
                  <path fill="none" stroke="white" stroke-width="1.5" d="M0,-3.0v7 M-2.5,-0.5L0,-3.0L2.5,-0.5"/>
                </g>
                <g id="arrowLeft" xlink:href="#dirArrow" transform="rotate(270) translate(-36 17)" onmousedown="handlePan(-1,0)">
                  <use xlink:href="#rim" fill="#404040">
                        <set attributeName="fill" to="#808080" begin="arrowLeft.mouseover" end="arrowLeft.mouseout"/>
                  </use>
                  <path fill="none" stroke="white" stroke-width="1.5" d="M0,-3.0v7 M-2.5,-0.5L0,-3.0L2.5,-0.5"/>
                </g>
        </g>
        <svg viewBox="0 0 15 15" width="100%" height="30px" preserveAspectRatio="xMaxYMin meet">
         <g id="arrow_out" transform="scale(0.3 0.3)">
          <a xlink:href="_my_array_8h__dep__incl_org.svg" target="_base">
           <rect id="button" ry="5" rx="5" y="6" x="6" height="38" width="38"
                fill="#f2f5e9" fill-opacity="0.5" stroke="#606060" stroke-width="1.0"/>
           <path id="arrow"
             d="M 11.500037,31.436501 C 11.940474,20.09759 22.043105,11.32322 32.158766,21.979434 L 37.068811,17.246167 C 37.068811,17.246167 37.088388,32 37.088388,32 L 22.160133,31.978069 C 22.160133,31.978069 26.997745,27.140456 26.997745,27.140456 C 18.528582,18.264221 13.291696,25.230495 11.500037,31.436501 z"
             style="fill:#404040;"/>
          </a>
         </g>
        </svg>
</svg>
