<?xml version="1.0" encoding="UTF-8" standalone="no"?>
<!DOCTYPE svg PUBLIC "-//W3C//DTD SVG 1.1//EN"
 "http://www.w3.org/Graphics/SVG/1.1/DTD/svg11.dtd">
<!-- Generated by graphviz version 2.47.1 (20210417.1919)
 -->
<!-- Title: MyString.cpp Pages: 1 -->
<svg width="449pt" height="420pt"
 viewBox="0.00 0.00 449.00 420.00" xmlns="http://www.w3.org/2000/svg" xmlns:xlink="http://www.w3.org/1999/xlink">
<g id="graph0" class="graph" transform="scale(1 1) rotate(0) translate(4 416)">
<title>MyString.cpp</title>
<polygon fill="white" stroke="transparent" points="-4,4 -4,-416 445,-416 445,4 -4,4"/>
<!-- Node1 -->
<g id="node1" class="node">
<title>Node1</title>
<g id="a_node1"><a xlink:title="The String body implements a standard string type.">
<polygon fill="#bfbfbf" stroke="black" points="297.5,-392.5 297.5,-411.5 371.5,-411.5 371.5,-392.5 297.5,-392.5"/>
<text text-anchor="middle" x="334.5" y="-399.5" font-family="Helvetica,sans-Serif" font-size="10.00">MyString.cpp</text>
</a>
</g>
</g>
<!-- Node2 -->
<g id="node2" class="node">
<title>Node2</title>
<g id="a_node2"><a xlink:href="_my_string_8h.html" target="_top" xlink:title="The String specification defines a standard string type.">
<polygon fill="white" stroke="black" points="338.5,-56.5 338.5,-75.5 402.5,-75.5 402.5,-56.5 338.5,-56.5"/>
<text text-anchor="middle" x="370.5" y="-63.5" font-family="Helvetica,sans-Serif" font-size="10.00">MyString.h</text>
</a>
</g>
</g>
<!-- Node1&#45;&gt;Node2 -->
<g id="edge1" class="edge">
<title>Node1&#45;&gt;Node2</title>
<path fill="none" stroke="midnightblue" d="M342.67,-392.38C358.43,-374.81 391.5,-332.94 391.5,-291 391.5,-291 391.5,-291 391.5,-177 391.5,-144.38 382.48,-107.28 376.27,-85.57"/>
<polygon fill="midnightblue" stroke="midnightblue" points="379.54,-84.32 373.33,-75.73 372.83,-86.32 379.54,-84.32"/>
</g>
<!-- Node5 -->
<g id="node5" class="node">
<title>Node5</title>
<g id="a_node5"><a xlink:href="_string_util_8h.html" target="_top" xlink:title="The StringUtil specification defines several string routines not included in the standard C++ library...">
<polygon fill="white" stroke="black" points="251,-336.5 251,-355.5 316,-355.5 316,-336.5 251,-336.5"/>
<text text-anchor="middle" x="283.5" y="-343.5" font-family="Helvetica,sans-Serif" font-size="10.00">StringUtil.h</text>
</a>
</g>
</g>
<!-- Node1&#45;&gt;Node5 -->
<g id="edge4" class="edge">
<title>Node1&#45;&gt;Node5</title>
<path fill="none" stroke="midnightblue" d="M326.08,-392.08C318.65,-384.22 307.65,-372.57 298.69,-363.08"/>
<polygon fill="midnightblue" stroke="midnightblue" points="301.18,-360.62 291.76,-355.75 296.09,-365.42 301.18,-360.62"/>
</g>
<!-- Node3 -->
<g id="node3" class="node">
<title>Node3</title>
<g id="a_node3"><a xlink:title=" ">
<polygon fill="white" stroke="#bfbfbf" points="297,-0.5 297,-19.5 338,-19.5 338,-0.5 297,-0.5"/>
<text text-anchor="middle" x="317.5" y="-7.5" font-family="Helvetica,sans-Serif" font-size="10.00">string</text>
</a>
</g>
</g>
<!-- Node2&#45;&gt;Node3 -->
<g id="edge2" class="edge">
<title>Node2&#45;&gt;Node3</title>
<path fill="none" stroke="midnightblue" d="M361.75,-56.08C354.03,-48.22 342.6,-36.57 333.28,-27.08"/>
<polygon fill="midnightblue" stroke="midnightblue" points="335.59,-24.44 326.09,-19.75 330.6,-29.34 335.59,-24.44"/>
</g>
<!-- Node4 -->
<g id="node4" class="node">
<title>Node4</title>
<g id="a_node4"><a xlink:href="_global_macros_8h.html" target="_top" xlink:title="The GlobalMacros specification defines simple macros (e.g. for parameter modes).">
<polygon fill="white" stroke="black" points="356,-0.5 356,-19.5 441,-19.5 441,-0.5 356,-0.5"/>
<text text-anchor="middle" x="398.5" y="-7.5" font-family="Helvetica,sans-Serif" font-size="10.00">GlobalMacros.h</text>
</a>
</g>
</g>
<!-- Node2&#45;&gt;Node4 -->
<g id="edge3" class="edge">
<title>Node2&#45;&gt;Node4</title>
<path fill="none" stroke="midnightblue" d="M375.12,-56.08C378.96,-48.69 384.52,-37.95 389.26,-28.81"/>
<polygon fill="midnightblue" stroke="midnightblue" points="392.47,-30.24 393.96,-19.75 386.25,-27.02 392.47,-30.24"/>
</g>
<!-- Node6 -->
<g id="node6" class="node">
<title>Node6</title>
<g id="a_node6"><a xlink:href="_boolean_8h.html" target="_top" xlink:title="The Boolean specification and body provides a value object type for boolean values.">
<polygon fill="white" stroke="black" points="303.5,-168.5 303.5,-187.5 363.5,-187.5 363.5,-168.5 303.5,-168.5"/>
<text text-anchor="middle" x="333.5" y="-175.5" font-family="Helvetica,sans-Serif" font-size="10.00">Boolean.h</text>
</a>
</g>
</g>
<!-- Node5&#45;&gt;Node6 -->
<g id="edge5" class="edge">
<title>Node5&#45;&gt;Node6</title>
<path fill="none" stroke="midnightblue" d="M296.72,-336.45C307.72,-328.49 322.66,-315.54 329.5,-300 344.27,-266.45 340.77,-222.47 337.04,-197.83"/>
<polygon fill="midnightblue" stroke="midnightblue" points="340.45,-196.97 335.32,-187.69 333.55,-198.14 340.45,-196.97"/>
</g>
<!-- Node7 -->
<g id="node7" class="node">
<title>Node7</title>
<g id="a_node7"><a xlink:href="_character_8h.html" target="_top" xlink:title="The Character specification and body provides a value object type for character values.">
<polygon fill="white" stroke="black" points="0,-224.5 0,-243.5 67,-243.5 67,-224.5 0,-224.5"/>
<text text-anchor="middle" x="33.5" y="-231.5" font-family="Helvetica,sans-Serif" font-size="10.00">Character.h</text>
</a>
</g>
</g>
<!-- Node5&#45;&gt;Node7 -->
<g id="edge7" class="edge">
<title>Node5&#45;&gt;Node7</title>
<path fill="none" stroke="midnightblue" d="M254.58,-336.48C227.89,-328.27 187.38,-314.92 153.5,-300 118.47,-284.57 79.86,-262.73 56.14,-248.71"/>
<polygon fill="midnightblue" stroke="midnightblue" points="57.91,-245.69 47.53,-243.58 54.33,-251.71 57.91,-245.69"/>
</g>
<!-- Node15 -->
<g id="node15" class="node">
<title>Node15</title>
<g id="a_node15"><a xlink:href="_percentage_8h.html" target="_top" xlink:title="The Percentage specification and body provides a simple percentage type.">
<polygon fill="white" stroke="black" points="246.5,-280.5 246.5,-299.5 320.5,-299.5 320.5,-280.5 246.5,-280.5"/>
<text text-anchor="middle" x="283.5" y="-287.5" font-family="Helvetica,sans-Serif" font-size="10.00">Percentage.h</text>
</a>
</g>
</g>
<!-- Node5&#45;&gt;Node15 -->
<g id="edge19" class="edge">
<title>Node5&#45;&gt;Node15</title>
<path fill="none" stroke="midnightblue" d="M283.5,-336.08C283.5,-329.01 283.5,-318.86 283.5,-309.99"/>
<polygon fill="midnightblue" stroke="midnightblue" points="287,-309.75 283.5,-299.75 280,-309.75 287,-309.75"/>
</g>
<!-- Node18 -->
<g id="node18" class="node">
<title>Node18</title>
<g id="a_node18"><a xlink:href="_string_list_8h.html" target="_top" xlink:title="The StringList specification defines lists of string values with zero&#45;based arbitrary indexed access ...">
<polygon fill="white" stroke="black" points="162.5,-280.5 162.5,-299.5 228.5,-299.5 228.5,-280.5 162.5,-280.5"/>
<text text-anchor="middle" x="195.5" y="-287.5" font-family="Helvetica,sans-Serif" font-size="10.00">StringList.h</text>
</a>
</g>
</g>
<!-- Node5&#45;&gt;Node18 -->
<g id="edge25" class="edge">
<title>Node5&#45;&gt;Node18</title>
<path fill="none" stroke="midnightblue" d="M269.36,-336.32C255.63,-327.9 234.56,-314.97 218.44,-305.07"/>
<polygon fill="midnightblue" stroke="midnightblue" points="219.96,-301.9 209.6,-299.65 216.3,-307.87 219.96,-301.9"/>
</g>
<!-- Node6&#45;&gt;Node2 -->
<g id="edge6" class="edge">
<title>Node6&#45;&gt;Node2</title>
<path fill="none" stroke="midnightblue" d="M336.4,-168.37C342.4,-150.54 356.27,-109.3 364.35,-85.27"/>
<polygon fill="midnightblue" stroke="midnightblue" points="367.74,-86.19 367.61,-75.59 361.1,-83.95 367.74,-86.19"/>
</g>
<!-- Node8 -->
<g id="node8" class="node">
<title>Node8</title>
<g id="a_node8"><a xlink:title=" ">
<polygon fill="white" stroke="#bfbfbf" points="44.5,-56.5 44.5,-75.5 88.5,-75.5 88.5,-56.5 44.5,-56.5"/>
<text text-anchor="middle" x="66.5" y="-63.5" font-family="Helvetica,sans-Serif" font-size="10.00">cmath</text>
</a>
</g>
</g>
<!-- Node7&#45;&gt;Node8 -->
<g id="edge8" class="edge">
<title>Node7&#45;&gt;Node8</title>
<path fill="none" stroke="midnightblue" d="M35.27,-224.08C40.47,-197.95 55.72,-121.21 62.81,-85.58"/>
<polygon fill="midnightblue" stroke="midnightblue" points="66.28,-86.06 64.8,-75.57 59.41,-84.69 66.28,-86.06"/>
</g>
<!-- Node9 -->
<g id="node9" class="node">
<title>Node9</title>
<g id="a_node9"><a xlink:href="_byte_8h.html" target="_top" xlink:title="The Byte specification and body provides a value object type for byte values.">
<polygon fill="white" stroke="black" points="81,-168.5 81,-187.5 126,-187.5 126,-168.5 81,-168.5"/>
<text text-anchor="middle" x="103.5" y="-175.5" font-family="Helvetica,sans-Serif" font-size="10.00">Byte.h</text>
</a>
</g>
</g>
<!-- Node7&#45;&gt;Node9 -->
<g id="edge9" class="edge">
<title>Node7&#45;&gt;Node9</title>
<path fill="none" stroke="midnightblue" d="M44.75,-224.32C55.3,-216.18 71.3,-203.84 83.94,-194.09"/>
<polygon fill="midnightblue" stroke="midnightblue" points="86.27,-196.71 92.05,-187.83 81.99,-191.17 86.27,-196.71"/>
</g>
<!-- Node9&#45;&gt;Node8 -->
<g id="edge10" class="edge">
<title>Node9&#45;&gt;Node8</title>
<path fill="none" stroke="midnightblue" d="M100.6,-168.37C94.6,-150.54 80.73,-109.3 72.65,-85.27"/>
<polygon fill="midnightblue" stroke="midnightblue" points="75.9,-83.95 69.39,-75.59 69.26,-86.19 75.9,-83.95"/>
</g>
<!-- Node10 -->
<g id="node10" class="node">
<title>Node10</title>
<g id="a_node10"><a xlink:title=" ">
<polygon fill="white" stroke="#bfbfbf" points="99.5,-112.5 99.5,-131.5 145.5,-131.5 145.5,-112.5 99.5,-112.5"/>
<text text-anchor="middle" x="122.5" y="-119.5" font-family="Helvetica,sans-Serif" font-size="10.00">cstdint</text>
</a>
</g>
</g>
<!-- Node9&#45;&gt;Node10 -->
<g id="edge11" class="edge">
<title>Node9&#45;&gt;Node10</title>
<path fill="none" stroke="midnightblue" d="M106.64,-168.08C109.18,-160.85 112.86,-150.41 116.03,-141.4"/>
<polygon fill="midnightblue" stroke="midnightblue" points="119.4,-142.35 119.42,-131.75 112.8,-140.02 119.4,-142.35"/>
</g>
<!-- Node11 -->
<g id="node11" class="node">
<title>Node11</title>
<g id="a_node11"><a xlink:href="_natural_8h.html" target="_top" xlink:title="The Natural specification and body provides a value object type for naturals (positive integers with ...">
<polygon fill="white" stroke="black" points="214.5,-112.5 214.5,-131.5 270.5,-131.5 270.5,-112.5 214.5,-112.5"/>
<text text-anchor="middle" x="242.5" y="-119.5" font-family="Helvetica,sans-Serif" font-size="10.00">Natural.h</text>
</a>
</g>
</g>
<!-- Node9&#45;&gt;Node11 -->
<g id="edge12" class="edge">
<title>Node9&#45;&gt;Node11</title>
<path fill="none" stroke="midnightblue" d="M125.52,-168.44C148.6,-159.48 185.06,-145.31 211.14,-135.18"/>
<polygon fill="midnightblue" stroke="midnightblue" points="212.52,-138.4 220.58,-131.52 209.99,-131.88 212.52,-138.4"/>
</g>
<!-- Node11&#45;&gt;Node2 -->
<g id="edge18" class="edge">
<title>Node11&#45;&gt;Node2</title>
<path fill="none" stroke="midnightblue" d="M262.78,-112.44C283.85,-103.56 317.02,-89.56 340.99,-79.45"/>
<polygon fill="midnightblue" stroke="midnightblue" points="342.46,-82.63 350.31,-75.52 339.74,-76.18 342.46,-82.63"/>
</g>
<!-- Node11&#45;&gt;Node8 -->
<g id="edge13" class="edge">
<title>Node11&#45;&gt;Node8</title>
<path fill="none" stroke="midnightblue" d="M214.61,-112.44C182.99,-102.74 131.53,-86.95 98.35,-76.77"/>
<polygon fill="midnightblue" stroke="midnightblue" points="99.27,-73.39 88.68,-73.81 97.22,-80.09 99.27,-73.39"/>
</g>
<!-- Node12 -->
<g id="node12" class="node">
<title>Node12</title>
<g id="a_node12"><a xlink:href="_assertion_8h.html" target="_top" xlink:title="The Assertion specification defines macros for pre&#45; and postconditions in functions or methods.">
<polygon fill="white" stroke="black" points="216.5,-56.5 216.5,-75.5 282.5,-75.5 282.5,-56.5 216.5,-56.5"/>
<text text-anchor="middle" x="249.5" y="-63.5" font-family="Helvetica,sans-Serif" font-size="10.00">Assertion.h</text>
</a>
</g>
</g>
<!-- Node11&#45;&gt;Node12 -->
<g id="edge14" class="edge">
<title>Node11&#45;&gt;Node12</title>
<path fill="none" stroke="midnightblue" d="M243.66,-112.08C244.58,-104.93 245.92,-94.64 247.08,-85.69"/>
<polygon fill="midnightblue" stroke="midnightblue" points="250.55,-86.12 248.37,-75.75 243.61,-85.22 250.55,-86.12"/>
</g>
<!-- Node14 -->
<g id="node14" class="node">
<title>Node14</title>
<g id="a_node14"><a xlink:title=" ">
<polygon fill="white" stroke="#bfbfbf" points="106.5,-56.5 106.5,-75.5 198.5,-75.5 198.5,-56.5 106.5,-56.5"/>
<text text-anchor="middle" x="152.5" y="-63.5" font-family="Helvetica,sans-Serif" font-size="10.00">GenericNumber.h</text>
</a>
</g>
</g>
<!-- Node11&#45;&gt;Node14 -->
<g id="edge17" class="edge">
<title>Node11&#45;&gt;Node14</title>
<path fill="none" stroke="midnightblue" d="M228.04,-112.32C214,-103.9 192.45,-90.97 175.96,-81.07"/>
<polygon fill="midnightblue" stroke="midnightblue" points="177.3,-77.8 166.92,-75.65 173.7,-83.8 177.3,-77.8"/>
</g>
<!-- Node12&#45;&gt;Node3 -->
<g id="edge16" class="edge">
<title>Node12&#45;&gt;Node3</title>
<path fill="none" stroke="midnightblue" d="M260.43,-56.32C270.67,-48.18 286.22,-35.84 298.5,-26.09"/>
<polygon fill="midnightblue" stroke="midnightblue" points="300.72,-28.79 306.38,-19.83 296.37,-23.31 300.72,-28.79"/>
</g>
<!-- Node13 -->
<g id="node13" class="node">
<title>Node13</title>
<g id="a_node13"><a xlink:title=" ">
<polygon fill="white" stroke="#bfbfbf" points="220,-0.5 220,-19.5 279,-19.5 279,-0.5 220,-0.5"/>
<text text-anchor="middle" x="249.5" y="-7.5" font-family="Helvetica,sans-Serif" font-size="10.00">stdexcept</text>
</a>
</g>
</g>
<!-- Node12&#45;&gt;Node13 -->
<g id="edge15" class="edge">
<title>Node12&#45;&gt;Node13</title>
<path fill="none" stroke="midnightblue" d="M249.5,-56.08C249.5,-49.01 249.5,-38.86 249.5,-29.99"/>
<polygon fill="midnightblue" stroke="midnightblue" points="253,-29.75 249.5,-19.75 246,-29.75 253,-29.75"/>
</g>
<!-- Node16 -->
<g id="node16" class="node">
<title>Node16</title>
<g id="a_node16"><a xlink:href="_real_8h.html" target="_top" xlink:title="The Real specification defines a value object type for real values.">
<polygon fill="white" stroke="black" points="269.5,-224.5 269.5,-243.5 313.5,-243.5 313.5,-224.5 269.5,-224.5"/>
<text text-anchor="middle" x="291.5" y="-231.5" font-family="Helvetica,sans-Serif" font-size="10.00">Real.h</text>
</a>
</g>
</g>
<!-- Node15&#45;&gt;Node16 -->
<g id="edge20" class="edge">
<title>Node15&#45;&gt;Node16</title>
<path fill="none" stroke="midnightblue" d="M284.82,-280.08C285.88,-272.93 287.41,-262.64 288.73,-253.69"/>
<polygon fill="midnightblue" stroke="midnightblue" points="292.2,-254.16 290.2,-243.75 285.28,-253.13 292.2,-254.16"/>
</g>
<!-- Node17 -->
<g id="node17" class="node">
<title>Node17</title>
<g id="a_node17"><a xlink:href="_integer_8h.html" target="_top" xlink:title="The Integer specification and body provides a value object type for ints.">
<polygon fill="white" stroke="black" points="219.5,-168.5 219.5,-187.5 273.5,-187.5 273.5,-168.5 219.5,-168.5"/>
<text text-anchor="middle" x="246.5" y="-175.5" font-family="Helvetica,sans-Serif" font-size="10.00">Integer.h</text>
</a>
</g>
</g>
<!-- Node16&#45;&gt;Node17 -->
<g id="edge21" class="edge">
<title>Node16&#45;&gt;Node17</title>
<path fill="none" stroke="midnightblue" d="M284.07,-224.08C277.65,-216.38 268.19,-205.03 260.38,-195.65"/>
<polygon fill="midnightblue" stroke="midnightblue" points="262.88,-193.19 253.79,-187.75 257.51,-197.67 262.88,-193.19"/>
</g>
<!-- Node17&#45;&gt;Node8 -->
<g id="edge22" class="edge">
<title>Node17&#45;&gt;Node8</title>
<path fill="none" stroke="midnightblue" d="M235.52,-168.46C218.61,-155.5 184.96,-130.42 154.5,-112 134.93,-100.16 111.87,-88.45 94.27,-79.94"/>
<polygon fill="midnightblue" stroke="midnightblue" points="95.65,-76.72 85.12,-75.57 92.63,-83.04 95.65,-76.72"/>
</g>
<!-- Node17&#45;&gt;Node11 -->
<g id="edge24" class="edge">
<title>Node17&#45;&gt;Node11</title>
<path fill="none" stroke="midnightblue" d="M245.84,-168.08C245.32,-161.01 244.56,-150.86 243.91,-141.99"/>
<polygon fill="midnightblue" stroke="midnightblue" points="247.38,-141.47 243.15,-131.75 240.4,-141.98 247.38,-141.47"/>
</g>
<!-- Node17&#45;&gt;Node13 -->
<g id="edge23" class="edge">
<title>Node17&#45;&gt;Node13</title>
<path fill="none" stroke="midnightblue" d="M254.55,-168.4C262.13,-159.83 273.23,-145.96 279.5,-132 289.92,-108.78 288.82,-101.31 291.5,-76 292.44,-67.16 294.76,-64.27 291.5,-56 286.99,-44.55 278.03,-34.29 269.55,-26.47"/>
<polygon fill="midnightblue" stroke="midnightblue" points="271.59,-23.61 261.71,-19.76 267.03,-28.93 271.59,-23.61"/>
</g>
<!-- Node19 -->
<g id="node19" class="node">
<title>Node19</title>
<g id="a_node19"><a xlink:title=" ">
<polygon fill="white" stroke="#bfbfbf" points="178,-224.5 178,-243.5 251,-243.5 251,-224.5 178,-224.5"/>
<text text-anchor="middle" x="214.5" y="-231.5" font-family="Helvetica,sans-Serif" font-size="10.00">initializer_list</text>
</a>
</g>
</g>
<!-- Node18&#45;&gt;Node19 -->
<g id="edge26" class="edge">
<title>Node18&#45;&gt;Node19</title>
<path fill="none" stroke="midnightblue" d="M198.64,-280.08C201.18,-272.85 204.86,-262.41 208.03,-253.4"/>
<polygon fill="midnightblue" stroke="midnightblue" points="211.4,-254.35 211.42,-243.75 204.8,-252.02 211.4,-254.35"/>
</g>
<!-- Node20 -->
<g id="node20" class="node">
<title>Node20</title>
<g id="a_node20"><a xlink:title=" ">
<polygon fill="white" stroke="#bfbfbf" points="85.5,-224.5 85.5,-243.5 159.5,-243.5 159.5,-224.5 85.5,-224.5"/>
<text text-anchor="middle" x="122.5" y="-231.5" font-family="Helvetica,sans-Serif" font-size="10.00">GenericList.h</text>
</a>
</g>
</g>
<!-- Node18&#45;&gt;Node20 -->
<g id="edge27" class="edge">
<title>Node18&#45;&gt;Node20</title>
<path fill="none" stroke="midnightblue" d="M183.77,-280.32C172.66,-272.11 155.76,-259.6 142.52,-249.81"/>
<polygon fill="midnightblue" stroke="midnightblue" points="144.56,-246.97 134.44,-243.83 140.4,-252.59 144.56,-246.97"/>
</g>
</g>
</svg>
