<?xml version="1.0" encoding="UTF-8" standalone="no"?>
<!DOCTYPE svg PUBLIC "-//W3C//DTD SVG 1.1//EN"
 "http://www.w3.org/Graphics/SVG/1.1/DTD/svg11.dtd">
<!-- Generated by graphviz version 2.47.1 (20210417.1919)
 -->
<!-- Title: NaturalList.h Pages: 1 -->
<svg width="626pt" height="257pt"
 viewBox="0.00 0.00 625.50 257.00" xmlns="http://www.w3.org/2000/svg" xmlns:xlink="http://www.w3.org/1999/xlink">
<g id="graph0" class="graph" transform="scale(1 1) rotate(0) translate(4 253)">
<title>NaturalList.h</title>
<polygon fill="white" stroke="transparent" points="-4,4 -4,-253 621.5,-253 621.5,4 -4,4"/>
<!-- Node1 -->
<g id="node1" class="node">
<title>Node1</title>
<g id="a_node1"><a xlink:title="The NaturalList specification defines lists of non&#45;negative integer values with zero&#45;based arbitrary ...">
<polygon fill="#bfbfbf" stroke="black" points="375,-228.5 375,-248.5 452,-248.5 452,-228.5 375,-228.5"/>
<text text-anchor="middle" x="413.5" y="-235.7" font-family="Helvetica,sans-Serif" font-size="11.00">NaturalList.h</text>
</a>
</g>
</g>
<!-- Node2 -->
<g id="node2" class="node">
<title>Node2</title>
<g id="a_node2"><a xlink:href="_wave_file_8cpp.html" target="_top" xlink:title="The WaveFile specification defines an object for accessing a RIFF wave file with several channels.">
<polygon fill="white" stroke="black" points="219,-171.5 219,-191.5 302,-191.5 302,-171.5 219,-171.5"/>
<text text-anchor="middle" x="260.5" y="-178.7" font-family="Helvetica,sans-Serif" font-size="11.00">WaveFile.cpp</text>
</a>
</g>
</g>
<!-- Node1&#45;&gt;Node2 -->
<g id="edge1" class="edge">
<title>Node1&#45;&gt;Node2</title>
<path fill="none" stroke="midnightblue" d="M378.7,-224.99C350.31,-214.79 310.9,-200.62 285.55,-191.5"/>
<polygon fill="midnightblue" stroke="midnightblue" points="377.64,-228.33 388.24,-228.42 380.01,-221.74 377.64,-228.33"/>
</g>
<!-- Node3 -->
<g id="node3" class="node">
<title>Node3</title>
<g id="a_node3"><a xlink:href="_natural_list_8cpp.html" target="_top" xlink:title="The NaturalList body implements lists of non&#45;negative integer values with zero&#45;based arbitrary indexe...">
<polygon fill="white" stroke="black" points="320,-171.5 320,-191.5 409,-191.5 409,-171.5 320,-171.5"/>
<text text-anchor="middle" x="364.5" y="-178.7" font-family="Helvetica,sans-Serif" font-size="11.00">NaturalList.cpp</text>
</a>
</g>
</g>
<!-- Node1&#45;&gt;Node3 -->
<g id="edge2" class="edge">
<title>Node1&#45;&gt;Node3</title>
<path fill="none" stroke="midnightblue" d="M398.56,-220.73C390.08,-211.22 379.8,-199.68 372.77,-191.78"/>
<polygon fill="midnightblue" stroke="midnightblue" points="396.14,-223.28 405.41,-228.42 401.37,-218.62 396.14,-223.28"/>
</g>
<!-- Node4 -->
<g id="node4" class="node">
<title>Node4</title>
<g id="a_node4"><a xlink:href="_midi_event_8h.html" target="_top" xlink:title="The MidiEvent specification defines a single MIDI event and the MIDI event kind enumeration.">
<polygon fill="white" stroke="black" points="427.5,-171.5 427.5,-191.5 499.5,-191.5 499.5,-171.5 427.5,-171.5"/>
<text text-anchor="middle" x="463.5" y="-178.7" font-family="Helvetica,sans-Serif" font-size="11.00">MidiEvent.h</text>
</a>
</g>
</g>
<!-- Node1&#45;&gt;Node4 -->
<g id="edge3" class="edge">
<title>Node1&#45;&gt;Node4</title>
<path fill="none" stroke="midnightblue" d="M428.49,-221.01C437.18,-211.45 447.81,-199.76 455.06,-191.78"/>
<polygon fill="midnightblue" stroke="midnightblue" points="425.89,-218.66 421.76,-228.42 431.07,-223.37 425.89,-218.66"/>
</g>
<!-- Node13 -->
<g id="node13" class="node">
<title>Node13</title>
<g id="a_node13"><a xlink:href="_midi_file_8cpp.html" target="_top" xlink:title="The MidiFile implementation implements the services of a MIDI file; currently only file reading is su...">
<polygon fill="white" stroke="black" points="543.5,-0.5 543.5,-20.5 617.5,-20.5 617.5,-0.5 543.5,-0.5"/>
<text text-anchor="middle" x="580.5" y="-7.7" font-family="Helvetica,sans-Serif" font-size="11.00">MidiFile.cpp</text>
</a>
</g>
</g>
<!-- Node1&#45;&gt;Node13 -->
<g id="edge14" class="edge">
<title>Node1&#45;&gt;Node13</title>
<path fill="none" stroke="midnightblue" d="M455.13,-224.9C473.37,-217.67 493.9,-206.99 508.5,-192 558.65,-140.53 575.19,-49.75 579.33,-20.71"/>
<polygon fill="midnightblue" stroke="midnightblue" points="453.71,-221.69 445.56,-228.47 456.15,-228.25 453.71,-221.69"/>
</g>
<!-- Node5 -->
<g id="node5" class="node">
<title>Node5</title>
<g id="a_node5"><a xlink:href="_midi_event_8cpp.html" target="_top" xlink:title="The MidiEvent implementation defines the services of a single MIDI event.">
<polygon fill="white" stroke="black" points="316.5,-114.5 316.5,-134.5 400.5,-134.5 400.5,-114.5 316.5,-114.5"/>
<text text-anchor="middle" x="358.5" y="-121.7" font-family="Helvetica,sans-Serif" font-size="11.00">MidiEvent.cpp</text>
</a>
</g>
</g>
<!-- Node4&#45;&gt;Node5 -->
<g id="edge4" class="edge">
<title>Node4&#45;&gt;Node5</title>
<path fill="none" stroke="midnightblue" d="M437.05,-166.65C417.89,-156.61 392.52,-143.32 375.86,-134.6"/>
<polygon fill="midnightblue" stroke="midnightblue" points="435.68,-169.88 446.16,-171.42 438.93,-163.68 435.68,-169.88"/>
</g>
<!-- Node6 -->
<g id="node6" class="node">
<title>Node6</title>
<g id="a_node6"><a xlink:href="_midi_event_list_8h.html" target="_top" xlink:title="The MidiEventList specification defines lists of MIDI events with zero&#45;based arbitrary indexed access...">
<polygon fill="white" stroke="black" points="419,-114.5 419,-134.5 508,-134.5 508,-114.5 419,-114.5"/>
<text text-anchor="middle" x="463.5" y="-121.7" font-family="Helvetica,sans-Serif" font-size="11.00">MidiEventList.h</text>
</a>
</g>
</g>
<!-- Node4&#45;&gt;Node6 -->
<g id="edge5" class="edge">
<title>Node4&#45;&gt;Node6</title>
<path fill="none" stroke="midnightblue" d="M463.5,-161.38C463.5,-152.37 463.5,-142.04 463.5,-134.78"/>
<polygon fill="midnightblue" stroke="midnightblue" points="460,-161.42 463.5,-171.42 467,-161.42 460,-161.42"/>
</g>
<!-- Node7 -->
<g id="node7" class="node">
<title>Node7</title>
<g id="a_node7"><a xlink:href="_midi_event_converter_8h.html" target="_top" xlink:title="The MidiEventConverter specification defines the handling of MIDI events by feeding them to an underl...">
<polygon fill="white" stroke="black" points="229.5,-57.5 229.5,-77.5 349.5,-77.5 349.5,-57.5 229.5,-57.5"/>
<text text-anchor="middle" x="289.5" y="-64.7" font-family="Helvetica,sans-Serif" font-size="11.00">MidiEventConverter.h</text>
</a>
</g>
</g>
<!-- Node6&#45;&gt;Node7 -->
<g id="edge6" class="edge">
<title>Node6&#45;&gt;Node7</title>
<path fill="none" stroke="midnightblue" d="M425.18,-111.39C392.82,-101.16 347.2,-86.74 317.99,-77.5"/>
<polygon fill="midnightblue" stroke="midnightblue" points="424.18,-114.74 434.77,-114.42 426.29,-108.07 424.18,-114.74"/>
</g>
<!-- Node11 -->
<g id="node11" class="node">
<title>Node11</title>
<g id="a_node11"><a xlink:href="_midi_event_list_8cpp.html" target="_top" xlink:title="The MIDIEventList body implements sequences of integer values with zero&#45;based arbitrary indexed acces...">
<polygon fill="white" stroke="black" points="369,-57.5 369,-77.5 470,-77.5 470,-57.5 369,-57.5"/>
<text text-anchor="middle" x="419.5" y="-64.7" font-family="Helvetica,sans-Serif" font-size="11.00">MidiEventList.cpp</text>
</a>
</g>
</g>
<!-- Node6&#45;&gt;Node11 -->
<g id="edge10" class="edge">
<title>Node6&#45;&gt;Node11</title>
<path fill="none" stroke="midnightblue" d="M449.85,-106.44C442.29,-96.98 433.18,-85.6 426.92,-77.78"/>
<polygon fill="midnightblue" stroke="midnightblue" points="447.25,-108.8 456.23,-114.42 452.72,-104.42 447.25,-108.8"/>
</g>
<!-- Node12 -->
<g id="node12" class="node">
<title>Node12</title>
<g id="a_node12"><a xlink:href="_midi_file_8h.html" target="_top" xlink:title="The MidiFile specification defines the services of a MIDI file; currently only file reading is suppor...">
<polygon fill="white" stroke="black" points="488.5,-57.5 488.5,-77.5 550.5,-77.5 550.5,-57.5 488.5,-57.5"/>
<text text-anchor="middle" x="519.5" y="-64.7" font-family="Helvetica,sans-Serif" font-size="11.00">MidiFile.h</text>
</a>
</g>
</g>
<!-- Node6&#45;&gt;Node12 -->
<g id="edge11" class="edge">
<title>Node6&#45;&gt;Node12</title>
<path fill="none" stroke="midnightblue" d="M480,-107.3C489.79,-97.68 501.85,-85.83 510.05,-77.78"/>
<polygon fill="midnightblue" stroke="midnightblue" points="477.43,-104.91 472.75,-114.42 482.33,-109.91 477.43,-104.91"/>
</g>
<!-- Node8 -->
<g id="node8" class="node">
<title>Node8</title>
<g id="a_node8"><a xlink:href="_fluid_synth_file_converter_8cpp.html" target="_top" xlink:title="The FluidSynthFileConverter module implements a conversion from a MIDI file into a wave file using th...">
<polygon fill="white" stroke="black" points="371.5,-0.5 371.5,-20.5 525.5,-20.5 525.5,-0.5 371.5,-0.5"/>
<text text-anchor="middle" x="448.5" y="-7.7" font-family="Helvetica,sans-Serif" font-size="11.00">FluidSynthFileConverter.cpp</text>
</a>
</g>
</g>
<!-- Node7&#45;&gt;Node8 -->
<g id="edge7" class="edge">
<title>Node7&#45;&gt;Node8</title>
<path fill="none" stroke="midnightblue" d="M325.28,-54.12C354.81,-43.91 396.01,-29.66 422.47,-20.5"/>
<polygon fill="midnightblue" stroke="midnightblue" points="324.06,-50.84 315.76,-57.42 326.35,-57.46 324.06,-50.84"/>
</g>
<!-- Node9 -->
<g id="node9" class="node">
<title>Node9</title>
<g id="a_node9"><a xlink:href="_fluid_synth_plugin___event_processor_8cpp.html" target="_top" xlink:title="The FluidSynthPlugin_Processor module implements the handling of MIDI events from the DAW via JUCE ha...">
<polygon fill="white" stroke="black" points="0,-0.5 0,-20.5 203,-20.5 203,-0.5 0,-0.5"/>
<text text-anchor="middle" x="101.5" y="-7.7" font-family="Helvetica,sans-Serif" font-size="11.00">FluidSynthPlugin_EventProcessor.cpp</text>
</a>
</g>
</g>
<!-- Node7&#45;&gt;Node9 -->
<g id="edge8" class="edge">
<title>Node7&#45;&gt;Node9</title>
<path fill="none" stroke="midnightblue" d="M248.55,-54.52C213.56,-44.28 163.98,-29.78 132.28,-20.5"/>
<polygon fill="midnightblue" stroke="midnightblue" points="247.88,-57.97 258.46,-57.42 249.84,-51.25 247.88,-57.97"/>
</g>
<!-- Node10 -->
<g id="node10" class="node">
<title>Node10</title>
<g id="a_node10"><a xlink:href="_midi_event_converter_8cpp.html" target="_top" xlink:title="The MidiEventConverter module implements the handling of MIDI events by feeding them to an underlying...">
<polygon fill="white" stroke="black" points="221.5,-0.5 221.5,-20.5 353.5,-20.5 353.5,-0.5 221.5,-0.5"/>
<text text-anchor="middle" x="287.5" y="-7.7" font-family="Helvetica,sans-Serif" font-size="11.00">MidiEventConverter.cpp</text>
</a>
</g>
</g>
<!-- Node7&#45;&gt;Node10 -->
<g id="edge9" class="edge">
<title>Node7&#45;&gt;Node10</title>
<path fill="none" stroke="midnightblue" d="M288.8,-47.38C288.48,-38.37 288.1,-28.04 287.84,-20.78"/>
<polygon fill="midnightblue" stroke="midnightblue" points="285.31,-47.55 289.17,-57.42 292.3,-47.3 285.31,-47.55"/>
</g>
<!-- Node12&#45;&gt;Node8 -->
<g id="edge12" class="edge">
<title>Node12&#45;&gt;Node8</title>
<path fill="none" stroke="midnightblue" d="M499.68,-51.15C487.09,-41.39 471.19,-29.07 460.48,-20.78"/>
<polygon fill="midnightblue" stroke="midnightblue" points="497.73,-54.06 507.78,-57.42 502.01,-48.53 497.73,-54.06"/>
</g>
<!-- Node12&#45;&gt;Node13 -->
<g id="edge13" class="edge">
<title>Node12&#45;&gt;Node13</title>
<path fill="none" stroke="midnightblue" d="M537.15,-50.58C547.87,-40.92 561.19,-28.91 570.21,-20.78"/>
<polygon fill="midnightblue" stroke="midnightblue" points="534.66,-48.12 529.57,-57.42 539.34,-53.32 534.66,-48.12"/>
</g>
</g>
</svg>
