<?xml version="1.0" encoding="UTF-8" standalone="no"?>
<!DOCTYPE svg PUBLIC "-//W3C//DTD SVG 1.1//EN"
 "http://www.w3.org/Graphics/SVG/1.1/DTD/svg11.dtd">
<!-- Generated by graphviz version 2.47.1 (20210417.1919)
 -->
<!-- Title: C:/_Benutzer/Dr._Thomas_Tensi/Dokument/Quellen/C++/FluidSynthPlugin/src/BaseTypes/Containers/NaturalList.h Pages: 1 -->
<svg width="424pt" height="464pt"
 viewBox="0.00 0.00 424.00 464.00" xmlns="http://www.w3.org/2000/svg" xmlns:xlink="http://www.w3.org/1999/xlink">
<g id="graph0" class="graph" transform="scale(1 1) rotate(0) translate(4 460)">
<title>C:/_Benutzer/Dr._Thomas_Tensi/Dokument/Quellen/C++/FluidSynthPlugin/src/BaseTypes/Containers/NaturalList.h</title>
<polygon fill="white" stroke="transparent" points="-4,4 -4,-460 420,-460 420,4 -4,4"/>
<!-- Node1 -->
<g id="node1" class="node">
<title>Node1</title>
<g id="a_node1"><a xlink:title="The NaturalList specification defines sequences of non&#45;negative integer values with zero&#45;based arbitr...">
<polygon fill="#bfbfbf" stroke="black" points="20.5,-399.5 20.5,-455.5 215.5,-455.5 215.5,-399.5 20.5,-399.5"/>
<text text-anchor="start" x="28.5" y="-442.7" font-family="Helvetica,sans-Serif" font-size="11.00">C:/_Benutzer/Dr._Thomas</text>
<text text-anchor="start" x="28.5" y="-430.7" font-family="Helvetica,sans-Serif" font-size="11.00">_Tensi/Dokument/Quellen</text>
<text text-anchor="start" x="28.5" y="-418.7" font-family="Helvetica,sans-Serif" font-size="11.00">/C++/FluidSynthPlugin/src</text>
<text text-anchor="middle" x="118" y="-406.7" font-family="Helvetica,sans-Serif" font-size="11.00">/BaseTypes/Containers/NaturalList.h</text>
</a>
</g>
</g>
<!-- Node2 -->
<g id="node2" class="node">
<title>Node2</title>
<g id="a_node2"><a xlink:title=" ">
<polygon fill="white" stroke="#bfbfbf" points="12,-342.5 12,-362.5 90,-362.5 90,-342.5 12,-342.5"/>
<text text-anchor="middle" x="51" y="-349.7" font-family="Helvetica,sans-Serif" font-size="11.00">initializer_list</text>
</a>
</g>
</g>
<!-- Node1&#45;&gt;Node2 -->
<g id="edge1" class="edge">
<title>Node1&#45;&gt;Node2</title>
<path fill="none" stroke="midnightblue" d="M93.05,-399.32C84.03,-389.49 74.12,-378.69 66.19,-370.05"/>
<polygon fill="midnightblue" stroke="midnightblue" points="68.62,-367.53 59.28,-362.52 63.47,-372.26 68.62,-367.53"/>
</g>
<!-- Node3 -->
<g id="node3" class="node">
<title>Node3</title>
<g id="a_node3"><a xlink:href="_generic_sequence_8h.html" target="_top" xlink:title="The GenericSequence specification and body defines a generic sequence type of values with zero&#45;based ...">
<polygon fill="white" stroke="black" points="228.5,-342.5 228.5,-362.5 341.5,-362.5 341.5,-342.5 228.5,-342.5"/>
<text text-anchor="middle" x="285" y="-349.7" font-family="Helvetica,sans-Serif" font-size="11.00">GenericSequence.h</text>
</a>
</g>
</g>
<!-- Node1&#45;&gt;Node3 -->
<g id="edge2" class="edge">
<title>Node1&#45;&gt;Node3</title>
<path fill="none" stroke="midnightblue" d="M180.18,-399.32C205.8,-388.12 234.29,-375.67 255.09,-366.57"/>
<polygon fill="midnightblue" stroke="midnightblue" points="256.59,-369.74 264.36,-362.52 253.79,-363.32 256.59,-369.74"/>
</g>
<!-- Node9 -->
<g id="node9" class="node">
<title>Node9</title>
<g id="a_node9"><a xlink:href="_natural_8h.html" target="_top" xlink:title="The Natural specification and body provides a value object type for naturals (positive integers with ...">
<polygon fill="white" stroke="black" points="124,-228.5 124,-248.5 184,-248.5 184,-228.5 124,-228.5"/>
<text text-anchor="middle" x="154" y="-235.7" font-family="Helvetica,sans-Serif" font-size="11.00">Natural.h</text>
</a>
</g>
</g>
<!-- Node1&#45;&gt;Node9 -->
<g id="edge25" class="edge">
<title>Node1&#45;&gt;Node9</title>
<path fill="none" stroke="midnightblue" d="M123.23,-399.31C130.63,-360.9 143.94,-291.75 150.35,-258.44"/>
<polygon fill="midnightblue" stroke="midnightblue" points="153.79,-259.1 152.25,-248.62 146.92,-257.77 153.79,-259.1"/>
</g>
<!-- Node4 -->
<g id="node4" class="node">
<title>Node4</title>
<g id="a_node4"><a xlink:title=" ">
<polygon fill="white" stroke="#bfbfbf" points="261.5,-285.5 261.5,-305.5 308.5,-305.5 308.5,-285.5 261.5,-285.5"/>
<text text-anchor="middle" x="285" y="-292.7" font-family="Helvetica,sans-Serif" font-size="11.00">vector</text>
</a>
</g>
</g>
<!-- Node3&#45;&gt;Node4 -->
<g id="edge3" class="edge">
<title>Node3&#45;&gt;Node4</title>
<path fill="none" stroke="midnightblue" d="M285,-342.42C285,-335.22 285,-324.9 285,-315.86"/>
<polygon fill="midnightblue" stroke="midnightblue" points="288.5,-315.78 285,-305.78 281.5,-315.78 288.5,-315.78"/>
</g>
<!-- Node5 -->
<g id="node5" class="node">
<title>Node5</title>
<g id="a_node5"><a xlink:href="_boolean_8h.html" target="_top" xlink:title="The Boolean specification and body provides a value object type for boolean values.">
<polygon fill="white" stroke="black" points="164.5,-114.5 164.5,-134.5 229.5,-134.5 229.5,-114.5 164.5,-114.5"/>
<text text-anchor="middle" x="197" y="-121.7" font-family="Helvetica,sans-Serif" font-size="11.00">Boolean.h</text>
</a>
</g>
</g>
<!-- Node3&#45;&gt;Node5 -->
<g id="edge4" class="edge">
<title>Node3&#45;&gt;Node5</title>
<path fill="none" stroke="midnightblue" d="M294.33,-342.39C302.36,-333.86 313.36,-320.29 318,-306 332.72,-260.62 317.21,-212.36 283,-171 270.85,-156.31 252.7,-145.73 236.2,-138.49"/>
<polygon fill="midnightblue" stroke="midnightblue" points="237.32,-135.16 226.74,-134.61 234.66,-141.64 237.32,-135.16"/>
</g>
<!-- Node6 -->
<g id="node6" class="node">
<title>Node6</title>
<g id="a_node6"><a xlink:href="_global_macros_8h.html" target="_top" xlink:title="The GlobalMacros specification defines simple macros (e.g. for parameter modes).">
<polygon fill="white" stroke="black" points="78,-0.5 78,-20.5 170,-20.5 170,-0.5 78,-0.5"/>
<text text-anchor="middle" x="124" y="-7.7" font-family="Helvetica,sans-Serif" font-size="11.00">GlobalMacros.h</text>
</a>
</g>
</g>
<!-- Node3&#45;&gt;Node6 -->
<g id="edge9" class="edge">
<title>Node3&#45;&gt;Node6</title>
<path fill="none" stroke="midnightblue" d="M311.51,-342.49C349.79,-327.59 416,-293.96 416,-239.5 416,-239.5 416,-239.5 416,-123.5 416,-73.54 265.12,-37.54 180.27,-21.24"/>
<polygon fill="midnightblue" stroke="midnightblue" points="180.74,-17.76 170.27,-19.35 179.44,-24.64 180.74,-17.76"/>
</g>
<!-- Node7 -->
<g id="node7" class="node">
<title>Node7</title>
<g id="a_node7"><a xlink:href="_my_string_8h.html" target="_top" xlink:title="The String specification defines a standard string type.">
<polygon fill="white" stroke="black" points="224,-57.5 224,-77.5 292,-77.5 292,-57.5 224,-57.5"/>
<text text-anchor="middle" x="258" y="-64.7" font-family="Helvetica,sans-Serif" font-size="11.00">MyString.h</text>
</a>
</g>
</g>
<!-- Node3&#45;&gt;Node7 -->
<g id="edge24" class="edge">
<title>Node3&#45;&gt;Node7</title>
<path fill="none" stroke="midnightblue" d="M300.78,-342.32C327.31,-325.55 378,-287.27 378,-239.5 378,-239.5 378,-239.5 378,-180.5 378,-132.44 325.92,-99.1 290.38,-81.94"/>
<polygon fill="midnightblue" stroke="midnightblue" points="291.4,-78.55 280.85,-77.53 288.46,-84.9 291.4,-78.55"/>
</g>
<!-- Node3&#45;&gt;Node9 -->
<g id="edge10" class="edge">
<title>Node3&#45;&gt;Node9</title>
<path fill="none" stroke="midnightblue" d="M241.46,-342.48C219.19,-335.82 193.21,-324.57 176,-306 164.01,-293.06 158.55,-273.44 156.06,-258.86"/>
<polygon fill="midnightblue" stroke="midnightblue" points="159.52,-258.31 154.68,-248.89 152.58,-259.27 159.52,-258.31"/>
</g>
<!-- Node13 -->
<g id="node13" class="node">
<title>Node13</title>
<g id="a_node13"><a xlink:href="_integer_8h.html" target="_top" xlink:title="The Integer specification and body provides a value object type for ints.">
<polygon fill="white" stroke="black" points="184.5,-285.5 184.5,-305.5 243.5,-305.5 243.5,-285.5 184.5,-285.5"/>
<text text-anchor="middle" x="214" y="-292.7" font-family="Helvetica,sans-Serif" font-size="11.00">Integer.h</text>
</a>
</g>
</g>
<!-- Node3&#45;&gt;Node13 -->
<g id="edge18" class="edge">
<title>Node3&#45;&gt;Node13</title>
<path fill="none" stroke="midnightblue" d="M273.28,-342.42C262.65,-334.19 246.77,-321.88 234.12,-312.08"/>
<polygon fill="midnightblue" stroke="midnightblue" points="236.03,-309.14 225.98,-305.78 231.74,-314.67 236.03,-309.14"/>
</g>
<!-- Node5&#45;&gt;Node6 -->
<g id="edge5" class="edge">
<title>Node5&#45;&gt;Node6</title>
<path fill="none" stroke="midnightblue" d="M191.03,-114.33C178.94,-95.79 151.41,-53.55 135.65,-29.37"/>
<polygon fill="midnightblue" stroke="midnightblue" points="138.45,-27.26 130.06,-20.79 132.58,-31.08 138.45,-27.26"/>
</g>
<!-- Node5&#45;&gt;Node7 -->
<g id="edge6" class="edge">
<title>Node5&#45;&gt;Node7</title>
<path fill="none" stroke="midnightblue" d="M207.07,-114.42C216.03,-106.35 229.32,-94.36 240.09,-84.65"/>
<polygon fill="midnightblue" stroke="midnightblue" points="242.63,-87.08 247.71,-77.78 237.94,-81.88 242.63,-87.08"/>
</g>
<!-- Node7&#45;&gt;Node6 -->
<g id="edge8" class="edge">
<title>Node7&#45;&gt;Node6</title>
<path fill="none" stroke="midnightblue" d="M235.87,-57.42C213.95,-48.42 180.18,-34.56 155.47,-24.42"/>
<polygon fill="midnightblue" stroke="midnightblue" points="156.74,-21.15 146.16,-20.6 154.08,-27.63 156.74,-21.15"/>
</g>
<!-- Node8 -->
<g id="node8" class="node">
<title>Node8</title>
<g id="a_node8"><a xlink:title=" ">
<polygon fill="white" stroke="#bfbfbf" points="236,-0.5 236,-20.5 280,-20.5 280,-0.5 236,-0.5"/>
<text text-anchor="middle" x="258" y="-7.7" font-family="Helvetica,sans-Serif" font-size="11.00">string</text>
</a>
</g>
</g>
<!-- Node7&#45;&gt;Node8 -->
<g id="edge7" class="edge">
<title>Node7&#45;&gt;Node8</title>
<path fill="none" stroke="midnightblue" d="M258,-57.42C258,-50.22 258,-39.9 258,-30.86"/>
<polygon fill="midnightblue" stroke="midnightblue" points="261.5,-30.78 258,-20.78 254.5,-30.78 261.5,-30.78"/>
</g>
<!-- Node9&#45;&gt;Node6 -->
<g id="edge12" class="edge">
<title>Node9&#45;&gt;Node6</title>
<path fill="none" stroke="midnightblue" d="M123.73,-232.21C101.07,-226.5 71.57,-214.92 57,-192 22.13,-137.12 78.93,-61.43 108.23,-28.24"/>
<polygon fill="midnightblue" stroke="midnightblue" points="110.89,-30.51 115.01,-20.75 105.7,-25.81 110.89,-30.51"/>
</g>
<!-- Node9&#45;&gt;Node7 -->
<g id="edge17" class="edge">
<title>Node9&#45;&gt;Node7</title>
<path fill="none" stroke="midnightblue" d="M163.95,-228.32C181.61,-211.49 218.51,-173.85 239,-135 246.88,-120.06 251.83,-101.47 254.7,-87.75"/>
<polygon fill="midnightblue" stroke="midnightblue" points="258.21,-88.03 256.64,-77.55 251.33,-86.72 258.21,-88.03"/>
</g>
<!-- Node10 -->
<g id="node10" class="node">
<title>Node10</title>
<g id="a_node10"><a xlink:title=" ">
<polygon fill="white" stroke="#bfbfbf" points="226.5,-171.5 226.5,-191.5 273.5,-191.5 273.5,-171.5 226.5,-171.5"/>
<text text-anchor="middle" x="250" y="-178.7" font-family="Helvetica,sans-Serif" font-size="11.00">cmath</text>
</a>
</g>
</g>
<!-- Node9&#45;&gt;Node10 -->
<g id="edge11" class="edge">
<title>Node9&#45;&gt;Node10</title>
<path fill="none" stroke="midnightblue" d="M169.85,-228.42C184.86,-219.82 207.63,-206.78 225.07,-196.78"/>
<polygon fill="midnightblue" stroke="midnightblue" points="227.19,-199.6 234.12,-191.6 223.71,-193.53 227.19,-199.6"/>
</g>
<!-- Node11 -->
<g id="node11" class="node">
<title>Node11</title>
<g id="a_node11"><a xlink:href="_generic_number_8h.html" target="_top" xlink:title="The GenericNumber specification and body defines a template for wrapper objects for elementary numeri...">
<polygon fill="white" stroke="black" points="66.5,-171.5 66.5,-191.5 169.5,-191.5 169.5,-171.5 66.5,-171.5"/>
<text text-anchor="middle" x="118" y="-178.7" font-family="Helvetica,sans-Serif" font-size="11.00">GenericNumber.h</text>
</a>
</g>
</g>
<!-- Node9&#45;&gt;Node11 -->
<g id="edge13" class="edge">
<title>Node9&#45;&gt;Node11</title>
<path fill="none" stroke="midnightblue" d="M148.06,-228.42C143.08,-220.82 135.84,-209.75 129.71,-200.39"/>
<polygon fill="midnightblue" stroke="midnightblue" points="132.48,-198.23 124.07,-191.78 126.62,-202.06 132.48,-198.23"/>
</g>
<!-- Node11&#45;&gt;Node5 -->
<g id="edge16" class="edge">
<title>Node11&#45;&gt;Node5</title>
<path fill="none" stroke="midnightblue" d="M131.05,-171.42C143.17,-162.98 161.44,-150.26 175.68,-140.34"/>
<polygon fill="midnightblue" stroke="midnightblue" points="177.73,-143.18 183.94,-134.6 173.73,-137.44 177.73,-143.18"/>
</g>
<!-- Node11&#45;&gt;Node6 -->
<g id="edge15" class="edge">
<title>Node11&#45;&gt;Node6</title>
<path fill="none" stroke="midnightblue" d="M111.68,-171.24C106.04,-162.39 98.2,-148.43 95,-135 86.11,-97.7 102.73,-54 114.27,-29.87"/>
<polygon fill="midnightblue" stroke="midnightblue" points="117.46,-31.31 118.82,-20.8 111.21,-28.17 117.46,-31.31"/>
</g>
<!-- Node12 -->
<g id="node12" class="node">
<title>Node12</title>
<g id="a_node12"><a xlink:title=" ">
<polygon fill="white" stroke="#bfbfbf" points="104,-114.5 104,-134.5 146,-134.5 146,-114.5 104,-114.5"/>
<text text-anchor="middle" x="125" y="-121.7" font-family="Helvetica,sans-Serif" font-size="11.00">limits</text>
</a>
</g>
</g>
<!-- Node11&#45;&gt;Node12 -->
<g id="edge14" class="edge">
<title>Node11&#45;&gt;Node12</title>
<path fill="none" stroke="midnightblue" d="M119.16,-171.42C120.07,-164.22 121.39,-153.9 122.54,-144.86"/>
<polygon fill="midnightblue" stroke="midnightblue" points="126.03,-145.14 123.82,-134.78 119.08,-144.26 126.03,-145.14"/>
</g>
<!-- Node13&#45;&gt;Node6 -->
<g id="edge20" class="edge">
<title>Node13&#45;&gt;Node6</title>
<path fill="none" stroke="midnightblue" d="M184.24,-292.47C125.44,-286.68 0,-264.69 0,-182.5 0,-182.5 0,-182.5 0,-123.5 0,-74.63 53.69,-41.58 90.41,-24.69"/>
<polygon fill="midnightblue" stroke="midnightblue" points="92.06,-27.79 99.8,-20.55 89.24,-21.39 92.06,-27.79"/>
</g>
<!-- Node13&#45;&gt;Node7 -->
<g id="edge23" class="edge">
<title>Node13&#45;&gt;Node7</title>
<path fill="none" stroke="midnightblue" d="M223.09,-285.37C239.03,-268.61 271.43,-231.08 283,-192 293.87,-155.29 278.2,-111.06 267.19,-86.74"/>
<polygon fill="midnightblue" stroke="midnightblue" points="270.31,-85.15 262.85,-77.62 263.98,-88.15 270.31,-85.15"/>
</g>
<!-- Node13&#45;&gt;Node9 -->
<g id="edge22" class="edge">
<title>Node13&#45;&gt;Node9</title>
<path fill="none" stroke="midnightblue" d="M204.09,-285.42C195.29,-277.35 182.21,-265.36 171.62,-255.65"/>
<polygon fill="midnightblue" stroke="midnightblue" points="173.86,-252.96 164.12,-248.78 169.13,-258.12 173.86,-252.96"/>
</g>
<!-- Node13&#45;&gt;Node10 -->
<g id="edge19" class="edge">
<title>Node13&#45;&gt;Node10</title>
<path fill="none" stroke="midnightblue" d="M216.95,-285.33C222.83,-267.04 236.13,-225.67 243.94,-201.34"/>
<polygon fill="midnightblue" stroke="midnightblue" points="247.29,-202.38 247.01,-191.79 240.62,-200.24 247.29,-202.38"/>
</g>
<!-- Node13&#45;&gt;Node11 -->
<g id="edge21" class="edge">
<title>Node13&#45;&gt;Node11</title>
<path fill="none" stroke="midnightblue" d="M213.16,-285.39C211.48,-271.63 206.61,-245.33 193,-228 182.12,-214.15 165.76,-203.52 151.1,-196.04"/>
<polygon fill="midnightblue" stroke="midnightblue" points="152.31,-192.74 141.78,-191.57 149.28,-199.05 152.31,-192.74"/>
</g>
</g>
</svg>
