<?xml version="1.0" encoding="UTF-8" standalone="no"?>
<!DOCTYPE svg PUBLIC "-//W3C//DTD SVG 1.1//EN"
 "http://www.w3.org/Graphics/SVG/1.1/DTD/svg11.dtd">
<!-- Generated by graphviz version 2.47.1 (20210417.1919)
 -->
<!-- Title: Object.h Pages: 1 -->
<svg width="1529pt" height="308pt"
 viewBox="0.00 0.00 1528.50 308.00" xmlns="http://www.w3.org/2000/svg" xmlns:xlink="http://www.w3.org/1999/xlink">
<g id="graph0" class="graph" transform="scale(1 1) rotate(0) translate(4 304)">
<title>Object.h</title>
<polygon fill="white" stroke="transparent" points="-4,4 -4,-304 1524.5,-304 1524.5,4 -4,4"/>
<!-- Node1 -->
<g id="node1" class="node">
<title>Node1</title>
<g id="a_node1"><a xlink:title="The Object specification and body provides the root object type.">
<polygon fill="#bfbfbf" stroke="black" points="743,-280.5 743,-299.5 796,-299.5 796,-280.5 743,-280.5"/>
<text text-anchor="middle" x="769.5" y="-287.5" font-family="Helvetica,sans-Serif" font-size="10.00">Object.h</text>
</a>
</g>
</g>
<!-- Node2 -->
<g id="node2" class="node">
<title>Node2</title>
<g id="a_node2"><a xlink:href="_wave_file_8h.html" target="_top" xlink:title="The WaveFile specification defines an object for accessing a RIFF wave file with several channels.">
<polygon fill="white" stroke="black" points="255,-112.5 255,-131.5 320,-131.5 320,-112.5 255,-112.5"/>
<text text-anchor="middle" x="287.5" y="-119.5" font-family="Helvetica,sans-Serif" font-size="10.00">WaveFile.h</text>
</a>
</g>
</g>
<!-- Node1&#45;&gt;Node2 -->
<g id="edge1" class="edge">
<title>Node1&#45;&gt;Node2</title>
<path fill="none" stroke="midnightblue" d="M732.8,-283.83C689.48,-277.16 615.61,-263.98 554.5,-244 455.33,-211.59 343.77,-153.49 303.26,-131.63"/>
<polygon fill="midnightblue" stroke="midnightblue" points="732.46,-287.32 742.87,-285.35 733.5,-280.4 732.46,-287.32"/>
</g>
<!-- Node5 -->
<g id="node5" class="node">
<title>Node5</title>
<g id="a_node5"><a xlink:href="_file_8h.html" target="_top" xlink:title="The File specification defines a class for simple file handling based on C stdio.">
<polygon fill="white" stroke="black" points="338,-112.5 338,-131.5 379,-131.5 379,-112.5 338,-112.5"/>
<text text-anchor="middle" x="358.5" y="-119.5" font-family="Helvetica,sans-Serif" font-size="10.00">File.h</text>
</a>
</g>
</g>
<!-- Node1&#45;&gt;Node5 -->
<g id="edge4" class="edge">
<title>Node1&#45;&gt;Node5</title>
<path fill="none" stroke="midnightblue" d="M732.86,-281.23C698.79,-273.49 646.91,-260.42 603.5,-244 512.76,-209.67 410.65,-152.97 373.24,-131.55"/>
<polygon fill="midnightblue" stroke="midnightblue" points="732.31,-284.69 742.84,-283.45 733.84,-277.86 732.31,-284.69"/>
</g>
<!-- Node10 -->
<g id="node10" class="node">
<title>Node10</title>
<g id="a_node10"><a xlink:href="_dynamic_library_8h.html" target="_top" xlink:title="The DynamicLibrary class specifies a very simple and crude wrapper around the dynamic library loading...">
<polygon fill="white" stroke="black" points="1259.5,-112.5 1259.5,-131.5 1351.5,-131.5 1351.5,-112.5 1259.5,-112.5"/>
<text text-anchor="middle" x="1305.5" y="-119.5" font-family="Helvetica,sans-Serif" font-size="10.00">DynamicLibrary.h</text>
</a>
</g>
</g>
<!-- Node1&#45;&gt;Node10 -->
<g id="edge11" class="edge">
<title>Node1&#45;&gt;Node10</title>
<path fill="none" stroke="midnightblue" d="M806.26,-282.29C847.02,-274.5 914.54,-260.59 971.5,-244 1092.3,-208.82 1232.67,-152.87 1284.71,-131.59"/>
<polygon fill="midnightblue" stroke="midnightblue" points="805.42,-278.88 796.25,-284.18 806.72,-285.76 805.42,-278.88"/>
</g>
<!-- Node16 -->
<g id="node16" class="node">
<title>Node16</title>
<g id="a_node16"><a xlink:href="_fluid_synth_8h.html" target="_top" xlink:title="The FluidSynth class specifies an object&#45;oriented wrapper around the fluidsynth library and also allo...">
<polygon fill="white" stroke="black" points="1311,-224.5 1311,-243.5 1382,-243.5 1382,-224.5 1311,-224.5"/>
<text text-anchor="middle" x="1346.5" y="-231.5" font-family="Helvetica,sans-Serif" font-size="10.00">FluidSynth.h</text>
</a>
</g>
</g>
<!-- Node1&#45;&gt;Node16 -->
<g id="edge18" class="edge">
<title>Node1&#45;&gt;Node16</title>
<path fill="none" stroke="midnightblue" d="M806.23,-285.56C910.58,-275.8 1207.93,-247.97 1310.89,-238.33"/>
<polygon fill="midnightblue" stroke="midnightblue" points="805.8,-282.09 796.17,-286.5 806.46,-289.06 805.8,-282.09"/>
</g>
<!-- Node18 -->
<g id="node18" class="node">
<title>Node18</title>
<g id="a_node18"><a xlink:href="_fluid_synth_synthesizer_8h.html" target="_top" xlink:title="The FluidSynthSynthesizer class specifies an object&#45;oriented wrapper around an underlying fluidsynth ...">
<polygon fill="white" stroke="black" points="1118,-112.5 1118,-131.5 1241,-131.5 1241,-112.5 1118,-112.5"/>
<text text-anchor="middle" x="1179.5" y="-119.5" font-family="Helvetica,sans-Serif" font-size="10.00">FluidSynthSynthesizer.h</text>
</a>
</g>
</g>
<!-- Node1&#45;&gt;Node18 -->
<g id="edge27" class="edge">
<title>Node1&#45;&gt;Node18</title>
<path fill="none" stroke="midnightblue" d="M805.89,-279.95C863.65,-264.9 979.14,-231.98 1070.5,-188 1106.83,-170.51 1146.92,-144.81 1166.83,-131.58"/>
<polygon fill="midnightblue" stroke="midnightblue" points="804.94,-276.58 796.13,-282.47 806.69,-283.36 804.94,-276.58"/>
</g>
<!-- Node21 -->
<g id="node21" class="node">
<title>Node21</title>
<g id="a_node21"><a xlink:href="_fluid_synth_plugin___event_processor_8h.html" target="_top" xlink:title="The FluidSynthPlugin_Processor specification defines the handling of MIDI events from the DAW via JUC...">
<polygon fill="white" stroke="black" points="740.5,-224.5 740.5,-243.5 912.5,-243.5 912.5,-224.5 740.5,-224.5"/>
<text text-anchor="middle" x="826.5" y="-231.5" font-family="Helvetica,sans-Serif" font-size="10.00">FluidSynthPlugin_EventProcessor.h</text>
</a>
</g>
</g>
<!-- Node1&#45;&gt;Node21 -->
<g id="edge28" class="edge">
<title>Node1&#45;&gt;Node21</title>
<path fill="none" stroke="midnightblue" d="M786.12,-273.25C796.23,-263.67 808.78,-251.79 817.18,-243.83"/>
<polygon fill="midnightblue" stroke="midnightblue" points="783.51,-270.91 778.66,-280.32 788.32,-275.99 783.51,-270.91"/>
</g>
<!-- Node26 -->
<g id="node26" class="node">
<title>Node26</title>
<g id="a_node26"><a xlink:href="_midi_event_8h.html" target="_top" xlink:title="The MidiEvent specification defines a single MIDI event and the MIDI event kind enumeration.">
<polygon fill="white" stroke="black" points="612,-224.5 612,-243.5 679,-243.5 679,-224.5 612,-224.5"/>
<text text-anchor="middle" x="645.5" y="-231.5" font-family="Helvetica,sans-Serif" font-size="10.00">MidiEvent.h</text>
</a>
</g>
</g>
<!-- Node1&#45;&gt;Node26 -->
<g id="edge35" class="edge">
<title>Node1&#45;&gt;Node26</title>
<path fill="none" stroke="midnightblue" d="M740.49,-276.37C717.27,-266.26 685.34,-252.35 665.06,-243.52"/>
<polygon fill="midnightblue" stroke="midnightblue" points="739.29,-279.66 749.85,-280.44 742.08,-273.24 739.29,-279.66"/>
</g>
<!-- Node30 -->
<g id="node30" class="node">
<title>Node30</title>
<g id="a_node30"><a xlink:href="_midi_event_list_8cpp.html" target="_top" xlink:title="The MIDIEventList body implements sequences of integer values with zero&#45;based arbitrary indexed acces...">
<polygon fill="white" stroke="black" points="619,-112.5 619,-131.5 712,-131.5 712,-112.5 619,-112.5"/>
<text text-anchor="middle" x="665.5" y="-119.5" font-family="Helvetica,sans-Serif" font-size="10.00">MidiEventList.cpp</text>
</a>
</g>
</g>
<!-- Node1&#45;&gt;Node30 -->
<g id="edge46" class="edge">
<title>Node1&#45;&gt;Node30</title>
<path fill="none" stroke="midnightblue" d="M754.16,-272.76C746.8,-264.51 738.17,-254.12 731.5,-244 710.73,-212.46 711.94,-200.96 693.5,-168 686.31,-155.15 677.17,-140.79 671.33,-131.82"/>
<polygon fill="midnightblue" stroke="midnightblue" points="751.63,-275.18 760.96,-280.2 756.8,-270.46 751.63,-275.18"/>
</g>
<!-- Node3 -->
<g id="node3" class="node">
<title>Node3</title>
<g id="a_node3"><a xlink:href="_wave_file_8cpp.html" target="_top" xlink:title="The WaveFile specification defines an object for accessing a RIFF wave file with several channels.">
<polygon fill="white" stroke="black" points="0,-56.5 0,-75.5 75,-75.5 75,-56.5 0,-56.5"/>
<text text-anchor="middle" x="37.5" y="-63.5" font-family="Helvetica,sans-Serif" font-size="10.00">WaveFile.cpp</text>
</a>
</g>
</g>
<!-- Node2&#45;&gt;Node3 -->
<g id="edge2" class="edge">
<title>Node2&#45;&gt;Node3</title>
<path fill="none" stroke="midnightblue" d="M244.8,-111.78C197.1,-101.47 120.61,-84.95 75.09,-75.12"/>
<polygon fill="midnightblue" stroke="midnightblue" points="244.3,-115.25 254.82,-113.94 245.78,-108.41 244.3,-115.25"/>
</g>
<!-- Node4 -->
<g id="node4" class="node">
<title>Node4</title>
<g id="a_node4"><a xlink:href="_fluid_synth_file_converter_8cpp.html" target="_top" xlink:title="The FluidSynthFileConverter module implements a conversion from a MIDI file into a wave file using th...">
<polygon fill="white" stroke="black" points="499.5,-56.5 499.5,-75.5 637.5,-75.5 637.5,-56.5 499.5,-56.5"/>
<text text-anchor="middle" x="568.5" y="-63.5" font-family="Helvetica,sans-Serif" font-size="10.00">FluidSynthFileConverter.cpp</text>
</a>
</g>
</g>
<!-- Node2&#45;&gt;Node4 -->
<g id="edge3" class="edge">
<title>Node2&#45;&gt;Node4</title>
<path fill="none" stroke="midnightblue" d="M330.25,-111.69C401.84,-97.21 474.28,-83.89 520.6,-75.53"/>
<polygon fill="midnightblue" stroke="midnightblue" points="329.26,-108.32 320.15,-113.74 330.65,-115.18 329.26,-108.32"/>
</g>
<!-- Node5&#45;&gt;Node3 -->
<g id="edge5" class="edge">
<title>Node5&#45;&gt;Node3</title>
<path fill="none" stroke="midnightblue" d="M327.9,-112.18C219.29,-88.48 188.8,-94.03 83.5,-76 80.77,-75.53 77.96,-75.03 75.13,-74.51"/>
<polygon fill="midnightblue" stroke="midnightblue" points="327.43,-115.66 337.95,-114.4 328.94,-108.82 327.43,-115.66"/>
</g>
<!-- Node5&#45;&gt;Node4 -->
<g id="edge9" class="edge">
<title>Node5&#45;&gt;Node4</title>
<path fill="none" stroke="midnightblue" d="M388.72,-113.23C427.59,-103.23 494.89,-85.93 535.2,-75.56"/>
<polygon fill="midnightblue" stroke="midnightblue" points="387.83,-109.84 379.02,-115.72 389.57,-116.62 387.83,-109.84"/>
</g>
<!-- Node6 -->
<g id="node6" class="node">
<title>Node6</title>
<g id="a_node6"><a xlink:href="_file_8cpp.html" target="_top" xlink:title="The File body implements a class for simple file handling based on C stdio.">
<polygon fill="white" stroke="black" points="93,-56.5 93,-75.5 144,-75.5 144,-56.5 93,-56.5"/>
<text text-anchor="middle" x="118.5" y="-63.5" font-family="Helvetica,sans-Serif" font-size="10.00">File.cpp</text>
</a>
</g>
</g>
<!-- Node5&#45;&gt;Node6 -->
<g id="edge6" class="edge">
<title>Node5&#45;&gt;Node6</title>
<path fill="none" stroke="midnightblue" d="M328.03,-112.08C249.36,-92.61 227.2,-93.51 152.5,-76 149.77,-75.36 146.92,-74.66 144.08,-73.94"/>
<polygon fill="midnightblue" stroke="midnightblue" points="327.36,-115.52 337.91,-114.56 329.06,-108.73 327.36,-115.52"/>
</g>
<!-- Node7 -->
<g id="node7" class="node">
<title>Node7</title>
<g id="a_node7"><a xlink:href="_logging_support_8cpp.html" target="_top" xlink:title="The LoggingSupport body implements a class for simple entry/exit logging to a file or via a callback ...">
<polygon fill="white" stroke="black" points="162,-56.5 162,-75.5 265,-75.5 265,-56.5 162,-56.5"/>
<text text-anchor="middle" x="213.5" y="-63.5" font-family="Helvetica,sans-Serif" font-size="10.00">LoggingSupport.cpp</text>
</a>
</g>
</g>
<!-- Node5&#45;&gt;Node7 -->
<g id="edge7" class="edge">
<title>Node5&#45;&gt;Node7</title>
<path fill="none" stroke="midnightblue" d="M328.28,-109.75C301.01,-99.59 261.46,-84.86 236.63,-75.62"/>
<polygon fill="midnightblue" stroke="midnightblue" points="327.13,-113.05 337.73,-113.26 329.58,-106.49 327.13,-113.05"/>
</g>
<!-- Node8 -->
<g id="node8" class="node">
<title>Node8</title>
<g id="a_node8"><a xlink:href="_operating_system_8cpp.html" target="_top" xlink:title="The OperatingSystem body implements a class for several operating system related utility functions (l...">
<polygon fill="white" stroke="black" points="283,-56.5 283,-75.5 394,-75.5 394,-56.5 283,-56.5"/>
<text text-anchor="middle" x="338.5" y="-63.5" font-family="Helvetica,sans-Serif" font-size="10.00">OperatingSystem.cpp</text>
</a>
</g>
</g>
<!-- Node5&#45;&gt;Node8 -->
<g id="edge8" class="edge">
<title>Node5&#45;&gt;Node8</title>
<path fill="none" stroke="midnightblue" d="M351.72,-102.69C348.35,-93.59 344.43,-83.01 341.74,-75.75"/>
<polygon fill="midnightblue" stroke="midnightblue" points="348.44,-103.92 355.2,-112.08 355.01,-101.49 348.44,-103.92"/>
</g>
<!-- Node9 -->
<g id="node9" class="node">
<title>Node9</title>
<g id="a_node9"><a xlink:href="_midi_file_8cpp.html" target="_top" xlink:title="The MidiFile implementation implements the services of a MIDI file; currently only file reading is su...">
<polygon fill="white" stroke="black" points="412,-56.5 412,-75.5 481,-75.5 481,-56.5 412,-56.5"/>
<text text-anchor="middle" x="446.5" y="-63.5" font-family="Helvetica,sans-Serif" font-size="10.00">MidiFile.cpp</text>
</a>
</g>
</g>
<!-- Node5&#45;&gt;Node9 -->
<g id="edge10" class="edge">
<title>Node5&#45;&gt;Node9</title>
<path fill="none" stroke="midnightblue" d="M381.48,-106.9C397.61,-97 418.68,-84.07 432.4,-75.65"/>
<polygon fill="midnightblue" stroke="midnightblue" points="379.33,-104.11 372.64,-112.32 382.99,-110.08 379.33,-104.11"/>
</g>
<!-- Node10&#45;&gt;Node4 -->
<g id="edge16" class="edge">
<title>Node10&#45;&gt;Node4</title>
<path fill="none" stroke="midnightblue" d="M1249.18,-111.96C998.32,-83.88 932.62,-93.52 684.5,-76 669.39,-74.93 653.17,-73.72 637.8,-72.54"/>
<polygon fill="midnightblue" stroke="midnightblue" points="1249,-115.46 1259.33,-113.11 1249.79,-108.51 1249,-115.46"/>
</g>
<!-- Node11 -->
<g id="node11" class="node">
<title>Node11</title>
<g id="a_node11"><a xlink:href="_fluid_synth_8cpp.html" target="_top" xlink:title="The FluidSynth class implements the access to the fluidsynth library via a dynamic loading of it.">
<polygon fill="white" stroke="black" points="1438.5,-56.5 1438.5,-75.5 1520.5,-75.5 1520.5,-56.5 1438.5,-56.5"/>
<text text-anchor="middle" x="1479.5" y="-63.5" font-family="Helvetica,sans-Serif" font-size="10.00">FluidSynth.cpp</text>
</a>
</g>
</g>
<!-- Node10&#45;&gt;Node11 -->
<g id="edge12" class="edge">
<title>Node10&#45;&gt;Node11</title>
<path fill="none" stroke="midnightblue" d="M1342.76,-109.44C1375.57,-99.26 1422.58,-84.66 1452.06,-75.52"/>
<polygon fill="midnightblue" stroke="midnightblue" points="1341.58,-106.14 1333.07,-112.44 1343.66,-112.82 1341.58,-106.14"/>
</g>
<!-- Node12 -->
<g id="node12" class="node">
<title>Node12</title>
<g id="a_node12"><a xlink:href="_fluid_synth_settings_8cpp.html" target="_top" xlink:title="The FluidSynthSettings class implements an object&#45;oriented wrapper around an underlying fluidsynth se...">
<polygon fill="white" stroke="black" points="1302.5,-56.5 1302.5,-75.5 1420.5,-75.5 1420.5,-56.5 1302.5,-56.5"/>
<text text-anchor="middle" x="1361.5" y="-63.5" font-family="Helvetica,sans-Serif" font-size="10.00">FluidSynthSettings.cpp</text>
</a>
</g>
</g>
<!-- Node10&#45;&gt;Node12 -->
<g id="edge13" class="edge">
<title>Node10&#45;&gt;Node12</title>
<path fill="none" stroke="midnightblue" d="M1321.83,-105.25C1331.76,-95.67 1344.09,-83.79 1352.34,-75.83"/>
<polygon fill="midnightblue" stroke="midnightblue" points="1319.27,-102.86 1314.5,-112.32 1324.13,-107.9 1319.27,-102.86"/>
</g>
<!-- Node13 -->
<g id="node13" class="node">
<title>Node13</title>
<g id="a_node13"><a xlink:href="_fluid_synth_sound_font_8cpp.html" target="_top" xlink:title="The FluidSynthSoundFont class implements an object&#45;oriented wrapper around an underlying fluidsynth s...">
<polygon fill="white" stroke="black" points="1090,-0.5 1090,-19.5 1219,-19.5 1219,-0.5 1090,-0.5"/>
<text text-anchor="middle" x="1154.5" y="-7.5" font-family="Helvetica,sans-Serif" font-size="10.00">FluidSynthSoundFont.cpp</text>
</a>
</g>
</g>
<!-- Node10&#45;&gt;Node13 -->
<g id="edge14" class="edge">
<title>Node10&#45;&gt;Node13</title>
<path fill="none" stroke="midnightblue" d="M1295.42,-103.45C1286.46,-89.12 1272.22,-69.17 1255.5,-56 1233.93,-39.02 1204.95,-26.96 1183.56,-19.64"/>
<polygon fill="midnightblue" stroke="midnightblue" points="1292.6,-105.54 1300.74,-112.31 1298.6,-101.94 1292.6,-105.54"/>
</g>
<!-- Node14 -->
<g id="node14" class="node">
<title>Node14</title>
<g id="a_node14"><a xlink:href="_fluid_synth_synthesizer_8cpp.html" target="_top" xlink:title="The FluidSynthSynthesizer class implements an object&#45;oriented wrapper around an underlying fluidsynth...">
<polygon fill="white" stroke="black" points="1112.5,-56.5 1112.5,-75.5 1246.5,-75.5 1246.5,-56.5 1112.5,-56.5"/>
<text text-anchor="middle" x="1179.5" y="-63.5" font-family="Helvetica,sans-Serif" font-size="10.00">FluidSynthSynthesizer.cpp</text>
</a>
</g>
</g>
<!-- Node10&#45;&gt;Node14 -->
<g id="edge15" class="edge">
<title>Node10&#45;&gt;Node14</title>
<path fill="none" stroke="midnightblue" d="M1276.34,-108.5C1252.72,-98.38 1220.07,-84.39 1199.37,-75.52"/>
<polygon fill="midnightblue" stroke="midnightblue" points="1274.96,-111.72 1285.53,-112.44 1277.72,-105.29 1274.96,-111.72"/>
</g>
<!-- Node15 -->
<g id="node15" class="node">
<title>Node15</title>
<g id="a_node15"><a xlink:href="_fluid_synth_plugin___event_processor_8cpp.html" target="_top" xlink:title="The FluidSynthPlugin_Processor module implements the handling of MIDI events from the DAW via JUCE ha...">
<polygon fill="white" stroke="black" points="693.5,-56.5 693.5,-75.5 875.5,-75.5 875.5,-56.5 693.5,-56.5"/>
<text text-anchor="middle" x="784.5" y="-63.5" font-family="Helvetica,sans-Serif" font-size="10.00">FluidSynthPlugin_EventProcessor.cpp</text>
</a>
</g>
</g>
<!-- Node10&#45;&gt;Node15 -->
<g id="edge17" class="edge">
<title>Node10&#45;&gt;Node15</title>
<path fill="none" stroke="midnightblue" d="M1249.15,-111.9C1113.4,-94.48 967.58,-81.5 875.78,-74.02"/>
<polygon fill="midnightblue" stroke="midnightblue" points="1248.95,-115.4 1259.32,-113.22 1249.85,-108.46 1248.95,-115.4"/>
</g>
<!-- Node16&#45;&gt;Node11 -->
<g id="edge19" class="edge">
<title>Node16&#45;&gt;Node11</title>
<path fill="none" stroke="midnightblue" d="M1370.81,-219.11C1383.38,-211.12 1398.37,-200.25 1409.5,-188 1442.63,-151.54 1467.23,-96.82 1476,-75.72"/>
<polygon fill="midnightblue" stroke="midnightblue" points="1368.87,-216.19 1362.17,-224.4 1372.53,-222.16 1368.87,-216.19"/>
</g>
<!-- Node17 -->
<g id="node17" class="node">
<title>Node17</title>
<g id="a_node17"><a xlink:href="_fluid_synth_settings_8h.html" target="_top" xlink:title="The FluidSynthSettings class specifies an object&#45;oriented wrapper around an underlying fluidsynth set...">
<polygon fill="white" stroke="black" points="1293,-168.5 1293,-187.5 1400,-187.5 1400,-168.5 1293,-168.5"/>
<text text-anchor="middle" x="1346.5" y="-175.5" font-family="Helvetica,sans-Serif" font-size="10.00">FluidSynthSettings.h</text>
</a>
</g>
</g>
<!-- Node16&#45;&gt;Node17 -->
<g id="edge20" class="edge">
<title>Node16&#45;&gt;Node17</title>
<path fill="none" stroke="midnightblue" d="M1346.5,-213.8C1346.5,-204.91 1346.5,-194.78 1346.5,-187.75"/>
<polygon fill="midnightblue" stroke="midnightblue" points="1343,-214.08 1346.5,-224.08 1350,-214.08 1343,-214.08"/>
</g>
<!-- Node17&#45;&gt;Node12 -->
<g id="edge21" class="edge">
<title>Node17&#45;&gt;Node12</title>
<path fill="none" stroke="midnightblue" d="M1353.49,-158.73C1356.23,-150.66 1359.06,-140.99 1360.5,-132 1363.67,-112.16 1362.92,-88.49 1362.16,-75.9"/>
<polygon fill="midnightblue" stroke="midnightblue" points="1350.17,-157.62 1350.06,-168.22 1356.75,-160 1350.17,-157.62"/>
</g>
<!-- Node17&#45;&gt;Node18 -->
<g id="edge22" class="edge">
<title>Node17&#45;&gt;Node18</title>
<path fill="none" stroke="midnightblue" d="M1310.33,-165.3C1278.86,-155.13 1234.01,-140.62 1205.84,-131.52"/>
<polygon fill="midnightblue" stroke="midnightblue" points="1309.45,-168.7 1320.04,-168.44 1311.6,-162.04 1309.45,-168.7"/>
</g>
<!-- Node18&#45;&gt;Node14 -->
<g id="edge26" class="edge">
<title>Node18&#45;&gt;Node14</title>
<path fill="none" stroke="midnightblue" d="M1179.5,-101.8C1179.5,-92.91 1179.5,-82.78 1179.5,-75.75"/>
<polygon fill="midnightblue" stroke="midnightblue" points="1176,-102.08 1179.5,-112.08 1183,-102.08 1176,-102.08"/>
</g>
<!-- Node19 -->
<g id="node19" class="node">
<title>Node19</title>
<g id="a_node19"><a xlink:href="_fluid_synth_sound_font_8h.html" target="_top" xlink:title="The FluidSynthSoundFont class specifies an object&#45;oriented wrapper around an underlying fluidsynth so...">
<polygon fill="white" stroke="black" points="975,-56.5 975,-75.5 1094,-75.5 1094,-56.5 975,-56.5"/>
<text text-anchor="middle" x="1034.5" y="-63.5" font-family="Helvetica,sans-Serif" font-size="10.00">FluidSynthSoundFont.h</text>
</a>
</g>
</g>
<!-- Node18&#45;&gt;Node19 -->
<g id="edge23" class="edge">
<title>Node18&#45;&gt;Node19</title>
<path fill="none" stroke="midnightblue" d="M1147.02,-108.91C1119.76,-98.75 1081.51,-84.51 1057.37,-75.52"/>
<polygon fill="midnightblue" stroke="midnightblue" points="1145.93,-112.23 1156.52,-112.44 1148.37,-105.67 1145.93,-112.23"/>
</g>
<!-- Node19&#45;&gt;Node13 -->
<g id="edge24" class="edge">
<title>Node19&#45;&gt;Node13</title>
<path fill="none" stroke="midnightblue" d="M1062.87,-52.23C1085.32,-42.13 1116.04,-28.31 1135.57,-19.52"/>
<polygon fill="midnightblue" stroke="midnightblue" points="1061.2,-49.15 1053.51,-56.44 1064.07,-55.53 1061.2,-49.15"/>
</g>
<!-- Node20 -->
<g id="node20" class="node">
<title>Node20</title>
<g id="a_node20"><a xlink:href="_midi_event_converter_8cpp.html" target="_top" xlink:title="The MidiEventConverter module implements the handling of MIDI events by feeding them to an underlying...">
<polygon fill="white" stroke="black" points="840.5,-0.5 840.5,-19.5 958.5,-19.5 958.5,-0.5 840.5,-0.5"/>
<text text-anchor="middle" x="899.5" y="-7.5" font-family="Helvetica,sans-Serif" font-size="10.00">MidiEventConverter.cpp</text>
</a>
</g>
</g>
<!-- Node19&#45;&gt;Node20 -->
<g id="edge25" class="edge">
<title>Node19&#45;&gt;Node20</title>
<path fill="none" stroke="midnightblue" d="M1003.59,-52.64C978.26,-42.5 943.07,-28.43 920.79,-19.52"/>
<polygon fill="midnightblue" stroke="midnightblue" points="1002.52,-55.98 1013.11,-56.44 1005.12,-49.48 1002.52,-55.98"/>
</g>
<!-- Node22 -->
<g id="node22" class="node">
<title>Node22</title>
<g id="a_node22"><a xlink:href="_fluid_synth_plugin___editor_8h.html" target="_top" xlink:title="The FluidSynthPlugin_Editor specification implements the editor for the processor of MIDI events from...">
<polygon fill="white" stroke="black" points="751,-168.5 751,-187.5 880,-187.5 880,-168.5 751,-168.5"/>
<text text-anchor="middle" x="815.5" y="-175.5" font-family="Helvetica,sans-Serif" font-size="10.00">FluidSynthPlugin_Editor.h</text>
</a>
</g>
</g>
<!-- Node21&#45;&gt;Node22 -->
<g id="edge29" class="edge">
<title>Node21&#45;&gt;Node22</title>
<path fill="none" stroke="midnightblue" d="M822.65,-214.1C820.82,-205.14 818.73,-194.86 817.28,-187.75"/>
<polygon fill="midnightblue" stroke="midnightblue" points="819.26,-214.98 824.68,-224.08 826.12,-213.59 819.26,-214.98"/>
</g>
<!-- Node24 -->
<g id="node24" class="node">
<title>Node24</title>
<g id="a_node24"><a xlink:href="_fluid_synth_plugin___editor_support_8h.html" target="_top" xlink:title="The FluidSynthPlugin_EditorSupport specification defines support services for the editor of the Fluid...">
<polygon fill="white" stroke="black" points="898,-168.5 898,-187.5 1061,-187.5 1061,-168.5 898,-168.5"/>
<text text-anchor="middle" x="979.5" y="-175.5" font-family="Helvetica,sans-Serif" font-size="10.00">FluidSynthPlugin_EditorSupport.h</text>
</a>
</g>
</g>
<!-- Node21&#45;&gt;Node24 -->
<g id="edge32" class="edge">
<title>Node21&#45;&gt;Node24</title>
<path fill="none" stroke="midnightblue" d="M860.39,-221.04C889.18,-210.88 929.79,-196.55 955.37,-187.52"/>
<polygon fill="midnightblue" stroke="midnightblue" points="859.01,-217.81 850.74,-224.44 861.34,-224.42 859.01,-217.81"/>
</g>
<!-- Node22&#45;&gt;Node15 -->
<g id="edge31" class="edge">
<title>Node22&#45;&gt;Node15</title>
<path fill="none" stroke="midnightblue" d="M789.18,-163.05C777.84,-155.51 765.75,-145.05 759.5,-132 750.09,-112.37 766.27,-88.21 776.71,-75.6"/>
<polygon fill="midnightblue" stroke="midnightblue" points="787.65,-166.21 798,-168.46 791.31,-160.25 787.65,-166.21"/>
</g>
<!-- Node23 -->
<g id="node23" class="node">
<title>Node23</title>
<g id="a_node23"><a xlink:href="_fluid_synth_plugin___editor_8cpp.html" target="_top" xlink:title="The FluidSynthPlugin_Editor module implements the editor for the processor of MIDI events from the DA...">
<polygon fill="white" stroke="black" points="768.5,-112.5 768.5,-131.5 908.5,-131.5 908.5,-112.5 768.5,-112.5"/>
<text text-anchor="middle" x="838.5" y="-119.5" font-family="Helvetica,sans-Serif" font-size="10.00">FluidSynthPlugin_Editor.cpp</text>
</a>
</g>
</g>
<!-- Node22&#45;&gt;Node23 -->
<g id="edge30" class="edge">
<title>Node22&#45;&gt;Node23</title>
<path fill="none" stroke="midnightblue" d="M823.3,-158.69C827.18,-149.59 831.68,-139.01 834.77,-131.75"/>
<polygon fill="midnightblue" stroke="midnightblue" points="820,-157.51 819.3,-168.08 826.44,-160.25 820,-157.51"/>
</g>
<!-- Node24&#45;&gt;Node23 -->
<g id="edge33" class="edge">
<title>Node24&#45;&gt;Node23</title>
<path fill="none" stroke="midnightblue" d="M947.57,-164.77C921.09,-154.63 884.11,-140.47 860.74,-131.52"/>
<polygon fill="midnightblue" stroke="midnightblue" points="946.57,-168.14 957.16,-168.44 949.07,-161.6 946.57,-168.14"/>
</g>
<!-- Node25 -->
<g id="node25" class="node">
<title>Node25</title>
<g id="a_node25"><a xlink:href="_fluid_synth_plugin___editor_support_8cpp.html" target="_top" xlink:title="The FluidSynthPlugin_EditorSupport module implements support services for the editor of the FluidSynt...">
<polygon fill="white" stroke="black" points="927,-112.5 927,-131.5 1100,-131.5 1100,-112.5 927,-112.5"/>
<text text-anchor="middle" x="1013.5" y="-119.5" font-family="Helvetica,sans-Serif" font-size="10.00">FluidSynthPlugin_EditorSupport.cpp</text>
</a>
</g>
</g>
<!-- Node24&#45;&gt;Node25 -->
<g id="edge34" class="edge">
<title>Node24&#45;&gt;Node25</title>
<path fill="none" stroke="midnightblue" d="M990.48,-159.57C996.33,-150.27 1003.27,-139.25 1007.99,-131.75"/>
<polygon fill="midnightblue" stroke="midnightblue" points="987.48,-157.76 985.11,-168.08 993.4,-161.49 987.48,-157.76"/>
</g>
<!-- Node27 -->
<g id="node27" class="node">
<title>Node27</title>
<g id="a_node27"><a xlink:href="_midi_event_8cpp.html" target="_top" xlink:title="The MidiEvent implementation defines the services of a single MIDI event.">
<polygon fill="white" stroke="black" points="607,-168.5 607,-187.5 684,-187.5 684,-168.5 607,-168.5"/>
<text text-anchor="middle" x="645.5" y="-175.5" font-family="Helvetica,sans-Serif" font-size="10.00">MidiEvent.cpp</text>
</a>
</g>
</g>
<!-- Node26&#45;&gt;Node27 -->
<g id="edge36" class="edge">
<title>Node26&#45;&gt;Node27</title>
<path fill="none" stroke="midnightblue" d="M645.5,-213.8C645.5,-204.91 645.5,-194.78 645.5,-187.75"/>
<polygon fill="midnightblue" stroke="midnightblue" points="642,-214.08 645.5,-224.08 649,-214.08 642,-214.08"/>
</g>
<!-- Node28 -->
<g id="node28" class="node">
<title>Node28</title>
<g id="a_node28"><a xlink:href="_midi_event_list_8h.html" target="_top" xlink:title="The MidiEventList specification defines lists of MIDI events with zero&#45;based arbitrary indexed access...">
<polygon fill="white" stroke="black" points="506,-168.5 506,-187.5 589,-187.5 589,-168.5 506,-168.5"/>
<text text-anchor="middle" x="547.5" y="-175.5" font-family="Helvetica,sans-Serif" font-size="10.00">MidiEventList.h</text>
</a>
</g>
</g>
<!-- Node26&#45;&gt;Node28 -->
<g id="edge37" class="edge">
<title>Node26&#45;&gt;Node28</title>
<path fill="none" stroke="midnightblue" d="M620.91,-219.45C602.82,-209.48 578.77,-196.23 563.21,-187.65"/>
<polygon fill="midnightblue" stroke="midnightblue" points="619.31,-222.56 629.75,-224.32 622.69,-216.43 619.31,-222.56"/>
</g>
<!-- Node29 -->
<g id="node29" class="node">
<title>Node29</title>
<g id="a_node29"><a xlink:href="_midi_event_converter_8h.html" target="_top" xlink:title="The MidiEventConverter specification defines the handling of MIDI events by feeding them to an underl...">
<polygon fill="white" stroke="black" points="494,-112.5 494,-131.5 601,-131.5 601,-112.5 494,-112.5"/>
<text text-anchor="middle" x="547.5" y="-119.5" font-family="Helvetica,sans-Serif" font-size="10.00">MidiEventConverter.h</text>
</a>
</g>
</g>
<!-- Node28&#45;&gt;Node29 -->
<g id="edge38" class="edge">
<title>Node28&#45;&gt;Node29</title>
<path fill="none" stroke="midnightblue" d="M547.5,-157.8C547.5,-148.91 547.5,-138.78 547.5,-131.75"/>
<polygon fill="midnightblue" stroke="midnightblue" points="544,-158.08 547.5,-168.08 551,-158.08 544,-158.08"/>
</g>
<!-- Node28&#45;&gt;Node30 -->
<g id="edge42" class="edge">
<title>Node28&#45;&gt;Node30</title>
<path fill="none" stroke="midnightblue" d="M575.4,-164.23C597.47,-154.13 627.68,-140.31 646.89,-131.52"/>
<polygon fill="midnightblue" stroke="midnightblue" points="573.83,-161.1 566.2,-168.44 576.75,-167.46 573.83,-161.1"/>
</g>
<!-- Node31 -->
<g id="node31" class="node">
<title>Node31</title>
<g id="a_node31"><a xlink:href="_midi_file_8h.html" target="_top" xlink:title="The MidiFile specification defines the services of a MIDI file; currently only file reading is suppor...">
<polygon fill="white" stroke="black" points="417,-112.5 417,-131.5 476,-131.5 476,-112.5 417,-112.5"/>
<text text-anchor="middle" x="446.5" y="-119.5" font-family="Helvetica,sans-Serif" font-size="10.00">MidiFile.h</text>
</a>
</g>
</g>
<!-- Node28&#45;&gt;Node31 -->
<g id="edge43" class="edge">
<title>Node28&#45;&gt;Node31</title>
<path fill="none" stroke="midnightblue" d="M522.42,-163.59C503.74,-153.61 478.8,-140.27 462.69,-131.65"/>
<polygon fill="midnightblue" stroke="midnightblue" points="520.8,-166.7 531.27,-168.32 524.1,-160.52 520.8,-166.7"/>
</g>
<!-- Node29&#45;&gt;Node4 -->
<g id="edge39" class="edge">
<title>Node29&#45;&gt;Node4</title>
<path fill="none" stroke="midnightblue" d="M554.62,-102.69C558.16,-93.59 562.27,-83.01 565.1,-75.75"/>
<polygon fill="midnightblue" stroke="midnightblue" points="551.33,-101.49 550.97,-112.08 557.85,-104.03 551.33,-101.49"/>
</g>
<!-- Node29&#45;&gt;Node15 -->
<g id="edge40" class="edge">
<title>Node29&#45;&gt;Node15</title>
<path fill="none" stroke="midnightblue" d="M594.82,-110.22C639.61,-100.01 705.94,-84.9 747.12,-75.52"/>
<polygon fill="midnightblue" stroke="midnightblue" points="594.03,-106.81 585.05,-112.44 595.58,-113.63 594.03,-106.81"/>
</g>
<!-- Node29&#45;&gt;Node20 -->
<g id="edge41" class="edge">
<title>Node29&#45;&gt;Node20</title>
<path fill="none" stroke="midnightblue" d="M576.79,-108.22C596.6,-99.45 623.29,-87.37 646.5,-76 663.64,-67.6 666.54,-62.46 684.5,-56 735.63,-37.6 796.46,-25.74 840.34,-18.84"/>
<polygon fill="midnightblue" stroke="midnightblue" points="575.12,-105.13 567.38,-112.37 577.94,-111.54 575.12,-105.13"/>
</g>
<!-- Node31&#45;&gt;Node4 -->
<g id="edge44" class="edge">
<title>Node31&#45;&gt;Node4</title>
<path fill="none" stroke="midnightblue" d="M475.04,-108.37C497.89,-98.26 529.31,-84.35 549.26,-75.52"/>
<polygon fill="midnightblue" stroke="midnightblue" points="473.56,-105.2 465.83,-112.44 476.39,-111.6 473.56,-105.2"/>
</g>
<!-- Node31&#45;&gt;Node9 -->
<g id="edge45" class="edge">
<title>Node31&#45;&gt;Node9</title>
<path fill="none" stroke="midnightblue" d="M446.5,-101.8C446.5,-92.91 446.5,-82.78 446.5,-75.75"/>
<polygon fill="midnightblue" stroke="midnightblue" points="443,-102.08 446.5,-112.08 450,-102.08 443,-102.08"/>
</g>
</g>
</svg>
