<?xml version="1.0" encoding="UTF-8" standalone="no"?>
<!DOCTYPE svg PUBLIC "-//W3C//DTD SVG 1.1//EN"
 "http://www.w3.org/Graphics/SVG/1.1/DTD/svg11.dtd">
<!-- Generated by graphviz version 2.47.1 (20210417.1919)
 -->
<!-- Title: OperatingSystem.h Pages: 1 -->
<svg width="852pt" height="86pt"
 viewBox="0.00 0.00 851.50 86.00" xmlns="http://www.w3.org/2000/svg" xmlns:xlink="http://www.w3.org/1999/xlink">
<g id="graph0" class="graph" transform="scale(1 1) rotate(0) translate(4 82)">
<title>OperatingSystem.h</title>
<polygon fill="white" stroke="transparent" points="-4,4 -4,-82 847.5,-82 847.5,4 -4,4"/>
<!-- Node1 -->
<g id="node1" class="node">
<title>Node1</title>
<g id="a_node1"><a xlink:title="The OperatingSystem specification defines a class for several operating system related utility functi...">
<polygon fill="#bfbfbf" stroke="black" points="318,-57.5 318,-77.5 429,-77.5 429,-57.5 318,-57.5"/>
<text text-anchor="middle" x="373.5" y="-64.7" font-family="Helvetica,sans-Serif" font-size="11.00">OperatingSystem.h</text>
</a>
</g>
</g>
<!-- Node2 -->
<g id="node2" class="node">
<title>Node2</title>
<g id="a_node2"><a xlink:href="_wave_file_8cpp.html" target="_top" xlink:title="The WaveFile specification defines an object for accessing a RIFF wave file with several channels.">
<polygon fill="white" stroke="black" points="0,-0.5 0,-20.5 83,-20.5 83,-0.5 0,-0.5"/>
<text text-anchor="middle" x="41.5" y="-7.7" font-family="Helvetica,sans-Serif" font-size="11.00">WaveFile.cpp</text>
</a>
</g>
</g>
<!-- Node1&#45;&gt;Node2 -->
<g id="edge1" class="edge">
<title>Node1&#45;&gt;Node2</title>
<path fill="none" stroke="midnightblue" d="M308.03,-56.35C251.03,-47.4 166.22,-33.83 92.5,-21 89.48,-20.47 86.37,-19.92 83.23,-19.36"/>
<polygon fill="midnightblue" stroke="midnightblue" points="307.56,-59.82 317.99,-57.91 308.65,-52.9 307.56,-59.82"/>
</g>
<!-- Node3 -->
<g id="node3" class="node">
<title>Node3</title>
<g id="a_node3"><a xlink:href="_logging_support_8cpp.html" target="_top" xlink:title="The LoggingSupport body implements a class for simple entry/exit logging to a file or via a callback ...">
<polygon fill="white" stroke="black" points="101.5,-0.5 101.5,-20.5 215.5,-20.5 215.5,-0.5 101.5,-0.5"/>
<text text-anchor="middle" x="158.5" y="-7.7" font-family="Helvetica,sans-Serif" font-size="11.00">LoggingSupport.cpp</text>
</a>
</g>
</g>
<!-- Node1&#45;&gt;Node3 -->
<g id="edge2" class="edge">
<title>Node1&#45;&gt;Node3</title>
<path fill="none" stroke="midnightblue" d="M328.21,-54.91C288.11,-44.66 230.42,-29.9 193.7,-20.5"/>
<polygon fill="midnightblue" stroke="midnightblue" points="327.44,-58.33 338,-57.42 329.18,-51.55 327.44,-58.33"/>
</g>
<!-- Node4 -->
<g id="node4" class="node">
<title>Node4</title>
<g id="a_node4"><a xlink:href="_operating_system_8cpp.html" target="_top" xlink:title="The OperatingSystem body implements a class for several operating system related utility functions (l...">
<polygon fill="white" stroke="black" points="234,-0.5 234,-20.5 357,-20.5 357,-0.5 234,-0.5"/>
<text text-anchor="middle" x="295.5" y="-7.7" font-family="Helvetica,sans-Serif" font-size="11.00">OperatingSystem.cpp</text>
</a>
</g>
</g>
<!-- Node1&#45;&gt;Node4 -->
<g id="edge3" class="edge">
<title>Node1&#45;&gt;Node4</title>
<path fill="none" stroke="midnightblue" d="M352.07,-51.39C338.08,-41.52 320.26,-28.96 308.4,-20.6"/>
<polygon fill="midnightblue" stroke="midnightblue" points="350.43,-54.52 360.62,-57.42 354.46,-48.79 350.43,-54.52"/>
</g>
<!-- Node5 -->
<g id="node5" class="node">
<title>Node5</title>
<g id="a_node5"><a xlink:href="_fluid_synth_file_converter_8cpp.html" target="_top" xlink:title="The FluidSynthFileConverter module implements a conversion from a MIDI file into a wave file using th...">
<polygon fill="white" stroke="black" points="375.5,-0.5 375.5,-20.5 529.5,-20.5 529.5,-0.5 375.5,-0.5"/>
<text text-anchor="middle" x="452.5" y="-7.7" font-family="Helvetica,sans-Serif" font-size="11.00">FluidSynthFileConverter.cpp</text>
</a>
</g>
</g>
<!-- Node1&#45;&gt;Node5 -->
<g id="edge4" class="edge">
<title>Node1&#45;&gt;Node5</title>
<path fill="none" stroke="midnightblue" d="M394.8,-51.67C409.03,-41.76 427.31,-29.04 439.44,-20.6"/>
<polygon fill="midnightblue" stroke="midnightblue" points="392.75,-48.83 386.55,-57.42 396.75,-54.58 392.75,-48.83"/>
</g>
<!-- Node6 -->
<g id="node6" class="node">
<title>Node6</title>
<g id="a_node6"><a xlink:href="_fluid_synth_plugin___event_processor_8cpp.html" target="_top" xlink:title="The FluidSynthPlugin_Processor module implements the handling of MIDI events from the DAW via JUCE ha...">
<polygon fill="white" stroke="black" points="548,-0.5 548,-20.5 751,-20.5 751,-0.5 548,-0.5"/>
<text text-anchor="middle" x="649.5" y="-7.7" font-family="Helvetica,sans-Serif" font-size="11.00">FluidSynthPlugin_EventProcessor.cpp</text>
</a>
</g>
</g>
<!-- Node1&#45;&gt;Node6 -->
<g id="edge5" class="edge">
<title>Node1&#45;&gt;Node6</title>
<path fill="none" stroke="midnightblue" d="M428.73,-55.49C480.25,-45.23 556.17,-30.1 604.21,-20.53"/>
<polygon fill="midnightblue" stroke="midnightblue" points="427.89,-52.09 418.77,-57.48 429.26,-58.96 427.89,-52.09"/>
</g>
<!-- Node7 -->
<g id="node7" class="node">
<title>Node7</title>
<g id="a_node7"><a xlink:href="_midi_file_8cpp.html" target="_top" xlink:title="The MidiFile implementation implements the services of a MIDI file; currently only file reading is su...">
<polygon fill="white" stroke="black" points="769.5,-0.5 769.5,-20.5 843.5,-20.5 843.5,-0.5 769.5,-0.5"/>
<text text-anchor="middle" x="806.5" y="-7.7" font-family="Helvetica,sans-Serif" font-size="11.00">MidiFile.cpp</text>
</a>
</g>
</g>
<!-- Node1&#45;&gt;Node7 -->
<g id="edge6" class="edge">
<title>Node1&#45;&gt;Node7</title>
<path fill="none" stroke="midnightblue" d="M439.2,-60.53C516.39,-53.1 648.17,-39.17 760.5,-21 763.4,-20.53 766.39,-20.01 769.39,-19.45"/>
<polygon fill="midnightblue" stroke="midnightblue" points="438.77,-57.05 429.14,-61.49 439.43,-64.02 438.77,-57.05"/>
</g>
</g>
</svg>
