<?xml version="1.0" encoding="UTF-8" standalone="no"?>
<!DOCTYPE svg PUBLIC "-//W3C//DTD SVG 1.1//EN"
 "http://www.w3.org/Graphics/SVG/1.1/DTD/svg11.dtd">
<!-- Generated by graphviz version 2.47.1 (20210417.1919)
 -->
<!-- Title: OperatingSystem.h Pages: 1 -->
<svg width="359pt" height="357pt"
 viewBox="0.00 0.00 359.00 357.00" xmlns="http://www.w3.org/2000/svg" xmlns:xlink="http://www.w3.org/1999/xlink">
<g id="graph0" class="graph" transform="scale(1 1) rotate(0) translate(4 353)">
<title>OperatingSystem.h</title>
<!-- Node1 -->
<g id="Node000001" class="node">
<title>Node1</title>
<g id="a_Node000001"><a xlink:title="The OperatingSystem specification defines a class for several operating system related utility functi...">
<polygon fill="#999999" stroke="#666666" points="241,-349 140,-349 140,-330 241,-330 241,-349"/>
<text text-anchor="middle" x="190.5" y="-337" font-family="Helvetica,sans-Serif" font-size="10.00">OperatingSystem.h</text>
</a>
</g>
</g>
<!-- Node2 -->
<g id="Node000002" class="node">
<title>Node2</title>
<g id="a_Node000002"><a xlink:href="_boolean_8h.html" target="_top" xlink:title="The Boolean specification and body provides a value object type for boolean values.">
<polygon fill="white" stroke="#666666" points="101.5,-184 41.5,-184 41.5,-165 101.5,-165 101.5,-184"/>
<text text-anchor="middle" x="71.5" y="-172" font-family="Helvetica,sans-Serif" font-size="10.00">Boolean.h</text>
</a>
</g>
</g>
<!-- Node1&#45;&gt;Node2 -->
<g id="edge1_Node000001_Node000002" class="edge">
<title>Node1&#45;&gt;Node2</title>
<g id="a_edge1_Node000001_Node000002"><a xlink:title=" ">
<path fill="none" stroke="#63b8ff" d="M167.33,-329.96C150.57,-322.72 128.49,-310.8 114.5,-294 89.84,-264.4 78.76,-219.47 74.25,-194.3"/>
<polygon fill="#63b8ff" stroke="#63b8ff" points="77.67,-193.55 72.61,-184.25 70.76,-194.68 77.67,-193.55"/>
</a>
</g>
</g>
<!-- Node6 -->
<g id="Node000006" class="node">
<title>Node6</title>
<g id="a_Node000006"><a xlink:href="_dictionary_8h.html" target="_top" xlink:title="The Dictionary specification defines maps from string keys to string values.">
<polygon fill="white" stroke="#666666" points="191.5,-294 123.5,-294 123.5,-275 191.5,-275 191.5,-294"/>
<text text-anchor="middle" x="157.5" y="-282" font-family="Helvetica,sans-Serif" font-size="10.00">Dictionary.h</text>
</a>
</g>
</g>
<!-- Node1&#45;&gt;Node6 -->
<g id="edge5_Node000001_Node000006" class="edge">
<title>Node1&#45;&gt;Node6</title>
<g id="a_edge5_Node000001_Node000006"><a xlink:title=" ">
<path fill="none" stroke="#63b8ff" d="M185.05,-329.75C180.49,-322.42 173.83,-311.73 168.21,-302.7"/>
<polygon fill="#63b8ff" stroke="#63b8ff" points="171.1,-300.73 162.85,-294.09 165.16,-304.43 171.1,-300.73"/>
</a>
</g>
</g>
<!-- Node8 -->
<g id="Node000008" class="node">
<title>Node8</title>
<g id="a_Node000008"><a xlink:href="_natural_8h.html" target="_top" xlink:title="The Natural specification and body provides a value object type for naturals (positive integers with ...">
<polygon fill="white" stroke="#666666" points="250.5,-129 194.5,-129 194.5,-110 250.5,-110 250.5,-129"/>
<text text-anchor="middle" x="222.5" y="-117" font-family="Helvetica,sans-Serif" font-size="10.00">Natural.h</text>
</a>
</g>
</g>
<!-- Node1&#45;&gt;Node8 -->
<g id="edge7_Node000001_Node000008" class="edge">
<title>Node1&#45;&gt;Node8</title>
<g id="a_edge7_Node000001_Node000008"><a xlink:title=" ">
<path fill="none" stroke="#63b8ff" d="M192.74,-329.68C194.95,-320.74 198.31,-306.48 200.5,-294 210.31,-238.07 217.53,-171.25 220.71,-139.31"/>
<polygon fill="#63b8ff" stroke="#63b8ff" points="224.2,-139.5 221.69,-129.21 217.24,-138.82 224.2,-139.5"/>
</a>
</g>
</g>
<!-- Node13 -->
<g id="Node000013" class="node">
<title>Node13</title>
<g id="a_Node000013"><a xlink:href="_time_and_duration_8h.html" target="_top" xlink:title="The TimeAndDuration specification and body provides types for time and duration.">
<polygon fill="white" stroke="#666666" points="351,-294 252,-294 252,-275 351,-275 351,-294"/>
<text text-anchor="middle" x="301.5" y="-282" font-family="Helvetica,sans-Serif" font-size="10.00">TimeAndDuration.h</text>
</a>
</g>
</g>
<!-- Node1&#45;&gt;Node13 -->
<g id="edge14_Node000001_Node000013" class="edge">
<title>Node1&#45;&gt;Node13</title>
<g id="a_edge14_Node000001_Node000013"><a xlink:title=" ">
<path fill="none" stroke="#63b8ff" d="M208.33,-329.98C226.11,-321.5 253.65,-308.35 274.18,-298.54"/>
<polygon fill="#63b8ff" stroke="#63b8ff" points="275.83,-301.64 283.34,-294.17 272.81,-295.32 275.83,-301.64"/>
</a>
</g>
</g>
<!-- Node3 -->
<g id="Node000003" class="node">
<title>Node3</title>
<g id="a_Node000003"><a xlink:href="_my_string_8h.html" target="_top" xlink:title="The String specification defines a standard string type.">
<polygon fill="white" stroke="#666666" points="74.5,-74 10.5,-74 10.5,-55 74.5,-55 74.5,-74"/>
<text text-anchor="middle" x="42.5" y="-62" font-family="Helvetica,sans-Serif" font-size="10.00">MyString.h</text>
</a>
</g>
</g>
<!-- Node2&#45;&gt;Node3 -->
<g id="edge2_Node000002_Node000003" class="edge">
<title>Node2&#45;&gt;Node3</title>
<g id="a_edge2_Node000002_Node000003"><a xlink:title=" ">
<path fill="none" stroke="#63b8ff" d="M69.13,-164.66C64.41,-147.09 53.76,-107.45 47.46,-83.95"/>
<polygon fill="#63b8ff" stroke="#63b8ff" points="50.8,-82.91 44.82,-74.16 44.04,-84.72 50.8,-82.91"/>
</a>
</g>
</g>
<!-- Node4 -->
<g id="Node000004" class="node">
<title>Node4</title>
<g id="a_Node000004"><a xlink:title=" ">
<polygon fill="#e0e0e0" stroke="#999999" points="145,-19 104,-19 104,0 145,0 145,-19"/>
<text text-anchor="middle" x="124.5" y="-7" font-family="Helvetica,sans-Serif" font-size="10.00">string</text>
</a>
</g>
</g>
<!-- Node3&#45;&gt;Node4 -->
<g id="edge3_Node000003_Node000004" class="edge">
<title>Node3&#45;&gt;Node4</title>
<g id="a_edge3_Node000003_Node000004"><a xlink:title=" ">
<path fill="none" stroke="#63b8ff" d="M55.67,-54.98C68.27,-46.84 87.5,-34.41 102.44,-24.76"/>
<polygon fill="#63b8ff" stroke="#63b8ff" points="104.59,-27.54 111.09,-19.17 100.79,-21.66 104.59,-27.54"/>
</a>
</g>
</g>
<!-- Node5 -->
<g id="Node000005" class="node">
<title>Node5</title>
<g id="a_Node000005"><a xlink:href="_global_macros_8h.html" target="_top" xlink:title="The GlobalMacros specification defines simple macros (e.g. for parameter modes).">
<polygon fill="white" stroke="#666666" points="85,-19 0,-19 0,0 85,0 85,-19"/>
<text text-anchor="middle" x="42.5" y="-7" font-family="Helvetica,sans-Serif" font-size="10.00">GlobalMacros.h</text>
</a>
</g>
</g>
<!-- Node3&#45;&gt;Node5 -->
<g id="edge4_Node000003_Node000005" class="edge">
<title>Node3&#45;&gt;Node5</title>
<g id="a_edge4_Node000003_Node000005"><a xlink:title=" ">
<path fill="none" stroke="#63b8ff" d="M42.5,-54.75C42.5,-47.8 42.5,-37.85 42.5,-29.13"/>
<polygon fill="#63b8ff" stroke="#63b8ff" points="46,-29.09 42.5,-19.09 39,-29.09 46,-29.09"/>
</a>
</g>
</g>
<!-- Node7 -->
<g id="Node000007" class="node">
<title>Node7</title>
<g id="a_Node000007"><a xlink:title=" ">
<polygon fill="#e0e0e0" stroke="#999999" points="194,-239 117,-239 117,-220 194,-220 194,-239"/>
<text text-anchor="middle" x="155.5" y="-227" font-family="Helvetica,sans-Serif" font-size="10.00">GenericMap.h</text>
</a>
</g>
</g>
<!-- Node6&#45;&gt;Node7 -->
<g id="edge6_Node000006_Node000007" class="edge">
<title>Node6&#45;&gt;Node7</title>
<g id="a_edge6_Node000006_Node000007"><a xlink:title=" ">
<path fill="none" stroke="#63b8ff" d="M157.17,-274.75C156.91,-267.8 156.53,-257.85 156.2,-249.13"/>
<polygon fill="#63b8ff" stroke="#63b8ff" points="159.7,-248.95 155.82,-239.09 152.7,-249.21 159.7,-248.95"/>
</a>
</g>
</g>
<!-- Node8&#45;&gt;Node3 -->
<g id="edge13_Node000008_Node000003" class="edge">
<title>Node8&#45;&gt;Node3</title>
<g id="a_edge13_Node000008_Node000003"><a xlink:title=" ">
<path fill="none" stroke="#63b8ff" d="M194.38,-110.22C163.96,-101.26 115.26,-86.92 81.24,-76.91"/>
<polygon fill="#63b8ff" stroke="#63b8ff" points="82.2,-73.54 71.62,-74.07 80.22,-80.26 82.2,-73.54"/>
</a>
</g>
</g>
<!-- Node9 -->
<g id="Node000009" class="node">
<title>Node9</title>
<g id="a_Node000009"><a xlink:title=" ">
<polygon fill="#e0e0e0" stroke="#999999" points="330.5,-74 286.5,-74 286.5,-55 330.5,-55 330.5,-74"/>
<text text-anchor="middle" x="308.5" y="-62" font-family="Helvetica,sans-Serif" font-size="10.00">cmath</text>
</a>
</g>
</g>
<!-- Node8&#45;&gt;Node9 -->
<g id="edge8_Node000008_Node000009" class="edge">
<title>Node8&#45;&gt;Node9</title>
<g id="a_edge8_Node000008_Node000009"><a xlink:title=" ">
<path fill="none" stroke="#63b8ff" d="M236.32,-109.98C249.65,-101.77 270.08,-89.18 285.81,-79.49"/>
<polygon fill="#63b8ff" stroke="#63b8ff" points="287.75,-82.4 294.43,-74.17 284.08,-76.44 287.75,-82.4"/>
</a>
</g>
</g>
<!-- Node10 -->
<g id="Node000010" class="node">
<title>Node10</title>
<g id="a_Node000010"><a xlink:href="_assertion_8h.html" target="_top" xlink:title="The Assertion specification defines macros for pre&#45; and postconditions in functions or methods.">
<polygon fill="white" stroke="#666666" points="158.5,-74 92.5,-74 92.5,-55 158.5,-55 158.5,-74"/>
<text text-anchor="middle" x="125.5" y="-62" font-family="Helvetica,sans-Serif" font-size="10.00">Assertion.h</text>
</a>
</g>
</g>
<!-- Node8&#45;&gt;Node10 -->
<g id="edge9_Node000008_Node000010" class="edge">
<title>Node8&#45;&gt;Node10</title>
<g id="a_edge9_Node000008_Node000010"><a xlink:title=" ">
<path fill="none" stroke="#63b8ff" d="M206.92,-109.98C191.73,-101.69 168.4,-88.94 150.6,-79.22"/>
<polygon fill="#63b8ff" stroke="#63b8ff" points="151.82,-75.89 141.37,-74.17 148.47,-82.04 151.82,-75.89"/>
</a>
</g>
</g>
<!-- Node12 -->
<g id="Node000012" class="node">
<title>Node12</title>
<g id="a_Node000012"><a xlink:title=" ">
<polygon fill="#e0e0e0" stroke="#999999" points="268.5,-74 176.5,-74 176.5,-55 268.5,-55 268.5,-74"/>
<text text-anchor="middle" x="222.5" y="-62" font-family="Helvetica,sans-Serif" font-size="10.00">GenericNumber.h</text>
</a>
</g>
</g>
<!-- Node8&#45;&gt;Node12 -->
<g id="edge12_Node000008_Node000012" class="edge">
<title>Node8&#45;&gt;Node12</title>
<g id="a_edge12_Node000008_Node000012"><a xlink:title=" ">
<path fill="none" stroke="#63b8ff" d="M222.5,-109.75C222.5,-102.8 222.5,-92.85 222.5,-84.13"/>
<polygon fill="#63b8ff" stroke="#63b8ff" points="226,-84.09 222.5,-74.09 219,-84.09 226,-84.09"/>
</a>
</g>
</g>
<!-- Node10&#45;&gt;Node4 -->
<g id="edge11_Node000010_Node000004" class="edge">
<title>Node10&#45;&gt;Node4</title>
<g id="a_edge11_Node000010_Node000004"><a xlink:title=" ">
<path fill="none" stroke="#63b8ff" d="M125.33,-54.75C125.2,-47.8 125.02,-37.85 124.85,-29.13"/>
<polygon fill="#63b8ff" stroke="#63b8ff" points="128.35,-29.02 124.66,-19.09 121.35,-29.15 128.35,-29.02"/>
</a>
</g>
</g>
<!-- Node11 -->
<g id="Node000011" class="node">
<title>Node11</title>
<g id="a_Node000011"><a xlink:title=" ">
<polygon fill="#e0e0e0" stroke="#999999" points="305,-19 246,-19 246,0 305,0 305,-19"/>
<text text-anchor="middle" x="275.5" y="-7" font-family="Helvetica,sans-Serif" font-size="10.00">stdexcept</text>
</a>
</g>
</g>
<!-- Node10&#45;&gt;Node11 -->
<g id="edge10_Node000010_Node000011" class="edge">
<title>Node10&#45;&gt;Node11</title>
<g id="a_edge10_Node000010_Node000011"><a xlink:title=" ">
<path fill="none" stroke="#63b8ff" d="M149.6,-54.98C174.38,-46.23 213.2,-32.51 241.19,-22.62"/>
<polygon fill="#63b8ff" stroke="#63b8ff" points="242.7,-25.8 250.96,-19.17 240.37,-19.2 242.7,-25.8"/>
</a>
</g>
</g>
<!-- Node14 -->
<g id="Node000014" class="node">
<title>Node14</title>
<g id="a_Node000014"><a xlink:href="_real_8h.html" target="_top" xlink:title="The Real specification defines a value object type for real values.">
<polygon fill="white" stroke="#666666" points="323.5,-239 279.5,-239 279.5,-220 323.5,-220 323.5,-239"/>
<text text-anchor="middle" x="301.5" y="-227" font-family="Helvetica,sans-Serif" font-size="10.00">Real.h</text>
</a>
</g>
</g>
<!-- Node13&#45;&gt;Node14 -->
<g id="edge15_Node000013_Node000014" class="edge">
<title>Node13&#45;&gt;Node14</title>
<g id="a_edge15_Node000013_Node000014"><a xlink:title=" ">
<path fill="none" stroke="#63b8ff" d="M301.5,-274.75C301.5,-267.8 301.5,-257.85 301.5,-249.13"/>
<polygon fill="#63b8ff" stroke="#63b8ff" points="305,-249.09 301.5,-239.09 298,-249.09 305,-249.09"/>
</a>
</g>
</g>
<!-- Node15 -->
<g id="Node000015" class="node">
<title>Node15</title>
<g id="a_Node000015"><a xlink:href="_integer_8h.html" target="_top" xlink:title="The Integer specification and body provides a value object type for ints.">
<polygon fill="white" stroke="#666666" points="329.5,-184 275.5,-184 275.5,-165 329.5,-165 329.5,-184"/>
<text text-anchor="middle" x="302.5" y="-172" font-family="Helvetica,sans-Serif" font-size="10.00">Integer.h</text>
</a>
</g>
</g>
<!-- Node14&#45;&gt;Node15 -->
<g id="edge16_Node000014_Node000015" class="edge">
<title>Node14&#45;&gt;Node15</title>
<g id="a_edge16_Node000014_Node000015"><a xlink:title=" ">
<path fill="none" stroke="#63b8ff" d="M301.67,-219.75C301.8,-212.8 301.98,-202.85 302.15,-194.13"/>
<polygon fill="#63b8ff" stroke="#63b8ff" points="305.65,-194.15 302.34,-184.09 298.65,-194.02 305.65,-194.15"/>
</a>
</g>
</g>
<!-- Node15&#45;&gt;Node8 -->
<g id="edge19_Node000015_Node000008" class="edge">
<title>Node15&#45;&gt;Node8</title>
<g id="a_edge19_Node000015_Node000008"><a xlink:title=" ">
<path fill="none" stroke="#63b8ff" d="M289.65,-164.98C277.36,-156.84 258.59,-144.41 244.02,-134.76"/>
<polygon fill="#63b8ff" stroke="#63b8ff" points="245.86,-131.78 235.59,-129.17 241.99,-137.61 245.86,-131.78"/>
</a>
</g>
</g>
<!-- Node15&#45;&gt;Node9 -->
<g id="edge17_Node000015_Node000009" class="edge">
<title>Node15&#45;&gt;Node9</title>
<g id="a_edge17_Node000015_Node000009"><a xlink:title=" ">
<path fill="none" stroke="#63b8ff" d="M302.99,-164.66C303.96,-147.17 306.15,-107.8 307.46,-84.27"/>
<polygon fill="#63b8ff" stroke="#63b8ff" points="310.96,-84.34 308.02,-74.16 303.97,-83.95 310.96,-84.34"/>
</a>
</g>
</g>
<!-- Node15&#45;&gt;Node11 -->
<g id="edge18_Node000015_Node000011" class="edge">
<title>Node15&#45;&gt;Node11</title>
<g id="a_edge18_Node000015_Node000011"><a xlink:title=" ">
<path fill="none" stroke="#63b8ff" d="M309.67,-164.76C325.31,-144.55 359.57,-93.39 339.5,-55 332.39,-41.39 319.01,-31.1 306.31,-23.87"/>
<polygon fill="#63b8ff" stroke="#63b8ff" points="307.77,-20.68 297.29,-19.13 304.52,-26.88 307.77,-20.68"/>
</a>
</g>
</g>
</g>
</svg>
