<?xml version="1.0" encoding="UTF-8" standalone="no"?>
<!DOCTYPE svg PUBLIC "-//W3C//DTD SVG 1.1//EN"
 "http://www.w3.org/Graphics/SVG/1.1/DTD/svg11.dtd">
<!-- Generated by graphviz version 2.47.1 (20210417.1919)
 -->
<!-- Title: OperatingSystem.h Pages: 1 -->
<svg width="750pt" height="86pt"
 viewBox="0.00 0.00 750.00 86.00" xmlns="http://www.w3.org/2000/svg" xmlns:xlink="http://www.w3.org/1999/xlink">
<g id="graph0" class="graph" transform="scale(1 1) rotate(0) translate(4 82)">
<title>OperatingSystem.h</title>
<polygon fill="white" stroke="transparent" points="-4,4 -4,-82 746,-82 746,4 -4,4"/>
<!-- Node1 -->
<g id="node1" class="node">
<title>Node1</title>
<g id="a_node1"><a xlink:title="The OperatingSystem specification defines a class for several operating system related utility functi...">
<polygon fill="#bfbfbf" stroke="black" points="295.5,-57.5 295.5,-77.5 406.5,-77.5 406.5,-57.5 295.5,-57.5"/>
<text text-anchor="middle" x="351" y="-64.7" font-family="Helvetica,sans-Serif" font-size="11.00">OperatingSystem.h</text>
</a>
</g>
</g>
<!-- Node2 -->
<g id="node2" class="node">
<title>Node2</title>
<g id="a_node2"><a xlink:href="_logging_support_8cpp.html" target="_top" xlink:title="The LoggingSupport body implements a class for simple entry/exit logging to a file; this logging reli...">
<polygon fill="white" stroke="black" points="0,-0.5 0,-20.5 114,-20.5 114,-0.5 0,-0.5"/>
<text text-anchor="middle" x="57" y="-7.7" font-family="Helvetica,sans-Serif" font-size="11.00">LoggingSupport.cpp</text>
</a>
</g>
</g>
<!-- Node1&#45;&gt;Node2 -->
<g id="edge1" class="edge">
<title>Node1&#45;&gt;Node2</title>
<path fill="none" stroke="midnightblue" d="M292.85,-55.62C237.97,-45.35 156.63,-30.14 105.25,-20.53"/>
<polygon fill="midnightblue" stroke="midnightblue" points="292.31,-59.08 302.78,-57.48 293.6,-52.2 292.31,-59.08"/>
</g>
<!-- Node3 -->
<g id="node3" class="node">
<title>Node3</title>
<g id="a_node3"><a xlink:href="_operating_system_8cpp.html" target="_top" xlink:title="The OperatingSystem body implements a class for several operating system related utility functions (l...">
<polygon fill="white" stroke="black" points="132.5,-0.5 132.5,-20.5 255.5,-20.5 255.5,-0.5 132.5,-0.5"/>
<text text-anchor="middle" x="194" y="-7.7" font-family="Helvetica,sans-Serif" font-size="11.00">OperatingSystem.cpp</text>
</a>
</g>
</g>
<!-- Node1&#45;&gt;Node3 -->
<g id="edge2" class="edge">
<title>Node1&#45;&gt;Node3</title>
<path fill="none" stroke="midnightblue" d="M315.29,-53.99C286.16,-43.79 245.72,-29.62 219.7,-20.5"/>
<polygon fill="midnightblue" stroke="midnightblue" points="314.48,-57.41 325.07,-57.42 316.79,-50.81 314.48,-57.41"/>
</g>
<!-- Node4 -->
<g id="node4" class="node">
<title>Node4</title>
<g id="a_node4"><a xlink:href="_fluid_synth_file_converter_8cpp.html" target="_top" xlink:title="The FluidSynthFileConverter module implements a conversion from a MIDI file into a wave file using th...">
<polygon fill="white" stroke="black" points="274,-0.5 274,-20.5 428,-20.5 428,-0.5 274,-0.5"/>
<text text-anchor="middle" x="351" y="-7.7" font-family="Helvetica,sans-Serif" font-size="11.00">FluidSynthFileConverter.cpp</text>
</a>
</g>
</g>
<!-- Node1&#45;&gt;Node4 -->
<g id="edge3" class="edge">
<title>Node1&#45;&gt;Node4</title>
<path fill="none" stroke="midnightblue" d="M351,-47.38C351,-38.37 351,-28.04 351,-20.78"/>
<polygon fill="midnightblue" stroke="midnightblue" points="347.5,-47.42 351,-57.42 354.5,-47.42 347.5,-47.42"/>
</g>
<!-- Node5 -->
<g id="node5" class="node">
<title>Node5</title>
<g id="a_node5"><a xlink:href="_fluid_synth_plugin___event_processor_8cpp.html" target="_top" xlink:title="The FluidSynthPlugin_Processor module implements the handling of MIDI events from the DAW via JUCE ha...">
<polygon fill="white" stroke="black" points="446.5,-0.5 446.5,-20.5 649.5,-20.5 649.5,-0.5 446.5,-0.5"/>
<text text-anchor="middle" x="548" y="-7.7" font-family="Helvetica,sans-Serif" font-size="11.00">FluidSynthPlugin_EventProcessor.cpp</text>
</a>
</g>
</g>
<!-- Node1&#45;&gt;Node5 -->
<g id="edge4" class="edge">
<title>Node1&#45;&gt;Node5</title>
<path fill="none" stroke="midnightblue" d="M393.44,-54.65C430.13,-44.41 482.39,-29.82 515.75,-20.5"/>
<polygon fill="midnightblue" stroke="midnightblue" points="392.22,-51.36 383.53,-57.42 394.1,-58.1 392.22,-51.36"/>
</g>
<!-- Node6 -->
<g id="node6" class="node">
<title>Node6</title>
<g id="a_node6"><a xlink:href="_midi_file_8cpp.html" target="_top" xlink:title="The MidiFile implementation implements the services of a MIDI file; currently only file reading is su...">
<polygon fill="white" stroke="black" points="668,-0.5 668,-20.5 742,-20.5 742,-0.5 668,-0.5"/>
<text text-anchor="middle" x="705" y="-7.7" font-family="Helvetica,sans-Serif" font-size="11.00">MidiFile.cpp</text>
</a>
</g>
</g>
<!-- Node1&#45;&gt;Node6 -->
<g id="edge5" class="edge">
<title>Node1&#45;&gt;Node6</title>
<path fill="none" stroke="midnightblue" d="M416.62,-57.91C479.1,-49.47 575.68,-35.75 659,-21 661.89,-20.49 664.88,-19.93 667.88,-19.36"/>
<polygon fill="midnightblue" stroke="midnightblue" points="415.96,-54.47 406.51,-59.27 416.89,-61.4 415.96,-54.47"/>
</g>
</g>
</svg>
