<?xml version="1.0" encoding="UTF-8" standalone="no"?>
<!DOCTYPE svg PUBLIC "-//W3C//DTD SVG 1.1//EN"
 "http://www.w3.org/Graphics/SVG/1.1/DTD/svg11.dtd">
<!-- Generated by graphviz version 2.47.1 (20210417.1919)
 -->
<!-- Title: OperatingSystem.h Pages: 1 -->
<svg width="528pt" height="86pt"
 viewBox="0.00 0.00 528.00 86.00" xmlns="http://www.w3.org/2000/svg" xmlns:xlink="http://www.w3.org/1999/xlink">
<g id="graph0" class="graph" transform="scale(1 1) rotate(0) translate(4 82)">
<title>OperatingSystem.h</title>
<polygon fill="white" stroke="transparent" points="-4,4 -4,-82 524,-82 524,4 -4,4"/>
<!-- Node1 -->
<g id="node1" class="node">
<title>Node1</title>
<g id="a_node1"><a xlink:title="The OperatingSystem specification defines a class for several operating system related utility functi...">
<polygon fill="#bfbfbf" stroke="black" points="216.5,-57.5 216.5,-77.5 327.5,-77.5 327.5,-57.5 216.5,-57.5"/>
<text text-anchor="middle" x="272" y="-64.7" font-family="Helvetica,sans-Serif" font-size="11.00">OperatingSystem.h</text>
</a>
</g>
</g>
<!-- Node2 -->
<g id="node2" class="node">
<title>Node2</title>
<g id="a_node2"><a xlink:href="_logging_support_8cpp.html" target="_top" xlink:title="The LoggingSupport body implements a class for simple entry/exit logging to a file; this logging reli...">
<polygon fill="white" stroke="black" points="0,-0.5 0,-20.5 114,-20.5 114,-0.5 0,-0.5"/>
<text text-anchor="middle" x="57" y="-7.7" font-family="Helvetica,sans-Serif" font-size="11.00">LoggingSupport.cpp</text>
</a>
</g>
</g>
<!-- Node1&#45;&gt;Node2 -->
<g id="edge1" class="edge">
<title>Node1&#45;&gt;Node2</title>
<path fill="none" stroke="midnightblue" d="M226.71,-54.91C186.61,-44.66 128.92,-29.9 92.2,-20.5"/>
<polygon fill="midnightblue" stroke="midnightblue" points="225.94,-58.33 236.5,-57.42 227.68,-51.55 225.94,-58.33"/>
</g>
<!-- Node3 -->
<g id="node3" class="node">
<title>Node3</title>
<g id="a_node3"><a xlink:href="_operating_system_8cpp.html" target="_top" xlink:title="The OperatingSystem body implements a class for several operating system related utility functions (l...">
<polygon fill="white" stroke="black" points="132.5,-0.5 132.5,-20.5 255.5,-20.5 255.5,-0.5 132.5,-0.5"/>
<text text-anchor="middle" x="194" y="-7.7" font-family="Helvetica,sans-Serif" font-size="11.00">OperatingSystem.cpp</text>
</a>
</g>
</g>
<!-- Node1&#45;&gt;Node3 -->
<g id="edge2" class="edge">
<title>Node1&#45;&gt;Node3</title>
<path fill="none" stroke="midnightblue" d="M250.57,-51.39C236.58,-41.52 218.76,-28.96 206.9,-20.6"/>
<polygon fill="midnightblue" stroke="midnightblue" points="248.93,-54.52 259.12,-57.42 252.96,-48.79 248.93,-54.52"/>
</g>
<!-- Node4 -->
<g id="node4" class="node">
<title>Node4</title>
<g id="a_node4"><a xlink:href="_fluid_synth_file_converter_8cpp.html" target="_top" xlink:title="The FluidSynthFileConverter module implements a conversion from a MIDI file into a wave file using th...">
<polygon fill="white" stroke="black" points="274,-0.5 274,-20.5 428,-20.5 428,-0.5 274,-0.5"/>
<text text-anchor="middle" x="351" y="-7.7" font-family="Helvetica,sans-Serif" font-size="11.00">FluidSynthFileConverter.cpp</text>
</a>
</g>
</g>
<!-- Node1&#45;&gt;Node4 -->
<g id="edge3" class="edge">
<title>Node1&#45;&gt;Node4</title>
<path fill="none" stroke="midnightblue" d="M293.3,-51.67C307.53,-41.76 325.81,-29.04 337.94,-20.6"/>
<polygon fill="midnightblue" stroke="midnightblue" points="291.25,-48.83 285.05,-57.42 295.25,-54.58 291.25,-48.83"/>
</g>
<!-- Node5 -->
<g id="node5" class="node">
<title>Node5</title>
<g id="a_node5"><a xlink:href="_midi_file_8cpp.html" target="_top" xlink:title="The MidiFile implementation implements the services of a MIDI file; currently only file reading is su...">
<polygon fill="white" stroke="black" points="446,-0.5 446,-20.5 520,-20.5 520,-0.5 446,-0.5"/>
<text text-anchor="middle" x="483" y="-7.7" font-family="Helvetica,sans-Serif" font-size="11.00">MidiFile.cpp</text>
</a>
</g>
</g>
<!-- Node1&#45;&gt;Node5 -->
<g id="edge4" class="edge">
<title>Node1&#45;&gt;Node5</title>
<path fill="none" stroke="midnightblue" d="M316.7,-54.85C356.04,-44.59 412.5,-29.88 448.46,-20.5"/>
<polygon fill="midnightblue" stroke="midnightblue" points="315.64,-51.51 306.84,-57.42 317.4,-58.28 315.64,-51.51"/>
</g>
</g>
</svg>
