<?xml version="1.0" encoding="UTF-8" standalone="no"?>
<!DOCTYPE svg PUBLIC "-//W3C//DTD SVG 1.1//EN"
 "http://www.w3.org/Graphics/SVG/1.1/DTD/svg11.dtd">
<!-- Generated by graphviz version 2.47.1 (20210417.1919)
 -->
<!-- Title: OperatingSystem.cpp Pages: 1 -->
<svg width="763pt" height="467pt"
 viewBox="0.00 0.00 763.00 467.00" xmlns="http://www.w3.org/2000/svg" xmlns:xlink="http://www.w3.org/1999/xlink">
<g id="graph0" class="graph" transform="scale(1 1) rotate(0) translate(4 463)">
<title>OperatingSystem.cpp</title>
<!-- Node1 -->
<g id="Node000001" class="node">
<title>Node1</title>
<g id="a_Node000001"><a xlink:title="The OperatingSystem body implements a class for several operating system related utility functions (l...">
<polygon fill="#999999" stroke="#666666" points="334,-459 223,-459 223,-440 334,-440 334,-459"/>
<text text-anchor="middle" x="278.5" y="-447" font-family="Helvetica,sans-Serif" font-size="10.00">OperatingSystem.cpp</text>
</a>
</g>
</g>
<!-- Node2 -->
<g id="Node000002" class="node">
<title>Node2</title>
<g id="a_Node000002"><a xlink:title=" ">
<polygon fill="#e0e0e0" stroke="#999999" points="45,-404 0,-404 0,-385 45,-385 45,-404"/>
<text text-anchor="middle" x="22.5" y="-392" font-family="Helvetica,sans-Serif" font-size="10.00">cstdlib</text>
</a>
</g>
</g>
<!-- Node1&#45;&gt;Node2 -->
<g id="edge1_Node000001_Node000002" class="edge">
<title>Node1&#45;&gt;Node2</title>
<g id="a_edge1_Node000001_Node000002"><a xlink:title=" ">
<path fill="none" stroke="#63b8ff" d="M230,-439.96C186.52,-432.06 120.77,-419.55 55.23,-404.28"/>
<polygon fill="#63b8ff" stroke="#63b8ff" points="55.67,-400.79 45.14,-401.91 54.07,-407.61 55.67,-400.79"/>
</a>
</g>
</g>
<!-- Node3 -->
<g id="Node000003" class="node">
<title>Node3</title>
<g id="a_Node000003"><a xlink:title=" ">
<polygon fill="#e0e0e0" stroke="#999999" points="124,-404 63,-404 63,-385 124,-385 124,-404"/>
<text text-anchor="middle" x="93.5" y="-392" font-family="Helvetica,sans-Serif" font-size="10.00">filesystem</text>
</a>
</g>
</g>
<!-- Node1&#45;&gt;Node3 -->
<g id="edge2_Node000001_Node000003" class="edge">
<title>Node1&#45;&gt;Node3</title>
<g id="a_edge2_Node000001_Node000003"><a xlink:title=" ">
<path fill="none" stroke="#63b8ff" d="M248.78,-439.98C217.45,-431.01 167.93,-416.82 133.26,-406.89"/>
<polygon fill="#63b8ff" stroke="#63b8ff" points="134.03,-403.47 123.46,-404.08 132.11,-410.2 134.03,-403.47"/>
</a>
</g>
</g>
<!-- Node4 -->
<g id="Node000004" class="node">
<title>Node4</title>
<g id="a_Node000004"><a xlink:title=" ">
<polygon fill="#e0e0e0" stroke="#999999" points="188.5,-404 142.5,-404 142.5,-385 188.5,-385 188.5,-404"/>
<text text-anchor="middle" x="165.5" y="-392" font-family="Helvetica,sans-Serif" font-size="10.00">stdio.h</text>
</a>
</g>
</g>
<!-- Node1&#45;&gt;Node4 -->
<g id="edge3_Node000001_Node000004" class="edge">
<title>Node1&#45;&gt;Node4</title>
<g id="a_edge3_Node000001_Node000004"><a xlink:title=" ">
<path fill="none" stroke="#63b8ff" d="M260.34,-439.98C242.25,-431.5 214.22,-418.35 193.31,-408.54"/>
<polygon fill="#63b8ff" stroke="#63b8ff" points="194.53,-405.25 183.99,-404.17 191.55,-411.59 194.53,-405.25"/>
</a>
</g>
</g>
<!-- Node5 -->
<g id="Node000005" class="node">
<title>Node5</title>
<g id="a_Node000005"><a xlink:title=" ">
<polygon fill="#e0e0e0" stroke="#999999" points="250.5,-404 206.5,-404 206.5,-385 250.5,-385 250.5,-404"/>
<text text-anchor="middle" x="228.5" y="-392" font-family="Helvetica,sans-Serif" font-size="10.00">thread</text>
</a>
</g>
</g>
<!-- Node1&#45;&gt;Node5 -->
<g id="edge4_Node000001_Node000005" class="edge">
<title>Node1&#45;&gt;Node5</title>
<g id="a_edge4_Node000001_Node000005"><a xlink:title=" ">
<path fill="none" stroke="#63b8ff" d="M270.24,-439.75C263.04,-432.11 252.39,-420.82 243.65,-411.56"/>
<polygon fill="#63b8ff" stroke="#63b8ff" points="246.01,-408.96 236.6,-404.09 240.92,-413.76 246.01,-408.96"/>
</a>
</g>
</g>
<!-- Node6 -->
<g id="Node000006" class="node">
<title>Node6</title>
<g id="a_Node000006"><a xlink:href="_file_8h.html" target="_top" xlink:title="The File specification defines a class for simple file handling based on C stdio.">
<polygon fill="white" stroke="#666666" points="215,-349 174,-349 174,-330 215,-330 215,-349"/>
<text text-anchor="middle" x="194.5" y="-337" font-family="Helvetica,sans-Serif" font-size="10.00">File.h</text>
</a>
</g>
</g>
<!-- Node1&#45;&gt;Node6 -->
<g id="edge5_Node000001_Node000006" class="edge">
<title>Node1&#45;&gt;Node6</title>
<g id="a_edge5_Node000001_Node000006"><a xlink:title=" ">
<path fill="none" stroke="#63b8ff" d="M277.75,-439.89C276.24,-426.87 271.85,-401.92 259.5,-385 249.96,-371.93 235.36,-361.44 222.41,-353.93"/>
<polygon fill="#63b8ff" stroke="#63b8ff" points="223.82,-350.72 213.37,-349 220.47,-356.86 223.82,-350.72"/>
</a>
</g>
</g>
<!-- Node23 -->
<g id="Node000023" class="node">
<title>Node23</title>
<g id="a_Node000023"><a xlink:href="_logging_8h.html" target="_top" xlink:title="The Logging specification defines macros for entry&#45;, exit&#45; and intermediate logging of functions into...">
<polygon fill="white" stroke="#666666" points="366,-404 307,-404 307,-385 366,-385 366,-404"/>
<text text-anchor="middle" x="336.5" y="-392" font-family="Helvetica,sans-Serif" font-size="10.00">Logging.h</text>
</a>
</g>
</g>
<!-- Node1&#45;&gt;Node23 -->
<g id="edge25_Node000001_Node000023" class="edge">
<title>Node1&#45;&gt;Node23</title>
<g id="a_edge25_Node000001_Node000023"><a xlink:title=" ">
<path fill="none" stroke="#63b8ff" d="M287.82,-439.98C296.31,-432.23 309.06,-420.58 319.38,-411.14"/>
<polygon fill="#63b8ff" stroke="#63b8ff" points="321.99,-413.5 327.01,-404.17 317.27,-408.33 321.99,-413.5"/>
</a>
</g>
</g>
<!-- Node31 -->
<g id="Node000031" class="node">
<title>Node31</title>
<g id="a_Node000031"><a xlink:href="_operating_system_8h.html" target="_top" xlink:title="The OperatingSystem specification defines a class for several operating system related utility functi...">
<polygon fill="white" stroke="#666666" points="622,-349 521,-349 521,-330 622,-330 622,-349"/>
<text text-anchor="middle" x="571.5" y="-337" font-family="Helvetica,sans-Serif" font-size="10.00">OperatingSystem.h</text>
</a>
</g>
</g>
<!-- Node1&#45;&gt;Node31 -->
<g id="edge43_Node000001_Node000031" class="edge">
<title>Node1&#45;&gt;Node31</title>
<g id="a_edge43_Node000001_Node000031"><a xlink:title=" ">
<path fill="none" stroke="#63b8ff" d="M297.31,-439.91C316.7,-431.02 347.79,-416.7 374.5,-404 391.91,-395.72 395.48,-391.86 413.5,-385 449.91,-371.13 492.49,-359.39 524.26,-351.45"/>
<polygon fill="#63b8ff" stroke="#63b8ff" points="525.31,-354.8 534.18,-349.01 523.63,-348 525.31,-354.8"/>
</a>
</g>
</g>
<!-- Node35 -->
<g id="Node000035" class="node">
<title>Node35</title>
<g id="a_Node000035"><a xlink:title=" ">
<polygon fill="#e0e0e0" stroke="#999999" points="474,-404 423,-404 423,-385 474,-385 474,-404"/>
<text text-anchor="middle" x="448.5" y="-392" font-family="Helvetica,sans-Serif" font-size="10.00">unistd.h</text>
</a>
</g>
</g>
<!-- Node1&#45;&gt;Node35 -->
<g id="edge50_Node000001_Node000035" class="edge">
<title>Node1&#45;&gt;Node35</title>
<g id="a_edge50_Node000001_Node000035"><a xlink:title=" ">
<path fill="none" stroke="#63b8ff" d="M305.81,-439.98C334.95,-430.9 381.2,-416.48 413.11,-406.53"/>
<polygon fill="#63b8ff" stroke="#63b8ff" points="414.42,-409.79 422.92,-403.47 412.33,-403.11 414.42,-409.79"/>
</a>
</g>
</g>
<!-- Node36 -->
<g id="Node000036" class="node">
<title>Node36</title>
<g id="a_Node000036"><a xlink:title=" ">
<polygon fill="#e0e0e0" stroke="#999999" points="537,-404 492,-404 492,-385 537,-385 537,-404"/>
<text text-anchor="middle" x="514.5" y="-392" font-family="Helvetica,sans-Serif" font-size="10.00">dlfcn.h</text>
</a>
</g>
</g>
<!-- Node1&#45;&gt;Node36 -->
<g id="edge51_Node000001_Node000036" class="edge">
<title>Node1&#45;&gt;Node36</title>
<g id="a_edge51_Node000001_Node000036"><a xlink:title=" ">
<path fill="none" stroke="#63b8ff" d="M321.06,-439.96C360.51,-431.88 421.08,-419.1 482.06,-404.26"/>
<polygon fill="#63b8ff" stroke="#63b8ff" points="482.97,-407.64 491.85,-401.86 481.3,-400.84 482.97,-407.64"/>
</a>
</g>
</g>
<!-- Node7 -->
<g id="Node000007" class="node">
<title>Node7</title>
<g id="a_Node000007"><a xlink:href="_boolean_8h.html" target="_top" xlink:title="The Boolean specification and body provides a value object type for boolean values.">
<polygon fill="white" stroke="#666666" points="465.5,-294 405.5,-294 405.5,-275 465.5,-275 465.5,-294"/>
<text text-anchor="middle" x="435.5" y="-282" font-family="Helvetica,sans-Serif" font-size="10.00">Boolean.h</text>
</a>
</g>
</g>
<!-- Node6&#45;&gt;Node7 -->
<g id="edge6_Node000006_Node000007" class="edge">
<title>Node6&#45;&gt;Node7</title>
<g id="a_edge6_Node000006_Node000007"><a xlink:title=" ">
<path fill="none" stroke="#63b8ff" d="M215.06,-333.06C219.17,-332.01 223.47,-330.95 227.5,-330 299.19,-313.14 319.76,-310.39 395.27,-294.25"/>
<polygon fill="#63b8ff" stroke="#63b8ff" points="396.23,-297.62 405.27,-292.1 394.76,-290.78 396.23,-297.62"/>
</a>
</g>
</g>
<!-- Node11 -->
<g id="Node000011" class="node">
<title>Node11</title>
<g id="a_Node000011"><a xlink:href="_byte_list_8h.html" target="_top" xlink:title="The ByteList specification defines lists of byte values with zero&#45;based arbitrary indexed access to p...">
<polygon fill="white" stroke="#666666" points="148,-294 87,-294 87,-275 148,-275 148,-294"/>
<text text-anchor="middle" x="117.5" y="-282" font-family="Helvetica,sans-Serif" font-size="10.00">ByteList.h</text>
</a>
</g>
</g>
<!-- Node6&#45;&gt;Node11 -->
<g id="edge10_Node000006_Node000011" class="edge">
<title>Node6&#45;&gt;Node11</title>
<g id="a_edge10_Node000006_Node000011"><a xlink:title=" ">
<path fill="none" stroke="#63b8ff" d="M182.13,-329.98C170.41,-321.92 152.58,-309.65 138.61,-300.03"/>
<polygon fill="#63b8ff" stroke="#63b8ff" points="140.32,-296.96 130.1,-294.17 136.35,-302.72 140.32,-296.96"/>
</a>
</g>
</g>
<!-- Node22 -->
<g id="Node000022" class="node">
<title>Node22</title>
<g id="a_Node000022"><a xlink:href="_object_8h.html" target="_top" xlink:title="The Object specification and body provides the root object type.">
<polygon fill="white" stroke="#666666" points="219,-294 166,-294 166,-275 219,-275 219,-294"/>
<text text-anchor="middle" x="192.5" y="-282" font-family="Helvetica,sans-Serif" font-size="10.00">Object.h</text>
</a>
</g>
</g>
<!-- Node6&#45;&gt;Node22 -->
<g id="edge24_Node000006_Node000022" class="edge">
<title>Node6&#45;&gt;Node22</title>
<g id="a_edge24_Node000006_Node000022"><a xlink:title=" ">
<path fill="none" stroke="#63b8ff" d="M194.17,-329.75C193.91,-322.8 193.53,-312.85 193.2,-304.13"/>
<polygon fill="#63b8ff" stroke="#63b8ff" points="196.7,-303.95 192.82,-294.09 189.7,-304.21 196.7,-303.95"/>
</a>
</g>
</g>
<!-- Node8 -->
<g id="Node000008" class="node">
<title>Node8</title>
<g id="a_Node000008"><a xlink:href="_my_string_8h.html" target="_top" xlink:title="The String specification defines a standard string type.">
<polygon fill="white" stroke="#666666" points="426.5,-74 362.5,-74 362.5,-55 426.5,-55 426.5,-74"/>
<text text-anchor="middle" x="394.5" y="-62" font-family="Helvetica,sans-Serif" font-size="10.00">MyString.h</text>
</a>
</g>
</g>
<!-- Node7&#45;&gt;Node8 -->
<g id="edge7_Node000007_Node000008" class="edge">
<title>Node7&#45;&gt;Node8</title>
<g id="a_edge7_Node000007_Node000008"><a xlink:title=" ">
<path fill="none" stroke="#63b8ff" d="M428.36,-274.94C421.7,-266.41 412.12,-252.66 407.5,-239 389.31,-185.23 390.82,-116.91 392.91,-84.38"/>
<polygon fill="#63b8ff" stroke="#63b8ff" points="396.42,-84.33 393.67,-74.1 389.44,-83.82 396.42,-84.33"/>
</a>
</g>
</g>
<!-- Node9 -->
<g id="Node000009" class="node">
<title>Node9</title>
<g id="a_Node000009"><a xlink:title=" ">
<polygon fill="#e0e0e0" stroke="#999999" points="497,-19 456,-19 456,0 497,0 497,-19"/>
<text text-anchor="middle" x="476.5" y="-7" font-family="Helvetica,sans-Serif" font-size="10.00">string</text>
</a>
</g>
</g>
<!-- Node8&#45;&gt;Node9 -->
<g id="edge8_Node000008_Node000009" class="edge">
<title>Node8&#45;&gt;Node9</title>
<g id="a_edge8_Node000008_Node000009"><a xlink:title=" ">
<path fill="none" stroke="#63b8ff" d="M407.67,-54.98C420.27,-46.84 439.5,-34.41 454.44,-24.76"/>
<polygon fill="#63b8ff" stroke="#63b8ff" points="456.59,-27.54 463.09,-19.17 452.79,-21.66 456.59,-27.54"/>
</a>
</g>
</g>
<!-- Node10 -->
<g id="Node000010" class="node">
<title>Node10</title>
<g id="a_Node000010"><a xlink:href="_global_macros_8h.html" target="_top" xlink:title="The GlobalMacros specification defines simple macros (e.g. for parameter modes).">
<polygon fill="white" stroke="#666666" points="437,-19 352,-19 352,0 437,0 437,-19"/>
<text text-anchor="middle" x="394.5" y="-7" font-family="Helvetica,sans-Serif" font-size="10.00">GlobalMacros.h</text>
</a>
</g>
</g>
<!-- Node8&#45;&gt;Node10 -->
<g id="edge9_Node000008_Node000010" class="edge">
<title>Node8&#45;&gt;Node10</title>
<g id="a_edge9_Node000008_Node000010"><a xlink:title=" ">
<path fill="none" stroke="#63b8ff" d="M394.5,-54.75C394.5,-47.8 394.5,-37.85 394.5,-29.13"/>
<polygon fill="#63b8ff" stroke="#63b8ff" points="398,-29.09 394.5,-19.09 391,-29.09 398,-29.09"/>
</a>
</g>
</g>
<!-- Node12 -->
<g id="Node000012" class="node">
<title>Node12</title>
<g id="a_Node000012"><a xlink:href="_byte_8h.html" target="_top" xlink:title="The Byte specification and body provides a value object type for byte values.">
<polygon fill="white" stroke="#666666" points="301,-184 256,-184 256,-165 301,-165 301,-184"/>
<text text-anchor="middle" x="278.5" y="-172" font-family="Helvetica,sans-Serif" font-size="10.00">Byte.h</text>
</a>
</g>
</g>
<!-- Node11&#45;&gt;Node12 -->
<g id="edge11_Node000011_Node000012" class="edge">
<title>Node11&#45;&gt;Node12</title>
<g id="a_edge11_Node000011_Node000012"><a xlink:title=" ">
<path fill="none" stroke="#63b8ff" d="M130.4,-274.84C157.96,-256.36 222.81,-212.86 256.82,-190.05"/>
<polygon fill="#63b8ff" stroke="#63b8ff" points="259.18,-192.67 265.54,-184.2 255.28,-186.86 259.18,-192.67"/>
</a>
</g>
</g>
<!-- Node19 -->
<g id="Node000019" class="node">
<title>Node19</title>
<g id="a_Node000019"><a xlink:href="_string_list_8h.html" target="_top" xlink:title="The StringList specification defines lists of string values with zero&#45;based arbitrary indexed access ...">
<polygon fill="white" stroke="#666666" points="172.5,-239 106.5,-239 106.5,-220 172.5,-220 172.5,-239"/>
<text text-anchor="middle" x="139.5" y="-227" font-family="Helvetica,sans-Serif" font-size="10.00">StringList.h</text>
</a>
</g>
</g>
<!-- Node11&#45;&gt;Node19 -->
<g id="edge21_Node000011_Node000019" class="edge">
<title>Node11&#45;&gt;Node19</title>
<g id="a_edge21_Node000011_Node000019"><a xlink:title=" ">
<path fill="none" stroke="#63b8ff" d="M121.13,-274.75C124.08,-267.65 128.33,-257.4 132.01,-248.56"/>
<polygon fill="#63b8ff" stroke="#63b8ff" points="135.33,-249.67 135.93,-239.09 128.87,-246.98 135.33,-249.67"/>
</a>
</g>
</g>
<!-- Node13 -->
<g id="Node000013" class="node">
<title>Node13</title>
<g id="a_Node000013"><a xlink:title=" ">
<polygon fill="#e0e0e0" stroke="#999999" points="344.5,-74 300.5,-74 300.5,-55 344.5,-55 344.5,-74"/>
<text text-anchor="middle" x="322.5" y="-62" font-family="Helvetica,sans-Serif" font-size="10.00">cmath</text>
</a>
</g>
</g>
<!-- Node12&#45;&gt;Node13 -->
<g id="edge12_Node000012_Node000013" class="edge">
<title>Node12&#45;&gt;Node13</title>
<g id="a_edge12_Node000012_Node000013"><a xlink:title=" ">
<path fill="none" stroke="#63b8ff" d="M282.1,-164.66C289.29,-147.01 305.56,-107.09 315.11,-83.64"/>
<polygon fill="#63b8ff" stroke="#63b8ff" points="318.44,-84.74 318.97,-74.16 311.96,-82.1 318.44,-84.74"/>
</a>
</g>
</g>
<!-- Node14 -->
<g id="Node000014" class="node">
<title>Node14</title>
<g id="a_Node000014"><a xlink:title=" ">
<polygon fill="#e0e0e0" stroke="#999999" points="263.5,-129 217.5,-129 217.5,-110 263.5,-110 263.5,-129"/>
<text text-anchor="middle" x="240.5" y="-117" font-family="Helvetica,sans-Serif" font-size="10.00">cstdint</text>
</a>
</g>
</g>
<!-- Node12&#45;&gt;Node14 -->
<g id="edge13_Node000012_Node000014" class="edge">
<title>Node12&#45;&gt;Node14</title>
<g id="a_edge13_Node000012_Node000014"><a xlink:title=" ">
<path fill="none" stroke="#63b8ff" d="M272.23,-164.75C266.91,-157.34 259.14,-146.5 252.62,-137.41"/>
<polygon fill="#63b8ff" stroke="#63b8ff" points="255.33,-135.18 246.66,-129.09 249.64,-139.26 255.33,-135.18"/>
</a>
</g>
</g>
<!-- Node15 -->
<g id="Node000015" class="node">
<title>Node15</title>
<g id="a_Node000015"><a xlink:href="_natural_8h.html" target="_top" xlink:title="The Natural specification and body provides a value object type for naturals (positive integers with ...">
<polygon fill="white" stroke="#666666" points="505.5,-129 449.5,-129 449.5,-110 505.5,-110 505.5,-129"/>
<text text-anchor="middle" x="477.5" y="-117" font-family="Helvetica,sans-Serif" font-size="10.00">Natural.h</text>
</a>
</g>
</g>
<!-- Node12&#45;&gt;Node15 -->
<g id="edge14_Node000012_Node000015" class="edge">
<title>Node12&#45;&gt;Node15</title>
<g id="a_edge14_Node000012_Node000015"><a xlink:title=" ">
<path fill="none" stroke="#63b8ff" d="M301.33,-167.42C335.02,-158.45 398.48,-141.55 439.33,-130.67"/>
<polygon fill="#63b8ff" stroke="#63b8ff" points="440.43,-133.99 449.19,-128.04 438.63,-127.23 440.43,-133.99"/>
</a>
</g>
</g>
<!-- Node15&#45;&gt;Node8 -->
<g id="edge20_Node000015_Node000008" class="edge">
<title>Node15&#45;&gt;Node8</title>
<g id="a_edge20_Node000015_Node000008"><a xlink:title=" ">
<path fill="none" stroke="#63b8ff" d="M464.16,-109.98C451.41,-101.84 431.95,-89.41 416.83,-79.76"/>
<polygon fill="#63b8ff" stroke="#63b8ff" points="418.39,-76.6 408.08,-74.17 414.62,-82.5 418.39,-76.6"/>
</a>
</g>
</g>
<!-- Node15&#45;&gt;Node13 -->
<g id="edge15_Node000015_Node000013" class="edge">
<title>Node15&#45;&gt;Node13</title>
<g id="a_edge15_Node000015_Node000013"><a xlink:title=" ">
<path fill="none" stroke="#63b8ff" d="M452.6,-109.98C425.96,-100.88 383.62,-86.4 354.52,-76.45"/>
<polygon fill="#63b8ff" stroke="#63b8ff" points="355.42,-73.06 344.83,-73.13 353.16,-79.68 355.42,-73.06"/>
</a>
</g>
</g>
<!-- Node16 -->
<g id="Node000016" class="node">
<title>Node16</title>
<g id="a_Node000016"><a xlink:href="_assertion_8h.html" target="_top" xlink:title="The Assertion specification defines macros for pre&#45; and postconditions in functions or methods.">
<polygon fill="white" stroke="#666666" points="510.5,-74 444.5,-74 444.5,-55 510.5,-55 510.5,-74"/>
<text text-anchor="middle" x="477.5" y="-62" font-family="Helvetica,sans-Serif" font-size="10.00">Assertion.h</text>
</a>
</g>
</g>
<!-- Node15&#45;&gt;Node16 -->
<g id="edge16_Node000015_Node000016" class="edge">
<title>Node15&#45;&gt;Node16</title>
<g id="a_edge16_Node000015_Node000016"><a xlink:title=" ">
<path fill="none" stroke="#63b8ff" d="M477.5,-109.75C477.5,-102.8 477.5,-92.85 477.5,-84.13"/>
<polygon fill="#63b8ff" stroke="#63b8ff" points="481,-84.09 477.5,-74.09 474,-84.09 481,-84.09"/>
</a>
</g>
</g>
<!-- Node18 -->
<g id="Node000018" class="node">
<title>Node18</title>
<g id="a_Node000018"><a xlink:title=" ">
<polygon fill="#e0e0e0" stroke="#999999" points="620.5,-74 528.5,-74 528.5,-55 620.5,-55 620.5,-74"/>
<text text-anchor="middle" x="574.5" y="-62" font-family="Helvetica,sans-Serif" font-size="10.00">GenericNumber.h</text>
</a>
</g>
</g>
<!-- Node15&#45;&gt;Node18 -->
<g id="edge19_Node000015_Node000018" class="edge">
<title>Node15&#45;&gt;Node18</title>
<g id="a_edge19_Node000015_Node000018"><a xlink:title=" ">
<path fill="none" stroke="#63b8ff" d="M493.08,-109.98C508.27,-101.69 531.6,-88.94 549.4,-79.22"/>
<polygon fill="#63b8ff" stroke="#63b8ff" points="551.53,-82.04 558.63,-74.17 548.18,-75.89 551.53,-82.04"/>
</a>
</g>
</g>
<!-- Node16&#45;&gt;Node9 -->
<g id="edge18_Node000016_Node000009" class="edge">
<title>Node16&#45;&gt;Node9</title>
<g id="a_edge18_Node000016_Node000009"><a xlink:title=" ">
<path fill="none" stroke="#63b8ff" d="M477.33,-54.75C477.2,-47.8 477.02,-37.85 476.85,-29.13"/>
<polygon fill="#63b8ff" stroke="#63b8ff" points="480.35,-29.02 476.66,-19.09 473.35,-29.15 480.35,-29.02"/>
</a>
</g>
</g>
<!-- Node17 -->
<g id="Node000017" class="node">
<title>Node17</title>
<g id="a_Node000017"><a xlink:title=" ">
<polygon fill="#e0e0e0" stroke="#999999" points="626,-19 567,-19 567,0 626,0 626,-19"/>
<text text-anchor="middle" x="596.5" y="-7" font-family="Helvetica,sans-Serif" font-size="10.00">stdexcept</text>
</a>
</g>
</g>
<!-- Node16&#45;&gt;Node17 -->
<g id="edge17_Node000016_Node000017" class="edge">
<title>Node16&#45;&gt;Node17</title>
<g id="a_edge17_Node000016_Node000017"><a xlink:title=" ">
<path fill="none" stroke="#63b8ff" d="M496.62,-54.98C515.85,-46.42 545.73,-33.11 567.81,-23.28"/>
<polygon fill="#63b8ff" stroke="#63b8ff" points="569.32,-26.44 577.03,-19.17 566.47,-20.04 569.32,-26.44"/>
</a>
</g>
</g>
<!-- Node20 -->
<g id="Node000020" class="node">
<title>Node20</title>
<g id="a_Node000020"><a xlink:title=" ">
<polygon fill="#e0e0e0" stroke="#999999" points="111,-184 38,-184 38,-165 111,-165 111,-184"/>
<text text-anchor="middle" x="74.5" y="-172" font-family="Helvetica,sans-Serif" font-size="10.00">initializer_list</text>
</a>
</g>
</g>
<!-- Node19&#45;&gt;Node20 -->
<g id="edge22_Node000019_Node000020" class="edge">
<title>Node19&#45;&gt;Node20</title>
<g id="a_edge22_Node000019_Node000020"><a xlink:title=" ">
<path fill="none" stroke="#63b8ff" d="M129.06,-219.98C119.35,-212.07 104.68,-200.11 93,-190.58"/>
<polygon fill="#63b8ff" stroke="#63b8ff" points="95.1,-187.78 85.13,-184.17 90.67,-193.2 95.1,-187.78"/>
</a>
</g>
</g>
<!-- Node21 -->
<g id="Node000021" class="node">
<title>Node21</title>
<g id="a_Node000021"><a xlink:title=" ">
<polygon fill="#e0e0e0" stroke="#999999" points="203.5,-184 129.5,-184 129.5,-165 203.5,-165 203.5,-184"/>
<text text-anchor="middle" x="166.5" y="-172" font-family="Helvetica,sans-Serif" font-size="10.00">GenericList.h</text>
</a>
</g>
</g>
<!-- Node19&#45;&gt;Node21 -->
<g id="edge23_Node000019_Node000021" class="edge">
<title>Node19&#45;&gt;Node21</title>
<g id="a_edge23_Node000019_Node000021"><a xlink:title=" ">
<path fill="none" stroke="#63b8ff" d="M143.96,-219.75C147.62,-212.57 152.91,-202.18 157.45,-193.27"/>
<polygon fill="#63b8ff" stroke="#63b8ff" points="160.7,-194.59 162.12,-184.09 154.47,-191.41 160.7,-194.59"/>
</a>
</g>
</g>
<!-- Node24 -->
<g id="Node000024" class="node">
<title>Node24</title>
<g id="a_Node000024"><a xlink:title=" ">
<polygon fill="#e0e0e0" stroke="#999999" points="286,-349 237,-349 237,-330 286,-330 286,-349"/>
<text text-anchor="middle" x="261.5" y="-337" font-family="Helvetica,sans-Serif" font-size="10.00">cstdarg</text>
</a>
</g>
</g>
<!-- Node23&#45;&gt;Node24 -->
<g id="edge26_Node000023_Node000024" class="edge">
<title>Node23&#45;&gt;Node24</title>
<g id="a_edge26_Node000023_Node000024"><a xlink:title=" ">
<path fill="none" stroke="#63b8ff" d="M324.45,-384.98C313.04,-376.92 295.67,-364.65 282.07,-355.03"/>
<polygon fill="#63b8ff" stroke="#63b8ff" points="283.96,-352.08 273.77,-349.17 279.92,-357.8 283.96,-352.08"/>
</a>
</g>
</g>
<!-- Node25 -->
<g id="Node000025" class="node">
<title>Node25</title>
<g id="a_Node000025"><a xlink:href="_logging_support_8h.html" target="_top" xlink:title="The LoggingSupport specification defines a class for simple entry/exit logging to a file or via an ar...">
<polygon fill="white" stroke="#666666" points="481.5,-349 389.5,-349 389.5,-330 481.5,-330 481.5,-349"/>
<text text-anchor="middle" x="435.5" y="-337" font-family="Helvetica,sans-Serif" font-size="10.00">LoggingSupport.h</text>
</a>
</g>
</g>
<!-- Node23&#45;&gt;Node25 -->
<g id="edge27_Node000023_Node000025" class="edge">
<title>Node23&#45;&gt;Node25</title>
<g id="a_edge27_Node000023_Node000025"><a xlink:title=" ">
<path fill="none" stroke="#63b8ff" d="M352.41,-384.98C368.05,-376.61 392.16,-363.7 410.38,-353.95"/>
<polygon fill="#63b8ff" stroke="#63b8ff" points="412.14,-356.98 419.3,-349.17 408.84,-350.8 412.14,-356.98"/>
</a>
</g>
</g>
<!-- Node26 -->
<g id="Node000026" class="node">
<title>Node26</title>
<g id="a_Node000026"><a xlink:href="_string_util_8h.html" target="_top" xlink:title="The StringUtil specification defines several string routines not included in the standard C++ library...">
<polygon fill="white" stroke="#666666" points="369,-349 304,-349 304,-330 369,-330 369,-349"/>
<text text-anchor="middle" x="336.5" y="-337" font-family="Helvetica,sans-Serif" font-size="10.00">StringUtil.h</text>
</a>
</g>
</g>
<!-- Node23&#45;&gt;Node26 -->
<g id="edge30_Node000023_Node000026" class="edge">
<title>Node23&#45;&gt;Node26</title>
<g id="a_edge30_Node000023_Node000026"><a xlink:title=" ">
<path fill="none" stroke="#63b8ff" d="M336.5,-384.75C336.5,-377.8 336.5,-367.85 336.5,-359.13"/>
<polygon fill="#63b8ff" stroke="#63b8ff" points="340,-359.09 336.5,-349.09 333,-359.09 340,-359.09"/>
</a>
</g>
</g>
<!-- Node25&#45;&gt;Node7 -->
<g id="edge28_Node000025_Node000007" class="edge">
<title>Node25&#45;&gt;Node7</title>
<g id="a_edge28_Node000025_Node000007"><a xlink:title=" ">
<path fill="none" stroke="#63b8ff" d="M435.5,-329.75C435.5,-322.8 435.5,-312.85 435.5,-304.13"/>
<polygon fill="#63b8ff" stroke="#63b8ff" points="439,-304.09 435.5,-294.09 432,-304.09 439,-304.09"/>
</a>
</g>
</g>
<!-- Node25&#45;&gt;Node15 -->
<g id="edge29_Node000025_Node000015" class="edge">
<title>Node25&#45;&gt;Node15</title>
<g id="a_edge29_Node000025_Node000015"><a xlink:title=" ">
<path fill="none" stroke="#63b8ff" d="M446.43,-329.96C455.85,-321.86 468.8,-308.76 474.5,-294 494.98,-240.95 486.89,-171.81 481.23,-139.15"/>
<polygon fill="#63b8ff" stroke="#63b8ff" points="484.65,-138.39 479.38,-129.2 477.77,-139.67 484.65,-138.39"/>
</a>
</g>
</g>
<!-- Node26&#45;&gt;Node7 -->
<g id="edge31_Node000026_Node000007" class="edge">
<title>Node26&#45;&gt;Node7</title>
<g id="a_edge31_Node000026_Node000007"><a xlink:title=" ">
<path fill="none" stroke="#63b8ff" d="M352.41,-329.98C368.05,-321.61 392.16,-308.7 410.38,-298.95"/>
<polygon fill="#63b8ff" stroke="#63b8ff" points="412.14,-301.98 419.3,-294.17 408.84,-295.8 412.14,-301.98"/>
</a>
</g>
</g>
<!-- Node26&#45;&gt;Node19 -->
<g id="edge42_Node000026_Node000019" class="edge">
<title>Node26&#45;&gt;Node19</title>
<g id="a_edge42_Node000026_Node000019"><a xlink:title=" ">
<path fill="none" stroke="#63b8ff" d="M322.2,-329.8C301.51,-317.31 261.94,-293.72 227.5,-275 207.19,-263.96 183.83,-252.19 166.28,-243.53"/>
<polygon fill="#63b8ff" stroke="#63b8ff" points="167.71,-240.33 157.19,-239.06 164.62,-246.61 167.71,-240.33"/>
</a>
</g>
</g>
<!-- Node26&#45;&gt;Node22 -->
<g id="edge35_Node000026_Node000022" class="edge">
<title>Node26&#45;&gt;Node22</title>
<g id="a_edge35_Node000026_Node000022"><a xlink:title=" ">
<path fill="none" stroke="#63b8ff" d="M313.36,-329.98C289.68,-321.27 252.63,-307.63 225.79,-297.75"/>
<polygon fill="#63b8ff" stroke="#63b8ff" points="226.65,-294.34 216.06,-294.17 224.23,-300.91 226.65,-294.34"/>
</a>
</g>
</g>
<!-- Node27 -->
<g id="Node000027" class="node">
<title>Node27</title>
<g id="a_Node000027"><a xlink:href="_character_8h.html" target="_top" xlink:title="The Character specification and body provides a value object type for character values.">
<polygon fill="white" stroke="#666666" points="319,-239 252,-239 252,-220 319,-220 319,-239"/>
<text text-anchor="middle" x="285.5" y="-227" font-family="Helvetica,sans-Serif" font-size="10.00">Character.h</text>
</a>
</g>
</g>
<!-- Node26&#45;&gt;Node27 -->
<g id="edge32_Node000026_Node000027" class="edge">
<title>Node26&#45;&gt;Node27</title>
<g id="a_edge32_Node000026_Node000027"><a xlink:title=" ">
<path fill="none" stroke="#63b8ff" d="M328.94,-329.86C321.77,-321.28 311.14,-307.49 304.5,-294 297.43,-279.62 292.43,-262.1 289.34,-249.11"/>
<polygon fill="#63b8ff" stroke="#63b8ff" points="292.69,-248.06 287.11,-239.05 285.86,-249.57 292.69,-248.06"/>
</a>
</g>
</g>
<!-- Node28 -->
<g id="Node000028" class="node">
<title>Node28</title>
<g id="a_Node000028"><a xlink:href="_percentage_8h.html" target="_top" xlink:title="The Percentage specification and body provides a simple percentage type.">
<polygon fill="white" stroke="#666666" points="387.5,-294 313.5,-294 313.5,-275 387.5,-275 387.5,-294"/>
<text text-anchor="middle" x="350.5" y="-282" font-family="Helvetica,sans-Serif" font-size="10.00">Percentage.h</text>
</a>
</g>
</g>
<!-- Node26&#45;&gt;Node28 -->
<g id="edge36_Node000026_Node000028" class="edge">
<title>Node26&#45;&gt;Node28</title>
<g id="a_edge36_Node000026_Node000028"><a xlink:title=" ">
<path fill="none" stroke="#63b8ff" d="M338.81,-329.75C340.67,-322.72 343.34,-312.62 345.65,-303.84"/>
<polygon fill="#63b8ff" stroke="#63b8ff" points="349.06,-304.65 348.23,-294.09 342.29,-302.86 349.06,-304.65"/>
</a>
</g>
</g>
<!-- Node27&#45;&gt;Node12 -->
<g id="edge34_Node000027_Node000012" class="edge">
<title>Node27&#45;&gt;Node12</title>
<g id="a_edge34_Node000027_Node000012"><a xlink:title=" ">
<path fill="none" stroke="#63b8ff" d="M284.34,-219.75C283.43,-212.8 282.11,-202.85 280.96,-194.13"/>
<polygon fill="#63b8ff" stroke="#63b8ff" points="284.41,-193.54 279.63,-184.09 277.47,-194.46 284.41,-193.54"/>
</a>
</g>
</g>
<!-- Node27&#45;&gt;Node13 -->
<g id="edge33_Node000027_Node000013" class="edge">
<title>Node27&#45;&gt;Node13</title>
<g id="a_edge33_Node000027_Node000013"><a xlink:title=" ">
<path fill="none" stroke="#63b8ff" d="M291.55,-219.75C297.2,-211.09 305.38,-197.24 309.5,-184 320.13,-149.87 322.33,-107.85 322.64,-84.12"/>
<polygon fill="#63b8ff" stroke="#63b8ff" points="326.14,-84.07 322.67,-74.06 319.14,-84.05 326.14,-84.07"/>
</a>
</g>
</g>
<!-- Node29 -->
<g id="Node000029" class="node">
<title>Node29</title>
<g id="a_Node000029"><a xlink:href="_real_8h.html" target="_top" xlink:title="The Real specification defines a value object type for real values.">
<polygon fill="white" stroke="#666666" points="460.5,-239 416.5,-239 416.5,-220 460.5,-220 460.5,-239"/>
<text text-anchor="middle" x="438.5" y="-227" font-family="Helvetica,sans-Serif" font-size="10.00">Real.h</text>
</a>
</g>
</g>
<!-- Node28&#45;&gt;Node29 -->
<g id="edge37_Node000028_Node000029" class="edge">
<title>Node28&#45;&gt;Node29</title>
<g id="a_edge37_Node000028_Node000029"><a xlink:title=" ">
<path fill="none" stroke="#63b8ff" d="M364.64,-274.98C378.29,-266.77 399.19,-254.18 415.28,-244.49"/>
<polygon fill="#63b8ff" stroke="#63b8ff" points="417.34,-247.33 424.1,-239.17 413.73,-241.33 417.34,-247.33"/>
</a>
</g>
</g>
<!-- Node30 -->
<g id="Node000030" class="node">
<title>Node30</title>
<g id="a_Node000030"><a xlink:href="_integer_8h.html" target="_top" xlink:title="The Integer specification and body provides a value object type for ints.">
<polygon fill="white" stroke="#666666" points="465.5,-184 411.5,-184 411.5,-165 465.5,-165 465.5,-184"/>
<text text-anchor="middle" x="438.5" y="-172" font-family="Helvetica,sans-Serif" font-size="10.00">Integer.h</text>
</a>
</g>
</g>
<!-- Node29&#45;&gt;Node30 -->
<g id="edge38_Node000029_Node000030" class="edge">
<title>Node29&#45;&gt;Node30</title>
<g id="a_edge38_Node000029_Node000030"><a xlink:title=" ">
<path fill="none" stroke="#63b8ff" d="M438.5,-219.75C438.5,-212.8 438.5,-202.85 438.5,-194.13"/>
<polygon fill="#63b8ff" stroke="#63b8ff" points="442,-194.09 438.5,-184.09 435,-194.09 442,-194.09"/>
</a>
</g>
</g>
<!-- Node30&#45;&gt;Node13 -->
<g id="edge39_Node000030_Node000013" class="edge">
<title>Node30&#45;&gt;Node13</title>
<g id="a_edge39_Node000030_Node000013"><a xlink:title=" ">
<path fill="none" stroke="#63b8ff" d="M429.01,-164.66C409.37,-146.38 364.05,-104.18 339.33,-81.17"/>
<polygon fill="#63b8ff" stroke="#63b8ff" points="341.5,-78.41 331.8,-74.16 336.73,-83.53 341.5,-78.41"/>
</a>
</g>
</g>
<!-- Node30&#45;&gt;Node15 -->
<g id="edge41_Node000030_Node000015" class="edge">
<title>Node30&#45;&gt;Node15</title>
<g id="a_edge41_Node000030_Node000015"><a xlink:title=" ">
<path fill="none" stroke="#63b8ff" d="M444.94,-164.75C450.39,-157.34 458.36,-146.5 465.06,-137.41"/>
<polygon fill="#63b8ff" stroke="#63b8ff" points="468.07,-139.22 471.18,-129.09 462.43,-135.07 468.07,-139.22"/>
</a>
</g>
</g>
<!-- Node30&#45;&gt;Node17 -->
<g id="edge40_Node000030_Node000017" class="edge">
<title>Node30&#45;&gt;Node17</title>
<g id="a_edge40_Node000030_Node000017"><a xlink:title=" ">
<path fill="none" stroke="#63b8ff" d="M465.79,-168.51C509.4,-158.9 593.53,-133.3 629.5,-74 639,-58.34 626.62,-39.66 614.4,-26.63"/>
<polygon fill="#63b8ff" stroke="#63b8ff" points="616.59,-23.87 607.02,-19.33 611.67,-28.85 616.59,-23.87"/>
</a>
</g>
</g>
<!-- Node31&#45;&gt;Node7 -->
<g id="edge44_Node000031_Node000007" class="edge">
<title>Node31&#45;&gt;Node7</title>
<g id="a_edge44_Node000031_Node000007"><a xlink:title=" ">
<path fill="none" stroke="#63b8ff" d="M549.65,-329.98C527.38,-321.3 492.6,-307.75 467.28,-297.88"/>
<polygon fill="#63b8ff" stroke="#63b8ff" points="468.34,-294.54 457.75,-294.17 465.79,-301.06 468.34,-294.54"/>
</a>
</g>
</g>
<!-- Node31&#45;&gt;Node15 -->
<g id="edge47_Node000031_Node000015" class="edge">
<title>Node31&#45;&gt;Node15</title>
<g id="a_edge47_Node000031_Node000015"><a xlink:title=" ">
<path fill="none" stroke="#63b8ff" d="M590.3,-329.83C611.02,-318.9 640.23,-298.66 630.5,-275 604,-210.58 536.22,-158.76 500.43,-134.85"/>
<polygon fill="#63b8ff" stroke="#63b8ff" points="501.94,-131.65 491.65,-129.11 498.11,-137.51 501.94,-131.65"/>
</a>
</g>
</g>
<!-- Node32 -->
<g id="Node000032" class="node">
<title>Node32</title>
<g id="a_Node000032"><a xlink:href="_dictionary_8h.html" target="_top" xlink:title="The Dictionary specification defines maps from string keys to string values.">
<polygon fill="white" stroke="#666666" points="748.5,-294 680.5,-294 680.5,-275 748.5,-275 748.5,-294"/>
<text text-anchor="middle" x="714.5" y="-282" font-family="Helvetica,sans-Serif" font-size="10.00">Dictionary.h</text>
</a>
</g>
</g>
<!-- Node31&#45;&gt;Node32 -->
<g id="edge45_Node000031_Node000032" class="edge">
<title>Node31&#45;&gt;Node32</title>
<g id="a_edge45_Node000031_Node000032"><a xlink:title=" ">
<path fill="none" stroke="#63b8ff" d="M594.48,-329.98C618,-321.27 654.79,-307.63 681.44,-297.75"/>
<polygon fill="#63b8ff" stroke="#63b8ff" points="682.95,-300.93 691.11,-294.17 680.51,-294.36 682.95,-300.93"/>
</a>
</g>
</g>
<!-- Node34 -->
<g id="Node000034" class="node">
<title>Node34</title>
<g id="a_Node000034"><a xlink:href="_time_and_duration_8h.html" target="_top" xlink:title="The TimeAndDuration specification and body provides types for time and duration.">
<polygon fill="white" stroke="#666666" points="621,-294 522,-294 522,-275 621,-275 621,-294"/>
<text text-anchor="middle" x="571.5" y="-282" font-family="Helvetica,sans-Serif" font-size="10.00">TimeAndDuration.h</text>
</a>
</g>
</g>
<!-- Node31&#45;&gt;Node34 -->
<g id="edge48_Node000031_Node000034" class="edge">
<title>Node31&#45;&gt;Node34</title>
<g id="a_edge48_Node000031_Node000034"><a xlink:title=" ">
<path fill="none" stroke="#63b8ff" d="M571.5,-329.75C571.5,-322.8 571.5,-312.85 571.5,-304.13"/>
<polygon fill="#63b8ff" stroke="#63b8ff" points="575,-304.09 571.5,-294.09 568,-304.09 575,-304.09"/>
</a>
</g>
</g>
<!-- Node33 -->
<g id="Node000033" class="node">
<title>Node33</title>
<g id="a_Node000033"><a xlink:title=" ">
<polygon fill="#e0e0e0" stroke="#999999" points="755,-239 678,-239 678,-220 755,-220 755,-239"/>
<text text-anchor="middle" x="716.5" y="-227" font-family="Helvetica,sans-Serif" font-size="10.00">GenericMap.h</text>
</a>
</g>
</g>
<!-- Node32&#45;&gt;Node33 -->
<g id="edge46_Node000032_Node000033" class="edge">
<title>Node32&#45;&gt;Node33</title>
<g id="a_edge46_Node000032_Node000033"><a xlink:title=" ">
<path fill="none" stroke="#63b8ff" d="M714.83,-274.75C715.09,-267.8 715.47,-257.85 715.8,-249.13"/>
<polygon fill="#63b8ff" stroke="#63b8ff" points="719.3,-249.21 716.18,-239.09 712.3,-248.95 719.3,-249.21"/>
</a>
</g>
</g>
<!-- Node34&#45;&gt;Node29 -->
<g id="edge49_Node000034_Node000029" class="edge">
<title>Node34&#45;&gt;Node29</title>
<g id="a_edge49_Node000034_Node000029"><a xlink:title=" ">
<path fill="none" stroke="#63b8ff" d="M550.13,-274.98C528.35,-266.3 494.34,-252.75 469.58,-242.88"/>
<polygon fill="#63b8ff" stroke="#63b8ff" points="470.84,-239.62 460.26,-239.17 468.25,-246.12 470.84,-239.62"/>
</a>
</g>
</g>
</g>
</svg>
