<?xml version="1.0" encoding="UTF-8" standalone="no"?>
<!DOCTYPE svg PUBLIC "-//W3C//DTD SVG 1.1//EN"
 "http://www.w3.org/Graphics/SVG/1.1/DTD/svg11.dtd">
<!-- Generated by graphviz version 2.47.1 (20210417.1919)
 -->
<!-- Title: OperatingSystem.h Pages: 1 -->
<svg width="777pt" height="84pt"
 viewBox="0.00 0.00 777.00 84.00" xmlns="http://www.w3.org/2000/svg" xmlns:xlink="http://www.w3.org/1999/xlink">
<g id="graph0" class="graph" transform="scale(1 1) rotate(0) translate(4 80)">
<title>OperatingSystem.h</title>
<polygon fill="white" stroke="transparent" points="-4,4 -4,-80 773,-80 773,4 -4,4"/>
<!-- Node1 -->
<g id="node1" class="node">
<title>Node1</title>
<g id="a_node1"><a xlink:title="The OperatingSystem specification defines a class for several operating system related utility functi...">
<polygon fill="#bfbfbf" stroke="black" points="290,-56.5 290,-75.5 391,-75.5 391,-56.5 290,-56.5"/>
<text text-anchor="middle" x="340.5" y="-63.5" font-family="Helvetica,sans-Serif" font-size="10.00">OperatingSystem.h</text>
</a>
</g>
</g>
<!-- Node2 -->
<g id="node2" class="node">
<title>Node2</title>
<g id="a_node2"><a xlink:href="_wave_file_8cpp.html" target="_top" xlink:title="The WaveFile specification defines an object for accessing a RIFF wave file with several channels.">
<polygon fill="white" stroke="black" points="0,-0.5 0,-19.5 75,-19.5 75,-0.5 0,-0.5"/>
<text text-anchor="middle" x="37.5" y="-7.5" font-family="Helvetica,sans-Serif" font-size="10.00">WaveFile.cpp</text>
</a>
</g>
</g>
<!-- Node1&#45;&gt;Node2 -->
<g id="edge1" class="edge">
<title>Node1&#45;&gt;Node2</title>
<path fill="none" stroke="midnightblue" d="M280.14,-54.78C228.02,-45.87 150.72,-32.46 83.5,-20 80.78,-19.5 77.97,-18.97 75.14,-18.43"/>
<polygon fill="midnightblue" stroke="midnightblue" points="279.77,-58.27 290.22,-56.5 280.95,-51.37 279.77,-58.27"/>
</g>
<!-- Node3 -->
<g id="node3" class="node">
<title>Node3</title>
<g id="a_node3"><a xlink:href="_logging_support_8cpp.html" target="_top" xlink:title="The LoggingSupport body implements a class for simple entry/exit logging to a file or via a callback ...">
<polygon fill="white" stroke="black" points="93,-0.5 93,-19.5 196,-19.5 196,-0.5 93,-0.5"/>
<text text-anchor="middle" x="144.5" y="-7.5" font-family="Helvetica,sans-Serif" font-size="10.00">LoggingSupport.cpp</text>
</a>
</g>
</g>
<!-- Node1&#45;&gt;Node3 -->
<g id="edge2" class="edge">
<title>Node1&#45;&gt;Node3</title>
<path fill="none" stroke="midnightblue" d="M299.48,-53.7C262.49,-43.51 208.9,-28.74 175.41,-19.52"/>
<polygon fill="midnightblue" stroke="midnightblue" points="298.87,-57.16 309.44,-56.44 300.73,-50.41 298.87,-57.16"/>
</g>
<!-- Node4 -->
<g id="node4" class="node">
<title>Node4</title>
<g id="a_node4"><a xlink:href="_operating_system_8cpp.html" target="_top" xlink:title="The OperatingSystem body implements a class for several operating system related utility functions (l...">
<polygon fill="white" stroke="black" points="214,-0.5 214,-19.5 325,-19.5 325,-0.5 214,-0.5"/>
<text text-anchor="middle" x="269.5" y="-7.5" font-family="Helvetica,sans-Serif" font-size="10.00">OperatingSystem.cpp</text>
</a>
</g>
</g>
<!-- Node1&#45;&gt;Node4 -->
<g id="edge3" class="edge">
<title>Node1&#45;&gt;Node4</title>
<path fill="none" stroke="midnightblue" d="M320.91,-50.1C308.13,-40.38 291.89,-28.03 281.11,-19.83"/>
<polygon fill="midnightblue" stroke="midnightblue" points="319.01,-53.06 329.09,-56.32 323.25,-47.48 319.01,-53.06"/>
</g>
<!-- Node5 -->
<g id="node5" class="node">
<title>Node5</title>
<g id="a_node5"><a xlink:href="_fluid_synth_file_converter_8cpp.html" target="_top" xlink:title="The FluidSynthFileConverter module implements a conversion from a MIDI file into a wave file using th...">
<polygon fill="white" stroke="black" points="343.5,-0.5 343.5,-19.5 481.5,-19.5 481.5,-0.5 343.5,-0.5"/>
<text text-anchor="middle" x="412.5" y="-7.5" font-family="Helvetica,sans-Serif" font-size="10.00">FluidSynthFileConverter.cpp</text>
</a>
</g>
</g>
<!-- Node1&#45;&gt;Node5 -->
<g id="edge4" class="edge">
<title>Node1&#45;&gt;Node5</title>
<path fill="none" stroke="midnightblue" d="M360.37,-50.1C373.32,-40.38 389.8,-28.03 400.72,-19.83"/>
<polygon fill="midnightblue" stroke="midnightblue" points="357.97,-47.52 352.07,-56.32 362.17,-53.12 357.97,-47.52"/>
</g>
<!-- Node6 -->
<g id="node6" class="node">
<title>Node6</title>
<g id="a_node6"><a xlink:href="_fluid_synth_plugin___event_processor_8cpp.html" target="_top" xlink:title="The FluidSynthPlugin_Processor module implements the handling of MIDI events from the DAW via JUCE ha...">
<polygon fill="white" stroke="black" points="499.5,-0.5 499.5,-19.5 681.5,-19.5 681.5,-0.5 499.5,-0.5"/>
<text text-anchor="middle" x="590.5" y="-7.5" font-family="Helvetica,sans-Serif" font-size="10.00">FluidSynthPlugin_EventProcessor.cpp</text>
</a>
</g>
</g>
<!-- Node1&#45;&gt;Node6 -->
<g id="edge5" class="edge">
<title>Node1&#45;&gt;Node6</title>
<path fill="none" stroke="midnightblue" d="M390.12,-54.28C437.37,-44.08 507.54,-28.92 551.07,-19.52"/>
<polygon fill="midnightblue" stroke="midnightblue" points="389.15,-50.91 380.11,-56.44 390.63,-57.75 389.15,-50.91"/>
</g>
<!-- Node7 -->
<g id="node7" class="node">
<title>Node7</title>
<g id="a_node7"><a xlink:href="_midi_file_8cpp.html" target="_top" xlink:title="The MidiFile implementation implements the services of a MIDI file; currently only file reading is su...">
<polygon fill="white" stroke="black" points="700,-0.5 700,-19.5 769,-19.5 769,-0.5 700,-0.5"/>
<text text-anchor="middle" x="734.5" y="-7.5" font-family="Helvetica,sans-Serif" font-size="10.00">MidiFile.cpp</text>
</a>
</g>
</g>
<!-- Node1&#45;&gt;Node7 -->
<g id="edge6" class="edge">
<title>Node1&#45;&gt;Node7</title>
<path fill="none" stroke="midnightblue" d="M401.06,-58.59C471,-50.87 589.41,-36.81 690.5,-20 693.58,-19.49 696.77,-18.92 699.96,-18.32"/>
<polygon fill="midnightblue" stroke="midnightblue" points="400.66,-55.11 391.1,-59.68 401.42,-62.07 400.66,-55.11"/>
</g>
</g>
</svg>
