<?xml version="1.0" encoding="UTF-8" standalone="no"?>
<!DOCTYPE svg PUBLIC "-//W3C//DTD SVG 1.1//EN"
 "http://www.w3.org/Graphics/SVG/1.1/DTD/svg11.dtd">
<!-- Generated by graphviz version 2.47.1 (20210417.1919)
 -->
<!-- Title: RealList.cpp Pages: 1 -->
<svg width="355pt" height="364pt"
 viewBox="0.00 0.00 354.50 364.00" xmlns="http://www.w3.org/2000/svg" xmlns:xlink="http://www.w3.org/1999/xlink">
<g id="graph0" class="graph" transform="scale(1 1) rotate(0) translate(4 360)">
<title>RealList.cpp</title>
<polygon fill="white" stroke="transparent" points="-4,4 -4,-360 350.5,-360 350.5,4 -4,4"/>
<!-- Node1 -->
<g id="node1" class="node">
<title>Node1</title>
<g id="a_node1"><a xlink:title="The RealList body implements lists of real values with zero&#45;based arbitrary indexed access to positio...">
<polygon fill="#bfbfbf" stroke="black" points="138,-336.5 138,-355.5 209,-355.5 209,-336.5 138,-336.5"/>
<text text-anchor="middle" x="173.5" y="-343.5" font-family="Helvetica,sans-Serif" font-size="10.00">RealList.cpp</text>
</a>
</g>
</g>
<!-- Node2 -->
<g id="node2" class="node">
<title>Node2</title>
<g id="a_node2"><a xlink:title=" ">
<polygon fill="white" stroke="#bfbfbf" points="113,-280.5 113,-299.5 162,-299.5 162,-280.5 113,-280.5"/>
<text text-anchor="middle" x="137.5" y="-287.5" font-family="Helvetica,sans-Serif" font-size="10.00">cstdarg</text>
</a>
</g>
</g>
<!-- Node1&#45;&gt;Node2 -->
<g id="edge1" class="edge">
<title>Node1&#45;&gt;Node2</title>
<path fill="none" stroke="midnightblue" d="M167.56,-336.08C162.52,-328.53 155.16,-317.49 148.99,-308.23"/>
<polygon fill="midnightblue" stroke="midnightblue" points="151.79,-306.13 143.33,-299.75 145.97,-310.01 151.79,-306.13"/>
</g>
<!-- Node3 -->
<g id="node3" class="node">
<title>Node3</title>
<g id="a_node3"><a xlink:href="_real_list_8h.html" target="_top" xlink:title="The RealList specification defines lists of real values with zero&#45;based arbitrary indexed access to p...">
<polygon fill="white" stroke="black" points="180.5,-280.5 180.5,-299.5 240.5,-299.5 240.5,-280.5 180.5,-280.5"/>
<text text-anchor="middle" x="210.5" y="-287.5" font-family="Helvetica,sans-Serif" font-size="10.00">RealList.h</text>
</a>
</g>
</g>
<!-- Node1&#45;&gt;Node3 -->
<g id="edge2" class="edge">
<title>Node1&#45;&gt;Node3</title>
<path fill="none" stroke="midnightblue" d="M179.61,-336.08C184.78,-328.53 192.35,-317.49 198.69,-308.23"/>
<polygon fill="midnightblue" stroke="midnightblue" points="201.74,-309.98 204.5,-299.75 195.96,-306.02 201.74,-309.98"/>
</g>
<!-- Node4 -->
<g id="node4" class="node">
<title>Node4</title>
<g id="a_node4"><a xlink:title=" ">
<polygon fill="white" stroke="#bfbfbf" points="82,-224.5 82,-243.5 155,-243.5 155,-224.5 82,-224.5"/>
<text text-anchor="middle" x="118.5" y="-231.5" font-family="Helvetica,sans-Serif" font-size="10.00">initializer_list</text>
</a>
</g>
</g>
<!-- Node3&#45;&gt;Node4 -->
<g id="edge3" class="edge">
<title>Node3&#45;&gt;Node4</title>
<path fill="none" stroke="midnightblue" d="M195.72,-280.32C181.23,-271.82 158.93,-258.73 142.01,-248.8"/>
<polygon fill="midnightblue" stroke="midnightblue" points="143.64,-245.7 133.24,-243.65 140.1,-251.74 143.64,-245.7"/>
</g>
<!-- Node5 -->
<g id="node5" class="node">
<title>Node5</title>
<g id="a_node5"><a xlink:title=" ">
<polygon fill="white" stroke="#bfbfbf" points="173.5,-224.5 173.5,-243.5 247.5,-243.5 247.5,-224.5 173.5,-224.5"/>
<text text-anchor="middle" x="210.5" y="-231.5" font-family="Helvetica,sans-Serif" font-size="10.00">GenericList.h</text>
</a>
</g>
</g>
<!-- Node3&#45;&gt;Node5 -->
<g id="edge4" class="edge">
<title>Node3&#45;&gt;Node5</title>
<path fill="none" stroke="midnightblue" d="M210.5,-280.08C210.5,-273.01 210.5,-262.86 210.5,-253.99"/>
<polygon fill="midnightblue" stroke="midnightblue" points="214,-253.75 210.5,-243.75 207,-253.75 214,-253.75"/>
</g>
<!-- Node6 -->
<g id="node6" class="node">
<title>Node6</title>
<g id="a_node6"><a xlink:href="_real_8h.html" target="_top" xlink:title="The Real specification defines a value object type for real values.">
<polygon fill="white" stroke="black" points="265.5,-224.5 265.5,-243.5 309.5,-243.5 309.5,-224.5 265.5,-224.5"/>
<text text-anchor="middle" x="287.5" y="-231.5" font-family="Helvetica,sans-Serif" font-size="10.00">Real.h</text>
</a>
</g>
</g>
<!-- Node3&#45;&gt;Node6 -->
<g id="edge5" class="edge">
<title>Node3&#45;&gt;Node6</title>
<path fill="none" stroke="midnightblue" d="M222.87,-280.32C234.66,-272.06 252.63,-259.45 266.64,-249.63"/>
<polygon fill="midnightblue" stroke="midnightblue" points="268.98,-252.26 275.16,-243.65 264.96,-246.53 268.98,-252.26"/>
</g>
<!-- Node7 -->
<g id="node7" class="node">
<title>Node7</title>
<g id="a_node7"><a xlink:title=" ">
<polygon fill="white" stroke="#bfbfbf" points="302.5,-56.5 302.5,-75.5 346.5,-75.5 346.5,-56.5 302.5,-56.5"/>
<text text-anchor="middle" x="324.5" y="-63.5" font-family="Helvetica,sans-Serif" font-size="10.00">cmath</text>
</a>
</g>
</g>
<!-- Node6&#45;&gt;Node7 -->
<g id="edge6" class="edge">
<title>Node6&#45;&gt;Node7</title>
<path fill="none" stroke="midnightblue" d="M289.49,-224.08C295.31,-197.95 312.42,-121.21 320.36,-85.58"/>
<polygon fill="midnightblue" stroke="midnightblue" points="323.83,-86.09 322.59,-75.57 317,-84.57 323.83,-86.09"/>
</g>
<!-- Node8 -->
<g id="node8" class="node">
<title>Node8</title>
<g id="a_node8"><a xlink:href="_integer_8h.html" target="_top" xlink:title="The Integer specification and body provides a value object type for ints.">
<polygon fill="white" stroke="black" points="223.5,-168.5 223.5,-187.5 277.5,-187.5 277.5,-168.5 223.5,-168.5"/>
<text text-anchor="middle" x="250.5" y="-175.5" font-family="Helvetica,sans-Serif" font-size="10.00">Integer.h</text>
</a>
</g>
</g>
<!-- Node6&#45;&gt;Node8 -->
<g id="edge7" class="edge">
<title>Node6&#45;&gt;Node8</title>
<path fill="none" stroke="midnightblue" d="M281.39,-224.08C276.22,-216.53 268.65,-205.49 262.31,-196.23"/>
<polygon fill="midnightblue" stroke="midnightblue" points="265.04,-194.02 256.5,-187.75 259.26,-197.98 265.04,-194.02"/>
</g>
<!-- Node8&#45;&gt;Node7 -->
<g id="edge8" class="edge">
<title>Node8&#45;&gt;Node7</title>
<path fill="none" stroke="midnightblue" d="M256.31,-168.37C268.52,-150.22 297.05,-107.8 313.07,-83.99"/>
<polygon fill="midnightblue" stroke="midnightblue" points="316.04,-85.84 318.72,-75.59 310.23,-81.94 316.04,-85.84"/>
</g>
<!-- Node9 -->
<g id="node9" class="node">
<title>Node9</title>
<g id="a_node9"><a xlink:title=" ">
<polygon fill="white" stroke="#bfbfbf" points="0,-0.5 0,-19.5 59,-19.5 59,-0.5 0,-0.5"/>
<text text-anchor="middle" x="29.5" y="-7.5" font-family="Helvetica,sans-Serif" font-size="10.00">stdexcept</text>
</a>
</g>
</g>
<!-- Node8&#45;&gt;Node9 -->
<g id="edge9" class="edge">
<title>Node8&#45;&gt;Node9</title>
<path fill="none" stroke="midnightblue" d="M223.2,-174.54C172.35,-168.31 64.07,-146.95 17.5,-76 8.28,-61.95 13.53,-42.7 19.72,-28.8"/>
<polygon fill="midnightblue" stroke="midnightblue" points="22.89,-30.29 24.2,-19.78 16.62,-27.18 22.89,-30.29"/>
</g>
<!-- Node10 -->
<g id="node10" class="node">
<title>Node10</title>
<g id="a_node10"><a xlink:href="_natural_8h.html" target="_top" xlink:title="The Natural specification and body provides a value object type for naturals (positive integers with ...">
<polygon fill="white" stroke="black" points="202.5,-112.5 202.5,-131.5 258.5,-131.5 258.5,-112.5 202.5,-112.5"/>
<text text-anchor="middle" x="230.5" y="-119.5" font-family="Helvetica,sans-Serif" font-size="10.00">Natural.h</text>
</a>
</g>
</g>
<!-- Node8&#45;&gt;Node10 -->
<g id="edge10" class="edge">
<title>Node8&#45;&gt;Node10</title>
<path fill="none" stroke="midnightblue" d="M247.2,-168.08C244.52,-160.85 240.65,-150.41 237.31,-141.4"/>
<polygon fill="midnightblue" stroke="midnightblue" points="240.5,-139.91 233.74,-131.75 233.93,-142.34 240.5,-139.91"/>
</g>
<!-- Node10&#45;&gt;Node7 -->
<g id="edge11" class="edge">
<title>Node10&#45;&gt;Node7</title>
<path fill="none" stroke="midnightblue" d="M245.6,-112.32C260.4,-103.82 283.19,-90.73 300.48,-80.8"/>
<polygon fill="midnightblue" stroke="midnightblue" points="302.51,-83.67 309.43,-75.65 299.02,-77.6 302.51,-83.67"/>
</g>
<!-- Node11 -->
<g id="node11" class="node">
<title>Node11</title>
<g id="a_node11"><a xlink:href="_assertion_8h.html" target="_top" xlink:title="The Assertion specification defines macros for pre&#45; and postconditions in functions or methods.">
<polygon fill="white" stroke="black" points="26.5,-56.5 26.5,-75.5 92.5,-75.5 92.5,-56.5 26.5,-56.5"/>
<text text-anchor="middle" x="59.5" y="-63.5" font-family="Helvetica,sans-Serif" font-size="10.00">Assertion.h</text>
</a>
</g>
</g>
<!-- Node10&#45;&gt;Node11 -->
<g id="edge12" class="edge">
<title>Node10&#45;&gt;Node11</title>
<path fill="none" stroke="midnightblue" d="M203.4,-112.44C174.51,-103.32 128.58,-88.81 96.39,-78.65"/>
<polygon fill="midnightblue" stroke="midnightblue" points="97.06,-75.19 86.47,-75.52 94.95,-81.87 97.06,-75.19"/>
</g>
<!-- Node13 -->
<g id="node13" class="node">
<title>Node13</title>
<g id="a_node13"><a xlink:title=" ">
<polygon fill="white" stroke="#bfbfbf" points="110.5,-56.5 110.5,-75.5 202.5,-75.5 202.5,-56.5 110.5,-56.5"/>
<text text-anchor="middle" x="156.5" y="-63.5" font-family="Helvetica,sans-Serif" font-size="10.00">GenericNumber.h</text>
</a>
</g>
</g>
<!-- Node10&#45;&gt;Node13 -->
<g id="edge15" class="edge">
<title>Node10&#45;&gt;Node13</title>
<path fill="none" stroke="midnightblue" d="M218.61,-112.32C207.35,-104.11 190.21,-91.6 176.79,-81.81"/>
<polygon fill="midnightblue" stroke="midnightblue" points="178.75,-78.9 168.61,-75.83 174.62,-84.56 178.75,-78.9"/>
</g>
<!-- Node14 -->
<g id="node14" class="node">
<title>Node14</title>
<g id="a_node14"><a xlink:href="_my_string_8h.html" target="_top" xlink:title="The String specification defines a standard string type.">
<polygon fill="white" stroke="black" points="220.5,-56.5 220.5,-75.5 284.5,-75.5 284.5,-56.5 220.5,-56.5"/>
<text text-anchor="middle" x="252.5" y="-63.5" font-family="Helvetica,sans-Serif" font-size="10.00">MyString.h</text>
</a>
</g>
</g>
<!-- Node10&#45;&gt;Node14 -->
<g id="edge16" class="edge">
<title>Node10&#45;&gt;Node14</title>
<path fill="none" stroke="midnightblue" d="M234.13,-112.08C237.11,-104.77 241.43,-94.18 245.12,-85.1"/>
<polygon fill="midnightblue" stroke="midnightblue" points="248.4,-86.33 248.93,-75.75 241.92,-83.69 248.4,-86.33"/>
</g>
<!-- Node11&#45;&gt;Node9 -->
<g id="edge13" class="edge">
<title>Node11&#45;&gt;Node9</title>
<path fill="none" stroke="midnightblue" d="M54.55,-56.08C50.4,-48.61 44.35,-37.72 39.23,-28.52"/>
<polygon fill="midnightblue" stroke="midnightblue" points="42.28,-26.79 34.36,-19.75 36.16,-30.19 42.28,-26.79"/>
</g>
<!-- Node12 -->
<g id="node12" class="node">
<title>Node12</title>
<g id="a_node12"><a xlink:title=" ">
<polygon fill="white" stroke="#bfbfbf" points="114,-0.5 114,-19.5 155,-19.5 155,-0.5 114,-0.5"/>
<text text-anchor="middle" x="134.5" y="-7.5" font-family="Helvetica,sans-Serif" font-size="10.00">string</text>
</a>
</g>
</g>
<!-- Node11&#45;&gt;Node12 -->
<g id="edge14" class="edge">
<title>Node11&#45;&gt;Node12</title>
<path fill="none" stroke="midnightblue" d="M71.55,-56.32C82.96,-48.11 100.33,-35.6 113.93,-25.81"/>
<polygon fill="midnightblue" stroke="midnightblue" points="116.16,-28.52 122.23,-19.83 112.07,-22.84 116.16,-28.52"/>
</g>
<!-- Node14&#45;&gt;Node12 -->
<g id="edge17" class="edge">
<title>Node14&#45;&gt;Node12</title>
<path fill="none" stroke="midnightblue" d="M233.8,-56.44C214.56,-47.64 184.35,-33.81 162.3,-23.72"/>
<polygon fill="midnightblue" stroke="midnightblue" points="163.66,-20.5 153.11,-19.52 160.75,-26.86 163.66,-20.5"/>
</g>
<!-- Node15 -->
<g id="node15" class="node">
<title>Node15</title>
<g id="a_node15"><a xlink:href="_global_macros_8h.html" target="_top" xlink:title="The GlobalMacros specification defines simple macros (e.g. for parameter modes).">
<polygon fill="white" stroke="black" points="210,-0.5 210,-19.5 295,-19.5 295,-0.5 210,-0.5"/>
<text text-anchor="middle" x="252.5" y="-7.5" font-family="Helvetica,sans-Serif" font-size="10.00">GlobalMacros.h</text>
</a>
</g>
</g>
<!-- Node14&#45;&gt;Node15 -->
<g id="edge18" class="edge">
<title>Node14&#45;&gt;Node15</title>
<path fill="none" stroke="midnightblue" d="M252.5,-56.08C252.5,-49.01 252.5,-38.86 252.5,-29.99"/>
<polygon fill="midnightblue" stroke="midnightblue" points="256,-29.75 252.5,-19.75 249,-29.75 256,-29.75"/>
</g>
</g>
</svg>
