<?xml version="1.0" encoding="UTF-8" standalone="no"?>
<!DOCTYPE svg PUBLIC "-//W3C//DTD SVG 1.1//EN"
 "http://www.w3.org/Graphics/SVG/1.1/DTD/svg11.dtd">
<!-- Generated by graphviz version 2.47.1 (20210417.1919)
 -->
<!-- Title: RealList.h Pages: 1 -->
<svg width="625pt" height="428pt"
 viewBox="0.00 0.00 625.00 428.00" xmlns="http://www.w3.org/2000/svg" xmlns:xlink="http://www.w3.org/1999/xlink">
<g id="graph0" class="graph" transform="scale(1 1) rotate(0) translate(4 424)">
<title>RealList.h</title>
<polygon fill="white" stroke="transparent" points="-4,4 -4,-424 621,-424 621,4 -4,4"/>
<!-- Node1 -->
<g id="node1" class="node">
<title>Node1</title>
<g id="a_node1"><a xlink:title="The RealList specification defines sequences of real values with zero&#45;based arbitrary indexed access ...">
<polygon fill="#bfbfbf" stroke="black" points="120.5,-399.5 120.5,-419.5 185.5,-419.5 185.5,-399.5 120.5,-399.5"/>
<text text-anchor="middle" x="153" y="-406.7" font-family="Helvetica,sans-Serif" font-size="11.00">RealList.h</text>
</a>
</g>
</g>
<!-- Node2 -->
<g id="node2" class="node">
<title>Node2</title>
<g id="a_node2"><a xlink:title=" ">
<polygon fill="white" stroke="#bfbfbf" points="0,-342.5 0,-362.5 78,-362.5 78,-342.5 0,-342.5"/>
<text text-anchor="middle" x="39" y="-349.7" font-family="Helvetica,sans-Serif" font-size="11.00">initializer_list</text>
</a>
</g>
</g>
<!-- Node1&#45;&gt;Node2 -->
<g id="edge1" class="edge">
<title>Node1&#45;&gt;Node2</title>
<path fill="none" stroke="midnightblue" d="M134.18,-399.42C115.86,-390.58 87.81,-377.05 66.9,-366.96"/>
<polygon fill="midnightblue" stroke="midnightblue" points="68.38,-363.79 57.85,-362.6 65.34,-370.09 68.38,-363.79"/>
</g>
<!-- Node3 -->
<g id="node3" class="node">
<title>Node3</title>
<g id="a_node3"><a xlink:href="_generic_sequence_8h.html" target="_top" xlink:title="The GenericSequence specification and body defines a generic sequence type of values with zero&#45;based ...">
<polygon fill="white" stroke="black" points="96.5,-342.5 96.5,-362.5 209.5,-362.5 209.5,-342.5 96.5,-342.5"/>
<text text-anchor="middle" x="153" y="-349.7" font-family="Helvetica,sans-Serif" font-size="11.00">GenericSequence.h</text>
</a>
</g>
</g>
<!-- Node1&#45;&gt;Node3 -->
<g id="edge2" class="edge">
<title>Node1&#45;&gt;Node3</title>
<path fill="none" stroke="midnightblue" d="M153,-399.42C153,-392.22 153,-381.9 153,-372.86"/>
<polygon fill="midnightblue" stroke="midnightblue" points="156.5,-372.78 153,-362.78 149.5,-372.78 156.5,-372.78"/>
</g>
<!-- Node15 -->
<g id="node15" class="node">
<title>Node15</title>
<g id="a_node15"><a xlink:href="_real_8h.html" target="_top" xlink:title="The Real specification defines a value object type for real values.">
<polygon fill="white" stroke="black" points="343,-342.5 343,-362.5 391,-362.5 391,-342.5 343,-342.5"/>
<text text-anchor="middle" x="367" y="-349.7" font-family="Helvetica,sans-Serif" font-size="11.00">Real.h</text>
</a>
</g>
</g>
<!-- Node1&#45;&gt;Node15 -->
<g id="edge26" class="edge">
<title>Node1&#45;&gt;Node15</title>
<path fill="none" stroke="midnightblue" d="M185.5,-400.15C225.3,-389.92 292.4,-372.67 332.91,-362.26"/>
<polygon fill="midnightblue" stroke="midnightblue" points="334.03,-365.59 342.84,-359.71 332.29,-358.81 334.03,-365.59"/>
</g>
<!-- Node4 -->
<g id="node4" class="node">
<title>Node4</title>
<g id="a_node4"><a xlink:title=" ">
<polygon fill="white" stroke="#bfbfbf" points="1.5,-285.5 1.5,-305.5 48.5,-305.5 48.5,-285.5 1.5,-285.5"/>
<text text-anchor="middle" x="25" y="-292.7" font-family="Helvetica,sans-Serif" font-size="11.00">vector</text>
</a>
</g>
</g>
<!-- Node3&#45;&gt;Node4 -->
<g id="edge3" class="edge">
<title>Node3&#45;&gt;Node4</title>
<path fill="none" stroke="midnightblue" d="M131.86,-342.42C111.02,-333.46 78.95,-319.68 55.38,-309.55"/>
<polygon fill="midnightblue" stroke="midnightblue" points="56.74,-306.33 46.17,-305.6 53.97,-312.76 56.74,-306.33"/>
</g>
<!-- Node5 -->
<g id="node5" class="node">
<title>Node5</title>
<g id="a_node5"><a xlink:href="_boolean_8h.html" target="_top" xlink:title="The Boolean specification and body provides a value object type for boolean values.">
<polygon fill="white" stroke="black" points="295.5,-114.5 295.5,-134.5 360.5,-134.5 360.5,-114.5 295.5,-114.5"/>
<text text-anchor="middle" x="328" y="-121.7" font-family="Helvetica,sans-Serif" font-size="11.00">Boolean.h</text>
</a>
</g>
</g>
<!-- Node3&#45;&gt;Node5 -->
<g id="edge4" class="edge">
<title>Node3&#45;&gt;Node5</title>
<path fill="none" stroke="midnightblue" d="M159.92,-342.46C169.72,-329.66 188.21,-305.53 204,-285 223.52,-259.64 228.38,-253.28 248,-228 271.39,-197.87 298.76,-162.85 314.66,-142.53"/>
<polygon fill="midnightblue" stroke="midnightblue" points="317.51,-144.57 320.92,-134.54 312,-140.25 317.51,-144.57"/>
</g>
<!-- Node6 -->
<g id="node6" class="node">
<title>Node6</title>
<g id="a_node6"><a xlink:href="_global_macros_8h.html" target="_top" xlink:title="The GlobalMacros specification defines simple macros (e.g. for parameter modes).">
<polygon fill="white" stroke="black" points="343,-0.5 343,-20.5 435,-20.5 435,-0.5 343,-0.5"/>
<text text-anchor="middle" x="389" y="-7.7" font-family="Helvetica,sans-Serif" font-size="11.00">GlobalMacros.h</text>
</a>
</g>
</g>
<!-- Node3&#45;&gt;Node6 -->
<g id="edge9" class="edge">
<title>Node3&#45;&gt;Node6</title>
<path fill="none" stroke="midnightblue" d="M147.56,-342.27C137.05,-323.57 115,-279.54 115,-239.5 115,-239.5 115,-239.5 115,-123.5 115,-73.77 159.99,-78.16 205,-57 245.56,-37.94 295.04,-26.28 332.47,-19.54"/>
<polygon fill="midnightblue" stroke="midnightblue" points="333.44,-22.93 342.69,-17.77 332.24,-16.03 333.44,-22.93"/>
</g>
<!-- Node7 -->
<g id="node7" class="node">
<title>Node7</title>
<g id="a_node7"><a xlink:href="_my_string_8h.html" target="_top" xlink:title="The String specification defines a standard string type.">
<polygon fill="white" stroke="black" points="214,-57.5 214,-77.5 282,-77.5 282,-57.5 214,-57.5"/>
<text text-anchor="middle" x="248" y="-64.7" font-family="Helvetica,sans-Serif" font-size="11.00">MyString.h</text>
</a>
</g>
</g>
<!-- Node3&#45;&gt;Node7 -->
<g id="edge25" class="edge">
<title>Node3&#45;&gt;Node7</title>
<path fill="none" stroke="midnightblue" d="M151.3,-342.44C145.56,-309.08 129.72,-190.98 177,-114 185.59,-100.01 200.28,-89.55 214.07,-82.21"/>
<polygon fill="midnightblue" stroke="midnightblue" points="215.97,-85.17 223.39,-77.62 212.87,-78.89 215.97,-85.17"/>
</g>
<!-- Node9 -->
<g id="node9" class="node">
<title>Node9</title>
<g id="a_node9"><a xlink:href="_natural_8h.html" target="_top" xlink:title="The Natural specification and body provides a value object type for naturals (positive integers with ...">
<polygon fill="white" stroke="black" points="257,-228.5 257,-248.5 317,-248.5 317,-228.5 257,-228.5"/>
<text text-anchor="middle" x="287" y="-235.7" font-family="Helvetica,sans-Serif" font-size="11.00">Natural.h</text>
</a>
</g>
</g>
<!-- Node3&#45;&gt;Node9 -->
<g id="edge10" class="edge">
<title>Node3&#45;&gt;Node9</title>
<path fill="none" stroke="midnightblue" d="M163.97,-342.33C186.74,-323.3 239.4,-279.29 267.88,-255.48"/>
<polygon fill="midnightblue" stroke="midnightblue" points="270.45,-257.89 275.88,-248.79 265.97,-252.52 270.45,-257.89"/>
</g>
<!-- Node13 -->
<g id="node13" class="node">
<title>Node13</title>
<g id="a_node13"><a xlink:href="_integer_8h.html" target="_top" xlink:title="The Integer specification and body provides a value object type for ints.">
<polygon fill="white" stroke="black" points="337.5,-285.5 337.5,-305.5 396.5,-305.5 396.5,-285.5 337.5,-285.5"/>
<text text-anchor="middle" x="367" y="-292.7" font-family="Helvetica,sans-Serif" font-size="11.00">Integer.h</text>
</a>
</g>
</g>
<!-- Node3&#45;&gt;Node13 -->
<g id="edge18" class="edge">
<title>Node3&#45;&gt;Node13</title>
<path fill="none" stroke="midnightblue" d="M188.34,-342.42C226.67,-332.57 287.71,-316.88 327.57,-306.63"/>
<polygon fill="midnightblue" stroke="midnightblue" points="328.66,-309.97 337.47,-304.09 326.92,-303.19 328.66,-309.97"/>
</g>
<!-- Node5&#45;&gt;Node6 -->
<g id="edge5" class="edge">
<title>Node5&#45;&gt;Node6</title>
<path fill="none" stroke="midnightblue" d="M332.99,-114.33C343.05,-95.88 365.9,-53.92 379.09,-29.69"/>
<polygon fill="midnightblue" stroke="midnightblue" points="382.23,-31.25 383.94,-20.79 376.08,-27.9 382.23,-31.25"/>
</g>
<!-- Node5&#45;&gt;Node7 -->
<g id="edge6" class="edge">
<title>Node5&#45;&gt;Node7</title>
<path fill="none" stroke="midnightblue" d="M314.79,-114.42C302.51,-105.98 284.01,-93.26 269.59,-83.34"/>
<polygon fill="midnightblue" stroke="midnightblue" points="271.45,-80.38 261.23,-77.6 267.49,-86.15 271.45,-80.38"/>
</g>
<!-- Node7&#45;&gt;Node6 -->
<g id="edge8" class="edge">
<title>Node7&#45;&gt;Node6</title>
<path fill="none" stroke="midnightblue" d="M271.28,-57.42C294.45,-48.38 330.2,-34.44 356.23,-24.28"/>
<polygon fill="midnightblue" stroke="midnightblue" points="357.64,-27.49 365.68,-20.6 355.09,-20.97 357.64,-27.49"/>
</g>
<!-- Node8 -->
<g id="node8" class="node">
<title>Node8</title>
<g id="a_node8"><a xlink:title=" ">
<polygon fill="white" stroke="#bfbfbf" points="226,-0.5 226,-20.5 270,-20.5 270,-0.5 226,-0.5"/>
<text text-anchor="middle" x="248" y="-7.7" font-family="Helvetica,sans-Serif" font-size="11.00">string</text>
</a>
</g>
</g>
<!-- Node7&#45;&gt;Node8 -->
<g id="edge7" class="edge">
<title>Node7&#45;&gt;Node8</title>
<path fill="none" stroke="midnightblue" d="M248,-57.42C248,-50.22 248,-39.9 248,-30.86"/>
<polygon fill="midnightblue" stroke="midnightblue" points="251.5,-30.78 248,-20.78 244.5,-30.78 251.5,-30.78"/>
</g>
<!-- Node9&#45;&gt;Node6 -->
<g id="edge12" class="edge">
<title>Node9&#45;&gt;Node6</title>
<path fill="none" stroke="midnightblue" d="M297.48,-228.24C315.59,-211.58 352.49,-174.57 370,-135 385.3,-100.42 388.58,-55.68 389.11,-30.64"/>
<polygon fill="midnightblue" stroke="midnightblue" points="392.61,-30.66 389.19,-20.63 385.61,-30.6 392.61,-30.66"/>
</g>
<!-- Node9&#45;&gt;Node7 -->
<g id="edge17" class="edge">
<title>Node9&#45;&gt;Node7</title>
<path fill="none" stroke="midnightblue" d="M284.9,-228.41C278.77,-201.82 260.75,-123.74 252.37,-87.45"/>
<polygon fill="midnightblue" stroke="midnightblue" points="255.77,-86.59 250.11,-77.63 248.95,-88.16 255.77,-86.59"/>
</g>
<!-- Node10 -->
<g id="node10" class="node">
<title>Node10</title>
<g id="a_node10"><a xlink:title=" ">
<polygon fill="white" stroke="#bfbfbf" points="371.5,-171.5 371.5,-191.5 418.5,-191.5 418.5,-171.5 371.5,-171.5"/>
<text text-anchor="middle" x="395" y="-178.7" font-family="Helvetica,sans-Serif" font-size="11.00">cmath</text>
</a>
</g>
</g>
<!-- Node9&#45;&gt;Node10 -->
<g id="edge11" class="edge">
<title>Node9&#45;&gt;Node10</title>
<path fill="none" stroke="midnightblue" d="M304.83,-228.42C322.03,-219.66 348.28,-206.29 368.03,-196.23"/>
<polygon fill="midnightblue" stroke="midnightblue" points="369.82,-199.25 377.14,-191.6 366.64,-193.01 369.82,-199.25"/>
</g>
<!-- Node11 -->
<g id="node11" class="node">
<title>Node11</title>
<g id="a_node11"><a xlink:href="_generic_number_8h.html" target="_top" xlink:title="The GenericNumber specification and body defines a template for wrapper objects for elementary numeri...">
<polygon fill="white" stroke="black" points="436.5,-171.5 436.5,-191.5 539.5,-191.5 539.5,-171.5 436.5,-171.5"/>
<text text-anchor="middle" x="488" y="-178.7" font-family="Helvetica,sans-Serif" font-size="11.00">GenericNumber.h</text>
</a>
</g>
</g>
<!-- Node9&#45;&gt;Node11 -->
<g id="edge13" class="edge">
<title>Node9&#45;&gt;Node11</title>
<path fill="none" stroke="midnightblue" d="M317.09,-229.27C351.07,-219.97 406.63,-204.76 445.14,-194.23"/>
<polygon fill="midnightblue" stroke="midnightblue" points="446.3,-197.54 455.03,-191.52 444.46,-190.79 446.3,-197.54"/>
</g>
<!-- Node11&#45;&gt;Node5 -->
<g id="edge16" class="edge">
<title>Node11&#45;&gt;Node5</title>
<path fill="none" stroke="midnightblue" d="M461.58,-171.42C434.86,-162.23 393.4,-147.98 363.76,-137.79"/>
<polygon fill="midnightblue" stroke="midnightblue" points="364.79,-134.45 354.19,-134.5 362.51,-141.06 364.79,-134.45"/>
</g>
<!-- Node11&#45;&gt;Node6 -->
<g id="edge15" class="edge">
<title>Node11&#45;&gt;Node6</title>
<path fill="none" stroke="midnightblue" d="M486.56,-171.49C484.21,-158.31 478.8,-133.26 469,-114 451.9,-80.37 423.03,-46.97 405.05,-27.83"/>
<polygon fill="midnightblue" stroke="midnightblue" points="407.52,-25.34 398.07,-20.54 402.46,-30.18 407.52,-25.34"/>
</g>
<!-- Node12 -->
<g id="node12" class="node">
<title>Node12</title>
<g id="a_node12"><a xlink:title=" ">
<polygon fill="white" stroke="#bfbfbf" points="418,-114.5 418,-134.5 460,-134.5 460,-114.5 418,-114.5"/>
<text text-anchor="middle" x="439" y="-121.7" font-family="Helvetica,sans-Serif" font-size="11.00">limits</text>
</a>
</g>
</g>
<!-- Node11&#45;&gt;Node12 -->
<g id="edge14" class="edge">
<title>Node11&#45;&gt;Node12</title>
<path fill="none" stroke="midnightblue" d="M479.91,-171.42C472.93,-163.58 462.66,-152.06 454.16,-142.51"/>
<polygon fill="midnightblue" stroke="midnightblue" points="456.53,-139.92 447.27,-134.78 451.31,-144.57 456.53,-139.92"/>
</g>
<!-- Node13&#45;&gt;Node6 -->
<g id="edge21" class="edge">
<title>Node13&#45;&gt;Node6</title>
<path fill="none" stroke="midnightblue" d="M396.53,-287.76C439.04,-276.29 515.97,-248.51 549,-192 590.35,-121.26 475,-53.2 418.35,-25.06"/>
<polygon fill="midnightblue" stroke="midnightblue" points="419.67,-21.81 409.15,-20.58 416.61,-28.1 419.67,-21.81"/>
</g>
<!-- Node13&#45;&gt;Node7 -->
<g id="edge24" class="edge">
<title>Node13&#45;&gt;Node7</title>
<path fill="none" stroke="midnightblue" d="M337.28,-292.33C309.01,-288.51 267.94,-277.97 248,-249 213.87,-199.41 230.97,-122.59 241.62,-87.34"/>
<polygon fill="midnightblue" stroke="midnightblue" points="244.96,-88.4 244.66,-77.81 238.29,-86.28 244.96,-88.4"/>
</g>
<!-- Node13&#45;&gt;Node9 -->
<g id="edge23" class="edge">
<title>Node13&#45;&gt;Node9</title>
<path fill="none" stroke="midnightblue" d="M353.79,-285.42C341.51,-276.98 323.01,-264.26 308.59,-254.34"/>
<polygon fill="midnightblue" stroke="midnightblue" points="310.45,-251.38 300.23,-248.6 306.49,-257.15 310.45,-251.38"/>
</g>
<!-- Node13&#45;&gt;Node10 -->
<g id="edge19" class="edge">
<title>Node13&#45;&gt;Node10</title>
<path fill="none" stroke="midnightblue" d="M379.33,-285.22C389.19,-276.95 402.28,-263.89 408,-249 413.98,-233.42 409.34,-214.69 404.02,-201.08"/>
<polygon fill="midnightblue" stroke="midnightblue" points="407.18,-199.58 399.98,-191.81 400.77,-202.38 407.18,-199.58"/>
</g>
<!-- Node13&#45;&gt;Node11 -->
<g id="edge22" class="edge">
<title>Node13&#45;&gt;Node11</title>
<path fill="none" stroke="midnightblue" d="M378.91,-285.47C390.47,-276.54 408.38,-262.34 423,-249 440.75,-232.81 459.82,-212.97 472.69,-199.2"/>
<polygon fill="midnightblue" stroke="midnightblue" points="475.26,-201.58 479.49,-191.86 470.12,-196.82 475.26,-201.58"/>
</g>
<!-- Node14 -->
<g id="node14" class="node">
<title>Node14</title>
<g id="a_node14"><a xlink:title=" ">
<polygon fill="white" stroke="#bfbfbf" points="335,-228.5 335,-248.5 399,-248.5 399,-228.5 335,-228.5"/>
<text text-anchor="middle" x="367" y="-235.7" font-family="Helvetica,sans-Serif" font-size="11.00">stdexcept</text>
</a>
</g>
</g>
<!-- Node13&#45;&gt;Node14 -->
<g id="edge20" class="edge">
<title>Node13&#45;&gt;Node14</title>
<path fill="none" stroke="midnightblue" d="M367,-285.42C367,-278.22 367,-267.9 367,-258.86"/>
<polygon fill="midnightblue" stroke="midnightblue" points="370.5,-258.78 367,-248.78 363.5,-258.78 370.5,-258.78"/>
</g>
<!-- Node15&#45;&gt;Node6 -->
<g id="edge28" class="edge">
<title>Node15&#45;&gt;Node6</title>
<path fill="none" stroke="midnightblue" d="M391.43,-351.57C454.33,-350.35 617,-337.71 617,-239.5 617,-239.5 617,-239.5 617,-123.5 617,-47.15 512.74,-22.85 445.23,-15.11"/>
<polygon fill="midnightblue" stroke="midnightblue" points="445.45,-11.61 435.14,-14.04 444.72,-18.58 445.45,-11.61"/>
</g>
<!-- Node15&#45;&gt;Node7 -->
<g id="edge32" class="edge">
<title>Node15&#45;&gt;Node7</title>
<path fill="none" stroke="midnightblue" d="M347.46,-342.38C317.71,-327.41 261.61,-294.65 234,-249 202.91,-197.59 212.57,-172.32 227,-114 229.35,-104.51 233.68,-94.59 237.8,-86.44"/>
<polygon fill="midnightblue" stroke="midnightblue" points="240.94,-88 242.57,-77.53 234.77,-84.69 240.94,-88"/>
</g>
<!-- Node15&#45;&gt;Node9 -->
<g id="edge30" class="edge">
<title>Node15&#45;&gt;Node9</title>
<path fill="none" stroke="midnightblue" d="M358.77,-342.38C350.81,-333.39 338.57,-319.14 329,-306 317.48,-290.19 305.71,-271.25 297.57,-257.64"/>
<polygon fill="midnightblue" stroke="midnightblue" points="300.44,-255.62 292.34,-248.79 294.41,-259.18 300.44,-255.62"/>
</g>
<!-- Node15&#45;&gt;Node10 -->
<g id="edge27" class="edge">
<title>Node15&#45;&gt;Node10</title>
<path fill="none" stroke="midnightblue" d="M376.99,-342.29C385.77,-333.67 398.33,-320.07 406,-306 418.66,-282.79 419.18,-275.16 423,-249 424.35,-239.76 425.54,-236.98 423,-228 420.14,-217.88 414.32,-207.81 408.73,-199.72"/>
<polygon fill="midnightblue" stroke="midnightblue" points="411.43,-197.49 402.68,-191.53 405.81,-201.65 411.43,-197.49"/>
</g>
<!-- Node15&#45;&gt;Node11 -->
<g id="edge29" class="edge">
<title>Node15&#45;&gt;Node11</title>
<path fill="none" stroke="midnightblue" d="M381.53,-342.44C393.98,-334.12 411.78,-320.87 424,-306 451.09,-273.02 471.28,-226.71 481.19,-201.2"/>
<polygon fill="midnightblue" stroke="midnightblue" points="484.54,-202.23 484.79,-191.64 477.99,-199.76 484.54,-202.23"/>
</g>
<!-- Node15&#45;&gt;Node13 -->
<g id="edge31" class="edge">
<title>Node15&#45;&gt;Node13</title>
<path fill="none" stroke="midnightblue" d="M367,-342.42C367,-335.22 367,-324.9 367,-315.86"/>
<polygon fill="midnightblue" stroke="midnightblue" points="370.5,-315.78 367,-305.78 363.5,-315.78 370.5,-315.78"/>
</g>
</g>
</svg>
