<?xml version="1.0" encoding="UTF-8" standalone="no"?>
<!DOCTYPE svg PUBLIC "-//W3C//DTD SVG 1.1//EN"
 "http://www.w3.org/Graphics/SVG/1.1/DTD/svg11.dtd">
<!-- Generated by graphviz version 2.47.1 (20210417.1919)
 -->
<!-- Title: Real.h Pages: 1 -->
<svg width="1979pt" height="420pt"
 viewBox="0.00 0.00 1978.98 420.00" xmlns="http://www.w3.org/2000/svg" xmlns:xlink="http://www.w3.org/1999/xlink">
<g id="graph0" class="graph" transform="scale(1 1) rotate(0) translate(4 416)">
<title>Real.h</title>
<polygon fill="white" stroke="transparent" points="-4,4 -4,-416 1974.98,-416 1974.98,4 -4,4"/>
<!-- Node1 -->
<g id="node1" class="node">
<title>Node1</title>
<g id="a_node1"><a xlink:title="The Real specification defines a value object type for real values.">
<polygon fill="#bfbfbf" stroke="black" points="1512.5,-392.5 1512.5,-411.5 1556.5,-411.5 1556.5,-392.5 1512.5,-392.5"/>
<text text-anchor="middle" x="1534.5" y="-399.5" font-family="Helvetica,sans-Serif" font-size="10.00">Real.h</text>
</a>
</g>
</g>
<!-- Node2 -->
<g id="node2" class="node">
<title>Node2</title>
<g id="a_node2"><a xlink:href="_audio_sample_8h.html" target="_top" xlink:title="The AudioSample specification and body provides the definition of the audio sample (a real value).">
<polygon fill="white" stroke="black" points="1033,-336.5 1033,-355.5 1116,-355.5 1116,-336.5 1033,-336.5"/>
<text text-anchor="middle" x="1074.5" y="-343.5" font-family="Helvetica,sans-Serif" font-size="10.00">AudioSample.h</text>
</a>
</g>
</g>
<!-- Node1&#45;&gt;Node2 -->
<g id="edge1" class="edge">
<title>Node1&#45;&gt;Node2</title>
<path fill="none" stroke="midnightblue" d="M1502.16,-397.2C1420.63,-387.63 1206.77,-362.53 1116.1,-351.88"/>
<polygon fill="midnightblue" stroke="midnightblue" points="1501.97,-400.71 1512.31,-398.4 1502.79,-393.75 1501.97,-400.71"/>
</g>
<!-- Node18 -->
<g id="node18" class="node">
<title>Node18</title>
<g id="a_node18"><a xlink:href="_midi_event_converter_8h.html" target="_top" xlink:title="The MidiEventConverter specification defines the handling of MIDI events by feeding them to an underl...">
<polygon fill="white" stroke="black" points="0,-168.5 0,-187.5 107,-187.5 107,-168.5 0,-168.5"/>
<text text-anchor="middle" x="53.5" y="-175.5" font-family="Helvetica,sans-Serif" font-size="10.00">MidiEventConverter.h</text>
</a>
</g>
</g>
<!-- Node1&#45;&gt;Node18 -->
<g id="edge51" class="edge">
<title>Node1&#45;&gt;Node18</title>
<path fill="none" stroke="midnightblue" d="M1502.22,-399.66C1356.21,-393.05 743.51,-359.44 256.5,-244 189.89,-228.21 113.54,-201.3 76.31,-187.58"/>
<polygon fill="midnightblue" stroke="midnightblue" points="1502.15,-403.16 1512.3,-400.11 1502.46,-396.17 1502.15,-403.16"/>
</g>
<!-- Node19 -->
<g id="node19" class="node">
<title>Node19</title>
<g id="a_node19"><a xlink:href="_real_list_8h.html" target="_top" xlink:title="The RealList specification defines lists of real values with zero&#45;based arbitrary indexed access to p...">
<polygon fill="white" stroke="black" points="1695.5,-336.5 1695.5,-355.5 1755.5,-355.5 1755.5,-336.5 1695.5,-336.5"/>
<text text-anchor="middle" x="1725.5" y="-343.5" font-family="Helvetica,sans-Serif" font-size="10.00">RealList.h</text>
</a>
</g>
</g>
<!-- Node1&#45;&gt;Node19 -->
<g id="edge22" class="edge">
<title>Node1&#45;&gt;Node19</title>
<path fill="none" stroke="midnightblue" d="M1566.73,-391.89C1602.6,-381.75 1660.13,-365.48 1695.2,-355.57"/>
<polygon fill="midnightblue" stroke="midnightblue" points="1565.45,-388.61 1556.78,-394.7 1567.36,-395.35 1565.45,-388.61"/>
</g>
<!-- Node21 -->
<g id="node21" class="node">
<title>Node21</title>
<g id="a_node21"><a xlink:href="_percentage_8h.html" target="_top" xlink:title="The Percentage specification and body provides a simple percentage type.">
<polygon fill="white" stroke="black" points="1497.5,-336.5 1497.5,-355.5 1571.5,-355.5 1571.5,-336.5 1497.5,-336.5"/>
<text text-anchor="middle" x="1534.5" y="-343.5" font-family="Helvetica,sans-Serif" font-size="10.00">Percentage.h</text>
</a>
</g>
</g>
<!-- Node1&#45;&gt;Node21 -->
<g id="edge25" class="edge">
<title>Node1&#45;&gt;Node21</title>
<path fill="none" stroke="midnightblue" d="M1534.5,-381.8C1534.5,-372.91 1534.5,-362.78 1534.5,-355.75"/>
<polygon fill="midnightblue" stroke="midnightblue" points="1531,-382.08 1534.5,-392.08 1538,-382.08 1531,-382.08"/>
</g>
<!-- Node38 -->
<g id="node38" class="node">
<title>Node38</title>
<g id="a_node38"><a xlink:href="_radians_8h.html" target="_top" xlink:title="The Radians specification and body provides a simple radians type.">
<polygon fill="white" stroke="black" points="1773.5,-336.5 1773.5,-355.5 1833.5,-355.5 1833.5,-336.5 1773.5,-336.5"/>
<text text-anchor="middle" x="1803.5" y="-343.5" font-family="Helvetica,sans-Serif" font-size="10.00">Radians.h</text>
</a>
</g>
</g>
<!-- Node1&#45;&gt;Node38 -->
<g id="edge50" class="edge">
<title>Node1&#45;&gt;Node38</title>
<path fill="none" stroke="midnightblue" d="M1566.7,-395.05C1611.24,-386.75 1694.14,-371 1764.5,-356 1767.35,-355.39 1770.32,-354.74 1773.29,-354.08"/>
<polygon fill="midnightblue" stroke="midnightblue" points="1565.94,-391.63 1556.75,-396.9 1567.22,-398.52 1565.94,-391.63"/>
</g>
<!-- Node3 -->
<g id="node3" class="node">
<title>Node3</title>
<g id="a_node3"><a xlink:href="_audio_sample_list_8h.html" target="_top" xlink:title="The AudioSampleList specification defines lists of audio samples with zero&#45;based arbitrary indexed ac...">
<polygon fill="white" stroke="black" points="622.5,-280.5 622.5,-299.5 720.5,-299.5 720.5,-280.5 622.5,-280.5"/>
<text text-anchor="middle" x="671.5" y="-287.5" font-family="Helvetica,sans-Serif" font-size="10.00">AudioSampleList.h</text>
</a>
</g>
</g>
<!-- Node2&#45;&gt;Node3 -->
<g id="edge2" class="edge">
<title>Node2&#45;&gt;Node3</title>
<path fill="none" stroke="midnightblue" d="M1022.79,-338.07C944.61,-327.6 797.34,-307.86 720.68,-297.59"/>
<polygon fill="midnightblue" stroke="midnightblue" points="1022.51,-341.57 1032.89,-339.42 1023.44,-334.63 1022.51,-341.57"/>
</g>
<!-- Node4 -->
<g id="node4" class="node">
<title>Node4</title>
<g id="a_node4"><a xlink:href="_audio_sample_fifo_queue_8h.html" target="_top" xlink:title="The AudioSampleFifoQueue specification defines a fifo queue for audio samples with popping off access...">
<polygon fill="white" stroke="black" points="857,-112.5 857,-131.5 984,-131.5 984,-112.5 857,-112.5"/>
<text text-anchor="middle" x="920.5" y="-119.5" font-family="Helvetica,sans-Serif" font-size="10.00">AudioSampleFifoQueue.h</text>
</a>
</g>
</g>
<!-- Node3&#45;&gt;Node4 -->
<g id="edge3" class="edge">
<title>Node3&#45;&gt;Node4</title>
<path fill="none" stroke="midnightblue" d="M659.75,-271.34C652.54,-258.3 645.56,-240.08 650.5,-224 659.33,-195.25 663.39,-184.56 688.5,-168 703.08,-158.38 800.87,-141.66 864.75,-131.53"/>
<polygon fill="midnightblue" stroke="midnightblue" points="656.94,-273.46 665.11,-280.19 662.92,-269.83 656.94,-273.46"/>
</g>
<!-- Node9 -->
<g id="node9" class="node">
<title>Node9</title>
<g id="a_node9"><a xlink:href="_audio_sample_list_8cpp.html" target="_top" xlink:title="The AudioSampleList body implements a simple list of audio samples (this is the formal CPP file used ...">
<polygon fill="white" stroke="black" points="659,-224.5 659,-243.5 768,-243.5 768,-224.5 659,-224.5"/>
<text text-anchor="middle" x="713.5" y="-231.5" font-family="Helvetica,sans-Serif" font-size="10.00">AudioSampleList.cpp</text>
</a>
</g>
</g>
<!-- Node3&#45;&gt;Node9 -->
<g id="edge8" class="edge">
<title>Node3&#45;&gt;Node9</title>
<path fill="none" stroke="midnightblue" d="M684.61,-272.14C691.93,-262.74 700.74,-251.4 706.69,-243.75"/>
<polygon fill="midnightblue" stroke="midnightblue" points="681.81,-270.04 678.44,-280.08 687.34,-274.34 681.81,-270.04"/>
</g>
<!-- Node10 -->
<g id="node10" class="node">
<title>Node10</title>
<g id="a_node10"><a xlink:href="_audio_sample_list_vector_8h.html" target="_top" xlink:title="The AudioSampleListVector specification defines the communication buffer structure for the block proc...">
<polygon fill="white" stroke="black" points="266,-224.5 266,-243.5 393,-243.5 393,-224.5 266,-224.5"/>
<text text-anchor="middle" x="329.5" y="-231.5" font-family="Helvetica,sans-Serif" font-size="10.00">AudioSampleListVector.h</text>
</a>
</g>
</g>
<!-- Node3&#45;&gt;Node10 -->
<g id="edge9" class="edge">
<title>Node3&#45;&gt;Node10</title>
<path fill="none" stroke="midnightblue" d="M612.5,-279.68C548.09,-269.51 445.84,-253.37 383.49,-243.52"/>
<polygon fill="midnightblue" stroke="midnightblue" points="612.08,-283.16 622.5,-281.26 613.17,-276.25 612.08,-283.16"/>
</g>
<!-- Node5 -->
<g id="node5" class="node">
<title>Node5</title>
<g id="a_node5"><a xlink:href="_audio_sample_fifo_queue_8cpp.html" target="_top" xlink:title="The AudioSampleFifoQueue body implements a fifo queue for audio samples with popping off access to th...">
<polygon fill="white" stroke="black" points="852,-56.5 852,-75.5 989,-75.5 989,-56.5 852,-56.5"/>
<text text-anchor="middle" x="920.5" y="-63.5" font-family="Helvetica,sans-Serif" font-size="10.00">AudioSampleFifoQueue.cpp</text>
</a>
</g>
</g>
<!-- Node4&#45;&gt;Node5 -->
<g id="edge4" class="edge">
<title>Node4&#45;&gt;Node5</title>
<path fill="none" stroke="midnightblue" d="M920.5,-101.8C920.5,-92.91 920.5,-82.78 920.5,-75.75"/>
<polygon fill="midnightblue" stroke="midnightblue" points="917,-102.08 920.5,-112.08 924,-102.08 917,-102.08"/>
</g>
<!-- Node6 -->
<g id="node6" class="node">
<title>Node6</title>
<g id="a_node6"><a xlink:href="_audio_sample_fifo_queue_vector_8h.html" target="_top" xlink:title="The AudioSampleFifoQueueVector specification defines a list of fifo queues for audio samples.">
<polygon fill="white" stroke="black" points="518,-56.5 518,-75.5 673,-75.5 673,-56.5 518,-56.5"/>
<text text-anchor="middle" x="595.5" y="-63.5" font-family="Helvetica,sans-Serif" font-size="10.00">AudioSampleFifoQueueVector.h</text>
</a>
</g>
</g>
<!-- Node4&#45;&gt;Node6 -->
<g id="edge5" class="edge">
<title>Node4&#45;&gt;Node6</title>
<path fill="none" stroke="midnightblue" d="M859.06,-110.79C797.64,-100.59 704.3,-85.08 646.76,-75.52"/>
<polygon fill="midnightblue" stroke="midnightblue" points="858.56,-114.26 869,-112.44 859.71,-107.35 858.56,-114.26"/>
</g>
<!-- Node7 -->
<g id="node7" class="node">
<title>Node7</title>
<g id="a_node7"><a xlink:href="_audio_sample_fifo_queue_vector_8cpp.html" target="_top" xlink:title="The AudioSampleFifoQueueVector body implements a list of fifo queues for audio samples (this is the f...">
<polygon fill="white" stroke="black" points="608.5,-0.5 608.5,-19.5 774.5,-19.5 774.5,-0.5 608.5,-0.5"/>
<text text-anchor="middle" x="691.5" y="-7.5" font-family="Helvetica,sans-Serif" font-size="10.00">AudioSampleFifoQueueVector.cpp</text>
</a>
</g>
</g>
<!-- Node6&#45;&gt;Node7 -->
<g id="edge6" class="edge">
<title>Node6&#45;&gt;Node7</title>
<path fill="none" stroke="midnightblue" d="M620.07,-51.18C637.74,-41.24 661.01,-28.15 676.11,-19.65"/>
<polygon fill="midnightblue" stroke="midnightblue" points="617.92,-48.37 610.92,-56.32 621.36,-54.47 617.92,-48.37"/>
</g>
<!-- Node8 -->
<g id="node8" class="node">
<title>Node8</title>
<g id="a_node8"><a xlink:href="_fluid_synth_plugin___event_processor_8cpp.html" target="_top" xlink:title="The FluidSynthPlugin_Processor module implements the handling of MIDI events from the DAW via JUCE ha...">
<polygon fill="white" stroke="black" points="408.5,-0.5 408.5,-19.5 590.5,-19.5 590.5,-0.5 408.5,-0.5"/>
<text text-anchor="middle" x="499.5" y="-7.5" font-family="Helvetica,sans-Serif" font-size="10.00">FluidSynthPlugin_EventProcessor.cpp</text>
</a>
</g>
</g>
<!-- Node6&#45;&gt;Node8 -->
<g id="edge7" class="edge">
<title>Node6&#45;&gt;Node8</title>
<path fill="none" stroke="midnightblue" d="M570.93,-51.18C553.26,-41.24 529.99,-28.15 514.89,-19.65"/>
<polygon fill="midnightblue" stroke="midnightblue" points="569.64,-54.47 580.08,-56.32 573.08,-48.37 569.64,-54.47"/>
</g>
<!-- Node10&#45;&gt;Node6 -->
<g id="edge10" class="edge">
<title>Node10&#45;&gt;Node6</title>
<path fill="none" stroke="midnightblue" d="M255.71,-232.22C200.55,-228.03 137.38,-213.56 154.5,-168 166.13,-137.04 174.21,-127.36 203.5,-112 256.43,-84.23 419.34,-73.41 517.7,-69.34"/>
<polygon fill="midnightblue" stroke="midnightblue" points="255.69,-235.72 265.9,-232.88 256.15,-228.74 255.69,-235.72"/>
</g>
<!-- Node11 -->
<g id="node11" class="node">
<title>Node11</title>
<g id="a_node11"><a xlink:href="_audio_sample_list_vector_8cpp.html" target="_top" xlink:title="The AudioSampleListVector body implements the communication buffer structure for the block processing...">
<polygon fill="white" stroke="black" points="164,-168.5 164,-187.5 301,-187.5 301,-168.5 164,-168.5"/>
<text text-anchor="middle" x="232.5" y="-175.5" font-family="Helvetica,sans-Serif" font-size="10.00">AudioSampleListVector.cpp</text>
</a>
</g>
</g>
<!-- Node10&#45;&gt;Node11 -->
<g id="edge11" class="edge">
<title>Node10&#45;&gt;Node11</title>
<path fill="none" stroke="midnightblue" d="M305.16,-219.45C287.26,-209.48 263.45,-196.23 248.05,-187.65"/>
<polygon fill="midnightblue" stroke="midnightblue" points="303.48,-222.52 313.92,-224.32 306.88,-216.4 303.48,-222.52"/>
</g>
<!-- Node12 -->
<g id="node12" class="node">
<title>Node12</title>
<g id="a_node12"><a xlink:href="_wave_file_8h.html" target="_top" xlink:title="The WaveFile specification defines an object for accessing a RIFF wave file with several channels.">
<polygon fill="white" stroke="black" points="358,-168.5 358,-187.5 423,-187.5 423,-168.5 358,-168.5"/>
<text text-anchor="middle" x="390.5" y="-175.5" font-family="Helvetica,sans-Serif" font-size="10.00">WaveFile.h</text>
</a>
</g>
</g>
<!-- Node10&#45;&gt;Node12 -->
<g id="edge12" class="edge">
<title>Node10&#45;&gt;Node12</title>
<path fill="none" stroke="midnightblue" d="M346.97,-217.54C357.84,-207.91 371.44,-195.87 380.52,-187.83"/>
<polygon fill="midnightblue" stroke="midnightblue" points="344.47,-215.07 339.3,-224.32 349.11,-220.32 344.47,-215.07"/>
</g>
<!-- Node15 -->
<g id="node15" class="node">
<title>Node15</title>
<g id="a_node15"><a xlink:href="_fluid_synth_synthesizer_8h.html" target="_top" xlink:title="The FluidSynthSynthesizer class specifies an object&#45;oriented wrapper around an underlying fluidsynth ...">
<polygon fill="white" stroke="black" points="441,-168.5 441,-187.5 564,-187.5 564,-168.5 441,-168.5"/>
<text text-anchor="middle" x="502.5" y="-175.5" font-family="Helvetica,sans-Serif" font-size="10.00">FluidSynthSynthesizer.h</text>
</a>
</g>
</g>
<!-- Node10&#45;&gt;Node15 -->
<g id="edge15" class="edge">
<title>Node10&#45;&gt;Node15</title>
<path fill="none" stroke="midnightblue" d="M366.55,-221.44C399.16,-211.26 445.91,-196.66 475.22,-187.52"/>
<polygon fill="midnightblue" stroke="midnightblue" points="365.42,-218.12 356.91,-224.44 367.5,-224.8 365.42,-218.12"/>
</g>
<!-- Node10&#45;&gt;Node18 -->
<g id="edge18" class="edge">
<title>Node10&#45;&gt;Node18</title>
<path fill="none" stroke="midnightblue" d="M275.7,-222.47C223.54,-212.27 145.39,-196.98 97.03,-187.52"/>
<polygon fill="midnightblue" stroke="midnightblue" points="275.28,-225.96 285.77,-224.44 276.63,-219.09 275.28,-225.96"/>
</g>
<!-- Node13 -->
<g id="node13" class="node">
<title>Node13</title>
<g id="a_node13"><a xlink:href="_wave_file_8cpp.html" target="_top" xlink:title="The WaveFile specification defines an object for accessing a RIFF wave file with several channels.">
<polygon fill="white" stroke="black" points="1340,-112.5 1340,-131.5 1415,-131.5 1415,-112.5 1340,-112.5"/>
<text text-anchor="middle" x="1377.5" y="-119.5" font-family="Helvetica,sans-Serif" font-size="10.00">WaveFile.cpp</text>
</a>
</g>
</g>
<!-- Node12&#45;&gt;Node13 -->
<g id="edge13" class="edge">
<title>Node12&#45;&gt;Node13</title>
<path fill="none" stroke="midnightblue" d="M433.46,-168.15C632.2,-144 1189.89,-127.96 1339.95,-123.97"/>
<polygon fill="midnightblue" stroke="midnightblue" points="432.91,-164.69 423.43,-169.41 433.79,-171.63 432.91,-164.69"/>
</g>
<!-- Node14 -->
<g id="node14" class="node">
<title>Node14</title>
<g id="a_node14"><a xlink:href="_fluid_synth_file_converter_8cpp.html" target="_top" xlink:title="The FluidSynthFileConverter module implements a conversion from a MIDI file into a wave file using th...">
<polygon fill="white" stroke="black" points="212.5,-112.5 212.5,-131.5 350.5,-131.5 350.5,-112.5 212.5,-112.5"/>
<text text-anchor="middle" x="281.5" y="-119.5" font-family="Helvetica,sans-Serif" font-size="10.00">FluidSynthFileConverter.cpp</text>
</a>
</g>
</g>
<!-- Node12&#45;&gt;Node14 -->
<g id="edge14" class="edge">
<title>Node12&#45;&gt;Node14</title>
<path fill="none" stroke="midnightblue" d="M363.98,-163.86C343.77,-153.85 316.51,-140.35 298.97,-131.65"/>
<polygon fill="midnightblue" stroke="midnightblue" points="362.47,-167.02 372.99,-168.32 365.58,-160.75 362.47,-167.02"/>
</g>
<!-- Node16 -->
<g id="node16" class="node">
<title>Node16</title>
<g id="a_node16"><a xlink:href="_fluid_synth_synthesizer_8cpp.html" target="_top" xlink:title="The FluidSynthSynthesizer class implements an object&#45;oriented wrapper around an underlying fluidsynth...">
<polygon fill="white" stroke="black" points="704.5,-112.5 704.5,-131.5 838.5,-131.5 838.5,-112.5 704.5,-112.5"/>
<text text-anchor="middle" x="771.5" y="-119.5" font-family="Helvetica,sans-Serif" font-size="10.00">FluidSynthSynthesizer.cpp</text>
</a>
</g>
</g>
<!-- Node15&#45;&gt;Node16 -->
<g id="edge16" class="edge">
<title>Node15&#45;&gt;Node16</title>
<path fill="none" stroke="midnightblue" d="M554.94,-166.47C605.78,-156.27 681.94,-140.98 729.08,-131.52"/>
<polygon fill="midnightblue" stroke="midnightblue" points="554.24,-163.04 545.12,-168.44 555.62,-169.91 554.24,-163.04"/>
</g>
<!-- Node17 -->
<g id="node17" class="node">
<title>Node17</title>
<g id="a_node17"><a xlink:href="_midi_event_converter_8cpp.html" target="_top" xlink:title="The MidiEventConverter module implements the handling of MIDI events by feeding them to an underlying...">
<polygon fill="white" stroke="black" points="368.5,-112.5 368.5,-131.5 486.5,-131.5 486.5,-112.5 368.5,-112.5"/>
<text text-anchor="middle" x="427.5" y="-119.5" font-family="Helvetica,sans-Serif" font-size="10.00">MidiEventConverter.cpp</text>
</a>
</g>
</g>
<!-- Node15&#45;&gt;Node17 -->
<g id="edge17" class="edge">
<title>Node15&#45;&gt;Node17</title>
<path fill="none" stroke="midnightblue" d="M482.19,-162.38C468.64,-152.62 451.26,-140.11 439.77,-131.83"/>
<polygon fill="midnightblue" stroke="midnightblue" points="480.29,-165.32 490.45,-168.32 484.38,-159.64 480.29,-165.32"/>
</g>
<!-- Node18&#45;&gt;Node8 -->
<g id="edge20" class="edge">
<title>Node18&#45;&gt;Node8</title>
<path fill="none" stroke="midnightblue" d="M75.56,-163.05C98.76,-148.82 136.68,-126.77 171.5,-112 274.08,-68.5 401.81,-34.66 463.22,-19.58"/>
<polygon fill="midnightblue" stroke="midnightblue" points="73.5,-160.21 66.85,-168.45 77.19,-166.16 73.5,-160.21"/>
</g>
<!-- Node18&#45;&gt;Node14 -->
<g id="edge19" class="edge">
<title>Node18&#45;&gt;Node14</title>
<path fill="none" stroke="midnightblue" d="M99.57,-166.09C142.65,-155.89 206.09,-140.86 245.54,-131.52"/>
<polygon fill="midnightblue" stroke="midnightblue" points="98.55,-162.73 89.63,-168.44 100.16,-169.54 98.55,-162.73"/>
</g>
<!-- Node18&#45;&gt;Node17 -->
<g id="edge21" class="edge">
<title>Node18&#45;&gt;Node17</title>
<path fill="none" stroke="midnightblue" d="M117.15,-167.81C187.53,-157.65 299.99,-141.41 368.46,-131.52"/>
<polygon fill="midnightblue" stroke="midnightblue" points="116.48,-164.37 107.09,-169.26 117.48,-171.3 116.48,-164.37"/>
</g>
<!-- Node19&#45;&gt;Node13 -->
<g id="edge23" class="edge">
<title>Node19&#45;&gt;Node13</title>
<path fill="none" stroke="midnightblue" d="M1765.11,-333.42C1847.35,-307.54 2023.49,-241.49 1955.5,-168 1918.85,-128.38 1537.82,-123.56 1415.25,-123.04"/>
<polygon fill="midnightblue" stroke="midnightblue" points="1763.86,-330.14 1755.34,-336.44 1765.93,-336.83 1763.86,-330.14"/>
</g>
<!-- Node20 -->
<g id="node20" class="node">
<title>Node20</title>
<g id="a_node20"><a xlink:href="_real_list_8cpp.html" target="_top" xlink:title="The RealList body implements lists of real values with zero&#45;based arbitrary indexed access to positio...">
<polygon fill="white" stroke="black" points="1717,-280.5 1717,-299.5 1788,-299.5 1788,-280.5 1717,-280.5"/>
<text text-anchor="middle" x="1752.5" y="-287.5" font-family="Helvetica,sans-Serif" font-size="10.00">RealList.cpp</text>
</a>
</g>
</g>
<!-- Node19&#45;&gt;Node20 -->
<g id="edge24" class="edge">
<title>Node19&#45;&gt;Node20</title>
<path fill="none" stroke="midnightblue" d="M1734.51,-326.98C1739.09,-317.82 1744.45,-307.09 1748.12,-299.75"/>
<polygon fill="midnightblue" stroke="midnightblue" points="1731.3,-325.57 1729.96,-336.08 1737.56,-328.7 1731.3,-325.57"/>
</g>
<!-- Node22 -->
<g id="node22" class="node">
<title>Node22</title>
<g id="a_node22"><a xlink:href="_string_util_8h.html" target="_top" xlink:title="The StringUtil specification defines several string routines not included in the standard C++ library...">
<polygon fill="white" stroke="black" points="1449,-280.5 1449,-299.5 1514,-299.5 1514,-280.5 1449,-280.5"/>
<text text-anchor="middle" x="1481.5" y="-287.5" font-family="Helvetica,sans-Serif" font-size="10.00">StringUtil.h</text>
</a>
</g>
</g>
<!-- Node21&#45;&gt;Node22 -->
<g id="edge26" class="edge">
<title>Node21&#45;&gt;Node22</title>
<path fill="none" stroke="midnightblue" d="M1518.52,-328.72C1509.18,-319.2 1497.75,-307.56 1490.09,-299.75"/>
<polygon fill="midnightblue" stroke="midnightblue" points="1516.25,-331.4 1525.75,-336.08 1521.24,-326.49 1516.25,-331.4"/>
</g>
<!-- Node31 -->
<g id="node31" class="node">
<title>Node31</title>
<g id="a_node31"><a xlink:href="_fluid_synth_plugin___editor_8cpp.html" target="_top" xlink:title="The FluidSynthPlugin_Editor module implements the editor for the processor of MIDI events from the DA...">
<polygon fill="white" stroke="black" points="1806.5,-168.5 1806.5,-187.5 1946.5,-187.5 1946.5,-168.5 1806.5,-168.5"/>
<text text-anchor="middle" x="1876.5" y="-175.5" font-family="Helvetica,sans-Serif" font-size="10.00">FluidSynthPlugin_Editor.cpp</text>
</a>
</g>
</g>
<!-- Node21&#45;&gt;Node31 -->
<g id="edge49" class="edge">
<title>Node21&#45;&gt;Node31</title>
<path fill="none" stroke="midnightblue" d="M1561.54,-331.87C1628.89,-299.19 1802.69,-214.83 1858.77,-187.61"/>
<polygon fill="midnightblue" stroke="midnightblue" points="1559.87,-328.79 1552.41,-336.31 1562.93,-335.09 1559.87,-328.79"/>
</g>
<!-- Node23 -->
<g id="node23" class="node">
<title>Node23</title>
<g id="a_node23"><a xlink:href="_file_8cpp.html" target="_top" xlink:title="The File body implements a class for simple file handling based on C stdio.">
<polygon fill="white" stroke="black" points="1609,-224.5 1609,-243.5 1660,-243.5 1660,-224.5 1609,-224.5"/>
<text text-anchor="middle" x="1634.5" y="-231.5" font-family="Helvetica,sans-Serif" font-size="10.00">File.cpp</text>
</a>
</g>
</g>
<!-- Node22&#45;&gt;Node23 -->
<g id="edge27" class="edge">
<title>Node22&#45;&gt;Node23</title>
<path fill="none" stroke="midnightblue" d="M1515.39,-277.04C1544.18,-266.88 1584.79,-252.55 1610.37,-243.52"/>
<polygon fill="midnightblue" stroke="midnightblue" points="1514.01,-273.81 1505.74,-280.44 1516.34,-280.42 1514.01,-273.81"/>
</g>
<!-- Node24 -->
<g id="node24" class="node">
<title>Node24</title>
<g id="a_node24"><a xlink:href="_logging_8h.html" target="_top" xlink:title="The Logging specification defines macros for entry&#45;, exit&#45; and intermediate logging of functions into...">
<polygon fill="white" stroke="black" points="1243,-224.5 1243,-243.5 1302,-243.5 1302,-224.5 1243,-224.5"/>
<text text-anchor="middle" x="1272.5" y="-231.5" font-family="Helvetica,sans-Serif" font-size="10.00">Logging.h</text>
</a>
</g>
</g>
<!-- Node22&#45;&gt;Node24 -->
<g id="edge28" class="edge">
<title>Node22&#45;&gt;Node24</title>
<path fill="none" stroke="midnightblue" d="M1438.95,-278.01C1398.27,-267.49 1337.98,-251.92 1302.22,-242.68"/>
<polygon fill="midnightblue" stroke="midnightblue" points="1438.29,-281.45 1448.84,-280.56 1440.04,-274.67 1438.29,-281.45"/>
</g>
<!-- Node35 -->
<g id="node35" class="node">
<title>Node35</title>
<g id="a_node35"><a xlink:href="_string_util_8cpp.html" target="_top" xlink:title="The StringUtil body implements several string routines not included in the standard C++ library (like...">
<polygon fill="white" stroke="black" points="1320,-224.5 1320,-243.5 1395,-243.5 1395,-224.5 1320,-224.5"/>
<text text-anchor="middle" x="1357.5" y="-231.5" font-family="Helvetica,sans-Serif" font-size="10.00">StringUtil.cpp</text>
</a>
</g>
</g>
<!-- Node22&#45;&gt;Node35 -->
<g id="edge46" class="edge">
<title>Node22&#45;&gt;Node35</title>
<path fill="none" stroke="midnightblue" d="M1452.49,-276.37C1429.27,-266.26 1397.34,-252.35 1377.06,-243.52"/>
<polygon fill="midnightblue" stroke="midnightblue" points="1451.29,-279.66 1461.85,-280.44 1454.08,-273.24 1451.29,-279.66"/>
</g>
<!-- Node36 -->
<g id="node36" class="node">
<title>Node36</title>
<g id="a_node36"><a xlink:href="_natural_list_8cpp.html" target="_top" xlink:title="The NaturalList body implements lists of non&#45;negative integer values with zero&#45;based arbitrary indexe...">
<polygon fill="white" stroke="black" points="1413.5,-224.5 1413.5,-243.5 1495.5,-243.5 1495.5,-224.5 1413.5,-224.5"/>
<text text-anchor="middle" x="1454.5" y="-231.5" font-family="Helvetica,sans-Serif" font-size="10.00">NaturalList.cpp</text>
</a>
</g>
</g>
<!-- Node22&#45;&gt;Node36 -->
<g id="edge47" class="edge">
<title>Node22&#45;&gt;Node36</title>
<path fill="none" stroke="midnightblue" d="M1472.49,-270.98C1467.91,-261.82 1462.55,-251.09 1458.88,-243.75"/>
<polygon fill="midnightblue" stroke="midnightblue" points="1469.44,-272.7 1477.04,-280.08 1475.7,-269.57 1469.44,-272.7"/>
</g>
<!-- Node37 -->
<g id="node37" class="node">
<title>Node37</title>
<g id="a_node37"><a xlink:href="_string_list_8cpp.html" target="_top" xlink:title="The StringList body implements lists of string values with zero&#45;based arbitrary indexed access to pos...">
<polygon fill="white" stroke="black" points="1514,-224.5 1514,-243.5 1591,-243.5 1591,-224.5 1514,-224.5"/>
<text text-anchor="middle" x="1552.5" y="-231.5" font-family="Helvetica,sans-Serif" font-size="10.00">StringList.cpp</text>
</a>
</g>
</g>
<!-- Node22&#45;&gt;Node37 -->
<g id="edge48" class="edge">
<title>Node22&#45;&gt;Node37</title>
<path fill="none" stroke="midnightblue" d="M1501.09,-274.1C1513.87,-264.38 1530.11,-252.03 1540.89,-243.83"/>
<polygon fill="midnightblue" stroke="midnightblue" points="1498.75,-271.48 1492.91,-280.32 1502.99,-277.06 1498.75,-271.48"/>
</g>
<!-- Node24&#45;&gt;Node8 -->
<g id="edge41" class="edge">
<title>Node24&#45;&gt;Node8</title>
<path fill="none" stroke="midnightblue" d="M1312.56,-224.27C1389.96,-214.75 1555.33,-233.58 1595.5,-188 1601.38,-181.33 1600.72,-175.2 1595.5,-168 1548.57,-103.25 1502.48,-129.73 1424.5,-112 1238.29,-69.66 1188.3,-77.02 998.5,-56 995.99,-55.72 734.06,-32.12 590.75,-19.22"/>
<polygon fill="midnightblue" stroke="midnightblue" points="1311.62,-220.87 1302.25,-225.81 1312.65,-227.79 1311.62,-220.87"/>
</g>
<!-- Node24&#45;&gt;Node13 -->
<g id="edge33" class="edge">
<title>Node24&#45;&gt;Node13</title>
<path fill="none" stroke="midnightblue" d="M1307.13,-220.36C1323.1,-213.02 1341.19,-202.36 1353.5,-188 1367.91,-171.2 1374,-144.97 1376.29,-131.54"/>
<polygon fill="midnightblue" stroke="midnightblue" points="1305.33,-217.32 1297.54,-224.49 1308.11,-223.75 1305.33,-217.32"/>
</g>
<!-- Node24&#45;&gt;Node14 -->
<g id="edge39" class="edge">
<title>Node24&#45;&gt;Node14</title>
<path fill="none" stroke="midnightblue" d="M1232.59,-232.69C1066.04,-231.19 431.36,-223.17 349.5,-188 321.29,-175.88 297.84,-146.51 287.37,-131.76"/>
<polygon fill="midnightblue" stroke="midnightblue" points="1232.84,-236.19 1242.87,-232.78 1232.9,-229.19 1232.84,-236.19"/>
</g>
<!-- Node24&#45;&gt;Node16 -->
<g id="edge38" class="edge">
<title>Node24&#45;&gt;Node16</title>
<path fill="none" stroke="midnightblue" d="M1295.21,-218.59C1314.04,-204.93 1335.47,-184.15 1320.5,-168 1284.75,-129.42 900.85,-137.05 848.5,-132 845.28,-131.69 842,-131.36 838.67,-131.01"/>
<polygon fill="midnightblue" stroke="midnightblue" points="1293.14,-215.77 1286.89,-224.33 1297.11,-221.54 1293.14,-215.77"/>
</g>
<!-- Node24&#45;&gt;Node17 -->
<g id="edge43" class="edge">
<title>Node24&#45;&gt;Node17</title>
<path fill="none" stroke="midnightblue" d="M1232.6,-233.14C1132.79,-232.83 864.58,-228.03 645.5,-188 626.51,-184.53 509.39,-148.45 455.09,-131.59"/>
<polygon fill="midnightblue" stroke="midnightblue" points="1232.83,-236.64 1242.83,-233.15 1232.84,-229.64 1232.83,-236.64"/>
</g>
<!-- Node25 -->
<g id="node25" class="node">
<title>Node25</title>
<g id="a_node25"><a xlink:href="_audio_sample_fifo_queue_8cpp-inc.html" target="_top" xlink:title="The AudioSampleFifoQueue body implements a fifo queue for audio samples with popping off access to th...">
<polygon fill="white" stroke="black" points="697,-168.5 697,-187.5 850,-187.5 850,-168.5 697,-168.5"/>
<text text-anchor="middle" x="773.5" y="-175.5" font-family="Helvetica,sans-Serif" font-size="10.00">AudioSampleFifoQueue.cpp&#45;inc</text>
</a>
</g>
</g>
<!-- Node24&#45;&gt;Node25 -->
<g id="edge29" class="edge">
<title>Node24&#45;&gt;Node25</title>
<path fill="none" stroke="midnightblue" d="M1232.78,-228.7C1150.03,-219.75 957.96,-198.96 850.25,-187.31"/>
<polygon fill="midnightblue" stroke="midnightblue" points="1232.46,-232.19 1242.78,-229.78 1233.21,-225.23 1232.46,-232.19"/>
</g>
<!-- Node26 -->
<g id="node26" class="node">
<title>Node26</title>
<g id="a_node26"><a xlink:href="_audio_sample_fifo_queue_vector_8cpp-inc.html" target="_top" xlink:title="The AudioSampleFifoQueueVector body implements a list of fifo queues for audio samples (this is the e...">
<polygon fill="white" stroke="black" points="504.5,-112.5 504.5,-131.5 686.5,-131.5 686.5,-112.5 504.5,-112.5"/>
<text text-anchor="middle" x="595.5" y="-119.5" font-family="Helvetica,sans-Serif" font-size="10.00">AudioSampleFifoQueueVector.cpp&#45;inc</text>
</a>
</g>
</g>
<!-- Node24&#45;&gt;Node26 -->
<g id="edge31" class="edge">
<title>Node24&#45;&gt;Node26</title>
<path fill="none" stroke="midnightblue" d="M1232.76,-232.65C1118.2,-231.22 789.13,-223.99 688.5,-188 653.63,-175.53 619.82,-146.32 604.32,-131.68"/>
<polygon fill="midnightblue" stroke="midnightblue" points="1232.8,-236.15 1242.84,-232.77 1232.88,-229.15 1232.8,-236.15"/>
</g>
<!-- Node27 -->
<g id="node27" class="node">
<title>Node27</title>
<g id="a_node27"><a xlink:href="_command_line_arguments_8cpp.html" target="_top" xlink:title="The CommandLineArguments body implements a handler for command&#45;line arguments converting them to a li...">
<polygon fill="white" stroke="black" points="1643,-168.5 1643,-187.5 1788,-187.5 1788,-168.5 1643,-168.5"/>
<text text-anchor="middle" x="1715.5" y="-175.5" font-family="Helvetica,sans-Serif" font-size="10.00">CommandLineArguments.cpp</text>
</a>
</g>
</g>
<!-- Node24&#45;&gt;Node27 -->
<g id="edge34" class="edge">
<title>Node24&#45;&gt;Node27</title>
<path fill="none" stroke="midnightblue" d="M1312.33,-224.16C1368.34,-215.9 1542.18,-197.27 1642.56,-186.66"/>
<polygon fill="midnightblue" stroke="midnightblue" points="1311.57,-220.74 1302.24,-225.76 1312.66,-227.65 1311.57,-220.74"/>
</g>
<!-- Node28 -->
<g id="node28" class="node">
<title>Node28</title>
<g id="a_node28"><a xlink:href="_operating_system_8cpp.html" target="_top" xlink:title="The OperatingSystem body implements a class for several operating system related utility functions (l...">
<polygon fill="white" stroke="black" points="868,-168.5 868,-187.5 979,-187.5 979,-168.5 868,-168.5"/>
<text text-anchor="middle" x="923.5" y="-175.5" font-family="Helvetica,sans-Serif" font-size="10.00">OperatingSystem.cpp</text>
</a>
</g>
</g>
<!-- Node24&#45;&gt;Node28 -->
<g id="edge35" class="edge">
<title>Node24&#45;&gt;Node28</title>
<path fill="none" stroke="midnightblue" d="M1232.52,-226.81C1170.08,-217.15 1049.29,-198.46 978.64,-187.53"/>
<polygon fill="midnightblue" stroke="midnightblue" points="1232.33,-230.33 1242.74,-228.4 1233.4,-223.41 1232.33,-230.33"/>
</g>
<!-- Node29 -->
<g id="node29" class="node">
<title>Node29</title>
<g id="a_node29"><a xlink:href="_fluid_synth_8cpp.html" target="_top" xlink:title="The FluidSynth class implements the access to the fluidsynth library via a dynamic loading of it.">
<polygon fill="white" stroke="black" points="997.5,-168.5 997.5,-187.5 1079.5,-187.5 1079.5,-168.5 997.5,-168.5"/>
<text text-anchor="middle" x="1038.5" y="-175.5" font-family="Helvetica,sans-Serif" font-size="10.00">FluidSynth.cpp</text>
</a>
</g>
</g>
<!-- Node24&#45;&gt;Node29 -->
<g id="edge36" class="edge">
<title>Node24&#45;&gt;Node29</title>
<path fill="none" stroke="midnightblue" d="M1233.1,-223.91C1189.15,-213.77 1118.59,-197.48 1075.6,-187.56"/>
<polygon fill="midnightblue" stroke="midnightblue" points="1232.33,-227.32 1242.86,-226.16 1233.91,-220.5 1232.33,-227.32"/>
</g>
<!-- Node30 -->
<g id="node30" class="node">
<title>Node30</title>
<g id="a_node30"><a xlink:href="_fluid_synth_settings_8cpp.html" target="_top" xlink:title="The FluidSynthSettings class implements an object&#45;oriented wrapper around an underlying fluidsynth se...">
<polygon fill="white" stroke="black" points="1097.5,-168.5 1097.5,-187.5 1215.5,-187.5 1215.5,-168.5 1097.5,-168.5"/>
<text text-anchor="middle" x="1156.5" y="-175.5" font-family="Helvetica,sans-Serif" font-size="10.00">FluidSynthSettings.cpp</text>
</a>
</g>
</g>
<!-- Node24&#45;&gt;Node30 -->
<g id="edge37" class="edge">
<title>Node24&#45;&gt;Node30</title>
<path fill="none" stroke="midnightblue" d="M1244.78,-220.1C1223.11,-210.01 1193.6,-196.27 1174.79,-187.52"/>
<polygon fill="midnightblue" stroke="midnightblue" points="1243.58,-223.4 1254.12,-224.44 1246.53,-217.05 1243.58,-223.4"/>
</g>
<!-- Node24&#45;&gt;Node31 -->
<g id="edge40" class="edge">
<title>Node24&#45;&gt;Node31</title>
<path fill="none" stroke="midnightblue" d="M1312.25,-224.13C1527.39,-192.05 1585.12,-207.96 1797.5,-188 1800.39,-187.73 1803.33,-187.44 1806.3,-187.14"/>
<polygon fill="midnightblue" stroke="midnightblue" points="1311.59,-220.7 1302.22,-225.65 1312.63,-227.62 1311.59,-220.7"/>
</g>
<!-- Node32 -->
<g id="node32" class="node">
<title>Node32</title>
<g id="a_node32"><a xlink:href="_midi_event_8cpp.html" target="_top" xlink:title="The MidiEvent implementation defines the services of a single MIDI event.">
<polygon fill="white" stroke="black" points="1234,-168.5 1234,-187.5 1311,-187.5 1311,-168.5 1234,-168.5"/>
<text text-anchor="middle" x="1272.5" y="-175.5" font-family="Helvetica,sans-Serif" font-size="10.00">MidiEvent.cpp</text>
</a>
</g>
</g>
<!-- Node24&#45;&gt;Node32 -->
<g id="edge42" class="edge">
<title>Node24&#45;&gt;Node32</title>
<path fill="none" stroke="midnightblue" d="M1272.5,-213.8C1272.5,-204.91 1272.5,-194.78 1272.5,-187.75"/>
<polygon fill="midnightblue" stroke="midnightblue" points="1269,-214.08 1272.5,-224.08 1276,-214.08 1269,-214.08"/>
</g>
<!-- Node33 -->
<g id="node33" class="node">
<title>Node33</title>
<g id="a_node33"><a xlink:href="_midi_event_list_8cpp.html" target="_top" xlink:title="The MIDIEventList body implements sequences of integer values with zero&#45;based arbitrary indexed acces...">
<polygon fill="white" stroke="black" points="1406,-168.5 1406,-187.5 1499,-187.5 1499,-168.5 1406,-168.5"/>
<text text-anchor="middle" x="1452.5" y="-175.5" font-family="Helvetica,sans-Serif" font-size="10.00">MidiEventList.cpp</text>
</a>
</g>
</g>
<!-- Node24&#45;&gt;Node33 -->
<g id="edge44" class="edge">
<title>Node24&#45;&gt;Node33</title>
<path fill="none" stroke="midnightblue" d="M1310.61,-221.57C1344.56,-211.38 1393.49,-196.7 1424.11,-187.52"/>
<polygon fill="midnightblue" stroke="midnightblue" points="1309.59,-218.22 1301.02,-224.44 1311.61,-224.92 1309.59,-218.22"/>
</g>
<!-- Node34 -->
<g id="node34" class="node">
<title>Node34</title>
<g id="a_node34"><a xlink:href="_midi_file_8cpp.html" target="_top" xlink:title="The MidiFile implementation implements the services of a MIDI file; currently only file reading is su...">
<polygon fill="white" stroke="black" points="1517,-168.5 1517,-187.5 1586,-187.5 1586,-168.5 1517,-168.5"/>
<text text-anchor="middle" x="1551.5" y="-175.5" font-family="Helvetica,sans-Serif" font-size="10.00">MidiFile.cpp</text>
</a>
</g>
</g>
<!-- Node24&#45;&gt;Node34 -->
<g id="edge45" class="edge">
<title>Node24&#45;&gt;Node34</title>
<path fill="none" stroke="midnightblue" d="M1312.18,-223.94C1400.33,-205.91 1424.23,-204.52 1508.5,-188 1511.19,-187.47 1513.98,-186.91 1516.78,-186.35"/>
<polygon fill="midnightblue" stroke="midnightblue" points="1311.37,-220.53 1302.28,-225.98 1312.78,-227.39 1311.37,-220.53"/>
</g>
<!-- Node25&#45;&gt;Node4 -->
<g id="edge30" class="edge">
<title>Node25&#45;&gt;Node4</title>
<path fill="none" stroke="midnightblue" d="M806.42,-164.91C834.06,-154.75 872.84,-140.51 897.32,-131.52"/>
<polygon fill="midnightblue" stroke="midnightblue" points="804.97,-161.71 796.79,-168.44 807.39,-168.28 804.97,-161.71"/>
</g>
<!-- Node26&#45;&gt;Node6 -->
<g id="edge32" class="edge">
<title>Node26&#45;&gt;Node6</title>
<path fill="none" stroke="midnightblue" d="M595.5,-101.8C595.5,-92.91 595.5,-82.78 595.5,-75.75"/>
<polygon fill="midnightblue" stroke="midnightblue" points="592,-102.08 595.5,-112.08 599,-102.08 592,-102.08"/>
</g>
</g>
</svg>
