<?xml version="1.0" encoding="UTF-8" standalone="no"?>
<!DOCTYPE svg PUBLIC "-//W3C//DTD SVG 1.1//EN"
 "http://www.w3.org/Graphics/SVG/1.1/DTD/svg11.dtd">
<!-- Generated by graphviz version 2.47.1 (20210417.1919)
 -->
<!-- Title: Real.h Pages: 1 -->
<svg width="2520pt" height="476pt"
 viewBox="0.00 0.00 2520.36 476.00" xmlns="http://www.w3.org/2000/svg" xmlns:xlink="http://www.w3.org/1999/xlink">
<g id="graph0" class="graph" transform="scale(1 1) rotate(0) translate(4 472)">
<title>Real.h</title>
<polygon fill="white" stroke="transparent" points="-4,4 -4,-472 2516.36,-472 2516.36,4 -4,4"/>
<!-- Node1 -->
<g id="node1" class="node">
<title>Node1</title>
<g id="a_node1"><a xlink:title="The Real specification defines a value object type for real values.">
<polygon fill="#bfbfbf" stroke="black" points="2267.5,-448.5 2267.5,-467.5 2311.5,-467.5 2311.5,-448.5 2267.5,-448.5"/>
<text text-anchor="middle" x="2289.5" y="-455.5" font-family="Helvetica,sans-Serif" font-size="10.00">Real.h</text>
</a>
</g>
</g>
<!-- Node2 -->
<g id="node2" class="node">
<title>Node2</title>
<g id="a_node2"><a xlink:href="_audio_sample_8h.html" target="_top" xlink:title="The AudioSample specification and body provides the definition of the audio sample (a real value).">
<polygon fill="white" stroke="black" points="1312,-392.5 1312,-411.5 1395,-411.5 1395,-392.5 1312,-392.5"/>
<text text-anchor="middle" x="1353.5" y="-399.5" font-family="Helvetica,sans-Serif" font-size="10.00">AudioSample.h</text>
</a>
</g>
</g>
<!-- Node1&#45;&gt;Node2 -->
<g id="edge1" class="edge">
<title>Node1&#45;&gt;Node2</title>
<path fill="none" stroke="midnightblue" d="M2257.12,-455.13C2115.83,-446.98 1553.38,-414.53 1395.13,-405.4"/>
<polygon fill="midnightblue" stroke="midnightblue" points="2257.1,-458.64 2267.29,-455.72 2257.5,-451.65 2257.1,-458.64"/>
</g>
<!-- Node20 -->
<g id="node20" class="node">
<title>Node20</title>
<g id="a_node20"><a xlink:href="_midi_event_converter_8h.html" target="_top" xlink:title="The MidiEventConverter specification defines the handling of MIDI events by feeding them to an underl...">
<polygon fill="white" stroke="black" points="2361,-224.5 2361,-243.5 2468,-243.5 2468,-224.5 2361,-224.5"/>
<text text-anchor="middle" x="2414.5" y="-231.5" font-family="Helvetica,sans-Serif" font-size="10.00">MidiEventConverter.h</text>
</a>
</g>
</g>
<!-- Node1&#45;&gt;Node20 -->
<g id="edge59" class="edge">
<title>Node1&#45;&gt;Node20</title>
<path fill="none" stroke="midnightblue" d="M2300.4,-439.98C2305.68,-431.62 2312.03,-421.35 2317.5,-412 2354.81,-348.17 2396.51,-269.32 2410.02,-243.57"/>
<polygon fill="midnightblue" stroke="midnightblue" points="2297.42,-438.14 2295.01,-448.46 2303.33,-441.9 2297.42,-438.14"/>
</g>
<!-- Node21 -->
<g id="node21" class="node">
<title>Node21</title>
<g id="a_node21"><a xlink:href="_real_list_8h.html" target="_top" xlink:title="The RealList specification defines lists of real values with zero&#45;based arbitrary indexed access to p...">
<polygon fill="white" stroke="black" points="2227.5,-392.5 2227.5,-411.5 2287.5,-411.5 2287.5,-392.5 2227.5,-392.5"/>
<text text-anchor="middle" x="2257.5" y="-399.5" font-family="Helvetica,sans-Serif" font-size="10.00">RealList.h</text>
</a>
</g>
</g>
<!-- Node1&#45;&gt;Node21 -->
<g id="edge24" class="edge">
<title>Node1&#45;&gt;Node21</title>
<path fill="none" stroke="midnightblue" d="M2279,-439.27C2273.53,-430.05 2267.08,-419.17 2262.69,-411.75"/>
<polygon fill="midnightblue" stroke="midnightblue" points="2276.11,-441.26 2284.22,-448.08 2282.13,-437.7 2276.11,-441.26"/>
</g>
<!-- Node23 -->
<g id="node23" class="node">
<title>Node23</title>
<g id="a_node23"><a xlink:href="_percentage_8h.html" target="_top" xlink:title="The Percentage specification and body provides a simple percentage type.">
<polygon fill="white" stroke="black" points="2015.5,-392.5 2015.5,-411.5 2089.5,-411.5 2089.5,-392.5 2015.5,-392.5"/>
<text text-anchor="middle" x="2052.5" y="-399.5" font-family="Helvetica,sans-Serif" font-size="10.00">Percentage.h</text>
</a>
</g>
</g>
<!-- Node1&#45;&gt;Node23 -->
<g id="edge27" class="edge">
<title>Node1&#45;&gt;Node23</title>
<path fill="none" stroke="midnightblue" d="M2257.39,-449.68C2213.7,-439.73 2135.69,-421.96 2089.57,-411.45"/>
<polygon fill="midnightblue" stroke="midnightblue" points="2256.68,-453.11 2267.2,-451.92 2258.23,-446.29 2256.68,-453.11"/>
</g>
<!-- Node44 -->
<g id="node44" class="node">
<title>Node44</title>
<g id="a_node44"><a xlink:href="_real_8cpp.html" target="_top" xlink:title="The Real body implements a value object type for real values.">
<polygon fill="white" stroke="black" points="2249,-280.5 2249,-299.5 2304,-299.5 2304,-280.5 2249,-280.5"/>
<text text-anchor="middle" x="2276.5" y="-287.5" font-family="Helvetica,sans-Serif" font-size="10.00">Real.cpp</text>
</a>
</g>
</g>
<!-- Node1&#45;&gt;Node44 -->
<g id="edge58" class="edge">
<title>Node1&#45;&gt;Node44</title>
<path fill="none" stroke="midnightblue" d="M2295.3,-438.45C2301.91,-414.44 2310.69,-371.46 2301.5,-336 2297.96,-322.33 2289.27,-308.39 2283.13,-299.73"/>
<polygon fill="midnightblue" stroke="midnightblue" points="2291.85,-437.75 2292.4,-448.33 2298.57,-439.72 2291.85,-437.75"/>
</g>
<!-- Node45 -->
<g id="node45" class="node">
<title>Node45</title>
<g id="a_node45"><a xlink:href="_radians_8h.html" target="_top" xlink:title="The Radians specification and body provides a simple radians type.">
<polygon fill="white" stroke="black" points="2387.5,-392.5 2387.5,-411.5 2447.5,-411.5 2447.5,-392.5 2387.5,-392.5"/>
<text text-anchor="middle" x="2417.5" y="-399.5" font-family="Helvetica,sans-Serif" font-size="10.00">Radians.h</text>
</a>
</g>
</g>
<!-- Node1&#45;&gt;Node45 -->
<g id="edge57" class="edge">
<title>Node1&#45;&gt;Node45</title>
<path fill="none" stroke="midnightblue" d="M2319.12,-444.5C2343.12,-434.38 2376.28,-420.39 2397.31,-411.52"/>
<polygon fill="midnightblue" stroke="midnightblue" points="2317.64,-441.33 2309.78,-448.44 2320.36,-447.78 2317.64,-441.33"/>
</g>
<!-- Node3 -->
<g id="node3" class="node">
<title>Node3</title>
<g id="a_node3"><a xlink:href="_audio_sample_list_8h.html" target="_top" xlink:title="The AudioSampleList specification defines lists of audio samples with zero&#45;based arbitrary indexed ac...">
<polygon fill="white" stroke="black" points="244.5,-336.5 244.5,-355.5 342.5,-355.5 342.5,-336.5 244.5,-336.5"/>
<text text-anchor="middle" x="293.5" y="-343.5" font-family="Helvetica,sans-Serif" font-size="10.00">AudioSampleList.h</text>
</a>
</g>
</g>
<!-- Node2&#45;&gt;Node3 -->
<g id="edge2" class="edge">
<title>Node2&#45;&gt;Node3</title>
<path fill="none" stroke="midnightblue" d="M1301.91,-398.37C1121.32,-389.17 519.01,-358.49 342.51,-349.5"/>
<polygon fill="midnightblue" stroke="midnightblue" points="1301.78,-401.87 1311.95,-398.88 1302.14,-394.88 1301.78,-401.87"/>
</g>
<!-- Node4 -->
<g id="node4" class="node">
<title>Node4</title>
<g id="a_node4"><a xlink:href="_audio_sample_fifo_queue_8h.html" target="_top" xlink:title="The AudioSampleFifoQueue specification defines a fifo queue for audio samples with popping off access...">
<polygon fill="white" stroke="black" points="47,-112.5 47,-131.5 174,-131.5 174,-112.5 47,-112.5"/>
<text text-anchor="middle" x="110.5" y="-119.5" font-family="Helvetica,sans-Serif" font-size="10.00">AudioSampleFifoQueue.h</text>
</a>
</g>
</g>
<!-- Node3&#45;&gt;Node4 -->
<g id="edge3" class="edge">
<title>Node3&#45;&gt;Node4</title>
<path fill="none" stroke="midnightblue" d="M276.42,-329.54C255.72,-310.41 220.29,-276.4 193.5,-244 160.71,-204.34 127.99,-151.93 115.64,-131.59"/>
<polygon fill="midnightblue" stroke="midnightblue" points="274.09,-332.15 283.83,-336.33 278.82,-326.99 274.09,-332.15"/>
</g>
<!-- Node9 -->
<g id="node9" class="node">
<title>Node9</title>
<g id="a_node9"><a xlink:href="_audio_sample_list_8cpp.html" target="_top" xlink:title="The AudioSampleList body implements a simple list of audio samples (this is the formal CPP file used ...">
<polygon fill="white" stroke="black" points="0,-280.5 0,-299.5 109,-299.5 109,-280.5 0,-280.5"/>
<text text-anchor="middle" x="54.5" y="-287.5" font-family="Helvetica,sans-Serif" font-size="10.00">AudioSampleList.cpp</text>
</a>
</g>
</g>
<!-- Node3&#45;&gt;Node9 -->
<g id="edge8" class="edge">
<title>Node3&#45;&gt;Node9</title>
<path fill="none" stroke="midnightblue" d="M245.78,-334.22C200.61,-324.01 133.73,-308.9 92.19,-299.52"/>
<polygon fill="midnightblue" stroke="midnightblue" points="245.1,-337.65 255.63,-336.44 246.65,-330.83 245.1,-337.65"/>
</g>
<!-- Node10 -->
<g id="node10" class="node">
<title>Node10</title>
<g id="a_node10"><a xlink:href="_audio_sample_list_vector_8h.html" target="_top" xlink:title="The AudioSampleListVector specification defines the communication buffer structure for the block proc...">
<polygon fill="white" stroke="black" points="386,-280.5 386,-299.5 513,-299.5 513,-280.5 386,-280.5"/>
<text text-anchor="middle" x="449.5" y="-287.5" font-family="Helvetica,sans-Serif" font-size="10.00">AudioSampleListVector.h</text>
</a>
</g>
</g>
<!-- Node3&#45;&gt;Node10 -->
<g id="edge9" class="edge">
<title>Node3&#45;&gt;Node10</title>
<path fill="none" stroke="midnightblue" d="M327.67,-333.17C357.04,-323 398.7,-308.59 424.9,-299.52"/>
<polygon fill="midnightblue" stroke="midnightblue" points="326.52,-329.86 318.22,-336.44 328.81,-336.48 326.52,-329.86"/>
</g>
<!-- Node5 -->
<g id="node5" class="node">
<title>Node5</title>
<g id="a_node5"><a xlink:href="_audio_sample_fifo_queue_8cpp.html" target="_top" xlink:title="The AudioSampleFifoQueue body implements a fifo queue for audio samples with popping off access to th...">
<polygon fill="white" stroke="black" points="42,-56.5 42,-75.5 179,-75.5 179,-56.5 42,-56.5"/>
<text text-anchor="middle" x="110.5" y="-63.5" font-family="Helvetica,sans-Serif" font-size="10.00">AudioSampleFifoQueue.cpp</text>
</a>
</g>
</g>
<!-- Node4&#45;&gt;Node5 -->
<g id="edge4" class="edge">
<title>Node4&#45;&gt;Node5</title>
<path fill="none" stroke="midnightblue" d="M110.5,-101.8C110.5,-92.91 110.5,-82.78 110.5,-75.75"/>
<polygon fill="midnightblue" stroke="midnightblue" points="107,-102.08 110.5,-112.08 114,-102.08 107,-102.08"/>
</g>
<!-- Node6 -->
<g id="node6" class="node">
<title>Node6</title>
<g id="a_node6"><a xlink:href="_audio_sample_fifo_queue_vector_8h.html" target="_top" xlink:title="The AudioSampleFifoQueueVector specification defines a list of fifo queues for audio samples.">
<polygon fill="white" stroke="black" points="416,-56.5 416,-75.5 571,-75.5 571,-56.5 416,-56.5"/>
<text text-anchor="middle" x="493.5" y="-63.5" font-family="Helvetica,sans-Serif" font-size="10.00">AudioSampleFifoQueueVector.h</text>
</a>
</g>
</g>
<!-- Node4&#45;&gt;Node6 -->
<g id="edge5" class="edge">
<title>Node4&#45;&gt;Node6</title>
<path fill="none" stroke="midnightblue" d="M181.13,-111.04C253.46,-100.84 364.72,-85.16 433.1,-75.52"/>
<polygon fill="midnightblue" stroke="midnightblue" points="180.6,-107.58 171.19,-112.44 181.58,-114.51 180.6,-107.58"/>
</g>
<!-- Node7 -->
<g id="node7" class="node">
<title>Node7</title>
<g id="a_node7"><a xlink:href="_audio_sample_fifo_queue_vector_8cpp.html" target="_top" xlink:title="The AudioSampleFifoQueueVector body implements a list of fifo queues for audio samples (this is the f...">
<polygon fill="white" stroke="black" points="410.5,-0.5 410.5,-19.5 576.5,-19.5 576.5,-0.5 410.5,-0.5"/>
<text text-anchor="middle" x="493.5" y="-7.5" font-family="Helvetica,sans-Serif" font-size="10.00">AudioSampleFifoQueueVector.cpp</text>
</a>
</g>
</g>
<!-- Node6&#45;&gt;Node7 -->
<g id="edge6" class="edge">
<title>Node6&#45;&gt;Node7</title>
<path fill="none" stroke="midnightblue" d="M493.5,-45.8C493.5,-36.91 493.5,-26.78 493.5,-19.75"/>
<polygon fill="midnightblue" stroke="midnightblue" points="490,-46.08 493.5,-56.08 497,-46.08 490,-46.08"/>
</g>
<!-- Node8 -->
<g id="node8" class="node">
<title>Node8</title>
<g id="a_node8"><a xlink:href="_fluid_synth_plugin___event_processor_8cpp.html" target="_top" xlink:title="The FluidSynthPlugin_Processor module implements the handling of MIDI events from the DAW via JUCE ha...">
<polygon fill="white" stroke="black" points="2132.5,-0.5 2132.5,-19.5 2314.5,-19.5 2314.5,-0.5 2132.5,-0.5"/>
<text text-anchor="middle" x="2223.5" y="-7.5" font-family="Helvetica,sans-Serif" font-size="10.00">FluidSynthPlugin_EventProcessor.cpp</text>
</a>
</g>
</g>
<!-- Node6&#45;&gt;Node8 -->
<g id="edge7" class="edge">
<title>Node6&#45;&gt;Node8</title>
<path fill="none" stroke="midnightblue" d="M581.43,-62.26C876.91,-53.03 1832.44,-23.21 2132.48,-13.84"/>
<polygon fill="midnightblue" stroke="midnightblue" points="581.08,-58.76 571.2,-62.57 581.3,-65.76 581.08,-58.76"/>
</g>
<!-- Node10&#45;&gt;Node6 -->
<g id="edge10" class="edge">
<title>Node10&#45;&gt;Node6</title>
<path fill="none" stroke="midnightblue" d="M375.85,-281.49C283.83,-269.03 144.17,-238.12 194.5,-168 244.5,-98.34 345.11,-76.1 415.76,-69.34"/>
<polygon fill="midnightblue" stroke="midnightblue" points="375.62,-284.99 385.99,-282.82 376.53,-278.05 375.62,-284.99"/>
</g>
<!-- Node11 -->
<g id="node11" class="node">
<title>Node11</title>
<g id="a_node11"><a xlink:href="_audio_sample_list_vector_8cpp.html" target="_top" xlink:title="The AudioSampleListVector body implements the communication buffer structure for the block processing...">
<polygon fill="white" stroke="black" points="307,-224.5 307,-243.5 444,-243.5 444,-224.5 307,-224.5"/>
<text text-anchor="middle" x="375.5" y="-231.5" font-family="Helvetica,sans-Serif" font-size="10.00">AudioSampleListVector.cpp</text>
</a>
</g>
</g>
<!-- Node10&#45;&gt;Node11 -->
<g id="edge11" class="edge">
<title>Node10&#45;&gt;Node11</title>
<path fill="none" stroke="midnightblue" d="M429.47,-274.38C416.09,-264.62 398.94,-252.11 387.61,-243.83"/>
<polygon fill="midnightblue" stroke="midnightblue" points="427.47,-277.26 437.61,-280.32 431.6,-271.6 427.47,-277.26"/>
</g>
<!-- Node12 -->
<g id="node12" class="node">
<title>Node12</title>
<g id="a_node12"><a xlink:href="_wave_file_8h.html" target="_top" xlink:title="The WaveFile specification defines an object for accessing a RIFF wave file with several channels.">
<polygon fill="white" stroke="black" points="2257,-224.5 2257,-243.5 2322,-243.5 2322,-224.5 2257,-224.5"/>
<text text-anchor="middle" x="2289.5" y="-231.5" font-family="Helvetica,sans-Serif" font-size="10.00">WaveFile.h</text>
</a>
</g>
</g>
<!-- Node10&#45;&gt;Node12 -->
<g id="edge12" class="edge">
<title>Node10&#45;&gt;Node12</title>
<path fill="none" stroke="midnightblue" d="M523.4,-286.83C835.92,-277.66 2042.72,-242.24 2256.9,-235.96"/>
<polygon fill="midnightblue" stroke="midnightblue" points="523,-283.34 513.1,-287.13 523.2,-290.34 523,-283.34"/>
</g>
<!-- Node15 -->
<g id="node15" class="node">
<title>Node15</title>
<g id="a_node15"><a xlink:href="_fluid_synth_synthesizer_8h.html" target="_top" xlink:title="The FluidSynthSynthesizer class specifies an object&#45;oriented wrapper around an underlying fluidsynth ...">
<polygon fill="white" stroke="black" points="462,-224.5 462,-243.5 585,-243.5 585,-224.5 462,-224.5"/>
<text text-anchor="middle" x="523.5" y="-231.5" font-family="Helvetica,sans-Serif" font-size="10.00">FluidSynthSynthesizer.h</text>
</a>
</g>
</g>
<!-- Node10&#45;&gt;Node15 -->
<g id="edge15" class="edge">
<title>Node10&#45;&gt;Node15</title>
<path fill="none" stroke="midnightblue" d="M469.53,-274.38C482.91,-264.62 500.06,-252.11 511.39,-243.83"/>
<polygon fill="midnightblue" stroke="midnightblue" points="467.4,-271.6 461.39,-280.32 471.53,-277.26 467.4,-271.6"/>
</g>
<!-- Node10&#45;&gt;Node20 -->
<g id="edge20" class="edge">
<title>Node10&#45;&gt;Node20</title>
<path fill="none" stroke="midnightblue" d="M523.48,-289.43C776.2,-290.43 1628.42,-289.93 2330.5,-244 2340.31,-243.36 2350.73,-242.44 2360.78,-241.42"/>
<polygon fill="midnightblue" stroke="midnightblue" points="523.34,-285.93 513.32,-289.39 523.31,-292.93 523.34,-285.93"/>
</g>
<!-- Node13 -->
<g id="node13" class="node">
<title>Node13</title>
<g id="a_node13"><a xlink:href="_wave_file_8cpp.html" target="_top" xlink:title="The WaveFile specification defines an object for accessing a RIFF wave file with several channels.">
<polygon fill="white" stroke="black" points="2252,-168.5 2252,-187.5 2327,-187.5 2327,-168.5 2252,-168.5"/>
<text text-anchor="middle" x="2289.5" y="-175.5" font-family="Helvetica,sans-Serif" font-size="10.00">WaveFile.cpp</text>
</a>
</g>
</g>
<!-- Node12&#45;&gt;Node13 -->
<g id="edge13" class="edge">
<title>Node12&#45;&gt;Node13</title>
<path fill="none" stroke="midnightblue" d="M2289.5,-213.8C2289.5,-204.91 2289.5,-194.78 2289.5,-187.75"/>
<polygon fill="midnightblue" stroke="midnightblue" points="2286,-214.08 2289.5,-224.08 2293,-214.08 2286,-214.08"/>
</g>
<!-- Node14 -->
<g id="node14" class="node">
<title>Node14</title>
<g id="a_node14"><a xlink:href="_fluid_synth_file_converter_8cpp.html" target="_top" xlink:title="The FluidSynthFileConverter module implements a conversion from a MIDI file into a wave file using th...">
<polygon fill="white" stroke="black" points="2345.5,-168.5 2345.5,-187.5 2483.5,-187.5 2483.5,-168.5 2345.5,-168.5"/>
<text text-anchor="middle" x="2414.5" y="-175.5" font-family="Helvetica,sans-Serif" font-size="10.00">FluidSynthFileConverter.cpp</text>
</a>
</g>
</g>
<!-- Node12&#45;&gt;Node14 -->
<g id="edge14" class="edge">
<title>Node12&#45;&gt;Node14</title>
<path fill="none" stroke="midnightblue" d="M2318.74,-220.37C2342.15,-210.26 2374.34,-196.35 2394.79,-187.52"/>
<polygon fill="midnightblue" stroke="midnightblue" points="2317.1,-217.26 2309.31,-224.44 2319.87,-223.69 2317.1,-217.26"/>
</g>
<!-- Node16 -->
<g id="node16" class="node">
<title>Node16</title>
<g id="a_node16"><a xlink:href="_fluid_synth_sound_font_8h.html" target="_top" xlink:title="The FluidSynthSoundFont class specifies an object&#45;oriented wrapper around an underlying fluidsynth so...">
<polygon fill="white" stroke="black" points="566,-168.5 566,-187.5 685,-187.5 685,-168.5 566,-168.5"/>
<text text-anchor="middle" x="625.5" y="-175.5" font-family="Helvetica,sans-Serif" font-size="10.00">FluidSynthSoundFont.h</text>
</a>
</g>
</g>
<!-- Node15&#45;&gt;Node16 -->
<g id="edge16" class="edge">
<title>Node15&#45;&gt;Node16</title>
<path fill="none" stroke="midnightblue" d="M548.83,-219.59C567.69,-209.61 592.88,-196.27 609.15,-187.65"/>
<polygon fill="midnightblue" stroke="midnightblue" points="547.09,-216.55 539.89,-224.32 550.36,-222.74 547.09,-216.55"/>
</g>
<!-- Node19 -->
<g id="node19" class="node">
<title>Node19</title>
<g id="a_node19"><a xlink:href="_fluid_synth_synthesizer_8cpp.html" target="_top" xlink:title="The FluidSynthSynthesizer class implements an object&#45;oriented wrapper around an underlying fluidsynth...">
<polygon fill="white" stroke="black" points="203.5,-168.5 203.5,-187.5 337.5,-187.5 337.5,-168.5 203.5,-168.5"/>
<text text-anchor="middle" x="270.5" y="-175.5" font-family="Helvetica,sans-Serif" font-size="10.00">FluidSynthSynthesizer.cpp</text>
</a>
</g>
</g>
<!-- Node15&#45;&gt;Node19 -->
<g id="edge19" class="edge">
<title>Node15&#45;&gt;Node19</title>
<path fill="none" stroke="midnightblue" d="M473.58,-222.35C425.77,-212.14 354.55,-196.94 310.4,-187.52"/>
<polygon fill="midnightblue" stroke="midnightblue" points="472.9,-225.78 483.41,-224.44 474.36,-218.93 472.9,-225.78"/>
</g>
<!-- Node17 -->
<g id="node17" class="node">
<title>Node17</title>
<g id="a_node17"><a xlink:href="_fluid_synth_sound_font_8cpp.html" target="_top" xlink:title="The FluidSynthSoundFont class implements an object&#45;oriented wrapper around an underlying fluidsynth s...">
<polygon fill="white" stroke="black" points="473,-112.5 473,-131.5 602,-131.5 602,-112.5 473,-112.5"/>
<text text-anchor="middle" x="537.5" y="-119.5" font-family="Helvetica,sans-Serif" font-size="10.00">FluidSynthSoundFont.cpp</text>
</a>
</g>
</g>
<!-- Node16&#45;&gt;Node17 -->
<g id="edge17" class="edge">
<title>Node16&#45;&gt;Node17</title>
<path fill="none" stroke="midnightblue" d="M602.52,-162.9C586.39,-153 565.32,-140.07 551.6,-131.65"/>
<polygon fill="midnightblue" stroke="midnightblue" points="601.01,-166.08 611.36,-168.32 604.67,-160.11 601.01,-166.08"/>
</g>
<!-- Node18 -->
<g id="node18" class="node">
<title>Node18</title>
<g id="a_node18"><a xlink:href="_midi_event_converter_8cpp.html" target="_top" xlink:title="The MidiEventConverter module implements the handling of MIDI events by feeding them to an underlying...">
<polygon fill="white" stroke="black" points="1962.5,-112.5 1962.5,-131.5 2080.5,-131.5 2080.5,-112.5 1962.5,-112.5"/>
<text text-anchor="middle" x="2021.5" y="-119.5" font-family="Helvetica,sans-Serif" font-size="10.00">MidiEventConverter.cpp</text>
</a>
</g>
</g>
<!-- Node16&#45;&gt;Node18 -->
<g id="edge18" class="edge">
<title>Node16&#45;&gt;Node18</title>
<path fill="none" stroke="midnightblue" d="M695.42,-170.62C707.77,-169.64 720.51,-168.71 732.5,-168 1206.38,-139.82 1779.38,-127.45 1962.35,-124.03"/>
<polygon fill="midnightblue" stroke="midnightblue" points="694.85,-167.16 685.17,-171.46 695.42,-174.13 694.85,-167.16"/>
</g>
<!-- Node20&#45;&gt;Node8 -->
<g id="edge22" class="edge">
<title>Node20&#45;&gt;Node8</title>
<path fill="none" stroke="midnightblue" d="M2459.41,-221.26C2490.31,-210.73 2523.3,-193.05 2508.5,-168 2455.05,-77.54 2328.82,-35.65 2263.79,-19.51"/>
<polygon fill="midnightblue" stroke="midnightblue" points="2457.98,-218.05 2449.52,-224.43 2460.11,-224.71 2457.98,-218.05"/>
</g>
<!-- Node20&#45;&gt;Node14 -->
<g id="edge21" class="edge">
<title>Node20&#45;&gt;Node14</title>
<path fill="none" stroke="midnightblue" d="M2414.5,-213.8C2414.5,-204.91 2414.5,-194.78 2414.5,-187.75"/>
<polygon fill="midnightblue" stroke="midnightblue" points="2411,-214.08 2414.5,-224.08 2418,-214.08 2411,-214.08"/>
</g>
<!-- Node20&#45;&gt;Node18 -->
<g id="edge23" class="edge">
<title>Node20&#45;&gt;Node18</title>
<path fill="none" stroke="midnightblue" d="M2448.7,-220.6C2477.46,-208.34 2511.14,-188.51 2492.5,-168 2465.29,-138.06 2201.04,-127.55 2080.68,-124.3"/>
<polygon fill="midnightblue" stroke="midnightblue" points="2447.16,-217.44 2439.22,-224.45 2449.8,-223.93 2447.16,-217.44"/>
</g>
<!-- Node21&#45;&gt;Node13 -->
<g id="edge25" class="edge">
<title>Node21&#45;&gt;Node13</title>
<path fill="none" stroke="midnightblue" d="M2236.33,-386.04C2227.17,-378.26 2217.42,-367.88 2212.5,-356 2209.1,-347.79 2211.16,-344.79 2212.5,-336 2220.37,-284.45 2221.27,-269.08 2247.5,-224 2255.88,-209.59 2269.65,-196.03 2279.12,-187.64"/>
<polygon fill="midnightblue" stroke="midnightblue" points="2234.42,-388.99 2244.44,-392.44 2238.75,-383.49 2234.42,-388.99"/>
</g>
<!-- Node22 -->
<g id="node22" class="node">
<title>Node22</title>
<g id="a_node22"><a xlink:href="_real_list_8cpp.html" target="_top" xlink:title="The RealList body implements lists of real values with zero&#45;based arbitrary indexed access to positio...">
<polygon fill="white" stroke="black" points="2222,-336.5 2222,-355.5 2293,-355.5 2293,-336.5 2222,-336.5"/>
<text text-anchor="middle" x="2257.5" y="-343.5" font-family="Helvetica,sans-Serif" font-size="10.00">RealList.cpp</text>
</a>
</g>
</g>
<!-- Node21&#45;&gt;Node22 -->
<g id="edge26" class="edge">
<title>Node21&#45;&gt;Node22</title>
<path fill="none" stroke="midnightblue" d="M2257.5,-381.8C2257.5,-372.91 2257.5,-362.78 2257.5,-355.75"/>
<polygon fill="midnightblue" stroke="midnightblue" points="2254,-382.08 2257.5,-392.08 2261,-382.08 2254,-382.08"/>
</g>
<!-- Node24 -->
<g id="node24" class="node">
<title>Node24</title>
<g id="a_node24"><a xlink:href="_string_util_8h.html" target="_top" xlink:title="The StringUtil specification defines several string routines not included in the standard C++ library...">
<polygon fill="white" stroke="black" points="1947,-336.5 1947,-355.5 2012,-355.5 2012,-336.5 1947,-336.5"/>
<text text-anchor="middle" x="1979.5" y="-343.5" font-family="Helvetica,sans-Serif" font-size="10.00">StringUtil.h</text>
</a>
</g>
</g>
<!-- Node23&#45;&gt;Node24 -->
<g id="edge28" class="edge">
<title>Node23&#45;&gt;Node24</title>
<path fill="none" stroke="midnightblue" d="M2032.36,-386.1C2019.22,-376.38 2002.52,-364.03 1991.44,-355.83"/>
<polygon fill="midnightblue" stroke="midnightblue" points="2030.65,-389.19 2040.77,-392.32 2034.81,-383.56 2030.65,-389.19"/>
</g>
<!-- Node25 -->
<g id="node25" class="node">
<title>Node25</title>
<g id="a_node25"><a xlink:href="_file_8cpp.html" target="_top" xlink:title="The File body implements a class for simple file handling based on C stdio.">
<polygon fill="white" stroke="black" points="1825,-280.5 1825,-299.5 1876,-299.5 1876,-280.5 1825,-280.5"/>
<text text-anchor="middle" x="1850.5" y="-287.5" font-family="Helvetica,sans-Serif" font-size="10.00">File.cpp</text>
</a>
</g>
</g>
<!-- Node24&#45;&gt;Node25 -->
<g id="edge29" class="edge">
<title>Node24&#45;&gt;Node25</title>
<path fill="none" stroke="midnightblue" d="M1949.65,-332.5C1925.46,-322.38 1892.04,-308.39 1870.84,-299.52"/>
<polygon fill="midnightblue" stroke="midnightblue" points="1948.48,-335.81 1959.06,-336.44 1951.19,-329.35 1948.48,-335.81"/>
</g>
<!-- Node26 -->
<g id="node26" class="node">
<title>Node26</title>
<g id="a_node26"><a xlink:href="_logging_8h.html" target="_top" xlink:title="The Logging specification defines macros for entry&#45;, exit&#45; and intermediate logging of functions into...">
<polygon fill="white" stroke="black" points="1500,-224.5 1500,-243.5 1559,-243.5 1559,-224.5 1500,-224.5"/>
<text text-anchor="middle" x="1529.5" y="-231.5" font-family="Helvetica,sans-Serif" font-size="10.00">Logging.h</text>
</a>
</g>
</g>
<!-- Node24&#45;&gt;Node26 -->
<g id="edge30" class="edge">
<title>Node24&#45;&gt;Node26</title>
<path fill="none" stroke="midnightblue" d="M1936.81,-339.49C1885.65,-332.42 1797.56,-318.81 1723.5,-300 1659.98,-283.87 1587.25,-257.23 1551.58,-243.6"/>
<polygon fill="midnightblue" stroke="midnightblue" points="1936.46,-342.97 1946.84,-340.85 1937.41,-336.03 1936.46,-342.97"/>
</g>
<!-- Node40 -->
<g id="node40" class="node">
<title>Node40</title>
<g id="a_node40"><a xlink:href="_string_util_8cpp.html" target="_top" xlink:title="The StringUtil body implements several string routines not included in the standard C++ library (like...">
<polygon fill="white" stroke="black" points="1894,-280.5 1894,-299.5 1969,-299.5 1969,-280.5 1894,-280.5"/>
<text text-anchor="middle" x="1931.5" y="-287.5" font-family="Helvetica,sans-Serif" font-size="10.00">StringUtil.cpp</text>
</a>
</g>
</g>
<!-- Node24&#45;&gt;Node40 -->
<g id="edge52" class="edge">
<title>Node24&#45;&gt;Node40</title>
<path fill="none" stroke="midnightblue" d="M1964.77,-328.43C1956.36,-318.97 1946.15,-307.48 1939.28,-299.75"/>
<polygon fill="midnightblue" stroke="midnightblue" points="1962.31,-330.93 1971.57,-336.08 1967.55,-326.28 1962.31,-330.93"/>
</g>
<!-- Node41 -->
<g id="node41" class="node">
<title>Node41</title>
<g id="a_node41"><a xlink:href="_natural_list_8cpp.html" target="_top" xlink:title="The NaturalList body implements lists of non&#45;negative integer values with zero&#45;based arbitrary indexe...">
<polygon fill="white" stroke="black" points="1987.5,-280.5 1987.5,-299.5 2069.5,-299.5 2069.5,-280.5 1987.5,-280.5"/>
<text text-anchor="middle" x="2028.5" y="-287.5" font-family="Helvetica,sans-Serif" font-size="10.00">NaturalList.cpp</text>
</a>
</g>
</g>
<!-- Node24&#45;&gt;Node41 -->
<g id="edge53" class="edge">
<title>Node24&#45;&gt;Node41</title>
<path fill="none" stroke="midnightblue" d="M1994.53,-328.43C2003.12,-318.97 2013.54,-307.48 2020.56,-299.75"/>
<polygon fill="midnightblue" stroke="midnightblue" points="1991.72,-326.33 1987.59,-336.08 1996.9,-331.03 1991.72,-326.33"/>
</g>
<!-- Node42 -->
<g id="node42" class="node">
<title>Node42</title>
<g id="a_node42"><a xlink:href="_string_list_8cpp.html" target="_top" xlink:title="The StringList body implements lists of string values with zero&#45;based arbitrary indexed access to pos...">
<polygon fill="white" stroke="black" points="2088,-280.5 2088,-299.5 2165,-299.5 2165,-280.5 2088,-280.5"/>
<text text-anchor="middle" x="2126.5" y="-287.5" font-family="Helvetica,sans-Serif" font-size="10.00">StringList.cpp</text>
</a>
</g>
</g>
<!-- Node24&#45;&gt;Node42 -->
<g id="edge54" class="edge">
<title>Node24&#45;&gt;Node42</title>
<path fill="none" stroke="midnightblue" d="M2012.42,-332.91C2040.06,-322.75 2078.84,-308.51 2103.32,-299.52"/>
<polygon fill="midnightblue" stroke="midnightblue" points="2010.97,-329.71 2002.79,-336.44 2013.39,-336.28 2010.97,-329.71"/>
</g>
<!-- Node43 -->
<g id="node43" class="node">
<title>Node43</title>
<g id="a_node43"><a xlink:href="_my_string_8cpp.html" target="_top" xlink:title="The String body implements a standard string type.">
<polygon fill="white" stroke="black" points="1732.5,-280.5 1732.5,-299.5 1806.5,-299.5 1806.5,-280.5 1732.5,-280.5"/>
<text text-anchor="middle" x="1769.5" y="-287.5" font-family="Helvetica,sans-Serif" font-size="10.00">MyString.cpp</text>
</a>
</g>
</g>
<!-- Node24&#45;&gt;Node43 -->
<g id="edge55" class="edge">
<title>Node24&#45;&gt;Node43</title>
<path fill="none" stroke="midnightblue" d="M1936.79,-334.02C1897.18,-323.83 1839.04,-308.88 1802.78,-299.56"/>
<polygon fill="midnightblue" stroke="midnightblue" points="1936.13,-337.46 1946.69,-336.56 1937.87,-330.68 1936.13,-337.46"/>
</g>
<!-- Node24&#45;&gt;Node44 -->
<g id="edge56" class="edge">
<title>Node24&#45;&gt;Node44</title>
<path fill="none" stroke="midnightblue" d="M2022.33,-337.21C2084.11,-325.98 2196.54,-305.54 2248.63,-296.07"/>
<polygon fill="midnightblue" stroke="midnightblue" points="2021.35,-333.83 2012.13,-339.07 2022.6,-340.72 2021.35,-333.83"/>
</g>
<!-- Node26&#45;&gt;Node8 -->
<g id="edge46" class="edge">
<title>Node26&#45;&gt;Node8</title>
<path fill="none" stroke="midnightblue" d="M1569.2,-233.25C1706.84,-233.72 2157.58,-231.86 2203.5,-188 2251.58,-142.08 2233.01,-48.45 2225.83,-19.63"/>
<polygon fill="midnightblue" stroke="midnightblue" points="1569.11,-229.75 1559.1,-233.21 1569.08,-236.75 1569.11,-229.75"/>
</g>
<!-- Node26&#45;&gt;Node13 -->
<g id="edge35" class="edge">
<title>Node26&#45;&gt;Node13</title>
<path fill="none" stroke="midnightblue" d="M1569.4,-231.97C1677.36,-228.87 1984.18,-217.88 2237.5,-188 2242.14,-187.45 2247,-186.77 2251.8,-186.02"/>
<polygon fill="midnightblue" stroke="midnightblue" points="1569.18,-228.48 1559.28,-232.26 1569.38,-235.47 1569.18,-228.48"/>
</g>
<!-- Node26&#45;&gt;Node14 -->
<g id="edge43" class="edge">
<title>Node26&#45;&gt;Node14</title>
<path fill="none" stroke="midnightblue" d="M1569.5,-231.58C1687.11,-227.24 2041.98,-212.89 2335.5,-188 2338.66,-187.73 2341.9,-187.44 2345.16,-187.13"/>
<polygon fill="midnightblue" stroke="midnightblue" points="1569.05,-228.1 1559.18,-231.96 1569.31,-235.09 1569.05,-228.1"/>
</g>
<!-- Node26&#45;&gt;Node17 -->
<g id="edge41" class="edge">
<title>Node26&#45;&gt;Node17</title>
<path fill="none" stroke="midnightblue" d="M1489.55,-232.44C1311.07,-229.78 593.73,-217.27 556.5,-188 539.31,-174.48 537.07,-146.3 537.13,-131.89"/>
<polygon fill="midnightblue" stroke="midnightblue" points="1489.75,-235.94 1499.8,-232.59 1489.86,-228.94 1489.75,-235.94"/>
</g>
<!-- Node26&#45;&gt;Node18 -->
<g id="edge48" class="edge">
<title>Node26&#45;&gt;Node18</title>
<path fill="none" stroke="midnightblue" d="M1569.18,-231.75C1676.97,-227.99 1969.39,-215.37 2002.5,-188 2019.36,-174.07 2021.75,-146.07 2021.8,-131.8"/>
<polygon fill="midnightblue" stroke="midnightblue" points="1568.91,-228.25 1559.04,-232.09 1569.15,-235.25 1568.91,-228.25"/>
</g>
<!-- Node26&#45;&gt;Node19 -->
<g id="edge42" class="edge">
<title>Node26&#45;&gt;Node19</title>
<path fill="none" stroke="midnightblue" d="M1489.62,-232.64C1339.5,-231.03 794.23,-222.97 346.5,-188 343.59,-187.77 340.61,-187.52 337.61,-187.24"/>
<polygon fill="midnightblue" stroke="midnightblue" points="1489.7,-236.14 1499.74,-232.74 1489.77,-229.14 1489.7,-236.14"/>
</g>
<!-- Node27 -->
<g id="node27" class="node">
<title>Node27</title>
<g id="a_node27"><a xlink:href="_audio_sample_fifo_queue_8cpp-inc.html" target="_top" xlink:title="The AudioSampleFifoQueue body implements a fifo queue for audio samples with popping off access to th...">
<polygon fill="white" stroke="black" points="356,-168.5 356,-187.5 509,-187.5 509,-168.5 356,-168.5"/>
<text text-anchor="middle" x="432.5" y="-175.5" font-family="Helvetica,sans-Serif" font-size="10.00">AudioSampleFifoQueue.cpp&#45;inc</text>
</a>
</g>
</g>
<!-- Node26&#45;&gt;Node27 -->
<g id="edge31" class="edge">
<title>Node26&#45;&gt;Node27</title>
<path fill="none" stroke="midnightblue" d="M1489.53,-231.99C1353.89,-228.38 898.72,-214.93 523.5,-188 518.91,-187.67 514.19,-187.3 509.43,-186.9"/>
<polygon fill="midnightblue" stroke="midnightblue" points="1489.75,-235.49 1499.84,-232.26 1489.94,-228.5 1489.75,-235.49"/>
</g>
<!-- Node28 -->
<g id="node28" class="node">
<title>Node28</title>
<g id="a_node28"><a xlink:href="_audio_sample_fifo_queue_vector_8cpp-inc.html" target="_top" xlink:title="The AudioSampleFifoQueueVector body implements a list of fifo queues for audio samples (this is the e...">
<polygon fill="white" stroke="black" points="621.5,-112.5 621.5,-131.5 803.5,-131.5 803.5,-112.5 621.5,-112.5"/>
<text text-anchor="middle" x="712.5" y="-119.5" font-family="Helvetica,sans-Serif" font-size="10.00">AudioSampleFifoQueueVector.cpp&#45;inc</text>
</a>
</g>
</g>
<!-- Node26&#45;&gt;Node28 -->
<g id="edge33" class="edge">
<title>Node26&#45;&gt;Node28</title>
<path fill="none" stroke="midnightblue" d="M1489.64,-233.37C1336.63,-234.45 792.44,-234.94 732.5,-188 715.21,-174.46 712.49,-146.28 712.29,-131.88"/>
<polygon fill="midnightblue" stroke="midnightblue" points="1490,-236.87 1499.97,-233.29 1489.94,-229.87 1490,-236.87"/>
</g>
<!-- Node29 -->
<g id="node29" class="node">
<title>Node29</title>
<g id="a_node29"><a xlink:href="_command_line_arguments_8cpp.html" target="_top" xlink:title="The CommandLineArguments body implements a handler for command&#45;line arguments converting them to a li...">
<polygon fill="white" stroke="black" points="2050,-168.5 2050,-187.5 2195,-187.5 2195,-168.5 2050,-168.5"/>
<text text-anchor="middle" x="2122.5" y="-175.5" font-family="Helvetica,sans-Serif" font-size="10.00">CommandLineArguments.cpp</text>
</a>
</g>
</g>
<!-- Node26&#45;&gt;Node29 -->
<g id="edge36" class="edge">
<title>Node26&#45;&gt;Node29</title>
<path fill="none" stroke="midnightblue" d="M1569.2,-229.66C1654.57,-222.45 1861.9,-204.7 2035.5,-188 2040.19,-187.55 2045.01,-187.08 2049.88,-186.59"/>
<polygon fill="midnightblue" stroke="midnightblue" points="1568.84,-226.18 1559.17,-230.51 1569.43,-233.16 1568.84,-226.18"/>
</g>
<!-- Node30 -->
<g id="node30" class="node">
<title>Node30</title>
<g id="a_node30"><a xlink:href="_environment_8cpp.html" target="_top" xlink:title="The Environment body implements operating system services related to environment variables.">
<polygon fill="white" stroke="black" points="742,-168.5 742,-187.5 831,-187.5 831,-168.5 742,-168.5"/>
<text text-anchor="middle" x="786.5" y="-175.5" font-family="Helvetica,sans-Serif" font-size="10.00">Environment.cpp</text>
</a>
</g>
</g>
<!-- Node26&#45;&gt;Node30 -->
<g id="edge37" class="edge">
<title>Node26&#45;&gt;Node30</title>
<path fill="none" stroke="midnightblue" d="M1489.56,-231.84C1383.42,-228.43 1085.6,-216.84 839.5,-188 836.81,-187.68 834.05,-187.33 831.27,-186.94"/>
<polygon fill="midnightblue" stroke="midnightblue" points="1489.71,-235.34 1499.81,-232.16 1489.93,-228.34 1489.71,-235.34"/>
</g>
<!-- Node31 -->
<g id="node31" class="node">
<title>Node31</title>
<g id="a_node31"><a xlink:href="_operating_system_8cpp.html" target="_top" xlink:title="The OperatingSystem body implements a class for several operating system related utility functions (l...">
<polygon fill="white" stroke="black" points="849,-168.5 849,-187.5 960,-187.5 960,-168.5 849,-168.5"/>
<text text-anchor="middle" x="904.5" y="-175.5" font-family="Helvetica,sans-Serif" font-size="10.00">OperatingSystem.cpp</text>
</a>
</g>
</g>
<!-- Node26&#45;&gt;Node31 -->
<g id="edge38" class="edge">
<title>Node26&#45;&gt;Node31</title>
<path fill="none" stroke="midnightblue" d="M1489.77,-230.59C1398,-224.86 1164.19,-209.28 969.5,-188 966.44,-187.67 963.31,-187.3 960.14,-186.92"/>
<polygon fill="midnightblue" stroke="midnightblue" points="1489.8,-234.1 1500,-231.23 1490.23,-227.12 1489.8,-234.1"/>
</g>
<!-- Node32 -->
<g id="node32" class="node">
<title>Node32</title>
<g id="a_node32"><a xlink:href="_fluid_synth_8cpp.html" target="_top" xlink:title="The FluidSynth class implements the access to the fluidsynth library via a dynamic loading of it.">
<polygon fill="white" stroke="black" points="978.5,-168.5 978.5,-187.5 1060.5,-187.5 1060.5,-168.5 978.5,-168.5"/>
<text text-anchor="middle" x="1019.5" y="-175.5" font-family="Helvetica,sans-Serif" font-size="10.00">FluidSynth.cpp</text>
</a>
</g>
</g>
<!-- Node26&#45;&gt;Node32 -->
<g id="edge39" class="edge">
<title>Node26&#45;&gt;Node32</title>
<path fill="none" stroke="midnightblue" d="M1489.69,-230.19C1409.8,-224.32 1224.3,-209.47 1069.5,-188 1066.62,-187.6 1063.65,-187.15 1060.66,-186.68"/>
<polygon fill="midnightblue" stroke="midnightblue" points="1489.58,-233.69 1499.8,-230.93 1490.08,-226.71 1489.58,-233.69"/>
</g>
<!-- Node33 -->
<g id="node33" class="node">
<title>Node33</title>
<g id="a_node33"><a xlink:href="_fluid_synth_settings_8cpp.html" target="_top" xlink:title="The FluidSynthSettings class implements an object&#45;oriented wrapper around an underlying fluidsynth se...">
<polygon fill="white" stroke="black" points="1078.5,-168.5 1078.5,-187.5 1196.5,-187.5 1196.5,-168.5 1078.5,-168.5"/>
<text text-anchor="middle" x="1137.5" y="-175.5" font-family="Helvetica,sans-Serif" font-size="10.00">FluidSynthSettings.cpp</text>
</a>
</g>
</g>
<!-- Node26&#45;&gt;Node33 -->
<g id="edge40" class="edge">
<title>Node26&#45;&gt;Node33</title>
<path fill="none" stroke="midnightblue" d="M1489.65,-227.51C1420.38,-217.97 1277.45,-198.28 1196.6,-187.14"/>
<polygon fill="midnightblue" stroke="midnightblue" points="1489.33,-231 1499.71,-228.9 1490.29,-224.06 1489.33,-231"/>
</g>
<!-- Node34 -->
<g id="node34" class="node">
<title>Node34</title>
<g id="a_node34"><a xlink:href="_fluid_synth_plugin___editor_8cpp.html" target="_top" xlink:title="The FluidSynthPlugin_Editor module implements the editor for the processor of MIDI events from the DA...">
<polygon fill="white" stroke="black" points="1214.5,-168.5 1214.5,-187.5 1354.5,-187.5 1354.5,-168.5 1214.5,-168.5"/>
<text text-anchor="middle" x="1284.5" y="-175.5" font-family="Helvetica,sans-Serif" font-size="10.00">FluidSynthPlugin_Editor.cpp</text>
</a>
</g>
</g>
<!-- Node26&#45;&gt;Node34 -->
<g id="edge44" class="edge">
<title>Node26&#45;&gt;Node34</title>
<path fill="none" stroke="midnightblue" d="M1490.08,-224.31C1444.24,-214.21 1369.07,-197.64 1323.44,-187.58"/>
<polygon fill="midnightblue" stroke="midnightblue" points="1489.43,-227.75 1499.95,-226.49 1490.94,-220.92 1489.43,-227.75"/>
</g>
<!-- Node35 -->
<g id="node35" class="node">
<title>Node35</title>
<g id="a_node35"><a xlink:href="_fluid_synth_plugin___editor_support_8cpp.html" target="_top" xlink:title="The FluidSynthPlugin_EditorSupport module implements support services for the editor of the FluidSynt...">
<polygon fill="white" stroke="black" points="1373,-168.5 1373,-187.5 1546,-187.5 1546,-168.5 1373,-168.5"/>
<text text-anchor="middle" x="1459.5" y="-175.5" font-family="Helvetica,sans-Serif" font-size="10.00">FluidSynthPlugin_EditorSupport.cpp</text>
</a>
</g>
</g>
<!-- Node26&#45;&gt;Node35 -->
<g id="edge45" class="edge">
<title>Node26&#45;&gt;Node35</title>
<path fill="none" stroke="midnightblue" d="M1510.19,-218.1C1497.59,-208.38 1481.57,-196.03 1470.95,-187.83"/>
<polygon fill="midnightblue" stroke="midnightblue" points="1508.2,-220.99 1518.25,-224.32 1512.47,-215.44 1508.2,-220.99"/>
</g>
<!-- Node36 -->
<g id="node36" class="node">
<title>Node36</title>
<g id="a_node36"><a xlink:href="_midi_event_8cpp.html" target="_top" xlink:title="The MidiEvent implementation defines the services of a single MIDI event.">
<polygon fill="white" stroke="black" points="1564,-168.5 1564,-187.5 1641,-187.5 1641,-168.5 1564,-168.5"/>
<text text-anchor="middle" x="1602.5" y="-175.5" font-family="Helvetica,sans-Serif" font-size="10.00">MidiEvent.cpp</text>
</a>
</g>
</g>
<!-- Node26&#45;&gt;Node36 -->
<g id="edge47" class="edge">
<title>Node26&#45;&gt;Node36</title>
<path fill="none" stroke="midnightblue" d="M1549.64,-218.1C1562.78,-208.38 1579.48,-196.03 1590.56,-187.83"/>
<polygon fill="midnightblue" stroke="midnightblue" points="1547.19,-215.56 1541.23,-224.32 1551.35,-221.19 1547.19,-215.56"/>
</g>
<!-- Node37 -->
<g id="node37" class="node">
<title>Node37</title>
<g id="a_node37"><a xlink:href="_midi_event_list_8cpp.html" target="_top" xlink:title="The MIDIEventList body implements sequences of integer values with zero&#45;based arbitrary indexed acces...">
<polygon fill="white" stroke="black" points="1659,-168.5 1659,-187.5 1752,-187.5 1752,-168.5 1659,-168.5"/>
<text text-anchor="middle" x="1705.5" y="-175.5" font-family="Helvetica,sans-Serif" font-size="10.00">MidiEventList.cpp</text>
</a>
</g>
</g>
<!-- Node26&#45;&gt;Node37 -->
<g id="edge49" class="edge">
<title>Node26&#45;&gt;Node37</title>
<path fill="none" stroke="midnightblue" d="M1567.19,-221.44C1600.37,-211.26 1647.93,-196.66 1677.74,-187.52"/>
<polygon fill="midnightblue" stroke="midnightblue" points="1565.92,-218.16 1557.39,-224.44 1567.97,-224.86 1565.92,-218.16"/>
</g>
<!-- Node38 -->
<g id="node38" class="node">
<title>Node38</title>
<g id="a_node38"><a xlink:href="_midi_file_8cpp.html" target="_top" xlink:title="The MidiFile implementation implements the services of a MIDI file; currently only file reading is su...">
<polygon fill="white" stroke="black" points="1770,-168.5 1770,-187.5 1839,-187.5 1839,-168.5 1770,-168.5"/>
<text text-anchor="middle" x="1804.5" y="-175.5" font-family="Helvetica,sans-Serif" font-size="10.00">MidiFile.cpp</text>
</a>
</g>
</g>
<!-- Node26&#45;&gt;Node38 -->
<g id="edge50" class="edge">
<title>Node26&#45;&gt;Node38</title>
<path fill="none" stroke="midnightblue" d="M1568.92,-225.44C1614.92,-216.59 1693.26,-201.43 1760.5,-188 1763.56,-187.39 1766.74,-186.75 1769.92,-186.11"/>
<polygon fill="midnightblue" stroke="midnightblue" points="1568.21,-222.01 1559.05,-227.33 1569.53,-228.88 1568.21,-222.01"/>
</g>
<!-- Node39 -->
<g id="node39" class="node">
<title>Node39</title>
<g id="a_node39"><a xlink:href="_midi_preset_identification_8cpp.html" target="_top" xlink:title="The MidiPresetIdentification body implements the identification of a MIDI preset as a tuple of bank a...">
<polygon fill="white" stroke="black" points="1857.5,-168.5 1857.5,-187.5 1993.5,-187.5 1993.5,-168.5 1857.5,-168.5"/>
<text text-anchor="middle" x="1925.5" y="-175.5" font-family="Helvetica,sans-Serif" font-size="10.00">MidiPresetIdentification.cpp</text>
</a>
</g>
</g>
<!-- Node26&#45;&gt;Node39 -->
<g id="edge51" class="edge">
<title>Node26&#45;&gt;Node39</title>
<path fill="none" stroke="midnightblue" d="M1569.3,-227.57C1638.36,-218.16 1780.85,-198.72 1863.15,-187.5"/>
<polygon fill="midnightblue" stroke="midnightblue" points="1568.7,-224.12 1559.26,-228.94 1569.65,-231.06 1568.7,-224.12"/>
</g>
<!-- Node27&#45;&gt;Node4 -->
<g id="edge32" class="edge">
<title>Node27&#45;&gt;Node4</title>
<path fill="none" stroke="midnightblue" d="M371.25,-166.73C310.4,-156.52 218.18,-141.06 161.28,-131.52"/>
<polygon fill="midnightblue" stroke="midnightblue" points="371.04,-170.24 381.48,-168.44 372.19,-163.34 371.04,-170.24"/>
</g>
<!-- Node28&#45;&gt;Node6 -->
<g id="edge34" class="edge">
<title>Node28&#45;&gt;Node6</title>
<path fill="none" stroke="midnightblue" d="M667.99,-110.02C626.62,-99.82 565.86,-84.84 528.04,-75.52"/>
<polygon fill="midnightblue" stroke="midnightblue" points="667.25,-113.45 677.8,-112.44 668.93,-106.65 667.25,-113.45"/>
</g>
</g>
</svg>
