<?xml version="1.0" encoding="UTF-8" standalone="no"?>
<!DOCTYPE svg PUBLIC "-//W3C//DTD SVG 1.1//EN"
 "http://www.w3.org/Graphics/SVG/1.1/DTD/svg11.dtd">
<!-- Generated by graphviz version 2.47.1 (20210417.1919)
 -->
<!-- Title: Real.cpp Pages: 1 -->
<svg width="418pt" height="412pt"
 viewBox="0.00 0.00 418.00 412.00" xmlns="http://www.w3.org/2000/svg" xmlns:xlink="http://www.w3.org/1999/xlink">

<svg id="main" version="1.1" xmlns="http://www.w3.org/2000/svg" xmlns:xlink="http://www.w3.org/1999/xlink" xml:space="preserve">

<style type="text/css"><![CDATA[
.node, .edge {opacity: 0.7;}
.node.selected, .edge.selected {opacity: 1;}
.edge:hover path { stroke: red; }
.edge:hover polygon { stroke: red; fill: red; }
]]></style>
<script type="application/ecmascript" xlink:href="svg.min.js"/>
<svg id="graph" class="graph">
<g id="graph0" class="graph" transform="scale(1 1) rotate(0) translate(4 408)">
<title>Real.cpp</title>
<!-- Node1 -->
<g id="Node000001" class="node">
<title>Node1</title>
<g id="a_Node000001"><a xlink:title="The Real body implements a value object type for real values.">
<polygon fill="#999999" stroke="#666666" points="136.5,-404 81.5,-404 81.5,-385 136.5,-385 136.5,-404"/>
<text text-anchor="middle" x="109" y="-392" font-family="Helvetica,sans-Serif" font-size="10.00">Real.cpp</text>
</a>
</g>
</g>
<!-- Node2 -->
<g id="Node000002" class="node">
<title>Node2</title>
<g id="a_Node000002"><a xlink:title=" ">
<polygon fill="#e0e0e0" stroke="#999999" points="110,-74 66,-74 66,-55 110,-55 110,-74"/>
<text text-anchor="middle" x="88" y="-62" font-family="Helvetica,sans-Serif" font-size="10.00">cmath</text>
</a>
</g>
</g>
<!-- Node1&#45;&gt;Node2 -->
<g id="edge1_Node000001_Node000002" class="edge">
<title>Node1&#45;&gt;Node2</title>
<g id="a_edge1_Node000001_Node000002"><a xlink:title=" ">
<path fill="none" stroke="#63b8ff" d="M89.26,-384.93C57.85,-369.8 0,-335.18 0,-285.5 0,-285.5 0,-285.5 0,-173.5 0,-132.39 38.79,-98.26 64.86,-79.97"/>
<polygon fill="#63b8ff" stroke="#63b8ff" points="67.13,-82.66 73.47,-74.17 63.22,-76.85 67.13,-82.66"/>
</a>
</g>
</g>
<!-- Node3 -->
<g id="Node000003" class="node">
<title>Node3</title>
<g id="a_Node000003"><a xlink:href="_my_string_8h.html" target="_top" xlink:title="The String specification defines a standard string type.">
<polygon fill="white" stroke="#666666" points="386,-74 322,-74 322,-55 386,-55 386,-74"/>
<text text-anchor="middle" x="354" y="-62" font-family="Helvetica,sans-Serif" font-size="10.00">MyString.h</text>
</a>
</g>
</g>
<!-- Node1&#45;&gt;Node3 -->
<g id="edge2_Node000001_Node000003" class="edge">
<title>Node1&#45;&gt;Node3</title>
<g id="a_edge2_Node000001_Node000003"><a xlink:title=" ">
<path fill="none" stroke="#63b8ff" d="M136.51,-389.66C210.82,-378.53 410,-343.31 410,-285.5 410,-285.5 410,-285.5 410,-173.5 410,-137.65 385.38,-101.86 368.79,-81.81"/>
<polygon fill="#63b8ff" stroke="#63b8ff" points="371.44,-79.52 362.26,-74.23 366.13,-84.09 371.44,-79.52"/>
</a>
</g>
</g>
<!-- Node6 -->
<g id="Node000006" class="node">
<title>Node6</title>
<g id="a_Node000006"><a xlink:href="_real_8h.html" target="_top" xlink:title="The Real specification defines a value object type for real values.">
<polygon fill="white" stroke="#666666" points="73,-239 29,-239 29,-220 73,-220 73,-239"/>
<text text-anchor="middle" x="51" y="-227" font-family="Helvetica,sans-Serif" font-size="10.00">Real.h</text>
</a>
</g>
</g>
<!-- Node1&#45;&gt;Node6 -->
<g id="edge5_Node000001_Node000006" class="edge">
<title>Node1&#45;&gt;Node6</title>
<g id="a_edge5_Node000001_Node000006"><a xlink:title=" ">
<path fill="none" stroke="#63b8ff" d="M103.55,-384.84C93.24,-368.03 70.95,-329.51 60,-294 55.53,-279.5 53.27,-262.44 52.13,-249.66"/>
<polygon fill="#63b8ff" stroke="#63b8ff" points="55.59,-249.04 51.37,-239.32 48.61,-249.55 55.59,-249.04"/>
</a>
</g>
</g>
<!-- Node12 -->
<g id="Node000012" class="node">
<title>Node12</title>
<g id="a_Node000012"><a xlink:href="_string_util_8h.html" target="_top" xlink:title="The StringUtil specification defines several string routines not included in the standard C++ library...">
<polygon fill="white" stroke="#666666" points="242.5,-349 177.5,-349 177.5,-330 242.5,-330 242.5,-349"/>
<text text-anchor="middle" x="210" y="-337" font-family="Helvetica,sans-Serif" font-size="10.00">StringUtil.h</text>
</a>
</g>
</g>
<!-- Node1&#45;&gt;Node12 -->
<g id="edge16_Node000001_Node000012" class="edge">
<title>Node1&#45;&gt;Node12</title>
<g id="a_edge16_Node000001_Node000012"><a xlink:title=" ">
<path fill="none" stroke="#63b8ff" d="M125.23,-384.98C141.18,-376.61 165.78,-363.7 184.38,-353.95"/>
<polygon fill="#63b8ff" stroke="#63b8ff" points="186.25,-356.92 193.48,-349.17 183,-350.72 186.25,-356.92"/>
</a>
</g>
</g>
<!-- Node4 -->
<g id="Node000004" class="node">
<title>Node4</title>
<g id="a_Node000004"><a xlink:title=" ">
<polygon fill="#e0e0e0" stroke="#999999" points="292.5,-19 251.5,-19 251.5,0 292.5,0 292.5,-19"/>
<text text-anchor="middle" x="272" y="-7" font-family="Helvetica,sans-Serif" font-size="10.00">string</text>
</a>
</g>
</g>
<!-- Node3&#45;&gt;Node4 -->
<g id="edge3_Node000003_Node000004" class="edge">
<title>Node3&#45;&gt;Node4</title>
<g id="a_edge3_Node000003_Node000004"><a xlink:title=" ">
<path fill="none" stroke="#63b8ff" d="M340.83,-54.98C328.23,-46.84 309,-34.41 294.06,-24.76"/>
<polygon fill="#63b8ff" stroke="#63b8ff" points="295.71,-21.66 285.41,-19.17 291.91,-27.54 295.71,-21.66"/>
</a>
</g>
</g>
<!-- Node5 -->
<g id="Node000005" class="node">
<title>Node5</title>
<g id="a_Node000005"><a xlink:href="_global_macros_8h.html" target="_top" xlink:title="The GlobalMacros specification defines simple macros (e.g. for parameter modes).">
<polygon fill="white" stroke="#666666" points="396.5,-19 311.5,-19 311.5,0 396.5,0 396.5,-19"/>
<text text-anchor="middle" x="354" y="-7" font-family="Helvetica,sans-Serif" font-size="10.00">GlobalMacros.h</text>
</a>
</g>
</g>
<!-- Node3&#45;&gt;Node5 -->
<g id="edge4_Node000003_Node000005" class="edge">
<title>Node3&#45;&gt;Node5</title>
<g id="a_edge4_Node000003_Node000005"><a xlink:title=" ">
<path fill="none" stroke="#63b8ff" d="M354,-54.75C354,-47.8 354,-37.85 354,-29.13"/>
<polygon fill="#63b8ff" stroke="#63b8ff" points="357.5,-29.09 354,-19.09 350.5,-29.09 357.5,-29.09"/>
</a>
</g>
</g>
<!-- Node7 -->
<g id="Node000007" class="node">
<title>Node7</title>
<g id="a_Node000007"><a xlink:href="_integer_8h.html" target="_top" xlink:title="The Integer specification and body provides a value object type for ints.">
<polygon fill="white" stroke="#666666" points="84,-184 30,-184 30,-165 84,-165 84,-184"/>
<text text-anchor="middle" x="57" y="-172" font-family="Helvetica,sans-Serif" font-size="10.00">Integer.h</text>
</a>
</g>
</g>
<!-- Node6&#45;&gt;Node7 -->
<g id="edge6_Node000006_Node000007" class="edge">
<title>Node6&#45;&gt;Node7</title>
<g id="a_edge6_Node000006_Node000007"><a xlink:title=" ">
<path fill="none" stroke="#63b8ff" d="M51.99,-219.75C52.78,-212.8 53.9,-202.85 54.89,-194.13"/>
<polygon fill="#63b8ff" stroke="#63b8ff" points="58.38,-194.42 56.03,-184.09 51.42,-193.63 58.38,-194.42"/>
</a>
</g>
</g>
<!-- Node7&#45;&gt;Node2 -->
<g id="edge7_Node000007_Node000002" class="edge">
<title>Node7&#45;&gt;Node2</title>
<g id="a_edge7_Node000007_Node000002"><a xlink:title=" ">
<path fill="none" stroke="#63b8ff" d="M59.54,-164.66C64.58,-147.09 75.96,-107.45 82.7,-83.95"/>
<polygon fill="#63b8ff" stroke="#63b8ff" points="86.12,-84.74 85.51,-74.16 79.39,-82.8 86.12,-84.74"/>
</a>
</g>
</g>
<!-- Node8 -->
<g id="Node000008" class="node">
<title>Node8</title>
<g id="a_Node000008"><a xlink:title=" ">
<polygon fill="#e0e0e0" stroke="#999999" points="151.5,-19 92.5,-19 92.5,0 151.5,0 151.5,-19"/>
<text text-anchor="middle" x="122" y="-7" font-family="Helvetica,sans-Serif" font-size="10.00">stdexcept</text>
</a>
</g>
</g>
<!-- Node7&#45;&gt;Node8 -->
<g id="edge8_Node000007_Node000008" class="edge">
<title>Node7&#45;&gt;Node8</title>
<g id="a_edge8_Node000007_Node000008"><a xlink:title=" ">
<path fill="none" stroke="#63b8ff" d="M54.41,-164.81C48.82,-144.29 37.62,-91.76 57,-55 64.24,-41.27 77.83,-30.97 90.72,-23.76"/>
<polygon fill="#63b8ff" stroke="#63b8ff" points="92.59,-26.73 99.88,-19.05 89.39,-20.51 92.59,-26.73"/>
</a>
</g>
</g>
<!-- Node9 -->
<g id="Node000009" class="node">
<title>Node9</title>
<g id="a_Node000009"><a xlink:href="_natural_8h.html" target="_top" xlink:title="The Natural specification and body provides a value object type for naturals (positive integers with ...">
<polygon fill="white" stroke="#666666" points="236,-129 180,-129 180,-110 236,-110 236,-129"/>
<text text-anchor="middle" x="208" y="-117" font-family="Helvetica,sans-Serif" font-size="10.00">Natural.h</text>
</a>
</g>
</g>
<!-- Node7&#45;&gt;Node9 -->
<g id="edge9_Node000007_Node000009" class="edge">
<title>Node7&#45;&gt;Node9</title>
<g id="a_edge9_Node000007_Node000009"><a xlink:title=" ">
<path fill="none" stroke="#63b8ff" d="M81.26,-164.98C106.32,-156.19 145.63,-142.39 173.83,-132.49"/>
<polygon fill="#63b8ff" stroke="#63b8ff" points="175.02,-135.78 183.3,-129.17 172.7,-129.18 175.02,-135.78"/>
</a>
</g>
</g>
<!-- Node9&#45;&gt;Node2 -->
<g id="edge10_Node000009_Node000002" class="edge">
<title>Node9&#45;&gt;Node2</title>
<g id="a_edge10_Node000009_Node000002"><a xlink:title=" ">
<path fill="none" stroke="#63b8ff" d="M188.72,-109.98C169.33,-101.42 139.19,-88.11 116.93,-78.28"/>
<polygon fill="#63b8ff" stroke="#63b8ff" points="118.19,-75.01 107.63,-74.17 115.36,-81.41 118.19,-75.01"/>
</a>
</g>
</g>
<!-- Node9&#45;&gt;Node3 -->
<g id="edge15_Node000009_Node000003" class="edge">
<title>Node9&#45;&gt;Node3</title>
<g id="a_edge15_Node000009_Node000003"><a xlink:title=" ">
<path fill="none" stroke="#63b8ff" d="M231.46,-109.98C255.58,-101.23 293.37,-87.51 320.6,-77.62"/>
<polygon fill="#63b8ff" stroke="#63b8ff" points="321.91,-80.87 330.12,-74.17 319.52,-74.29 321.91,-80.87"/>
</a>
</g>
</g>
<!-- Node10 -->
<g id="Node000010" class="node">
<title>Node10</title>
<g id="a_Node000010"><a xlink:href="_assertion_8h.html" target="_top" xlink:title="The Assertion specification defines macros for pre&#45; and postconditions in functions or methods.">
<polygon fill="white" stroke="#666666" points="304,-74 238,-74 238,-55 304,-55 304,-74"/>
<text text-anchor="middle" x="271" y="-62" font-family="Helvetica,sans-Serif" font-size="10.00">Assertion.h</text>
</a>
</g>
</g>
<!-- Node9&#45;&gt;Node10 -->
<g id="edge11_Node000009_Node000010" class="edge">
<title>Node9&#45;&gt;Node10</title>
<g id="a_edge11_Node000009_Node000010"><a xlink:title=" ">
<path fill="none" stroke="#63b8ff" d="M218.12,-109.98C227.44,-102.15 241.47,-90.34 252.74,-80.86"/>
<polygon fill="#63b8ff" stroke="#63b8ff" points="255.29,-83.29 260.69,-74.17 250.79,-77.93 255.29,-83.29"/>
</a>
</g>
</g>
<!-- Node11 -->
<g id="Node000011" class="node">
<title>Node11</title>
<g id="a_Node000011"><a xlink:title=" ">
<polygon fill="#e0e0e0" stroke="#999999" points="220,-74 128,-74 128,-55 220,-55 220,-74"/>
<text text-anchor="middle" x="174" y="-62" font-family="Helvetica,sans-Serif" font-size="10.00">GenericNumber.h</text>
</a>
</g>
</g>
<!-- Node9&#45;&gt;Node11 -->
<g id="edge14_Node000009_Node000011" class="edge">
<title>Node9&#45;&gt;Node11</title>
<g id="a_edge14_Node000009_Node000011"><a xlink:title=" ">
<path fill="none" stroke="#63b8ff" d="M202.39,-109.75C197.68,-102.42 190.83,-91.73 185.03,-82.7"/>
<polygon fill="#63b8ff" stroke="#63b8ff" points="187.86,-80.62 179.51,-74.09 181.96,-84.4 187.86,-80.62"/>
</a>
</g>
</g>
<!-- Node10&#45;&gt;Node4 -->
<g id="edge13_Node000010_Node000004" class="edge">
<title>Node10&#45;&gt;Node4</title>
<g id="a_edge13_Node000010_Node000004"><a xlink:title=" ">
<path fill="none" stroke="#63b8ff" d="M271.17,-54.75C271.3,-47.8 271.48,-37.85 271.65,-29.13"/>
<polygon fill="#63b8ff" stroke="#63b8ff" points="275.15,-29.15 271.84,-19.09 268.15,-29.02 275.15,-29.15"/>
</a>
</g>
</g>
<!-- Node10&#45;&gt;Node8 -->
<g id="edge12_Node000010_Node000008" class="edge">
<title>Node10&#45;&gt;Node8</title>
<g id="a_edge12_Node000010_Node000008"><a xlink:title=" ">
<path fill="none" stroke="#63b8ff" d="M247.06,-54.98C222.44,-46.23 183.88,-32.51 156.08,-22.62"/>
<polygon fill="#63b8ff" stroke="#63b8ff" points="156.97,-19.22 146.38,-19.17 154.62,-25.82 156.97,-19.22"/>
</a>
</g>
</g>
<!-- Node13 -->
<g id="Node000013" class="node">
<title>Node13</title>
<g id="a_Node000013"><a xlink:href="_boolean_8h.html" target="_top" xlink:title="The Boolean specification and body provides a value object type for boolean values.">
<polygon fill="white" stroke="#666666" points="382,-184 322,-184 322,-165 382,-165 382,-184"/>
<text text-anchor="middle" x="352" y="-172" font-family="Helvetica,sans-Serif" font-size="10.00">Boolean.h</text>
</a>
</g>
</g>
<!-- Node12&#45;&gt;Node13 -->
<g id="edge17_Node000012_Node000013" class="edge">
<title>Node12&#45;&gt;Node13</title>
<g id="a_edge17_Node000012_Node000013"><a xlink:title=" ">
<path fill="none" stroke="#63b8ff" d="M242.58,-337.54C274.3,-334.7 321.24,-325.09 346,-294 368.81,-265.37 362.84,-219.39 357.06,-193.94"/>
<polygon fill="#63b8ff" stroke="#63b8ff" points="360.42,-192.96 354.6,-184.11 353.63,-194.66 360.42,-192.96"/>
</a>
</g>
</g>
<!-- Node14 -->
<g id="Node000014" class="node">
<title>Node14</title>
<g id="a_Node000014"><a xlink:href="_character_8h.html" target="_top" xlink:title="The Character specification and body provides a value object type for character values.">
<polygon fill="white" stroke="#666666" points="158.5,-239 91.5,-239 91.5,-220 158.5,-220 158.5,-239"/>
<text text-anchor="middle" x="125" y="-227" font-family="Helvetica,sans-Serif" font-size="10.00">Character.h</text>
</a>
</g>
</g>
<!-- Node12&#45;&gt;Node14 -->
<g id="edge19_Node000012_Node000014" class="edge">
<title>Node12&#45;&gt;Node14</title>
<g id="a_edge19_Node000012_Node000014"><a xlink:title=" ">
<path fill="none" stroke="#63b8ff" d="M215.63,-329.97C223.38,-317.07 235.16,-292.25 224,-275 216.73,-263.76 187.01,-251.28 162.02,-242.41"/>
<polygon fill="#63b8ff" stroke="#63b8ff" points="162.97,-239.03 152.38,-239.07 160.69,-245.65 162.97,-239.03"/>
</a>
</g>
</g>
<!-- Node17 -->
<g id="Node000017" class="node">
<title>Node17</title>
<g id="a_Node000017"><a xlink:href="_object_8h.html" target="_top" xlink:title="The Object specification and body provides the root object type.">
<polygon fill="white" stroke="#666666" points="122.5,-294 69.5,-294 69.5,-275 122.5,-275 122.5,-294"/>
<text text-anchor="middle" x="96" y="-282" font-family="Helvetica,sans-Serif" font-size="10.00">Object.h</text>
</a>
</g>
</g>
<!-- Node12&#45;&gt;Node17 -->
<g id="edge25_Node000012_Node000017" class="edge">
<title>Node12&#45;&gt;Node17</title>
<g id="a_edge25_Node000012_Node000017"><a xlink:title=" ">
<path fill="none" stroke="#63b8ff" d="M191.68,-329.98C173.34,-321.46 144.89,-308.23 123.77,-298.41"/>
<polygon fill="#63b8ff" stroke="#63b8ff" points="125.19,-295.21 114.65,-294.17 122.24,-301.56 125.19,-295.21"/>
</a>
</g>
</g>
<!-- Node18 -->
<g id="Node000018" class="node">
<title>Node18</title>
<g id="a_Node000018"><a xlink:href="_percentage_8h.html" target="_top" xlink:title="The Percentage specification and body provides a simple percentage type.">
<polygon fill="white" stroke="#666666" points="215,-294 141,-294 141,-275 215,-275 215,-294"/>
<text text-anchor="middle" x="178" y="-282" font-family="Helvetica,sans-Serif" font-size="10.00">Percentage.h</text>
</a>
</g>
</g>
<!-- Node12&#45;&gt;Node18 -->
<g id="edge26_Node000012_Node000018" class="edge">
<title>Node12&#45;&gt;Node18</title>
<g id="a_edge26_Node000012_Node000018"><a xlink:title=" ">
<path fill="none" stroke="#63b8ff" d="M204.72,-329.75C200.29,-322.42 193.84,-311.73 188.38,-302.7"/>
<polygon fill="#63b8ff" stroke="#63b8ff" points="191.35,-300.84 183.19,-294.09 185.36,-304.46 191.35,-300.84"/>
</a>
</g>
</g>
<!-- Node19 -->
<g id="Node000019" class="node">
<title>Node19</title>
<g id="a_Node000019"><a xlink:href="_string_list_8h.html" target="_top" xlink:title="The StringList specification defines lists of string values with zero&#45;based arbitrary indexed access ...">
<polygon fill="white" stroke="#666666" points="337,-294 271,-294 271,-275 337,-275 337,-294"/>
<text text-anchor="middle" x="304" y="-282" font-family="Helvetica,sans-Serif" font-size="10.00">StringList.h</text>
</a>
</g>
</g>
<!-- Node12&#45;&gt;Node19 -->
<g id="edge28_Node000012_Node000019" class="edge">
<title>Node12&#45;&gt;Node19</title>
<g id="a_edge28_Node000012_Node000019"><a xlink:title=" ">
<path fill="none" stroke="#63b8ff" d="M225.1,-329.98C239.82,-321.69 262.42,-308.94 279.67,-299.22"/>
<polygon fill="#63b8ff" stroke="#63b8ff" points="281.63,-302.13 288.62,-294.17 278.19,-296.03 281.63,-302.13"/>
</a>
</g>
</g>
<!-- Node13&#45;&gt;Node3 -->
<g id="edge18_Node000013_Node000003" class="edge">
<title>Node13&#45;&gt;Node3</title>
<g id="a_edge18_Node000013_Node000003"><a xlink:title=" ">
<path fill="none" stroke="#63b8ff" d="M352.16,-164.66C352.49,-147.17 353.22,-107.8 353.65,-84.27"/>
<polygon fill="#63b8ff" stroke="#63b8ff" points="357.15,-84.22 353.84,-74.16 350.16,-84.09 357.15,-84.22"/>
</a>
</g>
</g>
<!-- Node14&#45;&gt;Node2 -->
<g id="edge20_Node000014_Node000002" class="edge">
<title>Node14&#45;&gt;Node2</title>
<g id="a_edge20_Node000014_Node000002"><a xlink:title=" ">
<path fill="none" stroke="#63b8ff" d="M123.01,-219.74C117.21,-194.2 100.24,-119.43 92.25,-84.23"/>
<polygon fill="#63b8ff" stroke="#63b8ff" points="95.63,-83.28 90,-74.31 88.8,-84.83 95.63,-83.28"/>
</a>
</g>
</g>
<!-- Node15 -->
<g id="Node000015" class="node">
<title>Node15</title>
<g id="a_Node000015"><a xlink:href="_byte_8h.html" target="_top" xlink:title="The Byte specification and body provides a value object type for byte values.">
<polygon fill="white" stroke="#666666" points="209.5,-184 164.5,-184 164.5,-165 209.5,-165 209.5,-184"/>
<text text-anchor="middle" x="187" y="-172" font-family="Helvetica,sans-Serif" font-size="10.00">Byte.h</text>
</a>
</g>
</g>
<!-- Node14&#45;&gt;Node15 -->
<g id="edge21_Node000014_Node000015" class="edge">
<title>Node14&#45;&gt;Node15</title>
<g id="a_edge21_Node000014_Node000015"><a xlink:title=" ">
<path fill="none" stroke="#63b8ff" d="M134.96,-219.98C144.13,-212.15 157.94,-200.34 169.03,-190.86"/>
<polygon fill="#63b8ff" stroke="#63b8ff" points="171.53,-193.33 176.86,-184.17 166.98,-188.01 171.53,-193.33"/>
</a>
</g>
</g>
<!-- Node15&#45;&gt;Node2 -->
<g id="edge22_Node000015_Node000002" class="edge">
<title>Node15&#45;&gt;Node2</title>
<g id="a_edge22_Node000015_Node000002"><a xlink:title=" ">
<path fill="none" stroke="#63b8ff" d="M178.9,-164.66C162.28,-146.54 124.13,-104.91 102.91,-81.77"/>
<polygon fill="#63b8ff" stroke="#63b8ff" points="105.27,-79.16 95.94,-74.16 100.11,-83.89 105.27,-79.16"/>
</a>
</g>
</g>
<!-- Node15&#45;&gt;Node9 -->
<g id="edge24_Node000015_Node000009" class="edge">
<title>Node15&#45;&gt;Node9</title>
<g id="a_edge24_Node000015_Node000009"><a xlink:title=" ">
<path fill="none" stroke="#63b8ff" d="M190.47,-164.75C193.28,-157.65 197.34,-147.4 200.85,-138.56"/>
<polygon fill="#63b8ff" stroke="#63b8ff" points="204.17,-139.68 204.6,-129.09 197.66,-137.1 204.17,-139.68"/>
</a>
</g>
</g>
<!-- Node16 -->
<g id="Node000016" class="node">
<title>Node16</title>
<g id="a_Node000016"><a xlink:title=" ">
<polygon fill="#e0e0e0" stroke="#999999" points="300,-129 254,-129 254,-110 300,-110 300,-129"/>
<text text-anchor="middle" x="277" y="-117" font-family="Helvetica,sans-Serif" font-size="10.00">cstdint</text>
</a>
</g>
</g>
<!-- Node15&#45;&gt;Node16 -->
<g id="edge23_Node000015_Node000016" class="edge">
<title>Node15&#45;&gt;Node16</title>
<g id="a_edge23_Node000015_Node000016"><a xlink:title=" ">
<path fill="none" stroke="#63b8ff" d="M201.46,-164.98C215.42,-156.77 236.79,-144.18 253.25,-134.49"/>
<polygon fill="#63b8ff" stroke="#63b8ff" points="255.44,-137.26 262.28,-129.17 251.88,-131.23 255.44,-137.26"/>
</a>
</g>
</g>
<!-- Node18&#45;&gt;Node6 -->
<g id="edge27_Node000018_Node000006" class="edge">
<title>Node18&#45;&gt;Node6</title>
<g id="a_edge27_Node000018_Node000006"><a xlink:title=" ">
<path fill="none" stroke="#63b8ff" d="M157.6,-274.98C136.98,-266.38 104.89,-252.99 81.31,-243.15"/>
<polygon fill="#63b8ff" stroke="#63b8ff" points="82.35,-239.79 71.78,-239.17 79.66,-246.25 82.35,-239.79"/>
</a>
</g>
</g>
<!-- Node20 -->
<g id="Node000020" class="node">
<title>Node20</title>
<g id="a_Node000020"><a xlink:title=" ">
<polygon fill="#e0e0e0" stroke="#999999" points="249.5,-239 176.5,-239 176.5,-220 249.5,-220 249.5,-239"/>
<text text-anchor="middle" x="213" y="-227" font-family="Helvetica,sans-Serif" font-size="10.00">initializer_list</text>
</a>
</g>
</g>
<!-- Node19&#45;&gt;Node20 -->
<g id="edge29_Node000019_Node000020" class="edge">
<title>Node19&#45;&gt;Node20</title>
<g id="a_edge29_Node000019_Node000020"><a xlink:title=" ">
<path fill="none" stroke="#63b8ff" d="M289.38,-274.98C275.14,-266.69 253.25,-253.94 236.55,-244.22"/>
<polygon fill="#63b8ff" stroke="#63b8ff" points="238.29,-241.18 227.89,-239.17 234.77,-247.23 238.29,-241.18"/>
</a>
</g>
</g>
<!-- Node21 -->
<g id="Node000021" class="node">
<title>Node21</title>
<g id="a_Node000021"><a xlink:title=" ">
<polygon fill="#e0e0e0" stroke="#999999" points="342,-239 268,-239 268,-220 342,-220 342,-239"/>
<text text-anchor="middle" x="305" y="-227" font-family="Helvetica,sans-Serif" font-size="10.00">GenericList.h</text>
</a>
</g>
</g>
<!-- Node19&#45;&gt;Node21 -->
<g id="edge30_Node000019_Node000021" class="edge">
<title>Node19&#45;&gt;Node21</title>
<g id="a_edge30_Node000019_Node000021"><a xlink:title=" ">
<path fill="none" stroke="#63b8ff" d="M304.17,-274.75C304.3,-267.8 304.48,-257.85 304.65,-249.13"/>
<polygon fill="#63b8ff" stroke="#63b8ff" points="308.15,-249.15 304.84,-239.09 301.15,-249.02 308.15,-249.15"/>
</a>
</g>
</g>
</g>
</svg>
</svg>

<style type='text/css'>
<![CDATA[
[data-mouse-over-selected='false'] { opacity: 0.7; }
[data-mouse-over-selected='true']  { opacity: 1.0; }
]]>
</style>
<script type="application/ecmascript"><![CDATA[
document.addEventListener('DOMContentLoaded', (event) => {
  highlightEdges();
  highlightAdjacentNodes();
});
]]></script>
</svg>
