<?xml version="1.0" encoding="UTF-8" standalone="no"?>
<!DOCTYPE svg PUBLIC "-//W3C//DTD SVG 1.1//EN"
 "http://www.w3.org/Graphics/SVG/1.1/DTD/svg11.dtd">
<!-- Generated by graphviz version 2.47.1 (20210417.1919)
 -->
<!-- Title: StringList.h Pages: 1 -->
<svg width="2841pt" height="412pt"
 viewBox="0.00 0.00 2841.37 412.00" xmlns="http://www.w3.org/2000/svg" xmlns:xlink="http://www.w3.org/1999/xlink">
<g id="graph0" class="graph" transform="scale(1 1) rotate(0) translate(4 408)">
<title>StringList.h</title>
<!-- Node1 -->
<g id="Node000001" class="node">
<title>Node1</title>
<g id="a_Node000001"><a xlink:title="The StringList specification defines lists of string values with zero&#45;based arbitrary indexed access ...">
<polygon fill="#999999" stroke="#666666" points="818.5,-404 752.5,-404 752.5,-385 818.5,-385 818.5,-404"/>
<text text-anchor="middle" x="785.5" y="-392" font-family="Helvetica,sans-Serif" font-size="10.00">StringList.h</text>
</a>
</g>
</g>
<!-- Node2 -->
<g id="Node000002" class="node">
<title>Node2</title>
<g id="a_Node000002"><a xlink:href="_byte_list_8h.html" target="_top" xlink:title="The ByteList specification defines lists of byte values with zero&#45;based arbitrary indexed access to p...">
<polygon fill="white" stroke="#666666" points="631,-349 570,-349 570,-330 631,-330 631,-349"/>
<text text-anchor="middle" x="600.5" y="-337" font-family="Helvetica,sans-Serif" font-size="10.00">ByteList.h</text>
</a>
</g>
</g>
<!-- Node1&#45;&gt;Node2 -->
<g id="edge1_Node000001_Node000002" class="edge">
<title>Node1&#45;&gt;Node2</title>
<g id="a_edge1_Node000001_Node000002"><a xlink:title=" ">
<path fill="none" stroke="#63b8ff" d="M746,-382.18C711.4,-372.27 661.87,-358.08 630.46,-349.08"/>
<polygon fill="#63b8ff" stroke="#63b8ff" points="745.2,-385.6 755.78,-384.98 747.13,-378.87 745.2,-385.6"/>
</a>
</g>
</g>
<!-- Node14 -->
<g id="Node000014" class="node">
<title>Node14</title>
<g id="a_Node000014"><a xlink:href="_midi_event_converter_8h.html" target="_top" xlink:title="The MidiEventConverter specification defines the handling of MIDI events by feeding them to an underl...">
<polygon fill="white" stroke="#666666" points="107,-184 0,-184 0,-165 107,-165 107,-184"/>
<text text-anchor="middle" x="53.5" y="-172" font-family="Helvetica,sans-Serif" font-size="10.00">MidiEventConverter.h</text>
</a>
</g>
</g>
<!-- Node1&#45;&gt;Node14 -->
<g id="edge24_Node000001_Node000014" class="edge">
<title>Node1&#45;&gt;Node14</title>
<g id="a_edge24_Node000001_Node000014"><a xlink:title=" ">
<path fill="none" stroke="#63b8ff" d="M742.27,-386.73C696.67,-379.17 622.93,-365.78 560.5,-349 369.13,-297.58 145.23,-211.62 75.41,-184.19"/>
<polygon fill="#63b8ff" stroke="#63b8ff" points="741.96,-390.22 752.39,-388.38 743.09,-383.31 741.96,-390.22"/>
</a>
</g>
</g>
<!-- Node19 -->
<g id="Node000019" class="node">
<title>Node19</title>
<g id="a_Node000019"><a xlink:href="_fluid_synth_sound_font_8h.html" target="_top" xlink:title="The FluidSynthSoundFont class specifies an object&#45;oriented wrapper around an underlying fluidsynth so...">
<polygon fill="white" stroke="#666666" points="2815,-239 2696,-239 2696,-220 2815,-220 2815,-239"/>
<text text-anchor="middle" x="2755.5" y="-227" font-family="Helvetica,sans-Serif" font-size="10.00">FluidSynthSoundFont.h</text>
</a>
</g>
</g>
<!-- Node1&#45;&gt;Node19 -->
<g id="edge21_Node000001_Node000019" class="edge">
<title>Node1&#45;&gt;Node19</title>
<g id="a_edge21_Node000001_Node000019"><a xlink:title=" ">
<path fill="none" stroke="#63b8ff" d="M828.91,-389.91C1085.16,-368.71 2399.19,-259.98 2695.91,-235.43"/>
<polygon fill="#63b8ff" stroke="#63b8ff" points="828.54,-386.43 818.87,-390.74 829.12,-393.4 828.54,-386.43"/>
</a>
</g>
</g>
<!-- Node21 -->
<g id="Node000021" class="node">
<title>Node21</title>
<g id="a_Node000021"><a xlink:href="_natural_list_8h.html" target="_top" xlink:title="The NaturalList specification defines lists of non&#45;negative integer values with zero&#45;based arbitrary ...">
<polygon fill="white" stroke="#666666" points="821,-239 750,-239 750,-220 821,-220 821,-239"/>
<text text-anchor="middle" x="785.5" y="-227" font-family="Helvetica,sans-Serif" font-size="10.00">NaturalList.h</text>
</a>
</g>
</g>
<!-- Node1&#45;&gt;Node21 -->
<g id="edge25_Node000001_Node000021" class="edge">
<title>Node1&#45;&gt;Node21</title>
<g id="a_edge25_Node000001_Node000021"><a xlink:title=" ">
<path fill="none" stroke="#63b8ff" d="M785.5,-374.37C785.5,-339.03 785.5,-264.79 785.5,-239.31"/>
<polygon fill="#63b8ff" stroke="#63b8ff" points="782,-374.74 785.5,-384.74 789,-374.74 782,-374.74"/>
</a>
</g>
</g>
<!-- Node24 -->
<g id="Node000024" class="node">
<title>Node24</title>
<g id="a_Node000024"><a xlink:href="_string_util_8h.html" target="_top" xlink:title="The StringUtil specification defines several string routines not included in the standard C++ library...">
<polygon fill="white" stroke="#666666" points="1398,-294 1333,-294 1333,-275 1398,-275 1398,-294"/>
<text text-anchor="middle" x="1365.5" y="-282" font-family="Helvetica,sans-Serif" font-size="10.00">StringUtil.h</text>
</a>
</g>
</g>
<!-- Node1&#45;&gt;Node24 -->
<g id="edge30_Node000001_Node000024" class="edge">
<title>Node1&#45;&gt;Node24</title>
<g id="a_edge30_Node000001_Node000024"><a xlink:title=" ">
<path fill="none" stroke="#63b8ff" d="M828.63,-385.47C939.75,-364.78 1234.06,-309.98 1332.73,-291.6"/>
<polygon fill="#63b8ff" stroke="#63b8ff" points="827.96,-382.03 818.77,-387.31 829.24,-388.92 827.96,-382.03"/>
</a>
</g>
</g>
<!-- Node3 -->
<g id="Node000003" class="node">
<title>Node3</title>
<g id="a_Node000003"><a xlink:href="_byte_list_8cpp.html" target="_top" xlink:title="The ByteList body implements sequences of byte values with zero&#45;based arbitrary indexed access to pos...">
<polygon fill="white" stroke="#666666" points="655,-239 584,-239 584,-220 655,-220 655,-239"/>
<text text-anchor="middle" x="619.5" y="-227" font-family="Helvetica,sans-Serif" font-size="10.00">ByteList.cpp</text>
</a>
</g>
</g>
<!-- Node2&#45;&gt;Node3 -->
<g id="edge2_Node000002_Node000003" class="edge">
<title>Node2&#45;&gt;Node3</title>
<g id="a_edge2_Node000002_Node000003"><a xlink:title=" ">
<path fill="none" stroke="#63b8ff" d="M603.79,-319.8C607.94,-296.2 614.91,-256.58 617.98,-239.16"/>
<polygon fill="#63b8ff" stroke="#63b8ff" points="600.34,-319.21 602.05,-329.66 607.23,-320.42 600.34,-319.21"/>
</a>
</g>
</g>
<!-- Node4 -->
<g id="Node000004" class="node">
<title>Node4</title>
<g id="a_Node000004"><a xlink:href="_file_8h.html" target="_top" xlink:title="The File specification defines a class for simple file handling based on C stdio.">
<polygon fill="white" stroke="#666666" points="558,-239 517,-239 517,-220 558,-220 558,-239"/>
<text text-anchor="middle" x="537.5" y="-227" font-family="Helvetica,sans-Serif" font-size="10.00">File.h</text>
</a>
</g>
</g>
<!-- Node2&#45;&gt;Node4 -->
<g id="edge3_Node000002_Node000004" class="edge">
<title>Node2&#45;&gt;Node4</title>
<g id="a_edge3_Node000002_Node000004"><a xlink:title=" ">
<path fill="none" stroke="#63b8ff" d="M590.15,-320.76C576.46,-297.28 552.85,-256.81 542.55,-239.16"/>
<polygon fill="#63b8ff" stroke="#63b8ff" points="587.28,-322.79 595.34,-329.66 593.33,-319.26 587.28,-322.79"/>
</a>
</g>
</g>
<!-- Node11 -->
<g id="Node000011" class="node">
<title>Node11</title>
<g id="a_Node000011"><a xlink:href="_midi_event_8h.html" target="_top" xlink:title="The MidiEvent specification defines a single MIDI event and the MIDI event kind enumeration.">
<polygon fill="white" stroke="#666666" points="553,-294 486,-294 486,-275 553,-275 553,-294"/>
<text text-anchor="middle" x="519.5" y="-282" font-family="Helvetica,sans-Serif" font-size="10.00">MidiEvent.h</text>
</a>
</g>
</g>
<!-- Node2&#45;&gt;Node11 -->
<g id="edge10_Node000002_Node000011" class="edge">
<title>Node2&#45;&gt;Node11</title>
<g id="a_edge10_Node000002_Node000011"><a xlink:title=" ">
<path fill="none" stroke="#63b8ff" d="M578.99,-324.42C564.29,-314.81 545.28,-302.37 532.75,-294.17"/>
<polygon fill="#63b8ff" stroke="#63b8ff" points="577.2,-327.44 587.49,-329.98 581.03,-321.58 577.2,-327.44"/>
</a>
</g>
</g>
<!-- Node5 -->
<g id="Node000005" class="node">
<title>Node5</title>
<g id="a_Node000005"><a xlink:href="_file_8cpp.html" target="_top" xlink:title="The File body implements a class for simple file handling based on C stdio.">
<polygon fill="white" stroke="#666666" points="563,-184 512,-184 512,-165 563,-165 563,-184"/>
<text text-anchor="middle" x="537.5" y="-172" font-family="Helvetica,sans-Serif" font-size="10.00">File.cpp</text>
</a>
</g>
</g>
<!-- Node4&#45;&gt;Node5 -->
<g id="edge4_Node000004_Node000005" class="edge">
<title>Node4&#45;&gt;Node5</title>
<g id="a_edge4_Node000004_Node000005"><a xlink:title=" ">
<path fill="none" stroke="#63b8ff" d="M537.5,-209.66C537.5,-200.93 537.5,-190.99 537.5,-184.09"/>
<polygon fill="#63b8ff" stroke="#63b8ff" points="534,-209.75 537.5,-219.75 541,-209.75 534,-209.75"/>
</a>
</g>
</g>
<!-- Node6 -->
<g id="Node000006" class="node">
<title>Node6</title>
<g id="a_Node000006"><a xlink:href="_fluid_synth_file_converter_8cpp.html" target="_top" xlink:title="The FluidSynthFileConverter module implements a conversion from a MIDI file into a wave file using th...">
<polygon fill="white" stroke="#666666" points="266.5,-129 128.5,-129 128.5,-110 266.5,-110 266.5,-129"/>
<text text-anchor="middle" x="197.5" y="-117" font-family="Helvetica,sans-Serif" font-size="10.00">FluidSynthFileConverter.cpp</text>
</a>
</g>
</g>
<!-- Node4&#45;&gt;Node6 -->
<g id="edge5_Node000004_Node000006" class="edge">
<title>Node4&#45;&gt;Node6</title>
<g id="a_edge5_Node000004_Node000006"><a xlink:title=" ">
<path fill="none" stroke="#63b8ff" d="M506.98,-225.63C434.02,-218.55 253.86,-199.69 231.5,-184 212.46,-170.64 203.14,-143.17 199.47,-129.15"/>
<polygon fill="#63b8ff" stroke="#63b8ff" points="506.65,-229.12 516.94,-226.59 507.32,-222.15 506.65,-229.12"/>
</a>
</g>
</g>
<!-- Node7 -->
<g id="Node000007" class="node">
<title>Node7</title>
<g id="a_Node000007"><a xlink:href="_logging_support_8cpp.html" target="_top" xlink:title="The LoggingSupport body implements a class for simple entry/exit logging to a file or via a callback ...">
<polygon fill="white" stroke="#666666" points="344,-184 241,-184 241,-165 344,-165 344,-184"/>
<text text-anchor="middle" x="292.5" y="-172" font-family="Helvetica,sans-Serif" font-size="10.00">LoggingSupport.cpp</text>
</a>
</g>
</g>
<!-- Node4&#45;&gt;Node7 -->
<g id="edge6_Node000004_Node000007" class="edge">
<title>Node4&#45;&gt;Node7</title>
<g id="a_edge6_Node000004_Node000007"><a xlink:title=" ">
<path fill="none" stroke="#63b8ff" d="M506.72,-221.84C462.46,-212.27 380.81,-194.6 332.1,-184.07"/>
<polygon fill="#63b8ff" stroke="#63b8ff" points="506.1,-225.29 516.61,-223.98 507.58,-218.45 506.1,-225.29"/>
</a>
</g>
</g>
<!-- Node8 -->
<g id="Node000008" class="node">
<title>Node8</title>
<g id="a_Node000008"><a xlink:href="_midi_file_8cpp.html" target="_top" xlink:title="The MidiFile implementation implements the services of a MIDI file; currently only file reading is su...">
<polygon fill="white" stroke="#666666" points="613,-129 544,-129 544,-110 613,-110 613,-129"/>
<text text-anchor="middle" x="578.5" y="-117" font-family="Helvetica,sans-Serif" font-size="10.00">MidiFile.cpp</text>
</a>
</g>
</g>
<!-- Node4&#45;&gt;Node8 -->
<g id="edge7_Node000004_Node000008" class="edge">
<title>Node4&#45;&gt;Node8</title>
<g id="a_edge7_Node000004_Node000008"><a xlink:title=" ">
<path fill="none" stroke="#63b8ff" d="M506.83,-226.23C455.05,-221.21 358.96,-206.19 391.5,-165 410.12,-141.43 495,-129.01 543.76,-123.71"/>
<polygon fill="#63b8ff" stroke="#63b8ff" points="506.57,-229.72 516.85,-227.12 507.2,-222.74 506.57,-229.72"/>
</a>
</g>
</g>
<!-- Node9 -->
<g id="Node000009" class="node">
<title>Node9</title>
<g id="a_Node000009"><a xlink:href="_operating_system_8cpp.html" target="_top" xlink:title="The OperatingSystem body implements a class for several operating system related utility functions (l...">
<polygon fill="white" stroke="#666666" points="925,-184 814,-184 814,-165 925,-165 925,-184"/>
<text text-anchor="middle" x="869.5" y="-172" font-family="Helvetica,sans-Serif" font-size="10.00">OperatingSystem.cpp</text>
</a>
</g>
</g>
<!-- Node4&#45;&gt;Node9 -->
<g id="edge8_Node000004_Node000009" class="edge">
<title>Node4&#45;&gt;Node9</title>
<g id="a_edge8_Node000004_Node000009"><a xlink:title=" ">
<path fill="none" stroke="#63b8ff" d="M568.14,-221.27C570.29,-220.82 572.43,-220.39 574.5,-220 657.44,-204.24 754.36,-190.51 813.83,-182.61"/>
<polygon fill="#63b8ff" stroke="#63b8ff" points="567.2,-217.89 558.18,-223.46 568.7,-224.73 567.2,-217.89"/>
</a>
</g>
</g>
<!-- Node10 -->
<g id="Node000010" class="node">
<title>Node10</title>
<g id="a_Node000010"><a xlink:href="_wave_file_8cpp.html" target="_top" xlink:title="The WaveFile specification defines an object for accessing a RIFF wave file with several channels.">
<polygon fill="white" stroke="#666666" points="757,-184 682,-184 682,-165 757,-165 757,-184"/>
<text text-anchor="middle" x="719.5" y="-172" font-family="Helvetica,sans-Serif" font-size="10.00">WaveFile.cpp</text>
</a>
</g>
</g>
<!-- Node4&#45;&gt;Node10 -->
<g id="edge9_Node000004_Node000010" class="edge">
<title>Node4&#45;&gt;Node10</title>
<g id="a_edge9_Node000004_Node000010"><a xlink:title=" ">
<path fill="none" stroke="#63b8ff" d="M567.85,-219.66C601.81,-209.77 656.46,-193.86 690.05,-184.08"/>
<polygon fill="#63b8ff" stroke="#63b8ff" points="566.65,-216.37 558.02,-222.52 568.6,-223.09 566.65,-216.37"/>
</a>
</g>
</g>
<!-- Node12 -->
<g id="Node000012" class="node">
<title>Node12</title>
<g id="a_Node000012"><a xlink:href="_midi_event_8cpp.html" target="_top" xlink:title="The MidiEvent implementation defines the services of a single MIDI event.">
<polygon fill="white" stroke="#666666" points="1211,-184 1134,-184 1134,-165 1211,-165 1211,-184"/>
<text text-anchor="middle" x="1172.5" y="-172" font-family="Helvetica,sans-Serif" font-size="10.00">MidiEvent.cpp</text>
</a>
</g>
</g>
<!-- Node11&#45;&gt;Node12 -->
<g id="edge11_Node000011_Node000012" class="edge">
<title>Node11&#45;&gt;Node12</title>
<g id="a_edge11_Node000011_Node000012"><a xlink:title=" ">
<path fill="none" stroke="#63b8ff" d="M563.32,-277.78C623.44,-269.8 734.85,-254.55 829.5,-239 940.2,-220.81 1070.3,-195.7 1133.75,-183.2"/>
<polygon fill="#63b8ff" stroke="#63b8ff" points="562.51,-274.35 553.06,-279.14 563.43,-281.29 562.51,-274.35"/>
</a>
</g>
</g>
<!-- Node13 -->
<g id="Node000013" class="node">
<title>Node13</title>
<g id="a_Node000013"><a xlink:href="_midi_event_list_8h.html" target="_top" xlink:title="The MidiEventList specification defines lists of MIDI events with zero&#45;based arbitrary indexed access...">
<polygon fill="white" stroke="#666666" points="408,-239 325,-239 325,-220 408,-220 408,-239"/>
<text text-anchor="middle" x="366.5" y="-227" font-family="Helvetica,sans-Serif" font-size="10.00">MidiEventList.h</text>
</a>
</g>
</g>
<!-- Node11&#45;&gt;Node13 -->
<g id="edge12_Node000011_Node000013" class="edge">
<title>Node11&#45;&gt;Node13</title>
<g id="a_edge12_Node000011_Node000013"><a xlink:title=" ">
<path fill="none" stroke="#63b8ff" d="M485.35,-271.67C456.82,-261.79 416.81,-247.93 391.27,-239.08"/>
<polygon fill="#63b8ff" stroke="#63b8ff" points="484.32,-275.02 494.92,-274.98 486.61,-268.4 484.32,-275.02"/>
</a>
</g>
</g>
<!-- Node13&#45;&gt;Node14 -->
<g id="edge13_Node000013_Node000014" class="edge">
<title>Node13&#45;&gt;Node14</title>
<g id="a_edge13_Node000013_Node000014"><a xlink:title=" ">
<path fill="none" stroke="#63b8ff" d="M314.81,-219.75C256.32,-209.84 161.69,-193.82 103.79,-184.01"/>
<polygon fill="#63b8ff" stroke="#63b8ff" points="314.49,-223.24 324.94,-221.46 315.66,-216.34 314.49,-223.24"/>
</a>
</g>
</g>
<!-- Node17 -->
<g id="Node000017" class="node">
<title>Node17</title>
<g id="a_Node000017"><a xlink:href="_midi_event_list_8cpp.html" target="_top" xlink:title="The MIDIEventList body implements sequences of integer values with zero&#45;based arbitrary indexed acces...">
<polygon fill="white" stroke="#666666" points="494,-184 401,-184 401,-165 494,-165 494,-184"/>
<text text-anchor="middle" x="447.5" y="-172" font-family="Helvetica,sans-Serif" font-size="10.00">MidiEventList.cpp</text>
</a>
</g>
</g>
<!-- Node13&#45;&gt;Node17 -->
<g id="edge17_Node000013_Node000017" class="edge">
<title>Node13&#45;&gt;Node17</title>
<g id="a_edge17_Node000013_Node000017"><a xlink:title=" ">
<path fill="none" stroke="#63b8ff" d="M388.01,-214.42C402.71,-204.81 421.72,-192.37 434.25,-184.17"/>
<polygon fill="#63b8ff" stroke="#63b8ff" points="385.97,-211.58 379.51,-219.98 389.8,-217.44 385.97,-211.58"/>
</a>
</g>
</g>
<!-- Node18 -->
<g id="Node000018" class="node">
<title>Node18</title>
<g id="a_Node000018"><a xlink:href="_midi_file_8h.html" target="_top" xlink:title="The MidiFile specification defines the services of a MIDI file; currently only file reading is suppor...">
<polygon fill="white" stroke="#666666" points="184,-184 125,-184 125,-165 184,-165 184,-184"/>
<text text-anchor="middle" x="154.5" y="-172" font-family="Helvetica,sans-Serif" font-size="10.00">MidiFile.h</text>
</a>
</g>
</g>
<!-- Node13&#45;&gt;Node18 -->
<g id="edge18_Node000013_Node000018" class="edge">
<title>Node13&#45;&gt;Node18</title>
<g id="a_edge18_Node000013_Node000018"><a xlink:title=" ">
<path fill="none" stroke="#63b8ff" d="M322.6,-217.53C281.11,-207.15 220.01,-191.88 184.03,-182.88"/>
<polygon fill="#63b8ff" stroke="#63b8ff" points="321.89,-220.95 332.44,-219.98 323.59,-214.16 321.89,-220.95"/>
</a>
</g>
</g>
<!-- Node14&#45;&gt;Node6 -->
<g id="edge14_Node000014_Node000006" class="edge">
<title>Node14&#45;&gt;Node6</title>
<g id="a_edge14_Node000014_Node000006"><a xlink:title=" ">
<path fill="none" stroke="#63b8ff" d="M86.32,-161.42C113.03,-151.59 150.1,-137.95 173.94,-129.17"/>
<polygon fill="#63b8ff" stroke="#63b8ff" points="84.81,-158.25 76.64,-164.98 87.23,-164.82 84.81,-158.25"/>
</a>
</g>
</g>
<!-- Node15 -->
<g id="Node000015" class="node">
<title>Node15</title>
<g id="a_Node000015"><a xlink:href="_fluid_synth_plugin___event_processor_8cpp.html" target="_top" xlink:title="The FluidSynthPlugin_Processor module implements the handling of MIDI events from the DAW via JUCE ha...">
<polygon fill="white" stroke="#666666" points="1406.5,-19 1224.5,-19 1224.5,0 1406.5,0 1406.5,-19"/>
<text text-anchor="middle" x="1315.5" y="-7" font-family="Helvetica,sans-Serif" font-size="10.00">FluidSynthPlugin_EventProcessor.cpp</text>
</a>
</g>
</g>
<!-- Node14&#45;&gt;Node15 -->
<g id="edge15_Node000014_Node000015" class="edge">
<title>Node14&#45;&gt;Node15</title>
<g id="a_edge15_Node000014_Node000015"><a xlink:title=" ">
<path fill="none" stroke="#63b8ff" d="M65.62,-156.53C77.46,-141.42 96.97,-120.18 119.5,-110 316.48,-20.96 979.89,-10.89 1224.19,-10.27"/>
<polygon fill="#63b8ff" stroke="#63b8ff" points="62.77,-154.49 59.56,-164.59 68.37,-158.69 62.77,-154.49"/>
</a>
</g>
</g>
<!-- Node16 -->
<g id="Node000016" class="node">
<title>Node16</title>
<g id="a_Node000016"><a xlink:href="_midi_event_converter_8cpp.html" target="_top" xlink:title="The MidiEventConverter module implements the handling of MIDI events by feeding them to an underlying...">
<polygon fill="white" stroke="#666666" points="2786.5,-129 2668.5,-129 2668.5,-110 2786.5,-110 2786.5,-129"/>
<text text-anchor="middle" x="2727.5" y="-117" font-family="Helvetica,sans-Serif" font-size="10.00">MidiEventConverter.cpp</text>
</a>
</g>
</g>
<!-- Node14&#45;&gt;Node16 -->
<g id="edge16_Node000014_Node000016" class="edge">
<title>Node14&#45;&gt;Node16</title>
<g id="a_edge16_Node000014_Node000016"><a xlink:title=" ">
<path fill="none" stroke="#63b8ff" d="M117.6,-164.95C1244.85,-80.82 1534.87,-207.01 2659.5,-129 2662.35,-128.8 2665.26,-128.57 2668.2,-128.3"/>
<polygon fill="#63b8ff" stroke="#63b8ff" points="116.94,-161.49 107.23,-165.73 117.46,-168.47 116.94,-161.49"/>
</a>
</g>
</g>
<!-- Node18&#45;&gt;Node6 -->
<g id="edge19_Node000018_Node000006" class="edge">
<title>Node18&#45;&gt;Node6</title>
<g id="a_edge19_Node000018_Node000006"><a xlink:title=" ">
<path fill="none" stroke="#63b8ff" d="M167.92,-156.96C175.41,-147.72 184.44,-136.6 190.53,-129.09"/>
<polygon fill="#63b8ff" stroke="#63b8ff" points="165.18,-154.78 161.6,-164.75 170.62,-159.19 165.18,-154.78"/>
</a>
</g>
</g>
<!-- Node18&#45;&gt;Node8 -->
<g id="edge20_Node000018_Node000008" class="edge">
<title>Node18&#45;&gt;Node8</title>
<g id="a_edge20_Node000018_Node000008"><a xlink:title=" ">
<path fill="none" stroke="#63b8ff" d="M194.31,-168.52C276.91,-158.2 465.71,-134.6 543.75,-124.84"/>
<polygon fill="#63b8ff" stroke="#63b8ff" points="193.8,-165.06 184.31,-169.77 194.67,-172.01 193.8,-165.06"/>
</a>
</g>
</g>
<!-- Node19&#45;&gt;Node16 -->
<g id="edge23_Node000019_Node000016" class="edge">
<title>Node19&#45;&gt;Node16</title>
<g id="a_edge23_Node000019_Node000016"><a xlink:title=" ">
<path fill="none" stroke="#63b8ff" d="M2789.83,-215.95C2815.34,-204.57 2843.48,-186.35 2829.5,-165 2817.22,-146.25 2795.13,-135.36 2774.64,-129.05"/>
<polygon fill="#63b8ff" stroke="#63b8ff" points="2788.14,-212.86 2780.28,-219.97 2790.85,-219.32 2788.14,-212.86"/>
</a>
</g>
</g>
<!-- Node20 -->
<g id="Node000020" class="node">
<title>Node20</title>
<g id="a_Node000020"><a xlink:href="_fluid_synth_sound_font_8cpp.html" target="_top" xlink:title="The FluidSynthSoundFont class implements an object&#45;oriented wrapper around an underlying fluidsynth s...">
<polygon fill="white" stroke="#666666" points="2820,-184 2691,-184 2691,-165 2820,-165 2820,-184"/>
<text text-anchor="middle" x="2755.5" y="-172" font-family="Helvetica,sans-Serif" font-size="10.00">FluidSynthSoundFont.cpp</text>
</a>
</g>
</g>
<!-- Node19&#45;&gt;Node20 -->
<g id="edge22_Node000019_Node000020" class="edge">
<title>Node19&#45;&gt;Node20</title>
<g id="a_edge22_Node000019_Node000020"><a xlink:title=" ">
<path fill="none" stroke="#63b8ff" d="M2755.5,-209.66C2755.5,-200.93 2755.5,-190.99 2755.5,-184.09"/>
<polygon fill="#63b8ff" stroke="#63b8ff" points="2752,-209.75 2755.5,-219.75 2759,-209.75 2752,-209.75"/>
</a>
</g>
</g>
<!-- Node21&#45;&gt;Node8 -->
<g id="edge27_Node000021_Node000008" class="edge">
<title>Node21&#45;&gt;Node8</title>
<g id="a_edge27_Node000021_Node000008"><a xlink:title=" ">
<path fill="none" stroke="#63b8ff" d="M784.41,-209.53C782.57,-195.32 777.78,-176.43 765.5,-165 743.64,-144.65 660.92,-131 613.14,-124.63"/>
<polygon fill="#63b8ff" stroke="#63b8ff" points="780.94,-210.06 785.34,-219.7 787.91,-209.42 780.94,-210.06"/>
</a>
</g>
</g>
<!-- Node21&#45;&gt;Node10 -->
<g id="edge29_Node000021_Node000010" class="edge">
<title>Node21&#45;&gt;Node10</title>
<g id="a_edge29_Node000021_Node000010"><a xlink:title=" ">
<path fill="none" stroke="#63b8ff" d="M766.95,-213.6C755.12,-204.11 740.21,-192.13 730.3,-184.17"/>
<polygon fill="#63b8ff" stroke="#63b8ff" points="764.91,-216.45 774.9,-219.98 769.29,-210.99 764.91,-216.45"/>
</a>
</g>
</g>
<!-- Node22 -->
<g id="Node000022" class="node">
<title>Node22</title>
<g id="a_Node000022"><a xlink:href="_fluid_synth_plugin___editor_support_8cpp.html" target="_top" xlink:title="The FluidSynthPlugin_EditorSupport module implements support services for the editor of the FluidSynt...">
<polygon fill="white" stroke="#666666" points="1116,-184 943,-184 943,-165 1116,-165 1116,-184"/>
<text text-anchor="middle" x="1029.5" y="-172" font-family="Helvetica,sans-Serif" font-size="10.00">FluidSynthPlugin_EditorSupport.cpp</text>
</a>
</g>
</g>
<!-- Node21&#45;&gt;Node22 -->
<g id="edge26_Node000021_Node000022" class="edge">
<title>Node21&#45;&gt;Node22</title>
<g id="a_edge26_Node000021_Node000022"><a xlink:title=" ">
<path fill="none" stroke="#63b8ff" d="M831.19,-218.58C876.93,-208.64 946.6,-193.51 990.02,-184.08"/>
<polygon fill="#63b8ff" stroke="#63b8ff" points="830.27,-215.19 821.24,-220.74 831.76,-222.03 830.27,-215.19"/>
</a>
</g>
</g>
<!-- Node23 -->
<g id="Node000023" class="node">
<title>Node23</title>
<g id="a_Node000023"><a xlink:href="_natural_list_8cpp.html" target="_top" xlink:title="The NaturalList body implements lists of non&#45;negative integer values with zero&#45;based arbitrary indexe...">
<polygon fill="white" stroke="#666666" points="663.5,-184 581.5,-184 581.5,-165 663.5,-165 663.5,-184"/>
<text text-anchor="middle" x="622.5" y="-172" font-family="Helvetica,sans-Serif" font-size="10.00">NaturalList.cpp</text>
</a>
</g>
</g>
<!-- Node21&#45;&gt;Node23 -->
<g id="edge28_Node000021_Node000023" class="edge">
<title>Node21&#45;&gt;Node23</title>
<g id="a_edge28_Node000021_Node000023"><a xlink:title=" ">
<path fill="none" stroke="#63b8ff" d="M749.51,-216.8C719.09,-206.91 676.22,-192.97 648.89,-184.08"/>
<polygon fill="#63b8ff" stroke="#63b8ff" points="748.72,-220.22 759.31,-219.98 750.88,-213.56 748.72,-220.22"/>
</a>
</g>
</g>
<!-- Node24&#45;&gt;Node3 -->
<g id="edge31_Node000024_Node000003" class="edge">
<title>Node24&#45;&gt;Node3</title>
<g id="a_edge31_Node000024_Node000003"><a xlink:title=" ">
<path fill="none" stroke="#63b8ff" d="M1322.49,-282.31C1213.12,-278.96 915.66,-267.71 669.5,-239 664.86,-238.46 660.01,-237.78 655.21,-237.04"/>
<polygon fill="#63b8ff" stroke="#63b8ff" points="1322.68,-285.82 1332.78,-282.62 1322.89,-278.82 1322.68,-285.82"/>
</a>
</g>
</g>
<!-- Node24&#45;&gt;Node5 -->
<g id="edge32_Node000024_Node000005" class="edge">
<title>Node24&#45;&gt;Node5</title>
<g id="a_edge32_Node000024_Node000005"><a xlink:title=" ">
<path fill="none" stroke="#63b8ff" d="M1322.38,-283.02C1194.07,-281.23 816.28,-273.12 698.5,-239 681.5,-234.07 679.67,-227.19 663.5,-220 629.58,-204.92 588.84,-191.31 563.06,-183.22"/>
<polygon fill="#63b8ff" stroke="#63b8ff" points="1322.56,-286.53 1332.6,-283.16 1322.65,-279.53 1322.56,-286.53"/>
</a>
</g>
</g>
<!-- Node24&#45;&gt;Node23 -->
<g id="edge61_Node000024_Node000023" class="edge">
<title>Node24&#45;&gt;Node23</title>
<g id="a_edge61_Node000024_Node000023"><a xlink:title=" ">
<path fill="none" stroke="#63b8ff" d="M1322.63,-282.78C1200.1,-280.37 850.14,-270.81 740.5,-239 718.94,-232.74 662.82,-199.83 636.5,-184.01"/>
<polygon fill="#63b8ff" stroke="#63b8ff" points="1322.69,-286.29 1332.76,-282.98 1322.82,-279.29 1322.69,-286.29"/>
</a>
</g>
</g>
<!-- Node25 -->
<g id="Node000025" class="node">
<title>Node25</title>
<g id="a_Node000025"><a xlink:href="_logging_8h.html" target="_top" xlink:title="The Logging specification defines macros for entry&#45;, exit&#45; and intermediate logging of functions into...">
<polygon fill="white" stroke="#666666" points="1395,-239 1336,-239 1336,-220 1395,-220 1395,-239"/>
<text text-anchor="middle" x="1365.5" y="-227" font-family="Helvetica,sans-Serif" font-size="10.00">Logging.h</text>
</a>
</g>
</g>
<!-- Node24&#45;&gt;Node25 -->
<g id="edge33_Node000024_Node000025" class="edge">
<title>Node24&#45;&gt;Node25</title>
<g id="a_edge33_Node000024_Node000025"><a xlink:title=" ">
<path fill="none" stroke="#63b8ff" d="M1365.5,-264.66C1365.5,-255.93 1365.5,-245.99 1365.5,-239.09"/>
<polygon fill="#63b8ff" stroke="#63b8ff" points="1362,-264.75 1365.5,-274.75 1369,-264.75 1362,-264.75"/>
</a>
</g>
</g>
<!-- Node40 -->
<g id="Node000040" class="node">
<title>Node40</title>
<g id="a_Node000040"><a xlink:href="_my_string_8cpp.html" target="_top" xlink:title="The String body implements a standard string type.">
<polygon fill="white" stroke="#666666" points="1487.5,-239 1413.5,-239 1413.5,-220 1487.5,-220 1487.5,-239"/>
<text text-anchor="middle" x="1450.5" y="-227" font-family="Helvetica,sans-Serif" font-size="10.00">MyString.cpp</text>
</a>
</g>
</g>
<!-- Node24&#45;&gt;Node40 -->
<g id="edge60_Node000024_Node000040" class="edge">
<title>Node24&#45;&gt;Node40</title>
<g id="a_edge60_Node000024_Node000040"><a xlink:title=" ">
<path fill="none" stroke="#63b8ff" d="M1388.07,-269.42C1403.5,-259.81 1423.45,-247.37 1436.59,-239.17"/>
<polygon fill="#63b8ff" stroke="#63b8ff" points="1385.79,-266.72 1379.16,-274.98 1389.49,-272.66 1385.79,-266.72"/>
</a>
</g>
</g>
<!-- Node41 -->
<g id="Node000041" class="node">
<title>Node41</title>
<g id="a_Node000041"><a xlink:href="_real_8cpp.html" target="_top" xlink:title="The Real body implements a value object type for real values.">
<polygon fill="white" stroke="#666666" points="1561,-239 1506,-239 1506,-220 1561,-220 1561,-239"/>
<text text-anchor="middle" x="1533.5" y="-227" font-family="Helvetica,sans-Serif" font-size="10.00">Real.cpp</text>
</a>
</g>
</g>
<!-- Node24&#45;&gt;Node41 -->
<g id="edge62_Node000024_Node000041" class="edge">
<title>Node24&#45;&gt;Node41</title>
<g id="a_edge62_Node000024_Node000041"><a xlink:title=" ">
<path fill="none" stroke="#63b8ff" d="M1402.18,-271.93C1433.56,-262.03 1478.01,-248.01 1506.3,-239.08"/>
<polygon fill="#63b8ff" stroke="#63b8ff" points="1400.98,-268.64 1392.49,-274.98 1403.08,-275.31 1400.98,-268.64"/>
</a>
</g>
</g>
<!-- Node42 -->
<g id="Node000042" class="node">
<title>Node42</title>
<g id="a_Node000042"><a xlink:href="_string_list_8cpp.html" target="_top" xlink:title="The StringList body implements lists of string values with zero&#45;based arbitrary indexed access to pos...">
<polygon fill="white" stroke="#666666" points="1656,-239 1579,-239 1579,-220 1656,-220 1656,-239"/>
<text text-anchor="middle" x="1617.5" y="-227" font-family="Helvetica,sans-Serif" font-size="10.00">StringList.cpp</text>
</a>
</g>
</g>
<!-- Node24&#45;&gt;Node42 -->
<g id="edge63_Node000024_Node000042" class="edge">
<title>Node24&#45;&gt;Node42</title>
<g id="a_edge63_Node000024_Node000042"><a xlink:title=" ">
<path fill="none" stroke="#63b8ff" d="M1408.2,-274.52C1455.94,-264.48 1532.58,-248.36 1578.68,-238.67"/>
<polygon fill="#63b8ff" stroke="#63b8ff" points="1407.25,-271.14 1398.19,-276.63 1408.69,-277.99 1407.25,-271.14"/>
</a>
</g>
</g>
<!-- Node43 -->
<g id="Node000043" class="node">
<title>Node43</title>
<g id="a_Node000043"><a xlink:href="_string_util_8cpp.html" target="_top" xlink:title="The StringUtil body implements several string routines not included in the standard C++ library (like...">
<polygon fill="white" stroke="#666666" points="1749,-239 1674,-239 1674,-220 1749,-220 1749,-239"/>
<text text-anchor="middle" x="1711.5" y="-227" font-family="Helvetica,sans-Serif" font-size="10.00">StringUtil.cpp</text>
</a>
</g>
</g>
<!-- Node24&#45;&gt;Node43 -->
<g id="edge64_Node000024_Node000043" class="edge">
<title>Node24&#45;&gt;Node43</title>
<g id="a_edge64_Node000024_Node000043"><a xlink:title=" ">
<path fill="none" stroke="#63b8ff" d="M1408.36,-277.63C1466.65,-269.53 1574.12,-254.21 1665.5,-239 1668.22,-238.55 1671.04,-238.06 1673.86,-237.57"/>
<polygon fill="#63b8ff" stroke="#63b8ff" points="1407.84,-274.17 1398.41,-279.01 1408.8,-281.1 1407.84,-274.17"/>
</a>
</g>
</g>
<!-- Node25&#45;&gt;Node6 -->
<g id="edge45_Node000025_Node000006" class="edge">
<title>Node25&#45;&gt;Node6</title>
<g id="a_edge45_Node000025_Node000006"><a xlink:title=" ">
<path fill="none" stroke="#63b8ff" d="M1331.58,-216.48C1309.08,-208.15 1279.1,-196.37 1253.5,-184 1238.26,-176.63 1236.75,-169.72 1220.5,-165 1174.78,-151.71 489.05,-129.5 266.6,-122.6"/>
<polygon fill="#63b8ff" stroke="#63b8ff" points="1330.44,-219.79 1341.03,-219.94 1332.85,-213.21 1330.44,-219.79"/>
</a>
</g>
</g>
<!-- Node25&#45;&gt;Node8 -->
<g id="edge55_Node000025_Node000008" class="edge">
<title>Node25&#45;&gt;Node8</title>
<g id="a_edge55_Node000025_Node000008"><a xlink:title=" ">
<path fill="none" stroke="#63b8ff" d="M1346.3,-214C1324.93,-198.76 1288.73,-175.54 1253.5,-165 1131.71,-128.55 733.15,-121.92 613.05,-120.75"/>
<polygon fill="#63b8ff" stroke="#63b8ff" points="1344.37,-216.92 1354.51,-219.99 1348.5,-211.27 1344.37,-216.92"/>
</a>
</g>
</g>
<!-- Node25&#45;&gt;Node9 -->
<g id="edge57_Node000025_Node000009" class="edge">
<title>Node25&#45;&gt;Node9</title>
<g id="a_edge57_Node000025_Node000009"><a xlink:title=" ">
<path fill="none" stroke="#63b8ff" d="M1325.77,-224.8C1249.61,-217.62 1077.78,-201.01 933.5,-184 930.83,-183.69 928.1,-183.35 925.34,-183.01"/>
<polygon fill="#63b8ff" stroke="#63b8ff" points="1325.59,-228.3 1335.87,-225.75 1326.25,-221.33 1325.59,-228.3"/>
</a>
</g>
</g>
<!-- Node25&#45;&gt;Node10 -->
<g id="edge59_Node000025_Node000010" class="edge">
<title>Node25&#45;&gt;Node10</title>
<g id="a_edge59_Node000025_Node000010"><a xlink:title=" ">
<path fill="none" stroke="#63b8ff" d="M1325.75,-225.63C1233.92,-218.93 999.9,-201.52 804.5,-184 788.99,-182.61 771.9,-180.93 757.14,-179.43"/>
<polygon fill="#63b8ff" stroke="#63b8ff" points="1325.75,-229.14 1335.98,-226.37 1326.26,-222.16 1325.75,-229.14"/>
</a>
</g>
</g>
<!-- Node25&#45;&gt;Node12 -->
<g id="edge52_Node000025_Node000012" class="edge">
<title>Node25&#45;&gt;Node12</title>
<g id="a_edge52_Node000025_Node000012"><a xlink:title=" ">
<path fill="none" stroke="#63b8ff" d="M1326.02,-217.66C1289.79,-207.71 1236.84,-193.17 1203.55,-184.03"/>
<polygon fill="#63b8ff" stroke="#63b8ff" points="1325.2,-221.06 1335.77,-220.33 1327.05,-214.31 1325.2,-221.06"/>
</a>
</g>
</g>
<!-- Node25&#45;&gt;Node15 -->
<g id="edge48_Node000025_Node000015" class="edge">
<title>Node25&#45;&gt;Node15</title>
<g id="a_edge48_Node000025_Node000015"><a xlink:title=" ">
<path fill="none" stroke="#63b8ff" d="M1351.57,-211.98C1345.62,-204.02 1339.21,-194.03 1335.5,-184 1313.32,-123.99 1314.12,-45.04 1315.08,-19.14"/>
<polygon fill="#63b8ff" stroke="#63b8ff" points="1348.97,-214.33 1357.92,-220 1354.46,-209.99 1348.97,-214.33"/>
</a>
</g>
</g>
<!-- Node25&#45;&gt;Node16 -->
<g id="edge53_Node000025_Node000016" class="edge">
<title>Node25&#45;&gt;Node16</title>
<g id="a_edge53_Node000025_Node000016"><a xlink:title=" ">
<path fill="none" stroke="#63b8ff" d="M1405.31,-220.35C1578.43,-204.28 2494.39,-221.19 2621.5,-184 2660.21,-172.67 2699.23,-143.74 2717.23,-129.16"/>
<polygon fill="#63b8ff" stroke="#63b8ff" points="1404.78,-216.89 1395.21,-221.43 1405.53,-223.85 1404.78,-216.89"/>
</a>
</g>
</g>
<!-- Node25&#45;&gt;Node17 -->
<g id="edge54_Node000025_Node000017" class="edge">
<title>Node25&#45;&gt;Node17</title>
<g id="a_edge54_Node000025_Node000017"><a xlink:title=" ">
<path fill="none" stroke="#63b8ff" d="M1325.94,-227.89C1203.35,-225.7 818.99,-216.53 502.5,-184 499.81,-183.72 497.05,-183.41 494.27,-183.06"/>
<polygon fill="#63b8ff" stroke="#63b8ff" points="1325.93,-231.39 1335.99,-228.07 1326.05,-224.39 1325.93,-231.39"/>
</a>
</g>
</g>
<!-- Node25&#45;&gt;Node20 -->
<g id="edge50_Node000025_Node000020" class="edge">
<title>Node25&#45;&gt;Node20</title>
<g id="a_edge50_Node000025_Node000020"><a xlink:title=" ">
<path fill="none" stroke="#63b8ff" d="M1405.2,-220.21C1967.62,-152.31 2115.54,-222.06 2676.5,-184 2681.18,-183.68 2686.01,-183.3 2690.87,-182.87"/>
<polygon fill="#63b8ff" stroke="#63b8ff" points="1404.72,-216.74 1395.21,-221.43 1405.56,-223.69 1404.72,-216.74"/>
</a>
</g>
</g>
<!-- Node25&#45;&gt;Node22 -->
<g id="edge47_Node000025_Node000022" class="edge">
<title>Node25&#45;&gt;Node22</title>
<g id="a_edge47_Node000025_Node000022"><a xlink:title=" ">
<path fill="none" stroke="#63b8ff" d="M1325.74,-222.23C1265.54,-212.73 1151.12,-194.68 1083.46,-184.01"/>
<polygon fill="#63b8ff" stroke="#63b8ff" points="1325.55,-225.74 1335.98,-223.84 1326.64,-218.83 1325.55,-225.74"/>
</a>
</g>
</g>
<!-- Node26 -->
<g id="Node000026" class="node">
<title>Node26</title>
<g id="a_Node000026"><a xlink:href="_audio_sample_fifo_queue_8cpp-inc.html" target="_top" xlink:title="The AudioSampleFifoQueue body implements a fifo queue for audio samples with popping off access to th...">
<polygon fill="white" stroke="#666666" points="2596,-184 2443,-184 2443,-165 2596,-165 2596,-184"/>
<text text-anchor="middle" x="2519.5" y="-172" font-family="Helvetica,sans-Serif" font-size="10.00">AudioSampleFifoQueue.cpp&#45;inc</text>
</a>
</g>
</g>
<!-- Node25&#45;&gt;Node26 -->
<g id="edge34_Node000025_Node000026" class="edge">
<title>Node25&#45;&gt;Node26</title>
<g id="a_edge34_Node000025_Node000026"><a xlink:title=" ">
<path fill="none" stroke="#63b8ff" d="M1405.34,-220.18C1860.31,-163.8 1980.25,-214.3 2433.5,-184 2436.49,-183.8 2439.55,-183.58 2442.63,-183.34"/>
<polygon fill="#63b8ff" stroke="#63b8ff" points="1404.7,-216.73 1395.22,-221.45 1405.57,-223.68 1404.7,-216.73"/>
</a>
</g>
</g>
<!-- Node31 -->
<g id="Node000031" class="node">
<title>Node31</title>
<g id="a_Node000031"><a xlink:href="_audio_sample_fifo_queue_vector_8cpp-inc.html" target="_top" xlink:title="The AudioSampleFifoQueueVector body implements a list of fifo queues for audio samples (this is the e...">
<polygon fill="white" stroke="#666666" points="2650.5,-129 2468.5,-129 2468.5,-110 2650.5,-110 2650.5,-129"/>
<text text-anchor="middle" x="2559.5" y="-117" font-family="Helvetica,sans-Serif" font-size="10.00">AudioSampleFifoQueueVector.cpp&#45;inc</text>
</a>
</g>
</g>
<!-- Node25&#45;&gt;Node31 -->
<g id="edge40_Node000025_Node000031" class="edge">
<title>Node25&#45;&gt;Node31</title>
<g id="a_edge40_Node000025_Node000031"><a xlink:title=" ">
<path fill="none" stroke="#63b8ff" d="M1405.2,-220.62C1537.75,-213.04 2560.46,-230.41 2605.5,-184 2622.66,-166.32 2592.56,-141.9 2573.45,-129.1"/>
<polygon fill="#63b8ff" stroke="#63b8ff" points="1404.9,-217.13 1395.21,-221.43 1405.46,-224.11 1404.9,-217.13"/>
</a>
</g>
</g>
<!-- Node32 -->
<g id="Node000032" class="node">
<title>Node32</title>
<g id="a_Node000032"><a xlink:href="_command_line_arguments_8cpp.html" target="_top" xlink:title="The CommandLineArguments body implements a handler for command&#45;line arguments converting them to a li...">
<polygon fill="white" stroke="#666666" points="1489,-184 1344,-184 1344,-165 1489,-165 1489,-184"/>
<text text-anchor="middle" x="1416.5" y="-172" font-family="Helvetica,sans-Serif" font-size="10.00">CommandLineArguments.cpp</text>
</a>
</g>
</g>
<!-- Node25&#45;&gt;Node32 -->
<g id="edge42_Node000025_Node000032" class="edge">
<title>Node25&#45;&gt;Node32</title>
<g id="a_edge42_Node000025_Node000032"><a xlink:title=" ">
<path fill="none" stroke="#63b8ff" d="M1380.88,-212.52C1389.87,-203.18 1400.86,-191.75 1408.24,-184.09"/>
<polygon fill="#63b8ff" stroke="#63b8ff" points="1378.33,-210.12 1373.92,-219.75 1383.38,-214.97 1378.33,-210.12"/>
</a>
</g>
</g>
<!-- Node33 -->
<g id="Node000033" class="node">
<title>Node33</title>
<g id="a_Node000033"><a xlink:href="_environment_8cpp.html" target="_top" xlink:title="The Environment body implements operating system services related to environment variables.">
<polygon fill="white" stroke="#666666" points="1596,-184 1507,-184 1507,-165 1596,-165 1596,-184"/>
<text text-anchor="middle" x="1551.5" y="-172" font-family="Helvetica,sans-Serif" font-size="10.00">Environment.cpp</text>
</a>
</g>
</g>
<!-- Node25&#45;&gt;Node33 -->
<g id="edge43_Node000025_Node000033" class="edge">
<title>Node25&#45;&gt;Node33</title>
<g id="a_edge43_Node000025_Node000033"><a xlink:title=" ">
<path fill="none" stroke="#63b8ff" d="M1405.21,-217.18C1440,-207.27 1489.79,-193.08 1521.38,-184.08"/>
<polygon fill="#63b8ff" stroke="#63b8ff" points="1404.04,-213.88 1395.38,-219.98 1405.96,-220.61 1404.04,-213.88"/>
</a>
</g>
</g>
<!-- Node34 -->
<g id="Node000034" class="node">
<title>Node34</title>
<g id="a_Node000034"><a xlink:href="_fluid_synth_8cpp.html" target="_top" xlink:title="The FluidSynth class implements the access to the fluidsynth library via a dynamic loading of it.">
<polygon fill="white" stroke="#666666" points="1696.5,-184 1614.5,-184 1614.5,-165 1696.5,-165 1696.5,-184"/>
<text text-anchor="middle" x="1655.5" y="-172" font-family="Helvetica,sans-Serif" font-size="10.00">FluidSynth.cpp</text>
</a>
</g>
</g>
<!-- Node25&#45;&gt;Node34 -->
<g id="edge44_Node000025_Node000034" class="edge">
<title>Node25&#45;&gt;Node34</title>
<g id="a_edge44_Node000025_Node000034"><a xlink:title=" ">
<path fill="none" stroke="#63b8ff" d="M1405.1,-219.96C1457.51,-209.85 1557.68,-192.4 1614.36,-182.59"/>
<polygon fill="#63b8ff" stroke="#63b8ff" points="1404.43,-216.53 1395.29,-221.88 1405.77,-223.4 1404.43,-216.53"/>
</a>
</g>
</g>
<!-- Node35 -->
<g id="Node000035" class="node">
<title>Node35</title>
<g id="a_Node000035"><a xlink:href="_fluid_synth_plugin___editor_8cpp.html" target="_top" xlink:title="The FluidSynthPlugin_Editor module implements the editor for the processor of MIDI events from the DA...">
<polygon fill="white" stroke="#666666" points="1854.5,-184 1714.5,-184 1714.5,-165 1854.5,-165 1854.5,-184"/>
<text text-anchor="middle" x="1784.5" y="-172" font-family="Helvetica,sans-Serif" font-size="10.00">FluidSynthPlugin_Editor.cpp</text>
</a>
</g>
</g>
<!-- Node25&#45;&gt;Node35 -->
<g id="edge46_Node000025_Node000035" class="edge">
<title>Node25&#45;&gt;Node35</title>
<g id="a_edge46_Node000025_Node000035"><a xlink:title=" ">
<path fill="none" stroke="#63b8ff" d="M1405.13,-220.15C1458.28,-212.3 1619.75,-193.96 1714.24,-183.35"/>
<polygon fill="#63b8ff" stroke="#63b8ff" points="1404.59,-216.69 1395.25,-221.7 1405.67,-223.61 1404.59,-216.69"/>
</a>
</g>
</g>
<!-- Node36 -->
<g id="Node000036" class="node">
<title>Node36</title>
<g id="a_Node000036"><a xlink:href="_fluid_synth_settings_8cpp.html" target="_top" xlink:title="The FluidSynthSettings class implements an object&#45;oriented wrapper around an underlying fluidsynth se...">
<polygon fill="white" stroke="#666666" points="1990.5,-184 1872.5,-184 1872.5,-165 1990.5,-165 1990.5,-184"/>
<text text-anchor="middle" x="1931.5" y="-172" font-family="Helvetica,sans-Serif" font-size="10.00">FluidSynthSettings.cpp</text>
</a>
</g>
</g>
<!-- Node25&#45;&gt;Node36 -->
<g id="edge49_Node000025_Node000036" class="edge">
<title>Node25&#45;&gt;Node36</title>
<g id="a_edge49_Node000025_Node000036"><a xlink:title=" ">
<path fill="none" stroke="#63b8ff" d="M1405.35,-220.1C1608.68,-190.6 1663.2,-204.36 1863.5,-184 1866.34,-183.71 1869.25,-183.4 1872.18,-183.08"/>
<polygon fill="#63b8ff" stroke="#63b8ff" points="1404.62,-216.67 1395.23,-221.58 1405.64,-223.59 1404.62,-216.67"/>
</a>
</g>
</g>
<!-- Node37 -->
<g id="Node000037" class="node">
<title>Node37</title>
<g id="a_Node000037"><a xlink:href="_fluid_synth_synthesizer_8cpp.html" target="_top" xlink:title="The FluidSynthSynthesizer class implements an object&#45;oriented wrapper around an underlying fluidsynth...">
<polygon fill="white" stroke="#666666" points="2142.5,-184 2008.5,-184 2008.5,-165 2142.5,-165 2142.5,-184"/>
<text text-anchor="middle" x="2075.5" y="-172" font-family="Helvetica,sans-Serif" font-size="10.00">FluidSynthSynthesizer.cpp</text>
</a>
</g>
</g>
<!-- Node25&#45;&gt;Node37 -->
<g id="edge51_Node000025_Node000037" class="edge">
<title>Node25&#45;&gt;Node37</title>
<g id="a_edge51_Node000025_Node000037"><a xlink:title=" ">
<path fill="none" stroke="#63b8ff" d="M1405.48,-220.11C1668.7,-184.26 1738.9,-206.44 1999.5,-184 2002.41,-183.75 2005.38,-183.48 2008.38,-183.19"/>
<polygon fill="#63b8ff" stroke="#63b8ff" points="1404.65,-216.69 1395.23,-221.53 1405.61,-223.63 1404.65,-216.69"/>
</a>
</g>
</g>
<!-- Node38 -->
<g id="Node000038" class="node">
<title>Node38</title>
<g id="a_Node000038"><a xlink:href="_midi_preset_identification_8cpp.html" target="_top" xlink:title="The MidiPresetIdentification body implements the identification of a MIDI preset as a tuple of bank a...">
<polygon fill="white" stroke="#666666" points="2296.5,-184 2160.5,-184 2160.5,-165 2296.5,-165 2296.5,-184"/>
<text text-anchor="middle" x="2228.5" y="-172" font-family="Helvetica,sans-Serif" font-size="10.00">MidiPresetIdentification.cpp</text>
</a>
</g>
</g>
<!-- Node25&#45;&gt;Node38 -->
<g id="edge56_Node000025_Node000038" class="edge">
<title>Node25&#45;&gt;Node38</title>
<g id="a_edge56_Node000025_Node000038"><a xlink:title=" ">
<path fill="none" stroke="#63b8ff" d="M1405.56,-220.13C1735.81,-177.15 1823.55,-209.98 2151.5,-184 2154.32,-183.78 2157.19,-183.53 2160.09,-183.27"/>
<polygon fill="#63b8ff" stroke="#63b8ff" points="1404.68,-216.71 1395.22,-221.49 1405.59,-223.65 1404.68,-216.71"/>
</a>
</g>
</g>
<!-- Node39 -->
<g id="Node000039" class="node">
<title>Node39</title>
<g id="a_Node000039"><a xlink:href="_time_and_duration_8cpp.html" target="_top" xlink:title="The TimeAndDuration body implements simple functions for the types for time and duration.">
<polygon fill="white" stroke="#666666" points="2424.5,-184 2314.5,-184 2314.5,-165 2424.5,-165 2424.5,-184"/>
<text text-anchor="middle" x="2369.5" y="-172" font-family="Helvetica,sans-Serif" font-size="10.00">TimeAndDuration.cpp</text>
</a>
</g>
</g>
<!-- Node25&#45;&gt;Node39 -->
<g id="edge58_Node000025_Node000039" class="edge">
<title>Node25&#45;&gt;Node39</title>
<g id="a_edge58_Node000025_Node000039"><a xlink:title=" ">
<path fill="none" stroke="#63b8ff" d="M1405.29,-220.18C1803.77,-169.95 1909.53,-218.13 2305.5,-184 2308.4,-183.75 2311.38,-183.46 2314.38,-183.15"/>
<polygon fill="#63b8ff" stroke="#63b8ff" points="1404.7,-216.73 1395.22,-221.46 1405.58,-223.67 1404.7,-216.73"/>
</a>
</g>
</g>
<!-- Node27 -->
<g id="Node000027" class="node">
<title>Node27</title>
<g id="a_Node000027"><a xlink:href="_audio_sample_fifo_queue_8h.html" target="_top" xlink:title="The AudioSampleFifoQueue specification defines a fifo queue for audio samples with popping off access...">
<polygon fill="white" stroke="#666666" points="2450,-129 2323,-129 2323,-110 2450,-110 2450,-129"/>
<text text-anchor="middle" x="2386.5" y="-117" font-family="Helvetica,sans-Serif" font-size="10.00">AudioSampleFifoQueue.h</text>
</a>
</g>
</g>
<!-- Node26&#45;&gt;Node27 -->
<g id="edge35_Node000026_Node000027" class="edge">
<title>Node26&#45;&gt;Node27</title>
<g id="a_edge35_Node000026_Node000027"><a xlink:title=" ">
<path fill="none" stroke="#63b8ff" d="M2488.53,-161.16C2463.91,-151.35 2430.09,-137.87 2408.26,-129.17"/>
<polygon fill="#63b8ff" stroke="#63b8ff" points="2487.55,-164.53 2498.13,-164.98 2490.14,-158.03 2487.55,-164.53"/>
</a>
</g>
</g>
<!-- Node28 -->
<g id="Node000028" class="node">
<title>Node28</title>
<g id="a_Node000028"><a xlink:href="_audio_sample_fifo_queue_8cpp.html" target="_top" xlink:title="The AudioSampleFifoQueue body implements a fifo queue for audio samples with popping off access to th...">
<polygon fill="white" stroke="#666666" points="2373,-74 2236,-74 2236,-55 2373,-55 2373,-74"/>
<text text-anchor="middle" x="2304.5" y="-62" font-family="Helvetica,sans-Serif" font-size="10.00">AudioSampleFifoQueue.cpp</text>
</a>
</g>
</g>
<!-- Node27&#45;&gt;Node28 -->
<g id="edge36_Node000027_Node000028" class="edge">
<title>Node27&#45;&gt;Node28</title>
<g id="a_edge36_Node000027_Node000028"><a xlink:title=" ">
<path fill="none" stroke="#63b8ff" d="M2364.72,-104.42C2349.84,-94.81 2330.59,-82.37 2317.91,-74.17"/>
<polygon fill="#63b8ff" stroke="#63b8ff" points="2363.03,-107.5 2373.33,-109.98 2366.83,-101.62 2363.03,-107.5"/>
</a>
</g>
</g>
<!-- Node29 -->
<g id="Node000029" class="node">
<title>Node29</title>
<g id="a_Node000029"><a xlink:href="_audio_sample_fifo_queue_vector_8h.html" target="_top" xlink:title="The AudioSampleFifoQueueVector specification defines a list of fifo queues for audio samples.">
<polygon fill="white" stroke="#666666" points="2546,-74 2391,-74 2391,-55 2546,-55 2546,-74"/>
<text text-anchor="middle" x="2468.5" y="-62" font-family="Helvetica,sans-Serif" font-size="10.00">AudioSampleFifoQueueVector.h</text>
</a>
</g>
</g>
<!-- Node27&#45;&gt;Node29 -->
<g id="edge37_Node000027_Node000029" class="edge">
<title>Node27&#45;&gt;Node29</title>
<g id="a_edge37_Node000027_Node000029"><a xlink:title=" ">
<path fill="none" stroke="#63b8ff" d="M2408.28,-104.42C2423.16,-94.81 2442.41,-82.37 2455.09,-74.17"/>
<polygon fill="#63b8ff" stroke="#63b8ff" points="2406.17,-101.62 2399.67,-109.98 2409.97,-107.5 2406.17,-101.62"/>
</a>
</g>
</g>
<!-- Node29&#45;&gt;Node15 -->
<g id="edge39_Node000029_Node000015" class="edge">
<title>Node29&#45;&gt;Node15</title>
<g id="a_edge39_Node000029_Node000015"><a xlink:title=" ">
<path fill="none" stroke="#63b8ff" d="M2380.68,-54.91C2013.86,-29.43 1589.32,-17.06 1406.59,-12.55"/>
<polygon fill="#63b8ff" stroke="#63b8ff" points="2380.48,-58.4 2390.7,-55.61 2380.97,-51.42 2380.48,-58.4"/>
</a>
</g>
</g>
<!-- Node30 -->
<g id="Node000030" class="node">
<title>Node30</title>
<g id="a_Node000030"><a xlink:href="_audio_sample_fifo_queue_vector_8cpp.html" target="_top" xlink:title="The AudioSampleFifoQueueVector body implements a list of fifo queues for audio samples (this is the f...">
<polygon fill="white" stroke="#666666" points="2551.5,-19 2385.5,-19 2385.5,0 2551.5,0 2551.5,-19"/>
<text text-anchor="middle" x="2468.5" y="-7" font-family="Helvetica,sans-Serif" font-size="10.00">AudioSampleFifoQueueVector.cpp</text>
</a>
</g>
</g>
<!-- Node29&#45;&gt;Node30 -->
<g id="edge38_Node000029_Node000030" class="edge">
<title>Node29&#45;&gt;Node30</title>
<g id="a_edge38_Node000029_Node000030"><a xlink:title=" ">
<path fill="none" stroke="#63b8ff" d="M2468.5,-44.66C2468.5,-35.93 2468.5,-25.99 2468.5,-19.09"/>
<polygon fill="#63b8ff" stroke="#63b8ff" points="2465,-44.75 2468.5,-54.75 2472,-44.75 2465,-44.75"/>
</a>
</g>
</g>
<!-- Node31&#45;&gt;Node29 -->
<g id="edge41_Node000031_Node000029" class="edge">
<title>Node31&#45;&gt;Node29</title>
<g id="a_edge41_Node000031_Node000029"><a xlink:title=" ">
<path fill="none" stroke="#63b8ff" d="M2535.8,-104.7C2519.22,-95.04 2497.59,-82.44 2483.39,-74.17"/>
<polygon fill="#63b8ff" stroke="#63b8ff" points="2534.48,-107.98 2544.88,-109.98 2538,-101.93 2534.48,-107.98"/>
</a>
</g>
</g>
</g>
</svg>
