<?xml version="1.0" encoding="UTF-8" standalone="no"?>
<!DOCTYPE svg PUBLIC "-//W3C//DTD SVG 1.1//EN"
 "http://www.w3.org/Graphics/SVG/1.1/DTD/svg11.dtd">
<!-- Generated by graphviz version 2.47.1 (20210417.1919)
 -->
<!-- Title: StringList.cpp Pages: 1 -->
<svg width="453pt" height="412pt"
 viewBox="0.00 0.00 452.84 412.00" xmlns="http://www.w3.org/2000/svg" xmlns:xlink="http://www.w3.org/1999/xlink">
<g id="graph0" class="graph" transform="scale(1 1) rotate(0) translate(4 408)">
<title>StringList.cpp</title>
<!-- Node1 -->
<g id="Node000001" class="node">
<title>Node1</title>
<g id="a_Node000001"><a xlink:title="The StringList body implements lists of string values with zero&#45;based arbitrary indexed access to pos...">
<polygon fill="#999999" stroke="#666666" points="409.34,-404 332.34,-404 332.34,-385 409.34,-385 409.34,-404"/>
<text text-anchor="middle" x="370.84" y="-392" font-family="Helvetica,sans-Serif" font-size="10.00">StringList.cpp</text>
</a>
</g>
</g>
<!-- Node2 -->
<g id="Node000002" class="node">
<title>Node2</title>
<g id="a_Node000002"><a xlink:href="_assertion_8h.html" target="_top" xlink:title="The Assertion specification defines macros for pre&#45; and postconditions in functions or methods.">
<polygon fill="white" stroke="#666666" points="378.84,-74 312.84,-74 312.84,-55 378.84,-55 378.84,-74"/>
<text text-anchor="middle" x="345.84" y="-62" font-family="Helvetica,sans-Serif" font-size="10.00">Assertion.h</text>
</a>
</g>
</g>
<!-- Node1&#45;&gt;Node2 -->
<g id="edge1_Node000001_Node000002" class="edge">
<title>Node1&#45;&gt;Node2</title>
<g id="a_edge1_Node000001_Node000002"><a xlink:title=" ">
<path fill="none" stroke="#63b8ff" d="M382.4,-384.81C403.21,-368.07 444.84,-329.14 444.84,-285.5 444.84,-285.5 444.84,-285.5 444.84,-173.5 444.84,-130.35 401.37,-96.96 372.04,-79.35"/>
<polygon fill="#63b8ff" stroke="#63b8ff" points="373.5,-76.15 363.08,-74.19 370,-82.21 373.5,-76.15"/>
</a>
</g>
</g>
<!-- Node5 -->
<g id="Node000005" class="node">
<title>Node5</title>
<g id="a_Node000005"><a xlink:href="_string_util_8h.html" target="_top" xlink:title="The StringUtil specification defines several string routines not included in the standard C++ library...">
<polygon fill="white" stroke="#666666" points="352.34,-349 287.34,-349 287.34,-330 352.34,-330 352.34,-349"/>
<text text-anchor="middle" x="319.84" y="-337" font-family="Helvetica,sans-Serif" font-size="10.00">StringUtil.h</text>
</a>
</g>
</g>
<!-- Node1&#45;&gt;Node5 -->
<g id="edge4_Node000001_Node000005" class="edge">
<title>Node1&#45;&gt;Node5</title>
<g id="a_edge4_Node000001_Node000005"><a xlink:title=" ">
<path fill="none" stroke="#63b8ff" d="M362.42,-384.75C355.07,-377.11 344.21,-365.82 335.3,-356.56"/>
<polygon fill="#63b8ff" stroke="#63b8ff" points="337.56,-353.87 328.1,-349.09 332.52,-358.72 337.56,-353.87"/>
</a>
</g>
</g>
<!-- Node3 -->
<g id="Node000003" class="node">
<title>Node3</title>
<g id="a_Node000003"><a xlink:title=" ">
<polygon fill="#e0e0e0" stroke="#999999" points="436.34,-19 377.34,-19 377.34,0 436.34,0 436.34,-19"/>
<text text-anchor="middle" x="406.84" y="-7" font-family="Helvetica,sans-Serif" font-size="10.00">stdexcept</text>
</a>
</g>
</g>
<!-- Node2&#45;&gt;Node3 -->
<g id="edge2_Node000002_Node000003" class="edge">
<title>Node2&#45;&gt;Node3</title>
<g id="a_edge2_Node000002_Node000003"><a xlink:title=" ">
<path fill="none" stroke="#63b8ff" d="M355.64,-54.98C364.66,-47.15 378.25,-35.34 389.16,-25.86"/>
<polygon fill="#63b8ff" stroke="#63b8ff" points="391.61,-28.37 396.86,-19.17 387.02,-23.09 391.61,-28.37"/>
</a>
</g>
</g>
<!-- Node4 -->
<g id="Node000004" class="node">
<title>Node4</title>
<g id="a_Node000004"><a xlink:title=" ">
<polygon fill="#e0e0e0" stroke="#999999" points="359.34,-19 318.34,-19 318.34,0 359.34,0 359.34,-19"/>
<text text-anchor="middle" x="338.84" y="-7" font-family="Helvetica,sans-Serif" font-size="10.00">string</text>
</a>
</g>
</g>
<!-- Node2&#45;&gt;Node4 -->
<g id="edge3_Node000002_Node000004" class="edge">
<title>Node2&#45;&gt;Node4</title>
<g id="a_edge3_Node000002_Node000004"><a xlink:title=" ">
<path fill="none" stroke="#63b8ff" d="M344.68,-54.75C343.77,-47.8 342.45,-37.85 341.3,-29.13"/>
<polygon fill="#63b8ff" stroke="#63b8ff" points="344.75,-28.54 339.97,-19.09 337.81,-29.46 344.75,-28.54"/>
</a>
</g>
</g>
<!-- Node6 -->
<g id="Node000006" class="node">
<title>Node6</title>
<g id="a_Node000006"><a xlink:href="_boolean_8h.html" target="_top" xlink:title="The Boolean specification and body provides a value object type for boolean values.">
<polygon fill="white" stroke="#666666" points="380.84,-184 320.84,-184 320.84,-165 380.84,-165 380.84,-184"/>
<text text-anchor="middle" x="350.84" y="-172" font-family="Helvetica,sans-Serif" font-size="10.00">Boolean.h</text>
</a>
</g>
</g>
<!-- Node5&#45;&gt;Node6 -->
<g id="edge5_Node000005_Node000006" class="edge">
<title>Node5&#45;&gt;Node6</title>
<g id="a_edge5_Node000005_Node000006"><a xlink:title=" ">
<path fill="none" stroke="#63b8ff" d="M330.24,-329.99C339.72,-321.71 353.49,-308.31 361.84,-294 374.73,-271.9 375.02,-264.3 378.84,-239 380.1,-230.65 381.18,-228.11 378.84,-220 375.97,-210.06 370.16,-200.2 364.56,-192.29"/>
<polygon fill="#63b8ff" stroke="#63b8ff" points="367.34,-190.16 358.51,-184.3 361.76,-194.39 367.34,-190.16"/>
</a>
</g>
</g>
<!-- Node9 -->
<g id="Node000009" class="node">
<title>Node9</title>
<g id="a_Node000009"><a xlink:href="_character_8h.html" target="_top" xlink:title="The Character specification and body provides a value object type for character values.">
<polygon fill="white" stroke="#666666" points="119.34,-239 52.34,-239 52.34,-220 119.34,-220 119.34,-239"/>
<text text-anchor="middle" x="85.84" y="-227" font-family="Helvetica,sans-Serif" font-size="10.00">Character.h</text>
</a>
</g>
</g>
<!-- Node5&#45;&gt;Node9 -->
<g id="edge9_Node000005_Node000009" class="edge">
<title>Node5&#45;&gt;Node9</title>
<g id="a_edge9_Node000005_Node000009"><a xlink:title=" ">
<path fill="none" stroke="#63b8ff" d="M287.34,-333.21C254.75,-327.01 203.8,-314.83 163.84,-294 139.8,-281.47 116.23,-260.78 101.4,-246.44"/>
<polygon fill="#63b8ff" stroke="#63b8ff" points="103.68,-243.77 94.12,-239.22 98.76,-248.74 103.68,-243.77"/>
</a>
</g>
</g>
<!-- Node15 -->
<g id="Node000015" class="node">
<title>Node15</title>
<g id="a_Node000015"><a xlink:href="_percentage_8h.html" target="_top" xlink:title="The Percentage specification and body provides a simple percentage type.">
<polygon fill="white" stroke="#666666" points="246.84,-294 172.84,-294 172.84,-275 246.84,-275 246.84,-294"/>
<text text-anchor="middle" x="209.84" y="-282" font-family="Helvetica,sans-Serif" font-size="10.00">Percentage.h</text>
</a>
</g>
</g>
<!-- Node5&#45;&gt;Node15 -->
<g id="edge19_Node000005_Node000015" class="edge">
<title>Node5&#45;&gt;Node15</title>
<g id="a_edge19_Node000005_Node000015"><a xlink:title=" ">
<path fill="none" stroke="#63b8ff" d="M302.17,-329.98C284.55,-321.5 257.26,-308.35 236.91,-298.54"/>
<polygon fill="#63b8ff" stroke="#63b8ff" points="238.36,-295.36 227.83,-294.17 235.32,-301.66 238.36,-295.36"/>
</a>
</g>
</g>
<!-- Node18 -->
<g id="Node000018" class="node">
<title>Node18</title>
<g id="a_Node000018"><a xlink:href="_string_list_8h.html" target="_top" xlink:title="The StringList specification defines lists of string values with zero&#45;based arbitrary indexed access ...">
<polygon fill="white" stroke="#666666" points="352.84,-294 286.84,-294 286.84,-275 352.84,-275 352.84,-294"/>
<text text-anchor="middle" x="319.84" y="-282" font-family="Helvetica,sans-Serif" font-size="10.00">StringList.h</text>
</a>
</g>
</g>
<!-- Node5&#45;&gt;Node18 -->
<g id="edge25_Node000005_Node000018" class="edge">
<title>Node5&#45;&gt;Node18</title>
<g id="a_edge25_Node000005_Node000018"><a xlink:title=" ">
<path fill="none" stroke="#63b8ff" d="M319.84,-329.75C319.84,-322.8 319.84,-312.85 319.84,-304.13"/>
<polygon fill="#63b8ff" stroke="#63b8ff" points="323.34,-304.09 319.84,-294.09 316.34,-304.09 323.34,-304.09"/>
</a>
</g>
</g>
<!-- Node7 -->
<g id="Node000007" class="node">
<title>Node7</title>
<g id="a_Node000007"><a xlink:href="_my_string_8h.html" target="_top" xlink:title="The String specification defines a standard string type.">
<polygon fill="white" stroke="#666666" points="294.84,-74 230.84,-74 230.84,-55 294.84,-55 294.84,-74"/>
<text text-anchor="middle" x="262.84" y="-62" font-family="Helvetica,sans-Serif" font-size="10.00">MyString.h</text>
</a>
</g>
</g>
<!-- Node6&#45;&gt;Node7 -->
<g id="edge6_Node000006_Node000007" class="edge">
<title>Node6&#45;&gt;Node7</title>
<g id="a_edge6_Node000006_Node000007"><a xlink:title=" ">
<path fill="none" stroke="#63b8ff" d="M343.64,-164.66C328.93,-146.61 295.25,-105.28 276.35,-82.08"/>
<polygon fill="#63b8ff" stroke="#63b8ff" points="278.92,-79.7 269.89,-74.16 273.5,-84.12 278.92,-79.7"/>
</a>
</g>
</g>
<!-- Node7&#45;&gt;Node4 -->
<g id="edge7_Node000007_Node000004" class="edge">
<title>Node7&#45;&gt;Node4</title>
<g id="a_edge7_Node000007_Node000004"><a xlink:title=" ">
<path fill="none" stroke="#63b8ff" d="M275.05,-54.98C286.62,-46.92 304.22,-34.65 318,-25.03"/>
<polygon fill="#63b8ff" stroke="#63b8ff" points="320.21,-27.76 326.41,-19.17 316.2,-22.02 320.21,-27.76"/>
</a>
</g>
</g>
<!-- Node8 -->
<g id="Node000008" class="node">
<title>Node8</title>
<g id="a_Node000008"><a xlink:href="_global_macros_8h.html" target="_top" xlink:title="The GlobalMacros specification defines simple macros (e.g. for parameter modes).">
<polygon fill="white" stroke="#666666" points="300.34,-19 215.34,-19 215.34,0 300.34,0 300.34,-19"/>
<text text-anchor="middle" x="257.84" y="-7" font-family="Helvetica,sans-Serif" font-size="10.00">GlobalMacros.h</text>
</a>
</g>
</g>
<!-- Node7&#45;&gt;Node8 -->
<g id="edge8_Node000007_Node000008" class="edge">
<title>Node7&#45;&gt;Node8</title>
<g id="a_edge8_Node000007_Node000008"><a xlink:title=" ">
<path fill="none" stroke="#63b8ff" d="M262.01,-54.75C261.36,-47.8 260.42,-37.85 259.6,-29.13"/>
<polygon fill="#63b8ff" stroke="#63b8ff" points="263.07,-28.72 258.65,-19.09 256.1,-29.37 263.07,-28.72"/>
</a>
</g>
</g>
<!-- Node10 -->
<g id="Node000010" class="node">
<title>Node10</title>
<g id="a_Node000010"><a xlink:title=" ">
<polygon fill="#e0e0e0" stroke="#999999" points="102.84,-74 58.84,-74 58.84,-55 102.84,-55 102.84,-74"/>
<text text-anchor="middle" x="80.84" y="-62" font-family="Helvetica,sans-Serif" font-size="10.00">cmath</text>
</a>
</g>
</g>
<!-- Node9&#45;&gt;Node10 -->
<g id="edge10_Node000009_Node000010" class="edge">
<title>Node9&#45;&gt;Node10</title>
<g id="a_edge10_Node000009_Node000010"><a xlink:title=" ">
<path fill="none" stroke="#63b8ff" d="M74.74,-219.84C55.66,-204.16 17.32,-168.97 2.84,-129 -0.04,-121.06 -1.4,-117.3 2.84,-110 12.79,-92.87 32.08,-81.78 48.98,-74.96"/>
<polygon fill="#63b8ff" stroke="#63b8ff" points="50.4,-78.16 58.57,-71.42 47.98,-71.6 50.4,-78.16"/>
</a>
</g>
</g>
<!-- Node11 -->
<g id="Node000011" class="node">
<title>Node11</title>
<g id="a_Node000011"><a xlink:href="_byte_8h.html" target="_top" xlink:title="The Byte specification and body provides a value object type for byte values.">
<polygon fill="white" stroke="#666666" points="108.34,-184 63.34,-184 63.34,-165 108.34,-165 108.34,-184"/>
<text text-anchor="middle" x="85.84" y="-172" font-family="Helvetica,sans-Serif" font-size="10.00">Byte.h</text>
</a>
</g>
</g>
<!-- Node9&#45;&gt;Node11 -->
<g id="edge11_Node000009_Node000011" class="edge">
<title>Node9&#45;&gt;Node11</title>
<g id="a_edge11_Node000009_Node000011"><a xlink:title=" ">
<path fill="none" stroke="#63b8ff" d="M85.84,-219.75C85.84,-212.8 85.84,-202.85 85.84,-194.13"/>
<polygon fill="#63b8ff" stroke="#63b8ff" points="89.34,-194.09 85.84,-184.09 82.34,-194.09 89.34,-194.09"/>
</a>
</g>
</g>
<!-- Node11&#45;&gt;Node10 -->
<g id="edge12_Node000011_Node000010" class="edge">
<title>Node11&#45;&gt;Node10</title>
<g id="a_edge12_Node000011_Node000010"><a xlink:title=" ">
<path fill="none" stroke="#63b8ff" d="M85.43,-164.66C84.62,-147.17 82.8,-107.8 81.71,-84.27"/>
<polygon fill="#63b8ff" stroke="#63b8ff" points="85.2,-83.99 81.24,-74.16 78.21,-84.31 85.2,-83.99"/>
</a>
</g>
</g>
<!-- Node12 -->
<g id="Node000012" class="node">
<title>Node12</title>
<g id="a_Node000012"><a xlink:title=" ">
<polygon fill="#e0e0e0" stroke="#999999" points="57.84,-129 11.84,-129 11.84,-110 57.84,-110 57.84,-129"/>
<text text-anchor="middle" x="34.84" y="-117" font-family="Helvetica,sans-Serif" font-size="10.00">cstdint</text>
</a>
</g>
</g>
<!-- Node11&#45;&gt;Node12 -->
<g id="edge13_Node000011_Node000012" class="edge">
<title>Node11&#45;&gt;Node12</title>
<g id="a_edge13_Node000011_Node000012"><a xlink:title=" ">
<path fill="none" stroke="#63b8ff" d="M77.42,-164.75C70.07,-157.11 59.21,-145.82 50.3,-136.56"/>
<polygon fill="#63b8ff" stroke="#63b8ff" points="52.56,-133.87 43.1,-129.09 47.52,-138.72 52.56,-133.87"/>
</a>
</g>
</g>
<!-- Node13 -->
<g id="Node000013" class="node">
<title>Node13</title>
<g id="a_Node000013"><a xlink:href="_natural_8h.html" target="_top" xlink:title="The Natural specification and body provides a value object type for naturals (positive integers with ...">
<polygon fill="white" stroke="#666666" points="207.84,-129 151.84,-129 151.84,-110 207.84,-110 207.84,-129"/>
<text text-anchor="middle" x="179.84" y="-117" font-family="Helvetica,sans-Serif" font-size="10.00">Natural.h</text>
</a>
</g>
</g>
<!-- Node11&#45;&gt;Node13 -->
<g id="edge14_Node000011_Node000013" class="edge">
<title>Node11&#45;&gt;Node13</title>
<g id="a_edge14_Node000011_Node000013"><a xlink:title=" ">
<path fill="none" stroke="#63b8ff" d="M100.94,-164.98C115.66,-156.69 138.26,-143.94 155.51,-134.22"/>
<polygon fill="#63b8ff" stroke="#63b8ff" points="157.47,-137.13 164.46,-129.17 154.03,-131.03 157.47,-137.13"/>
</a>
</g>
</g>
<!-- Node13&#45;&gt;Node2 -->
<g id="edge16_Node000013_Node000002" class="edge">
<title>Node13&#45;&gt;Node2</title>
<g id="a_edge16_Node000013_Node000002"><a xlink:title=" ">
<path fill="none" stroke="#63b8ff" d="M206.51,-109.98C234.38,-101.09 278.29,-87.07 309.36,-77.15"/>
<polygon fill="#63b8ff" stroke="#63b8ff" points="310.5,-80.46 318.96,-74.08 308.37,-73.79 310.5,-80.46"/>
</a>
</g>
</g>
<!-- Node13&#45;&gt;Node7 -->
<g id="edge18_Node000013_Node000007" class="edge">
<title>Node13&#45;&gt;Node7</title>
<g id="a_edge18_Node000013_Node000007"><a xlink:title=" ">
<path fill="none" stroke="#63b8ff" d="M193.18,-109.98C205.93,-101.84 225.39,-89.41 240.51,-79.76"/>
<polygon fill="#63b8ff" stroke="#63b8ff" points="242.72,-82.5 249.26,-74.17 238.95,-76.6 242.72,-82.5"/>
</a>
</g>
</g>
<!-- Node13&#45;&gt;Node10 -->
<g id="edge15_Node000013_Node000010" class="edge">
<title>Node13&#45;&gt;Node10</title>
<g id="a_edge15_Node000013_Node000010"><a xlink:title=" ">
<path fill="none" stroke="#63b8ff" d="M163.93,-109.98C148.29,-101.61 124.18,-88.7 105.96,-78.95"/>
<polygon fill="#63b8ff" stroke="#63b8ff" points="107.5,-75.8 97.04,-74.17 104.2,-81.98 107.5,-75.8"/>
</a>
</g>
</g>
<!-- Node14 -->
<g id="Node000014" class="node">
<title>Node14</title>
<g id="a_Node000014"><a xlink:title=" ">
<polygon fill="#e0e0e0" stroke="#999999" points="212.84,-74 120.84,-74 120.84,-55 212.84,-55 212.84,-74"/>
<text text-anchor="middle" x="166.84" y="-62" font-family="Helvetica,sans-Serif" font-size="10.00">GenericNumber.h</text>
</a>
</g>
</g>
<!-- Node13&#45;&gt;Node14 -->
<g id="edge17_Node000013_Node000014" class="edge">
<title>Node13&#45;&gt;Node14</title>
<g id="a_edge17_Node000013_Node000014"><a xlink:title=" ">
<path fill="none" stroke="#63b8ff" d="M177.69,-109.75C175.97,-102.72 173.49,-92.62 171.34,-83.84"/>
<polygon fill="#63b8ff" stroke="#63b8ff" points="174.73,-82.97 168.95,-74.09 167.93,-84.63 174.73,-82.97"/>
</a>
</g>
</g>
<!-- Node16 -->
<g id="Node000016" class="node">
<title>Node16</title>
<g id="a_Node000016"><a xlink:href="_real_8h.html" target="_top" xlink:title="The Real specification defines a value object type for real values.">
<polygon fill="white" stroke="#666666" points="185.84,-239 141.84,-239 141.84,-220 185.84,-220 185.84,-239"/>
<text text-anchor="middle" x="163.84" y="-227" font-family="Helvetica,sans-Serif" font-size="10.00">Real.h</text>
</a>
</g>
</g>
<!-- Node15&#45;&gt;Node16 -->
<g id="edge20_Node000015_Node000016" class="edge">
<title>Node15&#45;&gt;Node16</title>
<g id="a_edge20_Node000015_Node000016"><a xlink:title=" ">
<path fill="none" stroke="#63b8ff" d="M202.24,-274.75C195.68,-267.18 186.02,-256.05 178.03,-246.84"/>
<polygon fill="#63b8ff" stroke="#63b8ff" points="180.49,-244.35 171.29,-239.09 175.21,-248.94 180.49,-244.35"/>
</a>
</g>
</g>
<!-- Node17 -->
<g id="Node000017" class="node">
<title>Node17</title>
<g id="a_Node000017"><a xlink:href="_integer_8h.html" target="_top" xlink:title="The Integer specification and body provides a value object type for ints.">
<polygon fill="white" stroke="#666666" points="198.84,-184 144.84,-184 144.84,-165 198.84,-165 198.84,-184"/>
<text text-anchor="middle" x="171.84" y="-172" font-family="Helvetica,sans-Serif" font-size="10.00">Integer.h</text>
</a>
</g>
</g>
<!-- Node16&#45;&gt;Node17 -->
<g id="edge21_Node000016_Node000017" class="edge">
<title>Node16&#45;&gt;Node17</title>
<g id="a_edge21_Node000016_Node000017"><a xlink:title=" ">
<path fill="none" stroke="#63b8ff" d="M165.16,-219.75C166.21,-212.8 167.71,-202.85 169.03,-194.13"/>
<polygon fill="#63b8ff" stroke="#63b8ff" points="172.51,-194.5 170.54,-184.09 165.59,-193.45 172.51,-194.5"/>
</a>
</g>
</g>
<!-- Node17&#45;&gt;Node3 -->
<g id="edge23_Node000017_Node000003" class="edge">
<title>Node17&#45;&gt;Node3</title>
<g id="a_edge23_Node000017_Node000003"><a xlink:title=" ">
<path fill="none" stroke="#63b8ff" d="M199.06,-168.5C244.81,-158.66 337.09,-132.46 387.84,-74 398.57,-61.64 403.24,-43.42 405.27,-29.67"/>
<polygon fill="#63b8ff" stroke="#63b8ff" points="408.79,-29.72 406.44,-19.39 401.83,-28.93 408.79,-29.72"/>
</a>
</g>
</g>
<!-- Node17&#45;&gt;Node10 -->
<g id="edge22_Node000017_Node000010" class="edge">
<title>Node17&#45;&gt;Node10</title>
<g id="a_edge22_Node000017_Node000010"><a xlink:title=" ">
<path fill="none" stroke="#63b8ff" d="M164.39,-164.66C149.19,-146.61 114.36,-105.28 94.81,-82.08"/>
<polygon fill="#63b8ff" stroke="#63b8ff" points="97.26,-79.55 88.14,-74.16 91.9,-84.06 97.26,-79.55"/>
</a>
</g>
</g>
<!-- Node17&#45;&gt;Node13 -->
<g id="edge24_Node000017_Node000013" class="edge">
<title>Node17&#45;&gt;Node13</title>
<g id="a_edge24_Node000017_Node000013"><a xlink:title=" ">
<path fill="none" stroke="#63b8ff" d="M173.16,-164.75C174.21,-157.8 175.71,-147.85 177.03,-139.13"/>
<polygon fill="#63b8ff" stroke="#63b8ff" points="180.51,-139.5 178.54,-129.09 173.59,-138.45 180.51,-139.5"/>
</a>
</g>
</g>
<!-- Node19 -->
<g id="Node000019" class="node">
<title>Node19</title>
<g id="a_Node000019"><a xlink:title=" ">
<polygon fill="#e0e0e0" stroke="#999999" points="277.34,-239 204.34,-239 204.34,-220 277.34,-220 277.34,-239"/>
<text text-anchor="middle" x="240.84" y="-227" font-family="Helvetica,sans-Serif" font-size="10.00">initializer_list</text>
</a>
</g>
</g>
<!-- Node18&#45;&gt;Node19 -->
<g id="edge26_Node000018_Node000019" class="edge">
<title>Node18&#45;&gt;Node19</title>
<g id="a_edge26_Node000018_Node000019"><a xlink:title=" ">
<path fill="none" stroke="#63b8ff" d="M307.15,-274.98C295.01,-266.84 276.48,-254.41 262.09,-244.76"/>
<polygon fill="#63b8ff" stroke="#63b8ff" points="264.02,-241.84 253.76,-239.17 260.12,-247.65 264.02,-241.84"/>
</a>
</g>
</g>
<!-- Node20 -->
<g id="Node000020" class="node">
<title>Node20</title>
<g id="a_Node000020"><a xlink:title=" ">
<polygon fill="#e0e0e0" stroke="#999999" points="369.84,-239 295.84,-239 295.84,-220 369.84,-220 369.84,-239"/>
<text text-anchor="middle" x="332.84" y="-227" font-family="Helvetica,sans-Serif" font-size="10.00">GenericList.h</text>
</a>
</g>
</g>
<!-- Node18&#45;&gt;Node20 -->
<g id="edge27_Node000018_Node000020" class="edge">
<title>Node18&#45;&gt;Node20</title>
<g id="a_edge27_Node000018_Node000020"><a xlink:title=" ">
<path fill="none" stroke="#63b8ff" d="M321.99,-274.75C323.71,-267.72 326.19,-257.62 328.34,-248.84"/>
<polygon fill="#63b8ff" stroke="#63b8ff" points="331.75,-249.63 330.73,-239.09 324.95,-247.97 331.75,-249.63"/>
</a>
</g>
</g>
</g>
</svg>
