<?xml version="1.0" encoding="UTF-8" standalone="no"?>
<!DOCTYPE svg PUBLIC "-//W3C//DTD SVG 1.1//EN"
 "http://www.w3.org/Graphics/SVG/1.1/DTD/svg11.dtd">
<!-- Generated by graphviz version 2.47.1 (20210417.1919)
 -->
<!-- Title: StringList.cpp Pages: 1 -->
<svg width="459pt" height="420pt"
 viewBox="0.00 0.00 458.78 420.00" xmlns="http://www.w3.org/2000/svg" xmlns:xlink="http://www.w3.org/1999/xlink">
<g id="graph0" class="graph" transform="scale(1 1) rotate(0) translate(4 416)">
<title>StringList.cpp</title>
<polygon fill="white" stroke="transparent" points="-4,4 -4,-416 454.78,-416 454.78,4 -4,4"/>
<!-- Node1 -->
<g id="node1" class="node">
<title>Node1</title>
<g id="a_node1"><a xlink:title="The StringList body implements lists of string values with zero&#45;based arbitrary indexed access to pos...">
<polygon fill="#bfbfbf" stroke="black" points="340.28,-392.5 340.28,-411.5 417.28,-411.5 417.28,-392.5 340.28,-392.5"/>
<text text-anchor="middle" x="378.78" y="-399.5" font-family="Helvetica,sans-Serif" font-size="10.00">StringList.cpp</text>
</a>
</g>
</g>
<!-- Node2 -->
<g id="node2" class="node">
<title>Node2</title>
<g id="a_node2"><a xlink:href="_assertion_8h.html" target="_top" xlink:title="The Assertion specification defines macros for pre&#45; and postconditions in functions or methods.">
<polygon fill="white" stroke="black" points="318.78,-56.5 318.78,-75.5 384.78,-75.5 384.78,-56.5 318.78,-56.5"/>
<text text-anchor="middle" x="351.78" y="-63.5" font-family="Helvetica,sans-Serif" font-size="10.00">Assertion.h</text>
</a>
</g>
</g>
<!-- Node1&#45;&gt;Node2 -->
<g id="edge1" class="edge">
<title>Node1&#45;&gt;Node2</title>
<path fill="none" stroke="midnightblue" d="M389.72,-392.3C409.86,-375.2 450.78,-335.05 450.78,-291 450.78,-291 450.78,-291 450.78,-177 450.78,-133.18 406.85,-98.93 377.51,-80.94"/>
<polygon fill="midnightblue" stroke="midnightblue" points="378.97,-77.74 368.58,-75.68 375.42,-83.77 378.97,-77.74"/>
</g>
<!-- Node5 -->
<g id="node5" class="node">
<title>Node5</title>
<g id="a_node5"><a xlink:href="_string_util_8h.html" target="_top" xlink:title="The StringUtil specification defines several string routines not included in the standard C++ library...">
<polygon fill="white" stroke="black" points="268.28,-336.5 268.28,-355.5 333.28,-355.5 333.28,-336.5 268.28,-336.5"/>
<text text-anchor="middle" x="300.78" y="-343.5" font-family="Helvetica,sans-Serif" font-size="10.00">StringUtil.h</text>
</a>
</g>
</g>
<!-- Node1&#45;&gt;Node5 -->
<g id="edge4" class="edge">
<title>Node1&#45;&gt;Node5</title>
<path fill="none" stroke="midnightblue" d="M366.25,-392.32C354.2,-383.98 335.76,-371.21 321.52,-361.35"/>
<polygon fill="midnightblue" stroke="midnightblue" points="323.5,-358.47 313.29,-355.65 319.51,-364.22 323.5,-358.47"/>
</g>
<!-- Node3 -->
<g id="node3" class="node">
<title>Node3</title>
<g id="a_node3"><a xlink:title=" ">
<polygon fill="white" stroke="#bfbfbf" points="383.28,-0.5 383.28,-19.5 442.28,-19.5 442.28,-0.5 383.28,-0.5"/>
<text text-anchor="middle" x="412.78" y="-7.5" font-family="Helvetica,sans-Serif" font-size="10.00">stdexcept</text>
</a>
</g>
</g>
<!-- Node2&#45;&gt;Node3 -->
<g id="edge2" class="edge">
<title>Node2&#45;&gt;Node3</title>
<path fill="none" stroke="midnightblue" d="M361.58,-56.32C370.6,-48.34 384.19,-36.31 395.1,-26.65"/>
<polygon fill="midnightblue" stroke="midnightblue" points="397.64,-29.08 402.81,-19.83 393,-23.84 397.64,-29.08"/>
</g>
<!-- Node4 -->
<g id="node4" class="node">
<title>Node4</title>
<g id="a_node4"><a xlink:title=" ">
<polygon fill="white" stroke="#bfbfbf" points="324.28,-0.5 324.28,-19.5 365.28,-19.5 365.28,-0.5 324.28,-0.5"/>
<text text-anchor="middle" x="344.78" y="-7.5" font-family="Helvetica,sans-Serif" font-size="10.00">string</text>
</a>
</g>
</g>
<!-- Node2&#45;&gt;Node4 -->
<g id="edge3" class="edge">
<title>Node2&#45;&gt;Node4</title>
<path fill="none" stroke="midnightblue" d="M350.63,-56.08C349.7,-48.93 348.37,-38.64 347.21,-29.69"/>
<polygon fill="midnightblue" stroke="midnightblue" points="350.68,-29.22 345.92,-19.75 343.73,-30.12 350.68,-29.22"/>
</g>
<!-- Node6 -->
<g id="node6" class="node">
<title>Node6</title>
<g id="a_node6"><a xlink:href="_boolean_8h.html" target="_top" xlink:title="The Boolean specification and body provides a value object type for boolean values.">
<polygon fill="white" stroke="black" points="304.78,-168.5 304.78,-187.5 364.78,-187.5 364.78,-168.5 304.78,-168.5"/>
<text text-anchor="middle" x="334.78" y="-175.5" font-family="Helvetica,sans-Serif" font-size="10.00">Boolean.h</text>
</a>
</g>
</g>
<!-- Node5&#45;&gt;Node6 -->
<g id="edge5" class="edge">
<title>Node5&#45;&gt;Node6</title>
<path fill="none" stroke="midnightblue" d="M311.3,-336.44C320.87,-328.1 334.7,-314.58 342.78,-300 355.28,-277.47 354.42,-269.55 357.78,-244 358.94,-235.19 359.86,-232.64 357.78,-224 355.48,-214.42 350.77,-204.58 346.21,-196.56"/>
<polygon fill="midnightblue" stroke="midnightblue" points="349.07,-194.54 340.89,-187.81 343.09,-198.17 349.07,-194.54"/>
</g>
<!-- Node9 -->
<g id="node9" class="node">
<title>Node9</title>
<g id="a_node9"><a xlink:href="_character_8h.html" target="_top" xlink:title="The Character specification and body provides a value object type for character values.">
<polygon fill="white" stroke="black" points="35.28,-224.5 35.28,-243.5 102.28,-243.5 102.28,-224.5 35.28,-224.5"/>
<text text-anchor="middle" x="68.78" y="-231.5" font-family="Helvetica,sans-Serif" font-size="10.00">Character.h</text>
</a>
</g>
</g>
<!-- Node5&#45;&gt;Node9 -->
<g id="edge9" class="edge">
<title>Node5&#45;&gt;Node9</title>
<path fill="none" stroke="midnightblue" d="M268.18,-339.79C235.5,-333.62 184.49,-321.39 144.78,-300 121.05,-287.21 98.16,-266.03 83.81,-251.34"/>
<polygon fill="midnightblue" stroke="midnightblue" points="86.19,-248.77 76.76,-243.94 81.12,-253.59 86.19,-248.77"/>
</g>
<!-- Node15 -->
<g id="node15" class="node">
<title>Node15</title>
<g id="a_node15"><a xlink:href="_percentage_8h.html" target="_top" xlink:title="The Percentage specification and body provides a simple percentage type.">
<polygon fill="white" stroke="black" points="153.78,-280.5 153.78,-299.5 227.78,-299.5 227.78,-280.5 153.78,-280.5"/>
<text text-anchor="middle" x="190.78" y="-287.5" font-family="Helvetica,sans-Serif" font-size="10.00">Percentage.h</text>
</a>
</g>
</g>
<!-- Node5&#45;&gt;Node15 -->
<g id="edge19" class="edge">
<title>Node5&#45;&gt;Node15</title>
<path fill="none" stroke="midnightblue" d="M283.11,-336.32C265.39,-327.62 237.88,-314.12 217.5,-304.11"/>
<polygon fill="midnightblue" stroke="midnightblue" points="218.93,-300.92 208.41,-299.65 215.85,-307.2 218.93,-300.92"/>
</g>
<!-- Node18 -->
<g id="node18" class="node">
<title>Node18</title>
<g id="a_node18"><a xlink:href="_string_list_8h.html" target="_top" xlink:title="The StringList specification defines lists of string values with zero&#45;based arbitrary indexed access ...">
<polygon fill="white" stroke="black" points="267.78,-280.5 267.78,-299.5 333.78,-299.5 333.78,-280.5 267.78,-280.5"/>
<text text-anchor="middle" x="300.78" y="-287.5" font-family="Helvetica,sans-Serif" font-size="10.00">StringList.h</text>
</a>
</g>
</g>
<!-- Node5&#45;&gt;Node18 -->
<g id="edge26" class="edge">
<title>Node5&#45;&gt;Node18</title>
<path fill="none" stroke="midnightblue" d="M300.78,-336.08C300.78,-329.01 300.78,-318.86 300.78,-309.99"/>
<polygon fill="midnightblue" stroke="midnightblue" points="304.28,-309.75 300.78,-299.75 297.28,-309.75 304.28,-309.75"/>
</g>
<!-- Node7 -->
<g id="node7" class="node">
<title>Node7</title>
<g id="a_node7"><a xlink:href="_my_string_8h.html" target="_top" xlink:title="The String specification defines a standard string type.">
<polygon fill="white" stroke="black" points="236.78,-56.5 236.78,-75.5 300.78,-75.5 300.78,-56.5 236.78,-56.5"/>
<text text-anchor="middle" x="268.78" y="-63.5" font-family="Helvetica,sans-Serif" font-size="10.00">MyString.h</text>
</a>
</g>
</g>
<!-- Node6&#45;&gt;Node7 -->
<g id="edge6" class="edge">
<title>Node6&#45;&gt;Node7</title>
<path fill="none" stroke="midnightblue" d="M329.61,-168.37C318.76,-150.3 293.49,-108.18 279.17,-84.31"/>
<polygon fill="midnightblue" stroke="midnightblue" points="282.09,-82.37 273.94,-75.59 276.08,-85.97 282.09,-82.37"/>
</g>
<!-- Node7&#45;&gt;Node4 -->
<g id="edge7" class="edge">
<title>Node7&#45;&gt;Node4</title>
<path fill="none" stroke="midnightblue" d="M280.99,-56.32C292.56,-48.11 310.16,-35.6 323.94,-25.81"/>
<polygon fill="midnightblue" stroke="midnightblue" points="326.23,-28.48 332.35,-19.83 322.17,-22.77 326.23,-28.48"/>
</g>
<!-- Node8 -->
<g id="node8" class="node">
<title>Node8</title>
<g id="a_node8"><a xlink:href="_global_macros_8h.html" target="_top" xlink:title="The GlobalMacros specification defines simple macros (e.g. for parameter modes).">
<polygon fill="white" stroke="black" points="221.28,-0.5 221.28,-19.5 306.28,-19.5 306.28,-0.5 221.28,-0.5"/>
<text text-anchor="middle" x="263.78" y="-7.5" font-family="Helvetica,sans-Serif" font-size="10.00">GlobalMacros.h</text>
</a>
</g>
</g>
<!-- Node7&#45;&gt;Node8 -->
<g id="edge8" class="edge">
<title>Node7&#45;&gt;Node8</title>
<path fill="none" stroke="midnightblue" d="M267.96,-56.08C267.3,-49.01 266.36,-38.86 265.54,-29.99"/>
<polygon fill="midnightblue" stroke="midnightblue" points="269,-29.39 264.59,-19.75 262.03,-30.03 269,-29.39"/>
</g>
<!-- Node10 -->
<g id="node10" class="node">
<title>Node10</title>
<g id="a_node10"><a xlink:title=" ">
<polygon fill="white" stroke="#bfbfbf" points="64.78,-56.5 64.78,-75.5 108.78,-75.5 108.78,-56.5 64.78,-56.5"/>
<text text-anchor="middle" x="86.78" y="-63.5" font-family="Helvetica,sans-Serif" font-size="10.00">cmath</text>
</a>
</g>
</g>
<!-- Node9&#45;&gt;Node10 -->
<g id="edge10" class="edge">
<title>Node9&#45;&gt;Node10</title>
<path fill="none" stroke="midnightblue" d="M69.75,-224.08C72.59,-197.95 80.91,-121.21 84.77,-85.58"/>
<polygon fill="midnightblue" stroke="midnightblue" points="88.26,-85.89 85.86,-75.57 81.3,-85.13 88.26,-85.89"/>
</g>
<!-- Node11 -->
<g id="node11" class="node">
<title>Node11</title>
<g id="a_node11"><a xlink:href="_byte_8h.html" target="_top" xlink:title="The Byte specification and body provides a value object type for byte values.">
<polygon fill="white" stroke="black" points="13.28,-168.5 13.28,-187.5 58.28,-187.5 58.28,-168.5 13.28,-168.5"/>
<text text-anchor="middle" x="35.78" y="-175.5" font-family="Helvetica,sans-Serif" font-size="10.00">Byte.h</text>
</a>
</g>
</g>
<!-- Node9&#45;&gt;Node11 -->
<g id="edge11" class="edge">
<title>Node9&#45;&gt;Node11</title>
<path fill="none" stroke="midnightblue" d="M63.33,-224.08C58.77,-216.61 52.12,-205.72 46.49,-196.52"/>
<polygon fill="midnightblue" stroke="midnightblue" points="49.33,-194.46 41.13,-187.75 43.36,-198.11 49.33,-194.46"/>
</g>
<!-- Node11&#45;&gt;Node10 -->
<g id="edge12" class="edge">
<title>Node11&#45;&gt;Node10</title>
<path fill="none" stroke="midnightblue" d="M25.94,-168.36C12.73,-155.69 -7.8,-131.45 3.78,-112 14.87,-93.38 36.65,-81.99 55.12,-75.32"/>
<polygon fill="midnightblue" stroke="midnightblue" points="56.27,-78.63 64.67,-72.18 54.08,-71.98 56.27,-78.63"/>
</g>
<!-- Node12 -->
<g id="node12" class="node">
<title>Node12</title>
<g id="a_node12"><a xlink:title=" ">
<polygon fill="white" stroke="#bfbfbf" points="12.78,-112.5 12.78,-131.5 58.78,-131.5 58.78,-112.5 12.78,-112.5"/>
<text text-anchor="middle" x="35.78" y="-119.5" font-family="Helvetica,sans-Serif" font-size="10.00">cstdint</text>
</a>
</g>
</g>
<!-- Node11&#45;&gt;Node12 -->
<g id="edge13" class="edge">
<title>Node11&#45;&gt;Node12</title>
<path fill="none" stroke="midnightblue" d="M35.78,-168.08C35.78,-161.01 35.78,-150.86 35.78,-141.99"/>
<polygon fill="midnightblue" stroke="midnightblue" points="39.28,-141.75 35.78,-131.75 32.28,-141.75 39.28,-141.75"/>
</g>
<!-- Node13 -->
<g id="node13" class="node">
<title>Node13</title>
<g id="a_node13"><a xlink:href="_natural_8h.html" target="_top" xlink:title="The Natural specification and body provides a value object type for naturals (positive integers with ...">
<polygon fill="white" stroke="black" points="190.78,-112.5 190.78,-131.5 246.78,-131.5 246.78,-112.5 190.78,-112.5"/>
<text text-anchor="middle" x="218.78" y="-119.5" font-family="Helvetica,sans-Serif" font-size="10.00">Natural.h</text>
</a>
</g>
</g>
<!-- Node11&#45;&gt;Node13 -->
<g id="edge14" class="edge">
<title>Node11&#45;&gt;Node13</title>
<path fill="none" stroke="midnightblue" d="M58.59,-170.27C89.16,-161.25 143.82,-145.12 180.69,-134.24"/>
<polygon fill="midnightblue" stroke="midnightblue" points="181.98,-137.51 190.58,-131.32 180,-130.8 181.98,-137.51"/>
</g>
<!-- Node13&#45;&gt;Node2 -->
<g id="edge16" class="edge">
<title>Node13&#45;&gt;Node2</title>
<path fill="none" stroke="midnightblue" d="M239.86,-112.44C261.84,-103.52 296.52,-89.44 321.45,-79.32"/>
<polygon fill="midnightblue" stroke="midnightblue" points="322.86,-82.52 330.81,-75.52 320.23,-76.04 322.86,-82.52"/>
</g>
<!-- Node13&#45;&gt;Node7 -->
<g id="edge18" class="edge">
<title>Node13&#45;&gt;Node7</title>
<path fill="none" stroke="midnightblue" d="M227.04,-112.08C234.25,-104.3 244.89,-92.8 253.63,-83.37"/>
<polygon fill="midnightblue" stroke="midnightblue" points="256.46,-85.47 260.68,-75.75 251.32,-80.71 256.46,-85.47"/>
</g>
<!-- Node13&#45;&gt;Node10 -->
<g id="edge15" class="edge">
<title>Node13&#45;&gt;Node10</title>
<path fill="none" stroke="midnightblue" d="M197.87,-112.44C176.05,-103.52 141.63,-89.44 116.89,-79.32"/>
<polygon fill="midnightblue" stroke="midnightblue" points="118.18,-76.06 107.6,-75.52 115.53,-82.54 118.18,-76.06"/>
</g>
<!-- Node14 -->
<g id="node14" class="node">
<title>Node14</title>
<g id="a_node14"><a xlink:title=" ">
<polygon fill="white" stroke="#bfbfbf" points="126.78,-56.5 126.78,-75.5 218.78,-75.5 218.78,-56.5 126.78,-56.5"/>
<text text-anchor="middle" x="172.78" y="-63.5" font-family="Helvetica,sans-Serif" font-size="10.00">GenericNumber.h</text>
</a>
</g>
</g>
<!-- Node13&#45;&gt;Node14 -->
<g id="edge17" class="edge">
<title>Node13&#45;&gt;Node14</title>
<path fill="none" stroke="midnightblue" d="M211.19,-112.08C204.56,-104.3 194.76,-92.8 186.73,-83.37"/>
<polygon fill="midnightblue" stroke="midnightblue" points="189.39,-81.09 180.24,-75.75 184.06,-85.63 189.39,-81.09"/>
</g>
<!-- Node16 -->
<g id="node16" class="node">
<title>Node16</title>
<g id="a_node16"><a xlink:href="_real_8h.html" target="_top" xlink:title="The Real specification defines a value object type for real values.">
<polygon fill="white" stroke="black" points="120.78,-224.5 120.78,-243.5 164.78,-243.5 164.78,-224.5 120.78,-224.5"/>
<text text-anchor="middle" x="142.78" y="-231.5" font-family="Helvetica,sans-Serif" font-size="10.00">Real.h</text>
</a>
</g>
</g>
<!-- Node15&#45;&gt;Node16 -->
<g id="edge20" class="edge">
<title>Node15&#45;&gt;Node16</title>
<path fill="none" stroke="midnightblue" d="M182.86,-280.08C175.94,-272.3 165.72,-260.8 157.33,-251.37"/>
<polygon fill="midnightblue" stroke="midnightblue" points="159.82,-248.9 150.56,-243.75 154.59,-253.55 159.82,-248.9"/>
</g>
<!-- Node16&#45;&gt;Node10 -->
<g id="edge21" class="edge">
<title>Node16&#45;&gt;Node10</title>
<path fill="none" stroke="midnightblue" d="M139.77,-224.08C130.92,-197.83 104.85,-120.55 92.9,-85.12"/>
<polygon fill="midnightblue" stroke="midnightblue" points="96.19,-83.92 89.67,-75.57 89.55,-86.16 96.19,-83.92"/>
</g>
<!-- Node17 -->
<g id="node17" class="node">
<title>Node17</title>
<g id="a_node17"><a xlink:href="_integer_8h.html" target="_top" xlink:title="The Integer specification and body provides a value object type for ints.">
<polygon fill="white" stroke="black" points="172.78,-168.5 172.78,-187.5 226.78,-187.5 226.78,-168.5 172.78,-168.5"/>
<text text-anchor="middle" x="199.78" y="-175.5" font-family="Helvetica,sans-Serif" font-size="10.00">Integer.h</text>
</a>
</g>
</g>
<!-- Node16&#45;&gt;Node17 -->
<g id="edge22" class="edge">
<title>Node16&#45;&gt;Node17</title>
<path fill="none" stroke="midnightblue" d="M151.94,-224.32C160.29,-216.42 172.82,-204.55 182.96,-194.94"/>
<polygon fill="midnightblue" stroke="midnightblue" points="185.61,-197.25 190.46,-187.83 180.79,-192.17 185.61,-197.25"/>
</g>
<!-- Node17&#45;&gt;Node3 -->
<g id="edge24" class="edge">
<title>Node17&#45;&gt;Node3</title>
<path fill="none" stroke="midnightblue" d="M227.01,-170.24C269.06,-158.39 349.56,-129.85 393.78,-76 404.62,-62.81 409.27,-43.67 411.28,-29.58"/>
<polygon fill="midnightblue" stroke="midnightblue" points="414.76,-29.89 412.38,-19.57 407.8,-29.12 414.76,-29.89"/>
</g>
<!-- Node17&#45;&gt;Node10 -->
<g id="edge23" class="edge">
<title>Node17&#45;&gt;Node10</title>
<path fill="none" stroke="midnightblue" d="M192.16,-168.32C180.87,-155.59 158.87,-131.3 138.78,-112 128.02,-101.66 115.37,-90.69 105.24,-82.17"/>
<polygon fill="midnightblue" stroke="midnightblue" points="107.35,-79.37 97.43,-75.66 102.87,-84.75 107.35,-79.37"/>
</g>
<!-- Node17&#45;&gt;Node13 -->
<g id="edge25" class="edge">
<title>Node17&#45;&gt;Node13</title>
<path fill="none" stroke="midnightblue" d="M202.92,-168.08C205.47,-160.85 209.14,-150.41 212.31,-141.4"/>
<polygon fill="midnightblue" stroke="midnightblue" points="215.69,-142.35 215.71,-131.75 209.08,-140.02 215.69,-142.35"/>
</g>
<!-- Node19 -->
<g id="node19" class="node">
<title>Node19</title>
<g id="a_node19"><a xlink:title=" ">
<polygon fill="white" stroke="#bfbfbf" points="183.28,-224.5 183.28,-243.5 256.28,-243.5 256.28,-224.5 183.28,-224.5"/>
<text text-anchor="middle" x="219.78" y="-231.5" font-family="Helvetica,sans-Serif" font-size="10.00">initializer_list</text>
</a>
</g>
</g>
<!-- Node18&#45;&gt;Node19 -->
<g id="edge27" class="edge">
<title>Node18&#45;&gt;Node19</title>
<path fill="none" stroke="midnightblue" d="M287.77,-280.32C275.25,-271.98 256.1,-259.21 241.31,-249.35"/>
<polygon fill="midnightblue" stroke="midnightblue" points="243.03,-246.29 232.77,-243.65 239.15,-252.11 243.03,-246.29"/>
</g>
<!-- Node20 -->
<g id="node20" class="node">
<title>Node20</title>
<g id="a_node20"><a xlink:title=" ">
<polygon fill="white" stroke="#bfbfbf" points="274.78,-224.5 274.78,-243.5 348.78,-243.5 348.78,-224.5 274.78,-224.5"/>
<text text-anchor="middle" x="311.78" y="-231.5" font-family="Helvetica,sans-Serif" font-size="10.00">GenericList.h</text>
</a>
</g>
</g>
<!-- Node18&#45;&gt;Node20 -->
<g id="edge28" class="edge">
<title>Node18&#45;&gt;Node20</title>
<path fill="none" stroke="midnightblue" d="M302.6,-280.08C304.06,-272.93 306.15,-262.64 307.98,-253.69"/>
<polygon fill="midnightblue" stroke="midnightblue" points="311.44,-254.25 310,-243.75 304.58,-252.85 311.44,-254.25"/>
</g>
</g>
</svg>
