<?xml version="1.0" encoding="UTF-8" standalone="no"?>
<!DOCTYPE svg PUBLIC "-//W3C//DTD SVG 1.1//EN"
 "http://www.w3.org/Graphics/SVG/1.1/DTD/svg11.dtd">
<!-- Generated by graphviz version 2.47.1 (20210417.1919)
 -->
<!-- Title: StringList.cpp Pages: 1 -->
<svg width="417pt" height="420pt"
 viewBox="0.00 0.00 416.50 420.00" xmlns="http://www.w3.org/2000/svg" xmlns:xlink="http://www.w3.org/1999/xlink">
<g id="graph0" class="graph" transform="scale(1 1) rotate(0) translate(4 416)">
<title>StringList.cpp</title>
<polygon fill="white" stroke="transparent" points="-4,4 -4,-416 412.5,-416 412.5,4 -4,4"/>
<!-- Node1 -->
<g id="node1" class="node">
<title>Node1</title>
<g id="a_node1"><a xlink:title="The StringList body implements lists of string values with zero&#45;based arbitrary indexed access to pos...">
<polygon fill="#bfbfbf" stroke="black" points="21.5,-392.5 21.5,-411.5 98.5,-411.5 98.5,-392.5 21.5,-392.5"/>
<text text-anchor="middle" x="60" y="-399.5" font-family="Helvetica,sans-Serif" font-size="10.00">StringList.cpp</text>
</a>
</g>
</g>
<!-- Node2 -->
<g id="node2" class="node">
<title>Node2</title>
<g id="a_node2"><a xlink:href="_assertion_8h.html" target="_top" xlink:title="The Assertion specification defines macros for pre&#45; and postconditions in functions or methods.">
<polygon fill="white" stroke="black" points="66,-56.5 66,-75.5 132,-75.5 132,-56.5 66,-56.5"/>
<text text-anchor="middle" x="99" y="-63.5" font-family="Helvetica,sans-Serif" font-size="10.00">Assertion.h</text>
</a>
</g>
</g>
<!-- Node1&#45;&gt;Node2 -->
<g id="edge1" class="edge">
<title>Node1&#45;&gt;Node2</title>
<path fill="none" stroke="midnightblue" d="M51.4,-392.47C34.81,-375.04 0,-333.42 0,-291 0,-291 0,-291 0,-177 0,-133.18 43.94,-98.93 73.27,-80.94"/>
<polygon fill="midnightblue" stroke="midnightblue" points="75.36,-83.77 82.21,-75.68 71.81,-77.74 75.36,-83.77"/>
</g>
<!-- Node5 -->
<g id="node5" class="node">
<title>Node5</title>
<g id="a_node5"><a xlink:href="_string_util_8h.html" target="_top" xlink:title="The StringUtil specification defines several string routines not included in the standard C++ library...">
<polygon fill="white" stroke="black" points="111.5,-336.5 111.5,-355.5 176.5,-355.5 176.5,-336.5 111.5,-336.5"/>
<text text-anchor="middle" x="144" y="-343.5" font-family="Helvetica,sans-Serif" font-size="10.00">StringUtil.h</text>
</a>
</g>
</g>
<!-- Node1&#45;&gt;Node5 -->
<g id="edge4" class="edge">
<title>Node1&#45;&gt;Node5</title>
<path fill="none" stroke="midnightblue" d="M73.5,-392.32C86.6,-383.9 106.71,-370.97 122.11,-361.07"/>
<polygon fill="midnightblue" stroke="midnightblue" points="124.02,-364.01 130.54,-355.65 120.23,-358.12 124.02,-364.01"/>
</g>
<!-- Node3 -->
<g id="node3" class="node">
<title>Node3</title>
<g id="a_node3"><a xlink:title=" ">
<polygon fill="white" stroke="#bfbfbf" points="8.5,-0.5 8.5,-19.5 67.5,-19.5 67.5,-0.5 8.5,-0.5"/>
<text text-anchor="middle" x="38" y="-7.5" font-family="Helvetica,sans-Serif" font-size="10.00">stdexcept</text>
</a>
</g>
</g>
<!-- Node2&#45;&gt;Node3 -->
<g id="edge2" class="edge">
<title>Node2&#45;&gt;Node3</title>
<path fill="none" stroke="midnightblue" d="M89.2,-56.32C80.18,-48.34 66.59,-36.31 55.68,-26.65"/>
<polygon fill="midnightblue" stroke="midnightblue" points="57.79,-23.84 47.98,-19.83 53.15,-29.08 57.79,-23.84"/>
</g>
<!-- Node4 -->
<g id="node4" class="node">
<title>Node4</title>
<g id="a_node4"><a xlink:title=" ">
<polygon fill="white" stroke="#bfbfbf" points="85.5,-0.5 85.5,-19.5 126.5,-19.5 126.5,-0.5 85.5,-0.5"/>
<text text-anchor="middle" x="106" y="-7.5" font-family="Helvetica,sans-Serif" font-size="10.00">string</text>
</a>
</g>
</g>
<!-- Node2&#45;&gt;Node4 -->
<g id="edge3" class="edge">
<title>Node2&#45;&gt;Node4</title>
<path fill="none" stroke="midnightblue" d="M100.16,-56.08C101.08,-48.93 102.42,-38.64 103.58,-29.69"/>
<polygon fill="midnightblue" stroke="midnightblue" points="107.05,-30.12 104.87,-19.75 100.11,-29.22 107.05,-30.12"/>
</g>
<!-- Node6 -->
<g id="node6" class="node">
<title>Node6</title>
<g id="a_node6"><a xlink:href="_boolean_8h.html" target="_top" xlink:title="The Boolean specification and body provides a value object type for boolean values.">
<polygon fill="white" stroke="black" points="90,-112.5 90,-131.5 150,-131.5 150,-112.5 90,-112.5"/>
<text text-anchor="middle" x="120" y="-119.5" font-family="Helvetica,sans-Serif" font-size="10.00">Boolean.h</text>
</a>
</g>
</g>
<!-- Node5&#45;&gt;Node6 -->
<g id="edge5" class="edge">
<title>Node5&#45;&gt;Node6</title>
<path fill="none" stroke="midnightblue" d="M133.54,-336.41C124.01,-328.05 110.21,-314.51 102,-300 89.26,-277.47 89.59,-269.63 86,-244 80.73,-206.35 98.38,-163.91 110.19,-140.63"/>
<polygon fill="midnightblue" stroke="midnightblue" points="113.37,-142.11 114.96,-131.63 107.19,-138.83 113.37,-142.11"/>
</g>
<!-- Node9 -->
<g id="node9" class="node">
<title>Node9</title>
<g id="a_node9"><a xlink:href="_character_8h.html" target="_top" xlink:title="The Character specification and body provides a value object type for character values.">
<polygon fill="white" stroke="black" points="341.5,-224.5 341.5,-243.5 408.5,-243.5 408.5,-224.5 341.5,-224.5"/>
<text text-anchor="middle" x="375" y="-231.5" font-family="Helvetica,sans-Serif" font-size="10.00">Character.h</text>
</a>
</g>
</g>
<!-- Node5&#45;&gt;Node9 -->
<g id="edge9" class="edge">
<title>Node5&#45;&gt;Node9</title>
<path fill="none" stroke="midnightblue" d="M176.71,-342.33C213.47,-338.08 273.76,-327.24 318,-300 337.5,-287.99 354,-267.21 364.16,-252.37"/>
<polygon fill="midnightblue" stroke="midnightblue" points="367.33,-253.92 369.88,-243.64 361.47,-250.09 367.33,-253.92"/>
</g>
<!-- Node14 -->
<g id="node14" class="node">
<title>Node14</title>
<g id="a_node14"><a xlink:href="_percentage_8h.html" target="_top" xlink:title="The Percentage specification and body provides a simple percentage type.">
<polygon fill="white" stroke="black" points="235,-280.5 235,-299.5 309,-299.5 309,-280.5 235,-280.5"/>
<text text-anchor="middle" x="272" y="-287.5" font-family="Helvetica,sans-Serif" font-size="10.00">Percentage.h</text>
</a>
</g>
</g>
<!-- Node5&#45;&gt;Node14 -->
<g id="edge18" class="edge">
<title>Node5&#45;&gt;Node14</title>
<path fill="none" stroke="midnightblue" d="M164.28,-336.44C185.35,-327.56 218.52,-313.56 242.49,-303.45"/>
<polygon fill="midnightblue" stroke="midnightblue" points="243.96,-306.63 251.81,-299.52 241.24,-300.18 243.96,-306.63"/>
</g>
<!-- Node17 -->
<g id="node17" class="node">
<title>Node17</title>
<g id="a_node17"><a xlink:href="_string_list_8h.html" target="_top" xlink:title="The StringList specification defines lists of string values with zero&#45;based arbitrary indexed access ...">
<polygon fill="white" stroke="black" points="111,-280.5 111,-299.5 177,-299.5 177,-280.5 111,-280.5"/>
<text text-anchor="middle" x="144" y="-287.5" font-family="Helvetica,sans-Serif" font-size="10.00">StringList.h</text>
</a>
</g>
</g>
<!-- Node5&#45;&gt;Node17 -->
<g id="edge25" class="edge">
<title>Node5&#45;&gt;Node17</title>
<path fill="none" stroke="midnightblue" d="M144,-336.08C144,-329.01 144,-318.86 144,-309.99"/>
<polygon fill="midnightblue" stroke="midnightblue" points="147.5,-309.75 144,-299.75 140.5,-309.75 147.5,-309.75"/>
</g>
<!-- Node7 -->
<g id="node7" class="node">
<title>Node7</title>
<g id="a_node7"><a xlink:href="_my_string_8h.html" target="_top" xlink:title="The String specification defines a standard string type.">
<polygon fill="white" stroke="black" points="150,-56.5 150,-75.5 214,-75.5 214,-56.5 150,-56.5"/>
<text text-anchor="middle" x="182" y="-63.5" font-family="Helvetica,sans-Serif" font-size="10.00">MyString.h</text>
</a>
</g>
</g>
<!-- Node6&#45;&gt;Node7 -->
<g id="edge6" class="edge">
<title>Node6&#45;&gt;Node7</title>
<path fill="none" stroke="midnightblue" d="M129.96,-112.32C139.13,-104.34 152.94,-92.31 164.03,-82.65"/>
<polygon fill="midnightblue" stroke="midnightblue" points="166.62,-85.04 171.86,-75.83 162.02,-79.76 166.62,-85.04"/>
</g>
<!-- Node7&#45;&gt;Node4 -->
<g id="edge7" class="edge">
<title>Node7&#45;&gt;Node4</title>
<path fill="none" stroke="midnightblue" d="M169.79,-56.32C158.22,-48.11 140.62,-35.6 126.84,-25.81"/>
<polygon fill="midnightblue" stroke="midnightblue" points="128.61,-22.77 118.43,-19.83 124.56,-28.48 128.61,-22.77"/>
</g>
<!-- Node8 -->
<g id="node8" class="node">
<title>Node8</title>
<g id="a_node8"><a xlink:href="_global_macros_8h.html" target="_top" xlink:title="The GlobalMacros specification defines simple macros (e.g. for parameter modes).">
<polygon fill="white" stroke="black" points="144.5,-0.5 144.5,-19.5 229.5,-19.5 229.5,-0.5 144.5,-0.5"/>
<text text-anchor="middle" x="187" y="-7.5" font-family="Helvetica,sans-Serif" font-size="10.00">GlobalMacros.h</text>
</a>
</g>
</g>
<!-- Node7&#45;&gt;Node8 -->
<g id="edge8" class="edge">
<title>Node7&#45;&gt;Node8</title>
<path fill="none" stroke="midnightblue" d="M182.83,-56.08C183.48,-49.01 184.42,-38.86 185.24,-29.99"/>
<polygon fill="midnightblue" stroke="midnightblue" points="188.75,-30.03 186.19,-19.75 181.78,-29.39 188.75,-30.03"/>
</g>
<!-- Node10 -->
<g id="node10" class="node">
<title>Node10</title>
<g id="a_node10"><a xlink:title=" ">
<polygon fill="white" stroke="#bfbfbf" points="342,-56.5 342,-75.5 386,-75.5 386,-56.5 342,-56.5"/>
<text text-anchor="middle" x="364" y="-63.5" font-family="Helvetica,sans-Serif" font-size="10.00">cmath</text>
</a>
</g>
</g>
<!-- Node9&#45;&gt;Node10 -->
<g id="edge10" class="edge">
<title>Node9&#45;&gt;Node10</title>
<path fill="none" stroke="midnightblue" d="M380.38,-224.44C385.56,-215.68 393.01,-201.47 396,-188 404.2,-151.04 386.42,-108.35 374.22,-84.84"/>
<polygon fill="midnightblue" stroke="midnightblue" points="377.13,-82.86 369.28,-75.75 370.98,-86.2 377.13,-82.86"/>
</g>
<!-- Node11 -->
<g id="node11" class="node">
<title>Node11</title>
<g id="a_node11"><a xlink:href="_byte_8h.html" target="_top" xlink:title="The Byte specification and body provides a value object type for byte values.">
<polygon fill="white" stroke="black" points="341.5,-168.5 341.5,-187.5 386.5,-187.5 386.5,-168.5 341.5,-168.5"/>
<text text-anchor="middle" x="364" y="-175.5" font-family="Helvetica,sans-Serif" font-size="10.00">Byte.h</text>
</a>
</g>
</g>
<!-- Node9&#45;&gt;Node11 -->
<g id="edge11" class="edge">
<title>Node9&#45;&gt;Node11</title>
<path fill="none" stroke="midnightblue" d="M373.18,-224.08C371.73,-216.93 369.63,-206.64 367.81,-197.69"/>
<polygon fill="midnightblue" stroke="midnightblue" points="371.21,-196.85 365.78,-187.75 364.35,-198.25 371.21,-196.85"/>
</g>
<!-- Node11&#45;&gt;Node10 -->
<g id="edge12" class="edge">
<title>Node11&#45;&gt;Node10</title>
<path fill="none" stroke="midnightblue" d="M364,-168.37C364,-150.62 364,-109.67 364,-85.6"/>
<polygon fill="midnightblue" stroke="midnightblue" points="367.5,-85.59 364,-75.59 360.5,-85.59 367.5,-85.59"/>
</g>
<!-- Node12 -->
<g id="node12" class="node">
<title>Node12</title>
<g id="a_node12"><a xlink:href="_natural_8h.html" target="_top" xlink:title="The Natural specification and body provides a value object type for naturals (positive integers with ...">
<polygon fill="white" stroke="black" points="191,-112.5 191,-131.5 247,-131.5 247,-112.5 191,-112.5"/>
<text text-anchor="middle" x="219" y="-119.5" font-family="Helvetica,sans-Serif" font-size="10.00">Natural.h</text>
</a>
</g>
</g>
<!-- Node11&#45;&gt;Node12 -->
<g id="edge13" class="edge">
<title>Node11&#45;&gt;Node12</title>
<path fill="none" stroke="midnightblue" d="M341.34,-168.56C317.22,-159.58 278.84,-145.29 251.5,-135.1"/>
<polygon fill="midnightblue" stroke="midnightblue" points="252.57,-131.77 241.98,-131.56 250.13,-138.33 252.57,-131.77"/>
</g>
<!-- Node12&#45;&gt;Node2 -->
<g id="edge15" class="edge">
<title>Node12&#45;&gt;Node2</title>
<path fill="none" stroke="midnightblue" d="M199.99,-112.44C180.41,-103.64 149.69,-89.81 127.27,-79.72"/>
<polygon fill="midnightblue" stroke="midnightblue" points="128.48,-76.43 117.93,-75.52 125.61,-82.81 128.48,-76.43"/>
</g>
<!-- Node12&#45;&gt;Node7 -->
<g id="edge17" class="edge">
<title>Node12&#45;&gt;Node7</title>
<path fill="none" stroke="midnightblue" d="M212.89,-112.08C207.72,-104.53 200.15,-93.49 193.81,-84.23"/>
<polygon fill="midnightblue" stroke="midnightblue" points="196.54,-82.02 188,-75.75 190.76,-85.98 196.54,-82.02"/>
</g>
<!-- Node12&#45;&gt;Node10 -->
<g id="edge14" class="edge">
<title>Node12&#45;&gt;Node10</title>
<path fill="none" stroke="midnightblue" d="M241.98,-112.44C266.3,-103.39 304.87,-89.02 332.13,-78.87"/>
<polygon fill="midnightblue" stroke="midnightblue" points="333.46,-82.11 341.61,-75.34 331.02,-75.55 333.46,-82.11"/>
</g>
<!-- Node13 -->
<g id="node13" class="node">
<title>Node13</title>
<g id="a_node13"><a xlink:title=" ">
<polygon fill="white" stroke="#bfbfbf" points="232,-56.5 232,-75.5 324,-75.5 324,-56.5 232,-56.5"/>
<text text-anchor="middle" x="278" y="-63.5" font-family="Helvetica,sans-Serif" font-size="10.00">GenericNumber.h</text>
</a>
</g>
</g>
<!-- Node12&#45;&gt;Node13 -->
<g id="edge16" class="edge">
<title>Node12&#45;&gt;Node13</title>
<path fill="none" stroke="midnightblue" d="M228.48,-112.32C237.2,-104.34 250.34,-92.31 260.9,-82.65"/>
<polygon fill="midnightblue" stroke="midnightblue" points="263.33,-85.17 268.35,-75.83 258.61,-80 263.33,-85.17"/>
</g>
<!-- Node15 -->
<g id="node15" class="node">
<title>Node15</title>
<g id="a_node15"><a xlink:href="_real_8h.html" target="_top" xlink:title="The Real specification defines a value object type for real values.">
<polygon fill="white" stroke="black" points="279,-224.5 279,-243.5 323,-243.5 323,-224.5 279,-224.5"/>
<text text-anchor="middle" x="301" y="-231.5" font-family="Helvetica,sans-Serif" font-size="10.00">Real.h</text>
</a>
</g>
</g>
<!-- Node14&#45;&gt;Node15 -->
<g id="edge19" class="edge">
<title>Node14&#45;&gt;Node15</title>
<path fill="none" stroke="midnightblue" d="M276.79,-280.08C280.76,-272.69 286.53,-261.95 291.43,-252.81"/>
<polygon fill="midnightblue" stroke="midnightblue" points="294.65,-254.22 296.3,-243.75 288.49,-250.91 294.65,-254.22"/>
</g>
<!-- Node15&#45;&gt;Node10 -->
<g id="edge20" class="edge">
<title>Node15&#45;&gt;Node10</title>
<path fill="none" stroke="midnightblue" d="M304.39,-224.08C314.35,-197.83 343.68,-120.55 357.12,-85.12"/>
<polygon fill="midnightblue" stroke="midnightblue" points="360.47,-86.16 360.75,-75.57 353.93,-83.68 360.47,-86.16"/>
</g>
<!-- Node16 -->
<g id="node16" class="node">
<title>Node16</title>
<g id="a_node16"><a xlink:href="_integer_8h.html" target="_top" xlink:title="The Integer specification and body provides a value object type for ints.">
<polygon fill="white" stroke="black" points="211,-168.5 211,-187.5 265,-187.5 265,-168.5 211,-168.5"/>
<text text-anchor="middle" x="238" y="-175.5" font-family="Helvetica,sans-Serif" font-size="10.00">Integer.h</text>
</a>
</g>
</g>
<!-- Node15&#45;&gt;Node16 -->
<g id="edge21" class="edge">
<title>Node15&#45;&gt;Node16</title>
<path fill="none" stroke="midnightblue" d="M290.88,-224.32C281.47,-216.26 267.26,-204.08 255.93,-194.37"/>
<polygon fill="midnightblue" stroke="midnightblue" points="258.18,-191.68 248.31,-187.83 253.62,-197 258.18,-191.68"/>
</g>
<!-- Node16&#45;&gt;Node3 -->
<g id="edge23" class="edge">
<title>Node16&#45;&gt;Node3</title>
<path fill="none" stroke="midnightblue" d="M210.79,-176.11C176.56,-173.58 117.8,-164.44 81,-132 50.99,-105.55 41.92,-56.73 39.19,-29.89"/>
<polygon fill="midnightblue" stroke="midnightblue" points="42.64,-29.25 38.34,-19.57 35.67,-29.82 42.64,-29.25"/>
</g>
<!-- Node16&#45;&gt;Node10 -->
<g id="edge22" class="edge">
<title>Node16&#45;&gt;Node10</title>
<path fill="none" stroke="midnightblue" d="M245,-168.46C255.83,-155.48 277.66,-130.39 299,-112 312.22,-100.61 328.34,-89.43 341.22,-81.07"/>
<polygon fill="midnightblue" stroke="midnightblue" points="343.39,-83.84 349.94,-75.51 339.62,-77.93 343.39,-83.84"/>
</g>
<!-- Node16&#45;&gt;Node12 -->
<g id="edge24" class="edge">
<title>Node16&#45;&gt;Node12</title>
<path fill="none" stroke="midnightblue" d="M234.86,-168.08C232.32,-160.85 228.64,-150.41 225.47,-141.4"/>
<polygon fill="midnightblue" stroke="midnightblue" points="228.7,-140.02 222.08,-131.75 222.1,-142.35 228.7,-140.02"/>
</g>
<!-- Node18 -->
<g id="node18" class="node">
<title>Node18</title>
<g id="a_node18"><a xlink:title=" ">
<polygon fill="white" stroke="#bfbfbf" points="95.5,-224.5 95.5,-243.5 168.5,-243.5 168.5,-224.5 95.5,-224.5"/>
<text text-anchor="middle" x="132" y="-231.5" font-family="Helvetica,sans-Serif" font-size="10.00">initializer_list</text>
</a>
</g>
</g>
<!-- Node17&#45;&gt;Node18 -->
<g id="edge26" class="edge">
<title>Node17&#45;&gt;Node18</title>
<path fill="none" stroke="midnightblue" d="M142.02,-280.08C140.43,-272.93 138.14,-262.64 136.15,-253.69"/>
<polygon fill="midnightblue" stroke="midnightblue" points="139.53,-252.75 133.94,-243.75 132.7,-254.27 139.53,-252.75"/>
</g>
<!-- Node19 -->
<g id="node19" class="node">
<title>Node19</title>
<g id="a_node19"><a xlink:title=" ">
<polygon fill="white" stroke="#bfbfbf" points="187,-224.5 187,-243.5 261,-243.5 261,-224.5 187,-224.5"/>
<text text-anchor="middle" x="224" y="-231.5" font-family="Helvetica,sans-Serif" font-size="10.00">GenericList.h</text>
</a>
</g>
</g>
<!-- Node17&#45;&gt;Node19 -->
<g id="edge27" class="edge">
<title>Node17&#45;&gt;Node19</title>
<path fill="none" stroke="midnightblue" d="M156.85,-280.32C169.22,-271.98 188.13,-259.21 202.74,-249.35"/>
<polygon fill="midnightblue" stroke="midnightblue" points="204.85,-252.15 211.18,-243.65 200.93,-246.35 204.85,-252.15"/>
</g>
</g>
</svg>
