<?xml version="1.0" encoding="UTF-8" standalone="no"?>
<!DOCTYPE svg PUBLIC "-//W3C//DTD SVG 1.1//EN"
 "http://www.w3.org/Graphics/SVG/1.1/DTD/svg11.dtd">
<!-- Generated by graphviz version 2.47.1 (20210417.1919)
 -->
<!-- Title: StringUtil.h Pages: 1 -->
<svg width="2235pt" height="314pt"
 viewBox="0.00 0.00 2234.50 314.00" xmlns="http://www.w3.org/2000/svg" xmlns:xlink="http://www.w3.org/1999/xlink">
<g id="graph0" class="graph" transform="scale(1 1) rotate(0) translate(4 310)">
<title>StringUtil.h</title>
<polygon fill="white" stroke="transparent" points="-4,4 -4,-310 2230.5,-310 2230.5,4 -4,4"/>
<!-- Node1 -->
<g id="node1" class="node">
<title>Node1</title>
<g id="a_node1"><a xlink:title="The StringUtil specification defines several string routines not included in the standard C++ library...">
<polygon fill="#bfbfbf" stroke="black" points="1615,-285.5 1615,-305.5 1684,-305.5 1684,-285.5 1615,-285.5"/>
<text text-anchor="middle" x="1649.5" y="-292.7" font-family="Helvetica,sans-Serif" font-size="11.00">StringUtil.h</text>
</a>
</g>
</g>
<!-- Node2 -->
<g id="node2" class="node">
<title>Node2</title>
<g id="a_node2"><a xlink:href="_file_8cpp.html" target="_top" xlink:title="The File body implements a class for simple file handling based on C stdio.">
<polygon fill="white" stroke="black" points="894,-228.5 894,-248.5 949,-248.5 949,-228.5 894,-228.5"/>
<text text-anchor="middle" x="921.5" y="-235.7" font-family="Helvetica,sans-Serif" font-size="11.00">File.cpp</text>
</a>
</g>
</g>
<!-- Node1&#45;&gt;Node2 -->
<g id="edge1" class="edge">
<title>Node1&#45;&gt;Node2</title>
<path fill="none" stroke="midnightblue" d="M1604.62,-294.42C1494.05,-293.59 1200.02,-287.61 958.5,-249 955.49,-248.52 952.36,-247.9 949.26,-247.22"/>
<polygon fill="midnightblue" stroke="midnightblue" points="1604.71,-297.92 1614.73,-294.48 1604.76,-290.92 1604.71,-297.92"/>
</g>
<!-- Node3 -->
<g id="node3" class="node">
<title>Node3</title>
<g id="a_node3"><a xlink:href="_logging_8h.html" target="_top" xlink:title="The Logging specification defines macros for entry&#45;, exit&#45; and intermediate logging of functions into...">
<polygon fill="white" stroke="black" points="967.5,-228.5 967.5,-248.5 1031.5,-248.5 1031.5,-228.5 967.5,-228.5"/>
<text text-anchor="middle" x="999.5" y="-235.7" font-family="Helvetica,sans-Serif" font-size="11.00">Logging.h</text>
</a>
</g>
</g>
<!-- Node1&#45;&gt;Node3 -->
<g id="edge2" class="edge">
<title>Node1&#45;&gt;Node3</title>
<path fill="none" stroke="midnightblue" d="M1604.29,-290.67C1480.47,-280.2 1137.99,-251.22 1031.51,-242.21"/>
<polygon fill="midnightblue" stroke="midnightblue" points="1604.29,-294.19 1614.55,-291.54 1604.88,-287.21 1604.29,-294.19"/>
</g>
<!-- Node23 -->
<g id="node23" class="node">
<title>Node23</title>
<g id="a_node23"><a xlink:href="_string_util_8cpp.html" target="_top" xlink:title="The StringUtil body implements several string routines not included in the standard C++ library (like...">
<polygon fill="white" stroke="black" points="1561,-228.5 1561,-248.5 1642,-248.5 1642,-228.5 1561,-228.5"/>
<text text-anchor="middle" x="1601.5" y="-235.7" font-family="Helvetica,sans-Serif" font-size="11.00">StringUtil.cpp</text>
</a>
</g>
</g>
<!-- Node1&#45;&gt;Node23 -->
<g id="edge24" class="edge">
<title>Node1&#45;&gt;Node23</title>
<path fill="none" stroke="midnightblue" d="M1634.86,-277.73C1626.56,-268.22 1616.49,-256.68 1609.6,-248.78"/>
<polygon fill="midnightblue" stroke="midnightblue" points="1632.36,-280.18 1641.57,-285.42 1637.64,-275.58 1632.36,-280.18"/>
</g>
<!-- Node24 -->
<g id="node24" class="node">
<title>Node24</title>
<g id="a_node24"><a xlink:href="_dictionary_8h.html" target="_top" xlink:title="The Dictionary specification defines maps from string keys to string values.">
<polygon fill="white" stroke="black" points="1660.5,-228.5 1660.5,-248.5 1734.5,-248.5 1734.5,-228.5 1660.5,-228.5"/>
<text text-anchor="middle" x="1697.5" y="-235.7" font-family="Helvetica,sans-Serif" font-size="11.00">Dictionary.h</text>
</a>
</g>
</g>
<!-- Node1&#45;&gt;Node24 -->
<g id="edge25" class="edge">
<title>Node1&#45;&gt;Node24</title>
<path fill="none" stroke="midnightblue" d="M1664.14,-277.73C1672.44,-268.22 1682.51,-256.68 1689.4,-248.78"/>
<polygon fill="midnightblue" stroke="midnightblue" points="1661.36,-275.58 1657.43,-285.42 1666.64,-280.18 1661.36,-275.58"/>
</g>
<!-- Node29 -->
<g id="node29" class="node">
<title>Node29</title>
<g id="a_node29"><a xlink:href="_string_list_8cpp.html" target="_top" xlink:title="The StringList body implements sequences of string values with zero&#45;based arbitrary indexed access to...">
<polygon fill="white" stroke="black" points="1753,-228.5 1753,-248.5 1836,-248.5 1836,-228.5 1753,-228.5"/>
<text text-anchor="middle" x="1794.5" y="-235.7" font-family="Helvetica,sans-Serif" font-size="11.00">StringList.cpp</text>
</a>
</g>
</g>
<!-- Node1&#45;&gt;Node29 -->
<g id="edge37" class="edge">
<title>Node1&#45;&gt;Node29</title>
<path fill="none" stroke="midnightblue" d="M1682.81,-281.87C1709.59,-271.71 1746.58,-257.68 1770.52,-248.6"/>
<polygon fill="midnightblue" stroke="midnightblue" points="1681.55,-278.6 1673.44,-285.42 1684.04,-285.14 1681.55,-278.6"/>
</g>
<!-- Node30 -->
<g id="node30" class="node">
<title>Node30</title>
<g id="a_node30"><a xlink:href="_string_set_8cpp.html" target="_top" xlink:title="The StringSet body implements sets of string values with no duplicates and only simple containment ac...">
<polygon fill="white" stroke="black" points="1854,-228.5 1854,-248.5 1937,-248.5 1937,-228.5 1854,-228.5"/>
<text text-anchor="middle" x="1895.5" y="-235.7" font-family="Helvetica,sans-Serif" font-size="11.00">StringSet.cpp</text>
</a>
</g>
</g>
<!-- Node1&#45;&gt;Node30 -->
<g id="edge38" class="edge">
<title>Node1&#45;&gt;Node30</title>
<path fill="none" stroke="midnightblue" d="M1694.2,-284.51C1740.13,-274.24 1810.99,-258.39 1855.24,-248.5"/>
<polygon fill="midnightblue" stroke="midnightblue" points="1693.22,-281.14 1684.22,-286.74 1694.75,-287.97 1693.22,-281.14"/>
</g>
<!-- Node4 -->
<g id="node4" class="node">
<title>Node4</title>
<g id="a_node4"><a xlink:href="_audio_sample_fifo_queue_8cpp-inc.html" target="_top" xlink:title="The AudioSampleFifoQueue body implements a fifo queue for audio samples with popping off access to th...">
<polygon fill="white" stroke="black" points="173,-171.5 173,-191.5 344,-191.5 344,-171.5 173,-171.5"/>
<text text-anchor="middle" x="258.5" y="-178.7" font-family="Helvetica,sans-Serif" font-size="11.00">AudioSampleFifoQueue.cpp&#45;inc</text>
</a>
</g>
</g>
<!-- Node3&#45;&gt;Node4 -->
<g id="edge3" class="edge">
<title>Node3&#45;&gt;Node4</title>
<path fill="none" stroke="midnightblue" d="M957.45,-228.09C692.39,-190.27 621.6,-212.38 358.5,-192 353.81,-191.64 348.99,-191.24 344.13,-190.83"/>
<polygon fill="midnightblue" stroke="midnightblue" points="956.97,-231.55 967.37,-229.52 957.97,-224.63 956.97,-231.55"/>
</g>
<!-- Node9 -->
<g id="node9" class="node">
<title>Node9</title>
<g id="a_node9"><a xlink:href="_fluid_synth_plugin___event_processor_8cpp.html" target="_top" xlink:title="The FluidSynthPlugin_Processor module implements the handling of MIDI events from the DAW via JUCE ha...">
<polygon fill="white" stroke="black" points="320,-0.5 320,-20.5 523,-20.5 523,-0.5 320,-0.5"/>
<text text-anchor="middle" x="421.5" y="-7.7" font-family="Helvetica,sans-Serif" font-size="11.00">FluidSynthPlugin_EventProcessor.cpp</text>
</a>
</g>
</g>
<!-- Node3&#45;&gt;Node9 -->
<g id="edge19" class="edge">
<title>Node3&#45;&gt;Node9</title>
<path fill="none" stroke="midnightblue" d="M957.21,-228.35C864.7,-219.62 468.45,-223.65 420.5,-192 389.63,-171.62 386.25,-150.61 391.5,-114 396.58,-78.58 411.05,-38.31 417.87,-20.63"/>
<polygon fill="midnightblue" stroke="midnightblue" points="957.02,-231.85 967.36,-229.54 957.84,-224.9 957.02,-231.85"/>
</g>
<!-- Node10 -->
<g id="node10" class="node">
<title>Node10</title>
<g id="a_node10"><a xlink:href="_audio_sample_fifo_queue_vector_8cpp-inc.html" target="_top" xlink:title="The AudioSampleFifoQueueVector body implements a list of fifo queues for audio samples (this is the e...">
<polygon fill="white" stroke="black" points="401,-114.5 401,-134.5 604,-134.5 604,-114.5 401,-114.5"/>
<text text-anchor="middle" x="502.5" y="-121.7" font-family="Helvetica,sans-Serif" font-size="11.00">AudioSampleFifoQueueVector.cpp&#45;inc</text>
</a>
</g>
</g>
<!-- Node3&#45;&gt;Node10 -->
<g id="edge9" class="edge">
<title>Node3&#45;&gt;Node10</title>
<path fill="none" stroke="midnightblue" d="M957.32,-228.41C865.57,-220.51 468.07,-233.28 429.5,-192 409.02,-170.08 450.65,-147.05 479.05,-134.68"/>
<polygon fill="midnightblue" stroke="midnightblue" points="957.03,-231.9 967.36,-229.54 957.82,-224.94 957.03,-231.9"/>
</g>
<!-- Node11 -->
<g id="node11" class="node">
<title>Node11</title>
<g id="a_node11"><a xlink:href="_wave_file_8cpp.html" target="_top" xlink:title="The WaveFile specification defines an object for accessing a RIFF wave file with several channels.">
<polygon fill="white" stroke="black" points="439,-171.5 439,-191.5 522,-191.5 522,-171.5 439,-171.5"/>
<text text-anchor="middle" x="480.5" y="-178.7" font-family="Helvetica,sans-Serif" font-size="11.00">WaveFile.cpp</text>
</a>
</g>
</g>
<!-- Node3&#45;&gt;Node11 -->
<g id="edge11" class="edge">
<title>Node3&#45;&gt;Node11</title>
<path fill="none" stroke="midnightblue" d="M957.22,-228.01C770.78,-199.27 719.95,-215.34 536.5,-192 531.8,-191.4 526.9,-190.7 522.03,-189.94"/>
<polygon fill="midnightblue" stroke="midnightblue" points="956.94,-231.51 967.36,-229.6 958.02,-224.59 956.94,-231.51"/>
</g>
<!-- Node12 -->
<g id="node12" class="node">
<title>Node12</title>
<g id="a_node12"><a xlink:href="_command_line_arguments_8cpp.html" target="_top" xlink:title="The CommandLineArguments body implements a handler for command&#45;line arguments converting them to a li...">
<polygon fill="white" stroke="black" points="1070,-114.5 1070,-134.5 1233,-134.5 1233,-114.5 1070,-114.5"/>
<text text-anchor="middle" x="1151.5" y="-121.7" font-family="Helvetica,sans-Serif" font-size="11.00">CommandLineArguments.cpp</text>
</a>
</g>
</g>
<!-- Node3&#45;&gt;Node12 -->
<g id="edge12" class="edge">
<title>Node3&#45;&gt;Node12</title>
<path fill="none" stroke="midnightblue" d="M957.37,-228.23C849.63,-215.36 513.24,-232.92 570.5,-171 603.69,-135.11 917.85,-127.48 1069.87,-125.89"/>
<polygon fill="midnightblue" stroke="midnightblue" points="956.97,-231.71 967.35,-229.62 957.93,-224.77 956.97,-231.71"/>
</g>
<!-- Node13 -->
<g id="node13" class="node">
<title>Node13</title>
<g id="a_node13"><a xlink:href="_operating_system_8cpp.html" target="_top" xlink:title="The OperatingSystem body implements a class for several operating system related utility functions (l...">
<polygon fill="white" stroke="black" points="579,-171.5 579,-191.5 702,-191.5 702,-171.5 579,-171.5"/>
<text text-anchor="middle" x="640.5" y="-178.7" font-family="Helvetica,sans-Serif" font-size="11.00">OperatingSystem.cpp</text>
</a>
</g>
</g>
<!-- Node3&#45;&gt;Node13 -->
<g id="edge13" class="edge">
<title>Node3&#45;&gt;Node13</title>
<path fill="none" stroke="midnightblue" d="M957.21,-227.98C910.84,-220.17 780.62,-201.93 702.13,-191.03"/>
<polygon fill="midnightblue" stroke="midnightblue" points="956.87,-231.47 967.33,-229.77 958.09,-224.58 956.87,-231.47"/>
</g>
<!-- Node14 -->
<g id="node14" class="node">
<title>Node14</title>
<g id="a_node14"><a xlink:href="_fluid_synth_8cpp.html" target="_top" xlink:title="The FluidSynth class implements the access to the fluidsynth library via a dynamic loading of it.">
<polygon fill="white" stroke="black" points="1447,-171.5 1447,-191.5 1536,-191.5 1536,-171.5 1447,-171.5"/>
<text text-anchor="middle" x="1491.5" y="-178.7" font-family="Helvetica,sans-Serif" font-size="11.00">FluidSynth.cpp</text>
</a>
</g>
</g>
<!-- Node3&#45;&gt;Node14 -->
<g id="edge14" class="edge">
<title>Node3&#45;&gt;Node14</title>
<path fill="none" stroke="midnightblue" d="M1042.18,-234.07C1120.65,-227.55 1293.05,-212.18 1437.5,-192 1440.52,-191.58 1443.62,-191.11 1446.75,-190.62"/>
<polygon fill="midnightblue" stroke="midnightblue" points="1041.42,-230.63 1031.74,-234.94 1041.99,-237.6 1041.42,-230.63"/>
</g>
<!-- Node15 -->
<g id="node15" class="node">
<title>Node15</title>
<g id="a_node15"><a xlink:href="_fluid_synth_settings_8cpp.html" target="_top" xlink:title="The FluidSynthSettings class implements an object&#45;oriented wrapper around an underlying fluidsynth se...">
<polygon fill="white" stroke="black" points="1554.5,-171.5 1554.5,-191.5 1682.5,-191.5 1682.5,-171.5 1554.5,-171.5"/>
<text text-anchor="middle" x="1618.5" y="-178.7" font-family="Helvetica,sans-Serif" font-size="11.00">FluidSynthSettings.cpp</text>
</a>
</g>
</g>
<!-- Node3&#45;&gt;Node15 -->
<g id="edge15" class="edge">
<title>Node3&#45;&gt;Node15</title>
<path fill="none" stroke="midnightblue" d="M1041.55,-234.66C1133.22,-228.33 1357.89,-212.01 1545.5,-192 1548.42,-191.69 1551.41,-191.36 1554.43,-191.01"/>
<polygon fill="midnightblue" stroke="midnightblue" points="1041.29,-231.17 1031.55,-235.35 1041.77,-238.16 1041.29,-231.17"/>
</g>
<!-- Node16 -->
<g id="node16" class="node">
<title>Node16</title>
<g id="a_node16"><a xlink:href="_fluid_synth_synthesizer_8cpp.html" target="_top" xlink:title="The FluidSynthSynthesizer class implements an object&#45;oriented wrapper around an underlying fluidsynth...">
<polygon fill="white" stroke="black" points="720.5,-171.5 720.5,-191.5 866.5,-191.5 866.5,-171.5 720.5,-171.5"/>
<text text-anchor="middle" x="793.5" y="-178.7" font-family="Helvetica,sans-Serif" font-size="11.00">FluidSynthSynthesizer.cpp</text>
</a>
</g>
</g>
<!-- Node3&#45;&gt;Node16 -->
<g id="edge16" class="edge">
<title>Node3&#45;&gt;Node16</title>
<path fill="none" stroke="midnightblue" d="M957.48,-226.28C919.12,-216.04 863.14,-201.09 827.52,-191.58"/>
<polygon fill="midnightblue" stroke="midnightblue" points="956.75,-229.71 967.31,-228.91 958.55,-222.95 956.75,-229.71"/>
</g>
<!-- Node17 -->
<g id="node17" class="node">
<title>Node17</title>
<g id="a_node17"><a xlink:href="_fluid_synth_file_converter_8cpp.html" target="_top" xlink:title="The FluidSynthFileConverter module implements a conversion from a MIDI file into a wave file using th...">
<polygon fill="white" stroke="black" points="1699.5,-114.5 1699.5,-134.5 1853.5,-134.5 1853.5,-114.5 1699.5,-114.5"/>
<text text-anchor="middle" x="1776.5" y="-121.7" font-family="Helvetica,sans-Serif" font-size="11.00">FluidSynthFileConverter.cpp</text>
</a>
</g>
</g>
<!-- Node3&#45;&gt;Node17 -->
<g id="edge17" class="edge">
<title>Node3&#45;&gt;Node17</title>
<path fill="none" stroke="midnightblue" d="M961.98,-224.88C930.71,-212.46 894.28,-192.31 914.5,-171 941.3,-142.75 1492.95,-130.38 1699.41,-126.72"/>
<polygon fill="midnightblue" stroke="midnightblue" points="960.86,-228.2 971.45,-228.48 963.35,-221.65 960.86,-228.2"/>
</g>
<!-- Node18 -->
<g id="node18" class="node">
<title>Node18</title>
<g id="a_node18"><a xlink:href="_fluid_synth_plugin___editor_8cpp.html" target="_top" xlink:title="The FluidSynthPlugin_Editor module implements the editor for the processor of MIDI events from the DA...">
<polygon fill="white" stroke="black" points="923,-171.5 923,-191.5 1076,-191.5 1076,-171.5 923,-171.5"/>
<text text-anchor="middle" x="999.5" y="-178.7" font-family="Helvetica,sans-Serif" font-size="11.00">FluidSynthPlugin_Editor.cpp</text>
</a>
</g>
</g>
<!-- Node3&#45;&gt;Node18 -->
<g id="edge18" class="edge">
<title>Node3&#45;&gt;Node18</title>
<path fill="none" stroke="midnightblue" d="M999.5,-218.38C999.5,-209.37 999.5,-199.04 999.5,-191.78"/>
<polygon fill="midnightblue" stroke="midnightblue" points="996,-218.42 999.5,-228.42 1003,-218.42 996,-218.42"/>
</g>
<!-- Node19 -->
<g id="node19" class="node">
<title>Node19</title>
<g id="a_node19"><a xlink:href="_midi_event_8cpp.html" target="_top" xlink:title="The MidiEvent implementation defines the services of a single MIDI event.">
<polygon fill="white" stroke="black" points="1094.5,-171.5 1094.5,-191.5 1178.5,-191.5 1178.5,-171.5 1094.5,-171.5"/>
<text text-anchor="middle" x="1136.5" y="-178.7" font-family="Helvetica,sans-Serif" font-size="11.00">MidiEvent.cpp</text>
</a>
</g>
</g>
<!-- Node3&#45;&gt;Node19 -->
<g id="edge20" class="edge">
<title>Node3&#45;&gt;Node19</title>
<path fill="none" stroke="midnightblue" d="M1031.64,-224.6C1056.89,-214.46 1091.42,-200.6 1113.84,-191.6"/>
<polygon fill="midnightblue" stroke="midnightblue" points="1030.1,-221.44 1022.12,-228.42 1032.71,-227.94 1030.1,-221.44"/>
</g>
<!-- Node20 -->
<g id="node20" class="node">
<title>Node20</title>
<g id="a_node20"><a xlink:href="_midi_event_converter_8cpp.html" target="_top" xlink:title="The MidiEventConverter module implements the handling of MIDI events by feeding them to an underlying...">
<polygon fill="white" stroke="black" points="1938.5,-114.5 1938.5,-134.5 2070.5,-134.5 2070.5,-114.5 1938.5,-114.5"/>
<text text-anchor="middle" x="2004.5" y="-121.7" font-family="Helvetica,sans-Serif" font-size="11.00">MidiEventConverter.cpp</text>
</a>
</g>
</g>
<!-- Node3&#45;&gt;Node20 -->
<g id="edge21" class="edge">
<title>Node3&#45;&gt;Node20</title>
<path fill="none" stroke="midnightblue" d="M1041.4,-230.55C1080.12,-223.39 1138.85,-210.63 1187.5,-192 1205.88,-184.96 1207.55,-176.35 1226.5,-171 1362.73,-132.53 1721.21,-143.72 1862.5,-135 1887.28,-133.47 1914.49,-131.68 1938.4,-130.06"/>
<polygon fill="midnightblue" stroke="midnightblue" points="1040.74,-227.12 1031.52,-232.34 1041.98,-234 1040.74,-227.12"/>
</g>
<!-- Node21 -->
<g id="node21" class="node">
<title>Node21</title>
<g id="a_node21"><a xlink:href="_midi_event_list_8cpp.html" target="_top" xlink:title="The MIDIEventList body implements sequences of integer values with zero&#45;based arbitrary indexed acces...">
<polygon fill="white" stroke="black" points="1235,-171.5 1235,-191.5 1336,-191.5 1336,-171.5 1235,-171.5"/>
<text text-anchor="middle" x="1285.5" y="-178.7" font-family="Helvetica,sans-Serif" font-size="11.00">MidiEventList.cpp</text>
</a>
</g>
</g>
<!-- Node3&#45;&gt;Node21 -->
<g id="edge22" class="edge">
<title>Node3&#45;&gt;Node21</title>
<path fill="none" stroke="midnightblue" d="M1041.75,-229.37C1094.31,-219.27 1183.77,-202.06 1238.46,-191.55"/>
<polygon fill="midnightblue" stroke="midnightblue" points="1040.91,-225.97 1031.75,-231.3 1042.23,-232.85 1040.91,-225.97"/>
</g>
<!-- Node22 -->
<g id="node22" class="node">
<title>Node22</title>
<g id="a_node22"><a xlink:href="_midi_file_8cpp.html" target="_top" xlink:title="The MidiFile implementation implements the services of a MIDI file; currently only file reading is su...">
<polygon fill="white" stroke="black" points="1354.5,-171.5 1354.5,-191.5 1428.5,-191.5 1428.5,-171.5 1354.5,-171.5"/>
<text text-anchor="middle" x="1391.5" y="-178.7" font-family="Helvetica,sans-Serif" font-size="11.00">MidiFile.cpp</text>
</a>
</g>
</g>
<!-- Node3&#45;&gt;Node22 -->
<g id="edge23" class="edge">
<title>Node3&#45;&gt;Node22</title>
<path fill="none" stroke="midnightblue" d="M1041.89,-232.93C1107.27,-225.67 1236.56,-210.39 1345.5,-192 1348.39,-191.51 1351.38,-190.97 1354.39,-190.41"/>
<polygon fill="midnightblue" stroke="midnightblue" points="1041.13,-229.5 1031.58,-234.07 1041.9,-236.45 1041.13,-229.5"/>
</g>
<!-- Node5 -->
<g id="node5" class="node">
<title>Node5</title>
<g id="a_node5"><a xlink:href="_audio_sample_fifo_queue_8h.html" target="_top" xlink:title="The AudioSampleFifoQueue specification defines a fifo queue for audio samples with popping off access...">
<polygon fill="white" stroke="black" points="187,-114.5 187,-134.5 328,-134.5 328,-114.5 187,-114.5"/>
<text text-anchor="middle" x="257.5" y="-121.7" font-family="Helvetica,sans-Serif" font-size="11.00">AudioSampleFifoQueue.h</text>
</a>
</g>
</g>
<!-- Node4&#45;&gt;Node5 -->
<g id="edge4" class="edge">
<title>Node4&#45;&gt;Node5</title>
<path fill="none" stroke="midnightblue" d="M258.15,-161.38C257.99,-152.37 257.8,-142.04 257.67,-134.78"/>
<polygon fill="midnightblue" stroke="midnightblue" points="254.65,-161.48 258.33,-171.42 261.65,-161.36 254.65,-161.48"/>
</g>
<!-- Node6 -->
<g id="node6" class="node">
<title>Node6</title>
<g id="a_node6"><a xlink:href="_audio_sample_fifo_queue_8cpp.html" target="_top" xlink:title="The AudioSampleFifoQueue body implements a fifo queue for audio samples with popping off access to th...">
<polygon fill="white" stroke="black" points="0,-57.5 0,-77.5 153,-77.5 153,-57.5 0,-57.5"/>
<text text-anchor="middle" x="76.5" y="-64.7" font-family="Helvetica,sans-Serif" font-size="11.00">AudioSampleFifoQueue.cpp</text>
</a>
</g>
</g>
<!-- Node5&#45;&gt;Node6 -->
<g id="edge5" class="edge">
<title>Node5&#45;&gt;Node6</title>
<path fill="none" stroke="midnightblue" d="M217.64,-111.39C183.97,-101.16 136.52,-86.74 106.13,-77.5"/>
<polygon fill="midnightblue" stroke="midnightblue" points="217.03,-114.86 227.61,-114.42 219.06,-108.16 217.03,-114.86"/>
</g>
<!-- Node7 -->
<g id="node7" class="node">
<title>Node7</title>
<g id="a_node7"><a xlink:href="_audio_sample_fifo_queue_vector_8h.html" target="_top" xlink:title="The AudioSampleFifoQueueVector specification defines a list of fifo queues for audio samples.">
<polygon fill="white" stroke="black" points="171,-57.5 171,-77.5 344,-77.5 344,-57.5 171,-57.5"/>
<text text-anchor="middle" x="257.5" y="-64.7" font-family="Helvetica,sans-Serif" font-size="11.00">AudioSampleFifoQueueVector.h</text>
</a>
</g>
</g>
<!-- Node5&#45;&gt;Node7 -->
<g id="edge6" class="edge">
<title>Node5&#45;&gt;Node7</title>
<path fill="none" stroke="midnightblue" d="M257.5,-104.38C257.5,-95.37 257.5,-85.04 257.5,-77.78"/>
<polygon fill="midnightblue" stroke="midnightblue" points="254,-104.42 257.5,-114.42 261,-104.42 254,-104.42"/>
</g>
<!-- Node8 -->
<g id="node8" class="node">
<title>Node8</title>
<g id="a_node8"><a xlink:href="_audio_sample_fifo_queue_vector_8cpp.html" target="_top" xlink:title="The AudioSampleFifoQueueVector body implements a list of fifo queues for audio samples (this is the f...">
<polygon fill="white" stroke="black" points="117,-0.5 117,-20.5 302,-20.5 302,-0.5 117,-0.5"/>
<text text-anchor="middle" x="209.5" y="-7.7" font-family="Helvetica,sans-Serif" font-size="11.00">AudioSampleFifoQueueVector.cpp</text>
</a>
</g>
</g>
<!-- Node7&#45;&gt;Node8 -->
<g id="edge7" class="edge">
<title>Node7&#45;&gt;Node8</title>
<path fill="none" stroke="midnightblue" d="M242.86,-49.73C234.56,-40.22 224.49,-28.68 217.6,-20.78"/>
<polygon fill="midnightblue" stroke="midnightblue" points="240.36,-52.18 249.57,-57.42 245.64,-47.58 240.36,-52.18"/>
</g>
<!-- Node7&#45;&gt;Node9 -->
<g id="edge8" class="edge">
<title>Node7&#45;&gt;Node9</title>
<path fill="none" stroke="midnightblue" d="M294.41,-54.12C324.86,-43.91 367.35,-29.66 394.65,-20.5"/>
<polygon fill="midnightblue" stroke="midnightblue" points="292.95,-50.92 284.58,-57.42 295.18,-57.56 292.95,-50.92"/>
</g>
<!-- Node10&#45;&gt;Node7 -->
<g id="edge10" class="edge">
<title>Node10&#45;&gt;Node7</title>
<path fill="none" stroke="midnightblue" d="M452.33,-112.24C406.62,-101.98 339.99,-87.02 297.7,-77.53"/>
<polygon fill="midnightblue" stroke="midnightblue" points="451.79,-115.7 462.32,-114.48 453.33,-108.87 451.79,-115.7"/>
</g>
<!-- Node24&#45;&gt;Node14 -->
<g id="edge31" class="edge">
<title>Node24&#45;&gt;Node14</title>
<path fill="none" stroke="midnightblue" d="M1653.61,-225.78C1615.22,-215.53 1560.26,-200.86 1525.22,-191.5"/>
<polygon fill="midnightblue" stroke="midnightblue" points="1652.92,-229.22 1663.48,-228.42 1654.72,-222.46 1652.92,-229.22"/>
</g>
<!-- Node24&#45;&gt;Node15 -->
<g id="edge32" class="edge">
<title>Node24&#45;&gt;Node15</title>
<path fill="none" stroke="midnightblue" d="M1676.2,-222.67C1661.97,-212.76 1643.69,-200.04 1631.56,-191.6"/>
<polygon fill="midnightblue" stroke="midnightblue" points="1674.25,-225.58 1684.45,-228.42 1678.25,-219.83 1674.25,-225.58"/>
</g>
<!-- Node25 -->
<g id="node25" class="node">
<title>Node25</title>
<g id="a_node25"><a xlink:href="_command_line_arguments_8h.html" target="_top" xlink:title="The CommandLineArguments specification defines a handler for command&#45;line arguments converting them t...">
<polygon fill="white" stroke="black" points="1701,-171.5 1701,-191.5 1852,-191.5 1852,-171.5 1701,-171.5"/>
<text text-anchor="middle" x="1776.5" y="-178.7" font-family="Helvetica,sans-Serif" font-size="11.00">CommandLineArguments.h</text>
</a>
</g>
</g>
<!-- Node24&#45;&gt;Node25 -->
<g id="edge26" class="edge">
<title>Node24&#45;&gt;Node25</title>
<path fill="none" stroke="midnightblue" d="M1718.8,-222.67C1733.03,-212.76 1751.31,-200.04 1763.44,-191.6"/>
<polygon fill="midnightblue" stroke="midnightblue" points="1716.75,-219.83 1710.55,-228.42 1720.75,-225.58 1716.75,-219.83"/>
</g>
<!-- Node26 -->
<g id="node26" class="node">
<title>Node26</title>
<g id="a_node26"><a xlink:href="_logging_support_8cpp.html" target="_top" xlink:title="The LoggingSupport body implements a class for simple entry/exit logging to a file; this logging reli...">
<polygon fill="white" stroke="black" points="1870.5,-171.5 1870.5,-191.5 1984.5,-191.5 1984.5,-171.5 1870.5,-171.5"/>
<text text-anchor="middle" x="1927.5" y="-178.7" font-family="Helvetica,sans-Serif" font-size="11.00">LoggingSupport.cpp</text>
</a>
</g>
</g>
<!-- Node24&#45;&gt;Node26 -->
<g id="edge29" class="edge">
<title>Node24&#45;&gt;Node26</title>
<path fill="none" stroke="midnightblue" d="M1744.61,-226.23C1787.45,-215.99 1849.87,-201.06 1889.58,-191.57"/>
<polygon fill="midnightblue" stroke="midnightblue" points="1743.62,-222.87 1734.71,-228.6 1745.25,-229.68 1743.62,-222.87"/>
</g>
<!-- Node27 -->
<g id="node27" class="node">
<title>Node27</title>
<g id="a_node27"><a xlink:href="_dictionary_8cpp.html" target="_top" xlink:title="The Dictionary body implements maps from string keys to string values.">
<polygon fill="white" stroke="black" points="2002.5,-171.5 2002.5,-191.5 2088.5,-191.5 2088.5,-171.5 2002.5,-171.5"/>
<text text-anchor="middle" x="2045.5" y="-178.7" font-family="Helvetica,sans-Serif" font-size="11.00">Dictionary.cpp</text>
</a>
</g>
</g>
<!-- Node24&#45;&gt;Node27 -->
<g id="edge30" class="edge">
<title>Node24&#45;&gt;Node27</title>
<path fill="none" stroke="midnightblue" d="M1744.64,-228.07C1856.36,-208.96 1886.27,-209.54 1993.5,-192 1996.4,-191.53 1999.38,-191.02 2002.39,-190.5"/>
<polygon fill="midnightblue" stroke="midnightblue" points="1743.92,-224.64 1734.66,-229.79 1745.11,-231.54 1743.92,-224.64"/>
</g>
<!-- Node28 -->
<g id="node28" class="node">
<title>Node28</title>
<g id="a_node28"><a xlink:href="_midi_event_converter_8h.html" target="_top" xlink:title="The MidiEventConverter specification defines the handling of MIDI events by feeding them to an underl...">
<polygon fill="white" stroke="black" points="2106.5,-171.5 2106.5,-191.5 2226.5,-191.5 2226.5,-171.5 2106.5,-171.5"/>
<text text-anchor="middle" x="2166.5" y="-178.7" font-family="Helvetica,sans-Serif" font-size="11.00">MidiEventConverter.h</text>
</a>
</g>
</g>
<!-- Node24&#45;&gt;Node28 -->
<g id="edge33" class="edge">
<title>Node24&#45;&gt;Node28</title>
<path fill="none" stroke="midnightblue" d="M1744.68,-228.13C1902.13,-204.6 1944.13,-210.37 2097.5,-192 2100.38,-191.65 2103.33,-191.29 2106.31,-190.91"/>
<polygon fill="midnightblue" stroke="midnightblue" points="1744.01,-224.69 1734.64,-229.64 1745.05,-231.61 1744.01,-224.69"/>
</g>
<!-- Node25&#45;&gt;Node12 -->
<g id="edge27" class="edge">
<title>Node25&#45;&gt;Node12</title>
<path fill="none" stroke="midnightblue" d="M1690.89,-170.96C1521.89,-154.51 1337.24,-139.72 1233.44,-131.71"/>
<polygon fill="midnightblue" stroke="midnightblue" points="1690.67,-174.46 1700.97,-171.95 1691.36,-167.49 1690.67,-174.46"/>
</g>
<!-- Node25&#45;&gt;Node17 -->
<g id="edge28" class="edge">
<title>Node25&#45;&gt;Node17</title>
<path fill="none" stroke="midnightblue" d="M1776.5,-161.38C1776.5,-152.37 1776.5,-142.04 1776.5,-134.78"/>
<polygon fill="midnightblue" stroke="midnightblue" points="1773,-161.42 1776.5,-171.42 1780,-161.42 1773,-161.42"/>
</g>
<!-- Node28&#45;&gt;Node9 -->
<g id="edge35" class="edge">
<title>Node28&#45;&gt;Node9</title>
<path fill="none" stroke="midnightblue" d="M2150.95,-163.9C2134.81,-147.91 2107.97,-124.62 2079.5,-114 1934.1,-59.74 861.04,-24.26 523.11,-14.34"/>
<polygon fill="midnightblue" stroke="midnightblue" points="2148.48,-166.38 2157.97,-171.08 2153.48,-161.48 2148.48,-166.38"/>
</g>
<!-- Node28&#45;&gt;Node17 -->
<g id="edge34" class="edge">
<title>Node28&#45;&gt;Node17</title>
<path fill="none" stroke="midnightblue" d="M2096.43,-170.62C2023.71,-160.36 1910.95,-144.46 1840.54,-134.53"/>
<polygon fill="midnightblue" stroke="midnightblue" points="2096.03,-174.1 2106.42,-172.03 2097,-167.16 2096.03,-174.1"/>
</g>
<!-- Node28&#45;&gt;Node20 -->
<g id="edge36" class="edge">
<title>Node28&#45;&gt;Node20</title>
<path fill="none" stroke="midnightblue" d="M2130.04,-168.12C2099.96,-157.91 2057.98,-143.66 2031.02,-134.5"/>
<polygon fill="midnightblue" stroke="midnightblue" points="2129.15,-171.52 2139.75,-171.42 2131.41,-164.89 2129.15,-171.52"/>
</g>
</g>
</svg>
