<?xml version="1.0" encoding="UTF-8" standalone="no"?>
<!DOCTYPE svg PUBLIC "-//W3C//DTD SVG 1.1//EN"
 "http://www.w3.org/Graphics/SVG/1.1/DTD/svg11.dtd">
<!-- Generated by graphviz version 2.47.1 (20210417.1919)
 -->
<!-- Title: StringList.h Pages: 1 -->
<!--zoomable 420 -->
<svg id="main" version="1.1" xmlns="http://www.w3.org/2000/svg" xmlns:xlink="http://www.w3.org/1999/xlink" xml:space="preserve" onload="init(evt)">
<style type="text/css"><![CDATA[
.edge:hover path { stroke: red; }
.edge:hover polygon { stroke: red; fill: red; }
]]></style>
<script type="text/javascript"><![CDATA[
var edges = document.getElementsByTagName('g');
if (edges && edges.length) {
  for (var i=0;i<edges.length;i++) {
    if (edges[i].id.substr(0,4)=='edge') {
      edges[i].setAttribute('class','edge');
    }
  }
}
]]></script>
        <defs>
                <circle id="rim" cx="0" cy="0" r="7"/>
                <circle id="rim2" cx="0" cy="0" r="3.5"/>
                <g id="zoomPlus">
                        <use xlink:href="#rim" fill="#404040">
                                <set attributeName="fill" to="#808080" begin="zoomplus.mouseover" end="zoomplus.mouseout"/>
                        </use>
                        <path d="M-4,0h8M0,-4v8" fill="none" stroke="white" stroke-width="1.5" pointer-events="none"/>
                </g>
                <g id="zoomMin">
                        <use xlink:href="#rim" fill="#404040">
                                <set attributeName="fill" to="#808080" begin="zoomminus.mouseover" end="zoomminus.mouseout"/>
                        </use>
                        <path d="M-4,0h8" fill="none" stroke="white" stroke-width="1.5" pointer-events="none"/>
                </g>
                <g id="dirArrow">
                        <path fill="none" stroke="white" stroke-width="1.5" d="M0,-3.0v7 M-2.5,-0.5L0,-3.0L2.5,-0.5"/>
                </g>
               <g id="resetDef">
                       <use xlink:href="#rim2" fill="#404040">
                               <set attributeName="fill" to="#808080" begin="reset.mouseover" end="reset.mouseout"/>
                       </use>
               </g>
        </defs>

<script type="text/javascript">
var viewWidth = 2096;
var viewHeight = 420;
var sectionId = 'dynsection-1';
</script>
<script xlink:href="svgpan.js"/>
<svg id="graph" class="graph">
<g id="viewport">
<title>StringList.h</title>
<polygon fill="white" stroke="transparent" points="-4,4 -4,-416 2092.2,-416 2092.2,4 -4,4"/>
<!-- Node1 -->
<g id="node1" class="node">
<title>Node1</title>
<g id="a_node1"><a xlink:title="The StringList specification defines lists of string values with zero&#45;based arbitrary indexed access ...">
<polygon fill="#bfbfbf" stroke="black" points="1531.5,-392.5 1531.5,-411.5 1597.5,-411.5 1597.5,-392.5 1531.5,-392.5"/>
<text text-anchor="middle" x="1564.5" y="-399.5" font-family="Helvetica,sans-Serif" font-size="10.00">StringList.h</text>
</a>
</g>
</g>
<!-- Node2 -->
<g id="node2" class="node">
<title>Node2</title>
<g id="a_node2"><a xlink:href="_string_util_8h.html" target="_top" xlink:title="The StringUtil specification defines several string routines not included in the standard C++ library...">
<polygon fill="white" stroke="black" points="1319,-280.5 1319,-299.5 1384,-299.5 1384,-280.5 1319,-280.5"/>
<text text-anchor="middle" x="1351.5" y="-287.5" font-family="Helvetica,sans-Serif" font-size="10.00">StringUtil.h</text>
</a>
</g>
</g>
<!-- Node1&#45;&gt;Node2 -->
<g id="edge1" class="edge">
<title>Node1&#45;&gt;Node2</title>
<path fill="none" stroke="midnightblue" d="M1538.81,-387.73C1494.57,-364.88 1405.16,-318.71 1368.14,-299.59"/>
<polygon fill="midnightblue" stroke="midnightblue" points="1537.3,-390.89 1547.79,-392.37 1540.51,-384.67 1537.3,-390.89"/>
</g>
<!-- Node27 -->
<g id="node27" class="node">
<title>Node27</title>
<g id="a_node27"><a xlink:href="_byte_list_8h.html" target="_top" xlink:title="The ByteList specification defines lists of byte values with zero&#45;based arbitrary indexed access to p...">
<polygon fill="white" stroke="black" points="1534,-336.5 1534,-355.5 1595,-355.5 1595,-336.5 1534,-336.5"/>
<text text-anchor="middle" x="1564.5" y="-343.5" font-family="Helvetica,sans-Serif" font-size="10.00">ByteList.h</text>
</a>
</g>
</g>
<!-- Node1&#45;&gt;Node27 -->
<g id="edge28" class="edge">
<title>Node1&#45;&gt;Node27</title>
<path fill="none" stroke="midnightblue" d="M1564.5,-381.8C1564.5,-372.91 1564.5,-362.78 1564.5,-355.75"/>
<polygon fill="midnightblue" stroke="midnightblue" points="1561,-382.08 1564.5,-392.08 1568,-382.08 1561,-382.08"/>
</g>
<!-- Node35 -->
<g id="node35" class="node">
<title>Node35</title>
<g id="a_node35"><a xlink:href="_natural_list_8h.html" target="_top" xlink:title="The NaturalList specification defines lists of non&#45;negative integer values with zero&#45;based arbitrary ...">
<polygon fill="white" stroke="black" points="1626,-280.5 1626,-299.5 1697,-299.5 1697,-280.5 1626,-280.5"/>
<text text-anchor="middle" x="1661.5" y="-287.5" font-family="Helvetica,sans-Serif" font-size="10.00">NaturalList.h</text>
</a>
</g>
</g>
<!-- Node1&#45;&gt;Node35 -->
<g id="edge48" class="edge">
<title>Node1&#45;&gt;Node35</title>
<path fill="none" stroke="midnightblue" d="M1579.06,-384.67C1586.66,-376.14 1596.09,-365.52 1604.5,-356 1622.18,-335.97 1642.83,-312.37 1653.77,-299.85"/>
<polygon fill="midnightblue" stroke="midnightblue" points="1576.22,-382.59 1572.19,-392.39 1581.45,-387.25 1576.22,-382.59"/>
</g>
<!-- Node3 -->
<g id="node3" class="node">
<title>Node3</title>
<g id="a_node3"><a xlink:href="_file_8cpp.html" target="_top" xlink:title="The File body implements a class for simple file handling based on C stdio.">
<polygon fill="white" stroke="black" points="1843,-168.5 1843,-187.5 1894,-187.5 1894,-168.5 1843,-168.5"/>
<text text-anchor="middle" x="1868.5" y="-175.5" font-family="Helvetica,sans-Serif" font-size="10.00">File.cpp</text>
</a>
</g>
</g>
<!-- Node2&#45;&gt;Node3 -->
<g id="edge2" class="edge">
<title>Node2&#45;&gt;Node3</title>
<path fill="none" stroke="midnightblue" d="M1394,-279.73C1426.94,-271.92 1473.4,-259.55 1512.5,-244 1530.23,-236.95 1532.3,-229.74 1550.5,-224 1671.85,-185.76 1709.62,-212.33 1834.5,-188 1837.26,-187.46 1840.12,-186.83 1842.96,-186.15"/>
<polygon fill="midnightblue" stroke="midnightblue" points="1393.18,-276.32 1384.24,-282 1394.77,-283.14 1393.18,-276.32"/>
</g>
<!-- Node4 -->
<g id="node4" class="node">
<title>Node4</title>
<g id="a_node4"><a xlink:href="_logging_8h.html" target="_top" xlink:title="The Logging specification defines macros for entry&#45;, exit&#45; and intermediate logging of functions into...">
<polygon fill="white" stroke="black" points="1019,-224.5 1019,-243.5 1078,-243.5 1078,-224.5 1019,-224.5"/>
<text text-anchor="middle" x="1048.5" y="-231.5" font-family="Helvetica,sans-Serif" font-size="10.00">Logging.h</text>
</a>
</g>
</g>
<!-- Node2&#45;&gt;Node4 -->
<g id="edge3" class="edge">
<title>Node2&#45;&gt;Node4</title>
<path fill="none" stroke="midnightblue" d="M1308.89,-281.41C1246.66,-270.32 1132.44,-249.96 1078.37,-240.32"/>
<polygon fill="midnightblue" stroke="midnightblue" points="1308.33,-284.86 1318.79,-283.17 1309.56,-277.97 1308.33,-284.86"/>
</g>
<!-- Node24 -->
<g id="node24" class="node">
<title>Node24</title>
<g id="a_node24"><a xlink:href="_string_util_8cpp.html" target="_top" xlink:title="The StringUtil body implements several string routines not included in the standard C++ library (like...">
<polygon fill="white" stroke="black" points="1288,-224.5 1288,-243.5 1363,-243.5 1363,-224.5 1288,-224.5"/>
<text text-anchor="middle" x="1325.5" y="-231.5" font-family="Helvetica,sans-Serif" font-size="10.00">StringUtil.cpp</text>
</a>
</g>
</g>
<!-- Node2&#45;&gt;Node24 -->
<g id="edge25" class="edge">
<title>Node2&#45;&gt;Node24</title>
<path fill="none" stroke="midnightblue" d="M1342.83,-270.98C1338.41,-261.82 1333.25,-251.09 1329.71,-243.75"/>
<polygon fill="midnightblue" stroke="midnightblue" points="1339.71,-272.59 1347.21,-280.08 1346.02,-269.55 1339.71,-272.59"/>
</g>
<!-- Node25 -->
<g id="node25" class="node">
<title>Node25</title>
<g id="a_node25"><a xlink:href="_natural_list_8cpp.html" target="_top" xlink:title="The NaturalList body implements lists of non&#45;negative integer values with zero&#45;based arbitrary indexe...">
<polygon fill="white" stroke="black" points="1559.5,-224.5 1559.5,-243.5 1641.5,-243.5 1641.5,-224.5 1559.5,-224.5"/>
<text text-anchor="middle" x="1600.5" y="-231.5" font-family="Helvetica,sans-Serif" font-size="10.00">NaturalList.cpp</text>
</a>
</g>
</g>
<!-- Node2&#45;&gt;Node25 -->
<g id="edge26" class="edge">
<title>Node2&#45;&gt;Node25</title>
<path fill="none" stroke="midnightblue" d="M1393.88,-279.81C1440.65,-269.67 1515.34,-253.47 1560.95,-243.58"/>
<polygon fill="midnightblue" stroke="midnightblue" points="1393.08,-276.4 1384.05,-281.94 1394.57,-283.24 1393.08,-276.4"/>
</g>
<!-- Node26 -->
<g id="node26" class="node">
<title>Node26</title>
<g id="a_node26"><a xlink:href="_string_list_8cpp.html" target="_top" xlink:title="The StringList body implements lists of string values with zero&#45;based arbitrary indexed access to pos...">
<polygon fill="white" stroke="black" points="924,-224.5 924,-243.5 1001,-243.5 1001,-224.5 924,-224.5"/>
<text text-anchor="middle" x="962.5" y="-231.5" font-family="Helvetica,sans-Serif" font-size="10.00">StringList.cpp</text>
</a>
</g>
</g>
<!-- Node2&#45;&gt;Node26 -->
<g id="edge27" class="edge">
<title>Node2&#45;&gt;Node26</title>
<path fill="none" stroke="midnightblue" d="M1308.76,-284.11C1244.06,-276.55 1117.47,-261.07 1010.5,-244 1007.49,-243.52 1004.37,-243 1001.24,-242.45"/>
<polygon fill="midnightblue" stroke="midnightblue" points="1308.64,-287.62 1318.97,-285.3 1309.44,-280.67 1308.64,-287.62"/>
</g>
<!-- Node5 -->
<g id="node5" class="node">
<title>Node5</title>
<g id="a_node5"><a xlink:href="_audio_sample_fifo_queue_8cpp-inc.html" target="_top" xlink:title="The AudioSampleFifoQueue body implements a fifo queue for audio samples with popping off access to th...">
<polygon fill="white" stroke="black" points="66,-168.5 66,-187.5 219,-187.5 219,-168.5 66,-168.5"/>
<text text-anchor="middle" x="142.5" y="-175.5" font-family="Helvetica,sans-Serif" font-size="10.00">AudioSampleFifoQueue.cpp&#45;inc</text>
</a>
</g>
</g>
<!-- Node4&#45;&gt;Node5 -->
<g id="edge4" class="edge">
<title>Node4&#45;&gt;Node5</title>
<path fill="none" stroke="midnightblue" d="M1008.48,-223.96C681.37,-178.32 594.13,-207.67 267.5,-188 251.86,-187.06 235.13,-185.93 219.16,-184.81"/>
<polygon fill="midnightblue" stroke="midnightblue" points="1008.34,-227.47 1018.73,-225.4 1009.31,-220.54 1008.34,-227.47"/>
</g>
<!-- Node10 -->
<g id="node10" class="node">
<title>Node10</title>
<g id="a_node10"><a xlink:href="_fluid_synth_plugin___event_processor_8cpp.html" target="_top" xlink:title="The FluidSynthPlugin_Processor module implements the handling of MIDI events from the DAW via JUCE ha...">
<polygon fill="white" stroke="black" points="304.5,-0.5 304.5,-19.5 486.5,-19.5 486.5,-0.5 304.5,-0.5"/>
<text text-anchor="middle" x="395.5" y="-7.5" font-family="Helvetica,sans-Serif" font-size="10.00">FluidSynthPlugin_EventProcessor.cpp</text>
</a>
</g>
</g>
<!-- Node4&#45;&gt;Node10 -->
<g id="edge20" class="edge">
<title>Node4&#45;&gt;Node10</title>
<path fill="none" stroke="midnightblue" d="M1008.75,-224.31C908.41,-215.7 453.38,-233.51 407.5,-188 360.49,-141.36 383.98,-48.22 392.71,-19.58"/>
<polygon fill="midnightblue" stroke="midnightblue" points="1008.4,-227.8 1018.72,-225.43 1009.18,-220.84 1008.4,-227.8"/>
</g>
<!-- Node11 -->
<g id="node11" class="node">
<title>Node11</title>
<g id="a_node11"><a xlink:href="_audio_sample_fifo_queue_vector_8cpp-inc.html" target="_top" xlink:title="The AudioSampleFifoQueueVector body implements a list of fifo queues for audio samples (this is the e...">
<polygon fill="white" stroke="black" points="150.5,-112.5 150.5,-131.5 332.5,-131.5 332.5,-112.5 150.5,-112.5"/>
<text text-anchor="middle" x="241.5" y="-119.5" font-family="Helvetica,sans-Serif" font-size="10.00">AudioSampleFifoQueueVector.cpp&#45;inc</text>
</a>
</g>
</g>
<!-- Node4&#45;&gt;Node11 -->
<g id="edge10" class="edge">
<title>Node4&#45;&gt;Node11</title>
<path fill="none" stroke="midnightblue" d="M1008.47,-224.04C848.16,-204.12 484.46,-231.32 346.5,-188 307.84,-175.86 269.03,-146.22 251.37,-131.53"/>
<polygon fill="midnightblue" stroke="midnightblue" points="1008.35,-227.55 1018.73,-225.42 1009.28,-220.61 1008.35,-227.55"/>
</g>
<!-- Node12 -->
<g id="node12" class="node">
<title>Node12</title>
<g id="a_node12"><a xlink:href="_wave_file_8cpp.html" target="_top" xlink:title="The WaveFile specification defines an object for accessing a RIFF wave file with several channels.">
<polygon fill="white" stroke="black" points="1621,-168.5 1621,-187.5 1696,-187.5 1696,-168.5 1621,-168.5"/>
<text text-anchor="middle" x="1658.5" y="-175.5" font-family="Helvetica,sans-Serif" font-size="10.00">WaveFile.cpp</text>
</a>
</g>
</g>
<!-- Node4&#45;&gt;Node12 -->
<g id="edge12" class="edge">
<title>Node4&#45;&gt;Node12</title>
<path fill="none" stroke="midnightblue" d="M1088.32,-231.38C1180.75,-227.28 1416.89,-214.85 1612.5,-188 1615.24,-187.62 1618.07,-187.19 1620.9,-186.72"/>
<polygon fill="midnightblue" stroke="midnightblue" points="1088.12,-227.88 1078.29,-231.82 1088.43,-234.88 1088.12,-227.88"/>
</g>
<!-- Node13 -->
<g id="node13" class="node">
<title>Node13</title>
<g id="a_node13"><a xlink:href="_command_line_arguments_8cpp.html" target="_top" xlink:title="The CommandLineArguments body implements a handler for command&#45;line arguments converting them to a li...">
<polygon fill="white" stroke="black" points="427,-168.5 427,-187.5 572,-187.5 572,-168.5 427,-168.5"/>
<text text-anchor="middle" x="499.5" y="-175.5" font-family="Helvetica,sans-Serif" font-size="10.00">CommandLineArguments.cpp</text>
</a>
</g>
</g>
<!-- Node4&#45;&gt;Node13 -->
<g id="edge13" class="edge">
<title>Node4&#45;&gt;Node13</title>
<path fill="none" stroke="midnightblue" d="M1008.73,-223.92C819.81,-194.29 768.69,-206.12 581.5,-188 578.51,-187.71 575.45,-187.41 572.37,-187.1"/>
<polygon fill="midnightblue" stroke="midnightblue" points="1008.29,-227.39 1018.71,-225.5 1009.38,-220.48 1008.29,-227.39"/>
</g>
<!-- Node14 -->
<g id="node14" class="node">
<title>Node14</title>
<g id="a_node14"><a xlink:href="_operating_system_8cpp.html" target="_top" xlink:title="The OperatingSystem body implements a class for several operating system related utility functions (l...">
<polygon fill="white" stroke="black" points="1714,-168.5 1714,-187.5 1825,-187.5 1825,-168.5 1714,-168.5"/>
<text text-anchor="middle" x="1769.5" y="-175.5" font-family="Helvetica,sans-Serif" font-size="10.00">OperatingSystem.cpp</text>
</a>
</g>
</g>
<!-- Node4&#45;&gt;Node14 -->
<g id="edge14" class="edge">
<title>Node4&#45;&gt;Node14</title>
<path fill="none" stroke="midnightblue" d="M1088.23,-231.27C1190.67,-226.59 1472.12,-212.37 1705.5,-188 1708.18,-187.72 1710.92,-187.41 1713.68,-187.09"/>
<polygon fill="midnightblue" stroke="midnightblue" points="1087.86,-227.78 1078.03,-231.73 1088.18,-234.77 1087.86,-227.78"/>
</g>
<!-- Node15 -->
<g id="node15" class="node">
<title>Node15</title>
<g id="a_node15"><a xlink:href="_fluid_synth_8cpp.html" target="_top" xlink:title="The FluidSynth class implements the access to the fluidsynth library via a dynamic loading of it.">
<polygon fill="white" stroke="black" points="590.5,-168.5 590.5,-187.5 672.5,-187.5 672.5,-168.5 590.5,-168.5"/>
<text text-anchor="middle" x="631.5" y="-175.5" font-family="Helvetica,sans-Serif" font-size="10.00">FluidSynth.cpp</text>
</a>
</g>
</g>
<!-- Node4&#45;&gt;Node15 -->
<g id="edge15" class="edge">
<title>Node4&#45;&gt;Node15</title>
<path fill="none" stroke="midnightblue" d="M1008.55,-223.84C863.76,-199.44 823.81,-208.57 681.5,-188 678.62,-187.58 675.65,-187.13 672.66,-186.64"/>
<polygon fill="midnightblue" stroke="midnightblue" points="1008.25,-227.34 1018.7,-225.57 1009.43,-220.44 1008.25,-227.34"/>
</g>
<!-- Node16 -->
<g id="node16" class="node">
<title>Node16</title>
<g id="a_node16"><a xlink:href="_fluid_synth_settings_8cpp.html" target="_top" xlink:title="The FluidSynthSettings class implements an object&#45;oriented wrapper around an underlying fluidsynth se...">
<polygon fill="white" stroke="black" points="690.5,-168.5 690.5,-187.5 808.5,-187.5 808.5,-168.5 690.5,-168.5"/>
<text text-anchor="middle" x="749.5" y="-175.5" font-family="Helvetica,sans-Serif" font-size="10.00">FluidSynthSettings.cpp</text>
</a>
</g>
</g>
<!-- Node4&#45;&gt;Node16 -->
<g id="edge16" class="edge">
<title>Node4&#45;&gt;Node16</title>
<path fill="none" stroke="midnightblue" d="M1008.5,-223.68C932.89,-208.4 855.62,-195.57 804.93,-187.54"/>
<polygon fill="midnightblue" stroke="midnightblue" points="1008.17,-227.18 1018.67,-225.75 1009.57,-220.32 1008.17,-227.18"/>
</g>
<!-- Node17 -->
<g id="node17" class="node">
<title>Node17</title>
<g id="a_node17"><a xlink:href="_fluid_synth_synthesizer_8cpp.html" target="_top" xlink:title="The FluidSynthSynthesizer class implements an object&#45;oriented wrapper around an underlying fluidsynth...">
<polygon fill="white" stroke="black" points="826.5,-168.5 826.5,-187.5 960.5,-187.5 960.5,-168.5 826.5,-168.5"/>
<text text-anchor="middle" x="893.5" y="-175.5" font-family="Helvetica,sans-Serif" font-size="10.00">FluidSynthSynthesizer.cpp</text>
</a>
</g>
</g>
<!-- Node4&#45;&gt;Node17 -->
<g id="edge17" class="edge">
<title>Node4&#45;&gt;Node17</title>
<path fill="none" stroke="midnightblue" d="M1014.17,-221.04C985,-210.88 943.86,-196.55 917.95,-187.52"/>
<polygon fill="midnightblue" stroke="midnightblue" points="1013.34,-224.46 1023.94,-224.44 1015.65,-217.85 1013.34,-224.46"/>
</g>
<!-- Node18 -->
<g id="node18" class="node">
<title>Node18</title>
<g id="a_node18"><a xlink:href="_fluid_synth_file_converter_8cpp.html" target="_top" xlink:title="The FluidSynthFileConverter module implements a conversion from a MIDI file into a wave file using th...">
<polygon fill="white" stroke="black" points="1453.5,-112.5 1453.5,-131.5 1591.5,-131.5 1591.5,-112.5 1453.5,-112.5"/>
<text text-anchor="middle" x="1522.5" y="-119.5" font-family="Helvetica,sans-Serif" font-size="10.00">FluidSynthFileConverter.cpp</text>
</a>
</g>
</g>
<!-- Node4&#45;&gt;Node18 -->
<g id="edge18" class="edge">
<title>Node4&#45;&gt;Node18</title>
<path fill="none" stroke="midnightblue" d="M1071.83,-219.26C1101.31,-202.14 1150.59,-174.34 1170.5,-168 1265.6,-137.71 1381.3,-127.74 1453.44,-124.49"/>
<polygon fill="midnightblue" stroke="midnightblue" points="1069.89,-216.34 1063.02,-224.4 1073.42,-222.39 1069.89,-216.34"/>
</g>
<!-- Node19 -->
<g id="node19" class="node">
<title>Node19</title>
<g id="a_node19"><a xlink:href="_fluid_synth_plugin___editor_8cpp.html" target="_top" xlink:title="The FluidSynthPlugin_Editor module implements the editor for the processor of MIDI events from the DA...">
<polygon fill="white" stroke="black" points="978.5,-168.5 978.5,-187.5 1118.5,-187.5 1118.5,-168.5 978.5,-168.5"/>
<text text-anchor="middle" x="1048.5" y="-175.5" font-family="Helvetica,sans-Serif" font-size="10.00">FluidSynthPlugin_Editor.cpp</text>
</a>
</g>
</g>
<!-- Node4&#45;&gt;Node19 -->
<g id="edge19" class="edge">
<title>Node4&#45;&gt;Node19</title>
<path fill="none" stroke="midnightblue" d="M1048.5,-213.8C1048.5,-204.91 1048.5,-194.78 1048.5,-187.75"/>
<polygon fill="midnightblue" stroke="midnightblue" points="1045,-214.08 1048.5,-224.08 1052,-214.08 1045,-214.08"/>
</g>
<!-- Node20 -->
<g id="node20" class="node">
<title>Node20</title>
<g id="a_node20"><a xlink:href="_midi_event_8cpp.html" target="_top" xlink:title="The MidiEvent implementation defines the services of a single MIDI event.">
<polygon fill="white" stroke="black" points="1213,-168.5 1213,-187.5 1290,-187.5 1290,-168.5 1213,-168.5"/>
<text text-anchor="middle" x="1251.5" y="-175.5" font-family="Helvetica,sans-Serif" font-size="10.00">MidiEvent.cpp</text>
</a>
</g>
</g>
<!-- Node4&#45;&gt;Node20 -->
<g id="edge21" class="edge">
<title>Node4&#45;&gt;Node20</title>
<path fill="none" stroke="midnightblue" d="M1087.79,-222.55C1126.08,-212.36 1183.58,-197.07 1219.26,-187.58"/>
<polygon fill="midnightblue" stroke="midnightblue" points="1086.78,-219.19 1078.02,-225.15 1088.58,-225.96 1086.78,-219.19"/>
</g>
<!-- Node21 -->
<g id="node21" class="node">
<title>Node21</title>
<g id="a_node21"><a xlink:href="_midi_event_converter_8cpp.html" target="_top" xlink:title="The MidiEventConverter module implements the handling of MIDI events by feeding them to an underlying...">
<polygon fill="white" stroke="black" points="808.5,-112.5 808.5,-131.5 926.5,-131.5 926.5,-112.5 808.5,-112.5"/>
<text text-anchor="middle" x="867.5" y="-119.5" font-family="Helvetica,sans-Serif" font-size="10.00">MidiEventConverter.cpp</text>
</a>
</g>
</g>
<!-- Node4&#45;&gt;Node21 -->
<g id="edge22" class="edge">
<title>Node4&#45;&gt;Node21</title>
<path fill="none" stroke="midnightblue" d="M1008.6,-224.31C909.25,-215.92 461.94,-234.16 418.5,-188 364.05,-130.14 674.29,-123.11 808.22,-122.72"/>
<polygon fill="midnightblue" stroke="midnightblue" points="1008.4,-227.81 1018.72,-225.44 1009.17,-220.85 1008.4,-227.81"/>
</g>
<!-- Node22 -->
<g id="node22" class="node">
<title>Node22</title>
<g id="a_node22"><a xlink:href="_midi_event_list_8cpp.html" target="_top" xlink:title="The MIDIEventList body implements sequences of integer values with zero&#45;based arbitrary indexed acces...">
<polygon fill="white" stroke="black" points="1308,-168.5 1308,-187.5 1401,-187.5 1401,-168.5 1308,-168.5"/>
<text text-anchor="middle" x="1354.5" y="-175.5" font-family="Helvetica,sans-Serif" font-size="10.00">MidiEventList.cpp</text>
</a>
</g>
</g>
<!-- Node4&#45;&gt;Node22 -->
<g id="edge23" class="edge">
<title>Node4&#45;&gt;Node22</title>
<path fill="none" stroke="midnightblue" d="M1088.08,-226.02C1144.46,-216.07 1247.7,-197.85 1307.76,-187.25"/>
<polygon fill="midnightblue" stroke="midnightblue" points="1087.36,-222.59 1078.12,-227.77 1088.57,-229.48 1087.36,-222.59"/>
</g>
<!-- Node23 -->
<g id="node23" class="node">
<title>Node23</title>
<g id="a_node23"><a xlink:href="_midi_file_8cpp.html" target="_top" xlink:title="The MidiFile implementation implements the services of a MIDI file; currently only file reading is su...">
<polygon fill="white" stroke="black" points="1854,-112.5 1854,-131.5 1923,-131.5 1923,-112.5 1854,-112.5"/>
<text text-anchor="middle" x="1888.5" y="-119.5" font-family="Helvetica,sans-Serif" font-size="10.00">MidiFile.cpp</text>
</a>
</g>
</g>
<!-- Node4&#45;&gt;Node23 -->
<g id="edge24" class="edge">
<title>Node4&#45;&gt;Node23</title>
<path fill="none" stroke="midnightblue" d="M1080.99,-220.85C1103.93,-212.11 1135.3,-199.83 1162.5,-188 1181.46,-179.76 1184.49,-173.22 1204.5,-168 1267.55,-151.56 1723.29,-130.32 1853.72,-124.52"/>
<polygon fill="midnightblue" stroke="midnightblue" points="1079.51,-217.67 1071.4,-224.49 1081.99,-224.22 1079.51,-217.67"/>
</g>
<!-- Node6 -->
<g id="node6" class="node">
<title>Node6</title>
<g id="a_node6"><a xlink:href="_audio_sample_fifo_queue_8h.html" target="_top" xlink:title="The AudioSampleFifoQueue specification defines a fifo queue for audio samples with popping off access...">
<polygon fill="white" stroke="black" points="5,-112.5 5,-131.5 132,-131.5 132,-112.5 5,-112.5"/>
<text text-anchor="middle" x="68.5" y="-119.5" font-family="Helvetica,sans-Serif" font-size="10.00">AudioSampleFifoQueue.h</text>
</a>
</g>
</g>
<!-- Node5&#45;&gt;Node6 -->
<g id="edge5" class="edge">
<title>Node5&#45;&gt;Node6</title>
<path fill="none" stroke="midnightblue" d="M122.47,-162.38C109.09,-152.62 91.94,-140.11 80.61,-131.83"/>
<polygon fill="midnightblue" stroke="midnightblue" points="120.47,-165.26 130.61,-168.32 124.6,-159.6 120.47,-165.26"/>
</g>
<!-- Node7 -->
<g id="node7" class="node">
<title>Node7</title>
<g id="a_node7"><a xlink:href="_audio_sample_fifo_queue_8cpp.html" target="_top" xlink:title="The AudioSampleFifoQueue body implements a fifo queue for audio samples with popping off access to th...">
<polygon fill="white" stroke="black" points="0,-56.5 0,-75.5 137,-75.5 137,-56.5 0,-56.5"/>
<text text-anchor="middle" x="68.5" y="-63.5" font-family="Helvetica,sans-Serif" font-size="10.00">AudioSampleFifoQueue.cpp</text>
</a>
</g>
</g>
<!-- Node6&#45;&gt;Node7 -->
<g id="edge6" class="edge">
<title>Node6&#45;&gt;Node7</title>
<path fill="none" stroke="midnightblue" d="M68.5,-101.8C68.5,-92.91 68.5,-82.78 68.5,-75.75"/>
<polygon fill="midnightblue" stroke="midnightblue" points="65,-102.08 68.5,-112.08 72,-102.08 65,-102.08"/>
</g>
<!-- Node8 -->
<g id="node8" class="node">
<title>Node8</title>
<g id="a_node8"><a xlink:href="_audio_sample_fifo_queue_vector_8h.html" target="_top" xlink:title="The AudioSampleFifoQueueVector specification defines a list of fifo queues for audio samples.">
<polygon fill="white" stroke="black" points="160,-56.5 160,-75.5 315,-75.5 315,-56.5 160,-56.5"/>
<text text-anchor="middle" x="237.5" y="-63.5" font-family="Helvetica,sans-Serif" font-size="10.00">AudioSampleFifoQueueVector.h</text>
</a>
</g>
</g>
<!-- Node6&#45;&gt;Node8 -->
<g id="edge7" class="edge">
<title>Node6&#45;&gt;Node8</title>
<path fill="none" stroke="midnightblue" d="M105.1,-109.3C136.95,-99.13 182.34,-84.62 210.85,-75.52"/>
<polygon fill="midnightblue" stroke="midnightblue" points="103.74,-106.07 95.28,-112.44 105.87,-112.73 103.74,-106.07"/>
</g>
<!-- Node9 -->
<g id="node9" class="node">
<title>Node9</title>
<g id="a_node9"><a xlink:href="_audio_sample_fifo_queue_vector_8cpp.html" target="_top" xlink:title="The AudioSampleFifoQueueVector body implements a list of fifo queues for audio samples (this is the f...">
<polygon fill="white" stroke="black" points="120.5,-0.5 120.5,-19.5 286.5,-19.5 286.5,-0.5 120.5,-0.5"/>
<text text-anchor="middle" x="203.5" y="-7.5" font-family="Helvetica,sans-Serif" font-size="10.00">AudioSampleFifoQueueVector.cpp</text>
</a>
</g>
</g>
<!-- Node8&#45;&gt;Node9 -->
<g id="edge8" class="edge">
<title>Node8&#45;&gt;Node9</title>
<path fill="none" stroke="midnightblue" d="M226.52,-47.57C220.67,-38.27 213.73,-27.25 209.01,-19.75"/>
<polygon fill="midnightblue" stroke="midnightblue" points="223.6,-49.49 231.89,-56.08 229.52,-45.76 223.6,-49.49"/>
</g>
<!-- Node8&#45;&gt;Node10 -->
<g id="edge9" class="edge">
<title>Node8&#45;&gt;Node10</title>
<path fill="none" stroke="midnightblue" d="M272.11,-53.17C301.86,-43 344.05,-28.59 370.58,-19.52"/>
<polygon fill="midnightblue" stroke="midnightblue" points="270.87,-49.9 262.54,-56.44 273.13,-56.52 270.87,-49.9"/>
</g>
<!-- Node11&#45;&gt;Node8 -->
<g id="edge11" class="edge">
<title>Node11&#45;&gt;Node8</title>
<path fill="none" stroke="midnightblue" d="M240.1,-102.1C239.44,-93.14 238.67,-82.86 238.15,-75.75"/>
<polygon fill="midnightblue" stroke="midnightblue" points="236.61,-102.37 240.84,-112.08 243.59,-101.85 236.61,-102.37"/>
</g>
<!-- Node28 -->
<g id="node28" class="node">
<title>Node28</title>
<g id="a_node28"><a xlink:href="_file_8h.html" target="_top" xlink:title="The File specification defines a class for simple file handling based on C stdio.">
<polygon fill="white" stroke="black" points="1848,-224.5 1848,-243.5 1889,-243.5 1889,-224.5 1848,-224.5"/>
<text text-anchor="middle" x="1868.5" y="-231.5" font-family="Helvetica,sans-Serif" font-size="10.00">File.h</text>
</a>
</g>
</g>
<!-- Node27&#45;&gt;Node28 -->
<g id="edge29" class="edge">
<title>Node27&#45;&gt;Node28</title>
<path fill="none" stroke="midnightblue" d="M1603.19,-333.59C1631.89,-324.92 1671.88,-312.41 1706.5,-300 1758.28,-281.44 1818.07,-256.52 1848.48,-243.59"/>
<polygon fill="midnightblue" stroke="midnightblue" points="1602.11,-330.26 1593.54,-336.49 1604.12,-336.97 1602.11,-330.26"/>
</g>
<!-- Node30 -->
<g id="node30" class="node">
<title>Node30</title>
<g id="a_node30"><a xlink:href="_byte_list_8cpp.html" target="_top" xlink:title="The ByteList body implements sequences of byte values with zero&#45;based arbitrary indexed access to pos...">
<polygon fill="white" stroke="black" points="1529,-280.5 1529,-299.5 1600,-299.5 1600,-280.5 1529,-280.5"/>
<text text-anchor="middle" x="1564.5" y="-287.5" font-family="Helvetica,sans-Serif" font-size="10.00">ByteList.cpp</text>
</a>
</g>
</g>
<!-- Node27&#45;&gt;Node30 -->
<g id="edge36" class="edge">
<title>Node27&#45;&gt;Node30</title>
<path fill="none" stroke="midnightblue" d="M1564.5,-325.8C1564.5,-316.91 1564.5,-306.78 1564.5,-299.75"/>
<polygon fill="midnightblue" stroke="midnightblue" points="1561,-326.08 1564.5,-336.08 1568,-326.08 1561,-326.08"/>
</g>
<!-- Node31 -->
<g id="node31" class="node">
<title>Node31</title>
<g id="a_node31"><a xlink:href="_midi_event_8h.html" target="_top" xlink:title="The MidiEvent specification defines a single MIDI event and the MIDI event kind enumeration.">
<polygon fill="white" stroke="black" points="1428,-280.5 1428,-299.5 1495,-299.5 1495,-280.5 1428,-280.5"/>
<text text-anchor="middle" x="1461.5" y="-287.5" font-family="Helvetica,sans-Serif" font-size="10.00">MidiEvent.h</text>
</a>
</g>
</g>
<!-- Node27&#45;&gt;Node31 -->
<g id="edge37" class="edge">
<title>Node27&#45;&gt;Node31</title>
<path fill="none" stroke="midnightblue" d="M1538.92,-331.59C1519.88,-321.61 1494.44,-308.27 1478.01,-299.65"/>
<polygon fill="midnightblue" stroke="midnightblue" points="1537.47,-334.78 1547.95,-336.32 1540.72,-328.58 1537.47,-334.78"/>
</g>
<!-- Node28&#45;&gt;Node3 -->
<g id="edge31" class="edge">
<title>Node28&#45;&gt;Node3</title>
<path fill="none" stroke="midnightblue" d="M1868.5,-213.8C1868.5,-204.91 1868.5,-194.78 1868.5,-187.75"/>
<polygon fill="midnightblue" stroke="midnightblue" points="1865,-214.08 1868.5,-224.08 1872,-214.08 1865,-214.08"/>
</g>
<!-- Node28&#45;&gt;Node12 -->
<g id="edge30" class="edge">
<title>Node28&#45;&gt;Node12</title>
<path fill="none" stroke="midnightblue" d="M1838.28,-225.23C1799.41,-215.23 1732.11,-197.93 1691.8,-187.56"/>
<polygon fill="midnightblue" stroke="midnightblue" points="1837.43,-228.62 1847.98,-227.72 1839.17,-221.84 1837.43,-228.62"/>
</g>
<!-- Node28&#45;&gt;Node14 -->
<g id="edge33" class="edge">
<title>Node28&#45;&gt;Node14</title>
<path fill="none" stroke="midnightblue" d="M1843.66,-219.45C1825.39,-209.48 1801.08,-196.23 1785.37,-187.65"/>
<polygon fill="midnightblue" stroke="midnightblue" points="1842.14,-222.61 1852.59,-224.32 1845.49,-216.46 1842.14,-222.61"/>
</g>
<!-- Node28&#45;&gt;Node18 -->
<g id="edge34" class="edge">
<title>Node28&#45;&gt;Node18</title>
<path fill="none" stroke="midnightblue" d="M1886.87,-217.4C1901.2,-203.39 1916.65,-182.79 1903.5,-168 1883.17,-145.13 1695.74,-131.91 1591.56,-126.27"/>
<polygon fill="midnightblue" stroke="midnightblue" points="1884.21,-215.09 1879.22,-224.43 1888.95,-220.25 1884.21,-215.09"/>
</g>
<!-- Node28&#45;&gt;Node23 -->
<g id="edge35" class="edge">
<title>Node28&#45;&gt;Node23</title>
<path fill="none" stroke="midnightblue" d="M1899.49,-230.44C1949.23,-225.63 2043.35,-213.33 2063.5,-188 2102.24,-139.3 1984.43,-127.09 1923.11,-124.03"/>
<polygon fill="midnightblue" stroke="midnightblue" points="1898.94,-226.98 1889.31,-231.39 1899.59,-233.95 1898.94,-226.98"/>
</g>
<!-- Node29 -->
<g id="node29" class="node">
<title>Node29</title>
<g id="a_node29"><a xlink:href="_logging_support_8cpp.html" target="_top" xlink:title="The LoggingSupport body implements a class for simple entry/exit logging to a file or via a callback ...">
<polygon fill="white" stroke="black" points="1951,-168.5 1951,-187.5 2054,-187.5 2054,-168.5 1951,-168.5"/>
<text text-anchor="middle" x="2002.5" y="-175.5" font-family="Helvetica,sans-Serif" font-size="10.00">LoggingSupport.cpp</text>
</a>
</g>
</g>
<!-- Node28&#45;&gt;Node29 -->
<g id="edge32" class="edge">
<title>Node28&#45;&gt;Node29</title>
<path fill="none" stroke="midnightblue" d="M1898.56,-220.89C1923.67,-210.77 1958.86,-196.59 1981.17,-187.6"/>
<polygon fill="midnightblue" stroke="midnightblue" points="1897.11,-217.7 1889.14,-224.68 1899.73,-224.19 1897.11,-217.7"/>
</g>
<!-- Node31&#45;&gt;Node20 -->
<g id="edge38" class="edge">
<title>Node31&#45;&gt;Node20</title>
<path fill="none" stroke="midnightblue" d="M1443.63,-273.65C1426.33,-259.37 1398.9,-238.2 1372.5,-224 1342.89,-208.08 1306.44,-195.36 1281.33,-187.57"/>
<polygon fill="midnightblue" stroke="midnightblue" points="1441.79,-276.68 1451.7,-280.42 1446.29,-271.31 1441.79,-276.68"/>
</g>
<!-- Node32 -->
<g id="node32" class="node">
<title>Node32</title>
<g id="a_node32"><a xlink:href="_midi_event_list_8h.html" target="_top" xlink:title="The MidiEventList specification defines lists of MIDI events with zero&#45;based arbitrary indexed access...">
<polygon fill="white" stroke="black" points="1420,-224.5 1420,-243.5 1503,-243.5 1503,-224.5 1420,-224.5"/>
<text text-anchor="middle" x="1461.5" y="-231.5" font-family="Helvetica,sans-Serif" font-size="10.00">MidiEventList.h</text>
</a>
</g>
</g>
<!-- Node31&#45;&gt;Node32 -->
<g id="edge39" class="edge">
<title>Node31&#45;&gt;Node32</title>
<path fill="none" stroke="midnightblue" d="M1461.5,-269.8C1461.5,-260.91 1461.5,-250.78 1461.5,-243.75"/>
<polygon fill="midnightblue" stroke="midnightblue" points="1458,-270.08 1461.5,-280.08 1465,-270.08 1458,-270.08"/>
</g>
<!-- Node32&#45;&gt;Node22 -->
<g id="edge44" class="edge">
<title>Node32&#45;&gt;Node22</title>
<path fill="none" stroke="midnightblue" d="M1435.2,-219.73C1415.39,-209.73 1388.79,-196.31 1371.65,-187.65"/>
<polygon fill="midnightblue" stroke="midnightblue" points="1433.8,-222.94 1444.31,-224.32 1436.96,-216.69 1433.8,-222.94"/>
</g>
<!-- Node33 -->
<g id="node33" class="node">
<title>Node33</title>
<g id="a_node33"><a xlink:href="_midi_event_converter_8h.html" target="_top" xlink:title="The MidiEventConverter specification defines the handling of MIDI events by feeding them to an underl...">
<polygon fill="white" stroke="black" points="1419,-168.5 1419,-187.5 1526,-187.5 1526,-168.5 1419,-168.5"/>
<text text-anchor="middle" x="1472.5" y="-175.5" font-family="Helvetica,sans-Serif" font-size="10.00">MidiEventConverter.h</text>
</a>
</g>
</g>
<!-- Node32&#45;&gt;Node33 -->
<g id="edge40" class="edge">
<title>Node32&#45;&gt;Node33</title>
<path fill="none" stroke="midnightblue" d="M1465.35,-214.1C1467.18,-205.14 1469.27,-194.86 1470.72,-187.75"/>
<polygon fill="midnightblue" stroke="midnightblue" points="1461.88,-213.59 1463.32,-224.08 1468.74,-214.98 1461.88,-213.59"/>
</g>
<!-- Node34 -->
<g id="node34" class="node">
<title>Node34</title>
<g id="a_node34"><a xlink:href="_midi_file_8h.html" target="_top" xlink:title="The MidiFile specification defines the services of a MIDI file; currently only file reading is suppor...">
<polygon fill="white" stroke="black" points="1544,-168.5 1544,-187.5 1603,-187.5 1603,-168.5 1544,-168.5"/>
<text text-anchor="middle" x="1573.5" y="-175.5" font-family="Helvetica,sans-Serif" font-size="10.00">MidiFile.h</text>
</a>
</g>
</g>
<!-- Node32&#45;&gt;Node34 -->
<g id="edge45" class="edge">
<title>Node32&#45;&gt;Node34</title>
<path fill="none" stroke="midnightblue" d="M1488.75,-219.86C1509.52,-209.85 1537.52,-196.35 1555.55,-187.65"/>
<polygon fill="midnightblue" stroke="midnightblue" points="1486.98,-216.83 1479.49,-224.32 1490.02,-223.13 1486.98,-216.83"/>
</g>
<!-- Node33&#45;&gt;Node10 -->
<g id="edge42" class="edge">
<title>Node33&#45;&gt;Node10</title>
<path fill="none" stroke="midnightblue" d="M1408.68,-167.16C1214.5,-137.23 633.05,-47.61 450.78,-19.52"/>
<polygon fill="midnightblue" stroke="midnightblue" points="1408.31,-170.65 1418.72,-168.71 1409.37,-163.73 1408.31,-170.65"/>
</g>
<!-- Node33&#45;&gt;Node18 -->
<g id="edge41" class="edge">
<title>Node33&#45;&gt;Node18</title>
<path fill="none" stroke="midnightblue" d="M1487.58,-160.72C1496.39,-151.2 1507.17,-139.56 1514.4,-131.75"/>
<polygon fill="midnightblue" stroke="midnightblue" points="1484.98,-158.37 1480.76,-168.08 1490.12,-163.12 1484.98,-158.37"/>
</g>
<!-- Node33&#45;&gt;Node21 -->
<g id="edge43" class="edge">
<title>Node33&#45;&gt;Node21</title>
<path fill="none" stroke="midnightblue" d="M1408.77,-167.86C1227.49,-147.48 1024.77,-133.12 926.67,-126.71"/>
<polygon fill="midnightblue" stroke="midnightblue" points="1408.43,-171.34 1418.76,-168.99 1409.22,-164.39 1408.43,-171.34"/>
</g>
<!-- Node34&#45;&gt;Node18 -->
<g id="edge46" class="edge">
<title>Node34&#45;&gt;Node18</title>
<path fill="none" stroke="midnightblue" d="M1558.12,-160.72C1549.13,-151.2 1538.14,-139.56 1530.76,-131.75"/>
<polygon fill="midnightblue" stroke="midnightblue" points="1555.67,-163.22 1565.08,-168.08 1560.76,-158.41 1555.67,-163.22"/>
</g>
<!-- Node34&#45;&gt;Node23 -->
<g id="edge47" class="edge">
<title>Node34&#45;&gt;Node23</title>
<path fill="none" stroke="midnightblue" d="M1613.1,-167.99C1705.92,-149.94 1803.35,-135.22 1853.95,-127.89"/>
<polygon fill="midnightblue" stroke="midnightblue" points="1612.41,-164.56 1603.27,-169.92 1613.75,-171.43 1612.41,-164.56"/>
</g>
<!-- Node35&#45;&gt;Node12 -->
<g id="edge49" class="edge">
<title>Node35&#45;&gt;Node12</title>
<path fill="none" stroke="midnightblue" d="M1660.99,-270.35C1660.33,-246.25 1659.22,-205.31 1658.73,-187.59"/>
<polygon fill="midnightblue" stroke="midnightblue" points="1657.49,-270.47 1661.26,-280.37 1664.49,-270.28 1657.49,-270.47"/>
</g>
<!-- Node35&#45;&gt;Node23 -->
<g id="edge51" class="edge">
<title>Node35&#45;&gt;Node23</title>
<path fill="none" stroke="midnightblue" d="M1707.33,-285.18C1806.6,-275.82 2036.17,-248.02 2080.5,-188 2121.22,-132.87 1988.87,-124 1923.21,-122.91"/>
<polygon fill="midnightblue" stroke="midnightblue" points="1706.93,-281.7 1697.29,-286.1 1707.57,-288.67 1706.93,-281.7"/>
</g>
<!-- Node35&#45;&gt;Node25 -->
<g id="edge50" class="edge">
<title>Node35&#45;&gt;Node25</title>
<path fill="none" stroke="midnightblue" d="M1644.03,-273.54C1633.16,-263.91 1619.56,-251.87 1610.48,-243.83"/>
<polygon fill="midnightblue" stroke="midnightblue" points="1641.89,-276.32 1651.7,-280.32 1646.53,-271.07 1641.89,-276.32"/>
</g>
</g>
</svg>
        <g id="navigator" transform="translate(0 0)" fill="#404254">
                <rect fill="#f2f5e9" fill-opacity="0.5" stroke="#606060" stroke-width=".5" x="0" y="0" width="60" height="60"/>
                <use id="zoomplus" xlink:href="#zoomPlus" x="17" y="9" onmousedown="handleZoom(evt,'in')"/>
                <use id="zoomminus" xlink:href="#zoomMin" x="42" y="9" onmousedown="handleZoom(evt,'out')"/>
                <use id="reset" xlink:href="#resetDef" x="30" y="36" onmousedown="handleReset()"/>
                <g id="arrowUp" xlink:href="#dirArrow" transform="translate(30 24)" onmousedown="handlePan(0,-1)">
                  <use xlink:href="#rim" fill="#404040">
                        <set attributeName="fill" to="#808080" begin="arrowUp.mouseover" end="arrowUp.mouseout"/>
                  </use>
                  <path fill="none" stroke="white" stroke-width="1.5" d="M0,-3.0v7 M-2.5,-0.5L0,-3.0L2.5,-0.5"/>
                </g>
                <g id="arrowRight" xlink:href="#dirArrow" transform="rotate(90) translate(36 -43)" onmousedown="handlePan(1,0)">
                  <use xlink:href="#rim" fill="#404040">
                        <set attributeName="fill" to="#808080" begin="arrowRight.mouseover" end="arrowRight.mouseout"/>
                  </use>
                  <path fill="none" stroke="white" stroke-width="1.5" d="M0,-3.0v7 M-2.5,-0.5L0,-3.0L2.5,-0.5"/>
                </g>
                <g id="arrowDown" xlink:href="#dirArrow" transform="rotate(180) translate(-30 -48)" onmousedown="handlePan(0,1)">
                  <use xlink:href="#rim" fill="#404040">
                        <set attributeName="fill" to="#808080" begin="arrowDown.mouseover" end="arrowDown.mouseout"/>
                  </use>
                  <path fill="none" stroke="white" stroke-width="1.5" d="M0,-3.0v7 M-2.5,-0.5L0,-3.0L2.5,-0.5"/>
                </g>
                <g id="arrowLeft" xlink:href="#dirArrow" transform="rotate(270) translate(-36 17)" onmousedown="handlePan(-1,0)">
                  <use xlink:href="#rim" fill="#404040">
                        <set attributeName="fill" to="#808080" begin="arrowLeft.mouseover" end="arrowLeft.mouseout"/>
                  </use>
                  <path fill="none" stroke="white" stroke-width="1.5" d="M0,-3.0v7 M-2.5,-0.5L0,-3.0L2.5,-0.5"/>
                </g>
        </g>
        <svg viewBox="0 0 15 15" width="100%" height="30px" preserveAspectRatio="xMaxYMin meet">
         <g id="arrow_out" transform="scale(0.3 0.3)">
          <a xlink:href="_string_list_8h__dep__incl_org.svg" target="_base">
           <rect id="button" ry="5" rx="5" y="6" x="6" height="38" width="38"
                fill="#f2f5e9" fill-opacity="0.5" stroke="#606060" stroke-width="1.0"/>
           <path id="arrow"
             d="M 11.500037,31.436501 C 11.940474,20.09759 22.043105,11.32322 32.158766,21.979434 L 37.068811,17.246167 C 37.068811,17.246167 37.088388,32 37.088388,32 L 22.160133,31.978069 C 22.160133,31.978069 26.997745,27.140456 26.997745,27.140456 C 18.528582,18.264221 13.291696,25.230495 11.500037,31.436501 z"
             style="fill:#404040;"/>
          </a>
         </g>
        </svg>
</svg>
