<?xml version="1.0" encoding="UTF-8" standalone="no"?>
<!DOCTYPE svg PUBLIC "-//W3C//DTD SVG 1.1//EN"
 "http://www.w3.org/Graphics/SVG/1.1/DTD/svg11.dtd">
<!-- Generated by graphviz version 2.47.1 (20210417.1919)
 -->
<!-- Title: StringList.h Pages: 1 -->
<!--zoomable 371 -->
<svg id="main" version="1.1" xmlns="http://www.w3.org/2000/svg" xmlns:xlink="http://www.w3.org/1999/xlink" xml:space="preserve" onload="init(evt)">
<style type="text/css"><![CDATA[
.edge:hover path { stroke: red; }
.edge:hover polygon { stroke: red; fill: red; }
]]></style>
<script type="text/javascript"><![CDATA[
var edges = document.getElementsByTagName('g');
if (edges && edges.length) {
  for (var i=0;i<edges.length;i++) {
    if (edges[i].id.substr(0,4)=='edge') {
      edges[i].setAttribute('class','edge');
    }
  }
}
]]></script>
        <defs>
                <circle id="rim" cx="0" cy="0" r="7"/>
                <circle id="rim2" cx="0" cy="0" r="3.5"/>
                <g id="zoomPlus">
                        <use xlink:href="#rim" fill="#404040">
                                <set attributeName="fill" to="#808080" begin="zoomplus.mouseover" end="zoomplus.mouseout"/>
                        </use>
                        <path d="M-4,0h8M0,-4v8" fill="none" stroke="white" stroke-width="1.5" pointer-events="none"/>
                </g>
                <g id="zoomMin">
                        <use xlink:href="#rim" fill="#404040">
                                <set attributeName="fill" to="#808080" begin="zoomminus.mouseover" end="zoomminus.mouseout"/>
                        </use>
                        <path d="M-4,0h8" fill="none" stroke="white" stroke-width="1.5" pointer-events="none"/>
                </g>
                <g id="dirArrow">
                        <path fill="none" stroke="white" stroke-width="1.5" d="M0,-3.0v7 M-2.5,-0.5L0,-3.0L2.5,-0.5"/>
                </g>
               <g id="resetDef">
                       <use xlink:href="#rim2" fill="#404040">
                               <set attributeName="fill" to="#808080" begin="reset.mouseover" end="reset.mouseout"/>
                       </use>
               </g>
        </defs>

<script type="text/javascript">
var viewWidth = 2037;
var viewHeight = 371;
var sectionId = 'dynsection-1';
</script>
<script xlink:href="svgpan.js"/>
<svg id="graph" class="graph">
<g id="viewport">
<title>StringList.h</title>
<polygon fill="white" stroke="transparent" points="-4,4 -4,-367 2032.94,-367 2032.94,4 -4,4"/>
<!-- Node1 -->
<g id="node1" class="node">
<title>Node1</title>
<g id="a_node1"><a xlink:title="The StringList specification defines sequences of string values with zero&#45;based arbitrary indexed acc...">
<polygon fill="#bfbfbf" stroke="black" points="1228.5,-342.5 1228.5,-362.5 1299.5,-362.5 1299.5,-342.5 1228.5,-342.5"/>
<text text-anchor="middle" x="1264" y="-349.7" font-family="Helvetica,sans-Serif" font-size="11.00">StringList.h</text>
</a>
</g>
</g>
<!-- Node2 -->
<g id="node2" class="node">
<title>Node2</title>
<g id="a_node2"><a xlink:href="_string_util_8h.html" target="_top" xlink:title="The StringUtil specification defines several string routines not included in the standard C++ library...">
<polygon fill="white" stroke="black" points="1185.5,-285.5 1185.5,-305.5 1254.5,-305.5 1254.5,-285.5 1185.5,-285.5"/>
<text text-anchor="middle" x="1220" y="-292.7" font-family="Helvetica,sans-Serif" font-size="11.00">StringUtil.h</text>
</a>
</g>
</g>
<!-- Node1&#45;&gt;Node2 -->
<g id="edge1" class="edge">
<title>Node1&#45;&gt;Node2</title>
<path fill="none" stroke="midnightblue" d="M1250.35,-334.44C1242.79,-324.98 1233.68,-313.6 1227.42,-305.78"/>
<polygon fill="midnightblue" stroke="midnightblue" points="1247.75,-336.8 1256.73,-342.42 1253.22,-332.42 1247.75,-336.8"/>
</g>
<!-- Node32 -->
<g id="node32" class="node">
<title>Node32</title>
<g id="a_node32"><a xlink:href="_string_set_8h.html" target="_top" xlink:title="The StringSet specification defines sets of string values with no duplicates and only simple containm...">
<polygon fill="white" stroke="black" points="1323.5,-285.5 1323.5,-305.5 1394.5,-305.5 1394.5,-285.5 1323.5,-285.5"/>
<text text-anchor="middle" x="1359" y="-292.7" font-family="Helvetica,sans-Serif" font-size="11.00">StringSet.h</text>
</a>
</g>
</g>
<!-- Node1&#45;&gt;Node32 -->
<g id="edge40" class="edge">
<title>Node1&#45;&gt;Node32</title>
<path fill="none" stroke="midnightblue" d="M1288.65,-337.23C1305.9,-327.24 1328.43,-314.2 1343.29,-305.6"/>
<polygon fill="midnightblue" stroke="midnightblue" points="1286.59,-334.38 1279.69,-342.42 1290.1,-340.44 1286.59,-334.38"/>
</g>
<!-- Node3 -->
<g id="node3" class="node">
<title>Node3</title>
<g id="a_node3"><a xlink:href="_file_8cpp.html" target="_top" xlink:title="The File body implements a class for simple file handling based on C stdio.">
<polygon fill="white" stroke="black" points="1114.5,-228.5 1114.5,-248.5 1169.5,-248.5 1169.5,-228.5 1114.5,-228.5"/>
<text text-anchor="middle" x="1142" y="-235.7" font-family="Helvetica,sans-Serif" font-size="11.00">File.cpp</text>
</a>
</g>
</g>
<!-- Node2&#45;&gt;Node3 -->
<g id="edge2" class="edge">
<title>Node2&#45;&gt;Node3</title>
<path fill="none" stroke="midnightblue" d="M1198.57,-279.39C1184.58,-269.52 1166.76,-256.96 1154.9,-248.6"/>
<polygon fill="midnightblue" stroke="midnightblue" points="1196.93,-282.52 1207.12,-285.42 1200.96,-276.79 1196.93,-282.52"/>
</g>
<!-- Node4 -->
<g id="node4" class="node">
<title>Node4</title>
<g id="a_node4"><a xlink:href="_logging_8h.html" target="_top" xlink:title="The Logging specification defines macros for entry&#45;, exit&#45; and intermediate logging of functions into...">
<polygon fill="white" stroke="black" points="1188,-228.5 1188,-248.5 1252,-248.5 1252,-228.5 1188,-228.5"/>
<text text-anchor="middle" x="1220" y="-235.7" font-family="Helvetica,sans-Serif" font-size="11.00">Logging.h</text>
</a>
</g>
</g>
<!-- Node2&#45;&gt;Node4 -->
<g id="edge3" class="edge">
<title>Node2&#45;&gt;Node4</title>
<path fill="none" stroke="midnightblue" d="M1220,-275.38C1220,-266.37 1220,-256.04 1220,-248.78"/>
<polygon fill="midnightblue" stroke="midnightblue" points="1216.5,-275.42 1220,-285.42 1223.5,-275.42 1216.5,-275.42"/>
</g>
<!-- Node24 -->
<g id="node24" class="node">
<title>Node24</title>
<g id="a_node24"><a xlink:href="_string_util_8cpp.html" target="_top" xlink:title="The StringUtil body implements several string routines not included in the standard C++ library (like...">
<polygon fill="white" stroke="black" points="1270.5,-228.5 1270.5,-248.5 1351.5,-248.5 1351.5,-228.5 1270.5,-228.5"/>
<text text-anchor="middle" x="1311" y="-235.7" font-family="Helvetica,sans-Serif" font-size="11.00">StringUtil.cpp</text>
</a>
</g>
</g>
<!-- Node2&#45;&gt;Node24 -->
<g id="edge25" class="edge">
<title>Node2&#45;&gt;Node24</title>
<path fill="none" stroke="midnightblue" d="M1243.61,-280.23C1260.13,-270.24 1281.72,-257.2 1295.95,-248.6"/>
<polygon fill="midnightblue" stroke="midnightblue" points="1241.77,-277.25 1235.03,-285.42 1245.4,-283.24 1241.77,-277.25"/>
</g>
<!-- Node25 -->
<g id="node25" class="node">
<title>Node25</title>
<g id="a_node25"><a xlink:href="_dictionary_8h.html" target="_top" xlink:title="The Dictionary specification defines maps from string keys to string values.">
<polygon fill="white" stroke="black" points="413,-228.5 413,-248.5 487,-248.5 487,-228.5 413,-228.5"/>
<text text-anchor="middle" x="450" y="-235.7" font-family="Helvetica,sans-Serif" font-size="11.00">Dictionary.h</text>
</a>
</g>
</g>
<!-- Node2&#45;&gt;Node25 -->
<g id="edge26" class="edge">
<title>Node2&#45;&gt;Node25</title>
<path fill="none" stroke="midnightblue" d="M1175.15,-291.3C1036.27,-281.38 614.98,-251.28 487.16,-242.15"/>
<polygon fill="midnightblue" stroke="midnightblue" points="1175.19,-294.81 1185.42,-292.03 1175.69,-287.83 1175.19,-294.81"/>
</g>
<!-- Node30 -->
<g id="node30" class="node">
<title>Node30</title>
<g id="a_node30"><a xlink:href="_string_list_8cpp.html" target="_top" xlink:title="The StringList body implements sequences of string values with zero&#45;based arbitrary indexed access to...">
<polygon fill="white" stroke="black" points="1013.5,-228.5 1013.5,-248.5 1096.5,-248.5 1096.5,-228.5 1013.5,-228.5"/>
<text text-anchor="middle" x="1055" y="-235.7" font-family="Helvetica,sans-Serif" font-size="11.00">StringList.cpp</text>
</a>
</g>
</g>
<!-- Node2&#45;&gt;Node30 -->
<g id="edge38" class="edge">
<title>Node2&#45;&gt;Node30</title>
<path fill="none" stroke="midnightblue" d="M1183.27,-282.26C1152.6,-272.03 1109.59,-257.7 1082.01,-248.5"/>
<polygon fill="midnightblue" stroke="midnightblue" points="1182.16,-285.58 1192.75,-285.42 1184.37,-278.94 1182.16,-285.58"/>
</g>
<!-- Node31 -->
<g id="node31" class="node">
<title>Node31</title>
<g id="a_node31"><a xlink:href="_string_set_8cpp.html" target="_top" xlink:title="The StringSet body implements sets of string values with no duplicates and only simple containment ac...">
<polygon fill="white" stroke="black" points="1369.5,-228.5 1369.5,-248.5 1452.5,-248.5 1452.5,-228.5 1369.5,-228.5"/>
<text text-anchor="middle" x="1411" y="-235.7" font-family="Helvetica,sans-Serif" font-size="11.00">StringSet.cpp</text>
</a>
</g>
</g>
<!-- Node2&#45;&gt;Node31 -->
<g id="edge39" class="edge">
<title>Node2&#45;&gt;Node31</title>
<path fill="none" stroke="midnightblue" d="M1261.6,-282.52C1297.16,-272.28 1347.53,-257.78 1379.73,-248.5"/>
<polygon fill="midnightblue" stroke="midnightblue" points="1260.18,-279.29 1251.54,-285.42 1262.12,-286.01 1260.18,-279.29"/>
</g>
<!-- Node5 -->
<g id="node5" class="node">
<title>Node5</title>
<g id="a_node5"><a xlink:href="_audio_sample_fifo_queue_8cpp-inc.html" target="_top" xlink:title="The AudioSampleFifoQueue body implements a fifo queue for audio samples with popping off access to th...">
<polygon fill="white" stroke="black" points="1507.5,-171.5 1507.5,-191.5 1678.5,-191.5 1678.5,-171.5 1507.5,-171.5"/>
<text text-anchor="middle" x="1593" y="-178.7" font-family="Helvetica,sans-Serif" font-size="11.00">AudioSampleFifoQueue.cpp&#45;inc</text>
</a>
</g>
</g>
<!-- Node4&#45;&gt;Node5 -->
<g id="edge4" class="edge">
<title>Node4&#45;&gt;Node5</title>
<path fill="none" stroke="midnightblue" d="M1262.09,-227.93C1352.98,-211.45 1446.78,-199.24 1511.83,-191.52"/>
<polygon fill="midnightblue" stroke="midnightblue" points="1261.38,-224.51 1252.17,-229.75 1262.64,-231.39 1261.38,-224.51"/>
</g>
<!-- Node10 -->
<g id="node10" class="node">
<title>Node10</title>
<g id="a_node10"><a xlink:href="_fluid_synth_plugin___event_processor_8cpp.html" target="_top" xlink:title="The FluidSynthPlugin_Processor module implements the handling of MIDI events from the DAW via JUCE ha...">
<polygon fill="white" stroke="black" points="1377.5,-0.5 1377.5,-20.5 1580.5,-20.5 1580.5,-0.5 1377.5,-0.5"/>
<text text-anchor="middle" x="1479" y="-7.7" font-family="Helvetica,sans-Serif" font-size="11.00">FluidSynthPlugin_EventProcessor.cpp</text>
</a>
</g>
</g>
<!-- Node4&#45;&gt;Node10 -->
<g id="edge20" class="edge">
<title>Node4&#45;&gt;Node10</title>
<path fill="none" stroke="midnightblue" d="M1262.19,-228.02C1352.08,-213.1 1400.13,-255.11 1459,-192 1504.81,-142.89 1488.23,-50.55 1481.37,-20.91"/>
<polygon fill="midnightblue" stroke="midnightblue" points="1261.39,-224.61 1252.2,-229.89 1262.67,-231.49 1261.39,-224.61"/>
</g>
<!-- Node11 -->
<g id="node11" class="node">
<title>Node11</title>
<g id="a_node11"><a xlink:href="_audio_sample_fifo_queue_vector_8cpp-inc.html" target="_top" xlink:title="The AudioSampleFifoQueueVector body implements a list of fifo queues for audio samples (this is the e...">
<polygon fill="white" stroke="black" points="1810.5,-114.5 1810.5,-134.5 2013.5,-134.5 2013.5,-114.5 1810.5,-114.5"/>
<text text-anchor="middle" x="1912" y="-121.7" font-family="Helvetica,sans-Serif" font-size="11.00">AudioSampleFifoQueueVector.cpp&#45;inc</text>
</a>
</g>
</g>
<!-- Node4&#45;&gt;Node11 -->
<g id="edge10" class="edge">
<title>Node4&#45;&gt;Node11</title>
<path fill="none" stroke="midnightblue" d="M1262.11,-228.58C1360.99,-222.18 1994.04,-221.31 2022,-192 2047.49,-165.27 1994.05,-145.31 1953.08,-134.54"/>
<polygon fill="midnightblue" stroke="midnightblue" points="1261.77,-225.1 1252.13,-229.48 1262.4,-232.07 1261.77,-225.1"/>
</g>
<!-- Node12 -->
<g id="node12" class="node">
<title>Node12</title>
<g id="a_node12"><a xlink:href="_wave_file_8cpp.html" target="_top" xlink:title="The WaveFile specification defines an object for accessing a RIFF wave file with several channels.">
<polygon fill="white" stroke="black" points="1789.5,-171.5 1789.5,-191.5 1872.5,-191.5 1872.5,-171.5 1789.5,-171.5"/>
<text text-anchor="middle" x="1831" y="-178.7" font-family="Helvetica,sans-Serif" font-size="11.00">WaveFile.cpp</text>
</a>
</g>
</g>
<!-- Node4&#45;&gt;Node12 -->
<g id="edge12" class="edge">
<title>Node4&#45;&gt;Node12</title>
<path fill="none" stroke="midnightblue" d="M1262.12,-228.07C1491.44,-194.56 1553.88,-220.81 1780,-192 1783.04,-191.61 1786.17,-191.16 1789.31,-190.67"/>
<polygon fill="midnightblue" stroke="midnightblue" points="1261.51,-224.62 1252.14,-229.55 1262.54,-231.54 1261.51,-224.62"/>
</g>
<!-- Node13 -->
<g id="node13" class="node">
<title>Node13</title>
<g id="a_node13"><a xlink:href="_command_line_arguments_8cpp.html" target="_top" xlink:title="The CommandLineArguments body implements a handler for command&#45;line arguments converting them to a li...">
<polygon fill="white" stroke="black" points="947.5,-114.5 947.5,-134.5 1110.5,-134.5 1110.5,-114.5 947.5,-114.5"/>
<text text-anchor="middle" x="1029" y="-121.7" font-family="Helvetica,sans-Serif" font-size="11.00">CommandLineArguments.cpp</text>
</a>
</g>
</g>
<!-- Node4&#45;&gt;Node13 -->
<g id="edge13" class="edge">
<title>Node4&#45;&gt;Node13</title>
<path fill="none" stroke="midnightblue" d="M1177.98,-226.83C1135.51,-215.78 1074.92,-199.14 1066,-192 1047.02,-176.81 1036.21,-149.1 1031.63,-134.72"/>
<polygon fill="midnightblue" stroke="midnightblue" points="1177.25,-230.26 1187.81,-229.38 1179,-223.48 1177.25,-230.26"/>
</g>
<!-- Node14 -->
<g id="node14" class="node">
<title>Node14</title>
<g id="a_node14"><a xlink:href="_operating_system_8cpp.html" target="_top" xlink:title="The OperatingSystem body implements a class for several operating system related utility functions (l...">
<polygon fill="white" stroke="black" points="1890.5,-171.5 1890.5,-191.5 2013.5,-191.5 2013.5,-171.5 1890.5,-171.5"/>
<text text-anchor="middle" x="1952" y="-178.7" font-family="Helvetica,sans-Serif" font-size="11.00">OperatingSystem.cpp</text>
</a>
</g>
</g>
<!-- Node4&#45;&gt;Node14 -->
<g id="edge14" class="edge">
<title>Node4&#45;&gt;Node14</title>
<path fill="none" stroke="midnightblue" d="M1262.37,-228.05C1536,-189.42 1609.59,-218 1881,-192 1884.09,-191.7 1887.26,-191.37 1890.46,-191.02"/>
<polygon fill="midnightblue" stroke="midnightblue" points="1261.54,-224.63 1252.13,-229.51 1262.53,-231.56 1261.54,-224.63"/>
</g>
<!-- Node15 -->
<g id="node15" class="node">
<title>Node15</title>
<g id="a_node15"><a xlink:href="_fluid_synth_8cpp.html" target="_top" xlink:title="The FluidSynth class implements the access to the fluidsynth library via a dynamic loading of it.">
<polygon fill="white" stroke="black" points="543.5,-171.5 543.5,-191.5 632.5,-191.5 632.5,-171.5 543.5,-171.5"/>
<text text-anchor="middle" x="588" y="-178.7" font-family="Helvetica,sans-Serif" font-size="11.00">FluidSynth.cpp</text>
</a>
</g>
</g>
<!-- Node4&#45;&gt;Node15 -->
<g id="edge15" class="edge">
<title>Node4&#45;&gt;Node15</title>
<path fill="none" stroke="midnightblue" d="M1178.31,-228.04C1178.2,-228.03 1178.1,-228.01 1178,-228 941.74,-193.56 879.02,-220.73 642,-192 638.98,-191.63 635.86,-191.21 632.73,-190.75"/>
<polygon fill="midnightblue" stroke="midnightblue" points="1177.54,-231.46 1187.99,-229.72 1178.74,-224.57 1177.54,-231.46"/>
</g>
<!-- Node16 -->
<g id="node16" class="node">
<title>Node16</title>
<g id="a_node16"><a xlink:href="_fluid_synth_settings_8cpp.html" target="_top" xlink:title="The FluidSynthSettings class implements an object&#45;oriented wrapper around an underlying fluidsynth se...">
<polygon fill="white" stroke="black" points="651,-171.5 651,-191.5 779,-191.5 779,-171.5 651,-171.5"/>
<text text-anchor="middle" x="715" y="-178.7" font-family="Helvetica,sans-Serif" font-size="11.00">FluidSynthSettings.cpp</text>
</a>
</g>
</g>
<!-- Node4&#45;&gt;Node16 -->
<g id="edge16" class="edge">
<title>Node4&#45;&gt;Node16</title>
<path fill="none" stroke="midnightblue" d="M1178.3,-228.05C1178.2,-228.03 1178.1,-228.02 1178,-228 1008.28,-200.99 963.87,-210.39 793,-192 788.52,-191.52 783.91,-191 779.26,-190.47"/>
<polygon fill="midnightblue" stroke="midnightblue" points="1177.51,-231.46 1187.98,-229.81 1178.77,-224.58 1177.51,-231.46"/>
</g>
<!-- Node17 -->
<g id="node17" class="node">
<title>Node17</title>
<g id="a_node17"><a xlink:href="_fluid_synth_synthesizer_8cpp.html" target="_top" xlink:title="The FluidSynthSynthesizer class implements an object&#45;oriented wrapper around an underlying fluidsynth...">
<polygon fill="white" stroke="black" points="873,-171.5 873,-191.5 1019,-191.5 1019,-171.5 873,-171.5"/>
<text text-anchor="middle" x="946" y="-178.7" font-family="Helvetica,sans-Serif" font-size="11.00">FluidSynthSynthesizer.cpp</text>
</a>
</g>
</g>
<!-- Node4&#45;&gt;Node17 -->
<g id="edge17" class="edge">
<title>Node4&#45;&gt;Node17</title>
<path fill="none" stroke="midnightblue" d="M1178.3,-228.06C1178.2,-228.04 1178.1,-228.02 1178,-228 1114.55,-214.6 1041.05,-200.41 994.07,-191.51"/>
<polygon fill="midnightblue" stroke="midnightblue" points="1177.4,-231.45 1187.92,-230.14 1178.88,-224.61 1177.4,-231.45"/>
</g>
<!-- Node18 -->
<g id="node18" class="node">
<title>Node18</title>
<g id="a_node18"><a xlink:href="_fluid_synth_file_converter_8cpp.html" target="_top" xlink:title="The FluidSynthFileConverter module implements a conversion from a MIDI file into a wave file using th...">
<polygon fill="white" stroke="black" points="373,-114.5 373,-134.5 527,-134.5 527,-114.5 373,-114.5"/>
<text text-anchor="middle" x="450" y="-121.7" font-family="Helvetica,sans-Serif" font-size="11.00">FluidSynthFileConverter.cpp</text>
</a>
</g>
</g>
<!-- Node4&#45;&gt;Node18 -->
<g id="edge18" class="edge">
<title>Node4&#45;&gt;Node18</title>
<path fill="none" stroke="midnightblue" d="M1178.3,-228.05C1178.2,-228.03 1178.1,-228.02 1178,-228 1020.6,-202.36 971.68,-244.22 821,-192 804.57,-186.31 804.33,-176.97 788,-171 702.21,-139.66 597.1,-129.57 527.09,-126.5"/>
<polygon fill="midnightblue" stroke="midnightblue" points="1177.51,-231.46 1187.98,-229.83 1178.78,-224.58 1177.51,-231.46"/>
</g>
<!-- Node19 -->
<g id="node19" class="node">
<title>Node19</title>
<g id="a_node19"><a xlink:href="_fluid_synth_plugin___editor_8cpp.html" target="_top" xlink:title="The FluidSynthPlugin_Editor module implements the editor for the processor of MIDI events from the DA...">
<polygon fill="white" stroke="black" points="1075.5,-171.5 1075.5,-191.5 1228.5,-191.5 1228.5,-171.5 1075.5,-171.5"/>
<text text-anchor="middle" x="1152" y="-178.7" font-family="Helvetica,sans-Serif" font-size="11.00">FluidSynthPlugin_Editor.cpp</text>
</a>
</g>
</g>
<!-- Node4&#45;&gt;Node19 -->
<g id="edge19" class="edge">
<title>Node4&#45;&gt;Node19</title>
<path fill="none" stroke="midnightblue" d="M1200.67,-221.87C1188.66,-212.15 1173.63,-199.99 1163.47,-191.78"/>
<polygon fill="midnightblue" stroke="midnightblue" points="1198.79,-224.85 1208.77,-228.42 1203.2,-219.41 1198.79,-224.85"/>
</g>
<!-- Node20 -->
<g id="node20" class="node">
<title>Node20</title>
<g id="a_node20"><a xlink:href="_midi_event_8cpp.html" target="_top" xlink:title="The MidiEvent implementation defines the services of a single MIDI event.">
<polygon fill="white" stroke="black" points="1247,-171.5 1247,-191.5 1331,-191.5 1331,-171.5 1247,-171.5"/>
<text text-anchor="middle" x="1289" y="-178.7" font-family="Helvetica,sans-Serif" font-size="11.00">MidiEvent.cpp</text>
</a>
</g>
</g>
<!-- Node4&#45;&gt;Node20 -->
<g id="edge21" class="edge">
<title>Node4&#45;&gt;Node20</title>
<path fill="none" stroke="midnightblue" d="M1239.26,-222.15C1251.5,-212.39 1266.95,-200.07 1277.36,-191.78"/>
<polygon fill="midnightblue" stroke="midnightblue" points="1237.03,-219.45 1231.39,-228.42 1241.4,-224.92 1237.03,-219.45"/>
</g>
<!-- Node21 -->
<g id="node21" class="node">
<title>Node21</title>
<g id="a_node21"><a xlink:href="_midi_event_converter_8cpp.html" target="_top" xlink:title="The MidiEventConverter module implements the handling of MIDI events by feeding them to an underlying...">
<polygon fill="white" stroke="black" points="662,-114.5 662,-134.5 794,-134.5 794,-114.5 662,-114.5"/>
<text text-anchor="middle" x="728" y="-121.7" font-family="Helvetica,sans-Serif" font-size="11.00">MidiEventConverter.cpp</text>
</a>
</g>
</g>
<!-- Node4&#45;&gt;Node21 -->
<g id="edge22" class="edge">
<title>Node4&#45;&gt;Node21</title>
<path fill="none" stroke="midnightblue" d="M1178.3,-228.05C1178.2,-228.03 1178.1,-228.02 1178,-228 1039.51,-204.47 998.82,-231.42 864,-192 863.81,-191.94 783.78,-152.79 746.59,-134.6"/>
<polygon fill="midnightblue" stroke="midnightblue" points="1177.49,-231.46 1187.97,-229.88 1178.79,-224.58 1177.49,-231.46"/>
</g>
<!-- Node22 -->
<g id="node22" class="node">
<title>Node22</title>
<g id="a_node22"><a xlink:href="_midi_event_list_8cpp.html" target="_top" xlink:title="The MIDIEventList body implements sequences of integer values with zero&#45;based arbitrary indexed acces...">
<polygon fill="white" stroke="black" points="1349.5,-171.5 1349.5,-191.5 1450.5,-191.5 1450.5,-171.5 1349.5,-171.5"/>
<text text-anchor="middle" x="1400" y="-178.7" font-family="Helvetica,sans-Serif" font-size="11.00">MidiEventList.cpp</text>
</a>
</g>
</g>
<!-- Node4&#45;&gt;Node22 -->
<g id="edge23" class="edge">
<title>Node4&#45;&gt;Node22</title>
<path fill="none" stroke="midnightblue" d="M1259.64,-225.39C1293.12,-215.16 1340.31,-200.74 1370.53,-191.5"/>
<polygon fill="midnightblue" stroke="midnightblue" points="1258.26,-222.15 1249.72,-228.42 1260.31,-228.84 1258.26,-222.15"/>
</g>
<!-- Node23 -->
<g id="node23" class="node">
<title>Node23</title>
<g id="a_node23"><a xlink:href="_midi_file_8cpp.html" target="_top" xlink:title="The MidiFile implementation implements the services of a MIDI file; currently only file reading is su...">
<polygon fill="white" stroke="black" points="1697,-171.5 1697,-191.5 1771,-191.5 1771,-171.5 1697,-171.5"/>
<text text-anchor="middle" x="1734" y="-178.7" font-family="Helvetica,sans-Serif" font-size="11.00">MidiFile.cpp</text>
</a>
</g>
</g>
<!-- Node4&#45;&gt;Node23 -->
<g id="edge24" class="edge">
<title>Node4&#45;&gt;Node23</title>
<path fill="none" stroke="midnightblue" d="M1262.09,-228.04C1450.46,-199.16 1502.12,-218.41 1687,-192 1690.21,-191.54 1693.54,-191 1696.87,-190.42"/>
<polygon fill="midnightblue" stroke="midnightblue" points="1261.49,-224.6 1252.14,-229.59 1262.56,-231.51 1261.49,-224.6"/>
</g>
<!-- Node6 -->
<g id="node6" class="node">
<title>Node6</title>
<g id="a_node6"><a xlink:href="_audio_sample_fifo_queue_8h.html" target="_top" xlink:title="The AudioSampleFifoQueue specification defines a fifo queue for audio samples with popping off access...">
<polygon fill="white" stroke="black" points="1522.5,-114.5 1522.5,-134.5 1663.5,-134.5 1663.5,-114.5 1522.5,-114.5"/>
<text text-anchor="middle" x="1593" y="-121.7" font-family="Helvetica,sans-Serif" font-size="11.00">AudioSampleFifoQueue.h</text>
</a>
</g>
</g>
<!-- Node5&#45;&gt;Node6 -->
<g id="edge5" class="edge">
<title>Node5&#45;&gt;Node6</title>
<path fill="none" stroke="midnightblue" d="M1593,-161.38C1593,-152.37 1593,-142.04 1593,-134.78"/>
<polygon fill="midnightblue" stroke="midnightblue" points="1589.5,-161.42 1593,-171.42 1596.5,-161.42 1589.5,-161.42"/>
</g>
<!-- Node7 -->
<g id="node7" class="node">
<title>Node7</title>
<g id="a_node7"><a xlink:href="_audio_sample_fifo_queue_8cpp.html" target="_top" xlink:title="The AudioSampleFifoQueue body implements a fifo queue for audio samples with popping off access to th...">
<polygon fill="white" stroke="black" points="1511.5,-57.5 1511.5,-77.5 1664.5,-77.5 1664.5,-57.5 1511.5,-57.5"/>
<text text-anchor="middle" x="1588" y="-64.7" font-family="Helvetica,sans-Serif" font-size="11.00">AudioSampleFifoQueue.cpp</text>
</a>
</g>
</g>
<!-- Node6&#45;&gt;Node7 -->
<g id="edge6" class="edge">
<title>Node6&#45;&gt;Node7</title>
<path fill="none" stroke="midnightblue" d="M1591.26,-104.38C1590.44,-95.37 1589.5,-85.04 1588.84,-77.78"/>
<polygon fill="midnightblue" stroke="midnightblue" points="1587.78,-104.78 1592.17,-114.42 1594.75,-104.14 1587.78,-104.78"/>
</g>
<!-- Node8 -->
<g id="node8" class="node">
<title>Node8</title>
<g id="a_node8"><a xlink:href="_audio_sample_fifo_queue_vector_8h.html" target="_top" xlink:title="The AudioSampleFifoQueueVector specification defines a list of fifo queues for audio samples.">
<polygon fill="white" stroke="black" points="1682.5,-57.5 1682.5,-77.5 1855.5,-77.5 1855.5,-57.5 1682.5,-57.5"/>
<text text-anchor="middle" x="1769" y="-64.7" font-family="Helvetica,sans-Serif" font-size="11.00">AudioSampleFifoQueueVector.h</text>
</a>
</g>
</g>
<!-- Node6&#45;&gt;Node8 -->
<g id="edge7" class="edge">
<title>Node6&#45;&gt;Node8</title>
<path fill="none" stroke="midnightblue" d="M1631.76,-111.39C1664.49,-101.16 1710.64,-86.74 1740.19,-77.5"/>
<polygon fill="midnightblue" stroke="midnightblue" points="1630.56,-108.09 1622.06,-114.42 1632.65,-114.78 1630.56,-108.09"/>
</g>
<!-- Node9 -->
<g id="node9" class="node">
<title>Node9</title>
<g id="a_node9"><a xlink:href="_audio_sample_fifo_queue_vector_8cpp.html" target="_top" xlink:title="The AudioSampleFifoQueueVector body implements a list of fifo queues for audio samples (this is the f...">
<polygon fill="white" stroke="black" points="1676.5,-0.5 1676.5,-20.5 1861.5,-20.5 1861.5,-0.5 1676.5,-0.5"/>
<text text-anchor="middle" x="1769" y="-7.7" font-family="Helvetica,sans-Serif" font-size="11.00">AudioSampleFifoQueueVector.cpp</text>
</a>
</g>
</g>
<!-- Node8&#45;&gt;Node9 -->
<g id="edge8" class="edge">
<title>Node8&#45;&gt;Node9</title>
<path fill="none" stroke="midnightblue" d="M1769,-47.38C1769,-38.37 1769,-28.04 1769,-20.78"/>
<polygon fill="midnightblue" stroke="midnightblue" points="1765.5,-47.42 1769,-57.42 1772.5,-47.42 1765.5,-47.42"/>
</g>
<!-- Node8&#45;&gt;Node10 -->
<g id="edge9" class="edge">
<title>Node8&#45;&gt;Node10</title>
<path fill="none" stroke="midnightblue" d="M1711.31,-55.56C1657.17,-45.29 1577.17,-30.12 1526.59,-20.53"/>
<polygon fill="midnightblue" stroke="midnightblue" points="1710.96,-59.05 1721.44,-57.48 1712.26,-52.18 1710.96,-59.05"/>
</g>
<!-- Node11&#45;&gt;Node8 -->
<g id="edge11" class="edge">
<title>Node11&#45;&gt;Node8</title>
<path fill="none" stroke="midnightblue" d="M1878.8,-110.73C1852.42,-100.58 1816.16,-86.64 1792.65,-77.6"/>
<polygon fill="midnightblue" stroke="midnightblue" points="1877.8,-114.09 1888.39,-114.42 1880.31,-107.56 1877.8,-114.09"/>
</g>
<!-- Node25&#45;&gt;Node15 -->
<g id="edge32" class="edge">
<title>Node25&#45;&gt;Node15</title>
<path fill="none" stroke="midnightblue" d="M482.37,-224.6C507.81,-214.46 542.59,-200.6 565.18,-191.6"/>
<polygon fill="midnightblue" stroke="midnightblue" points="480.78,-221.46 472.79,-228.42 483.37,-227.97 480.78,-221.46"/>
</g>
<!-- Node25&#45;&gt;Node16 -->
<g id="edge33" class="edge">
<title>Node25&#45;&gt;Node16</title>
<path fill="none" stroke="midnightblue" d="M496.92,-227.76C546.32,-217.51 623.46,-201.5 671.53,-191.52"/>
<polygon fill="midnightblue" stroke="midnightblue" points="496.21,-224.34 487.13,-229.79 497.63,-231.19 496.21,-224.34"/>
</g>
<!-- Node26 -->
<g id="node26" class="node">
<title>Node26</title>
<g id="a_node26"><a xlink:href="_command_line_arguments_8h.html" target="_top" xlink:title="The CommandLineArguments specification defines a handler for command&#45;line arguments converting them t...">
<polygon fill="white" stroke="black" points="374.5,-171.5 374.5,-191.5 525.5,-191.5 525.5,-171.5 374.5,-171.5"/>
<text text-anchor="middle" x="450" y="-178.7" font-family="Helvetica,sans-Serif" font-size="11.00">CommandLineArguments.h</text>
</a>
</g>
</g>
<!-- Node25&#45;&gt;Node26 -->
<g id="edge27" class="edge">
<title>Node25&#45;&gt;Node26</title>
<path fill="none" stroke="midnightblue" d="M450,-218.38C450,-209.37 450,-199.04 450,-191.78"/>
<polygon fill="midnightblue" stroke="midnightblue" points="446.5,-218.42 450,-228.42 453.5,-218.42 446.5,-218.42"/>
</g>
<!-- Node27 -->
<g id="node27" class="node">
<title>Node27</title>
<g id="a_node27"><a xlink:href="_logging_support_8cpp.html" target="_top" xlink:title="The LoggingSupport body implements a class for simple entry/exit logging to a file; this logging reli...">
<polygon fill="white" stroke="black" points="0,-171.5 0,-191.5 114,-191.5 114,-171.5 0,-171.5"/>
<text text-anchor="middle" x="57" y="-178.7" font-family="Helvetica,sans-Serif" font-size="11.00">LoggingSupport.cpp</text>
</a>
</g>
</g>
<!-- Node25&#45;&gt;Node27 -->
<g id="edge30" class="edge">
<title>Node25&#45;&gt;Node27</title>
<path fill="none" stroke="midnightblue" d="M402.6,-230.98C338.98,-222.2 222.45,-206.08 123,-192 120.13,-191.59 117.2,-191.18 114.24,-190.76"/>
<polygon fill="midnightblue" stroke="midnightblue" points="402.34,-234.47 412.72,-232.37 403.29,-227.54 402.34,-234.47"/>
</g>
<!-- Node28 -->
<g id="node28" class="node">
<title>Node28</title>
<g id="a_node28"><a xlink:href="_dictionary_8cpp.html" target="_top" xlink:title="The Dictionary body implements maps from string keys to string values.">
<polygon fill="white" stroke="black" points="132,-171.5 132,-191.5 218,-191.5 218,-171.5 132,-171.5"/>
<text text-anchor="middle" x="175" y="-178.7" font-family="Helvetica,sans-Serif" font-size="11.00">Dictionary.cpp</text>
</a>
</g>
</g>
<!-- Node25&#45;&gt;Node28 -->
<g id="edge31" class="edge">
<title>Node25&#45;&gt;Node28</title>
<path fill="none" stroke="midnightblue" d="M402.98,-228.1C351.17,-217.73 268.54,-201.21 218.28,-191.16"/>
<polygon fill="midnightblue" stroke="midnightblue" points="402.42,-231.55 412.91,-230.08 403.79,-224.69 402.42,-231.55"/>
</g>
<!-- Node29 -->
<g id="node29" class="node">
<title>Node29</title>
<g id="a_node29"><a xlink:href="_midi_event_converter_8h.html" target="_top" xlink:title="The MidiEventConverter specification defines the handling of MIDI events by feeding them to an underl...">
<polygon fill="white" stroke="black" points="236,-171.5 236,-191.5 356,-191.5 356,-171.5 236,-171.5"/>
<text text-anchor="middle" x="296" y="-178.7" font-family="Helvetica,sans-Serif" font-size="11.00">MidiEventConverter.h</text>
</a>
</g>
</g>
<!-- Node25&#45;&gt;Node29 -->
<g id="edge34" class="edge">
<title>Node25&#45;&gt;Node29</title>
<path fill="none" stroke="midnightblue" d="M414.97,-224.99C386.4,-214.79 346.73,-200.62 321.21,-191.5"/>
<polygon fill="midnightblue" stroke="midnightblue" points="413.98,-228.35 424.57,-228.42 416.33,-221.76 413.98,-228.35"/>
</g>
<!-- Node26&#45;&gt;Node13 -->
<g id="edge28" class="edge">
<title>Node26&#45;&gt;Node13</title>
<path fill="none" stroke="midnightblue" d="M535.95,-170.82C687.11,-155.41 851.54,-140.78 947.49,-132.47"/>
<polygon fill="midnightblue" stroke="midnightblue" points="535.14,-167.38 525.55,-171.88 535.85,-174.34 535.14,-167.38"/>
</g>
<!-- Node26&#45;&gt;Node18 -->
<g id="edge29" class="edge">
<title>Node26&#45;&gt;Node18</title>
<path fill="none" stroke="midnightblue" d="M450,-161.38C450,-152.37 450,-142.04 450,-134.78"/>
<polygon fill="midnightblue" stroke="midnightblue" points="446.5,-161.42 450,-171.42 453.5,-161.42 446.5,-161.42"/>
</g>
<!-- Node29&#45;&gt;Node10 -->
<g id="edge36" class="edge">
<title>Node29&#45;&gt;Node10</title>
<path fill="none" stroke="midnightblue" d="M308.44,-162.78C320.61,-146.99 340.69,-124.77 364,-114 542.77,-31.37 1137.07,-15.33 1377.12,-12.23"/>
<polygon fill="midnightblue" stroke="midnightblue" points="305.35,-161.07 302.22,-171.19 310.98,-165.23 305.35,-161.07"/>
</g>
<!-- Node29&#45;&gt;Node18 -->
<g id="edge35" class="edge">
<title>Node29&#45;&gt;Node18</title>
<path fill="none" stroke="midnightblue" d="M331.03,-167.99C359.6,-157.79 399.27,-143.62 424.79,-134.5"/>
<polygon fill="midnightblue" stroke="midnightblue" points="329.67,-164.76 321.43,-171.42 332.02,-171.35 329.67,-164.76"/>
</g>
<!-- Node29&#45;&gt;Node21 -->
<g id="edge37" class="edge">
<title>Node29&#45;&gt;Node21</title>
<path fill="none" stroke="midnightblue" d="M366.43,-170.82C475.83,-156.48 591.14,-142.2 661.73,-133.56"/>
<polygon fill="midnightblue" stroke="midnightblue" points="365.66,-167.39 356.2,-172.17 366.58,-174.33 365.66,-167.39"/>
</g>
<!-- Node32&#45;&gt;Node31 -->
<g id="edge41" class="edge">
<title>Node32&#45;&gt;Node31</title>
<path fill="none" stroke="midnightblue" d="M1374.59,-278.01C1383.63,-268.45 1394.69,-256.76 1402.23,-248.78"/>
<polygon fill="midnightblue" stroke="midnightblue" points="1371.91,-275.75 1367.59,-285.42 1377,-280.56 1371.91,-275.75"/>
</g>
</g>
</svg>
        <g id="navigator" transform="translate(0 0)" fill="#404254">
                <rect fill="#f2f5e9" fill-opacity="0.5" stroke="#606060" stroke-width=".5" x="0" y="0" width="60" height="60"/>
                <use id="zoomplus" xlink:href="#zoomPlus" x="17" y="9" onmousedown="handleZoom(evt,'in')"/>
                <use id="zoomminus" xlink:href="#zoomMin" x="42" y="9" onmousedown="handleZoom(evt,'out')"/>
                <use id="reset" xlink:href="#resetDef" x="30" y="36" onmousedown="handleReset()"/>
                <g id="arrowUp" xlink:href="#dirArrow" transform="translate(30 24)" onmousedown="handlePan(0,-1)">
                  <use xlink:href="#rim" fill="#404040">
                        <set attributeName="fill" to="#808080" begin="arrowUp.mouseover" end="arrowUp.mouseout"/>
                  </use>
                  <path fill="none" stroke="white" stroke-width="1.5" d="M0,-3.0v7 M-2.5,-0.5L0,-3.0L2.5,-0.5"/>
                </g>
                <g id="arrowRight" xlink:href="#dirArrow" transform="rotate(90) translate(36 -43)" onmousedown="handlePan(1,0)">
                  <use xlink:href="#rim" fill="#404040">
                        <set attributeName="fill" to="#808080" begin="arrowRight.mouseover" end="arrowRight.mouseout"/>
                  </use>
                  <path fill="none" stroke="white" stroke-width="1.5" d="M0,-3.0v7 M-2.5,-0.5L0,-3.0L2.5,-0.5"/>
                </g>
                <g id="arrowDown" xlink:href="#dirArrow" transform="rotate(180) translate(-30 -48)" onmousedown="handlePan(0,1)">
                  <use xlink:href="#rim" fill="#404040">
                        <set attributeName="fill" to="#808080" begin="arrowDown.mouseover" end="arrowDown.mouseout"/>
                  </use>
                  <path fill="none" stroke="white" stroke-width="1.5" d="M0,-3.0v7 M-2.5,-0.5L0,-3.0L2.5,-0.5"/>
                </g>
                <g id="arrowLeft" xlink:href="#dirArrow" transform="rotate(270) translate(-36 17)" onmousedown="handlePan(-1,0)">
                  <use xlink:href="#rim" fill="#404040">
                        <set attributeName="fill" to="#808080" begin="arrowLeft.mouseover" end="arrowLeft.mouseout"/>
                  </use>
                  <path fill="none" stroke="white" stroke-width="1.5" d="M0,-3.0v7 M-2.5,-0.5L0,-3.0L2.5,-0.5"/>
                </g>
        </g>
        <svg viewBox="0 0 15 15" width="100%" height="30px" preserveAspectRatio="xMaxYMin meet">
         <g id="arrow_out" transform="scale(0.3 0.3)">
          <a xlink:href="_string_list_8h__dep__incl_org.svg" target="_base">
           <rect id="button" ry="5" rx="5" y="6" x="6" height="38" width="38"
                fill="#f2f5e9" fill-opacity="0.5" stroke="#606060" stroke-width="1.0"/>
           <path id="arrow"
             d="M 11.500037,31.436501 C 11.940474,20.09759 22.043105,11.32322 32.158766,21.979434 L 37.068811,17.246167 C 37.068811,17.246167 37.088388,32 37.088388,32 L 22.160133,31.978069 C 22.160133,31.978069 26.997745,27.140456 26.997745,27.140456 C 18.528582,18.264221 13.291696,25.230495 11.500037,31.436501 z"
             style="fill:#404040;"/>
          </a>
         </g>
        </svg>
</svg>
