<?xml version="1.0" encoding="UTF-8" standalone="no"?>
<!DOCTYPE svg PUBLIC "-//W3C//DTD SVG 1.1//EN"
 "http://www.w3.org/Graphics/SVG/1.1/DTD/svg11.dtd">
<!-- Generated by graphviz version 2.47.1 (20210417.1919)
 -->
<!-- Title: StringSet.cpp Pages: 1 -->
<svg width="440pt" height="428pt"
 viewBox="0.00 0.00 440.00 428.00" xmlns="http://www.w3.org/2000/svg" xmlns:xlink="http://www.w3.org/1999/xlink">
<g id="graph0" class="graph" transform="scale(1 1) rotate(0) translate(4 424)">
<title>StringSet.cpp</title>
<polygon fill="white" stroke="transparent" points="-4,4 -4,-424 436,-424 436,4 -4,4"/>
<!-- Node1 -->
<g id="node1" class="node">
<title>Node1</title>
<g id="a_node1"><a xlink:title="The StringSet body implements sets of string values with no duplicates and only simple containment ac...">
<polygon fill="#bfbfbf" stroke="black" points="211.5,-399.5 211.5,-419.5 294.5,-419.5 294.5,-399.5 211.5,-399.5"/>
<text text-anchor="middle" x="253" y="-406.7" font-family="Helvetica,sans-Serif" font-size="11.00">StringSet.cpp</text>
</a>
</g>
</g>
<!-- Node2 -->
<g id="node2" class="node">
<title>Node2</title>
<g id="a_node2"><a xlink:href="_string_set_8h.html" target="_top" xlink:title="The StringSet specification defines sets of string values with no duplicates and only simple containm...">
<polygon fill="white" stroke="black" points="106.5,-342.5 106.5,-362.5 177.5,-362.5 177.5,-342.5 106.5,-342.5"/>
<text text-anchor="middle" x="142" y="-349.7" font-family="Helvetica,sans-Serif" font-size="11.00">StringSet.h</text>
</a>
</g>
</g>
<!-- Node1&#45;&gt;Node2 -->
<g id="edge1" class="edge">
<title>Node1&#45;&gt;Node2</title>
<path fill="none" stroke="midnightblue" d="M234.67,-399.42C216.92,-390.62 189.77,-377.17 169.44,-367.1"/>
<polygon fill="midnightblue" stroke="midnightblue" points="170.87,-363.9 160.36,-362.6 167.76,-370.17 170.87,-363.9"/>
</g>
<!-- Node7 -->
<g id="node7" class="node">
<title>Node7</title>
<g id="a_node7"><a xlink:title=" ">
<polygon fill="white" stroke="#bfbfbf" points="288.5,-0.5 288.5,-20.5 341.5,-20.5 341.5,-0.5 288.5,-0.5"/>
<text text-anchor="middle" x="315" y="-7.7" font-family="Helvetica,sans-Serif" font-size="11.00">cassert</text>
</a>
</g>
</g>
<!-- Node1&#45;&gt;Node7 -->
<g id="edge6" class="edge">
<title>Node1&#45;&gt;Node7</title>
<path fill="none" stroke="midnightblue" d="M294.52,-401.43C347.39,-389.76 432,-361.02 432,-296.5 432,-296.5 432,-296.5 432,-123.5 432,-75.95 380.95,-42.35 346.29,-25.02"/>
<polygon fill="midnightblue" stroke="midnightblue" points="347.54,-21.73 337.01,-20.56 344.51,-28.04 347.54,-21.73"/>
</g>
<!-- Node8 -->
<g id="node8" class="node">
<title>Node8</title>
<g id="a_node8"><a xlink:href="_string_util_8h.html" target="_top" xlink:title="The StringUtil specification defines several string routines not included in the standard C++ library...">
<polygon fill="white" stroke="black" points="218.5,-342.5 218.5,-362.5 287.5,-362.5 287.5,-342.5 218.5,-342.5"/>
<text text-anchor="middle" x="253" y="-349.7" font-family="Helvetica,sans-Serif" font-size="11.00">StringUtil.h</text>
</a>
</g>
</g>
<!-- Node1&#45;&gt;Node8 -->
<g id="edge7" class="edge">
<title>Node1&#45;&gt;Node8</title>
<path fill="none" stroke="midnightblue" d="M253,-399.42C253,-392.22 253,-381.9 253,-372.86"/>
<polygon fill="midnightblue" stroke="midnightblue" points="256.5,-372.78 253,-362.78 249.5,-372.78 256.5,-372.78"/>
</g>
<!-- Node3 -->
<g id="node3" class="node">
<title>Node3</title>
<g id="a_node3"><a xlink:title=" ">
<polygon fill="white" stroke="#bfbfbf" points="8,-285.5 8,-305.5 88,-305.5 88,-285.5 8,-285.5"/>
<text text-anchor="middle" x="48" y="-292.7" font-family="Helvetica,sans-Serif" font-size="11.00">GenericSet.h</text>
</a>
</g>
</g>
<!-- Node2&#45;&gt;Node3 -->
<g id="edge2" class="edge">
<title>Node2&#45;&gt;Node3</title>
<path fill="none" stroke="midnightblue" d="M126.48,-342.42C111.78,-333.82 89.49,-320.78 72.41,-310.78"/>
<polygon fill="midnightblue" stroke="midnightblue" points="73.94,-307.62 63.55,-305.6 70.41,-313.67 73.94,-307.62"/>
</g>
<!-- Node4 -->
<g id="node4" class="node">
<title>Node4</title>
<g id="a_node4"><a xlink:href="_string_list_8h.html" target="_top" xlink:title="The StringList specification defines lists of string values with zero&#45;based arbitrary indexed access ...">
<polygon fill="white" stroke="black" points="106.5,-285.5 106.5,-305.5 177.5,-305.5 177.5,-285.5 106.5,-285.5"/>
<text text-anchor="middle" x="142" y="-292.7" font-family="Helvetica,sans-Serif" font-size="11.00">StringList.h</text>
</a>
</g>
</g>
<!-- Node2&#45;&gt;Node4 -->
<g id="edge3" class="edge">
<title>Node2&#45;&gt;Node4</title>
<path fill="none" stroke="midnightblue" d="M142,-342.42C142,-335.22 142,-324.9 142,-315.86"/>
<polygon fill="midnightblue" stroke="midnightblue" points="145.5,-315.78 142,-305.78 138.5,-315.78 145.5,-315.78"/>
</g>
<!-- Node5 -->
<g id="node5" class="node">
<title>Node5</title>
<g id="a_node5"><a xlink:title=" ">
<polygon fill="white" stroke="#bfbfbf" points="2,-228.5 2,-248.5 80,-248.5 80,-228.5 2,-228.5"/>
<text text-anchor="middle" x="41" y="-235.7" font-family="Helvetica,sans-Serif" font-size="11.00">initializer_list</text>
</a>
</g>
</g>
<!-- Node4&#45;&gt;Node5 -->
<g id="edge4" class="edge">
<title>Node4&#45;&gt;Node5</title>
<path fill="none" stroke="midnightblue" d="M125.32,-285.42C109.39,-276.74 85.13,-263.53 66.72,-253.51"/>
<polygon fill="midnightblue" stroke="midnightblue" points="68.16,-250.3 57.7,-248.6 64.81,-256.45 68.16,-250.3"/>
</g>
<!-- Node6 -->
<g id="node6" class="node">
<title>Node6</title>
<g id="a_node6"><a xlink:title=" ">
<polygon fill="white" stroke="#bfbfbf" points="98.5,-228.5 98.5,-248.5 179.5,-248.5 179.5,-228.5 98.5,-228.5"/>
<text text-anchor="middle" x="139" y="-235.7" font-family="Helvetica,sans-Serif" font-size="11.00">GenericList.h</text>
</a>
</g>
</g>
<!-- Node4&#45;&gt;Node6 -->
<g id="edge5" class="edge">
<title>Node4&#45;&gt;Node6</title>
<path fill="none" stroke="midnightblue" d="M141.5,-285.42C141.11,-278.22 140.55,-267.9 140.06,-258.86"/>
<polygon fill="midnightblue" stroke="midnightblue" points="143.55,-258.57 139.51,-248.78 136.56,-258.96 143.55,-258.57"/>
</g>
<!-- Node8&#45;&gt;Node4 -->
<g id="edge29" class="edge">
<title>Node8&#45;&gt;Node4</title>
<path fill="none" stroke="midnightblue" d="M234.67,-342.42C216.92,-333.62 189.77,-320.17 169.44,-310.1"/>
<polygon fill="midnightblue" stroke="midnightblue" points="170.87,-306.9 160.36,-305.6 167.76,-313.17 170.87,-306.9"/>
</g>
<!-- Node9 -->
<g id="node9" class="node">
<title>Node9</title>
<g id="a_node9"><a xlink:href="_boolean_8h.html" target="_top" xlink:title="The Boolean specification and body provides a value object type for boolean values.">
<polygon fill="white" stroke="black" points="79.5,-171.5 79.5,-191.5 144.5,-191.5 144.5,-171.5 79.5,-171.5"/>
<text text-anchor="middle" x="112" y="-178.7" font-family="Helvetica,sans-Serif" font-size="11.00">Boolean.h</text>
</a>
</g>
</g>
<!-- Node8&#45;&gt;Node9 -->
<g id="edge8" class="edge">
<title>Node8&#45;&gt;Node9</title>
<path fill="none" stroke="midnightblue" d="M247.47,-342.17C242.1,-333.04 233.78,-318.67 227,-306 208.71,-271.83 214.35,-256.43 188,-228 175.57,-214.58 158.28,-203.81 143.33,-196.12"/>
<polygon fill="midnightblue" stroke="midnightblue" points="144.45,-192.77 133.92,-191.52 141.37,-199.06 144.45,-192.77"/>
</g>
<!-- Node13 -->
<g id="node13" class="node">
<title>Node13</title>
<g id="a_node13"><a xlink:href="_character_8h.html" target="_top" xlink:title="The Character specification and body provides a value object type for character values.">
<polygon fill="white" stroke="black" points="317,-228.5 317,-248.5 391,-248.5 391,-228.5 317,-228.5"/>
<text text-anchor="middle" x="354" y="-235.7" font-family="Helvetica,sans-Serif" font-size="11.00">Character.h</text>
</a>
</g>
</g>
<!-- Node8&#45;&gt;Node13 -->
<g id="edge12" class="edge">
<title>Node8&#45;&gt;Node13</title>
<path fill="none" stroke="midnightblue" d="M275.38,-342.35C291.61,-334.73 313.06,-322.46 327,-306 338.68,-292.21 345.79,-272.7 349.76,-258.38"/>
<polygon fill="midnightblue" stroke="midnightblue" points="353.17,-259.17 352.21,-248.62 346.38,-257.47 353.17,-259.17"/>
</g>
<!-- Node19 -->
<g id="node19" class="node">
<title>Node19</title>
<g id="a_node19"><a xlink:href="_percentage_8h.html" target="_top" xlink:title="The Percentage specification and body provides a simple percentage type.">
<polygon fill="white" stroke="black" points="236,-285.5 236,-305.5 318,-305.5 318,-285.5 236,-285.5"/>
<text text-anchor="middle" x="277" y="-292.7" font-family="Helvetica,sans-Serif" font-size="11.00">Percentage.h</text>
</a>
</g>
</g>
<!-- Node8&#45;&gt;Node19 -->
<g id="edge22" class="edge">
<title>Node8&#45;&gt;Node19</title>
<path fill="none" stroke="midnightblue" d="M256.96,-342.42C260.21,-334.98 264.91,-324.21 268.94,-314.97"/>
<polygon fill="midnightblue" stroke="midnightblue" points="272.16,-316.34 272.95,-305.78 265.74,-313.55 272.16,-316.34"/>
</g>
<!-- Node10 -->
<g id="node10" class="node">
<title>Node10</title>
<g id="a_node10"><a xlink:href="_my_string_8h.html" target="_top" xlink:title="The String specification defines a standard string type.">
<polygon fill="white" stroke="black" points="31,-57.5 31,-77.5 99,-77.5 99,-57.5 31,-57.5"/>
<text text-anchor="middle" x="65" y="-64.7" font-family="Helvetica,sans-Serif" font-size="11.00">MyString.h</text>
</a>
</g>
</g>
<!-- Node9&#45;&gt;Node10 -->
<g id="edge9" class="edge">
<title>Node9&#45;&gt;Node10</title>
<path fill="none" stroke="midnightblue" d="M108.15,-171.33C100.44,-152.96 82.96,-111.29 72.77,-87.01"/>
<polygon fill="midnightblue" stroke="midnightblue" points="76,-85.66 68.9,-77.79 69.54,-88.37 76,-85.66"/>
</g>
<!-- Node11 -->
<g id="node11" class="node">
<title>Node11</title>
<g id="a_node11"><a xlink:title=" ">
<polygon fill="white" stroke="#bfbfbf" points="0,-0.5 0,-20.5 44,-20.5 44,-0.5 0,-0.5"/>
<text text-anchor="middle" x="22" y="-7.7" font-family="Helvetica,sans-Serif" font-size="11.00">string</text>
</a>
</g>
</g>
<!-- Node10&#45;&gt;Node11 -->
<g id="edge10" class="edge">
<title>Node10&#45;&gt;Node11</title>
<path fill="none" stroke="midnightblue" d="M57.9,-57.42C51.84,-49.66 42.94,-38.29 35.53,-28.8"/>
<polygon fill="midnightblue" stroke="midnightblue" points="38.17,-26.5 29.25,-20.78 32.66,-30.81 38.17,-26.5"/>
</g>
<!-- Node12 -->
<g id="node12" class="node">
<title>Node12</title>
<g id="a_node12"><a xlink:href="_global_macros_8h.html" target="_top" xlink:title="The GlobalMacros specification defines simple macros (e.g. for parameter modes).">
<polygon fill="white" stroke="black" points="62,-0.5 62,-20.5 154,-20.5 154,-0.5 62,-0.5"/>
<text text-anchor="middle" x="108" y="-7.7" font-family="Helvetica,sans-Serif" font-size="11.00">GlobalMacros.h</text>
</a>
</g>
</g>
<!-- Node10&#45;&gt;Node12 -->
<g id="edge11" class="edge">
<title>Node10&#45;&gt;Node12</title>
<path fill="none" stroke="midnightblue" d="M72.1,-57.42C78.16,-49.66 87.06,-38.29 94.47,-28.8"/>
<polygon fill="midnightblue" stroke="midnightblue" points="97.34,-30.81 100.75,-20.78 91.83,-26.5 97.34,-30.81"/>
</g>
<!-- Node14 -->
<g id="node14" class="node">
<title>Node14</title>
<g id="a_node14"><a xlink:title=" ">
<polygon fill="white" stroke="#bfbfbf" points="327.5,-57.5 327.5,-77.5 374.5,-77.5 374.5,-57.5 327.5,-57.5"/>
<text text-anchor="middle" x="351" y="-64.7" font-family="Helvetica,sans-Serif" font-size="11.00">cmath</text>
</a>
</g>
</g>
<!-- Node13&#45;&gt;Node14 -->
<g id="edge13" class="edge">
<title>Node13&#45;&gt;Node14</title>
<path fill="none" stroke="midnightblue" d="M359.32,-228.47C364.24,-219.55 371.2,-205.34 374,-192 381.81,-154.82 368.34,-111.04 358.93,-86.87"/>
<polygon fill="midnightblue" stroke="midnightblue" points="362.13,-85.45 355.11,-77.52 355.65,-88.1 362.13,-85.45"/>
</g>
<!-- Node15 -->
<g id="node15" class="node">
<title>Node15</title>
<g id="a_node15"><a xlink:href="_byte_8h.html" target="_top" xlink:title="The Byte specification and body provides a value object type for byte values.">
<polygon fill="white" stroke="black" points="318.5,-171.5 318.5,-191.5 365.5,-191.5 365.5,-171.5 318.5,-171.5"/>
<text text-anchor="middle" x="342" y="-178.7" font-family="Helvetica,sans-Serif" font-size="11.00">Byte.h</text>
</a>
</g>
</g>
<!-- Node13&#45;&gt;Node15 -->
<g id="edge14" class="edge">
<title>Node13&#45;&gt;Node15</title>
<path fill="none" stroke="midnightblue" d="M352.02,-228.42C350.43,-221.14 348.15,-210.67 346.16,-201.57"/>
<polygon fill="midnightblue" stroke="midnightblue" points="349.58,-200.8 344.02,-191.78 342.74,-202.3 349.58,-200.8"/>
</g>
<!-- Node15&#45;&gt;Node14 -->
<g id="edge15" class="edge">
<title>Node15&#45;&gt;Node14</title>
<path fill="none" stroke="midnightblue" d="M342.74,-171.33C344.19,-153.2 347.47,-112.41 349.43,-88"/>
<polygon fill="midnightblue" stroke="midnightblue" points="352.94,-88.04 350.25,-77.79 345.96,-87.48 352.94,-88.04"/>
</g>
<!-- Node16 -->
<g id="node16" class="node">
<title>Node16</title>
<g id="a_node16"><a xlink:href="_natural_8h.html" target="_top" xlink:title="The Natural specification and body provides a value object type for naturals (positive integers with ...">
<polygon fill="white" stroke="black" points="184,-114.5 184,-134.5 244,-134.5 244,-114.5 184,-114.5"/>
<text text-anchor="middle" x="214" y="-121.7" font-family="Helvetica,sans-Serif" font-size="11.00">Natural.h</text>
</a>
</g>
</g>
<!-- Node15&#45;&gt;Node16 -->
<g id="edge16" class="edge">
<title>Node15&#45;&gt;Node16</title>
<path fill="none" stroke="midnightblue" d="M320.86,-171.42C300.02,-162.46 267.95,-148.68 244.38,-138.55"/>
<polygon fill="midnightblue" stroke="midnightblue" points="245.74,-135.33 235.17,-134.6 242.97,-141.76 245.74,-135.33"/>
</g>
<!-- Node16&#45;&gt;Node10 -->
<g id="edge21" class="edge">
<title>Node16&#45;&gt;Node10</title>
<path fill="none" stroke="midnightblue" d="M189.4,-114.42C164.81,-105.34 126.8,-91.31 99.27,-81.15"/>
<polygon fill="midnightblue" stroke="midnightblue" points="100.23,-77.78 89.64,-77.6 97.81,-84.34 100.23,-77.78"/>
</g>
<!-- Node16&#45;&gt;Node14 -->
<g id="edge17" class="edge">
<title>Node16&#45;&gt;Node14</title>
<path fill="none" stroke="midnightblue" d="M236.62,-114.42C259.03,-105.42 293.56,-91.56 318.82,-81.42"/>
<polygon fill="midnightblue" stroke="midnightblue" points="320.37,-84.57 328.34,-77.6 317.76,-78.07 320.37,-84.57"/>
</g>
<!-- Node17 -->
<g id="node17" class="node">
<title>Node17</title>
<g id="a_node17"><a xlink:href="_assertion_8h.html" target="_top" xlink:title="The Assertion specification defines macros for pre&#45; and postconditions in functions or methods.">
<polygon fill="white" stroke="black" points="117.5,-57.5 117.5,-77.5 188.5,-77.5 188.5,-57.5 117.5,-57.5"/>
<text text-anchor="middle" x="153" y="-64.7" font-family="Helvetica,sans-Serif" font-size="11.00">Assertion.h</text>
</a>
</g>
</g>
<!-- Node16&#45;&gt;Node17 -->
<g id="edge18" class="edge">
<title>Node16&#45;&gt;Node17</title>
<path fill="none" stroke="midnightblue" d="M203.93,-114.42C194.97,-106.35 181.68,-94.36 170.91,-84.65"/>
<polygon fill="midnightblue" stroke="midnightblue" points="173.06,-81.88 163.29,-77.78 168.37,-87.08 173.06,-81.88"/>
</g>
<!-- Node18 -->
<g id="node18" class="node">
<title>Node18</title>
<g id="a_node18"><a xlink:title=" ">
<polygon fill="white" stroke="#bfbfbf" points="206.5,-57.5 206.5,-77.5 309.5,-77.5 309.5,-57.5 206.5,-57.5"/>
<text text-anchor="middle" x="258" y="-64.7" font-family="Helvetica,sans-Serif" font-size="11.00">GenericNumber.h</text>
</a>
</g>
</g>
<!-- Node16&#45;&gt;Node18 -->
<g id="edge20" class="edge">
<title>Node16&#45;&gt;Node18</title>
<path fill="none" stroke="midnightblue" d="M221.27,-114.42C227.47,-106.66 236.57,-95.29 244.16,-85.8"/>
<polygon fill="midnightblue" stroke="midnightblue" points="247.06,-87.77 250.58,-77.78 241.6,-83.4 247.06,-87.77"/>
</g>
<!-- Node17&#45;&gt;Node7 -->
<g id="edge19" class="edge">
<title>Node17&#45;&gt;Node7</title>
<path fill="none" stroke="midnightblue" d="M179.75,-57.42C206.8,-48.23 248.78,-33.98 278.8,-23.79"/>
<polygon fill="midnightblue" stroke="midnightblue" points="280.13,-27.03 288.48,-20.5 277.88,-20.4 280.13,-27.03"/>
</g>
<!-- Node20 -->
<g id="node20" class="node">
<title>Node20</title>
<g id="a_node20"><a xlink:href="_real_8h.html" target="_top" xlink:title="The Real specification defines a value object type for real values.">
<polygon fill="white" stroke="black" points="251,-228.5 251,-248.5 299,-248.5 299,-228.5 251,-228.5"/>
<text text-anchor="middle" x="275" y="-235.7" font-family="Helvetica,sans-Serif" font-size="11.00">Real.h</text>
</a>
</g>
</g>
<!-- Node19&#45;&gt;Node20 -->
<g id="edge23" class="edge">
<title>Node19&#45;&gt;Node20</title>
<path fill="none" stroke="midnightblue" d="M276.67,-285.42C276.41,-278.22 276.03,-267.9 275.7,-258.86"/>
<polygon fill="midnightblue" stroke="midnightblue" points="279.2,-258.65 275.34,-248.78 272.2,-258.9 279.2,-258.65"/>
</g>
<!-- Node20&#45;&gt;Node14 -->
<g id="edge24" class="edge">
<title>Node20&#45;&gt;Node14</title>
<path fill="none" stroke="midnightblue" d="M279.09,-228.41C291.1,-201.71 326.46,-123.07 342.69,-86.98"/>
<polygon fill="midnightblue" stroke="midnightblue" points="345.98,-88.19 346.89,-77.63 339.6,-85.32 345.98,-88.19"/>
</g>
<!-- Node21 -->
<g id="node21" class="node">
<title>Node21</title>
<g id="a_node21"><a xlink:href="_integer_8h.html" target="_top" xlink:title="The Integer specification and body provides a value object type for ints.">
<polygon fill="white" stroke="black" points="197.5,-171.5 197.5,-191.5 256.5,-191.5 256.5,-171.5 197.5,-171.5"/>
<text text-anchor="middle" x="227" y="-178.7" font-family="Helvetica,sans-Serif" font-size="11.00">Integer.h</text>
</a>
</g>
</g>
<!-- Node20&#45;&gt;Node21 -->
<g id="edge25" class="edge">
<title>Node20&#45;&gt;Node21</title>
<path fill="none" stroke="midnightblue" d="M267.07,-228.42C260.24,-220.58 250.18,-209.06 241.85,-199.51"/>
<polygon fill="midnightblue" stroke="midnightblue" points="244.31,-197.01 235.1,-191.78 239.04,-201.62 244.31,-197.01"/>
</g>
<!-- Node21&#45;&gt;Node14 -->
<g id="edge26" class="edge">
<title>Node21&#45;&gt;Node14</title>
<path fill="none" stroke="midnightblue" d="M236.16,-171.24C249.18,-158.17 273.91,-133.73 296,-114 307.52,-103.71 320.87,-92.65 331.52,-84.01"/>
<polygon fill="midnightblue" stroke="midnightblue" points="333.82,-86.66 339.41,-77.66 329.43,-81.21 333.82,-86.66"/>
</g>
<!-- Node21&#45;&gt;Node16 -->
<g id="edge28" class="edge">
<title>Node21&#45;&gt;Node16</title>
<path fill="none" stroke="midnightblue" d="M224.85,-171.42C223.13,-164.14 220.66,-153.67 218.51,-144.57"/>
<polygon fill="midnightblue" stroke="midnightblue" points="221.9,-143.71 216.19,-134.78 215.09,-145.32 221.9,-143.71"/>
</g>
<!-- Node22 -->
<g id="node22" class="node">
<title>Node22</title>
<g id="a_node22"><a xlink:title=" ">
<polygon fill="white" stroke="#bfbfbf" points="102,-114.5 102,-134.5 166,-134.5 166,-114.5 102,-114.5"/>
<text text-anchor="middle" x="134" y="-121.7" font-family="Helvetica,sans-Serif" font-size="11.00">stdexcept</text>
</a>
</g>
</g>
<!-- Node21&#45;&gt;Node22 -->
<g id="edge27" class="edge">
<title>Node21&#45;&gt;Node22</title>
<path fill="none" stroke="midnightblue" d="M211.64,-171.42C197.1,-162.82 175.05,-149.78 158.15,-139.78"/>
<polygon fill="midnightblue" stroke="midnightblue" points="159.77,-136.67 149.38,-134.6 156.21,-142.7 159.77,-136.67"/>
</g>
</g>
</svg>
