<?xml version="1.0" encoding="UTF-8" standalone="no"?>
<!DOCTYPE svg PUBLIC "-//W3C//DTD SVG 1.1//EN"
 "http://www.w3.org/Graphics/SVG/1.1/DTD/svg11.dtd">
<!-- Generated by graphviz version 2.47.1 (20210417.1919)
 -->
<!-- Title: WaveFile.h Pages: 1 -->
<svg width="535pt" height="485pt"
 viewBox="0.00 0.00 534.50 485.00" xmlns="http://www.w3.org/2000/svg" xmlns:xlink="http://www.w3.org/1999/xlink">
<g id="graph0" class="graph" transform="scale(1 1) rotate(0) translate(4 481)">
<title>WaveFile.h</title>
<polygon fill="white" stroke="transparent" points="-4,4 -4,-481 530.5,-481 530.5,4 -4,4"/>
<!-- Node1 -->
<g id="node1" class="node">
<title>Node1</title>
<g id="a_node1"><a xlink:title="The WaveFile specification defines an object for accessing a RIFF wave file with several channels.">
<polygon fill="#bfbfbf" stroke="black" points="374,-456.5 374,-476.5 445,-476.5 445,-456.5 374,-456.5"/>
<text text-anchor="middle" x="409.5" y="-463.7" font-family="Helvetica,sans-Serif" font-size="11.00">WaveFile.h</text>
</a>
</g>
</g>
<!-- Node2 -->
<g id="node2" class="node">
<title>Node2</title>
<g id="a_node2"><a xlink:href="_audio_sample_list_vector_8h.html" target="_top" xlink:title="The AudioSampleListVector specification defines the communication buffer structure for the block proc...">
<polygon fill="white" stroke="black" points="227,-399.5 227,-419.5 366,-419.5 366,-399.5 227,-399.5"/>
<text text-anchor="middle" x="296.5" y="-406.7" font-family="Helvetica,sans-Serif" font-size="11.00">AudioSampleListVector.h</text>
</a>
</g>
</g>
<!-- Node1&#45;&gt;Node2 -->
<g id="edge1" class="edge">
<title>Node1&#45;&gt;Node2</title>
<path fill="none" stroke="midnightblue" d="M390.84,-456.42C372.77,-447.62 345.13,-434.17 324.43,-424.1"/>
<polygon fill="midnightblue" stroke="midnightblue" points="325.71,-420.83 315.19,-419.6 322.65,-427.12 325.71,-420.83"/>
</g>
<!-- Node10 -->
<g id="node10" class="node">
<title>Node10</title>
<g id="a_node10"><a xlink:href="_natural_8h.html" target="_top" xlink:title="The Natural specification and body provides a value object type for naturals (positive integers with ...">
<polygon fill="white" stroke="black" points="280.5,-114.5 280.5,-134.5 340.5,-134.5 340.5,-114.5 280.5,-114.5"/>
<text text-anchor="middle" x="310.5" y="-121.7" font-family="Helvetica,sans-Serif" font-size="11.00">Natural.h</text>
</a>
</g>
</g>
<!-- Node1&#45;&gt;Node10 -->
<g id="edge23" class="edge">
<title>Node1&#45;&gt;Node10</title>
<path fill="none" stroke="midnightblue" d="M409.5,-456.5C409.5,-437.48 409.5,-391.81 409.5,-353.5 409.5,-353.5 409.5,-353.5 409.5,-237.5 409.5,-193.28 365.65,-158.31 336.32,-139.87"/>
<polygon fill="midnightblue" stroke="midnightblue" points="338.11,-136.86 327.74,-134.68 334.49,-142.85 338.11,-136.86"/>
</g>
<!-- Node21 -->
<g id="node21" class="node">
<title>Node21</title>
<g id="a_node21"><a xlink:href="_object_8h.html" target="_top" xlink:title="The Object specification and body provides the root object type.">
<polygon fill="white" stroke="black" points="437.5,-399.5 437.5,-419.5 495.5,-419.5 495.5,-399.5 437.5,-399.5"/>
<text text-anchor="middle" x="466.5" y="-406.7" font-family="Helvetica,sans-Serif" font-size="11.00">Object.h</text>
</a>
</g>
</g>
<!-- Node1&#45;&gt;Node21 -->
<g id="edge24" class="edge">
<title>Node1&#45;&gt;Node21</title>
<path fill="none" stroke="midnightblue" d="M418.91,-456.42C427.2,-448.42 439.46,-436.59 449.46,-426.94"/>
<polygon fill="midnightblue" stroke="midnightblue" points="452.12,-429.24 456.88,-419.78 447.26,-424.2 452.12,-429.24"/>
</g>
<!-- Node3 -->
<g id="node3" class="node">
<title>Node3</title>
<g id="a_node3"><a xlink:href="_audio_sample_list_8h.html" target="_top" xlink:title="The AudioSampleList specification defines lists of audio samples with zero&#45;based arbitrary indexed ac...">
<polygon fill="white" stroke="black" points="87,-342.5 87,-362.5 194,-362.5 194,-342.5 87,-342.5"/>
<text text-anchor="middle" x="140.5" y="-349.7" font-family="Helvetica,sans-Serif" font-size="11.00">AudioSampleList.h</text>
</a>
</g>
</g>
<!-- Node2&#45;&gt;Node3 -->
<g id="edge2" class="edge">
<title>Node2&#45;&gt;Node3</title>
<path fill="none" stroke="midnightblue" d="M270.74,-399.42C244.81,-390.27 204.61,-376.1 175.74,-365.92"/>
<polygon fill="midnightblue" stroke="midnightblue" points="176.63,-362.53 166.04,-362.5 174.31,-369.13 176.63,-362.53"/>
</g>
<!-- Node20 -->
<g id="node20" class="node">
<title>Node20</title>
<g id="a_node20"><a xlink:href="_audio_sample_list_vector_8cpp-inc.html" target="_top" xlink:title="The AudioSampleListVector body implements the communication buffer structure for the block processing...">
<polygon fill="white" stroke="black" points="212,-342.5 212,-362.5 381,-362.5 381,-342.5 212,-342.5"/>
<text text-anchor="middle" x="296.5" y="-349.7" font-family="Helvetica,sans-Serif" font-size="11.00">AudioSampleListVector.cpp&#45;inc</text>
</a>
</g>
</g>
<!-- Node2&#45;&gt;Node20 -->
<g id="edge22" class="edge">
<title>Node2&#45;&gt;Node20</title>
<path fill="none" stroke="midnightblue" d="M296.5,-399.42C296.5,-392.22 296.5,-381.9 296.5,-372.86"/>
<polygon fill="midnightblue" stroke="midnightblue" points="300,-372.78 296.5,-362.78 293,-372.78 300,-372.78"/>
</g>
<!-- Node4 -->
<g id="node4" class="node">
<title>Node4</title>
<g id="a_node4"><a xlink:title=" ">
<polygon fill="white" stroke="#bfbfbf" points="0,-285.5 0,-305.5 81,-305.5 81,-285.5 0,-285.5"/>
<text text-anchor="middle" x="40.5" y="-292.7" font-family="Helvetica,sans-Serif" font-size="11.00">GenericList.h</text>
</a>
</g>
</g>
<!-- Node3&#45;&gt;Node4 -->
<g id="edge3" class="edge">
<title>Node3&#45;&gt;Node4</title>
<path fill="none" stroke="midnightblue" d="M123.99,-342.42C108.21,-333.74 84.2,-320.53 65.97,-310.51"/>
<polygon fill="midnightblue" stroke="midnightblue" points="67.49,-307.35 57.04,-305.6 64.11,-313.48 67.49,-307.35"/>
</g>
<!-- Node5 -->
<g id="node5" class="node">
<title>Node5</title>
<g id="a_node5"><a xlink:href="_audio_sample_8h.html" target="_top" xlink:title="The AudioSample specification and body provides the definition of the audio sample (a real value).">
<polygon fill="white" stroke="black" points="99.5,-285.5 99.5,-305.5 189.5,-305.5 189.5,-285.5 99.5,-285.5"/>
<text text-anchor="middle" x="144.5" y="-292.7" font-family="Helvetica,sans-Serif" font-size="11.00">AudioSample.h</text>
</a>
</g>
</g>
<!-- Node3&#45;&gt;Node5 -->
<g id="edge4" class="edge">
<title>Node3&#45;&gt;Node5</title>
<path fill="none" stroke="midnightblue" d="M141.16,-342.42C141.68,-335.22 142.43,-324.9 143.09,-315.86"/>
<polygon fill="midnightblue" stroke="midnightblue" points="146.59,-316.01 143.83,-305.78 139.61,-315.5 146.59,-316.01"/>
</g>
<!-- Node17 -->
<g id="node17" class="node">
<title>Node17</title>
<g id="a_node17"><a xlink:href="_audio_sample_list_8cpp-inc.html" target="_top" xlink:title="The AudioSampleList body implements a simple list of audio samples (this is the effective code includ...">
<polygon fill="white" stroke="black" points="216,-285.5 216,-305.5 353,-305.5 353,-285.5 216,-285.5"/>
<text text-anchor="middle" x="284.5" y="-292.7" font-family="Helvetica,sans-Serif" font-size="11.00">AudioSampleList.cpp&#45;inc</text>
</a>
</g>
</g>
<!-- Node3&#45;&gt;Node17 -->
<g id="edge18" class="edge">
<title>Node3&#45;&gt;Node17</title>
<path fill="none" stroke="midnightblue" d="M164.28,-342.42C187.94,-333.38 224.45,-319.44 251.03,-309.28"/>
<polygon fill="midnightblue" stroke="midnightblue" points="252.59,-312.43 260.69,-305.6 250.1,-305.89 252.59,-312.43"/>
</g>
<!-- Node6 -->
<g id="node6" class="node">
<title>Node6</title>
<g id="a_node6"><a xlink:href="_real_8h.html" target="_top" xlink:title="The Real specification defines a value object type for real values.">
<polygon fill="white" stroke="black" points="120.5,-228.5 120.5,-248.5 168.5,-248.5 168.5,-228.5 120.5,-228.5"/>
<text text-anchor="middle" x="144.5" y="-235.7" font-family="Helvetica,sans-Serif" font-size="11.00">Real.h</text>
</a>
</g>
</g>
<!-- Node5&#45;&gt;Node6 -->
<g id="edge5" class="edge">
<title>Node5&#45;&gt;Node6</title>
<path fill="none" stroke="midnightblue" d="M144.5,-285.42C144.5,-278.22 144.5,-267.9 144.5,-258.86"/>
<polygon fill="midnightblue" stroke="midnightblue" points="148,-258.78 144.5,-248.78 141,-258.78 148,-258.78"/>
</g>
<!-- Node7 -->
<g id="node7" class="node">
<title>Node7</title>
<g id="a_node7"><a xlink:title=" ">
<polygon fill="white" stroke="#bfbfbf" points="128,-57.5 128,-77.5 175,-77.5 175,-57.5 128,-57.5"/>
<text text-anchor="middle" x="151.5" y="-64.7" font-family="Helvetica,sans-Serif" font-size="11.00">cmath</text>
</a>
</g>
</g>
<!-- Node6&#45;&gt;Node7 -->
<g id="edge6" class="edge">
<title>Node6&#45;&gt;Node7</title>
<path fill="none" stroke="midnightblue" d="M144.88,-228.41C145.97,-201.94 149.18,-124.42 150.7,-87.92"/>
<polygon fill="midnightblue" stroke="midnightblue" points="154.2,-87.77 151.12,-77.63 147.21,-87.48 154.2,-87.77"/>
</g>
<!-- Node8 -->
<g id="node8" class="node">
<title>Node8</title>
<g id="a_node8"><a xlink:href="_integer_8h.html" target="_top" xlink:title="The Integer specification and body provides a value object type for ints.">
<polygon fill="white" stroke="black" points="187,-171.5 187,-191.5 246,-191.5 246,-171.5 187,-171.5"/>
<text text-anchor="middle" x="216.5" y="-178.7" font-family="Helvetica,sans-Serif" font-size="11.00">Integer.h</text>
</a>
</g>
</g>
<!-- Node6&#45;&gt;Node8 -->
<g id="edge7" class="edge">
<title>Node6&#45;&gt;Node8</title>
<path fill="none" stroke="midnightblue" d="M156.39,-228.42C167.16,-220.19 183.27,-207.88 196.1,-198.08"/>
<polygon fill="midnightblue" stroke="midnightblue" points="198.53,-200.63 204.35,-191.78 194.28,-195.07 198.53,-200.63"/>
</g>
<!-- Node8&#45;&gt;Node7 -->
<g id="edge8" class="edge">
<title>Node8&#45;&gt;Node7</title>
<path fill="none" stroke="midnightblue" d="M211.08,-171.46C205.59,-162.3 196.9,-147.7 189.5,-135 180.01,-118.7 169.37,-100.05 161.77,-86.65"/>
<polygon fill="midnightblue" stroke="midnightblue" points="164.59,-84.54 156.62,-77.56 158.5,-87.99 164.59,-84.54"/>
</g>
<!-- Node9 -->
<g id="node9" class="node">
<title>Node9</title>
<g id="a_node9"><a xlink:title=" ">
<polygon fill="white" stroke="#bfbfbf" points="198.5,-114.5 198.5,-134.5 262.5,-134.5 262.5,-114.5 198.5,-114.5"/>
<text text-anchor="middle" x="230.5" y="-121.7" font-family="Helvetica,sans-Serif" font-size="11.00">stdexcept</text>
</a>
</g>
</g>
<!-- Node8&#45;&gt;Node9 -->
<g id="edge9" class="edge">
<title>Node8&#45;&gt;Node9</title>
<path fill="none" stroke="midnightblue" d="M218.81,-171.42C220.67,-164.14 223.33,-153.67 225.65,-144.57"/>
<polygon fill="midnightblue" stroke="midnightblue" points="229.06,-145.33 228.14,-134.78 222.28,-143.61 229.06,-145.33"/>
</g>
<!-- Node8&#45;&gt;Node10 -->
<g id="edge10" class="edge">
<title>Node8&#45;&gt;Node10</title>
<path fill="none" stroke="midnightblue" d="M232.02,-171.42C246.72,-162.82 269.01,-149.78 286.09,-139.78"/>
<polygon fill="midnightblue" stroke="midnightblue" points="288.09,-142.67 294.95,-134.6 284.56,-136.62 288.09,-142.67"/>
</g>
<!-- Node10&#45;&gt;Node7 -->
<g id="edge11" class="edge">
<title>Node10&#45;&gt;Node7</title>
<path fill="none" stroke="midnightblue" d="M284.24,-114.42C256.98,-104.99 214.27,-90.21 184.68,-79.98"/>
<polygon fill="midnightblue" stroke="midnightblue" points="185.79,-76.66 175.2,-76.7 183.5,-83.27 185.79,-76.66"/>
</g>
<!-- Node11 -->
<g id="node11" class="node">
<title>Node11</title>
<g id="a_node11"><a xlink:href="_assertion_8h.html" target="_top" xlink:title="The Assertion specification defines macros for pre&#45; and postconditions in functions or methods.">
<polygon fill="white" stroke="black" points="193,-57.5 193,-77.5 264,-77.5 264,-57.5 193,-57.5"/>
<text text-anchor="middle" x="228.5" y="-64.7" font-family="Helvetica,sans-Serif" font-size="11.00">Assertion.h</text>
</a>
</g>
</g>
<!-- Node10&#45;&gt;Node11 -->
<g id="edge12" class="edge">
<title>Node10&#45;&gt;Node11</title>
<path fill="none" stroke="midnightblue" d="M296.96,-114.42C284.38,-105.98 265.41,-93.26 250.63,-83.34"/>
<polygon fill="midnightblue" stroke="midnightblue" points="252.32,-80.26 242.06,-77.6 248.42,-86.07 252.32,-80.26"/>
</g>
<!-- Node13 -->
<g id="node13" class="node">
<title>Node13</title>
<g id="a_node13"><a xlink:title=" ">
<polygon fill="white" stroke="#bfbfbf" points="282,-57.5 282,-77.5 385,-77.5 385,-57.5 282,-57.5"/>
<text text-anchor="middle" x="333.5" y="-64.7" font-family="Helvetica,sans-Serif" font-size="11.00">GenericNumber.h</text>
</a>
</g>
</g>
<!-- Node10&#45;&gt;Node13 -->
<g id="edge14" class="edge">
<title>Node10&#45;&gt;Node13</title>
<path fill="none" stroke="midnightblue" d="M314.3,-114.42C317.38,-107.06 321.82,-96.44 325.65,-87.27"/>
<polygon fill="midnightblue" stroke="midnightblue" points="328.99,-88.36 329.62,-77.78 322.53,-85.65 328.99,-88.36"/>
</g>
<!-- Node14 -->
<g id="node14" class="node">
<title>Node14</title>
<g id="a_node14"><a xlink:href="_my_string_8h.html" target="_top" xlink:title="The String specification defines a standard string type.">
<polygon fill="white" stroke="black" points="403.5,-57.5 403.5,-77.5 471.5,-77.5 471.5,-57.5 403.5,-57.5"/>
<text text-anchor="middle" x="437.5" y="-64.7" font-family="Helvetica,sans-Serif" font-size="11.00">MyString.h</text>
</a>
</g>
</g>
<!-- Node10&#45;&gt;Node14 -->
<g id="edge15" class="edge">
<title>Node10&#45;&gt;Node14</title>
<path fill="none" stroke="midnightblue" d="M331.47,-114.42C352.06,-105.5 383.69,-91.8 407.05,-81.69"/>
<polygon fill="midnightblue" stroke="midnightblue" points="408.71,-84.78 416.5,-77.6 405.93,-78.36 408.71,-84.78"/>
</g>
<!-- Node12 -->
<g id="node12" class="node">
<title>Node12</title>
<g id="a_node12"><a xlink:title=" ">
<polygon fill="white" stroke="#bfbfbf" points="202,-0.5 202,-20.5 255,-20.5 255,-0.5 202,-0.5"/>
<text text-anchor="middle" x="228.5" y="-7.7" font-family="Helvetica,sans-Serif" font-size="11.00">cassert</text>
</a>
</g>
</g>
<!-- Node11&#45;&gt;Node12 -->
<g id="edge13" class="edge">
<title>Node11&#45;&gt;Node12</title>
<path fill="none" stroke="midnightblue" d="M228.5,-57.42C228.5,-50.22 228.5,-39.9 228.5,-30.86"/>
<polygon fill="midnightblue" stroke="midnightblue" points="232,-30.78 228.5,-20.78 225,-30.78 232,-30.78"/>
</g>
<!-- Node15 -->
<g id="node15" class="node">
<title>Node15</title>
<g id="a_node15"><a xlink:title=" ">
<polygon fill="white" stroke="#bfbfbf" points="372.5,-0.5 372.5,-20.5 416.5,-20.5 416.5,-0.5 372.5,-0.5"/>
<text text-anchor="middle" x="394.5" y="-7.7" font-family="Helvetica,sans-Serif" font-size="11.00">string</text>
</a>
</g>
</g>
<!-- Node14&#45;&gt;Node15 -->
<g id="edge16" class="edge">
<title>Node14&#45;&gt;Node15</title>
<path fill="none" stroke="midnightblue" d="M430.4,-57.42C424.34,-49.66 415.44,-38.29 408.03,-28.8"/>
<polygon fill="midnightblue" stroke="midnightblue" points="410.67,-26.5 401.75,-20.78 405.16,-30.81 410.67,-26.5"/>
</g>
<!-- Node16 -->
<g id="node16" class="node">
<title>Node16</title>
<g id="a_node16"><a xlink:href="_global_macros_8h.html" target="_top" xlink:title="The GlobalMacros specification defines simple macros (e.g. for parameter modes).">
<polygon fill="white" stroke="black" points="434.5,-0.5 434.5,-20.5 526.5,-20.5 526.5,-0.5 434.5,-0.5"/>
<text text-anchor="middle" x="480.5" y="-7.7" font-family="Helvetica,sans-Serif" font-size="11.00">GlobalMacros.h</text>
</a>
</g>
</g>
<!-- Node14&#45;&gt;Node16 -->
<g id="edge17" class="edge">
<title>Node14&#45;&gt;Node16</title>
<path fill="none" stroke="midnightblue" d="M444.6,-57.42C450.66,-49.66 459.56,-38.29 466.97,-28.8"/>
<polygon fill="midnightblue" stroke="midnightblue" points="469.84,-30.81 473.25,-20.78 464.33,-26.5 469.84,-30.81"/>
</g>
<!-- Node18 -->
<g id="node18" class="node">
<title>Node18</title>
<g id="a_node18"><a xlink:href="_my_array_8h.html" target="_top" xlink:title="The MyArray specification and body defines a generic array type for stack allocated arrays represente...">
<polygon fill="white" stroke="black" points="256,-228.5 256,-248.5 321,-248.5 321,-228.5 256,-228.5"/>
<text text-anchor="middle" x="288.5" y="-235.7" font-family="Helvetica,sans-Serif" font-size="11.00">MyArray.h</text>
</a>
</g>
</g>
<!-- Node17&#45;&gt;Node18 -->
<g id="edge19" class="edge">
<title>Node17&#45;&gt;Node18</title>
<path fill="none" stroke="midnightblue" d="M285.16,-285.42C285.68,-278.22 286.43,-267.9 287.09,-258.86"/>
<polygon fill="midnightblue" stroke="midnightblue" points="290.59,-259.01 287.83,-248.78 283.61,-258.5 290.59,-259.01"/>
</g>
<!-- Node18&#45;&gt;Node10 -->
<g id="edge21" class="edge">
<title>Node18&#45;&gt;Node10</title>
<path fill="none" stroke="midnightblue" d="M290.3,-228.33C293.88,-210.12 301.95,-169.04 306.73,-144.67"/>
<polygon fill="midnightblue" stroke="midnightblue" points="310.18,-145.28 308.67,-134.79 303.31,-143.93 310.18,-145.28"/>
</g>
<!-- Node19 -->
<g id="node19" class="node">
<title>Node19</title>
<g id="a_node19"><a xlink:title=" ">
<polygon fill="white" stroke="#bfbfbf" points="316.5,-171.5 316.5,-191.5 366.5,-191.5 366.5,-171.5 316.5,-171.5"/>
<text text-anchor="middle" x="341.5" y="-178.7" font-family="Helvetica,sans-Serif" font-size="11.00">cstring</text>
</a>
</g>
</g>
<!-- Node18&#45;&gt;Node19 -->
<g id="edge20" class="edge">
<title>Node18&#45;&gt;Node19</title>
<path fill="none" stroke="midnightblue" d="M297.25,-228.42C304.88,-220.5 316.13,-208.82 325.38,-199.23"/>
<polygon fill="midnightblue" stroke="midnightblue" points="328.14,-201.41 332.56,-191.78 323.1,-196.55 328.14,-201.41"/>
</g>
</g>
</svg>
