<?xml version="1.0" encoding="UTF-8" standalone="no"?>
<!DOCTYPE svg PUBLIC "-//W3C//DTD SVG 1.1//EN"
 "http://www.w3.org/Graphics/SVG/1.1/DTD/svg11.dtd">
<!-- Generated by graphviz version 2.47.1 (20210417.1919)
 -->
<!-- Title: WaveFile.cpp Pages: 1 -->
<!--zoomable 532 -->
<svg id="main" version="1.1" xmlns="http://www.w3.org/2000/svg" xmlns:xlink="http://www.w3.org/1999/xlink" xml:space="preserve" onload="init(evt)">
<style type="text/css"><![CDATA[
.edge:hover path { stroke: red; }
.edge:hover polygon { stroke: red; fill: red; }
]]></style>
<script type="text/javascript"><![CDATA[
var edges = document.getElementsByTagName('g');
if (edges && edges.length) {
  for (var i=0;i<edges.length;i++) {
    if (edges[i].id.substr(0,4)=='edge') {
      edges[i].setAttribute('class','edge');
    }
  }
}
]]></script>
        <defs>
                <circle id="rim" cx="0" cy="0" r="7"/>
                <circle id="rim2" cx="0" cy="0" r="3.5"/>
                <g id="zoomPlus">
                        <use xlink:href="#rim" fill="#404040">
                                <set attributeName="fill" to="#808080" begin="zoomplus.mouseover" end="zoomplus.mouseout"/>
                        </use>
                        <path d="M-4,0h8M0,-4v8" fill="none" stroke="white" stroke-width="1.5" pointer-events="none"/>
                </g>
                <g id="zoomMin">
                        <use xlink:href="#rim" fill="#404040">
                                <set attributeName="fill" to="#808080" begin="zoomminus.mouseover" end="zoomminus.mouseout"/>
                        </use>
                        <path d="M-4,0h8" fill="none" stroke="white" stroke-width="1.5" pointer-events="none"/>
                </g>
                <g id="dirArrow">
                        <path fill="none" stroke="white" stroke-width="1.5" d="M0,-3.0v7 M-2.5,-0.5L0,-3.0L2.5,-0.5"/>
                </g>
               <g id="resetDef">
                       <use xlink:href="#rim2" fill="#404040">
                               <set attributeName="fill" to="#808080" begin="reset.mouseover" end="reset.mouseout"/>
                       </use>
               </g>
        </defs>

<script type="text/javascript">
var viewWidth = 1093;
var viewHeight = 532;
var sectionId = 'dynsection-0';
</script>
<script xlink:href="svgpan.js"/>
<svg id="graph" class="graph">
<g id="viewport">
<title>WaveFile.cpp</title>
<polygon fill="white" stroke="transparent" points="-4,4 -4,-528 1088.9,-528 1088.9,4 -4,4"/>
<!-- Node1 -->
<g id="node1" class="node">
<title>Node1</title>
<g id="a_node1"><a xlink:title="The WaveFile specification defines an object for accessing a RIFF wave file with several channels.">
<polygon fill="#bfbfbf" stroke="black" points="487.4,-504.5 487.4,-523.5 562.4,-523.5 562.4,-504.5 487.4,-504.5"/>
<text text-anchor="middle" x="524.9" y="-511.5" font-family="Helvetica,sans-Serif" font-size="10.00">WaveFile.cpp</text>
</a>
</g>
</g>
<!-- Node2 -->
<g id="node2" class="node">
<title>Node2</title>
<g id="a_node2"><a xlink:href="_assertion_8h.html" target="_top" xlink:title="The Assertion specification defines macros for pre&#45; and postconditions in functions or methods.">
<polygon fill="white" stroke="black" points="334.9,-56.5 334.9,-75.5 400.9,-75.5 400.9,-56.5 334.9,-56.5"/>
<text text-anchor="middle" x="367.9" y="-63.5" font-family="Helvetica,sans-Serif" font-size="10.00">Assertion.h</text>
</a>
</g>
</g>
<!-- Node1&#45;&gt;Node2 -->
<g id="edge1" class="edge">
<title>Node1&#45;&gt;Node2</title>
<path fill="none" stroke="midnightblue" d="M487.29,-511.7C380.71,-507.11 80.95,-487.58 27.9,-412 -38.51,-317.4 25.49,-237.43 117.9,-168 182.06,-119.79 272.41,-90.85 325.1,-77"/>
<polygon fill="midnightblue" stroke="midnightblue" points="325.98,-80.38 334.8,-74.51 324.24,-73.6 325.98,-80.38"/>
</g>
<!-- Node5 -->
<g id="node5" class="node">
<title>Node5</title>
<g id="a_node5"><a xlink:href="_character_8h.html" target="_top" xlink:title="The Character specification and body provides a value object type for character values.">
<polygon fill="white" stroke="black" points="365.4,-336.5 365.4,-355.5 432.4,-355.5 432.4,-336.5 365.4,-336.5"/>
<text text-anchor="middle" x="398.9" y="-343.5" font-family="Helvetica,sans-Serif" font-size="10.00">Character.h</text>
</a>
</g>
</g>
<!-- Node1&#45;&gt;Node5 -->
<g id="edge4" class="edge">
<title>Node1&#45;&gt;Node5</title>
<path fill="none" stroke="midnightblue" d="M519.11,-504.4C513.03,-495.36 503.24,-480.72 494.9,-468 472.86,-434.39 471.48,-423 445.9,-392 437.11,-381.35 426,-370.62 416.79,-362.3"/>
<polygon fill="midnightblue" stroke="midnightblue" points="419.11,-359.68 409.29,-355.68 414.47,-364.92 419.11,-359.68"/>
</g>
<!-- Node13 -->
<g id="node13" class="node">
<title>Node13</title>
<g id="a_node13"><a xlink:href="_file_8h.html" target="_top" xlink:title="The File specification defines a class for simple file handling based on C stdio.">
<polygon fill="white" stroke="black" points="504.4,-448.5 504.4,-467.5 545.4,-467.5 545.4,-448.5 504.4,-448.5"/>
<text text-anchor="middle" x="524.9" y="-455.5" font-family="Helvetica,sans-Serif" font-size="10.00">File.h</text>
</a>
</g>
</g>
<!-- Node1&#45;&gt;Node13 -->
<g id="edge16" class="edge">
<title>Node1&#45;&gt;Node13</title>
<path fill="none" stroke="midnightblue" d="M524.9,-504.08C524.9,-497.01 524.9,-486.86 524.9,-477.99"/>
<polygon fill="midnightblue" stroke="midnightblue" points="528.4,-477.75 524.9,-467.75 521.4,-477.75 528.4,-477.75"/>
</g>
<!-- Node20 -->
<g id="node20" class="node">
<title>Node20</title>
<g id="a_node20"><a xlink:href="_integer_list_8h.html" target="_top" xlink:title="The IntegerList specification defines sequences of integer values with zero&#45;based arbitrary indexed a...">
<polygon fill="white" stroke="black" points="936.9,-336.5 936.9,-355.5 1006.9,-355.5 1006.9,-336.5 936.9,-336.5"/>
<text text-anchor="middle" x="971.9" y="-343.5" font-family="Helvetica,sans-Serif" font-size="10.00">IntegerList.h</text>
</a>
</g>
</g>
<!-- Node1&#45;&gt;Node20 -->
<g id="edge25" class="edge">
<title>Node1&#45;&gt;Node20</title>
<path fill="none" stroke="midnightblue" d="M562.48,-510.64C636.13,-505.54 796.54,-491.97 845.9,-468 896.41,-443.46 939.77,-391.12 959.9,-364.03"/>
<polygon fill="midnightblue" stroke="midnightblue" points="962.98,-365.74 966.02,-355.59 957.32,-361.63 962.98,-365.74"/>
</g>
<!-- Node21 -->
<g id="node21" class="node">
<title>Node21</title>
<g id="a_node21"><a xlink:href="_logging_8h.html" target="_top" xlink:title="The Logging specification defines macros for entry&#45;, exit&#45; and intermediate logging of functions into...">
<polygon fill="white" stroke="black" points="192.4,-448.5 192.4,-467.5 251.4,-467.5 251.4,-448.5 192.4,-448.5"/>
<text text-anchor="middle" x="221.9" y="-455.5" font-family="Helvetica,sans-Serif" font-size="10.00">Logging.h</text>
</a>
</g>
</g>
<!-- Node1&#45;&gt;Node21 -->
<g id="edge28" class="edge">
<title>Node1&#45;&gt;Node21</title>
<path fill="none" stroke="midnightblue" d="M487.13,-506.27C429.52,-496 320.18,-476.52 261.49,-466.06"/>
<polygon fill="midnightblue" stroke="midnightblue" points="261.94,-462.58 251.48,-464.27 260.72,-469.47 261.94,-462.58"/>
</g>
<!-- Node28 -->
<g id="node28" class="node">
<title>Node28</title>
<g id="a_node28"><a xlink:href="_natural_list_8h.html" target="_top" xlink:title="The NaturalList specification defines lists of non&#45;negative integer values with zero&#45;based arbitrary ...">
<polygon fill="white" stroke="black" points="765.4,-448.5 765.4,-467.5 836.4,-467.5 836.4,-448.5 765.4,-448.5"/>
<text text-anchor="middle" x="800.9" y="-455.5" font-family="Helvetica,sans-Serif" font-size="10.00">NaturalList.h</text>
</a>
</g>
</g>
<!-- Node1&#45;&gt;Node28 -->
<g id="edge44" class="edge">
<title>Node1&#45;&gt;Node28</title>
<path fill="none" stroke="midnightblue" d="M562.41,-505.66C612.53,-495.85 701.29,-478.49 755.24,-467.93"/>
<polygon fill="midnightblue" stroke="midnightblue" points="756.08,-471.34 765.22,-465.98 754.73,-464.47 756.08,-471.34"/>
</g>
<!-- Node29 -->
<g id="node29" class="node">
<title>Node29</title>
<g id="a_node29"><a xlink:href="_operating_system_8h.html" target="_top" xlink:title="The OperatingSystem specification defines a class for several operating system related utility functi...">
<polygon fill="white" stroke="black" points="214.4,-392.5 214.4,-411.5 315.4,-411.5 315.4,-392.5 214.4,-392.5"/>
<text text-anchor="middle" x="264.9" y="-399.5" font-family="Helvetica,sans-Serif" font-size="10.00">OperatingSystem.h</text>
</a>
</g>
</g>
<!-- Node1&#45;&gt;Node29 -->
<g id="edge46" class="edge">
<title>Node1&#45;&gt;Node29</title>
<path fill="none" stroke="midnightblue" d="M504.49,-504.37C458.74,-485.01 347.78,-438.06 294.46,-415.51"/>
<polygon fill="midnightblue" stroke="midnightblue" points="295.78,-412.26 285.2,-411.59 293.05,-418.71 295.78,-412.26"/>
</g>
<!-- Node32 -->
<g id="node32" class="node">
<title>Node32</title>
<g id="a_node32"><a xlink:href="_real_list_8h.html" target="_top" xlink:title="The RealList specification defines lists of real values with zero&#45;based arbitrary indexed access to p...">
<polygon fill="white" stroke="black" points="1024.9,-336.5 1024.9,-355.5 1084.9,-355.5 1084.9,-336.5 1024.9,-336.5"/>
<text text-anchor="middle" x="1054.9" y="-343.5" font-family="Helvetica,sans-Serif" font-size="10.00">RealList.h</text>
</a>
</g>
</g>
<!-- Node1&#45;&gt;Node32 -->
<g id="edge51" class="edge">
<title>Node1&#45;&gt;Node32</title>
<path fill="none" stroke="midnightblue" d="M562.52,-513.75C628.14,-513.84 766.81,-508.67 874.9,-468 941.58,-442.91 1008.02,-388.81 1038.15,-362.29"/>
<polygon fill="midnightblue" stroke="midnightblue" points="1040.53,-364.86 1045.66,-355.59 1035.87,-359.64 1040.53,-364.86"/>
</g>
<!-- Node33 -->
<g id="node33" class="node">
<title>Node33</title>
<g id="a_node33"><a xlink:href="_wave_file_8h.html" target="_top" xlink:title="The WaveFile specification defines an object for accessing a RIFF wave file with several channels.">
<polygon fill="white" stroke="black" points="595.4,-448.5 595.4,-467.5 660.4,-467.5 660.4,-448.5 595.4,-448.5"/>
<text text-anchor="middle" x="627.9" y="-455.5" font-family="Helvetica,sans-Serif" font-size="10.00">WaveFile.h</text>
</a>
</g>
</g>
<!-- Node1&#45;&gt;Node33 -->
<g id="edge55" class="edge">
<title>Node1&#45;&gt;Node33</title>
<path fill="none" stroke="midnightblue" d="M541.45,-504.32C557.89,-495.7 583.33,-482.36 602.36,-472.39"/>
<polygon fill="midnightblue" stroke="midnightblue" points="604.16,-475.4 611.39,-467.65 600.91,-469.2 604.16,-475.4"/>
</g>
<!-- Node3 -->
<g id="node3" class="node">
<title>Node3</title>
<g id="a_node3"><a xlink:title=" ">
<polygon fill="white" stroke="#bfbfbf" points="527.4,-0.5 527.4,-19.5 586.4,-19.5 586.4,-0.5 527.4,-0.5"/>
<text text-anchor="middle" x="556.9" y="-7.5" font-family="Helvetica,sans-Serif" font-size="10.00">stdexcept</text>
</a>
</g>
</g>
<!-- Node2&#45;&gt;Node3 -->
<g id="edge2" class="edge">
<title>Node2&#45;&gt;Node3</title>
<path fill="none" stroke="midnightblue" d="M397.84,-56.44C430.05,-47.24 481.43,-32.56 517.04,-22.39"/>
<polygon fill="midnightblue" stroke="midnightblue" points="518.44,-25.63 527.09,-19.52 516.51,-18.9 518.44,-25.63"/>
</g>
<!-- Node4 -->
<g id="node4" class="node">
<title>Node4</title>
<g id="a_node4"><a xlink:title=" ">
<polygon fill="white" stroke="#bfbfbf" points="346.4,-0.5 346.4,-19.5 387.4,-19.5 387.4,-0.5 346.4,-0.5"/>
<text text-anchor="middle" x="366.9" y="-7.5" font-family="Helvetica,sans-Serif" font-size="10.00">string</text>
</a>
</g>
</g>
<!-- Node2&#45;&gt;Node4 -->
<g id="edge3" class="edge">
<title>Node2&#45;&gt;Node4</title>
<path fill="none" stroke="midnightblue" d="M367.73,-56.08C367.6,-49.01 367.41,-38.86 367.25,-29.99"/>
<polygon fill="midnightblue" stroke="midnightblue" points="370.74,-29.68 367.06,-19.75 363.74,-29.81 370.74,-29.68"/>
</g>
<!-- Node6 -->
<g id="node6" class="node">
<title>Node6</title>
<g id="a_node6"><a xlink:title=" ">
<polygon fill="white" stroke="#bfbfbf" points="528.9,-56.5 528.9,-75.5 572.9,-75.5 572.9,-56.5 528.9,-56.5"/>
<text text-anchor="middle" x="550.9" y="-63.5" font-family="Helvetica,sans-Serif" font-size="10.00">cmath</text>
</a>
</g>
</g>
<!-- Node5&#45;&gt;Node6 -->
<g id="edge5" class="edge">
<title>Node5&#45;&gt;Node6</title>
<path fill="none" stroke="midnightblue" d="M395.78,-336.35C388.93,-315.88 374.44,-263.21 390.9,-224 418.81,-157.51 490.14,-105.02 527.41,-81.1"/>
<polygon fill="midnightblue" stroke="midnightblue" points="529.5,-83.92 536.11,-75.64 525.78,-77.99 529.5,-83.92"/>
</g>
<!-- Node7 -->
<g id="node7" class="node">
<title>Node7</title>
<g id="a_node7"><a xlink:href="_byte_8h.html" target="_top" xlink:title="The Byte specification and body provides a value object type for byte values.">
<polygon fill="white" stroke="black" points="400.4,-280.5 400.4,-299.5 445.4,-299.5 445.4,-280.5 400.4,-280.5"/>
<text text-anchor="middle" x="422.9" y="-287.5" font-family="Helvetica,sans-Serif" font-size="10.00">Byte.h</text>
</a>
</g>
</g>
<!-- Node5&#45;&gt;Node7 -->
<g id="edge6" class="edge">
<title>Node5&#45;&gt;Node7</title>
<path fill="none" stroke="midnightblue" d="M402.86,-336.08C406.11,-328.77 410.82,-318.18 414.85,-309.1"/>
<polygon fill="midnightblue" stroke="midnightblue" points="418.14,-310.31 419.01,-299.75 411.75,-307.47 418.14,-310.31"/>
</g>
<!-- Node7&#45;&gt;Node6 -->
<g id="edge7" class="edge">
<title>Node7&#45;&gt;Node6</title>
<path fill="none" stroke="midnightblue" d="M429.6,-280.25C436.31,-271.34 446.78,-257.02 454.9,-244 490.11,-187.52 526.05,-117.15 542.15,-84.79"/>
<polygon fill="midnightblue" stroke="midnightblue" points="545.36,-86.2 546.66,-75.68 539.09,-83.09 545.36,-86.2"/>
</g>
<!-- Node8 -->
<g id="node8" class="node">
<title>Node8</title>
<g id="a_node8"><a xlink:title=" ">
<polygon fill="white" stroke="#bfbfbf" points="399.9,-224.5 399.9,-243.5 445.9,-243.5 445.9,-224.5 399.9,-224.5"/>
<text text-anchor="middle" x="422.9" y="-231.5" font-family="Helvetica,sans-Serif" font-size="10.00">cstdint</text>
</a>
</g>
</g>
<!-- Node7&#45;&gt;Node8 -->
<g id="edge8" class="edge">
<title>Node7&#45;&gt;Node8</title>
<path fill="none" stroke="midnightblue" d="M422.9,-280.08C422.9,-273.01 422.9,-262.86 422.9,-253.99"/>
<polygon fill="midnightblue" stroke="midnightblue" points="426.4,-253.75 422.9,-243.75 419.4,-253.75 426.4,-253.75"/>
</g>
<!-- Node9 -->
<g id="node9" class="node">
<title>Node9</title>
<g id="a_node9"><a xlink:href="_natural_8h.html" target="_top" xlink:title="The Natural specification and body provides a value object type for naturals (positive integers with ...">
<polygon fill="white" stroke="black" points="354.9,-112.5 354.9,-131.5 410.9,-131.5 410.9,-112.5 354.9,-112.5"/>
<text text-anchor="middle" x="382.9" y="-119.5" font-family="Helvetica,sans-Serif" font-size="10.00">Natural.h</text>
</a>
</g>
</g>
<!-- Node7&#45;&gt;Node9 -->
<g id="edge9" class="edge">
<title>Node7&#45;&gt;Node9</title>
<path fill="none" stroke="midnightblue" d="M415.76,-280.5C408.71,-271.78 397.99,-257.6 390.9,-244 378.68,-220.57 375.41,-214.04 370.9,-188 368.17,-172.28 371.95,-154.45 375.97,-141.45"/>
<polygon fill="midnightblue" stroke="midnightblue" points="379.34,-142.41 379.26,-131.82 372.71,-140.15 379.34,-142.41"/>
</g>
<!-- Node9&#45;&gt;Node2 -->
<g id="edge11" class="edge">
<title>Node9&#45;&gt;Node2</title>
<path fill="none" stroke="midnightblue" d="M380.42,-112.08C378.41,-104.85 375.51,-94.41 373.01,-85.4"/>
<polygon fill="midnightblue" stroke="midnightblue" points="376.38,-84.45 370.33,-75.75 369.63,-86.32 376.38,-84.45"/>
</g>
<!-- Node9&#45;&gt;Node6 -->
<g id="edge10" class="edge">
<title>Node9&#45;&gt;Node6</title>
<path fill="none" stroke="midnightblue" d="M409.52,-112.44C439.24,-102.89 487.32,-87.44 519.02,-77.25"/>
<polygon fill="midnightblue" stroke="midnightblue" points="520.24,-80.53 528.69,-74.14 518.1,-73.86 520.24,-80.53"/>
</g>
<!-- Node10 -->
<g id="node10" class="node">
<title>Node10</title>
<g id="a_node10"><a xlink:title=" ">
<polygon fill="white" stroke="#bfbfbf" points="418.9,-56.5 418.9,-75.5 510.9,-75.5 510.9,-56.5 418.9,-56.5"/>
<text text-anchor="middle" x="464.9" y="-63.5" font-family="Helvetica,sans-Serif" font-size="10.00">GenericNumber.h</text>
</a>
</g>
</g>
<!-- Node9&#45;&gt;Node10 -->
<g id="edge12" class="edge">
<title>Node9&#45;&gt;Node10</title>
<path fill="none" stroke="midnightblue" d="M396.07,-112.32C408.74,-103.98 428.13,-91.21 443.1,-81.35"/>
<polygon fill="midnightblue" stroke="midnightblue" points="445.33,-84.08 451.75,-75.65 441.48,-78.23 445.33,-84.08"/>
</g>
<!-- Node11 -->
<g id="node11" class="node">
<title>Node11</title>
<g id="a_node11"><a xlink:href="_my_string_8h.html" target="_top" xlink:title="The String specification defines a standard string type.">
<polygon fill="white" stroke="black" points="252.9,-56.5 252.9,-75.5 316.9,-75.5 316.9,-56.5 252.9,-56.5"/>
<text text-anchor="middle" x="284.9" y="-63.5" font-family="Helvetica,sans-Serif" font-size="10.00">MyString.h</text>
</a>
</g>
</g>
<!-- Node9&#45;&gt;Node11 -->
<g id="edge13" class="edge">
<title>Node9&#45;&gt;Node11</title>
<path fill="none" stroke="midnightblue" d="M367.15,-112.32C351.58,-103.74 327.52,-90.49 309.44,-80.52"/>
<polygon fill="midnightblue" stroke="midnightblue" points="311.05,-77.42 300.6,-75.65 307.67,-83.55 311.05,-77.42"/>
</g>
<!-- Node11&#45;&gt;Node4 -->
<g id="edge14" class="edge">
<title>Node11&#45;&gt;Node4</title>
<path fill="none" stroke="midnightblue" d="M298.07,-56.32C310.74,-47.98 330.13,-35.21 345.1,-25.35"/>
<polygon fill="midnightblue" stroke="midnightblue" points="347.33,-28.08 353.75,-19.65 343.48,-22.23 347.33,-28.08"/>
</g>
<!-- Node12 -->
<g id="node12" class="node">
<title>Node12</title>
<g id="a_node12"><a xlink:href="_global_macros_8h.html" target="_top" xlink:title="The GlobalMacros specification defines simple macros (e.g. for parameter modes).">
<polygon fill="white" stroke="black" points="242.4,-0.5 242.4,-19.5 327.4,-19.5 327.4,-0.5 242.4,-0.5"/>
<text text-anchor="middle" x="284.9" y="-7.5" font-family="Helvetica,sans-Serif" font-size="10.00">GlobalMacros.h</text>
</a>
</g>
</g>
<!-- Node11&#45;&gt;Node12 -->
<g id="edge15" class="edge">
<title>Node11&#45;&gt;Node12</title>
<path fill="none" stroke="midnightblue" d="M284.9,-56.08C284.9,-49.01 284.9,-38.86 284.9,-29.99"/>
<polygon fill="midnightblue" stroke="midnightblue" points="288.4,-29.75 284.9,-19.75 281.4,-29.75 288.4,-29.75"/>
</g>
<!-- Node14 -->
<g id="node14" class="node">
<title>Node14</title>
<g id="a_node14"><a xlink:href="_boolean_8h.html" target="_top" xlink:title="The Boolean specification and body provides a value object type for boolean values.">
<polygon fill="white" stroke="black" points="269.9,-336.5 269.9,-355.5 329.9,-355.5 329.9,-336.5 269.9,-336.5"/>
<text text-anchor="middle" x="299.9" y="-343.5" font-family="Helvetica,sans-Serif" font-size="10.00">Boolean.h</text>
</a>
</g>
</g>
<!-- Node13&#45;&gt;Node14 -->
<g id="edge17" class="edge">
<title>Node13&#45;&gt;Node14</title>
<path fill="none" stroke="midnightblue" d="M504.36,-454.8C472.22,-450.61 408.95,-439.35 362.9,-412 342.08,-399.64 323.51,-378.62 312.01,-363.84"/>
<polygon fill="midnightblue" stroke="midnightblue" points="314.61,-361.47 305.81,-355.57 309.01,-365.67 314.61,-361.47"/>
</g>
<!-- Node15 -->
<g id="node15" class="node">
<title>Node15</title>
<g id="a_node15"><a xlink:href="_byte_list_8h.html" target="_top" xlink:title="The ByteList specification defines lists of byte values with zero&#45;based arbitrary indexed access to p...">
<polygon fill="white" stroke="black" points="494.4,-392.5 494.4,-411.5 555.4,-411.5 555.4,-392.5 494.4,-392.5"/>
<text text-anchor="middle" x="524.9" y="-399.5" font-family="Helvetica,sans-Serif" font-size="10.00">ByteList.h</text>
</a>
</g>
</g>
<!-- Node13&#45;&gt;Node15 -->
<g id="edge19" class="edge">
<title>Node13&#45;&gt;Node15</title>
<path fill="none" stroke="midnightblue" d="M524.9,-448.08C524.9,-441.01 524.9,-430.86 524.9,-421.99"/>
<polygon fill="midnightblue" stroke="midnightblue" points="528.4,-421.75 524.9,-411.75 521.4,-421.75 528.4,-421.75"/>
</g>
<!-- Node19 -->
<g id="node19" class="node">
<title>Node19</title>
<g id="a_node19"><a xlink:href="_object_8h.html" target="_top" xlink:title="The Object specification and body provides the root object type.">
<polygon fill="white" stroke="black" points="573.4,-392.5 573.4,-411.5 626.4,-411.5 626.4,-392.5 573.4,-392.5"/>
<text text-anchor="middle" x="599.9" y="-399.5" font-family="Helvetica,sans-Serif" font-size="10.00">Object.h</text>
</a>
</g>
</g>
<!-- Node13&#45;&gt;Node19 -->
<g id="edge24" class="edge">
<title>Node13&#45;&gt;Node19</title>
<path fill="none" stroke="midnightblue" d="M536.95,-448.32C548.36,-440.11 565.73,-427.6 579.33,-417.81"/>
<polygon fill="midnightblue" stroke="midnightblue" points="581.56,-420.52 587.63,-411.83 577.47,-414.84 581.56,-420.52"/>
</g>
<!-- Node14&#45;&gt;Node11 -->
<g id="edge18" class="edge">
<title>Node14&#45;&gt;Node11</title>
<path fill="none" stroke="midnightblue" d="M297.94,-336.5C293.87,-318.09 284.9,-273.16 284.9,-235 284.9,-235 284.9,-235 284.9,-177 284.9,-144.95 284.9,-107.64 284.9,-85.75"/>
<polygon fill="midnightblue" stroke="midnightblue" points="288.4,-85.56 284.9,-75.56 281.4,-85.56 288.4,-85.56"/>
</g>
<!-- Node15&#45;&gt;Node7 -->
<g id="edge20" class="edge">
<title>Node15&#45;&gt;Node7</title>
<path fill="none" stroke="midnightblue" d="M516.89,-392.37C499.84,-373.97 459.68,-330.67 437.78,-307.05"/>
<polygon fill="midnightblue" stroke="midnightblue" points="440.23,-304.54 430.86,-299.59 435.1,-309.3 440.23,-304.54"/>
</g>
<!-- Node16 -->
<g id="node16" class="node">
<title>Node16</title>
<g id="a_node16"><a xlink:href="_string_list_8h.html" target="_top" xlink:title="The StringList specification defines lists of string values with zero&#45;based arbitrary indexed access ...">
<polygon fill="white" stroke="black" points="680.9,-336.5 680.9,-355.5 746.9,-355.5 746.9,-336.5 680.9,-336.5"/>
<text text-anchor="middle" x="713.9" y="-343.5" font-family="Helvetica,sans-Serif" font-size="10.00">StringList.h</text>
</a>
</g>
</g>
<!-- Node15&#45;&gt;Node16 -->
<g id="edge21" class="edge">
<title>Node15&#45;&gt;Node16</title>
<path fill="none" stroke="midnightblue" d="M554.84,-392.44C587.05,-383.24 638.43,-368.56 674.04,-358.39"/>
<polygon fill="midnightblue" stroke="midnightblue" points="675.44,-361.63 684.09,-355.52 673.51,-354.9 675.44,-361.63"/>
</g>
<!-- Node17 -->
<g id="node17" class="node">
<title>Node17</title>
<g id="a_node17"><a xlink:title=" ">
<polygon fill="white" stroke="#bfbfbf" points="935.4,-280.5 935.4,-299.5 1008.4,-299.5 1008.4,-280.5 935.4,-280.5"/>
<text text-anchor="middle" x="971.9" y="-287.5" font-family="Helvetica,sans-Serif" font-size="10.00">initializer_list</text>
</a>
</g>
</g>
<!-- Node16&#45;&gt;Node17 -->
<g id="edge22" class="edge">
<title>Node16&#45;&gt;Node17</title>
<path fill="none" stroke="midnightblue" d="M747.1,-338.05C792.39,-328.57 873.79,-311.53 925.21,-300.77"/>
<polygon fill="midnightblue" stroke="midnightblue" points="926,-304.18 935.08,-298.71 924.57,-297.33 926,-304.18"/>
</g>
<!-- Node18 -->
<g id="node18" class="node">
<title>Node18</title>
<g id="a_node18"><a xlink:title=" ">
<polygon fill="white" stroke="#bfbfbf" points="841.9,-280.5 841.9,-299.5 915.9,-299.5 915.9,-280.5 841.9,-280.5"/>
<text text-anchor="middle" x="878.9" y="-287.5" font-family="Helvetica,sans-Serif" font-size="10.00">GenericList.h</text>
</a>
</g>
</g>
<!-- Node16&#45;&gt;Node18 -->
<g id="edge23" class="edge">
<title>Node16&#45;&gt;Node18</title>
<path fill="none" stroke="midnightblue" d="M740.04,-336.44C767.92,-327.32 812.24,-312.81 843.3,-302.65"/>
<polygon fill="midnightblue" stroke="midnightblue" points="844.46,-305.95 852.87,-299.52 842.28,-299.3 844.46,-305.95"/>
</g>
<!-- Node20&#45;&gt;Node17 -->
<g id="edge26" class="edge">
<title>Node20&#45;&gt;Node17</title>
<path fill="none" stroke="midnightblue" d="M971.9,-336.08C971.9,-329.01 971.9,-318.86 971.9,-309.99"/>
<polygon fill="midnightblue" stroke="midnightblue" points="975.4,-309.75 971.9,-299.75 968.4,-309.75 975.4,-309.75"/>
</g>
<!-- Node20&#45;&gt;Node18 -->
<g id="edge27" class="edge">
<title>Node20&#45;&gt;Node18</title>
<path fill="none" stroke="midnightblue" d="M956.95,-336.32C942.31,-327.82 919.76,-314.73 902.66,-304.8"/>
<polygon fill="midnightblue" stroke="midnightblue" points="904.21,-301.65 893.8,-299.65 900.69,-307.7 904.21,-301.65"/>
</g>
<!-- Node22 -->
<g id="node22" class="node">
<title>Node22</title>
<g id="a_node22"><a xlink:title=" ">
<polygon fill="white" stroke="#bfbfbf" points="147.4,-392.5 147.4,-411.5 196.4,-411.5 196.4,-392.5 147.4,-392.5"/>
<text text-anchor="middle" x="171.9" y="-399.5" font-family="Helvetica,sans-Serif" font-size="10.00">cstdarg</text>
</a>
</g>
</g>
<!-- Node21&#45;&gt;Node22 -->
<g id="edge29" class="edge">
<title>Node21&#45;&gt;Node22</title>
<path fill="none" stroke="midnightblue" d="M213.64,-448.08C206.43,-440.3 195.79,-428.8 187.05,-419.37"/>
<polygon fill="midnightblue" stroke="midnightblue" points="189.36,-416.71 180,-411.75 184.23,-421.47 189.36,-416.71"/>
</g>
<!-- Node23 -->
<g id="node23" class="node">
<title>Node23</title>
<g id="a_node23"><a xlink:href="_logging_support_8h.html" target="_top" xlink:title="The LoggingSupport specification defines a class for simple entry/exit logging to a file or via an ar...">
<polygon fill="white" stroke="black" points="36.9,-392.5 36.9,-411.5 128.9,-411.5 128.9,-392.5 36.9,-392.5"/>
<text text-anchor="middle" x="82.9" y="-399.5" font-family="Helvetica,sans-Serif" font-size="10.00">LoggingSupport.h</text>
</a>
</g>
</g>
<!-- Node21&#45;&gt;Node23 -->
<g id="edge30" class="edge">
<title>Node21&#45;&gt;Node23</title>
<path fill="none" stroke="midnightblue" d="M199.87,-448.44C176.79,-439.48 140.33,-425.31 114.26,-415.18"/>
<polygon fill="midnightblue" stroke="midnightblue" points="115.41,-411.88 104.82,-411.52 112.87,-418.4 115.41,-411.88"/>
</g>
<!-- Node24 -->
<g id="node24" class="node">
<title>Node24</title>
<g id="a_node24"><a xlink:href="_string_util_8h.html" target="_top" xlink:title="The StringUtil specification defines several string routines not included in the standard C++ library...">
<polygon fill="white" stroke="black" points="372.4,-392.5 372.4,-411.5 437.4,-411.5 437.4,-392.5 372.4,-392.5"/>
<text text-anchor="middle" x="404.9" y="-399.5" font-family="Helvetica,sans-Serif" font-size="10.00">StringUtil.h</text>
</a>
</g>
</g>
<!-- Node21&#45;&gt;Node24 -->
<g id="edge33" class="edge">
<title>Node21&#45;&gt;Node24</title>
<path fill="none" stroke="midnightblue" d="M250.89,-448.44C282.08,-439.24 331.83,-424.56 366.3,-414.39"/>
<polygon fill="midnightblue" stroke="midnightblue" points="367.43,-417.7 376.04,-411.52 365.45,-410.99 367.43,-417.7"/>
</g>
<!-- Node23&#45;&gt;Node9 -->
<g id="edge32" class="edge">
<title>Node23&#45;&gt;Node9</title>
<path fill="none" stroke="midnightblue" d="M83.55,-392.45C84.91,-373.95 87.9,-328.85 87.9,-291 87.9,-291 87.9,-291 87.9,-233 87.9,-178.49 141.59,-188.97 191.9,-168 219.21,-156.61 297.43,-139.95 344.88,-130.42"/>
<polygon fill="midnightblue" stroke="midnightblue" points="345.67,-133.83 354.79,-128.45 344.3,-126.97 345.67,-133.83"/>
</g>
<!-- Node23&#45;&gt;Node14 -->
<g id="edge31" class="edge">
<title>Node23&#45;&gt;Node14</title>
<path fill="none" stroke="midnightblue" d="M117.28,-392.44C156.06,-382.79 219.04,-367.12 259.96,-356.94"/>
<polygon fill="midnightblue" stroke="midnightblue" points="261.01,-360.28 269.87,-354.47 259.32,-353.49 261.01,-360.28"/>
</g>
<!-- Node24&#45;&gt;Node5 -->
<g id="edge35" class="edge">
<title>Node24&#45;&gt;Node5</title>
<path fill="none" stroke="midnightblue" d="M403.91,-392.08C403.11,-384.93 401.97,-374.64 400.97,-365.69"/>
<polygon fill="midnightblue" stroke="midnightblue" points="404.45,-365.3 399.87,-355.75 397.49,-366.08 404.45,-365.3"/>
</g>
<!-- Node24&#45;&gt;Node14 -->
<g id="edge34" class="edge">
<title>Node24&#45;&gt;Node14</title>
<path fill="none" stroke="midnightblue" d="M388.03,-392.32C371.19,-383.66 345.09,-370.24 325.66,-360.25"/>
<polygon fill="midnightblue" stroke="midnightblue" points="327.22,-357.12 316.72,-355.65 324.02,-363.34 327.22,-357.12"/>
</g>
<!-- Node24&#45;&gt;Node16 -->
<g id="edge43" class="edge">
<title>Node24&#45;&gt;Node16</title>
<path fill="none" stroke="midnightblue" d="M437.45,-395.99C486,-388.41 580.49,-373.27 670.37,-356.23"/>
<polygon fill="midnightblue" stroke="midnightblue" points="671.29,-359.62 680.45,-354.31 669.97,-352.74 671.29,-359.62"/>
</g>
<!-- Node25 -->
<g id="node25" class="node">
<title>Node25</title>
<g id="a_node25"><a xlink:href="_percentage_8h.html" target="_top" xlink:title="The Percentage specification and body provides a simple percentage type.">
<polygon fill="white" stroke="black" points="501.9,-280.5 501.9,-299.5 575.9,-299.5 575.9,-280.5 501.9,-280.5"/>
<text text-anchor="middle" x="538.9" y="-287.5" font-family="Helvetica,sans-Serif" font-size="10.00">Percentage.h</text>
</a>
</g>
</g>
<!-- Node24&#45;&gt;Node25 -->
<g id="edge36" class="edge">
<title>Node24&#45;&gt;Node25</title>
<path fill="none" stroke="midnightblue" d="M415.41,-392.37C438.11,-373.73 491.96,-329.53 520.46,-306.13"/>
<polygon fill="midnightblue" stroke="midnightblue" points="522.92,-308.64 528.43,-299.59 518.48,-303.23 522.92,-308.64"/>
</g>
<!-- Node26 -->
<g id="node26" class="node">
<title>Node26</title>
<g id="a_node26"><a xlink:href="_real_8h.html" target="_top" xlink:title="The Real specification defines a value object type for real values.">
<polygon fill="white" stroke="black" points="646.9,-224.5 646.9,-243.5 690.9,-243.5 690.9,-224.5 646.9,-224.5"/>
<text text-anchor="middle" x="668.9" y="-231.5" font-family="Helvetica,sans-Serif" font-size="10.00">Real.h</text>
</a>
</g>
</g>
<!-- Node25&#45;&gt;Node26 -->
<g id="edge37" class="edge">
<title>Node25&#45;&gt;Node26</title>
<path fill="none" stroke="midnightblue" d="M559.5,-280.44C580.89,-271.56 614.58,-257.56 638.92,-247.45"/>
<polygon fill="midnightblue" stroke="midnightblue" points="640.5,-250.58 648.39,-243.52 637.82,-244.12 640.5,-250.58"/>
</g>
<!-- Node26&#45;&gt;Node6 -->
<g id="edge38" class="edge">
<title>Node26&#45;&gt;Node6</title>
<path fill="none" stroke="midnightblue" d="M661.51,-224.2C654.08,-215.24 642.39,-200.89 632.9,-188 606.3,-151.91 577.36,-108.01 561.98,-84.26"/>
<polygon fill="midnightblue" stroke="midnightblue" points="564.8,-82.18 556.43,-75.67 558.91,-85.97 564.8,-82.18"/>
</g>
<!-- Node27 -->
<g id="node27" class="node">
<title>Node27</title>
<g id="a_node27"><a xlink:href="_integer_8h.html" target="_top" xlink:title="The Integer specification and body provides a value object type for ints.">
<polygon fill="white" stroke="black" points="641.9,-168.5 641.9,-187.5 695.9,-187.5 695.9,-168.5 641.9,-168.5"/>
<text text-anchor="middle" x="668.9" y="-175.5" font-family="Helvetica,sans-Serif" font-size="10.00">Integer.h</text>
</a>
</g>
</g>
<!-- Node26&#45;&gt;Node27 -->
<g id="edge39" class="edge">
<title>Node26&#45;&gt;Node27</title>
<path fill="none" stroke="midnightblue" d="M668.9,-224.08C668.9,-217.01 668.9,-206.86 668.9,-197.99"/>
<polygon fill="midnightblue" stroke="midnightblue" points="672.4,-197.75 668.9,-187.75 665.4,-197.75 672.4,-197.75"/>
</g>
<!-- Node27&#45;&gt;Node3 -->
<g id="edge41" class="edge">
<title>Node27&#45;&gt;Node3</title>
<path fill="none" stroke="midnightblue" d="M667.62,-168.09C665.47,-155.07 660.31,-130.43 649.9,-112 630.21,-77.16 596.35,-44.58 575.37,-26.28"/>
<polygon fill="midnightblue" stroke="midnightblue" points="577.38,-23.4 567.51,-19.56 572.84,-28.72 577.38,-23.4"/>
</g>
<!-- Node27&#45;&gt;Node6 -->
<g id="edge40" class="edge">
<title>Node27&#45;&gt;Node6</title>
<path fill="none" stroke="midnightblue" d="M664.98,-168.08C658.71,-154.61 645.35,-128.88 627.9,-112 614.16,-98.72 595.78,-87.79 580.42,-80.03"/>
<polygon fill="midnightblue" stroke="midnightblue" points="581.84,-76.82 571.31,-75.61 578.78,-83.12 581.84,-76.82"/>
</g>
<!-- Node27&#45;&gt;Node9 -->
<g id="edge42" class="edge">
<title>Node27&#45;&gt;Node9</title>
<path fill="none" stroke="midnightblue" d="M641.73,-171.87C590.56,-162.21 479.78,-141.29 421.12,-130.22"/>
<polygon fill="midnightblue" stroke="midnightblue" points="421.62,-126.75 411.14,-128.33 420.32,-133.63 421.62,-126.75"/>
</g>
<!-- Node28&#45;&gt;Node16 -->
<g id="edge45" class="edge">
<title>Node28&#45;&gt;Node16</title>
<path fill="none" stroke="midnightblue" d="M807.7,-448.32C817.12,-435.17 831.71,-409.84 819.9,-392 812.01,-380.08 779.88,-367.45 753.04,-358.61"/>
<polygon fill="midnightblue" stroke="midnightblue" points="754.04,-355.25 743.45,-355.53 751.9,-361.92 754.04,-355.25"/>
</g>
<!-- Node29&#45;&gt;Node9 -->
<g id="edge50" class="edge">
<title>Node29&#45;&gt;Node9</title>
<path fill="none" stroke="midnightblue" d="M234.99,-392.43C215.52,-385.46 190.86,-373.83 174.9,-356 154.35,-333.06 150.9,-321.8 150.9,-291 150.9,-291 150.9,-291 150.9,-233 150.9,-190.69 278.48,-150.64 344.42,-132.76"/>
<polygon fill="midnightblue" stroke="midnightblue" points="345.69,-136.05 354.45,-130.09 343.88,-129.29 345.69,-136.05"/>
</g>
<!-- Node29&#45;&gt;Node14 -->
<g id="edge47" class="edge">
<title>Node29&#45;&gt;Node14</title>
<path fill="none" stroke="midnightblue" d="M270.68,-392.08C275.57,-384.53 282.72,-373.49 288.73,-364.23"/>
<polygon fill="midnightblue" stroke="midnightblue" points="291.72,-366.05 294.22,-355.75 285.85,-362.24 291.72,-366.05"/>
</g>
<!-- Node30 -->
<g id="node30" class="node">
<title>Node30</title>
<g id="a_node30"><a xlink:href="_dictionary_8h.html" target="_top" xlink:title="The Dictionary specification defines maps from string keys to string values.">
<polygon fill="white" stroke="black" points="183.9,-336.5 183.9,-355.5 251.9,-355.5 251.9,-336.5 183.9,-336.5"/>
<text text-anchor="middle" x="217.9" y="-343.5" font-family="Helvetica,sans-Serif" font-size="10.00">Dictionary.h</text>
</a>
</g>
</g>
<!-- Node29&#45;&gt;Node30 -->
<g id="edge48" class="edge">
<title>Node29&#45;&gt;Node30</title>
<path fill="none" stroke="midnightblue" d="M257.14,-392.08C250.36,-384.3 240.35,-372.8 232.14,-363.37"/>
<polygon fill="midnightblue" stroke="midnightblue" points="234.72,-361 225.51,-355.75 229.44,-365.59 234.72,-361"/>
</g>
<!-- Node31 -->
<g id="node31" class="node">
<title>Node31</title>
<g id="a_node31"><a xlink:title=" ">
<polygon fill="white" stroke="#bfbfbf" points="179.4,-280.5 179.4,-299.5 256.4,-299.5 256.4,-280.5 179.4,-280.5"/>
<text text-anchor="middle" x="217.9" y="-287.5" font-family="Helvetica,sans-Serif" font-size="10.00">GenericMap.h</text>
</a>
</g>
</g>
<!-- Node30&#45;&gt;Node31 -->
<g id="edge49" class="edge">
<title>Node30&#45;&gt;Node31</title>
<path fill="none" stroke="midnightblue" d="M217.9,-336.08C217.9,-329.01 217.9,-318.86 217.9,-309.99"/>
<polygon fill="midnightblue" stroke="midnightblue" points="221.4,-309.75 217.9,-299.75 214.4,-309.75 221.4,-309.75"/>
</g>
<!-- Node32&#45;&gt;Node17 -->
<g id="edge52" class="edge">
<title>Node32&#45;&gt;Node17</title>
<path fill="none" stroke="midnightblue" d="M1041.56,-336.32C1028.73,-327.98 1009.11,-315.21 993.96,-305.35"/>
<polygon fill="midnightblue" stroke="midnightblue" points="995.49,-302.17 985.2,-299.65 991.67,-308.04 995.49,-302.17"/>
</g>
<!-- Node32&#45;&gt;Node18 -->
<g id="edge53" class="edge">
<title>Node32&#45;&gt;Node18</title>
<path fill="none" stroke="midnightblue" d="M1027.01,-336.44C997.14,-327.28 949.58,-312.69 916.44,-302.52"/>
<polygon fill="midnightblue" stroke="midnightblue" points="917.24,-299.1 906.65,-299.52 915.19,-305.8 917.24,-299.1"/>
</g>
<!-- Node32&#45;&gt;Node26 -->
<g id="edge54" class="edge">
<title>Node32&#45;&gt;Node26</title>
<path fill="none" stroke="midnightblue" d="M1052.61,-336.1C1048.4,-321.67 1037.95,-293.45 1017.9,-280 966.51,-245.54 777.98,-237.44 701.48,-235.56"/>
<polygon fill="midnightblue" stroke="midnightblue" points="701.11,-232.05 691.03,-235.32 700.95,-239.05 701.11,-232.05"/>
</g>
<!-- Node33&#45;&gt;Node9 -->
<g id="edge66" class="edge">
<title>Node33&#45;&gt;Node9</title>
<path fill="none" stroke="midnightblue" d="M632.33,-448.2C638.35,-434.9 647.13,-409.38 635.9,-392 614.73,-359.26 588.62,-377.2 555.9,-356 524.45,-335.63 515.68,-329.73 492.9,-300 469.92,-270.03 474.36,-256.36 454.9,-224 436.22,-192.95 411,-159.09 395.9,-139.53"/>
<polygon fill="midnightblue" stroke="midnightblue" points="398.64,-137.35 389.73,-131.6 393.11,-141.64 398.64,-137.35"/>
</g>
<!-- Node33&#45;&gt;Node19 -->
<g id="edge67" class="edge">
<title>Node33&#45;&gt;Node19</title>
<path fill="none" stroke="midnightblue" d="M623.27,-448.08C619.44,-440.69 613.87,-429.95 609.13,-420.81"/>
<polygon fill="midnightblue" stroke="midnightblue" points="612.14,-419.02 604.43,-411.75 605.93,-422.24 612.14,-419.02"/>
</g>
<!-- Node34 -->
<g id="node34" class="node">
<title>Node34</title>
<g id="a_node34"><a xlink:href="_audio_sample_list_vector_8h.html" target="_top" xlink:title="The AudioSampleListVector specification defines the communication buffer structure for the block proc...">
<polygon fill="white" stroke="black" points="683.4,-392.5 683.4,-411.5 810.4,-411.5 810.4,-392.5 683.4,-392.5"/>
<text text-anchor="middle" x="746.9" y="-399.5" font-family="Helvetica,sans-Serif" font-size="10.00">AudioSampleListVector.h</text>
</a>
</g>
</g>
<!-- Node33&#45;&gt;Node34 -->
<g id="edge56" class="edge">
<title>Node33&#45;&gt;Node34</title>
<path fill="none" stroke="midnightblue" d="M646.75,-448.44C666.16,-439.64 696.63,-425.81 718.86,-415.72"/>
<polygon fill="midnightblue" stroke="midnightblue" points="720.47,-418.84 728.13,-411.52 717.58,-412.46 720.47,-418.84"/>
</g>
<!-- Node35 -->
<g id="node35" class="node">
<title>Node35</title>
<g id="a_node35"><a xlink:href="_audio_sample_list_8h.html" target="_top" xlink:title="The AudioSampleList specification defines lists of audio samples with zero&#45;based arbitrary indexed ac...">
<polygon fill="white" stroke="black" points="564.9,-336.5 564.9,-355.5 662.9,-355.5 662.9,-336.5 564.9,-336.5"/>
<text text-anchor="middle" x="613.9" y="-343.5" font-family="Helvetica,sans-Serif" font-size="10.00">AudioSampleList.h</text>
</a>
</g>
</g>
<!-- Node34&#45;&gt;Node35 -->
<g id="edge57" class="edge">
<title>Node34&#45;&gt;Node35</title>
<path fill="none" stroke="midnightblue" d="M725.82,-392.44C703.84,-383.52 669.16,-369.44 644.23,-359.32"/>
<polygon fill="midnightblue" stroke="midnightblue" points="645.45,-356.04 634.87,-355.52 642.82,-362.52 645.45,-356.04"/>
</g>
<!-- Node40 -->
<g id="node40" class="node">
<title>Node40</title>
<g id="a_node40"><a xlink:href="_audio_sample_list_vector_8cpp-inc.html" target="_top" xlink:title="The AudioSampleListVector body implements the communication buffer structure for the block processing...">
<polygon fill="white" stroke="black" points="765.4,-336.5 765.4,-355.5 918.4,-355.5 918.4,-336.5 765.4,-336.5"/>
<text text-anchor="middle" x="841.9" y="-343.5" font-family="Helvetica,sans-Serif" font-size="10.00">AudioSampleListVector.cpp&#45;inc</text>
</a>
</g>
</g>
<!-- Node34&#45;&gt;Node40 -->
<g id="edge65" class="edge">
<title>Node34&#45;&gt;Node40</title>
<path fill="none" stroke="midnightblue" d="M762.16,-392.32C777.12,-383.82 800.15,-370.73 817.62,-360.8"/>
<polygon fill="midnightblue" stroke="midnightblue" points="819.71,-363.64 826.67,-355.65 816.25,-357.55 819.71,-363.64"/>
</g>
<!-- Node35&#45;&gt;Node18 -->
<g id="edge58" class="edge">
<title>Node35&#45;&gt;Node18</title>
<path fill="none" stroke="midnightblue" d="M655.89,-336.44C703.81,-326.68 782,-310.75 831.91,-300.57"/>
<polygon fill="midnightblue" stroke="midnightblue" points="832.71,-303.98 841.81,-298.56 831.31,-297.13 832.71,-303.98"/>
</g>
<!-- Node36 -->
<g id="node36" class="node">
<title>Node36</title>
<g id="a_node36"><a xlink:href="_audio_sample_8h.html" target="_top" xlink:title="The AudioSample specification and body provides the definition of the audio sample (a real value).">
<polygon fill="white" stroke="black" points="737.4,-280.5 737.4,-299.5 820.4,-299.5 820.4,-280.5 737.4,-280.5"/>
<text text-anchor="middle" x="778.9" y="-287.5" font-family="Helvetica,sans-Serif" font-size="10.00">AudioSample.h</text>
</a>
</g>
</g>
<!-- Node35&#45;&gt;Node36 -->
<g id="edge59" class="edge">
<title>Node35&#45;&gt;Node36</title>
<path fill="none" stroke="midnightblue" d="M640.04,-336.44C667.92,-327.32 712.24,-312.81 743.3,-302.65"/>
<polygon fill="midnightblue" stroke="midnightblue" points="744.46,-305.95 752.87,-299.52 742.28,-299.3 744.46,-305.95"/>
</g>
<!-- Node37 -->
<g id="node37" class="node">
<title>Node37</title>
<g id="a_node37"><a xlink:href="_audio_sample_list_8cpp-inc.html" target="_top" xlink:title="The AudioSampleList body implements a simple list of audio samples (this is the effective code includ...">
<polygon fill="white" stroke="black" points="594.4,-280.5 594.4,-299.5 719.4,-299.5 719.4,-280.5 594.4,-280.5"/>
<text text-anchor="middle" x="656.9" y="-287.5" font-family="Helvetica,sans-Serif" font-size="10.00">AudioSampleList.cpp&#45;inc</text>
</a>
</g>
</g>
<!-- Node35&#45;&gt;Node37 -->
<g id="edge61" class="edge">
<title>Node35&#45;&gt;Node37</title>
<path fill="none" stroke="midnightblue" d="M621,-336.08C627.13,-328.38 636.17,-317.03 643.64,-307.65"/>
<polygon fill="midnightblue" stroke="midnightblue" points="646.44,-309.75 649.93,-299.75 640.96,-305.39 646.44,-309.75"/>
</g>
<!-- Node36&#45;&gt;Node26 -->
<g id="edge60" class="edge">
<title>Node36&#45;&gt;Node26</title>
<path fill="none" stroke="midnightblue" d="M761.22,-280.32C743.5,-271.62 715.99,-258.12 695.61,-248.11"/>
<polygon fill="midnightblue" stroke="midnightblue" points="697.04,-244.92 686.53,-243.65 693.96,-251.2 697.04,-244.92"/>
</g>
<!-- Node38 -->
<g id="node38" class="node">
<title>Node38</title>
<g id="a_node38"><a xlink:href="_my_array_8h.html" target="_top" xlink:title="The MyArray specification and body defines a generic array type for stack allocated arrays represente...">
<polygon fill="white" stroke="black" points="539.9,-224.5 539.9,-243.5 601.9,-243.5 601.9,-224.5 539.9,-224.5"/>
<text text-anchor="middle" x="570.9" y="-231.5" font-family="Helvetica,sans-Serif" font-size="10.00">MyArray.h</text>
</a>
</g>
</g>
<!-- Node37&#45;&gt;Node38 -->
<g id="edge62" class="edge">
<title>Node37&#45;&gt;Node38</title>
<path fill="none" stroke="midnightblue" d="M643.08,-280.32C629.66,-271.9 609.07,-258.97 593.31,-249.07"/>
<polygon fill="midnightblue" stroke="midnightblue" points="595.01,-246.01 584.68,-243.65 591.29,-251.94 595.01,-246.01"/>
</g>
<!-- Node38&#45;&gt;Node9 -->
<g id="edge64" class="edge">
<title>Node38&#45;&gt;Node9</title>
<path fill="none" stroke="midnightblue" d="M556.14,-224.37C523.61,-205.33 445.48,-159.62 406.23,-136.65"/>
<polygon fill="midnightblue" stroke="midnightblue" points="407.98,-133.62 397.58,-131.59 404.44,-139.66 407.98,-133.62"/>
</g>
<!-- Node39 -->
<g id="node39" class="node">
<title>Node39</title>
<g id="a_node39"><a xlink:title=" ">
<polygon fill="white" stroke="#bfbfbf" points="539.9,-168.5 539.9,-187.5 585.9,-187.5 585.9,-168.5 539.9,-168.5"/>
<text text-anchor="middle" x="562.9" y="-175.5" font-family="Helvetica,sans-Serif" font-size="10.00">cstring</text>
</a>
</g>
</g>
<!-- Node38&#45;&gt;Node39 -->
<g id="edge63" class="edge">
<title>Node38&#45;&gt;Node39</title>
<path fill="none" stroke="midnightblue" d="M569.58,-224.08C568.52,-216.93 566.99,-206.64 565.67,-197.69"/>
<polygon fill="midnightblue" stroke="midnightblue" points="569.12,-197.13 564.19,-187.75 562.2,-198.16 569.12,-197.13"/>
</g>
</g>
</svg>
        <g id="navigator" transform="translate(0 0)" fill="#404254">
                <rect fill="#f2f5e9" fill-opacity="0.5" stroke="#606060" stroke-width=".5" x="0" y="0" width="60" height="60"/>
                <use id="zoomplus" xlink:href="#zoomPlus" x="17" y="9" onmousedown="handleZoom(evt,'in')"/>
                <use id="zoomminus" xlink:href="#zoomMin" x="42" y="9" onmousedown="handleZoom(evt,'out')"/>
                <use id="reset" xlink:href="#resetDef" x="30" y="36" onmousedown="handleReset()"/>
                <g id="arrowUp" xlink:href="#dirArrow" transform="translate(30 24)" onmousedown="handlePan(0,-1)">
                  <use xlink:href="#rim" fill="#404040">
                        <set attributeName="fill" to="#808080" begin="arrowUp.mouseover" end="arrowUp.mouseout"/>
                  </use>
                  <path fill="none" stroke="white" stroke-width="1.5" d="M0,-3.0v7 M-2.5,-0.5L0,-3.0L2.5,-0.5"/>
                </g>
                <g id="arrowRight" xlink:href="#dirArrow" transform="rotate(90) translate(36 -43)" onmousedown="handlePan(1,0)">
                  <use xlink:href="#rim" fill="#404040">
                        <set attributeName="fill" to="#808080" begin="arrowRight.mouseover" end="arrowRight.mouseout"/>
                  </use>
                  <path fill="none" stroke="white" stroke-width="1.5" d="M0,-3.0v7 M-2.5,-0.5L0,-3.0L2.5,-0.5"/>
                </g>
                <g id="arrowDown" xlink:href="#dirArrow" transform="rotate(180) translate(-30 -48)" onmousedown="handlePan(0,1)">
                  <use xlink:href="#rim" fill="#404040">
                        <set attributeName="fill" to="#808080" begin="arrowDown.mouseover" end="arrowDown.mouseout"/>
                  </use>
                  <path fill="none" stroke="white" stroke-width="1.5" d="M0,-3.0v7 M-2.5,-0.5L0,-3.0L2.5,-0.5"/>
                </g>
                <g id="arrowLeft" xlink:href="#dirArrow" transform="rotate(270) translate(-36 17)" onmousedown="handlePan(-1,0)">
                  <use xlink:href="#rim" fill="#404040">
                        <set attributeName="fill" to="#808080" begin="arrowLeft.mouseover" end="arrowLeft.mouseout"/>
                  </use>
                  <path fill="none" stroke="white" stroke-width="1.5" d="M0,-3.0v7 M-2.5,-0.5L0,-3.0L2.5,-0.5"/>
                </g>
        </g>
        <svg viewBox="0 0 15 15" width="100%" height="30px" preserveAspectRatio="xMaxYMin meet">
         <g id="arrow_out" transform="scale(0.3 0.3)">
          <a xlink:href="_wave_file_8cpp__incl_org.svg" target="_base">
           <rect id="button" ry="5" rx="5" y="6" x="6" height="38" width="38"
                fill="#f2f5e9" fill-opacity="0.5" stroke="#606060" stroke-width="1.0"/>
           <path id="arrow"
             d="M 11.500037,31.436501 C 11.940474,20.09759 22.043105,11.32322 32.158766,21.979434 L 37.068811,17.246167 C 37.068811,17.246167 37.088388,32 37.088388,32 L 22.160133,31.978069 C 22.160133,31.978069 26.997745,27.140456 26.997745,27.140456 C 18.528582,18.264221 13.291696,25.230495 11.500037,31.436501 z"
             style="fill:#404040;"/>
          </a>
         </g>
        </svg>
</svg>
