<?xml version="1.0" encoding="UTF-8" standalone="no"?>
<!DOCTYPE svg PUBLIC "-//W3C//DTD SVG 1.1//EN"
 "http://www.w3.org/Graphics/SVG/1.1/DTD/svg11.dtd">
<!-- Generated by graphviz version 2.47.1 (20210417.1919)
 -->
<!-- Title: WaveFile.cpp Pages: 1 -->
<!--zoomable 542 -->
<svg id="main" version="1.1" xmlns="http://www.w3.org/2000/svg" xmlns:xlink="http://www.w3.org/1999/xlink" xml:space="preserve" onload="init(evt)">
<style type="text/css"><![CDATA[
.edge:hover path { stroke: red; }
.edge:hover polygon { stroke: red; fill: red; }
]]></style>
<script type="text/javascript"><![CDATA[
var edges = document.getElementsByTagName('g');
if (edges && edges.length) {
  for (var i=0;i<edges.length;i++) {
    if (edges[i].id.substr(0,4)=='edge') {
      edges[i].setAttribute('class','edge');
    }
  }
}
]]></script>
        <defs>
                <circle id="rim" cx="0" cy="0" r="7"/>
                <circle id="rim2" cx="0" cy="0" r="3.5"/>
                <g id="zoomPlus">
                        <use xlink:href="#rim" fill="#404040">
                                <set attributeName="fill" to="#808080" begin="zoomplus.mouseover" end="zoomplus.mouseout"/>
                        </use>
                        <path d="M-4,0h8M0,-4v8" fill="none" stroke="white" stroke-width="1.5" pointer-events="none"/>
                </g>
                <g id="zoomMin">
                        <use xlink:href="#rim" fill="#404040">
                                <set attributeName="fill" to="#808080" begin="zoomminus.mouseover" end="zoomminus.mouseout"/>
                        </use>
                        <path d="M-4,0h8" fill="none" stroke="white" stroke-width="1.5" pointer-events="none"/>
                </g>
                <g id="dirArrow">
                        <path fill="none" stroke="white" stroke-width="1.5" d="M0,-3.0v7 M-2.5,-0.5L0,-3.0L2.5,-0.5"/>
                </g>
               <g id="resetDef">
                       <use xlink:href="#rim2" fill="#404040">
                               <set attributeName="fill" to="#808080" begin="reset.mouseover" end="reset.mouseout"/>
                       </use>
               </g>
        </defs>

<script type="text/javascript">
var viewWidth = 1184;
var viewHeight = 542;
var sectionId = 'dynsection-0';
</script>
<script xlink:href="svgpan.js"/>
<svg id="graph" class="graph">
<g id="viewport">
<title>WaveFile.cpp</title>
<polygon fill="white" stroke="transparent" points="-4,4 -4,-538 1180.5,-538 1180.5,4 -4,4"/>
<!-- Node1 -->
<g id="node1" class="node">
<title>Node1</title>
<g id="a_node1"><a xlink:title="The WaveFile specification defines an object for accessing a RIFF wave file with several channels.">
<polygon fill="#bfbfbf" stroke="black" points="583.5,-513.5 583.5,-533.5 666.5,-533.5 666.5,-513.5 583.5,-513.5"/>
<text text-anchor="middle" x="625" y="-520.7" font-family="Helvetica,sans-Serif" font-size="11.00">WaveFile.cpp</text>
</a>
</g>
</g>
<!-- Node2 -->
<g id="node2" class="node">
<title>Node2</title>
<g id="a_node2"><a xlink:href="_assertion_8h.html" target="_top" xlink:title="The Assertion specification defines macros for pre&#45; and postconditions in functions or methods.">
<polygon fill="white" stroke="black" points="146.5,-57.5 146.5,-77.5 217.5,-77.5 217.5,-57.5 146.5,-57.5"/>
<text text-anchor="middle" x="182" y="-64.7" font-family="Helvetica,sans-Serif" font-size="11.00">Assertion.h</text>
</a>
</g>
</g>
<!-- Node1&#45;&gt;Node2 -->
<g id="edge1" class="edge">
<title>Node1&#45;&gt;Node2</title>
<path fill="none" stroke="midnightblue" d="M583.34,-522.43C458.34,-521.19 90.96,-509.86 24,-420 -61.54,-305.2 106.3,-136.74 163.71,-84.53"/>
<polygon fill="midnightblue" stroke="midnightblue" points="166.23,-86.97 171.33,-77.69 161.55,-81.76 166.23,-86.97"/>
</g>
<!-- Node5 -->
<g id="node5" class="node">
<title>Node5</title>
<g id="a_node5"><a xlink:href="_character_8h.html" target="_top" xlink:title="The Character specification and body provides a value object type for character values.">
<polygon fill="white" stroke="black" points="369,-342.5 369,-362.5 443,-362.5 443,-342.5 369,-342.5"/>
<text text-anchor="middle" x="406" y="-349.7" font-family="Helvetica,sans-Serif" font-size="11.00">Character.h</text>
</a>
</g>
</g>
<!-- Node1&#45;&gt;Node5 -->
<g id="edge4" class="edge">
<title>Node1&#45;&gt;Node5</title>
<path fill="none" stroke="midnightblue" d="M605.91,-513.46C573.47,-497.54 506.51,-462.14 459,-420 442.69,-405.54 427.56,-385.63 417.68,-371.38"/>
<polygon fill="midnightblue" stroke="midnightblue" points="420.48,-369.27 411.98,-362.94 414.68,-373.19 420.48,-369.27"/>
</g>
<!-- Node12 -->
<g id="node12" class="node">
<title>Node12</title>
<g id="a_node12"><a xlink:href="_file_8h.html" target="_top" xlink:title="The File specification defines a class for simple file handling based on C stdio.">
<polygon fill="white" stroke="black" points="720.5,-456.5 720.5,-476.5 763.5,-476.5 763.5,-456.5 720.5,-456.5"/>
<text text-anchor="middle" x="742" y="-463.7" font-family="Helvetica,sans-Serif" font-size="11.00">File.h</text>
</a>
</g>
</g>
<!-- Node1&#45;&gt;Node12 -->
<g id="edge15" class="edge">
<title>Node1&#45;&gt;Node12</title>
<path fill="none" stroke="midnightblue" d="M644.32,-513.42C663.12,-504.58 691.91,-491.05 713.37,-480.96"/>
<polygon fill="midnightblue" stroke="midnightblue" points="715.09,-484.02 722.65,-476.6 712.11,-477.68 715.09,-484.02"/>
</g>
<!-- Node19 -->
<g id="node19" class="node">
<title>Node19</title>
<g id="a_node19"><a xlink:href="_integer_list_8h.html" target="_top" xlink:title="The IntegerList specification defines sequences of integer values with zero&#45;based arbitrary indexed a...">
<polygon fill="white" stroke="black" points="979,-342.5 979,-362.5 1055,-362.5 1055,-342.5 979,-342.5"/>
<text text-anchor="middle" x="1017" y="-349.7" font-family="Helvetica,sans-Serif" font-size="11.00">IntegerList.h</text>
</a>
</g>
</g>
<!-- Node1&#45;&gt;Node19 -->
<g id="edge27" class="edge">
<title>Node1&#45;&gt;Node19</title>
<path fill="none" stroke="midnightblue" d="M666.51,-519.9C737.49,-514.83 878.64,-501.89 921,-477 963.95,-451.76 994.65,-399.26 1008.59,-371.54"/>
<polygon fill="midnightblue" stroke="midnightblue" points="1011.74,-373.07 1012.96,-362.55 1005.44,-370.01 1011.74,-373.07"/>
</g>
<!-- Node20 -->
<g id="node20" class="node">
<title>Node20</title>
<g id="a_node20"><a xlink:href="_logging_8h.html" target="_top" xlink:title="The Logging specification defines macros for entry&#45;, exit&#45; and intermediate logging of functions into...">
<polygon fill="white" stroke="black" points="301,-456.5 301,-476.5 365,-476.5 365,-456.5 301,-456.5"/>
<text text-anchor="middle" x="333" y="-463.7" font-family="Helvetica,sans-Serif" font-size="11.00">Logging.h</text>
</a>
</g>
</g>
<!-- Node1&#45;&gt;Node20 -->
<g id="edge30" class="edge">
<title>Node1&#45;&gt;Node20</title>
<path fill="none" stroke="midnightblue" d="M583.47,-514.68C528.18,-504.26 430.92,-485.94 375.26,-475.46"/>
<polygon fill="midnightblue" stroke="midnightblue" points="375.85,-472.01 365.37,-473.6 374.55,-478.89 375.85,-472.01"/>
</g>
<!-- Node27 -->
<g id="node27" class="node">
<title>Node27</title>
<g id="a_node27"><a xlink:href="_natural_list_8h.html" target="_top" xlink:title="The NaturalList specification defines lists of non&#45;negative integer values with zero&#45;based arbitrary ...">
<polygon fill="white" stroke="black" points="834.5,-456.5 834.5,-476.5 911.5,-476.5 911.5,-456.5 834.5,-456.5"/>
<text text-anchor="middle" x="873" y="-463.7" font-family="Helvetica,sans-Serif" font-size="11.00">NaturalList.h</text>
</a>
</g>
</g>
<!-- Node1&#45;&gt;Node27 -->
<g id="edge46" class="edge">
<title>Node1&#45;&gt;Node27</title>
<path fill="none" stroke="midnightblue" d="M665.67,-513.48C709.2,-503.83 778.22,-488.52 824.54,-478.25"/>
<polygon fill="midnightblue" stroke="midnightblue" points="825.34,-481.65 834.34,-476.07 823.82,-474.82 825.34,-481.65"/>
</g>
<!-- Node28 -->
<g id="node28" class="node">
<title>Node28</title>
<g id="a_node28"><a xlink:href="_operating_system_8h.html" target="_top" xlink:title="The OperatingSystem specification defines a class for several operating system related utility functi...">
<polygon fill="white" stroke="black" points="33.5,-399.5 33.5,-419.5 144.5,-419.5 144.5,-399.5 33.5,-399.5"/>
<text text-anchor="middle" x="89" y="-406.7" font-family="Helvetica,sans-Serif" font-size="11.00">OperatingSystem.h</text>
</a>
</g>
</g>
<!-- Node1&#45;&gt;Node28 -->
<g id="edge48" class="edge">
<title>Node1&#45;&gt;Node28</title>
<path fill="none" stroke="midnightblue" d="M583.29,-519.24C519.8,-513.73 395.35,-500.78 292,-477 230.53,-462.85 161.13,-438.15 121.47,-423.16"/>
<polygon fill="midnightblue" stroke="midnightblue" points="122.64,-419.86 112.05,-419.57 120.15,-426.41 122.64,-419.86"/>
</g>
<!-- Node29 -->
<g id="node29" class="node">
<title>Node29</title>
<g id="a_node29"><a xlink:href="_real_list_8h.html" target="_top" xlink:title="The RealList specification defines lists of real values with zero&#45;based arbitrary indexed access to p...">
<polygon fill="white" stroke="black" points="1111.5,-342.5 1111.5,-362.5 1176.5,-362.5 1176.5,-342.5 1111.5,-342.5"/>
<text text-anchor="middle" x="1144" y="-349.7" font-family="Helvetica,sans-Serif" font-size="11.00">RealList.h</text>
</a>
</g>
</g>
<!-- Node1&#45;&gt;Node29 -->
<g id="edge51" class="edge">
<title>Node1&#45;&gt;Node29</title>
<path fill="none" stroke="midnightblue" d="M666.62,-522.16C729.47,-520.45 851.49,-512.35 948,-477 1019.41,-450.84 1092.27,-395.94 1125.47,-369.03"/>
<polygon fill="midnightblue" stroke="midnightblue" points="1127.88,-371.58 1133.39,-362.53 1123.44,-366.17 1127.88,-371.58"/>
</g>
<!-- Node30 -->
<g id="node30" class="node">
<title>Node30</title>
<g id="a_node30"><a xlink:href="_wave_file_8h.html" target="_top" xlink:title="The WaveFile specification defines an object for accessing a RIFF wave file with several channels.">
<polygon fill="white" stroke="black" points="589.5,-456.5 589.5,-476.5 660.5,-476.5 660.5,-456.5 589.5,-456.5"/>
<text text-anchor="middle" x="625" y="-463.7" font-family="Helvetica,sans-Serif" font-size="11.00">WaveFile.h</text>
</a>
</g>
</g>
<!-- Node1&#45;&gt;Node30 -->
<g id="edge55" class="edge">
<title>Node1&#45;&gt;Node30</title>
<path fill="none" stroke="midnightblue" d="M625,-513.42C625,-506.22 625,-495.9 625,-486.86"/>
<polygon fill="midnightblue" stroke="midnightblue" points="628.5,-486.78 625,-476.78 621.5,-486.78 628.5,-486.78"/>
</g>
<!-- Node3 -->
<g id="node3" class="node">
<title>Node3</title>
<g id="a_node3"><a xlink:title=" ">
<polygon fill="white" stroke="#bfbfbf" points="311,-0.5 311,-20.5 375,-20.5 375,-0.5 311,-0.5"/>
<text text-anchor="middle" x="343" y="-7.7" font-family="Helvetica,sans-Serif" font-size="11.00">stdexcept</text>
</a>
</g>
</g>
<!-- Node2&#45;&gt;Node3 -->
<g id="edge2" class="edge">
<title>Node2&#45;&gt;Node3</title>
<path fill="none" stroke="midnightblue" d="M208.58,-57.42C235.47,-48.23 277.19,-33.98 307.02,-23.79"/>
<polygon fill="midnightblue" stroke="midnightblue" points="308.31,-27.05 316.64,-20.5 306.05,-20.42 308.31,-27.05"/>
</g>
<!-- Node4 -->
<g id="node4" class="node">
<title>Node4</title>
<g id="a_node4"><a xlink:title=" ">
<polygon fill="white" stroke="#bfbfbf" points="159,-0.5 159,-20.5 203,-20.5 203,-0.5 159,-0.5"/>
<text text-anchor="middle" x="181" y="-7.7" font-family="Helvetica,sans-Serif" font-size="11.00">string</text>
</a>
</g>
</g>
<!-- Node2&#45;&gt;Node4 -->
<g id="edge3" class="edge">
<title>Node2&#45;&gt;Node4</title>
<path fill="none" stroke="midnightblue" d="M181.83,-57.42C181.7,-50.22 181.51,-39.9 181.35,-30.86"/>
<polygon fill="midnightblue" stroke="midnightblue" points="184.85,-30.71 181.17,-20.78 177.85,-30.84 184.85,-30.71"/>
</g>
<!-- Node6 -->
<g id="node6" class="node">
<title>Node6</title>
<g id="a_node6"><a xlink:title=" ">
<polygon fill="white" stroke="#bfbfbf" points="493.5,-57.5 493.5,-77.5 540.5,-77.5 540.5,-57.5 493.5,-57.5"/>
<text text-anchor="middle" x="517" y="-64.7" font-family="Helvetica,sans-Serif" font-size="11.00">cmath</text>
</a>
</g>
</g>
<!-- Node5&#45;&gt;Node6 -->
<g id="edge5" class="edge">
<title>Node5&#45;&gt;Node6</title>
<path fill="none" stroke="midnightblue" d="M412.8,-342.37C429.97,-318.83 475.23,-253.63 497,-192 509.49,-156.64 514.23,-112.8 515.99,-88"/>
<polygon fill="midnightblue" stroke="midnightblue" points="519.5,-87.96 516.62,-77.76 512.51,-87.53 519.5,-87.96"/>
</g>
<!-- Node7 -->
<g id="node7" class="node">
<title>Node7</title>
<g id="a_node7"><a xlink:href="_byte_8h.html" target="_top" xlink:title="The Byte specification and body provides a value object type for byte values.">
<polygon fill="white" stroke="black" points="519.5,-228.5 519.5,-248.5 566.5,-248.5 566.5,-228.5 519.5,-228.5"/>
<text text-anchor="middle" x="543" y="-235.7" font-family="Helvetica,sans-Serif" font-size="11.00">Byte.h</text>
</a>
</g>
</g>
<!-- Node5&#45;&gt;Node7 -->
<g id="edge6" class="edge">
<title>Node5&#45;&gt;Node7</title>
<path fill="none" stroke="midnightblue" d="M426.57,-342.49C443.75,-334.4 468.36,-321.43 487,-306 504.36,-291.63 520.52,-271.41 530.97,-257.04"/>
<polygon fill="midnightblue" stroke="midnightblue" points="534.05,-258.75 536.97,-248.57 528.33,-254.7 534.05,-258.75"/>
</g>
<!-- Node7&#45;&gt;Node6 -->
<g id="edge7" class="edge">
<title>Node7&#45;&gt;Node6</title>
<path fill="none" stroke="midnightblue" d="M542.74,-228.42C542.02,-207.86 539.46,-156.24 531,-114 529.21,-105.1 526.38,-95.46 523.73,-87.35"/>
<polygon fill="midnightblue" stroke="midnightblue" points="527,-86.1 520.45,-77.77 520.38,-88.36 527,-86.1"/>
</g>
<!-- Node8 -->
<g id="node8" class="node">
<title>Node8</title>
<g id="a_node8"><a xlink:href="_natural_8h.html" target="_top" xlink:title="The Natural specification and body provides a value object type for naturals (positive integers with ...">
<polygon fill="white" stroke="black" points="246,-114.5 246,-134.5 306,-134.5 306,-114.5 246,-114.5"/>
<text text-anchor="middle" x="276" y="-121.7" font-family="Helvetica,sans-Serif" font-size="11.00">Natural.h</text>
</a>
</g>
</g>
<!-- Node7&#45;&gt;Node8 -->
<g id="edge8" class="edge">
<title>Node7&#45;&gt;Node8</title>
<path fill="none" stroke="midnightblue" d="M519.45,-229.97C494.38,-221.68 453.74,-207.46 420,-192 402.46,-183.96 399.33,-179.48 382,-171 357.77,-159.14 329.7,-147.17 308.53,-138.48"/>
<polygon fill="midnightblue" stroke="midnightblue" points="309.62,-135.15 299.04,-134.62 306.98,-141.63 309.62,-135.15"/>
</g>
<!-- Node8&#45;&gt;Node2 -->
<g id="edge10" class="edge">
<title>Node8&#45;&gt;Node2</title>
<path fill="none" stroke="midnightblue" d="M260.48,-114.42C245.78,-105.82 223.49,-92.78 206.41,-82.78"/>
<polygon fill="midnightblue" stroke="midnightblue" points="207.94,-79.62 197.54,-77.6 204.41,-85.67 207.94,-79.62"/>
</g>
<!-- Node8&#45;&gt;Node6 -->
<g id="edge9" class="edge">
<title>Node8&#45;&gt;Node6</title>
<path fill="none" stroke="midnightblue" d="M306.03,-116.65C351.2,-106.34 436.32,-86.91 483.45,-76.16"/>
<polygon fill="midnightblue" stroke="midnightblue" points="484.49,-79.51 493.46,-73.87 482.94,-72.68 484.49,-79.51"/>
</g>
<!-- Node9 -->
<g id="node9" class="node">
<title>Node9</title>
<g id="a_node9"><a xlink:title=" ">
<polygon fill="white" stroke="#bfbfbf" points="235.5,-57.5 235.5,-77.5 338.5,-77.5 338.5,-57.5 235.5,-57.5"/>
<text text-anchor="middle" x="287" y="-64.7" font-family="Helvetica,sans-Serif" font-size="11.00">GenericNumber.h</text>
</a>
</g>
</g>
<!-- Node8&#45;&gt;Node9 -->
<g id="edge11" class="edge">
<title>Node8&#45;&gt;Node9</title>
<path fill="none" stroke="midnightblue" d="M277.81,-114.42C279.25,-107.22 281.32,-96.9 283.13,-87.86"/>
<polygon fill="midnightblue" stroke="midnightblue" points="286.61,-88.27 285.14,-77.78 279.75,-86.9 286.61,-88.27"/>
</g>
<!-- Node10 -->
<g id="node10" class="node">
<title>Node10</title>
<g id="a_node10"><a xlink:href="_my_string_8h.html" target="_top" xlink:title="The String specification defines a standard string type.">
<polygon fill="white" stroke="black" points="60,-57.5 60,-77.5 128,-77.5 128,-57.5 60,-57.5"/>
<text text-anchor="middle" x="94" y="-64.7" font-family="Helvetica,sans-Serif" font-size="11.00">MyString.h</text>
</a>
</g>
</g>
<!-- Node8&#45;&gt;Node10 -->
<g id="edge12" class="edge">
<title>Node8&#45;&gt;Node10</title>
<path fill="none" stroke="midnightblue" d="M245.94,-114.42C215.29,-105.15 167.57,-90.73 133.79,-80.53"/>
<polygon fill="midnightblue" stroke="midnightblue" points="134.38,-77.05 123.79,-77.5 132.35,-83.75 134.38,-77.05"/>
</g>
<!-- Node10&#45;&gt;Node4 -->
<g id="edge13" class="edge">
<title>Node10&#45;&gt;Node4</title>
<path fill="none" stroke="midnightblue" d="M108.36,-57.42C121.84,-48.9 142.22,-36.02 157.96,-26.06"/>
<polygon fill="midnightblue" stroke="midnightblue" points="160.03,-28.9 166.61,-20.6 156.29,-22.98 160.03,-28.9"/>
</g>
<!-- Node11 -->
<g id="node11" class="node">
<title>Node11</title>
<g id="a_node11"><a xlink:href="_global_macros_8h.html" target="_top" xlink:title="The GlobalMacros specification defines simple macros (e.g. for parameter modes).">
<polygon fill="white" stroke="black" points="48,-0.5 48,-20.5 140,-20.5 140,-0.5 48,-0.5"/>
<text text-anchor="middle" x="94" y="-7.7" font-family="Helvetica,sans-Serif" font-size="11.00">GlobalMacros.h</text>
</a>
</g>
</g>
<!-- Node10&#45;&gt;Node11 -->
<g id="edge14" class="edge">
<title>Node10&#45;&gt;Node11</title>
<path fill="none" stroke="midnightblue" d="M94,-57.42C94,-50.22 94,-39.9 94,-30.86"/>
<polygon fill="midnightblue" stroke="midnightblue" points="97.5,-30.78 94,-20.78 90.5,-30.78 97.5,-30.78"/>
</g>
<!-- Node13 -->
<g id="node13" class="node">
<title>Node13</title>
<g id="a_node13"><a xlink:href="_boolean_8h.html" target="_top" xlink:title="The Boolean specification and body provides a value object type for boolean values.">
<polygon fill="white" stroke="black" points="247.5,-342.5 247.5,-362.5 312.5,-362.5 312.5,-342.5 247.5,-342.5"/>
<text text-anchor="middle" x="280" y="-349.7" font-family="Helvetica,sans-Serif" font-size="11.00">Boolean.h</text>
</a>
</g>
</g>
<!-- Node12&#45;&gt;Node13 -->
<g id="edge16" class="edge">
<title>Node12&#45;&gt;Node13</title>
<path fill="none" stroke="midnightblue" d="M720.34,-462.58C663.1,-454.77 508.8,-433.12 459,-420 405.16,-405.82 344.94,-381.63 309.87,-366.66"/>
<polygon fill="midnightblue" stroke="midnightblue" points="310.82,-363.26 300.25,-362.52 308.05,-369.69 310.82,-363.26"/>
</g>
<!-- Node14 -->
<g id="node14" class="node">
<title>Node14</title>
<g id="a_node14"><a xlink:href="_byte_list_8h.html" target="_top" xlink:title="The ByteList specification defines lists of byte values with zero&#45;based arbitrary indexed access to p...">
<polygon fill="white" stroke="black" points="793.5,-399.5 793.5,-419.5 858.5,-419.5 858.5,-399.5 793.5,-399.5"/>
<text text-anchor="middle" x="826" y="-406.7" font-family="Helvetica,sans-Serif" font-size="11.00">ByteList.h</text>
</a>
</g>
</g>
<!-- Node12&#45;&gt;Node14 -->
<g id="edge18" class="edge">
<title>Node12&#45;&gt;Node14</title>
<path fill="none" stroke="midnightblue" d="M755.87,-456.42C768.76,-447.98 788.19,-435.26 803.33,-425.34"/>
<polygon fill="midnightblue" stroke="midnightblue" points="805.66,-428 812.11,-419.6 801.82,-422.15 805.66,-428"/>
</g>
<!-- Node17 -->
<g id="node17" class="node">
<title>Node17</title>
<g id="a_node17"><a xlink:href="_string_list_8h.html" target="_top" xlink:title="The StringList specification defines lists of string values with zero&#45;based arbitrary indexed access ...">
<polygon fill="white" stroke="black" points="889.5,-342.5 889.5,-362.5 960.5,-362.5 960.5,-342.5 889.5,-342.5"/>
<text text-anchor="middle" x="925" y="-349.7" font-family="Helvetica,sans-Serif" font-size="11.00">StringList.h</text>
</a>
</g>
</g>
<!-- Node12&#45;&gt;Node17 -->
<g id="edge25" class="edge">
<title>Node12&#45;&gt;Node17</title>
<path fill="none" stroke="midnightblue" d="M763.62,-461.26C790.05,-455.31 835.27,-442.6 868,-420 887.06,-406.83 903.63,-385.78 913.91,-370.9"/>
<polygon fill="midnightblue" stroke="midnightblue" points="916.84,-372.81 919.47,-362.55 911.01,-368.93 916.84,-372.81"/>
</g>
<!-- Node18 -->
<g id="node18" class="node">
<title>Node18</title>
<g id="a_node18"><a xlink:href="_object_8h.html" target="_top" xlink:title="The Object specification and body provides the root object type.">
<polygon fill="white" stroke="black" points="713,-399.5 713,-419.5 771,-419.5 771,-399.5 713,-399.5"/>
<text text-anchor="middle" x="742" y="-406.7" font-family="Helvetica,sans-Serif" font-size="11.00">Object.h</text>
</a>
</g>
</g>
<!-- Node12&#45;&gt;Node18 -->
<g id="edge26" class="edge">
<title>Node12&#45;&gt;Node18</title>
<path fill="none" stroke="midnightblue" d="M742,-456.42C742,-449.22 742,-438.9 742,-429.86"/>
<polygon fill="midnightblue" stroke="midnightblue" points="745.5,-429.78 742,-419.78 738.5,-429.78 745.5,-429.78"/>
</g>
<!-- Node13&#45;&gt;Node10 -->
<g id="edge17" class="edge">
<title>Node13&#45;&gt;Node10</title>
<path fill="none" stroke="midnightblue" d="M274.02,-342.4C247.62,-302.24 141.24,-140.38 105.66,-86.24"/>
<polygon fill="midnightblue" stroke="midnightblue" points="108.46,-84.14 100.05,-77.7 102.61,-87.98 108.46,-84.14"/>
</g>
<!-- Node14&#45;&gt;Node7 -->
<g id="edge20" class="edge">
<title>Node14&#45;&gt;Node7</title>
<path fill="none" stroke="midnightblue" d="M802.32,-399.4C780.04,-390.65 745.88,-376.76 717,-363 699.23,-354.53 696.08,-349.78 678,-342 631.14,-321.83 606.03,-341.09 569,-306 555.81,-293.5 549.2,-273.5 545.96,-258.7"/>
<polygon fill="midnightblue" stroke="midnightblue" points="549.35,-257.79 544.08,-248.6 542.47,-259.07 549.35,-257.79"/>
</g>
<!-- Node15 -->
<g id="node15" class="node">
<title>Node15</title>
<g id="a_node15"><a xlink:title=" ">
<polygon fill="white" stroke="#bfbfbf" points="1041,-285.5 1041,-305.5 1119,-305.5 1119,-285.5 1041,-285.5"/>
<text text-anchor="middle" x="1080" y="-292.7" font-family="Helvetica,sans-Serif" font-size="11.00">initializer_list</text>
</a>
</g>
</g>
<!-- Node14&#45;&gt;Node15 -->
<g id="edge19" class="edge">
<title>Node14&#45;&gt;Node15</title>
<path fill="none" stroke="midnightblue" d="M858.61,-406.55C916.75,-402.41 1034.93,-390.73 1064,-363 1076.6,-350.98 1080.01,-330.92 1080.63,-315.96"/>
<polygon fill="midnightblue" stroke="midnightblue" points="1084.13,-315.75 1080.66,-305.74 1077.13,-315.73 1084.13,-315.75"/>
</g>
<!-- Node16 -->
<g id="node16" class="node">
<title>Node16</title>
<g id="a_node16"><a xlink:title=" ">
<polygon fill="white" stroke="#bfbfbf" points="941.5,-285.5 941.5,-305.5 1022.5,-305.5 1022.5,-285.5 941.5,-285.5"/>
<text text-anchor="middle" x="982" y="-292.7" font-family="Helvetica,sans-Serif" font-size="11.00">GenericList.h</text>
</a>
</g>
</g>
<!-- Node14&#45;&gt;Node16 -->
<g id="edge21" class="edge">
<title>Node14&#45;&gt;Node16</title>
<path fill="none" stroke="midnightblue" d="M831.69,-399.19C840.66,-385.17 859.32,-358.53 881,-342 899.79,-327.67 923.82,-316.61 943.72,-308.99"/>
<polygon fill="midnightblue" stroke="midnightblue" points="944.95,-312.27 953.12,-305.52 942.52,-305.7 944.95,-312.27"/>
</g>
<!-- Node14&#45;&gt;Node17 -->
<g id="edge22" class="edge">
<title>Node14&#45;&gt;Node17</title>
<path fill="none" stroke="midnightblue" d="M842.35,-399.42C857.97,-390.74 881.74,-377.53 899.78,-367.51"/>
<polygon fill="midnightblue" stroke="midnightblue" points="901.58,-370.51 908.63,-362.6 898.18,-364.39 901.58,-370.51"/>
</g>
<!-- Node17&#45;&gt;Node15 -->
<g id="edge23" class="edge">
<title>Node17&#45;&gt;Node15</title>
<path fill="none" stroke="midnightblue" d="M950.59,-342.42C976.36,-333.27 1016.29,-319.1 1044.98,-308.92"/>
<polygon fill="midnightblue" stroke="midnightblue" points="1046.37,-312.15 1054.62,-305.5 1044.03,-305.55 1046.37,-312.15"/>
</g>
<!-- Node17&#45;&gt;Node16 -->
<g id="edge24" class="edge">
<title>Node17&#45;&gt;Node16</title>
<path fill="none" stroke="midnightblue" d="M934.41,-342.42C942.69,-334.42 954.96,-322.59 964.96,-312.94"/>
<polygon fill="midnightblue" stroke="midnightblue" points="967.62,-315.24 972.38,-305.78 962.75,-310.2 967.62,-315.24"/>
</g>
<!-- Node19&#45;&gt;Node15 -->
<g id="edge28" class="edge">
<title>Node19&#45;&gt;Node15</title>
<path fill="none" stroke="midnightblue" d="M1027.4,-342.42C1036.74,-334.27 1050.65,-322.12 1061.82,-312.37"/>
<polygon fill="midnightblue" stroke="midnightblue" points="1064.14,-314.99 1069.37,-305.78 1059.53,-309.72 1064.14,-314.99"/>
</g>
<!-- Node19&#45;&gt;Node16 -->
<g id="edge29" class="edge">
<title>Node19&#45;&gt;Node16</title>
<path fill="none" stroke="midnightblue" d="M1011.22,-342.42C1006.38,-334.82 999.34,-323.75 993.38,-314.39"/>
<polygon fill="midnightblue" stroke="midnightblue" points="996.22,-312.34 987.9,-305.78 990.32,-316.1 996.22,-312.34"/>
</g>
<!-- Node21 -->
<g id="node21" class="node">
<title>Node21</title>
<g id="a_node21"><a xlink:title=" ">
<polygon fill="white" stroke="#bfbfbf" points="162.5,-399.5 162.5,-419.5 215.5,-419.5 215.5,-399.5 162.5,-399.5"/>
<text text-anchor="middle" x="189" y="-406.7" font-family="Helvetica,sans-Serif" font-size="11.00">cstdarg</text>
</a>
</g>
</g>
<!-- Node20&#45;&gt;Node21 -->
<g id="edge31" class="edge">
<title>Node20&#45;&gt;Node21</title>
<path fill="none" stroke="midnightblue" d="M309.22,-456.42C285.56,-447.38 249.05,-433.44 222.47,-423.28"/>
<polygon fill="midnightblue" stroke="midnightblue" points="223.4,-419.89 212.81,-419.6 220.91,-426.43 223.4,-419.89"/>
</g>
<!-- Node22 -->
<g id="node22" class="node">
<title>Node22</title>
<g id="a_node22"><a xlink:href="_logging_support_8h.html" target="_top" xlink:title="The LoggingSupport specification defines a class for simple entry/exit logging to a file or via an ar...">
<polygon fill="white" stroke="black" points="234,-399.5 234,-419.5 336,-419.5 336,-399.5 234,-399.5"/>
<text text-anchor="middle" x="285" y="-406.7" font-family="Helvetica,sans-Serif" font-size="11.00">LoggingSupport.h</text>
</a>
</g>
</g>
<!-- Node20&#45;&gt;Node22 -->
<g id="edge32" class="edge">
<title>Node20&#45;&gt;Node22</title>
<path fill="none" stroke="midnightblue" d="M325.07,-456.42C318.23,-448.58 308.18,-437.06 299.85,-427.51"/>
<polygon fill="midnightblue" stroke="midnightblue" points="302.31,-425.01 293.1,-419.78 297.03,-429.62 302.31,-425.01"/>
</g>
<!-- Node23 -->
<g id="node23" class="node">
<title>Node23</title>
<g id="a_node23"><a xlink:href="_string_util_8h.html" target="_top" xlink:title="The StringUtil specification defines several string routines not included in the standard C++ library...">
<polygon fill="white" stroke="black" points="468.5,-399.5 468.5,-419.5 537.5,-419.5 537.5,-399.5 468.5,-399.5"/>
<text text-anchor="middle" x="503" y="-406.7" font-family="Helvetica,sans-Serif" font-size="11.00">StringUtil.h</text>
</a>
</g>
</g>
<!-- Node20&#45;&gt;Node23 -->
<g id="edge35" class="edge">
<title>Node20&#45;&gt;Node23</title>
<path fill="none" stroke="midnightblue" d="M361.07,-456.42C389.58,-447.19 433.9,-432.86 465.42,-422.66"/>
<polygon fill="midnightblue" stroke="midnightblue" points="466.73,-425.91 475.17,-419.5 464.58,-419.25 466.73,-425.91"/>
</g>
<!-- Node22&#45;&gt;Node8 -->
<g id="edge34" class="edge">
<title>Node22&#45;&gt;Node8</title>
<path fill="none" stroke="midnightblue" d="M272.42,-399.4C261.78,-391.07 246.87,-377.81 238,-363 222.2,-336.63 219,-327.24 219,-296.5 219,-296.5 219,-296.5 219,-237.5 219,-200.46 244.06,-163.3 260.95,-142.46"/>
<polygon fill="midnightblue" stroke="midnightblue" points="263.82,-144.48 267.59,-134.58 258.47,-139.97 263.82,-144.48"/>
</g>
<!-- Node22&#45;&gt;Node13 -->
<g id="edge33" class="edge">
<title>Node22&#45;&gt;Node13</title>
<path fill="none" stroke="midnightblue" d="M284.17,-399.42C283.52,-392.22 282.58,-381.9 281.76,-372.86"/>
<polygon fill="midnightblue" stroke="midnightblue" points="285.23,-372.42 280.84,-362.78 278.26,-373.06 285.23,-372.42"/>
</g>
<!-- Node23&#45;&gt;Node5 -->
<g id="edge37" class="edge">
<title>Node23&#45;&gt;Node5</title>
<path fill="none" stroke="midnightblue" d="M486.98,-399.42C471.82,-390.82 448.81,-377.78 431.19,-367.78"/>
<polygon fill="midnightblue" stroke="midnightblue" points="432.46,-364.48 422.04,-362.6 429.01,-370.57 432.46,-364.48"/>
</g>
<!-- Node23&#45;&gt;Node13 -->
<g id="edge36" class="edge">
<title>Node23&#45;&gt;Node13</title>
<path fill="none" stroke="midnightblue" d="M468.15,-399.91C428.8,-390.2 364.76,-374.41 322.5,-363.98"/>
<polygon fill="midnightblue" stroke="midnightblue" points="323.33,-360.58 312.78,-361.59 321.65,-367.38 323.33,-360.58"/>
</g>
<!-- Node23&#45;&gt;Node17 -->
<g id="edge45" class="edge">
<title>Node23&#45;&gt;Node17</title>
<path fill="none" stroke="midnightblue" d="M537.53,-400.73C540.72,-400.1 543.92,-399.52 547,-399 579.12,-393.61 785.87,-369.55 879.29,-358.76"/>
<polygon fill="midnightblue" stroke="midnightblue" points="879.77,-362.23 889.31,-357.6 878.97,-355.27 879.77,-362.23"/>
</g>
<!-- Node24 -->
<g id="node24" class="node">
<title>Node24</title>
<g id="a_node24"><a xlink:href="_percentage_8h.html" target="_top" xlink:title="The Percentage specification and body provides a simple percentage type.">
<polygon fill="white" stroke="black" points="733,-285.5 733,-305.5 815,-305.5 815,-285.5 733,-285.5"/>
<text text-anchor="middle" x="774" y="-292.7" font-family="Helvetica,sans-Serif" font-size="11.00">Percentage.h</text>
</a>
</g>
</g>
<!-- Node23&#45;&gt;Node24 -->
<g id="edge38" class="edge">
<title>Node23&#45;&gt;Node24</title>
<path fill="none" stroke="midnightblue" d="M496.87,-399.12C488.51,-385.01 476.06,-358.25 490,-342 522.45,-304.18 656.86,-313.7 722.52,-305.92"/>
<polygon fill="midnightblue" stroke="midnightblue" points="723.41,-309.32 732.82,-304.44 722.42,-302.39 723.41,-309.32"/>
</g>
<!-- Node25 -->
<g id="node25" class="node">
<title>Node25</title>
<g id="a_node25"><a xlink:href="_real_8h.html" target="_top" xlink:title="The Real specification defines a value object type for real values.">
<polygon fill="white" stroke="black" points="750,-228.5 750,-248.5 798,-248.5 798,-228.5 750,-228.5"/>
<text text-anchor="middle" x="774" y="-235.7" font-family="Helvetica,sans-Serif" font-size="11.00">Real.h</text>
</a>
</g>
</g>
<!-- Node24&#45;&gt;Node25 -->
<g id="edge39" class="edge">
<title>Node24&#45;&gt;Node25</title>
<path fill="none" stroke="midnightblue" d="M774,-285.42C774,-278.22 774,-267.9 774,-258.86"/>
<polygon fill="midnightblue" stroke="midnightblue" points="777.5,-258.78 774,-248.78 770.5,-258.78 777.5,-258.78"/>
</g>
<!-- Node25&#45;&gt;Node6 -->
<g id="edge40" class="edge">
<title>Node25&#45;&gt;Node6</title>
<path fill="none" stroke="midnightblue" d="M760.18,-228.41C718.08,-200.73 591.15,-117.26 539.36,-83.21"/>
<polygon fill="midnightblue" stroke="midnightblue" points="541.16,-80.2 530.88,-77.63 537.32,-86.05 541.16,-80.2"/>
</g>
<!-- Node26 -->
<g id="node26" class="node">
<title>Node26</title>
<g id="a_node26"><a xlink:href="_integer_8h.html" target="_top" xlink:title="The Integer specification and body provides a value object type for ints.">
<polygon fill="white" stroke="black" points="429.5,-171.5 429.5,-191.5 488.5,-191.5 488.5,-171.5 429.5,-171.5"/>
<text text-anchor="middle" x="459" y="-178.7" font-family="Helvetica,sans-Serif" font-size="11.00">Integer.h</text>
</a>
</g>
</g>
<!-- Node25&#45;&gt;Node26 -->
<g id="edge41" class="edge">
<title>Node25&#45;&gt;Node26</title>
<path fill="none" stroke="midnightblue" d="M749.8,-233.28C695.79,-223.84 564.93,-201 498.75,-189.44"/>
<polygon fill="midnightblue" stroke="midnightblue" points="499.15,-185.96 488.7,-187.69 497.95,-192.85 499.15,-185.96"/>
</g>
<!-- Node26&#45;&gt;Node3 -->
<g id="edge43" class="edge">
<title>Node26&#45;&gt;Node3</title>
<path fill="none" stroke="midnightblue" d="M452.76,-171.41C434.27,-144.48 379.53,-64.72 355.05,-29.06"/>
<polygon fill="midnightblue" stroke="midnightblue" points="357.81,-26.9 349.27,-20.63 352.04,-30.86 357.81,-26.9"/>
</g>
<!-- Node26&#45;&gt;Node6 -->
<g id="edge42" class="edge">
<title>Node26&#45;&gt;Node6</title>
<path fill="none" stroke="midnightblue" d="M463.74,-171.33C473.3,-152.88 495.03,-110.92 507.58,-86.69"/>
<polygon fill="midnightblue" stroke="midnightblue" points="510.7,-88.28 512.19,-77.79 504.48,-85.06 510.7,-88.28"/>
</g>
<!-- Node26&#45;&gt;Node8 -->
<g id="edge44" class="edge">
<title>Node26&#45;&gt;Node8</title>
<path fill="none" stroke="midnightblue" d="M429.19,-171.54C398.31,-162.26 349.88,-147.71 315.76,-137.45"/>
<polygon fill="midnightblue" stroke="midnightblue" points="316.68,-134.07 306.1,-134.55 314.67,-140.78 316.68,-134.07"/>
</g>
<!-- Node27&#45;&gt;Node17 -->
<g id="edge47" class="edge">
<title>Node27&#45;&gt;Node17</title>
<path fill="none" stroke="midnightblue" d="M879.37,-456.41C885.46,-447.44 894.64,-433.2 901,-420 908.48,-404.47 914.98,-385.96 919.32,-372.42"/>
<polygon fill="midnightblue" stroke="midnightblue" points="922.69,-373.37 922.31,-362.78 916,-371.29 922.69,-373.37"/>
</g>
<!-- Node28&#45;&gt;Node8 -->
<g id="edge50" class="edge">
<title>Node28&#45;&gt;Node8</title>
<path fill="none" stroke="midnightblue" d="M89,-399.5C89,-380.48 89,-334.81 89,-296.5 89,-296.5 89,-296.5 89,-237.5 89,-169.6 180.87,-141.86 235.82,-131.34"/>
<polygon fill="midnightblue" stroke="midnightblue" points="236.73,-134.73 245.95,-129.52 235.49,-127.84 236.73,-134.73"/>
</g>
<!-- Node28&#45;&gt;Node13 -->
<g id="edge49" class="edge">
<title>Node28&#45;&gt;Node13</title>
<path fill="none" stroke="midnightblue" d="M120.54,-399.42C152.84,-390.12 203.22,-375.61 238.69,-365.39"/>
<polygon fill="midnightblue" stroke="midnightblue" points="240.09,-368.63 248.73,-362.5 238.15,-361.91 240.09,-368.63"/>
</g>
<!-- Node29&#45;&gt;Node15 -->
<g id="edge52" class="edge">
<title>Node29&#45;&gt;Node15</title>
<path fill="none" stroke="midnightblue" d="M1133.43,-342.42C1123.94,-334.27 1109.81,-322.12 1098.46,-312.37"/>
<polygon fill="midnightblue" stroke="midnightblue" points="1100.66,-309.64 1090.8,-305.78 1096.1,-314.95 1100.66,-309.64"/>
</g>
<!-- Node29&#45;&gt;Node16 -->
<g id="edge53" class="edge">
<title>Node29&#45;&gt;Node16</title>
<path fill="none" stroke="midnightblue" d="M1117.25,-342.42C1090.2,-333.23 1048.21,-318.98 1018.2,-308.79"/>
<polygon fill="midnightblue" stroke="midnightblue" points="1019.11,-305.4 1008.52,-305.5 1016.86,-312.03 1019.11,-305.4"/>
</g>
<!-- Node29&#45;&gt;Node25 -->
<g id="edge54" class="edge">
<title>Node29&#45;&gt;Node25</title>
<path fill="none" stroke="midnightblue" d="M1144.77,-342.14C1145.41,-327.56 1144.26,-299.59 1128,-285 1081.47,-243.26 888.4,-239.05 808.67,-239.14"/>
<polygon fill="midnightblue" stroke="midnightblue" points="808.19,-235.64 798.2,-239.18 808.21,-242.64 808.19,-235.64"/>
</g>
<!-- Node30&#45;&gt;Node8 -->
<g id="edge66" class="edge">
<title>Node30&#45;&gt;Node8</title>
<path fill="none" stroke="midnightblue" d="M589.44,-461.69C532.72,-453.73 421.89,-430.06 360,-363 300.36,-298.39 282.59,-188.79 277.7,-144.71"/>
<polygon fill="midnightblue" stroke="midnightblue" points="281.17,-144.14 276.68,-134.54 274.2,-144.84 281.17,-144.14"/>
</g>
<!-- Node30&#45;&gt;Node18 -->
<g id="edge67" class="edge">
<title>Node30&#45;&gt;Node18</title>
<path fill="none" stroke="midnightblue" d="M644.32,-456.42C663.12,-447.58 691.91,-434.05 713.37,-423.96"/>
<polygon fill="midnightblue" stroke="midnightblue" points="715.09,-427.02 722.65,-419.6 712.11,-420.68 715.09,-427.02"/>
</g>
<!-- Node31 -->
<g id="node31" class="node">
<title>Node31</title>
<g id="a_node31"><a xlink:href="_audio_sample_list_vector_8h.html" target="_top" xlink:title="The AudioSampleListVector specification defines the communication buffer structure for the block proc...">
<polygon fill="white" stroke="black" points="555.5,-399.5 555.5,-419.5 694.5,-419.5 694.5,-399.5 555.5,-399.5"/>
<text text-anchor="middle" x="625" y="-406.7" font-family="Helvetica,sans-Serif" font-size="11.00">AudioSampleListVector.h</text>
</a>
</g>
</g>
<!-- Node30&#45;&gt;Node31 -->
<g id="edge56" class="edge">
<title>Node30&#45;&gt;Node31</title>
<path fill="none" stroke="midnightblue" d="M625,-456.42C625,-449.22 625,-438.9 625,-429.86"/>
<polygon fill="midnightblue" stroke="midnightblue" points="628.5,-429.78 625,-419.78 621.5,-429.78 628.5,-429.78"/>
</g>
<!-- Node32 -->
<g id="node32" class="node">
<title>Node32</title>
<g id="a_node32"><a xlink:href="_audio_sample_list_8h.html" target="_top" xlink:title="The AudioSampleList specification defines lists of audio samples with zero&#45;based arbitrary indexed ac...">
<polygon fill="white" stroke="black" points="725.5,-342.5 725.5,-362.5 832.5,-362.5 832.5,-342.5 725.5,-342.5"/>
<text text-anchor="middle" x="779" y="-349.7" font-family="Helvetica,sans-Serif" font-size="11.00">AudioSampleList.h</text>
</a>
</g>
</g>
<!-- Node31&#45;&gt;Node32 -->
<g id="edge57" class="edge">
<title>Node31&#45;&gt;Node32</title>
<path fill="none" stroke="midnightblue" d="M650.43,-399.42C676.03,-390.27 715.71,-376.1 744.21,-365.92"/>
<polygon fill="midnightblue" stroke="midnightblue" points="745.55,-369.16 753.79,-362.5 743.19,-362.57 745.55,-369.16"/>
</g>
<!-- Node37 -->
<g id="node37" class="node">
<title>Node37</title>
<g id="a_node37"><a xlink:href="_audio_sample_list_vector_8cpp-inc.html" target="_top" xlink:title="The AudioSampleListVector body implements the communication buffer structure for the block processing...">
<polygon fill="white" stroke="black" points="499.5,-342.5 499.5,-362.5 668.5,-362.5 668.5,-342.5 499.5,-342.5"/>
<text text-anchor="middle" x="584" y="-349.7" font-family="Helvetica,sans-Serif" font-size="11.00">AudioSampleListVector.cpp&#45;inc</text>
</a>
</g>
</g>
<!-- Node31&#45;&gt;Node37 -->
<g id="edge65" class="edge">
<title>Node31&#45;&gt;Node37</title>
<path fill="none" stroke="midnightblue" d="M618.23,-399.42C612.45,-391.66 603.97,-380.29 596.9,-370.8"/>
<polygon fill="midnightblue" stroke="midnightblue" points="599.7,-368.71 590.92,-362.78 594.09,-372.89 599.7,-368.71"/>
</g>
<!-- Node32&#45;&gt;Node16 -->
<g id="edge58" class="edge">
<title>Node32&#45;&gt;Node16</title>
<path fill="none" stroke="midnightblue" d="M812.52,-342.42C847.15,-333.04 901.32,-318.36 939.06,-308.13"/>
<polygon fill="midnightblue" stroke="midnightblue" points="940.03,-311.5 948.76,-305.5 938.2,-304.74 940.03,-311.5"/>
</g>
<!-- Node33 -->
<g id="node33" class="node">
<title>Node33</title>
<g id="a_node33"><a xlink:href="_audio_sample_8h.html" target="_top" xlink:title="The AudioSample specification and body provides the definition of the audio sample (a real value).">
<polygon fill="white" stroke="black" points="833,-285.5 833,-305.5 923,-305.5 923,-285.5 833,-285.5"/>
<text text-anchor="middle" x="878" y="-292.7" font-family="Helvetica,sans-Serif" font-size="11.00">AudioSample.h</text>
</a>
</g>
</g>
<!-- Node32&#45;&gt;Node33 -->
<g id="edge59" class="edge">
<title>Node32&#45;&gt;Node33</title>
<path fill="none" stroke="midnightblue" d="M795.35,-342.42C810.97,-333.74 834.74,-320.53 852.78,-310.51"/>
<polygon fill="midnightblue" stroke="midnightblue" points="854.58,-313.51 861.63,-305.6 851.18,-307.39 854.58,-313.51"/>
</g>
<!-- Node34 -->
<g id="node34" class="node">
<title>Node34</title>
<g id="a_node34"><a xlink:href="_audio_sample_list_8cpp-inc.html" target="_top" xlink:title="The AudioSampleList body implements a simple list of audio samples (this is the effective code includ...">
<polygon fill="white" stroke="black" points="577.5,-285.5 577.5,-305.5 714.5,-305.5 714.5,-285.5 577.5,-285.5"/>
<text text-anchor="middle" x="646" y="-292.7" font-family="Helvetica,sans-Serif" font-size="11.00">AudioSampleList.cpp&#45;inc</text>
</a>
</g>
</g>
<!-- Node32&#45;&gt;Node34 -->
<g id="edge61" class="edge">
<title>Node32&#45;&gt;Node34</title>
<path fill="none" stroke="midnightblue" d="M757.04,-342.42C735.28,-333.42 701.76,-319.56 677.23,-309.42"/>
<polygon fill="midnightblue" stroke="midnightblue" points="678.57,-306.18 667.99,-305.6 675.9,-312.65 678.57,-306.18"/>
</g>
<!-- Node33&#45;&gt;Node25 -->
<g id="edge60" class="edge">
<title>Node33&#45;&gt;Node25</title>
<path fill="none" stroke="midnightblue" d="M860.82,-285.42C844.34,-276.7 819.21,-263.41 800.22,-253.37"/>
<polygon fill="midnightblue" stroke="midnightblue" points="801.67,-250.18 791.2,-248.6 798.4,-256.36 801.67,-250.18"/>
</g>
<!-- Node35 -->
<g id="node35" class="node">
<title>Node35</title>
<g id="a_node35"><a xlink:href="_my_array_8h.html" target="_top" xlink:title="The MyArray specification and body defines a generic array type for stack allocated arrays represente...">
<polygon fill="white" stroke="black" points="315.5,-228.5 315.5,-248.5 380.5,-248.5 380.5,-228.5 315.5,-228.5"/>
<text text-anchor="middle" x="348" y="-235.7" font-family="Helvetica,sans-Serif" font-size="11.00">MyArray.h</text>
</a>
</g>
</g>
<!-- Node34&#45;&gt;Node35 -->
<g id="edge62" class="edge">
<title>Node34&#45;&gt;Node35</title>
<path fill="none" stroke="midnightblue" d="M597.12,-285.48C539.73,-274.89 445.44,-257.48 390.81,-247.4"/>
<polygon fill="midnightblue" stroke="midnightblue" points="391.23,-243.92 380.76,-245.55 389.96,-250.8 391.23,-243.92"/>
</g>
<!-- Node35&#45;&gt;Node8 -->
<g id="edge64" class="edge">
<title>Node35&#45;&gt;Node8</title>
<path fill="none" stroke="midnightblue" d="M340.62,-228.33C333.49,-219.31 322.54,-205.03 314,-192 303.55,-176.07 292.9,-157.15 285.54,-143.57"/>
<polygon fill="midnightblue" stroke="midnightblue" points="288.62,-141.91 280.82,-134.75 282.45,-145.21 288.62,-141.91"/>
</g>
<!-- Node36 -->
<g id="node36" class="node">
<title>Node36</title>
<g id="a_node36"><a xlink:title=" ">
<polygon fill="white" stroke="#bfbfbf" points="323,-171.5 323,-191.5 373,-191.5 373,-171.5 323,-171.5"/>
<text text-anchor="middle" x="348" y="-178.7" font-family="Helvetica,sans-Serif" font-size="11.00">cstring</text>
</a>
</g>
</g>
<!-- Node35&#45;&gt;Node36 -->
<g id="edge63" class="edge">
<title>Node35&#45;&gt;Node36</title>
<path fill="none" stroke="midnightblue" d="M348,-228.42C348,-221.22 348,-210.9 348,-201.86"/>
<polygon fill="midnightblue" stroke="midnightblue" points="351.5,-201.78 348,-191.78 344.5,-201.78 351.5,-201.78"/>
</g>
</g>
</svg>
        <g id="navigator" transform="translate(0 0)" fill="#404254">
                <rect fill="#f2f5e9" fill-opacity="0.5" stroke="#606060" stroke-width=".5" x="0" y="0" width="60" height="60"/>
                <use id="zoomplus" xlink:href="#zoomPlus" x="17" y="9" onmousedown="handleZoom(evt,'in')"/>
                <use id="zoomminus" xlink:href="#zoomMin" x="42" y="9" onmousedown="handleZoom(evt,'out')"/>
                <use id="reset" xlink:href="#resetDef" x="30" y="36" onmousedown="handleReset()"/>
                <g id="arrowUp" xlink:href="#dirArrow" transform="translate(30 24)" onmousedown="handlePan(0,-1)">
                  <use xlink:href="#rim" fill="#404040">
                        <set attributeName="fill" to="#808080" begin="arrowUp.mouseover" end="arrowUp.mouseout"/>
                  </use>
                  <path fill="none" stroke="white" stroke-width="1.5" d="M0,-3.0v7 M-2.5,-0.5L0,-3.0L2.5,-0.5"/>
                </g>
                <g id="arrowRight" xlink:href="#dirArrow" transform="rotate(90) translate(36 -43)" onmousedown="handlePan(1,0)">
                  <use xlink:href="#rim" fill="#404040">
                        <set attributeName="fill" to="#808080" begin="arrowRight.mouseover" end="arrowRight.mouseout"/>
                  </use>
                  <path fill="none" stroke="white" stroke-width="1.5" d="M0,-3.0v7 M-2.5,-0.5L0,-3.0L2.5,-0.5"/>
                </g>
                <g id="arrowDown" xlink:href="#dirArrow" transform="rotate(180) translate(-30 -48)" onmousedown="handlePan(0,1)">
                  <use xlink:href="#rim" fill="#404040">
                        <set attributeName="fill" to="#808080" begin="arrowDown.mouseover" end="arrowDown.mouseout"/>
                  </use>
                  <path fill="none" stroke="white" stroke-width="1.5" d="M0,-3.0v7 M-2.5,-0.5L0,-3.0L2.5,-0.5"/>
                </g>
                <g id="arrowLeft" xlink:href="#dirArrow" transform="rotate(270) translate(-36 17)" onmousedown="handlePan(-1,0)">
                  <use xlink:href="#rim" fill="#404040">
                        <set attributeName="fill" to="#808080" begin="arrowLeft.mouseover" end="arrowLeft.mouseout"/>
                  </use>
                  <path fill="none" stroke="white" stroke-width="1.5" d="M0,-3.0v7 M-2.5,-0.5L0,-3.0L2.5,-0.5"/>
                </g>
        </g>
        <svg viewBox="0 0 15 15" width="100%" height="30px" preserveAspectRatio="xMaxYMin meet">
         <g id="arrow_out" transform="scale(0.3 0.3)">
          <a xlink:href="_wave_file_8cpp__incl_org.svg" target="_base">
           <rect id="button" ry="5" rx="5" y="6" x="6" height="38" width="38"
                fill="#f2f5e9" fill-opacity="0.5" stroke="#606060" stroke-width="1.0"/>
           <path id="arrow"
             d="M 11.500037,31.436501 C 11.940474,20.09759 22.043105,11.32322 32.158766,21.979434 L 37.068811,17.246167 C 37.068811,17.246167 37.088388,32 37.088388,32 L 22.160133,31.978069 C 22.160133,31.978069 26.997745,27.140456 26.997745,27.140456 C 18.528582,18.264221 13.291696,25.230495 11.500037,31.436501 z"
             style="fill:#404040;"/>
          </a>
         </g>
        </svg>
</svg>
