<?xml version="1.0" encoding="UTF-8" standalone="no"?>
<!DOCTYPE svg PUBLIC "-//W3C//DTD SVG 1.1//EN"
 "http://www.w3.org/Graphics/SVG/1.1/DTD/svg11.dtd">
<!-- Generated by graphviz version 2.47.1 (20210417.1919)
 -->
<!-- Title: MIDI Pages: 1 -->
<svg width="207pt" height="367pt"
 viewBox="0.00 0.00 207.38 367.00" xmlns="http://www.w3.org/2000/svg" xmlns:xlink="http://www.w3.org/1999/xlink">
<g id="graph0" class="graph" transform="scale(1 1) rotate(0) translate(4 363)">
<title>MIDI</title>
<polygon fill="white" stroke="transparent" points="-4,4 -4,-363 203.38,-363 203.38,4 -4,4"/>
<g id="clust1" class="cluster">
<title>clusterdir_68267d1309a1af8e8297ef4c3efbcdba</title>
<g id="a_clust1"><a xlink:href="dir_68267d1309a1af8e8297ef4c3efbcdba.html" target="_top" xlink:title="src">
<polygon fill="#ddddee" stroke="black" points="32.38,-280 32.38,-351 102.38,-351 102.38,-280 32.38,-280"/>
<text text-anchor="middle" x="67.38" y="-339" font-family="Helvetica,sans-Serif" font-size="10.00">src</text>
</a>
</g>
</g>
<!-- dir_663400e38af11bf0bd1f0e16fe6d508b -->
<g id="node1" class="node">
<title>dir_663400e38af11bf0bd1f0e16fe6d508b</title>
<g id="a_node1"><a xlink:href="dir_663400e38af11bf0bd1f0e16fe6d508b.html" target="_top" xlink:title="MIDI">
<polygon fill="#eeeeff" stroke="black" points="94.38,-324 40.38,-324 40.38,-288 94.38,-288 94.38,-324"/>
<text text-anchor="middle" x="67.38" y="-303.5" font-family="Helvetica,sans-Serif" font-size="10.00">MIDI</text>
</a>
</g>
</g>
<!-- dir_a5e53cdfc4dc3e34218e25b9dcddbbe5 -->
<g id="node2" class="node">
<title>dir_a5e53cdfc4dc3e34218e25b9dcddbbe5</title>
<g id="a_node2"><a xlink:href="dir_a5e53cdfc4dc3e34218e25b9dcddbbe5.html" target="_top" xlink:title="Libraries">
<polygon fill="white" stroke="red" points="122.38,-252 68.38,-252 68.38,-216 122.38,-216 122.38,-252"/>
<text text-anchor="middle" x="95.38" y="-231.5" font-family="Helvetica,sans-Serif" font-size="10.00">Libraries</text>
</a>
</g>
</g>
<!-- dir_663400e38af11bf0bd1f0e16fe6d508b&#45;&gt;dir_a5e53cdfc4dc3e34218e25b9dcddbbe5 -->
<g id="edge7" class="edge">
<title>dir_663400e38af11bf0bd1f0e16fe6d508b&#45;&gt;dir_a5e53cdfc4dc3e34218e25b9dcddbbe5</title>
<path fill="none" stroke="black" d="M74.3,-287.7C77.45,-279.81 81.26,-270.3 84.76,-261.55"/>
<polygon fill="black" stroke="black" points="88.07,-262.69 88.53,-252.1 81.57,-260.09 88.07,-262.69"/>
<g id="a_edge7&#45;headlabel"><a xlink:href="dir_000012_000006.html" target="_top" xlink:title="1">
<text text-anchor="middle" x="89.37" y="-264.58" font-family="Helvetica,sans-Serif" font-size="10.00">1</text>
</a>
</g>
</g>
<!-- dir_c64386e93f356b78d4612c7b7741707c -->
<g id="node3" class="node">
<title>dir_c64386e93f356b78d4612c7b7741707c</title>
<g id="a_node3"><a xlink:href="dir_c64386e93f356b78d4612c7b7741707c.html" target="_top" xlink:title="Audio">
<polygon fill="none" stroke="black" points="67.38,-180 13.38,-180 13.38,-144 67.38,-144 67.38,-180"/>
<text text-anchor="middle" x="40.38" y="-159.5" font-family="Helvetica,sans-Serif" font-size="10.00">Audio</text>
</a>
</g>
</g>
<!-- dir_663400e38af11bf0bd1f0e16fe6d508b&#45;&gt;dir_c64386e93f356b78d4612c7b7741707c -->
<g id="edge8" class="edge">
<title>dir_663400e38af11bf0bd1f0e16fe6d508b&#45;&gt;dir_c64386e93f356b78d4612c7b7741707c</title>
<path fill="none" stroke="black" d="M64.12,-287.87C59.52,-263.67 51.06,-219.21 45.59,-190.39"/>
<polygon fill="black" stroke="black" points="48.95,-189.36 43.65,-180.19 42.07,-190.67 48.95,-189.36"/>
<g id="a_edge8&#45;headlabel"><a xlink:href="dir_000012_000001.html" target="_top" xlink:title="1">
<text text-anchor="middle" x="52.41" y="-189.86" font-family="Helvetica,sans-Serif" font-size="10.00">1</text>
</a>
</g>
</g>
<!-- dir_d0f5152f7d18308a9d4fae6b6ee892f6 -->
<g id="node4" class="node">
<title>dir_d0f5152f7d18308a9d4fae6b6ee892f6</title>
<g id="a_node4"><a xlink:href="dir_d0f5152f7d18308a9d4fae6b6ee892f6.html" target="_top" xlink:title="BaseModules">
<polygon fill="none" stroke="black" points="199.38,-108 123.38,-108 123.38,-72 199.38,-72 199.38,-108"/>
<text text-anchor="middle" x="161.38" y="-87.5" font-family="Helvetica,sans-Serif" font-size="10.00">BaseModules</text>
</a>
</g>
</g>
<!-- dir_663400e38af11bf0bd1f0e16fe6d508b&#45;&gt;dir_d0f5152f7d18308a9d4fae6b6ee892f6 -->
<g id="edge9" class="edge">
<title>dir_663400e38af11bf0bd1f0e16fe6d508b&#45;&gt;dir_d0f5152f7d18308a9d4fae6b6ee892f6</title>
<path fill="none" stroke="black" d="M94.62,-288.88C107.74,-279.71 122.53,-267.05 131.38,-252 156.09,-209.98 161.16,-152.03 161.81,-118.34"/>
<polygon fill="black" stroke="black" points="165.31,-118.33 161.88,-108.3 158.31,-118.27 165.31,-118.33"/>
<g id="a_edge9&#45;headlabel"><a xlink:href="dir_000012_000002.html" target="_top" xlink:title="8">
<text text-anchor="middle" x="168.12" y="-119.44" font-family="Helvetica,sans-Serif" font-size="10.00">8</text>
</a>
</g>
</g>
<!-- dir_2775abc9b2b3cb3255edf03dcb12241b -->
<g id="node5" class="node">
<title>dir_2775abc9b2b3cb3255edf03dcb12241b</title>
<g id="a_node5"><a xlink:href="dir_2775abc9b2b3cb3255edf03dcb12241b.html" target="_top" xlink:title="BaseTypes">
<polygon fill="white" stroke="red" points="127.88,-36 62.88,-36 62.88,0 127.88,0 127.88,-36"/>
<text text-anchor="middle" x="95.38" y="-15.5" font-family="Helvetica,sans-Serif" font-size="10.00">BaseTypes</text>
</a>
</g>
</g>
<!-- dir_663400e38af11bf0bd1f0e16fe6d508b&#45;&gt;dir_2775abc9b2b3cb3255edf03dcb12241b -->
<g id="edge10" class="edge">
<title>dir_663400e38af11bf0bd1f0e16fe6d508b&#45;&gt;dir_2775abc9b2b3cb3255edf03dcb12241b</title>
<path fill="none" stroke="black" d="M52.33,-287.85C28.63,-258.68 -12.99,-197.37 4.38,-144 17.21,-104.56 47.71,-67.18 69.87,-43.76"/>
<polygon fill="black" stroke="black" points="72.59,-45.98 77.03,-36.36 67.56,-41.11 72.59,-45.98"/>
<g id="a_edge10&#45;headlabel"><a xlink:href="dir_000012_000003.html" target="_top" xlink:title="11">
<text text-anchor="middle" x="72.13" y="-48.04" font-family="Helvetica,sans-Serif" font-size="10.00">11</text>
</a>
</g>
</g>
<!-- dir_a5e53cdfc4dc3e34218e25b9dcddbbe5&#45;&gt;dir_c64386e93f356b78d4612c7b7741707c -->
<g id="edge1" class="edge">
<title>dir_a5e53cdfc4dc3e34218e25b9dcddbbe5&#45;&gt;dir_c64386e93f356b78d4612c7b7741707c</title>
<path fill="none" stroke="black" d="M81.78,-215.7C75.25,-207.39 67.31,-197.28 60.13,-188.14"/>
<polygon fill="black" stroke="black" points="62.75,-185.81 53.82,-180.1 57.24,-190.13 62.75,-185.81"/>
<g id="a_edge1&#45;headlabel"><a xlink:href="dir_000006_000001.html" target="_top" xlink:title="1">
<text text-anchor="middle" x="67.2" y="-184.38" font-family="Helvetica,sans-Serif" font-size="10.00">1</text>
</a>
</g>
</g>
<!-- dir_a5e53cdfc4dc3e34218e25b9dcddbbe5&#45;&gt;dir_d0f5152f7d18308a9d4fae6b6ee892f6 -->
<g id="edge2" class="edge">
<title>dir_a5e53cdfc4dc3e34218e25b9dcddbbe5&#45;&gt;dir_d0f5152f7d18308a9d4fae6b6ee892f6</title>
<path fill="none" stroke="black" d="M103.34,-215.87C114.73,-191.35 135.8,-146.03 149.17,-117.26"/>
<polygon fill="black" stroke="black" points="152.35,-118.73 153.39,-108.19 146,-115.78 152.35,-118.73"/>
<g id="a_edge2&#45;headlabel"><a xlink:href="dir_000006_000002.html" target="_top" xlink:title="3">
<text text-anchor="middle" x="153.41" y="-120.69" font-family="Helvetica,sans-Serif" font-size="10.00">3</text>
</a>
</g>
</g>
<!-- dir_a5e53cdfc4dc3e34218e25b9dcddbbe5&#45;&gt;dir_2775abc9b2b3cb3255edf03dcb12241b -->
<g id="edge3" class="edge">
<title>dir_a5e53cdfc4dc3e34218e25b9dcddbbe5&#45;&gt;dir_2775abc9b2b3cb3255edf03dcb12241b</title>
<path fill="none" stroke="black" d="M95.38,-215.85C95.38,-178.83 95.38,-91.18 95.38,-46.39"/>
<polygon fill="black" stroke="black" points="98.88,-46.23 95.38,-36.23 91.88,-46.23 98.88,-46.23"/>
<g id="a_edge3&#45;headlabel"><a xlink:href="dir_000006_000003.html" target="_top" xlink:title="9">
<text text-anchor="middle" x="101.72" y="-47.33" font-family="Helvetica,sans-Serif" font-size="10.00">9</text>
</a>
</g>
</g>
<!-- dir_c64386e93f356b78d4612c7b7741707c&#45;&gt;dir_d0f5152f7d18308a9d4fae6b6ee892f6 -->
<g id="edge4" class="edge">
<title>dir_c64386e93f356b78d4612c7b7741707c&#45;&gt;dir_d0f5152f7d18308a9d4fae6b6ee892f6</title>
<path fill="none" stroke="black" d="M67.53,-145.29C83.79,-135.89 104.72,-123.78 122.69,-113.38"/>
<polygon fill="black" stroke="black" points="124.87,-116.16 131.77,-108.13 121.36,-110.11 124.87,-116.16"/>
<g id="a_edge4&#45;headlabel"><a xlink:href="dir_000001_000002.html" target="_top" xlink:title="8">
<text text-anchor="middle" x="123.18" y="-117.92" font-family="Helvetica,sans-Serif" font-size="10.00">8</text>
</a>
</g>
</g>
<!-- dir_c64386e93f356b78d4612c7b7741707c&#45;&gt;dir_2775abc9b2b3cb3255edf03dcb12241b -->
<g id="edge5" class="edge">
<title>dir_c64386e93f356b78d4612c7b7741707c&#45;&gt;dir_2775abc9b2b3cb3255edf03dcb12241b</title>
<path fill="none" stroke="black" d="M47.01,-143.87C56.47,-119.46 73.91,-74.43 85.06,-45.64"/>
<polygon fill="black" stroke="black" points="88.37,-46.78 88.72,-36.19 81.84,-44.25 88.37,-46.78"/>
<g id="a_edge5&#45;headlabel"><a xlink:href="dir_000001_000003.html" target="_top" xlink:title="10">
<text text-anchor="middle" x="89.72" y="-48.66" font-family="Helvetica,sans-Serif" font-size="10.00">10</text>
</a>
</g>
</g>
<!-- dir_d0f5152f7d18308a9d4fae6b6ee892f6&#45;&gt;dir_2775abc9b2b3cb3255edf03dcb12241b -->
<g id="edge6" class="edge">
<title>dir_d0f5152f7d18308a9d4fae6b6ee892f6&#45;&gt;dir_2775abc9b2b3cb3255edf03dcb12241b</title>
<path fill="none" stroke="black" d="M139.15,-71.7C130.37,-63.3 120.53,-53.07 112.33,-43.86"/>
<polygon fill="black" stroke="black" points="114.8,-41.37 105.61,-36.1 109.51,-45.96 114.8,-41.37"/>
<g id="a_edge6&#45;headlabel"><a xlink:href="dir_000002_000003.html" target="_top" xlink:title="13">
<text text-anchor="middle" x="119.3" y="-39.73" font-family="Helvetica,sans-Serif" font-size="10.00">13</text>
</a>
</g>
</g>
<!-- dir_2775abc9b2b3cb3255edf03dcb12241b&#45;&gt;dir_d0f5152f7d18308a9d4fae6b6ee892f6 -->
<g id="edge11" class="edge">
<title>dir_2775abc9b2b3cb3255edf03dcb12241b&#45;&gt;dir_d0f5152f7d18308a9d4fae6b6ee892f6</title>
<path fill="none" stroke="black" d="M117.4,-36.1C126.16,-44.47 136.01,-54.69 144.23,-63.92"/>
<polygon fill="black" stroke="black" points="141.78,-66.44 150.98,-71.7 147.07,-61.85 141.78,-66.44"/>
<g id="a_edge11&#45;headlabel"><a xlink:href="dir_000003_000002.html" target="_top" xlink:title="6">
<text text-anchor="middle" x="137.28" y="-63.08" font-family="Helvetica,sans-Serif" font-size="10.00">6</text>
</a>
</g>
</g>
</g>
</svg>
