<?xml version="1.0" encoding="UTF-8" standalone="no"?>
<!DOCTYPE svg PUBLIC "-//W3C//DTD SVG 1.1//EN"
 "http://www.w3.org/Graphics/SVG/1.1/DTD/svg11.dtd">
<!-- Generated by graphviz version 2.47.1 (20210417.1919)
 -->
<!-- Title: FluidSynthFileConverter Pages: 1 -->
<svg width="174pt" height="296pt"
 viewBox="0.00 0.00 174.00 296.00" xmlns="http://www.w3.org/2000/svg" xmlns:xlink="http://www.w3.org/1999/xlink">
<g id="graph0" class="graph" transform="scale(1 1) rotate(0) translate(4 292)">
<title>FluidSynthFileConverter</title>
<polygon fill="white" stroke="transparent" points="-4,4 -4,-292 170,-292 170,4 -4,4"/>
<g id="clust1" class="cluster">
<title>clusterdir_4bb77202a85366e5a69049a6555c5ad7</title>
<g id="a_clust1"><a xlink:href="dir_4bb77202a85366e5a69049a6555c5ad7.html" target="_top" xlink:title="Main">
<polygon fill="#ddddee" stroke="black" points="8,-208 8,-280 158,-280 158,-208 8,-208"/>
<text text-anchor="middle" x="83" y="-267.2" font-family="Helvetica,sans-Serif" font-size="11.00">Main</text>
</a>
</g>
</g>
<!-- dir_56b6cffa00eaacede1dc1d17f40f4527 -->
<g id="node1" class="node">
<title>dir_56b6cffa00eaacede1dc1d17f40f4527</title>
<g id="a_node1"><a xlink:href="dir_56b6cffa00eaacede1dc1d17f40f4527.html" target="_top" xlink:title="FluidSynthFileConverter">
<polygon fill="#eeeeff" stroke="black" points="149.5,-252 16.5,-252 16.5,-216 149.5,-216 149.5,-252"/>
<text text-anchor="middle" x="83" y="-231.2" font-family="Helvetica,sans-Serif" font-size="11.00">FluidSynthFileConverter</text>
</a>
</g>
</g>
<!-- dir_c64386e93f356b78d4612c7b7741707c -->
<g id="node2" class="node">
<title>dir_c64386e93f356b78d4612c7b7741707c</title>
<g id="a_node2"><a xlink:href="dir_c64386e93f356b78d4612c7b7741707c.html" target="_top" xlink:title="Audio">
<polygon fill="none" stroke="black" points="119,-108 65,-108 65,-72 119,-72 119,-108"/>
<text text-anchor="middle" x="92" y="-87.2" font-family="Helvetica,sans-Serif" font-size="11.00">Audio</text>
</a>
</g>
</g>
<!-- dir_56b6cffa00eaacede1dc1d17f40f4527&#45;&gt;dir_c64386e93f356b78d4612c7b7741707c -->
<g id="edge2" class="edge">
<title>dir_56b6cffa00eaacede1dc1d17f40f4527&#45;&gt;dir_c64386e93f356b78d4612c7b7741707c</title>
<path fill="none" stroke="black" d="M84.09,-215.87C85.62,-191.67 88.44,-147.21 90.26,-118.39"/>
<polygon fill="black" stroke="black" points="93.77,-118.39 90.91,-108.19 86.78,-117.95 93.77,-118.39"/>
<g id="a_edge2&#45;headlabel"><a xlink:href="dir_000010_000001.html" target="_top" xlink:title="1">
<text text-anchor="middle" x="96.38" y="-119.36" font-family="Helvetica,sans-Serif" font-size="11.00">1</text>
</a>
</g>
</g>
<!-- dir_d0f5152f7d18308a9d4fae6b6ee892f6 -->
<g id="node3" class="node">
<title>dir_d0f5152f7d18308a9d4fae6b6ee892f6</title>
<g id="a_node3"><a xlink:href="dir_d0f5152f7d18308a9d4fae6b6ee892f6.html" target="_top" xlink:title="BaseModules">
<polygon fill="none" stroke="black" points="133.5,-36 50.5,-36 50.5,0 133.5,0 133.5,-36"/>
<text text-anchor="middle" x="92" y="-15.2" font-family="Helvetica,sans-Serif" font-size="11.00">BaseModules</text>
</a>
</g>
</g>
<!-- dir_56b6cffa00eaacede1dc1d17f40f4527&#45;&gt;dir_d0f5152f7d18308a9d4fae6b6ee892f6 -->
<g id="edge3" class="edge">
<title>dir_56b6cffa00eaacede1dc1d17f40f4527&#45;&gt;dir_d0f5152f7d18308a9d4fae6b6ee892f6</title>
<path fill="none" stroke="black" d="M74.98,-215.74C62.24,-185.88 40.34,-122.93 56,-72 59.01,-62.22 64.51,-52.62 70.32,-44.33"/>
<polygon fill="black" stroke="black" points="73.19,-46.33 76.39,-36.23 67.59,-42.13 73.19,-46.33"/>
<g id="a_edge3&#45;headlabel"><a xlink:href="dir_000010_000002.html" target="_top" xlink:title="5">
<text text-anchor="middle" x="73.31" y="-48.11" font-family="Helvetica,sans-Serif" font-size="11.00">5</text>
</a>
</g>
</g>
<!-- dir_663400e38af11bf0bd1f0e16fe6d508b -->
<g id="node4" class="node">
<title>dir_663400e38af11bf0bd1f0e16fe6d508b</title>
<g id="a_node4"><a xlink:href="dir_663400e38af11bf0bd1f0e16fe6d508b.html" target="_top" xlink:title="MIDI">
<polygon fill="none" stroke="black" points="165,-180 111,-180 111,-144 165,-144 165,-180"/>
<text text-anchor="middle" x="138" y="-159.2" font-family="Helvetica,sans-Serif" font-size="11.00">MIDI</text>
</a>
</g>
</g>
<!-- dir_56b6cffa00eaacede1dc1d17f40f4527&#45;&gt;dir_663400e38af11bf0bd1f0e16fe6d508b -->
<g id="edge4" class="edge">
<title>dir_56b6cffa00eaacede1dc1d17f40f4527&#45;&gt;dir_663400e38af11bf0bd1f0e16fe6d508b</title>
<path fill="none" stroke="black" d="M96.6,-215.7C103.12,-207.39 111.07,-197.28 118.25,-188.14"/>
<polygon fill="black" stroke="black" points="121.13,-190.13 124.56,-180.1 115.63,-185.81 121.13,-190.13"/>
<g id="a_edge4&#45;headlabel"><a xlink:href="dir_000010_000012.html" target="_top" xlink:title="2">
<text text-anchor="middle" x="121.15" y="-191.91" font-family="Helvetica,sans-Serif" font-size="11.00">2</text>
</a>
</g>
</g>
<!-- dir_c64386e93f356b78d4612c7b7741707c&#45;&gt;dir_d0f5152f7d18308a9d4fae6b6ee892f6 -->
<g id="edge1" class="edge">
<title>dir_c64386e93f356b78d4612c7b7741707c&#45;&gt;dir_d0f5152f7d18308a9d4fae6b6ee892f6</title>
<path fill="none" stroke="black" d="M92,-71.7C92,-63.98 92,-54.71 92,-46.11"/>
<polygon fill="black" stroke="black" points="95.5,-46.1 92,-36.1 88.5,-46.1 95.5,-46.1"/>
<g id="a_edge1&#45;headlabel"><a xlink:href="dir_000001_000002.html" target="_top" xlink:title="8">
<text text-anchor="middle" x="98.34" y="-46.9" font-family="Helvetica,sans-Serif" font-size="11.00">8</text>
</a>
</g>
</g>
<!-- dir_663400e38af11bf0bd1f0e16fe6d508b&#45;&gt;dir_c64386e93f356b78d4612c7b7741707c -->
<g id="edge5" class="edge">
<title>dir_663400e38af11bf0bd1f0e16fe6d508b&#45;&gt;dir_c64386e93f356b78d4612c7b7741707c</title>
<path fill="none" stroke="black" d="M126.63,-143.7C121.28,-135.56 114.8,-125.69 108.89,-116.7"/>
<polygon fill="black" stroke="black" points="111.66,-114.54 103.24,-108.1 105.81,-118.38 111.66,-114.54"/>
<g id="a_edge5&#45;headlabel"><a xlink:href="dir_000012_000001.html" target="_top" xlink:title="1">
<text text-anchor="middle" x="116" y="-113.18" font-family="Helvetica,sans-Serif" font-size="11.00">1</text>
</a>
</g>
</g>
<!-- dir_663400e38af11bf0bd1f0e16fe6d508b&#45;&gt;dir_d0f5152f7d18308a9d4fae6b6ee892f6 -->
<g id="edge6" class="edge">
<title>dir_663400e38af11bf0bd1f0e16fe6d508b&#45;&gt;dir_d0f5152f7d18308a9d4fae6b6ee892f6</title>
<path fill="none" stroke="black" d="M138.48,-143.71C138.44,-125.35 136.79,-95.77 128,-72 124.45,-62.4 118.8,-52.85 113.02,-44.56"/>
<polygon fill="black" stroke="black" points="115.77,-42.4 107.03,-36.42 110.14,-46.55 115.77,-42.4"/>
<g id="a_edge6&#45;headlabel"><a xlink:href="dir_000012_000002.html" target="_top" xlink:title="8">
<text text-anchor="middle" x="120.19" y="-40.81" font-family="Helvetica,sans-Serif" font-size="11.00">8</text>
</a>
</g>
</g>
</g>
</svg>
