<?xml version="1.0" encoding="UTF-8" standalone="no"?>
<!DOCTYPE svg PUBLIC "-//W3C//DTD SVG 1.1//EN"
 "http://www.w3.org/Graphics/SVG/1.1/DTD/svg11.dtd">
<!-- Generated by graphviz version 2.47.1 (20210417.1919)
 -->
<!-- Title: Containers Pages: 1 -->
<svg width="173pt" height="151pt"
 viewBox="0.00 0.00 173.00 151.00" xmlns="http://www.w3.org/2000/svg" xmlns:xlink="http://www.w3.org/1999/xlink">
<g id="graph0" class="graph" transform="scale(1 1) rotate(0) translate(4 147)">
<title>Containers</title>
<polygon fill="white" stroke="transparent" points="-4,4 -4,-147 169,-147 169,4 -4,4"/>
<g id="clust1" class="cluster">
<title>clusterdir_2775abc9b2b3cb3255edf03dcb12241b</title>
<g id="a_clust1"><a xlink:href="dir_2775abc9b2b3cb3255edf03dcb12241b.html" target="_top" xlink:title="BaseTypes">
<polygon fill="#ddddee" stroke="black" points="8,-64 8,-135 88,-135 88,-64 8,-64"/>
<text text-anchor="middle" x="48" y="-123" font-family="Helvetica,sans-Serif" font-size="10.00">BaseTypes</text>
</a>
</g>
</g>
<!-- dir_74b0edb8dc056f9954be058bc67f17c6 -->
<g id="node1" class="node">
<title>dir_74b0edb8dc056f9954be058bc67f17c6</title>
<g id="a_node1"><a xlink:href="dir_74b0edb8dc056f9954be058bc67f17c6.html" target="_top" xlink:title="Containers">
<polygon fill="#eeeeff" stroke="black" points="79.5,-108 16.5,-108 16.5,-72 79.5,-72 79.5,-108"/>
<text text-anchor="middle" x="48" y="-87.5" font-family="Helvetica,sans-Serif" font-size="10.00">Containers</text>
</a>
</g>
</g>
<!-- dir_ea754da17e3d11d3201d9d479b786745 -->
<g id="node2" class="node">
<title>dir_ea754da17e3d11d3201d9d479b786745</title>
<g id="a_node2"><a xlink:href="dir_ea754da17e3d11d3201d9d479b786745.html" target="_top" xlink:title="Primitives">
<polygon fill="none" stroke="black" points="156.5,-108 97.5,-108 97.5,-72 156.5,-72 156.5,-108"/>
<text text-anchor="middle" x="127" y="-87.5" font-family="Helvetica,sans-Serif" font-size="10.00">Primitives</text>
</a>
</g>
</g>
<!-- dir_74b0edb8dc056f9954be058bc67f17c6&#45;&gt;dir_ea754da17e3d11d3201d9d479b786745 -->
<g id="edge4" class="edge">
<title>dir_74b0edb8dc056f9954be058bc67f17c6&#45;&gt;dir_ea754da17e3d11d3201d9d479b786745</title>
<path fill="none" stroke="black" d="M79.79,-90C82.28,-90 84.76,-90 87.25,-90"/>
<polygon fill="black" stroke="black" points="87.49,-93.5 97.49,-90 87.49,-86.5 87.49,-93.5"/>
<g id="a_edge4&#45;headlabel"><a xlink:href="dir_000004_000005.html" target="_top" xlink:title="3">
<text text-anchor="middle" x="83.9" y="-93.84" font-family="Helvetica,sans-Serif" font-size="10.00">3</text>
</a>
</g>
</g>
<!-- dir_d0f5152f7d18308a9d4fae6b6ee892f6 -->
<g id="node3" class="node">
<title>dir_d0f5152f7d18308a9d4fae6b6ee892f6</title>
<g id="a_node3"><a xlink:href="dir_d0f5152f7d18308a9d4fae6b6ee892f6.html" target="_top" xlink:title="BaseModules">
<polygon fill="none" stroke="black" points="165,-36 89,-36 89,0 165,0 165,-36"/>
<text text-anchor="middle" x="127" y="-15.5" font-family="Helvetica,sans-Serif" font-size="10.00">BaseModules</text>
</a>
</g>
</g>
<!-- dir_74b0edb8dc056f9954be058bc67f17c6&#45;&gt;dir_d0f5152f7d18308a9d4fae6b6ee892f6 -->
<g id="edge5" class="edge">
<title>dir_74b0edb8dc056f9954be058bc67f17c6&#45;&gt;dir_d0f5152f7d18308a9d4fae6b6ee892f6</title>
<path fill="none" stroke="black" d="M61.61,-71.7C70.57,-62.97 82.5,-52.24 93.77,-42.75"/>
<polygon fill="black" stroke="black" points="96.33,-45.17 101.8,-36.1 91.86,-39.78 96.33,-45.17"/>
<g id="a_edge5&#45;headlabel"><a xlink:href="dir_000004_000002.html" target="_top" xlink:title="4">
<text text-anchor="middle" x="95.37" y="-47.15" font-family="Helvetica,sans-Serif" font-size="10.00">4</text>
</a>
</g>
</g>
<!-- dir_ea754da17e3d11d3201d9d479b786745&#45;&gt;dir_d0f5152f7d18308a9d4fae6b6ee892f6 -->
<g id="edge1" class="edge">
<title>dir_ea754da17e3d11d3201d9d479b786745&#45;&gt;dir_d0f5152f7d18308a9d4fae6b6ee892f6</title>
<path fill="none" stroke="black" d="M121.08,-71.7C120.29,-63.98 120.06,-54.71 120.4,-46.11"/>
<polygon fill="black" stroke="black" points="123.9,-46.32 121.1,-36.1 116.92,-45.84 123.9,-46.32"/>
<g id="a_edge1&#45;headlabel"><a xlink:href="dir_000005_000002.html" target="_top" xlink:title="4">
<text text-anchor="middle" x="126.48" y="-47.61" font-family="Helvetica,sans-Serif" font-size="10.00">4</text>
</a>
</g>
</g>
<!-- dir_d0f5152f7d18308a9d4fae6b6ee892f6&#45;&gt;dir_74b0edb8dc056f9954be058bc67f17c6 -->
<g id="edge3" class="edge">
<title>dir_d0f5152f7d18308a9d4fae6b6ee892f6&#45;&gt;dir_74b0edb8dc056f9954be058bc67f17c6</title>
<path fill="none" stroke="black" d="M113.59,-36.1C104.6,-44.89 92.54,-55.73 81.16,-65.31"/>
<polygon fill="black" stroke="black" points="78.92,-62.62 73.44,-71.7 83.38,-68.02 78.92,-62.62"/>
<g id="a_edge3&#45;headlabel"><a xlink:href="dir_000002_000004.html" target="_top" xlink:title="5">
<text text-anchor="middle" x="79.88" y="-55.65" font-family="Helvetica,sans-Serif" font-size="10.00">5</text>
</a>
</g>
</g>
<!-- dir_d0f5152f7d18308a9d4fae6b6ee892f6&#45;&gt;dir_ea754da17e3d11d3201d9d479b786745 -->
<g id="edge2" class="edge">
<title>dir_d0f5152f7d18308a9d4fae6b6ee892f6&#45;&gt;dir_ea754da17e3d11d3201d9d479b786745</title>
<path fill="none" stroke="black" d="M132.9,-36.1C133.7,-43.79 133.94,-53.05 133.6,-61.67"/>
<polygon fill="black" stroke="black" points="130.11,-61.48 132.92,-71.7 137.09,-61.96 130.11,-61.48"/>
<g id="a_edge2&#45;headlabel"><a xlink:href="dir_000002_000005.html" target="_top" xlink:title="11">
<text text-anchor="middle" x="127.52" y="-55.2" font-family="Helvetica,sans-Serif" font-size="10.00">11</text>
</a>
</g>
</g>
</g>
</svg>
