<?xml version="1.0" encoding="UTF-8" standalone="no"?>
<!DOCTYPE svg PUBLIC "-//W3C//DTD SVG 1.1//EN"
 "http://www.w3.org/Graphics/SVG/1.1/DTD/svg11.dtd">
<!-- Generated by graphviz version 2.47.1 (20210417.1919)
 -->
<!-- Title: src Pages: 1 -->
<svg width="214pt" height="334pt"
 viewBox="0.00 0.00 214.00 334.00" xmlns="http://www.w3.org/2000/svg" xmlns:xlink="http://www.w3.org/1999/xlink">
<g id="graph0" class="graph" transform="scale(1 1) rotate(0) translate(4 330)">
<title>src</title>
<g id="clust1" class="cluster">
<title>clusterdir_68267d1309a1af8e8297ef4c3efbcdba</title>
<g id="a_clust1"><a xlink:href="dir_68267d1309a1af8e8297ef4c3efbcdba.html" target="_top">
<polygon fill="#eaedf9" stroke="#404040" stroke-width="2" points="8,-8 8,-318 198,-318 198,-8 8,-8"/>
</a>
</g>
</g>
<!-- dir_68267d1309a1af8e8297ef4c3efbcdba -->
<g id="node1" class="node">
<title>dir_68267d1309a1af8e8297ef4c3efbcdba</title>
<text text-anchor="middle" x="159" y="-298" font-family="Helvetica,sans-Serif" font-size="10.00">src</text>
</g>
<!-- dir_c64386e93f356b78d4612c7b7741707c -->
<g id="node2" class="node">
<title>dir_c64386e93f356b78d4612c7b7741707c</title>
<g id="a_node2"><a xlink:href="dir_c64386e93f356b78d4612c7b7741707c.html" target="_top" xlink:title="Audio">
<polygon fill="#95a2e3" stroke="#404040" points="166.5,-145 125.5,-145 125.5,-126 166.5,-126 166.5,-145"/>
<text text-anchor="middle" x="146" y="-133" font-family="Helvetica,sans-Serif" font-size="10.00">Audio</text>
</a>
</g>
</g>
<!-- dir_d0f5152f7d18308a9d4fae6b6ee892f6 -->
<g id="node3" class="node">
<title>dir_d0f5152f7d18308a9d4fae6b6ee892f6</title>
<g id="a_node3"><a xlink:href="dir_d0f5152f7d18308a9d4fae6b6ee892f6.html" target="_top" xlink:title="BaseModules">
<polygon fill="#95a2e3" stroke="#404040" points="147,-90 71,-90 71,-71 147,-71 147,-90"/>
<text text-anchor="middle" x="109" y="-78" font-family="Helvetica,sans-Serif" font-size="10.00">BaseModules</text>
</a>
</g>
</g>
<!-- dir_c64386e93f356b78d4612c7b7741707c&#45;&gt;dir_d0f5152f7d18308a9d4fae6b6ee892f6 -->
<g id="edge2" class="edge">
<title>dir_c64386e93f356b78d4612c7b7741707c&#45;&gt;dir_d0f5152f7d18308a9d4fae6b6ee892f6</title>
<g id="a_edge2"><a xlink:href="dir_000000_000001.html" target="_top">
<path fill="none" stroke="#63b8ff" d="M139.89,-125.75C134.72,-118.34 127.15,-107.5 120.81,-98.41"/>
<polygon fill="#63b8ff" stroke="#63b8ff" points="123.59,-96.29 115,-90.09 117.85,-100.29 123.59,-96.29"/>
</a>
</g>
<g id="a_edge2&#45;headlabel"><a xlink:href="dir_000000_000001.html" target="_top" xlink:title="8">
<text text-anchor="middle" x="127.98" y="-95.11" font-family="Helvetica,sans-Serif" font-size="10.00" fill="#63b8ff">8</text>
</a>
</g>
</g>
<!-- dir_2775abc9b2b3cb3255edf03dcb12241b -->
<g id="node4" class="node">
<title>dir_2775abc9b2b3cb3255edf03dcb12241b</title>
<g id="a_node4"><a xlink:href="dir_2775abc9b2b3cb3255edf03dcb12241b.html" target="_top" xlink:title="BaseTypes">
<polygon fill="#95a2e3" stroke="#404040" points="141.5,-35 76.5,-35 76.5,-16 141.5,-16 141.5,-35"/>
<text text-anchor="middle" x="109" y="-23" font-family="Helvetica,sans-Serif" font-size="10.00">BaseTypes</text>
</a>
</g>
</g>
<!-- dir_c64386e93f356b78d4612c7b7741707c&#45;&gt;dir_2775abc9b2b3cb3255edf03dcb12241b -->
<g id="edge1" class="edge">
<title>dir_c64386e93f356b78d4612c7b7741707c&#45;&gt;dir_2775abc9b2b3cb3255edf03dcb12241b</title>
<g id="a_edge1"><a xlink:href="dir_000000_000002.html" target="_top">
<path fill="none" stroke="#63b8ff" d="M150.22,-125.91C155.77,-113.35 163.94,-89.45 156,-71 150.85,-59.03 140.71,-48.76 131.17,-41.12"/>
<polygon fill="#63b8ff" stroke="#63b8ff" points="133.19,-38.26 123.07,-35.11 129.01,-43.88 133.19,-38.26"/>
</a>
</g>
<g id="a_edge1&#45;headlabel"><a xlink:href="dir_000000_000002.html" target="_top" xlink:title="10">
<text text-anchor="middle" x="137.77" y="-35.63" font-family="Helvetica,sans-Serif" font-size="10.00" fill="#63b8ff">10</text>
</a>
</g>
</g>
<!-- dir_d0f5152f7d18308a9d4fae6b6ee892f6&#45;&gt;dir_2775abc9b2b3cb3255edf03dcb12241b -->
<g id="edge3" class="edge">
<title>dir_d0f5152f7d18308a9d4fae6b6ee892f6&#45;&gt;dir_2775abc9b2b3cb3255edf03dcb12241b</title>
<g id="a_edge3"><a xlink:href="dir_000001_000002.html" target="_top">
<path fill="none" stroke="#63b8ff" d="M103.83,-70.75C102.34,-63.8 101.9,-53.85 102.52,-45.13"/>
<polygon fill="#63b8ff" stroke="#63b8ff" points="106.01,-45.47 103.87,-35.09 99.07,-44.53 106.01,-45.47"/>
</a>
</g>
<g id="a_edge3&#45;headlabel"><a xlink:href="dir_000001_000002.html" target="_top" xlink:title="17">
<text text-anchor="middle" x="108.34" y="-46.91" font-family="Helvetica,sans-Serif" font-size="10.00" fill="#63b8ff">17</text>
</a>
</g>
</g>
<!-- dir_2775abc9b2b3cb3255edf03dcb12241b&#45;&gt;dir_d0f5152f7d18308a9d4fae6b6ee892f6 -->
<g id="edge4" class="edge">
<title>dir_2775abc9b2b3cb3255edf03dcb12241b&#45;&gt;dir_d0f5152f7d18308a9d4fae6b6ee892f6</title>
<g id="a_edge4"><a xlink:href="dir_000002_000001.html" target="_top">
<path fill="none" stroke="#63b8ff" d="M114.13,-35.09C115.64,-41.99 116.09,-51.93 115.49,-60.66"/>
<polygon fill="#63b8ff" stroke="#63b8ff" points="112,-60.38 114.17,-70.75 118.94,-61.29 112,-60.38"/>
</a>
</g>
<g id="a_edge4&#45;headlabel"><a xlink:href="dir_000002_000001.html" target="_top" xlink:title="10">
<text text-anchor="middle" x="109.65" y="-53.94" font-family="Helvetica,sans-Serif" font-size="10.00" fill="#63b8ff">10</text>
</a>
</g>
</g>
<!-- dir_a5e53cdfc4dc3e34218e25b9dcddbbe5 -->
<g id="node5" class="node">
<title>dir_a5e53cdfc4dc3e34218e25b9dcddbbe5</title>
<g id="a_node5"><a xlink:href="dir_a5e53cdfc4dc3e34218e25b9dcddbbe5.html" target="_top" xlink:title="Libraries">
<polygon fill="#95a2e3" stroke="#404040" points="169.5,-200 116.5,-200 116.5,-181 169.5,-181 169.5,-200"/>
<text text-anchor="middle" x="143" y="-188" font-family="Helvetica,sans-Serif" font-size="10.00">Libraries</text>
</a>
</g>
</g>
<!-- dir_a5e53cdfc4dc3e34218e25b9dcddbbe5&#45;&gt;dir_c64386e93f356b78d4612c7b7741707c -->
<g id="edge6" class="edge">
<title>dir_a5e53cdfc4dc3e34218e25b9dcddbbe5&#45;&gt;dir_c64386e93f356b78d4612c7b7741707c</title>
<g id="a_edge6"><a xlink:href="dir_000010_000000.html" target="_top">
<path fill="none" stroke="#63b8ff" d="M143.5,-180.75C143.89,-173.8 144.45,-163.85 144.95,-155.13"/>
<polygon fill="#63b8ff" stroke="#63b8ff" points="148.44,-155.27 145.51,-145.09 141.45,-154.88 148.44,-155.27"/>
</a>
</g>
<g id="a_edge6&#45;headlabel"><a xlink:href="dir_000010_000000.html" target="_top" xlink:title="1">
<text text-anchor="middle" x="151.07" y="-156.52" font-family="Helvetica,sans-Serif" font-size="10.00" fill="#63b8ff">1</text>
</a>
</g>
</g>
<!-- dir_a5e53cdfc4dc3e34218e25b9dcddbbe5&#45;&gt;dir_d0f5152f7d18308a9d4fae6b6ee892f6 -->
<g id="edge7" class="edge">
<title>dir_a5e53cdfc4dc3e34218e25b9dcddbbe5&#45;&gt;dir_d0f5152f7d18308a9d4fae6b6ee892f6</title>
<g id="a_edge7"><a xlink:href="dir_000010_000001.html" target="_top">
<path fill="none" stroke="#63b8ff" d="M136.48,-180.81C130.38,-172.2 121.54,-158.39 117,-145 112.09,-130.51 110.14,-113.24 109.4,-100.37"/>
<polygon fill="#63b8ff" stroke="#63b8ff" points="112.89,-100.23 109.01,-90.38 105.9,-100.51 112.89,-100.23"/>
</a>
</g>
<g id="a_edge7&#45;headlabel"><a xlink:href="dir_000010_000001.html" target="_top" xlink:title="5">
<text text-anchor="middle" x="115.87" y="-101.21" font-family="Helvetica,sans-Serif" font-size="10.00" fill="#63b8ff">5</text>
</a>
</g>
</g>
<!-- dir_a5e53cdfc4dc3e34218e25b9dcddbbe5&#45;&gt;dir_2775abc9b2b3cb3255edf03dcb12241b -->
<g id="edge5" class="edge">
<title>dir_a5e53cdfc4dc3e34218e25b9dcddbbe5&#45;&gt;dir_2775abc9b2b3cb3255edf03dcb12241b</title>
<g id="a_edge5"><a xlink:href="dir_000010_000002.html" target="_top">
<path fill="none" stroke="#63b8ff" d="M152.02,-180.96C160.07,-172.66 171.29,-159.25 176,-145 178.65,-136.98 177.05,-134.38 176,-126 172.86,-100.97 175.42,-92.36 162,-71 154.51,-59.08 142.77,-48.74 132.24,-41.05"/>
<polygon fill="#63b8ff" stroke="#63b8ff" points="134.02,-38.02 123.81,-35.22 130.05,-43.78 134.02,-38.02"/>
</a>
</g>
<g id="a_edge5&#45;headlabel"><a xlink:href="dir_000010_000002.html" target="_top" xlink:title="10">
<text text-anchor="middle" x="138.59" y="-35.23" font-family="Helvetica,sans-Serif" font-size="10.00" fill="#63b8ff">10</text>
</a>
</g>
</g>
<!-- dir_4bb77202a85366e5a69049a6555c5ad7 -->
<g id="node6" class="node">
<title>dir_4bb77202a85366e5a69049a6555c5ad7</title>
<g id="a_node6"><a xlink:href="dir_4bb77202a85366e5a69049a6555c5ad7.html" target="_top" xlink:title="Main">
<polygon fill="#95a2e3" stroke="#404040" points="103,-310 65,-310 65,-291 103,-291 103,-310"/>
<text text-anchor="middle" x="84" y="-298" font-family="Helvetica,sans-Serif" font-size="10.00">Main</text>
</a>
</g>
</g>
<!-- dir_4bb77202a85366e5a69049a6555c5ad7&#45;&gt;dir_c64386e93f356b78d4612c7b7741707c -->
<g id="edge11" class="edge">
<title>dir_4bb77202a85366e5a69049a6555c5ad7&#45;&gt;dir_c64386e93f356b78d4612c7b7741707c</title>
<g id="a_edge11"><a xlink:href="dir_000011_000000.html" target="_top">
<path fill="none" stroke="#63b8ff" d="M97.01,-290.99C118.89,-275.8 162.3,-241.68 179,-200 185.67,-183.35 174.32,-165.28 163.16,-152.69"/>
<polygon fill="#63b8ff" stroke="#63b8ff" points="165.49,-150.07 156.04,-145.28 160.44,-154.92 165.49,-150.07"/>
</a>
</g>
<g id="a_edge11&#45;headlabel"><a xlink:href="dir_000011_000000.html" target="_top" xlink:title="2">
<text text-anchor="middle" x="170.03" y="-148.19" font-family="Helvetica,sans-Serif" font-size="10.00" fill="#63b8ff">2</text>
</a>
</g>
</g>
<!-- dir_4bb77202a85366e5a69049a6555c5ad7&#45;&gt;dir_d0f5152f7d18308a9d4fae6b6ee892f6 -->
<g id="edge12" class="edge">
<title>dir_4bb77202a85366e5a69049a6555c5ad7&#45;&gt;dir_d0f5152f7d18308a9d4fae6b6ee892f6</title>
<g id="a_edge12"><a xlink:href="dir_000011_000001.html" target="_top">
<path fill="none" stroke="#63b8ff" d="M76.85,-290.97C70.23,-282.48 60.85,-268.75 57,-255 54.73,-246.87 55.64,-244.33 57,-236 65.36,-184.98 88.26,-128.11 100.7,-99.71"/>
<polygon fill="#63b8ff" stroke="#63b8ff" points="104.02,-100.85 104.9,-90.29 97.63,-98 104.02,-100.85"/>
</a>
</g>
<g id="a_edge12&#45;headlabel"><a xlink:href="dir_000011_000001.html" target="_top" xlink:title="12">
<text text-anchor="middle" x="105.15" y="-102.79" font-family="Helvetica,sans-Serif" font-size="10.00" fill="#63b8ff">12</text>
</a>
</g>
</g>
<!-- dir_4bb77202a85366e5a69049a6555c5ad7&#45;&gt;dir_2775abc9b2b3cb3255edf03dcb12241b -->
<g id="edge8" class="edge">
<title>dir_4bb77202a85366e5a69049a6555c5ad7&#45;&gt;dir_2775abc9b2b3cb3255edf03dcb12241b</title>
<g id="a_edge8"><a xlink:href="dir_000011_000002.html" target="_top">
<path fill="none" stroke="#63b8ff" d="M73.82,-290.83C55.08,-273.84 17,-234.09 17,-191.5 17,-191.5 17,-191.5 17,-134.5 17,-92.45 57.91,-58.46 85.17,-40.48"/>
<polygon fill="#63b8ff" stroke="#63b8ff" points="87.23,-43.31 93.81,-35 83.49,-37.4 87.23,-43.31"/>
</a>
</g>
<g id="a_edge8&#45;headlabel"><a xlink:href="dir_000011_000002.html" target="_top" xlink:title="6">
<text text-anchor="middle" x="85.72" y="-45.13" font-family="Helvetica,sans-Serif" font-size="10.00" fill="#63b8ff">6</text>
</a>
</g>
</g>
<!-- dir_4bb77202a85366e5a69049a6555c5ad7&#45;&gt;dir_a5e53cdfc4dc3e34218e25b9dcddbbe5 -->
<g id="edge10" class="edge">
<title>dir_4bb77202a85366e5a69049a6555c5ad7&#45;&gt;dir_a5e53cdfc4dc3e34218e25b9dcddbbe5</title>
<g id="a_edge10"><a xlink:href="dir_000011_000010.html" target="_top">
<path fill="none" stroke="#63b8ff" d="M89.59,-290.76C95.2,-281.87 103.99,-267.65 111,-255 119.41,-239.83 128.22,-222.2 134.46,-209.36"/>
<polygon fill="#63b8ff" stroke="#63b8ff" points="137.67,-210.77 138.86,-200.24 131.37,-207.73 137.67,-210.77"/>
</a>
</g>
<g id="a_edge10&#45;headlabel"><a xlink:href="dir_000011_000010.html" target="_top" xlink:title="2">
<text text-anchor="middle" x="138.67" y="-212.74" font-family="Helvetica,sans-Serif" font-size="10.00" fill="#63b8ff">2</text>
</a>
</g>
</g>
<!-- dir_663400e38af11bf0bd1f0e16fe6d508b -->
<g id="node7" class="node">
<title>dir_663400e38af11bf0bd1f0e16fe6d508b</title>
<g id="a_node7"><a xlink:href="dir_663400e38af11bf0bd1f0e16fe6d508b.html" target="_top" xlink:title="MIDI">
<polygon fill="#95a2e3" stroke="#404040" points="102,-255 66,-255 66,-236 102,-236 102,-255"/>
<text text-anchor="middle" x="84" y="-243" font-family="Helvetica,sans-Serif" font-size="10.00">MIDI</text>
</a>
</g>
</g>
<!-- dir_4bb77202a85366e5a69049a6555c5ad7&#45;&gt;dir_663400e38af11bf0bd1f0e16fe6d508b -->
<g id="edge9" class="edge">
<title>dir_4bb77202a85366e5a69049a6555c5ad7&#45;&gt;dir_663400e38af11bf0bd1f0e16fe6d508b</title>
<g id="a_edge9"><a xlink:href="dir_000011_000012.html" target="_top">
<path fill="none" stroke="#63b8ff" d="M84,-290.75C84,-283.8 84,-273.85 84,-265.13"/>
<polygon fill="#63b8ff" stroke="#63b8ff" points="87.5,-265.09 84,-255.09 80.5,-265.09 87.5,-265.09"/>
</a>
</g>
<g id="a_edge9&#45;headlabel"><a xlink:href="dir_000011_000012.html" target="_top" xlink:title="4">
<text text-anchor="middle" x="90.34" y="-266.18" font-family="Helvetica,sans-Serif" font-size="10.00" fill="#63b8ff">4</text>
</a>
</g>
</g>
<!-- dir_663400e38af11bf0bd1f0e16fe6d508b&#45;&gt;dir_c64386e93f356b78d4612c7b7741707c -->
<g id="edge15" class="edge">
<title>dir_663400e38af11bf0bd1f0e16fe6d508b&#45;&gt;dir_c64386e93f356b78d4612c7b7741707c</title>
<g id="a_edge15"><a xlink:href="dir_000012_000000.html" target="_top">
<path fill="none" stroke="#63b8ff" d="M86.23,-235.86C89.72,-223.24 97.2,-199.26 108,-181 114.05,-170.77 122.51,-160.59 129.91,-152.56"/>
<polygon fill="#63b8ff" stroke="#63b8ff" points="132.45,-154.97 136.83,-145.32 127.39,-150.13 132.45,-154.97"/>
</a>
</g>
<g id="a_edge15&#45;headlabel"><a xlink:href="dir_000012_000000.html" target="_top" xlink:title="1">
<text text-anchor="middle" x="132.02" y="-157.03" font-family="Helvetica,sans-Serif" font-size="10.00" fill="#63b8ff">1</text>
</a>
</g>
</g>
<!-- dir_663400e38af11bf0bd1f0e16fe6d508b&#45;&gt;dir_d0f5152f7d18308a9d4fae6b6ee892f6 -->
<g id="edge16" class="edge">
<title>dir_663400e38af11bf0bd1f0e16fe6d508b&#45;&gt;dir_d0f5152f7d18308a9d4fae6b6ee892f6</title>
<g id="a_edge16"><a xlink:href="dir_000012_000001.html" target="_top">
<path fill="none" stroke="#63b8ff" d="M85.34,-235.74C89.26,-210.2 100.73,-135.43 106.13,-100.23"/>
<polygon fill="#63b8ff" stroke="#63b8ff" points="109.59,-100.72 107.65,-90.31 102.67,-99.66 109.59,-100.72"/>
</a>
</g>
<g id="a_edge16&#45;headlabel"><a xlink:href="dir_000012_000001.html" target="_top" xlink:title="9">
<text text-anchor="middle" x="111.85" y="-102.21" font-family="Helvetica,sans-Serif" font-size="10.00" fill="#63b8ff">9</text>
</a>
</g>
</g>
<!-- dir_663400e38af11bf0bd1f0e16fe6d508b&#45;&gt;dir_2775abc9b2b3cb3255edf03dcb12241b -->
<g id="edge13" class="edge">
<title>dir_663400e38af11bf0bd1f0e16fe6d508b&#45;&gt;dir_2775abc9b2b3cb3255edf03dcb12241b</title>
<g id="a_edge13"><a xlink:href="dir_000012_000002.html" target="_top">
<path fill="none" stroke="#63b8ff" d="M79.85,-235.76C68.04,-209.55 36.68,-129.85 62,-71 67.15,-59.03 77.29,-48.76 86.83,-41.12"/>
<polygon fill="#63b8ff" stroke="#63b8ff" points="88.99,-43.88 94.93,-35.11 84.81,-38.26 88.99,-43.88"/>
</a>
</g>
<g id="a_edge13&#45;headlabel"><a xlink:href="dir_000012_000002.html" target="_top" xlink:title="13">
<text text-anchor="middle" x="87.8" y="-45.8" font-family="Helvetica,sans-Serif" font-size="10.00" fill="#63b8ff">13</text>
</a>
</g>
</g>
<!-- dir_663400e38af11bf0bd1f0e16fe6d508b&#45;&gt;dir_a5e53cdfc4dc3e34218e25b9dcddbbe5 -->
<g id="edge14" class="edge">
<title>dir_663400e38af11bf0bd1f0e16fe6d508b&#45;&gt;dir_a5e53cdfc4dc3e34218e25b9dcddbbe5</title>
<g id="a_edge14"><a xlink:href="dir_000012_000010.html" target="_top">
<path fill="none" stroke="#63b8ff" d="M93.48,-235.98C102.2,-228.15 115.34,-216.34 125.9,-206.86"/>
<polygon fill="#63b8ff" stroke="#63b8ff" points="128.25,-209.46 133.35,-200.17 123.57,-204.25 128.25,-209.46"/>
</a>
</g>
<g id="a_edge14&#45;headlabel"><a xlink:href="dir_000012_000010.html" target="_top" xlink:title="1">
<text text-anchor="middle" x="127.47" y="-211.47" font-family="Helvetica,sans-Serif" font-size="10.00" fill="#63b8ff">1</text>
</a>
</g>
</g>
</g>
</svg>
