<?xml version="1.0" encoding="UTF-8" standalone="no"?>
<!DOCTYPE svg PUBLIC "-//W3C//DTD SVG 1.1//EN"
 "http://www.w3.org/Graphics/SVG/1.1/DTD/svg11.dtd">
<!-- Generated by graphviz version 2.47.1 (20210417.1919)
 -->
<!-- Title: FluidSynthPlugin Pages: 1 -->
<svg width="145pt" height="368pt"
 viewBox="0.00 0.00 144.59 368.00" xmlns="http://www.w3.org/2000/svg" xmlns:xlink="http://www.w3.org/1999/xlink">
<g id="graph0" class="graph" transform="scale(1 1) rotate(0) translate(4 364)">
<title>FluidSynthPlugin</title>
<polygon fill="white" stroke="transparent" points="-4,4 -4,-364 140.59,-364 140.59,4 -4,4"/>
<g id="clust1" class="cluster">
<title>clusterdir_4bb77202a85366e5a69049a6555c5ad7</title>
<g id="a_clust1"><a xlink:href="dir_4bb77202a85366e5a69049a6555c5ad7.html" target="_top" xlink:title="Main">
<polygon fill="#ddddee" stroke="black" points="8.26,-280 8.26,-352 122.26,-352 122.26,-280 8.26,-280"/>
<text text-anchor="middle" x="65.26" y="-339.2" font-family="Helvetica,sans-Serif" font-size="11.00">Main</text>
</a>
</g>
</g>
<!-- dir_672501b7110aa1557a3d214f38ed082a -->
<g id="node1" class="node">
<title>dir_672501b7110aa1557a3d214f38ed082a</title>
<g id="a_node1"><a xlink:href="dir_672501b7110aa1557a3d214f38ed082a.html" target="_top" xlink:title="FluidSynthPlugin">
<polygon fill="#eeeeff" stroke="black" points="114.26,-324 16.26,-324 16.26,-288 114.26,-288 114.26,-324"/>
<text text-anchor="middle" x="65.26" y="-303.2" font-family="Helvetica,sans-Serif" font-size="11.00">FluidSynthPlugin</text>
</a>
</g>
</g>
<!-- dir_c64386e93f356b78d4612c7b7741707c -->
<g id="node2" class="node">
<title>dir_c64386e93f356b78d4612c7b7741707c</title>
<g id="a_node2"><a xlink:href="dir_c64386e93f356b78d4612c7b7741707c.html" target="_top" xlink:title="Audio">
<polygon fill="none" stroke="black" points="65.26,-180 11.26,-180 11.26,-144 65.26,-144 65.26,-180"/>
<text text-anchor="middle" x="38.26" y="-159.2" font-family="Helvetica,sans-Serif" font-size="11.00">Audio</text>
</a>
</g>
</g>
<!-- dir_672501b7110aa1557a3d214f38ed082a&#45;&gt;dir_c64386e93f356b78d4612c7b7741707c -->
<g id="edge1" class="edge">
<title>dir_672501b7110aa1557a3d214f38ed082a&#45;&gt;dir_c64386e93f356b78d4612c7b7741707c</title>
<path fill="none" stroke="black" d="M62,-287.87C57.4,-263.67 48.95,-219.21 43.47,-190.39"/>
<polygon fill="black" stroke="black" points="46.84,-189.36 41.53,-180.19 39.96,-190.67 46.84,-189.36"/>
<g id="a_edge1&#45;headlabel"><a xlink:href="dir_000011_000001.html" target="_top" xlink:title="1">
<text text-anchor="middle" x="50.3" y="-189.56" font-family="Helvetica,sans-Serif" font-size="11.00">1</text>
</a>
</g>
</g>
<!-- dir_d0f5152f7d18308a9d4fae6b6ee892f6 -->
<g id="node3" class="node">
<title>dir_d0f5152f7d18308a9d4fae6b6ee892f6</title>
<g id="a_node3"><a xlink:href="dir_d0f5152f7d18308a9d4fae6b6ee892f6.html" target="_top" xlink:title="BaseModules">
<polygon fill="none" stroke="black" points="117.76,-108 34.76,-108 34.76,-72 117.76,-72 117.76,-108"/>
<text text-anchor="middle" x="76.26" y="-87.2" font-family="Helvetica,sans-Serif" font-size="11.00">BaseModules</text>
</a>
</g>
</g>
<!-- dir_672501b7110aa1557a3d214f38ed082a&#45;&gt;dir_d0f5152f7d18308a9d4fae6b6ee892f6 -->
<g id="edge2" class="edge">
<title>dir_672501b7110aa1557a3d214f38ed082a&#45;&gt;dir_d0f5152f7d18308a9d4fae6b6ee892f6</title>
<path fill="none" stroke="black" d="M96.03,-287.91C108.8,-279.02 122.26,-266.88 129.26,-252 150.78,-206.24 119.53,-149.37 96.65,-116.92"/>
<polygon fill="black" stroke="black" points="99.2,-114.47 90.48,-108.45 93.54,-118.59 99.2,-114.47"/>
<g id="a_edge2&#45;headlabel"><a xlink:href="dir_000011_000002.html" target="_top" xlink:title="2">
<text text-anchor="middle" x="103.61" y="-112.9" font-family="Helvetica,sans-Serif" font-size="11.00">2</text>
</a>
</g>
</g>
<!-- dir_663400e38af11bf0bd1f0e16fe6d508b -->
<g id="node4" class="node">
<title>dir_663400e38af11bf0bd1f0e16fe6d508b</title>
<g id="a_node4"><a xlink:href="dir_663400e38af11bf0bd1f0e16fe6d508b.html" target="_top" xlink:title="MIDI">
<polygon fill="none" stroke="black" points="120.26,-252 66.26,-252 66.26,-216 120.26,-216 120.26,-252"/>
<text text-anchor="middle" x="93.26" y="-231.2" font-family="Helvetica,sans-Serif" font-size="11.00">MIDI</text>
</a>
</g>
</g>
<!-- dir_672501b7110aa1557a3d214f38ed082a&#45;&gt;dir_663400e38af11bf0bd1f0e16fe6d508b -->
<g id="edge3" class="edge">
<title>dir_672501b7110aa1557a3d214f38ed082a&#45;&gt;dir_663400e38af11bf0bd1f0e16fe6d508b</title>
<path fill="none" stroke="black" d="M72.18,-287.7C75.34,-279.81 79.14,-270.3 82.64,-261.55"/>
<polygon fill="black" stroke="black" points="85.95,-262.69 86.42,-252.1 79.46,-260.09 85.95,-262.69"/>
<g id="a_edge3&#45;headlabel"><a xlink:href="dir_000011_000012.html" target="_top" xlink:title="1">
<text text-anchor="middle" x="87.26" y="-264.28" font-family="Helvetica,sans-Serif" font-size="11.00">1</text>
</a>
</g>
</g>
<!-- dir_2775abc9b2b3cb3255edf03dcb12241b -->
<g id="node5" class="node">
<title>dir_2775abc9b2b3cb3255edf03dcb12241b</title>
<g id="a_node5"><a xlink:href="dir_2775abc9b2b3cb3255edf03dcb12241b.html" target="_top" xlink:title="BaseTypes">
<polygon fill="white" stroke="red" points="112.26,-36 40.26,-36 40.26,0 112.26,0 112.26,-36"/>
<text text-anchor="middle" x="76.26" y="-15.2" font-family="Helvetica,sans-Serif" font-size="11.00">BaseTypes</text>
</a>
</g>
</g>
<!-- dir_672501b7110aa1557a3d214f38ed082a&#45;&gt;dir_2775abc9b2b3cb3255edf03dcb12241b -->
<g id="edge4" class="edge">
<title>dir_672501b7110aa1557a3d214f38ed082a&#45;&gt;dir_2775abc9b2b3cb3255edf03dcb12241b</title>
<path fill="none" stroke="black" d="M53.28,-287.8C37.93,-264.6 12.1,-221.37 2.26,-180 -1.44,-164.43 0.62,-159.92 2.26,-144 5.61,-111.49 0.96,-100.33 17.26,-72 23.64,-60.9 33.17,-50.88 42.72,-42.61"/>
<polygon fill="black" stroke="black" points="45.16,-45.13 50.68,-36.09 40.72,-39.72 45.16,-45.13"/>
<g id="a_edge4&#45;headlabel"><a xlink:href="dir_000011_000003.html" target="_top" xlink:title="4">
<text text-anchor="middle" x="44.18" y="-46.81" font-family="Helvetica,sans-Serif" font-size="11.00">4</text>
</a>
</g>
</g>
<!-- dir_c64386e93f356b78d4612c7b7741707c&#45;&gt;dir_d0f5152f7d18308a9d4fae6b6ee892f6 -->
<g id="edge5" class="edge">
<title>dir_c64386e93f356b78d4612c7b7741707c&#45;&gt;dir_d0f5152f7d18308a9d4fae6b6ee892f6</title>
<path fill="none" stroke="black" d="M47.65,-143.7C52.03,-135.64 57.32,-125.89 62.16,-116.98"/>
<polygon fill="black" stroke="black" points="65.28,-118.56 66.98,-108.1 59.13,-115.22 65.28,-118.56"/>
<g id="a_edge5&#45;headlabel"><a xlink:href="dir_000001_000002.html" target="_top" xlink:title="7">
<text text-anchor="middle" x="66.06" y="-120.28" font-family="Helvetica,sans-Serif" font-size="11.00">7</text>
</a>
</g>
</g>
<!-- dir_c64386e93f356b78d4612c7b7741707c&#45;&gt;dir_2775abc9b2b3cb3255edf03dcb12241b -->
<g id="edge6" class="edge">
<title>dir_c64386e93f356b78d4612c7b7741707c&#45;&gt;dir_2775abc9b2b3cb3255edf03dcb12241b</title>
<path fill="none" stroke="black" d="M30.72,-143.98C23.72,-125.6 15.69,-95.75 25.26,-72 29.61,-61.21 37.32,-51.39 45.45,-43.21"/>
<polygon fill="black" stroke="black" points="48.05,-45.57 52.96,-36.18 43.26,-40.46 48.05,-45.57"/>
<g id="a_edge6&#45;headlabel"><a xlink:href="dir_000001_000003.html" target="_top" xlink:title="10">
<text text-anchor="middle" x="47.37" y="-47.3" font-family="Helvetica,sans-Serif" font-size="11.00">10</text>
</a>
</g>
</g>
<!-- dir_d0f5152f7d18308a9d4fae6b6ee892f6&#45;&gt;dir_2775abc9b2b3cb3255edf03dcb12241b -->
<g id="edge7" class="edge">
<title>dir_d0f5152f7d18308a9d4fae6b6ee892f6&#45;&gt;dir_2775abc9b2b3cb3255edf03dcb12241b</title>
<path fill="none" stroke="black" d="M70.34,-71.7C69.55,-63.98 69.32,-54.71 69.67,-46.11"/>
<polygon fill="black" stroke="black" points="73.16,-46.32 70.37,-36.1 66.18,-45.84 73.16,-46.32"/>
<g id="a_edge7&#45;headlabel"><a xlink:href="dir_000002_000003.html" target="_top" xlink:title="14">
<text text-anchor="middle" x="75.74" y="-47.31" font-family="Helvetica,sans-Serif" font-size="11.00">14</text>
</a>
</g>
</g>
<!-- dir_663400e38af11bf0bd1f0e16fe6d508b&#45;&gt;dir_c64386e93f356b78d4612c7b7741707c -->
<g id="edge8" class="edge">
<title>dir_663400e38af11bf0bd1f0e16fe6d508b&#45;&gt;dir_c64386e93f356b78d4612c7b7741707c</title>
<path fill="none" stroke="black" d="M79.67,-215.7C73.14,-207.39 65.19,-197.28 58.01,-188.14"/>
<polygon fill="black" stroke="black" points="60.63,-185.81 51.7,-180.1 55.13,-190.13 60.63,-185.81"/>
<g id="a_edge8&#45;headlabel"><a xlink:href="dir_000012_000001.html" target="_top" xlink:title="1">
<text text-anchor="middle" x="65.08" y="-184.08" font-family="Helvetica,sans-Serif" font-size="11.00">1</text>
</a>
</g>
</g>
<!-- dir_663400e38af11bf0bd1f0e16fe6d508b&#45;&gt;dir_d0f5152f7d18308a9d4fae6b6ee892f6 -->
<g id="edge9" class="edge">
<title>dir_663400e38af11bf0bd1f0e16fe6d508b&#45;&gt;dir_d0f5152f7d18308a9d4fae6b6ee892f6</title>
<path fill="none" stroke="black" d="M91.21,-215.87C88.31,-191.67 82.99,-147.21 79.54,-118.39"/>
<polygon fill="black" stroke="black" points="82.98,-117.7 78.32,-108.19 76.03,-118.53 82.98,-117.7"/>
<g id="a_edge9&#45;headlabel"><a xlink:href="dir_000012_000002.html" target="_top" xlink:title="8">
<text text-anchor="middle" x="86.23" y="-118.13" font-family="Helvetica,sans-Serif" font-size="11.00">8</text>
</a>
</g>
</g>
<!-- dir_663400e38af11bf0bd1f0e16fe6d508b&#45;&gt;dir_2775abc9b2b3cb3255edf03dcb12241b -->
<g id="edge10" class="edge">
<title>dir_663400e38af11bf0bd1f0e16fe6d508b&#45;&gt;dir_2775abc9b2b3cb3255edf03dcb12241b</title>
<path fill="none" stroke="black" d="M102.95,-215.99C118.69,-185.99 146.17,-122.12 126.26,-72 121.97,-61.2 114.32,-51.32 106.27,-43.1"/>
<polygon fill="black" stroke="black" points="108.51,-40.4 98.86,-36.04 103.68,-45.47 108.51,-40.4"/>
<g id="a_edge10&#45;headlabel"><a xlink:href="dir_000012_000003.html" target="_top" xlink:title="12">
<text text-anchor="middle" x="113.07" y="-38.02" font-family="Helvetica,sans-Serif" font-size="11.00">12</text>
</a>
</g>
</g>
<!-- dir_2775abc9b2b3cb3255edf03dcb12241b&#45;&gt;dir_d0f5152f7d18308a9d4fae6b6ee892f6 -->
<g id="edge11" class="edge">
<title>dir_2775abc9b2b3cb3255edf03dcb12241b&#45;&gt;dir_d0f5152f7d18308a9d4fae6b6ee892f6</title>
<path fill="none" stroke="black" d="M82.16,-36.1C82.96,-43.79 83.2,-53.05 82.86,-61.67"/>
<polygon fill="black" stroke="black" points="79.37,-61.48 82.18,-71.7 86.35,-61.96 79.37,-61.48"/>
<g id="a_edge11&#45;headlabel"><a xlink:href="dir_000003_000002.html" target="_top" xlink:title="6">
<text text-anchor="middle" x="76.78" y="-54.9" font-family="Helvetica,sans-Serif" font-size="11.00">6</text>
</a>
</g>
</g>
</g>
</svg>
