<?xml version="1.0" encoding="UTF-8" standalone="no"?>
<!DOCTYPE svg PUBLIC "-//W3C//DTD SVG 1.1//EN"
 "http://www.w3.org/Graphics/SVG/1.1/DTD/svg11.dtd">
<!-- Generated by graphviz version 2.47.1 (20210417.1919)
 -->
<!-- Title: FluidSynthPlugin Pages: 1 -->
<svg width="293pt" height="439pt"
 viewBox="0.00 0.00 293.00 439.00" xmlns="http://www.w3.org/2000/svg" xmlns:xlink="http://www.w3.org/1999/xlink">
<g id="graph0" class="graph" transform="scale(1 1) rotate(0) translate(4 435)">
<title>FluidSynthPlugin</title>
<polygon fill="white" stroke="transparent" points="-4,4 -4,-435 289,-435 289,4 -4,4"/>
<g id="clust1" class="cluster">
<title>clusterdir_4bb77202a85366e5a69049a6555c5ad7</title>
<g id="a_clust1"><a xlink:href="dir_4bb77202a85366e5a69049a6555c5ad7.html" target="_top" xlink:title="Main">
<polygon fill="#ddddee" stroke="black" points="69,-352 69,-423 175,-423 175,-352 69,-352"/>
<text text-anchor="middle" x="122" y="-411" font-family="Helvetica,sans-Serif" font-size="10.00">Main</text>
</a>
</g>
</g>
<!-- dir_672501b7110aa1557a3d214f38ed082a -->
<g id="node1" class="node">
<title>dir_672501b7110aa1557a3d214f38ed082a</title>
<g id="a_node1"><a xlink:href="dir_672501b7110aa1557a3d214f38ed082a.html" target="_top" xlink:title="FluidSynthPlugin">
<polygon fill="#eeeeff" stroke="black" points="167,-396 77,-396 77,-360 167,-360 167,-396"/>
<text text-anchor="middle" x="122" y="-375.5" font-family="Helvetica,sans-Serif" font-size="10.00">FluidSynthPlugin</text>
</a>
</g>
</g>
<!-- dir_a5e53cdfc4dc3e34218e25b9dcddbbe5 -->
<g id="node2" class="node">
<title>dir_a5e53cdfc4dc3e34218e25b9dcddbbe5</title>
<g id="a_node2"><a xlink:href="dir_a5e53cdfc4dc3e34218e25b9dcddbbe5.html" target="_top" xlink:title="Libraries">
<polygon fill="white" stroke="red" points="285,-252 231,-252 231,-216 285,-216 285,-252"/>
<text text-anchor="middle" x="258" y="-231.5" font-family="Helvetica,sans-Serif" font-size="10.00">Libraries</text>
</a>
</g>
</g>
<!-- dir_672501b7110aa1557a3d214f38ed082a&#45;&gt;dir_a5e53cdfc4dc3e34218e25b9dcddbbe5 -->
<g id="edge1" class="edge">
<title>dir_672501b7110aa1557a3d214f38ed082a&#45;&gt;dir_a5e53cdfc4dc3e34218e25b9dcddbbe5</title>
<path fill="none" stroke="black" d="M162.2,-359.94C179.44,-351.12 198.83,-339.03 213,-324 229.81,-306.16 241.79,-280.84 249.14,-261.76"/>
<polygon fill="black" stroke="black" points="252.5,-262.76 252.66,-252.16 245.93,-260.35 252.5,-262.76"/>
<g id="a_edge1&#45;headlabel"><a xlink:href="dir_000011_000006.html" target="_top" xlink:title="1">
<text text-anchor="middle" x="253.93" y="-264.61" font-family="Helvetica,sans-Serif" font-size="10.00">1</text>
</a>
</g>
</g>
<!-- dir_c64386e93f356b78d4612c7b7741707c -->
<g id="node3" class="node">
<title>dir_c64386e93f356b78d4612c7b7741707c</title>
<g id="a_node3"><a xlink:href="dir_c64386e93f356b78d4612c7b7741707c.html" target="_top" xlink:title="Audio">
<polygon fill="none" stroke="black" points="158,-180 104,-180 104,-144 158,-144 158,-180"/>
<text text-anchor="middle" x="131" y="-159.5" font-family="Helvetica,sans-Serif" font-size="10.00">Audio</text>
</a>
</g>
</g>
<!-- dir_672501b7110aa1557a3d214f38ed082a&#45;&gt;dir_c64386e93f356b78d4612c7b7741707c -->
<g id="edge2" class="edge">
<title>dir_672501b7110aa1557a3d214f38ed082a&#45;&gt;dir_c64386e93f356b78d4612c7b7741707c</title>
<path fill="none" stroke="black" d="M122.72,-359.85C124.28,-322.83 127.96,-235.18 129.85,-190.39"/>
<polygon fill="black" stroke="black" points="133.35,-190.37 130.28,-180.23 126.36,-190.08 133.35,-190.37"/>
<g id="a_edge2&#45;headlabel"><a xlink:href="dir_000011_000001.html" target="_top" xlink:title="1">
<text text-anchor="middle" x="136.04" y="-191.58" font-family="Helvetica,sans-Serif" font-size="10.00">1</text>
</a>
</g>
</g>
<!-- dir_d0f5152f7d18308a9d4fae6b6ee892f6 -->
<g id="node4" class="node">
<title>dir_d0f5152f7d18308a9d4fae6b6ee892f6</title>
<g id="a_node4"><a xlink:href="dir_d0f5152f7d18308a9d4fae6b6ee892f6.html" target="_top" xlink:title="BaseModules">
<polygon fill="none" stroke="black" points="136,-108 60,-108 60,-72 136,-72 136,-108"/>
<text text-anchor="middle" x="98" y="-87.5" font-family="Helvetica,sans-Serif" font-size="10.00">BaseModules</text>
</a>
</g>
</g>
<!-- dir_672501b7110aa1557a3d214f38ed082a&#45;&gt;dir_d0f5152f7d18308a9d4fae6b6ee892f6 -->
<g id="edge3" class="edge">
<title>dir_672501b7110aa1557a3d214f38ed082a&#45;&gt;dir_d0f5152f7d18308a9d4fae6b6ee892f6</title>
<path fill="none" stroke="black" d="M116.42,-359.82C104.58,-321.33 78.66,-225.18 87,-144 87.88,-135.46 89.53,-126.26 91.29,-117.96"/>
<polygon fill="black" stroke="black" points="94.74,-118.57 93.54,-108.05 87.92,-117.03 94.74,-118.57"/>
<g id="a_edge3&#45;headlabel"><a xlink:href="dir_000011_000002.html" target="_top" xlink:title="7">
<text text-anchor="middle" x="96.72" y="-120.21" font-family="Helvetica,sans-Serif" font-size="10.00">7</text>
</a>
</g>
</g>
<!-- dir_663400e38af11bf0bd1f0e16fe6d508b -->
<g id="node5" class="node">
<title>dir_663400e38af11bf0bd1f0e16fe6d508b</title>
<g id="a_node5"><a xlink:href="dir_663400e38af11bf0bd1f0e16fe6d508b.html" target="_top" xlink:title="MIDI">
<polygon fill="none" stroke="black" points="204,-324 150,-324 150,-288 204,-288 204,-324"/>
<text text-anchor="middle" x="177" y="-303.5" font-family="Helvetica,sans-Serif" font-size="10.00">MIDI</text>
</a>
</g>
</g>
<!-- dir_672501b7110aa1557a3d214f38ed082a&#45;&gt;dir_663400e38af11bf0bd1f0e16fe6d508b -->
<g id="edge4" class="edge">
<title>dir_672501b7110aa1557a3d214f38ed082a&#45;&gt;dir_663400e38af11bf0bd1f0e16fe6d508b</title>
<path fill="none" stroke="black" d="M135.6,-359.7C142.12,-351.39 150.07,-341.28 157.25,-332.14"/>
<polygon fill="black" stroke="black" points="160.13,-334.13 163.56,-324.1 154.63,-329.81 160.13,-334.13"/>
<g id="a_edge4&#45;headlabel"><a xlink:href="dir_000011_000012.html" target="_top" xlink:title="2">
<text text-anchor="middle" x="160.15" y="-336.21" font-family="Helvetica,sans-Serif" font-size="10.00">2</text>
</a>
</g>
</g>
<!-- dir_2775abc9b2b3cb3255edf03dcb12241b -->
<g id="node6" class="node">
<title>dir_2775abc9b2b3cb3255edf03dcb12241b</title>
<g id="a_node6"><a xlink:href="dir_2775abc9b2b3cb3255edf03dcb12241b.html" target="_top" xlink:title="BaseTypes">
<polygon fill="white" stroke="red" points="163.5,-36 98.5,-36 98.5,0 163.5,0 163.5,-36"/>
<text text-anchor="middle" x="131" y="-15.5" font-family="Helvetica,sans-Serif" font-size="10.00">BaseTypes</text>
</a>
</g>
</g>
<!-- dir_672501b7110aa1557a3d214f38ed082a&#45;&gt;dir_2775abc9b2b3cb3255edf03dcb12241b -->
<g id="edge5" class="edge">
<title>dir_672501b7110aa1557a3d214f38ed082a&#45;&gt;dir_2775abc9b2b3cb3255edf03dcb12241b</title>
<path fill="none" stroke="black" d="M92.16,-359.83C56.04,-336.57 0,-291.39 0,-235 0,-235 0,-235 0,-161 0,-107.44 50.98,-65.44 89.33,-41.43"/>
<polygon fill="black" stroke="black" points="91.54,-44.18 98.28,-36 87.92,-38.19 91.54,-44.18"/>
<g id="a_edge5&#45;headlabel"><a xlink:href="dir_000011_000003.html" target="_top" xlink:title="5">
<text text-anchor="middle" x="89.94" y="-45.97" font-family="Helvetica,sans-Serif" font-size="10.00">5</text>
</a>
</g>
</g>
<!-- dir_a5e53cdfc4dc3e34218e25b9dcddbbe5&#45;&gt;dir_c64386e93f356b78d4612c7b7741707c -->
<g id="edge6" class="edge">
<title>dir_a5e53cdfc4dc3e34218e25b9dcddbbe5&#45;&gt;dir_c64386e93f356b78d4612c7b7741707c</title>
<path fill="none" stroke="black" d="M230.76,-217.98C212.17,-207.74 187.36,-194.07 167.13,-182.92"/>
<polygon fill="black" stroke="black" points="168.65,-179.75 158.2,-177.99 165.27,-185.88 168.65,-179.75"/>
<g id="a_edge6&#45;headlabel"><a xlink:href="dir_000006_000001.html" target="_top" xlink:title="1">
<text text-anchor="middle" x="173.17" y="-176.5" font-family="Helvetica,sans-Serif" font-size="10.00">1</text>
</a>
</g>
</g>
<!-- dir_a5e53cdfc4dc3e34218e25b9dcddbbe5&#45;&gt;dir_d0f5152f7d18308a9d4fae6b6ee892f6 -->
<g id="edge7" class="edge">
<title>dir_a5e53cdfc4dc3e34218e25b9dcddbbe5&#45;&gt;dir_d0f5152f7d18308a9d4fae6b6ee892f6</title>
<path fill="none" stroke="black" d="M241.8,-215.98C224.02,-197.6 194.37,-167.75 167,-144 155.34,-133.88 141.99,-123.4 130.17,-114.45"/>
<polygon fill="black" stroke="black" points="131.97,-111.43 121.87,-108.23 127.77,-117.03 131.97,-111.43"/>
<g id="a_edge7&#45;headlabel"><a xlink:href="dir_000006_000002.html" target="_top" xlink:title="5">
<text text-anchor="middle" x="136.55" y="-108.81" font-family="Helvetica,sans-Serif" font-size="10.00">5</text>
</a>
</g>
</g>
<!-- dir_a5e53cdfc4dc3e34218e25b9dcddbbe5&#45;&gt;dir_2775abc9b2b3cb3255edf03dcb12241b -->
<g id="edge8" class="edge">
<title>dir_a5e53cdfc4dc3e34218e25b9dcddbbe5&#45;&gt;dir_2775abc9b2b3cb3255edf03dcb12241b</title>
<path fill="none" stroke="black" d="M260.78,-215.87C264.92,-184.26 269.22,-115.99 238,-72 222.67,-50.4 196,-37.16 173.12,-29.32"/>
<polygon fill="black" stroke="black" points="174.18,-25.98 163.59,-26.28 172.05,-32.65 174.18,-25.98"/>
<g id="a_edge8&#45;headlabel"><a xlink:href="dir_000006_000003.html" target="_top" xlink:title="10">
<text text-anchor="middle" x="178.46" y="-21.87" font-family="Helvetica,sans-Serif" font-size="10.00">10</text>
</a>
</g>
</g>
<!-- dir_c64386e93f356b78d4612c7b7741707c&#45;&gt;dir_d0f5152f7d18308a9d4fae6b6ee892f6 -->
<g id="edge9" class="edge">
<title>dir_c64386e93f356b78d4612c7b7741707c&#45;&gt;dir_d0f5152f7d18308a9d4fae6b6ee892f6</title>
<path fill="none" stroke="black" d="M122.84,-143.7C119.09,-135.73 114.55,-126.1 110.38,-117.26"/>
<polygon fill="black" stroke="black" points="113.49,-115.66 106.06,-108.1 107.16,-118.64 113.49,-115.66"/>
<g id="a_edge9&#45;headlabel"><a xlink:href="dir_000001_000002.html" target="_top" xlink:title="8">
<text text-anchor="middle" x="117.59" y="-115.2" font-family="Helvetica,sans-Serif" font-size="10.00">8</text>
</a>
</g>
</g>
<!-- dir_c64386e93f356b78d4612c7b7741707c&#45;&gt;dir_2775abc9b2b3cb3255edf03dcb12241b -->
<g id="edge10" class="edge">
<title>dir_c64386e93f356b78d4612c7b7741707c&#45;&gt;dir_2775abc9b2b3cb3255edf03dcb12241b</title>
<path fill="none" stroke="black" d="M136.82,-143.56C139.93,-133.33 143.43,-120.08 145,-108 147.06,-92.13 147.06,-87.87 145,-72 143.9,-63.51 141.84,-54.43 139.63,-46.24"/>
<polygon fill="black" stroke="black" points="142.95,-45.09 136.82,-36.44 136.22,-47.02 142.95,-45.09"/>
<g id="a_edge10&#45;headlabel"><a xlink:href="dir_000001_000003.html" target="_top" xlink:title="10">
<text text-anchor="middle" x="146.67" y="-45.26" font-family="Helvetica,sans-Serif" font-size="10.00">10</text>
</a>
</g>
</g>
<!-- dir_d0f5152f7d18308a9d4fae6b6ee892f6&#45;&gt;dir_2775abc9b2b3cb3255edf03dcb12241b -->
<g id="edge11" class="edge">
<title>dir_d0f5152f7d18308a9d4fae6b6ee892f6&#45;&gt;dir_2775abc9b2b3cb3255edf03dcb12241b</title>
<path fill="none" stroke="black" d="M100.24,-71.7C103.21,-63.64 107.59,-53.89 112.2,-44.98"/>
<polygon fill="black" stroke="black" points="115.33,-46.56 117.04,-36.1 109.18,-43.21 115.33,-46.56"/>
<g id="a_edge11&#45;headlabel"><a xlink:href="dir_000002_000003.html" target="_top" xlink:title="16">
<text text-anchor="middle" x="116.1" y="-48.58" font-family="Helvetica,sans-Serif" font-size="10.00">16</text>
</a>
</g>
</g>
<!-- dir_663400e38af11bf0bd1f0e16fe6d508b&#45;&gt;dir_a5e53cdfc4dc3e34218e25b9dcddbbe5 -->
<g id="edge12" class="edge">
<title>dir_663400e38af11bf0bd1f0e16fe6d508b&#45;&gt;dir_a5e53cdfc4dc3e34218e25b9dcddbbe5</title>
<path fill="none" stroke="black" d="M197.02,-287.7C207.13,-278.97 219.54,-268.24 230.52,-258.75"/>
<polygon fill="black" stroke="black" points="232.93,-261.29 238.21,-252.1 228.35,-255.99 232.93,-261.29"/>
<g id="a_edge12&#45;headlabel"><a xlink:href="dir_000012_000006.html" target="_top" xlink:title="1">
<text text-anchor="middle" x="232.07" y="-263.29" font-family="Helvetica,sans-Serif" font-size="10.00">1</text>
</a>
</g>
</g>
<!-- dir_663400e38af11bf0bd1f0e16fe6d508b&#45;&gt;dir_c64386e93f356b78d4612c7b7741707c -->
<g id="edge13" class="edge">
<title>dir_663400e38af11bf0bd1f0e16fe6d508b&#45;&gt;dir_c64386e93f356b78d4612c7b7741707c</title>
<path fill="none" stroke="black" d="M171.45,-287.87C163.58,-263.56 149.08,-218.82 139.75,-190.01"/>
<polygon fill="black" stroke="black" points="142.98,-188.62 136.57,-180.19 136.32,-190.78 142.98,-188.62"/>
<g id="a_edge13&#45;headlabel"><a xlink:href="dir_000012_000001.html" target="_top" xlink:title="1">
<text text-anchor="middle" x="146.79" y="-188.67" font-family="Helvetica,sans-Serif" font-size="10.00">1</text>
</a>
</g>
</g>
<!-- dir_663400e38af11bf0bd1f0e16fe6d508b&#45;&gt;dir_d0f5152f7d18308a9d4fae6b6ee892f6 -->
<g id="edge14" class="edge">
<title>dir_663400e38af11bf0bd1f0e16fe6d508b&#45;&gt;dir_d0f5152f7d18308a9d4fae6b6ee892f6</title>
<path fill="none" stroke="black" d="M160.78,-287.67C140.78,-264.98 107.85,-223.02 95,-180 89,-159.91 90.2,-136.13 92.65,-118.2"/>
<polygon fill="black" stroke="black" points="96.14,-118.57 94.24,-108.14 89.22,-117.47 96.14,-118.57"/>
<g id="a_edge14&#45;headlabel"><a xlink:href="dir_000012_000002.html" target="_top" xlink:title="9">
<text text-anchor="middle" x="98.38" y="-120.06" font-family="Helvetica,sans-Serif" font-size="10.00">9</text>
</a>
</g>
</g>
<!-- dir_663400e38af11bf0bd1f0e16fe6d508b&#45;&gt;dir_2775abc9b2b3cb3255edf03dcb12241b -->
<g id="edge15" class="edge">
<title>dir_663400e38af11bf0bd1f0e16fe6d508b&#45;&gt;dir_2775abc9b2b3cb3255edf03dcb12241b</title>
<path fill="none" stroke="black" d="M178.32,-287.85C180.81,-248.62 183.94,-149.72 160,-72 157.17,-62.82 152.66,-53.43 148.03,-45.15"/>
<polygon fill="black" stroke="black" points="150.93,-43.18 142.83,-36.35 144.9,-46.74 150.93,-43.18"/>
<g id="a_edge15&#45;headlabel"><a xlink:href="dir_000012_000003.html" target="_top" xlink:title="13">
<text text-anchor="middle" x="155.2" y="-42.33" font-family="Helvetica,sans-Serif" font-size="10.00">13</text>
</a>
</g>
</g>
<!-- dir_2775abc9b2b3cb3255edf03dcb12241b&#45;&gt;dir_d0f5152f7d18308a9d4fae6b6ee892f6 -->
<g id="edge16" class="edge">
<title>dir_2775abc9b2b3cb3255edf03dcb12241b&#45;&gt;dir_d0f5152f7d18308a9d4fae6b6ee892f6</title>
<path fill="none" stroke="black" d="M128.83,-36.1C125.89,-44.13 121.52,-53.87 116.91,-62.8"/>
<polygon fill="black" stroke="black" points="113.77,-61.24 112.07,-71.7 119.92,-64.58 113.77,-61.24"/>
<g id="a_edge16&#45;headlabel"><a xlink:href="dir_000003_000002.html" target="_top" xlink:title="8">
<text text-anchor="middle" x="112.99" y="-54.22" font-family="Helvetica,sans-Serif" font-size="10.00">8</text>
</a>
</g>
</g>
</g>
</svg>
