<?xml version="1.0" encoding="UTF-8" standalone="no"?>
<!DOCTYPE svg PUBLIC "-//W3C//DTD SVG 1.1//EN"
 "http://www.w3.org/Graphics/SVG/1.1/DTD/svg11.dtd">
<!-- Generated by graphviz version 2.47.1 (20210417.1919)
 -->
<!-- Title: Libraries Pages: 1 -->
<svg width="298pt" height="304pt"
 viewBox="0.00 0.00 298.00 304.00" xmlns="http://www.w3.org/2000/svg" xmlns:xlink="http://www.w3.org/1999/xlink">
<g id="graph0" class="graph" transform="scale(1 1) rotate(0) translate(4 300)">
<title>Libraries</title>
<polygon fill="white" stroke="transparent" points="-4,4 -4,-300 294,-300 294,4 -4,4"/>
<g id="clust1" class="cluster">
<title>clusterdir_68267d1309a1af8e8297ef4c3efbcdba</title>
<g id="a_clust1"><a xlink:href="dir_68267d1309a1af8e8297ef4c3efbcdba.html" target="_top" xlink:title="src">
<polygon fill="#ddddee" stroke="black" points="8,-200 8,-288 282,-288 282,-200 8,-200"/>
<text text-anchor="middle" x="145" y="-275.2" font-family="Helvetica,sans-Serif" font-size="11.00">src</text>
</a>
</g>
</g>
<g id="clust2" class="cluster">
<title>clusterdir_a5e53cdfc4dc3e34218e25b9dcddbbe5</title>
<g id="a_clust2"><a xlink:href="dir_a5e53cdfc4dc3e34218e25b9dcddbbe5.html" target="_top">
<polygon fill="#eeeeff" stroke="black" points="16,-208 16,-260 274,-260 274,-208 16,-208"/>
</a>
</g>
</g>
<!-- dir_a5e53cdfc4dc3e34218e25b9dcddbbe5 -->
<g id="node1" class="node">
<title>dir_a5e53cdfc4dc3e34218e25b9dcddbbe5</title>
<text text-anchor="middle" x="236" y="-231.2" font-family="Helvetica,sans-Serif" font-size="11.00">Libraries</text>
</g>
<!-- dir_018d056de2587569fd8431e71180a6d2 -->
<g id="node2" class="node">
<title>dir_018d056de2587569fd8431e71180a6d2</title>
<g id="a_node2"><a xlink:href="dir_018d056de2587569fd8431e71180a6d2.html" target="_top" xlink:title="FluidSynth">
<polygon fill="white" stroke="black" points="188,-252 120,-252 120,-216 188,-216 188,-252"/>
<text text-anchor="middle" x="154" y="-231.2" font-family="Helvetica,sans-Serif" font-size="11.00">FluidSynth</text>
</a>
</g>
</g>
<!-- dir_c64386e93f356b78d4612c7b7741707c -->
<g id="node4" class="node">
<title>dir_c64386e93f356b78d4612c7b7741707c</title>
<g id="a_node4"><a xlink:href="dir_c64386e93f356b78d4612c7b7741707c.html" target="_top" xlink:title="Audio">
<polygon fill="none" stroke="black" points="181,-180 127,-180 127,-144 181,-144 181,-180"/>
<text text-anchor="middle" x="154" y="-159.2" font-family="Helvetica,sans-Serif" font-size="11.00">Audio</text>
</a>
</g>
</g>
<!-- dir_018d056de2587569fd8431e71180a6d2&#45;&gt;dir_c64386e93f356b78d4612c7b7741707c -->
<g id="edge1" class="edge">
<title>dir_018d056de2587569fd8431e71180a6d2&#45;&gt;dir_c64386e93f356b78d4612c7b7741707c</title>
<path fill="none" stroke="black" d="M154,-215.7C154,-207.98 154,-198.71 154,-190.11"/>
<polygon fill="black" stroke="black" points="157.5,-190.1 154,-180.1 150.5,-190.1 157.5,-190.1"/>
<g id="a_edge1&#45;headlabel"><a xlink:href="dir_000007_000001.html" target="_top" xlink:title="1">
<text text-anchor="middle" x="160.34" y="-190.9" font-family="Helvetica,sans-Serif" font-size="11.00">1</text>
</a>
</g>
</g>
<!-- dir_d0f5152f7d18308a9d4fae6b6ee892f6 -->
<g id="node5" class="node">
<title>dir_d0f5152f7d18308a9d4fae6b6ee892f6</title>
<g id="a_node5"><a xlink:href="dir_d0f5152f7d18308a9d4fae6b6ee892f6.html" target="_top" xlink:title="BaseModules">
<polygon fill="none" stroke="black" points="141.5,-108 58.5,-108 58.5,-72 141.5,-72 141.5,-108"/>
<text text-anchor="middle" x="100" y="-87.2" font-family="Helvetica,sans-Serif" font-size="11.00">BaseModules</text>
</a>
</g>
</g>
<!-- dir_018d056de2587569fd8431e71180a6d2&#45;&gt;dir_d0f5152f7d18308a9d4fae6b6ee892f6 -->
<g id="edge2" class="edge">
<title>dir_018d056de2587569fd8431e71180a6d2&#45;&gt;dir_d0f5152f7d18308a9d4fae6b6ee892f6</title>
<path fill="none" stroke="black" d="M139.78,-215.87C132.24,-205.96 123.43,-192.92 118,-180 109.71,-160.29 105.15,-136.49 102.7,-118.46"/>
<polygon fill="black" stroke="black" points="106.15,-117.82 101.46,-108.33 99.2,-118.68 106.15,-117.82"/>
<g id="a_edge2&#45;headlabel"><a xlink:href="dir_000007_000002.html" target="_top" xlink:title="3">
<text text-anchor="middle" x="109.4" y="-118.25" font-family="Helvetica,sans-Serif" font-size="11.00">3</text>
</a>
</g>
</g>
<!-- dir_2775abc9b2b3cb3255edf03dcb12241b -->
<g id="node6" class="node">
<title>dir_2775abc9b2b3cb3255edf03dcb12241b</title>
<g id="a_node6"><a xlink:href="dir_2775abc9b2b3cb3255edf03dcb12241b.html" target="_top" xlink:title="BaseTypes">
<polygon fill="white" stroke="red" points="171,-36 99,-36 99,0 171,0 171,-36"/>
<text text-anchor="middle" x="135" y="-15.2" font-family="Helvetica,sans-Serif" font-size="11.00">BaseTypes</text>
</a>
</g>
</g>
<!-- dir_018d056de2587569fd8431e71180a6d2&#45;&gt;dir_2775abc9b2b3cb3255edf03dcb12241b -->
<g id="edge3" class="edge">
<title>dir_018d056de2587569fd8431e71180a6d2&#45;&gt;dir_2775abc9b2b3cb3255edf03dcb12241b</title>
<path fill="none" stroke="black" d="M169.61,-215.77C177.37,-206.03 185.95,-193.18 190,-180 194.7,-164.71 192.56,-159.79 190,-144 184.6,-110.7 179.92,-102.72 166,-72 161.86,-62.87 156.59,-53.3 151.56,-44.85"/>
<polygon fill="black" stroke="black" points="154.47,-42.89 146.28,-36.18 148.49,-46.54 154.47,-42.89"/>
<g id="a_edge3&#45;headlabel"><a xlink:href="dir_000007_000003.html" target="_top" xlink:title="7">
<text text-anchor="middle" x="158.77" y="-41.68" font-family="Helvetica,sans-Serif" font-size="11.00">7</text>
</a>
</g>
</g>
<!-- dir_934da3704fe2c65068e39ab5a96037f2 -->
<g id="node3" class="node">
<title>dir_934da3704fe2c65068e39ab5a96037f2</title>
<g id="a_node3"><a xlink:href="dir_934da3704fe2c65068e39ab5a96037f2.html" target="_top" xlink:title="JuceFacade">
<polygon fill="white" stroke="black" points="101.5,-252 24.5,-252 24.5,-216 101.5,-216 101.5,-252"/>
<text text-anchor="middle" x="63" y="-231.2" font-family="Helvetica,sans-Serif" font-size="11.00">JuceFacade</text>
</a>
</g>
</g>
<!-- dir_c64386e93f356b78d4612c7b7741707c&#45;&gt;dir_d0f5152f7d18308a9d4fae6b6ee892f6 -->
<g id="edge4" class="edge">
<title>dir_c64386e93f356b78d4612c7b7741707c&#45;&gt;dir_d0f5152f7d18308a9d4fae6b6ee892f6</title>
<path fill="none" stroke="black" d="M140.65,-143.7C134.24,-135.39 126.44,-125.28 119.39,-116.14"/>
<polygon fill="black" stroke="black" points="122.07,-113.88 113.19,-108.1 116.53,-118.16 122.07,-113.88"/>
<g id="a_edge4&#45;headlabel"><a xlink:href="dir_000001_000002.html" target="_top" xlink:title="7">
<text text-anchor="middle" x="126.52" y="-112.2" font-family="Helvetica,sans-Serif" font-size="11.00">7</text>
</a>
</g>
</g>
<!-- dir_c64386e93f356b78d4612c7b7741707c&#45;&gt;dir_2775abc9b2b3cb3255edf03dcb12241b -->
<g id="edge5" class="edge">
<title>dir_c64386e93f356b78d4612c7b7741707c&#45;&gt;dir_2775abc9b2b3cb3255edf03dcb12241b</title>
<path fill="none" stroke="black" d="M154.73,-143.81C155.19,-125.79 155.08,-96.71 151,-72 149.58,-63.37 147.14,-54.18 144.6,-45.92"/>
<polygon fill="black" stroke="black" points="147.92,-44.82 141.5,-36.4 141.27,-46.99 147.92,-44.82"/>
<g id="a_edge5&#45;headlabel"><a xlink:href="dir_000001_000003.html" target="_top" xlink:title="11">
<text text-anchor="middle" x="151.74" y="-44.56" font-family="Helvetica,sans-Serif" font-size="11.00">11</text>
</a>
</g>
</g>
<!-- dir_d0f5152f7d18308a9d4fae6b6ee892f6&#45;&gt;dir_2775abc9b2b3cb3255edf03dcb12241b -->
<g id="edge6" class="edge">
<title>dir_d0f5152f7d18308a9d4fae6b6ee892f6&#45;&gt;dir_2775abc9b2b3cb3255edf03dcb12241b</title>
<path fill="none" stroke="black" d="M102.74,-71.7C105.93,-63.64 110.6,-53.89 115.46,-44.98"/>
<polygon fill="black" stroke="black" points="118.61,-46.52 120.55,-36.1 112.54,-43.04 118.61,-46.52"/>
<g id="a_edge6&#45;headlabel"><a xlink:href="dir_000002_000003.html" target="_top" xlink:title="15">
<text text-anchor="middle" x="119.29" y="-48.25" font-family="Helvetica,sans-Serif" font-size="11.00">15</text>
</a>
</g>
</g>
<!-- dir_2775abc9b2b3cb3255edf03dcb12241b&#45;&gt;dir_d0f5152f7d18308a9d4fae6b6ee892f6 -->
<g id="edge7" class="edge">
<title>dir_2775abc9b2b3cb3255edf03dcb12241b&#45;&gt;dir_d0f5152f7d18308a9d4fae6b6ee892f6</title>
<path fill="none" stroke="black" d="M132.34,-36.1C129.17,-44.13 124.52,-53.87 119.66,-62.8"/>
<polygon fill="black" stroke="black" points="116.49,-61.28 114.57,-71.7 122.57,-64.75 116.49,-61.28"/>
<g id="a_edge7&#45;headlabel"><a xlink:href="dir_000003_000002.html" target="_top" xlink:title="7">
<text text-anchor="middle" x="115.82" y="-53.95" font-family="Helvetica,sans-Serif" font-size="11.00">7</text>
</a>
</g>
</g>
</g>
</svg>
