<?xml version="1.0" encoding="UTF-8" standalone="no"?>
<!DOCTYPE svg PUBLIC "-//W3C//DTD SVG 1.1//EN"
 "http://www.w3.org/Graphics/SVG/1.1/DTD/svg11.dtd">
<!-- Generated by graphviz version 2.47.1 (20210417.1919)
 -->
<!-- Title: Graphical Class Hierarchy Pages: 1 -->
<svg width="259pt" height="449pt"
 viewBox="0.00 0.00 259.00 448.50" xmlns="http://www.w3.org/2000/svg" xmlns:xlink="http://www.w3.org/1999/xlink">
<g id="graph0" class="graph" transform="scale(1 1) rotate(0) translate(4 444.5)">
<title>Graphical Class Hierarchy</title>
<polygon fill="white" stroke="transparent" points="-4,4 -4,-444.5 255,-444.5 255,4 -4,4"/>
<!-- Node56 -->
<g id="node1" class="node">
<title>Node56</title>
<g id="a_node1"><a xlink:title=" ">
<polygon fill="white" stroke="#bfbfbf" points="0,-215.5 0,-234.5 66,-234.5 66,-215.5 0,-215.5"/>
<text text-anchor="middle" x="33" y="-222.5" font-family="Helvetica,sans-Serif" font-size="10.00">GenericList</text>
</a>
</g>
</g>
<!-- Node0 -->
<g id="node2" class="node">
<title>Node0</title>
<g id="a_node2"><a xlink:href="struct_audio_1_1_audio_sample_fifo_queue_vector.html" target="_top" xlink:title="A AudioSampleFifoQueueVector object is a list of fifo queues for audio samples with selection by inde...">
<polygon fill="white" stroke="black" points="102,-410 102,-440 251,-440 251,-410 102,-410"/>
<text text-anchor="start" x="110" y="-428" font-family="Helvetica,sans-Serif" font-size="10.00">Audio::AudioSampleFifoQueue</text>
<text text-anchor="middle" x="176.5" y="-417" font-family="Helvetica,sans-Serif" font-size="10.00">Vector</text>
</a>
</g>
</g>
<!-- Node56&#45;&gt;Node0 -->
<g id="edge1" class="edge">
<title>Node56&#45;&gt;Node0</title>
<path fill="none" stroke="midnightblue" d="M36.28,-245.13C41.42,-281.2 57.19,-357.07 102,-400 105.99,-403.82 110.59,-407.06 115.5,-409.81"/>
<polygon fill="midnightblue" stroke="midnightblue" points="39.71,-244.38 34.96,-234.91 32.77,-245.28 39.71,-244.38"/>
</g>
<!-- Node58 -->
<g id="node3" class="node">
<title>Node58</title>
<g id="a_node3"><a xlink:href="struct_audio_1_1_audio_sample_list.html" target="_top" xlink:title="An AudioSampleList object is a list of audio samples with arbitrary indexed access to positions in th...">
<polygon fill="white" stroke="black" points="116,-371.5 116,-390.5 237,-390.5 237,-371.5 116,-371.5"/>
<text text-anchor="middle" x="176.5" y="-378.5" font-family="Helvetica,sans-Serif" font-size="10.00">Audio::AudioSampleList</text>
</a>
</g>
</g>
<!-- Node56&#45;&gt;Node58 -->
<g id="edge2" class="edge">
<title>Node56&#45;&gt;Node58</title>
<path fill="none" stroke="midnightblue" d="M38.27,-244.76C45.8,-274.74 64.33,-331.44 102,-362 106.81,-365.9 112.33,-369.01 118.14,-371.49"/>
<polygon fill="midnightblue" stroke="midnightblue" points="41.6,-243.63 35.91,-234.69 34.78,-245.23 41.6,-243.63"/>
</g>
<!-- Node59 -->
<g id="node4" class="node">
<title>Node59</title>
<g id="a_node4"><a xlink:href="struct_audio_1_1_audio_sample_list_vector.html" target="_top" xlink:title="A AudioSampleListVector object is a buffer of audio sample lists containing the input samples and the...">
<polygon fill="white" stroke="black" points="102,-333.5 102,-352.5 251,-352.5 251,-333.5 102,-333.5"/>
<text text-anchor="middle" x="176.5" y="-340.5" font-family="Helvetica,sans-Serif" font-size="10.00">Audio::AudioSampleListVector</text>
</a>
</g>
</g>
<!-- Node56&#45;&gt;Node59 -->
<g id="edge3" class="edge">
<title>Node56&#45;&gt;Node59</title>
<path fill="none" stroke="midnightblue" d="M41.88,-243.79C52.3,-266.32 72.82,-303.57 102,-324 107.51,-327.86 113.73,-330.93 120.18,-333.38"/>
<polygon fill="midnightblue" stroke="midnightblue" points="45.06,-242.32 37.81,-234.6 38.66,-245.16 45.06,-242.32"/>
</g>
<!-- Node60 -->
<g id="node5" class="node">
<title>Node60</title>
<g id="a_node5"><a xlink:href="struct_base_modules_1_1_command_line_argument_list.html" target="_top" xlink:title="An CommandLineArgumentList object is a list of abstract arguments for the main program derived from t...">
<polygon fill="white" stroke="black" points="104.5,-284 104.5,-314 248.5,-314 248.5,-284 104.5,-284"/>
<text text-anchor="start" x="112.5" y="-302" font-family="Helvetica,sans-Serif" font-size="10.00">BaseModules::CommandLine</text>
<text text-anchor="middle" x="176.5" y="-291" font-family="Helvetica,sans-Serif" font-size="10.00">ArgumentList</text>
</a>
</g>
</g>
<!-- Node56&#45;&gt;Node60 -->
<g id="edge4" class="edge">
<title>Node56&#45;&gt;Node60</title>
<path fill="none" stroke="midnightblue" d="M52.61,-241.23C65.71,-251.99 84.04,-265.77 102,-275 108.45,-278.31 115.44,-281.3 122.47,-283.94"/>
<polygon fill="midnightblue" stroke="midnightblue" points="54.73,-238.43 44.82,-234.67 50.22,-243.79 54.73,-238.43"/>
</g>
<!-- Node61 -->
<g id="node6" class="node">
<title>Node61</title>
<g id="a_node6"><a xlink:href="struct_base_types_1_1_containers_1_1_byte_list.html" target="_top" xlink:title="A ByteList object is a list of byte values with arbitrary indexed access to positions in the list.">
<polygon fill="white" stroke="black" points="117.5,-235 117.5,-265 235.5,-265 235.5,-235 117.5,-235"/>
<text text-anchor="start" x="125.5" y="-253" font-family="Helvetica,sans-Serif" font-size="10.00">BaseTypes::Containers</text>
<text text-anchor="middle" x="176.5" y="-242" font-family="Helvetica,sans-Serif" font-size="10.00">::ByteList</text>
</a>
</g>
</g>
<!-- Node56&#45;&gt;Node61 -->
<g id="edge5" class="edge">
<title>Node56&#45;&gt;Node61</title>
<path fill="none" stroke="midnightblue" d="M76.12,-232.44C89.07,-234.73 103.55,-237.29 117.38,-239.73"/>
<polygon fill="midnightblue" stroke="midnightblue" points="76.56,-228.97 66.11,-230.67 75.35,-235.86 76.56,-228.97"/>
</g>
<!-- Node62 -->
<g id="node7" class="node">
<title>Node62</title>
<g id="a_node7"><a xlink:href="struct_base_types_1_1_containers_1_1_integer_list.html" target="_top" xlink:title="An IntegerList object is a list of integer values with arbitrary indexed access to positions in the l...">
<polygon fill="white" stroke="black" points="117.5,-186 117.5,-216 235.5,-216 235.5,-186 117.5,-186"/>
<text text-anchor="start" x="125.5" y="-204" font-family="Helvetica,sans-Serif" font-size="10.00">BaseTypes::Containers</text>
<text text-anchor="middle" x="176.5" y="-193" font-family="Helvetica,sans-Serif" font-size="10.00">::IntegerList</text>
</a>
</g>
</g>
<!-- Node56&#45;&gt;Node62 -->
<g id="edge6" class="edge">
<title>Node56&#45;&gt;Node62</title>
<path fill="none" stroke="midnightblue" d="M76.12,-217.86C89.07,-215.66 103.55,-213.2 117.38,-210.86"/>
<polygon fill="midnightblue" stroke="midnightblue" points="75.38,-214.43 66.11,-219.55 76.55,-221.33 75.38,-214.43"/>
</g>
<!-- Node63 -->
<g id="node8" class="node">
<title>Node63</title>
<g id="a_node8"><a xlink:href="struct_base_types_1_1_containers_1_1_natural_list.html" target="_top" xlink:title="A NaturalList object is a list of non&#45;negative integer values with arbitrary indexed access to positi...">
<polygon fill="white" stroke="black" points="117.5,-137 117.5,-167 235.5,-167 235.5,-137 117.5,-137"/>
<text text-anchor="start" x="125.5" y="-155" font-family="Helvetica,sans-Serif" font-size="10.00">BaseTypes::Containers</text>
<text text-anchor="middle" x="176.5" y="-144" font-family="Helvetica,sans-Serif" font-size="10.00">::NaturalList</text>
</a>
</g>
</g>
<!-- Node56&#45;&gt;Node63 -->
<g id="edge7" class="edge">
<title>Node56&#45;&gt;Node63</title>
<path fill="none" stroke="midnightblue" d="M53.22,-209.17C66.35,-198.94 84.47,-185.93 102,-177 109.21,-173.33 117.07,-170 124.89,-167.07"/>
<polygon fill="midnightblue" stroke="midnightblue" points="51.02,-206.45 45.38,-215.41 55.38,-211.92 51.02,-206.45"/>
</g>
<!-- Node64 -->
<g id="node9" class="node">
<title>Node64</title>
<g id="a_node9"><a xlink:href="struct_base_types_1_1_containers_1_1_real_list.html" target="_top" xlink:title="A RealList object is a list of real values with arbitrary indexed access to positions in the list.">
<polygon fill="white" stroke="black" points="117.5,-88 117.5,-118 235.5,-118 235.5,-88 117.5,-88"/>
<text text-anchor="start" x="125.5" y="-106" font-family="Helvetica,sans-Serif" font-size="10.00">BaseTypes::Containers</text>
<text text-anchor="middle" x="176.5" y="-95" font-family="Helvetica,sans-Serif" font-size="10.00">::RealList</text>
</a>
</g>
</g>
<!-- Node56&#45;&gt;Node64 -->
<g id="edge8" class="edge">
<title>Node56&#45;&gt;Node64</title>
<path fill="none" stroke="midnightblue" d="M42.55,-206.31C53.42,-184.54 74.16,-148.88 102,-128 107.18,-124.12 112.99,-120.81 119.03,-118"/>
<polygon fill="midnightblue" stroke="midnightblue" points="39.31,-204.97 38.14,-215.5 45.62,-208 39.31,-204.97"/>
</g>
<!-- Node65 -->
<g id="node10" class="node">
<title>Node65</title>
<g id="a_node10"><a xlink:href="struct_base_types_1_1_containers_1_1_string_list.html" target="_top" xlink:title="A StringList object is a list of string values with arbitrary indexed access to positions in the list...">
<polygon fill="white" stroke="black" points="117.5,-39 117.5,-69 235.5,-69 235.5,-39 117.5,-39"/>
<text text-anchor="start" x="125.5" y="-57" font-family="Helvetica,sans-Serif" font-size="10.00">BaseTypes::Containers</text>
<text text-anchor="middle" x="176.5" y="-46" font-family="Helvetica,sans-Serif" font-size="10.00">::StringList</text>
</a>
</g>
</g>
<!-- Node56&#45;&gt;Node65 -->
<g id="edge9" class="edge">
<title>Node56&#45;&gt;Node65</title>
<path fill="none" stroke="midnightblue" d="M37.98,-205.19C45.26,-173.99 63.63,-113.43 102,-79 106.51,-74.95 111.71,-71.55 117.21,-68.7"/>
<polygon fill="midnightblue" stroke="midnightblue" points="34.5,-204.73 35.79,-215.25 41.34,-206.23 34.5,-204.73"/>
</g>
<!-- Node66 -->
<g id="node11" class="node">
<title>Node66</title>
<g id="a_node11"><a xlink:href="struct_m_i_d_i_1_1_midi_event_list.html" target="_top" xlink:title="An MidiEventList object is a list of MIDI events with arbitrary indexed access to positions in the li...">
<polygon fill="white" stroke="black" points="126.5,-0.5 126.5,-19.5 226.5,-19.5 226.5,-0.5 126.5,-0.5"/>
<text text-anchor="middle" x="176.5" y="-7.5" font-family="Helvetica,sans-Serif" font-size="10.00">MIDI::MidiEventList</text>
</a>
</g>
</g>
<!-- Node56&#45;&gt;Node66 -->
<g id="edge10" class="edge">
<title>Node56&#45;&gt;Node66</title>
<path fill="none" stroke="midnightblue" d="M35.04,-205.05C38.21,-165.66 50.93,-77.63 102,-30 108.77,-23.69 117.33,-19.33 126.2,-16.33"/>
<polygon fill="midnightblue" stroke="midnightblue" points="31.54,-204.99 34.36,-215.2 38.52,-205.46 31.54,-204.99"/>
</g>
</g>
</svg>
