<?xml version="1.0" encoding="UTF-8" standalone="no"?>
<!DOCTYPE svg PUBLIC "-//W3C//DTD SVG 1.1//EN"
 "http://www.w3.org/Graphics/SVG/1.1/DTD/svg11.dtd">
<!-- Generated by graphviz version 2.47.1 (20210417.1919)
 -->
<!-- Title: Graphical Class Hierarchy Pages: 1 -->
<svg width="390pt" height="259pt"
 viewBox="0.00 0.00 390.00 259.00" xmlns="http://www.w3.org/2000/svg" xmlns:xlink="http://www.w3.org/1999/xlink">
<g id="graph0" class="graph" transform="scale(1 1) rotate(0) translate(4 255)">
<title>Graphical Class Hierarchy</title>
<polygon fill="white" stroke="transparent" points="-4,4 -4,-255 386,-255 386,4 -4,4"/>
<!-- Node46 -->
<g id="node1" class="node">
<title>Node46</title>
<g id="a_node1"><a xlink:title=" ">
<polygon fill="white" stroke="#bfbfbf" points="0,-128 0,-147 84,-147 84,-128 0,-128"/>
<text text-anchor="middle" x="42" y="-135" font-family="Helvetica,sans-Serif" font-size="10.00">GenericNumber</text>
</a>
</g>
</g>
<!-- Node0 -->
<g id="node2" class="node">
<title>Node0</title>
<g id="a_node2"><a xlink:href="struct_base_types_1_1_primitives_1_1_byte.html" target="_top" xlink:title="A Byte object wraps a value of the associated primitive type char into an object.">
<polygon fill="white" stroke="black" points="120,-220.5 120,-250.5 233,-250.5 233,-220.5 120,-220.5"/>
<text text-anchor="start" x="128" y="-238.5" font-family="Helvetica,sans-Serif" font-size="10.00">BaseTypes::Primitives</text>
<text text-anchor="middle" x="176.5" y="-227.5" font-family="Helvetica,sans-Serif" font-size="10.00">::Byte</text>
</a>
</g>
</g>
<!-- Node46&#45;&gt;Node0 -->
<g id="edge1" class="edge">
<title>Node46&#45;&gt;Node0</title>
<path fill="none" stroke="midnightblue" d="M57.85,-155.01C72.39,-171.3 95.81,-195.41 120,-211.5 124.9,-214.76 130.3,-217.73 135.77,-220.4"/>
<polygon fill="midnightblue" stroke="midnightblue" points="60.32,-152.51 51.11,-147.29 55.05,-157.12 60.32,-152.51"/>
</g>
<!-- Node48 -->
<g id="node3" class="node">
<title>Node48</title>
<g id="a_node3"><a xlink:href="struct_base_types_1_1_primitives_1_1_character.html" target="_top" xlink:title="A Character object wraps a value of the associated primitive type char into an object.">
<polygon fill="white" stroke="black" points="120,-171.5 120,-201.5 233,-201.5 233,-171.5 120,-171.5"/>
<text text-anchor="start" x="128" y="-189.5" font-family="Helvetica,sans-Serif" font-size="10.00">BaseTypes::Primitives</text>
<text text-anchor="middle" x="176.5" y="-178.5" font-family="Helvetica,sans-Serif" font-size="10.00">::Character</text>
</a>
</g>
</g>
<!-- Node46&#45;&gt;Node48 -->
<g id="edge2" class="edge">
<title>Node46&#45;&gt;Node48</title>
<path fill="none" stroke="midnightblue" d="M78.61,-150.67C95.94,-157.08 116.87,-164.82 134.84,-171.46"/>
<polygon fill="midnightblue" stroke="midnightblue" points="79.46,-147.25 68.86,-147.06 77.03,-153.82 79.46,-147.25"/>
</g>
<!-- Node49 -->
<g id="node4" class="node">
<title>Node49</title>
<g id="a_node4"><a xlink:href="struct_base_types_1_1_primitives_1_1_integer.html" target="_top" xlink:title="An Integer object wraps a value of the associated primitive type in an object.">
<polygon fill="white" stroke="black" points="120,-122.5 120,-152.5 233,-152.5 233,-122.5 120,-122.5"/>
<text text-anchor="start" x="128" y="-140.5" font-family="Helvetica,sans-Serif" font-size="10.00">BaseTypes::Primitives</text>
<text text-anchor="middle" x="176.5" y="-129.5" font-family="Helvetica,sans-Serif" font-size="10.00">::Integer</text>
</a>
</g>
</g>
<!-- Node46&#45;&gt;Node49 -->
<g id="edge3" class="edge">
<title>Node46&#45;&gt;Node49</title>
<path fill="none" stroke="midnightblue" d="M94.47,-137.5C102.75,-137.5 111.35,-137.5 119.72,-137.5"/>
<polygon fill="midnightblue" stroke="midnightblue" points="94.2,-134 84.2,-137.5 94.2,-141 94.2,-134"/>
</g>
<!-- Node50 -->
<g id="node5" class="node">
<title>Node50</title>
<g id="a_node5"><a xlink:href="struct_base_types_1_1_primitives_1_1_natural.html" target="_top" xlink:title="An Natural object wraps a value of the associated primitive type in an object.">
<polygon fill="white" stroke="black" points="120,-73.5 120,-103.5 233,-103.5 233,-73.5 120,-73.5"/>
<text text-anchor="start" x="128" y="-91.5" font-family="Helvetica,sans-Serif" font-size="10.00">BaseTypes::Primitives</text>
<text text-anchor="middle" x="176.5" y="-80.5" font-family="Helvetica,sans-Serif" font-size="10.00">::Natural</text>
</a>
</g>
</g>
<!-- Node46&#45;&gt;Node50 -->
<g id="edge4" class="edge">
<title>Node46&#45;&gt;Node50</title>
<path fill="none" stroke="midnightblue" d="M78.61,-124.33C95.94,-117.92 116.87,-110.18 134.84,-103.54"/>
<polygon fill="midnightblue" stroke="midnightblue" points="77.03,-121.18 68.86,-127.94 79.46,-127.75 77.03,-121.18"/>
</g>
<!-- Node51 -->
<g id="node6" class="node">
<title>Node51</title>
<g id="a_node6"><a xlink:href="struct_base_types_1_1_primitives_1_1_real.html" target="_top" xlink:title="An Real object wraps a value of some associated primitive float point type in an object.">
<polygon fill="white" stroke="black" points="120,-24.5 120,-54.5 233,-54.5 233,-24.5 120,-24.5"/>
<text text-anchor="start" x="128" y="-42.5" font-family="Helvetica,sans-Serif" font-size="10.00">BaseTypes::Primitives</text>
<text text-anchor="middle" x="176.5" y="-31.5" font-family="Helvetica,sans-Serif" font-size="10.00">::Real</text>
</a>
</g>
</g>
<!-- Node46&#45;&gt;Node51 -->
<g id="edge5" class="edge">
<title>Node46&#45;&gt;Node51</title>
<path fill="none" stroke="midnightblue" d="M57.95,-120.33C72.56,-104.32 96.03,-80.58 120,-64.5 125.44,-60.85 131.5,-57.5 137.56,-54.52"/>
<polygon fill="midnightblue" stroke="midnightblue" points="55.23,-118.12 51.17,-127.91 60.44,-122.79 55.23,-118.12"/>
</g>
<!-- Node52 -->
<g id="node7" class="node">
<title>Node52</title>
<g id="a_node7"><a xlink:href="struct_base_types_1_1_primitives_1_1_percentage.html" target="_top" xlink:title="A Percentage object is real&#45;valued and represents a percentage (normalized to the 0 to 100 range).">
<polygon fill="white" stroke="black" points="269,-49.5 269,-79.5 382,-79.5 382,-49.5 269,-49.5"/>
<text text-anchor="start" x="277" y="-67.5" font-family="Helvetica,sans-Serif" font-size="10.00">BaseTypes::Primitives</text>
<text text-anchor="middle" x="325.5" y="-56.5" font-family="Helvetica,sans-Serif" font-size="10.00">::Percentage</text>
</a>
</g>
</g>
<!-- Node51&#45;&gt;Node52 -->
<g id="edge6" class="edge">
<title>Node51&#45;&gt;Node52</title>
<path fill="none" stroke="midnightblue" d="M243.08,-50.65C251.68,-52.12 260.43,-53.6 268.85,-55.04"/>
<polygon fill="midnightblue" stroke="midnightblue" points="243.52,-47.18 233.07,-48.95 242.35,-54.08 243.52,-47.18"/>
</g>
<!-- Node53 -->
<g id="node8" class="node">
<title>Node53</title>
<g id="a_node8"><a xlink:href="struct_base_types_1_1_primitives_1_1_radians.html" target="_top" xlink:title="A Radians object is a real&#45;valued and represents the range from 0 to 2pi.">
<polygon fill="white" stroke="black" points="269,-0.5 269,-30.5 382,-30.5 382,-0.5 269,-0.5"/>
<text text-anchor="start" x="277" y="-18.5" font-family="Helvetica,sans-Serif" font-size="10.00">BaseTypes::Primitives</text>
<text text-anchor="middle" x="325.5" y="-7.5" font-family="Helvetica,sans-Serif" font-size="10.00">::Radians</text>
</a>
</g>
</g>
<!-- Node51&#45;&gt;Node53 -->
<g id="edge7" class="edge">
<title>Node51&#45;&gt;Node53</title>
<path fill="none" stroke="midnightblue" d="M243.08,-28.79C251.68,-27.39 260.43,-25.96 268.85,-24.59"/>
<polygon fill="midnightblue" stroke="midnightblue" points="242.38,-25.36 233.07,-30.43 243.51,-32.27 242.38,-25.36"/>
</g>
</g>
</svg>
