<?xml version="1.0" encoding="UTF-8" standalone="no"?>
<!DOCTYPE svg PUBLIC "-//W3C//DTD SVG 1.1//EN"
 "http://www.w3.org/Graphics/SVG/1.1/DTD/svg11.dtd">
<!-- Generated by graphviz version 2.47.1 (20210417.1919)
 -->
<!-- Title: Graphical Class Hierarchy Pages: 1 -->
<svg width="390pt" height="254pt"
 viewBox="0.00 0.00 390.00 254.00" xmlns="http://www.w3.org/2000/svg" xmlns:xlink="http://www.w3.org/1999/xlink">
<g id="graph0" class="graph" transform="scale(1 1) rotate(0) translate(4 250)">
<title>Graphical Class Hierarchy</title>
<!-- Node0 -->
<g id="Node000000" class="node">
<title>Node0</title>
<g id="a_Node000000"><a xlink:title=" ">
<polygon fill="#e0e0e0" stroke="#999999" points="84,-144.5 0,-144.5 0,-125.5 84,-125.5 84,-144.5"/>
<text text-anchor="middle" x="42" y="-132.5" font-family="Helvetica,sans-Serif" font-size="10.00">GenericNumber</text>
</a>
</g>
</g>
<!-- Node1 -->
<g id="Node000001" class="node">
<title>Node1</title>
<g id="a_Node000001"><a xlink:href="struct_base_types_1_1_primitives_1_1_byte.html" target="_top" xlink:title="A Byte object wraps a value of the associated primitive type char into an object.">
<polygon fill="white" stroke="#666666" points="233,-246 120,-246 120,-216 233,-216 233,-246"/>
<text text-anchor="start" x="128" y="-234" font-family="Helvetica,sans-Serif" font-size="10.00">BaseTypes::Primitives</text>
<text text-anchor="middle" x="176.5" y="-223" font-family="Helvetica,sans-Serif" font-size="10.00">::Byte</text>
</a>
</g>
</g>
<!-- Node0&#45;&gt;Node1 -->
<g id="edge12_Node000000_Node000001" class="edge">
<title>Node0&#45;&gt;Node1</title>
<g id="a_edge12_Node000000_Node000001"><a xlink:title=" ">
<path fill="none" stroke="#63b8ff" d="M57.94,-152C72.54,-167.83 96.01,-191.28 120,-207 125.01,-210.28 130.53,-213.29 136.1,-215.98"/>
<polygon fill="#63b8ff" stroke="#63b8ff" points="60.46,-149.57 51.16,-144.5 55.27,-154.27 60.46,-149.57"/>
</a>
</g>
</g>
<!-- Node2 -->
<g id="Node000002" class="node">
<title>Node2</title>
<g id="a_Node000002"><a xlink:href="struct_base_types_1_1_primitives_1_1_character.html" target="_top" xlink:title="A Character object wraps a value of the associated primitive type char into an object.">
<polygon fill="white" stroke="#666666" points="233,-198 120,-198 120,-168 233,-168 233,-198"/>
<text text-anchor="start" x="128" y="-186" font-family="Helvetica,sans-Serif" font-size="10.00">BaseTypes::Primitives</text>
<text text-anchor="middle" x="176.5" y="-175" font-family="Helvetica,sans-Serif" font-size="10.00">::Character</text>
</a>
</g>
</g>
<!-- Node0&#45;&gt;Node2 -->
<g id="edge13_Node000000_Node000002" class="edge">
<title>Node0&#45;&gt;Node2</title>
<g id="a_edge13_Node000000_Node000002"><a xlink:title=" ">
<path fill="none" stroke="#63b8ff" d="M79.04,-148.06C96,-154.2 116.32,-161.56 133.92,-167.94"/>
<polygon fill="#63b8ff" stroke="#63b8ff" points="80.09,-144.71 69.49,-144.6 77.7,-151.29 80.09,-144.71"/>
</a>
</g>
</g>
<!-- Node3 -->
<g id="Node000003" class="node">
<title>Node3</title>
<g id="a_Node000003"><a xlink:href="struct_base_types_1_1_primitives_1_1_integer.html" target="_top" xlink:title="An Integer object wraps a value of the associated primitive type in an object.">
<polygon fill="white" stroke="#666666" points="233,-150 120,-150 120,-120 233,-120 233,-150"/>
<text text-anchor="start" x="128" y="-138" font-family="Helvetica,sans-Serif" font-size="10.00">BaseTypes::Primitives</text>
<text text-anchor="middle" x="176.5" y="-127" font-family="Helvetica,sans-Serif" font-size="10.00">::Integer</text>
</a>
</g>
</g>
<!-- Node0&#45;&gt;Node3 -->
<g id="edge14_Node000000_Node000003" class="edge">
<title>Node0&#45;&gt;Node3</title>
<g id="a_edge14_Node000000_Node000003"><a xlink:title=" ">
<path fill="none" stroke="#63b8ff" d="M94.47,-135C102.75,-135 111.35,-135 119.72,-135"/>
<polygon fill="#63b8ff" stroke="#63b8ff" points="94.2,-131.5 84.2,-135 94.2,-138.5 94.2,-131.5"/>
</a>
</g>
</g>
<!-- Node4 -->
<g id="Node000004" class="node">
<title>Node4</title>
<g id="a_Node000004"><a xlink:href="struct_base_types_1_1_primitives_1_1_natural.html" target="_top" xlink:title="An Natural object wraps a value of the associated primitive type in an object.">
<polygon fill="white" stroke="#666666" points="233,-102 120,-102 120,-72 233,-72 233,-102"/>
<text text-anchor="start" x="128" y="-90" font-family="Helvetica,sans-Serif" font-size="10.00">BaseTypes::Primitives</text>
<text text-anchor="middle" x="176.5" y="-79" font-family="Helvetica,sans-Serif" font-size="10.00">::Natural</text>
</a>
</g>
</g>
<!-- Node0&#45;&gt;Node4 -->
<g id="edge15_Node000000_Node000004" class="edge">
<title>Node0&#45;&gt;Node4</title>
<g id="a_edge15_Node000000_Node000004"><a xlink:title=" ">
<path fill="none" stroke="#63b8ff" d="M79.04,-121.94C96,-115.8 116.32,-108.44 133.92,-102.06"/>
<polygon fill="#63b8ff" stroke="#63b8ff" points="77.7,-118.71 69.49,-125.4 80.09,-125.29 77.7,-118.71"/>
</a>
</g>
</g>
<!-- Node5 -->
<g id="Node000005" class="node">
<title>Node5</title>
<g id="a_Node000005"><a xlink:href="struct_base_types_1_1_primitives_1_1_real.html" target="_top" xlink:title="An Real object wraps a value of some associated primitive float point type in an object.">
<polygon fill="white" stroke="#666666" points="233,-54 120,-54 120,-24 233,-24 233,-54"/>
<text text-anchor="start" x="128" y="-42" font-family="Helvetica,sans-Serif" font-size="10.00">BaseTypes::Primitives</text>
<text text-anchor="middle" x="176.5" y="-31" font-family="Helvetica,sans-Serif" font-size="10.00">::Real</text>
</a>
</g>
</g>
<!-- Node0&#45;&gt;Node5 -->
<g id="edge16_Node000000_Node000005" class="edge">
<title>Node0&#45;&gt;Node5</title>
<g id="a_edge16_Node000000_Node000005"><a xlink:title=" ">
<path fill="none" stroke="#63b8ff" d="M57.94,-118C72.54,-102.17 96.01,-78.72 120,-63 125.01,-59.72 130.53,-56.71 136.1,-54.02"/>
<polygon fill="#63b8ff" stroke="#63b8ff" points="55.27,-115.73 51.16,-125.5 60.46,-120.43 55.27,-115.73"/>
</a>
</g>
</g>
<!-- Node6 -->
<g id="Node000006" class="node">
<title>Node6</title>
<g id="a_Node000006"><a xlink:href="struct_base_types_1_1_primitives_1_1_percentage.html" target="_top" xlink:title="A Percentage object is real&#45;valued and represents a percentage (normalized to the 0 to 100 range).">
<polygon fill="white" stroke="#666666" points="382,-78 269,-78 269,-48 382,-48 382,-78"/>
<text text-anchor="start" x="277" y="-66" font-family="Helvetica,sans-Serif" font-size="10.00">BaseTypes::Primitives</text>
<text text-anchor="middle" x="325.5" y="-55" font-family="Helvetica,sans-Serif" font-size="10.00">::Percentage</text>
</a>
</g>
</g>
<!-- Node5&#45;&gt;Node6 -->
<g id="edge17_Node000005_Node000006" class="edge">
<title>Node5&#45;&gt;Node6</title>
<g id="a_edge17_Node000005_Node000006"><a xlink:title=" ">
<path fill="none" stroke="#63b8ff" d="M243.08,-49.71C251.68,-51.11 260.43,-52.54 268.85,-53.91"/>
<polygon fill="#63b8ff" stroke="#63b8ff" points="243.51,-46.23 233.07,-48.07 242.38,-53.14 243.51,-46.23"/>
</a>
</g>
</g>
<!-- Node7 -->
<g id="Node000007" class="node">
<title>Node7</title>
<g id="a_Node000007"><a xlink:href="struct_base_types_1_1_primitives_1_1_radians.html" target="_top" xlink:title="A Radians object is a real&#45;valued and represents the range from 0 to 2pi.">
<polygon fill="white" stroke="#666666" points="382,-30 269,-30 269,0 382,0 382,-30"/>
<text text-anchor="start" x="277" y="-18" font-family="Helvetica,sans-Serif" font-size="10.00">BaseTypes::Primitives</text>
<text text-anchor="middle" x="325.5" y="-7" font-family="Helvetica,sans-Serif" font-size="10.00">::Radians</text>
</a>
</g>
</g>
<!-- Node5&#45;&gt;Node7 -->
<g id="edge18_Node000005_Node000007" class="edge">
<title>Node5&#45;&gt;Node7</title>
<g id="a_edge18_Node000005_Node000007"><a xlink:title=" ">
<path fill="none" stroke="#63b8ff" d="M243.08,-28.29C251.68,-26.89 260.43,-25.46 268.85,-24.09"/>
<polygon fill="#63b8ff" stroke="#63b8ff" points="242.38,-24.86 233.07,-29.93 243.51,-31.77 242.38,-24.86"/>
</a>
</g>
</g>
</g>
</svg>
