<?xml version="1.0" encoding="UTF-8" standalone="no"?>
<!DOCTYPE svg PUBLIC "-//W3C//DTD SVG 1.1//EN"
 "http://www.w3.org/Graphics/SVG/1.1/DTD/svg11.dtd">
<!-- Generated by graphviz version 2.47.1 (20210417.1919)
 -->
<!-- Title: Graphical Class Hierarchy Pages: 1 -->
<svg width="288pt" height="66pt"
 viewBox="0.00 0.00 288.00 66.00" xmlns="http://www.w3.org/2000/svg" xmlns:xlink="http://www.w3.org/1999/xlink">
<g id="graph0" class="graph" transform="scale(1 1) rotate(0) translate(4 62)">
<title>Graphical Class Hierarchy</title>
<polygon fill="white" stroke="transparent" points="-4,4 -4,-62 284,-62 284,4 -4,4"/>
<!-- Node47 -->
<g id="node1" class="node">
<title>Node47</title>
<g id="a_node1"><a xlink:title=" ">
<polygon fill="white" stroke="#bfbfbf" points="3,-38.5 3,-57.5 114,-57.5 114,-38.5 3,-38.5"/>
<text text-anchor="middle" x="58.5" y="-45.5" font-family="Helvetica,sans-Serif" font-size="10.00">AudioProcessorEditor</text>
</a>
</g>
</g>
<!-- Node0 -->
<g id="node2" class="node">
<title>Node0</title>
<g id="a_node2"><a xlink:href="struct_main_1_1_fluid_synth_plugin_1_1_fluid_synth_plugin___editor.html" target="_top" xlink:title="A very simple editor for the FluidSynth plugin.">
<polygon fill="white" stroke="black" points="153,-14 153,-44 280,-44 280,-14 153,-14"/>
<text text-anchor="start" x="161" y="-32" font-family="Helvetica,sans-Serif" font-size="10.00">Main::FluidSynthPlugin</text>
<text text-anchor="middle" x="216.5" y="-21" font-family="Helvetica,sans-Serif" font-size="10.00">::FluidSynthPlugin_Editor</text>
</a>
</g>
</g>
<!-- Node47&#45;&gt;Node0 -->
<g id="edge1" class="edge">
<title>Node47&#45;&gt;Node0</title>
<path fill="none" stroke="midnightblue" d="M124.24,-40.12C133.73,-38.96 143.5,-37.77 152.96,-36.62"/>
<polygon fill="midnightblue" stroke="midnightblue" points="123.56,-36.67 114.06,-41.35 124.41,-43.62 123.56,-36.67"/>
</g>
<!-- Node35 -->
<g id="node3" class="node">
<title>Node35</title>
<g id="a_node3"><a xlink:title=" ">
<polygon fill="white" stroke="#bfbfbf" points="0,-0.5 0,-19.5 117,-19.5 117,-0.5 0,-0.5"/>
<text text-anchor="middle" x="58.5" y="-7.5" font-family="Helvetica,sans-Serif" font-size="10.00">FileDragAndDropTarget</text>
</a>
</g>
</g>
<!-- Node35&#45;&gt;Node0 -->
<g id="edge2" class="edge">
<title>Node35&#45;&gt;Node0</title>
<path fill="none" stroke="midnightblue" d="M127.09,-18.23C135.64,-19.27 144.37,-20.34 152.85,-21.37"/>
<polygon fill="midnightblue" stroke="midnightblue" points="127.5,-14.76 117.15,-17.02 126.65,-21.7 127.5,-14.76"/>
</g>
</g>
</svg>
