<?xml version="1.0" encoding="UTF-8" standalone="no"?>
<!DOCTYPE svg PUBLIC "-//W3C//DTD SVG 1.1//EN"
 "http://www.w3.org/Graphics/SVG/1.1/DTD/svg11.dtd">
<!-- Generated by graphviz version 2.47.1 (20210417.1919)
 -->
<!-- Title: Graphical Class Hierarchy Pages: 1 -->
<svg width="256pt" height="104pt"
 viewBox="0.00 0.00 256.00 104.00" xmlns="http://www.w3.org/2000/svg" xmlns:xlink="http://www.w3.org/1999/xlink">
<g id="graph0" class="graph" transform="scale(1 1) rotate(0) translate(4 100)">
<title>Graphical Class Hierarchy</title>
<polygon fill="white" stroke="transparent" points="-4,4 -4,-100 252,-100 252,4 -4,4"/>
<!-- Node41 -->
<g id="node1" class="node">
<title>Node41</title>
<g id="a_node1"><a xlink:title=" ">
<polygon fill="white" stroke="#bfbfbf" points="0,-76.5 0,-95.5 66,-95.5 66,-76.5 0,-76.5"/>
<text text-anchor="middle" x="33" y="-83.5" font-family="Helvetica,sans-Serif" font-size="10.00">Component</text>
</a>
</g>
</g>
<!-- Node27 -->
<g id="node2" class="node">
<title>Node27</title>
<g id="a_node2"><a xlink:href="struct_main_1_1_fluid_synth_plugin_1_1___preset_selection_component.html" target="_top" xlink:title="A selection component for soundfont presets.">
<polygon fill="white" stroke="black" points="102,-64 102,-94 248,-94 248,-64 102,-64"/>
<text text-anchor="start" x="110" y="-82" font-family="Helvetica,sans-Serif" font-size="10.00">Main::FluidSynthPlugin</text>
<text text-anchor="middle" x="175" y="-71" font-family="Helvetica,sans-Serif" font-size="10.00">::_PresetSelectionComponent</text>
</a>
</g>
</g>
<!-- Node41&#45;&gt;Node27 -->
<g id="edge1" class="edge">
<title>Node41&#45;&gt;Node27</title>
<path fill="none" stroke="midnightblue" d="M76.36,-83.88C84.44,-83.48 93.11,-83.04 101.83,-82.61"/>
<polygon fill="midnightblue" stroke="midnightblue" points="75.93,-80.4 66.12,-84.39 76.28,-87.39 75.93,-80.4"/>
</g>
<!-- Node26 -->
<g id="node3" class="node">
<title>Node26</title>
<g id="a_node3"><a xlink:title=" ">
<polygon fill="white" stroke="#bfbfbf" points="7.5,-38.5 7.5,-57.5 58.5,-57.5 58.5,-38.5 7.5,-38.5"/>
<text text-anchor="middle" x="33" y="-45.5" font-family="Helvetica,sans-Serif" font-size="10.00">Listener</text>
</a>
</g>
</g>
<!-- Node26&#45;&gt;Node27 -->
<g id="edge2" class="edge">
<title>Node26&#45;&gt;Node27</title>
<path fill="none" stroke="midnightblue" d="M68.61,-55.66C79.97,-58.18 93.01,-61.07 105.96,-63.93"/>
<polygon fill="midnightblue" stroke="midnightblue" points="69.23,-52.22 58.71,-53.47 67.71,-59.05 69.23,-52.22"/>
</g>
<!-- Node0 -->
<g id="node4" class="node">
<title>Node0</title>
<g id="a_node4"><a xlink:href="struct_main_1_1_fluid_synth_plugin_1_1___widget_listener.html" target="_top" xlink:title="A listener class for button and text editor events.">
<polygon fill="white" stroke="black" points="116.5,-8 116.5,-38 233.5,-38 233.5,-8 116.5,-8"/>
<text text-anchor="start" x="124.5" y="-26" font-family="Helvetica,sans-Serif" font-size="10.00">Main::FluidSynthPlugin</text>
<text text-anchor="middle" x="175" y="-15" font-family="Helvetica,sans-Serif" font-size="10.00">::_WidgetListener</text>
</a>
</g>
</g>
<!-- Node26&#45;&gt;Node0 -->
<g id="edge3" class="edge">
<title>Node26&#45;&gt;Node0</title>
<path fill="none" stroke="midnightblue" d="M68.67,-41.81C83.09,-39.23 100.21,-36.18 116.42,-33.28"/>
<polygon fill="midnightblue" stroke="midnightblue" points="67.94,-38.38 58.71,-43.59 69.17,-45.28 67.94,-38.38"/>
</g>
<!-- Node24 -->
<g id="node5" class="node">
<title>Node24</title>
<g id="a_node5"><a xlink:title=" ">
<polygon fill="white" stroke="#bfbfbf" points="7.5,-0.5 7.5,-19.5 58.5,-19.5 58.5,-0.5 7.5,-0.5"/>
<text text-anchor="middle" x="33" y="-7.5" font-family="Helvetica,sans-Serif" font-size="10.00">Listener</text>
</a>
</g>
</g>
<!-- Node24&#45;&gt;Node0 -->
<g id="edge4" class="edge">
<title>Node24&#45;&gt;Node0</title>
<path fill="none" stroke="midnightblue" d="M68.67,-13.22C83.09,-14.56 100.21,-16.15 116.42,-17.65"/>
<polygon fill="midnightblue" stroke="midnightblue" points="68.99,-9.73 58.71,-12.29 68.34,-16.7 68.99,-9.73"/>
</g>
</g>
</svg>
