<?xml version="1.0" encoding="UTF-8" standalone="no"?>
<!DOCTYPE svg PUBLIC "-//W3C//DTD SVG 1.1//EN"
 "http://www.w3.org/Graphics/SVG/1.1/DTD/svg11.dtd">
<!-- Generated by graphviz version 2.47.1 (20210417.1919)
 -->
<!-- Title: Graphical Class Hierarchy Pages: 1 -->
<svg width="259pt" height="439pt"
 viewBox="0.00 0.00 259.00 438.50" xmlns="http://www.w3.org/2000/svg" xmlns:xlink="http://www.w3.org/1999/xlink">
<g id="graph0" class="graph" transform="scale(1 1) rotate(0) translate(4 434.5)">
<title>Graphical Class Hierarchy</title>
<!-- Node0 -->
<g id="Node000000" class="node">
<title>Node0</title>
<g id="a_Node000000"><a xlink:title=" ">
<polygon fill="#e0e0e0" stroke="#999999" points="66,-230 0,-230 0,-211 66,-211 66,-230"/>
<text text-anchor="middle" x="33" y="-218" font-family="Helvetica,sans-Serif" font-size="10.00">GenericList</text>
</a>
</g>
</g>
<!-- Node1 -->
<g id="Node000001" class="node">
<title>Node1</title>
<g id="a_Node000001"><a xlink:href="struct_audio_1_1_audio_sample_fifo_queue_vector.html" target="_top" xlink:title="A AudioSampleFifoQueueVector object is a list of fifo queues for audio samples with selection by inde...">
<polygon fill="white" stroke="#666666" points="251,-430.5 102,-430.5 102,-400.5 251,-400.5 251,-430.5"/>
<text text-anchor="start" x="110" y="-418.5" font-family="Helvetica,sans-Serif" font-size="10.00">Audio::AudioSampleFifoQueue</text>
<text text-anchor="middle" x="176.5" y="-407.5" font-family="Helvetica,sans-Serif" font-size="10.00">Vector</text>
</a>
</g>
</g>
<!-- Node0&#45;&gt;Node1 -->
<g id="edge1_Node000000_Node000001" class="edge">
<title>Node0&#45;&gt;Node1</title>
<g id="a_edge1_Node000000_Node000001"><a xlink:title=" ">
<path fill="none" stroke="#63b8ff" d="M36.37,-240.23C41.66,-275.57 57.66,-349.86 102,-391.5 105.62,-394.9 109.73,-397.82 114.11,-400.32"/>
<polygon fill="#63b8ff" stroke="#63b8ff" points="39.83,-239.65 35.01,-230.22 32.89,-240.6 39.83,-239.65"/>
</a>
</g>
</g>
<!-- Node2 -->
<g id="Node000002" class="node">
<title>Node2</title>
<g id="a_Node000002"><a xlink:href="struct_audio_1_1_audio_sample_list.html" target="_top" xlink:title="An AudioSampleList object is a list of audio samples with arbitrary indexed access to positions in th...">
<polygon fill="white" stroke="#666666" points="237,-382 116,-382 116,-363 237,-363 237,-382"/>
<text text-anchor="middle" x="176.5" y="-370" font-family="Helvetica,sans-Serif" font-size="10.00">Audio::AudioSampleList</text>
</a>
</g>
</g>
<!-- Node0&#45;&gt;Node2 -->
<g id="edge2_Node000000_Node000002" class="edge">
<title>Node0&#45;&gt;Node2</title>
<g id="a_edge2_Node000000_Node000002"><a xlink:title=" ">
<path fill="none" stroke="#63b8ff" d="M38.35,-239.9C45.99,-269.31 64.67,-324.88 102,-354.5 106.32,-357.93 111.21,-360.72 116.35,-362.98"/>
<polygon fill="#63b8ff" stroke="#63b8ff" points="41.71,-238.91 35.95,-230.02 34.91,-240.56 41.71,-238.91"/>
</a>
</g>
</g>
<!-- Node3 -->
<g id="Node000003" class="node">
<title>Node3</title>
<g id="a_Node000003"><a xlink:href="struct_audio_1_1_audio_sample_list_vector.html" target="_top" xlink:title="A AudioSampleListVector object is a buffer of audio sample lists containing the input samples and the...">
<polygon fill="white" stroke="#666666" points="251,-345 102,-345 102,-326 251,-326 251,-345"/>
<text text-anchor="middle" x="176.5" y="-333" font-family="Helvetica,sans-Serif" font-size="10.00">Audio::AudioSampleListVector</text>
</a>
</g>
</g>
<!-- Node0&#45;&gt;Node3 -->
<g id="edge3_Node000000_Node000003" class="edge">
<title>Node0&#45;&gt;Node3</title>
<g id="a_edge3_Node000000_Node000003"><a xlink:title=" ">
<path fill="none" stroke="#63b8ff" d="M42.34,-239.36C53,-261.26 73.55,-296.88 102,-316.5 107.64,-320.39 114.02,-323.49 120.61,-325.95"/>
<polygon fill="#63b8ff" stroke="#63b8ff" points="45.42,-237.69 38.02,-230.1 39.08,-240.65 45.42,-237.69"/>
</a>
</g>
</g>
<!-- Node4 -->
<g id="Node000004" class="node">
<title>Node4</title>
<g id="a_Node000004"><a xlink:href="struct_base_modules_1_1_command_line_argument_list.html" target="_top" xlink:title="A CommandLineArgumentList object is a list of abstract arguments for the main program derived from th...">
<polygon fill="white" stroke="#666666" points="248.5,-307.5 104.5,-307.5 104.5,-277.5 248.5,-277.5 248.5,-307.5"/>
<text text-anchor="start" x="112.5" y="-295.5" font-family="Helvetica,sans-Serif" font-size="10.00">BaseModules::CommandLine</text>
<text text-anchor="middle" x="176.5" y="-284.5" font-family="Helvetica,sans-Serif" font-size="10.00">ArgumentList</text>
</a>
</g>
</g>
<!-- Node0&#45;&gt;Node4 -->
<g id="edge4_Node000000_Node000004" class="edge">
<title>Node0&#45;&gt;Node4</title>
<g id="a_edge4_Node000000_Node000004"><a xlink:title=" ">
<path fill="none" stroke="#63b8ff" d="M53.19,-236.4C66.3,-246.66 84.41,-259.67 102,-268.5 108.6,-271.81 115.75,-274.81 122.92,-277.47"/>
<polygon fill="#63b8ff" stroke="#63b8ff" points="55.35,-233.65 45.35,-230.14 50.98,-239.12 55.35,-233.65"/>
</a>
</g>
</g>
<!-- Node5 -->
<g id="Node000005" class="node">
<title>Node5</title>
<g id="a_Node000005"><a xlink:href="struct_base_types_1_1_containers_1_1_byte_list.html" target="_top" xlink:title="A ByteList object is a list of byte values with arbitrary indexed access to positions in the list.">
<polygon fill="white" stroke="#666666" points="235.5,-259.5 117.5,-259.5 117.5,-229.5 235.5,-229.5 235.5,-259.5"/>
<text text-anchor="start" x="125.5" y="-247.5" font-family="Helvetica,sans-Serif" font-size="10.00">BaseTypes::Containers</text>
<text text-anchor="middle" x="176.5" y="-236.5" font-family="Helvetica,sans-Serif" font-size="10.00">::ByteList</text>
</a>
</g>
</g>
<!-- Node0&#45;&gt;Node5 -->
<g id="edge5_Node000000_Node000005" class="edge">
<title>Node0&#45;&gt;Node5</title>
<g id="a_edge5_Node000000_Node000005"><a xlink:title=" ">
<path fill="none" stroke="#63b8ff" d="M76.12,-227.64C89.07,-229.84 103.55,-232.3 117.38,-234.64"/>
<polygon fill="#63b8ff" stroke="#63b8ff" points="76.55,-224.17 66.11,-225.95 75.38,-231.07 76.55,-224.17"/>
</a>
</g>
</g>
<!-- Node6 -->
<g id="Node000006" class="node">
<title>Node6</title>
<g id="a_Node000006"><a xlink:href="struct_base_types_1_1_containers_1_1_integer_list.html" target="_top" xlink:title="An IntegerList object is a list of integer values with arbitrary indexed access to positions in the l...">
<polygon fill="white" stroke="#666666" points="235.5,-211.5 117.5,-211.5 117.5,-181.5 235.5,-181.5 235.5,-211.5"/>
<text text-anchor="start" x="125.5" y="-199.5" font-family="Helvetica,sans-Serif" font-size="10.00">BaseTypes::Containers</text>
<text text-anchor="middle" x="176.5" y="-188.5" font-family="Helvetica,sans-Serif" font-size="10.00">::IntegerList</text>
</a>
</g>
</g>
<!-- Node0&#45;&gt;Node6 -->
<g id="edge6_Node000000_Node000006" class="edge">
<title>Node0&#45;&gt;Node6</title>
<g id="a_edge6_Node000000_Node000006"><a xlink:title=" ">
<path fill="none" stroke="#63b8ff" d="M76.12,-213.36C89.07,-211.16 103.55,-208.7 117.38,-206.36"/>
<polygon fill="#63b8ff" stroke="#63b8ff" points="75.38,-209.93 66.11,-215.05 76.55,-216.83 75.38,-209.93"/>
</a>
</g>
</g>
<!-- Node7 -->
<g id="Node000007" class="node">
<title>Node7</title>
<g id="a_Node000007"><a xlink:href="struct_base_types_1_1_containers_1_1_natural_list.html" target="_top" xlink:title="A NaturalList object is a list of non&#45;negative integer values with arbitrary indexed access to positi...">
<polygon fill="white" stroke="#666666" points="235.5,-163.5 117.5,-163.5 117.5,-133.5 235.5,-133.5 235.5,-163.5"/>
<text text-anchor="start" x="125.5" y="-151.5" font-family="Helvetica,sans-Serif" font-size="10.00">BaseTypes::Containers</text>
<text text-anchor="middle" x="176.5" y="-140.5" font-family="Helvetica,sans-Serif" font-size="10.00">::NaturalList</text>
</a>
</g>
</g>
<!-- Node0&#45;&gt;Node7 -->
<g id="edge7_Node000000_Node000007" class="edge">
<title>Node0&#45;&gt;Node7</title>
<g id="a_edge7_Node000000_Node000007"><a xlink:title=" ">
<path fill="none" stroke="#63b8ff" d="M53.19,-204.6C66.3,-194.34 84.41,-181.33 102,-172.5 108.6,-169.19 115.75,-166.19 122.92,-163.53"/>
<polygon fill="#63b8ff" stroke="#63b8ff" points="50.98,-201.88 45.35,-210.86 55.35,-207.35 50.98,-201.88"/>
</a>
</g>
</g>
<!-- Node8 -->
<g id="Node000008" class="node">
<title>Node8</title>
<g id="a_Node000008"><a xlink:href="struct_base_types_1_1_containers_1_1_real_list.html" target="_top" xlink:title="A RealList object is a list of real values with arbitrary indexed access to positions in the list.">
<polygon fill="white" stroke="#666666" points="235.5,-115.5 117.5,-115.5 117.5,-85.5 235.5,-85.5 235.5,-115.5"/>
<text text-anchor="start" x="125.5" y="-103.5" font-family="Helvetica,sans-Serif" font-size="10.00">BaseTypes::Containers</text>
<text text-anchor="middle" x="176.5" y="-92.5" font-family="Helvetica,sans-Serif" font-size="10.00">::RealList</text>
</a>
</g>
</g>
<!-- Node0&#45;&gt;Node8 -->
<g id="edge8_Node000000_Node000008" class="edge">
<title>Node0&#45;&gt;Node8</title>
<g id="a_edge8_Node000000_Node000008"><a xlink:title=" ">
<path fill="none" stroke="#63b8ff" d="M42.72,-201.61C53.64,-179.98 74.32,-144.9 102,-124.5 106.65,-121.08 111.81,-118.12 117.17,-115.58"/>
<polygon fill="#63b8ff" stroke="#63b8ff" points="39.5,-200.25 38.28,-210.77 45.8,-203.3 39.5,-200.25"/>
</a>
</g>
</g>
<!-- Node9 -->
<g id="Node000009" class="node">
<title>Node9</title>
<g id="a_Node000009"><a xlink:href="struct_base_types_1_1_containers_1_1_string_list.html" target="_top" xlink:title="A StringList object is a list of string values with arbitrary indexed access to positions in the list...">
<polygon fill="white" stroke="#666666" points="235.5,-67.5 117.5,-67.5 117.5,-37.5 235.5,-37.5 235.5,-67.5"/>
<text text-anchor="start" x="125.5" y="-55.5" font-family="Helvetica,sans-Serif" font-size="10.00">BaseTypes::Containers</text>
<text text-anchor="middle" x="176.5" y="-44.5" font-family="Helvetica,sans-Serif" font-size="10.00">::StringList</text>
</a>
</g>
</g>
<!-- Node0&#45;&gt;Node9 -->
<g id="edge9_Node000000_Node000009" class="edge">
<title>Node0&#45;&gt;Node9</title>
<g id="a_edge9_Node000000_Node000009"><a xlink:title=" ">
<path fill="none" stroke="#63b8ff" d="M38.01,-200.9C45.34,-170.05 63.77,-110.21 102,-76.5 106.53,-72.51 111.74,-69.17 117.25,-66.39"/>
<polygon fill="#63b8ff" stroke="#63b8ff" points="34.55,-200.33 35.8,-210.85 41.39,-201.85 34.55,-200.33"/>
</a>
</g>
</g>
<!-- Node10 -->
<g id="Node000010" class="node">
<title>Node10</title>
<g id="a_Node000010"><a xlink:href="struct_m_i_d_i_1_1_midi_event_list.html" target="_top" xlink:title="An MidiEventList object is a list of MIDI events with arbitrary indexed access to positions in the li...">
<polygon fill="white" stroke="#666666" points="226.5,-19 126.5,-19 126.5,0 226.5,0 226.5,-19"/>
<text text-anchor="middle" x="176.5" y="-7" font-family="Helvetica,sans-Serif" font-size="10.00">MIDI::MidiEventList</text>
</a>
</g>
</g>
<!-- Node0&#45;&gt;Node10 -->
<g id="edge10_Node000000_Node000010" class="edge">
<title>Node0&#45;&gt;Node10</title>
<g id="a_edge10_Node000000_Node000010"><a xlink:title=" ">
<path fill="none" stroke="#63b8ff" d="M35.09,-200.79C38.35,-161.9 51.22,-75.03 102,-28.5 108.8,-22.27 117.38,-18.02 126.25,-15.14"/>
<polygon fill="#63b8ff" stroke="#63b8ff" points="31.6,-200.6 34.38,-210.82 38.58,-201.09 31.6,-200.6"/>
</a>
</g>
</g>
</g>
</svg>
