<?xml version="1.0" encoding="UTF-8" standalone="no"?>
<!DOCTYPE svg PUBLIC "-//W3C//DTD SVG 1.1//EN"
 "http://www.w3.org/Graphics/SVG/1.1/DTD/svg11.dtd">
<!-- Generated by graphviz version 2.47.1 (20210417.1919)
 -->
<!-- Title: Main::FluidSynthPlugin::FluidSynthPlugin_EventProcessor Pages: 1 -->
<svg width="190pt" height="303pt"
 viewBox="0.00 0.00 190.00 303.00" xmlns="http://www.w3.org/2000/svg" xmlns:xlink="http://www.w3.org/1999/xlink">
<g id="graph0" class="graph" transform="scale(1 1) rotate(0) translate(4 299)">
<title>Main::FluidSynthPlugin::FluidSynthPlugin_EventProcessor</title>
<!-- Node1 -->
<g id="Node000001" class="node">
<title>Node1</title>
<g id="a_Node000001"><a xlink:title="A simple plugin for processing MIDI events via the FluidSynth library and return the resulting audio ...">
<polygon fill="#999999" stroke="transparent" points="182,-210 0,-210 0,0 182,0 182,-210"/>
<text text-anchor="start" x="14" y="-198" font-family="Helvetica,sans-Serif" font-size="10.00">Main::FluidSynthPlugin</text>
<text text-anchor="start" x="14" y="-187" font-family="Helvetica,sans-Serif" font-size="10.00">::FluidSynthPlugin_EventProcessor</text>
<text text-anchor="start" x="5.5" y="-172" font-family="Helvetica,sans-Serif" font-size="10.00">&#45;</text>
<text text-anchor="start" x="15" y="-172" font-family="Helvetica,sans-Serif" font-size="10.00">_descriptor</text>
<text text-anchor="start" x="4" y="-157" font-family="Helvetica,sans-Serif" font-size="10.00">+</text>
<text text-anchor="start" x="15" y="-157" font-family="Helvetica,sans-Serif" font-size="10.00">FluidSynthPlugin_EventProcessor()</text>
<text text-anchor="start" x="4" y="-142" font-family="Helvetica,sans-Serif" font-size="10.00">+</text>
<text text-anchor="start" x="15" y="-142" font-family="Helvetica,sans-Serif" font-size="10.00">~FluidSynthPlugin_EventProcessor()</text>
<text text-anchor="start" x="4" y="-127" font-family="Helvetica,sans-Serif" font-size="10.00">+</text>
<text text-anchor="start" x="15" y="-127" font-family="Helvetica,sans-Serif" font-size="10.00">hasEditor()</text>
<text text-anchor="start" x="4" y="-112" font-family="Helvetica,sans-Serif" font-size="10.00">+</text>
<text text-anchor="start" x="15" y="-112" font-family="Helvetica,sans-Serif" font-size="10.00">supportsDoublePrecisionProcessing()</text>
<text text-anchor="start" x="4" y="-97" font-family="Helvetica,sans-Serif" font-size="10.00">+</text>
<text text-anchor="start" x="15" y="-97" font-family="Helvetica,sans-Serif" font-size="10.00">acceptsMidi()</text>
<text text-anchor="start" x="4" y="-82" font-family="Helvetica,sans-Serif" font-size="10.00">+</text>
<text text-anchor="start" x="15" y="-82" font-family="Helvetica,sans-Serif" font-size="10.00">producesMidi()</text>
<text text-anchor="start" x="4" y="-67" font-family="Helvetica,sans-Serif" font-size="10.00">+</text>
<text text-anchor="start" x="15" y="-67" font-family="Helvetica,sans-Serif" font-size="10.00">isMidiEffect()</text>
<text text-anchor="start" x="4" y="-52" font-family="Helvetica,sans-Serif" font-size="10.00">+</text>
<text text-anchor="start" x="15" y="-52" font-family="Helvetica,sans-Serif" font-size="10.00">getTailLengthSeconds()</text>
<text text-anchor="start" x="4" y="-37" font-family="Helvetica,sans-Serif" font-size="10.00">+</text>
<text text-anchor="start" x="15" y="-37" font-family="Helvetica,sans-Serif" font-size="10.00">getNumPrograms()</text>
<text text-anchor="start" x="4" y="-22" font-family="Helvetica,sans-Serif" font-size="10.00">+</text>
<text text-anchor="start" x="15" y="-22" font-family="Helvetica,sans-Serif" font-size="10.00">getCurrentProgram()</text>
<text text-anchor="start" x="15" y="-7" font-family="Helvetica,sans-Serif" font-size="10.00">and 19 more...</text>
<polygon fill="#666666" stroke="#666666" points="0,-182 0,-182 182,-182 182,-182 0,-182"/>
<polygon fill="#666666" stroke="#666666" points="0,-167 0,-167 13,-167 13,-167 0,-167"/>
<polygon fill="#666666" stroke="#666666" points="13,-167 13,-167 182,-167 182,-167 13,-167"/>
<polygon fill="none" stroke="#666666" points="0,0 0,-210 182,-210 182,0 0,0"/>
</a>
</g>
</g>
<!-- Node2 -->
<g id="Node000002" class="node">
<title>Node2</title>
<g id="a_Node000002"><a xlink:title=" ">
<polygon fill="white" stroke="transparent" points="143,-295 39,-295 39,-246 143,-246 143,-295"/>
<text text-anchor="start" x="44" y="-282.5" font-family="Helvetica,sans-Serif" font-size="10.00">juce::AudioProcessor</text>
<text text-anchor="start" x="89" y="-267.5" font-family="Helvetica,sans-Serif" font-size="10.00"> </text>
<text text-anchor="start" x="89" y="-252.5" font-family="Helvetica,sans-Serif" font-size="10.00"> </text>
<polygon fill="#bfbfbf" stroke="#bfbfbf" points="39,-277.5 39,-277.5 143,-277.5 143,-277.5 39,-277.5"/>
<polygon fill="#bfbfbf" stroke="#bfbfbf" points="39,-262.5 39,-262.5 143,-262.5 143,-262.5 39,-262.5"/>
<polygon fill="none" stroke="#bfbfbf" points="39,-246 39,-295 143,-295 143,-246 39,-246"/>
</a>
</g>
</g>
<!-- Node2&#45;&gt;Node1 -->
<g id="edge1_Node000001_Node000002" class="edge">
<title>Node2&#45;&gt;Node1</title>
<g id="a_edge1_Node000001_Node000002"><a xlink:title=" ">
<path fill="none" stroke="#63b8ff" d="M91,-235.69C91,-227.89 91,-219.18 91,-210.08"/>
<polygon fill="none" stroke="#63b8ff" points="87.5,-235.73 91,-245.73 94.5,-235.73 87.5,-235.73"/>
</a>
</g>
</g>
</g>
</svg>
