<?xml version="1.0" encoding="UTF-8" standalone="no"?>
<!DOCTYPE svg PUBLIC "-//W3C//DTD SVG 1.1//EN"
 "http://www.w3.org/Graphics/SVG/1.1/DTD/svg11.dtd">
<!-- Generated by graphviz version 2.47.1 (20210417.1919)
 -->
<!-- Title: Main::FluidSynthPlugin::_StringListBoxModel Pages: 1 -->
<svg width="145pt" height="333pt"
 viewBox="0.00 0.00 145.00 333.00" xmlns="http://www.w3.org/2000/svg" xmlns:xlink="http://www.w3.org/1999/xlink">
<g id="graph0" class="graph" transform="scale(1 1) rotate(0) translate(4 329)">
<title>Main::FluidSynthPlugin::_StringListBoxModel</title>
<!-- Node1 -->
<g id="Node000001" class="node">
<title>Node1</title>
<g id="a_Node000001"><a xlink:title="A very elementary list box model for a string list.">
<polygon fill="#999999" stroke="transparent" points="137,-240 0,-240 0,0 137,0 137,-240"/>
<text text-anchor="start" x="18.5" y="-228" font-family="Helvetica,sans-Serif" font-size="10.00">Main::FluidSynthPlugin</text>
<text text-anchor="start" x="20.5" y="-217" font-family="Helvetica,sans-Serif" font-size="10.00">::_StringListBoxModel</text>
<text text-anchor="start" x="6" y="-202" font-family="Helvetica,sans-Serif" font-size="10.00">&#45;</text>
<text text-anchor="start" x="15.5" y="-202" font-family="Helvetica,sans-Serif" font-size="10.00">_name</text>
<text text-anchor="start" x="6" y="-187" font-family="Helvetica,sans-Serif" font-size="10.00">&#45;</text>
<text text-anchor="start" x="15.5" y="-187" font-family="Helvetica,sans-Serif" font-size="10.00">_parent</text>
<text text-anchor="start" x="6" y="-172" font-family="Helvetica,sans-Serif" font-size="10.00">&#45;</text>
<text text-anchor="start" x="15.5" y="-172" font-family="Helvetica,sans-Serif" font-size="10.00">_list</text>
<text text-anchor="start" x="6" y="-157" font-family="Helvetica,sans-Serif" font-size="10.00">&#45;</text>
<text text-anchor="start" x="15.5" y="-157" font-family="Helvetica,sans-Serif" font-size="10.00">_markedItem</text>
<text text-anchor="start" x="4.5" y="-142" font-family="Helvetica,sans-Serif" font-size="10.00">+</text>
<text text-anchor="start" x="15.5" y="-142" font-family="Helvetica,sans-Serif" font-size="10.00">_StringListBoxModel()</text>
<text text-anchor="start" x="4.5" y="-127" font-family="Helvetica,sans-Serif" font-size="10.00">+</text>
<text text-anchor="start" x="15.5" y="-127" font-family="Helvetica,sans-Serif" font-size="10.00">getNumRows()</text>
<text text-anchor="start" x="4.5" y="-112" font-family="Helvetica,sans-Serif" font-size="10.00">+</text>
<text text-anchor="start" x="15.5" y="-112" font-family="Helvetica,sans-Serif" font-size="10.00">list()</text>
<text text-anchor="start" x="4.5" y="-97" font-family="Helvetica,sans-Serif" font-size="10.00">+</text>
<text text-anchor="start" x="15.5" y="-97" font-family="Helvetica,sans-Serif" font-size="10.00">listBoxItemDoubleClicked()</text>
<text text-anchor="start" x="4.5" y="-82" font-family="Helvetica,sans-Serif" font-size="10.00">+</text>
<text text-anchor="start" x="15.5" y="-82" font-family="Helvetica,sans-Serif" font-size="10.00">markedItem()</text>
<text text-anchor="start" x="4.5" y="-67" font-family="Helvetica,sans-Serif" font-size="10.00">+</text>
<text text-anchor="start" x="15.5" y="-67" font-family="Helvetica,sans-Serif" font-size="10.00">name()</text>
<text text-anchor="start" x="4.5" y="-52" font-family="Helvetica,sans-Serif" font-size="10.00">+</text>
<text text-anchor="start" x="15.5" y="-52" font-family="Helvetica,sans-Serif" font-size="10.00">paintListBoxItem()</text>
<text text-anchor="start" x="4.5" y="-37" font-family="Helvetica,sans-Serif" font-size="10.00">+</text>
<text text-anchor="start" x="15.5" y="-37" font-family="Helvetica,sans-Serif" font-size="10.00">selectedRowsChanged()</text>
<text text-anchor="start" x="4.5" y="-22" font-family="Helvetica,sans-Serif" font-size="10.00">+</text>
<text text-anchor="start" x="15.5" y="-22" font-family="Helvetica,sans-Serif" font-size="10.00">setData()</text>
<text text-anchor="start" x="4.5" y="-7" font-family="Helvetica,sans-Serif" font-size="10.00">+</text>
<text text-anchor="start" x="15.5" y="-7" font-family="Helvetica,sans-Serif" font-size="10.00">setMarkedItem()</text>
<polygon fill="#666666" stroke="#666666" points="0.5,-212 0.5,-212 137.5,-212 137.5,-212 0.5,-212"/>
<polygon fill="#666666" stroke="#666666" points="0.5,-152 0.5,-152 13.5,-152 13.5,-152 0.5,-152"/>
<polygon fill="#666666" stroke="#666666" points="13.5,-152 13.5,-152 137.5,-152 137.5,-152 13.5,-152"/>
<polygon fill="none" stroke="#666666" points="0,0 0,-240 137,-240 137,0 0,0"/>
</a>
</g>
</g>
<!-- Node2 -->
<g id="Node000002" class="node">
<title>Node2</title>
<g id="a_Node000002"><a xlink:title=" ">
<polygon fill="white" stroke="transparent" points="115.5,-325 21.5,-325 21.5,-276 115.5,-276 115.5,-325"/>
<text text-anchor="start" x="26.5" y="-312.5" font-family="Helvetica,sans-Serif" font-size="10.00">juce::ListBoxModel</text>
<text text-anchor="start" x="66.5" y="-297.5" font-family="Helvetica,sans-Serif" font-size="10.00"> </text>
<text text-anchor="start" x="66.5" y="-282.5" font-family="Helvetica,sans-Serif" font-size="10.00"> </text>
<polygon fill="#bfbfbf" stroke="#bfbfbf" points="21.5,-307.5 21.5,-307.5 115.5,-307.5 115.5,-307.5 21.5,-307.5"/>
<polygon fill="#bfbfbf" stroke="#bfbfbf" points="21.5,-292.5 21.5,-292.5 115.5,-292.5 115.5,-292.5 21.5,-292.5"/>
<polygon fill="none" stroke="#bfbfbf" points="21.5,-276 21.5,-325 115.5,-325 115.5,-276 21.5,-276"/>
</a>
</g>
</g>
<!-- Node2&#45;&gt;Node1 -->
<g id="edge1_Node000001_Node000002" class="edge">
<title>Node2&#45;&gt;Node1</title>
<g id="a_edge1_Node000001_Node000002"><a xlink:title=" ">
<path fill="none" stroke="#63b8ff" d="M68.5,-265.79C68.5,-258 68.5,-249.27 68.5,-240.06"/>
<polygon fill="none" stroke="#63b8ff" points="65,-265.8 68.5,-275.8 72,-265.8 65,-265.8"/>
</a>
</g>
</g>
</g>
</svg>
