<?xml version="1.0" encoding="UTF-8" standalone="no"?>
<!DOCTYPE svg PUBLIC "-//W3C//DTD SVG 1.1//EN"
 "http://www.w3.org/Graphics/SVG/1.1/DTD/svg11.dtd">
<!-- Generated by graphviz version 2.47.1 (20210417.1919)
 -->
<!-- Title: Main::FluidSynthPlugin::_PresetSelectionComponent Pages: 1 -->
<svg width="214pt" height="438pt"
 viewBox="0.00 0.00 214.00 438.00" xmlns="http://www.w3.org/2000/svg" xmlns:xlink="http://www.w3.org/1999/xlink">
<g id="graph0" class="graph" transform="scale(1 1) rotate(0) translate(4 434)">
<title>Main::FluidSynthPlugin::_PresetSelectionComponent</title>
<!-- Node1 -->
<g id="Node000001" class="node">
<title>Node1</title>
<g id="a_Node000001"><a xlink:title="A selection component for soundfont presets.">
<polygon fill="#999999" stroke="transparent" points="178.5,-345 17.5,-345 17.5,0 178.5,0 178.5,-345"/>
<text text-anchor="start" x="33.5" y="-332.5" font-family="Helvetica,sans-Serif" font-size="10.00">Main::FluidSynthPlugin</text>
<text text-anchor="start" x="33.5" y="-321.5" font-family="Helvetica,sans-Serif" font-size="10.00">::_PresetSelectionComponent</text>
<text text-anchor="start" x="23.5" y="-306.5" font-family="Helvetica,sans-Serif" font-size="10.00">&#45;</text>
<text text-anchor="start" x="33" y="-306.5" font-family="Helvetica,sans-Serif" font-size="10.00">_processor</text>
<text text-anchor="start" x="23.5" y="-291.5" font-family="Helvetica,sans-Serif" font-size="10.00">&#45;</text>
<text text-anchor="start" x="33" y="-291.5" font-family="Helvetica,sans-Serif" font-size="10.00">_presetIdentification</text>
<text text-anchor="start" x="23.5" y="-276.5" font-family="Helvetica,sans-Serif" font-size="10.00">&#45;</text>
<text text-anchor="start" x="33" y="-276.5" font-family="Helvetica,sans-Serif" font-size="10.00">_bankNumberList</text>
<text text-anchor="start" x="23.5" y="-261.5" font-family="Helvetica,sans-Serif" font-size="10.00">&#45;</text>
<text text-anchor="start" x="33" y="-261.5" font-family="Helvetica,sans-Serif" font-size="10.00">_bankNumberToProgramListMap</text>
<text text-anchor="start" x="23.5" y="-246.5" font-family="Helvetica,sans-Serif" font-size="10.00">&#45;</text>
<text text-anchor="start" x="33" y="-246.5" font-family="Helvetica,sans-Serif" font-size="10.00">_bankNumberListModel</text>
<text text-anchor="start" x="23.5" y="-231.5" font-family="Helvetica,sans-Serif" font-size="10.00">&#45;</text>
<text text-anchor="start" x="33" y="-231.5" font-family="Helvetica,sans-Serif" font-size="10.00">_programListModel</text>
<text text-anchor="start" x="23.5" y="-216.5" font-family="Helvetica,sans-Serif" font-size="10.00">&#45;</text>
<text text-anchor="start" x="33" y="-216.5" font-family="Helvetica,sans-Serif" font-size="10.00">_bankColumnHeadingWidget</text>
<text text-anchor="start" x="23.5" y="-201.5" font-family="Helvetica,sans-Serif" font-size="10.00">&#45;</text>
<text text-anchor="start" x="33" y="-201.5" font-family="Helvetica,sans-Serif" font-size="10.00">_programColumnHeadingWidget</text>
<text text-anchor="start" x="23.5" y="-186.5" font-family="Helvetica,sans-Serif" font-size="10.00">&#45;</text>
<text text-anchor="start" x="33" y="-186.5" font-family="Helvetica,sans-Serif" font-size="10.00">_bankListBoxWidget</text>
<text text-anchor="start" x="23.5" y="-171.5" font-family="Helvetica,sans-Serif" font-size="10.00">&#45;</text>
<text text-anchor="start" x="33" y="-171.5" font-family="Helvetica,sans-Serif" font-size="10.00">_programListBoxWidget</text>
<text text-anchor="start" x="23.5" y="-156.5" font-family="Helvetica,sans-Serif" font-size="10.00">&#45;</text>
<text text-anchor="start" x="33" y="-156.5" font-family="Helvetica,sans-Serif" font-size="10.00">_listBoxFont</text>
<text text-anchor="start" x="23.5" y="-141.5" font-family="Helvetica,sans-Serif" font-size="10.00">&#45;</text>
<text text-anchor="start" x="33" y="-141.5" font-family="Helvetica,sans-Serif" font-size="10.00">_okayButtonWidget</text>
<text text-anchor="start" x="23.5" y="-126.5" font-family="Helvetica,sans-Serif" font-size="10.00">&#45;</text>
<text text-anchor="start" x="33" y="-126.5" font-family="Helvetica,sans-Serif" font-size="10.00">_cancelButtonWidget</text>
<text text-anchor="start" x="22" y="-111.5" font-family="Helvetica,sans-Serif" font-size="10.00">+</text>
<text text-anchor="start" x="33" y="-111.5" font-family="Helvetica,sans-Serif" font-size="10.00">_PresetSelectionComponent()</text>
<text text-anchor="start" x="22" y="-96.5" font-family="Helvetica,sans-Serif" font-size="10.00">+</text>
<text text-anchor="start" x="33" y="-96.5" font-family="Helvetica,sans-Serif" font-size="10.00">presetIdentification()</text>
<text text-anchor="start" x="22" y="-81.5" font-family="Helvetica,sans-Serif" font-size="10.00">+</text>
<text text-anchor="start" x="33" y="-81.5" font-family="Helvetica,sans-Serif" font-size="10.00">confirm()</text>
<text text-anchor="start" x="22" y="-66.5" font-family="Helvetica,sans-Serif" font-size="10.00">+</text>
<text text-anchor="start" x="33" y="-66.5" font-family="Helvetica,sans-Serif" font-size="10.00">buttonClicked()</text>
<text text-anchor="start" x="22" y="-51.5" font-family="Helvetica,sans-Serif" font-size="10.00">+</text>
<text text-anchor="start" x="33" y="-51.5" font-family="Helvetica,sans-Serif" font-size="10.00">handleListBoxSelection()</text>
<text text-anchor="start" x="22" y="-36.5" font-family="Helvetica,sans-Serif" font-size="10.00">+</text>
<text text-anchor="start" x="33" y="-36.5" font-family="Helvetica,sans-Serif" font-size="10.00">isDisplayingMarkedBank()</text>
<text text-anchor="start" x="22" y="-21.5" font-family="Helvetica,sans-Serif" font-size="10.00">+</text>
<text text-anchor="start" x="33" y="-21.5" font-family="Helvetica,sans-Serif" font-size="10.00">listBoxFont()</text>
<text text-anchor="start" x="22" y="-6.5" font-family="Helvetica,sans-Serif" font-size="10.00">+</text>
<text text-anchor="start" x="33" y="-6.5" font-family="Helvetica,sans-Serif" font-size="10.00">resized()</text>
<polygon fill="#666666" stroke="#666666" points="18,-316.5 18,-316.5 179,-316.5 179,-316.5 18,-316.5"/>
<polygon fill="#666666" stroke="#666666" points="18,-121.5 18,-121.5 31,-121.5 31,-121.5 18,-121.5"/>
<polygon fill="#666666" stroke="#666666" points="31,-121.5 31,-121.5 179,-121.5 179,-121.5 31,-121.5"/>
<polygon fill="none" stroke="#666666" points="17.5,0 17.5,-345 178.5,-345 178.5,0 17.5,0"/>
</a>
</g>
</g>
<!-- Node2 -->
<g id="Node000002" class="node">
<title>Node2</title>
<g id="a_Node000002"><a xlink:title=" ">
<polygon fill="white" stroke="transparent" points="84,-430 0,-430 0,-381 84,-381 84,-430"/>
<text text-anchor="start" x="5" y="-417.5" font-family="Helvetica,sans-Serif" font-size="10.00">juce::Component</text>
<text text-anchor="start" x="40" y="-402.5" font-family="Helvetica,sans-Serif" font-size="10.00"> </text>
<text text-anchor="start" x="40" y="-387.5" font-family="Helvetica,sans-Serif" font-size="10.00"> </text>
<polygon fill="#bfbfbf" stroke="#bfbfbf" points="0,-412.5 0,-412.5 84,-412.5 84,-412.5 0,-412.5"/>
<polygon fill="#bfbfbf" stroke="#bfbfbf" points="0,-397.5 0,-397.5 84,-397.5 84,-397.5 0,-397.5"/>
<polygon fill="none" stroke="#bfbfbf" points="0,-381 0,-430 84,-430 84,-381 0,-381"/>
</a>
</g>
</g>
<!-- Node2&#45;&gt;Node1 -->
<g id="edge1_Node000001_Node000002" class="edge">
<title>Node2&#45;&gt;Node1</title>
<g id="a_edge1_Node000001_Node000002"><a xlink:title=" ">
<path fill="none" stroke="#63b8ff" d="M50.15,-370.9C51.99,-363.28 54.08,-354.69 56.31,-345.45"/>
<polygon fill="none" stroke="#63b8ff" points="46.74,-370.11 47.78,-380.65 53.54,-371.76 46.74,-370.11"/>
</a>
</g>
</g>
<!-- Node3 -->
<g id="Node000003" class="node">
<title>Node3</title>
<g id="a_Node000003"><a xlink:title=" ">
<polygon fill="white" stroke="transparent" points="206,-430 102,-430 102,-381 206,-381 206,-430"/>
<text text-anchor="start" x="107" y="-417.5" font-family="Helvetica,sans-Serif" font-size="10.00">juce::Button::Listener</text>
<text text-anchor="start" x="152" y="-402.5" font-family="Helvetica,sans-Serif" font-size="10.00"> </text>
<text text-anchor="start" x="152" y="-387.5" font-family="Helvetica,sans-Serif" font-size="10.00"> </text>
<polygon fill="#bfbfbf" stroke="#bfbfbf" points="102,-412.5 102,-412.5 206,-412.5 206,-412.5 102,-412.5"/>
<polygon fill="#bfbfbf" stroke="#bfbfbf" points="102,-397.5 102,-397.5 206,-397.5 206,-397.5 102,-397.5"/>
<polygon fill="none" stroke="#bfbfbf" points="102,-381 102,-430 206,-430 206,-381 102,-381"/>
</a>
</g>
</g>
<!-- Node3&#45;&gt;Node1 -->
<g id="edge2_Node000001_Node000003" class="edge">
<title>Node3&#45;&gt;Node1</title>
<g id="a_edge2_Node000001_Node000003"><a xlink:title=" ">
<path fill="none" stroke="#63b8ff" d="M145.85,-370.9C144.01,-363.28 141.92,-354.69 139.69,-345.45"/>
<polygon fill="none" stroke="#63b8ff" points="142.46,-371.76 148.22,-380.65 149.26,-370.11 142.46,-371.76"/>
</a>
</g>
</g>
</g>
</svg>
