<?xml version="1.0" encoding="UTF-8" standalone="no"?>
<!DOCTYPE svg PUBLIC "-//W3C//DTD SVG 1.1//EN"
 "http://www.w3.org/Graphics/SVG/1.1/DTD/svg11.dtd">
<!-- Generated by graphviz version 2.47.1 (20210417.1919)
 -->
<!-- Title: BaseTypes::Containers::RealList Pages: 1 -->
<!--zoomable 467 -->
<svg id="main" version="1.1" xmlns="http://www.w3.org/2000/svg" xmlns:xlink="http://www.w3.org/1999/xlink" xml:space="preserve" onload="init(evt)">
<style type="text/css"><![CDATA[
.edge:hover path { stroke: red; }
.edge:hover polygon { stroke: red; fill: red; }
]]></style>
<script type="text/javascript"><![CDATA[
var edges = document.getElementsByTagName('g');
if (edges && edges.length) {
  for (var i=0;i<edges.length;i++) {
    if (edges[i].id.substr(0,4)=='edge') {
      edges[i].setAttribute('class','edge');
    }
  }
}
]]></script>
        <defs>
                <circle id="rim" cx="0" cy="0" r="7"/>
                <circle id="rim2" cx="0" cy="0" r="3.5"/>
                <g id="zoomPlus">
                        <use xlink:href="#rim" fill="#404040">
                                <set attributeName="fill" to="#808080" begin="zoomplus.mouseover" end="zoomplus.mouseout"/>
                        </use>
                        <path d="M-4,0h8M0,-4v8" fill="none" stroke="white" stroke-width="1.5" pointer-events="none"/>
                </g>
                <g id="zoomMin">
                        <use xlink:href="#rim" fill="#404040">
                                <set attributeName="fill" to="#808080" begin="zoomminus.mouseover" end="zoomminus.mouseout"/>
                        </use>
                        <path d="M-4,0h8" fill="none" stroke="white" stroke-width="1.5" pointer-events="none"/>
                </g>
                <g id="dirArrow">
                        <path fill="none" stroke="white" stroke-width="1.5" d="M0,-3.0v7 M-2.5,-0.5L0,-3.0L2.5,-0.5"/>
                </g>
               <g id="resetDef">
                       <use xlink:href="#rim2" fill="#404040">
                               <set attributeName="fill" to="#808080" begin="reset.mouseover" end="reset.mouseout"/>
                       </use>
               </g>
        </defs>

<script type="text/javascript">
var viewWidth = 154;
var viewHeight = 467;
var sectionId = 'dynsection-0';
</script>
<script xlink:href="svgpan.js"/>
<svg id="graph" class="graph">
<g id="viewport">
<title>BaseTypes::Containers::RealList</title>
<polygon fill="white" stroke="transparent" points="-4,4 -4,-463 150,-463 150,4 -4,4"/>
<!-- Node1 -->
<g id="node1" class="node">
<title>Node1</title>
<g id="a_node1"><a xlink:title="A RealList object is a sequence of real values with arbitrary indexed access to positions in the sequ...">
<polygon fill="#bfbfbf" stroke="black" points="7.5,-0.5 7.5,-108.5 138.5,-108.5 138.5,-0.5 7.5,-0.5"/>
<text text-anchor="start" x="15.5" y="-95.7" font-family="Helvetica,sans-Serif" font-size="11.00">BaseTypes::Containers</text>
<text text-anchor="middle" x="73" y="-83.7" font-family="Helvetica,sans-Serif" font-size="11.00">::RealList</text>
<polyline fill="none" stroke="black" points="7.5,-76.5 138.5,-76.5 "/>
<text text-anchor="middle" x="73" y="-63.7" font-family="Helvetica,sans-Serif" font-size="11.00"> </text>
<polyline fill="none" stroke="black" points="7.5,-56.5 138.5,-56.5 "/>
<text text-anchor="start" x="15.5" y="-43.7" font-family="Helvetica,sans-Serif" font-size="11.00">+ toString()</text>
<text text-anchor="start" x="15.5" y="-31.7" font-family="Helvetica,sans-Serif" font-size="11.00">+ fill()</text>
<text text-anchor="start" x="15.5" y="-19.7" font-family="Helvetica,sans-Serif" font-size="11.00">+ multiply()</text>
<text text-anchor="start" x="15.5" y="-7.7" font-family="Helvetica,sans-Serif" font-size="11.00">+ fromList()</text>
</a>
</g>
</g>
<!-- Node2 -->
<g id="node2" class="node">
<title>Node2</title>
<g id="a_node2"><a xlink:href="struct_base_types_1_1_containers_1_1_generic_sequence.html" target="_top" xlink:title=" ">
<polygon fill="white" stroke="black" points="0,-145.5 0,-361.5 146,-361.5 146,-145.5 0,-145.5"/>
<text text-anchor="start" x="8" y="-348.7" font-family="Helvetica,sans-Serif" font-size="11.00">BaseTypes::Containers</text>
<text text-anchor="start" x="8" y="-336.7" font-family="Helvetica,sans-Serif" font-size="11.00">::GenericSequence&lt; Real,</text>
<text text-anchor="middle" x="73" y="-324.7" font-family="Helvetica,sans-Serif" font-size="11.00"> Real::toString &gt;</text>
<polyline fill="none" stroke="black" points="0,-317.5 146,-317.5 "/>
<text text-anchor="middle" x="73" y="-304.7" font-family="Helvetica,sans-Serif" font-size="11.00"> </text>
<polyline fill="none" stroke="black" points="0,-297.5 146,-297.5 "/>
<text text-anchor="start" x="8" y="-284.7" font-family="Helvetica,sans-Serif" font-size="11.00">+ GenericSequence()</text>
<text text-anchor="start" x="8" y="-272.7" font-family="Helvetica,sans-Serif" font-size="11.00">+ GenericSequence()</text>
<text text-anchor="start" x="8" y="-260.7" font-family="Helvetica,sans-Serif" font-size="11.00">+ GenericSequence()</text>
<text text-anchor="start" x="8" y="-248.7" font-family="Helvetica,sans-Serif" font-size="11.00">+ GenericSequence()</text>
<text text-anchor="start" x="8" y="-236.7" font-family="Helvetica,sans-Serif" font-size="11.00">+ asArray()</text>
<text text-anchor="start" x="8" y="-224.7" font-family="Helvetica,sans-Serif" font-size="11.00">+ asArray()</text>
<text text-anchor="start" x="8" y="-212.7" font-family="Helvetica,sans-Serif" font-size="11.00">+ operator[]()</text>
<text text-anchor="start" x="8" y="-200.7" font-family="Helvetica,sans-Serif" font-size="11.00">+ operator[]()</text>
<text text-anchor="start" x="8" y="-188.7" font-family="Helvetica,sans-Serif" font-size="11.00">+ at()</text>
<text text-anchor="start" x="8" y="-176.7" font-family="Helvetica,sans-Serif" font-size="11.00">+ at()</text>
<text text-anchor="start" x="8" y="-164.7" font-family="Helvetica,sans-Serif" font-size="11.00">and 14 more...</text>
<text text-anchor="start" x="8" y="-152.7" font-family="Helvetica,sans-Serif" font-size="11.00"># _toString()</text>
</a>
</g>
</g>
<!-- Node2&#45;&gt;Node1 -->
<g id="edge1" class="edge">
<title>Node2&#45;&gt;Node1</title>
<path fill="none" stroke="midnightblue" d="M73,-135.34C73,-126.18 73,-117.24 73,-108.86"/>
<polygon fill="none" stroke="midnightblue" points="69.5,-135.35 73,-145.35 76.5,-135.35 69.5,-135.35"/>
</g>
<!-- Node3 -->
<g id="node3" class="node">
<title>Node3</title>
<g id="a_node3"><a xlink:title=" ">
<polygon fill="white" stroke="#bfbfbf" points="28.5,-398.5 28.5,-458.5 117.5,-458.5 117.5,-398.5 28.5,-398.5"/>
<text text-anchor="middle" x="73" y="-445.7" font-family="Helvetica,sans-Serif" font-size="11.00">vector&lt; Real &gt;</text>
<polyline fill="none" stroke="#bfbfbf" points="28.5,-438.5 117.5,-438.5 "/>
<text text-anchor="middle" x="73" y="-425.7" font-family="Helvetica,sans-Serif" font-size="11.00"> </text>
<polyline fill="none" stroke="#bfbfbf" points="28.5,-418.5 117.5,-418.5 "/>
<text text-anchor="middle" x="73" y="-405.7" font-family="Helvetica,sans-Serif" font-size="11.00"> </text>
</a>
</g>
</g>
<!-- Node3&#45;&gt;Node2 -->
<g id="edge2" class="edge">
<title>Node3&#45;&gt;Node2</title>
<path fill="none" stroke="midnightblue" d="M73,-388.02C73,-379.94 73,-371.07 73,-361.86"/>
<polygon fill="none" stroke="midnightblue" points="69.5,-388.15 73,-398.15 76.5,-388.15 69.5,-388.15"/>
</g>
</g>
</svg>
        <g id="navigator" transform="translate(0 0)" fill="#404254">
                <rect fill="#f2f5e9" fill-opacity="0.5" stroke="#606060" stroke-width=".5" x="0" y="0" width="60" height="60"/>
                <use id="zoomplus" xlink:href="#zoomPlus" x="17" y="9" onmousedown="handleZoom(evt,'in')"/>
                <use id="zoomminus" xlink:href="#zoomMin" x="42" y="9" onmousedown="handleZoom(evt,'out')"/>
                <use id="reset" xlink:href="#resetDef" x="30" y="36" onmousedown="handleReset()"/>
                <g id="arrowUp" xlink:href="#dirArrow" transform="translate(30 24)" onmousedown="handlePan(0,-1)">
                  <use xlink:href="#rim" fill="#404040">
                        <set attributeName="fill" to="#808080" begin="arrowUp.mouseover" end="arrowUp.mouseout"/>
                  </use>
                  <path fill="none" stroke="white" stroke-width="1.5" d="M0,-3.0v7 M-2.5,-0.5L0,-3.0L2.5,-0.5"/>
                </g>
                <g id="arrowRight" xlink:href="#dirArrow" transform="rotate(90) translate(36 -43)" onmousedown="handlePan(1,0)">
                  <use xlink:href="#rim" fill="#404040">
                        <set attributeName="fill" to="#808080" begin="arrowRight.mouseover" end="arrowRight.mouseout"/>
                  </use>
                  <path fill="none" stroke="white" stroke-width="1.5" d="M0,-3.0v7 M-2.5,-0.5L0,-3.0L2.5,-0.5"/>
                </g>
                <g id="arrowDown" xlink:href="#dirArrow" transform="rotate(180) translate(-30 -48)" onmousedown="handlePan(0,1)">
                  <use xlink:href="#rim" fill="#404040">
                        <set attributeName="fill" to="#808080" begin="arrowDown.mouseover" end="arrowDown.mouseout"/>
                  </use>
                  <path fill="none" stroke="white" stroke-width="1.5" d="M0,-3.0v7 M-2.5,-0.5L0,-3.0L2.5,-0.5"/>
                </g>
                <g id="arrowLeft" xlink:href="#dirArrow" transform="rotate(270) translate(-36 17)" onmousedown="handlePan(-1,0)">
                  <use xlink:href="#rim" fill="#404040">
                        <set attributeName="fill" to="#808080" begin="arrowLeft.mouseover" end="arrowLeft.mouseout"/>
                  </use>
                  <path fill="none" stroke="white" stroke-width="1.5" d="M0,-3.0v7 M-2.5,-0.5L0,-3.0L2.5,-0.5"/>
                </g>
        </g>
        <svg viewBox="0 0 15 15" width="100%" height="30px" preserveAspectRatio="xMaxYMin meet">
         <g id="arrow_out" transform="scale(0.3 0.3)">
          <a xlink:href="struct_base_types_1_1_containers_1_1_real_list__inherit__graph_org.svg" target="_base">
           <rect id="button" ry="5" rx="5" y="6" x="6" height="38" width="38"
                fill="#f2f5e9" fill-opacity="0.5" stroke="#606060" stroke-width="1.0"/>
           <path id="arrow"
             d="M 11.500037,31.436501 C 11.940474,20.09759 22.043105,11.32322 32.158766,21.979434 L 37.068811,17.246167 C 37.068811,17.246167 37.088388,32 37.088388,32 L 22.160133,31.978069 C 22.160133,31.978069 26.997745,27.140456 26.997745,27.140456 C 18.528582,18.264221 13.291696,25.230495 11.500037,31.436501 z"
             style="fill:#404040;"/>
          </a>
         </g>
        </svg>
</svg>
