<?xml version="1.0" encoding="UTF-8" standalone="no"?>
<!DOCTYPE svg PUBLIC "-//W3C//DTD SVG 1.1//EN"
 "http://www.w3.org/Graphics/SVG/1.1/DTD/svg11.dtd">
<!-- Generated by graphviz version 2.47.1 (20210417.1919)
 -->
<!-- Title: Main::FluidSynthPlugin::FluidSynthPlugin_EventProcessor Pages: 1 -->
<svg width="196pt" height="281pt"
 viewBox="0.00 0.00 196.00 281.00" xmlns="http://www.w3.org/2000/svg" xmlns:xlink="http://www.w3.org/1999/xlink">
<g id="graph0" class="graph" transform="scale(1 1) rotate(0) translate(4 277)">
<title>Main::FluidSynthPlugin::FluidSynthPlugin_EventProcessor</title>
<polygon fill="white" stroke="transparent" points="-4,4 -4,-277 192,-277 192,4 -4,4"/>
<!-- Node1 -->
<g id="node1" class="node">
<title>Node1</title>
<g id="a_node1"><a xlink:title="A simple plugin for processing MIDI events via the FluidSynth library and return the resulting audio ...">
<polygon fill="#bfbfbf" stroke="black" points="0,-0.5 0,-178.5 188,-178.5 188,-0.5 0,-0.5"/>
<text text-anchor="start" x="8" y="-166.5" font-family="Helvetica,sans-Serif" font-size="10.00">Main::FluidSynthPlugin</text>
<text text-anchor="middle" x="94" y="-155.5" font-family="Helvetica,sans-Serif" font-size="10.00">::FluidSynthPlugin_EventProcessor</text>
<polyline fill="none" stroke="black" points="0,-148.5 188,-148.5 "/>
<text text-anchor="start" x="8" y="-136.5" font-family="Helvetica,sans-Serif" font-size="10.00">&#45; _descriptor</text>
<polyline fill="none" stroke="black" points="0,-129.5 188,-129.5 "/>
<text text-anchor="start" x="8" y="-117.5" font-family="Helvetica,sans-Serif" font-size="10.00">+ FluidSynthPlugin_EventProcessor()</text>
<text text-anchor="start" x="8" y="-106.5" font-family="Helvetica,sans-Serif" font-size="10.00">+ ~FluidSynthPlugin_EventProcessor()</text>
<text text-anchor="start" x="8" y="-95.5" font-family="Helvetica,sans-Serif" font-size="10.00">+ hasEditor()</text>
<text text-anchor="start" x="8" y="-84.5" font-family="Helvetica,sans-Serif" font-size="10.00">+ supportsDoublePrecisionProcessing()</text>
<text text-anchor="start" x="8" y="-73.5" font-family="Helvetica,sans-Serif" font-size="10.00">+ acceptsMidi()</text>
<text text-anchor="start" x="8" y="-62.5" font-family="Helvetica,sans-Serif" font-size="10.00">+ producesMidi()</text>
<text text-anchor="start" x="8" y="-51.5" font-family="Helvetica,sans-Serif" font-size="10.00">+ isMidiEffect()</text>
<text text-anchor="start" x="8" y="-40.5" font-family="Helvetica,sans-Serif" font-size="10.00">+ getTailLengthSeconds()</text>
<text text-anchor="start" x="8" y="-29.5" font-family="Helvetica,sans-Serif" font-size="10.00">+ getNumPrograms()</text>
<text text-anchor="start" x="8" y="-18.5" font-family="Helvetica,sans-Serif" font-size="10.00">+ getCurrentProgram()</text>
<text text-anchor="start" x="8" y="-7.5" font-family="Helvetica,sans-Serif" font-size="10.00">and 13 more...</text>
</a>
</g>
</g>
<!-- Node2 -->
<g id="node2" class="node">
<title>Node2</title>
<g id="a_node2"><a xlink:title=" ">
<polygon fill="white" stroke="#bfbfbf" points="39,-215.5 39,-272.5 149,-272.5 149,-215.5 39,-215.5"/>
<text text-anchor="middle" x="94" y="-260.5" font-family="Helvetica,sans-Serif" font-size="10.00">juce::AudioProcessor</text>
<polyline fill="none" stroke="#bfbfbf" points="39,-253.5 149,-253.5 "/>
<text text-anchor="middle" x="94" y="-241.5" font-family="Helvetica,sans-Serif" font-size="10.00"> </text>
<polyline fill="none" stroke="#bfbfbf" points="39,-234.5 149,-234.5 "/>
<text text-anchor="middle" x="94" y="-222.5" font-family="Helvetica,sans-Serif" font-size="10.00"> </text>
</a>
</g>
</g>
<!-- Node2&#45;&gt;Node1 -->
<g id="edge1" class="edge">
<title>Node2&#45;&gt;Node1</title>
<path fill="none" stroke="midnightblue" d="M94,-205.37C94,-197.09 94,-187.98 94,-178.62"/>
<polygon fill="none" stroke="midnightblue" points="90.5,-205.38 94,-215.38 97.5,-205.38 90.5,-205.38"/>
</g>
</g>
</svg>
