<?xml version="1.0" encoding="UTF-8" standalone="no"?>
<!DOCTYPE svg PUBLIC "-//W3C//DTD SVG 1.1//EN"
 "http://www.w3.org/Graphics/SVG/1.1/DTD/svg11.dtd">
<!-- Generated by graphviz version 2.47.1 (20210417.1919)
 -->
<!-- Title: Audio::AudioSampleListVector Pages: 1 -->
<svg width="172pt" height="215pt"
 viewBox="0.00 0.00 172.00 215.00" xmlns="http://www.w3.org/2000/svg" xmlns:xlink="http://www.w3.org/1999/xlink">
<g id="graph0" class="graph" transform="scale(1 1) rotate(0) translate(4 211)">
<title>Audio::AudioSampleListVector</title>
<polygon fill="white" stroke="transparent" points="-4,4 -4,-211 168,-211 168,4 -4,4"/>
<!-- Node1 -->
<g id="node1" class="node">
<title>Node1</title>
<g id="a_node1"><a xlink:title="A AudioSampleListVector object is a buffer of audio sample lists containing the input samples and the...">
<polygon fill="#bfbfbf" stroke="black" points="7.5,-0.5 7.5,-101.5 156.5,-101.5 156.5,-0.5 7.5,-0.5"/>
<text text-anchor="middle" x="82" y="-89.5" font-family="Helvetica,sans-Serif" font-size="10.00">Audio::AudioSampleListVector</text>
<polyline fill="none" stroke="black" points="7.5,-82.5 156.5,-82.5 "/>
<text text-anchor="middle" x="82" y="-70.5" font-family="Helvetica,sans-Serif" font-size="10.00"> </text>
<polyline fill="none" stroke="black" points="7.5,-63.5 156.5,-63.5 "/>
<text text-anchor="start" x="15.5" y="-51.5" font-family="Helvetica,sans-Serif" font-size="10.00">+ toString()</text>
<text text-anchor="start" x="15.5" y="-40.5" font-family="Helvetica,sans-Serif" font-size="10.00">+ frameCount()</text>
<text text-anchor="start" x="15.5" y="-29.5" font-family="Helvetica,sans-Serif" font-size="10.00">+ setFrameCount()</text>
<text text-anchor="start" x="15.5" y="-18.5" font-family="Helvetica,sans-Serif" font-size="10.00">+ setToZero()</text>
<text text-anchor="start" x="15.5" y="-7.5" font-family="Helvetica,sans-Serif" font-size="10.00">+ extend()</text>
</a>
</g>
</g>
<!-- Node2 -->
<g id="node2" class="node">
<title>Node2</title>
<g id="a_node2"><a xlink:title=" ">
<polygon fill="white" stroke="#bfbfbf" points="0,-138.5 0,-206.5 164,-206.5 164,-138.5 0,-138.5"/>
<text text-anchor="start" x="8" y="-194.5" font-family="Helvetica,sans-Serif" font-size="10.00">BaseTypes::GenericTypes</text>
<text text-anchor="middle" x="82" y="-183.5" font-family="Helvetica,sans-Serif" font-size="10.00">::GenericList&lt; AudioSampleList &gt;</text>
<polyline fill="none" stroke="#bfbfbf" points="0,-176.5 164,-176.5 "/>
<text text-anchor="middle" x="82" y="-164.5" font-family="Helvetica,sans-Serif" font-size="10.00"> </text>
<polyline fill="none" stroke="#bfbfbf" points="0,-157.5 164,-157.5 "/>
<text text-anchor="middle" x="82" y="-145.5" font-family="Helvetica,sans-Serif" font-size="10.00"> </text>
</a>
</g>
</g>
<!-- Node2&#45;&gt;Node1 -->
<g id="edge1" class="edge">
<title>Node2&#45;&gt;Node1</title>
<path fill="none" stroke="midnightblue" d="M82,-128.05C82,-119.47 82,-110.41 82,-101.65"/>
<polygon fill="none" stroke="midnightblue" points="78.5,-128.21 82,-138.21 85.5,-128.21 78.5,-128.21"/>
</g>
</g>
</svg>
