<?xml version="1.0" encoding="UTF-8" standalone="no"?>
<!DOCTYPE svg PUBLIC "-//W3C//DTD SVG 1.1//EN"
 "http://www.w3.org/Graphics/SVG/1.1/DTD/svg11.dtd">
<!-- Generated by graphviz version 2.47.1 (20210417.1919)
 -->
<!-- Title: Main::FluidSynthPlugin::FluidSynthPlugin_Editor Pages: 1 -->
<svg width="164pt" height="214pt"
 viewBox="0.00 0.00 164.00 214.00" xmlns="http://www.w3.org/2000/svg" xmlns:xlink="http://www.w3.org/1999/xlink">
<g id="graph0" class="graph" transform="scale(1 1) rotate(0) translate(4 210)">
<title>Main::FluidSynthPlugin::FluidSynthPlugin_Editor</title>
<polygon fill="white" stroke="transparent" points="-4,4 -4,-210 160,-210 160,4 -4,4"/>
<!-- Node1 -->
<g id="node1" class="node">
<title>Node1</title>
<g id="a_node1"><a xlink:title="A very simple editor for the FluidSynth plugin.">
<polygon fill="#bfbfbf" stroke="black" points="0,-0.5 0,-108.5 156,-108.5 156,-0.5 0,-0.5"/>
<text text-anchor="start" x="8" y="-95.7" font-family="Helvetica,sans-Serif" font-size="11.00">Main::FluidSynthPlugin</text>
<text text-anchor="middle" x="78" y="-83.7" font-family="Helvetica,sans-Serif" font-size="11.00">::FluidSynthPlugin_Editor</text>
<polyline fill="none" stroke="black" points="0,-76.5 156,-76.5 "/>
<text text-anchor="start" x="8" y="-63.7" font-family="Helvetica,sans-Serif" font-size="11.00">&#45; _descriptor</text>
<polyline fill="none" stroke="black" points="0,-56.5 156,-56.5 "/>
<text text-anchor="start" x="8" y="-43.7" font-family="Helvetica,sans-Serif" font-size="11.00">+ FluidSynthPlugin_Editor()</text>
<text text-anchor="start" x="8" y="-31.7" font-family="Helvetica,sans-Serif" font-size="11.00">+ ~FluidSynthPlugin_Editor()</text>
<text text-anchor="start" x="8" y="-19.7" font-family="Helvetica,sans-Serif" font-size="11.00">+ paint()</text>
<text text-anchor="start" x="8" y="-7.7" font-family="Helvetica,sans-Serif" font-size="11.00">+ resized()</text>
</a>
</g>
</g>
<!-- Node2 -->
<g id="node2" class="node">
<title>Node2</title>
<g id="a_node2"><a xlink:title=" ">
<polygon fill="white" stroke="#bfbfbf" points="3.5,-145.5 3.5,-205.5 152.5,-205.5 152.5,-145.5 3.5,-145.5"/>
<text text-anchor="middle" x="78" y="-192.7" font-family="Helvetica,sans-Serif" font-size="11.00">juce::AudioProcessorEditor</text>
<polyline fill="none" stroke="#bfbfbf" points="3.5,-185.5 152.5,-185.5 "/>
<text text-anchor="middle" x="78" y="-172.7" font-family="Helvetica,sans-Serif" font-size="11.00"> </text>
<polyline fill="none" stroke="#bfbfbf" points="3.5,-165.5 152.5,-165.5 "/>
<text text-anchor="middle" x="78" y="-152.7" font-family="Helvetica,sans-Serif" font-size="11.00"> </text>
</a>
</g>
</g>
<!-- Node2&#45;&gt;Node1 -->
<g id="edge1" class="edge">
<title>Node2&#45;&gt;Node1</title>
<path fill="none" stroke="midnightblue" d="M78,-135.14C78,-126.75 78,-117.75 78,-108.93"/>
<polygon fill="none" stroke="midnightblue" points="74.5,-135.39 78,-145.39 81.5,-135.39 74.5,-135.39"/>
</g>
</g>
</svg>
