<?xml version="1.0" encoding="UTF-8" standalone="no"?>
<!DOCTYPE svg PUBLIC "-//W3C//DTD SVG 1.1//EN"
 "http://www.w3.org/Graphics/SVG/1.1/DTD/svg11.dtd">
<!-- Generated by graphviz version 2.47.1 (20210417.1919)
 -->
<!-- Title: BaseTypes::Containers::StringList Pages: 1 -->
<svg width="164pt" height="259pt"
 viewBox="0.00 0.00 164.00 259.00" xmlns="http://www.w3.org/2000/svg" xmlns:xlink="http://www.w3.org/1999/xlink">
<g id="graph0" class="graph" transform="scale(1 1) rotate(0) translate(4 255)">
<title>BaseTypes::Containers::StringList</title>
<polygon fill="white" stroke="transparent" points="-4,4 -4,-255 160,-255 160,4 -4,4"/>
<!-- Node1 -->
<g id="node1" class="node">
<title>Node1</title>
<g id="a_node1"><a xlink:title="A StringList object is a list of string values with arbitrary indexed access to positions in the list...">
<polygon fill="#bfbfbf" stroke="black" points="19,-0.5 19,-123.5 137,-123.5 137,-0.5 19,-0.5"/>
<text text-anchor="start" x="27" y="-111.5" font-family="Helvetica,sans-Serif" font-size="10.00">BaseTypes::Containers</text>
<text text-anchor="middle" x="78" y="-100.5" font-family="Helvetica,sans-Serif" font-size="10.00">::StringList</text>
<polyline fill="none" stroke="black" points="19,-93.5 137,-93.5 "/>
<text text-anchor="middle" x="78" y="-81.5" font-family="Helvetica,sans-Serif" font-size="10.00"> </text>
<polyline fill="none" stroke="black" points="19,-74.5 137,-74.5 "/>
<text text-anchor="start" x="27" y="-62.5" font-family="Helvetica,sans-Serif" font-size="10.00">+ toString()</text>
<text text-anchor="start" x="27" y="-51.5" font-family="Helvetica,sans-Serif" font-size="10.00">+ join()</text>
<text text-anchor="start" x="27" y="-40.5" font-family="Helvetica,sans-Serif" font-size="10.00">+ slice()</text>
<text text-anchor="start" x="27" y="-29.5" font-family="Helvetica,sans-Serif" font-size="10.00">+ fromList()</text>
<text text-anchor="start" x="27" y="-18.5" font-family="Helvetica,sans-Serif" font-size="10.00">+ makeBySplit()</text>
<text text-anchor="start" x="27" y="-7.5" font-family="Helvetica,sans-Serif" font-size="10.00">+ toString()</text>
</a>
</g>
</g>
<!-- Node2 -->
<g id="node2" class="node">
<title>Node2</title>
<g id="a_node2"><a xlink:title=" ">
<polygon fill="white" stroke="#bfbfbf" points="0,-160.5 0,-250.5 156,-250.5 156,-160.5 0,-160.5"/>
<text text-anchor="start" x="8" y="-238.5" font-family="Helvetica,sans-Serif" font-size="10.00">BaseTypes::GenericTypes</text>
<text text-anchor="start" x="8" y="-227.5" font-family="Helvetica,sans-Serif" font-size="10.00">::GenericList&lt; String,</text>
<text text-anchor="start" x="8" y="-216.5" font-family="Helvetica,sans-Serif" font-size="10.00"> String_toString, _stringListType</text>
<text text-anchor="middle" x="78" y="-205.5" font-family="Helvetica,sans-Serif" font-size="10.00">Name &gt;</text>
<polyline fill="none" stroke="#bfbfbf" points="0,-198.5 156,-198.5 "/>
<text text-anchor="middle" x="78" y="-186.5" font-family="Helvetica,sans-Serif" font-size="10.00"> </text>
<polyline fill="none" stroke="#bfbfbf" points="0,-179.5 156,-179.5 "/>
<text text-anchor="middle" x="78" y="-167.5" font-family="Helvetica,sans-Serif" font-size="10.00"> </text>
</a>
</g>
</g>
<!-- Node2&#45;&gt;Node1 -->
<g id="edge1" class="edge">
<title>Node2&#45;&gt;Node1</title>
<path fill="none" stroke="midnightblue" d="M78,-150.11C78,-141.42 78,-132.38 78,-123.56"/>
<polygon fill="none" stroke="midnightblue" points="74.5,-150.12 78,-160.12 81.5,-150.12 74.5,-150.12"/>
</g>
</g>
</svg>
