<?xml version="1.0" encoding="UTF-8" standalone="no"?>
<!DOCTYPE svg PUBLIC "-//W3C//DTD SVG 1.1//EN"
 "http://www.w3.org/Graphics/SVG/1.1/DTD/svg11.dtd">
<!-- Generated by graphviz version 2.47.1 (20210417.1919)
 -->
<!-- Title: Main::FluidSynthPlugin::_StringListBoxModel Pages: 1 -->
<svg width="151pt" height="303pt"
 viewBox="0.00 0.00 151.00 303.00" xmlns="http://www.w3.org/2000/svg" xmlns:xlink="http://www.w3.org/1999/xlink">
<g id="graph0" class="graph" transform="scale(1 1) rotate(0) translate(4 299)">
<title>Main::FluidSynthPlugin::_StringListBoxModel</title>
<polygon fill="white" stroke="transparent" points="-4,4 -4,-299 147,-299 147,4 -4,4"/>
<!-- Node1 -->
<g id="node1" class="node">
<title>Node1</title>
<g id="a_node1"><a xlink:title="A very elementary list box model for a string list.">
<polygon fill="#bfbfbf" stroke="black" points="0,-0.5 0,-200.5 143,-200.5 143,-0.5 0,-0.5"/>
<text text-anchor="start" x="8" y="-188.5" font-family="Helvetica,sans-Serif" font-size="10.00">Main::FluidSynthPlugin</text>
<text text-anchor="middle" x="71.5" y="-177.5" font-family="Helvetica,sans-Serif" font-size="10.00">::_StringListBoxModel</text>
<polyline fill="none" stroke="black" points="0,-170.5 143,-170.5 "/>
<text text-anchor="start" x="8" y="-158.5" font-family="Helvetica,sans-Serif" font-size="10.00">&#45; _name</text>
<text text-anchor="start" x="8" y="-147.5" font-family="Helvetica,sans-Serif" font-size="10.00">&#45; _parent</text>
<text text-anchor="start" x="8" y="-136.5" font-family="Helvetica,sans-Serif" font-size="10.00">&#45; _list</text>
<text text-anchor="start" x="8" y="-125.5" font-family="Helvetica,sans-Serif" font-size="10.00">&#45; _markedItem</text>
<polyline fill="none" stroke="black" points="0,-118.5 143,-118.5 "/>
<text text-anchor="start" x="8" y="-106.5" font-family="Helvetica,sans-Serif" font-size="10.00">+ _StringListBoxModel()</text>
<text text-anchor="start" x="8" y="-95.5" font-family="Helvetica,sans-Serif" font-size="10.00">+ getNumRows()</text>
<text text-anchor="start" x="8" y="-84.5" font-family="Helvetica,sans-Serif" font-size="10.00">+ list()</text>
<text text-anchor="start" x="8" y="-73.5" font-family="Helvetica,sans-Serif" font-size="10.00">+ listBoxItemDoubleClicked()</text>
<text text-anchor="start" x="8" y="-62.5" font-family="Helvetica,sans-Serif" font-size="10.00">+ markedItem()</text>
<text text-anchor="start" x="8" y="-51.5" font-family="Helvetica,sans-Serif" font-size="10.00">+ name()</text>
<text text-anchor="start" x="8" y="-40.5" font-family="Helvetica,sans-Serif" font-size="10.00">+ paintListBoxItem()</text>
<text text-anchor="start" x="8" y="-29.5" font-family="Helvetica,sans-Serif" font-size="10.00">+ selectedRowsChanged()</text>
<text text-anchor="start" x="8" y="-18.5" font-family="Helvetica,sans-Serif" font-size="10.00">+ setData()</text>
<text text-anchor="start" x="8" y="-7.5" font-family="Helvetica,sans-Serif" font-size="10.00">+ setMarkedItem()</text>
</a>
</g>
</g>
<!-- Node2 -->
<g id="node2" class="node">
<title>Node2</title>
<g id="a_node2"><a xlink:title=" ">
<polygon fill="white" stroke="#bfbfbf" points="21.5,-237.5 21.5,-294.5 121.5,-294.5 121.5,-237.5 21.5,-237.5"/>
<text text-anchor="middle" x="71.5" y="-282.5" font-family="Helvetica,sans-Serif" font-size="10.00">juce::ListBoxModel</text>
<polyline fill="none" stroke="#bfbfbf" points="21.5,-275.5 121.5,-275.5 "/>
<text text-anchor="middle" x="71.5" y="-263.5" font-family="Helvetica,sans-Serif" font-size="10.00"> </text>
<polyline fill="none" stroke="#bfbfbf" points="21.5,-256.5 121.5,-256.5 "/>
<text text-anchor="middle" x="71.5" y="-244.5" font-family="Helvetica,sans-Serif" font-size="10.00"> </text>
</a>
</g>
</g>
<!-- Node2&#45;&gt;Node1 -->
<g id="edge1" class="edge">
<title>Node2&#45;&gt;Node1</title>
<path fill="none" stroke="midnightblue" d="M71.5,-227.04C71.5,-218.87 71.5,-209.87 71.5,-200.55"/>
<polygon fill="none" stroke="midnightblue" points="68,-227.26 71.5,-237.26 75,-227.26 68,-227.26"/>
</g>
</g>
</svg>
