<?xml version="1.0" encoding="UTF-8" standalone="no"?>
<!DOCTYPE svg PUBLIC "-//W3C//DTD SVG 1.1//EN"
 "http://www.w3.org/Graphics/SVG/1.1/DTD/svg11.dtd">
<!-- Generated by graphviz version 2.47.1 (20210417.1919)
 -->
<!-- Title: Main::FluidSynthPlugin::_WidgetListener Pages: 1 -->
<svg width="250pt" height="183pt"
 viewBox="0.00 0.00 249.50 183.00" xmlns="http://www.w3.org/2000/svg" xmlns:xlink="http://www.w3.org/1999/xlink">

<svg id="main" version="1.1" xmlns="http://www.w3.org/2000/svg" xmlns:xlink="http://www.w3.org/1999/xlink" xml:space="preserve">

<style type="text/css"><![CDATA[
.node, .edge {opacity: 0.7;}
.node.selected, .edge.selected {opacity: 1;}
.edge:hover path { stroke: red; }
.edge:hover polygon { stroke: red; fill: red; }
]]></style>
<script type="application/ecmascript" xlink:href="svg.min.js"/>
<svg id="graph" class="graph">
<g id="graph0" class="graph" transform="scale(1 1) rotate(0) translate(4 179)">
<title>Main::FluidSynthPlugin::_WidgetListener</title>
<!-- Node1 -->
<g id="Node000001" class="node">
<title>Node1</title>
<g id="a_Node000001"><a xlink:title="A listener class for button and text editor events.">
<polygon fill="#999999" stroke="transparent" points="179.5,-90 54.5,-90 54.5,0 179.5,0 179.5,-90"/>
<text text-anchor="start" x="67" y="-78" font-family="Helvetica,sans-Serif" font-size="10.00">Main::FluidSynthPlugin</text>
<text text-anchor="start" x="79" y="-67" font-family="Helvetica,sans-Serif" font-size="10.00">::_WidgetListener</text>
<text text-anchor="start" x="60.5" y="-52" font-family="Helvetica,sans-Serif" font-size="10.00">&#45;</text>
<text text-anchor="start" x="70" y="-52" font-family="Helvetica,sans-Serif" font-size="10.00">_editorDescriptor</text>
<text text-anchor="start" x="59" y="-37" font-family="Helvetica,sans-Serif" font-size="10.00">+</text>
<text text-anchor="start" x="70" y="-37" font-family="Helvetica,sans-Serif" font-size="10.00">_WidgetListener()</text>
<text text-anchor="start" x="59" y="-22" font-family="Helvetica,sans-Serif" font-size="10.00">+</text>
<text text-anchor="start" x="70" y="-22" font-family="Helvetica,sans-Serif" font-size="10.00">buttonClicked()</text>
<text text-anchor="start" x="59" y="-7" font-family="Helvetica,sans-Serif" font-size="10.00">+</text>
<text text-anchor="start" x="70" y="-7" font-family="Helvetica,sans-Serif" font-size="10.00">textEditorTextChanged()</text>
<polygon fill="#666666" stroke="#666666" points="55,-62 55,-62 180,-62 180,-62 55,-62"/>
<polygon fill="#666666" stroke="#666666" points="55,-47 55,-47 68,-47 68,-47 55,-47"/>
<polygon fill="#666666" stroke="#666666" points="68,-47 68,-47 180,-47 180,-47 68,-47"/>
<polygon fill="none" stroke="#666666" points="54.5,0 54.5,-90 179.5,-90 179.5,0 54.5,0"/>
</a>
</g>
</g>
<!-- Node2 -->
<g id="Node000002" class="node">
<title>Node2</title>
<g id="a_Node000002"><a xlink:title=" ">
<polygon fill="white" stroke="transparent" points="104,-175 0,-175 0,-126 104,-126 104,-175"/>
<text text-anchor="start" x="5" y="-162.5" font-family="Helvetica,sans-Serif" font-size="10.00">juce::Button::Listener</text>
<text text-anchor="start" x="50" y="-147.5" font-family="Helvetica,sans-Serif" font-size="10.00"> </text>
<text text-anchor="start" x="50" y="-132.5" font-family="Helvetica,sans-Serif" font-size="10.00"> </text>
<polygon fill="#bfbfbf" stroke="#bfbfbf" points="0,-157.5 0,-157.5 104,-157.5 104,-157.5 0,-157.5"/>
<polygon fill="#bfbfbf" stroke="#bfbfbf" points="0,-142.5 0,-142.5 104,-142.5 104,-142.5 0,-142.5"/>
<polygon fill="none" stroke="#bfbfbf" points="0,-126 0,-175 104,-175 104,-126 0,-126"/>
</a>
</g>
</g>
<!-- Node2&#45;&gt;Node1 -->
<g id="edge1_Node000001_Node000002" class="edge">
<title>Node2&#45;&gt;Node1</title>
<g id="a_edge1_Node000001_Node000002"><a xlink:title=" ">
<path fill="none" stroke="#63b8ff" d="M72.26,-117.24C77.6,-108.74 83.46,-99.41 89.12,-90.39"/>
<polygon fill="none" stroke="#63b8ff" points="69.27,-115.43 66.91,-125.76 75.19,-119.15 69.27,-115.43"/>
</a>
</g>
</g>
<!-- Node3 -->
<g id="Node000003" class="node">
<title>Node3</title>
<g id="a_Node000003"><a xlink:title=" ">
<polygon fill="white" stroke="transparent" points="241.5,-175 122.5,-175 122.5,-126 241.5,-126 241.5,-175"/>
<text text-anchor="start" x="128" y="-162.5" font-family="Helvetica,sans-Serif" font-size="10.00">juce::TextEditor::Listener</text>
<text text-anchor="start" x="180.5" y="-147.5" font-family="Helvetica,sans-Serif" font-size="10.00"> </text>
<text text-anchor="start" x="180.5" y="-132.5" font-family="Helvetica,sans-Serif" font-size="10.00"> </text>
<polygon fill="#bfbfbf" stroke="#bfbfbf" points="123,-157.5 123,-157.5 242,-157.5 242,-157.5 123,-157.5"/>
<polygon fill="#bfbfbf" stroke="#bfbfbf" points="123,-142.5 123,-142.5 242,-142.5 242,-142.5 123,-142.5"/>
<polygon fill="none" stroke="#bfbfbf" points="122.5,-126 122.5,-175 241.5,-175 241.5,-126 122.5,-126"/>
</a>
</g>
</g>
<!-- Node3&#45;&gt;Node1 -->
<g id="edge2_Node000001_Node000003" class="edge">
<title>Node3&#45;&gt;Node1</title>
<g id="a_edge2_Node000001_Node000003"><a xlink:title=" ">
<path fill="none" stroke="#63b8ff" d="M161.74,-117.24C156.4,-108.74 150.54,-99.41 144.88,-90.39"/>
<polygon fill="none" stroke="#63b8ff" points="158.81,-119.15 167.09,-125.76 164.73,-115.43 158.81,-119.15"/>
</a>
</g>
</g>
</g>
</svg>
</svg>

<style type='text/css'>
<![CDATA[
[data-mouse-over-selected='false'] { opacity: 0.7; }
[data-mouse-over-selected='true']  { opacity: 1.0; }
]]>
</style>
<script type="application/ecmascript"><![CDATA[
document.addEventListener('DOMContentLoaded', (event) => {
  highlightEdges();
  highlightAdjacentNodes();
});
]]></script>
</svg>
