<?xml version="1.0" encoding="UTF-8" standalone="no"?>
<!DOCTYPE svg PUBLIC "-//W3C//DTD SVG 1.1//EN"
 "http://www.w3.org/Graphics/SVG/1.1/DTD/svg11.dtd">
<!-- Generated by graphviz version 2.47.1 (20210417.1919)
 -->
<!-- Title: Real Pages: 1 -->
<svg width="240pt" height="849pt"
 viewBox="0.00 0.00 240.00 849.00" xmlns="http://www.w3.org/2000/svg" xmlns:xlink="http://www.w3.org/1999/xlink">
<g id="graph0" class="graph" transform="scale(1 1) rotate(0) translate(4 845)">
<title>Real</title>
<!-- Node1 -->
<g id="Node000001" class="node">
<title>Node1</title>
<g id="a_Node000001"><a xlink:title="An Real object wraps a value of some associated primitive float point type in an object.">
<polygon fill="#999999" stroke="transparent" points="171.5,-745 59.5,-745 59.5,-291 171.5,-291 171.5,-745"/>
<text text-anchor="start" x="105.5" y="-733" font-family="Helvetica,sans-Serif" font-size="10.00">Real</text>
<text text-anchor="start" x="63.5" y="-718" font-family="Helvetica,sans-Serif" font-size="10.00">+</text>
<text text-anchor="start" x="74.5" y="-718" font-family="Helvetica,sans-Serif" font-size="10.00">zero</text>
<text text-anchor="start" x="63.5" y="-703" font-family="Helvetica,sans-Serif" font-size="10.00">+</text>
<text text-anchor="start" x="74.5" y="-703" font-family="Helvetica,sans-Serif" font-size="10.00">one</text>
<text text-anchor="start" x="63.5" y="-688" font-family="Helvetica,sans-Serif" font-size="10.00">+</text>
<text text-anchor="start" x="74.5" y="-688" font-family="Helvetica,sans-Serif" font-size="10.00">two</text>
<text text-anchor="start" x="63.5" y="-673" font-family="Helvetica,sans-Serif" font-size="10.00">+</text>
<text text-anchor="start" x="74.5" y="-673" font-family="Helvetica,sans-Serif" font-size="10.00">pi</text>
<text text-anchor="start" x="63.5" y="-658" font-family="Helvetica,sans-Serif" font-size="10.00">+</text>
<text text-anchor="start" x="74.5" y="-658" font-family="Helvetica,sans-Serif" font-size="10.00">twoPi</text>
<text text-anchor="start" x="63.5" y="-643" font-family="Helvetica,sans-Serif" font-size="10.00">+</text>
<text text-anchor="start" x="74.5" y="-643" font-family="Helvetica,sans-Serif" font-size="10.00">ten</text>
<text text-anchor="start" x="63.5" y="-628" font-family="Helvetica,sans-Serif" font-size="10.00">+</text>
<text text-anchor="start" x="74.5" y="-628" font-family="Helvetica,sans-Serif" font-size="10.00">infinity</text>
<text text-anchor="start" x="63.5" y="-613" font-family="Helvetica,sans-Serif" font-size="10.00">+</text>
<text text-anchor="start" x="74.5" y="-613" font-family="Helvetica,sans-Serif" font-size="10.00">Real()</text>
<text text-anchor="start" x="63.5" y="-598" font-family="Helvetica,sans-Serif" font-size="10.00">+</text>
<text text-anchor="start" x="74.5" y="-598" font-family="Helvetica,sans-Serif" font-size="10.00">Real()</text>
<text text-anchor="start" x="63.5" y="-583" font-family="Helvetica,sans-Serif" font-size="10.00">+</text>
<text text-anchor="start" x="74.5" y="-583" font-family="Helvetica,sans-Serif" font-size="10.00">Real()</text>
<text text-anchor="start" x="63.5" y="-568" font-family="Helvetica,sans-Serif" font-size="10.00">+</text>
<text text-anchor="start" x="74.5" y="-568" font-family="Helvetica,sans-Serif" font-size="10.00">Real()</text>
<text text-anchor="start" x="63.5" y="-553" font-family="Helvetica,sans-Serif" font-size="10.00">+</text>
<text text-anchor="start" x="74.5" y="-553" font-family="Helvetica,sans-Serif" font-size="10.00">Real()</text>
<text text-anchor="start" x="63.5" y="-538" font-family="Helvetica,sans-Serif" font-size="10.00">+</text>
<text text-anchor="start" x="74.5" y="-538" font-family="Helvetica,sans-Serif" font-size="10.00">toString()</text>
<text text-anchor="start" x="63.5" y="-523" font-family="Helvetica,sans-Serif" font-size="10.00">+</text>
<text text-anchor="start" x="74.5" y="-523" font-family="Helvetica,sans-Serif" font-size="10.00">operator double()</text>
<text text-anchor="start" x="63.5" y="-508" font-family="Helvetica,sans-Serif" font-size="10.00">+</text>
<text text-anchor="start" x="74.5" y="-508" font-family="Helvetica,sans-Serif" font-size="10.00">operator float()</text>
<text text-anchor="start" x="63.5" y="-493" font-family="Helvetica,sans-Serif" font-size="10.00">+</text>
<text text-anchor="start" x="74.5" y="-493" font-family="Helvetica,sans-Serif" font-size="10.00">operator int()</text>
<text text-anchor="start" x="63.5" y="-478" font-family="Helvetica,sans-Serif" font-size="10.00">+</text>
<text text-anchor="start" x="74.5" y="-478" font-family="Helvetica,sans-Serif" font-size="10.00">operator Integer()</text>
<text text-anchor="start" x="74.5" y="-463" font-family="Helvetica,sans-Serif" font-size="10.00">and 17 more...</text>
<text text-anchor="start" x="63.5" y="-448" font-family="Helvetica,sans-Serif" font-size="10.00">+</text>
<text text-anchor="start" x="74.5" y="-448" font-family="Helvetica,sans-Serif" font-size="10.00">hasDoublePrecision()</text>
<text text-anchor="start" x="63.5" y="-433" font-family="Helvetica,sans-Serif" font-size="10.00">+</text>
<text text-anchor="start" x="74.5" y="-433" font-family="Helvetica,sans-Serif" font-size="10.00">toString()</text>
<text text-anchor="start" x="63.5" y="-418" font-family="Helvetica,sans-Serif" font-size="10.00">+</text>
<text text-anchor="start" x="74.5" y="-418" font-family="Helvetica,sans-Serif" font-size="10.00">abs()</text>
<text text-anchor="start" x="63.5" y="-403" font-family="Helvetica,sans-Serif" font-size="10.00">+</text>
<text text-anchor="start" x="74.5" y="-403" font-family="Helvetica,sans-Serif" font-size="10.00">ceiling()</text>
<text text-anchor="start" x="63.5" y="-388" font-family="Helvetica,sans-Serif" font-size="10.00">+</text>
<text text-anchor="start" x="74.5" y="-388" font-family="Helvetica,sans-Serif" font-size="10.00">cos()</text>
<text text-anchor="start" x="63.5" y="-373" font-family="Helvetica,sans-Serif" font-size="10.00">+</text>
<text text-anchor="start" x="74.5" y="-373" font-family="Helvetica,sans-Serif" font-size="10.00">exp()</text>
<text text-anchor="start" x="63.5" y="-358" font-family="Helvetica,sans-Serif" font-size="10.00">+</text>
<text text-anchor="start" x="74.5" y="-358" font-family="Helvetica,sans-Serif" font-size="10.00">floor()</text>
<text text-anchor="start" x="63.5" y="-343" font-family="Helvetica,sans-Serif" font-size="10.00">+</text>
<text text-anchor="start" x="74.5" y="-343" font-family="Helvetica,sans-Serif" font-size="10.00">forceToInterval()</text>
<text text-anchor="start" x="63.5" y="-328" font-family="Helvetica,sans-Serif" font-size="10.00">+</text>
<text text-anchor="start" x="74.5" y="-328" font-family="Helvetica,sans-Serif" font-size="10.00">fractionalPart()</text>
<text text-anchor="start" x="63.5" y="-313" font-family="Helvetica,sans-Serif" font-size="10.00">+</text>
<text text-anchor="start" x="74.5" y="-313" font-family="Helvetica,sans-Serif" font-size="10.00">integralPart()</text>
<text text-anchor="start" x="74.5" y="-298" font-family="Helvetica,sans-Serif" font-size="10.00">and 8 more...</text>
<polygon fill="#666666" stroke="#666666" points="59.5,-728 59.5,-728 171.5,-728 171.5,-728 59.5,-728"/>
<polygon fill="#666666" stroke="#666666" points="59.5,-623 59.5,-623 72.5,-623 72.5,-623 59.5,-623"/>
<polygon fill="#666666" stroke="#666666" points="72.5,-623 72.5,-623 171.5,-623 171.5,-623 72.5,-623"/>
<polygon fill="none" stroke="#666666" points="59.5,-291 59.5,-745 171.5,-745 171.5,-291 59.5,-291"/>
</a>
</g>
</g>
<!-- Node3 -->
<g id="Node000003" class="node">
<title>Node3</title>
<g id="a_Node000003"><a xlink:href="struct_base_types_1_1_primitives_1_1_percentage.html" target="_top" xlink:title="A Percentage object is real&#45;valued and represents a percentage (normalized to the 0 to 100 range).">
<polygon fill="white" stroke="transparent" points="107,-255 0,-255 0,0 107,0 107,-255"/>
<text text-anchor="start" x="5.5" y="-242.5" font-family="Helvetica,sans-Serif" font-size="10.00">BaseTypes::Primitives</text>
<text text-anchor="start" x="26" y="-231.5" font-family="Helvetica,sans-Serif" font-size="10.00">::Percentage</text>
<text text-anchor="start" x="52" y="-216.5" font-family="Helvetica,sans-Serif" font-size="10.00"> </text>
<text text-anchor="start" x="4.5" y="-201.5" font-family="Helvetica,sans-Serif" font-size="10.00">+</text>
<text text-anchor="start" x="15.5" y="-201.5" font-family="Helvetica,sans-Serif" font-size="10.00">Percentage()</text>
<text text-anchor="start" x="4.5" y="-186.5" font-family="Helvetica,sans-Serif" font-size="10.00">+</text>
<text text-anchor="start" x="15.5" y="-186.5" font-family="Helvetica,sans-Serif" font-size="10.00">Percentage()</text>
<text text-anchor="start" x="4.5" y="-171.5" font-family="Helvetica,sans-Serif" font-size="10.00">+</text>
<text text-anchor="start" x="15.5" y="-171.5" font-family="Helvetica,sans-Serif" font-size="10.00">Percentage()</text>
<text text-anchor="start" x="4.5" y="-156.5" font-family="Helvetica,sans-Serif" font-size="10.00">+</text>
<text text-anchor="start" x="15.5" y="-156.5" font-family="Helvetica,sans-Serif" font-size="10.00">Percentage()</text>
<text text-anchor="start" x="4.5" y="-141.5" font-family="Helvetica,sans-Serif" font-size="10.00">+</text>
<text text-anchor="start" x="15.5" y="-141.5" font-family="Helvetica,sans-Serif" font-size="10.00">toString()</text>
<text text-anchor="start" x="4.5" y="-126.5" font-family="Helvetica,sans-Serif" font-size="10.00">+</text>
<text text-anchor="start" x="15.5" y="-126.5" font-family="Helvetica,sans-Serif" font-size="10.00">operator+()</text>
<text text-anchor="start" x="4.5" y="-111.5" font-family="Helvetica,sans-Serif" font-size="10.00">+</text>
<text text-anchor="start" x="15.5" y="-111.5" font-family="Helvetica,sans-Serif" font-size="10.00">operator&#45;()</text>
<text text-anchor="start" x="4.5" y="-96.5" font-family="Helvetica,sans-Serif" font-size="10.00">+</text>
<text text-anchor="start" x="15.5" y="-96.5" font-family="Helvetica,sans-Serif" font-size="10.00">forceToPercentage()</text>
<text text-anchor="start" x="4.5" y="-81.5" font-family="Helvetica,sans-Serif" font-size="10.00">+</text>
<text text-anchor="start" x="15.5" y="-81.5" font-family="Helvetica,sans-Serif" font-size="10.00">of()</text>
<text text-anchor="start" x="4.5" y="-66.5" font-family="Helvetica,sans-Serif" font-size="10.00">+</text>
<text text-anchor="start" x="15.5" y="-66.5" font-family="Helvetica,sans-Serif" font-size="10.00">toString()</text>
<text text-anchor="start" x="4.5" y="-51.5" font-family="Helvetica,sans-Serif" font-size="10.00">+</text>
<text text-anchor="start" x="15.5" y="-51.5" font-family="Helvetica,sans-Serif" font-size="10.00">forceToPercentage()</text>
<text text-anchor="start" x="4.5" y="-36.5" font-family="Helvetica,sans-Serif" font-size="10.00">+</text>
<text text-anchor="start" x="15.5" y="-36.5" font-family="Helvetica,sans-Serif" font-size="10.00">percentOf()</text>
<text text-anchor="start" x="4.5" y="-21.5" font-family="Helvetica,sans-Serif" font-size="10.00">+</text>
<text text-anchor="start" x="15.5" y="-21.5" font-family="Helvetica,sans-Serif" font-size="10.00">percentOf()</text>
<text text-anchor="start" x="4.5" y="-6.5" font-family="Helvetica,sans-Serif" font-size="10.00">+</text>
<text text-anchor="start" x="15.5" y="-6.5" font-family="Helvetica,sans-Serif" font-size="10.00">percentOf()</text>
<polygon fill="#666666" stroke="#666666" points="0.5,-226.5 0.5,-226.5 107.5,-226.5 107.5,-226.5 0.5,-226.5"/>
<polygon fill="#666666" stroke="#666666" points="0.5,-211.5 0.5,-211.5 107.5,-211.5 107.5,-211.5 0.5,-211.5"/>
<polygon fill="none" stroke="#666666" points="0,0 0,-255 107,-255 107,0 0,0"/>
</a>
</g>
</g>
<!-- Node1&#45;&gt;Node3 -->
<g id="edge2_Node000001_Node000003" class="edge">
<title>Node1&#45;&gt;Node3</title>
<g id="a_edge2_Node000001_Node000003"><a xlink:title=" ">
<path fill="none" stroke="#63b8ff" d="M77.78,-280.64C76.42,-272.09 75.07,-263.66 73.75,-255.41"/>
<polygon fill="none" stroke="#63b8ff" points="74.36,-281.4 79.39,-290.73 81.27,-280.3 74.36,-281.4"/>
</a>
</g>
</g>
<!-- Node4 -->
<g id="Node000004" class="node">
<title>Node4</title>
<g id="a_Node000004"><a xlink:href="struct_base_types_1_1_primitives_1_1_radians.html" target="_top" xlink:title="A Radians object is a real&#45;valued and represents the range from 0 to 2pi.">
<polygon fill="white" stroke="transparent" points="232,-172.5 125,-172.5 125,-82.5 232,-82.5 232,-172.5"/>
<text text-anchor="start" x="130.5" y="-160.5" font-family="Helvetica,sans-Serif" font-size="10.00">BaseTypes::Primitives</text>
<text text-anchor="start" x="158" y="-149.5" font-family="Helvetica,sans-Serif" font-size="10.00">::Radians</text>
<text text-anchor="start" x="177" y="-134.5" font-family="Helvetica,sans-Serif" font-size="10.00"> </text>
<text text-anchor="start" x="141" y="-119.5" font-family="Helvetica,sans-Serif" font-size="10.00">+</text>
<text text-anchor="start" x="163.5" y="-119.5" font-family="Helvetica,sans-Serif" font-size="10.00">Radians()</text>
<text text-anchor="start" x="141" y="-104.5" font-family="Helvetica,sans-Serif" font-size="10.00">+</text>
<text text-anchor="start" x="163.5" y="-104.5" font-family="Helvetica,sans-Serif" font-size="10.00">Radians()</text>
<text text-anchor="start" x="141" y="-89.5" font-family="Helvetica,sans-Serif" font-size="10.00">+</text>
<text text-anchor="start" x="163.5" y="-89.5" font-family="Helvetica,sans-Serif" font-size="10.00">Radians()</text>
<polygon fill="#666666" stroke="#666666" points="125.5,-144.5 125.5,-144.5 232.5,-144.5 232.5,-144.5 125.5,-144.5"/>
<polygon fill="#666666" stroke="#666666" points="125.5,-129.5 125.5,-129.5 232.5,-129.5 232.5,-129.5 125.5,-129.5"/>
<polygon fill="none" stroke="#666666" points="125,-82.5 125,-172.5 232,-172.5 232,-82.5 125,-82.5"/>
</a>
</g>
</g>
<!-- Node1&#45;&gt;Node4 -->
<g id="edge3_Node000001_Node000004" class="edge">
<title>Node1&#45;&gt;Node4</title>
<g id="a_edge3_Node000001_Node000004"><a xlink:title=" ">
<path fill="none" stroke="#63b8ff" d="M153.81,-280.75C160.51,-239.45 166.77,-200.82 171.32,-172.8"/>
<polygon fill="none" stroke="#63b8ff" points="150.34,-280.3 152.19,-290.73 157.25,-281.42 150.34,-280.3"/>
</a>
</g>
</g>
<!-- Node2 -->
<g id="Node000002" class="node">
<title>Node2</title>
<g id="a_Node000002"><a xlink:title=" ">
<polygon fill="white" stroke="transparent" points="170.5,-841 60.5,-841 60.5,-781 170.5,-781 170.5,-841"/>
<text text-anchor="start" x="65.5" y="-829" font-family="Helvetica,sans-Serif" font-size="10.00">GenericNumber&lt; Real,</text>
<text text-anchor="start" x="95" y="-818" font-family="Helvetica,sans-Serif" font-size="10.00"> double &gt;</text>
<text text-anchor="start" x="113.5" y="-803" font-family="Helvetica,sans-Serif" font-size="10.00"> </text>
<text text-anchor="start" x="113.5" y="-788" font-family="Helvetica,sans-Serif" font-size="10.00"> </text>
<polygon fill="#bfbfbf" stroke="#bfbfbf" points="60.5,-813 60.5,-813 170.5,-813 170.5,-813 60.5,-813"/>
<polygon fill="#bfbfbf" stroke="#bfbfbf" points="60.5,-798 60.5,-798 170.5,-798 170.5,-798 60.5,-798"/>
<polygon fill="none" stroke="#bfbfbf" points="60.5,-781 60.5,-841 170.5,-841 170.5,-781 60.5,-781"/>
</a>
</g>
</g>
<!-- Node2&#45;&gt;Node1 -->
<g id="edge1_Node000001_Node000002" class="edge">
<title>Node2&#45;&gt;Node1</title>
<g id="a_edge1_Node000001_Node000002"><a xlink:title=" ">
<path fill="none" stroke="#63b8ff" d="M115.5,-770.52C115.5,-762.85 115.5,-754.31 115.5,-745.16"/>
<polygon fill="none" stroke="#63b8ff" points="112,-770.77 115.5,-780.77 119,-770.77 112,-770.77"/>
</a>
</g>
</g>
</g>
</svg>
