<?xml version="1.0" encoding="UTF-8" standalone="no"?>
<!DOCTYPE svg PUBLIC "-//W3C//DTD SVG 1.1//EN"
 "http://www.w3.org/Graphics/SVG/1.1/DTD/svg11.dtd">
<!-- Generated by graphviz version 2.47.1 (20210417.1919)
 -->
<!-- Title: BaseTypes::Containers::ByteList Pages: 1 -->
<svg width="134pt" height="235pt"
 viewBox="0.00 0.00 134.00 235.00" xmlns="http://www.w3.org/2000/svg" xmlns:xlink="http://www.w3.org/1999/xlink">
<g id="graph0" class="graph" transform="scale(1 1) rotate(0) translate(4 231)">
<title>BaseTypes::Containers::ByteList</title>
<!-- Node1 -->
<g id="Node000001" class="node">
<title>Node1</title>
<g id="a_Node000001"><a xlink:title="A ByteList object is a list of byte values with arbitrary indexed access to positions in the list.">
<polygon fill="#999999" stroke="transparent" points="126,-120 0,-120 0,0 126,0 126,-120"/>
<text text-anchor="start" x="12" y="-108" font-family="Helvetica,sans-Serif" font-size="10.00">BaseTypes::Containers</text>
<text text-anchor="start" x="41.5" y="-97" font-family="Helvetica,sans-Serif" font-size="10.00">::ByteList</text>
<text text-anchor="start" x="61" y="-82" font-family="Helvetica,sans-Serif" font-size="10.00"> </text>
<text text-anchor="start" x="4" y="-67" font-family="Helvetica,sans-Serif" font-size="10.00">+</text>
<text text-anchor="start" x="15" y="-67" font-family="Helvetica,sans-Serif" font-size="10.00">decodeToString()</text>
<text text-anchor="start" x="4" y="-52" font-family="Helvetica,sans-Serif" font-size="10.00">+</text>
<text text-anchor="start" x="15" y="-52" font-family="Helvetica,sans-Serif" font-size="10.00">decodeToBase64String()</text>
<text text-anchor="start" x="4" y="-37" font-family="Helvetica,sans-Serif" font-size="10.00">+</text>
<text text-anchor="start" x="15" y="-37" font-family="Helvetica,sans-Serif" font-size="10.00">asStringListWithBase()</text>
<text text-anchor="start" x="4" y="-22" font-family="Helvetica,sans-Serif" font-size="10.00">+</text>
<text text-anchor="start" x="15" y="-22" font-family="Helvetica,sans-Serif" font-size="10.00">fromList()</text>
<text text-anchor="start" x="4" y="-7" font-family="Helvetica,sans-Serif" font-size="10.00">+</text>
<text text-anchor="start" x="15" y="-7" font-family="Helvetica,sans-Serif" font-size="10.00">fromString()</text>
<polygon fill="#666666" stroke="#666666" points="0,-92 0,-92 126,-92 126,-92 0,-92"/>
<polygon fill="#666666" stroke="#666666" points="0,-77 0,-77 126,-77 126,-77 0,-77"/>
<polygon fill="none" stroke="#666666" points="0,0 0,-120 126,-120 126,0 0,0"/>
</a>
</g>
</g>
<!-- Node2 -->
<g id="Node000002" class="node">
<title>Node2</title>
<g id="a_Node000002"><a xlink:title=" ">
<polygon fill="white" stroke="transparent" points="122.5,-227 3.5,-227 3.5,-156 122.5,-156 122.5,-227"/>
<text text-anchor="start" x="9" y="-214.5" font-family="Helvetica,sans-Serif" font-size="10.00">GenericList&lt; Byte,</text>
<text text-anchor="start" x="9" y="-203.5" font-family="Helvetica,sans-Serif" font-size="10.00"> Byte::toString, _byteList</text>
<text text-anchor="start" x="35.5" y="-192.5" font-family="Helvetica,sans-Serif" font-size="10.00">TypeName &gt;</text>
<text text-anchor="start" x="61.5" y="-177.5" font-family="Helvetica,sans-Serif" font-size="10.00"> </text>
<text text-anchor="start" x="61.5" y="-162.5" font-family="Helvetica,sans-Serif" font-size="10.00"> </text>
<polygon fill="#bfbfbf" stroke="#bfbfbf" points="4,-187.5 4,-187.5 123,-187.5 123,-187.5 4,-187.5"/>
<polygon fill="#bfbfbf" stroke="#bfbfbf" points="4,-172.5 4,-172.5 123,-172.5 123,-172.5 4,-172.5"/>
<polygon fill="none" stroke="#bfbfbf" points="3.5,-156 3.5,-227 122.5,-227 122.5,-156 3.5,-156"/>
</a>
</g>
</g>
<!-- Node2&#45;&gt;Node1 -->
<g id="edge1_Node000001_Node000002" class="edge">
<title>Node2&#45;&gt;Node1</title>
<g id="a_edge1_Node000001_Node000002"><a xlink:title=" ">
<path fill="none" stroke="#63b8ff" d="M63,-145.71C63,-137.51 63,-128.84 63,-120.3"/>
<polygon fill="none" stroke="#63b8ff" points="59.5,-145.8 63,-155.8 66.5,-145.8 59.5,-145.8"/>
</a>
</g>
</g>
</g>
</svg>
