<?xml version="1.0" encoding="UTF-8" standalone="no"?>
<!DOCTYPE svg PUBLIC "-//W3C//DTD SVG 1.1//EN"
 "http://www.w3.org/Graphics/SVG/1.1/DTD/svg11.dtd">
<!-- Generated by graphviz version 2.47.1 (20210417.1919)
 -->
<!-- Title: Main::FluidSynthPlugin::FluidSynthPlugin_EventProcessor Pages: 1 -->
<svg width="220pt" height="298pt"
 viewBox="0.00 0.00 220.00 298.00" xmlns="http://www.w3.org/2000/svg" xmlns:xlink="http://www.w3.org/1999/xlink">
<g id="graph0" class="graph" transform="scale(1 1) rotate(0) translate(4 294)">
<title>Main::FluidSynthPlugin::FluidSynthPlugin_EventProcessor</title>
<polygon fill="white" stroke="transparent" points="-4,4 -4,-294 216,-294 216,4 -4,4"/>
<!-- Node1 -->
<g id="node1" class="node">
<title>Node1</title>
<g id="a_node1"><a xlink:title="A simple plugin for processing MIDI events via the FluidSynth library and return the resulting audio ...">
<polygon fill="#bfbfbf" stroke="black" points="0,-0.5 0,-192.5 212,-192.5 212,-0.5 0,-0.5"/>
<text text-anchor="start" x="8" y="-179.7" font-family="Helvetica,sans-Serif" font-size="11.00">Main::FluidSynthPlugin</text>
<text text-anchor="middle" x="106" y="-167.7" font-family="Helvetica,sans-Serif" font-size="11.00">::FluidSynthPlugin_EventProcessor</text>
<polyline fill="none" stroke="black" points="0,-160.5 212,-160.5 "/>
<text text-anchor="start" x="8" y="-147.7" font-family="Helvetica,sans-Serif" font-size="11.00">&#45; _descriptor</text>
<polyline fill="none" stroke="black" points="0,-140.5 212,-140.5 "/>
<text text-anchor="start" x="8" y="-127.7" font-family="Helvetica,sans-Serif" font-size="11.00">+ FluidSynthPlugin_EventProcessor()</text>
<text text-anchor="start" x="8" y="-115.7" font-family="Helvetica,sans-Serif" font-size="11.00">+ ~FluidSynthPlugin_EventProcessor()</text>
<text text-anchor="start" x="8" y="-103.7" font-family="Helvetica,sans-Serif" font-size="11.00">+ hasEditor()</text>
<text text-anchor="start" x="8" y="-91.7" font-family="Helvetica,sans-Serif" font-size="11.00">+ supportsDoublePrecisionProcessing()</text>
<text text-anchor="start" x="8" y="-79.7" font-family="Helvetica,sans-Serif" font-size="11.00">+ acceptsMidi()</text>
<text text-anchor="start" x="8" y="-67.7" font-family="Helvetica,sans-Serif" font-size="11.00">+ producesMidi()</text>
<text text-anchor="start" x="8" y="-55.7" font-family="Helvetica,sans-Serif" font-size="11.00">+ isMidiEffect()</text>
<text text-anchor="start" x="8" y="-43.7" font-family="Helvetica,sans-Serif" font-size="11.00">+ getTailLengthSeconds()</text>
<text text-anchor="start" x="8" y="-31.7" font-family="Helvetica,sans-Serif" font-size="11.00">+ getNumPrograms()</text>
<text text-anchor="start" x="8" y="-19.7" font-family="Helvetica,sans-Serif" font-size="11.00">+ getCurrentProgram()</text>
<text text-anchor="start" x="8" y="-7.7" font-family="Helvetica,sans-Serif" font-size="11.00">and 13 more...</text>
</a>
</g>
</g>
<!-- Node2 -->
<g id="node2" class="node">
<title>Node2</title>
<g id="a_node2"><a xlink:title=" ">
<polygon fill="white" stroke="#bfbfbf" points="45.5,-229.5 45.5,-289.5 166.5,-289.5 166.5,-229.5 45.5,-229.5"/>
<text text-anchor="middle" x="106" y="-276.7" font-family="Helvetica,sans-Serif" font-size="11.00">juce::AudioProcessor</text>
<polyline fill="none" stroke="#bfbfbf" points="45.5,-269.5 166.5,-269.5 "/>
<text text-anchor="middle" x="106" y="-256.7" font-family="Helvetica,sans-Serif" font-size="11.00"> </text>
<polyline fill="none" stroke="#bfbfbf" points="45.5,-249.5 166.5,-249.5 "/>
<text text-anchor="middle" x="106" y="-236.7" font-family="Helvetica,sans-Serif" font-size="11.00"> </text>
</a>
</g>
</g>
<!-- Node2&#45;&gt;Node1 -->
<g id="edge1" class="edge">
<title>Node2&#45;&gt;Node1</title>
<path fill="none" stroke="midnightblue" d="M106,-219.31C106,-211.02 106,-201.93 106,-192.57"/>
<polygon fill="none" stroke="midnightblue" points="102.5,-219.34 106,-229.34 109.5,-219.34 102.5,-219.34"/>
</g>
</g>
</svg>
