<?xml version="1.0" encoding="UTF-8" standalone="no"?>
<!DOCTYPE svg PUBLIC "-//W3C//DTD SVG 1.1//EN"
 "http://www.w3.org/Graphics/SVG/1.1/DTD/svg11.dtd">
<!-- Generated by graphviz version 2.47.1 (20210417.1919)
 -->
<!-- Title: BaseTypes::Containers::IntegerList Pages: 1 -->
<svg width="153pt" height="226pt"
 viewBox="0.00 0.00 153.00 226.00" xmlns="http://www.w3.org/2000/svg" xmlns:xlink="http://www.w3.org/1999/xlink">
<g id="graph0" class="graph" transform="scale(1 1) rotate(0) translate(4 222)">
<title>BaseTypes::Containers::IntegerList</title>
<polygon fill="white" stroke="transparent" points="-4,4 -4,-222 149,-222 149,4 -4,4"/>
<!-- Node1 -->
<g id="node1" class="node">
<title>Node1</title>
<g id="a_node1"><a xlink:title="An IntegerList object is a list of integer values with arbitrary indexed access to positions in the l...">
<polygon fill="#bfbfbf" stroke="black" points="13.5,-0.5 13.5,-90.5 131.5,-90.5 131.5,-0.5 13.5,-0.5"/>
<text text-anchor="start" x="21.5" y="-78.5" font-family="Helvetica,sans-Serif" font-size="10.00">BaseTypes::Containers</text>
<text text-anchor="middle" x="72.5" y="-67.5" font-family="Helvetica,sans-Serif" font-size="10.00">::IntegerList</text>
<polyline fill="none" stroke="black" points="13.5,-60.5 131.5,-60.5 "/>
<text text-anchor="middle" x="72.5" y="-48.5" font-family="Helvetica,sans-Serif" font-size="10.00"> </text>
<polyline fill="none" stroke="black" points="13.5,-41.5 131.5,-41.5 "/>
<text text-anchor="start" x="21.5" y="-29.5" font-family="Helvetica,sans-Serif" font-size="10.00">+ maximum()</text>
<text text-anchor="start" x="21.5" y="-18.5" font-family="Helvetica,sans-Serif" font-size="10.00">+ minimum()</text>
<text text-anchor="start" x="21.5" y="-7.5" font-family="Helvetica,sans-Serif" font-size="10.00">+ fromList()</text>
</a>
</g>
</g>
<!-- Node2 -->
<g id="node2" class="node">
<title>Node2</title>
<g id="a_node2"><a xlink:title=" ">
<polygon fill="white" stroke="#bfbfbf" points="0,-127.5 0,-217.5 145,-217.5 145,-127.5 0,-127.5"/>
<text text-anchor="start" x="8" y="-205.5" font-family="Helvetica,sans-Serif" font-size="10.00">BaseTypes::GenericTypes</text>
<text text-anchor="start" x="8" y="-194.5" font-family="Helvetica,sans-Serif" font-size="10.00">::GenericList&lt; Integer,</text>
<text text-anchor="start" x="8" y="-183.5" font-family="Helvetica,sans-Serif" font-size="10.00"> Integer::toString, _integerList</text>
<text text-anchor="middle" x="72.5" y="-172.5" font-family="Helvetica,sans-Serif" font-size="10.00">TypeName &gt;</text>
<polyline fill="none" stroke="#bfbfbf" points="0,-165.5 145,-165.5 "/>
<text text-anchor="middle" x="72.5" y="-153.5" font-family="Helvetica,sans-Serif" font-size="10.00"> </text>
<polyline fill="none" stroke="#bfbfbf" points="0,-146.5 145,-146.5 "/>
<text text-anchor="middle" x="72.5" y="-134.5" font-family="Helvetica,sans-Serif" font-size="10.00"> </text>
</a>
</g>
</g>
<!-- Node2&#45;&gt;Node1 -->
<g id="edge1" class="edge">
<title>Node2&#45;&gt;Node1</title>
<path fill="none" stroke="midnightblue" d="M72.5,-117.16C72.5,-108.28 72.5,-99.18 72.5,-90.59"/>
<polygon fill="none" stroke="midnightblue" points="69,-117.43 72.5,-127.43 76,-117.43 69,-117.43"/>
</g>
</g>
</svg>
