<?xml version="1.0" encoding="UTF-8" standalone="no"?>
<!DOCTYPE svg PUBLIC "-//W3C//DTD SVG 1.1//EN"
 "http://www.w3.org/Graphics/SVG/1.1/DTD/svg11.dtd">
<!-- Generated by graphviz version 2.47.1 (20210417.1919)
 -->
<!-- Title: BaseTypes::Primitives::Integer Pages: 1 -->
<svg width="127pt" height="434pt"
 viewBox="0.00 0.00 127.00 434.00" xmlns="http://www.w3.org/2000/svg" xmlns:xlink="http://www.w3.org/1999/xlink">
<g id="graph0" class="graph" transform="scale(1 1) rotate(0) translate(4 430)">
<title>BaseTypes::Primitives::Integer</title>
<!-- Node1 -->
<g id="Node000001" class="node">
<title>Node1</title>
<g id="a_Node000001"><a xlink:title="An Integer object wraps a value of the associated primitive type in an object.">
<polygon fill="#999999" stroke="transparent" points="113,-330 6,-330 6,0 113,0 113,-330"/>
<text text-anchor="start" x="11.5" y="-318" font-family="Helvetica,sans-Serif" font-size="10.00">BaseTypes::Primitives</text>
<text text-anchor="start" x="42" y="-307" font-family="Helvetica,sans-Serif" font-size="10.00">::Integer</text>
<text text-anchor="start" x="58" y="-292" font-family="Helvetica,sans-Serif" font-size="10.00"> </text>
<text text-anchor="start" x="13.5" y="-277" font-family="Helvetica,sans-Serif" font-size="10.00">+</text>
<text text-anchor="start" x="27.5" y="-277" font-family="Helvetica,sans-Serif" font-size="10.00">Integer()</text>
<text text-anchor="start" x="13.5" y="-262" font-family="Helvetica,sans-Serif" font-size="10.00">+</text>
<text text-anchor="start" x="27.5" y="-262" font-family="Helvetica,sans-Serif" font-size="10.00">Integer()</text>
<text text-anchor="start" x="13.5" y="-247" font-family="Helvetica,sans-Serif" font-size="10.00">+</text>
<text text-anchor="start" x="27.5" y="-247" font-family="Helvetica,sans-Serif" font-size="10.00">Integer()</text>
<text text-anchor="start" x="13.5" y="-232" font-family="Helvetica,sans-Serif" font-size="10.00">+</text>
<text text-anchor="start" x="27.5" y="-232" font-family="Helvetica,sans-Serif" font-size="10.00">toString()</text>
<text text-anchor="start" x="13.5" y="-217" font-family="Helvetica,sans-Serif" font-size="10.00">+</text>
<text text-anchor="start" x="27.5" y="-217" font-family="Helvetica,sans-Serif" font-size="10.00">operator float()</text>
<text text-anchor="start" x="13.5" y="-202" font-family="Helvetica,sans-Serif" font-size="10.00">+</text>
<text text-anchor="start" x="27.5" y="-202" font-family="Helvetica,sans-Serif" font-size="10.00">operator double()</text>
<text text-anchor="start" x="13.5" y="-187" font-family="Helvetica,sans-Serif" font-size="10.00">+</text>
<text text-anchor="start" x="27.5" y="-187" font-family="Helvetica,sans-Serif" font-size="10.00">operator size_t()</text>
<text text-anchor="start" x="13.5" y="-172" font-family="Helvetica,sans-Serif" font-size="10.00">+</text>
<text text-anchor="start" x="27.5" y="-172" font-family="Helvetica,sans-Serif" font-size="10.00">operator Natural()</text>
<text text-anchor="start" x="13.5" y="-157" font-family="Helvetica,sans-Serif" font-size="10.00">+</text>
<text text-anchor="start" x="27.5" y="-157" font-family="Helvetica,sans-Serif" font-size="10.00">operator%()</text>
<text text-anchor="start" x="13.5" y="-142" font-family="Helvetica,sans-Serif" font-size="10.00">+</text>
<text text-anchor="start" x="27.5" y="-142" font-family="Helvetica,sans-Serif" font-size="10.00">operator++()</text>
<text text-anchor="start" x="27.5" y="-127" font-family="Helvetica,sans-Serif" font-size="10.00">and 6 more...</text>
<text text-anchor="start" x="13.5" y="-112" font-family="Helvetica,sans-Serif" font-size="10.00">+</text>
<text text-anchor="start" x="27.5" y="-112" font-family="Helvetica,sans-Serif" font-size="10.00">toString()</text>
<text text-anchor="start" x="13.5" y="-97" font-family="Helvetica,sans-Serif" font-size="10.00">+</text>
<text text-anchor="start" x="27.5" y="-97" font-family="Helvetica,sans-Serif" font-size="10.00">toNatural()</text>
<text text-anchor="start" x="13.5" y="-82" font-family="Helvetica,sans-Serif" font-size="10.00">+</text>
<text text-anchor="start" x="27.5" y="-82" font-family="Helvetica,sans-Serif" font-size="10.00">abs()</text>
<text text-anchor="start" x="13.5" y="-67" font-family="Helvetica,sans-Serif" font-size="10.00">+</text>
<text text-anchor="start" x="27.5" y="-67" font-family="Helvetica,sans-Serif" font-size="10.00">ceiling()</text>
<text text-anchor="start" x="13.5" y="-52" font-family="Helvetica,sans-Serif" font-size="10.00">+</text>
<text text-anchor="start" x="27.5" y="-52" font-family="Helvetica,sans-Serif" font-size="10.00">floor()</text>
<text text-anchor="start" x="13.5" y="-37" font-family="Helvetica,sans-Serif" font-size="10.00">+</text>
<text text-anchor="start" x="27.5" y="-37" font-family="Helvetica,sans-Serif" font-size="10.00">mod()</text>
<text text-anchor="start" x="13.5" y="-22" font-family="Helvetica,sans-Serif" font-size="10.00">+</text>
<text text-anchor="start" x="27.5" y="-22" font-family="Helvetica,sans-Serif" font-size="10.00">power()</text>
<text text-anchor="start" x="13.5" y="-7" font-family="Helvetica,sans-Serif" font-size="10.00">+</text>
<text text-anchor="start" x="27.5" y="-7" font-family="Helvetica,sans-Serif" font-size="10.00">round()</text>
<polygon fill="#666666" stroke="#666666" points="6.5,-302 6.5,-302 113.5,-302 113.5,-302 6.5,-302"/>
<polygon fill="#666666" stroke="#666666" points="6.5,-287 6.5,-287 113.5,-287 113.5,-287 6.5,-287"/>
<polygon fill="none" stroke="#666666" points="6,0 6,-330 113,-330 113,0 6,0"/>
</a>
</g>
</g>
<!-- Node2 -->
<g id="Node000002" class="node">
<title>Node2</title>
<g id="a_Node000002"><a xlink:title=" ">
<polygon fill="white" stroke="transparent" points="119,-426 0,-426 0,-366 119,-366 119,-426"/>
<text text-anchor="start" x="5.5" y="-414" font-family="Helvetica,sans-Serif" font-size="10.00">GenericNumber&lt; Integer,</text>
<text text-anchor="start" x="48.5" y="-403" font-family="Helvetica,sans-Serif" font-size="10.00"> int &gt;</text>
<text text-anchor="start" x="58" y="-388" font-family="Helvetica,sans-Serif" font-size="10.00"> </text>
<text text-anchor="start" x="58" y="-373" font-family="Helvetica,sans-Serif" font-size="10.00"> </text>
<polygon fill="#bfbfbf" stroke="#bfbfbf" points="0.5,-398 0.5,-398 119.5,-398 119.5,-398 0.5,-398"/>
<polygon fill="#bfbfbf" stroke="#bfbfbf" points="0.5,-383 0.5,-383 119.5,-383 119.5,-383 0.5,-383"/>
<polygon fill="none" stroke="#bfbfbf" points="0,-366 0,-426 119,-426 119,-366 0,-366"/>
</a>
</g>
</g>
<!-- Node2&#45;&gt;Node1 -->
<g id="edge1_Node000001_Node000002" class="edge">
<title>Node2&#45;&gt;Node1</title>
<g id="a_edge1_Node000001_Node000002"><a xlink:title=" ">
<path fill="none" stroke="#63b8ff" d="M59.5,-355.94C59.5,-348.17 59.5,-339.56 59.5,-330.42"/>
<polygon fill="none" stroke="#63b8ff" points="56,-356 59.5,-366 63,-356 56,-356"/>
</a>
</g>
</g>
</g>
</svg>
