<?xml version="1.0" encoding="UTF-8" standalone="no"?>
<!DOCTYPE svg PUBLIC "-//W3C//DTD SVG 1.1//EN"
 "http://www.w3.org/Graphics/SVG/1.1/DTD/svg11.dtd">
<!-- Generated by graphviz version 2.47.1 (20210417.1919)
 -->
<!-- Title: Main::FluidSynthPlugin::_PresetSelectionComponent Pages: 1 -->
<svg width="226pt" height="369pt"
 viewBox="0.00 0.00 226.00 369.00" xmlns="http://www.w3.org/2000/svg" xmlns:xlink="http://www.w3.org/1999/xlink">
<g id="graph0" class="graph" transform="scale(1 1) rotate(0) translate(4 365)">
<title>Main::FluidSynthPlugin::_PresetSelectionComponent</title>
<polygon fill="white" stroke="transparent" points="-4,4 -4,-365 222,-365 222,4 -4,4"/>
<!-- Node1 -->
<g id="node1" class="node">
<title>Node1</title>
<g id="a_node1"><a xlink:title="A selection component for soundfont presets.">
<polygon fill="#bfbfbf" stroke="black" points="22,-0.5 22,-266.5 186,-266.5 186,-0.5 22,-0.5"/>
<text text-anchor="start" x="30" y="-254.5" font-family="Helvetica,sans-Serif" font-size="10.00">Main::FluidSynthPlugin</text>
<text text-anchor="middle" x="104" y="-243.5" font-family="Helvetica,sans-Serif" font-size="10.00">::_PresetSelectionComponent</text>
<polyline fill="none" stroke="black" points="22,-236.5 186,-236.5 "/>
<text text-anchor="start" x="30" y="-224.5" font-family="Helvetica,sans-Serif" font-size="10.00">&#45; _presetIdentification</text>
<text text-anchor="start" x="30" y="-213.5" font-family="Helvetica,sans-Serif" font-size="10.00">&#45; _bankNumberList</text>
<text text-anchor="start" x="30" y="-202.5" font-family="Helvetica,sans-Serif" font-size="10.00">&#45; _bankNumberToProgramListMap</text>
<text text-anchor="start" x="30" y="-191.5" font-family="Helvetica,sans-Serif" font-size="10.00">&#45; _bankNumberListModel</text>
<text text-anchor="start" x="30" y="-180.5" font-family="Helvetica,sans-Serif" font-size="10.00">&#45; _programListModel</text>
<text text-anchor="start" x="30" y="-169.5" font-family="Helvetica,sans-Serif" font-size="10.00">&#45; _bankColumnHeadingWidget</text>
<text text-anchor="start" x="30" y="-158.5" font-family="Helvetica,sans-Serif" font-size="10.00">&#45; _programColumnHeadingWidget</text>
<text text-anchor="start" x="30" y="-147.5" font-family="Helvetica,sans-Serif" font-size="10.00">&#45; _bankListBoxWidget</text>
<text text-anchor="start" x="30" y="-136.5" font-family="Helvetica,sans-Serif" font-size="10.00">&#45; _programListBoxWidget</text>
<text text-anchor="start" x="30" y="-125.5" font-family="Helvetica,sans-Serif" font-size="10.00">&#45; _listBoxFont</text>
<text text-anchor="start" x="30" y="-114.5" font-family="Helvetica,sans-Serif" font-size="10.00">&#45; _okayButtonWidget</text>
<text text-anchor="start" x="30" y="-103.5" font-family="Helvetica,sans-Serif" font-size="10.00">&#45; _cancelButtonWidget</text>
<polyline fill="none" stroke="black" points="22,-96.5 186,-96.5 "/>
<text text-anchor="start" x="30" y="-84.5" font-family="Helvetica,sans-Serif" font-size="10.00">+ _PresetSelectionComponent()</text>
<text text-anchor="start" x="30" y="-73.5" font-family="Helvetica,sans-Serif" font-size="10.00">+ presetIdentification()</text>
<text text-anchor="start" x="30" y="-62.5" font-family="Helvetica,sans-Serif" font-size="10.00">+ confirm()</text>
<text text-anchor="start" x="30" y="-51.5" font-family="Helvetica,sans-Serif" font-size="10.00">+ buttonClicked()</text>
<text text-anchor="start" x="30" y="-40.5" font-family="Helvetica,sans-Serif" font-size="10.00">+ handleListBoxSelection()</text>
<text text-anchor="start" x="30" y="-29.5" font-family="Helvetica,sans-Serif" font-size="10.00">+ isDisplayingMarkedBank()</text>
<text text-anchor="start" x="30" y="-18.5" font-family="Helvetica,sans-Serif" font-size="10.00">+ listBoxFont()</text>
<text text-anchor="start" x="30" y="-7.5" font-family="Helvetica,sans-Serif" font-size="10.00">+ resized()</text>
</a>
</g>
</g>
<!-- Node2 -->
<g id="node2" class="node">
<title>Node2</title>
<g id="a_node2"><a xlink:title=" ">
<polygon fill="white" stroke="#bfbfbf" points="0,-303.5 0,-360.5 90,-360.5 90,-303.5 0,-303.5"/>
<text text-anchor="middle" x="45" y="-348.5" font-family="Helvetica,sans-Serif" font-size="10.00">juce::Component</text>
<polyline fill="none" stroke="#bfbfbf" points="0,-341.5 90,-341.5 "/>
<text text-anchor="middle" x="45" y="-329.5" font-family="Helvetica,sans-Serif" font-size="10.00"> </text>
<polyline fill="none" stroke="#bfbfbf" points="0,-322.5 90,-322.5 "/>
<text text-anchor="middle" x="45" y="-310.5" font-family="Helvetica,sans-Serif" font-size="10.00"> </text>
</a>
</g>
</g>
<!-- Node2&#45;&gt;Node1 -->
<g id="edge1" class="edge">
<title>Node2&#45;&gt;Node1</title>
<path fill="none" stroke="midnightblue" d="M56.27,-293.48C58.71,-285.34 61.43,-276.29 64.29,-266.75"/>
<polygon fill="none" stroke="midnightblue" points="52.85,-292.68 53.33,-303.26 59.56,-294.69 52.85,-292.68"/>
</g>
<!-- Node3 -->
<g id="node3" class="node">
<title>Node3</title>
<g id="a_node3"><a xlink:title=" ">
<polygon fill="white" stroke="#bfbfbf" points="108,-303.5 108,-360.5 218,-360.5 218,-303.5 108,-303.5"/>
<text text-anchor="middle" x="163" y="-348.5" font-family="Helvetica,sans-Serif" font-size="10.00">juce::Button::Listener</text>
<polyline fill="none" stroke="#bfbfbf" points="108,-341.5 218,-341.5 "/>
<text text-anchor="middle" x="163" y="-329.5" font-family="Helvetica,sans-Serif" font-size="10.00"> </text>
<polyline fill="none" stroke="#bfbfbf" points="108,-322.5 218,-322.5 "/>
<text text-anchor="middle" x="163" y="-310.5" font-family="Helvetica,sans-Serif" font-size="10.00"> </text>
</a>
</g>
</g>
<!-- Node3&#45;&gt;Node1 -->
<g id="edge2" class="edge">
<title>Node3&#45;&gt;Node1</title>
<path fill="none" stroke="midnightblue" d="M151.73,-293.48C149.29,-285.34 146.57,-276.29 143.71,-266.75"/>
<polygon fill="none" stroke="midnightblue" points="148.44,-294.69 154.67,-303.26 155.15,-292.68 148.44,-294.69"/>
</g>
</g>
</svg>
