<?xml version="1.0" encoding="UTF-8" standalone="no"?>
<!DOCTYPE svg PUBLIC "-//W3C//DTD SVG 1.1//EN"
 "http://www.w3.org/Graphics/SVG/1.1/DTD/svg11.dtd">
<!-- Generated by graphviz version 2.47.1 (20210417.1919)
 -->
<!-- Title: NaturalList Pages: 1 -->
<svg width="128pt" height="224pt"
 viewBox="0.00 0.00 128.00 224.00" xmlns="http://www.w3.org/2000/svg" xmlns:xlink="http://www.w3.org/1999/xlink">

<svg id="main" version="1.1" xmlns="http://www.w3.org/2000/svg" xmlns:xlink="http://www.w3.org/1999/xlink" xml:space="preserve">

<style type="text/css"><![CDATA[
.node, .edge {opacity: 0.7;}
.node.selected, .edge.selected {opacity: 1;}
.edge:hover path { stroke: red; }
.edge:hover polygon { stroke: red; fill: red; }
]]></style>
<script type="application/ecmascript" xlink:href="svg.min.js"/>
<svg id="graph" class="graph">
<g id="graph0" class="graph" transform="scale(1 1) rotate(0) translate(4 220)">
<title>NaturalList</title>
<!-- Node1 -->
<g id="Node000001" class="node">
<title>Node1</title>
<g id="a_Node000001"><a xlink:title="A NaturalList object is a list of non&#45;negative integer values with arbitrary indexed access to positi...">
<polygon fill="#999999" stroke="transparent" points="120,-109 0,-109 0,0 120,0 120,-109"/>
<text text-anchor="start" x="36.5" y="-96.5" font-family="Helvetica,sans-Serif" font-size="10.00">NaturalList</text>
<text text-anchor="start" x="58" y="-81.5" font-family="Helvetica,sans-Serif" font-size="10.00"> </text>
<text text-anchor="start" x="4" y="-66.5" font-family="Helvetica,sans-Serif" font-size="10.00">+</text>
<text text-anchor="start" x="15" y="-66.5" font-family="Helvetica,sans-Serif" font-size="10.00">asStringListWithBase()</text>
<text text-anchor="start" x="4" y="-51.5" font-family="Helvetica,sans-Serif" font-size="10.00">+</text>
<text text-anchor="start" x="15" y="-51.5" font-family="Helvetica,sans-Serif" font-size="10.00">slice()</text>
<text text-anchor="start" x="4" y="-36.5" font-family="Helvetica,sans-Serif" font-size="10.00">+</text>
<text text-anchor="start" x="15" y="-36.5" font-family="Helvetica,sans-Serif" font-size="10.00">maximum()</text>
<text text-anchor="start" x="4" y="-21.5" font-family="Helvetica,sans-Serif" font-size="10.00">+</text>
<text text-anchor="start" x="15" y="-21.5" font-family="Helvetica,sans-Serif" font-size="10.00">minimum()</text>
<text text-anchor="start" x="4" y="-6.5" font-family="Helvetica,sans-Serif" font-size="10.00">+</text>
<text text-anchor="start" x="15" y="-6.5" font-family="Helvetica,sans-Serif" font-size="10.00">fromList()</text>
<polygon fill="#666666" stroke="#666666" points="0,-91.5 0,-91.5 120,-91.5 120,-91.5 0,-91.5"/>
<polygon fill="#666666" stroke="#666666" points="0,-76.5 0,-76.5 120,-76.5 120,-76.5 0,-76.5"/>
<polygon fill="none" stroke="#666666" points="0,0 0,-109 120,-109 120,0 0,0"/>
</a>
</g>
</g>
<!-- Node2 -->
<g id="Node000002" class="node">
<title>Node2</title>
<g id="a_Node000002"><a xlink:title=" ">
<polygon fill="white" stroke="transparent" points="118,-216 2,-216 2,-145 118,-145 118,-216"/>
<text text-anchor="start" x="7" y="-203.5" font-family="Helvetica,sans-Serif" font-size="10.00">GenericList&lt; Natural,</text>
<text text-anchor="start" x="7" y="-192.5" font-family="Helvetica,sans-Serif" font-size="10.00"> Natural::toString, </text>
<text text-anchor="start" x="7" y="-181.5" font-family="Helvetica,sans-Serif" font-size="10.00">_naturalListTypeName &gt;</text>
<text text-anchor="start" x="58" y="-166.5" font-family="Helvetica,sans-Serif" font-size="10.00"> </text>
<text text-anchor="start" x="58" y="-151.5" font-family="Helvetica,sans-Serif" font-size="10.00"> </text>
<polygon fill="#bfbfbf" stroke="#bfbfbf" points="2,-176.5 2,-176.5 118,-176.5 118,-176.5 2,-176.5"/>
<polygon fill="#bfbfbf" stroke="#bfbfbf" points="2,-161.5 2,-161.5 118,-161.5 118,-161.5 2,-161.5"/>
<polygon fill="none" stroke="#bfbfbf" points="2,-145 2,-216 118,-216 118,-145 2,-145"/>
</a>
</g>
</g>
<!-- Node2&#45;&gt;Node1 -->
<g id="edge1_Node000001_Node000002" class="edge">
<title>Node2&#45;&gt;Node1</title>
<g id="a_edge1_Node000001_Node000002"><a xlink:title=" ">
<path fill="none" stroke="#63b8ff" d="M60,-134.79C60,-126.54 60,-117.85 60,-109.36"/>
<polygon fill="none" stroke="#63b8ff" points="56.5,-134.96 60,-144.96 63.5,-134.96 56.5,-134.96"/>
</a>
</g>
</g>
</g>
</svg>
</svg>

<style type='text/css'>
<![CDATA[
[data-mouse-over-selected='false'] { opacity: 0.7; }
[data-mouse-over-selected='true']  { opacity: 1.0; }
]]>
</style>
<script type="application/ecmascript"><![CDATA[
document.addEventListener('DOMContentLoaded', (event) => {
  highlightEdges();
  highlightAdjacentNodes();
});
]]></script>
</svg>
