<?xml version="1.0" encoding="UTF-8" standalone="no"?>
<!DOCTYPE svg PUBLIC "-//W3C//DTD SVG 1.1//EN"
 "http://www.w3.org/Graphics/SVG/1.1/DTD/svg11.dtd">
<!-- Generated by graphviz version 2.47.1 (20210417.1919)
 -->
<!-- Title: BaseModules::CommandLineArgumentList Pages: 1 -->
<svg width="200pt" height="443pt"
 viewBox="0.00 0.00 200.00 443.00" xmlns="http://www.w3.org/2000/svg" xmlns:xlink="http://www.w3.org/1999/xlink">
<g id="graph0" class="graph" transform="scale(1 1) rotate(0) translate(4 439)">
<title>BaseModules::CommandLineArgumentList</title>
<polygon fill="white" stroke="transparent" points="-4,4 -4,-439 196,-439 196,4 -4,4"/>
<!-- Node1 -->
<g id="node1" class="node">
<title>Node1</title>
<g id="a_node1"><a xlink:title="An CommandLineArgumentList object is a list of abstract arguments for the main program derived from t...">
<polygon fill="#bfbfbf" stroke="black" points="15.5,-0.5 15.5,-72.5 176.5,-72.5 176.5,-0.5 15.5,-0.5"/>
<text text-anchor="start" x="23.5" y="-59.7" font-family="Helvetica,sans-Serif" font-size="11.00">BaseModules::CommandLine</text>
<text text-anchor="middle" x="96" y="-47.7" font-family="Helvetica,sans-Serif" font-size="11.00">ArgumentList</text>
<polyline fill="none" stroke="black" points="15.5,-40.5 176.5,-40.5 "/>
<text text-anchor="middle" x="96" y="-27.7" font-family="Helvetica,sans-Serif" font-size="11.00"> </text>
<polyline fill="none" stroke="black" points="15.5,-20.5 176.5,-20.5 "/>
<text text-anchor="start" x="23.5" y="-7.7" font-family="Helvetica,sans-Serif" font-size="11.00">+ toString()</text>
</a>
</g>
</g>
<!-- Node2 -->
<g id="node2" class="node">
<title>Node2</title>
<g id="a_node2"><a xlink:href="struct_base_types_1_1_containers_1_1_generic_sequence.html" target="_top" xlink:title=" ">
<polygon fill="white" stroke="black" points="0,-109.5 0,-337.5 192,-337.5 192,-109.5 0,-109.5"/>
<text text-anchor="start" x="8" y="-324.7" font-family="Helvetica,sans-Serif" font-size="11.00">BaseTypes::Containers</text>
<text text-anchor="start" x="8" y="-312.7" font-family="Helvetica,sans-Serif" font-size="11.00">::GenericSequence&lt; CommandLine</text>
<text text-anchor="start" x="8" y="-300.7" font-family="Helvetica,sans-Serif" font-size="11.00">Argument, CommandLineArgument</text>
<text text-anchor="middle" x="96" y="-288.7" font-family="Helvetica,sans-Serif" font-size="11.00">::toString &gt;</text>
<polyline fill="none" stroke="black" points="0,-281.5 192,-281.5 "/>
<text text-anchor="middle" x="96" y="-268.7" font-family="Helvetica,sans-Serif" font-size="11.00"> </text>
<polyline fill="none" stroke="black" points="0,-261.5 192,-261.5 "/>
<text text-anchor="start" x="8" y="-248.7" font-family="Helvetica,sans-Serif" font-size="11.00">+ GenericSequence()</text>
<text text-anchor="start" x="8" y="-236.7" font-family="Helvetica,sans-Serif" font-size="11.00">+ GenericSequence()</text>
<text text-anchor="start" x="8" y="-224.7" font-family="Helvetica,sans-Serif" font-size="11.00">+ GenericSequence()</text>
<text text-anchor="start" x="8" y="-212.7" font-family="Helvetica,sans-Serif" font-size="11.00">+ GenericSequence()</text>
<text text-anchor="start" x="8" y="-200.7" font-family="Helvetica,sans-Serif" font-size="11.00">+ asArray()</text>
<text text-anchor="start" x="8" y="-188.7" font-family="Helvetica,sans-Serif" font-size="11.00">+ asArray()</text>
<text text-anchor="start" x="8" y="-176.7" font-family="Helvetica,sans-Serif" font-size="11.00">+ operator[]()</text>
<text text-anchor="start" x="8" y="-164.7" font-family="Helvetica,sans-Serif" font-size="11.00">+ operator[]()</text>
<text text-anchor="start" x="8" y="-152.7" font-family="Helvetica,sans-Serif" font-size="11.00">+ at()</text>
<text text-anchor="start" x="8" y="-140.7" font-family="Helvetica,sans-Serif" font-size="11.00">+ at()</text>
<text text-anchor="start" x="8" y="-128.7" font-family="Helvetica,sans-Serif" font-size="11.00">and 14 more...</text>
<text text-anchor="start" x="8" y="-116.7" font-family="Helvetica,sans-Serif" font-size="11.00"># _toString()</text>
</a>
</g>
</g>
<!-- Node2&#45;&gt;Node1 -->
<g id="edge1" class="edge">
<title>Node2&#45;&gt;Node1</title>
<path fill="none" stroke="midnightblue" d="M96,-99.22C96,-89.7 96,-80.68 96,-72.62"/>
<polygon fill="none" stroke="midnightblue" points="92.5,-99.29 96,-109.29 99.5,-99.29 92.5,-99.29"/>
</g>
<!-- Node3 -->
<g id="node3" class="node">
<title>Node3</title>
<g id="a_node3"><a xlink:title=" ">
<polygon fill="white" stroke="#bfbfbf" points="3.5,-374.5 3.5,-434.5 188.5,-434.5 188.5,-374.5 3.5,-374.5"/>
<text text-anchor="middle" x="96" y="-421.7" font-family="Helvetica,sans-Serif" font-size="11.00">vector&lt; CommandLineArgument &gt;</text>
<polyline fill="none" stroke="#bfbfbf" points="3.5,-414.5 188.5,-414.5 "/>
<text text-anchor="middle" x="96" y="-401.7" font-family="Helvetica,sans-Serif" font-size="11.00"> </text>
<polyline fill="none" stroke="#bfbfbf" points="3.5,-394.5 188.5,-394.5 "/>
<text text-anchor="middle" x="96" y="-381.7" font-family="Helvetica,sans-Serif" font-size="11.00"> </text>
</a>
</g>
</g>
<!-- Node3&#45;&gt;Node2 -->
<g id="edge2" class="edge">
<title>Node3&#45;&gt;Node2</title>
<path fill="none" stroke="midnightblue" d="M96,-364.1C96,-355.92 96,-346.92 96,-337.55"/>
<polygon fill="none" stroke="midnightblue" points="92.5,-364.34 96,-374.34 99.5,-364.34 92.5,-364.34"/>
</g>
</g>
</svg>
