<?xml version="1.0" encoding="UTF-8" standalone="no"?>
<!DOCTYPE svg PUBLIC "-//W3C//DTD SVG 1.1//EN"
 "http://www.w3.org/Graphics/SVG/1.1/DTD/svg11.dtd">
<!-- Generated by graphviz version 2.47.1 (20210417.1919)
 -->
<!-- Title: MIDI::MidiEventList Pages: 1 -->
<svg width="143pt" height="215pt"
 viewBox="0.00 0.00 143.00 215.00" xmlns="http://www.w3.org/2000/svg" xmlns:xlink="http://www.w3.org/1999/xlink">
<g id="graph0" class="graph" transform="scale(1 1) rotate(0) translate(4 211)">
<title>MIDI::MidiEventList</title>
<polygon fill="white" stroke="transparent" points="-4,4 -4,-211 139,-211 139,4 -4,4"/>
<!-- Node1 -->
<g id="node1" class="node">
<title>Node1</title>
<g id="a_node1"><a xlink:title="An MidiEventList object is a list of MIDI events with arbitrary indexed access to positions in the li...">
<polygon fill="#bfbfbf" stroke="black" points="17.5,-0.5 17.5,-79.5 117.5,-79.5 117.5,-0.5 17.5,-0.5"/>
<text text-anchor="middle" x="67.5" y="-67.5" font-family="Helvetica,sans-Serif" font-size="10.00">MIDI::MidiEventList</text>
<polyline fill="none" stroke="black" points="17.5,-60.5 117.5,-60.5 "/>
<text text-anchor="middle" x="67.5" y="-48.5" font-family="Helvetica,sans-Serif" font-size="10.00"> </text>
<polyline fill="none" stroke="black" points="17.5,-41.5 117.5,-41.5 "/>
<text text-anchor="start" x="25.5" y="-29.5" font-family="Helvetica,sans-Serif" font-size="10.00">+ merge()</text>
<text text-anchor="start" x="25.5" y="-18.5" font-family="Helvetica,sans-Serif" font-size="10.00">+ shiftEventTimes()</text>
<text text-anchor="start" x="25.5" y="-7.5" font-family="Helvetica,sans-Serif" font-size="10.00">+ fromList()</text>
</a>
</g>
</g>
<!-- Node2 -->
<g id="node2" class="node">
<title>Node2</title>
<g id="a_node2"><a xlink:title=" ">
<polygon fill="white" stroke="#bfbfbf" points="0,-116.5 0,-206.5 135,-206.5 135,-116.5 0,-116.5"/>
<text text-anchor="start" x="8" y="-194.5" font-family="Helvetica,sans-Serif" font-size="10.00">BaseTypes::GenericTypes</text>
<text text-anchor="start" x="8" y="-183.5" font-family="Helvetica,sans-Serif" font-size="10.00">::GenericList&lt; MidiEvent,</text>
<text text-anchor="start" x="8" y="-172.5" font-family="Helvetica,sans-Serif" font-size="10.00"> MidiEvent::toString, &amp;</text>
<text text-anchor="middle" x="67.5" y="-161.5" font-family="Helvetica,sans-Serif" font-size="10.00">_midiEventListTypeName &gt;</text>
<polyline fill="none" stroke="#bfbfbf" points="0,-154.5 135,-154.5 "/>
<text text-anchor="middle" x="67.5" y="-142.5" font-family="Helvetica,sans-Serif" font-size="10.00"> </text>
<polyline fill="none" stroke="#bfbfbf" points="0,-135.5 135,-135.5 "/>
<text text-anchor="middle" x="67.5" y="-123.5" font-family="Helvetica,sans-Serif" font-size="10.00"> </text>
</a>
</g>
</g>
<!-- Node2&#45;&gt;Node1 -->
<g id="edge1" class="edge">
<title>Node2&#45;&gt;Node1</title>
<path fill="none" stroke="midnightblue" d="M67.5,-106.08C67.5,-97.23 67.5,-88.23 67.5,-79.86"/>
<polygon fill="none" stroke="midnightblue" points="64,-106.34 67.5,-116.34 71,-106.34 64,-106.34"/>
</g>
</g>
</svg>
