<?xml version="1.0" encoding="UTF-8" standalone="no"?>
<!DOCTYPE svg PUBLIC "-//W3C//DTD SVG 1.1//EN"
 "http://www.w3.org/Graphics/SVG/1.1/DTD/svg11.dtd">
<!-- Generated by graphviz version 2.47.1 (20210417.1919)
 -->
<!-- Title: BaseTypes::Containers::RealList Pages: 1 -->
<svg width="124pt" height="205pt"
 viewBox="0.00 0.00 124.00 205.00" xmlns="http://www.w3.org/2000/svg" xmlns:xlink="http://www.w3.org/1999/xlink">

<svg id="main" version="1.1" xmlns="http://www.w3.org/2000/svg" xmlns:xlink="http://www.w3.org/1999/xlink" xml:space="preserve">

<style type="text/css"><![CDATA[
.node, .edge {opacity: 0.7;}
.node.selected, .edge.selected {opacity: 1;}
.edge:hover path { stroke: red; }
.edge:hover polygon { stroke: red; fill: red; }
]]></style>
<script type="application/ecmascript" xlink:href="svg.min.js"/>
<svg id="graph" class="graph">
<g id="graph0" class="graph" transform="scale(1 1) rotate(0) translate(4 201)">
<title>BaseTypes::Containers::RealList</title>
<!-- Node1 -->
<g id="Node000001" class="node">
<title>Node1</title>
<g id="a_Node000001"><a xlink:title="A RealList object is a list of real values with arbitrary indexed access to positions in the list.">
<polygon fill="#999999" stroke="transparent" points="114,-90 2,-90 2,0 114,0 114,-90"/>
<text text-anchor="start" x="7" y="-78" font-family="Helvetica,sans-Serif" font-size="10.00">BaseTypes::Containers</text>
<text text-anchor="start" x="37" y="-67" font-family="Helvetica,sans-Serif" font-size="10.00">::RealList</text>
<text text-anchor="start" x="56" y="-52" font-family="Helvetica,sans-Serif" font-size="10.00"> </text>
<text text-anchor="start" x="19" y="-37" font-family="Helvetica,sans-Serif" font-size="10.00">+</text>
<text text-anchor="start" x="43" y="-37" font-family="Helvetica,sans-Serif" font-size="10.00">fill()</text>
<text text-anchor="start" x="19" y="-22" font-family="Helvetica,sans-Serif" font-size="10.00">+</text>
<text text-anchor="start" x="43" y="-22" font-family="Helvetica,sans-Serif" font-size="10.00">multiply()</text>
<text text-anchor="start" x="19" y="-7" font-family="Helvetica,sans-Serif" font-size="10.00">+</text>
<text text-anchor="start" x="43" y="-7" font-family="Helvetica,sans-Serif" font-size="10.00">fromList()</text>
<polygon fill="#666666" stroke="#666666" points="2,-62 2,-62 114,-62 114,-62 2,-62"/>
<polygon fill="#666666" stroke="#666666" points="2,-47 2,-47 114,-47 114,-47 2,-47"/>
<polygon fill="none" stroke="#666666" points="2,0 2,-90 114,-90 114,0 2,0"/>
</a>
</g>
</g>
<!-- Node2 -->
<g id="Node000002" class="node">
<title>Node2</title>
<g id="a_Node000002"><a xlink:title=" ">
<polygon fill="white" stroke="transparent" points="116,-197 0,-197 0,-126 116,-126 116,-197"/>
<text text-anchor="start" x="5" y="-184.5" font-family="Helvetica,sans-Serif" font-size="10.00">GenericList&lt; Real,</text>
<text text-anchor="start" x="5" y="-173.5" font-family="Helvetica,sans-Serif" font-size="10.00"> Real::toString, _realList</text>
<text text-anchor="start" x="30" y="-162.5" font-family="Helvetica,sans-Serif" font-size="10.00">TypeName &gt;</text>
<text text-anchor="start" x="56" y="-147.5" font-family="Helvetica,sans-Serif" font-size="10.00"> </text>
<text text-anchor="start" x="56" y="-132.5" font-family="Helvetica,sans-Serif" font-size="10.00"> </text>
<polygon fill="#bfbfbf" stroke="#bfbfbf" points="0,-157.5 0,-157.5 116,-157.5 116,-157.5 0,-157.5"/>
<polygon fill="#bfbfbf" stroke="#bfbfbf" points="0,-142.5 0,-142.5 116,-142.5 116,-142.5 0,-142.5"/>
<polygon fill="none" stroke="#bfbfbf" points="0,-126 0,-197 116,-197 116,-126 0,-126"/>
</a>
</g>
</g>
<!-- Node2&#45;&gt;Node1 -->
<g id="edge1_Node000001_Node000002" class="edge">
<title>Node2&#45;&gt;Node1</title>
<g id="a_edge1_Node000001_Node000002"><a xlink:title=" ">
<path fill="none" stroke="#63b8ff" d="M58,-115.56C58,-107.26 58,-98.59 58,-90.3"/>
<polygon fill="none" stroke="#63b8ff" points="54.5,-115.84 58,-125.84 61.5,-115.84 54.5,-115.84"/>
</a>
</g>
</g>
</g>
</svg>
</svg>

<style type='text/css'>
<![CDATA[
[data-mouse-over-selected='false'] { opacity: 0.7; }
[data-mouse-over-selected='true']  { opacity: 1.0; }
]]>
</style>
<script type="application/ecmascript"><![CDATA[
document.addEventListener('DOMContentLoaded', (event) => {
  highlightEdges();
  highlightAdjacentNodes();
});
]]></script>
</svg>
